M48
;DRILL file {KiCad 4.0.7} date 06/25/21 20:42:03
;FORMAT={-:-/ absolute / inch / decimal}
FMAT,2
INCH,TZ
T1C0.031
T2C0.035
T3C0.039
T4C0.043
T5C0.047
T6C0.055
T7C0.059
T8C0.060
T9C0.067
T10C0.120
%
G90
G05
M72
T1
X2.45Y-2.87
X2.8437Y-2.87
X2.9Y-3.35
X2.9Y-3.6
X2.9Y-3.7947
X2.9Y-4.09
X2.97Y-2.72
X2.97Y-3.02
X3.Y-3.35
X3.Y-3.6
X3.1Y-3.35
X3.1Y-3.6
X3.12Y-2.74
X3.22Y-2.74
X3.24Y-3.76
X3.24Y-4.06
X3.27Y-3.35
X3.27Y-3.6
X3.32Y-2.74
X3.37Y-3.35
X3.37Y-3.6
X3.37Y-3.7731
X3.37Y-3.97
X3.43Y-2.71
X3.43Y-3.01
X3.47Y-3.35
X3.47Y-3.6
X3.96Y-3.7163
X3.96Y-4.11
X4.0945Y-3.8189
X4.0945Y-4.1189
X4.2283Y-3.8189
X4.2283Y-4.1189
X4.29Y-2.71
X4.29Y-3.01
X4.3543Y-3.9213
X4.3543Y-4.1181
X4.42Y-2.71
X4.42Y-3.01
X4.55Y-2.71
X4.5984Y-3.8858
X4.5992Y-4.0512
X4.65Y-2.71
X4.6984Y-3.8858
X4.6992Y-4.0512
X4.73Y-3.34
X4.73Y-3.5369
X4.75Y-2.71
X4.76Y-2.85
X4.7984Y-3.8858
X4.7992Y-4.0512
X4.83Y-3.13
X4.8839Y-2.4126
X4.8839Y-2.7126
X4.93Y-3.13
X4.95Y-3.46
X4.9646Y-3.8543
X4.9756Y-3.9843
X4.9756Y-4.1102
X5.03Y-3.13
X5.0346Y-2.7283
X5.05Y-3.46
X5.06Y-2.85
X5.1327Y-2.2756
X5.1431Y-3.13
X5.15Y-2.85
X5.15Y-3.46
X5.1614Y-3.8543
X5.23Y-3.45
X5.2327Y-2.2756
X5.2756Y-3.9843
X5.2756Y-4.1102
X5.3327Y-2.2756
X5.3346Y-2.7283
X5.34Y-3.13
X5.4269Y-3.45
X5.437Y-2.4087
X5.437Y-2.7087
X5.45Y-2.85
X5.4724Y-3.8787
X5.4724Y-3.9787
X5.4724Y-4.0787
X5.4921Y-2.2205
X5.5163Y-3.53
X5.53Y-3.38
X5.5366Y-2.3524
X5.5445Y-2.0846
X5.5992Y-2.7835
X5.6921Y-3.9843
X5.6921Y-4.1102
X5.6929Y-3.8504
X5.6992Y-2.7835
X5.7992Y-2.7835
X5.83Y-3.38
X5.8366Y-2.3524
X5.8445Y-2.0846
X5.8858Y-2.2205
X5.91Y-3.53
X5.9549Y-2.8307
X5.9774Y-2.4055
X5.9774Y-2.7055
X5.9921Y-3.9843
X5.9921Y-4.1102
X5.9929Y-3.8504
X6.0728Y-2.315
X6.0947Y-2.6998
X6.1024Y-3.8268
X6.1024Y-4.1268
X6.1728Y-2.315
X6.25Y-3.12
X6.2549Y-2.8307
X6.2728Y-2.315
X6.35Y-3.12
X6.38Y-2.87
X6.3947Y-2.6998
X6.45Y-3.12
X6.48Y-2.71
X6.58Y-2.71
X6.68Y-2.71
X6.68Y-2.87
X7.1Y-2.97
X7.1071Y-3.3858
X7.2071Y-3.3858
X7.3071Y-3.3858
X7.4Y-2.97
X7.438Y-2.4195
X7.438Y-2.7195
X7.5216Y-2.91
X7.5906Y-3.6142
X7.5906Y-4.1142
X7.62Y-2.91
X7.63Y-3.16
X7.7244Y-3.9055
X7.7244Y-4.1181
X7.7315Y-4.0079
X7.74Y-3.76
X7.7531Y-2.87
X7.93Y-3.16
X7.95Y-2.87
X8.0244Y-3.9055
X8.0244Y-4.1181
X8.0315Y-4.0079
X8.24Y-3.76
X8.9291Y-2.7441
X8.9291Y-3.2441
X9.1Y-2.7
X9.1Y-3.0937
X9.11Y-3.2163
X9.11Y-3.61
T2
X7.85Y-3.02
X7.95Y-3.02
T3
X1.6929Y-3.7008
X1.6929Y-3.8008
X2.2047Y-1.8504
X2.3047Y-1.8504
X2.4047Y-1.8504
X2.874Y-1.8504
X2.974Y-1.8504
X3.074Y-1.8504
X3.5433Y-1.8504
X3.6433Y-1.8504
X3.7433Y-1.8504
X3.85Y-3.35
X4.0469Y-3.35
X4.2126Y-1.8504
X4.2731Y-3.47
X4.3126Y-1.8504
X4.4126Y-1.8504
X4.47Y-3.47
X4.8819Y-1.8504
X4.9819Y-1.8504
X5.0819Y-1.8504
X5.5512Y-1.8504
X5.6512Y-1.8504
X5.7512Y-1.8504
X6.2205Y-1.8504
X6.3205Y-1.8504
X6.4205Y-1.8504
X6.8898Y-1.8504
X6.9898Y-1.8504
X7.0898Y-1.8504
X7.5591Y-1.8504
X7.6591Y-1.8504
X7.7591Y-1.8504
X8.2283Y-1.8504
X8.3283Y-1.8504
X8.4283Y-1.8504
X8.8976Y-1.8504
X8.9976Y-1.8504
X9.0976Y-1.8504
X9.872Y-3.6713
X9.872Y-3.7713
T4
X2.45Y-4.07
X2.54Y-2.74
X2.75Y-4.07
X2.84Y-2.74
X6.2441Y-3.5906
X6.8346Y-3.5906
X7.64Y-2.73
X7.94Y-2.73
T5
X1.6835Y-2.0866
X2.1Y-2.82
X2.1Y-3.1153
X2.2835Y-2.0866
X2.5102Y-2.0866
X2.7Y-3.37
X2.7Y-3.87
X3.1102Y-2.0866
X3.3764Y-2.0866
X3.56Y-2.75
X3.9764Y-2.0866
X4.1244Y-2.0866
X4.16Y-2.75
X4.7244Y-2.0866
X4.8957Y-2.0925
X5.3957Y-2.0925
X6.0492Y-2.1152
X6.5492Y-2.1152
X6.77Y-2.09
X6.7947Y-2.8228
X7.37Y-2.09
X7.3947Y-2.8228
X7.4173Y-3.6142
X7.4173Y-4.1142
X7.6Y-2.09
X8.2Y-2.09
X8.43Y-2.1
X8.77Y-2.73
X8.77Y-3.33
X9.03Y-2.1
X9.28Y-2.1
X9.51Y-2.8047
X9.51Y-3.1
X9.88Y-2.1
T6
X1.7323Y-2.3622
X2.3323Y-2.3622
X2.5197Y-2.3622
X3.1197Y-2.3622
X3.3071Y-2.3622
X3.9071Y-2.3622
X4.0945Y-2.3622
X4.6945Y-2.3622
X6.6835Y-2.3622
X7.2835Y-2.3622
X7.5969Y-2.3661
X8.1969Y-2.3661
X8.3445Y-2.7661
X8.3445Y-3.2161
X8.4335Y-2.3612
X9.0335Y-2.3612
X9.272Y-2.3583
X9.872Y-2.3583
T7
X6.4339Y-3.9579
T8
X2.16Y-3.58
X2.16Y-3.78
X2.36Y-3.58
X2.36Y-3.78
X7.0079Y-3.937
X7.2079Y-3.937
X8.737Y-3.8543
X8.737Y-4.0543
X8.937Y-3.8543
X8.937Y-4.0543
X9.3512Y-3.4646
X9.3512Y-3.6646
X9.5512Y-3.4646
X9.5512Y-3.6646
T9
X6.3339Y-3.8579
X6.3339Y-4.0579
X6.5339Y-3.8579
X6.5339Y-4.0579
T10
X1.6929Y-1.8504
X1.6929Y-4.0157
X9.8819Y-1.8504
X9.8819Y-4.0157
T0
M30
