G04 #@! TF.FileFunction,Copper,L1,Top,Signal*
%FSLAX46Y46*%
G04 Gerber Fmt 4.6, Leading zero omitted, Abs format (unit mm)*
G04 Created by KiCad (PCBNEW 4.0.7) date 02/24/22 00:53:32*
%MOMM*%
%LPD*%
G01*
G04 APERTURE LIST*
%ADD10C,0.100000*%
%ADD11C,1.520000*%
%ADD12R,1.520000X1.520000*%
%ADD13C,1.600000*%
%ADD14O,1.600000X1.600000*%
%ADD15C,2.400000*%
%ADD16O,2.400000X2.400000*%
%ADD17R,2.200000X2.200000*%
%ADD18O,2.200000X2.200000*%
%ADD19R,2.400000X2.400000*%
%ADD20C,2.200000*%
%ADD21C,2.000000*%
%ADD22R,1.600000X1.600000*%
%ADD23R,2.000000X2.000000*%
%ADD24R,1.800000X1.800000*%
%ADD25C,1.800000*%
%ADD26C,1.440000*%
%ADD27C,5.500000*%
%ADD28C,4.064000*%
%ADD29O,1.800000X1.800000*%
%ADD30C,2.800000*%
%ADD31R,1.700000X1.700000*%
%ADD32O,1.700000X1.700000*%
%ADD33R,3.000000X3.000000*%
%ADD34C,3.000000*%
%ADD35O,2.800000X2.800000*%
%ADD36C,4.000000*%
%ADD37C,1.000000*%
%ADD38C,2.000000*%
%ADD39C,0.500000*%
G04 APERTURE END LIST*
D10*
D11*
X133110000Y-57150000D03*
X130570000Y-57150000D03*
D12*
X135650000Y-57150000D03*
D13*
X120142000Y-84836000D03*
X120142000Y-89836000D03*
X138430000Y-72390000D03*
D14*
X130810000Y-72390000D03*
D15*
X148590000Y-52324000D03*
D16*
X135890000Y-52324000D03*
D11*
X85598000Y-91440000D03*
X83058000Y-91440000D03*
D12*
X88138000Y-91440000D03*
D13*
X73660000Y-103886000D03*
D14*
X73660000Y-96386000D03*
D15*
X187198000Y-53086000D03*
D16*
X171958000Y-53086000D03*
D11*
X183060000Y-86000000D03*
X180520000Y-86000000D03*
D12*
X185600000Y-86000000D03*
D11*
X76200000Y-85090000D03*
X78740000Y-85090000D03*
D12*
X73660000Y-85090000D03*
D17*
X194056000Y-69342000D03*
D18*
X201676000Y-69342000D03*
D19*
X53340000Y-71628000D03*
D15*
X53340000Y-79128000D03*
D20*
X160880000Y-103070000D03*
X160880000Y-97990000D03*
X165960000Y-97990000D03*
X165960000Y-103070000D03*
D21*
X163420000Y-100530000D03*
D22*
X193548000Y-73914000D03*
D13*
X191048000Y-73914000D03*
D11*
X119340000Y-98700000D03*
X121880000Y-98700000D03*
D12*
X116800000Y-98700000D03*
D13*
X162052000Y-72898000D03*
D14*
X169672000Y-72898000D03*
D13*
X85598000Y-100838000D03*
X85598000Y-95838000D03*
X201930000Y-72898000D03*
X196930000Y-72898000D03*
X110600000Y-104600000D03*
X110600000Y-99600000D03*
D23*
X97790000Y-85090000D03*
D21*
X102790000Y-85090000D03*
D23*
X113538000Y-88138000D03*
D21*
X108538000Y-88138000D03*
D13*
X132842000Y-87630000D03*
X137842000Y-87630000D03*
X149500000Y-56400000D03*
D14*
X139500000Y-56400000D03*
D13*
X231394000Y-91694000D03*
D14*
X231394000Y-81694000D03*
D13*
X62230000Y-72898000D03*
D14*
X72230000Y-72898000D03*
D19*
X241554000Y-78740000D03*
D15*
X241554000Y-71240000D03*
D13*
X231140000Y-68580000D03*
D14*
X231140000Y-78580000D03*
D17*
X69850000Y-103378000D03*
D18*
X62230000Y-103378000D03*
D24*
X201930000Y-76708000D03*
D25*
X199390000Y-76708000D03*
D22*
X138100000Y-68800000D03*
D14*
X138100000Y-61180000D03*
D22*
X151825000Y-61100000D03*
D14*
X151825000Y-68720000D03*
D17*
X72136000Y-69596000D03*
D18*
X64516000Y-69596000D03*
D13*
X144600000Y-97800000D03*
D14*
X152220000Y-97800000D03*
D13*
X155000000Y-97200000D03*
D14*
X155000000Y-104820000D03*
D13*
X87122000Y-76454000D03*
D14*
X87122000Y-68834000D03*
D13*
X75438000Y-76708000D03*
D14*
X75438000Y-69088000D03*
D13*
X82296000Y-95504000D03*
D14*
X82296000Y-103124000D03*
D13*
X134000000Y-101200000D03*
D14*
X126380000Y-101200000D03*
D13*
X134000000Y-104400000D03*
D14*
X126380000Y-104400000D03*
D13*
X152200000Y-101200000D03*
D14*
X144580000Y-101200000D03*
D13*
X152200000Y-104400000D03*
D14*
X144580000Y-104400000D03*
D26*
X139000000Y-103600000D03*
X139000000Y-101060000D03*
X139000000Y-98520000D03*
D15*
X188400000Y-91800000D03*
D16*
X188400000Y-104500000D03*
D13*
X201422000Y-80264000D03*
D14*
X193802000Y-80264000D03*
D15*
X68580000Y-98298000D03*
D16*
X68580000Y-85598000D03*
D13*
X107400000Y-97000000D03*
D14*
X107400000Y-104620000D03*
D13*
X104000000Y-97000000D03*
D14*
X104000000Y-104620000D03*
D13*
X192800000Y-91800000D03*
D14*
X192800000Y-104500000D03*
D13*
X112268000Y-76454000D03*
D14*
X112268000Y-68834000D03*
D26*
X147450000Y-69800000D03*
X144910000Y-69800000D03*
X142370000Y-69800000D03*
D13*
X158875000Y-71900000D03*
D14*
X151255000Y-71900000D03*
D13*
X187960000Y-75438000D03*
D14*
X180340000Y-75438000D03*
D13*
X120650000Y-72390000D03*
D14*
X128270000Y-72390000D03*
D15*
X187825000Y-71700000D03*
D16*
X172585000Y-71700000D03*
D13*
X124050000Y-68900000D03*
D14*
X124050000Y-61280000D03*
D13*
X188925000Y-69075000D03*
D14*
X188925000Y-61455000D03*
D13*
X226800000Y-82400000D03*
D14*
X226800000Y-69700000D03*
D27*
X251000000Y-102000000D03*
D28*
X251000000Y-47000000D03*
D27*
X43000000Y-102000000D03*
D28*
X43000000Y-47000000D03*
D15*
X105664000Y-69850000D03*
D16*
X90424000Y-69850000D03*
D20*
X158600000Y-91200000D03*
X173600000Y-91200000D03*
D24*
X141000000Y-47000000D03*
D29*
X143540000Y-47000000D03*
X146080000Y-47000000D03*
D24*
X124000000Y-47000000D03*
D29*
X126540000Y-47000000D03*
X129080000Y-47000000D03*
D24*
X158000000Y-47000000D03*
D29*
X160540000Y-47000000D03*
X163080000Y-47000000D03*
D30*
X211950000Y-81690000D03*
X211950000Y-70260000D03*
D15*
X222758000Y-69342000D03*
D16*
X222758000Y-84582000D03*
D11*
X119360000Y-102900000D03*
X116820000Y-102900000D03*
D12*
X121900000Y-102900000D03*
D11*
X85598000Y-85090000D03*
X83058000Y-85090000D03*
D12*
X88138000Y-85090000D03*
D11*
X76200000Y-91440000D03*
X73660000Y-91440000D03*
D12*
X78740000Y-91440000D03*
D11*
X126710000Y-87950000D03*
X124170000Y-87950000D03*
D12*
X129250000Y-87950000D03*
D11*
X118110000Y-68834000D03*
X120650000Y-68834000D03*
D12*
X115570000Y-68834000D03*
D11*
X167132000Y-68834000D03*
X164592000Y-68834000D03*
D12*
X169672000Y-68834000D03*
D13*
X100584000Y-104394000D03*
D14*
X100584000Y-94394000D03*
D13*
X196596000Y-95504000D03*
D14*
X209296000Y-95504000D03*
D13*
X151200000Y-89650000D03*
D14*
X141200000Y-89650000D03*
D13*
X135636000Y-79502000D03*
X130636000Y-79502000D03*
X142050000Y-85900000D03*
D14*
X149670000Y-85900000D03*
D31*
X250750000Y-93250000D03*
D32*
X250750000Y-95790000D03*
D31*
X43000000Y-94000000D03*
D32*
X43000000Y-96540000D03*
D33*
X227000000Y-97900000D03*
D34*
X221920000Y-97900000D03*
D33*
X227000000Y-102980000D03*
D34*
X221920000Y-102980000D03*
D33*
X242600000Y-88000000D03*
D34*
X237520000Y-88000000D03*
D33*
X242600000Y-93080000D03*
D34*
X237520000Y-93080000D03*
D33*
X59944000Y-90932000D03*
D34*
X54864000Y-90932000D03*
D33*
X59944000Y-96012000D03*
D34*
X54864000Y-96012000D03*
D33*
X178000000Y-100000000D03*
D34*
X183080000Y-100000000D03*
D22*
X196200000Y-104600000D03*
D14*
X203820000Y-104600000D03*
D22*
X204000000Y-101800000D03*
D14*
X196380000Y-101800000D03*
D13*
X196200000Y-99200000D03*
D14*
X203820000Y-99200000D03*
D15*
X120000000Y-53000000D03*
D16*
X104760000Y-53000000D03*
D15*
X101000000Y-53000000D03*
D16*
X85760000Y-53000000D03*
D15*
X79000000Y-53000000D03*
D16*
X63760000Y-53000000D03*
D15*
X58000000Y-53000000D03*
D16*
X42760000Y-53000000D03*
D15*
X250952000Y-53340000D03*
D16*
X235712000Y-53340000D03*
D15*
X229362000Y-53340000D03*
D16*
X214122000Y-53340000D03*
D15*
X208280000Y-53086000D03*
D16*
X193040000Y-53086000D03*
D13*
X131960000Y-97660000D03*
X126960000Y-97660000D03*
D22*
X135500000Y-69300000D03*
D14*
X127880000Y-69300000D03*
D22*
X162425000Y-68575000D03*
D14*
X154805000Y-68575000D03*
D11*
X81788000Y-69596000D03*
X79248000Y-69596000D03*
D12*
X84328000Y-69596000D03*
D11*
X125222000Y-79502000D03*
X127762000Y-79502000D03*
D12*
X122682000Y-79502000D03*
D11*
X161290000Y-79248000D03*
X158750000Y-79248000D03*
D12*
X163830000Y-79248000D03*
D24*
X56000000Y-47000000D03*
D29*
X58540000Y-47000000D03*
X61080000Y-47000000D03*
D24*
X226000000Y-47000000D03*
D29*
X228540000Y-47000000D03*
X231080000Y-47000000D03*
D24*
X73000000Y-47000000D03*
D29*
X75540000Y-47000000D03*
X78080000Y-47000000D03*
D24*
X209000000Y-47000000D03*
D29*
X211540000Y-47000000D03*
X214080000Y-47000000D03*
D24*
X90000000Y-47000000D03*
D29*
X92540000Y-47000000D03*
X95080000Y-47000000D03*
D24*
X192000000Y-47000000D03*
D29*
X194540000Y-47000000D03*
X197080000Y-47000000D03*
D24*
X107000000Y-47000000D03*
D29*
X109540000Y-47000000D03*
X112080000Y-47000000D03*
D24*
X175000000Y-47000000D03*
D29*
X177540000Y-47000000D03*
X180080000Y-47000000D03*
D11*
X156790000Y-58800000D03*
X159330000Y-58800000D03*
D12*
X154250000Y-58800000D03*
D13*
X108966000Y-76454000D03*
D14*
X108966000Y-68834000D03*
D30*
X44000000Y-60000000D03*
D35*
X59240000Y-60000000D03*
D30*
X250750000Y-59900000D03*
D35*
X235510000Y-59900000D03*
D30*
X64000000Y-60000000D03*
D35*
X79240000Y-60000000D03*
D30*
X229450000Y-59975000D03*
D35*
X214210000Y-59975000D03*
D30*
X84000000Y-60000000D03*
D35*
X99240000Y-60000000D03*
D30*
X208200000Y-60100000D03*
D35*
X192960000Y-60100000D03*
D30*
X104000000Y-60000000D03*
D35*
X119240000Y-60000000D03*
D30*
X185000000Y-60000000D03*
D35*
X169760000Y-60000000D03*
D13*
X148250000Y-59750000D03*
D14*
X140630000Y-59750000D03*
D13*
X149050000Y-73950000D03*
X144050000Y-73950000D03*
D36*
X54864000Y-96012000D02*
X54864000Y-90932000D01*
X54864000Y-90932000D02*
X53848000Y-90932000D01*
X53848000Y-90932000D02*
X53086000Y-90170000D01*
X53086000Y-90170000D02*
X53086000Y-83820000D01*
D37*
X119340000Y-98700000D02*
X119340000Y-100400000D01*
X123160000Y-100840000D02*
X126960000Y-97660000D01*
X119780000Y-100840000D02*
X123160000Y-100840000D01*
X119340000Y-100400000D02*
X119780000Y-100840000D01*
X78740000Y-85090000D02*
X78740000Y-86310000D01*
X85598000Y-86222000D02*
X85598000Y-85090000D01*
X84460000Y-87360000D02*
X85598000Y-86222000D01*
X79790000Y-87360000D02*
X84460000Y-87360000D01*
X78740000Y-86310000D02*
X79790000Y-87360000D01*
X78740000Y-85090000D02*
X76200000Y-85090000D01*
X76200000Y-86106000D02*
X76200000Y-85090000D01*
X76200000Y-91440000D02*
X76200000Y-90424000D01*
X85598000Y-90170000D02*
X85598000Y-91440000D01*
X84582000Y-89154000D02*
X85598000Y-90170000D01*
X77470000Y-89154000D02*
X84582000Y-89154000D01*
X76200000Y-90424000D02*
X77470000Y-89154000D01*
X169418000Y-72898000D02*
X169672000Y-72898000D01*
D38*
X61080000Y-47000000D02*
X61334000Y-49112000D01*
X60879000Y-58107000D02*
X59240000Y-60000000D01*
X60879000Y-49567000D02*
X60879000Y-58107000D01*
X61334000Y-49112000D02*
X60879000Y-49567000D01*
X78080000Y-47000000D02*
X78080000Y-48045000D01*
X75025000Y-55785000D02*
X79240000Y-60000000D01*
X75025000Y-51100000D02*
X75025000Y-55785000D01*
X78080000Y-48045000D02*
X75025000Y-51100000D01*
X229450000Y-59975000D02*
X228675000Y-59975000D01*
X228675000Y-59975000D02*
X215700000Y-47000000D01*
X215700000Y-47000000D02*
X214080000Y-47000000D01*
X95080000Y-47000000D02*
X95080000Y-50330000D01*
X97475000Y-58235000D02*
X99240000Y-60000000D01*
X97475000Y-52725000D02*
X97475000Y-58235000D01*
X95080000Y-50330000D02*
X97475000Y-52725000D01*
X197080000Y-47000000D02*
X197114000Y-47000000D01*
X197114000Y-47000000D02*
X199390000Y-49276000D01*
X199390000Y-49276000D02*
X199390000Y-56388000D01*
X199390000Y-56388000D02*
X203102000Y-60100000D01*
X203102000Y-60100000D02*
X208200000Y-60100000D01*
X112080000Y-47000000D02*
X112080000Y-52840000D01*
X112080000Y-52840000D02*
X119240000Y-60000000D01*
X119240000Y-60000000D02*
X122475000Y-60000000D01*
X124100000Y-61375000D02*
X124050000Y-61280000D01*
X122475000Y-60000000D02*
X124100000Y-61375000D01*
X185000000Y-60000000D02*
X187770000Y-60000000D01*
X187770000Y-60000000D02*
X188925000Y-61455000D01*
X180080000Y-47000000D02*
X180080000Y-51930000D01*
X182725000Y-57725000D02*
X185000000Y-60000000D01*
X182725000Y-54575000D02*
X182725000Y-57725000D01*
X180080000Y-51930000D02*
X182725000Y-54575000D01*
X128016000Y-53150000D02*
X130746000Y-53150000D01*
X131572000Y-52324000D02*
X135890000Y-52324000D01*
X130746000Y-53150000D02*
X131572000Y-52324000D01*
X124968000Y-53150000D02*
X120150000Y-53150000D01*
X120150000Y-53150000D02*
X120000000Y-53000000D01*
X129080000Y-47000000D02*
X129080000Y-52120000D01*
X128050000Y-53150000D02*
X128016000Y-53150000D01*
X128016000Y-53150000D02*
X124968000Y-53150000D01*
X124968000Y-53150000D02*
X124350000Y-53150000D01*
X129080000Y-52120000D02*
X128050000Y-53150000D01*
X58000000Y-52975000D02*
X58000000Y-53000000D01*
D37*
X120000000Y-53000000D02*
X120000000Y-53550000D01*
D38*
X148590000Y-52324000D02*
X161398000Y-52470000D01*
X163080000Y-50788000D02*
X163080000Y-47000000D01*
X161398000Y-52470000D02*
X163080000Y-50788000D01*
X216308000Y-44000000D02*
X237494000Y-44000000D01*
X246634000Y-53340000D02*
X250952000Y-53340000D01*
X237494000Y-44000000D02*
X246634000Y-53340000D01*
X200250000Y-43900000D02*
X216308000Y-44000000D01*
X216308000Y-44000000D02*
X216920000Y-44000000D01*
X226060000Y-53340000D02*
X229362000Y-53340000D01*
X216920000Y-44000000D02*
X226060000Y-53340000D01*
X208280000Y-53086000D02*
X205740000Y-53086000D01*
X203200000Y-47150000D02*
X200250000Y-43900000D01*
X203200000Y-50546000D02*
X203200000Y-47150000D01*
X205740000Y-53086000D02*
X203200000Y-50546000D01*
X183134000Y-44100000D02*
X183134000Y-45466000D01*
X187198000Y-49530000D02*
X187198000Y-53086000D01*
X183134000Y-45466000D02*
X187198000Y-49530000D01*
X184100000Y-43900000D02*
X200250000Y-43900000D01*
X163080000Y-47000000D02*
X163080000Y-46620000D01*
X163080000Y-46620000D02*
X165400000Y-44100000D01*
X165400000Y-44100000D02*
X183134000Y-44100000D01*
X183134000Y-44100000D02*
X184100000Y-43900000D01*
D37*
X250750000Y-95790000D02*
X250750000Y-101750000D01*
X250750000Y-101750000D02*
X250500000Y-102000000D01*
X43000000Y-96540000D02*
X43000000Y-102000000D01*
D36*
X125450000Y-65100000D02*
X159750000Y-65100000D01*
D38*
X222758000Y-69342000D02*
X222758000Y-67564000D01*
X222758000Y-67564000D02*
X220169000Y-64975000D01*
D37*
X64516000Y-69596000D02*
X64516000Y-65100000D01*
X64262000Y-66548000D02*
X64262000Y-65100000D01*
X64262000Y-65354000D02*
X64262000Y-66548000D01*
X64516000Y-65100000D02*
X64262000Y-65354000D01*
X162052000Y-72898000D02*
X162052000Y-68948000D01*
X162052000Y-68948000D02*
X162425000Y-68575000D01*
X120142000Y-65100000D02*
X120142000Y-66294000D01*
X120142000Y-66294000D02*
X120142000Y-65100000D01*
X169672000Y-68834000D02*
X169672000Y-65100000D01*
X169418000Y-66802000D02*
X169418000Y-65100000D01*
X169418000Y-65354000D02*
X169418000Y-66802000D01*
X169672000Y-65100000D02*
X169418000Y-65354000D01*
D38*
X226800000Y-69700000D02*
X226800000Y-64975000D01*
X226568000Y-66040000D02*
X226568000Y-64975000D01*
X226568000Y-65207000D02*
X226568000Y-66040000D01*
X226800000Y-64975000D02*
X226568000Y-65207000D01*
D36*
X211950000Y-70260000D02*
X211950000Y-65680000D01*
X211950000Y-65680000D02*
X211245000Y-64975000D01*
D37*
X194056000Y-69342000D02*
X194056000Y-67564000D01*
X194056000Y-67564000D02*
X191592000Y-65100000D01*
X162425000Y-68575000D02*
X162425000Y-67775000D01*
X162425000Y-67775000D02*
X159750000Y-65100000D01*
X127880000Y-69300000D02*
X127880000Y-67530000D01*
X127880000Y-67530000D02*
X125450000Y-65100000D01*
D36*
X192960000Y-60100000D02*
X192960000Y-62210000D01*
X192960000Y-62210000D02*
X195725000Y-64975000D01*
X214210000Y-59975000D02*
X213560000Y-62660000D01*
X213560000Y-62660000D02*
X215875000Y-64975000D01*
X195725000Y-64975000D02*
X211245000Y-64975000D01*
X211245000Y-64975000D02*
X215875000Y-64975000D01*
X215875000Y-64975000D02*
X220169000Y-64975000D01*
X220169000Y-64975000D02*
X226568000Y-64975000D01*
X226568000Y-64975000D02*
X232975000Y-64975000D01*
X233660000Y-64290000D02*
X235510000Y-59900000D01*
X232975000Y-64975000D02*
X233660000Y-64290000D01*
X169760000Y-60000000D02*
X170600000Y-60000000D01*
X170600000Y-60000000D02*
X175700000Y-65100000D01*
X104000000Y-60000000D02*
X104000000Y-60600000D01*
X104000000Y-60600000D02*
X108500000Y-65100000D01*
X84000000Y-60000000D02*
X84100000Y-60000000D01*
X84100000Y-60000000D02*
X89200000Y-65100000D01*
X64000000Y-60000000D02*
X64000000Y-61400000D01*
X64000000Y-61400000D02*
X67700000Y-65100000D01*
X44000000Y-60000000D02*
X44000000Y-63400000D01*
X195600000Y-65100000D02*
X195725000Y-64975000D01*
X195725000Y-64975000D02*
X195850000Y-64850000D01*
X45700000Y-65100000D02*
X64262000Y-65100000D01*
X64262000Y-65100000D02*
X67700000Y-65100000D01*
X67700000Y-65100000D02*
X89200000Y-65100000D01*
X89200000Y-65100000D02*
X108500000Y-65100000D01*
X108500000Y-65100000D02*
X120142000Y-65100000D01*
X120142000Y-65100000D02*
X125450000Y-65100000D01*
X159750000Y-65100000D02*
X163700000Y-65100000D01*
X163700000Y-65100000D02*
X169418000Y-65100000D01*
X169418000Y-65100000D02*
X175700000Y-65100000D01*
X175700000Y-65100000D02*
X191592000Y-65100000D01*
X191592000Y-65100000D02*
X195600000Y-65100000D01*
X44000000Y-63400000D02*
X45700000Y-65100000D01*
D37*
X160880000Y-103070000D02*
X156750000Y-103070000D01*
X156750000Y-103070000D02*
X155000000Y-104820000D01*
D38*
X56000000Y-47000000D02*
X56000000Y-48750000D01*
X51750000Y-53000000D02*
X42760000Y-53000000D01*
X56000000Y-48750000D02*
X51750000Y-53000000D01*
X226000000Y-47000000D02*
X226000000Y-48454000D01*
X232156000Y-49784000D02*
X235712000Y-53340000D01*
X227330000Y-49784000D02*
X232156000Y-49784000D01*
X226000000Y-48454000D02*
X227330000Y-49784000D01*
X73000000Y-47000000D02*
X73000000Y-48300000D01*
X73000000Y-48300000D02*
X68300000Y-53000000D01*
X68300000Y-53000000D02*
X63760000Y-53000000D01*
X209000000Y-47000000D02*
X209000000Y-49488000D01*
X210820000Y-50038000D02*
X214122000Y-53340000D01*
X209550000Y-50038000D02*
X210820000Y-50038000D01*
X209000000Y-49488000D02*
X209550000Y-50038000D01*
X193040000Y-53086000D02*
X192786000Y-53086000D01*
X192786000Y-53086000D02*
X191008000Y-51308000D01*
X191008000Y-51308000D02*
X191008000Y-47992000D01*
X191008000Y-47992000D02*
X192000000Y-47000000D01*
X175000000Y-47000000D02*
X173472000Y-47000000D01*
X171958000Y-48514000D02*
X171958000Y-53086000D01*
X173472000Y-47000000D02*
X171958000Y-48514000D01*
D37*
X154805000Y-68575000D02*
X155550000Y-68575000D01*
X155550000Y-68575000D02*
X158875000Y-71900000D01*
X146080000Y-47000000D02*
X146080000Y-56030000D01*
X146450000Y-56400000D02*
X149500000Y-56400000D01*
X146080000Y-56030000D02*
X146450000Y-56400000D01*
X149500000Y-56400000D02*
X155225000Y-56350000D01*
X156400000Y-57900000D02*
X156790000Y-58800000D01*
X155225000Y-56350000D02*
X156400000Y-57900000D01*
X135500000Y-69300000D02*
X133780000Y-69300000D01*
X133780000Y-69300000D02*
X130810000Y-72390000D01*
X143540000Y-47000000D02*
X143540000Y-54360000D01*
X141500000Y-56400000D02*
X139500000Y-56400000D01*
X143540000Y-54360000D02*
X141500000Y-56400000D01*
X135650000Y-57150000D02*
X135650000Y-56882000D01*
X135650000Y-56882000D02*
X138430000Y-54102000D01*
X124000000Y-45672000D02*
X124000000Y-47000000D01*
X125476000Y-44196000D02*
X124000000Y-45672000D01*
X133096000Y-44196000D02*
X125476000Y-44196000D01*
X138430000Y-49530000D02*
X133096000Y-44196000D01*
X138430000Y-54102000D02*
X138430000Y-49530000D01*
X135650000Y-57150000D02*
X135650000Y-57430000D01*
X135650000Y-57430000D02*
X136740000Y-58520000D01*
X139400000Y-58520000D02*
X140630000Y-59750000D01*
X136740000Y-58520000D02*
X139400000Y-58520000D01*
X140630000Y-59750000D02*
X140630000Y-59700000D01*
X154250000Y-58800000D02*
X154050000Y-58800000D01*
X154050000Y-58800000D02*
X153600000Y-58350000D01*
X153600000Y-58350000D02*
X149700000Y-58300000D01*
X149700000Y-58300000D02*
X148250000Y-59750000D01*
D39*
G36*
X49836000Y-90170000D02*
X50083392Y-91413721D01*
X50787903Y-92468097D01*
X51549903Y-93230097D01*
X51614000Y-93272925D01*
X51614000Y-96012000D01*
X51861392Y-97255721D01*
X52565903Y-98310097D01*
X53620279Y-99014608D01*
X54864000Y-99262000D01*
X56107721Y-99014608D01*
X57162097Y-98310097D01*
X57320047Y-98073708D01*
X57530437Y-98400663D01*
X57948153Y-98686076D01*
X58444000Y-98786488D01*
X61444000Y-98786488D01*
X61461490Y-98783197D01*
X66129576Y-98783197D01*
X66501780Y-99684000D01*
X67190375Y-100373798D01*
X68090527Y-100747573D01*
X69065197Y-100748424D01*
X69966000Y-100376220D01*
X70655798Y-99687625D01*
X70689195Y-99607195D01*
X84932881Y-99607195D01*
X85598000Y-100272315D01*
X85864333Y-100005981D01*
X108549645Y-100005981D01*
X108861081Y-100759715D01*
X109437252Y-101336892D01*
X110190441Y-101649643D01*
X111005981Y-101650355D01*
X111759715Y-101338919D01*
X112336892Y-100762748D01*
X112649643Y-100009559D01*
X112650355Y-99194019D01*
X112338919Y-98440285D01*
X111762748Y-97863108D01*
X111009559Y-97550357D01*
X110194019Y-97549645D01*
X109440285Y-97861081D01*
X108863108Y-98437252D01*
X108550357Y-99190441D01*
X108549645Y-100005981D01*
X85864333Y-100005981D01*
X86263119Y-99607195D01*
X86178017Y-99359154D01*
X85567936Y-99249761D01*
X85017983Y-99359154D01*
X84932881Y-99607195D01*
X70689195Y-99607195D01*
X71029573Y-98787473D01*
X71030424Y-97812803D01*
X70658220Y-96912000D01*
X70093046Y-96345838D01*
X71610000Y-96345838D01*
X71610000Y-96426162D01*
X71766047Y-97210663D01*
X72210431Y-97875731D01*
X72875499Y-98320115D01*
X73660000Y-98476162D01*
X74444501Y-98320115D01*
X75109569Y-97875731D01*
X75553953Y-97210663D01*
X75710000Y-96426162D01*
X75710000Y-96345838D01*
X75623303Y-95909981D01*
X80245645Y-95909981D01*
X80557081Y-96663715D01*
X81133252Y-97240892D01*
X81886441Y-97553643D01*
X82701981Y-97554355D01*
X83455715Y-97242919D01*
X83813019Y-96886237D01*
X83859081Y-96997715D01*
X84435252Y-97574892D01*
X85188441Y-97887643D01*
X86003981Y-97888355D01*
X86757715Y-97576919D01*
X86928951Y-97405981D01*
X101949645Y-97405981D01*
X102261081Y-98159715D01*
X102837252Y-98736892D01*
X103590441Y-99049643D01*
X104405981Y-99050355D01*
X105159715Y-98738919D01*
X105700437Y-98199140D01*
X106237252Y-98736892D01*
X106990441Y-99049643D01*
X107805981Y-99050355D01*
X108559715Y-98738919D01*
X109136892Y-98162748D01*
X109449643Y-97409559D01*
X109450355Y-96594019D01*
X109138919Y-95840285D01*
X108562748Y-95263108D01*
X107809559Y-94950357D01*
X106994019Y-94949645D01*
X106240285Y-95261081D01*
X105699563Y-95800860D01*
X105162748Y-95263108D01*
X104409559Y-94950357D01*
X103594019Y-94949645D01*
X102840285Y-95261081D01*
X102263108Y-95837252D01*
X101950357Y-96590441D01*
X101949645Y-97405981D01*
X86928951Y-97405981D01*
X87334892Y-97000748D01*
X87647643Y-96247559D01*
X87648355Y-95432019D01*
X87336919Y-94678285D01*
X87013038Y-94353838D01*
X98534000Y-94353838D01*
X98534000Y-94434162D01*
X98690047Y-95218663D01*
X99134431Y-95883731D01*
X99799499Y-96328115D01*
X100584000Y-96484162D01*
X101368501Y-96328115D01*
X102033569Y-95883731D01*
X102477953Y-95218663D01*
X102634000Y-94434162D01*
X102634000Y-94353838D01*
X102477953Y-93569337D01*
X102033569Y-92904269D01*
X101368501Y-92459885D01*
X100584000Y-92303838D01*
X99799499Y-92459885D01*
X99134431Y-92904269D01*
X98690047Y-93569337D01*
X98534000Y-94353838D01*
X87013038Y-94353838D01*
X86760748Y-94101108D01*
X86007559Y-93788357D01*
X85192019Y-93787645D01*
X84438285Y-94099081D01*
X84080981Y-94455763D01*
X84034919Y-94344285D01*
X83458748Y-93767108D01*
X82705559Y-93454357D01*
X81890019Y-93453645D01*
X81136285Y-93765081D01*
X80559108Y-94341252D01*
X80246357Y-95094441D01*
X80245645Y-95909981D01*
X75623303Y-95909981D01*
X75553953Y-95561337D01*
X75109569Y-94896269D01*
X74444501Y-94451885D01*
X73660000Y-94295838D01*
X72875499Y-94451885D01*
X72210431Y-94896269D01*
X71766047Y-95561337D01*
X71610000Y-96345838D01*
X70093046Y-96345838D01*
X69969625Y-96222202D01*
X69069473Y-95848427D01*
X68094803Y-95847576D01*
X67194000Y-96219780D01*
X66504202Y-96908375D01*
X66130427Y-97808527D01*
X66129576Y-98783197D01*
X61461490Y-98783197D01*
X61907222Y-98699327D01*
X62332663Y-98425563D01*
X62618076Y-98007847D01*
X62718488Y-97512000D01*
X62718488Y-94512000D01*
X62631327Y-94048778D01*
X62357563Y-93623337D01*
X62136123Y-93472033D01*
X62332663Y-93345563D01*
X62618076Y-92927847D01*
X62718488Y-92432000D01*
X62718488Y-89432000D01*
X62631327Y-88968778D01*
X62357563Y-88543337D01*
X61939847Y-88257924D01*
X61444000Y-88157512D01*
X58444000Y-88157512D01*
X57980778Y-88244673D01*
X57555337Y-88518437D01*
X57317515Y-88866502D01*
X57162097Y-88633903D01*
X56336000Y-88081923D01*
X56336000Y-87250000D01*
X66761787Y-87250000D01*
X66847588Y-87378410D01*
X67642426Y-87909503D01*
X68580000Y-88095998D01*
X69517574Y-87909503D01*
X70312412Y-87378410D01*
X70398213Y-87250000D01*
X74900130Y-87250000D01*
X74962563Y-87343437D01*
X75530304Y-87722789D01*
X76200000Y-87856000D01*
X76375425Y-87821106D01*
X76232563Y-87916563D01*
X74962563Y-89186563D01*
X74639360Y-89670271D01*
X74061568Y-89430350D01*
X73261940Y-89429652D01*
X72522914Y-89735012D01*
X71956999Y-90299940D01*
X71650350Y-91038432D01*
X71649652Y-91838060D01*
X71955012Y-92577086D01*
X72519940Y-93143001D01*
X73258432Y-93449650D01*
X74058060Y-93450348D01*
X74797086Y-93144988D01*
X74929736Y-93012569D01*
X75059940Y-93143001D01*
X75798432Y-93449650D01*
X76598060Y-93450348D01*
X77219798Y-93193450D01*
X77484153Y-93374076D01*
X77980000Y-93474488D01*
X79500000Y-93474488D01*
X79963222Y-93387327D01*
X80388663Y-93113563D01*
X80674076Y-92695847D01*
X80774488Y-92200000D01*
X80774488Y-90904000D01*
X81104171Y-90904000D01*
X81048350Y-91038432D01*
X81047652Y-91838060D01*
X81353012Y-92577086D01*
X81917940Y-93143001D01*
X82656432Y-93449650D01*
X83456060Y-93450348D01*
X84195086Y-93144988D01*
X84327736Y-93012569D01*
X84457940Y-93143001D01*
X85196432Y-93449650D01*
X85996060Y-93450348D01*
X86617798Y-93193450D01*
X86882153Y-93374076D01*
X87378000Y-93474488D01*
X88898000Y-93474488D01*
X89361222Y-93387327D01*
X89786663Y-93113563D01*
X90072076Y-92695847D01*
X90172488Y-92200000D01*
X90172488Y-90680000D01*
X90085327Y-90216778D01*
X89811563Y-89791337D01*
X89393847Y-89505924D01*
X88898000Y-89405512D01*
X87378000Y-89405512D01*
X87176753Y-89443379D01*
X86835437Y-88932563D01*
X86098874Y-88196000D01*
X86835437Y-87459437D01*
X86975378Y-87250000D01*
X96273552Y-87250000D01*
X96294153Y-87264076D01*
X96790000Y-87364488D01*
X98790000Y-87364488D01*
X99253222Y-87277327D01*
X99295689Y-87250000D01*
X102124683Y-87250000D01*
X102340484Y-87339608D01*
X103235589Y-87340390D01*
X103454349Y-87250000D01*
X106470466Y-87250000D01*
X106288392Y-87688484D01*
X106287610Y-88583589D01*
X106629431Y-89410858D01*
X107261813Y-90044345D01*
X108088484Y-90387608D01*
X108983589Y-90388390D01*
X109337925Y-90241981D01*
X118091645Y-90241981D01*
X118403081Y-90995715D01*
X118979252Y-91572892D01*
X119732441Y-91885643D01*
X120547981Y-91886355D01*
X121301715Y-91574919D01*
X121878892Y-90998748D01*
X122177079Y-90280631D01*
X139775335Y-90280631D01*
X140072162Y-90724912D01*
X140569365Y-91074694D01*
X140800000Y-90966307D01*
X140800000Y-90050000D01*
X141600000Y-90050000D01*
X141600000Y-90966307D01*
X141830635Y-91074694D01*
X142327838Y-90724912D01*
X142624665Y-90280631D01*
X142508737Y-90050000D01*
X141600000Y-90050000D01*
X140800000Y-90050000D01*
X139891263Y-90050000D01*
X139775335Y-90280631D01*
X122177079Y-90280631D01*
X122191643Y-90245559D01*
X122192355Y-89430019D01*
X121880919Y-88676285D01*
X121304748Y-88099108D01*
X120551559Y-87786357D01*
X119736019Y-87785645D01*
X118982285Y-88097081D01*
X118405108Y-88673252D01*
X118092357Y-89426441D01*
X118091645Y-90241981D01*
X109337925Y-90241981D01*
X109810858Y-90046569D01*
X110444345Y-89414187D01*
X110687958Y-88827500D01*
X111780000Y-88827500D01*
X111780000Y-89288775D01*
X111895398Y-89567372D01*
X112108627Y-89780601D01*
X112387224Y-89896000D01*
X112848500Y-89896000D01*
X113038000Y-89706500D01*
X113038000Y-88638000D01*
X114038000Y-88638000D01*
X114038000Y-89706500D01*
X114227500Y-89896000D01*
X114688776Y-89896000D01*
X114967373Y-89780601D01*
X115180602Y-89567372D01*
X115296000Y-89288775D01*
X115296000Y-88827500D01*
X115106500Y-88638000D01*
X114038000Y-88638000D01*
X113038000Y-88638000D01*
X111969500Y-88638000D01*
X111780000Y-88827500D01*
X110687958Y-88827500D01*
X110787608Y-88587516D01*
X110788390Y-87692411D01*
X110605589Y-87250000D01*
X111780000Y-87250000D01*
X111780000Y-87448500D01*
X111969500Y-87638000D01*
X113038000Y-87638000D01*
X113038000Y-87250000D01*
X114038000Y-87250000D01*
X114038000Y-87638000D01*
X115106500Y-87638000D01*
X115296000Y-87448500D01*
X115296000Y-87250000D01*
X122688092Y-87250000D01*
X122195161Y-87742931D01*
X122672266Y-88220036D01*
X122732821Y-88524466D01*
X122979233Y-88603366D01*
X123632599Y-87950000D01*
X123363899Y-87681300D01*
X123795198Y-87250000D01*
X124007401Y-87250000D01*
X124170000Y-87412599D01*
X124332599Y-87250000D01*
X124544802Y-87250000D01*
X124742273Y-87447471D01*
X124700350Y-87548432D01*
X124699652Y-88348060D01*
X124742659Y-88452143D01*
X124438701Y-88756102D01*
X124170000Y-88487401D01*
X123516634Y-89140767D01*
X123595534Y-89387179D01*
X123895141Y-89442911D01*
X124377069Y-89924839D01*
X125109825Y-89192083D01*
X125569940Y-89653001D01*
X126308432Y-89959650D01*
X127108060Y-89960348D01*
X127729798Y-89703450D01*
X127994153Y-89884076D01*
X128490000Y-89984488D01*
X130010000Y-89984488D01*
X130473222Y-89897327D01*
X130898663Y-89623563D01*
X131184076Y-89205847D01*
X131240474Y-88927348D01*
X131679252Y-89366892D01*
X132432441Y-89679643D01*
X133247981Y-89680355D01*
X134001715Y-89368919D01*
X134578892Y-88792748D01*
X134891643Y-88039559D01*
X134892332Y-87250000D01*
X135792331Y-87250000D01*
X135791645Y-88035981D01*
X136103081Y-88789715D01*
X136679252Y-89366892D01*
X137432441Y-89679643D01*
X138247981Y-89680355D01*
X139001715Y-89368919D01*
X139351875Y-89019369D01*
X139775335Y-89019369D01*
X139891263Y-89250000D01*
X140800000Y-89250000D01*
X140800000Y-88333693D01*
X141600000Y-88333693D01*
X141600000Y-89250000D01*
X142508737Y-89250000D01*
X142624665Y-89019369D01*
X142327838Y-88575088D01*
X141830635Y-88225306D01*
X141600000Y-88333693D01*
X140800000Y-88333693D01*
X140569365Y-88225306D01*
X140072162Y-88575088D01*
X139775335Y-89019369D01*
X139351875Y-89019369D01*
X139578892Y-88792748D01*
X139891643Y-88039559D01*
X139892332Y-87250000D01*
X140501034Y-87250000D01*
X140887252Y-87636892D01*
X141640441Y-87949643D01*
X142455981Y-87950355D01*
X143209715Y-87638919D01*
X143599313Y-87250000D01*
X148113739Y-87250000D01*
X148180269Y-87349569D01*
X148845337Y-87793953D01*
X149629838Y-87950000D01*
X149710162Y-87950000D01*
X150165107Y-87859506D01*
X150040285Y-87911081D01*
X149463108Y-88487252D01*
X149150357Y-89240441D01*
X149149645Y-90055981D01*
X149461081Y-90809715D01*
X150037252Y-91386892D01*
X150790441Y-91699643D01*
X151605981Y-91700355D01*
X151690595Y-91665393D01*
X156249593Y-91665393D01*
X156606605Y-92529429D01*
X157267094Y-93191071D01*
X158130505Y-93549591D01*
X159065393Y-93550407D01*
X159929429Y-93193395D01*
X160591071Y-92532906D01*
X160949591Y-91669495D01*
X160949594Y-91665393D01*
X171249593Y-91665393D01*
X171606605Y-92529429D01*
X172267094Y-93191071D01*
X173130505Y-93549591D01*
X174065393Y-93550407D01*
X174929429Y-93193395D01*
X175591071Y-92532906D01*
X175949591Y-91669495D01*
X175950407Y-90734607D01*
X175593395Y-89870571D01*
X174932906Y-89208929D01*
X174069495Y-88850409D01*
X173134607Y-88849593D01*
X172270571Y-89206605D01*
X171608929Y-89867094D01*
X171250409Y-90730505D01*
X171249593Y-91665393D01*
X160949594Y-91665393D01*
X160950407Y-90734607D01*
X160593395Y-89870571D01*
X159932906Y-89208929D01*
X159069495Y-88850409D01*
X158134607Y-88849593D01*
X157270571Y-89206605D01*
X156608929Y-89867094D01*
X156250409Y-90730505D01*
X156249593Y-91665393D01*
X151690595Y-91665393D01*
X152359715Y-91388919D01*
X152936892Y-90812748D01*
X153249643Y-90059559D01*
X153250355Y-89244019D01*
X152938919Y-88490285D01*
X152362748Y-87913108D01*
X151609559Y-87600357D01*
X150794019Y-87599645D01*
X150771605Y-87608906D01*
X151159731Y-87349569D01*
X151226261Y-87250000D01*
X178927729Y-87250000D01*
X179379940Y-87703001D01*
X180118432Y-88009650D01*
X180918060Y-88010348D01*
X181657086Y-87704988D01*
X181789736Y-87572569D01*
X181919940Y-87703001D01*
X182658432Y-88009650D01*
X183458060Y-88010348D01*
X184079798Y-87753450D01*
X184344153Y-87934076D01*
X184840000Y-88034488D01*
X186360000Y-88034488D01*
X186750000Y-87961105D01*
X186750000Y-89985320D01*
X186324202Y-90410375D01*
X185950427Y-91310527D01*
X185949576Y-92285197D01*
X186321780Y-93186000D01*
X186750000Y-93614968D01*
X186750000Y-102664524D01*
X186667588Y-102719590D01*
X186136495Y-103514428D01*
X185950000Y-104452002D01*
X185950000Y-104547998D01*
X185975262Y-104675000D01*
X166674202Y-104675000D01*
X166712183Y-104600001D01*
X165960000Y-103847817D01*
X165207817Y-104600001D01*
X165245798Y-104675000D01*
X161594202Y-104675000D01*
X161632183Y-104600001D01*
X160880000Y-103847817D01*
X160127817Y-104600001D01*
X160165798Y-104675000D01*
X156558000Y-104675000D01*
X156558000Y-103569998D01*
X155892061Y-103569998D01*
X155630631Y-103395335D01*
X155400000Y-103511263D01*
X155400000Y-104420000D01*
X155800000Y-104420000D01*
X155800000Y-104675000D01*
X154249760Y-104675000D01*
X154249983Y-104420000D01*
X154600000Y-104420000D01*
X154600000Y-103511263D01*
X154369369Y-103395335D01*
X154107939Y-103569998D01*
X154075153Y-103569998D01*
X153938919Y-103240285D01*
X153880350Y-103181613D01*
X158988892Y-103181613D01*
X159090131Y-103690579D01*
X159349999Y-103822183D01*
X160102183Y-103070000D01*
X159349999Y-102317817D01*
X159090131Y-102449421D01*
X158988892Y-103181613D01*
X153880350Y-103181613D01*
X153499139Y-102799738D01*
X153936892Y-102362748D01*
X154249643Y-101609559D01*
X154250355Y-100794019D01*
X153938919Y-100040285D01*
X153419542Y-99520001D01*
X160127817Y-99520001D01*
X160259421Y-99779869D01*
X160991613Y-99881108D01*
X161001393Y-99879163D01*
X161179875Y-100057645D01*
X161170392Y-100080484D01*
X161169610Y-100975589D01*
X161180437Y-101001793D01*
X160974798Y-101207432D01*
X160768387Y-101178892D01*
X160259421Y-101280131D01*
X160127817Y-101539999D01*
X160880000Y-102292183D01*
X161268909Y-101903274D01*
X162046726Y-102681091D01*
X161657817Y-103070000D01*
X162410001Y-103822183D01*
X162669869Y-103690579D01*
X162771108Y-102958387D01*
X162769163Y-102948607D01*
X162947645Y-102770125D01*
X162970484Y-102779608D01*
X163865589Y-102780390D01*
X163891793Y-102769563D01*
X164097432Y-102975202D01*
X164068892Y-103181613D01*
X164170131Y-103690579D01*
X164429999Y-103822183D01*
X165182183Y-103070000D01*
X166737817Y-103070000D01*
X167490001Y-103822183D01*
X167749869Y-103690579D01*
X167851108Y-102958387D01*
X167749869Y-102449421D01*
X167490001Y-102317817D01*
X166737817Y-103070000D01*
X165182183Y-103070000D01*
X164793274Y-102681091D01*
X165571091Y-101903274D01*
X165960000Y-102292183D01*
X166712183Y-101539999D01*
X166580579Y-101280131D01*
X165848387Y-101178892D01*
X165838607Y-101180837D01*
X165660125Y-101002355D01*
X165669608Y-100979516D01*
X165670390Y-100084411D01*
X165659563Y-100058207D01*
X165865202Y-99852568D01*
X166071613Y-99881108D01*
X166580579Y-99779869D01*
X166712183Y-99520001D01*
X165960000Y-98767817D01*
X165571091Y-99156726D01*
X164793274Y-98378909D01*
X165182183Y-97990000D01*
X166737817Y-97990000D01*
X167490001Y-98742183D01*
X167749869Y-98610579D01*
X167765158Y-98500000D01*
X175225512Y-98500000D01*
X175225512Y-101500000D01*
X175312673Y-101963222D01*
X175586437Y-102388663D01*
X176004153Y-102674076D01*
X176500000Y-102774488D01*
X179500000Y-102774488D01*
X179963222Y-102687327D01*
X180388663Y-102413563D01*
X180674076Y-101995847D01*
X180688025Y-101926961D01*
X182213699Y-101926961D01*
X182407361Y-102201784D01*
X183301149Y-102291592D01*
X183752639Y-102201784D01*
X183946301Y-101926961D01*
X183080000Y-101060660D01*
X182213699Y-101926961D01*
X180688025Y-101926961D01*
X180774488Y-101500000D01*
X180774488Y-100221149D01*
X180788408Y-100221149D01*
X180878216Y-100672639D01*
X181153039Y-100866301D01*
X182019340Y-100000000D01*
X184140660Y-100000000D01*
X185006961Y-100866301D01*
X185281784Y-100672639D01*
X185371592Y-99778851D01*
X185281784Y-99327361D01*
X185006961Y-99133699D01*
X184140660Y-100000000D01*
X182019340Y-100000000D01*
X181153039Y-99133699D01*
X180878216Y-99327361D01*
X180788408Y-100221149D01*
X180774488Y-100221149D01*
X180774488Y-98500000D01*
X180694150Y-98073039D01*
X182213699Y-98073039D01*
X183080000Y-98939340D01*
X183946301Y-98073039D01*
X183752639Y-97798216D01*
X182858851Y-97708408D01*
X182407361Y-97798216D01*
X182213699Y-98073039D01*
X180694150Y-98073039D01*
X180687327Y-98036778D01*
X180413563Y-97611337D01*
X179995847Y-97325924D01*
X179500000Y-97225512D01*
X176500000Y-97225512D01*
X176036778Y-97312673D01*
X175611337Y-97586437D01*
X175325924Y-98004153D01*
X175225512Y-98500000D01*
X167765158Y-98500000D01*
X167851108Y-97878387D01*
X167749869Y-97369421D01*
X167490001Y-97237817D01*
X166737817Y-97990000D01*
X165182183Y-97990000D01*
X164429999Y-97237817D01*
X164170131Y-97369421D01*
X164068892Y-98101613D01*
X164070837Y-98111393D01*
X163892355Y-98289875D01*
X163869516Y-98280392D01*
X162974411Y-98279610D01*
X162948207Y-98290437D01*
X162742568Y-98084798D01*
X162771108Y-97878387D01*
X162669869Y-97369421D01*
X162410001Y-97237817D01*
X161657817Y-97990000D01*
X162046726Y-98378909D01*
X161268909Y-99156726D01*
X160880000Y-98767817D01*
X160127817Y-99520001D01*
X153419542Y-99520001D01*
X153373711Y-99474090D01*
X153709731Y-99249569D01*
X153900975Y-98963352D01*
X154590441Y-99249643D01*
X155405981Y-99250355D01*
X156159715Y-98938919D01*
X156736892Y-98362748D01*
X156845324Y-98101613D01*
X158988892Y-98101613D01*
X159090131Y-98610579D01*
X159349999Y-98742183D01*
X160102183Y-97990000D01*
X159349999Y-97237817D01*
X159090131Y-97369421D01*
X158988892Y-98101613D01*
X156845324Y-98101613D01*
X157049643Y-97609559D01*
X157050355Y-96794019D01*
X156912341Y-96459999D01*
X160127817Y-96459999D01*
X160880000Y-97212183D01*
X161632183Y-96459999D01*
X165207817Y-96459999D01*
X165960000Y-97212183D01*
X166712183Y-96459999D01*
X166580579Y-96200131D01*
X165848387Y-96098892D01*
X165339421Y-96200131D01*
X165207817Y-96459999D01*
X161632183Y-96459999D01*
X161500579Y-96200131D01*
X160768387Y-96098892D01*
X160259421Y-96200131D01*
X160127817Y-96459999D01*
X156912341Y-96459999D01*
X156738919Y-96040285D01*
X156162748Y-95463108D01*
X155409559Y-95150357D01*
X154594019Y-95149645D01*
X153840285Y-95461081D01*
X153263108Y-96037252D01*
X153258312Y-96048803D01*
X153044663Y-95906047D01*
X152260162Y-95750000D01*
X152179838Y-95750000D01*
X151395337Y-95906047D01*
X150730269Y-96350431D01*
X150285885Y-97015499D01*
X150129838Y-97800000D01*
X150285885Y-98584501D01*
X150730269Y-99249569D01*
X151044323Y-99459413D01*
X151040285Y-99461081D01*
X150463108Y-100037252D01*
X150150357Y-100790441D01*
X150149645Y-101605981D01*
X150461081Y-102359715D01*
X150900861Y-102800262D01*
X150463108Y-103237252D01*
X150150357Y-103990441D01*
X150149759Y-104675000D01*
X146615461Y-104675000D01*
X146670162Y-104400000D01*
X146514115Y-103615499D01*
X146069731Y-102950431D01*
X145844595Y-102800000D01*
X146069731Y-102649569D01*
X146514115Y-101984501D01*
X146670162Y-101200000D01*
X146514115Y-100415499D01*
X146069731Y-99750431D01*
X145755677Y-99540587D01*
X145759715Y-99538919D01*
X146336892Y-98962748D01*
X146649643Y-98209559D01*
X146650355Y-97394019D01*
X146338919Y-96640285D01*
X145762748Y-96063108D01*
X145009559Y-95750357D01*
X144194019Y-95749645D01*
X143440285Y-96061081D01*
X142863108Y-96637252D01*
X142550357Y-97390441D01*
X142549645Y-98205981D01*
X142861081Y-98959715D01*
X143426289Y-99525910D01*
X143090269Y-99750431D01*
X142645885Y-100415499D01*
X142489838Y-101200000D01*
X142645885Y-101984501D01*
X143090269Y-102649569D01*
X143315405Y-102800000D01*
X143090269Y-102950431D01*
X142645885Y-103615499D01*
X142489838Y-104400000D01*
X142544539Y-104675000D01*
X140686706Y-104675000D01*
X140969658Y-103993576D01*
X140970342Y-103209862D01*
X140671059Y-102485542D01*
X140516002Y-102330215D01*
X140669111Y-102177373D01*
X140969658Y-101453576D01*
X140970342Y-100669862D01*
X140671059Y-99945542D01*
X140516002Y-99790215D01*
X140669111Y-99637373D01*
X140969658Y-98913576D01*
X140970342Y-98129862D01*
X140671059Y-97405542D01*
X140117373Y-96850889D01*
X139393576Y-96550342D01*
X138609862Y-96549658D01*
X137885542Y-96848941D01*
X137330889Y-97402627D01*
X137030342Y-98126424D01*
X137029658Y-98910138D01*
X137328941Y-99634458D01*
X137483998Y-99789785D01*
X137330889Y-99942627D01*
X137030342Y-100666424D01*
X137029658Y-101450138D01*
X137328941Y-102174458D01*
X137483998Y-102329785D01*
X137330889Y-102482627D01*
X137030342Y-103206424D01*
X137029658Y-103990138D01*
X137312637Y-104675000D01*
X136049760Y-104675000D01*
X136050355Y-103994019D01*
X135738919Y-103240285D01*
X135299139Y-102799738D01*
X135736892Y-102362748D01*
X136049643Y-101609559D01*
X136050355Y-100794019D01*
X135738919Y-100040285D01*
X135162748Y-99463108D01*
X134409559Y-99150357D01*
X133594019Y-99149645D01*
X132840285Y-99461081D01*
X132263108Y-100037252D01*
X131950357Y-100790441D01*
X131949645Y-101605981D01*
X132261081Y-102359715D01*
X132700861Y-102800262D01*
X132263108Y-103237252D01*
X131950357Y-103990441D01*
X131949759Y-104675000D01*
X128415461Y-104675000D01*
X128470162Y-104400000D01*
X128314115Y-103615499D01*
X127869731Y-102950431D01*
X127644595Y-102800000D01*
X127869731Y-102649569D01*
X128314115Y-101984501D01*
X128470162Y-101200000D01*
X128314115Y-100415499D01*
X127869731Y-99750431D01*
X127640188Y-99597055D01*
X128119715Y-99398919D01*
X128628716Y-98890805D01*
X131294881Y-98890805D01*
X131379983Y-99138846D01*
X131990064Y-99248239D01*
X132540017Y-99138846D01*
X132625119Y-98890805D01*
X131960000Y-98225685D01*
X131294881Y-98890805D01*
X128628716Y-98890805D01*
X128696892Y-98822748D01*
X129009643Y-98069559D01*
X129009974Y-97690064D01*
X130371761Y-97690064D01*
X130481154Y-98240017D01*
X130729195Y-98325119D01*
X131394315Y-97660000D01*
X132525685Y-97660000D01*
X133190805Y-98325119D01*
X133438846Y-98240017D01*
X133548239Y-97629936D01*
X133438846Y-97079983D01*
X133190805Y-96994881D01*
X132525685Y-97660000D01*
X131394315Y-97660000D01*
X130729195Y-96994881D01*
X130481154Y-97079983D01*
X130371761Y-97690064D01*
X129009974Y-97690064D01*
X129010355Y-97254019D01*
X128698919Y-96500285D01*
X128627953Y-96429195D01*
X131294881Y-96429195D01*
X131960000Y-97094315D01*
X132625119Y-96429195D01*
X132540017Y-96181154D01*
X131929936Y-96071761D01*
X131379983Y-96181154D01*
X131294881Y-96429195D01*
X128627953Y-96429195D01*
X128122748Y-95923108D01*
X127369559Y-95610357D01*
X126554019Y-95609645D01*
X125800285Y-95921081D01*
X125223108Y-96497252D01*
X125010354Y-97009620D01*
X123781337Y-98038114D01*
X123584988Y-97562914D01*
X123020060Y-96996999D01*
X122281568Y-96690350D01*
X121481940Y-96689652D01*
X120742914Y-96995012D01*
X120610264Y-97127431D01*
X120480060Y-96996999D01*
X119741568Y-96690350D01*
X118941940Y-96689652D01*
X118320202Y-96946550D01*
X118055847Y-96765924D01*
X117560000Y-96665512D01*
X116040000Y-96665512D01*
X115576778Y-96752673D01*
X115151337Y-97026437D01*
X114865924Y-97444153D01*
X114765512Y-97940000D01*
X114765512Y-99460000D01*
X114852673Y-99923222D01*
X115126437Y-100348663D01*
X115544153Y-100634076D01*
X116040000Y-100734488D01*
X117560000Y-100734488D01*
X117653051Y-100716979D01*
X117723211Y-101069696D01*
X117749987Y-101109769D01*
X117221568Y-100890350D01*
X116421940Y-100889652D01*
X115682914Y-101195012D01*
X115116999Y-101759940D01*
X114810350Y-102498432D01*
X114809652Y-103298060D01*
X115115012Y-104037086D01*
X115679940Y-104603001D01*
X115853333Y-104675000D01*
X112649935Y-104675000D01*
X112650355Y-104194019D01*
X112338919Y-103440285D01*
X111762748Y-102863108D01*
X111009559Y-102550357D01*
X110194019Y-102549645D01*
X109440285Y-102861081D01*
X108978032Y-103322528D01*
X108849569Y-103130269D01*
X108184501Y-102685885D01*
X107400000Y-102529838D01*
X106615499Y-102685885D01*
X105950431Y-103130269D01*
X105700000Y-103505066D01*
X105449569Y-103130269D01*
X104784501Y-102685885D01*
X104000000Y-102529838D01*
X103215499Y-102685885D01*
X102550431Y-103130269D01*
X102106047Y-103795337D01*
X102082592Y-103913253D01*
X102062846Y-103813983D01*
X101814805Y-103728881D01*
X101149685Y-104394000D01*
X101430685Y-104675000D01*
X99737315Y-104675000D01*
X100018315Y-104394000D01*
X99353195Y-103728881D01*
X99105154Y-103813983D01*
X99041554Y-104168677D01*
X98580323Y-104629907D01*
X98625416Y-104675000D01*
X83653873Y-104675000D01*
X83745569Y-104613731D01*
X84189953Y-103948663D01*
X84346000Y-103164162D01*
X84346000Y-103163195D01*
X99918881Y-103163195D01*
X100584000Y-103828315D01*
X101249119Y-103163195D01*
X101164017Y-102915154D01*
X100553936Y-102805761D01*
X100003983Y-102915154D01*
X99918881Y-103163195D01*
X84346000Y-103163195D01*
X84346000Y-103083838D01*
X84189953Y-102299337D01*
X84035917Y-102068805D01*
X84932881Y-102068805D01*
X85017983Y-102316846D01*
X85628064Y-102426239D01*
X86178017Y-102316846D01*
X86263119Y-102068805D01*
X85598000Y-101403685D01*
X84932881Y-102068805D01*
X84035917Y-102068805D01*
X83745569Y-101634269D01*
X83080501Y-101189885D01*
X82296000Y-101033838D01*
X81511499Y-101189885D01*
X80846431Y-101634269D01*
X80402047Y-102299337D01*
X80246000Y-103083838D01*
X80246000Y-103164162D01*
X80402047Y-103948663D01*
X80846431Y-104613731D01*
X80938127Y-104675000D01*
X75552086Y-104675000D01*
X75709643Y-104295559D01*
X75710355Y-103480019D01*
X75398919Y-102726285D01*
X74822748Y-102149108D01*
X74069559Y-101836357D01*
X73254019Y-101835645D01*
X72500285Y-102147081D01*
X72224488Y-102422397D01*
X72224488Y-102278000D01*
X72137327Y-101814778D01*
X71863563Y-101389337D01*
X71445847Y-101103924D01*
X70950000Y-101003512D01*
X68750000Y-101003512D01*
X68286778Y-101090673D01*
X67861337Y-101364437D01*
X67575924Y-101782153D01*
X67475512Y-102278000D01*
X67475512Y-104478000D01*
X67512580Y-104675000D01*
X63533447Y-104675000D01*
X63626264Y-104603861D01*
X63896840Y-104198857D01*
X63805244Y-103928000D01*
X62780000Y-103928000D01*
X62780000Y-104478000D01*
X61680000Y-104478000D01*
X61680000Y-103928000D01*
X60654756Y-103928000D01*
X60563160Y-104198857D01*
X60833736Y-104603861D01*
X60926553Y-104675000D01*
X45982125Y-104675000D01*
X46389058Y-104268777D01*
X46999305Y-102799140D01*
X46999516Y-102557143D01*
X60563160Y-102557143D01*
X60654756Y-102828000D01*
X61680000Y-102828000D01*
X61680000Y-101792736D01*
X62780000Y-101792736D01*
X62780000Y-102828000D01*
X63805244Y-102828000D01*
X63896840Y-102557143D01*
X63626264Y-102152139D01*
X63050863Y-101711125D01*
X62780000Y-101792736D01*
X61680000Y-101792736D01*
X61409137Y-101711125D01*
X60833736Y-102152139D01*
X60563160Y-102557143D01*
X46999516Y-102557143D01*
X47000693Y-101207841D01*
X46860301Y-100868064D01*
X84009761Y-100868064D01*
X84119154Y-101418017D01*
X84367195Y-101503119D01*
X85032315Y-100838000D01*
X86163685Y-100838000D01*
X86828805Y-101503119D01*
X87076846Y-101418017D01*
X87186239Y-100807936D01*
X87076846Y-100257983D01*
X86828805Y-100172881D01*
X86163685Y-100838000D01*
X85032315Y-100838000D01*
X84367195Y-100172881D01*
X84119154Y-100257983D01*
X84009761Y-100868064D01*
X46860301Y-100868064D01*
X46393013Y-99737142D01*
X45268777Y-98610942D01*
X44750000Y-98395527D01*
X44750000Y-97689782D01*
X44981288Y-97343635D01*
X45141141Y-96540000D01*
X44981288Y-95736365D01*
X44562760Y-95109994D01*
X44608000Y-95000775D01*
X44608000Y-94614500D01*
X44418500Y-94425000D01*
X43425000Y-94425000D01*
X43425000Y-94516354D01*
X43041141Y-94440000D01*
X42958859Y-94440000D01*
X42575000Y-94516354D01*
X42575000Y-94425000D01*
X41581500Y-94425000D01*
X41392000Y-94614500D01*
X41392000Y-95000775D01*
X41437240Y-95109994D01*
X41018712Y-95736365D01*
X40858859Y-96540000D01*
X41018712Y-97343635D01*
X41250000Y-97689782D01*
X41250000Y-98395079D01*
X40737142Y-98606987D01*
X39610942Y-99731223D01*
X39250000Y-100600467D01*
X39250000Y-92999225D01*
X41392000Y-92999225D01*
X41392000Y-93385500D01*
X41581500Y-93575000D01*
X42575000Y-93575000D01*
X42575000Y-92581500D01*
X43425000Y-92581500D01*
X43425000Y-93575000D01*
X44418500Y-93575000D01*
X44608000Y-93385500D01*
X44608000Y-92999225D01*
X44492602Y-92720628D01*
X44279373Y-92507399D01*
X44000776Y-92392000D01*
X43614500Y-92392000D01*
X43425000Y-92581500D01*
X42575000Y-92581500D01*
X42385500Y-92392000D01*
X41999224Y-92392000D01*
X41720627Y-92507399D01*
X41507398Y-92720628D01*
X41392000Y-92999225D01*
X39250000Y-92999225D01*
X39250000Y-87250000D01*
X49836000Y-87250000D01*
X49836000Y-90170000D01*
X49836000Y-90170000D01*
G37*
X49836000Y-90170000D02*
X50083392Y-91413721D01*
X50787903Y-92468097D01*
X51549903Y-93230097D01*
X51614000Y-93272925D01*
X51614000Y-96012000D01*
X51861392Y-97255721D01*
X52565903Y-98310097D01*
X53620279Y-99014608D01*
X54864000Y-99262000D01*
X56107721Y-99014608D01*
X57162097Y-98310097D01*
X57320047Y-98073708D01*
X57530437Y-98400663D01*
X57948153Y-98686076D01*
X58444000Y-98786488D01*
X61444000Y-98786488D01*
X61461490Y-98783197D01*
X66129576Y-98783197D01*
X66501780Y-99684000D01*
X67190375Y-100373798D01*
X68090527Y-100747573D01*
X69065197Y-100748424D01*
X69966000Y-100376220D01*
X70655798Y-99687625D01*
X70689195Y-99607195D01*
X84932881Y-99607195D01*
X85598000Y-100272315D01*
X85864333Y-100005981D01*
X108549645Y-100005981D01*
X108861081Y-100759715D01*
X109437252Y-101336892D01*
X110190441Y-101649643D01*
X111005981Y-101650355D01*
X111759715Y-101338919D01*
X112336892Y-100762748D01*
X112649643Y-100009559D01*
X112650355Y-99194019D01*
X112338919Y-98440285D01*
X111762748Y-97863108D01*
X111009559Y-97550357D01*
X110194019Y-97549645D01*
X109440285Y-97861081D01*
X108863108Y-98437252D01*
X108550357Y-99190441D01*
X108549645Y-100005981D01*
X85864333Y-100005981D01*
X86263119Y-99607195D01*
X86178017Y-99359154D01*
X85567936Y-99249761D01*
X85017983Y-99359154D01*
X84932881Y-99607195D01*
X70689195Y-99607195D01*
X71029573Y-98787473D01*
X71030424Y-97812803D01*
X70658220Y-96912000D01*
X70093046Y-96345838D01*
X71610000Y-96345838D01*
X71610000Y-96426162D01*
X71766047Y-97210663D01*
X72210431Y-97875731D01*
X72875499Y-98320115D01*
X73660000Y-98476162D01*
X74444501Y-98320115D01*
X75109569Y-97875731D01*
X75553953Y-97210663D01*
X75710000Y-96426162D01*
X75710000Y-96345838D01*
X75623303Y-95909981D01*
X80245645Y-95909981D01*
X80557081Y-96663715D01*
X81133252Y-97240892D01*
X81886441Y-97553643D01*
X82701981Y-97554355D01*
X83455715Y-97242919D01*
X83813019Y-96886237D01*
X83859081Y-96997715D01*
X84435252Y-97574892D01*
X85188441Y-97887643D01*
X86003981Y-97888355D01*
X86757715Y-97576919D01*
X86928951Y-97405981D01*
X101949645Y-97405981D01*
X102261081Y-98159715D01*
X102837252Y-98736892D01*
X103590441Y-99049643D01*
X104405981Y-99050355D01*
X105159715Y-98738919D01*
X105700437Y-98199140D01*
X106237252Y-98736892D01*
X106990441Y-99049643D01*
X107805981Y-99050355D01*
X108559715Y-98738919D01*
X109136892Y-98162748D01*
X109449643Y-97409559D01*
X109450355Y-96594019D01*
X109138919Y-95840285D01*
X108562748Y-95263108D01*
X107809559Y-94950357D01*
X106994019Y-94949645D01*
X106240285Y-95261081D01*
X105699563Y-95800860D01*
X105162748Y-95263108D01*
X104409559Y-94950357D01*
X103594019Y-94949645D01*
X102840285Y-95261081D01*
X102263108Y-95837252D01*
X101950357Y-96590441D01*
X101949645Y-97405981D01*
X86928951Y-97405981D01*
X87334892Y-97000748D01*
X87647643Y-96247559D01*
X87648355Y-95432019D01*
X87336919Y-94678285D01*
X87013038Y-94353838D01*
X98534000Y-94353838D01*
X98534000Y-94434162D01*
X98690047Y-95218663D01*
X99134431Y-95883731D01*
X99799499Y-96328115D01*
X100584000Y-96484162D01*
X101368501Y-96328115D01*
X102033569Y-95883731D01*
X102477953Y-95218663D01*
X102634000Y-94434162D01*
X102634000Y-94353838D01*
X102477953Y-93569337D01*
X102033569Y-92904269D01*
X101368501Y-92459885D01*
X100584000Y-92303838D01*
X99799499Y-92459885D01*
X99134431Y-92904269D01*
X98690047Y-93569337D01*
X98534000Y-94353838D01*
X87013038Y-94353838D01*
X86760748Y-94101108D01*
X86007559Y-93788357D01*
X85192019Y-93787645D01*
X84438285Y-94099081D01*
X84080981Y-94455763D01*
X84034919Y-94344285D01*
X83458748Y-93767108D01*
X82705559Y-93454357D01*
X81890019Y-93453645D01*
X81136285Y-93765081D01*
X80559108Y-94341252D01*
X80246357Y-95094441D01*
X80245645Y-95909981D01*
X75623303Y-95909981D01*
X75553953Y-95561337D01*
X75109569Y-94896269D01*
X74444501Y-94451885D01*
X73660000Y-94295838D01*
X72875499Y-94451885D01*
X72210431Y-94896269D01*
X71766047Y-95561337D01*
X71610000Y-96345838D01*
X70093046Y-96345838D01*
X69969625Y-96222202D01*
X69069473Y-95848427D01*
X68094803Y-95847576D01*
X67194000Y-96219780D01*
X66504202Y-96908375D01*
X66130427Y-97808527D01*
X66129576Y-98783197D01*
X61461490Y-98783197D01*
X61907222Y-98699327D01*
X62332663Y-98425563D01*
X62618076Y-98007847D01*
X62718488Y-97512000D01*
X62718488Y-94512000D01*
X62631327Y-94048778D01*
X62357563Y-93623337D01*
X62136123Y-93472033D01*
X62332663Y-93345563D01*
X62618076Y-92927847D01*
X62718488Y-92432000D01*
X62718488Y-89432000D01*
X62631327Y-88968778D01*
X62357563Y-88543337D01*
X61939847Y-88257924D01*
X61444000Y-88157512D01*
X58444000Y-88157512D01*
X57980778Y-88244673D01*
X57555337Y-88518437D01*
X57317515Y-88866502D01*
X57162097Y-88633903D01*
X56336000Y-88081923D01*
X56336000Y-87250000D01*
X66761787Y-87250000D01*
X66847588Y-87378410D01*
X67642426Y-87909503D01*
X68580000Y-88095998D01*
X69517574Y-87909503D01*
X70312412Y-87378410D01*
X70398213Y-87250000D01*
X74900130Y-87250000D01*
X74962563Y-87343437D01*
X75530304Y-87722789D01*
X76200000Y-87856000D01*
X76375425Y-87821106D01*
X76232563Y-87916563D01*
X74962563Y-89186563D01*
X74639360Y-89670271D01*
X74061568Y-89430350D01*
X73261940Y-89429652D01*
X72522914Y-89735012D01*
X71956999Y-90299940D01*
X71650350Y-91038432D01*
X71649652Y-91838060D01*
X71955012Y-92577086D01*
X72519940Y-93143001D01*
X73258432Y-93449650D01*
X74058060Y-93450348D01*
X74797086Y-93144988D01*
X74929736Y-93012569D01*
X75059940Y-93143001D01*
X75798432Y-93449650D01*
X76598060Y-93450348D01*
X77219798Y-93193450D01*
X77484153Y-93374076D01*
X77980000Y-93474488D01*
X79500000Y-93474488D01*
X79963222Y-93387327D01*
X80388663Y-93113563D01*
X80674076Y-92695847D01*
X80774488Y-92200000D01*
X80774488Y-90904000D01*
X81104171Y-90904000D01*
X81048350Y-91038432D01*
X81047652Y-91838060D01*
X81353012Y-92577086D01*
X81917940Y-93143001D01*
X82656432Y-93449650D01*
X83456060Y-93450348D01*
X84195086Y-93144988D01*
X84327736Y-93012569D01*
X84457940Y-93143001D01*
X85196432Y-93449650D01*
X85996060Y-93450348D01*
X86617798Y-93193450D01*
X86882153Y-93374076D01*
X87378000Y-93474488D01*
X88898000Y-93474488D01*
X89361222Y-93387327D01*
X89786663Y-93113563D01*
X90072076Y-92695847D01*
X90172488Y-92200000D01*
X90172488Y-90680000D01*
X90085327Y-90216778D01*
X89811563Y-89791337D01*
X89393847Y-89505924D01*
X88898000Y-89405512D01*
X87378000Y-89405512D01*
X87176753Y-89443379D01*
X86835437Y-88932563D01*
X86098874Y-88196000D01*
X86835437Y-87459437D01*
X86975378Y-87250000D01*
X96273552Y-87250000D01*
X96294153Y-87264076D01*
X96790000Y-87364488D01*
X98790000Y-87364488D01*
X99253222Y-87277327D01*
X99295689Y-87250000D01*
X102124683Y-87250000D01*
X102340484Y-87339608D01*
X103235589Y-87340390D01*
X103454349Y-87250000D01*
X106470466Y-87250000D01*
X106288392Y-87688484D01*
X106287610Y-88583589D01*
X106629431Y-89410858D01*
X107261813Y-90044345D01*
X108088484Y-90387608D01*
X108983589Y-90388390D01*
X109337925Y-90241981D01*
X118091645Y-90241981D01*
X118403081Y-90995715D01*
X118979252Y-91572892D01*
X119732441Y-91885643D01*
X120547981Y-91886355D01*
X121301715Y-91574919D01*
X121878892Y-90998748D01*
X122177079Y-90280631D01*
X139775335Y-90280631D01*
X140072162Y-90724912D01*
X140569365Y-91074694D01*
X140800000Y-90966307D01*
X140800000Y-90050000D01*
X141600000Y-90050000D01*
X141600000Y-90966307D01*
X141830635Y-91074694D01*
X142327838Y-90724912D01*
X142624665Y-90280631D01*
X142508737Y-90050000D01*
X141600000Y-90050000D01*
X140800000Y-90050000D01*
X139891263Y-90050000D01*
X139775335Y-90280631D01*
X122177079Y-90280631D01*
X122191643Y-90245559D01*
X122192355Y-89430019D01*
X121880919Y-88676285D01*
X121304748Y-88099108D01*
X120551559Y-87786357D01*
X119736019Y-87785645D01*
X118982285Y-88097081D01*
X118405108Y-88673252D01*
X118092357Y-89426441D01*
X118091645Y-90241981D01*
X109337925Y-90241981D01*
X109810858Y-90046569D01*
X110444345Y-89414187D01*
X110687958Y-88827500D01*
X111780000Y-88827500D01*
X111780000Y-89288775D01*
X111895398Y-89567372D01*
X112108627Y-89780601D01*
X112387224Y-89896000D01*
X112848500Y-89896000D01*
X113038000Y-89706500D01*
X113038000Y-88638000D01*
X114038000Y-88638000D01*
X114038000Y-89706500D01*
X114227500Y-89896000D01*
X114688776Y-89896000D01*
X114967373Y-89780601D01*
X115180602Y-89567372D01*
X115296000Y-89288775D01*
X115296000Y-88827500D01*
X115106500Y-88638000D01*
X114038000Y-88638000D01*
X113038000Y-88638000D01*
X111969500Y-88638000D01*
X111780000Y-88827500D01*
X110687958Y-88827500D01*
X110787608Y-88587516D01*
X110788390Y-87692411D01*
X110605589Y-87250000D01*
X111780000Y-87250000D01*
X111780000Y-87448500D01*
X111969500Y-87638000D01*
X113038000Y-87638000D01*
X113038000Y-87250000D01*
X114038000Y-87250000D01*
X114038000Y-87638000D01*
X115106500Y-87638000D01*
X115296000Y-87448500D01*
X115296000Y-87250000D01*
X122688092Y-87250000D01*
X122195161Y-87742931D01*
X122672266Y-88220036D01*
X122732821Y-88524466D01*
X122979233Y-88603366D01*
X123632599Y-87950000D01*
X123363899Y-87681300D01*
X123795198Y-87250000D01*
X124007401Y-87250000D01*
X124170000Y-87412599D01*
X124332599Y-87250000D01*
X124544802Y-87250000D01*
X124742273Y-87447471D01*
X124700350Y-87548432D01*
X124699652Y-88348060D01*
X124742659Y-88452143D01*
X124438701Y-88756102D01*
X124170000Y-88487401D01*
X123516634Y-89140767D01*
X123595534Y-89387179D01*
X123895141Y-89442911D01*
X124377069Y-89924839D01*
X125109825Y-89192083D01*
X125569940Y-89653001D01*
X126308432Y-89959650D01*
X127108060Y-89960348D01*
X127729798Y-89703450D01*
X127994153Y-89884076D01*
X128490000Y-89984488D01*
X130010000Y-89984488D01*
X130473222Y-89897327D01*
X130898663Y-89623563D01*
X131184076Y-89205847D01*
X131240474Y-88927348D01*
X131679252Y-89366892D01*
X132432441Y-89679643D01*
X133247981Y-89680355D01*
X134001715Y-89368919D01*
X134578892Y-88792748D01*
X134891643Y-88039559D01*
X134892332Y-87250000D01*
X135792331Y-87250000D01*
X135791645Y-88035981D01*
X136103081Y-88789715D01*
X136679252Y-89366892D01*
X137432441Y-89679643D01*
X138247981Y-89680355D01*
X139001715Y-89368919D01*
X139351875Y-89019369D01*
X139775335Y-89019369D01*
X139891263Y-89250000D01*
X140800000Y-89250000D01*
X140800000Y-88333693D01*
X141600000Y-88333693D01*
X141600000Y-89250000D01*
X142508737Y-89250000D01*
X142624665Y-89019369D01*
X142327838Y-88575088D01*
X141830635Y-88225306D01*
X141600000Y-88333693D01*
X140800000Y-88333693D01*
X140569365Y-88225306D01*
X140072162Y-88575088D01*
X139775335Y-89019369D01*
X139351875Y-89019369D01*
X139578892Y-88792748D01*
X139891643Y-88039559D01*
X139892332Y-87250000D01*
X140501034Y-87250000D01*
X140887252Y-87636892D01*
X141640441Y-87949643D01*
X142455981Y-87950355D01*
X143209715Y-87638919D01*
X143599313Y-87250000D01*
X148113739Y-87250000D01*
X148180269Y-87349569D01*
X148845337Y-87793953D01*
X149629838Y-87950000D01*
X149710162Y-87950000D01*
X150165107Y-87859506D01*
X150040285Y-87911081D01*
X149463108Y-88487252D01*
X149150357Y-89240441D01*
X149149645Y-90055981D01*
X149461081Y-90809715D01*
X150037252Y-91386892D01*
X150790441Y-91699643D01*
X151605981Y-91700355D01*
X151690595Y-91665393D01*
X156249593Y-91665393D01*
X156606605Y-92529429D01*
X157267094Y-93191071D01*
X158130505Y-93549591D01*
X159065393Y-93550407D01*
X159929429Y-93193395D01*
X160591071Y-92532906D01*
X160949591Y-91669495D01*
X160949594Y-91665393D01*
X171249593Y-91665393D01*
X171606605Y-92529429D01*
X172267094Y-93191071D01*
X173130505Y-93549591D01*
X174065393Y-93550407D01*
X174929429Y-93193395D01*
X175591071Y-92532906D01*
X175949591Y-91669495D01*
X175950407Y-90734607D01*
X175593395Y-89870571D01*
X174932906Y-89208929D01*
X174069495Y-88850409D01*
X173134607Y-88849593D01*
X172270571Y-89206605D01*
X171608929Y-89867094D01*
X171250409Y-90730505D01*
X171249593Y-91665393D01*
X160949594Y-91665393D01*
X160950407Y-90734607D01*
X160593395Y-89870571D01*
X159932906Y-89208929D01*
X159069495Y-88850409D01*
X158134607Y-88849593D01*
X157270571Y-89206605D01*
X156608929Y-89867094D01*
X156250409Y-90730505D01*
X156249593Y-91665393D01*
X151690595Y-91665393D01*
X152359715Y-91388919D01*
X152936892Y-90812748D01*
X153249643Y-90059559D01*
X153250355Y-89244019D01*
X152938919Y-88490285D01*
X152362748Y-87913108D01*
X151609559Y-87600357D01*
X150794019Y-87599645D01*
X150771605Y-87608906D01*
X151159731Y-87349569D01*
X151226261Y-87250000D01*
X178927729Y-87250000D01*
X179379940Y-87703001D01*
X180118432Y-88009650D01*
X180918060Y-88010348D01*
X181657086Y-87704988D01*
X181789736Y-87572569D01*
X181919940Y-87703001D01*
X182658432Y-88009650D01*
X183458060Y-88010348D01*
X184079798Y-87753450D01*
X184344153Y-87934076D01*
X184840000Y-88034488D01*
X186360000Y-88034488D01*
X186750000Y-87961105D01*
X186750000Y-89985320D01*
X186324202Y-90410375D01*
X185950427Y-91310527D01*
X185949576Y-92285197D01*
X186321780Y-93186000D01*
X186750000Y-93614968D01*
X186750000Y-102664524D01*
X186667588Y-102719590D01*
X186136495Y-103514428D01*
X185950000Y-104452002D01*
X185950000Y-104547998D01*
X185975262Y-104675000D01*
X166674202Y-104675000D01*
X166712183Y-104600001D01*
X165960000Y-103847817D01*
X165207817Y-104600001D01*
X165245798Y-104675000D01*
X161594202Y-104675000D01*
X161632183Y-104600001D01*
X160880000Y-103847817D01*
X160127817Y-104600001D01*
X160165798Y-104675000D01*
X156558000Y-104675000D01*
X156558000Y-103569998D01*
X155892061Y-103569998D01*
X155630631Y-103395335D01*
X155400000Y-103511263D01*
X155400000Y-104420000D01*
X155800000Y-104420000D01*
X155800000Y-104675000D01*
X154249760Y-104675000D01*
X154249983Y-104420000D01*
X154600000Y-104420000D01*
X154600000Y-103511263D01*
X154369369Y-103395335D01*
X154107939Y-103569998D01*
X154075153Y-103569998D01*
X153938919Y-103240285D01*
X153880350Y-103181613D01*
X158988892Y-103181613D01*
X159090131Y-103690579D01*
X159349999Y-103822183D01*
X160102183Y-103070000D01*
X159349999Y-102317817D01*
X159090131Y-102449421D01*
X158988892Y-103181613D01*
X153880350Y-103181613D01*
X153499139Y-102799738D01*
X153936892Y-102362748D01*
X154249643Y-101609559D01*
X154250355Y-100794019D01*
X153938919Y-100040285D01*
X153419542Y-99520001D01*
X160127817Y-99520001D01*
X160259421Y-99779869D01*
X160991613Y-99881108D01*
X161001393Y-99879163D01*
X161179875Y-100057645D01*
X161170392Y-100080484D01*
X161169610Y-100975589D01*
X161180437Y-101001793D01*
X160974798Y-101207432D01*
X160768387Y-101178892D01*
X160259421Y-101280131D01*
X160127817Y-101539999D01*
X160880000Y-102292183D01*
X161268909Y-101903274D01*
X162046726Y-102681091D01*
X161657817Y-103070000D01*
X162410001Y-103822183D01*
X162669869Y-103690579D01*
X162771108Y-102958387D01*
X162769163Y-102948607D01*
X162947645Y-102770125D01*
X162970484Y-102779608D01*
X163865589Y-102780390D01*
X163891793Y-102769563D01*
X164097432Y-102975202D01*
X164068892Y-103181613D01*
X164170131Y-103690579D01*
X164429999Y-103822183D01*
X165182183Y-103070000D01*
X166737817Y-103070000D01*
X167490001Y-103822183D01*
X167749869Y-103690579D01*
X167851108Y-102958387D01*
X167749869Y-102449421D01*
X167490001Y-102317817D01*
X166737817Y-103070000D01*
X165182183Y-103070000D01*
X164793274Y-102681091D01*
X165571091Y-101903274D01*
X165960000Y-102292183D01*
X166712183Y-101539999D01*
X166580579Y-101280131D01*
X165848387Y-101178892D01*
X165838607Y-101180837D01*
X165660125Y-101002355D01*
X165669608Y-100979516D01*
X165670390Y-100084411D01*
X165659563Y-100058207D01*
X165865202Y-99852568D01*
X166071613Y-99881108D01*
X166580579Y-99779869D01*
X166712183Y-99520001D01*
X165960000Y-98767817D01*
X165571091Y-99156726D01*
X164793274Y-98378909D01*
X165182183Y-97990000D01*
X166737817Y-97990000D01*
X167490001Y-98742183D01*
X167749869Y-98610579D01*
X167765158Y-98500000D01*
X175225512Y-98500000D01*
X175225512Y-101500000D01*
X175312673Y-101963222D01*
X175586437Y-102388663D01*
X176004153Y-102674076D01*
X176500000Y-102774488D01*
X179500000Y-102774488D01*
X179963222Y-102687327D01*
X180388663Y-102413563D01*
X180674076Y-101995847D01*
X180688025Y-101926961D01*
X182213699Y-101926961D01*
X182407361Y-102201784D01*
X183301149Y-102291592D01*
X183752639Y-102201784D01*
X183946301Y-101926961D01*
X183080000Y-101060660D01*
X182213699Y-101926961D01*
X180688025Y-101926961D01*
X180774488Y-101500000D01*
X180774488Y-100221149D01*
X180788408Y-100221149D01*
X180878216Y-100672639D01*
X181153039Y-100866301D01*
X182019340Y-100000000D01*
X184140660Y-100000000D01*
X185006961Y-100866301D01*
X185281784Y-100672639D01*
X185371592Y-99778851D01*
X185281784Y-99327361D01*
X185006961Y-99133699D01*
X184140660Y-100000000D01*
X182019340Y-100000000D01*
X181153039Y-99133699D01*
X180878216Y-99327361D01*
X180788408Y-100221149D01*
X180774488Y-100221149D01*
X180774488Y-98500000D01*
X180694150Y-98073039D01*
X182213699Y-98073039D01*
X183080000Y-98939340D01*
X183946301Y-98073039D01*
X183752639Y-97798216D01*
X182858851Y-97708408D01*
X182407361Y-97798216D01*
X182213699Y-98073039D01*
X180694150Y-98073039D01*
X180687327Y-98036778D01*
X180413563Y-97611337D01*
X179995847Y-97325924D01*
X179500000Y-97225512D01*
X176500000Y-97225512D01*
X176036778Y-97312673D01*
X175611337Y-97586437D01*
X175325924Y-98004153D01*
X175225512Y-98500000D01*
X167765158Y-98500000D01*
X167851108Y-97878387D01*
X167749869Y-97369421D01*
X167490001Y-97237817D01*
X166737817Y-97990000D01*
X165182183Y-97990000D01*
X164429999Y-97237817D01*
X164170131Y-97369421D01*
X164068892Y-98101613D01*
X164070837Y-98111393D01*
X163892355Y-98289875D01*
X163869516Y-98280392D01*
X162974411Y-98279610D01*
X162948207Y-98290437D01*
X162742568Y-98084798D01*
X162771108Y-97878387D01*
X162669869Y-97369421D01*
X162410001Y-97237817D01*
X161657817Y-97990000D01*
X162046726Y-98378909D01*
X161268909Y-99156726D01*
X160880000Y-98767817D01*
X160127817Y-99520001D01*
X153419542Y-99520001D01*
X153373711Y-99474090D01*
X153709731Y-99249569D01*
X153900975Y-98963352D01*
X154590441Y-99249643D01*
X155405981Y-99250355D01*
X156159715Y-98938919D01*
X156736892Y-98362748D01*
X156845324Y-98101613D01*
X158988892Y-98101613D01*
X159090131Y-98610579D01*
X159349999Y-98742183D01*
X160102183Y-97990000D01*
X159349999Y-97237817D01*
X159090131Y-97369421D01*
X158988892Y-98101613D01*
X156845324Y-98101613D01*
X157049643Y-97609559D01*
X157050355Y-96794019D01*
X156912341Y-96459999D01*
X160127817Y-96459999D01*
X160880000Y-97212183D01*
X161632183Y-96459999D01*
X165207817Y-96459999D01*
X165960000Y-97212183D01*
X166712183Y-96459999D01*
X166580579Y-96200131D01*
X165848387Y-96098892D01*
X165339421Y-96200131D01*
X165207817Y-96459999D01*
X161632183Y-96459999D01*
X161500579Y-96200131D01*
X160768387Y-96098892D01*
X160259421Y-96200131D01*
X160127817Y-96459999D01*
X156912341Y-96459999D01*
X156738919Y-96040285D01*
X156162748Y-95463108D01*
X155409559Y-95150357D01*
X154594019Y-95149645D01*
X153840285Y-95461081D01*
X153263108Y-96037252D01*
X153258312Y-96048803D01*
X153044663Y-95906047D01*
X152260162Y-95750000D01*
X152179838Y-95750000D01*
X151395337Y-95906047D01*
X150730269Y-96350431D01*
X150285885Y-97015499D01*
X150129838Y-97800000D01*
X150285885Y-98584501D01*
X150730269Y-99249569D01*
X151044323Y-99459413D01*
X151040285Y-99461081D01*
X150463108Y-100037252D01*
X150150357Y-100790441D01*
X150149645Y-101605981D01*
X150461081Y-102359715D01*
X150900861Y-102800262D01*
X150463108Y-103237252D01*
X150150357Y-103990441D01*
X150149759Y-104675000D01*
X146615461Y-104675000D01*
X146670162Y-104400000D01*
X146514115Y-103615499D01*
X146069731Y-102950431D01*
X145844595Y-102800000D01*
X146069731Y-102649569D01*
X146514115Y-101984501D01*
X146670162Y-101200000D01*
X146514115Y-100415499D01*
X146069731Y-99750431D01*
X145755677Y-99540587D01*
X145759715Y-99538919D01*
X146336892Y-98962748D01*
X146649643Y-98209559D01*
X146650355Y-97394019D01*
X146338919Y-96640285D01*
X145762748Y-96063108D01*
X145009559Y-95750357D01*
X144194019Y-95749645D01*
X143440285Y-96061081D01*
X142863108Y-96637252D01*
X142550357Y-97390441D01*
X142549645Y-98205981D01*
X142861081Y-98959715D01*
X143426289Y-99525910D01*
X143090269Y-99750431D01*
X142645885Y-100415499D01*
X142489838Y-101200000D01*
X142645885Y-101984501D01*
X143090269Y-102649569D01*
X143315405Y-102800000D01*
X143090269Y-102950431D01*
X142645885Y-103615499D01*
X142489838Y-104400000D01*
X142544539Y-104675000D01*
X140686706Y-104675000D01*
X140969658Y-103993576D01*
X140970342Y-103209862D01*
X140671059Y-102485542D01*
X140516002Y-102330215D01*
X140669111Y-102177373D01*
X140969658Y-101453576D01*
X140970342Y-100669862D01*
X140671059Y-99945542D01*
X140516002Y-99790215D01*
X140669111Y-99637373D01*
X140969658Y-98913576D01*
X140970342Y-98129862D01*
X140671059Y-97405542D01*
X140117373Y-96850889D01*
X139393576Y-96550342D01*
X138609862Y-96549658D01*
X137885542Y-96848941D01*
X137330889Y-97402627D01*
X137030342Y-98126424D01*
X137029658Y-98910138D01*
X137328941Y-99634458D01*
X137483998Y-99789785D01*
X137330889Y-99942627D01*
X137030342Y-100666424D01*
X137029658Y-101450138D01*
X137328941Y-102174458D01*
X137483998Y-102329785D01*
X137330889Y-102482627D01*
X137030342Y-103206424D01*
X137029658Y-103990138D01*
X137312637Y-104675000D01*
X136049760Y-104675000D01*
X136050355Y-103994019D01*
X135738919Y-103240285D01*
X135299139Y-102799738D01*
X135736892Y-102362748D01*
X136049643Y-101609559D01*
X136050355Y-100794019D01*
X135738919Y-100040285D01*
X135162748Y-99463108D01*
X134409559Y-99150357D01*
X133594019Y-99149645D01*
X132840285Y-99461081D01*
X132263108Y-100037252D01*
X131950357Y-100790441D01*
X131949645Y-101605981D01*
X132261081Y-102359715D01*
X132700861Y-102800262D01*
X132263108Y-103237252D01*
X131950357Y-103990441D01*
X131949759Y-104675000D01*
X128415461Y-104675000D01*
X128470162Y-104400000D01*
X128314115Y-103615499D01*
X127869731Y-102950431D01*
X127644595Y-102800000D01*
X127869731Y-102649569D01*
X128314115Y-101984501D01*
X128470162Y-101200000D01*
X128314115Y-100415499D01*
X127869731Y-99750431D01*
X127640188Y-99597055D01*
X128119715Y-99398919D01*
X128628716Y-98890805D01*
X131294881Y-98890805D01*
X131379983Y-99138846D01*
X131990064Y-99248239D01*
X132540017Y-99138846D01*
X132625119Y-98890805D01*
X131960000Y-98225685D01*
X131294881Y-98890805D01*
X128628716Y-98890805D01*
X128696892Y-98822748D01*
X129009643Y-98069559D01*
X129009974Y-97690064D01*
X130371761Y-97690064D01*
X130481154Y-98240017D01*
X130729195Y-98325119D01*
X131394315Y-97660000D01*
X132525685Y-97660000D01*
X133190805Y-98325119D01*
X133438846Y-98240017D01*
X133548239Y-97629936D01*
X133438846Y-97079983D01*
X133190805Y-96994881D01*
X132525685Y-97660000D01*
X131394315Y-97660000D01*
X130729195Y-96994881D01*
X130481154Y-97079983D01*
X130371761Y-97690064D01*
X129009974Y-97690064D01*
X129010355Y-97254019D01*
X128698919Y-96500285D01*
X128627953Y-96429195D01*
X131294881Y-96429195D01*
X131960000Y-97094315D01*
X132625119Y-96429195D01*
X132540017Y-96181154D01*
X131929936Y-96071761D01*
X131379983Y-96181154D01*
X131294881Y-96429195D01*
X128627953Y-96429195D01*
X128122748Y-95923108D01*
X127369559Y-95610357D01*
X126554019Y-95609645D01*
X125800285Y-95921081D01*
X125223108Y-96497252D01*
X125010354Y-97009620D01*
X123781337Y-98038114D01*
X123584988Y-97562914D01*
X123020060Y-96996999D01*
X122281568Y-96690350D01*
X121481940Y-96689652D01*
X120742914Y-96995012D01*
X120610264Y-97127431D01*
X120480060Y-96996999D01*
X119741568Y-96690350D01*
X118941940Y-96689652D01*
X118320202Y-96946550D01*
X118055847Y-96765924D01*
X117560000Y-96665512D01*
X116040000Y-96665512D01*
X115576778Y-96752673D01*
X115151337Y-97026437D01*
X114865924Y-97444153D01*
X114765512Y-97940000D01*
X114765512Y-99460000D01*
X114852673Y-99923222D01*
X115126437Y-100348663D01*
X115544153Y-100634076D01*
X116040000Y-100734488D01*
X117560000Y-100734488D01*
X117653051Y-100716979D01*
X117723211Y-101069696D01*
X117749987Y-101109769D01*
X117221568Y-100890350D01*
X116421940Y-100889652D01*
X115682914Y-101195012D01*
X115116999Y-101759940D01*
X114810350Y-102498432D01*
X114809652Y-103298060D01*
X115115012Y-104037086D01*
X115679940Y-104603001D01*
X115853333Y-104675000D01*
X112649935Y-104675000D01*
X112650355Y-104194019D01*
X112338919Y-103440285D01*
X111762748Y-102863108D01*
X111009559Y-102550357D01*
X110194019Y-102549645D01*
X109440285Y-102861081D01*
X108978032Y-103322528D01*
X108849569Y-103130269D01*
X108184501Y-102685885D01*
X107400000Y-102529838D01*
X106615499Y-102685885D01*
X105950431Y-103130269D01*
X105700000Y-103505066D01*
X105449569Y-103130269D01*
X104784501Y-102685885D01*
X104000000Y-102529838D01*
X103215499Y-102685885D01*
X102550431Y-103130269D01*
X102106047Y-103795337D01*
X102082592Y-103913253D01*
X102062846Y-103813983D01*
X101814805Y-103728881D01*
X101149685Y-104394000D01*
X101430685Y-104675000D01*
X99737315Y-104675000D01*
X100018315Y-104394000D01*
X99353195Y-103728881D01*
X99105154Y-103813983D01*
X99041554Y-104168677D01*
X98580323Y-104629907D01*
X98625416Y-104675000D01*
X83653873Y-104675000D01*
X83745569Y-104613731D01*
X84189953Y-103948663D01*
X84346000Y-103164162D01*
X84346000Y-103163195D01*
X99918881Y-103163195D01*
X100584000Y-103828315D01*
X101249119Y-103163195D01*
X101164017Y-102915154D01*
X100553936Y-102805761D01*
X100003983Y-102915154D01*
X99918881Y-103163195D01*
X84346000Y-103163195D01*
X84346000Y-103083838D01*
X84189953Y-102299337D01*
X84035917Y-102068805D01*
X84932881Y-102068805D01*
X85017983Y-102316846D01*
X85628064Y-102426239D01*
X86178017Y-102316846D01*
X86263119Y-102068805D01*
X85598000Y-101403685D01*
X84932881Y-102068805D01*
X84035917Y-102068805D01*
X83745569Y-101634269D01*
X83080501Y-101189885D01*
X82296000Y-101033838D01*
X81511499Y-101189885D01*
X80846431Y-101634269D01*
X80402047Y-102299337D01*
X80246000Y-103083838D01*
X80246000Y-103164162D01*
X80402047Y-103948663D01*
X80846431Y-104613731D01*
X80938127Y-104675000D01*
X75552086Y-104675000D01*
X75709643Y-104295559D01*
X75710355Y-103480019D01*
X75398919Y-102726285D01*
X74822748Y-102149108D01*
X74069559Y-101836357D01*
X73254019Y-101835645D01*
X72500285Y-102147081D01*
X72224488Y-102422397D01*
X72224488Y-102278000D01*
X72137327Y-101814778D01*
X71863563Y-101389337D01*
X71445847Y-101103924D01*
X70950000Y-101003512D01*
X68750000Y-101003512D01*
X68286778Y-101090673D01*
X67861337Y-101364437D01*
X67575924Y-101782153D01*
X67475512Y-102278000D01*
X67475512Y-104478000D01*
X67512580Y-104675000D01*
X63533447Y-104675000D01*
X63626264Y-104603861D01*
X63896840Y-104198857D01*
X63805244Y-103928000D01*
X62780000Y-103928000D01*
X62780000Y-104478000D01*
X61680000Y-104478000D01*
X61680000Y-103928000D01*
X60654756Y-103928000D01*
X60563160Y-104198857D01*
X60833736Y-104603861D01*
X60926553Y-104675000D01*
X45982125Y-104675000D01*
X46389058Y-104268777D01*
X46999305Y-102799140D01*
X46999516Y-102557143D01*
X60563160Y-102557143D01*
X60654756Y-102828000D01*
X61680000Y-102828000D01*
X61680000Y-101792736D01*
X62780000Y-101792736D01*
X62780000Y-102828000D01*
X63805244Y-102828000D01*
X63896840Y-102557143D01*
X63626264Y-102152139D01*
X63050863Y-101711125D01*
X62780000Y-101792736D01*
X61680000Y-101792736D01*
X61409137Y-101711125D01*
X60833736Y-102152139D01*
X60563160Y-102557143D01*
X46999516Y-102557143D01*
X47000693Y-101207841D01*
X46860301Y-100868064D01*
X84009761Y-100868064D01*
X84119154Y-101418017D01*
X84367195Y-101503119D01*
X85032315Y-100838000D01*
X86163685Y-100838000D01*
X86828805Y-101503119D01*
X87076846Y-101418017D01*
X87186239Y-100807936D01*
X87076846Y-100257983D01*
X86828805Y-100172881D01*
X86163685Y-100838000D01*
X85032315Y-100838000D01*
X84367195Y-100172881D01*
X84119154Y-100257983D01*
X84009761Y-100868064D01*
X46860301Y-100868064D01*
X46393013Y-99737142D01*
X45268777Y-98610942D01*
X44750000Y-98395527D01*
X44750000Y-97689782D01*
X44981288Y-97343635D01*
X45141141Y-96540000D01*
X44981288Y-95736365D01*
X44562760Y-95109994D01*
X44608000Y-95000775D01*
X44608000Y-94614500D01*
X44418500Y-94425000D01*
X43425000Y-94425000D01*
X43425000Y-94516354D01*
X43041141Y-94440000D01*
X42958859Y-94440000D01*
X42575000Y-94516354D01*
X42575000Y-94425000D01*
X41581500Y-94425000D01*
X41392000Y-94614500D01*
X41392000Y-95000775D01*
X41437240Y-95109994D01*
X41018712Y-95736365D01*
X40858859Y-96540000D01*
X41018712Y-97343635D01*
X41250000Y-97689782D01*
X41250000Y-98395079D01*
X40737142Y-98606987D01*
X39610942Y-99731223D01*
X39250000Y-100600467D01*
X39250000Y-92999225D01*
X41392000Y-92999225D01*
X41392000Y-93385500D01*
X41581500Y-93575000D01*
X42575000Y-93575000D01*
X42575000Y-92581500D01*
X43425000Y-92581500D01*
X43425000Y-93575000D01*
X44418500Y-93575000D01*
X44608000Y-93385500D01*
X44608000Y-92999225D01*
X44492602Y-92720628D01*
X44279373Y-92507399D01*
X44000776Y-92392000D01*
X43614500Y-92392000D01*
X43425000Y-92581500D01*
X42575000Y-92581500D01*
X42385500Y-92392000D01*
X41999224Y-92392000D01*
X41720627Y-92507399D01*
X41507398Y-92720628D01*
X41392000Y-92999225D01*
X39250000Y-92999225D01*
X39250000Y-87250000D01*
X49836000Y-87250000D01*
X49836000Y-90170000D01*
G36*
X45700000Y-68350000D02*
X62530498Y-68350000D01*
X62298844Y-68696694D01*
X62119961Y-69596000D01*
X62298844Y-70495306D01*
X62534684Y-70848265D01*
X61824019Y-70847645D01*
X61070285Y-71159081D01*
X60493108Y-71735252D01*
X60180357Y-72488441D01*
X60179645Y-73303981D01*
X60491081Y-74057715D01*
X61067252Y-74634892D01*
X61820441Y-74947643D01*
X62635981Y-74948355D01*
X63389715Y-74636919D01*
X63966892Y-74060748D01*
X64187846Y-73528631D01*
X70805335Y-73528631D01*
X71102162Y-73972912D01*
X71599365Y-74322694D01*
X71830000Y-74214307D01*
X71830000Y-73298000D01*
X72630000Y-73298000D01*
X72630000Y-74214307D01*
X72860635Y-74322694D01*
X73357838Y-73972912D01*
X73654665Y-73528631D01*
X73538737Y-73298000D01*
X72630000Y-73298000D01*
X71830000Y-73298000D01*
X70921263Y-73298000D01*
X70805335Y-73528631D01*
X64187846Y-73528631D01*
X64279643Y-73307559D01*
X64280355Y-72492019D01*
X64017563Y-71856012D01*
X64469961Y-71946000D01*
X64562039Y-71946000D01*
X65461345Y-71767117D01*
X66223740Y-71257701D01*
X66733156Y-70495306D01*
X66912039Y-69596000D01*
X66733156Y-68696694D01*
X66501502Y-68350000D01*
X69791078Y-68350000D01*
X69761512Y-68496000D01*
X69761512Y-70696000D01*
X69848673Y-71159222D01*
X70122437Y-71584663D01*
X70540153Y-71870076D01*
X70979998Y-71959148D01*
X70979998Y-72005939D01*
X70805335Y-72267369D01*
X70921263Y-72498000D01*
X71830000Y-72498000D01*
X71830000Y-72098000D01*
X72630000Y-72098000D01*
X72630000Y-72498000D01*
X73538737Y-72498000D01*
X73654665Y-72267369D01*
X73480002Y-72005939D01*
X73480002Y-71924576D01*
X73699222Y-71883327D01*
X74124663Y-71609563D01*
X74410076Y-71191847D01*
X74469363Y-70899079D01*
X74653499Y-71022115D01*
X75438000Y-71178162D01*
X76222501Y-71022115D01*
X76887569Y-70577731D01*
X77252903Y-70030970D01*
X77543012Y-70733086D01*
X78107940Y-71299001D01*
X78846432Y-71605650D01*
X79646060Y-71606348D01*
X80385086Y-71300988D01*
X80517736Y-71168569D01*
X80647940Y-71299001D01*
X81386432Y-71605650D01*
X82186060Y-71606348D01*
X82807798Y-71349450D01*
X83072153Y-71530076D01*
X83568000Y-71630488D01*
X85088000Y-71630488D01*
X85551222Y-71543327D01*
X85976663Y-71269563D01*
X86262076Y-70851847D01*
X86286001Y-70733705D01*
X86337499Y-70768115D01*
X87122000Y-70924162D01*
X87906501Y-70768115D01*
X88084914Y-70648903D01*
X88112497Y-70787574D01*
X88643590Y-71582412D01*
X89438428Y-72113505D01*
X90376002Y-72300000D01*
X90471998Y-72300000D01*
X91409572Y-72113505D01*
X92204410Y-71582412D01*
X92735503Y-70787574D01*
X92921998Y-69850000D01*
X92735503Y-68912426D01*
X92359703Y-68350000D01*
X103698770Y-68350000D01*
X103588202Y-68460375D01*
X103214427Y-69360527D01*
X103213576Y-70335197D01*
X103585780Y-71236000D01*
X104274375Y-71925798D01*
X105174527Y-72299573D01*
X106149197Y-72300424D01*
X107050000Y-71928220D01*
X107739798Y-71239625D01*
X107988996Y-70639489D01*
X108181499Y-70768115D01*
X108966000Y-70924162D01*
X109750501Y-70768115D01*
X110415569Y-70323731D01*
X110617000Y-70022268D01*
X110818431Y-70323731D01*
X111483499Y-70768115D01*
X112268000Y-70924162D01*
X113052501Y-70768115D01*
X113717569Y-70323731D01*
X113756589Y-70265333D01*
X113896437Y-70482663D01*
X114314153Y-70768076D01*
X114810000Y-70868488D01*
X116330000Y-70868488D01*
X116793222Y-70781327D01*
X117093307Y-70588227D01*
X117708432Y-70843650D01*
X118508060Y-70844348D01*
X119247086Y-70538988D01*
X119379736Y-70406569D01*
X119509940Y-70537001D01*
X119637843Y-70590111D01*
X119490285Y-70651081D01*
X118913108Y-71227252D01*
X118600357Y-71980441D01*
X118599645Y-72795981D01*
X118911081Y-73549715D01*
X119487252Y-74126892D01*
X120240441Y-74439643D01*
X121055981Y-74440355D01*
X121809715Y-74128919D01*
X122386892Y-73552748D01*
X122699643Y-72799559D01*
X122700355Y-71984019D01*
X122388919Y-71230285D01*
X121812748Y-70653108D01*
X121662194Y-70590593D01*
X121787086Y-70538988D01*
X122298266Y-70028700D01*
X122311081Y-70059715D01*
X122887252Y-70636892D01*
X123640441Y-70949643D01*
X124455981Y-70950355D01*
X125209715Y-70638919D01*
X125786892Y-70062748D01*
X125891464Y-69810910D01*
X125945885Y-70084501D01*
X126390269Y-70749569D01*
X126748059Y-70988637D01*
X126335885Y-71605499D01*
X126179838Y-72390000D01*
X126335885Y-73174501D01*
X126780269Y-73839569D01*
X127445337Y-74283953D01*
X128229838Y-74440000D01*
X128310162Y-74440000D01*
X129094663Y-74283953D01*
X129540000Y-73986388D01*
X129985337Y-74283953D01*
X130769838Y-74440000D01*
X130850162Y-74440000D01*
X131634663Y-74283953D01*
X132299731Y-73839569D01*
X132744115Y-73174501D01*
X132812186Y-72832283D01*
X134292655Y-71291998D01*
X134700000Y-71374488D01*
X136300000Y-71374488D01*
X136660106Y-71306730D01*
X136380357Y-71980441D01*
X136379645Y-72795981D01*
X136691081Y-73549715D01*
X137267252Y-74126892D01*
X138020441Y-74439643D01*
X138835981Y-74440355D01*
X139040182Y-74355981D01*
X141999645Y-74355981D01*
X142311081Y-75109715D01*
X142887252Y-75686892D01*
X143640441Y-75999643D01*
X144455981Y-76000355D01*
X145209715Y-75688919D01*
X145718716Y-75180805D01*
X148384881Y-75180805D01*
X148469983Y-75428846D01*
X149080064Y-75538239D01*
X149583996Y-75438000D01*
X178249838Y-75438000D01*
X178405885Y-76222501D01*
X178850269Y-76887569D01*
X179515337Y-77331953D01*
X180299838Y-77488000D01*
X180380162Y-77488000D01*
X181164663Y-77331953D01*
X181829731Y-76887569D01*
X182274115Y-76222501D01*
X182430162Y-75438000D01*
X182274115Y-74653499D01*
X181829731Y-73988431D01*
X181164663Y-73544047D01*
X180380162Y-73388000D01*
X180299838Y-73388000D01*
X179515337Y-73544047D01*
X178850269Y-73988431D01*
X178405885Y-74653499D01*
X178249838Y-75438000D01*
X149583996Y-75438000D01*
X149630017Y-75428846D01*
X149715119Y-75180805D01*
X149050000Y-74515685D01*
X148384881Y-75180805D01*
X145718716Y-75180805D01*
X145786892Y-75112748D01*
X146099643Y-74359559D01*
X146099974Y-73980064D01*
X147461761Y-73980064D01*
X147571154Y-74530017D01*
X147819195Y-74615119D01*
X148484315Y-73950000D01*
X147819195Y-73284881D01*
X147571154Y-73369983D01*
X147461761Y-73980064D01*
X146099974Y-73980064D01*
X146100355Y-73544019D01*
X145788919Y-72790285D01*
X145212748Y-72213108D01*
X144459559Y-71900357D01*
X143644019Y-71899645D01*
X142890285Y-72211081D01*
X142313108Y-72787252D01*
X142000357Y-73540441D01*
X141999645Y-74355981D01*
X139040182Y-74355981D01*
X139589715Y-74128919D01*
X140166892Y-73552748D01*
X140479643Y-72799559D01*
X140480355Y-71984019D01*
X140168919Y-71230285D01*
X139592748Y-70653108D01*
X139580018Y-70647822D01*
X139788663Y-70513563D01*
X140074076Y-70095847D01*
X140174488Y-69600000D01*
X140174488Y-68350000D01*
X141034097Y-68350000D01*
X140700889Y-68682627D01*
X140400342Y-69406424D01*
X140399658Y-70190138D01*
X140698941Y-70914458D01*
X141252627Y-71469111D01*
X141976424Y-71769658D01*
X142760138Y-71770342D01*
X143484458Y-71471059D01*
X143639785Y-71316002D01*
X143792627Y-71469111D01*
X144516424Y-71769658D01*
X145300138Y-71770342D01*
X146024458Y-71471059D01*
X146179785Y-71316002D01*
X146332627Y-71469111D01*
X147056424Y-71769658D01*
X147840138Y-71770342D01*
X148564458Y-71471059D01*
X149119111Y-70917373D01*
X149419658Y-70193576D01*
X149420342Y-69409862D01*
X149121059Y-68685542D01*
X148786102Y-68350000D01*
X149840609Y-68350000D01*
X149775000Y-68679838D01*
X149775000Y-68760162D01*
X149931047Y-69544663D01*
X150298288Y-70094279D01*
X149765269Y-70450431D01*
X149320885Y-71115499D01*
X149164838Y-71900000D01*
X149192610Y-72039620D01*
X148833357Y-72398874D01*
X148469983Y-72471154D01*
X148384881Y-72719195D01*
X149050000Y-73384315D01*
X149332843Y-73101472D01*
X149898528Y-73667157D01*
X149615685Y-73950000D01*
X150280805Y-74615119D01*
X150528846Y-74530017D01*
X150592446Y-74175323D01*
X150883648Y-73884122D01*
X151214838Y-73950000D01*
X151295162Y-73950000D01*
X152079663Y-73793953D01*
X152744731Y-73349569D01*
X153189115Y-72684501D01*
X153345162Y-71900000D01*
X153189115Y-71115499D01*
X152797081Y-70528778D01*
X153274569Y-70209731D01*
X153372665Y-70062920D01*
X153980337Y-70468953D01*
X154764838Y-70625000D01*
X154845162Y-70625000D01*
X155078677Y-70578551D01*
X156837698Y-72337572D01*
X157136081Y-73059715D01*
X157712252Y-73636892D01*
X158465441Y-73949643D01*
X159280981Y-73950355D01*
X160034715Y-73638919D01*
X160109282Y-73564482D01*
X160313081Y-74057715D01*
X160889252Y-74634892D01*
X161642441Y-74947643D01*
X162457981Y-74948355D01*
X163211715Y-74636919D01*
X163788892Y-74060748D01*
X164101643Y-73307559D01*
X164102355Y-72492019D01*
X163802000Y-71765103D01*
X163802000Y-70682359D01*
X164190432Y-70843650D01*
X164990060Y-70844348D01*
X165729086Y-70538988D01*
X165861736Y-70406569D01*
X165991940Y-70537001D01*
X166730432Y-70843650D01*
X167530060Y-70844348D01*
X168151798Y-70587450D01*
X168416153Y-70768076D01*
X168912000Y-70868488D01*
X169528838Y-70868488D01*
X168847337Y-71004047D01*
X168182269Y-71448431D01*
X167737885Y-72113499D01*
X167581838Y-72898000D01*
X167737885Y-73682501D01*
X168182269Y-74347569D01*
X168847337Y-74791953D01*
X169631838Y-74948000D01*
X169712162Y-74948000D01*
X170496663Y-74791953D01*
X171161731Y-74347569D01*
X171474244Y-73879860D01*
X171599428Y-73963505D01*
X172537002Y-74150000D01*
X172632998Y-74150000D01*
X173570572Y-73963505D01*
X174365410Y-73432412D01*
X174896503Y-72637574D01*
X175082998Y-71700000D01*
X174896503Y-70762426D01*
X174365410Y-69967588D01*
X173570572Y-69436495D01*
X172632998Y-69250000D01*
X172537002Y-69250000D01*
X171706488Y-69415199D01*
X171706488Y-68350000D01*
X187006339Y-68350000D01*
X186875357Y-68665441D01*
X186874679Y-69441761D01*
X186439000Y-69621780D01*
X185749202Y-70310375D01*
X185375427Y-71210527D01*
X185374576Y-72185197D01*
X185746780Y-73086000D01*
X186435375Y-73775798D01*
X186638812Y-73860272D01*
X186223108Y-74275252D01*
X185910357Y-75028441D01*
X185909645Y-75843981D01*
X186221081Y-76597715D01*
X186797252Y-77174892D01*
X187550441Y-77487643D01*
X188365981Y-77488355D01*
X189119715Y-77176919D01*
X189696892Y-76600748D01*
X190009643Y-75847559D01*
X190009770Y-75702596D01*
X190638441Y-75963643D01*
X191453981Y-75964355D01*
X192020938Y-75730094D01*
X192252153Y-75888076D01*
X192748000Y-75988488D01*
X194348000Y-75988488D01*
X194811222Y-75901327D01*
X195236663Y-75627563D01*
X195522076Y-75209847D01*
X195622488Y-74714000D01*
X195622488Y-74489875D01*
X195767252Y-74634892D01*
X196520441Y-74947643D01*
X197335981Y-74948355D01*
X198089715Y-74636919D01*
X198666892Y-74060748D01*
X198979643Y-73307559D01*
X198980355Y-72492019D01*
X198668919Y-71738285D01*
X198092748Y-71161108D01*
X197339559Y-70848357D01*
X196524019Y-70847645D01*
X196332301Y-70926861D01*
X196430488Y-70442000D01*
X196430488Y-68250000D01*
X199587598Y-68250000D01*
X199458844Y-68442694D01*
X199279961Y-69342000D01*
X199458844Y-70241306D01*
X199968260Y-71003701D01*
X200541944Y-71387024D01*
X200193108Y-71735252D01*
X199880357Y-72488441D01*
X199879645Y-73303981D01*
X200191081Y-74057715D01*
X200723601Y-74591165D01*
X200566778Y-74620673D01*
X200332550Y-74771395D01*
X199819538Y-74558374D01*
X198964215Y-74557628D01*
X198173714Y-74884256D01*
X197568381Y-75488533D01*
X197240374Y-76278462D01*
X197239628Y-77133785D01*
X197566256Y-77924286D01*
X198170533Y-78529619D01*
X198960462Y-78857626D01*
X199815785Y-78858372D01*
X200007953Y-78778970D01*
X199685108Y-79101252D01*
X199372357Y-79854441D01*
X199371645Y-80669981D01*
X199683081Y-81423715D01*
X200259252Y-82000892D01*
X201012441Y-82313643D01*
X201827981Y-82314355D01*
X202068910Y-82214805D01*
X209299541Y-82214805D01*
X209702129Y-83189144D01*
X210446935Y-83935251D01*
X211420570Y-84339539D01*
X212474805Y-84340459D01*
X213449144Y-83937871D01*
X214195251Y-83193065D01*
X214599539Y-82219430D01*
X214600459Y-81165195D01*
X214197871Y-80190856D01*
X213453065Y-79444749D01*
X212479430Y-79040461D01*
X211425195Y-79039541D01*
X210450856Y-79442129D01*
X209704749Y-80186935D01*
X209300461Y-81160570D01*
X209299541Y-82214805D01*
X202068910Y-82214805D01*
X202581715Y-82002919D01*
X203158892Y-81426748D01*
X203471643Y-80673559D01*
X203472355Y-79858019D01*
X203160919Y-79104285D01*
X202922192Y-78865141D01*
X203293222Y-78795327D01*
X203718663Y-78521563D01*
X204004076Y-78103847D01*
X204035359Y-77949365D01*
X229715306Y-77949365D01*
X229823693Y-78180000D01*
X230740000Y-78180000D01*
X230740000Y-77271263D01*
X231540000Y-77271263D01*
X231540000Y-78180000D01*
X232456307Y-78180000D01*
X232564694Y-77949365D01*
X232214912Y-77452162D01*
X232120709Y-77389224D01*
X239596000Y-77389224D01*
X239596000Y-77950500D01*
X239785500Y-78140000D01*
X240954000Y-78140000D01*
X240954000Y-76971500D01*
X242154000Y-76971500D01*
X242154000Y-78140000D01*
X243322500Y-78140000D01*
X243512000Y-77950500D01*
X243512000Y-77389224D01*
X243396601Y-77110627D01*
X243183372Y-76897398D01*
X242904775Y-76782000D01*
X242343500Y-76782000D01*
X242154000Y-76971500D01*
X240954000Y-76971500D01*
X240764500Y-76782000D01*
X240203225Y-76782000D01*
X239924628Y-76897398D01*
X239711399Y-77110627D01*
X239596000Y-77389224D01*
X232120709Y-77389224D01*
X231770631Y-77155335D01*
X231540000Y-77271263D01*
X230740000Y-77271263D01*
X230509369Y-77155335D01*
X230065088Y-77452162D01*
X229715306Y-77949365D01*
X204035359Y-77949365D01*
X204104488Y-77608000D01*
X204104488Y-75808000D01*
X204017327Y-75344778D01*
X203743563Y-74919337D01*
X203325847Y-74633924D01*
X203132032Y-74594675D01*
X203666892Y-74060748D01*
X203979643Y-73307559D01*
X203980355Y-72492019D01*
X203668919Y-71738285D01*
X203114921Y-71183320D01*
X203383740Y-71003701D01*
X203893156Y-70241306D01*
X204072039Y-69342000D01*
X203893156Y-68442694D01*
X203764402Y-68250000D01*
X208700000Y-68250000D01*
X208700000Y-70260000D01*
X208947392Y-71503721D01*
X209651903Y-72558097D01*
X210706279Y-73262608D01*
X211950000Y-73510000D01*
X213193721Y-73262608D01*
X214248097Y-72558097D01*
X214952608Y-71503721D01*
X215200000Y-70260000D01*
X215200000Y-68250000D01*
X220262020Y-68250000D01*
X220471595Y-68459575D01*
X220308427Y-68852527D01*
X220307576Y-69827197D01*
X220679780Y-70728000D01*
X221368375Y-71417798D01*
X222268527Y-71791573D01*
X223243197Y-71792424D01*
X224144000Y-71420220D01*
X224833798Y-70731625D01*
X224834356Y-70730281D01*
X225209010Y-71290990D01*
X225938962Y-71778729D01*
X226800000Y-71950000D01*
X227661038Y-71778729D01*
X227741154Y-71725197D01*
X239103576Y-71725197D01*
X239475780Y-72626000D01*
X240164375Y-73315798D01*
X241064527Y-73689573D01*
X242039197Y-73690424D01*
X242940000Y-73318220D01*
X243629798Y-72629625D01*
X244003573Y-71729473D01*
X244004424Y-70754803D01*
X243632220Y-69854000D01*
X242943625Y-69164202D01*
X242043473Y-68790427D01*
X241068803Y-68789576D01*
X240168000Y-69161780D01*
X239478202Y-69850375D01*
X239104427Y-70750527D01*
X239103576Y-71725197D01*
X227741154Y-71725197D01*
X228390990Y-71290990D01*
X228878729Y-70561038D01*
X229050000Y-69700000D01*
X229050000Y-68250000D01*
X229090287Y-68250000D01*
X229089645Y-68985981D01*
X229401081Y-69739715D01*
X229977252Y-70316892D01*
X230730441Y-70629643D01*
X231545981Y-70630355D01*
X232299715Y-70318919D01*
X232876892Y-69742748D01*
X233189643Y-68989559D01*
X233190289Y-68250000D01*
X254675000Y-68250000D01*
X254675000Y-100419603D01*
X254393013Y-99737142D01*
X253268777Y-98610942D01*
X252500000Y-98291718D01*
X252500000Y-96939782D01*
X252731288Y-96593635D01*
X252891141Y-95790000D01*
X252731288Y-94986365D01*
X252312760Y-94359994D01*
X252358000Y-94250775D01*
X252358000Y-93864500D01*
X252168500Y-93675000D01*
X251175000Y-93675000D01*
X251175000Y-93766354D01*
X250791141Y-93690000D01*
X250708859Y-93690000D01*
X250325000Y-93766354D01*
X250325000Y-93675000D01*
X249331500Y-93675000D01*
X249142000Y-93864500D01*
X249142000Y-94250775D01*
X249187240Y-94359994D01*
X248768712Y-94986365D01*
X248608859Y-95790000D01*
X248768712Y-96593635D01*
X249000000Y-96939782D01*
X249000000Y-98498376D01*
X248737142Y-98606987D01*
X247610942Y-99731223D01*
X247000695Y-101200860D01*
X246999307Y-102792159D01*
X247606987Y-104262858D01*
X248018410Y-104675000D01*
X229734999Y-104675000D01*
X229774488Y-104480000D01*
X229774488Y-101480000D01*
X229687327Y-101016778D01*
X229413563Y-100591337D01*
X229192123Y-100440033D01*
X229388663Y-100313563D01*
X229674076Y-99895847D01*
X229774488Y-99400000D01*
X229774488Y-96400000D01*
X229687327Y-95936778D01*
X229413563Y-95511337D01*
X228995847Y-95225924D01*
X228500000Y-95125512D01*
X225500000Y-95125512D01*
X225036778Y-95212673D01*
X224611337Y-95486437D01*
X224325924Y-95904153D01*
X224225512Y-96400000D01*
X224225512Y-99400000D01*
X224312673Y-99863222D01*
X224586437Y-100288663D01*
X224807877Y-100439967D01*
X224611337Y-100566437D01*
X224325924Y-100984153D01*
X224225512Y-101480000D01*
X224225512Y-104480000D01*
X224262204Y-104675000D01*
X222554340Y-104675000D01*
X221920000Y-104040660D01*
X221285660Y-104675000D01*
X198274488Y-104675000D01*
X198274488Y-103969369D01*
X202395335Y-103969369D01*
X202511263Y-104200000D01*
X203420000Y-104200000D01*
X203420000Y-103348500D01*
X203484807Y-103283693D01*
X204220000Y-103283693D01*
X204220000Y-104200000D01*
X205128737Y-104200000D01*
X205244665Y-103969369D01*
X204947838Y-103525088D01*
X204710328Y-103358000D01*
X204950776Y-103358000D01*
X205229373Y-103242601D01*
X205270825Y-103201149D01*
X219628408Y-103201149D01*
X219718216Y-103652639D01*
X219993039Y-103846301D01*
X220859340Y-102980000D01*
X222980660Y-102980000D01*
X223846961Y-103846301D01*
X224121784Y-103652639D01*
X224211592Y-102758851D01*
X224121784Y-102307361D01*
X223846961Y-102113699D01*
X222980660Y-102980000D01*
X220859340Y-102980000D01*
X219993039Y-102113699D01*
X219718216Y-102307361D01*
X219628408Y-103201149D01*
X205270825Y-103201149D01*
X205442602Y-103029372D01*
X205558000Y-102750775D01*
X205558000Y-102389500D01*
X205368500Y-102200000D01*
X204400000Y-102200000D01*
X204400000Y-103168500D01*
X204420818Y-103189318D01*
X204220000Y-103283693D01*
X203484807Y-103283693D01*
X203600000Y-103168500D01*
X203600000Y-102200000D01*
X202631500Y-102200000D01*
X202442000Y-102389500D01*
X202442000Y-102750775D01*
X202557398Y-103029372D01*
X202770627Y-103242601D01*
X202973977Y-103326831D01*
X202692162Y-103525088D01*
X202395335Y-103969369D01*
X198274488Y-103969369D01*
X198274488Y-103800000D01*
X198187327Y-103336778D01*
X198002932Y-103050220D01*
X198314115Y-102584501D01*
X198470162Y-101800000D01*
X198314115Y-101015499D01*
X197901541Y-100398038D01*
X197936892Y-100362748D01*
X198157846Y-99830631D01*
X202395335Y-99830631D01*
X202692162Y-100274912D01*
X202795040Y-100347287D01*
X202770627Y-100357399D01*
X202557398Y-100570628D01*
X202442000Y-100849225D01*
X202442000Y-101210500D01*
X202631500Y-101400000D01*
X203600000Y-101400000D01*
X203600000Y-100431500D01*
X203420000Y-100251500D01*
X203420000Y-99600000D01*
X204220000Y-99600000D01*
X204220000Y-100516307D01*
X204400000Y-100600898D01*
X204400000Y-101400000D01*
X205368500Y-101400000D01*
X205558000Y-101210500D01*
X205558000Y-101053039D01*
X221053699Y-101053039D01*
X221920000Y-101919340D01*
X222786301Y-101053039D01*
X222592639Y-100778216D01*
X221698851Y-100688408D01*
X221247361Y-100778216D01*
X221053699Y-101053039D01*
X205558000Y-101053039D01*
X205558000Y-100849225D01*
X205442602Y-100570628D01*
X205229373Y-100357399D01*
X204965697Y-100248181D01*
X205244665Y-99830631D01*
X205242821Y-99826961D01*
X221053699Y-99826961D01*
X221247361Y-100101784D01*
X222141149Y-100191592D01*
X222592639Y-100101784D01*
X222786301Y-99826961D01*
X221920000Y-98960660D01*
X221053699Y-99826961D01*
X205242821Y-99826961D01*
X205128737Y-99600000D01*
X204220000Y-99600000D01*
X203420000Y-99600000D01*
X202511263Y-99600000D01*
X202395335Y-99830631D01*
X198157846Y-99830631D01*
X198249643Y-99609559D01*
X198250355Y-98794019D01*
X198157532Y-98569369D01*
X202395335Y-98569369D01*
X202511263Y-98800000D01*
X203420000Y-98800000D01*
X203420000Y-97883693D01*
X204220000Y-97883693D01*
X204220000Y-98800000D01*
X205128737Y-98800000D01*
X205244665Y-98569369D01*
X204947838Y-98125088D01*
X204942239Y-98121149D01*
X219628408Y-98121149D01*
X219718216Y-98572639D01*
X219993039Y-98766301D01*
X220859340Y-97900000D01*
X222980660Y-97900000D01*
X223846961Y-98766301D01*
X224121784Y-98572639D01*
X224211592Y-97678851D01*
X224121784Y-97227361D01*
X223846961Y-97033699D01*
X222980660Y-97900000D01*
X220859340Y-97900000D01*
X219993039Y-97033699D01*
X219718216Y-97227361D01*
X219628408Y-98121149D01*
X204942239Y-98121149D01*
X204450635Y-97775306D01*
X204220000Y-97883693D01*
X203420000Y-97883693D01*
X203189365Y-97775306D01*
X202692162Y-98125088D01*
X202395335Y-98569369D01*
X198157532Y-98569369D01*
X197938919Y-98040285D01*
X197362748Y-97463108D01*
X196609559Y-97150357D01*
X195794019Y-97149645D01*
X195040285Y-97461081D01*
X194463108Y-98037252D01*
X194150357Y-98790441D01*
X194149645Y-99605981D01*
X194461081Y-100359715D01*
X194714465Y-100613541D01*
X194445885Y-101015499D01*
X194289838Y-101800000D01*
X194445885Y-102584501D01*
X194606651Y-102825104D01*
X194511337Y-102886437D01*
X194337158Y-103141356D01*
X194249569Y-103010269D01*
X193584501Y-102565885D01*
X192800000Y-102409838D01*
X192015499Y-102565885D01*
X191350431Y-103010269D01*
X190906047Y-103675337D01*
X190800779Y-104204553D01*
X190663505Y-103514428D01*
X190132412Y-102719590D01*
X189337574Y-102188497D01*
X189250000Y-102171077D01*
X189250000Y-96734805D01*
X195930881Y-96734805D01*
X196015983Y-96982846D01*
X196626064Y-97092239D01*
X197176017Y-96982846D01*
X197261119Y-96734805D01*
X196596000Y-96069685D01*
X195930881Y-96734805D01*
X189250000Y-96734805D01*
X189250000Y-95534064D01*
X195007761Y-95534064D01*
X195117154Y-96084017D01*
X195365195Y-96169119D01*
X196030315Y-95504000D01*
X197161685Y-95504000D01*
X197826805Y-96169119D01*
X198074846Y-96084017D01*
X198178848Y-95504000D01*
X207205838Y-95504000D01*
X207361885Y-96288501D01*
X207806269Y-96953569D01*
X208471337Y-97397953D01*
X209255838Y-97554000D01*
X209336162Y-97554000D01*
X210120663Y-97397953D01*
X210785731Y-96953569D01*
X211230115Y-96288501D01*
X211292864Y-95973039D01*
X221053699Y-95973039D01*
X221920000Y-96839340D01*
X222786301Y-95973039D01*
X222592639Y-95698216D01*
X221698851Y-95608408D01*
X221247361Y-95698216D01*
X221053699Y-95973039D01*
X211292864Y-95973039D01*
X211386162Y-95504000D01*
X211230115Y-94719499D01*
X210785731Y-94054431D01*
X210120663Y-93610047D01*
X209336162Y-93454000D01*
X209255838Y-93454000D01*
X208471337Y-93610047D01*
X207806269Y-94054431D01*
X207361885Y-94719499D01*
X207205838Y-95504000D01*
X198178848Y-95504000D01*
X198184239Y-95473936D01*
X198074846Y-94923983D01*
X197826805Y-94838881D01*
X197161685Y-95504000D01*
X196030315Y-95504000D01*
X195365195Y-94838881D01*
X195117154Y-94923983D01*
X195007761Y-95534064D01*
X189250000Y-95534064D01*
X189250000Y-94273195D01*
X195930881Y-94273195D01*
X196596000Y-94938315D01*
X197261119Y-94273195D01*
X197176017Y-94025154D01*
X196565936Y-93915761D01*
X196015983Y-94025154D01*
X195930881Y-94273195D01*
X189250000Y-94273195D01*
X189250000Y-94099691D01*
X189786000Y-93878220D01*
X190475798Y-93189625D01*
X190816777Y-92368454D01*
X191061081Y-92959715D01*
X191637252Y-93536892D01*
X192390441Y-93849643D01*
X193205981Y-93850355D01*
X193959715Y-93538919D01*
X194536892Y-92962748D01*
X194552647Y-92924805D01*
X230728881Y-92924805D01*
X230813983Y-93172846D01*
X231424064Y-93282239D01*
X231974017Y-93172846D01*
X232059119Y-92924805D01*
X231394000Y-92259685D01*
X230728881Y-92924805D01*
X194552647Y-92924805D01*
X194849643Y-92209559D01*
X194850066Y-91724064D01*
X229805761Y-91724064D01*
X229915154Y-92274017D01*
X230163195Y-92359119D01*
X230828315Y-91694000D01*
X231959685Y-91694000D01*
X232624805Y-92359119D01*
X232872846Y-92274017D01*
X232982239Y-91663936D01*
X232872846Y-91113983D01*
X232624805Y-91028881D01*
X231959685Y-91694000D01*
X230828315Y-91694000D01*
X230163195Y-91028881D01*
X229915154Y-91113983D01*
X229805761Y-91724064D01*
X194850066Y-91724064D01*
X194850355Y-91394019D01*
X194538919Y-90640285D01*
X194362138Y-90463195D01*
X230728881Y-90463195D01*
X231394000Y-91128315D01*
X232059119Y-90463195D01*
X231974017Y-90215154D01*
X231363936Y-90105761D01*
X230813983Y-90215154D01*
X230728881Y-90463195D01*
X194362138Y-90463195D01*
X193962748Y-90063108D01*
X193209559Y-89750357D01*
X192394019Y-89749645D01*
X191640285Y-90061081D01*
X191063108Y-90637252D01*
X190816179Y-91231924D01*
X190478220Y-90414000D01*
X189789625Y-89724202D01*
X189250000Y-89500131D01*
X189250000Y-88544609D01*
X234769523Y-88544609D01*
X235187304Y-89555715D01*
X235960216Y-90329977D01*
X236466003Y-90539998D01*
X235964285Y-90747304D01*
X235190023Y-91520216D01*
X234770478Y-92530591D01*
X234769523Y-93624609D01*
X235187304Y-94635715D01*
X235960216Y-95409977D01*
X236970591Y-95829522D01*
X238064609Y-95830477D01*
X239075715Y-95412696D01*
X239849977Y-94639784D01*
X240107541Y-94019500D01*
X240342000Y-94019500D01*
X240342000Y-94730775D01*
X240457398Y-95009372D01*
X240670627Y-95222601D01*
X240949224Y-95338000D01*
X241660500Y-95338000D01*
X241850000Y-95148500D01*
X241850000Y-93830000D01*
X243350000Y-93830000D01*
X243350000Y-95148500D01*
X243539500Y-95338000D01*
X244250776Y-95338000D01*
X244529373Y-95222601D01*
X244742602Y-95009372D01*
X244858000Y-94730775D01*
X244858000Y-94019500D01*
X244668500Y-93830000D01*
X243350000Y-93830000D01*
X241850000Y-93830000D01*
X240531500Y-93830000D01*
X240342000Y-94019500D01*
X240107541Y-94019500D01*
X240269522Y-93629409D01*
X240270477Y-92535391D01*
X239852696Y-91524285D01*
X239757802Y-91429225D01*
X240342000Y-91429225D01*
X240342000Y-92140500D01*
X240531500Y-92330000D01*
X241850000Y-92330000D01*
X241850000Y-91011500D01*
X243350000Y-91011500D01*
X243350000Y-92330000D01*
X244668500Y-92330000D01*
X244749275Y-92249225D01*
X249142000Y-92249225D01*
X249142000Y-92635500D01*
X249331500Y-92825000D01*
X250325000Y-92825000D01*
X250325000Y-91831500D01*
X251175000Y-91831500D01*
X251175000Y-92825000D01*
X252168500Y-92825000D01*
X252358000Y-92635500D01*
X252358000Y-92249225D01*
X252242602Y-91970628D01*
X252029373Y-91757399D01*
X251750776Y-91642000D01*
X251364500Y-91642000D01*
X251175000Y-91831500D01*
X250325000Y-91831500D01*
X250135500Y-91642000D01*
X249749224Y-91642000D01*
X249470627Y-91757399D01*
X249257398Y-91970628D01*
X249142000Y-92249225D01*
X244749275Y-92249225D01*
X244858000Y-92140500D01*
X244858000Y-91429225D01*
X244742602Y-91150628D01*
X244529373Y-90937399D01*
X244250776Y-90822000D01*
X243539500Y-90822000D01*
X243350000Y-91011500D01*
X241850000Y-91011500D01*
X241660500Y-90822000D01*
X240949224Y-90822000D01*
X240670627Y-90937399D01*
X240457398Y-91150628D01*
X240342000Y-91429225D01*
X239757802Y-91429225D01*
X239079784Y-90750023D01*
X238573997Y-90540002D01*
X239075715Y-90332696D01*
X239849977Y-89559784D01*
X240107541Y-88939500D01*
X240342000Y-88939500D01*
X240342000Y-89650775D01*
X240457398Y-89929372D01*
X240670627Y-90142601D01*
X240949224Y-90258000D01*
X241660500Y-90258000D01*
X241850000Y-90068500D01*
X241850000Y-88750000D01*
X243350000Y-88750000D01*
X243350000Y-90068500D01*
X243539500Y-90258000D01*
X244250776Y-90258000D01*
X244529373Y-90142601D01*
X244742602Y-89929372D01*
X244858000Y-89650775D01*
X244858000Y-88939500D01*
X244668500Y-88750000D01*
X243350000Y-88750000D01*
X241850000Y-88750000D01*
X240531500Y-88750000D01*
X240342000Y-88939500D01*
X240107541Y-88939500D01*
X240269522Y-88549409D01*
X240270477Y-87455391D01*
X239852696Y-86444285D01*
X239757802Y-86349225D01*
X240342000Y-86349225D01*
X240342000Y-87060500D01*
X240531500Y-87250000D01*
X241850000Y-87250000D01*
X241850000Y-85931500D01*
X243350000Y-85931500D01*
X243350000Y-87250000D01*
X244668500Y-87250000D01*
X244858000Y-87060500D01*
X244858000Y-86349225D01*
X244742602Y-86070628D01*
X244529373Y-85857399D01*
X244250776Y-85742000D01*
X243539500Y-85742000D01*
X243350000Y-85931500D01*
X241850000Y-85931500D01*
X241660500Y-85742000D01*
X240949224Y-85742000D01*
X240670627Y-85857399D01*
X240457398Y-86070628D01*
X240342000Y-86349225D01*
X239757802Y-86349225D01*
X239079784Y-85670023D01*
X238069409Y-85250478D01*
X236975391Y-85249523D01*
X235964285Y-85667304D01*
X235190023Y-86440216D01*
X234770478Y-87450591D01*
X234769523Y-88544609D01*
X189250000Y-88544609D01*
X189250000Y-86000000D01*
X189230304Y-85902736D01*
X189174318Y-85820798D01*
X189090864Y-85767097D01*
X189000000Y-85750000D01*
X187634488Y-85750000D01*
X187634488Y-85240000D01*
X187547327Y-84776778D01*
X187391105Y-84534002D01*
X220308000Y-84534002D01*
X220308000Y-84629998D01*
X220494495Y-85567572D01*
X221025588Y-86362410D01*
X221820426Y-86893503D01*
X222758000Y-87079998D01*
X223695574Y-86893503D01*
X224490412Y-86362410D01*
X225021505Y-85567572D01*
X225208000Y-84629998D01*
X225208000Y-84534002D01*
X225021505Y-83596428D01*
X224493346Y-82805981D01*
X224749645Y-82805981D01*
X225061081Y-83559715D01*
X225637252Y-84136892D01*
X226390441Y-84449643D01*
X227205981Y-84450355D01*
X227959715Y-84138919D01*
X228536892Y-83562748D01*
X228849643Y-82809559D01*
X228850355Y-81994019D01*
X228709796Y-81653838D01*
X229344000Y-81653838D01*
X229344000Y-81734162D01*
X229500047Y-82518663D01*
X229944431Y-83183731D01*
X230609499Y-83628115D01*
X231394000Y-83784162D01*
X232178501Y-83628115D01*
X232843569Y-83183731D01*
X233287953Y-82518663D01*
X233444000Y-81734162D01*
X233444000Y-81653838D01*
X233287953Y-80869337D01*
X232843569Y-80204269D01*
X232390002Y-79901205D01*
X232390002Y-79529500D01*
X239596000Y-79529500D01*
X239596000Y-80090776D01*
X239711399Y-80369373D01*
X239924628Y-80582602D01*
X240203225Y-80698000D01*
X240764500Y-80698000D01*
X240954000Y-80508500D01*
X240954000Y-79340000D01*
X242154000Y-79340000D01*
X242154000Y-80508500D01*
X242343500Y-80698000D01*
X242904775Y-80698000D01*
X243183372Y-80582602D01*
X243396601Y-80369373D01*
X243512000Y-80090776D01*
X243512000Y-79529500D01*
X243322500Y-79340000D01*
X242154000Y-79340000D01*
X240954000Y-79340000D01*
X239785500Y-79340000D01*
X239596000Y-79529500D01*
X232390002Y-79529500D01*
X232390002Y-79458954D01*
X232564694Y-79210635D01*
X232456307Y-78980000D01*
X231540000Y-78980000D01*
X231540000Y-79380000D01*
X230740000Y-79380000D01*
X230740000Y-78980000D01*
X229823693Y-78980000D01*
X229715306Y-79210635D01*
X229889998Y-79458954D01*
X229889998Y-80138000D01*
X230043610Y-80138000D01*
X229944431Y-80204269D01*
X229500047Y-80869337D01*
X229344000Y-81653838D01*
X228709796Y-81653838D01*
X228538919Y-81240285D01*
X227962748Y-80663108D01*
X227209559Y-80350357D01*
X226394019Y-80349645D01*
X225640285Y-80661081D01*
X225063108Y-81237252D01*
X224750357Y-81990441D01*
X224749645Y-82805981D01*
X224493346Y-82805981D01*
X224490412Y-82801590D01*
X223695574Y-82270497D01*
X222758000Y-82084002D01*
X221820426Y-82270497D01*
X221025588Y-82801590D01*
X220494495Y-83596428D01*
X220308000Y-84534002D01*
X187391105Y-84534002D01*
X187273563Y-84351337D01*
X186855847Y-84065924D01*
X186360000Y-83965512D01*
X184840000Y-83965512D01*
X184376778Y-84052673D01*
X184076693Y-84245773D01*
X183461568Y-83990350D01*
X182661940Y-83989652D01*
X181922914Y-84295012D01*
X181790264Y-84427431D01*
X181660060Y-84296999D01*
X180921568Y-83990350D01*
X180121940Y-83989652D01*
X179382914Y-84295012D01*
X178816999Y-84859940D01*
X178510350Y-85598432D01*
X178510218Y-85750000D01*
X151730325Y-85750000D01*
X151604115Y-85115499D01*
X151159731Y-84450431D01*
X150494663Y-84006047D01*
X149710162Y-83850000D01*
X149629838Y-83850000D01*
X148845337Y-84006047D01*
X148180269Y-84450431D01*
X147735885Y-85115499D01*
X147609675Y-85750000D01*
X144100132Y-85750000D01*
X144100355Y-85494019D01*
X143788919Y-84740285D01*
X143212748Y-84163108D01*
X142459559Y-83850357D01*
X141644019Y-83849645D01*
X140890285Y-84161081D01*
X140313108Y-84737252D01*
X140000357Y-85490441D01*
X140000130Y-85750000D01*
X138660105Y-85750000D01*
X138251559Y-85580357D01*
X137436019Y-85579645D01*
X137023728Y-85750000D01*
X133660105Y-85750000D01*
X133251559Y-85580357D01*
X132436019Y-85579645D01*
X132023728Y-85750000D01*
X121982181Y-85750000D01*
X122191643Y-85245559D01*
X122192355Y-84430019D01*
X121880919Y-83676285D01*
X121304748Y-83099108D01*
X120551559Y-82786357D01*
X119736019Y-82785645D01*
X118982285Y-83097081D01*
X118405108Y-83673252D01*
X118092357Y-84426441D01*
X118091645Y-85241981D01*
X118301554Y-85750000D01*
X104952208Y-85750000D01*
X105039608Y-85539516D01*
X105040390Y-84644411D01*
X104698569Y-83817142D01*
X104066187Y-83183655D01*
X103239516Y-82840392D01*
X102344411Y-82839610D01*
X101517142Y-83181431D01*
X100883655Y-83813813D01*
X100540392Y-84640484D01*
X100539610Y-85535589D01*
X100628203Y-85750000D01*
X100064488Y-85750000D01*
X100064488Y-84090000D01*
X99977327Y-83626778D01*
X99703563Y-83201337D01*
X99285847Y-82915924D01*
X98790000Y-82815512D01*
X96790000Y-82815512D01*
X96326778Y-82902673D01*
X95901337Y-83176437D01*
X95615924Y-83594153D01*
X95515512Y-84090000D01*
X95515512Y-85750000D01*
X90172488Y-85750000D01*
X90172488Y-84330000D01*
X90085327Y-83866778D01*
X89811563Y-83441337D01*
X89393847Y-83155924D01*
X88898000Y-83055512D01*
X87378000Y-83055512D01*
X86914778Y-83142673D01*
X86614693Y-83335773D01*
X85999568Y-83080350D01*
X85199940Y-83079652D01*
X84460914Y-83385012D01*
X84328264Y-83517431D01*
X84198060Y-83386999D01*
X83459568Y-83080350D01*
X82659940Y-83079652D01*
X81920914Y-83385012D01*
X81354999Y-83949940D01*
X81048350Y-84688432D01*
X81047652Y-85488060D01*
X81098037Y-85610000D01*
X80700473Y-85610000D01*
X80749650Y-85491568D01*
X80750348Y-84691940D01*
X80444988Y-83952914D01*
X79880060Y-83386999D01*
X79141568Y-83080350D01*
X78341940Y-83079652D01*
X77711851Y-83340000D01*
X77226874Y-83340000D01*
X76601568Y-83080350D01*
X75801940Y-83079652D01*
X75180202Y-83336550D01*
X74915847Y-83155924D01*
X74420000Y-83055512D01*
X72900000Y-83055512D01*
X72436778Y-83142673D01*
X72011337Y-83416437D01*
X71725924Y-83834153D01*
X71625512Y-84330000D01*
X71625512Y-85750000D01*
X71009313Y-85750000D01*
X71030000Y-85645998D01*
X71030000Y-85550002D01*
X70843505Y-84612428D01*
X70312412Y-83817590D01*
X69517574Y-83286497D01*
X68580000Y-83100002D01*
X67642426Y-83286497D01*
X66847588Y-83817590D01*
X66316495Y-84612428D01*
X66130000Y-85550002D01*
X66130000Y-85645998D01*
X66150687Y-85750000D01*
X39250000Y-85750000D01*
X39250000Y-80757407D01*
X52559121Y-80757407D01*
X52706232Y-81021089D01*
X53478928Y-81119518D01*
X53973768Y-81021089D01*
X54120879Y-80757407D01*
X53340000Y-79976528D01*
X52559121Y-80757407D01*
X39250000Y-80757407D01*
X39250000Y-79266928D01*
X51348482Y-79266928D01*
X51446911Y-79761768D01*
X51710593Y-79908879D01*
X52491472Y-79128000D01*
X54188528Y-79128000D01*
X54969407Y-79908879D01*
X55233089Y-79761768D01*
X55331518Y-78989072D01*
X55233089Y-78494232D01*
X54969407Y-78347121D01*
X54188528Y-79128000D01*
X52491472Y-79128000D01*
X51710593Y-78347121D01*
X51446911Y-78494232D01*
X51348482Y-79266928D01*
X39250000Y-79266928D01*
X39250000Y-77498593D01*
X52559121Y-77498593D01*
X53340000Y-78279472D01*
X54120879Y-77498593D01*
X53973768Y-77234911D01*
X53201072Y-77136482D01*
X52706232Y-77234911D01*
X52559121Y-77498593D01*
X39250000Y-77498593D01*
X39250000Y-77113981D01*
X73387645Y-77113981D01*
X73699081Y-77867715D01*
X74275252Y-78444892D01*
X75028441Y-78757643D01*
X75843981Y-78758355D01*
X75883563Y-78742000D01*
X120647512Y-78742000D01*
X120647512Y-80262000D01*
X120734673Y-80725222D01*
X121008437Y-81150663D01*
X121426153Y-81436076D01*
X121922000Y-81536488D01*
X123442000Y-81536488D01*
X123905222Y-81449327D01*
X124205307Y-81256227D01*
X124820432Y-81511650D01*
X125620060Y-81512348D01*
X126359086Y-81206988D01*
X126491736Y-81074569D01*
X126621940Y-81205001D01*
X127360432Y-81511650D01*
X128160060Y-81512348D01*
X128899086Y-81206988D01*
X129170718Y-80935830D01*
X129473252Y-81238892D01*
X130226441Y-81551643D01*
X131041981Y-81552355D01*
X131795715Y-81240919D01*
X132372892Y-80664748D01*
X132685643Y-79911559D01*
X132685646Y-79907981D01*
X133585645Y-79907981D01*
X133897081Y-80661715D01*
X134473252Y-81238892D01*
X135226441Y-81551643D01*
X136041981Y-81552355D01*
X136795715Y-81240919D01*
X137372892Y-80664748D01*
X137685643Y-79911559D01*
X137685874Y-79646060D01*
X156739652Y-79646060D01*
X157045012Y-80385086D01*
X157609940Y-80951001D01*
X158348432Y-81257650D01*
X159148060Y-81258348D01*
X159887086Y-80952988D01*
X160019736Y-80820569D01*
X160149940Y-80951001D01*
X160888432Y-81257650D01*
X161688060Y-81258348D01*
X162309798Y-81001450D01*
X162574153Y-81182076D01*
X163070000Y-81282488D01*
X164590000Y-81282488D01*
X165053222Y-81195327D01*
X165478663Y-80921563D01*
X165764076Y-80503847D01*
X165812646Y-80264000D01*
X191711838Y-80264000D01*
X191867885Y-81048501D01*
X192312269Y-81713569D01*
X192977337Y-82157953D01*
X193761838Y-82314000D01*
X193842162Y-82314000D01*
X194626663Y-82157953D01*
X195291731Y-81713569D01*
X195736115Y-81048501D01*
X195892162Y-80264000D01*
X195736115Y-79479499D01*
X195291731Y-78814431D01*
X194626663Y-78370047D01*
X193842162Y-78214000D01*
X193761838Y-78214000D01*
X192977337Y-78370047D01*
X192312269Y-78814431D01*
X191867885Y-79479499D01*
X191711838Y-80264000D01*
X165812646Y-80264000D01*
X165864488Y-80008000D01*
X165864488Y-78488000D01*
X165777327Y-78024778D01*
X165503563Y-77599337D01*
X165085847Y-77313924D01*
X164590000Y-77213512D01*
X163070000Y-77213512D01*
X162606778Y-77300673D01*
X162306693Y-77493773D01*
X161691568Y-77238350D01*
X160891940Y-77237652D01*
X160152914Y-77543012D01*
X160020264Y-77675431D01*
X159890060Y-77544999D01*
X159151568Y-77238350D01*
X158351940Y-77237652D01*
X157612914Y-77543012D01*
X157046999Y-78107940D01*
X156740350Y-78846432D01*
X156739652Y-79646060D01*
X137685874Y-79646060D01*
X137686355Y-79096019D01*
X137374919Y-78342285D01*
X136798748Y-77765108D01*
X136045559Y-77452357D01*
X135230019Y-77451645D01*
X134476285Y-77763081D01*
X133899108Y-78339252D01*
X133586357Y-79092441D01*
X133585645Y-79907981D01*
X132685646Y-79907981D01*
X132686355Y-79096019D01*
X132374919Y-78342285D01*
X131798748Y-77765108D01*
X131045559Y-77452357D01*
X130230019Y-77451645D01*
X129476285Y-77763081D01*
X129170713Y-78068121D01*
X128902060Y-77798999D01*
X128163568Y-77492350D01*
X127363940Y-77491652D01*
X126624914Y-77797012D01*
X126492264Y-77929431D01*
X126362060Y-77798999D01*
X125623568Y-77492350D01*
X124823940Y-77491652D01*
X124202202Y-77748550D01*
X123937847Y-77567924D01*
X123442000Y-77467512D01*
X121922000Y-77467512D01*
X121458778Y-77554673D01*
X121033337Y-77828437D01*
X120747924Y-78246153D01*
X120647512Y-78742000D01*
X75883563Y-78742000D01*
X76597715Y-78446919D01*
X77174892Y-77870748D01*
X77487643Y-77117559D01*
X77487867Y-76859981D01*
X85071645Y-76859981D01*
X85383081Y-77613715D01*
X85959252Y-78190892D01*
X86712441Y-78503643D01*
X87527981Y-78504355D01*
X88281715Y-78192919D01*
X88858892Y-77616748D01*
X89171643Y-76863559D01*
X89171646Y-76859981D01*
X106915645Y-76859981D01*
X107227081Y-77613715D01*
X107803252Y-78190892D01*
X108556441Y-78503643D01*
X109371981Y-78504355D01*
X110125715Y-78192919D01*
X110617351Y-77702140D01*
X111105252Y-78190892D01*
X111858441Y-78503643D01*
X112673981Y-78504355D01*
X113427715Y-78192919D01*
X114004892Y-77616748D01*
X114317643Y-76863559D01*
X114318355Y-76048019D01*
X114006919Y-75294285D01*
X113430748Y-74717108D01*
X112677559Y-74404357D01*
X111862019Y-74403645D01*
X111108285Y-74715081D01*
X110616649Y-75205860D01*
X110128748Y-74717108D01*
X109375559Y-74404357D01*
X108560019Y-74403645D01*
X107806285Y-74715081D01*
X107229108Y-75291252D01*
X106916357Y-76044441D01*
X106915645Y-76859981D01*
X89171646Y-76859981D01*
X89172355Y-76048019D01*
X88860919Y-75294285D01*
X88284748Y-74717108D01*
X87531559Y-74404357D01*
X86716019Y-74403645D01*
X85962285Y-74715081D01*
X85385108Y-75291252D01*
X85072357Y-76044441D01*
X85071645Y-76859981D01*
X77487867Y-76859981D01*
X77488355Y-76302019D01*
X77176919Y-75548285D01*
X76600748Y-74971108D01*
X75847559Y-74658357D01*
X75032019Y-74657645D01*
X74278285Y-74969081D01*
X73701108Y-75545252D01*
X73388357Y-76298441D01*
X73387645Y-77113981D01*
X39250000Y-77113981D01*
X39250000Y-70428000D01*
X50865512Y-70428000D01*
X50865512Y-72828000D01*
X50952673Y-73291222D01*
X51226437Y-73716663D01*
X51644153Y-74002076D01*
X52140000Y-74102488D01*
X54540000Y-74102488D01*
X55003222Y-74015327D01*
X55428663Y-73741563D01*
X55714076Y-73323847D01*
X55814488Y-72828000D01*
X55814488Y-70428000D01*
X55727327Y-69964778D01*
X55453563Y-69539337D01*
X55035847Y-69253924D01*
X54540000Y-69153512D01*
X52140000Y-69153512D01*
X51676778Y-69240673D01*
X51251337Y-69514437D01*
X50965924Y-69932153D01*
X50865512Y-70428000D01*
X39250000Y-70428000D01*
X39250000Y-68250000D01*
X45197267Y-68250000D01*
X45700000Y-68350000D01*
X45700000Y-68350000D01*
G37*
X45700000Y-68350000D02*
X62530498Y-68350000D01*
X62298844Y-68696694D01*
X62119961Y-69596000D01*
X62298844Y-70495306D01*
X62534684Y-70848265D01*
X61824019Y-70847645D01*
X61070285Y-71159081D01*
X60493108Y-71735252D01*
X60180357Y-72488441D01*
X60179645Y-73303981D01*
X60491081Y-74057715D01*
X61067252Y-74634892D01*
X61820441Y-74947643D01*
X62635981Y-74948355D01*
X63389715Y-74636919D01*
X63966892Y-74060748D01*
X64187846Y-73528631D01*
X70805335Y-73528631D01*
X71102162Y-73972912D01*
X71599365Y-74322694D01*
X71830000Y-74214307D01*
X71830000Y-73298000D01*
X72630000Y-73298000D01*
X72630000Y-74214307D01*
X72860635Y-74322694D01*
X73357838Y-73972912D01*
X73654665Y-73528631D01*
X73538737Y-73298000D01*
X72630000Y-73298000D01*
X71830000Y-73298000D01*
X70921263Y-73298000D01*
X70805335Y-73528631D01*
X64187846Y-73528631D01*
X64279643Y-73307559D01*
X64280355Y-72492019D01*
X64017563Y-71856012D01*
X64469961Y-71946000D01*
X64562039Y-71946000D01*
X65461345Y-71767117D01*
X66223740Y-71257701D01*
X66733156Y-70495306D01*
X66912039Y-69596000D01*
X66733156Y-68696694D01*
X66501502Y-68350000D01*
X69791078Y-68350000D01*
X69761512Y-68496000D01*
X69761512Y-70696000D01*
X69848673Y-71159222D01*
X70122437Y-71584663D01*
X70540153Y-71870076D01*
X70979998Y-71959148D01*
X70979998Y-72005939D01*
X70805335Y-72267369D01*
X70921263Y-72498000D01*
X71830000Y-72498000D01*
X71830000Y-72098000D01*
X72630000Y-72098000D01*
X72630000Y-72498000D01*
X73538737Y-72498000D01*
X73654665Y-72267369D01*
X73480002Y-72005939D01*
X73480002Y-71924576D01*
X73699222Y-71883327D01*
X74124663Y-71609563D01*
X74410076Y-71191847D01*
X74469363Y-70899079D01*
X74653499Y-71022115D01*
X75438000Y-71178162D01*
X76222501Y-71022115D01*
X76887569Y-70577731D01*
X77252903Y-70030970D01*
X77543012Y-70733086D01*
X78107940Y-71299001D01*
X78846432Y-71605650D01*
X79646060Y-71606348D01*
X80385086Y-71300988D01*
X80517736Y-71168569D01*
X80647940Y-71299001D01*
X81386432Y-71605650D01*
X82186060Y-71606348D01*
X82807798Y-71349450D01*
X83072153Y-71530076D01*
X83568000Y-71630488D01*
X85088000Y-71630488D01*
X85551222Y-71543327D01*
X85976663Y-71269563D01*
X86262076Y-70851847D01*
X86286001Y-70733705D01*
X86337499Y-70768115D01*
X87122000Y-70924162D01*
X87906501Y-70768115D01*
X88084914Y-70648903D01*
X88112497Y-70787574D01*
X88643590Y-71582412D01*
X89438428Y-72113505D01*
X90376002Y-72300000D01*
X90471998Y-72300000D01*
X91409572Y-72113505D01*
X92204410Y-71582412D01*
X92735503Y-70787574D01*
X92921998Y-69850000D01*
X92735503Y-68912426D01*
X92359703Y-68350000D01*
X103698770Y-68350000D01*
X103588202Y-68460375D01*
X103214427Y-69360527D01*
X103213576Y-70335197D01*
X103585780Y-71236000D01*
X104274375Y-71925798D01*
X105174527Y-72299573D01*
X106149197Y-72300424D01*
X107050000Y-71928220D01*
X107739798Y-71239625D01*
X107988996Y-70639489D01*
X108181499Y-70768115D01*
X108966000Y-70924162D01*
X109750501Y-70768115D01*
X110415569Y-70323731D01*
X110617000Y-70022268D01*
X110818431Y-70323731D01*
X111483499Y-70768115D01*
X112268000Y-70924162D01*
X113052501Y-70768115D01*
X113717569Y-70323731D01*
X113756589Y-70265333D01*
X113896437Y-70482663D01*
X114314153Y-70768076D01*
X114810000Y-70868488D01*
X116330000Y-70868488D01*
X116793222Y-70781327D01*
X117093307Y-70588227D01*
X117708432Y-70843650D01*
X118508060Y-70844348D01*
X119247086Y-70538988D01*
X119379736Y-70406569D01*
X119509940Y-70537001D01*
X119637843Y-70590111D01*
X119490285Y-70651081D01*
X118913108Y-71227252D01*
X118600357Y-71980441D01*
X118599645Y-72795981D01*
X118911081Y-73549715D01*
X119487252Y-74126892D01*
X120240441Y-74439643D01*
X121055981Y-74440355D01*
X121809715Y-74128919D01*
X122386892Y-73552748D01*
X122699643Y-72799559D01*
X122700355Y-71984019D01*
X122388919Y-71230285D01*
X121812748Y-70653108D01*
X121662194Y-70590593D01*
X121787086Y-70538988D01*
X122298266Y-70028700D01*
X122311081Y-70059715D01*
X122887252Y-70636892D01*
X123640441Y-70949643D01*
X124455981Y-70950355D01*
X125209715Y-70638919D01*
X125786892Y-70062748D01*
X125891464Y-69810910D01*
X125945885Y-70084501D01*
X126390269Y-70749569D01*
X126748059Y-70988637D01*
X126335885Y-71605499D01*
X126179838Y-72390000D01*
X126335885Y-73174501D01*
X126780269Y-73839569D01*
X127445337Y-74283953D01*
X128229838Y-74440000D01*
X128310162Y-74440000D01*
X129094663Y-74283953D01*
X129540000Y-73986388D01*
X129985337Y-74283953D01*
X130769838Y-74440000D01*
X130850162Y-74440000D01*
X131634663Y-74283953D01*
X132299731Y-73839569D01*
X132744115Y-73174501D01*
X132812186Y-72832283D01*
X134292655Y-71291998D01*
X134700000Y-71374488D01*
X136300000Y-71374488D01*
X136660106Y-71306730D01*
X136380357Y-71980441D01*
X136379645Y-72795981D01*
X136691081Y-73549715D01*
X137267252Y-74126892D01*
X138020441Y-74439643D01*
X138835981Y-74440355D01*
X139040182Y-74355981D01*
X141999645Y-74355981D01*
X142311081Y-75109715D01*
X142887252Y-75686892D01*
X143640441Y-75999643D01*
X144455981Y-76000355D01*
X145209715Y-75688919D01*
X145718716Y-75180805D01*
X148384881Y-75180805D01*
X148469983Y-75428846D01*
X149080064Y-75538239D01*
X149583996Y-75438000D01*
X178249838Y-75438000D01*
X178405885Y-76222501D01*
X178850269Y-76887569D01*
X179515337Y-77331953D01*
X180299838Y-77488000D01*
X180380162Y-77488000D01*
X181164663Y-77331953D01*
X181829731Y-76887569D01*
X182274115Y-76222501D01*
X182430162Y-75438000D01*
X182274115Y-74653499D01*
X181829731Y-73988431D01*
X181164663Y-73544047D01*
X180380162Y-73388000D01*
X180299838Y-73388000D01*
X179515337Y-73544047D01*
X178850269Y-73988431D01*
X178405885Y-74653499D01*
X178249838Y-75438000D01*
X149583996Y-75438000D01*
X149630017Y-75428846D01*
X149715119Y-75180805D01*
X149050000Y-74515685D01*
X148384881Y-75180805D01*
X145718716Y-75180805D01*
X145786892Y-75112748D01*
X146099643Y-74359559D01*
X146099974Y-73980064D01*
X147461761Y-73980064D01*
X147571154Y-74530017D01*
X147819195Y-74615119D01*
X148484315Y-73950000D01*
X147819195Y-73284881D01*
X147571154Y-73369983D01*
X147461761Y-73980064D01*
X146099974Y-73980064D01*
X146100355Y-73544019D01*
X145788919Y-72790285D01*
X145212748Y-72213108D01*
X144459559Y-71900357D01*
X143644019Y-71899645D01*
X142890285Y-72211081D01*
X142313108Y-72787252D01*
X142000357Y-73540441D01*
X141999645Y-74355981D01*
X139040182Y-74355981D01*
X139589715Y-74128919D01*
X140166892Y-73552748D01*
X140479643Y-72799559D01*
X140480355Y-71984019D01*
X140168919Y-71230285D01*
X139592748Y-70653108D01*
X139580018Y-70647822D01*
X139788663Y-70513563D01*
X140074076Y-70095847D01*
X140174488Y-69600000D01*
X140174488Y-68350000D01*
X141034097Y-68350000D01*
X140700889Y-68682627D01*
X140400342Y-69406424D01*
X140399658Y-70190138D01*
X140698941Y-70914458D01*
X141252627Y-71469111D01*
X141976424Y-71769658D01*
X142760138Y-71770342D01*
X143484458Y-71471059D01*
X143639785Y-71316002D01*
X143792627Y-71469111D01*
X144516424Y-71769658D01*
X145300138Y-71770342D01*
X146024458Y-71471059D01*
X146179785Y-71316002D01*
X146332627Y-71469111D01*
X147056424Y-71769658D01*
X147840138Y-71770342D01*
X148564458Y-71471059D01*
X149119111Y-70917373D01*
X149419658Y-70193576D01*
X149420342Y-69409862D01*
X149121059Y-68685542D01*
X148786102Y-68350000D01*
X149840609Y-68350000D01*
X149775000Y-68679838D01*
X149775000Y-68760162D01*
X149931047Y-69544663D01*
X150298288Y-70094279D01*
X149765269Y-70450431D01*
X149320885Y-71115499D01*
X149164838Y-71900000D01*
X149192610Y-72039620D01*
X148833357Y-72398874D01*
X148469983Y-72471154D01*
X148384881Y-72719195D01*
X149050000Y-73384315D01*
X149332843Y-73101472D01*
X149898528Y-73667157D01*
X149615685Y-73950000D01*
X150280805Y-74615119D01*
X150528846Y-74530017D01*
X150592446Y-74175323D01*
X150883648Y-73884122D01*
X151214838Y-73950000D01*
X151295162Y-73950000D01*
X152079663Y-73793953D01*
X152744731Y-73349569D01*
X153189115Y-72684501D01*
X153345162Y-71900000D01*
X153189115Y-71115499D01*
X152797081Y-70528778D01*
X153274569Y-70209731D01*
X153372665Y-70062920D01*
X153980337Y-70468953D01*
X154764838Y-70625000D01*
X154845162Y-70625000D01*
X155078677Y-70578551D01*
X156837698Y-72337572D01*
X157136081Y-73059715D01*
X157712252Y-73636892D01*
X158465441Y-73949643D01*
X159280981Y-73950355D01*
X160034715Y-73638919D01*
X160109282Y-73564482D01*
X160313081Y-74057715D01*
X160889252Y-74634892D01*
X161642441Y-74947643D01*
X162457981Y-74948355D01*
X163211715Y-74636919D01*
X163788892Y-74060748D01*
X164101643Y-73307559D01*
X164102355Y-72492019D01*
X163802000Y-71765103D01*
X163802000Y-70682359D01*
X164190432Y-70843650D01*
X164990060Y-70844348D01*
X165729086Y-70538988D01*
X165861736Y-70406569D01*
X165991940Y-70537001D01*
X166730432Y-70843650D01*
X167530060Y-70844348D01*
X168151798Y-70587450D01*
X168416153Y-70768076D01*
X168912000Y-70868488D01*
X169528838Y-70868488D01*
X168847337Y-71004047D01*
X168182269Y-71448431D01*
X167737885Y-72113499D01*
X167581838Y-72898000D01*
X167737885Y-73682501D01*
X168182269Y-74347569D01*
X168847337Y-74791953D01*
X169631838Y-74948000D01*
X169712162Y-74948000D01*
X170496663Y-74791953D01*
X171161731Y-74347569D01*
X171474244Y-73879860D01*
X171599428Y-73963505D01*
X172537002Y-74150000D01*
X172632998Y-74150000D01*
X173570572Y-73963505D01*
X174365410Y-73432412D01*
X174896503Y-72637574D01*
X175082998Y-71700000D01*
X174896503Y-70762426D01*
X174365410Y-69967588D01*
X173570572Y-69436495D01*
X172632998Y-69250000D01*
X172537002Y-69250000D01*
X171706488Y-69415199D01*
X171706488Y-68350000D01*
X187006339Y-68350000D01*
X186875357Y-68665441D01*
X186874679Y-69441761D01*
X186439000Y-69621780D01*
X185749202Y-70310375D01*
X185375427Y-71210527D01*
X185374576Y-72185197D01*
X185746780Y-73086000D01*
X186435375Y-73775798D01*
X186638812Y-73860272D01*
X186223108Y-74275252D01*
X185910357Y-75028441D01*
X185909645Y-75843981D01*
X186221081Y-76597715D01*
X186797252Y-77174892D01*
X187550441Y-77487643D01*
X188365981Y-77488355D01*
X189119715Y-77176919D01*
X189696892Y-76600748D01*
X190009643Y-75847559D01*
X190009770Y-75702596D01*
X190638441Y-75963643D01*
X191453981Y-75964355D01*
X192020938Y-75730094D01*
X192252153Y-75888076D01*
X192748000Y-75988488D01*
X194348000Y-75988488D01*
X194811222Y-75901327D01*
X195236663Y-75627563D01*
X195522076Y-75209847D01*
X195622488Y-74714000D01*
X195622488Y-74489875D01*
X195767252Y-74634892D01*
X196520441Y-74947643D01*
X197335981Y-74948355D01*
X198089715Y-74636919D01*
X198666892Y-74060748D01*
X198979643Y-73307559D01*
X198980355Y-72492019D01*
X198668919Y-71738285D01*
X198092748Y-71161108D01*
X197339559Y-70848357D01*
X196524019Y-70847645D01*
X196332301Y-70926861D01*
X196430488Y-70442000D01*
X196430488Y-68250000D01*
X199587598Y-68250000D01*
X199458844Y-68442694D01*
X199279961Y-69342000D01*
X199458844Y-70241306D01*
X199968260Y-71003701D01*
X200541944Y-71387024D01*
X200193108Y-71735252D01*
X199880357Y-72488441D01*
X199879645Y-73303981D01*
X200191081Y-74057715D01*
X200723601Y-74591165D01*
X200566778Y-74620673D01*
X200332550Y-74771395D01*
X199819538Y-74558374D01*
X198964215Y-74557628D01*
X198173714Y-74884256D01*
X197568381Y-75488533D01*
X197240374Y-76278462D01*
X197239628Y-77133785D01*
X197566256Y-77924286D01*
X198170533Y-78529619D01*
X198960462Y-78857626D01*
X199815785Y-78858372D01*
X200007953Y-78778970D01*
X199685108Y-79101252D01*
X199372357Y-79854441D01*
X199371645Y-80669981D01*
X199683081Y-81423715D01*
X200259252Y-82000892D01*
X201012441Y-82313643D01*
X201827981Y-82314355D01*
X202068910Y-82214805D01*
X209299541Y-82214805D01*
X209702129Y-83189144D01*
X210446935Y-83935251D01*
X211420570Y-84339539D01*
X212474805Y-84340459D01*
X213449144Y-83937871D01*
X214195251Y-83193065D01*
X214599539Y-82219430D01*
X214600459Y-81165195D01*
X214197871Y-80190856D01*
X213453065Y-79444749D01*
X212479430Y-79040461D01*
X211425195Y-79039541D01*
X210450856Y-79442129D01*
X209704749Y-80186935D01*
X209300461Y-81160570D01*
X209299541Y-82214805D01*
X202068910Y-82214805D01*
X202581715Y-82002919D01*
X203158892Y-81426748D01*
X203471643Y-80673559D01*
X203472355Y-79858019D01*
X203160919Y-79104285D01*
X202922192Y-78865141D01*
X203293222Y-78795327D01*
X203718663Y-78521563D01*
X204004076Y-78103847D01*
X204035359Y-77949365D01*
X229715306Y-77949365D01*
X229823693Y-78180000D01*
X230740000Y-78180000D01*
X230740000Y-77271263D01*
X231540000Y-77271263D01*
X231540000Y-78180000D01*
X232456307Y-78180000D01*
X232564694Y-77949365D01*
X232214912Y-77452162D01*
X232120709Y-77389224D01*
X239596000Y-77389224D01*
X239596000Y-77950500D01*
X239785500Y-78140000D01*
X240954000Y-78140000D01*
X240954000Y-76971500D01*
X242154000Y-76971500D01*
X242154000Y-78140000D01*
X243322500Y-78140000D01*
X243512000Y-77950500D01*
X243512000Y-77389224D01*
X243396601Y-77110627D01*
X243183372Y-76897398D01*
X242904775Y-76782000D01*
X242343500Y-76782000D01*
X242154000Y-76971500D01*
X240954000Y-76971500D01*
X240764500Y-76782000D01*
X240203225Y-76782000D01*
X239924628Y-76897398D01*
X239711399Y-77110627D01*
X239596000Y-77389224D01*
X232120709Y-77389224D01*
X231770631Y-77155335D01*
X231540000Y-77271263D01*
X230740000Y-77271263D01*
X230509369Y-77155335D01*
X230065088Y-77452162D01*
X229715306Y-77949365D01*
X204035359Y-77949365D01*
X204104488Y-77608000D01*
X204104488Y-75808000D01*
X204017327Y-75344778D01*
X203743563Y-74919337D01*
X203325847Y-74633924D01*
X203132032Y-74594675D01*
X203666892Y-74060748D01*
X203979643Y-73307559D01*
X203980355Y-72492019D01*
X203668919Y-71738285D01*
X203114921Y-71183320D01*
X203383740Y-71003701D01*
X203893156Y-70241306D01*
X204072039Y-69342000D01*
X203893156Y-68442694D01*
X203764402Y-68250000D01*
X208700000Y-68250000D01*
X208700000Y-70260000D01*
X208947392Y-71503721D01*
X209651903Y-72558097D01*
X210706279Y-73262608D01*
X211950000Y-73510000D01*
X213193721Y-73262608D01*
X214248097Y-72558097D01*
X214952608Y-71503721D01*
X215200000Y-70260000D01*
X215200000Y-68250000D01*
X220262020Y-68250000D01*
X220471595Y-68459575D01*
X220308427Y-68852527D01*
X220307576Y-69827197D01*
X220679780Y-70728000D01*
X221368375Y-71417798D01*
X222268527Y-71791573D01*
X223243197Y-71792424D01*
X224144000Y-71420220D01*
X224833798Y-70731625D01*
X224834356Y-70730281D01*
X225209010Y-71290990D01*
X225938962Y-71778729D01*
X226800000Y-71950000D01*
X227661038Y-71778729D01*
X227741154Y-71725197D01*
X239103576Y-71725197D01*
X239475780Y-72626000D01*
X240164375Y-73315798D01*
X241064527Y-73689573D01*
X242039197Y-73690424D01*
X242940000Y-73318220D01*
X243629798Y-72629625D01*
X244003573Y-71729473D01*
X244004424Y-70754803D01*
X243632220Y-69854000D01*
X242943625Y-69164202D01*
X242043473Y-68790427D01*
X241068803Y-68789576D01*
X240168000Y-69161780D01*
X239478202Y-69850375D01*
X239104427Y-70750527D01*
X239103576Y-71725197D01*
X227741154Y-71725197D01*
X228390990Y-71290990D01*
X228878729Y-70561038D01*
X229050000Y-69700000D01*
X229050000Y-68250000D01*
X229090287Y-68250000D01*
X229089645Y-68985981D01*
X229401081Y-69739715D01*
X229977252Y-70316892D01*
X230730441Y-70629643D01*
X231545981Y-70630355D01*
X232299715Y-70318919D01*
X232876892Y-69742748D01*
X233189643Y-68989559D01*
X233190289Y-68250000D01*
X254675000Y-68250000D01*
X254675000Y-100419603D01*
X254393013Y-99737142D01*
X253268777Y-98610942D01*
X252500000Y-98291718D01*
X252500000Y-96939782D01*
X252731288Y-96593635D01*
X252891141Y-95790000D01*
X252731288Y-94986365D01*
X252312760Y-94359994D01*
X252358000Y-94250775D01*
X252358000Y-93864500D01*
X252168500Y-93675000D01*
X251175000Y-93675000D01*
X251175000Y-93766354D01*
X250791141Y-93690000D01*
X250708859Y-93690000D01*
X250325000Y-93766354D01*
X250325000Y-93675000D01*
X249331500Y-93675000D01*
X249142000Y-93864500D01*
X249142000Y-94250775D01*
X249187240Y-94359994D01*
X248768712Y-94986365D01*
X248608859Y-95790000D01*
X248768712Y-96593635D01*
X249000000Y-96939782D01*
X249000000Y-98498376D01*
X248737142Y-98606987D01*
X247610942Y-99731223D01*
X247000695Y-101200860D01*
X246999307Y-102792159D01*
X247606987Y-104262858D01*
X248018410Y-104675000D01*
X229734999Y-104675000D01*
X229774488Y-104480000D01*
X229774488Y-101480000D01*
X229687327Y-101016778D01*
X229413563Y-100591337D01*
X229192123Y-100440033D01*
X229388663Y-100313563D01*
X229674076Y-99895847D01*
X229774488Y-99400000D01*
X229774488Y-96400000D01*
X229687327Y-95936778D01*
X229413563Y-95511337D01*
X228995847Y-95225924D01*
X228500000Y-95125512D01*
X225500000Y-95125512D01*
X225036778Y-95212673D01*
X224611337Y-95486437D01*
X224325924Y-95904153D01*
X224225512Y-96400000D01*
X224225512Y-99400000D01*
X224312673Y-99863222D01*
X224586437Y-100288663D01*
X224807877Y-100439967D01*
X224611337Y-100566437D01*
X224325924Y-100984153D01*
X224225512Y-101480000D01*
X224225512Y-104480000D01*
X224262204Y-104675000D01*
X222554340Y-104675000D01*
X221920000Y-104040660D01*
X221285660Y-104675000D01*
X198274488Y-104675000D01*
X198274488Y-103969369D01*
X202395335Y-103969369D01*
X202511263Y-104200000D01*
X203420000Y-104200000D01*
X203420000Y-103348500D01*
X203484807Y-103283693D01*
X204220000Y-103283693D01*
X204220000Y-104200000D01*
X205128737Y-104200000D01*
X205244665Y-103969369D01*
X204947838Y-103525088D01*
X204710328Y-103358000D01*
X204950776Y-103358000D01*
X205229373Y-103242601D01*
X205270825Y-103201149D01*
X219628408Y-103201149D01*
X219718216Y-103652639D01*
X219993039Y-103846301D01*
X220859340Y-102980000D01*
X222980660Y-102980000D01*
X223846961Y-103846301D01*
X224121784Y-103652639D01*
X224211592Y-102758851D01*
X224121784Y-102307361D01*
X223846961Y-102113699D01*
X222980660Y-102980000D01*
X220859340Y-102980000D01*
X219993039Y-102113699D01*
X219718216Y-102307361D01*
X219628408Y-103201149D01*
X205270825Y-103201149D01*
X205442602Y-103029372D01*
X205558000Y-102750775D01*
X205558000Y-102389500D01*
X205368500Y-102200000D01*
X204400000Y-102200000D01*
X204400000Y-103168500D01*
X204420818Y-103189318D01*
X204220000Y-103283693D01*
X203484807Y-103283693D01*
X203600000Y-103168500D01*
X203600000Y-102200000D01*
X202631500Y-102200000D01*
X202442000Y-102389500D01*
X202442000Y-102750775D01*
X202557398Y-103029372D01*
X202770627Y-103242601D01*
X202973977Y-103326831D01*
X202692162Y-103525088D01*
X202395335Y-103969369D01*
X198274488Y-103969369D01*
X198274488Y-103800000D01*
X198187327Y-103336778D01*
X198002932Y-103050220D01*
X198314115Y-102584501D01*
X198470162Y-101800000D01*
X198314115Y-101015499D01*
X197901541Y-100398038D01*
X197936892Y-100362748D01*
X198157846Y-99830631D01*
X202395335Y-99830631D01*
X202692162Y-100274912D01*
X202795040Y-100347287D01*
X202770627Y-100357399D01*
X202557398Y-100570628D01*
X202442000Y-100849225D01*
X202442000Y-101210500D01*
X202631500Y-101400000D01*
X203600000Y-101400000D01*
X203600000Y-100431500D01*
X203420000Y-100251500D01*
X203420000Y-99600000D01*
X204220000Y-99600000D01*
X204220000Y-100516307D01*
X204400000Y-100600898D01*
X204400000Y-101400000D01*
X205368500Y-101400000D01*
X205558000Y-101210500D01*
X205558000Y-101053039D01*
X221053699Y-101053039D01*
X221920000Y-101919340D01*
X222786301Y-101053039D01*
X222592639Y-100778216D01*
X221698851Y-100688408D01*
X221247361Y-100778216D01*
X221053699Y-101053039D01*
X205558000Y-101053039D01*
X205558000Y-100849225D01*
X205442602Y-100570628D01*
X205229373Y-100357399D01*
X204965697Y-100248181D01*
X205244665Y-99830631D01*
X205242821Y-99826961D01*
X221053699Y-99826961D01*
X221247361Y-100101784D01*
X222141149Y-100191592D01*
X222592639Y-100101784D01*
X222786301Y-99826961D01*
X221920000Y-98960660D01*
X221053699Y-99826961D01*
X205242821Y-99826961D01*
X205128737Y-99600000D01*
X204220000Y-99600000D01*
X203420000Y-99600000D01*
X202511263Y-99600000D01*
X202395335Y-99830631D01*
X198157846Y-99830631D01*
X198249643Y-99609559D01*
X198250355Y-98794019D01*
X198157532Y-98569369D01*
X202395335Y-98569369D01*
X202511263Y-98800000D01*
X203420000Y-98800000D01*
X203420000Y-97883693D01*
X204220000Y-97883693D01*
X204220000Y-98800000D01*
X205128737Y-98800000D01*
X205244665Y-98569369D01*
X204947838Y-98125088D01*
X204942239Y-98121149D01*
X219628408Y-98121149D01*
X219718216Y-98572639D01*
X219993039Y-98766301D01*
X220859340Y-97900000D01*
X222980660Y-97900000D01*
X223846961Y-98766301D01*
X224121784Y-98572639D01*
X224211592Y-97678851D01*
X224121784Y-97227361D01*
X223846961Y-97033699D01*
X222980660Y-97900000D01*
X220859340Y-97900000D01*
X219993039Y-97033699D01*
X219718216Y-97227361D01*
X219628408Y-98121149D01*
X204942239Y-98121149D01*
X204450635Y-97775306D01*
X204220000Y-97883693D01*
X203420000Y-97883693D01*
X203189365Y-97775306D01*
X202692162Y-98125088D01*
X202395335Y-98569369D01*
X198157532Y-98569369D01*
X197938919Y-98040285D01*
X197362748Y-97463108D01*
X196609559Y-97150357D01*
X195794019Y-97149645D01*
X195040285Y-97461081D01*
X194463108Y-98037252D01*
X194150357Y-98790441D01*
X194149645Y-99605981D01*
X194461081Y-100359715D01*
X194714465Y-100613541D01*
X194445885Y-101015499D01*
X194289838Y-101800000D01*
X194445885Y-102584501D01*
X194606651Y-102825104D01*
X194511337Y-102886437D01*
X194337158Y-103141356D01*
X194249569Y-103010269D01*
X193584501Y-102565885D01*
X192800000Y-102409838D01*
X192015499Y-102565885D01*
X191350431Y-103010269D01*
X190906047Y-103675337D01*
X190800779Y-104204553D01*
X190663505Y-103514428D01*
X190132412Y-102719590D01*
X189337574Y-102188497D01*
X189250000Y-102171077D01*
X189250000Y-96734805D01*
X195930881Y-96734805D01*
X196015983Y-96982846D01*
X196626064Y-97092239D01*
X197176017Y-96982846D01*
X197261119Y-96734805D01*
X196596000Y-96069685D01*
X195930881Y-96734805D01*
X189250000Y-96734805D01*
X189250000Y-95534064D01*
X195007761Y-95534064D01*
X195117154Y-96084017D01*
X195365195Y-96169119D01*
X196030315Y-95504000D01*
X197161685Y-95504000D01*
X197826805Y-96169119D01*
X198074846Y-96084017D01*
X198178848Y-95504000D01*
X207205838Y-95504000D01*
X207361885Y-96288501D01*
X207806269Y-96953569D01*
X208471337Y-97397953D01*
X209255838Y-97554000D01*
X209336162Y-97554000D01*
X210120663Y-97397953D01*
X210785731Y-96953569D01*
X211230115Y-96288501D01*
X211292864Y-95973039D01*
X221053699Y-95973039D01*
X221920000Y-96839340D01*
X222786301Y-95973039D01*
X222592639Y-95698216D01*
X221698851Y-95608408D01*
X221247361Y-95698216D01*
X221053699Y-95973039D01*
X211292864Y-95973039D01*
X211386162Y-95504000D01*
X211230115Y-94719499D01*
X210785731Y-94054431D01*
X210120663Y-93610047D01*
X209336162Y-93454000D01*
X209255838Y-93454000D01*
X208471337Y-93610047D01*
X207806269Y-94054431D01*
X207361885Y-94719499D01*
X207205838Y-95504000D01*
X198178848Y-95504000D01*
X198184239Y-95473936D01*
X198074846Y-94923983D01*
X197826805Y-94838881D01*
X197161685Y-95504000D01*
X196030315Y-95504000D01*
X195365195Y-94838881D01*
X195117154Y-94923983D01*
X195007761Y-95534064D01*
X189250000Y-95534064D01*
X189250000Y-94273195D01*
X195930881Y-94273195D01*
X196596000Y-94938315D01*
X197261119Y-94273195D01*
X197176017Y-94025154D01*
X196565936Y-93915761D01*
X196015983Y-94025154D01*
X195930881Y-94273195D01*
X189250000Y-94273195D01*
X189250000Y-94099691D01*
X189786000Y-93878220D01*
X190475798Y-93189625D01*
X190816777Y-92368454D01*
X191061081Y-92959715D01*
X191637252Y-93536892D01*
X192390441Y-93849643D01*
X193205981Y-93850355D01*
X193959715Y-93538919D01*
X194536892Y-92962748D01*
X194552647Y-92924805D01*
X230728881Y-92924805D01*
X230813983Y-93172846D01*
X231424064Y-93282239D01*
X231974017Y-93172846D01*
X232059119Y-92924805D01*
X231394000Y-92259685D01*
X230728881Y-92924805D01*
X194552647Y-92924805D01*
X194849643Y-92209559D01*
X194850066Y-91724064D01*
X229805761Y-91724064D01*
X229915154Y-92274017D01*
X230163195Y-92359119D01*
X230828315Y-91694000D01*
X231959685Y-91694000D01*
X232624805Y-92359119D01*
X232872846Y-92274017D01*
X232982239Y-91663936D01*
X232872846Y-91113983D01*
X232624805Y-91028881D01*
X231959685Y-91694000D01*
X230828315Y-91694000D01*
X230163195Y-91028881D01*
X229915154Y-91113983D01*
X229805761Y-91724064D01*
X194850066Y-91724064D01*
X194850355Y-91394019D01*
X194538919Y-90640285D01*
X194362138Y-90463195D01*
X230728881Y-90463195D01*
X231394000Y-91128315D01*
X232059119Y-90463195D01*
X231974017Y-90215154D01*
X231363936Y-90105761D01*
X230813983Y-90215154D01*
X230728881Y-90463195D01*
X194362138Y-90463195D01*
X193962748Y-90063108D01*
X193209559Y-89750357D01*
X192394019Y-89749645D01*
X191640285Y-90061081D01*
X191063108Y-90637252D01*
X190816179Y-91231924D01*
X190478220Y-90414000D01*
X189789625Y-89724202D01*
X189250000Y-89500131D01*
X189250000Y-88544609D01*
X234769523Y-88544609D01*
X235187304Y-89555715D01*
X235960216Y-90329977D01*
X236466003Y-90539998D01*
X235964285Y-90747304D01*
X235190023Y-91520216D01*
X234770478Y-92530591D01*
X234769523Y-93624609D01*
X235187304Y-94635715D01*
X235960216Y-95409977D01*
X236970591Y-95829522D01*
X238064609Y-95830477D01*
X239075715Y-95412696D01*
X239849977Y-94639784D01*
X240107541Y-94019500D01*
X240342000Y-94019500D01*
X240342000Y-94730775D01*
X240457398Y-95009372D01*
X240670627Y-95222601D01*
X240949224Y-95338000D01*
X241660500Y-95338000D01*
X241850000Y-95148500D01*
X241850000Y-93830000D01*
X243350000Y-93830000D01*
X243350000Y-95148500D01*
X243539500Y-95338000D01*
X244250776Y-95338000D01*
X244529373Y-95222601D01*
X244742602Y-95009372D01*
X244858000Y-94730775D01*
X244858000Y-94019500D01*
X244668500Y-93830000D01*
X243350000Y-93830000D01*
X241850000Y-93830000D01*
X240531500Y-93830000D01*
X240342000Y-94019500D01*
X240107541Y-94019500D01*
X240269522Y-93629409D01*
X240270477Y-92535391D01*
X239852696Y-91524285D01*
X239757802Y-91429225D01*
X240342000Y-91429225D01*
X240342000Y-92140500D01*
X240531500Y-92330000D01*
X241850000Y-92330000D01*
X241850000Y-91011500D01*
X243350000Y-91011500D01*
X243350000Y-92330000D01*
X244668500Y-92330000D01*
X244749275Y-92249225D01*
X249142000Y-92249225D01*
X249142000Y-92635500D01*
X249331500Y-92825000D01*
X250325000Y-92825000D01*
X250325000Y-91831500D01*
X251175000Y-91831500D01*
X251175000Y-92825000D01*
X252168500Y-92825000D01*
X252358000Y-92635500D01*
X252358000Y-92249225D01*
X252242602Y-91970628D01*
X252029373Y-91757399D01*
X251750776Y-91642000D01*
X251364500Y-91642000D01*
X251175000Y-91831500D01*
X250325000Y-91831500D01*
X250135500Y-91642000D01*
X249749224Y-91642000D01*
X249470627Y-91757399D01*
X249257398Y-91970628D01*
X249142000Y-92249225D01*
X244749275Y-92249225D01*
X244858000Y-92140500D01*
X244858000Y-91429225D01*
X244742602Y-91150628D01*
X244529373Y-90937399D01*
X244250776Y-90822000D01*
X243539500Y-90822000D01*
X243350000Y-91011500D01*
X241850000Y-91011500D01*
X241660500Y-90822000D01*
X240949224Y-90822000D01*
X240670627Y-90937399D01*
X240457398Y-91150628D01*
X240342000Y-91429225D01*
X239757802Y-91429225D01*
X239079784Y-90750023D01*
X238573997Y-90540002D01*
X239075715Y-90332696D01*
X239849977Y-89559784D01*
X240107541Y-88939500D01*
X240342000Y-88939500D01*
X240342000Y-89650775D01*
X240457398Y-89929372D01*
X240670627Y-90142601D01*
X240949224Y-90258000D01*
X241660500Y-90258000D01*
X241850000Y-90068500D01*
X241850000Y-88750000D01*
X243350000Y-88750000D01*
X243350000Y-90068500D01*
X243539500Y-90258000D01*
X244250776Y-90258000D01*
X244529373Y-90142601D01*
X244742602Y-89929372D01*
X244858000Y-89650775D01*
X244858000Y-88939500D01*
X244668500Y-88750000D01*
X243350000Y-88750000D01*
X241850000Y-88750000D01*
X240531500Y-88750000D01*
X240342000Y-88939500D01*
X240107541Y-88939500D01*
X240269522Y-88549409D01*
X240270477Y-87455391D01*
X239852696Y-86444285D01*
X239757802Y-86349225D01*
X240342000Y-86349225D01*
X240342000Y-87060500D01*
X240531500Y-87250000D01*
X241850000Y-87250000D01*
X241850000Y-85931500D01*
X243350000Y-85931500D01*
X243350000Y-87250000D01*
X244668500Y-87250000D01*
X244858000Y-87060500D01*
X244858000Y-86349225D01*
X244742602Y-86070628D01*
X244529373Y-85857399D01*
X244250776Y-85742000D01*
X243539500Y-85742000D01*
X243350000Y-85931500D01*
X241850000Y-85931500D01*
X241660500Y-85742000D01*
X240949224Y-85742000D01*
X240670627Y-85857399D01*
X240457398Y-86070628D01*
X240342000Y-86349225D01*
X239757802Y-86349225D01*
X239079784Y-85670023D01*
X238069409Y-85250478D01*
X236975391Y-85249523D01*
X235964285Y-85667304D01*
X235190023Y-86440216D01*
X234770478Y-87450591D01*
X234769523Y-88544609D01*
X189250000Y-88544609D01*
X189250000Y-86000000D01*
X189230304Y-85902736D01*
X189174318Y-85820798D01*
X189090864Y-85767097D01*
X189000000Y-85750000D01*
X187634488Y-85750000D01*
X187634488Y-85240000D01*
X187547327Y-84776778D01*
X187391105Y-84534002D01*
X220308000Y-84534002D01*
X220308000Y-84629998D01*
X220494495Y-85567572D01*
X221025588Y-86362410D01*
X221820426Y-86893503D01*
X222758000Y-87079998D01*
X223695574Y-86893503D01*
X224490412Y-86362410D01*
X225021505Y-85567572D01*
X225208000Y-84629998D01*
X225208000Y-84534002D01*
X225021505Y-83596428D01*
X224493346Y-82805981D01*
X224749645Y-82805981D01*
X225061081Y-83559715D01*
X225637252Y-84136892D01*
X226390441Y-84449643D01*
X227205981Y-84450355D01*
X227959715Y-84138919D01*
X228536892Y-83562748D01*
X228849643Y-82809559D01*
X228850355Y-81994019D01*
X228709796Y-81653838D01*
X229344000Y-81653838D01*
X229344000Y-81734162D01*
X229500047Y-82518663D01*
X229944431Y-83183731D01*
X230609499Y-83628115D01*
X231394000Y-83784162D01*
X232178501Y-83628115D01*
X232843569Y-83183731D01*
X233287953Y-82518663D01*
X233444000Y-81734162D01*
X233444000Y-81653838D01*
X233287953Y-80869337D01*
X232843569Y-80204269D01*
X232390002Y-79901205D01*
X232390002Y-79529500D01*
X239596000Y-79529500D01*
X239596000Y-80090776D01*
X239711399Y-80369373D01*
X239924628Y-80582602D01*
X240203225Y-80698000D01*
X240764500Y-80698000D01*
X240954000Y-80508500D01*
X240954000Y-79340000D01*
X242154000Y-79340000D01*
X242154000Y-80508500D01*
X242343500Y-80698000D01*
X242904775Y-80698000D01*
X243183372Y-80582602D01*
X243396601Y-80369373D01*
X243512000Y-80090776D01*
X243512000Y-79529500D01*
X243322500Y-79340000D01*
X242154000Y-79340000D01*
X240954000Y-79340000D01*
X239785500Y-79340000D01*
X239596000Y-79529500D01*
X232390002Y-79529500D01*
X232390002Y-79458954D01*
X232564694Y-79210635D01*
X232456307Y-78980000D01*
X231540000Y-78980000D01*
X231540000Y-79380000D01*
X230740000Y-79380000D01*
X230740000Y-78980000D01*
X229823693Y-78980000D01*
X229715306Y-79210635D01*
X229889998Y-79458954D01*
X229889998Y-80138000D01*
X230043610Y-80138000D01*
X229944431Y-80204269D01*
X229500047Y-80869337D01*
X229344000Y-81653838D01*
X228709796Y-81653838D01*
X228538919Y-81240285D01*
X227962748Y-80663108D01*
X227209559Y-80350357D01*
X226394019Y-80349645D01*
X225640285Y-80661081D01*
X225063108Y-81237252D01*
X224750357Y-81990441D01*
X224749645Y-82805981D01*
X224493346Y-82805981D01*
X224490412Y-82801590D01*
X223695574Y-82270497D01*
X222758000Y-82084002D01*
X221820426Y-82270497D01*
X221025588Y-82801590D01*
X220494495Y-83596428D01*
X220308000Y-84534002D01*
X187391105Y-84534002D01*
X187273563Y-84351337D01*
X186855847Y-84065924D01*
X186360000Y-83965512D01*
X184840000Y-83965512D01*
X184376778Y-84052673D01*
X184076693Y-84245773D01*
X183461568Y-83990350D01*
X182661940Y-83989652D01*
X181922914Y-84295012D01*
X181790264Y-84427431D01*
X181660060Y-84296999D01*
X180921568Y-83990350D01*
X180121940Y-83989652D01*
X179382914Y-84295012D01*
X178816999Y-84859940D01*
X178510350Y-85598432D01*
X178510218Y-85750000D01*
X151730325Y-85750000D01*
X151604115Y-85115499D01*
X151159731Y-84450431D01*
X150494663Y-84006047D01*
X149710162Y-83850000D01*
X149629838Y-83850000D01*
X148845337Y-84006047D01*
X148180269Y-84450431D01*
X147735885Y-85115499D01*
X147609675Y-85750000D01*
X144100132Y-85750000D01*
X144100355Y-85494019D01*
X143788919Y-84740285D01*
X143212748Y-84163108D01*
X142459559Y-83850357D01*
X141644019Y-83849645D01*
X140890285Y-84161081D01*
X140313108Y-84737252D01*
X140000357Y-85490441D01*
X140000130Y-85750000D01*
X138660105Y-85750000D01*
X138251559Y-85580357D01*
X137436019Y-85579645D01*
X137023728Y-85750000D01*
X133660105Y-85750000D01*
X133251559Y-85580357D01*
X132436019Y-85579645D01*
X132023728Y-85750000D01*
X121982181Y-85750000D01*
X122191643Y-85245559D01*
X122192355Y-84430019D01*
X121880919Y-83676285D01*
X121304748Y-83099108D01*
X120551559Y-82786357D01*
X119736019Y-82785645D01*
X118982285Y-83097081D01*
X118405108Y-83673252D01*
X118092357Y-84426441D01*
X118091645Y-85241981D01*
X118301554Y-85750000D01*
X104952208Y-85750000D01*
X105039608Y-85539516D01*
X105040390Y-84644411D01*
X104698569Y-83817142D01*
X104066187Y-83183655D01*
X103239516Y-82840392D01*
X102344411Y-82839610D01*
X101517142Y-83181431D01*
X100883655Y-83813813D01*
X100540392Y-84640484D01*
X100539610Y-85535589D01*
X100628203Y-85750000D01*
X100064488Y-85750000D01*
X100064488Y-84090000D01*
X99977327Y-83626778D01*
X99703563Y-83201337D01*
X99285847Y-82915924D01*
X98790000Y-82815512D01*
X96790000Y-82815512D01*
X96326778Y-82902673D01*
X95901337Y-83176437D01*
X95615924Y-83594153D01*
X95515512Y-84090000D01*
X95515512Y-85750000D01*
X90172488Y-85750000D01*
X90172488Y-84330000D01*
X90085327Y-83866778D01*
X89811563Y-83441337D01*
X89393847Y-83155924D01*
X88898000Y-83055512D01*
X87378000Y-83055512D01*
X86914778Y-83142673D01*
X86614693Y-83335773D01*
X85999568Y-83080350D01*
X85199940Y-83079652D01*
X84460914Y-83385012D01*
X84328264Y-83517431D01*
X84198060Y-83386999D01*
X83459568Y-83080350D01*
X82659940Y-83079652D01*
X81920914Y-83385012D01*
X81354999Y-83949940D01*
X81048350Y-84688432D01*
X81047652Y-85488060D01*
X81098037Y-85610000D01*
X80700473Y-85610000D01*
X80749650Y-85491568D01*
X80750348Y-84691940D01*
X80444988Y-83952914D01*
X79880060Y-83386999D01*
X79141568Y-83080350D01*
X78341940Y-83079652D01*
X77711851Y-83340000D01*
X77226874Y-83340000D01*
X76601568Y-83080350D01*
X75801940Y-83079652D01*
X75180202Y-83336550D01*
X74915847Y-83155924D01*
X74420000Y-83055512D01*
X72900000Y-83055512D01*
X72436778Y-83142673D01*
X72011337Y-83416437D01*
X71725924Y-83834153D01*
X71625512Y-84330000D01*
X71625512Y-85750000D01*
X71009313Y-85750000D01*
X71030000Y-85645998D01*
X71030000Y-85550002D01*
X70843505Y-84612428D01*
X70312412Y-83817590D01*
X69517574Y-83286497D01*
X68580000Y-83100002D01*
X67642426Y-83286497D01*
X66847588Y-83817590D01*
X66316495Y-84612428D01*
X66130000Y-85550002D01*
X66130000Y-85645998D01*
X66150687Y-85750000D01*
X39250000Y-85750000D01*
X39250000Y-80757407D01*
X52559121Y-80757407D01*
X52706232Y-81021089D01*
X53478928Y-81119518D01*
X53973768Y-81021089D01*
X54120879Y-80757407D01*
X53340000Y-79976528D01*
X52559121Y-80757407D01*
X39250000Y-80757407D01*
X39250000Y-79266928D01*
X51348482Y-79266928D01*
X51446911Y-79761768D01*
X51710593Y-79908879D01*
X52491472Y-79128000D01*
X54188528Y-79128000D01*
X54969407Y-79908879D01*
X55233089Y-79761768D01*
X55331518Y-78989072D01*
X55233089Y-78494232D01*
X54969407Y-78347121D01*
X54188528Y-79128000D01*
X52491472Y-79128000D01*
X51710593Y-78347121D01*
X51446911Y-78494232D01*
X51348482Y-79266928D01*
X39250000Y-79266928D01*
X39250000Y-77498593D01*
X52559121Y-77498593D01*
X53340000Y-78279472D01*
X54120879Y-77498593D01*
X53973768Y-77234911D01*
X53201072Y-77136482D01*
X52706232Y-77234911D01*
X52559121Y-77498593D01*
X39250000Y-77498593D01*
X39250000Y-77113981D01*
X73387645Y-77113981D01*
X73699081Y-77867715D01*
X74275252Y-78444892D01*
X75028441Y-78757643D01*
X75843981Y-78758355D01*
X75883563Y-78742000D01*
X120647512Y-78742000D01*
X120647512Y-80262000D01*
X120734673Y-80725222D01*
X121008437Y-81150663D01*
X121426153Y-81436076D01*
X121922000Y-81536488D01*
X123442000Y-81536488D01*
X123905222Y-81449327D01*
X124205307Y-81256227D01*
X124820432Y-81511650D01*
X125620060Y-81512348D01*
X126359086Y-81206988D01*
X126491736Y-81074569D01*
X126621940Y-81205001D01*
X127360432Y-81511650D01*
X128160060Y-81512348D01*
X128899086Y-81206988D01*
X129170718Y-80935830D01*
X129473252Y-81238892D01*
X130226441Y-81551643D01*
X131041981Y-81552355D01*
X131795715Y-81240919D01*
X132372892Y-80664748D01*
X132685643Y-79911559D01*
X132685646Y-79907981D01*
X133585645Y-79907981D01*
X133897081Y-80661715D01*
X134473252Y-81238892D01*
X135226441Y-81551643D01*
X136041981Y-81552355D01*
X136795715Y-81240919D01*
X137372892Y-80664748D01*
X137685643Y-79911559D01*
X137685874Y-79646060D01*
X156739652Y-79646060D01*
X157045012Y-80385086D01*
X157609940Y-80951001D01*
X158348432Y-81257650D01*
X159148060Y-81258348D01*
X159887086Y-80952988D01*
X160019736Y-80820569D01*
X160149940Y-80951001D01*
X160888432Y-81257650D01*
X161688060Y-81258348D01*
X162309798Y-81001450D01*
X162574153Y-81182076D01*
X163070000Y-81282488D01*
X164590000Y-81282488D01*
X165053222Y-81195327D01*
X165478663Y-80921563D01*
X165764076Y-80503847D01*
X165812646Y-80264000D01*
X191711838Y-80264000D01*
X191867885Y-81048501D01*
X192312269Y-81713569D01*
X192977337Y-82157953D01*
X193761838Y-82314000D01*
X193842162Y-82314000D01*
X194626663Y-82157953D01*
X195291731Y-81713569D01*
X195736115Y-81048501D01*
X195892162Y-80264000D01*
X195736115Y-79479499D01*
X195291731Y-78814431D01*
X194626663Y-78370047D01*
X193842162Y-78214000D01*
X193761838Y-78214000D01*
X192977337Y-78370047D01*
X192312269Y-78814431D01*
X191867885Y-79479499D01*
X191711838Y-80264000D01*
X165812646Y-80264000D01*
X165864488Y-80008000D01*
X165864488Y-78488000D01*
X165777327Y-78024778D01*
X165503563Y-77599337D01*
X165085847Y-77313924D01*
X164590000Y-77213512D01*
X163070000Y-77213512D01*
X162606778Y-77300673D01*
X162306693Y-77493773D01*
X161691568Y-77238350D01*
X160891940Y-77237652D01*
X160152914Y-77543012D01*
X160020264Y-77675431D01*
X159890060Y-77544999D01*
X159151568Y-77238350D01*
X158351940Y-77237652D01*
X157612914Y-77543012D01*
X157046999Y-78107940D01*
X156740350Y-78846432D01*
X156739652Y-79646060D01*
X137685874Y-79646060D01*
X137686355Y-79096019D01*
X137374919Y-78342285D01*
X136798748Y-77765108D01*
X136045559Y-77452357D01*
X135230019Y-77451645D01*
X134476285Y-77763081D01*
X133899108Y-78339252D01*
X133586357Y-79092441D01*
X133585645Y-79907981D01*
X132685646Y-79907981D01*
X132686355Y-79096019D01*
X132374919Y-78342285D01*
X131798748Y-77765108D01*
X131045559Y-77452357D01*
X130230019Y-77451645D01*
X129476285Y-77763081D01*
X129170713Y-78068121D01*
X128902060Y-77798999D01*
X128163568Y-77492350D01*
X127363940Y-77491652D01*
X126624914Y-77797012D01*
X126492264Y-77929431D01*
X126362060Y-77798999D01*
X125623568Y-77492350D01*
X124823940Y-77491652D01*
X124202202Y-77748550D01*
X123937847Y-77567924D01*
X123442000Y-77467512D01*
X121922000Y-77467512D01*
X121458778Y-77554673D01*
X121033337Y-77828437D01*
X120747924Y-78246153D01*
X120647512Y-78742000D01*
X75883563Y-78742000D01*
X76597715Y-78446919D01*
X77174892Y-77870748D01*
X77487643Y-77117559D01*
X77487867Y-76859981D01*
X85071645Y-76859981D01*
X85383081Y-77613715D01*
X85959252Y-78190892D01*
X86712441Y-78503643D01*
X87527981Y-78504355D01*
X88281715Y-78192919D01*
X88858892Y-77616748D01*
X89171643Y-76863559D01*
X89171646Y-76859981D01*
X106915645Y-76859981D01*
X107227081Y-77613715D01*
X107803252Y-78190892D01*
X108556441Y-78503643D01*
X109371981Y-78504355D01*
X110125715Y-78192919D01*
X110617351Y-77702140D01*
X111105252Y-78190892D01*
X111858441Y-78503643D01*
X112673981Y-78504355D01*
X113427715Y-78192919D01*
X114004892Y-77616748D01*
X114317643Y-76863559D01*
X114318355Y-76048019D01*
X114006919Y-75294285D01*
X113430748Y-74717108D01*
X112677559Y-74404357D01*
X111862019Y-74403645D01*
X111108285Y-74715081D01*
X110616649Y-75205860D01*
X110128748Y-74717108D01*
X109375559Y-74404357D01*
X108560019Y-74403645D01*
X107806285Y-74715081D01*
X107229108Y-75291252D01*
X106916357Y-76044441D01*
X106915645Y-76859981D01*
X89171646Y-76859981D01*
X89172355Y-76048019D01*
X88860919Y-75294285D01*
X88284748Y-74717108D01*
X87531559Y-74404357D01*
X86716019Y-74403645D01*
X85962285Y-74715081D01*
X85385108Y-75291252D01*
X85072357Y-76044441D01*
X85071645Y-76859981D01*
X77487867Y-76859981D01*
X77488355Y-76302019D01*
X77176919Y-75548285D01*
X76600748Y-74971108D01*
X75847559Y-74658357D01*
X75032019Y-74657645D01*
X74278285Y-74969081D01*
X73701108Y-75545252D01*
X73388357Y-76298441D01*
X73387645Y-77113981D01*
X39250000Y-77113981D01*
X39250000Y-70428000D01*
X50865512Y-70428000D01*
X50865512Y-72828000D01*
X50952673Y-73291222D01*
X51226437Y-73716663D01*
X51644153Y-74002076D01*
X52140000Y-74102488D01*
X54540000Y-74102488D01*
X55003222Y-74015327D01*
X55428663Y-73741563D01*
X55714076Y-73323847D01*
X55814488Y-72828000D01*
X55814488Y-70428000D01*
X55727327Y-69964778D01*
X55453563Y-69539337D01*
X55035847Y-69253924D01*
X54540000Y-69153512D01*
X52140000Y-69153512D01*
X51676778Y-69240673D01*
X51251337Y-69514437D01*
X50965924Y-69932153D01*
X50865512Y-70428000D01*
X39250000Y-70428000D01*
X39250000Y-68250000D01*
X45197267Y-68250000D01*
X45700000Y-68350000D01*
M02*
