G04 #@! TF.FileFunction,Copper,L2,Bot,Signal*
%FSLAX46Y46*%
G04 Gerber Fmt 4.6, Leading zero omitted, Abs format (unit mm)*
G04 Created by KiCad (PCBNEW 4.0.7) date 08/09/21 12:11:22*
%MOMM*%
%LPD*%
G01*
G04 APERTURE LIST*
%ADD10C,0.100000*%
%ADD11C,1.520000*%
%ADD12R,1.520000X1.520000*%
%ADD13C,1.600000*%
%ADD14O,1.600000X1.600000*%
%ADD15C,2.400000*%
%ADD16O,2.400000X2.400000*%
%ADD17R,2.200000X2.200000*%
%ADD18O,2.200000X2.200000*%
%ADD19R,2.400000X2.400000*%
%ADD20C,2.200000*%
%ADD21C,2.000000*%
%ADD22R,1.600000X1.600000*%
%ADD23R,2.000000X2.000000*%
%ADD24R,1.800000X1.800000*%
%ADD25C,1.800000*%
%ADD26C,1.440000*%
%ADD27C,5.500000*%
%ADD28C,4.064000*%
%ADD29O,1.800000X1.800000*%
%ADD30C,2.800000*%
%ADD31R,1.700000X1.700000*%
%ADD32O,1.700000X1.700000*%
%ADD33R,3.000000X3.000000*%
%ADD34C,3.000000*%
%ADD35O,2.800000X2.800000*%
%ADD36C,1.000000*%
%ADD37C,4.000000*%
%ADD38C,2.000000*%
%ADD39C,0.500000*%
G04 APERTURE END LIST*
D10*
D11*
X133110000Y-57150000D03*
X130570000Y-57150000D03*
D12*
X135650000Y-57150000D03*
D13*
X120142000Y-84836000D03*
X120142000Y-89836000D03*
X138430000Y-72390000D03*
D14*
X130810000Y-72390000D03*
D15*
X148590000Y-52324000D03*
D16*
X135890000Y-52324000D03*
D11*
X85598000Y-91440000D03*
X83058000Y-91440000D03*
D12*
X88138000Y-91440000D03*
D13*
X73660000Y-103886000D03*
D14*
X73660000Y-96386000D03*
D15*
X187198000Y-53086000D03*
D16*
X171958000Y-53086000D03*
D11*
X183060000Y-86000000D03*
X180520000Y-86000000D03*
D12*
X185600000Y-86000000D03*
D11*
X76200000Y-85090000D03*
X78740000Y-85090000D03*
D12*
X73660000Y-85090000D03*
D17*
X194056000Y-69342000D03*
D18*
X201676000Y-69342000D03*
D19*
X53340000Y-71628000D03*
D15*
X53340000Y-79128000D03*
D20*
X160880000Y-103070000D03*
X160880000Y-97990000D03*
X165960000Y-97990000D03*
X165960000Y-103070000D03*
D21*
X163420000Y-100530000D03*
D22*
X193548000Y-73914000D03*
D13*
X191048000Y-73914000D03*
D11*
X119340000Y-98700000D03*
X121880000Y-98700000D03*
D12*
X116800000Y-98700000D03*
D13*
X162052000Y-72898000D03*
D14*
X169672000Y-72898000D03*
D13*
X85598000Y-100838000D03*
X85598000Y-95838000D03*
X201930000Y-72898000D03*
X196930000Y-72898000D03*
X110600000Y-104600000D03*
X110600000Y-99600000D03*
D23*
X97790000Y-85090000D03*
D21*
X102790000Y-85090000D03*
D23*
X113538000Y-88138000D03*
D21*
X108538000Y-88138000D03*
D13*
X132842000Y-87630000D03*
X137842000Y-87630000D03*
X149500000Y-56400000D03*
D14*
X139500000Y-56400000D03*
D13*
X231394000Y-91694000D03*
D14*
X231394000Y-81694000D03*
D13*
X62230000Y-72898000D03*
D14*
X72230000Y-72898000D03*
D19*
X241554000Y-78740000D03*
D15*
X241554000Y-71240000D03*
D13*
X231140000Y-68580000D03*
D14*
X231140000Y-78580000D03*
D17*
X69850000Y-103378000D03*
D18*
X62230000Y-103378000D03*
D24*
X201930000Y-76708000D03*
D25*
X199390000Y-76708000D03*
D22*
X138100000Y-68800000D03*
D14*
X138100000Y-61180000D03*
D22*
X151825000Y-61100000D03*
D14*
X151825000Y-68720000D03*
D17*
X72136000Y-69596000D03*
D18*
X64516000Y-69596000D03*
D13*
X144600000Y-97800000D03*
D14*
X152220000Y-97800000D03*
D13*
X155000000Y-97200000D03*
D14*
X155000000Y-104820000D03*
D13*
X87122000Y-76454000D03*
D14*
X87122000Y-68834000D03*
D13*
X75438000Y-76708000D03*
D14*
X75438000Y-69088000D03*
D13*
X82296000Y-95504000D03*
D14*
X82296000Y-103124000D03*
D13*
X134000000Y-101200000D03*
D14*
X126380000Y-101200000D03*
D13*
X134000000Y-104400000D03*
D14*
X126380000Y-104400000D03*
D13*
X152200000Y-101200000D03*
D14*
X144580000Y-101200000D03*
D13*
X152200000Y-104400000D03*
D14*
X144580000Y-104400000D03*
D26*
X139000000Y-103600000D03*
X139000000Y-101060000D03*
X139000000Y-98520000D03*
D15*
X188400000Y-91800000D03*
D16*
X188400000Y-104500000D03*
D13*
X201422000Y-80264000D03*
D14*
X193802000Y-80264000D03*
D15*
X68580000Y-98298000D03*
D16*
X68580000Y-85598000D03*
D13*
X107400000Y-97000000D03*
D14*
X107400000Y-104620000D03*
D13*
X104000000Y-97000000D03*
D14*
X104000000Y-104620000D03*
D13*
X192800000Y-91800000D03*
D14*
X192800000Y-104500000D03*
D13*
X112268000Y-76454000D03*
D14*
X112268000Y-68834000D03*
D26*
X147450000Y-69800000D03*
X144910000Y-69800000D03*
X142370000Y-69800000D03*
D13*
X158875000Y-71900000D03*
D14*
X151255000Y-71900000D03*
D13*
X187960000Y-75438000D03*
D14*
X180340000Y-75438000D03*
D13*
X120650000Y-72390000D03*
D14*
X128270000Y-72390000D03*
D15*
X187825000Y-71700000D03*
D16*
X172585000Y-71700000D03*
D13*
X124050000Y-68900000D03*
D14*
X124050000Y-61280000D03*
D13*
X188925000Y-69075000D03*
D14*
X188925000Y-61455000D03*
D13*
X226800000Y-82400000D03*
D14*
X226800000Y-69700000D03*
D27*
X251000000Y-102000000D03*
D28*
X251000000Y-47000000D03*
D27*
X43000000Y-102000000D03*
D28*
X43000000Y-47000000D03*
D15*
X105664000Y-69850000D03*
D16*
X90424000Y-69850000D03*
D20*
X158600000Y-91200000D03*
X173600000Y-91200000D03*
D24*
X141000000Y-47000000D03*
D29*
X143540000Y-47000000D03*
X146080000Y-47000000D03*
D24*
X124000000Y-47000000D03*
D29*
X126540000Y-47000000D03*
X129080000Y-47000000D03*
D24*
X158000000Y-47000000D03*
D29*
X160540000Y-47000000D03*
X163080000Y-47000000D03*
D30*
X211950000Y-81690000D03*
X211950000Y-70260000D03*
D15*
X222758000Y-69342000D03*
D16*
X222758000Y-84582000D03*
D11*
X119360000Y-102900000D03*
X116820000Y-102900000D03*
D12*
X121900000Y-102900000D03*
D11*
X85598000Y-85090000D03*
X83058000Y-85090000D03*
D12*
X88138000Y-85090000D03*
D11*
X76200000Y-91440000D03*
X73660000Y-91440000D03*
D12*
X78740000Y-91440000D03*
D11*
X126710000Y-87950000D03*
X124170000Y-87950000D03*
D12*
X129250000Y-87950000D03*
D11*
X118110000Y-68834000D03*
X120650000Y-68834000D03*
D12*
X115570000Y-68834000D03*
D11*
X167132000Y-68834000D03*
X164592000Y-68834000D03*
D12*
X169672000Y-68834000D03*
D13*
X100584000Y-104394000D03*
D14*
X100584000Y-94394000D03*
D13*
X196596000Y-95504000D03*
D14*
X209296000Y-95504000D03*
D13*
X151200000Y-89650000D03*
D14*
X141200000Y-89650000D03*
D13*
X135636000Y-79502000D03*
X130636000Y-79502000D03*
X142050000Y-85900000D03*
D14*
X149670000Y-85900000D03*
D31*
X250750000Y-93250000D03*
D32*
X250750000Y-95790000D03*
D31*
X43000000Y-94000000D03*
D32*
X43000000Y-96540000D03*
D33*
X227000000Y-97900000D03*
D34*
X221920000Y-97900000D03*
D33*
X227000000Y-102980000D03*
D34*
X221920000Y-102980000D03*
D33*
X242600000Y-88000000D03*
D34*
X237520000Y-88000000D03*
D33*
X242600000Y-93080000D03*
D34*
X237520000Y-93080000D03*
D33*
X59944000Y-90932000D03*
D34*
X54864000Y-90932000D03*
D33*
X59944000Y-96012000D03*
D34*
X54864000Y-96012000D03*
D33*
X178000000Y-100000000D03*
D34*
X183080000Y-100000000D03*
D22*
X196200000Y-104600000D03*
D14*
X203820000Y-104600000D03*
D22*
X204000000Y-101800000D03*
D14*
X196380000Y-101800000D03*
D13*
X196200000Y-99200000D03*
D14*
X203820000Y-99200000D03*
D15*
X120000000Y-53000000D03*
D16*
X104760000Y-53000000D03*
D15*
X101000000Y-53000000D03*
D16*
X85760000Y-53000000D03*
D15*
X79000000Y-53000000D03*
D16*
X63760000Y-53000000D03*
D15*
X58000000Y-53000000D03*
D16*
X42760000Y-53000000D03*
D15*
X250952000Y-53340000D03*
D16*
X235712000Y-53340000D03*
D15*
X229362000Y-53340000D03*
D16*
X214122000Y-53340000D03*
D15*
X208280000Y-53086000D03*
D16*
X193040000Y-53086000D03*
D13*
X131960000Y-97660000D03*
X126960000Y-97660000D03*
D22*
X135500000Y-69300000D03*
D14*
X127880000Y-69300000D03*
D22*
X162425000Y-68575000D03*
D14*
X154805000Y-68575000D03*
D11*
X81788000Y-69596000D03*
X79248000Y-69596000D03*
D12*
X84328000Y-69596000D03*
D11*
X125222000Y-79502000D03*
X127762000Y-79502000D03*
D12*
X122682000Y-79502000D03*
D11*
X161290000Y-79248000D03*
X158750000Y-79248000D03*
D12*
X163830000Y-79248000D03*
D24*
X56000000Y-47000000D03*
D29*
X58540000Y-47000000D03*
X61080000Y-47000000D03*
D24*
X226000000Y-47000000D03*
D29*
X228540000Y-47000000D03*
X231080000Y-47000000D03*
D24*
X73000000Y-47000000D03*
D29*
X75540000Y-47000000D03*
X78080000Y-47000000D03*
D24*
X209000000Y-47000000D03*
D29*
X211540000Y-47000000D03*
X214080000Y-47000000D03*
D24*
X90000000Y-47000000D03*
D29*
X92540000Y-47000000D03*
X95080000Y-47000000D03*
D24*
X192000000Y-47000000D03*
D29*
X194540000Y-47000000D03*
X197080000Y-47000000D03*
D24*
X107000000Y-47000000D03*
D29*
X109540000Y-47000000D03*
X112080000Y-47000000D03*
D24*
X175000000Y-47000000D03*
D29*
X177540000Y-47000000D03*
X180080000Y-47000000D03*
D11*
X156790000Y-58800000D03*
X159330000Y-58800000D03*
D12*
X154250000Y-58800000D03*
D13*
X108966000Y-76454000D03*
D14*
X108966000Y-68834000D03*
D30*
X44000000Y-60000000D03*
D35*
X59240000Y-60000000D03*
D30*
X250750000Y-59900000D03*
D35*
X235510000Y-59900000D03*
D30*
X64000000Y-60000000D03*
D35*
X79240000Y-60000000D03*
D30*
X229450000Y-59975000D03*
D35*
X214210000Y-59975000D03*
D30*
X84000000Y-60000000D03*
D35*
X99240000Y-60000000D03*
D30*
X208200000Y-60100000D03*
D35*
X192960000Y-60100000D03*
D30*
X104000000Y-60000000D03*
D35*
X119240000Y-60000000D03*
D30*
X185000000Y-60000000D03*
D35*
X169760000Y-60000000D03*
D13*
X148250000Y-59750000D03*
D14*
X140630000Y-59750000D03*
D13*
X149050000Y-73950000D03*
X144050000Y-73950000D03*
D36*
X155000000Y-97200000D02*
X152820000Y-97200000D01*
X152820000Y-97200000D02*
X152220000Y-97800000D01*
X155000000Y-97200000D02*
X155000000Y-94800000D01*
X155000000Y-94800000D02*
X158600000Y-91200000D01*
X163420000Y-100530000D02*
X177470000Y-100530000D01*
X177470000Y-100530000D02*
X178000000Y-100000000D01*
X173600000Y-91200000D02*
X173600000Y-95600000D01*
X173600000Y-95600000D02*
X178000000Y-100000000D01*
X144600000Y-97800000D02*
X144600000Y-97102000D01*
X144600000Y-97102000D02*
X142748000Y-95250000D01*
X142748000Y-95250000D02*
X128750000Y-95250000D01*
X128750000Y-95250000D02*
X126960000Y-97660000D01*
X82296000Y-103124000D02*
X82296000Y-103632000D01*
X82296000Y-103632000D02*
X82042000Y-103886000D01*
X82042000Y-103886000D02*
X73660000Y-103886000D01*
X73660000Y-91440000D02*
X73660000Y-90500000D01*
X73660000Y-90500000D02*
X76200000Y-87960000D01*
X76200000Y-87960000D02*
X76200000Y-85090000D01*
X73660000Y-91440000D02*
X73660000Y-96386000D01*
X70104000Y-101092000D02*
X74168000Y-101092000D01*
X76200000Y-99060000D02*
X76200000Y-91440000D01*
X74168000Y-101092000D02*
X76200000Y-99060000D01*
X68580000Y-98298000D02*
X70104000Y-99822000D01*
X70104000Y-99822000D02*
X70104000Y-101092000D01*
X70104000Y-101092000D02*
X70104000Y-103124000D01*
X70104000Y-103124000D02*
X69850000Y-103378000D01*
X85598000Y-95838000D02*
X85598000Y-91440000D01*
X107400000Y-104620000D02*
X104000000Y-104620000D01*
X110600000Y-104600000D02*
X107420000Y-104600000D01*
X107420000Y-104600000D02*
X107400000Y-104620000D01*
X119360000Y-102900000D02*
X119360000Y-103890000D01*
X118650000Y-104600000D02*
X110600000Y-104600000D01*
X119360000Y-103890000D02*
X118650000Y-104600000D01*
D37*
X222758000Y-84582000D02*
X222758000Y-86758000D01*
X227000000Y-91000000D02*
X227000000Y-97900000D01*
X222758000Y-86758000D02*
X227000000Y-91000000D01*
X211950000Y-81690000D02*
X212690000Y-81690000D01*
X212690000Y-81690000D02*
X215582000Y-84582000D01*
X215582000Y-84582000D02*
X222758000Y-84582000D01*
X227000000Y-97900000D02*
X227000000Y-102980000D01*
D36*
X102790000Y-85090000D02*
X102790000Y-85264000D01*
X102790000Y-85264000D02*
X105664000Y-88138000D01*
X105664000Y-88138000D02*
X108538000Y-88138000D01*
X120650000Y-68834000D02*
X120650000Y-67550000D01*
X138100000Y-69850000D02*
X138100000Y-68800000D01*
X136550000Y-71400000D02*
X138100000Y-69850000D01*
X133600000Y-71400000D02*
X136550000Y-71400000D01*
X132650000Y-70450000D02*
X133600000Y-71400000D01*
X132650000Y-69200000D02*
X132650000Y-70450000D01*
X130100000Y-66650000D02*
X132650000Y-69200000D01*
X121550000Y-66650000D02*
X130100000Y-66650000D01*
X120650000Y-67550000D02*
X121550000Y-66650000D01*
X151825000Y-68720000D02*
X152032000Y-68720000D01*
X152032000Y-68720000D02*
X154178000Y-70866000D01*
X154178000Y-70866000D02*
X156210000Y-70866000D01*
X156210000Y-70866000D02*
X156972000Y-70104000D01*
X156972000Y-70104000D02*
X160274000Y-70104000D01*
X160274000Y-70104000D02*
X161036000Y-70866000D01*
X161036000Y-70866000D02*
X164084000Y-70866000D01*
X164084000Y-70866000D02*
X164592000Y-70358000D01*
X164592000Y-70358000D02*
X164592000Y-68834000D01*
X88138000Y-91440000D02*
X93940000Y-91440000D01*
X93940000Y-91440000D02*
X103886000Y-101386000D01*
X121880000Y-98700000D02*
X121880000Y-96814000D01*
X112268000Y-101386000D02*
X103886000Y-101386000D01*
X114300000Y-99314000D02*
X112268000Y-101386000D01*
X114300000Y-97536000D02*
X114300000Y-99314000D01*
X115570000Y-96266000D02*
X114300000Y-97536000D01*
X121332000Y-96266000D02*
X115570000Y-96266000D01*
X121880000Y-96814000D02*
X121332000Y-96266000D01*
X126380000Y-101200000D02*
X125200000Y-101200000D01*
X118880000Y-100780000D02*
X116800000Y-98700000D01*
X124780000Y-100780000D02*
X118880000Y-100780000D01*
X125200000Y-101200000D02*
X124780000Y-100780000D01*
X87900000Y-98552000D02*
X98452000Y-98552000D01*
X98452000Y-98552000D02*
X102776000Y-102876000D01*
X116820000Y-102900000D02*
X114838000Y-102900000D01*
X114290000Y-102876000D02*
X102776000Y-102876000D01*
X114838000Y-102900000D02*
X114290000Y-102876000D01*
X78740000Y-97790000D02*
X78740000Y-91440000D01*
X79502000Y-98552000D02*
X78740000Y-97790000D01*
X87900000Y-98552000D02*
X79502000Y-98552000D01*
X126380000Y-104400000D02*
X123400000Y-104400000D01*
X123400000Y-104400000D02*
X121900000Y-102900000D01*
X180520000Y-86000000D02*
X180520000Y-89842000D01*
X182478000Y-91800000D02*
X188400000Y-91800000D01*
X180520000Y-89842000D02*
X182478000Y-91800000D01*
X193802000Y-80264000D02*
X193548000Y-80264000D01*
X193548000Y-80264000D02*
X187812000Y-86000000D01*
X187812000Y-86000000D02*
X185600000Y-86000000D01*
X81788000Y-69596000D02*
X81788000Y-70104000D01*
X81788000Y-70104000D02*
X84836000Y-73152000D01*
X84836000Y-73152000D02*
X97536000Y-73152000D01*
X97536000Y-73152000D02*
X100838000Y-76454000D01*
X100838000Y-76454000D02*
X108966000Y-76454000D01*
X122682000Y-79502000D02*
X112268000Y-79502000D01*
X112268000Y-79502000D02*
X108966000Y-76454000D01*
X120650000Y-72390000D02*
X120650000Y-72300000D01*
X120650000Y-72300000D02*
X124050000Y-68900000D01*
X118110000Y-68834000D02*
X118110000Y-69850000D01*
X118110000Y-69850000D02*
X120650000Y-72390000D01*
X118110000Y-68834000D02*
X118110000Y-67310000D01*
X105664000Y-68326000D02*
X105664000Y-69850000D01*
X107696000Y-66294000D02*
X105664000Y-68326000D01*
X117094000Y-66294000D02*
X107696000Y-66294000D01*
X118110000Y-67310000D02*
X117094000Y-66294000D01*
X172585000Y-71700000D02*
X170870000Y-71700000D01*
X170870000Y-71700000D02*
X169672000Y-72898000D01*
X167132000Y-68834000D02*
X167132000Y-70358000D01*
X167132000Y-70358000D02*
X169672000Y-72898000D01*
X188925000Y-69075000D02*
X175210000Y-69075000D01*
X175210000Y-69075000D02*
X172585000Y-71700000D01*
D38*
X231080000Y-47000000D02*
X239125000Y-47000000D01*
X239125000Y-47000000D02*
X243925000Y-51800000D01*
X243925000Y-51800000D02*
X243925000Y-59075000D01*
X243925000Y-59075000D02*
X244850000Y-60000000D01*
X244850000Y-60000000D02*
X250750000Y-59900000D01*
X95080000Y-47000000D02*
X95080000Y-47080000D01*
D36*
X139000000Y-98520000D02*
X141900000Y-98520000D01*
X141900000Y-98520000D02*
X144580000Y-101200000D01*
X134000000Y-101200000D02*
X134000000Y-99934000D01*
X135414000Y-98520000D02*
X139000000Y-98520000D01*
X134000000Y-99934000D02*
X135414000Y-98520000D01*
X144580000Y-104400000D02*
X139800000Y-104400000D01*
X139800000Y-104400000D02*
X139000000Y-103600000D01*
X134000000Y-104400000D02*
X138200000Y-104400000D01*
X138200000Y-104400000D02*
X139000000Y-103600000D01*
X151626000Y-102604000D02*
X155690000Y-102604000D01*
X158242000Y-105156000D02*
X187744000Y-105156000D01*
X155690000Y-102604000D02*
X158242000Y-105156000D01*
X187744000Y-105156000D02*
X188400000Y-104500000D01*
X139000000Y-101060000D02*
X139730000Y-101060000D01*
X151420000Y-102810000D02*
X151626000Y-102604000D01*
X151626000Y-102604000D02*
X152200000Y-102030000D01*
X141480000Y-102810000D02*
X151420000Y-102810000D01*
X139730000Y-101060000D02*
X141480000Y-102810000D01*
X152200000Y-101200000D02*
X152200000Y-102030000D01*
X152200000Y-102030000D02*
X152200000Y-104400000D01*
X151255000Y-71900000D02*
X149550000Y-71900000D01*
X149550000Y-71900000D02*
X147450000Y-69800000D01*
X147450000Y-69800000D02*
X147450000Y-69850000D01*
X144910000Y-69800000D02*
X147450000Y-69800000D01*
X142370000Y-69800000D02*
X142370000Y-68850000D01*
X141000000Y-49080000D02*
X141000000Y-47000000D01*
X143500000Y-51580000D02*
X141000000Y-49080000D01*
X143500000Y-67720000D02*
X143500000Y-51580000D01*
X142370000Y-68850000D02*
X143500000Y-67720000D01*
X142370000Y-69800000D02*
X142370000Y-70840000D01*
X140820000Y-72390000D02*
X138430000Y-72390000D01*
X142370000Y-70840000D02*
X140820000Y-72390000D01*
X142370000Y-69800000D02*
X142370000Y-70455000D01*
X142370000Y-69800000D02*
X142325000Y-69750000D01*
D38*
X79000000Y-53000000D02*
X79588000Y-53000000D01*
X79588000Y-53000000D02*
X82296000Y-50292000D01*
X82296000Y-50292000D02*
X82296000Y-46736000D01*
X82296000Y-46736000D02*
X84557000Y-44075000D01*
X85525000Y-43875000D02*
X84557000Y-44075000D01*
X84557000Y-44075000D02*
X69750000Y-44075000D01*
X64062000Y-48175000D02*
X59237000Y-53000000D01*
X66050000Y-48175000D02*
X64062000Y-48175000D01*
X69750000Y-44075000D02*
X66050000Y-48175000D01*
X59237000Y-53000000D02*
X58762000Y-53000000D01*
X102900000Y-44175000D02*
X85525000Y-43875000D01*
X129080000Y-47000000D02*
X129080000Y-45505000D01*
X101000000Y-46475000D02*
X101000000Y-53000000D01*
X103050000Y-44025000D02*
X102900000Y-44175000D01*
X102900000Y-44175000D02*
X101000000Y-46475000D01*
X127800000Y-44225000D02*
X103050000Y-44025000D01*
X129080000Y-45505000D02*
X127800000Y-44225000D01*
X120150000Y-53150000D02*
X120000000Y-53000000D01*
X231394000Y-81694000D02*
X227506000Y-81694000D01*
X227506000Y-81694000D02*
X226800000Y-82400000D01*
D36*
X87122000Y-76454000D02*
X87122000Y-77978000D01*
X88138000Y-78994000D02*
X88138000Y-85090000D01*
X87122000Y-77978000D02*
X88138000Y-78994000D01*
X73660000Y-85090000D02*
X73660000Y-78486000D01*
X73660000Y-78486000D02*
X75438000Y-76708000D01*
X193548000Y-73914000D02*
X193802000Y-73914000D01*
X193802000Y-73914000D02*
X196342000Y-76454000D01*
X196342000Y-88258000D02*
X192800000Y-91800000D01*
X196342000Y-76454000D02*
X196342000Y-88258000D01*
X183060000Y-86000000D02*
X183060000Y-81788000D01*
X183134000Y-82042000D02*
X183134000Y-81788000D01*
X183134000Y-81862000D02*
X183134000Y-82042000D01*
X183060000Y-81788000D02*
X183134000Y-81862000D01*
X161290000Y-79248000D02*
X161290000Y-80264000D01*
X193548000Y-76962000D02*
X193548000Y-73914000D01*
X188722000Y-81788000D02*
X193548000Y-76962000D01*
X162814000Y-81788000D02*
X183134000Y-81788000D01*
X183134000Y-81788000D02*
X188722000Y-81788000D01*
X161290000Y-80264000D02*
X162814000Y-81788000D01*
X196930000Y-72898000D02*
X194564000Y-72898000D01*
X194564000Y-72898000D02*
X193548000Y-73914000D01*
X196930000Y-72898000D02*
X197358000Y-72898000D01*
X197358000Y-72898000D02*
X199390000Y-74930000D01*
X199390000Y-74930000D02*
X199390000Y-76708000D01*
X97790000Y-85090000D02*
X97790000Y-91600000D01*
X97790000Y-91600000D02*
X100584000Y-94394000D01*
X104000000Y-97000000D02*
X103190000Y-97000000D01*
X103190000Y-97000000D02*
X100584000Y-94394000D01*
X142050000Y-85900000D02*
X139572000Y-85900000D01*
X139572000Y-85900000D02*
X137842000Y-87630000D01*
X137842000Y-87630000D02*
X137842000Y-81708000D01*
X137842000Y-81708000D02*
X135636000Y-79502000D01*
X149670000Y-85900000D02*
X149670000Y-85920000D01*
X149670000Y-85920000D02*
X151200000Y-87450000D01*
X151200000Y-87450000D02*
X151200000Y-89650000D01*
X128270000Y-72390000D02*
X128270000Y-72620000D01*
X128270000Y-72620000D02*
X126290000Y-74720000D01*
X115570000Y-70870000D02*
X115570000Y-68834000D01*
X119300000Y-74720000D02*
X115570000Y-70870000D01*
X126290000Y-74720000D02*
X119300000Y-74720000D01*
X128270000Y-72390000D02*
X128270000Y-69690000D01*
X128270000Y-69690000D02*
X127880000Y-69300000D01*
X196772000Y-91772000D02*
X207000000Y-91772000D01*
X207000000Y-91772000D02*
X207000000Y-92000000D01*
X132842000Y-92202000D02*
X152654000Y-92202000D01*
X132842000Y-92202000D02*
X126746000Y-92202000D01*
D38*
X209296000Y-95504000D02*
X208280000Y-95504000D01*
D36*
X126746000Y-92202000D02*
X123190000Y-92202000D01*
X123190000Y-92202000D02*
X120142000Y-92202000D01*
X152654000Y-92202000D02*
X157988000Y-86868000D01*
X157988000Y-86868000D02*
X174244000Y-86868000D01*
X174244000Y-86868000D02*
X177800000Y-90424000D01*
X177800000Y-90424000D02*
X177800000Y-92202000D01*
X177800000Y-92202000D02*
X180848000Y-95250000D01*
X180848000Y-95250000D02*
X193294000Y-95250000D01*
X193294000Y-95250000D02*
X196772000Y-91772000D01*
X196772000Y-91772000D02*
X196850000Y-91694000D01*
D38*
X209296000Y-95504000D02*
X207504000Y-95504000D01*
X207000000Y-95000000D02*
X207000000Y-92000000D01*
X207504000Y-95504000D02*
X207000000Y-95000000D01*
X207000000Y-92000000D02*
X207000000Y-75210000D01*
X207000000Y-75210000D02*
X211950000Y-70260000D01*
D36*
X120142000Y-92202000D02*
X120142000Y-89836000D01*
X120142000Y-92202000D02*
X116078000Y-92202000D01*
X110600000Y-97680000D02*
X110600000Y-99600000D01*
X116078000Y-92202000D02*
X110600000Y-97680000D01*
D38*
X211950000Y-70752000D02*
X211950000Y-70260000D01*
D36*
X120222000Y-89836000D02*
X120142000Y-89836000D01*
X107400000Y-97000000D02*
X108000000Y-97000000D01*
X108000000Y-97000000D02*
X110600000Y-99600000D01*
X162425000Y-72525000D02*
X162052000Y-72898000D01*
X126710000Y-87950000D02*
X126710000Y-89510000D01*
X132842000Y-89058000D02*
X132842000Y-87630000D01*
X131700000Y-90200000D02*
X132842000Y-89058000D01*
X127400000Y-90200000D02*
X131700000Y-90200000D01*
X126710000Y-89510000D02*
X127400000Y-90200000D01*
X126710000Y-87950000D02*
X126710000Y-86660000D01*
X124886000Y-84836000D02*
X120142000Y-84836000D01*
X126710000Y-86660000D02*
X124886000Y-84836000D01*
X83058000Y-91440000D02*
X83058000Y-94742000D01*
X83058000Y-94742000D02*
X82296000Y-95504000D01*
X120142000Y-84836000D02*
X120650000Y-84836000D01*
X90932000Y-87376000D02*
X83058000Y-87376000D01*
X96266000Y-82042000D02*
X90932000Y-87376000D01*
X117856000Y-82042000D02*
X96266000Y-82042000D01*
X120650000Y-84836000D02*
X117856000Y-82042000D01*
X79248000Y-69596000D02*
X79248000Y-71882000D01*
X83058000Y-75692000D02*
X83058000Y-85090000D01*
X79248000Y-71882000D02*
X83058000Y-75692000D01*
X83058000Y-91440000D02*
X83058000Y-87376000D01*
X83058000Y-87376000D02*
X83058000Y-85090000D01*
X192800000Y-104500000D02*
X192800000Y-103138000D01*
X192800000Y-103138000D02*
X188862000Y-99200000D01*
X196200000Y-99200000D02*
X188862000Y-99200000D01*
X188862000Y-99200000D02*
X183880000Y-99200000D01*
X183880000Y-99200000D02*
X183080000Y-100000000D01*
X196380000Y-101800000D02*
X196380000Y-99380000D01*
X196380000Y-99380000D02*
X196200000Y-99200000D01*
X196380000Y-101800000D02*
X196380000Y-104420000D01*
X196380000Y-104420000D02*
X196200000Y-104600000D01*
X196200000Y-104600000D02*
X192900000Y-104600000D01*
X192900000Y-104600000D02*
X192800000Y-104500000D01*
D38*
X42760000Y-53000000D02*
X43000000Y-53000000D01*
X90000000Y-47000000D02*
X88000000Y-47000000D01*
X85760000Y-49240000D02*
X85760000Y-53000000D01*
X88000000Y-47000000D02*
X85760000Y-49240000D01*
X104760000Y-53000000D02*
X104760000Y-49240000D01*
X104760000Y-49240000D02*
X107000000Y-47000000D01*
D36*
X158875000Y-71900000D02*
X158875000Y-79123000D01*
X158875000Y-79123000D02*
X158750000Y-79248000D01*
X151825000Y-61100000D02*
X151825000Y-62425000D01*
X154805000Y-65405000D02*
X154805000Y-68575000D01*
X151825000Y-62425000D02*
X154805000Y-65405000D01*
X154805000Y-68575000D02*
X155375000Y-68700000D01*
X151825000Y-61100000D02*
X151875000Y-61100000D01*
X149500000Y-56400000D02*
X149850000Y-56400000D01*
X149850000Y-56400000D02*
X150650000Y-57200000D01*
X150650000Y-57200000D02*
X151825000Y-61100000D01*
X144050000Y-73950000D02*
X143980000Y-73950000D01*
X143980000Y-73950000D02*
X142340000Y-75590000D01*
X142340000Y-75590000D02*
X130636000Y-75590000D01*
X135500000Y-69300000D02*
X135500000Y-67446000D01*
X138100000Y-64846000D02*
X138100000Y-61180000D01*
X135500000Y-67446000D02*
X138100000Y-64846000D01*
X130636000Y-79502000D02*
X130636000Y-76404000D01*
X130636000Y-76404000D02*
X130636000Y-75590000D01*
X130636000Y-75590000D02*
X130636000Y-75010000D01*
X130636000Y-75010000D02*
X130636000Y-72564000D01*
X130636000Y-72564000D02*
X130810000Y-72390000D01*
X130636000Y-79502000D02*
X127762000Y-79502000D01*
X130810000Y-72136000D02*
X130810000Y-72390000D01*
X130810000Y-72644000D02*
X130810000Y-72390000D01*
X133110000Y-57150000D02*
X132910000Y-56890000D01*
X139020000Y-55390000D02*
X139500000Y-56400000D01*
X134120000Y-55390000D02*
X139020000Y-55390000D01*
X132910000Y-56890000D02*
X134120000Y-55390000D01*
X139500000Y-56400000D02*
X138900000Y-56400000D01*
X138900000Y-56400000D02*
X138100000Y-57200000D01*
X138100000Y-57200000D02*
X138100000Y-61180000D01*
X201422000Y-80264000D02*
X201422000Y-77216000D01*
X201422000Y-77216000D02*
X201930000Y-76708000D01*
X191048000Y-73914000D02*
X191048000Y-72350000D01*
X191770000Y-71628000D02*
X191770000Y-65786000D01*
X191048000Y-72350000D02*
X191770000Y-71628000D01*
X187960000Y-75438000D02*
X189524000Y-75438000D01*
X189524000Y-75438000D02*
X191048000Y-73914000D01*
X191048000Y-73914000D02*
X190039000Y-73914000D01*
X190039000Y-73914000D02*
X187825000Y-71700000D01*
D38*
X231140000Y-68580000D02*
X231140000Y-66040000D01*
X231140000Y-66040000D02*
X230632000Y-65532000D01*
D37*
X237520000Y-88000000D02*
X237520000Y-75274000D01*
X237520000Y-75274000D02*
X241554000Y-71240000D01*
X237520000Y-88000000D02*
X237520000Y-93080000D01*
X241554000Y-71240000D02*
X241554000Y-66294000D01*
X241554000Y-66294000D02*
X239522000Y-64262000D01*
D36*
X201930000Y-76708000D02*
X201930000Y-72898000D01*
X201930000Y-72898000D02*
X201930000Y-69596000D01*
X201930000Y-69596000D02*
X201676000Y-69342000D01*
X201676000Y-69342000D02*
X201676000Y-67056000D01*
X201676000Y-67056000D02*
X203454000Y-65278000D01*
D38*
X228540000Y-47000000D02*
X228540000Y-48490000D01*
X232525000Y-51050000D02*
X232525000Y-56100000D01*
X231075000Y-49600000D02*
X232525000Y-51050000D01*
X229650000Y-49600000D02*
X231075000Y-49600000D01*
X228540000Y-48490000D02*
X229650000Y-49600000D01*
X211540000Y-47000000D02*
X211540000Y-47985000D01*
X211200000Y-57175000D02*
X211100000Y-57275000D01*
X211200000Y-48325000D02*
X211200000Y-57175000D01*
X211540000Y-47985000D02*
X211200000Y-48325000D01*
X194540000Y-47000000D02*
X194540000Y-48690000D01*
X196050000Y-50650000D02*
X197050000Y-51650000D01*
X196050000Y-50200000D02*
X196050000Y-50650000D01*
X194540000Y-48690000D02*
X196050000Y-50200000D01*
D36*
X159330000Y-58800000D02*
X159875000Y-57425000D01*
X160540000Y-55610000D02*
X160540000Y-49170000D01*
X159875000Y-57425000D02*
X160540000Y-55610000D01*
D38*
X160540000Y-47000000D02*
X160540000Y-49170000D01*
X176100000Y-49950000D02*
X177540000Y-51390000D01*
X168630000Y-49950000D02*
X176100000Y-49950000D01*
X168020000Y-50560000D02*
X168630000Y-49950000D01*
X161930000Y-50560000D02*
X168020000Y-50560000D01*
X160540000Y-49170000D02*
X161930000Y-50560000D01*
X177540000Y-47000000D02*
X177540000Y-51390000D01*
X177540000Y-51390000D02*
X177540000Y-56540000D01*
X177540000Y-56540000D02*
X178000000Y-57000000D01*
X121090000Y-56380000D02*
X119000000Y-56380000D01*
X121900000Y-57190000D02*
X121090000Y-56380000D01*
X126680000Y-57190000D02*
X121900000Y-57190000D01*
X127795000Y-56075000D02*
X126680000Y-57190000D01*
D36*
X130570000Y-57150000D02*
X128870000Y-57150000D01*
X128870000Y-57150000D02*
X127795000Y-56075000D01*
D38*
X128020000Y-50860000D02*
X128020000Y-55850000D01*
X128020000Y-55850000D02*
X127795000Y-56075000D01*
X126540000Y-47000000D02*
X126540000Y-49380000D01*
X126540000Y-49380000D02*
X128020000Y-50860000D01*
D37*
X53340000Y-71628000D02*
X53340000Y-73406000D01*
X59944000Y-80010000D02*
X59944000Y-90932000D01*
X53340000Y-73406000D02*
X59944000Y-80010000D01*
X59944000Y-96012000D02*
X59944000Y-90932000D01*
D38*
X62230000Y-72898000D02*
X62230000Y-73152000D01*
X62230000Y-73152000D02*
X68580000Y-79502000D01*
X68580000Y-79502000D02*
X68580000Y-85598000D01*
X62230000Y-72898000D02*
X61722000Y-72898000D01*
X61722000Y-72898000D02*
X60960000Y-72136000D01*
X60960000Y-72136000D02*
X60960000Y-65786000D01*
D37*
X53340000Y-71628000D02*
X53340000Y-65532000D01*
D36*
X72136000Y-69596000D02*
X72136000Y-67056000D01*
X72390000Y-66802000D02*
X72390000Y-66040000D01*
X72136000Y-67056000D02*
X72390000Y-66802000D01*
X84328000Y-69596000D02*
X84328000Y-67818000D01*
X83566000Y-67056000D02*
X83566000Y-66548000D01*
X84328000Y-67818000D02*
X83566000Y-67056000D01*
X87122000Y-68834000D02*
X87122000Y-66294000D01*
X87122000Y-66294000D02*
X87376000Y-66040000D01*
X75438000Y-69088000D02*
X75438000Y-66040000D01*
X75438000Y-66040000D02*
X75184000Y-65786000D01*
X90424000Y-69850000D02*
X90424000Y-66802000D01*
X108966000Y-68834000D02*
X108966000Y-70866000D01*
X102616000Y-70866000D02*
X102616000Y-66294000D01*
X104140000Y-72390000D02*
X102616000Y-70866000D01*
X107442000Y-72390000D02*
X104140000Y-72390000D01*
X108966000Y-70866000D02*
X107442000Y-72390000D01*
X112268000Y-68834000D02*
X108966000Y-68834000D01*
D38*
X58540000Y-47000000D02*
X58540000Y-48160000D01*
X54975000Y-49725000D02*
X53525000Y-51175000D01*
X56975000Y-49725000D02*
X54975000Y-49725000D01*
X58540000Y-48160000D02*
X56975000Y-49725000D01*
X109540000Y-47000000D02*
X109540000Y-51460000D01*
X109540000Y-51460000D02*
X109000000Y-52000000D01*
X75540000Y-47000000D02*
X75540000Y-49460000D01*
X69000000Y-52000000D02*
X68000000Y-53000000D01*
X73000000Y-52000000D02*
X69000000Y-52000000D01*
X75540000Y-49460000D02*
X73000000Y-52000000D01*
X92540000Y-47000000D02*
X92540000Y-53460000D01*
X92540000Y-53460000D02*
X92000000Y-54000000D01*
D36*
X112268000Y-76454000D02*
X123024000Y-76454000D01*
X125222000Y-78652000D02*
X125222000Y-79502000D01*
X123024000Y-76454000D02*
X125222000Y-78652000D01*
X125222000Y-79502000D02*
X125222000Y-81022000D01*
X129250000Y-85050000D02*
X129250000Y-87950000D01*
X125222000Y-81022000D02*
X129250000Y-85050000D01*
X180340000Y-75438000D02*
X176276000Y-75438000D01*
X172466000Y-79248000D02*
X163830000Y-79248000D01*
X176276000Y-75438000D02*
X172466000Y-79248000D01*
X154250000Y-58800000D02*
X154250000Y-58350000D01*
X154250000Y-58350000D02*
X158000000Y-53700000D01*
X158000000Y-53700000D02*
X158000000Y-47000000D01*
D39*
G36*
X241675000Y-52731980D02*
X241675000Y-59075000D01*
X241846271Y-59936038D01*
X242334010Y-60665990D01*
X243259010Y-61590991D01*
X243275148Y-61601774D01*
X243286201Y-61617724D01*
X243639508Y-61845231D01*
X243988963Y-62078730D01*
X244007998Y-62082516D01*
X244024313Y-62093022D01*
X244437798Y-62168008D01*
X244850000Y-62250000D01*
X244869034Y-62246214D01*
X244888130Y-62249677D01*
X248502647Y-62188414D01*
X248405021Y-67000000D01*
X231799584Y-67000000D01*
X231375907Y-66576323D01*
X231140000Y-66812230D01*
X230904093Y-66576323D01*
X230480416Y-67000000D01*
X223506538Y-67000000D01*
X223247473Y-66892427D01*
X222272803Y-66891576D01*
X222010397Y-67000000D01*
X195316430Y-67000000D01*
X195156000Y-66967512D01*
X192956000Y-66967512D01*
X192783341Y-67000000D01*
X171074313Y-67000000D01*
X170927847Y-66899924D01*
X170432000Y-66799512D01*
X168912000Y-66799512D01*
X168448778Y-66886673D01*
X168272663Y-67000000D01*
X167956579Y-67000000D01*
X167905554Y-66978813D01*
X168006794Y-61989123D01*
X168693972Y-62448281D01*
X169708083Y-62650000D01*
X169811917Y-62650000D01*
X170826028Y-62448281D01*
X171685750Y-61873833D01*
X172260198Y-61014111D01*
X172357526Y-60524805D01*
X182349541Y-60524805D01*
X182752129Y-61499144D01*
X183496935Y-62245251D01*
X184470570Y-62649539D01*
X185524805Y-62650459D01*
X186499144Y-62247871D01*
X186937651Y-61810129D01*
X187031047Y-62279663D01*
X187475431Y-62944731D01*
X188140499Y-63389115D01*
X188925000Y-63545162D01*
X189709501Y-63389115D01*
X190374569Y-62944731D01*
X190818953Y-62279663D01*
X190915221Y-61795693D01*
X191034250Y-61973833D01*
X191893972Y-62548281D01*
X192908083Y-62750000D01*
X193011917Y-62750000D01*
X194026028Y-62548281D01*
X194885750Y-61973833D01*
X195460198Y-61114111D01*
X195557526Y-60624805D01*
X205549541Y-60624805D01*
X205952129Y-61599144D01*
X206696935Y-62345251D01*
X207670570Y-62749539D01*
X208724805Y-62750459D01*
X209699144Y-62347871D01*
X210445251Y-61603065D01*
X210849539Y-60629430D01*
X210850110Y-59975000D01*
X211508083Y-59975000D01*
X211709802Y-60989111D01*
X212284250Y-61848833D01*
X213143972Y-62423281D01*
X214158083Y-62625000D01*
X214261917Y-62625000D01*
X215276028Y-62423281D01*
X216135750Y-61848833D01*
X216710198Y-60989111D01*
X216807526Y-60499805D01*
X226799541Y-60499805D01*
X227202129Y-61474144D01*
X227946935Y-62220251D01*
X228920570Y-62624539D01*
X229974805Y-62625459D01*
X230949144Y-62222871D01*
X231695251Y-61478065D01*
X232099539Y-60504430D01*
X232100066Y-59900000D01*
X232808083Y-59900000D01*
X233009802Y-60914111D01*
X233584250Y-61773833D01*
X234443972Y-62348281D01*
X235458083Y-62550000D01*
X235561917Y-62550000D01*
X236576028Y-62348281D01*
X237435750Y-61773833D01*
X238010198Y-60914111D01*
X238211917Y-59900000D01*
X238010198Y-58885889D01*
X237435750Y-58026167D01*
X236576028Y-57451719D01*
X235561917Y-57250000D01*
X235458083Y-57250000D01*
X234443972Y-57451719D01*
X233584250Y-58026167D01*
X233009802Y-58885889D01*
X232808083Y-59900000D01*
X232100066Y-59900000D01*
X232100459Y-59450195D01*
X231697871Y-58475856D01*
X230953065Y-57729749D01*
X229979430Y-57325461D01*
X228925195Y-57324541D01*
X227950856Y-57727129D01*
X227204749Y-58471935D01*
X226800461Y-59445570D01*
X226799541Y-60499805D01*
X216807526Y-60499805D01*
X216911917Y-59975000D01*
X216710198Y-58960889D01*
X216135750Y-58101167D01*
X215276028Y-57526719D01*
X214261917Y-57325000D01*
X214158083Y-57325000D01*
X213143972Y-57526719D01*
X212284250Y-58101167D01*
X211709802Y-58960889D01*
X211508083Y-59975000D01*
X210850110Y-59975000D01*
X210850459Y-59575195D01*
X210447871Y-58600856D01*
X209703065Y-57854749D01*
X208729430Y-57450461D01*
X207675195Y-57449541D01*
X206700856Y-57852129D01*
X205954749Y-58596935D01*
X205550461Y-59570570D01*
X205549541Y-60624805D01*
X195557526Y-60624805D01*
X195661917Y-60100000D01*
X195460198Y-59085889D01*
X194885750Y-58226167D01*
X194026028Y-57651719D01*
X193011917Y-57450000D01*
X192908083Y-57450000D01*
X191893972Y-57651719D01*
X191034250Y-58226167D01*
X190459802Y-59085889D01*
X190295404Y-59912373D01*
X189709501Y-59520885D01*
X188925000Y-59364838D01*
X188140499Y-59520885D01*
X187650133Y-59848537D01*
X187650459Y-59475195D01*
X187247871Y-58500856D01*
X186503065Y-57754749D01*
X185529430Y-57350461D01*
X184475195Y-57349541D01*
X183500856Y-57752129D01*
X182754749Y-58496935D01*
X182350461Y-59470570D01*
X182349541Y-60524805D01*
X172357526Y-60524805D01*
X172461917Y-60000000D01*
X172260198Y-58985889D01*
X171685750Y-58126167D01*
X170826028Y-57551719D01*
X169811917Y-57350000D01*
X169708083Y-57350000D01*
X168693972Y-57551719D01*
X168088621Y-57956201D01*
X168187436Y-53086000D01*
X169460002Y-53086000D01*
X169646497Y-54023574D01*
X170177590Y-54818412D01*
X170972428Y-55349505D01*
X171910002Y-55536000D01*
X172005998Y-55536000D01*
X172943572Y-55349505D01*
X173738410Y-54818412D01*
X174269503Y-54023574D01*
X174359486Y-53571197D01*
X184747576Y-53571197D01*
X185119780Y-54472000D01*
X185808375Y-55161798D01*
X186708527Y-55535573D01*
X187683197Y-55536424D01*
X188584000Y-55164220D01*
X189273798Y-54475625D01*
X189647573Y-53575473D01*
X189648000Y-53086000D01*
X190542002Y-53086000D01*
X190728497Y-54023574D01*
X191259590Y-54818412D01*
X192054428Y-55349505D01*
X192992002Y-55536000D01*
X193087998Y-55536000D01*
X194025572Y-55349505D01*
X194820410Y-54818412D01*
X195351503Y-54023574D01*
X195441486Y-53571197D01*
X205829576Y-53571197D01*
X206201780Y-54472000D01*
X206890375Y-55161798D01*
X207790527Y-55535573D01*
X208765197Y-55536424D01*
X209666000Y-55164220D01*
X210355798Y-54475625D01*
X210729573Y-53575473D01*
X210729778Y-53340000D01*
X211624002Y-53340000D01*
X211810497Y-54277574D01*
X212341590Y-55072412D01*
X213136428Y-55603505D01*
X214074002Y-55790000D01*
X214169998Y-55790000D01*
X215107572Y-55603505D01*
X215902410Y-55072412D01*
X216433503Y-54277574D01*
X216523486Y-53825197D01*
X226911576Y-53825197D01*
X227283780Y-54726000D01*
X227972375Y-55415798D01*
X228872527Y-55789573D01*
X229847197Y-55790424D01*
X230748000Y-55418220D01*
X231437798Y-54729625D01*
X231811573Y-53829473D01*
X231812000Y-53340000D01*
X233214002Y-53340000D01*
X233400497Y-54277574D01*
X233931590Y-55072412D01*
X234726428Y-55603505D01*
X235664002Y-55790000D01*
X235759998Y-55790000D01*
X236697572Y-55603505D01*
X237492410Y-55072412D01*
X238023503Y-54277574D01*
X238209998Y-53340000D01*
X238023503Y-52402426D01*
X237492410Y-51607588D01*
X236697572Y-51076495D01*
X235759998Y-50890000D01*
X235664002Y-50890000D01*
X234726428Y-51076495D01*
X233931590Y-51607588D01*
X233400497Y-52402426D01*
X233214002Y-53340000D01*
X231812000Y-53340000D01*
X231812424Y-52854803D01*
X231440220Y-51954000D01*
X230751625Y-51264202D01*
X229851473Y-50890427D01*
X228876803Y-50889576D01*
X227976000Y-51261780D01*
X227286202Y-51950375D01*
X226912427Y-52850527D01*
X226911576Y-53825197D01*
X216523486Y-53825197D01*
X216619998Y-53340000D01*
X216433503Y-52402426D01*
X215902410Y-51607588D01*
X215107572Y-51076495D01*
X214169998Y-50890000D01*
X214074002Y-50890000D01*
X213136428Y-51076495D01*
X212341590Y-51607588D01*
X211810497Y-52402426D01*
X211624002Y-53340000D01*
X210729778Y-53340000D01*
X210730424Y-52600803D01*
X210358220Y-51700000D01*
X209669625Y-51010202D01*
X208769473Y-50636427D01*
X207794803Y-50635576D01*
X206894000Y-51007780D01*
X206204202Y-51696375D01*
X205830427Y-52596527D01*
X205829576Y-53571197D01*
X195441486Y-53571197D01*
X195537998Y-53086000D01*
X195351503Y-52148426D01*
X194820410Y-51353588D01*
X194025572Y-50822495D01*
X193087998Y-50636000D01*
X192992002Y-50636000D01*
X192054428Y-50822495D01*
X191259590Y-51353588D01*
X190728497Y-52148426D01*
X190542002Y-53086000D01*
X189648000Y-53086000D01*
X189648424Y-52600803D01*
X189276220Y-51700000D01*
X188587625Y-51010202D01*
X187687473Y-50636427D01*
X186712803Y-50635576D01*
X185812000Y-51007780D01*
X185122202Y-51696375D01*
X184748427Y-52596527D01*
X184747576Y-53571197D01*
X174359486Y-53571197D01*
X174455998Y-53086000D01*
X174269503Y-52148426D01*
X173738410Y-51353588D01*
X172943572Y-50822495D01*
X172005998Y-50636000D01*
X171910002Y-50636000D01*
X170972428Y-50822495D01*
X170177590Y-51353588D01*
X169646497Y-52148426D01*
X169460002Y-53086000D01*
X168187436Y-53086000D01*
X168244979Y-50250000D01*
X239193020Y-50250000D01*
X241675000Y-52731980D01*
X241675000Y-52731980D01*
G37*
X241675000Y-52731980D02*
X241675000Y-59075000D01*
X241846271Y-59936038D01*
X242334010Y-60665990D01*
X243259010Y-61590991D01*
X243275148Y-61601774D01*
X243286201Y-61617724D01*
X243639508Y-61845231D01*
X243988963Y-62078730D01*
X244007998Y-62082516D01*
X244024313Y-62093022D01*
X244437798Y-62168008D01*
X244850000Y-62250000D01*
X244869034Y-62246214D01*
X244888130Y-62249677D01*
X248502647Y-62188414D01*
X248405021Y-67000000D01*
X231799584Y-67000000D01*
X231375907Y-66576323D01*
X231140000Y-66812230D01*
X230904093Y-66576323D01*
X230480416Y-67000000D01*
X223506538Y-67000000D01*
X223247473Y-66892427D01*
X222272803Y-66891576D01*
X222010397Y-67000000D01*
X195316430Y-67000000D01*
X195156000Y-66967512D01*
X192956000Y-66967512D01*
X192783341Y-67000000D01*
X171074313Y-67000000D01*
X170927847Y-66899924D01*
X170432000Y-66799512D01*
X168912000Y-66799512D01*
X168448778Y-66886673D01*
X168272663Y-67000000D01*
X167956579Y-67000000D01*
X167905554Y-66978813D01*
X168006794Y-61989123D01*
X168693972Y-62448281D01*
X169708083Y-62650000D01*
X169811917Y-62650000D01*
X170826028Y-62448281D01*
X171685750Y-61873833D01*
X172260198Y-61014111D01*
X172357526Y-60524805D01*
X182349541Y-60524805D01*
X182752129Y-61499144D01*
X183496935Y-62245251D01*
X184470570Y-62649539D01*
X185524805Y-62650459D01*
X186499144Y-62247871D01*
X186937651Y-61810129D01*
X187031047Y-62279663D01*
X187475431Y-62944731D01*
X188140499Y-63389115D01*
X188925000Y-63545162D01*
X189709501Y-63389115D01*
X190374569Y-62944731D01*
X190818953Y-62279663D01*
X190915221Y-61795693D01*
X191034250Y-61973833D01*
X191893972Y-62548281D01*
X192908083Y-62750000D01*
X193011917Y-62750000D01*
X194026028Y-62548281D01*
X194885750Y-61973833D01*
X195460198Y-61114111D01*
X195557526Y-60624805D01*
X205549541Y-60624805D01*
X205952129Y-61599144D01*
X206696935Y-62345251D01*
X207670570Y-62749539D01*
X208724805Y-62750459D01*
X209699144Y-62347871D01*
X210445251Y-61603065D01*
X210849539Y-60629430D01*
X210850110Y-59975000D01*
X211508083Y-59975000D01*
X211709802Y-60989111D01*
X212284250Y-61848833D01*
X213143972Y-62423281D01*
X214158083Y-62625000D01*
X214261917Y-62625000D01*
X215276028Y-62423281D01*
X216135750Y-61848833D01*
X216710198Y-60989111D01*
X216807526Y-60499805D01*
X226799541Y-60499805D01*
X227202129Y-61474144D01*
X227946935Y-62220251D01*
X228920570Y-62624539D01*
X229974805Y-62625459D01*
X230949144Y-62222871D01*
X231695251Y-61478065D01*
X232099539Y-60504430D01*
X232100066Y-59900000D01*
X232808083Y-59900000D01*
X233009802Y-60914111D01*
X233584250Y-61773833D01*
X234443972Y-62348281D01*
X235458083Y-62550000D01*
X235561917Y-62550000D01*
X236576028Y-62348281D01*
X237435750Y-61773833D01*
X238010198Y-60914111D01*
X238211917Y-59900000D01*
X238010198Y-58885889D01*
X237435750Y-58026167D01*
X236576028Y-57451719D01*
X235561917Y-57250000D01*
X235458083Y-57250000D01*
X234443972Y-57451719D01*
X233584250Y-58026167D01*
X233009802Y-58885889D01*
X232808083Y-59900000D01*
X232100066Y-59900000D01*
X232100459Y-59450195D01*
X231697871Y-58475856D01*
X230953065Y-57729749D01*
X229979430Y-57325461D01*
X228925195Y-57324541D01*
X227950856Y-57727129D01*
X227204749Y-58471935D01*
X226800461Y-59445570D01*
X226799541Y-60499805D01*
X216807526Y-60499805D01*
X216911917Y-59975000D01*
X216710198Y-58960889D01*
X216135750Y-58101167D01*
X215276028Y-57526719D01*
X214261917Y-57325000D01*
X214158083Y-57325000D01*
X213143972Y-57526719D01*
X212284250Y-58101167D01*
X211709802Y-58960889D01*
X211508083Y-59975000D01*
X210850110Y-59975000D01*
X210850459Y-59575195D01*
X210447871Y-58600856D01*
X209703065Y-57854749D01*
X208729430Y-57450461D01*
X207675195Y-57449541D01*
X206700856Y-57852129D01*
X205954749Y-58596935D01*
X205550461Y-59570570D01*
X205549541Y-60624805D01*
X195557526Y-60624805D01*
X195661917Y-60100000D01*
X195460198Y-59085889D01*
X194885750Y-58226167D01*
X194026028Y-57651719D01*
X193011917Y-57450000D01*
X192908083Y-57450000D01*
X191893972Y-57651719D01*
X191034250Y-58226167D01*
X190459802Y-59085889D01*
X190295404Y-59912373D01*
X189709501Y-59520885D01*
X188925000Y-59364838D01*
X188140499Y-59520885D01*
X187650133Y-59848537D01*
X187650459Y-59475195D01*
X187247871Y-58500856D01*
X186503065Y-57754749D01*
X185529430Y-57350461D01*
X184475195Y-57349541D01*
X183500856Y-57752129D01*
X182754749Y-58496935D01*
X182350461Y-59470570D01*
X182349541Y-60524805D01*
X172357526Y-60524805D01*
X172461917Y-60000000D01*
X172260198Y-58985889D01*
X171685750Y-58126167D01*
X170826028Y-57551719D01*
X169811917Y-57350000D01*
X169708083Y-57350000D01*
X168693972Y-57551719D01*
X168088621Y-57956201D01*
X168187436Y-53086000D01*
X169460002Y-53086000D01*
X169646497Y-54023574D01*
X170177590Y-54818412D01*
X170972428Y-55349505D01*
X171910002Y-55536000D01*
X172005998Y-55536000D01*
X172943572Y-55349505D01*
X173738410Y-54818412D01*
X174269503Y-54023574D01*
X174359486Y-53571197D01*
X184747576Y-53571197D01*
X185119780Y-54472000D01*
X185808375Y-55161798D01*
X186708527Y-55535573D01*
X187683197Y-55536424D01*
X188584000Y-55164220D01*
X189273798Y-54475625D01*
X189647573Y-53575473D01*
X189648000Y-53086000D01*
X190542002Y-53086000D01*
X190728497Y-54023574D01*
X191259590Y-54818412D01*
X192054428Y-55349505D01*
X192992002Y-55536000D01*
X193087998Y-55536000D01*
X194025572Y-55349505D01*
X194820410Y-54818412D01*
X195351503Y-54023574D01*
X195441486Y-53571197D01*
X205829576Y-53571197D01*
X206201780Y-54472000D01*
X206890375Y-55161798D01*
X207790527Y-55535573D01*
X208765197Y-55536424D01*
X209666000Y-55164220D01*
X210355798Y-54475625D01*
X210729573Y-53575473D01*
X210729778Y-53340000D01*
X211624002Y-53340000D01*
X211810497Y-54277574D01*
X212341590Y-55072412D01*
X213136428Y-55603505D01*
X214074002Y-55790000D01*
X214169998Y-55790000D01*
X215107572Y-55603505D01*
X215902410Y-55072412D01*
X216433503Y-54277574D01*
X216523486Y-53825197D01*
X226911576Y-53825197D01*
X227283780Y-54726000D01*
X227972375Y-55415798D01*
X228872527Y-55789573D01*
X229847197Y-55790424D01*
X230748000Y-55418220D01*
X231437798Y-54729625D01*
X231811573Y-53829473D01*
X231812000Y-53340000D01*
X233214002Y-53340000D01*
X233400497Y-54277574D01*
X233931590Y-55072412D01*
X234726428Y-55603505D01*
X235664002Y-55790000D01*
X235759998Y-55790000D01*
X236697572Y-55603505D01*
X237492410Y-55072412D01*
X238023503Y-54277574D01*
X238209998Y-53340000D01*
X238023503Y-52402426D01*
X237492410Y-51607588D01*
X236697572Y-51076495D01*
X235759998Y-50890000D01*
X235664002Y-50890000D01*
X234726428Y-51076495D01*
X233931590Y-51607588D01*
X233400497Y-52402426D01*
X233214002Y-53340000D01*
X231812000Y-53340000D01*
X231812424Y-52854803D01*
X231440220Y-51954000D01*
X230751625Y-51264202D01*
X229851473Y-50890427D01*
X228876803Y-50889576D01*
X227976000Y-51261780D01*
X227286202Y-51950375D01*
X226912427Y-52850527D01*
X226911576Y-53825197D01*
X216523486Y-53825197D01*
X216619998Y-53340000D01*
X216433503Y-52402426D01*
X215902410Y-51607588D01*
X215107572Y-51076495D01*
X214169998Y-50890000D01*
X214074002Y-50890000D01*
X213136428Y-51076495D01*
X212341590Y-51607588D01*
X211810497Y-52402426D01*
X211624002Y-53340000D01*
X210729778Y-53340000D01*
X210730424Y-52600803D01*
X210358220Y-51700000D01*
X209669625Y-51010202D01*
X208769473Y-50636427D01*
X207794803Y-50635576D01*
X206894000Y-51007780D01*
X206204202Y-51696375D01*
X205830427Y-52596527D01*
X205829576Y-53571197D01*
X195441486Y-53571197D01*
X195537998Y-53086000D01*
X195351503Y-52148426D01*
X194820410Y-51353588D01*
X194025572Y-50822495D01*
X193087998Y-50636000D01*
X192992002Y-50636000D01*
X192054428Y-50822495D01*
X191259590Y-51353588D01*
X190728497Y-52148426D01*
X190542002Y-53086000D01*
X189648000Y-53086000D01*
X189648424Y-52600803D01*
X189276220Y-51700000D01*
X188587625Y-51010202D01*
X187687473Y-50636427D01*
X186712803Y-50635576D01*
X185812000Y-51007780D01*
X185122202Y-51696375D01*
X184748427Y-52596527D01*
X184747576Y-53571197D01*
X174359486Y-53571197D01*
X174455998Y-53086000D01*
X174269503Y-52148426D01*
X173738410Y-51353588D01*
X172943572Y-50822495D01*
X172005998Y-50636000D01*
X171910002Y-50636000D01*
X170972428Y-50822495D01*
X170177590Y-51353588D01*
X169646497Y-52148426D01*
X169460002Y-53086000D01*
X168187436Y-53086000D01*
X168244979Y-50250000D01*
X239193020Y-50250000D01*
X241675000Y-52731980D01*
G36*
X121761264Y-51296490D02*
X121389625Y-50924202D01*
X120489473Y-50550427D01*
X119514803Y-50549576D01*
X118614000Y-50921780D01*
X117924202Y-51610375D01*
X117550427Y-52510527D01*
X117549576Y-53485197D01*
X117921780Y-54386000D01*
X118610375Y-55075798D01*
X119510527Y-55449573D01*
X120485197Y-55450424D01*
X121386000Y-55078220D01*
X121689060Y-54775689D01*
X121740990Y-54740990D01*
X121775385Y-54689514D01*
X121790636Y-54674289D01*
X121832148Y-59448154D01*
X121740198Y-58985889D01*
X121165750Y-58126167D01*
X120306028Y-57551719D01*
X119291917Y-57350000D01*
X119188083Y-57350000D01*
X118173972Y-57551719D01*
X117314250Y-58126167D01*
X116739802Y-58985889D01*
X116538083Y-60000000D01*
X116739802Y-61014111D01*
X117314250Y-61873833D01*
X118173972Y-62448281D01*
X119188083Y-62650000D01*
X119291917Y-62650000D01*
X120306028Y-62448281D01*
X121165750Y-61873833D01*
X121740198Y-61014111D01*
X121841343Y-60505618D01*
X121879555Y-64900000D01*
X121550000Y-64900000D01*
X120880304Y-65033211D01*
X120312563Y-65412563D01*
X119469653Y-66255473D01*
X119347437Y-66072563D01*
X118331437Y-65056563D01*
X117763696Y-64677211D01*
X117094000Y-64544000D01*
X107696000Y-64544000D01*
X107026304Y-64677211D01*
X106458563Y-65056563D01*
X104484450Y-67030676D01*
X41777832Y-67139569D01*
X41728283Y-61441432D01*
X41752129Y-61499144D01*
X42496935Y-62245251D01*
X43470570Y-62649539D01*
X44524805Y-62650459D01*
X45499144Y-62247871D01*
X46245251Y-61503065D01*
X46649539Y-60529430D01*
X46650001Y-60000000D01*
X56538083Y-60000000D01*
X56739802Y-61014111D01*
X57314250Y-61873833D01*
X58173972Y-62448281D01*
X59188083Y-62650000D01*
X59291917Y-62650000D01*
X60306028Y-62448281D01*
X61165750Y-61873833D01*
X61623736Y-61188409D01*
X61752129Y-61499144D01*
X62496935Y-62245251D01*
X63470570Y-62649539D01*
X64524805Y-62650459D01*
X65499144Y-62247871D01*
X66245251Y-61503065D01*
X66649539Y-60529430D01*
X66650001Y-60000000D01*
X76538083Y-60000000D01*
X76739802Y-61014111D01*
X77314250Y-61873833D01*
X78173972Y-62448281D01*
X79188083Y-62650000D01*
X79291917Y-62650000D01*
X80306028Y-62448281D01*
X81165750Y-61873833D01*
X81623736Y-61188409D01*
X81752129Y-61499144D01*
X82496935Y-62245251D01*
X83470570Y-62649539D01*
X84524805Y-62650459D01*
X85499144Y-62247871D01*
X86245251Y-61503065D01*
X86649539Y-60529430D01*
X86650001Y-60000000D01*
X96538083Y-60000000D01*
X96739802Y-61014111D01*
X97314250Y-61873833D01*
X98173972Y-62448281D01*
X99188083Y-62650000D01*
X99291917Y-62650000D01*
X100306028Y-62448281D01*
X101165750Y-61873833D01*
X101623736Y-61188409D01*
X101752129Y-61499144D01*
X102496935Y-62245251D01*
X103470570Y-62649539D01*
X104524805Y-62650459D01*
X105499144Y-62247871D01*
X106245251Y-61503065D01*
X106649539Y-60529430D01*
X106650459Y-59475195D01*
X106247871Y-58500856D01*
X105503065Y-57754749D01*
X104529430Y-57350461D01*
X103475195Y-57349541D01*
X102500856Y-57752129D01*
X101754749Y-58496935D01*
X101623956Y-58811920D01*
X101165750Y-58126167D01*
X100306028Y-57551719D01*
X99291917Y-57350000D01*
X99188083Y-57350000D01*
X98173972Y-57551719D01*
X97314250Y-58126167D01*
X96739802Y-58985889D01*
X96538083Y-60000000D01*
X86650001Y-60000000D01*
X86650459Y-59475195D01*
X86247871Y-58500856D01*
X85503065Y-57754749D01*
X84529430Y-57350461D01*
X83475195Y-57349541D01*
X82500856Y-57752129D01*
X81754749Y-58496935D01*
X81623956Y-58811920D01*
X81165750Y-58126167D01*
X80306028Y-57551719D01*
X79291917Y-57350000D01*
X79188083Y-57350000D01*
X78173972Y-57551719D01*
X77314250Y-58126167D01*
X76739802Y-58985889D01*
X76538083Y-60000000D01*
X66650001Y-60000000D01*
X66650459Y-59475195D01*
X66247871Y-58500856D01*
X65503065Y-57754749D01*
X64529430Y-57350461D01*
X63475195Y-57349541D01*
X62500856Y-57752129D01*
X61754749Y-58496935D01*
X61623956Y-58811920D01*
X61165750Y-58126167D01*
X60306028Y-57551719D01*
X59291917Y-57350000D01*
X59188083Y-57350000D01*
X58173972Y-57551719D01*
X57314250Y-58126167D01*
X56739802Y-58985889D01*
X56538083Y-60000000D01*
X46650001Y-60000000D01*
X46650459Y-59475195D01*
X46247871Y-58500856D01*
X45503065Y-57754749D01*
X44529430Y-57350461D01*
X43475195Y-57349541D01*
X42500856Y-57752129D01*
X41754749Y-58496935D01*
X41703747Y-58619762D01*
X41673978Y-55196387D01*
X41774428Y-55263505D01*
X42712002Y-55450000D01*
X42807998Y-55450000D01*
X43745572Y-55263505D01*
X44540410Y-54732412D01*
X45071503Y-53937574D01*
X45257998Y-53000000D01*
X45071503Y-52062426D01*
X44540410Y-51267588D01*
X43745572Y-50736495D01*
X42807998Y-50550000D01*
X42712002Y-50550000D01*
X41774428Y-50736495D01*
X41636001Y-50828989D01*
X41632180Y-50389563D01*
X58695087Y-50359932D01*
X58500157Y-50554863D01*
X58489473Y-50550427D01*
X57514803Y-50549576D01*
X56614000Y-50921780D01*
X55924202Y-51610375D01*
X55550427Y-52510527D01*
X55549576Y-53485197D01*
X55921780Y-54386000D01*
X56610375Y-55075798D01*
X57510527Y-55449573D01*
X58485197Y-55450424D01*
X58970260Y-55250000D01*
X59237000Y-55250000D01*
X60098038Y-55078729D01*
X60827990Y-54590990D01*
X61461679Y-53957302D01*
X61979590Y-54732412D01*
X62774428Y-55263505D01*
X63712002Y-55450000D01*
X63807998Y-55450000D01*
X64745572Y-55263505D01*
X65540410Y-54732412D01*
X66071503Y-53937574D01*
X66257998Y-53000000D01*
X66071503Y-52062426D01*
X65540410Y-51267588D01*
X64745572Y-50736495D01*
X64692952Y-50726028D01*
X64993981Y-50425000D01*
X66050000Y-50425000D01*
X66107363Y-50413590D01*
X66165233Y-50422047D01*
X66464340Y-50346441D01*
X79081489Y-50324531D01*
X78856146Y-50549874D01*
X78514803Y-50549576D01*
X77614000Y-50921780D01*
X76924202Y-51610375D01*
X76550427Y-52510527D01*
X76549576Y-53485197D01*
X76921780Y-54386000D01*
X77610375Y-55075798D01*
X78510527Y-55449573D01*
X79485197Y-55450424D01*
X80325107Y-55103380D01*
X80449038Y-55078729D01*
X81178990Y-54590990D01*
X83384172Y-52385808D01*
X83262002Y-53000000D01*
X83448497Y-53937574D01*
X83979590Y-54732412D01*
X84774428Y-55263505D01*
X85712002Y-55450000D01*
X85807998Y-55450000D01*
X86745572Y-55263505D01*
X87540410Y-54732412D01*
X88071503Y-53937574D01*
X88257998Y-53000000D01*
X88071503Y-52062426D01*
X88010000Y-51970380D01*
X88010000Y-50309026D01*
X98750000Y-50290375D01*
X98750000Y-52029901D01*
X98550427Y-52510527D01*
X98549576Y-53485197D01*
X98921780Y-54386000D01*
X99610375Y-55075798D01*
X100510527Y-55449573D01*
X101485197Y-55450424D01*
X102386000Y-55078220D01*
X102880688Y-54584395D01*
X102979590Y-54732412D01*
X103774428Y-55263505D01*
X104712002Y-55450000D01*
X104807998Y-55450000D01*
X105745572Y-55263505D01*
X106540410Y-54732412D01*
X107071503Y-53937574D01*
X107257998Y-53000000D01*
X107071503Y-52062426D01*
X107010000Y-51970380D01*
X107010000Y-50276031D01*
X121752168Y-50250431D01*
X121761264Y-51296490D01*
X121761264Y-51296490D01*
G37*
X121761264Y-51296490D02*
X121389625Y-50924202D01*
X120489473Y-50550427D01*
X119514803Y-50549576D01*
X118614000Y-50921780D01*
X117924202Y-51610375D01*
X117550427Y-52510527D01*
X117549576Y-53485197D01*
X117921780Y-54386000D01*
X118610375Y-55075798D01*
X119510527Y-55449573D01*
X120485197Y-55450424D01*
X121386000Y-55078220D01*
X121689060Y-54775689D01*
X121740990Y-54740990D01*
X121775385Y-54689514D01*
X121790636Y-54674289D01*
X121832148Y-59448154D01*
X121740198Y-58985889D01*
X121165750Y-58126167D01*
X120306028Y-57551719D01*
X119291917Y-57350000D01*
X119188083Y-57350000D01*
X118173972Y-57551719D01*
X117314250Y-58126167D01*
X116739802Y-58985889D01*
X116538083Y-60000000D01*
X116739802Y-61014111D01*
X117314250Y-61873833D01*
X118173972Y-62448281D01*
X119188083Y-62650000D01*
X119291917Y-62650000D01*
X120306028Y-62448281D01*
X121165750Y-61873833D01*
X121740198Y-61014111D01*
X121841343Y-60505618D01*
X121879555Y-64900000D01*
X121550000Y-64900000D01*
X120880304Y-65033211D01*
X120312563Y-65412563D01*
X119469653Y-66255473D01*
X119347437Y-66072563D01*
X118331437Y-65056563D01*
X117763696Y-64677211D01*
X117094000Y-64544000D01*
X107696000Y-64544000D01*
X107026304Y-64677211D01*
X106458563Y-65056563D01*
X104484450Y-67030676D01*
X41777832Y-67139569D01*
X41728283Y-61441432D01*
X41752129Y-61499144D01*
X42496935Y-62245251D01*
X43470570Y-62649539D01*
X44524805Y-62650459D01*
X45499144Y-62247871D01*
X46245251Y-61503065D01*
X46649539Y-60529430D01*
X46650001Y-60000000D01*
X56538083Y-60000000D01*
X56739802Y-61014111D01*
X57314250Y-61873833D01*
X58173972Y-62448281D01*
X59188083Y-62650000D01*
X59291917Y-62650000D01*
X60306028Y-62448281D01*
X61165750Y-61873833D01*
X61623736Y-61188409D01*
X61752129Y-61499144D01*
X62496935Y-62245251D01*
X63470570Y-62649539D01*
X64524805Y-62650459D01*
X65499144Y-62247871D01*
X66245251Y-61503065D01*
X66649539Y-60529430D01*
X66650001Y-60000000D01*
X76538083Y-60000000D01*
X76739802Y-61014111D01*
X77314250Y-61873833D01*
X78173972Y-62448281D01*
X79188083Y-62650000D01*
X79291917Y-62650000D01*
X80306028Y-62448281D01*
X81165750Y-61873833D01*
X81623736Y-61188409D01*
X81752129Y-61499144D01*
X82496935Y-62245251D01*
X83470570Y-62649539D01*
X84524805Y-62650459D01*
X85499144Y-62247871D01*
X86245251Y-61503065D01*
X86649539Y-60529430D01*
X86650001Y-60000000D01*
X96538083Y-60000000D01*
X96739802Y-61014111D01*
X97314250Y-61873833D01*
X98173972Y-62448281D01*
X99188083Y-62650000D01*
X99291917Y-62650000D01*
X100306028Y-62448281D01*
X101165750Y-61873833D01*
X101623736Y-61188409D01*
X101752129Y-61499144D01*
X102496935Y-62245251D01*
X103470570Y-62649539D01*
X104524805Y-62650459D01*
X105499144Y-62247871D01*
X106245251Y-61503065D01*
X106649539Y-60529430D01*
X106650459Y-59475195D01*
X106247871Y-58500856D01*
X105503065Y-57754749D01*
X104529430Y-57350461D01*
X103475195Y-57349541D01*
X102500856Y-57752129D01*
X101754749Y-58496935D01*
X101623956Y-58811920D01*
X101165750Y-58126167D01*
X100306028Y-57551719D01*
X99291917Y-57350000D01*
X99188083Y-57350000D01*
X98173972Y-57551719D01*
X97314250Y-58126167D01*
X96739802Y-58985889D01*
X96538083Y-60000000D01*
X86650001Y-60000000D01*
X86650459Y-59475195D01*
X86247871Y-58500856D01*
X85503065Y-57754749D01*
X84529430Y-57350461D01*
X83475195Y-57349541D01*
X82500856Y-57752129D01*
X81754749Y-58496935D01*
X81623956Y-58811920D01*
X81165750Y-58126167D01*
X80306028Y-57551719D01*
X79291917Y-57350000D01*
X79188083Y-57350000D01*
X78173972Y-57551719D01*
X77314250Y-58126167D01*
X76739802Y-58985889D01*
X76538083Y-60000000D01*
X66650001Y-60000000D01*
X66650459Y-59475195D01*
X66247871Y-58500856D01*
X65503065Y-57754749D01*
X64529430Y-57350461D01*
X63475195Y-57349541D01*
X62500856Y-57752129D01*
X61754749Y-58496935D01*
X61623956Y-58811920D01*
X61165750Y-58126167D01*
X60306028Y-57551719D01*
X59291917Y-57350000D01*
X59188083Y-57350000D01*
X58173972Y-57551719D01*
X57314250Y-58126167D01*
X56739802Y-58985889D01*
X56538083Y-60000000D01*
X46650001Y-60000000D01*
X46650459Y-59475195D01*
X46247871Y-58500856D01*
X45503065Y-57754749D01*
X44529430Y-57350461D01*
X43475195Y-57349541D01*
X42500856Y-57752129D01*
X41754749Y-58496935D01*
X41703747Y-58619762D01*
X41673978Y-55196387D01*
X41774428Y-55263505D01*
X42712002Y-55450000D01*
X42807998Y-55450000D01*
X43745572Y-55263505D01*
X44540410Y-54732412D01*
X45071503Y-53937574D01*
X45257998Y-53000000D01*
X45071503Y-52062426D01*
X44540410Y-51267588D01*
X43745572Y-50736495D01*
X42807998Y-50550000D01*
X42712002Y-50550000D01*
X41774428Y-50736495D01*
X41636001Y-50828989D01*
X41632180Y-50389563D01*
X58695087Y-50359932D01*
X58500157Y-50554863D01*
X58489473Y-50550427D01*
X57514803Y-50549576D01*
X56614000Y-50921780D01*
X55924202Y-51610375D01*
X55550427Y-52510527D01*
X55549576Y-53485197D01*
X55921780Y-54386000D01*
X56610375Y-55075798D01*
X57510527Y-55449573D01*
X58485197Y-55450424D01*
X58970260Y-55250000D01*
X59237000Y-55250000D01*
X60098038Y-55078729D01*
X60827990Y-54590990D01*
X61461679Y-53957302D01*
X61979590Y-54732412D01*
X62774428Y-55263505D01*
X63712002Y-55450000D01*
X63807998Y-55450000D01*
X64745572Y-55263505D01*
X65540410Y-54732412D01*
X66071503Y-53937574D01*
X66257998Y-53000000D01*
X66071503Y-52062426D01*
X65540410Y-51267588D01*
X64745572Y-50736495D01*
X64692952Y-50726028D01*
X64993981Y-50425000D01*
X66050000Y-50425000D01*
X66107363Y-50413590D01*
X66165233Y-50422047D01*
X66464340Y-50346441D01*
X79081489Y-50324531D01*
X78856146Y-50549874D01*
X78514803Y-50549576D01*
X77614000Y-50921780D01*
X76924202Y-51610375D01*
X76550427Y-52510527D01*
X76549576Y-53485197D01*
X76921780Y-54386000D01*
X77610375Y-55075798D01*
X78510527Y-55449573D01*
X79485197Y-55450424D01*
X80325107Y-55103380D01*
X80449038Y-55078729D01*
X81178990Y-54590990D01*
X83384172Y-52385808D01*
X83262002Y-53000000D01*
X83448497Y-53937574D01*
X83979590Y-54732412D01*
X84774428Y-55263505D01*
X85712002Y-55450000D01*
X85807998Y-55450000D01*
X86745572Y-55263505D01*
X87540410Y-54732412D01*
X88071503Y-53937574D01*
X88257998Y-53000000D01*
X88071503Y-52062426D01*
X88010000Y-51970380D01*
X88010000Y-50309026D01*
X98750000Y-50290375D01*
X98750000Y-52029901D01*
X98550427Y-52510527D01*
X98549576Y-53485197D01*
X98921780Y-54386000D01*
X99610375Y-55075798D01*
X100510527Y-55449573D01*
X101485197Y-55450424D01*
X102386000Y-55078220D01*
X102880688Y-54584395D01*
X102979590Y-54732412D01*
X103774428Y-55263505D01*
X104712002Y-55450000D01*
X104807998Y-55450000D01*
X105745572Y-55263505D01*
X106540410Y-54732412D01*
X107071503Y-53937574D01*
X107257998Y-53000000D01*
X107071503Y-52062426D01*
X107010000Y-51970380D01*
X107010000Y-50276031D01*
X121752168Y-50250431D01*
X121761264Y-51296490D01*
M02*
