M48
;DRILL file {KiCad 4.0.7} date 09/18/20 03:58:55
;FORMAT={-:-/ absolute / metric / decimal}
FMAT,2
METRIC,TZ
T1C0.800
T2C0.900
T3C1.000
T4C1.100
T5C1.200
T6C1.400
T7C1.500
T8C1.520
T9C1.700
T10C3.048
%
G90
G05
M71
T1
X30.Y-92.
X30.Y-97.
X54.5Y-69.75
X59.3Y-74.75
X64.5Y-69.75
X72.Y-74.75
X72.25Y-82.75
X72.25Y-92.75
X73.95Y-99.55
X73.95Y-104.55
X78.5Y-99.75
X78.5Y-104.75
X82.75Y-97.
X82.75Y-104.62
X87.Y-97.
X87.Y-104.62
X90.55Y-81.2
X90.55Y-83.74
X90.55Y-86.28
X90.7Y-68.45
X90.7Y-78.45
X92.1Y-96.87
X92.1Y-99.41
X92.1Y-101.95
X94.95Y-87.95
X95.03Y-92.95
X96.Y-68.38
X96.Y-76.
X99.5Y-79.6
X99.5Y-82.14
X99.5Y-84.68
X99.8Y-68.33
X99.8Y-75.95
X101.35Y-96.47
X101.35Y-99.01
X101.35Y-101.55
X102.45Y-87.95
X102.65Y-92.95
X103.5Y-68.33
X103.5Y-75.95
X107.Y-68.38
X107.Y-76.
X108.1Y-89.3
X108.1Y-91.84
X108.1Y-94.38
X108.55Y-79.95
X108.55Y-82.49
X108.55Y-85.03
X109.8Y-99.47
X109.8Y-102.01
X109.8Y-104.55
X110.7Y-68.48
X110.7Y-76.1
X113.5Y-79.88
X113.5Y-87.5
X115.75Y-94.
X118.Y-97.92
X118.Y-100.46
X118.Y-103.
X120.63Y-69.
X120.75Y-94.
X126.13Y-100.75
X126.13Y-104.25
X126.5Y-96.25
X128.25Y-69.
X133.25Y-61.38
X133.25Y-69.
X133.75Y-100.75
X133.75Y-104.25
X134.Y-96.25
X137.4Y-69.4
X137.4Y-71.94
X137.4Y-74.48
X141.25Y-79.92
X141.25Y-82.46
X141.25Y-85.
X142.Y-61.13
X142.Y-68.75
X142.Y-97.92
X142.Y-100.46
X142.Y-103.
X142.25Y-90.75
X146.13Y-84.75
X146.25Y-81.25
X146.75Y-96.
X146.88Y-99.75
X146.88Y-103.5
X152.25Y-90.75
X153.75Y-84.75
X153.87Y-81.25
X154.37Y-96.
X154.5Y-99.75
X154.5Y-103.5
X155.25Y-61.25
X155.25Y-68.87
X158.38Y-69.25
X161.Y-88.75
X166.Y-69.25
X168.62Y-88.75
X168.67Y-69.25
X171.21Y-69.25
X173.75Y-69.25
X176.38Y-69.
X177.75Y-76.5
X177.75Y-84.12
X181.25Y-86.5
X181.5Y-76.5
X181.5Y-81.5
X183.79Y-86.5
X184.Y-69.
X186.33Y-86.5
X186.75Y-61.63
X186.75Y-69.25
X188.5Y-77.5
X188.5Y-80.
X192.75Y-83.75
X192.75Y-96.45
X221.Y-69.
X221.Y-79.
X262.Y-92.
X262.Y-97.
T2
X195.Y-78.75
X195.Y-81.29
T3
X64.75Y-84.5
X64.75Y-89.5
X64.75Y-95.75
X64.75Y-100.75
X122.5Y-84.25
X125.04Y-84.25
X127.58Y-84.25
X137.Y-47.5
X139.54Y-47.5
X142.08Y-47.5
X146.67Y-73.5
X149.21Y-73.5
X151.Y-47.5
X151.75Y-73.5
X153.54Y-47.5
X156.08Y-47.5
X163.Y-79.25
X165.54Y-79.25
X168.08Y-79.25
T4
X28.58Y-70.35
X36.2Y-70.35
X39.38Y-70.5
X47.Y-70.5
X57.Y-94.88
X57.Y-102.5
X60.25Y-79.25
X67.87Y-79.25
X157.5Y-93.25
X172.5Y-93.25
X198.5Y-68.5
X198.5Y-76.12
X230.13Y-95.25
X230.25Y-91.5
X237.75Y-95.25
X237.87Y-91.5
T5
X28.25Y-65.5
X35.75Y-76.6
X35.75Y-84.1
X40.95Y-65.5
X42.35Y-92.65
X42.35Y-100.15
X50.75Y-76.65
X50.75Y-84.15
X52.55Y-89.65
X52.55Y-102.35
X115.46Y-72.9
X130.7Y-72.9
X177.76Y-73.
X188.5Y-91.25
X188.5Y-103.95
X193.Y-73.
X200.Y-89.75
X207.5Y-89.75
X209.5Y-71.
X209.5Y-78.5
X215.Y-89.75
X222.5Y-89.75
X241.Y-71.
X241.Y-86.24
X248.05Y-65.
X260.75Y-65.
T6
X29.Y-59.
X49.32Y-59.
X55.Y-59.
X75.32Y-59.
X82.Y-59.
X102.32Y-59.
X109.Y-59.
X129.32Y-59.
X163.68Y-59.
X184.Y-59.
X189.68Y-59.
X210.Y-59.
X215.68Y-59.
X236.Y-59.
X243.68Y-59.
X249.57Y-78.
X261.Y-78.
X264.Y-59.
T7
X40.Y-50.
X45.45Y-50.
X50.9Y-50.
X65.Y-50.
X70.45Y-50.
X75.9Y-50.
X90.Y-50.
X95.45Y-50.
X100.9Y-50.
X115.Y-50.
X120.45Y-50.
X125.9Y-50.
X167.Y-50.
X172.45Y-50.
X177.9Y-50.
X178.75Y-100.25
X192.Y-50.
X197.45Y-50.
X202.9Y-50.
X217.Y-50.
X222.45Y-50.
X227.9Y-50.
X242.Y-50.
X247.45Y-50.
X252.9Y-50.
T8
X78.Y-72.25
X83.08Y-72.25
X161.5Y-101.75
X166.58Y-101.75
X229.5Y-71.9
X234.58Y-71.9
X245.5Y-101.
X250.58Y-101.
T9
X176.21Y-97.71
X176.21Y-102.79
X181.29Y-97.71
X181.29Y-102.79
T10
X30.Y-47.
X30.Y-102.
X262.Y-47.
X262.Y-102.
T0
M30
