G04 #@! TF.FileFunction,Soldermask,Bot*
%FSLAX46Y46*%
G04 Gerber Fmt 4.6, Leading zero omitted, Abs format (unit mm)*
G04 Created by KiCad (PCBNEW 4.0.7) date 09/18/20 03:58:54*
%MOMM*%
%LPD*%
G01*
G04 APERTURE LIST*
%ADD10C,0.100000*%
%ADD11R,2.200000X2.200000*%
%ADD12O,2.200000X2.200000*%
%ADD13R,2.800000X2.800000*%
%ADD14C,2.800000*%
%ADD15C,2.600000*%
%ADD16C,2.400000*%
%ADD17R,2.000000X2.000000*%
%ADD18C,2.000000*%
%ADD19C,1.920000*%
%ADD20R,1.920000X1.920000*%
%ADD21O,2.000000X2.000000*%
%ADD22R,2.400000X2.400000*%
%ADD23R,2.600000X2.600000*%
%ADD24O,2.600000X2.600000*%
%ADD25C,2.200000*%
%ADD26C,1.840000*%
%ADD27O,2.800000X2.800000*%
%ADD28R,4.700000X4.900000*%
%ADD29O,2.900000X4.900000*%
%ADD30O,4.700000X4.900000*%
%ADD31C,3.200000*%
%ADD32O,3.200000X3.200000*%
%ADD33R,3.400000X3.400000*%
%ADD34C,3.400000*%
%ADD35C,5.900000*%
%ADD36C,4.464000*%
G04 APERTURE END LIST*
D10*
D11*
X151750000Y-73500000D03*
D12*
X149210000Y-73500000D03*
X146670000Y-73500000D03*
D13*
X50750000Y-76650000D03*
D14*
X50750000Y-84150000D03*
D15*
X176210000Y-102790000D03*
X176210000Y-97710000D03*
X181290000Y-97710000D03*
X181290000Y-102790000D03*
D16*
X178750000Y-100250000D03*
D17*
X188500000Y-80000000D03*
D18*
X188500000Y-77500000D03*
D19*
X118000000Y-100460000D03*
X118000000Y-97920000D03*
D20*
X118000000Y-103000000D03*
D19*
X90550000Y-83740000D03*
X90550000Y-86280000D03*
D20*
X90550000Y-81200000D03*
D18*
X184000000Y-69000000D03*
D21*
X176380000Y-69000000D03*
D18*
X134000000Y-96250000D03*
D21*
X126500000Y-96250000D03*
D18*
X94950000Y-87950000D03*
D21*
X102450000Y-87950000D03*
D18*
X73950000Y-104550000D03*
X73950000Y-99550000D03*
X181500000Y-76500000D03*
X181500000Y-81500000D03*
X78500000Y-104750000D03*
X78500000Y-99750000D03*
D22*
X64750000Y-100750000D03*
D16*
X64750000Y-95750000D03*
D22*
X64750000Y-84500000D03*
D16*
X64750000Y-89500000D03*
D18*
X115750000Y-94000000D03*
X120750000Y-94000000D03*
X152250000Y-90750000D03*
D21*
X142250000Y-90750000D03*
D18*
X54500000Y-69750000D03*
D21*
X64500000Y-69750000D03*
D18*
X90700000Y-68450000D03*
D21*
X90700000Y-78450000D03*
D13*
X209500000Y-78500000D03*
D14*
X209500000Y-71000000D03*
D18*
X221000000Y-69000000D03*
D21*
X221000000Y-79000000D03*
D23*
X57000000Y-102500000D03*
D24*
X57000000Y-94880000D03*
D11*
X195000000Y-78750000D03*
D25*
X195000000Y-81290000D03*
D17*
X142000000Y-68750000D03*
D21*
X142000000Y-61130000D03*
D17*
X155250000Y-61250000D03*
D21*
X155250000Y-68870000D03*
D23*
X60250000Y-79250000D03*
D24*
X67870000Y-79250000D03*
D23*
X198500000Y-68500000D03*
D24*
X198500000Y-76120000D03*
D18*
X146750000Y-96000000D03*
D21*
X154370000Y-96000000D03*
D18*
X161000000Y-88750000D03*
D21*
X168620000Y-88750000D03*
D18*
X99800000Y-75950000D03*
D21*
X99800000Y-68330000D03*
D18*
X96000000Y-76000000D03*
D21*
X96000000Y-68380000D03*
D18*
X102650000Y-92950000D03*
D21*
X95030000Y-92950000D03*
D18*
X133750000Y-100750000D03*
D21*
X126130000Y-100750000D03*
D18*
X133750000Y-104250000D03*
D21*
X126130000Y-104250000D03*
D18*
X154500000Y-99750000D03*
D21*
X146880000Y-99750000D03*
D18*
X154500000Y-103500000D03*
D21*
X146880000Y-103500000D03*
D26*
X142000000Y-103000000D03*
X142000000Y-100460000D03*
X142000000Y-97920000D03*
D14*
X188500000Y-91250000D03*
D27*
X188500000Y-103950000D03*
D18*
X177750000Y-76500000D03*
D21*
X177750000Y-84120000D03*
D14*
X52550000Y-102350000D03*
D27*
X52550000Y-89650000D03*
D18*
X87000000Y-97000000D03*
D21*
X87000000Y-104620000D03*
D18*
X82750000Y-97000000D03*
D21*
X82750000Y-104620000D03*
D18*
X192750000Y-83750000D03*
D21*
X192750000Y-96450000D03*
D18*
X103500000Y-75950000D03*
D21*
X103500000Y-68330000D03*
D18*
X110700000Y-76100000D03*
D21*
X110700000Y-68480000D03*
D18*
X107000000Y-76000000D03*
D21*
X107000000Y-68380000D03*
D18*
X113500000Y-87500000D03*
D21*
X113500000Y-79880000D03*
D18*
X146250000Y-81250000D03*
D21*
X153870000Y-81250000D03*
D26*
X141250000Y-85000000D03*
X141250000Y-82460000D03*
X141250000Y-79920000D03*
D18*
X153750000Y-84750000D03*
D21*
X146130000Y-84750000D03*
D18*
X166000000Y-69250000D03*
D21*
X158380000Y-69250000D03*
D18*
X128250000Y-69000000D03*
D21*
X120630000Y-69000000D03*
D14*
X193000000Y-73000000D03*
D27*
X177760000Y-73000000D03*
D18*
X133250000Y-69000000D03*
D21*
X133250000Y-61380000D03*
D18*
X186750000Y-69250000D03*
D21*
X186750000Y-61630000D03*
D14*
X28250000Y-65500000D03*
D27*
X40950000Y-65500000D03*
D14*
X260750000Y-65000000D03*
D27*
X248050000Y-65000000D03*
D18*
X72000000Y-74750000D03*
D21*
X59300000Y-74750000D03*
D28*
X40000000Y-50000000D03*
D29*
X45450000Y-50000000D03*
D30*
X50900000Y-50000000D03*
D28*
X242000000Y-50000000D03*
D29*
X247450000Y-50000000D03*
D30*
X252900000Y-50000000D03*
D28*
X65000000Y-50000000D03*
D29*
X70450000Y-50000000D03*
D30*
X75900000Y-50000000D03*
D28*
X217000000Y-50000000D03*
D29*
X222450000Y-50000000D03*
D30*
X227900000Y-50000000D03*
D28*
X90000000Y-50000000D03*
D29*
X95450000Y-50000000D03*
D30*
X100900000Y-50000000D03*
D28*
X192000000Y-50000000D03*
D29*
X197450000Y-50000000D03*
D30*
X202900000Y-50000000D03*
D28*
X115000000Y-50000000D03*
D29*
X120450000Y-50000000D03*
D30*
X125900000Y-50000000D03*
D28*
X167000000Y-50000000D03*
D29*
X172450000Y-50000000D03*
D30*
X177900000Y-50000000D03*
D31*
X29000000Y-59000000D03*
D32*
X49320000Y-59000000D03*
D31*
X264000000Y-59000000D03*
D32*
X243680000Y-59000000D03*
D31*
X55000000Y-59000000D03*
D32*
X75320000Y-59000000D03*
D31*
X236000000Y-59000000D03*
D32*
X215680000Y-59000000D03*
D31*
X82000000Y-59000000D03*
D32*
X102320000Y-59000000D03*
D31*
X210000000Y-59000000D03*
D32*
X189680000Y-59000000D03*
D31*
X109000000Y-59000000D03*
D32*
X129320000Y-59000000D03*
D31*
X184000000Y-59000000D03*
D32*
X163680000Y-59000000D03*
D33*
X245500000Y-101000000D03*
D34*
X250580000Y-101000000D03*
D33*
X229500000Y-71900000D03*
D34*
X234580000Y-71900000D03*
D33*
X78000000Y-72250000D03*
D34*
X83080000Y-72250000D03*
D35*
X262000000Y-102000000D03*
D36*
X262000000Y-47000000D03*
D35*
X30000000Y-102000000D03*
D36*
X30000000Y-47000000D03*
D33*
X161500000Y-101750000D03*
D34*
X166580000Y-101750000D03*
D13*
X35750000Y-76600000D03*
D14*
X35750000Y-84100000D03*
D13*
X42350000Y-92650000D03*
D14*
X42350000Y-100150000D03*
D13*
X222500000Y-89750000D03*
D14*
X215000000Y-89750000D03*
D13*
X200000000Y-89750000D03*
D14*
X207500000Y-89750000D03*
X130700000Y-72900000D03*
D27*
X115460000Y-72900000D03*
D18*
X262000000Y-92000000D03*
X262000000Y-97000000D03*
X30000000Y-92000000D03*
X30000000Y-97000000D03*
D15*
X157500000Y-93250000D03*
X172500000Y-93250000D03*
D31*
X261000000Y-78000000D03*
X249570000Y-78000000D03*
D14*
X241000000Y-71000000D03*
D27*
X241000000Y-86240000D03*
D19*
X109800000Y-102010000D03*
X109800000Y-99470000D03*
D20*
X109800000Y-104550000D03*
D19*
X99500000Y-82140000D03*
X99500000Y-84680000D03*
D20*
X99500000Y-79600000D03*
D19*
X101350000Y-99010000D03*
X101350000Y-96470000D03*
D20*
X101350000Y-101550000D03*
D19*
X92100000Y-99410000D03*
X92100000Y-96870000D03*
D20*
X92100000Y-101950000D03*
D19*
X183790000Y-86500000D03*
X186330000Y-86500000D03*
D20*
X181250000Y-86500000D03*
D19*
X108100000Y-91840000D03*
X108100000Y-94380000D03*
D20*
X108100000Y-89300000D03*
D19*
X108550000Y-82490000D03*
X108550000Y-85030000D03*
D20*
X108550000Y-79950000D03*
D19*
X137400000Y-71940000D03*
X137400000Y-74480000D03*
D20*
X137400000Y-69400000D03*
D19*
X171210000Y-69250000D03*
X168670000Y-69250000D03*
D20*
X173750000Y-69250000D03*
D23*
X47000000Y-70500000D03*
D24*
X39380000Y-70500000D03*
D23*
X237750000Y-95250000D03*
D24*
X230130000Y-95250000D03*
D23*
X36200000Y-70350000D03*
D24*
X28580000Y-70350000D03*
D23*
X230250000Y-91500000D03*
D24*
X237870000Y-91500000D03*
D11*
X122500000Y-84250000D03*
D12*
X125040000Y-84250000D03*
X127580000Y-84250000D03*
D11*
X163000000Y-79250000D03*
D12*
X165540000Y-79250000D03*
X168080000Y-79250000D03*
D11*
X137000000Y-47500000D03*
D12*
X139540000Y-47500000D03*
X142080000Y-47500000D03*
D11*
X151000000Y-47500000D03*
D12*
X153540000Y-47500000D03*
X156080000Y-47500000D03*
D18*
X72250000Y-82750000D03*
D21*
X72250000Y-92750000D03*
M02*
