G04 #@! TF.FileFunction,Copper,L1,Top,Signal*
%FSLAX46Y46*%
G04 Gerber Fmt 4.6, Leading zero omitted, Abs format (unit mm)*
G04 Created by KiCad (PCBNEW 4.0.7) date 10/13/20 13:30:47*
%MOMM*%
%LPD*%
G01*
G04 APERTURE LIST*
%ADD10C,0.100000*%
%ADD11R,2.400000X2.400000*%
%ADD12C,2.400000*%
%ADD13C,2.200000*%
%ADD14C,2.000000*%
%ADD15R,1.600000X1.600000*%
%ADD16C,1.600000*%
%ADD17C,1.520000*%
%ADD18R,1.520000X1.520000*%
%ADD19O,1.600000X1.600000*%
%ADD20R,2.000000X2.000000*%
%ADD21R,2.200000X2.200000*%
%ADD22O,2.200000X2.200000*%
%ADD23R,1.800000X1.800000*%
%ADD24C,1.800000*%
%ADD25C,1.440000*%
%ADD26O,2.400000X2.400000*%
%ADD27R,4.300000X5.000000*%
%ADD28R,3.000000X5.000000*%
%ADD29R,4.300000X4.500000*%
%ADD30O,2.500000X4.500000*%
%ADD31O,4.300000X4.500000*%
%ADD32C,2.800000*%
%ADD33O,2.800000X2.800000*%
%ADD34R,3.000000X3.000000*%
%ADD35C,3.000000*%
%ADD36C,5.500000*%
%ADD37C,4.064000*%
%ADD38O,1.800000X1.800000*%
%ADD39R,1.700000X1.700000*%
%ADD40O,1.700000X1.700000*%
%ADD41C,1.500000*%
%ADD42C,2.000000*%
%ADD43C,1.000000*%
%ADD44C,0.500000*%
%ADD45C,4.000000*%
G04 APERTURE END LIST*
D10*
D11*
X55600000Y-79250000D03*
D12*
X55600000Y-71750000D03*
D13*
X178460000Y-102790000D03*
X178460000Y-97710000D03*
X183540000Y-97710000D03*
X183540000Y-102790000D03*
D14*
X181000000Y-100250000D03*
D15*
X188500000Y-80000000D03*
D16*
X188500000Y-77500000D03*
D17*
X118025000Y-101010000D03*
X118025000Y-98470000D03*
D18*
X118025000Y-103550000D03*
D17*
X89650000Y-83730000D03*
X89650000Y-86270000D03*
D18*
X89650000Y-81190000D03*
D16*
X184000000Y-69000000D03*
D19*
X176380000Y-69000000D03*
D16*
X133690000Y-97400000D03*
D19*
X126190000Y-97400000D03*
D16*
X93040000Y-89940000D03*
D19*
X100540000Y-89940000D03*
D16*
X74300000Y-104475000D03*
X74300000Y-99475000D03*
X181500000Y-76500000D03*
X181500000Y-81500000D03*
X79200000Y-104800000D03*
X79200000Y-99800000D03*
D20*
X76425000Y-79400000D03*
D14*
X76425000Y-84400000D03*
D20*
X76425000Y-95175000D03*
D14*
X76425000Y-90175000D03*
D16*
X110980000Y-94600000D03*
X115980000Y-94600000D03*
X152250000Y-90750000D03*
D19*
X142250000Y-90750000D03*
D16*
X230300000Y-92400000D03*
D19*
X230300000Y-82400000D03*
D16*
X90700000Y-68450000D03*
D19*
X90700000Y-78450000D03*
D11*
X257400000Y-78800000D03*
D12*
X257400000Y-71300000D03*
D16*
X232200000Y-68600000D03*
D19*
X232200000Y-78600000D03*
D21*
X70125000Y-96500000D03*
D22*
X70125000Y-104120000D03*
D23*
X195000000Y-78750000D03*
D24*
X195000000Y-81290000D03*
D15*
X142000000Y-68750000D03*
D19*
X142000000Y-61130000D03*
D15*
X155250000Y-61250000D03*
D19*
X155250000Y-68870000D03*
D21*
X69675000Y-77600000D03*
D22*
X69675000Y-69980000D03*
D21*
X198500000Y-68500000D03*
D22*
X198500000Y-76120000D03*
D16*
X144750000Y-96750000D03*
D19*
X152370000Y-96750000D03*
D16*
X161000000Y-95000000D03*
D19*
X168620000Y-95000000D03*
D16*
X99800000Y-75950000D03*
D19*
X99800000Y-68330000D03*
D16*
X96000000Y-76000000D03*
D19*
X96000000Y-68380000D03*
D16*
X100700000Y-93320000D03*
D19*
X93080000Y-93320000D03*
D16*
X133750000Y-100750000D03*
D19*
X126130000Y-100750000D03*
D16*
X133750000Y-104250000D03*
D19*
X126130000Y-104250000D03*
D16*
X152250000Y-100250000D03*
D19*
X144630000Y-100250000D03*
D16*
X152250000Y-103750000D03*
D19*
X144630000Y-103750000D03*
D25*
X139000000Y-103000000D03*
X139000000Y-100460000D03*
X139000000Y-97920000D03*
D12*
X188500000Y-91250000D03*
D26*
X188500000Y-103950000D03*
D16*
X177750000Y-76500000D03*
D19*
X177750000Y-84120000D03*
D12*
X65550000Y-90425000D03*
D26*
X65550000Y-77725000D03*
D16*
X87000000Y-97000000D03*
D19*
X87000000Y-104620000D03*
D16*
X83400000Y-97100000D03*
D19*
X83400000Y-104720000D03*
D16*
X192750000Y-83750000D03*
D19*
X192750000Y-96450000D03*
D16*
X103500000Y-75950000D03*
D19*
X103500000Y-68330000D03*
D16*
X146250000Y-81250000D03*
D19*
X153870000Y-81250000D03*
D25*
X141250000Y-85000000D03*
X141250000Y-82460000D03*
X141250000Y-79920000D03*
D16*
X153750000Y-84750000D03*
D19*
X146130000Y-84750000D03*
D16*
X166000000Y-69250000D03*
D19*
X158380000Y-69250000D03*
D16*
X128250000Y-69000000D03*
D19*
X120630000Y-69000000D03*
D12*
X193000000Y-73000000D03*
D26*
X177760000Y-73000000D03*
D16*
X133250000Y-69000000D03*
D19*
X133250000Y-61380000D03*
D16*
X186750000Y-69250000D03*
D19*
X186750000Y-61630000D03*
D12*
X28250000Y-65500000D03*
D26*
X40950000Y-65500000D03*
D12*
X260750000Y-65000000D03*
D26*
X248050000Y-65000000D03*
D16*
X226800000Y-82400000D03*
D19*
X226800000Y-69700000D03*
D27*
X50968000Y-45428000D03*
D28*
X45588000Y-45428000D03*
D29*
X40000000Y-50000000D03*
D30*
X45450000Y-50000000D03*
D31*
X50900000Y-50000000D03*
D27*
X40000000Y-45428000D03*
X252968000Y-45428000D03*
D28*
X247588000Y-45428000D03*
D29*
X242000000Y-50000000D03*
D30*
X247450000Y-50000000D03*
D31*
X252900000Y-50000000D03*
D27*
X242000000Y-45428000D03*
X75968000Y-45428000D03*
D28*
X70588000Y-45428000D03*
D29*
X65000000Y-50000000D03*
D30*
X70450000Y-50000000D03*
D31*
X75900000Y-50000000D03*
D27*
X65000000Y-45428000D03*
X227968000Y-45428000D03*
D28*
X222588000Y-45428000D03*
D29*
X217000000Y-50000000D03*
D30*
X222450000Y-50000000D03*
D31*
X227900000Y-50000000D03*
D27*
X217000000Y-45428000D03*
X100968000Y-45428000D03*
D28*
X95588000Y-45428000D03*
D29*
X90000000Y-50000000D03*
D30*
X95450000Y-50000000D03*
D31*
X100900000Y-50000000D03*
D27*
X90000000Y-45428000D03*
X202968000Y-45428000D03*
D28*
X197588000Y-45428000D03*
D29*
X192000000Y-50000000D03*
D30*
X197450000Y-50000000D03*
D31*
X202900000Y-50000000D03*
D27*
X192000000Y-45428000D03*
X125968000Y-45428000D03*
D28*
X120588000Y-45428000D03*
D29*
X115000000Y-50000000D03*
D30*
X120450000Y-50000000D03*
D31*
X125900000Y-50000000D03*
D27*
X115000000Y-45428000D03*
X177968000Y-45428000D03*
D28*
X172588000Y-45428000D03*
D29*
X167000000Y-50000000D03*
D30*
X172450000Y-50000000D03*
D31*
X177900000Y-50000000D03*
D27*
X167000000Y-45428000D03*
D32*
X29000000Y-59000000D03*
D33*
X49320000Y-59000000D03*
D32*
X264000000Y-59000000D03*
D33*
X243680000Y-59000000D03*
D32*
X55000000Y-59000000D03*
D33*
X75320000Y-59000000D03*
D32*
X236000000Y-59000000D03*
D33*
X215680000Y-59000000D03*
D32*
X82000000Y-59000000D03*
D33*
X102320000Y-59000000D03*
D32*
X210000000Y-59000000D03*
D33*
X189680000Y-59000000D03*
D32*
X109000000Y-59000000D03*
D33*
X129320000Y-59000000D03*
D32*
X184000000Y-59000000D03*
D33*
X163680000Y-59000000D03*
D34*
X220800000Y-100400000D03*
D35*
X215720000Y-100400000D03*
D34*
X242000000Y-87000000D03*
D35*
X236920000Y-87000000D03*
D34*
X42000000Y-87000000D03*
D35*
X36920000Y-87000000D03*
D36*
X262000000Y-102000000D03*
D37*
X262000000Y-47000000D03*
D36*
X30000000Y-102000000D03*
D37*
X30000000Y-47000000D03*
D34*
X166900000Y-101800000D03*
D35*
X161820000Y-101800000D03*
D11*
X40500000Y-79250000D03*
D12*
X40500000Y-71750000D03*
D11*
X55425000Y-94425000D03*
D12*
X55425000Y-86925000D03*
D11*
X242000000Y-78800000D03*
D12*
X242000000Y-71300000D03*
D11*
X253000000Y-94200000D03*
D12*
X253000000Y-86700000D03*
X130700000Y-72900000D03*
D26*
X115460000Y-72900000D03*
D13*
X158000000Y-91000000D03*
X173000000Y-91000000D03*
D32*
X209600000Y-82000000D03*
X209600000Y-70570000D03*
D12*
X221000000Y-69400000D03*
D26*
X221000000Y-84640000D03*
D17*
X109800000Y-102010000D03*
X109800000Y-99470000D03*
D18*
X109800000Y-104550000D03*
D17*
X99500000Y-82140000D03*
X99500000Y-84680000D03*
D18*
X99500000Y-79600000D03*
D17*
X101350000Y-99010000D03*
X101350000Y-96470000D03*
D18*
X101350000Y-101550000D03*
D17*
X92100000Y-99410000D03*
X92100000Y-96870000D03*
D18*
X92100000Y-101950000D03*
D17*
X183790000Y-86500000D03*
X186330000Y-86500000D03*
D18*
X181250000Y-86500000D03*
D17*
X105890000Y-91530000D03*
X105890000Y-94070000D03*
D18*
X105890000Y-88990000D03*
D17*
X137400000Y-71940000D03*
X137400000Y-74480000D03*
D18*
X137400000Y-69400000D03*
D17*
X171210000Y-69250000D03*
X168670000Y-69250000D03*
D18*
X173750000Y-69250000D03*
D21*
X44275000Y-102625000D03*
D22*
X51895000Y-102625000D03*
D21*
X248000000Y-100000000D03*
D22*
X255620000Y-100000000D03*
D21*
X54750000Y-102650000D03*
D22*
X62370000Y-102650000D03*
D21*
X248000000Y-103000000D03*
D22*
X255620000Y-103000000D03*
D16*
X65625000Y-104400000D03*
D19*
X65625000Y-94400000D03*
D23*
X123500000Y-83000000D03*
D38*
X126040000Y-83000000D03*
X128580000Y-83000000D03*
D23*
X152000000Y-73800000D03*
D38*
X149460000Y-73800000D03*
X146920000Y-73800000D03*
D23*
X163200000Y-80100000D03*
D38*
X165740000Y-80100000D03*
X168280000Y-80100000D03*
D23*
X137000000Y-47500000D03*
D38*
X139540000Y-47500000D03*
X142080000Y-47500000D03*
D23*
X151000000Y-47500000D03*
D38*
X153540000Y-47500000D03*
X156080000Y-47500000D03*
D16*
X193460000Y-101760000D03*
D19*
X206160000Y-101760000D03*
D16*
X108360000Y-81720000D03*
D19*
X108360000Y-69020000D03*
D16*
X134530000Y-93150000D03*
X139530000Y-93150000D03*
X121875000Y-92850000D03*
D19*
X131875000Y-92850000D03*
D16*
X111825000Y-91675000D03*
D19*
X119445000Y-91675000D03*
D39*
X263440000Y-93170000D03*
D40*
X263440000Y-95710000D03*
D39*
X28700000Y-93460000D03*
D40*
X28700000Y-96000000D03*
D41*
X146000000Y-70300000D03*
D42*
X247450000Y-50000000D02*
X247450000Y-45566000D01*
X247450000Y-45566000D02*
X247588000Y-45428000D01*
X222450000Y-50000000D02*
X222450000Y-45566000D01*
X222450000Y-45566000D02*
X222588000Y-45428000D01*
X197450000Y-50000000D02*
X197450000Y-45566000D01*
X197450000Y-45566000D02*
X197588000Y-45428000D01*
X172450000Y-50000000D02*
X172450000Y-45566000D01*
X172450000Y-45566000D02*
X172588000Y-45428000D01*
D43*
X142080000Y-47500000D02*
X142080000Y-61050000D01*
X142080000Y-61050000D02*
X142000000Y-61130000D01*
D44*
X142000000Y-61130000D02*
X141630000Y-61130000D01*
D43*
X156080000Y-47500000D02*
X156080000Y-60420000D01*
X156080000Y-60420000D02*
X155250000Y-61250000D01*
D42*
X120450000Y-50000000D02*
X120450000Y-45566000D01*
X120450000Y-45566000D02*
X120588000Y-45428000D01*
X120588000Y-49862000D02*
X120450000Y-50000000D01*
X95450000Y-50000000D02*
X95450000Y-45566000D01*
X95450000Y-45566000D02*
X95588000Y-45428000D01*
X70450000Y-50000000D02*
X70450000Y-45566000D01*
X70450000Y-45566000D02*
X70588000Y-45428000D01*
X45450000Y-50000000D02*
X45450000Y-45566000D01*
X45450000Y-45566000D02*
X45588000Y-45428000D01*
X50900000Y-50000000D02*
X50900000Y-57420000D01*
X50900000Y-57420000D02*
X49320000Y-59000000D01*
X50900000Y-50000000D02*
X50900000Y-45496000D01*
X50900000Y-45496000D02*
X50968000Y-45428000D01*
X252900000Y-50000000D02*
X254000000Y-50000000D01*
X254000000Y-50000000D02*
X264000000Y-59000000D01*
X252900000Y-50000000D02*
X252900000Y-45496000D01*
X252900000Y-45496000D02*
X252968000Y-45428000D01*
X75900000Y-50000000D02*
X75900000Y-58420000D01*
X75900000Y-58420000D02*
X75320000Y-59000000D01*
X75900000Y-50000000D02*
X75900000Y-45496000D01*
X75900000Y-45496000D02*
X75968000Y-45428000D01*
X227900000Y-50000000D02*
X227900000Y-45496000D01*
X227900000Y-45496000D02*
X227968000Y-45428000D01*
X227900000Y-50000000D02*
X227900000Y-50900000D01*
X227900000Y-50900000D02*
X236000000Y-59000000D01*
X100900000Y-50000000D02*
X100900000Y-57580000D01*
X100900000Y-57580000D02*
X102320000Y-59000000D01*
X100900000Y-50000000D02*
X100900000Y-45496000D01*
X100900000Y-45496000D02*
X100968000Y-45428000D01*
X202900000Y-50000000D02*
X202900000Y-51900000D01*
X202900000Y-51900000D02*
X210000000Y-59000000D01*
X202900000Y-50000000D02*
X202900000Y-45496000D01*
X202900000Y-45496000D02*
X202968000Y-45428000D01*
D43*
X129320000Y-59000000D02*
X130870000Y-59000000D01*
X130870000Y-59000000D02*
X133250000Y-61380000D01*
D42*
X125900000Y-50000000D02*
X125900000Y-55580000D01*
X125900000Y-55580000D02*
X129320000Y-59000000D01*
X125900000Y-50000000D02*
X125900000Y-45496000D01*
X125900000Y-45496000D02*
X125968000Y-45428000D01*
D43*
X186750000Y-61630000D02*
X186630000Y-61630000D01*
X186630000Y-61630000D02*
X184000000Y-59000000D01*
D44*
X184000000Y-59000000D02*
X184120000Y-59000000D01*
D42*
X177900000Y-50000000D02*
X177900000Y-52900000D01*
X177900000Y-52900000D02*
X184000000Y-59000000D01*
X177900000Y-50000000D02*
X177900000Y-45496000D01*
X177900000Y-45496000D02*
X177968000Y-45428000D01*
X69675000Y-69980000D02*
X69950000Y-68450000D01*
X69950000Y-68450000D02*
X66500000Y-65000000D01*
D43*
X147900000Y-68400000D02*
X147900000Y-65000000D01*
X146000000Y-70300000D02*
X147900000Y-68400000D01*
X184000000Y-69000000D02*
X184000000Y-65000000D01*
X184000000Y-65000000D02*
X184300000Y-65300000D01*
X184300000Y-65300000D02*
X184300000Y-66400000D01*
X184300000Y-66400000D02*
X184300000Y-65000000D01*
X173750000Y-69250000D02*
X173750000Y-67850000D01*
X173750000Y-67850000D02*
X176600000Y-65000000D01*
X137400000Y-69400000D02*
X137400000Y-66850000D01*
X137400000Y-66850000D02*
X139250000Y-65000000D01*
X120630000Y-69000000D02*
X120630000Y-66620000D01*
X120630000Y-66620000D02*
X122250000Y-65000000D01*
D42*
X226800000Y-69700000D02*
X226800000Y-67600000D01*
X224200000Y-65000000D02*
X224200000Y-64800000D01*
X226800000Y-67600000D02*
X224200000Y-65000000D01*
D45*
X209600000Y-70570000D02*
X209600000Y-65000000D01*
X209800000Y-65600000D02*
X209800000Y-65000000D01*
X209800000Y-65200000D02*
X209800000Y-65600000D01*
X209600000Y-65000000D02*
X209800000Y-65200000D01*
X221000000Y-69400000D02*
X221000000Y-68000000D01*
X221000000Y-68000000D02*
X224200000Y-64800000D01*
X224200000Y-64800000D02*
X224000000Y-65000000D01*
D42*
X198500000Y-68500000D02*
X198500000Y-67700000D01*
X198500000Y-67700000D02*
X201200000Y-65000000D01*
D45*
X216000000Y-65000000D02*
X224000000Y-65000000D01*
X224000000Y-65000000D02*
X239250000Y-65000000D01*
X136250000Y-65000000D02*
X139250000Y-65000000D01*
X122250000Y-65000000D02*
X125500000Y-65000000D01*
X125500000Y-65000000D02*
X136250000Y-65000000D01*
X139250000Y-65000000D02*
X147900000Y-65000000D01*
X147900000Y-65000000D02*
X159750000Y-65000000D01*
X159750000Y-65000000D02*
X163000000Y-65000000D01*
X105000000Y-65000000D02*
X119500000Y-65000000D01*
X119500000Y-65000000D02*
X122250000Y-65000000D01*
X109000000Y-61000000D02*
X105000000Y-65000000D01*
X100000000Y-65000000D02*
X105000000Y-65000000D01*
X80000000Y-64000000D02*
X80000000Y-65000000D01*
X79000000Y-65000000D02*
X80000000Y-64000000D01*
X58000000Y-65000000D02*
X64350000Y-65000000D01*
X64350000Y-65000000D02*
X66500000Y-65000000D01*
X66500000Y-65000000D02*
X68000000Y-65000000D01*
X68000000Y-65000000D02*
X80000000Y-65000000D01*
X80000000Y-65000000D02*
X100000000Y-65000000D01*
X55000000Y-63750000D02*
X55000000Y-65000000D01*
X55000000Y-59000000D02*
X55000000Y-63750000D01*
X55000000Y-65000000D02*
X53000000Y-65000000D01*
X76000000Y-65000000D02*
X79000000Y-65000000D01*
X53000000Y-65000000D02*
X58000000Y-65000000D01*
X45500000Y-65000000D02*
X53000000Y-65000000D01*
D42*
X39500000Y-59000000D02*
X45500000Y-65000000D01*
D45*
X163000000Y-65000000D02*
X165750000Y-65000000D01*
X165750000Y-65000000D02*
X168650000Y-65000000D01*
X163680000Y-65000000D02*
X163000000Y-64320000D01*
X163000000Y-64000000D02*
X163000000Y-65000000D01*
X163000000Y-64320000D02*
X163000000Y-64000000D01*
X168650000Y-65000000D02*
X176600000Y-65000000D01*
X176600000Y-65000000D02*
X176750000Y-65000000D01*
X176750000Y-65000000D02*
X177250000Y-65000000D01*
X177250000Y-65000000D02*
X184300000Y-65000000D01*
X184300000Y-65000000D02*
X184000000Y-65000000D01*
D44*
X184000000Y-65000000D02*
X184000000Y-65750000D01*
X184000000Y-65750000D02*
X184000000Y-65000000D01*
D45*
X184000000Y-65000000D02*
X190000000Y-65000000D01*
X190000000Y-65000000D02*
X195000000Y-65000000D01*
X195000000Y-65000000D02*
X201200000Y-65000000D01*
X201200000Y-65000000D02*
X201500000Y-65000000D01*
X201500000Y-65000000D02*
X209800000Y-65000000D01*
X209800000Y-65000000D02*
X216000000Y-65000000D01*
X216000000Y-64000000D02*
X216000000Y-65000000D01*
X216000000Y-64680000D02*
X216000000Y-64000000D01*
X215680000Y-65000000D02*
X216000000Y-64680000D01*
D42*
X242680000Y-61570000D02*
X239625000Y-64625000D01*
X239625000Y-64625000D02*
X239250000Y-65000000D01*
D45*
X239250000Y-65000000D02*
X241000000Y-65000000D01*
X190680000Y-58750000D02*
X190680000Y-59430000D01*
X190680000Y-59430000D02*
X195000000Y-65000000D01*
D42*
X29000000Y-59000000D02*
X29000000Y-64750000D01*
X29000000Y-64750000D02*
X28250000Y-65500000D01*
X29000000Y-59000000D02*
X39500000Y-59000000D01*
X243680000Y-59000000D02*
X242680000Y-61570000D01*
X248050000Y-65000000D02*
X241000000Y-65000000D01*
D45*
X82000000Y-59000000D02*
X76000000Y-65000000D01*
X109000000Y-59000000D02*
X109000000Y-61000000D01*
X163680000Y-59000000D02*
X163680000Y-65000000D01*
X215680000Y-59000000D02*
X215680000Y-65000000D01*
D42*
X65000000Y-50000000D02*
X65000000Y-45428000D01*
X115000000Y-50000000D02*
X115000000Y-45428000D01*
X90000000Y-50000000D02*
X90000000Y-45428000D01*
X40000000Y-50000000D02*
X40000000Y-45428000D01*
X217000000Y-50000000D02*
X217000000Y-45428000D01*
X242000000Y-50000000D02*
X242000000Y-45428000D01*
X242000000Y-50000000D02*
X242000000Y-51250000D01*
X242000000Y-51250000D02*
X247500000Y-55500000D01*
X252750000Y-58500000D02*
X260750000Y-65000000D01*
X247500000Y-55500000D02*
X252750000Y-58500000D01*
X192000000Y-50000000D02*
X192000000Y-45428000D01*
X167000000Y-50000000D02*
X167000000Y-45428000D01*
D44*
G36*
X67478796Y-69160776D02*
X67325000Y-69933961D01*
X67325000Y-70026039D01*
X67503883Y-70925345D01*
X68013299Y-71687740D01*
X68775694Y-72197156D01*
X69675000Y-72376039D01*
X70574306Y-72197156D01*
X71336701Y-71687740D01*
X71846117Y-70925345D01*
X72025000Y-70026039D01*
X72025000Y-69933961D01*
X71995755Y-69786939D01*
X72164513Y-68848033D01*
X72160794Y-68647104D01*
X72200000Y-68450000D01*
X72160218Y-68250000D01*
X88650174Y-68250000D01*
X88649645Y-68855981D01*
X88961081Y-69609715D01*
X89537252Y-70186892D01*
X90290441Y-70499643D01*
X91105981Y-70500355D01*
X91859715Y-70188919D01*
X92436892Y-69612748D01*
X92749643Y-68859559D01*
X92750175Y-68250000D01*
X93967870Y-68250000D01*
X93950000Y-68339838D01*
X93950000Y-68420162D01*
X94106047Y-69204663D01*
X94550431Y-69869731D01*
X95215499Y-70314115D01*
X96000000Y-70470162D01*
X96784501Y-70314115D01*
X97449569Y-69869731D01*
X97893953Y-69204663D01*
X97904973Y-69149263D01*
X97906047Y-69154663D01*
X98350431Y-69819731D01*
X99015499Y-70264115D01*
X99800000Y-70420162D01*
X100584501Y-70264115D01*
X101249569Y-69819731D01*
X101650000Y-69220443D01*
X102050431Y-69819731D01*
X102715499Y-70264115D01*
X103500000Y-70420162D01*
X104284501Y-70264115D01*
X104949569Y-69819731D01*
X105393953Y-69154663D01*
X105550000Y-68370162D01*
X105550000Y-68289838D01*
X105542076Y-68250000D01*
X106455174Y-68250000D01*
X106310000Y-68979838D01*
X106310000Y-69060162D01*
X106466047Y-69844663D01*
X106910431Y-70509731D01*
X107575499Y-70954115D01*
X108360000Y-71110162D01*
X109144501Y-70954115D01*
X109809569Y-70509731D01*
X110253953Y-69844663D01*
X110410000Y-69060162D01*
X110410000Y-68979838D01*
X110264826Y-68250000D01*
X118689022Y-68250000D01*
X118539838Y-69000000D01*
X118695885Y-69784501D01*
X119140269Y-70449569D01*
X119805337Y-70893953D01*
X120589838Y-71050000D01*
X120670162Y-71050000D01*
X121454663Y-70893953D01*
X122119731Y-70449569D01*
X122564115Y-69784501D01*
X122720162Y-69000000D01*
X122570978Y-68250000D01*
X126341720Y-68250000D01*
X126200357Y-68590441D01*
X126199645Y-69405981D01*
X126511081Y-70159715D01*
X127087252Y-70736892D01*
X127840441Y-71049643D01*
X128655981Y-71050355D01*
X129409715Y-70738919D01*
X129986892Y-70162748D01*
X130299643Y-69409559D01*
X130300355Y-68594019D01*
X130158209Y-68250000D01*
X131341720Y-68250000D01*
X131200357Y-68590441D01*
X131199645Y-69405981D01*
X131511081Y-70159715D01*
X132087252Y-70736892D01*
X132840441Y-71049643D01*
X133655981Y-71050355D01*
X134409715Y-70738919D01*
X134986892Y-70162748D01*
X135299643Y-69409559D01*
X135300355Y-68594019D01*
X135158209Y-68250000D01*
X135444489Y-68250000D01*
X135365512Y-68640000D01*
X135365512Y-70160000D01*
X135452673Y-70623222D01*
X135645773Y-70923307D01*
X135390350Y-71538432D01*
X135389652Y-72338060D01*
X135695012Y-73077086D01*
X135827431Y-73209736D01*
X135696999Y-73339940D01*
X135390350Y-74078432D01*
X135389652Y-74878060D01*
X135695012Y-75617086D01*
X136259940Y-76183001D01*
X136998432Y-76489650D01*
X137798060Y-76490348D01*
X138537086Y-76184988D01*
X139103001Y-75620060D01*
X139409650Y-74881568D01*
X139410348Y-74081940D01*
X139104988Y-73342914D01*
X138972569Y-73210264D01*
X139103001Y-73080060D01*
X139409650Y-72341568D01*
X139410348Y-71541940D01*
X139153450Y-70920202D01*
X139334076Y-70655847D01*
X139434488Y-70160000D01*
X139434488Y-68640000D01*
X139361105Y-68250000D01*
X139925512Y-68250000D01*
X139925512Y-69550000D01*
X140012673Y-70013222D01*
X140286437Y-70438663D01*
X140704153Y-70724076D01*
X141200000Y-70824488D01*
X142800000Y-70824488D01*
X143263222Y-70737327D01*
X143688663Y-70463563D01*
X143974076Y-70045847D01*
X144000334Y-69916180D01*
X143999654Y-70696079D01*
X144303494Y-71431429D01*
X144865612Y-71994529D01*
X145432271Y-72229826D01*
X145357599Y-72279720D01*
X144891538Y-72977231D01*
X144727879Y-73800000D01*
X144891538Y-74622769D01*
X145357599Y-75320280D01*
X146055110Y-75786341D01*
X146877879Y-75950000D01*
X146962121Y-75950000D01*
X147784890Y-75786341D01*
X148190000Y-75515656D01*
X148595110Y-75786341D01*
X149417879Y-75950000D01*
X149502121Y-75950000D01*
X150324890Y-75786341D01*
X150401162Y-75735378D01*
X150604153Y-75874076D01*
X151100000Y-75974488D01*
X152900000Y-75974488D01*
X153363222Y-75887327D01*
X153788663Y-75613563D01*
X154074076Y-75195847D01*
X154174488Y-74700000D01*
X154174488Y-72900000D01*
X154087327Y-72436778D01*
X153813563Y-72011337D01*
X153395847Y-71725924D01*
X152900000Y-71625512D01*
X151100000Y-71625512D01*
X150636778Y-71712673D01*
X150400907Y-71864452D01*
X150324890Y-71813659D01*
X149502121Y-71650000D01*
X149417879Y-71650000D01*
X148595110Y-71813659D01*
X148190000Y-72084344D01*
X147784890Y-71813659D01*
X147392736Y-71735655D01*
X147694529Y-71434388D01*
X147945932Y-70828942D01*
X149137437Y-69637437D01*
X149516789Y-69069696D01*
X149650000Y-68400000D01*
X149650000Y-68250000D01*
X153315337Y-68250000D01*
X153200000Y-68829838D01*
X153200000Y-68910162D01*
X153356047Y-69694663D01*
X153800431Y-70359731D01*
X154465499Y-70804115D01*
X155250000Y-70960162D01*
X156034501Y-70804115D01*
X156674423Y-70376533D01*
X156890269Y-70699569D01*
X157555337Y-71143953D01*
X158339838Y-71300000D01*
X158420162Y-71300000D01*
X159204663Y-71143953D01*
X159869731Y-70699569D01*
X160314115Y-70034501D01*
X160470162Y-69250000D01*
X160314115Y-68465499D01*
X160170123Y-68250000D01*
X164195529Y-68250000D01*
X163950357Y-68840441D01*
X163949645Y-69655981D01*
X164261081Y-70409715D01*
X164837252Y-70986892D01*
X165590441Y-71299643D01*
X166405981Y-71300355D01*
X167159715Y-70988919D01*
X167363109Y-70785879D01*
X167529940Y-70953001D01*
X168268432Y-71259650D01*
X169068060Y-71260348D01*
X169807086Y-70954988D01*
X169939736Y-70822569D01*
X170069940Y-70953001D01*
X170808432Y-71259650D01*
X171608060Y-71260348D01*
X172229798Y-71003450D01*
X172494153Y-71184076D01*
X172990000Y-71284488D01*
X174510000Y-71284488D01*
X174973222Y-71197327D01*
X175398663Y-70923563D01*
X175461662Y-70831361D01*
X175555337Y-70893953D01*
X176313172Y-71044696D01*
X175979590Y-71267588D01*
X175448497Y-72062426D01*
X175262002Y-73000000D01*
X175448497Y-73937574D01*
X175979590Y-74732412D01*
X176362623Y-74988346D01*
X176013108Y-75337252D01*
X175700357Y-76090441D01*
X175699645Y-76905981D01*
X176011081Y-77659715D01*
X176587252Y-78236892D01*
X177340441Y-78549643D01*
X178155981Y-78550355D01*
X178909715Y-78238919D01*
X179486892Y-77662748D01*
X179624953Y-77330260D01*
X179761081Y-77659715D01*
X180337252Y-78236892D01*
X181090441Y-78549643D01*
X181905981Y-78550355D01*
X182659715Y-78238919D01*
X183236892Y-77662748D01*
X183549643Y-76909559D01*
X183550355Y-76094019D01*
X183238919Y-75340285D01*
X182662748Y-74763108D01*
X181909559Y-74450357D01*
X181094019Y-74449645D01*
X180340285Y-74761081D01*
X179763108Y-75337252D01*
X179625047Y-75669740D01*
X179488919Y-75340285D01*
X179145509Y-74996276D01*
X179540410Y-74732412D01*
X180071503Y-73937574D01*
X180161486Y-73485197D01*
X190549576Y-73485197D01*
X190921780Y-74386000D01*
X191610375Y-75075798D01*
X192510527Y-75449573D01*
X193485197Y-75450424D01*
X194386000Y-75078220D01*
X195075798Y-74389625D01*
X195449573Y-73489473D01*
X195450424Y-72514803D01*
X195078220Y-71614000D01*
X194389625Y-70924202D01*
X193489473Y-70550427D01*
X192514803Y-70549576D01*
X191614000Y-70921780D01*
X190924202Y-71610375D01*
X190550427Y-72510527D01*
X190549576Y-73485197D01*
X180161486Y-73485197D01*
X180257998Y-73000000D01*
X180071503Y-72062426D01*
X179540410Y-71267588D01*
X178745572Y-70736495D01*
X177807998Y-70550000D01*
X177719425Y-70550000D01*
X177869731Y-70449569D01*
X178314115Y-69784501D01*
X178470162Y-69000000D01*
X178320978Y-68250000D01*
X182091720Y-68250000D01*
X181950357Y-68590441D01*
X181949645Y-69405981D01*
X182261081Y-70159715D01*
X182837252Y-70736892D01*
X183590441Y-71049643D01*
X184405981Y-71050355D01*
X185159715Y-70738919D01*
X185249870Y-70648921D01*
X185587252Y-70986892D01*
X186340441Y-71299643D01*
X187155981Y-71300355D01*
X187909715Y-70988919D01*
X188486892Y-70412748D01*
X188799643Y-69659559D01*
X188800355Y-68844019D01*
X188554912Y-68250000D01*
X196125512Y-68250000D01*
X196125512Y-69600000D01*
X196212673Y-70063222D01*
X196486437Y-70488663D01*
X196904153Y-70774076D01*
X197400000Y-70874488D01*
X199600000Y-70874488D01*
X199950000Y-70808631D01*
X199950000Y-74270806D01*
X199399306Y-73902844D01*
X198500000Y-73723961D01*
X197600694Y-73902844D01*
X196838299Y-74412260D01*
X196328883Y-75174655D01*
X196150000Y-76073961D01*
X196150000Y-76166039D01*
X196245361Y-76645450D01*
X195900000Y-76575512D01*
X194100000Y-76575512D01*
X193636778Y-76662673D01*
X193211337Y-76936437D01*
X192925924Y-77354153D01*
X192825512Y-77850000D01*
X192825512Y-79650000D01*
X192912673Y-80113222D01*
X193063395Y-80347450D01*
X192850374Y-80860462D01*
X192849642Y-81700086D01*
X192344019Y-81699645D01*
X191590285Y-82011081D01*
X191013108Y-82587252D01*
X190700357Y-83340441D01*
X190699645Y-84155981D01*
X191011081Y-84909715D01*
X191587252Y-85486892D01*
X192340441Y-85799643D01*
X193155981Y-85800355D01*
X193909715Y-85488919D01*
X194486892Y-84912748D01*
X194799643Y-84159559D01*
X194800271Y-83439826D01*
X195425785Y-83440372D01*
X196216286Y-83113744D01*
X196821619Y-82509467D01*
X197149626Y-81719538D01*
X197150372Y-80864215D01*
X196936652Y-80346973D01*
X197074076Y-80145847D01*
X197174488Y-79650000D01*
X197174488Y-78052374D01*
X197600694Y-78337156D01*
X198500000Y-78516039D01*
X199399306Y-78337156D01*
X199950000Y-77969194D01*
X199950000Y-85100000D01*
X199969696Y-85197264D01*
X200025682Y-85279202D01*
X200109136Y-85332903D01*
X200200000Y-85350000D01*
X218500000Y-85350000D01*
X218597264Y-85330304D01*
X218668131Y-85281883D01*
X218736495Y-85625572D01*
X219267588Y-86420410D01*
X220062426Y-86951503D01*
X221000000Y-87137998D01*
X221937574Y-86951503D01*
X222732412Y-86420410D01*
X223263505Y-85625572D01*
X223373410Y-85073039D01*
X236053699Y-85073039D01*
X236920000Y-85939340D01*
X237359340Y-85500000D01*
X239225512Y-85500000D01*
X239225512Y-88500000D01*
X239312673Y-88963222D01*
X239586437Y-89388663D01*
X240004153Y-89674076D01*
X240500000Y-89774488D01*
X243500000Y-89774488D01*
X243963222Y-89687327D01*
X244388663Y-89413563D01*
X244674076Y-88995847D01*
X244774488Y-88500000D01*
X244774488Y-87185197D01*
X250549576Y-87185197D01*
X250921780Y-88086000D01*
X251610375Y-88775798D01*
X252510527Y-89149573D01*
X253485197Y-89150424D01*
X254386000Y-88778220D01*
X255075798Y-88089625D01*
X255449573Y-87189473D01*
X255450424Y-86214803D01*
X255078220Y-85314000D01*
X254389625Y-84624202D01*
X253489473Y-84250427D01*
X252514803Y-84249576D01*
X251614000Y-84621780D01*
X250924202Y-85310375D01*
X250550427Y-86210527D01*
X250549576Y-87185197D01*
X244774488Y-87185197D01*
X244774488Y-85500000D01*
X244687327Y-85036778D01*
X244413563Y-84611337D01*
X243995847Y-84325924D01*
X243500000Y-84225512D01*
X240500000Y-84225512D01*
X240036778Y-84312673D01*
X239611337Y-84586437D01*
X239325924Y-85004153D01*
X239225512Y-85500000D01*
X237359340Y-85500000D01*
X237786301Y-85073039D01*
X237592639Y-84798216D01*
X236698851Y-84708408D01*
X236247361Y-84798216D01*
X236053699Y-85073039D01*
X223373410Y-85073039D01*
X223450000Y-84687998D01*
X223450000Y-84592002D01*
X223263505Y-83654428D01*
X222732412Y-82859590D01*
X222652181Y-82805981D01*
X224749645Y-82805981D01*
X225061081Y-83559715D01*
X225637252Y-84136892D01*
X226390441Y-84449643D01*
X227205981Y-84450355D01*
X227959715Y-84138919D01*
X228536892Y-83562748D01*
X228573324Y-83475010D01*
X228850431Y-83889731D01*
X229515499Y-84334115D01*
X230300000Y-84490162D01*
X231084501Y-84334115D01*
X231749569Y-83889731D01*
X232193953Y-83224663D01*
X232350000Y-82440162D01*
X232350000Y-82359838D01*
X232193953Y-81575337D01*
X231749569Y-80910269D01*
X231084501Y-80465885D01*
X230300000Y-80309838D01*
X229515499Y-80465885D01*
X228850431Y-80910269D01*
X228573691Y-81324440D01*
X228538919Y-81240285D01*
X227962748Y-80663108D01*
X227209559Y-80350357D01*
X226394019Y-80349645D01*
X225640285Y-80661081D01*
X225063108Y-81237252D01*
X224750357Y-81990441D01*
X224749645Y-82805981D01*
X222652181Y-82805981D01*
X221937574Y-82328497D01*
X221000000Y-82142002D01*
X220062426Y-82328497D01*
X219267588Y-82859590D01*
X218750000Y-83634216D01*
X218750000Y-79230635D01*
X230775306Y-79230635D01*
X231125088Y-79727838D01*
X231569369Y-80024665D01*
X231800000Y-79908737D01*
X231800000Y-79000000D01*
X232600000Y-79000000D01*
X232600000Y-79908737D01*
X232830631Y-80024665D01*
X233274912Y-79727838D01*
X233372232Y-79589500D01*
X240042000Y-79589500D01*
X240042000Y-80150776D01*
X240157399Y-80429373D01*
X240370628Y-80642602D01*
X240649225Y-80758000D01*
X241210500Y-80758000D01*
X241400000Y-80568500D01*
X241400000Y-79400000D01*
X242600000Y-79400000D01*
X242600000Y-80568500D01*
X242789500Y-80758000D01*
X243350775Y-80758000D01*
X243629372Y-80642602D01*
X243842601Y-80429373D01*
X243958000Y-80150776D01*
X243958000Y-79589500D01*
X255442000Y-79589500D01*
X255442000Y-80150776D01*
X255557399Y-80429373D01*
X255770628Y-80642602D01*
X256049225Y-80758000D01*
X256610500Y-80758000D01*
X256800000Y-80568500D01*
X256800000Y-79400000D01*
X258000000Y-79400000D01*
X258000000Y-80568500D01*
X258189500Y-80758000D01*
X258750775Y-80758000D01*
X259029372Y-80642602D01*
X259242601Y-80429373D01*
X259358000Y-80150776D01*
X259358000Y-79589500D01*
X259168500Y-79400000D01*
X258000000Y-79400000D01*
X256800000Y-79400000D01*
X255631500Y-79400000D01*
X255442000Y-79589500D01*
X243958000Y-79589500D01*
X243768500Y-79400000D01*
X242600000Y-79400000D01*
X241400000Y-79400000D01*
X240231500Y-79400000D01*
X240042000Y-79589500D01*
X233372232Y-79589500D01*
X233624694Y-79230635D01*
X233516307Y-79000000D01*
X232600000Y-79000000D01*
X231800000Y-79000000D01*
X230883693Y-79000000D01*
X230775306Y-79230635D01*
X218750000Y-79230635D01*
X218750000Y-77969365D01*
X230775306Y-77969365D01*
X230883693Y-78200000D01*
X231800000Y-78200000D01*
X231800000Y-77291263D01*
X232600000Y-77291263D01*
X232600000Y-78200000D01*
X233516307Y-78200000D01*
X233624694Y-77969365D01*
X233274912Y-77472162D01*
X233240580Y-77449224D01*
X240042000Y-77449224D01*
X240042000Y-78010500D01*
X240231500Y-78200000D01*
X241400000Y-78200000D01*
X241400000Y-77031500D01*
X242600000Y-77031500D01*
X242600000Y-78200000D01*
X243768500Y-78200000D01*
X243958000Y-78010500D01*
X243958000Y-77449224D01*
X255442000Y-77449224D01*
X255442000Y-78010500D01*
X255631500Y-78200000D01*
X256800000Y-78200000D01*
X256800000Y-77031500D01*
X258000000Y-77031500D01*
X258000000Y-78200000D01*
X259168500Y-78200000D01*
X259358000Y-78010500D01*
X259358000Y-77449224D01*
X259242601Y-77170627D01*
X259029372Y-76957398D01*
X258750775Y-76842000D01*
X258189500Y-76842000D01*
X258000000Y-77031500D01*
X256800000Y-77031500D01*
X256610500Y-76842000D01*
X256049225Y-76842000D01*
X255770628Y-76957398D01*
X255557399Y-77170627D01*
X255442000Y-77449224D01*
X243958000Y-77449224D01*
X243842601Y-77170627D01*
X243629372Y-76957398D01*
X243350775Y-76842000D01*
X242789500Y-76842000D01*
X242600000Y-77031500D01*
X241400000Y-77031500D01*
X241210500Y-76842000D01*
X240649225Y-76842000D01*
X240370628Y-76957398D01*
X240157399Y-77170627D01*
X240042000Y-77449224D01*
X233240580Y-77449224D01*
X232830631Y-77175335D01*
X232600000Y-77291263D01*
X231800000Y-77291263D01*
X231569369Y-77175335D01*
X231125088Y-77472162D01*
X230775306Y-77969365D01*
X218750000Y-77969365D01*
X218750000Y-71730234D01*
X219756279Y-72402608D01*
X221000000Y-72650000D01*
X222243721Y-72402608D01*
X223298097Y-71698097D01*
X224002608Y-70643721D01*
X224250000Y-69400000D01*
X224250000Y-69346194D01*
X224550000Y-69046194D01*
X224550000Y-69700000D01*
X224721271Y-70561038D01*
X225209010Y-71290990D01*
X225938962Y-71778729D01*
X226800000Y-71950000D01*
X227628521Y-71785197D01*
X239549576Y-71785197D01*
X239921780Y-72686000D01*
X240610375Y-73375798D01*
X241510527Y-73749573D01*
X242485197Y-73750424D01*
X243386000Y-73378220D01*
X244075798Y-72689625D01*
X244449573Y-71789473D01*
X244449576Y-71785197D01*
X254949576Y-71785197D01*
X255321780Y-72686000D01*
X256010375Y-73375798D01*
X256910527Y-73749573D01*
X257885197Y-73750424D01*
X258786000Y-73378220D01*
X259475798Y-72689625D01*
X259849573Y-71789473D01*
X259850424Y-70814803D01*
X259478220Y-69914000D01*
X258789625Y-69224202D01*
X257889473Y-68850427D01*
X256914803Y-68849576D01*
X256014000Y-69221780D01*
X255324202Y-69910375D01*
X254950427Y-70810527D01*
X254949576Y-71785197D01*
X244449576Y-71785197D01*
X244450424Y-70814803D01*
X244078220Y-69914000D01*
X243389625Y-69224202D01*
X242489473Y-68850427D01*
X241514803Y-68849576D01*
X240614000Y-69221780D01*
X239924202Y-69910375D01*
X239550427Y-70810527D01*
X239549576Y-71785197D01*
X227628521Y-71785197D01*
X227661038Y-71778729D01*
X228390990Y-71290990D01*
X228878729Y-70561038D01*
X229050000Y-69700000D01*
X229050000Y-68250000D01*
X230150305Y-68250000D01*
X230149645Y-69005981D01*
X230461081Y-69759715D01*
X231037252Y-70336892D01*
X231790441Y-70649643D01*
X232605981Y-70650355D01*
X233359715Y-70338919D01*
X233936892Y-69762748D01*
X234249643Y-69009559D01*
X234250306Y-68250000D01*
X264675000Y-68250000D01*
X264675000Y-91659019D01*
X264440776Y-91562000D01*
X264054500Y-91562000D01*
X263865000Y-91751500D01*
X263865000Y-92745000D01*
X264290000Y-92745000D01*
X264290000Y-93595000D01*
X263865000Y-93595000D01*
X263865000Y-93686354D01*
X263481141Y-93610000D01*
X263398859Y-93610000D01*
X263015000Y-93686354D01*
X263015000Y-93595000D01*
X262021500Y-93595000D01*
X261832000Y-93784500D01*
X261832000Y-94170775D01*
X261877240Y-94279994D01*
X261458712Y-94906365D01*
X261298859Y-95710000D01*
X261458712Y-96513635D01*
X261913935Y-97194924D01*
X262595224Y-97650147D01*
X263398859Y-97810000D01*
X263481141Y-97810000D01*
X264284776Y-97650147D01*
X264675000Y-97389408D01*
X264675000Y-99017875D01*
X264268777Y-98610942D01*
X262799140Y-98000695D01*
X261207841Y-97999307D01*
X259737142Y-98606987D01*
X258610942Y-99731223D01*
X258000695Y-101200860D01*
X257999307Y-102792159D01*
X258606987Y-104262858D01*
X259018410Y-104675000D01*
X257307837Y-104675000D01*
X257327740Y-104661701D01*
X257837156Y-103899306D01*
X258016039Y-103000000D01*
X257837156Y-102100694D01*
X257435785Y-101500000D01*
X257837156Y-100899306D01*
X258016039Y-100000000D01*
X257837156Y-99100694D01*
X257327740Y-98338299D01*
X256565345Y-97828883D01*
X255666039Y-97650000D01*
X255573961Y-97650000D01*
X254674655Y-97828883D01*
X253912260Y-98338299D01*
X253402844Y-99100694D01*
X253223961Y-100000000D01*
X253402844Y-100899306D01*
X253804215Y-101500000D01*
X253402844Y-102100694D01*
X253223961Y-103000000D01*
X253402844Y-103899306D01*
X253912260Y-104661701D01*
X253932163Y-104675000D01*
X249596974Y-104675000D01*
X249742602Y-104529372D01*
X249858000Y-104250775D01*
X249858000Y-103739500D01*
X249668500Y-103550000D01*
X248550000Y-103550000D01*
X248550000Y-104100000D01*
X247450000Y-104100000D01*
X247450000Y-103550000D01*
X246331500Y-103550000D01*
X246142000Y-103739500D01*
X246142000Y-104250775D01*
X246257398Y-104529372D01*
X246403026Y-104675000D01*
X190815336Y-104675000D01*
X190950000Y-103997998D01*
X190950000Y-103902002D01*
X190768752Y-102990805D01*
X192794881Y-102990805D01*
X192879983Y-103238846D01*
X193490064Y-103348239D01*
X194040017Y-103238846D01*
X194125119Y-102990805D01*
X193460000Y-102325685D01*
X192794881Y-102990805D01*
X190768752Y-102990805D01*
X190763505Y-102964428D01*
X190232412Y-102169590D01*
X189664411Y-101790064D01*
X191871761Y-101790064D01*
X191981154Y-102340017D01*
X192229195Y-102425119D01*
X192894315Y-101760000D01*
X194025685Y-101760000D01*
X194690805Y-102425119D01*
X194938846Y-102340017D01*
X195042848Y-101760000D01*
X204069838Y-101760000D01*
X204225885Y-102544501D01*
X204670269Y-103209569D01*
X205335337Y-103653953D01*
X206119838Y-103810000D01*
X206200162Y-103810000D01*
X206984663Y-103653953D01*
X207649731Y-103209569D01*
X208094115Y-102544501D01*
X208137386Y-102326961D01*
X214853699Y-102326961D01*
X215047361Y-102601784D01*
X215941149Y-102691592D01*
X216392639Y-102601784D01*
X216586301Y-102326961D01*
X215720000Y-101460660D01*
X214853699Y-102326961D01*
X208137386Y-102326961D01*
X208250162Y-101760000D01*
X208094115Y-100975499D01*
X207857347Y-100621149D01*
X213428408Y-100621149D01*
X213518216Y-101072639D01*
X213793039Y-101266301D01*
X214659340Y-100400000D01*
X216780660Y-100400000D01*
X217646961Y-101266301D01*
X217921784Y-101072639D01*
X218011592Y-100178851D01*
X217921784Y-99727361D01*
X217646961Y-99533699D01*
X216780660Y-100400000D01*
X214659340Y-100400000D01*
X213793039Y-99533699D01*
X213518216Y-99727361D01*
X213428408Y-100621149D01*
X207857347Y-100621149D01*
X207649731Y-100310431D01*
X206984663Y-99866047D01*
X206200162Y-99710000D01*
X206119838Y-99710000D01*
X205335337Y-99866047D01*
X204670269Y-100310431D01*
X204225885Y-100975499D01*
X204069838Y-101760000D01*
X195042848Y-101760000D01*
X195048239Y-101729936D01*
X194938846Y-101179983D01*
X194690805Y-101094881D01*
X194025685Y-101760000D01*
X192894315Y-101760000D01*
X192229195Y-101094881D01*
X191981154Y-101179983D01*
X191871761Y-101790064D01*
X189664411Y-101790064D01*
X189437574Y-101638497D01*
X188500000Y-101452002D01*
X187562426Y-101638497D01*
X186767588Y-102169590D01*
X186236495Y-102964428D01*
X186050000Y-103902002D01*
X186050000Y-103997998D01*
X186184664Y-104675000D01*
X183682320Y-104675000D01*
X184160579Y-104579869D01*
X184292183Y-104320001D01*
X183540000Y-103567817D01*
X182787817Y-104320001D01*
X182919421Y-104579869D01*
X183607438Y-104675000D01*
X178602320Y-104675000D01*
X179080579Y-104579869D01*
X179212183Y-104320001D01*
X178460000Y-103567817D01*
X177707817Y-104320001D01*
X177839421Y-104579869D01*
X178527438Y-104675000D01*
X154085613Y-104675000D01*
X154299643Y-104159559D01*
X154300020Y-103726961D01*
X160953699Y-103726961D01*
X161147361Y-104001784D01*
X162041149Y-104091592D01*
X162492639Y-104001784D01*
X162686301Y-103726961D01*
X161820000Y-102860660D01*
X160953699Y-103726961D01*
X154300020Y-103726961D01*
X154300355Y-103344019D01*
X153988919Y-102590285D01*
X153420775Y-102021149D01*
X159528408Y-102021149D01*
X159618216Y-102472639D01*
X159893039Y-102666301D01*
X160759340Y-101800000D01*
X162880660Y-101800000D01*
X163746961Y-102666301D01*
X164021784Y-102472639D01*
X164111592Y-101578851D01*
X164021784Y-101127361D01*
X163746961Y-100933699D01*
X162880660Y-101800000D01*
X160759340Y-101800000D01*
X159893039Y-100933699D01*
X159618216Y-101127361D01*
X159528408Y-102021149D01*
X153420775Y-102021149D01*
X153412748Y-102013108D01*
X153382037Y-102000355D01*
X153409715Y-101988919D01*
X153986892Y-101412748D01*
X154299643Y-100659559D01*
X154300329Y-99873039D01*
X160953699Y-99873039D01*
X161820000Y-100739340D01*
X162259340Y-100300000D01*
X164125512Y-100300000D01*
X164125512Y-103300000D01*
X164212673Y-103763222D01*
X164486437Y-104188663D01*
X164904153Y-104474076D01*
X165400000Y-104574488D01*
X168400000Y-104574488D01*
X168863222Y-104487327D01*
X169288663Y-104213563D01*
X169574076Y-103795847D01*
X169674488Y-103300000D01*
X169674488Y-102901613D01*
X176568892Y-102901613D01*
X176670131Y-103410579D01*
X176929999Y-103542183D01*
X177682183Y-102790000D01*
X176929999Y-102037817D01*
X176670131Y-102169421D01*
X176568892Y-102901613D01*
X169674488Y-102901613D01*
X169674488Y-100300000D01*
X169587327Y-99836778D01*
X169313563Y-99411337D01*
X169062805Y-99240001D01*
X177707817Y-99240001D01*
X177839421Y-99499869D01*
X178571613Y-99601108D01*
X178581393Y-99599163D01*
X178759875Y-99777645D01*
X178750392Y-99800484D01*
X178749610Y-100695589D01*
X178760437Y-100721793D01*
X178554798Y-100927432D01*
X178348387Y-100898892D01*
X177839421Y-101000131D01*
X177707817Y-101259999D01*
X178460000Y-102012183D01*
X178848909Y-101623274D01*
X179626726Y-102401091D01*
X179237817Y-102790000D01*
X179990001Y-103542183D01*
X180249869Y-103410579D01*
X180351108Y-102678387D01*
X180349163Y-102668607D01*
X180527645Y-102490125D01*
X180550484Y-102499608D01*
X181445589Y-102500390D01*
X181471793Y-102489563D01*
X181677432Y-102695202D01*
X181648892Y-102901613D01*
X181750131Y-103410579D01*
X182009999Y-103542183D01*
X182762183Y-102790000D01*
X184317817Y-102790000D01*
X185070001Y-103542183D01*
X185329869Y-103410579D01*
X185431108Y-102678387D01*
X185329869Y-102169421D01*
X185070001Y-102037817D01*
X184317817Y-102790000D01*
X182762183Y-102790000D01*
X182373274Y-102401091D01*
X183151091Y-101623274D01*
X183540000Y-102012183D01*
X184292183Y-101259999D01*
X184160579Y-101000131D01*
X183428387Y-100898892D01*
X183418607Y-100900837D01*
X183240125Y-100722355D01*
X183249608Y-100699516D01*
X183249756Y-100529195D01*
X192794881Y-100529195D01*
X193460000Y-101194315D01*
X194125119Y-100529195D01*
X194040017Y-100281154D01*
X193429936Y-100171761D01*
X192879983Y-100281154D01*
X192794881Y-100529195D01*
X183249756Y-100529195D01*
X183250390Y-99804411D01*
X183239563Y-99778207D01*
X183445202Y-99572568D01*
X183651613Y-99601108D01*
X184160579Y-99499869D01*
X184292183Y-99240001D01*
X183540000Y-98487817D01*
X183151091Y-98876726D01*
X182747404Y-98473039D01*
X214853699Y-98473039D01*
X215720000Y-99339340D01*
X216159340Y-98900000D01*
X218025512Y-98900000D01*
X218025512Y-101900000D01*
X218112673Y-102363222D01*
X218386437Y-102788663D01*
X218804153Y-103074076D01*
X219300000Y-103174488D01*
X222300000Y-103174488D01*
X222763222Y-103087327D01*
X223188663Y-102813563D01*
X223474076Y-102395847D01*
X223574488Y-101900000D01*
X223574488Y-98900000D01*
X245625512Y-98900000D01*
X245625512Y-101100000D01*
X245712673Y-101563222D01*
X245986437Y-101988663D01*
X246142000Y-102094955D01*
X246142000Y-102260500D01*
X246331500Y-102450000D01*
X247450000Y-102450000D01*
X247450000Y-102374488D01*
X248550000Y-102374488D01*
X248550000Y-102450000D01*
X249668500Y-102450000D01*
X249858000Y-102260500D01*
X249858000Y-102097642D01*
X249988663Y-102013563D01*
X250274076Y-101595847D01*
X250374488Y-101100000D01*
X250374488Y-98900000D01*
X250287327Y-98436778D01*
X250013563Y-98011337D01*
X249595847Y-97725924D01*
X249100000Y-97625512D01*
X246900000Y-97625512D01*
X246436778Y-97712673D01*
X246011337Y-97986437D01*
X245725924Y-98404153D01*
X245625512Y-98900000D01*
X223574488Y-98900000D01*
X223487327Y-98436778D01*
X223213563Y-98011337D01*
X222795847Y-97725924D01*
X222300000Y-97625512D01*
X219300000Y-97625512D01*
X218836778Y-97712673D01*
X218411337Y-97986437D01*
X218125924Y-98404153D01*
X218025512Y-98900000D01*
X216159340Y-98900000D01*
X216586301Y-98473039D01*
X216392639Y-98198216D01*
X215498851Y-98108408D01*
X215047361Y-98198216D01*
X214853699Y-98473039D01*
X182747404Y-98473039D01*
X182373274Y-98098909D01*
X182762183Y-97710000D01*
X184317817Y-97710000D01*
X185070001Y-98462183D01*
X185329869Y-98330579D01*
X185431108Y-97598387D01*
X185329869Y-97089421D01*
X185312520Y-97080635D01*
X191325306Y-97080635D01*
X191675088Y-97577838D01*
X192119369Y-97874665D01*
X192350000Y-97758737D01*
X192350000Y-96850000D01*
X193150000Y-96850000D01*
X193150000Y-97758737D01*
X193380631Y-97874665D01*
X193824912Y-97577838D01*
X194174694Y-97080635D01*
X194066307Y-96850000D01*
X193150000Y-96850000D01*
X192350000Y-96850000D01*
X191433693Y-96850000D01*
X191325306Y-97080635D01*
X185312520Y-97080635D01*
X185070001Y-96957817D01*
X184317817Y-97710000D01*
X182762183Y-97710000D01*
X182009999Y-96957817D01*
X181750131Y-97089421D01*
X181648892Y-97821613D01*
X181650837Y-97831393D01*
X181472355Y-98009875D01*
X181449516Y-98000392D01*
X180554411Y-97999610D01*
X180528207Y-98010437D01*
X180322568Y-97804798D01*
X180351108Y-97598387D01*
X180249869Y-97089421D01*
X179990001Y-96957817D01*
X179237817Y-97710000D01*
X179626726Y-98098909D01*
X178848909Y-98876726D01*
X178460000Y-98487817D01*
X177707817Y-99240001D01*
X169062805Y-99240001D01*
X168895847Y-99125924D01*
X168400000Y-99025512D01*
X165400000Y-99025512D01*
X164936778Y-99112673D01*
X164511337Y-99386437D01*
X164225924Y-99804153D01*
X164125512Y-100300000D01*
X162259340Y-100300000D01*
X162686301Y-99873039D01*
X162492639Y-99598216D01*
X161598851Y-99508408D01*
X161147361Y-99598216D01*
X160953699Y-99873039D01*
X154300329Y-99873039D01*
X154300355Y-99844019D01*
X153988919Y-99090285D01*
X153412748Y-98513108D01*
X153399019Y-98507407D01*
X153859731Y-98199569D01*
X154112272Y-97821613D01*
X176568892Y-97821613D01*
X176670131Y-98330579D01*
X176929999Y-98462183D01*
X177682183Y-97710000D01*
X176929999Y-96957817D01*
X176670131Y-97089421D01*
X176568892Y-97821613D01*
X154112272Y-97821613D01*
X154304115Y-97534501D01*
X154460162Y-96750000D01*
X154304115Y-95965499D01*
X153930258Y-95405981D01*
X158949645Y-95405981D01*
X159261081Y-96159715D01*
X159837252Y-96736892D01*
X160590441Y-97049643D01*
X161405981Y-97050355D01*
X162159715Y-96738919D01*
X162736892Y-96162748D01*
X162957846Y-95630631D01*
X167195335Y-95630631D01*
X167492162Y-96074912D01*
X167989365Y-96424694D01*
X168220000Y-96316307D01*
X168220000Y-95400000D01*
X169020000Y-95400000D01*
X169020000Y-96316307D01*
X169250635Y-96424694D01*
X169598460Y-96179999D01*
X177707817Y-96179999D01*
X178460000Y-96932183D01*
X179212183Y-96179999D01*
X182787817Y-96179999D01*
X183540000Y-96932183D01*
X184292183Y-96179999D01*
X184160579Y-95920131D01*
X183431808Y-95819365D01*
X191325306Y-95819365D01*
X191433693Y-96050000D01*
X192350000Y-96050000D01*
X192350000Y-95141263D01*
X193150000Y-95141263D01*
X193150000Y-96050000D01*
X194066307Y-96050000D01*
X194174694Y-95819365D01*
X193824912Y-95322162D01*
X193380631Y-95025335D01*
X193150000Y-95141263D01*
X192350000Y-95141263D01*
X192119369Y-95025335D01*
X191675088Y-95322162D01*
X191325306Y-95819365D01*
X183431808Y-95819365D01*
X183428387Y-95818892D01*
X182919421Y-95920131D01*
X182787817Y-96179999D01*
X179212183Y-96179999D01*
X179080579Y-95920131D01*
X178348387Y-95818892D01*
X177839421Y-95920131D01*
X177707817Y-96179999D01*
X169598460Y-96179999D01*
X169747838Y-96074912D01*
X170044665Y-95630631D01*
X169928737Y-95400000D01*
X169020000Y-95400000D01*
X168220000Y-95400000D01*
X167311263Y-95400000D01*
X167195335Y-95630631D01*
X162957846Y-95630631D01*
X163049643Y-95409559D01*
X163050009Y-94989500D01*
X251042000Y-94989500D01*
X251042000Y-95550776D01*
X251157399Y-95829373D01*
X251370628Y-96042602D01*
X251649225Y-96158000D01*
X252210500Y-96158000D01*
X252400000Y-95968500D01*
X252400000Y-94800000D01*
X253600000Y-94800000D01*
X253600000Y-95968500D01*
X253789500Y-96158000D01*
X254350775Y-96158000D01*
X254629372Y-96042602D01*
X254842601Y-95829373D01*
X254958000Y-95550776D01*
X254958000Y-94989500D01*
X254768500Y-94800000D01*
X253600000Y-94800000D01*
X252400000Y-94800000D01*
X251231500Y-94800000D01*
X251042000Y-94989500D01*
X163050009Y-94989500D01*
X163050355Y-94594019D01*
X162957532Y-94369369D01*
X167195335Y-94369369D01*
X167311263Y-94600000D01*
X168220000Y-94600000D01*
X168220000Y-93683693D01*
X169020000Y-93683693D01*
X169020000Y-94600000D01*
X169928737Y-94600000D01*
X170044665Y-94369369D01*
X169747838Y-93925088D01*
X169250635Y-93575306D01*
X169020000Y-93683693D01*
X168220000Y-93683693D01*
X167989365Y-93575306D01*
X167492162Y-93925088D01*
X167195335Y-94369369D01*
X162957532Y-94369369D01*
X162738919Y-93840285D01*
X162162748Y-93263108D01*
X161409559Y-92950357D01*
X160594019Y-92949645D01*
X159840285Y-93261081D01*
X159263108Y-93837252D01*
X158950357Y-94590441D01*
X158949645Y-95405981D01*
X153930258Y-95405981D01*
X153859731Y-95300431D01*
X153194663Y-94856047D01*
X152410162Y-94700000D01*
X152329838Y-94700000D01*
X151545337Y-94856047D01*
X150880269Y-95300431D01*
X150435885Y-95965499D01*
X150279838Y-96750000D01*
X150435885Y-97534501D01*
X150880269Y-98199569D01*
X151248588Y-98445672D01*
X151090285Y-98511081D01*
X150513108Y-99087252D01*
X150200357Y-99840441D01*
X150199645Y-100655981D01*
X150511081Y-101409715D01*
X151087252Y-101986892D01*
X151117963Y-101999645D01*
X151090285Y-102011081D01*
X150513108Y-102587252D01*
X150200357Y-103340441D01*
X150199645Y-104155981D01*
X150414099Y-104675000D01*
X146470237Y-104675000D01*
X146564115Y-104534501D01*
X146720162Y-103750000D01*
X146564115Y-102965499D01*
X146119731Y-102300431D01*
X145670104Y-102000000D01*
X146119731Y-101699569D01*
X146564115Y-101034501D01*
X146720162Y-100250000D01*
X146564115Y-99465499D01*
X146119731Y-98800431D01*
X145751412Y-98554328D01*
X145909715Y-98488919D01*
X146486892Y-97912748D01*
X146799643Y-97159559D01*
X146800355Y-96344019D01*
X146488919Y-95590285D01*
X145912748Y-95013108D01*
X145159559Y-94700357D01*
X144344019Y-94699645D01*
X143590285Y-95011081D01*
X143013108Y-95587252D01*
X142700357Y-96340441D01*
X142699645Y-97155981D01*
X143011081Y-97909715D01*
X143587252Y-98486892D01*
X143600981Y-98492593D01*
X143140269Y-98800431D01*
X142695885Y-99465499D01*
X142539838Y-100250000D01*
X142695885Y-101034501D01*
X143140269Y-101699569D01*
X143589896Y-102000000D01*
X143140269Y-102300431D01*
X142695885Y-102965499D01*
X142539838Y-103750000D01*
X142695885Y-104534501D01*
X142789763Y-104675000D01*
X140104920Y-104675000D01*
X140114458Y-104671059D01*
X140669111Y-104117373D01*
X140969658Y-103393576D01*
X140970342Y-102609862D01*
X140671059Y-101885542D01*
X140516002Y-101730215D01*
X140669111Y-101577373D01*
X140969658Y-100853576D01*
X140970342Y-100069862D01*
X140671059Y-99345542D01*
X140516002Y-99190215D01*
X140669111Y-99037373D01*
X140969658Y-98313576D01*
X140970342Y-97529862D01*
X140671059Y-96805542D01*
X140117373Y-96250889D01*
X139393576Y-95950342D01*
X138609862Y-95949658D01*
X137885542Y-96248941D01*
X137330889Y-96802627D01*
X137030342Y-97526424D01*
X137029658Y-98310138D01*
X137328941Y-99034458D01*
X137483998Y-99189785D01*
X137330889Y-99342627D01*
X137030342Y-100066424D01*
X137029658Y-100850138D01*
X137328941Y-101574458D01*
X137483998Y-101729785D01*
X137330889Y-101882627D01*
X137030342Y-102606424D01*
X137029658Y-103390138D01*
X137328941Y-104114458D01*
X137882627Y-104669111D01*
X137896809Y-104675000D01*
X135793231Y-104675000D01*
X135799643Y-104659559D01*
X135800355Y-103844019D01*
X135488919Y-103090285D01*
X134912748Y-102513108D01*
X134882037Y-102500355D01*
X134909715Y-102488919D01*
X135486892Y-101912748D01*
X135799643Y-101159559D01*
X135800355Y-100344019D01*
X135488919Y-99590285D01*
X134912748Y-99013108D01*
X134309845Y-98762761D01*
X134355119Y-98630805D01*
X133690000Y-97965685D01*
X133024881Y-98630805D01*
X133085192Y-98806590D01*
X132590285Y-99011081D01*
X132013108Y-99587252D01*
X131700357Y-100340441D01*
X131699645Y-101155981D01*
X132011081Y-101909715D01*
X132587252Y-102486892D01*
X132617963Y-102499645D01*
X132590285Y-102511081D01*
X132013108Y-103087252D01*
X131700357Y-103840441D01*
X131699645Y-104655981D01*
X131707503Y-104675000D01*
X128135624Y-104675000D01*
X128220162Y-104250000D01*
X128064115Y-103465499D01*
X127619731Y-102800431D01*
X127170104Y-102500000D01*
X127619731Y-102199569D01*
X128064115Y-101534501D01*
X128220162Y-100750000D01*
X128064115Y-99965499D01*
X127619731Y-99300431D01*
X127312349Y-99095045D01*
X127679731Y-98849569D01*
X128124115Y-98184501D01*
X128274181Y-97430064D01*
X132101761Y-97430064D01*
X132211154Y-97980017D01*
X132459195Y-98065119D01*
X133124315Y-97400000D01*
X134255685Y-97400000D01*
X134920805Y-98065119D01*
X135168846Y-97980017D01*
X135278239Y-97369936D01*
X135168846Y-96819983D01*
X134920805Y-96734881D01*
X134255685Y-97400000D01*
X133124315Y-97400000D01*
X132459195Y-96734881D01*
X132211154Y-96819983D01*
X132101761Y-97430064D01*
X128274181Y-97430064D01*
X128280162Y-97400000D01*
X128124115Y-96615499D01*
X127825905Y-96169195D01*
X133024881Y-96169195D01*
X133690000Y-96834315D01*
X134355119Y-96169195D01*
X134270017Y-95921154D01*
X133659936Y-95811761D01*
X133109983Y-95921154D01*
X133024881Y-96169195D01*
X127825905Y-96169195D01*
X127679731Y-95950431D01*
X127014663Y-95506047D01*
X126230162Y-95350000D01*
X126149838Y-95350000D01*
X125365337Y-95506047D01*
X124700269Y-95950431D01*
X124255885Y-96615499D01*
X124099838Y-97400000D01*
X124255885Y-98184501D01*
X124700269Y-98849569D01*
X125007651Y-99054955D01*
X124640269Y-99300431D01*
X124195885Y-99965499D01*
X124039838Y-100750000D01*
X124195885Y-101534501D01*
X124640269Y-102199569D01*
X125089896Y-102500000D01*
X124640269Y-102800431D01*
X124195885Y-103465499D01*
X124039838Y-104250000D01*
X124124376Y-104675000D01*
X119985573Y-104675000D01*
X120059488Y-104310000D01*
X120059488Y-102790000D01*
X119972327Y-102326778D01*
X119779227Y-102026693D01*
X120034650Y-101411568D01*
X120035348Y-100611940D01*
X119729988Y-99872914D01*
X119597569Y-99740264D01*
X119728001Y-99610060D01*
X120034650Y-98871568D01*
X120035348Y-98071940D01*
X119729988Y-97332914D01*
X119165060Y-96766999D01*
X118426568Y-96460350D01*
X117626940Y-96459652D01*
X116887914Y-96765012D01*
X116321999Y-97329940D01*
X116015350Y-98068432D01*
X116014652Y-98868060D01*
X116320012Y-99607086D01*
X116452431Y-99739736D01*
X116321999Y-99869940D01*
X116015350Y-100608432D01*
X116014652Y-101408060D01*
X116271550Y-102029798D01*
X116090924Y-102294153D01*
X115990512Y-102790000D01*
X115990512Y-104310000D01*
X116059191Y-104675000D01*
X111834488Y-104675000D01*
X111834488Y-103790000D01*
X111747327Y-103326778D01*
X111554227Y-103026693D01*
X111809650Y-102411568D01*
X111810348Y-101611940D01*
X111504988Y-100872914D01*
X111372569Y-100740264D01*
X111503001Y-100610060D01*
X111809650Y-99871568D01*
X111810348Y-99071940D01*
X111504988Y-98332914D01*
X110940060Y-97766999D01*
X110201568Y-97460350D01*
X109401940Y-97459652D01*
X108662914Y-97765012D01*
X108096999Y-98329940D01*
X107790350Y-99068432D01*
X107789652Y-99868060D01*
X108095012Y-100607086D01*
X108227431Y-100739736D01*
X108096999Y-100869940D01*
X107790350Y-101608432D01*
X107789652Y-102408060D01*
X108046550Y-103029798D01*
X107865924Y-103294153D01*
X107765512Y-103790000D01*
X107765512Y-104675000D01*
X89047049Y-104675000D01*
X89050000Y-104660162D01*
X89050000Y-104579838D01*
X88893953Y-103795337D01*
X88449569Y-103130269D01*
X87784501Y-102685885D01*
X87000000Y-102529838D01*
X86215499Y-102685885D01*
X85550431Y-103130269D01*
X85166591Y-103704726D01*
X84849569Y-103230269D01*
X84184501Y-102785885D01*
X83400000Y-102629838D01*
X82615499Y-102785885D01*
X81950431Y-103230269D01*
X81506047Y-103895337D01*
X81350962Y-104675000D01*
X81250110Y-104675000D01*
X81250355Y-104394019D01*
X80938919Y-103640285D01*
X80362748Y-103063108D01*
X79609559Y-102750357D01*
X78794019Y-102749645D01*
X78040285Y-103061081D01*
X77463108Y-103637252D01*
X77150357Y-104390441D01*
X77150109Y-104675000D01*
X76267770Y-104675000D01*
X75851126Y-104258357D01*
X75778846Y-103894983D01*
X75530805Y-103809881D01*
X74865685Y-104475000D01*
X75065685Y-104675000D01*
X73534315Y-104675000D01*
X73734315Y-104475000D01*
X73069195Y-103809881D01*
X72821154Y-103894983D01*
X72757554Y-104249677D01*
X72332230Y-104675000D01*
X71711770Y-104675000D01*
X71710264Y-104670000D01*
X70675000Y-104670000D01*
X70675000Y-104675000D01*
X69575000Y-104675000D01*
X69575000Y-104670000D01*
X68539736Y-104670000D01*
X68538230Y-104675000D01*
X67589584Y-104675000D01*
X67628677Y-104635907D01*
X67176126Y-104183357D01*
X67103846Y-103819983D01*
X66855805Y-103734881D01*
X66190685Y-104400000D01*
X66465685Y-104675000D01*
X64784315Y-104675000D01*
X65059315Y-104400000D01*
X64394195Y-103734881D01*
X64146154Y-103819983D01*
X64082554Y-104174677D01*
X63621323Y-104635907D01*
X63660416Y-104675000D01*
X56720889Y-104675000D01*
X56738663Y-104663563D01*
X57024076Y-104245847D01*
X57124488Y-103750000D01*
X57124488Y-103470857D01*
X60703160Y-103470857D01*
X60973736Y-103875861D01*
X61549137Y-104316875D01*
X61820000Y-104235264D01*
X61820000Y-103200000D01*
X62920000Y-103200000D01*
X62920000Y-104235264D01*
X63190863Y-104316875D01*
X63766264Y-103875861D01*
X64036840Y-103470857D01*
X63945244Y-103200000D01*
X62920000Y-103200000D01*
X61820000Y-103200000D01*
X60794756Y-103200000D01*
X60703160Y-103470857D01*
X57124488Y-103470857D01*
X57124488Y-103169195D01*
X64959881Y-103169195D01*
X65625000Y-103834315D01*
X66160177Y-103299137D01*
X68458125Y-103299137D01*
X68539736Y-103570000D01*
X69575000Y-103570000D01*
X69575000Y-102544756D01*
X70675000Y-102544756D01*
X70675000Y-103570000D01*
X71710264Y-103570000D01*
X71791875Y-103299137D01*
X71749765Y-103244195D01*
X73634881Y-103244195D01*
X74300000Y-103909315D01*
X74965119Y-103244195D01*
X74880017Y-102996154D01*
X74269936Y-102886761D01*
X73719983Y-102996154D01*
X73634881Y-103244195D01*
X71749765Y-103244195D01*
X71350861Y-102723736D01*
X70945857Y-102453160D01*
X70675000Y-102544756D01*
X69575000Y-102544756D01*
X69304143Y-102453160D01*
X68899139Y-102723736D01*
X68458125Y-103299137D01*
X66160177Y-103299137D01*
X66290119Y-103169195D01*
X66205017Y-102921154D01*
X65594936Y-102811761D01*
X65044983Y-102921154D01*
X64959881Y-103169195D01*
X57124488Y-103169195D01*
X57124488Y-101829143D01*
X60703160Y-101829143D01*
X60794756Y-102100000D01*
X61820000Y-102100000D01*
X61820000Y-101064736D01*
X62920000Y-101064736D01*
X62920000Y-102100000D01*
X63945244Y-102100000D01*
X64036840Y-101829143D01*
X63766264Y-101424139D01*
X63190863Y-100983125D01*
X62920000Y-101064736D01*
X61820000Y-101064736D01*
X61549137Y-100983125D01*
X60973736Y-101424139D01*
X60703160Y-101829143D01*
X57124488Y-101829143D01*
X57124488Y-101550000D01*
X57037327Y-101086778D01*
X56763563Y-100661337D01*
X56345847Y-100375924D01*
X55850000Y-100275512D01*
X53650000Y-100275512D01*
X53186778Y-100362673D01*
X52940762Y-100520980D01*
X52840345Y-100453883D01*
X51941039Y-100275000D01*
X51848961Y-100275000D01*
X50949655Y-100453883D01*
X50187260Y-100963299D01*
X49677844Y-101725694D01*
X49498961Y-102625000D01*
X49677844Y-103524306D01*
X50187260Y-104286701D01*
X50768391Y-104675000D01*
X46207038Y-104675000D01*
X46263663Y-104638563D01*
X46549076Y-104220847D01*
X46649488Y-103725000D01*
X46649488Y-101525000D01*
X46562327Y-101061778D01*
X46288563Y-100636337D01*
X45870847Y-100350924D01*
X45375000Y-100250512D01*
X43175000Y-100250512D01*
X42711778Y-100337673D01*
X42286337Y-100611437D01*
X42000924Y-101029153D01*
X41900512Y-101525000D01*
X41900512Y-103725000D01*
X41987673Y-104188222D01*
X42261437Y-104613663D01*
X42351207Y-104675000D01*
X32982125Y-104675000D01*
X33389058Y-104268777D01*
X33999305Y-102799140D01*
X34000693Y-101207841D01*
X33452447Y-99880981D01*
X72249645Y-99880981D01*
X72561081Y-100634715D01*
X73137252Y-101211892D01*
X73890441Y-101524643D01*
X74705981Y-101525355D01*
X75459715Y-101213919D01*
X76036892Y-100637748D01*
X76216177Y-100205981D01*
X77149645Y-100205981D01*
X77461081Y-100959715D01*
X78037252Y-101536892D01*
X78790441Y-101849643D01*
X79605981Y-101850355D01*
X80359715Y-101538919D01*
X80936892Y-100962748D01*
X81249643Y-100209559D01*
X81250355Y-99394019D01*
X80938919Y-98640285D01*
X80362748Y-98063108D01*
X79609559Y-97750357D01*
X78794019Y-97749645D01*
X78040285Y-98061081D01*
X77463108Y-98637252D01*
X77150357Y-99390441D01*
X77149645Y-100205981D01*
X76216177Y-100205981D01*
X76349643Y-99884559D01*
X76350355Y-99069019D01*
X76038919Y-98315285D01*
X75462748Y-97738108D01*
X74903724Y-97505981D01*
X81349645Y-97505981D01*
X81661081Y-98259715D01*
X82237252Y-98836892D01*
X82990441Y-99149643D01*
X83805981Y-99150355D01*
X84559715Y-98838919D01*
X85136892Y-98262748D01*
X85220478Y-98061449D01*
X85261081Y-98159715D01*
X85837252Y-98736892D01*
X86590441Y-99049643D01*
X87405981Y-99050355D01*
X88159715Y-98738919D01*
X88736892Y-98162748D01*
X89049643Y-97409559D01*
X89050355Y-96594019D01*
X88738919Y-95840285D01*
X88162748Y-95263108D01*
X87409559Y-94950357D01*
X86594019Y-94949645D01*
X85840285Y-95261081D01*
X85263108Y-95837252D01*
X85179522Y-96038551D01*
X85138919Y-95940285D01*
X84562748Y-95363108D01*
X83809559Y-95050357D01*
X82994019Y-95049645D01*
X82240285Y-95361081D01*
X81663108Y-95937252D01*
X81350357Y-96690441D01*
X81349645Y-97505981D01*
X74903724Y-97505981D01*
X74709559Y-97425357D01*
X73894019Y-97424645D01*
X73140285Y-97736081D01*
X72563108Y-98312252D01*
X72250357Y-99065441D01*
X72249645Y-99880981D01*
X33452447Y-99880981D01*
X33393013Y-99737142D01*
X32268777Y-98610942D01*
X30799140Y-98000695D01*
X29247186Y-97999341D01*
X29544776Y-97940147D01*
X30226065Y-97484924D01*
X30681288Y-96803635D01*
X30841141Y-96000000D01*
X30681288Y-95196365D01*
X30262760Y-94569994D01*
X30308000Y-94460775D01*
X30308000Y-94074500D01*
X30118500Y-93885000D01*
X29125000Y-93885000D01*
X29125000Y-93976354D01*
X28741141Y-93900000D01*
X28658859Y-93900000D01*
X28275000Y-93976354D01*
X28275000Y-93885000D01*
X27850000Y-93885000D01*
X27850000Y-93225000D01*
X52950512Y-93225000D01*
X52950512Y-95625000D01*
X53037673Y-96088222D01*
X53311437Y-96513663D01*
X53729153Y-96799076D01*
X54225000Y-96899488D01*
X56625000Y-96899488D01*
X57088222Y-96812327D01*
X57513663Y-96538563D01*
X57799076Y-96120847D01*
X57899488Y-95625000D01*
X57899488Y-93225000D01*
X57812327Y-92761778D01*
X57538563Y-92336337D01*
X57120847Y-92050924D01*
X56625000Y-91950512D01*
X54225000Y-91950512D01*
X53761778Y-92037673D01*
X53336337Y-92311437D01*
X53050924Y-92729153D01*
X52950512Y-93225000D01*
X27850000Y-93225000D01*
X27850000Y-93035000D01*
X28275000Y-93035000D01*
X28275000Y-92041500D01*
X29125000Y-92041500D01*
X29125000Y-93035000D01*
X30118500Y-93035000D01*
X30308000Y-92845500D01*
X30308000Y-92459225D01*
X30192602Y-92180628D01*
X29979373Y-91967399D01*
X29700776Y-91852000D01*
X29314500Y-91852000D01*
X29125000Y-92041500D01*
X28275000Y-92041500D01*
X28085500Y-91852000D01*
X27699224Y-91852000D01*
X27420627Y-91967399D01*
X27325000Y-92063026D01*
X27325000Y-90250000D01*
X63100152Y-90250000D01*
X63099576Y-90910197D01*
X63471780Y-91811000D01*
X64160375Y-92500798D01*
X64547606Y-92661590D01*
X64175431Y-92910269D01*
X63731047Y-93575337D01*
X63575000Y-94359838D01*
X63575000Y-94440162D01*
X63731047Y-95224663D01*
X64175431Y-95889731D01*
X64840499Y-96334115D01*
X65625000Y-96490162D01*
X66409501Y-96334115D01*
X67074569Y-95889731D01*
X67401796Y-95400000D01*
X67750512Y-95400000D01*
X67750512Y-97600000D01*
X67837673Y-98063222D01*
X68111437Y-98488663D01*
X68529153Y-98774076D01*
X69025000Y-98874488D01*
X71225000Y-98874488D01*
X71688222Y-98787327D01*
X72113663Y-98513563D01*
X72399076Y-98095847D01*
X72499488Y-97600000D01*
X72499488Y-95864500D01*
X74667000Y-95864500D01*
X74667000Y-96325776D01*
X74782399Y-96604373D01*
X74995628Y-96817602D01*
X75274225Y-96933000D01*
X75735500Y-96933000D01*
X75925000Y-96743500D01*
X75925000Y-95675000D01*
X76925000Y-95675000D01*
X76925000Y-96743500D01*
X77114500Y-96933000D01*
X77575775Y-96933000D01*
X77854372Y-96817602D01*
X78067601Y-96604373D01*
X78183000Y-96325776D01*
X78183000Y-95864500D01*
X77993500Y-95675000D01*
X76925000Y-95675000D01*
X75925000Y-95675000D01*
X74856500Y-95675000D01*
X74667000Y-95864500D01*
X72499488Y-95864500D01*
X72499488Y-95400000D01*
X72412327Y-94936778D01*
X72138563Y-94511337D01*
X71720847Y-94225924D01*
X71225000Y-94125512D01*
X69025000Y-94125512D01*
X68561778Y-94212673D01*
X68136337Y-94486437D01*
X67850924Y-94904153D01*
X67750512Y-95400000D01*
X67401796Y-95400000D01*
X67518953Y-95224663D01*
X67675000Y-94440162D01*
X67675000Y-94359838D01*
X67608243Y-94024224D01*
X74667000Y-94024224D01*
X74667000Y-94485500D01*
X74856500Y-94675000D01*
X75925000Y-94675000D01*
X75925000Y-93606500D01*
X76925000Y-93606500D01*
X76925000Y-94675000D01*
X77993500Y-94675000D01*
X78183000Y-94485500D01*
X78183000Y-94024224D01*
X78067601Y-93745627D01*
X77854372Y-93532398D01*
X77575775Y-93417000D01*
X77114500Y-93417000D01*
X76925000Y-93606500D01*
X75925000Y-93606500D01*
X75735500Y-93417000D01*
X75274225Y-93417000D01*
X74995628Y-93532398D01*
X74782399Y-93745627D01*
X74667000Y-94024224D01*
X67608243Y-94024224D01*
X67518953Y-93575337D01*
X67074569Y-92910269D01*
X66645202Y-92623375D01*
X66936000Y-92503220D01*
X67625798Y-91814625D01*
X67999573Y-90914473D01*
X68000153Y-90250000D01*
X74174934Y-90250000D01*
X74174610Y-90620589D01*
X74516431Y-91447858D01*
X75148813Y-92081345D01*
X75975484Y-92424608D01*
X76870589Y-92425390D01*
X77697858Y-92083569D01*
X78331345Y-91451187D01*
X78674608Y-90624516D01*
X78674935Y-90250000D01*
X90989729Y-90250000D01*
X90989645Y-90345981D01*
X91301081Y-91099715D01*
X91877252Y-91676892D01*
X91878898Y-91677575D01*
X91590269Y-91870431D01*
X91145885Y-92535499D01*
X90989838Y-93320000D01*
X91145885Y-94104501D01*
X91590269Y-94769569D01*
X91725118Y-94859672D01*
X91701940Y-94859652D01*
X90962914Y-95165012D01*
X90396999Y-95729940D01*
X90090350Y-96468432D01*
X90089652Y-97268060D01*
X90395012Y-98007086D01*
X90527431Y-98139736D01*
X90396999Y-98269940D01*
X90090350Y-99008432D01*
X90089652Y-99808060D01*
X90346550Y-100429798D01*
X90165924Y-100694153D01*
X90065512Y-101190000D01*
X90065512Y-102710000D01*
X90152673Y-103173222D01*
X90426437Y-103598663D01*
X90844153Y-103884076D01*
X91340000Y-103984488D01*
X92860000Y-103984488D01*
X93323222Y-103897327D01*
X93748663Y-103623563D01*
X94034076Y-103205847D01*
X94134488Y-102710000D01*
X94134488Y-101190000D01*
X94047327Y-100726778D01*
X93854227Y-100426693D01*
X94109650Y-99811568D01*
X94110348Y-99011940D01*
X93804988Y-98272914D01*
X93672569Y-98140264D01*
X93803001Y-98010060D01*
X94109650Y-97271568D01*
X94110348Y-96471940D01*
X93804988Y-95732914D01*
X93389271Y-95316471D01*
X93904663Y-95213953D01*
X94569731Y-94769569D01*
X95014115Y-94104501D01*
X95170162Y-93320000D01*
X95014115Y-92535499D01*
X94569731Y-91870431D01*
X94233154Y-91645538D01*
X94776892Y-91102748D01*
X95089643Y-90349559D01*
X95089730Y-90250000D01*
X98511501Y-90250000D01*
X98605885Y-90724501D01*
X99050269Y-91389569D01*
X99458730Y-91662494D01*
X98963108Y-92157252D01*
X98650357Y-92910441D01*
X98649645Y-93725981D01*
X98961081Y-94479715D01*
X99537252Y-95056892D01*
X99807932Y-95169288D01*
X99646999Y-95329940D01*
X99340350Y-96068432D01*
X99339652Y-96868060D01*
X99645012Y-97607086D01*
X99777431Y-97739736D01*
X99646999Y-97869940D01*
X99340350Y-98608432D01*
X99339652Y-99408060D01*
X99596550Y-100029798D01*
X99415924Y-100294153D01*
X99315512Y-100790000D01*
X99315512Y-102310000D01*
X99402673Y-102773222D01*
X99676437Y-103198663D01*
X100094153Y-103484076D01*
X100590000Y-103584488D01*
X102110000Y-103584488D01*
X102573222Y-103497327D01*
X102998663Y-103223563D01*
X103284076Y-102805847D01*
X103384488Y-102310000D01*
X103384488Y-100790000D01*
X103297327Y-100326778D01*
X103104227Y-100026693D01*
X103359650Y-99411568D01*
X103360348Y-98611940D01*
X103054988Y-97872914D01*
X102922569Y-97740264D01*
X103053001Y-97610060D01*
X103359650Y-96871568D01*
X103360348Y-96071940D01*
X103054988Y-95332914D01*
X102982967Y-95260767D01*
X105236634Y-95260767D01*
X105315534Y-95507179D01*
X105909247Y-95617619D01*
X106464466Y-95507179D01*
X106543366Y-95260767D01*
X105890000Y-94607401D01*
X105236634Y-95260767D01*
X102982967Y-95260767D01*
X102490060Y-94766999D01*
X102251413Y-94667904D01*
X102436892Y-94482748D01*
X102749643Y-93729559D01*
X102750355Y-92914019D01*
X102438919Y-92160285D01*
X101862748Y-91583108D01*
X101787094Y-91551694D01*
X102029731Y-91389569D01*
X102474115Y-90724501D01*
X102568499Y-90250000D01*
X103966339Y-90250000D01*
X104135773Y-90513307D01*
X103880350Y-91128432D01*
X103879652Y-91928060D01*
X104185012Y-92667086D01*
X104647605Y-93130487D01*
X103915161Y-93862931D01*
X104392266Y-94340036D01*
X104452821Y-94644466D01*
X104699233Y-94723366D01*
X105352599Y-94070000D01*
X105083899Y-93801300D01*
X105387471Y-93497727D01*
X105488432Y-93539650D01*
X106288060Y-93540348D01*
X106392143Y-93497341D01*
X106696102Y-93801300D01*
X106427401Y-94070000D01*
X107080767Y-94723366D01*
X107327179Y-94644466D01*
X107382911Y-94344859D01*
X107864839Y-93862931D01*
X107132083Y-93130175D01*
X107593001Y-92670060D01*
X107899650Y-91931568D01*
X107900348Y-91131940D01*
X107643450Y-90510202D01*
X107821238Y-90250000D01*
X110350818Y-90250000D01*
X110088108Y-90512252D01*
X109775357Y-91265441D01*
X109774645Y-92080981D01*
X110056626Y-92763427D01*
X109820285Y-92861081D01*
X109243108Y-93437252D01*
X108930357Y-94190441D01*
X108929645Y-95005981D01*
X109241081Y-95759715D01*
X109817252Y-96336892D01*
X110570441Y-96649643D01*
X111385981Y-96650355D01*
X112139715Y-96338919D01*
X112716892Y-95762748D01*
X113029643Y-95009559D01*
X113029646Y-95005981D01*
X113929645Y-95005981D01*
X114241081Y-95759715D01*
X114817252Y-96336892D01*
X115570441Y-96649643D01*
X116385981Y-96650355D01*
X117139715Y-96338919D01*
X117716892Y-95762748D01*
X118029643Y-95009559D01*
X118030355Y-94194019D01*
X117718919Y-93440285D01*
X117142748Y-92863108D01*
X116389559Y-92550357D01*
X115574019Y-92549645D01*
X114820285Y-92861081D01*
X114243108Y-93437252D01*
X113930357Y-94190441D01*
X113929645Y-95005981D01*
X113029646Y-95005981D01*
X113030355Y-94194019D01*
X112748374Y-93511573D01*
X112984715Y-93413919D01*
X113561892Y-92837748D01*
X113874643Y-92084559D01*
X113875355Y-91269019D01*
X113563919Y-90515285D01*
X113299096Y-90250000D01*
X117938853Y-90250000D01*
X117510885Y-90890499D01*
X117354838Y-91675000D01*
X117510885Y-92459501D01*
X117955269Y-93124569D01*
X118620337Y-93568953D01*
X119404838Y-93725000D01*
X119485162Y-93725000D01*
X119977939Y-93626981D01*
X120136081Y-94009715D01*
X120712252Y-94586892D01*
X121465441Y-94899643D01*
X122280981Y-94900355D01*
X123034715Y-94588919D01*
X123611892Y-94012748D01*
X123832846Y-93480631D01*
X130450335Y-93480631D01*
X130747162Y-93924912D01*
X131244365Y-94274694D01*
X131475000Y-94166307D01*
X131475000Y-93250000D01*
X130566263Y-93250000D01*
X130450335Y-93480631D01*
X123832846Y-93480631D01*
X123924643Y-93259559D01*
X123925355Y-92444019D01*
X123832532Y-92219369D01*
X130450335Y-92219369D01*
X130566263Y-92450000D01*
X131475000Y-92450000D01*
X131475000Y-91533693D01*
X132275000Y-91533693D01*
X132275000Y-92450000D01*
X132600958Y-92450000D01*
X132480357Y-92740441D01*
X132479912Y-93250000D01*
X132275000Y-93250000D01*
X132275000Y-94166307D01*
X132505635Y-94274694D01*
X132715583Y-94126996D01*
X132791081Y-94309715D01*
X133367252Y-94886892D01*
X134120441Y-95199643D01*
X134935981Y-95200355D01*
X135689715Y-94888919D01*
X136266892Y-94312748D01*
X136579643Y-93559559D01*
X136580355Y-92744019D01*
X136268919Y-91990285D01*
X135692748Y-91413108D01*
X134939559Y-91100357D01*
X134124019Y-91099645D01*
X133370285Y-91411081D01*
X133181038Y-91599998D01*
X132753954Y-91599998D01*
X132505635Y-91425306D01*
X132275000Y-91533693D01*
X131475000Y-91533693D01*
X131244365Y-91425306D01*
X130747162Y-91775088D01*
X130450335Y-92219369D01*
X123832532Y-92219369D01*
X123613919Y-91690285D01*
X123037748Y-91113108D01*
X122284559Y-90800357D01*
X121469019Y-90799645D01*
X121350993Y-90848412D01*
X120951147Y-90250000D01*
X140259294Y-90250000D01*
X140159838Y-90750000D01*
X140255635Y-91231603D01*
X139939559Y-91100357D01*
X139124019Y-91099645D01*
X138370285Y-91411081D01*
X137793108Y-91987252D01*
X137480357Y-92740441D01*
X137479645Y-93555981D01*
X137791081Y-94309715D01*
X138367252Y-94886892D01*
X139120441Y-95199643D01*
X139935981Y-95200355D01*
X140689715Y-94888919D01*
X141266892Y-94312748D01*
X141579643Y-93559559D01*
X141580355Y-92744019D01*
X141549188Y-92668588D01*
X142209838Y-92800000D01*
X142290162Y-92800000D01*
X143074663Y-92643953D01*
X143739731Y-92199569D01*
X144184115Y-91534501D01*
X144340162Y-90750000D01*
X144240706Y-90250000D01*
X150237911Y-90250000D01*
X150200357Y-90340441D01*
X150199645Y-91155981D01*
X150511081Y-91909715D01*
X151087252Y-92486892D01*
X151840441Y-92799643D01*
X152655981Y-92800355D01*
X153409715Y-92488919D01*
X153986892Y-91912748D01*
X154299643Y-91159559D01*
X154300355Y-90344019D01*
X154261507Y-90250000D01*
X155766885Y-90250000D01*
X155650409Y-90530505D01*
X155649593Y-91465393D01*
X156006605Y-92329429D01*
X156667094Y-92991071D01*
X157530505Y-93349591D01*
X158465393Y-93350407D01*
X159329429Y-92993395D01*
X159991071Y-92332906D01*
X160349591Y-91469495D01*
X160350407Y-90534607D01*
X160232810Y-90250000D01*
X170766885Y-90250000D01*
X170650409Y-90530505D01*
X170649593Y-91465393D01*
X171006605Y-92329429D01*
X171667094Y-92991071D01*
X172530505Y-93349591D01*
X173465393Y-93350407D01*
X174329429Y-92993395D01*
X174991071Y-92332906D01*
X175349591Y-91469495D01*
X175350407Y-90534607D01*
X175232810Y-90250000D01*
X186262416Y-90250000D01*
X186050427Y-90760527D01*
X186049576Y-91735197D01*
X186421780Y-92636000D01*
X187110375Y-93325798D01*
X188010527Y-93699573D01*
X188985197Y-93700424D01*
X189153687Y-93630805D01*
X229634881Y-93630805D01*
X229719983Y-93878846D01*
X230330064Y-93988239D01*
X230880017Y-93878846D01*
X230965119Y-93630805D01*
X230300000Y-92965685D01*
X229634881Y-93630805D01*
X189153687Y-93630805D01*
X189886000Y-93328220D01*
X190575798Y-92639625D01*
X190662815Y-92430064D01*
X228711761Y-92430064D01*
X228821154Y-92980017D01*
X229069195Y-93065119D01*
X229734315Y-92400000D01*
X230865685Y-92400000D01*
X231530805Y-93065119D01*
X231778846Y-92980017D01*
X231802298Y-92849224D01*
X251042000Y-92849224D01*
X251042000Y-93410500D01*
X251231500Y-93600000D01*
X252400000Y-93600000D01*
X252400000Y-92431500D01*
X253600000Y-92431500D01*
X253600000Y-93600000D01*
X254768500Y-93600000D01*
X254958000Y-93410500D01*
X254958000Y-92849224D01*
X254842601Y-92570627D01*
X254629372Y-92357398D01*
X254350775Y-92242000D01*
X253789500Y-92242000D01*
X253600000Y-92431500D01*
X252400000Y-92431500D01*
X252210500Y-92242000D01*
X251649225Y-92242000D01*
X251370628Y-92357398D01*
X251157399Y-92570627D01*
X251042000Y-92849224D01*
X231802298Y-92849224D01*
X231888239Y-92369936D01*
X231848315Y-92169225D01*
X261832000Y-92169225D01*
X261832000Y-92555500D01*
X262021500Y-92745000D01*
X263015000Y-92745000D01*
X263015000Y-91751500D01*
X262825500Y-91562000D01*
X262439224Y-91562000D01*
X262160627Y-91677399D01*
X261947398Y-91890628D01*
X261832000Y-92169225D01*
X231848315Y-92169225D01*
X231778846Y-91819983D01*
X231530805Y-91734881D01*
X230865685Y-92400000D01*
X229734315Y-92400000D01*
X229069195Y-91734881D01*
X228821154Y-91819983D01*
X228711761Y-92430064D01*
X190662815Y-92430064D01*
X190949573Y-91739473D01*
X190950070Y-91169195D01*
X229634881Y-91169195D01*
X230300000Y-91834315D01*
X230965119Y-91169195D01*
X230880017Y-90921154D01*
X230269936Y-90811761D01*
X229719983Y-90921154D01*
X229634881Y-91169195D01*
X190950070Y-91169195D01*
X190950424Y-90764803D01*
X190737712Y-90250000D01*
X193000000Y-90250000D01*
X193097264Y-90230304D01*
X193179202Y-90174318D01*
X193232903Y-90090864D01*
X193250000Y-90000000D01*
X193250000Y-89000000D01*
X193235210Y-88926961D01*
X236053699Y-88926961D01*
X236247361Y-89201784D01*
X237141149Y-89291592D01*
X237592639Y-89201784D01*
X237786301Y-88926961D01*
X236920000Y-88060660D01*
X236053699Y-88926961D01*
X193235210Y-88926961D01*
X193230304Y-88902736D01*
X193174318Y-88820798D01*
X193090864Y-88767097D01*
X193000000Y-88750000D01*
X173709336Y-88750000D01*
X173469495Y-88650409D01*
X172534607Y-88649593D01*
X172291603Y-88750000D01*
X158709336Y-88750000D01*
X158469495Y-88650409D01*
X157534607Y-88649593D01*
X157291603Y-88750000D01*
X152779113Y-88750000D01*
X152659559Y-88700357D01*
X151844019Y-88699645D01*
X151722150Y-88750000D01*
X142541529Y-88750000D01*
X142290162Y-88700000D01*
X142209838Y-88700000D01*
X141958471Y-88750000D01*
X107924488Y-88750000D01*
X107924488Y-88230000D01*
X107837327Y-87766778D01*
X107563563Y-87341337D01*
X107145847Y-87055924D01*
X106650000Y-86955512D01*
X105130000Y-86955512D01*
X104666778Y-87042673D01*
X104241337Y-87316437D01*
X103955924Y-87734153D01*
X103855512Y-88230000D01*
X103855512Y-88750000D01*
X102203169Y-88750000D01*
X102029731Y-88490431D01*
X101364663Y-88046047D01*
X100580162Y-87890000D01*
X100499838Y-87890000D01*
X99715337Y-88046047D01*
X99050269Y-88490431D01*
X98876831Y-88750000D01*
X94748687Y-88750000D01*
X94202748Y-88203108D01*
X93449559Y-87890357D01*
X92634019Y-87889645D01*
X91880285Y-88201081D01*
X91330408Y-88750000D01*
X78181692Y-88750000D01*
X77701187Y-88268655D01*
X76874516Y-87925392D01*
X75979411Y-87924610D01*
X75152142Y-88266431D01*
X74667728Y-88750000D01*
X67339724Y-88750000D01*
X66939625Y-88349202D01*
X66039473Y-87975427D01*
X65064803Y-87974576D01*
X64164000Y-88346780D01*
X63760076Y-88750000D01*
X56096756Y-88750000D01*
X56205879Y-88554407D01*
X55425000Y-87773528D01*
X54644121Y-88554407D01*
X54753244Y-88750000D01*
X44723861Y-88750000D01*
X44774488Y-88500000D01*
X44774488Y-87063928D01*
X53433482Y-87063928D01*
X53531911Y-87558768D01*
X53795593Y-87705879D01*
X54576472Y-86925000D01*
X56273528Y-86925000D01*
X57054407Y-87705879D01*
X57318089Y-87558768D01*
X57416518Y-86786072D01*
X57318089Y-86291232D01*
X57054407Y-86144121D01*
X56273528Y-86925000D01*
X54576472Y-86925000D01*
X53795593Y-86144121D01*
X53531911Y-86291232D01*
X53433482Y-87063928D01*
X44774488Y-87063928D01*
X44774488Y-85500000D01*
X44736027Y-85295593D01*
X54644121Y-85295593D01*
X55425000Y-86076472D01*
X56205879Y-85295593D01*
X56058768Y-85031911D01*
X55286072Y-84933482D01*
X54791232Y-85031911D01*
X54644121Y-85295593D01*
X44736027Y-85295593D01*
X44687327Y-85036778D01*
X44564301Y-84845589D01*
X74174610Y-84845589D01*
X74516431Y-85672858D01*
X75148813Y-86306345D01*
X75975484Y-86649608D01*
X76870589Y-86650390D01*
X77697858Y-86308569D01*
X78331345Y-85676187D01*
X78674608Y-84849516D01*
X78675390Y-83954411D01*
X78333569Y-83127142D01*
X77701187Y-82493655D01*
X76874516Y-82150392D01*
X75979411Y-82149610D01*
X75152142Y-82491431D01*
X74518655Y-83123813D01*
X74175392Y-83950484D01*
X74174610Y-84845589D01*
X44564301Y-84845589D01*
X44413563Y-84611337D01*
X43995847Y-84325924D01*
X43500000Y-84225512D01*
X40500000Y-84225512D01*
X40036778Y-84312673D01*
X39611337Y-84586437D01*
X39325924Y-85004153D01*
X39225512Y-85500000D01*
X39225512Y-88500000D01*
X39272553Y-88750000D01*
X37609340Y-88750000D01*
X36920000Y-88060660D01*
X36230660Y-88750000D01*
X27325000Y-88750000D01*
X27325000Y-87221149D01*
X34628408Y-87221149D01*
X34718216Y-87672639D01*
X34993039Y-87866301D01*
X35859340Y-87000000D01*
X37980660Y-87000000D01*
X38846961Y-87866301D01*
X39121784Y-87672639D01*
X39211592Y-86778851D01*
X39121784Y-86327361D01*
X38846961Y-86133699D01*
X37980660Y-87000000D01*
X35859340Y-87000000D01*
X34993039Y-86133699D01*
X34718216Y-86327361D01*
X34628408Y-87221149D01*
X27325000Y-87221149D01*
X27325000Y-85073039D01*
X36053699Y-85073039D01*
X36920000Y-85939340D01*
X37786301Y-85073039D01*
X37592639Y-84798216D01*
X36698851Y-84708408D01*
X36247361Y-84798216D01*
X36053699Y-85073039D01*
X27325000Y-85073039D01*
X27325000Y-78050000D01*
X38025512Y-78050000D01*
X38025512Y-80450000D01*
X38112673Y-80913222D01*
X38386437Y-81338663D01*
X38804153Y-81624076D01*
X39300000Y-81724488D01*
X41700000Y-81724488D01*
X42163222Y-81637327D01*
X42588663Y-81363563D01*
X42874076Y-80945847D01*
X42974488Y-80450000D01*
X42974488Y-78050000D01*
X53125512Y-78050000D01*
X53125512Y-80450000D01*
X53212673Y-80913222D01*
X53486437Y-81338663D01*
X53904153Y-81624076D01*
X54400000Y-81724488D01*
X56800000Y-81724488D01*
X57263222Y-81637327D01*
X57688663Y-81363563D01*
X57974076Y-80945847D01*
X58074488Y-80450000D01*
X58074488Y-78050000D01*
X58004304Y-77677002D01*
X63100000Y-77677002D01*
X63100000Y-77772998D01*
X63286495Y-78710572D01*
X63817588Y-79505410D01*
X64612426Y-80036503D01*
X65550000Y-80222998D01*
X66487574Y-80036503D01*
X67282412Y-79505410D01*
X67448202Y-79257287D01*
X67661437Y-79588663D01*
X68079153Y-79874076D01*
X68575000Y-79974488D01*
X70775000Y-79974488D01*
X71238222Y-79887327D01*
X71663663Y-79613563D01*
X71949076Y-79195847D01*
X72049488Y-78700000D01*
X72049488Y-78400000D01*
X74150512Y-78400000D01*
X74150512Y-80400000D01*
X74237673Y-80863222D01*
X74511437Y-81288663D01*
X74929153Y-81574076D01*
X75425000Y-81674488D01*
X77425000Y-81674488D01*
X77888222Y-81587327D01*
X78313663Y-81313563D01*
X78599076Y-80895847D01*
X78693412Y-80430000D01*
X87615512Y-80430000D01*
X87615512Y-81950000D01*
X87702673Y-82413222D01*
X87895773Y-82713307D01*
X87640350Y-83328432D01*
X87639652Y-84128060D01*
X87945012Y-84867086D01*
X88077431Y-84999736D01*
X87946999Y-85129940D01*
X87640350Y-85868432D01*
X87639652Y-86668060D01*
X87945012Y-87407086D01*
X88509940Y-87973001D01*
X89248432Y-88279650D01*
X90048060Y-88280348D01*
X90787086Y-87974988D01*
X91353001Y-87410060D01*
X91659650Y-86671568D01*
X91660348Y-85871940D01*
X91354988Y-85132914D01*
X91222569Y-85000264D01*
X91353001Y-84870060D01*
X91659650Y-84131568D01*
X91660348Y-83331940D01*
X91403450Y-82710202D01*
X91584076Y-82445847D01*
X91684488Y-81950000D01*
X91684488Y-80430000D01*
X91605083Y-80008000D01*
X91950002Y-80008000D01*
X91950002Y-79328954D01*
X92124694Y-79080635D01*
X92016307Y-78850000D01*
X91100000Y-78850000D01*
X91100000Y-79250000D01*
X90876594Y-79250000D01*
X90410000Y-79155512D01*
X90300000Y-79155512D01*
X90300000Y-78850000D01*
X89383693Y-78850000D01*
X89275306Y-79080635D01*
X89327982Y-79155512D01*
X88890000Y-79155512D01*
X88426778Y-79242673D01*
X88001337Y-79516437D01*
X87715924Y-79934153D01*
X87615512Y-80430000D01*
X78693412Y-80430000D01*
X78699488Y-80400000D01*
X78699488Y-78400000D01*
X78612327Y-77936778D01*
X78536774Y-77819365D01*
X89275306Y-77819365D01*
X89383693Y-78050000D01*
X90300000Y-78050000D01*
X90300000Y-77141263D01*
X91100000Y-77141263D01*
X91100000Y-78050000D01*
X92016307Y-78050000D01*
X92124694Y-77819365D01*
X91774912Y-77322162D01*
X91330631Y-77025335D01*
X91100000Y-77141263D01*
X90300000Y-77141263D01*
X90069369Y-77025335D01*
X89625088Y-77322162D01*
X89275306Y-77819365D01*
X78536774Y-77819365D01*
X78338563Y-77511337D01*
X77920847Y-77225924D01*
X77425000Y-77125512D01*
X75425000Y-77125512D01*
X74961778Y-77212673D01*
X74536337Y-77486437D01*
X74250924Y-77904153D01*
X74150512Y-78400000D01*
X72049488Y-78400000D01*
X72049488Y-76500000D01*
X72031798Y-76405981D01*
X93949645Y-76405981D01*
X94261081Y-77159715D01*
X94837252Y-77736892D01*
X95590441Y-78049643D01*
X96405981Y-78050355D01*
X97159715Y-77738919D01*
X97736892Y-77162748D01*
X97910370Y-76744966D01*
X98061081Y-77109715D01*
X98551492Y-77600982D01*
X98276778Y-77652673D01*
X97851337Y-77926437D01*
X97565924Y-78344153D01*
X97465512Y-78840000D01*
X97465512Y-80360000D01*
X97552673Y-80823222D01*
X97745773Y-81123307D01*
X97490350Y-81738432D01*
X97489652Y-82538060D01*
X97795012Y-83277086D01*
X97927431Y-83409736D01*
X97796999Y-83539940D01*
X97490350Y-84278432D01*
X97489652Y-85078060D01*
X97795012Y-85817086D01*
X98359940Y-86383001D01*
X99098432Y-86689650D01*
X99898060Y-86690348D01*
X100637086Y-86384988D01*
X101203001Y-85820060D01*
X101509650Y-85081568D01*
X101510348Y-84281940D01*
X101204988Y-83542914D01*
X101072569Y-83410264D01*
X101203001Y-83280060D01*
X101509650Y-82541568D01*
X101510012Y-82125981D01*
X106309645Y-82125981D01*
X106621081Y-82879715D01*
X107197252Y-83456892D01*
X107950441Y-83769643D01*
X108765981Y-83770355D01*
X109519715Y-83458919D01*
X110096892Y-82882748D01*
X110409643Y-82129559D01*
X110409668Y-82100000D01*
X121325512Y-82100000D01*
X121325512Y-83900000D01*
X121412673Y-84363222D01*
X121686437Y-84788663D01*
X122104153Y-85074076D01*
X122600000Y-85174488D01*
X124400000Y-85174488D01*
X124863222Y-85087327D01*
X125099093Y-84935548D01*
X125175110Y-84986341D01*
X125997879Y-85150000D01*
X126082121Y-85150000D01*
X126904890Y-84986341D01*
X127310000Y-84715656D01*
X127715110Y-84986341D01*
X128537879Y-85150000D01*
X128622121Y-85150000D01*
X129444890Y-84986341D01*
X130142401Y-84520280D01*
X130608462Y-83822769D01*
X130772121Y-83000000D01*
X130608462Y-82177231D01*
X130142401Y-81479720D01*
X129444890Y-81013659D01*
X128622121Y-80850000D01*
X128537879Y-80850000D01*
X127715110Y-81013659D01*
X127310000Y-81284344D01*
X126904890Y-81013659D01*
X126082121Y-80850000D01*
X125997879Y-80850000D01*
X125175110Y-81013659D01*
X125098838Y-81064622D01*
X124895847Y-80925924D01*
X124400000Y-80825512D01*
X122600000Y-80825512D01*
X122136778Y-80912673D01*
X121711337Y-81186437D01*
X121425924Y-81604153D01*
X121325512Y-82100000D01*
X110409668Y-82100000D01*
X110410355Y-81314019D01*
X110098919Y-80560285D01*
X109849208Y-80310138D01*
X139279658Y-80310138D01*
X139578941Y-81034458D01*
X139733998Y-81189785D01*
X139580889Y-81342627D01*
X139280342Y-82066424D01*
X139279658Y-82850138D01*
X139578941Y-83574458D01*
X139733998Y-83729785D01*
X139580889Y-83882627D01*
X139280342Y-84606424D01*
X139279658Y-85390138D01*
X139578941Y-86114458D01*
X140132627Y-86669111D01*
X140856424Y-86969658D01*
X141640138Y-86970342D01*
X142364458Y-86671059D01*
X142919111Y-86117373D01*
X143219658Y-85393576D01*
X143220219Y-84750000D01*
X144039838Y-84750000D01*
X144195885Y-85534501D01*
X144640269Y-86199569D01*
X145305337Y-86643953D01*
X146089838Y-86800000D01*
X146170162Y-86800000D01*
X146954663Y-86643953D01*
X147619731Y-86199569D01*
X148064115Y-85534501D01*
X148139407Y-85155981D01*
X151699645Y-85155981D01*
X152011081Y-85909715D01*
X152587252Y-86486892D01*
X153340441Y-86799643D01*
X154155981Y-86800355D01*
X154909715Y-86488919D01*
X155486892Y-85912748D01*
X155799643Y-85159559D01*
X155800355Y-84344019D01*
X155691198Y-84079838D01*
X175700000Y-84079838D01*
X175700000Y-84160162D01*
X175856047Y-84944663D01*
X176300431Y-85609731D01*
X176965499Y-86054115D01*
X177750000Y-86210162D01*
X178534501Y-86054115D01*
X179199569Y-85609731D01*
X179260297Y-85518845D01*
X179215512Y-85740000D01*
X179215512Y-87260000D01*
X179302673Y-87723222D01*
X179576437Y-88148663D01*
X179994153Y-88434076D01*
X180490000Y-88534488D01*
X182010000Y-88534488D01*
X182473222Y-88447327D01*
X182773307Y-88254227D01*
X183388432Y-88509650D01*
X184188060Y-88510348D01*
X184927086Y-88204988D01*
X185059736Y-88072569D01*
X185189940Y-88203001D01*
X185928432Y-88509650D01*
X186728060Y-88510348D01*
X187467086Y-88204988D01*
X188033001Y-87640060D01*
X188206948Y-87221149D01*
X234628408Y-87221149D01*
X234718216Y-87672639D01*
X234993039Y-87866301D01*
X235859340Y-87000000D01*
X237980660Y-87000000D01*
X238846961Y-87866301D01*
X239121784Y-87672639D01*
X239211592Y-86778851D01*
X239121784Y-86327361D01*
X238846961Y-86133699D01*
X237980660Y-87000000D01*
X235859340Y-87000000D01*
X234993039Y-86133699D01*
X234718216Y-86327361D01*
X234628408Y-87221149D01*
X188206948Y-87221149D01*
X188339650Y-86901568D01*
X188340348Y-86101940D01*
X188034988Y-85362914D01*
X187470060Y-84796999D01*
X186731568Y-84490350D01*
X185931940Y-84489652D01*
X185192914Y-84795012D01*
X185060264Y-84927431D01*
X184930060Y-84796999D01*
X184191568Y-84490350D01*
X183391940Y-84489652D01*
X182770202Y-84746550D01*
X182505847Y-84565924D01*
X182010000Y-84465512D01*
X180490000Y-84465512D01*
X180026778Y-84552673D01*
X179677177Y-84777635D01*
X179800000Y-84160162D01*
X179800000Y-84079838D01*
X179643953Y-83295337D01*
X179199569Y-82630269D01*
X178534501Y-82185885D01*
X177750000Y-82029838D01*
X176965499Y-82185885D01*
X176300431Y-82630269D01*
X175856047Y-83295337D01*
X175700000Y-84079838D01*
X155691198Y-84079838D01*
X155488919Y-83590285D01*
X154912748Y-83013108D01*
X154899019Y-83007407D01*
X155359731Y-82699569D01*
X155804115Y-82034501D01*
X155960162Y-81250000D01*
X155804115Y-80465499D01*
X155359731Y-79800431D01*
X154694663Y-79356047D01*
X153910162Y-79200000D01*
X161025512Y-79200000D01*
X161025512Y-81000000D01*
X161112673Y-81463222D01*
X161386437Y-81888663D01*
X161804153Y-82174076D01*
X162300000Y-82274488D01*
X164100000Y-82274488D01*
X164563222Y-82187327D01*
X164799093Y-82035548D01*
X164875110Y-82086341D01*
X165697879Y-82250000D01*
X165782121Y-82250000D01*
X166604890Y-82086341D01*
X167010000Y-81815656D01*
X167415110Y-82086341D01*
X168237879Y-82250000D01*
X168322121Y-82250000D01*
X169144890Y-82086341D01*
X169414818Y-81905981D01*
X179449645Y-81905981D01*
X179761081Y-82659715D01*
X180337252Y-83236892D01*
X181090441Y-83549643D01*
X181905981Y-83550355D01*
X182659715Y-83238919D01*
X183236892Y-82662748D01*
X183549643Y-81909559D01*
X183550355Y-81094019D01*
X183238919Y-80340285D01*
X182662748Y-79763108D01*
X181909559Y-79450357D01*
X181094019Y-79449645D01*
X180340285Y-79761081D01*
X179763108Y-80337252D01*
X179450357Y-81090441D01*
X179449645Y-81905981D01*
X169414818Y-81905981D01*
X169842401Y-81620280D01*
X170308462Y-80922769D01*
X170472121Y-80100000D01*
X170308462Y-79277231D01*
X170256859Y-79200000D01*
X186425512Y-79200000D01*
X186425512Y-80800000D01*
X186512673Y-81263222D01*
X186786437Y-81688663D01*
X187204153Y-81974076D01*
X187700000Y-82074488D01*
X189300000Y-82074488D01*
X189763222Y-81987327D01*
X190188663Y-81713563D01*
X190474076Y-81295847D01*
X190574488Y-80800000D01*
X190574488Y-79200000D01*
X190487327Y-78736778D01*
X190316431Y-78471198D01*
X190549643Y-77909559D01*
X190550355Y-77094019D01*
X190238919Y-76340285D01*
X189662748Y-75763108D01*
X188909559Y-75450357D01*
X188094019Y-75449645D01*
X187340285Y-75761081D01*
X186763108Y-76337252D01*
X186450357Y-77090441D01*
X186449645Y-77905981D01*
X186683906Y-78472938D01*
X186525924Y-78704153D01*
X186425512Y-79200000D01*
X170256859Y-79200000D01*
X169842401Y-78579720D01*
X169144890Y-78113659D01*
X168322121Y-77950000D01*
X168237879Y-77950000D01*
X167415110Y-78113659D01*
X167010000Y-78384344D01*
X166604890Y-78113659D01*
X165782121Y-77950000D01*
X165697879Y-77950000D01*
X164875110Y-78113659D01*
X164798838Y-78164622D01*
X164595847Y-78025924D01*
X164100000Y-77925512D01*
X162300000Y-77925512D01*
X161836778Y-78012673D01*
X161411337Y-78286437D01*
X161125924Y-78704153D01*
X161025512Y-79200000D01*
X153910162Y-79200000D01*
X153829838Y-79200000D01*
X153045337Y-79356047D01*
X152380269Y-79800431D01*
X151935885Y-80465499D01*
X151779838Y-81250000D01*
X151935885Y-82034501D01*
X152380269Y-82699569D01*
X152748588Y-82945672D01*
X152590285Y-83011081D01*
X152013108Y-83587252D01*
X151700357Y-84340441D01*
X151699645Y-85155981D01*
X148139407Y-85155981D01*
X148220162Y-84750000D01*
X148064115Y-83965499D01*
X147619731Y-83300431D01*
X147251412Y-83054328D01*
X147409715Y-82988919D01*
X147986892Y-82412748D01*
X148299643Y-81659559D01*
X148300355Y-80844019D01*
X147988919Y-80090285D01*
X147412748Y-79513108D01*
X146659559Y-79200357D01*
X145844019Y-79199645D01*
X145090285Y-79511081D01*
X144513108Y-80087252D01*
X144200357Y-80840441D01*
X144199645Y-81655981D01*
X144511081Y-82409715D01*
X145087252Y-82986892D01*
X145100981Y-82992593D01*
X144640269Y-83300431D01*
X144195885Y-83965499D01*
X144039838Y-84750000D01*
X143220219Y-84750000D01*
X143220342Y-84609862D01*
X142921059Y-83885542D01*
X142766002Y-83730215D01*
X142919111Y-83577373D01*
X143219658Y-82853576D01*
X143220342Y-82069862D01*
X142921059Y-81345542D01*
X142766002Y-81190215D01*
X142919111Y-81037373D01*
X143219658Y-80313576D01*
X143220342Y-79529862D01*
X142921059Y-78805542D01*
X142367373Y-78250889D01*
X141643576Y-77950342D01*
X140859862Y-77949658D01*
X140135542Y-78248941D01*
X139580889Y-78802627D01*
X139280342Y-79526424D01*
X139279658Y-80310138D01*
X109849208Y-80310138D01*
X109522748Y-79983108D01*
X108769559Y-79670357D01*
X107954019Y-79669645D01*
X107200285Y-79981081D01*
X106623108Y-80557252D01*
X106310357Y-81310441D01*
X106309645Y-82125981D01*
X101510012Y-82125981D01*
X101510348Y-81741940D01*
X101253450Y-81120202D01*
X101434076Y-80855847D01*
X101534488Y-80360000D01*
X101534488Y-78840000D01*
X101447327Y-78376778D01*
X101173563Y-77951337D01*
X100853645Y-77732746D01*
X100959715Y-77688919D01*
X101536892Y-77112748D01*
X101649891Y-76840615D01*
X101761081Y-77109715D01*
X102337252Y-77686892D01*
X103090441Y-77999643D01*
X103905981Y-78000355D01*
X104659715Y-77688919D01*
X105236892Y-77112748D01*
X105549643Y-76359559D01*
X105550355Y-75544019D01*
X105238919Y-74790285D01*
X104662748Y-74213108D01*
X103909559Y-73900357D01*
X103094019Y-73899645D01*
X102340285Y-74211081D01*
X101763108Y-74787252D01*
X101650109Y-75059385D01*
X101538919Y-74790285D01*
X100962748Y-74213108D01*
X100209559Y-73900357D01*
X99394019Y-73899645D01*
X98640285Y-74211081D01*
X98063108Y-74787252D01*
X97889630Y-75205034D01*
X97738919Y-74840285D01*
X97162748Y-74263108D01*
X96409559Y-73950357D01*
X95594019Y-73949645D01*
X94840285Y-74261081D01*
X94263108Y-74837252D01*
X93950357Y-75590441D01*
X93949645Y-76405981D01*
X72031798Y-76405981D01*
X71962327Y-76036778D01*
X71688563Y-75611337D01*
X71270847Y-75325924D01*
X70775000Y-75225512D01*
X68575000Y-75225512D01*
X68111778Y-75312673D01*
X67686337Y-75586437D01*
X67400924Y-76004153D01*
X67382617Y-76094557D01*
X67282412Y-75944590D01*
X66487574Y-75413497D01*
X65550000Y-75227002D01*
X64612426Y-75413497D01*
X63817588Y-75944590D01*
X63286495Y-76739428D01*
X63100000Y-77677002D01*
X58004304Y-77677002D01*
X57987327Y-77586778D01*
X57713563Y-77161337D01*
X57295847Y-76875924D01*
X56800000Y-76775512D01*
X54400000Y-76775512D01*
X53936778Y-76862673D01*
X53511337Y-77136437D01*
X53225924Y-77554153D01*
X53125512Y-78050000D01*
X42974488Y-78050000D01*
X42887327Y-77586778D01*
X42613563Y-77161337D01*
X42195847Y-76875924D01*
X41700000Y-76775512D01*
X39300000Y-76775512D01*
X38836778Y-76862673D01*
X38411337Y-77136437D01*
X38125924Y-77554153D01*
X38025512Y-78050000D01*
X27325000Y-78050000D01*
X27325000Y-73379407D01*
X39719121Y-73379407D01*
X39866232Y-73643089D01*
X40638928Y-73741518D01*
X41133768Y-73643089D01*
X41280879Y-73379407D01*
X54819121Y-73379407D01*
X54966232Y-73643089D01*
X55738928Y-73741518D01*
X56233768Y-73643089D01*
X56380879Y-73379407D01*
X55901472Y-72900000D01*
X112962002Y-72900000D01*
X113148497Y-73837574D01*
X113679590Y-74632412D01*
X114474428Y-75163505D01*
X115412002Y-75350000D01*
X115507998Y-75350000D01*
X116445572Y-75163505D01*
X117240410Y-74632412D01*
X117771503Y-73837574D01*
X117861486Y-73385197D01*
X128249576Y-73385197D01*
X128621780Y-74286000D01*
X129310375Y-74975798D01*
X130210527Y-75349573D01*
X131185197Y-75350424D01*
X132086000Y-74978220D01*
X132775798Y-74289625D01*
X133149573Y-73389473D01*
X133150424Y-72414803D01*
X132778220Y-71514000D01*
X132089625Y-70824202D01*
X131189473Y-70450427D01*
X130214803Y-70449576D01*
X129314000Y-70821780D01*
X128624202Y-71510375D01*
X128250427Y-72410527D01*
X128249576Y-73385197D01*
X117861486Y-73385197D01*
X117957998Y-72900000D01*
X117771503Y-71962426D01*
X117240410Y-71167588D01*
X116445572Y-70636495D01*
X115507998Y-70450000D01*
X115412002Y-70450000D01*
X114474428Y-70636495D01*
X113679590Y-71167588D01*
X113148497Y-71962426D01*
X112962002Y-72900000D01*
X55901472Y-72900000D01*
X55600000Y-72598528D01*
X54819121Y-73379407D01*
X41280879Y-73379407D01*
X40500000Y-72598528D01*
X39719121Y-73379407D01*
X27325000Y-73379407D01*
X27325000Y-71888928D01*
X38508482Y-71888928D01*
X38606911Y-72383768D01*
X38870593Y-72530879D01*
X39651472Y-71750000D01*
X41348528Y-71750000D01*
X42129407Y-72530879D01*
X42393089Y-72383768D01*
X42456123Y-71888928D01*
X53608482Y-71888928D01*
X53706911Y-72383768D01*
X53970593Y-72530879D01*
X54751472Y-71750000D01*
X56448528Y-71750000D01*
X57229407Y-72530879D01*
X57493089Y-72383768D01*
X57591518Y-71611072D01*
X57493089Y-71116232D01*
X57229407Y-70969121D01*
X56448528Y-71750000D01*
X54751472Y-71750000D01*
X53970593Y-70969121D01*
X53706911Y-71116232D01*
X53608482Y-71888928D01*
X42456123Y-71888928D01*
X42491518Y-71611072D01*
X42393089Y-71116232D01*
X42129407Y-70969121D01*
X41348528Y-71750000D01*
X39651472Y-71750000D01*
X38870593Y-70969121D01*
X38606911Y-71116232D01*
X38508482Y-71888928D01*
X27325000Y-71888928D01*
X27325000Y-70120593D01*
X39719121Y-70120593D01*
X40500000Y-70901472D01*
X41280879Y-70120593D01*
X54819121Y-70120593D01*
X55600000Y-70901472D01*
X56380879Y-70120593D01*
X56233768Y-69856911D01*
X55461072Y-69758482D01*
X54966232Y-69856911D01*
X54819121Y-70120593D01*
X41280879Y-70120593D01*
X41133768Y-69856911D01*
X40361072Y-69758482D01*
X39866232Y-69856911D01*
X39719121Y-70120593D01*
X27325000Y-70120593D01*
X27325000Y-68250000D01*
X66568020Y-68250000D01*
X67478796Y-69160776D01*
X67478796Y-69160776D01*
G37*
X67478796Y-69160776D02*
X67325000Y-69933961D01*
X67325000Y-70026039D01*
X67503883Y-70925345D01*
X68013299Y-71687740D01*
X68775694Y-72197156D01*
X69675000Y-72376039D01*
X70574306Y-72197156D01*
X71336701Y-71687740D01*
X71846117Y-70925345D01*
X72025000Y-70026039D01*
X72025000Y-69933961D01*
X71995755Y-69786939D01*
X72164513Y-68848033D01*
X72160794Y-68647104D01*
X72200000Y-68450000D01*
X72160218Y-68250000D01*
X88650174Y-68250000D01*
X88649645Y-68855981D01*
X88961081Y-69609715D01*
X89537252Y-70186892D01*
X90290441Y-70499643D01*
X91105981Y-70500355D01*
X91859715Y-70188919D01*
X92436892Y-69612748D01*
X92749643Y-68859559D01*
X92750175Y-68250000D01*
X93967870Y-68250000D01*
X93950000Y-68339838D01*
X93950000Y-68420162D01*
X94106047Y-69204663D01*
X94550431Y-69869731D01*
X95215499Y-70314115D01*
X96000000Y-70470162D01*
X96784501Y-70314115D01*
X97449569Y-69869731D01*
X97893953Y-69204663D01*
X97904973Y-69149263D01*
X97906047Y-69154663D01*
X98350431Y-69819731D01*
X99015499Y-70264115D01*
X99800000Y-70420162D01*
X100584501Y-70264115D01*
X101249569Y-69819731D01*
X101650000Y-69220443D01*
X102050431Y-69819731D01*
X102715499Y-70264115D01*
X103500000Y-70420162D01*
X104284501Y-70264115D01*
X104949569Y-69819731D01*
X105393953Y-69154663D01*
X105550000Y-68370162D01*
X105550000Y-68289838D01*
X105542076Y-68250000D01*
X106455174Y-68250000D01*
X106310000Y-68979838D01*
X106310000Y-69060162D01*
X106466047Y-69844663D01*
X106910431Y-70509731D01*
X107575499Y-70954115D01*
X108360000Y-71110162D01*
X109144501Y-70954115D01*
X109809569Y-70509731D01*
X110253953Y-69844663D01*
X110410000Y-69060162D01*
X110410000Y-68979838D01*
X110264826Y-68250000D01*
X118689022Y-68250000D01*
X118539838Y-69000000D01*
X118695885Y-69784501D01*
X119140269Y-70449569D01*
X119805337Y-70893953D01*
X120589838Y-71050000D01*
X120670162Y-71050000D01*
X121454663Y-70893953D01*
X122119731Y-70449569D01*
X122564115Y-69784501D01*
X122720162Y-69000000D01*
X122570978Y-68250000D01*
X126341720Y-68250000D01*
X126200357Y-68590441D01*
X126199645Y-69405981D01*
X126511081Y-70159715D01*
X127087252Y-70736892D01*
X127840441Y-71049643D01*
X128655981Y-71050355D01*
X129409715Y-70738919D01*
X129986892Y-70162748D01*
X130299643Y-69409559D01*
X130300355Y-68594019D01*
X130158209Y-68250000D01*
X131341720Y-68250000D01*
X131200357Y-68590441D01*
X131199645Y-69405981D01*
X131511081Y-70159715D01*
X132087252Y-70736892D01*
X132840441Y-71049643D01*
X133655981Y-71050355D01*
X134409715Y-70738919D01*
X134986892Y-70162748D01*
X135299643Y-69409559D01*
X135300355Y-68594019D01*
X135158209Y-68250000D01*
X135444489Y-68250000D01*
X135365512Y-68640000D01*
X135365512Y-70160000D01*
X135452673Y-70623222D01*
X135645773Y-70923307D01*
X135390350Y-71538432D01*
X135389652Y-72338060D01*
X135695012Y-73077086D01*
X135827431Y-73209736D01*
X135696999Y-73339940D01*
X135390350Y-74078432D01*
X135389652Y-74878060D01*
X135695012Y-75617086D01*
X136259940Y-76183001D01*
X136998432Y-76489650D01*
X137798060Y-76490348D01*
X138537086Y-76184988D01*
X139103001Y-75620060D01*
X139409650Y-74881568D01*
X139410348Y-74081940D01*
X139104988Y-73342914D01*
X138972569Y-73210264D01*
X139103001Y-73080060D01*
X139409650Y-72341568D01*
X139410348Y-71541940D01*
X139153450Y-70920202D01*
X139334076Y-70655847D01*
X139434488Y-70160000D01*
X139434488Y-68640000D01*
X139361105Y-68250000D01*
X139925512Y-68250000D01*
X139925512Y-69550000D01*
X140012673Y-70013222D01*
X140286437Y-70438663D01*
X140704153Y-70724076D01*
X141200000Y-70824488D01*
X142800000Y-70824488D01*
X143263222Y-70737327D01*
X143688663Y-70463563D01*
X143974076Y-70045847D01*
X144000334Y-69916180D01*
X143999654Y-70696079D01*
X144303494Y-71431429D01*
X144865612Y-71994529D01*
X145432271Y-72229826D01*
X145357599Y-72279720D01*
X144891538Y-72977231D01*
X144727879Y-73800000D01*
X144891538Y-74622769D01*
X145357599Y-75320280D01*
X146055110Y-75786341D01*
X146877879Y-75950000D01*
X146962121Y-75950000D01*
X147784890Y-75786341D01*
X148190000Y-75515656D01*
X148595110Y-75786341D01*
X149417879Y-75950000D01*
X149502121Y-75950000D01*
X150324890Y-75786341D01*
X150401162Y-75735378D01*
X150604153Y-75874076D01*
X151100000Y-75974488D01*
X152900000Y-75974488D01*
X153363222Y-75887327D01*
X153788663Y-75613563D01*
X154074076Y-75195847D01*
X154174488Y-74700000D01*
X154174488Y-72900000D01*
X154087327Y-72436778D01*
X153813563Y-72011337D01*
X153395847Y-71725924D01*
X152900000Y-71625512D01*
X151100000Y-71625512D01*
X150636778Y-71712673D01*
X150400907Y-71864452D01*
X150324890Y-71813659D01*
X149502121Y-71650000D01*
X149417879Y-71650000D01*
X148595110Y-71813659D01*
X148190000Y-72084344D01*
X147784890Y-71813659D01*
X147392736Y-71735655D01*
X147694529Y-71434388D01*
X147945932Y-70828942D01*
X149137437Y-69637437D01*
X149516789Y-69069696D01*
X149650000Y-68400000D01*
X149650000Y-68250000D01*
X153315337Y-68250000D01*
X153200000Y-68829838D01*
X153200000Y-68910162D01*
X153356047Y-69694663D01*
X153800431Y-70359731D01*
X154465499Y-70804115D01*
X155250000Y-70960162D01*
X156034501Y-70804115D01*
X156674423Y-70376533D01*
X156890269Y-70699569D01*
X157555337Y-71143953D01*
X158339838Y-71300000D01*
X158420162Y-71300000D01*
X159204663Y-71143953D01*
X159869731Y-70699569D01*
X160314115Y-70034501D01*
X160470162Y-69250000D01*
X160314115Y-68465499D01*
X160170123Y-68250000D01*
X164195529Y-68250000D01*
X163950357Y-68840441D01*
X163949645Y-69655981D01*
X164261081Y-70409715D01*
X164837252Y-70986892D01*
X165590441Y-71299643D01*
X166405981Y-71300355D01*
X167159715Y-70988919D01*
X167363109Y-70785879D01*
X167529940Y-70953001D01*
X168268432Y-71259650D01*
X169068060Y-71260348D01*
X169807086Y-70954988D01*
X169939736Y-70822569D01*
X170069940Y-70953001D01*
X170808432Y-71259650D01*
X171608060Y-71260348D01*
X172229798Y-71003450D01*
X172494153Y-71184076D01*
X172990000Y-71284488D01*
X174510000Y-71284488D01*
X174973222Y-71197327D01*
X175398663Y-70923563D01*
X175461662Y-70831361D01*
X175555337Y-70893953D01*
X176313172Y-71044696D01*
X175979590Y-71267588D01*
X175448497Y-72062426D01*
X175262002Y-73000000D01*
X175448497Y-73937574D01*
X175979590Y-74732412D01*
X176362623Y-74988346D01*
X176013108Y-75337252D01*
X175700357Y-76090441D01*
X175699645Y-76905981D01*
X176011081Y-77659715D01*
X176587252Y-78236892D01*
X177340441Y-78549643D01*
X178155981Y-78550355D01*
X178909715Y-78238919D01*
X179486892Y-77662748D01*
X179624953Y-77330260D01*
X179761081Y-77659715D01*
X180337252Y-78236892D01*
X181090441Y-78549643D01*
X181905981Y-78550355D01*
X182659715Y-78238919D01*
X183236892Y-77662748D01*
X183549643Y-76909559D01*
X183550355Y-76094019D01*
X183238919Y-75340285D01*
X182662748Y-74763108D01*
X181909559Y-74450357D01*
X181094019Y-74449645D01*
X180340285Y-74761081D01*
X179763108Y-75337252D01*
X179625047Y-75669740D01*
X179488919Y-75340285D01*
X179145509Y-74996276D01*
X179540410Y-74732412D01*
X180071503Y-73937574D01*
X180161486Y-73485197D01*
X190549576Y-73485197D01*
X190921780Y-74386000D01*
X191610375Y-75075798D01*
X192510527Y-75449573D01*
X193485197Y-75450424D01*
X194386000Y-75078220D01*
X195075798Y-74389625D01*
X195449573Y-73489473D01*
X195450424Y-72514803D01*
X195078220Y-71614000D01*
X194389625Y-70924202D01*
X193489473Y-70550427D01*
X192514803Y-70549576D01*
X191614000Y-70921780D01*
X190924202Y-71610375D01*
X190550427Y-72510527D01*
X190549576Y-73485197D01*
X180161486Y-73485197D01*
X180257998Y-73000000D01*
X180071503Y-72062426D01*
X179540410Y-71267588D01*
X178745572Y-70736495D01*
X177807998Y-70550000D01*
X177719425Y-70550000D01*
X177869731Y-70449569D01*
X178314115Y-69784501D01*
X178470162Y-69000000D01*
X178320978Y-68250000D01*
X182091720Y-68250000D01*
X181950357Y-68590441D01*
X181949645Y-69405981D01*
X182261081Y-70159715D01*
X182837252Y-70736892D01*
X183590441Y-71049643D01*
X184405981Y-71050355D01*
X185159715Y-70738919D01*
X185249870Y-70648921D01*
X185587252Y-70986892D01*
X186340441Y-71299643D01*
X187155981Y-71300355D01*
X187909715Y-70988919D01*
X188486892Y-70412748D01*
X188799643Y-69659559D01*
X188800355Y-68844019D01*
X188554912Y-68250000D01*
X196125512Y-68250000D01*
X196125512Y-69600000D01*
X196212673Y-70063222D01*
X196486437Y-70488663D01*
X196904153Y-70774076D01*
X197400000Y-70874488D01*
X199600000Y-70874488D01*
X199950000Y-70808631D01*
X199950000Y-74270806D01*
X199399306Y-73902844D01*
X198500000Y-73723961D01*
X197600694Y-73902844D01*
X196838299Y-74412260D01*
X196328883Y-75174655D01*
X196150000Y-76073961D01*
X196150000Y-76166039D01*
X196245361Y-76645450D01*
X195900000Y-76575512D01*
X194100000Y-76575512D01*
X193636778Y-76662673D01*
X193211337Y-76936437D01*
X192925924Y-77354153D01*
X192825512Y-77850000D01*
X192825512Y-79650000D01*
X192912673Y-80113222D01*
X193063395Y-80347450D01*
X192850374Y-80860462D01*
X192849642Y-81700086D01*
X192344019Y-81699645D01*
X191590285Y-82011081D01*
X191013108Y-82587252D01*
X190700357Y-83340441D01*
X190699645Y-84155981D01*
X191011081Y-84909715D01*
X191587252Y-85486892D01*
X192340441Y-85799643D01*
X193155981Y-85800355D01*
X193909715Y-85488919D01*
X194486892Y-84912748D01*
X194799643Y-84159559D01*
X194800271Y-83439826D01*
X195425785Y-83440372D01*
X196216286Y-83113744D01*
X196821619Y-82509467D01*
X197149626Y-81719538D01*
X197150372Y-80864215D01*
X196936652Y-80346973D01*
X197074076Y-80145847D01*
X197174488Y-79650000D01*
X197174488Y-78052374D01*
X197600694Y-78337156D01*
X198500000Y-78516039D01*
X199399306Y-78337156D01*
X199950000Y-77969194D01*
X199950000Y-85100000D01*
X199969696Y-85197264D01*
X200025682Y-85279202D01*
X200109136Y-85332903D01*
X200200000Y-85350000D01*
X218500000Y-85350000D01*
X218597264Y-85330304D01*
X218668131Y-85281883D01*
X218736495Y-85625572D01*
X219267588Y-86420410D01*
X220062426Y-86951503D01*
X221000000Y-87137998D01*
X221937574Y-86951503D01*
X222732412Y-86420410D01*
X223263505Y-85625572D01*
X223373410Y-85073039D01*
X236053699Y-85073039D01*
X236920000Y-85939340D01*
X237359340Y-85500000D01*
X239225512Y-85500000D01*
X239225512Y-88500000D01*
X239312673Y-88963222D01*
X239586437Y-89388663D01*
X240004153Y-89674076D01*
X240500000Y-89774488D01*
X243500000Y-89774488D01*
X243963222Y-89687327D01*
X244388663Y-89413563D01*
X244674076Y-88995847D01*
X244774488Y-88500000D01*
X244774488Y-87185197D01*
X250549576Y-87185197D01*
X250921780Y-88086000D01*
X251610375Y-88775798D01*
X252510527Y-89149573D01*
X253485197Y-89150424D01*
X254386000Y-88778220D01*
X255075798Y-88089625D01*
X255449573Y-87189473D01*
X255450424Y-86214803D01*
X255078220Y-85314000D01*
X254389625Y-84624202D01*
X253489473Y-84250427D01*
X252514803Y-84249576D01*
X251614000Y-84621780D01*
X250924202Y-85310375D01*
X250550427Y-86210527D01*
X250549576Y-87185197D01*
X244774488Y-87185197D01*
X244774488Y-85500000D01*
X244687327Y-85036778D01*
X244413563Y-84611337D01*
X243995847Y-84325924D01*
X243500000Y-84225512D01*
X240500000Y-84225512D01*
X240036778Y-84312673D01*
X239611337Y-84586437D01*
X239325924Y-85004153D01*
X239225512Y-85500000D01*
X237359340Y-85500000D01*
X237786301Y-85073039D01*
X237592639Y-84798216D01*
X236698851Y-84708408D01*
X236247361Y-84798216D01*
X236053699Y-85073039D01*
X223373410Y-85073039D01*
X223450000Y-84687998D01*
X223450000Y-84592002D01*
X223263505Y-83654428D01*
X222732412Y-82859590D01*
X222652181Y-82805981D01*
X224749645Y-82805981D01*
X225061081Y-83559715D01*
X225637252Y-84136892D01*
X226390441Y-84449643D01*
X227205981Y-84450355D01*
X227959715Y-84138919D01*
X228536892Y-83562748D01*
X228573324Y-83475010D01*
X228850431Y-83889731D01*
X229515499Y-84334115D01*
X230300000Y-84490162D01*
X231084501Y-84334115D01*
X231749569Y-83889731D01*
X232193953Y-83224663D01*
X232350000Y-82440162D01*
X232350000Y-82359838D01*
X232193953Y-81575337D01*
X231749569Y-80910269D01*
X231084501Y-80465885D01*
X230300000Y-80309838D01*
X229515499Y-80465885D01*
X228850431Y-80910269D01*
X228573691Y-81324440D01*
X228538919Y-81240285D01*
X227962748Y-80663108D01*
X227209559Y-80350357D01*
X226394019Y-80349645D01*
X225640285Y-80661081D01*
X225063108Y-81237252D01*
X224750357Y-81990441D01*
X224749645Y-82805981D01*
X222652181Y-82805981D01*
X221937574Y-82328497D01*
X221000000Y-82142002D01*
X220062426Y-82328497D01*
X219267588Y-82859590D01*
X218750000Y-83634216D01*
X218750000Y-79230635D01*
X230775306Y-79230635D01*
X231125088Y-79727838D01*
X231569369Y-80024665D01*
X231800000Y-79908737D01*
X231800000Y-79000000D01*
X232600000Y-79000000D01*
X232600000Y-79908737D01*
X232830631Y-80024665D01*
X233274912Y-79727838D01*
X233372232Y-79589500D01*
X240042000Y-79589500D01*
X240042000Y-80150776D01*
X240157399Y-80429373D01*
X240370628Y-80642602D01*
X240649225Y-80758000D01*
X241210500Y-80758000D01*
X241400000Y-80568500D01*
X241400000Y-79400000D01*
X242600000Y-79400000D01*
X242600000Y-80568500D01*
X242789500Y-80758000D01*
X243350775Y-80758000D01*
X243629372Y-80642602D01*
X243842601Y-80429373D01*
X243958000Y-80150776D01*
X243958000Y-79589500D01*
X255442000Y-79589500D01*
X255442000Y-80150776D01*
X255557399Y-80429373D01*
X255770628Y-80642602D01*
X256049225Y-80758000D01*
X256610500Y-80758000D01*
X256800000Y-80568500D01*
X256800000Y-79400000D01*
X258000000Y-79400000D01*
X258000000Y-80568500D01*
X258189500Y-80758000D01*
X258750775Y-80758000D01*
X259029372Y-80642602D01*
X259242601Y-80429373D01*
X259358000Y-80150776D01*
X259358000Y-79589500D01*
X259168500Y-79400000D01*
X258000000Y-79400000D01*
X256800000Y-79400000D01*
X255631500Y-79400000D01*
X255442000Y-79589500D01*
X243958000Y-79589500D01*
X243768500Y-79400000D01*
X242600000Y-79400000D01*
X241400000Y-79400000D01*
X240231500Y-79400000D01*
X240042000Y-79589500D01*
X233372232Y-79589500D01*
X233624694Y-79230635D01*
X233516307Y-79000000D01*
X232600000Y-79000000D01*
X231800000Y-79000000D01*
X230883693Y-79000000D01*
X230775306Y-79230635D01*
X218750000Y-79230635D01*
X218750000Y-77969365D01*
X230775306Y-77969365D01*
X230883693Y-78200000D01*
X231800000Y-78200000D01*
X231800000Y-77291263D01*
X232600000Y-77291263D01*
X232600000Y-78200000D01*
X233516307Y-78200000D01*
X233624694Y-77969365D01*
X233274912Y-77472162D01*
X233240580Y-77449224D01*
X240042000Y-77449224D01*
X240042000Y-78010500D01*
X240231500Y-78200000D01*
X241400000Y-78200000D01*
X241400000Y-77031500D01*
X242600000Y-77031500D01*
X242600000Y-78200000D01*
X243768500Y-78200000D01*
X243958000Y-78010500D01*
X243958000Y-77449224D01*
X255442000Y-77449224D01*
X255442000Y-78010500D01*
X255631500Y-78200000D01*
X256800000Y-78200000D01*
X256800000Y-77031500D01*
X258000000Y-77031500D01*
X258000000Y-78200000D01*
X259168500Y-78200000D01*
X259358000Y-78010500D01*
X259358000Y-77449224D01*
X259242601Y-77170627D01*
X259029372Y-76957398D01*
X258750775Y-76842000D01*
X258189500Y-76842000D01*
X258000000Y-77031500D01*
X256800000Y-77031500D01*
X256610500Y-76842000D01*
X256049225Y-76842000D01*
X255770628Y-76957398D01*
X255557399Y-77170627D01*
X255442000Y-77449224D01*
X243958000Y-77449224D01*
X243842601Y-77170627D01*
X243629372Y-76957398D01*
X243350775Y-76842000D01*
X242789500Y-76842000D01*
X242600000Y-77031500D01*
X241400000Y-77031500D01*
X241210500Y-76842000D01*
X240649225Y-76842000D01*
X240370628Y-76957398D01*
X240157399Y-77170627D01*
X240042000Y-77449224D01*
X233240580Y-77449224D01*
X232830631Y-77175335D01*
X232600000Y-77291263D01*
X231800000Y-77291263D01*
X231569369Y-77175335D01*
X231125088Y-77472162D01*
X230775306Y-77969365D01*
X218750000Y-77969365D01*
X218750000Y-71730234D01*
X219756279Y-72402608D01*
X221000000Y-72650000D01*
X222243721Y-72402608D01*
X223298097Y-71698097D01*
X224002608Y-70643721D01*
X224250000Y-69400000D01*
X224250000Y-69346194D01*
X224550000Y-69046194D01*
X224550000Y-69700000D01*
X224721271Y-70561038D01*
X225209010Y-71290990D01*
X225938962Y-71778729D01*
X226800000Y-71950000D01*
X227628521Y-71785197D01*
X239549576Y-71785197D01*
X239921780Y-72686000D01*
X240610375Y-73375798D01*
X241510527Y-73749573D01*
X242485197Y-73750424D01*
X243386000Y-73378220D01*
X244075798Y-72689625D01*
X244449573Y-71789473D01*
X244449576Y-71785197D01*
X254949576Y-71785197D01*
X255321780Y-72686000D01*
X256010375Y-73375798D01*
X256910527Y-73749573D01*
X257885197Y-73750424D01*
X258786000Y-73378220D01*
X259475798Y-72689625D01*
X259849573Y-71789473D01*
X259850424Y-70814803D01*
X259478220Y-69914000D01*
X258789625Y-69224202D01*
X257889473Y-68850427D01*
X256914803Y-68849576D01*
X256014000Y-69221780D01*
X255324202Y-69910375D01*
X254950427Y-70810527D01*
X254949576Y-71785197D01*
X244449576Y-71785197D01*
X244450424Y-70814803D01*
X244078220Y-69914000D01*
X243389625Y-69224202D01*
X242489473Y-68850427D01*
X241514803Y-68849576D01*
X240614000Y-69221780D01*
X239924202Y-69910375D01*
X239550427Y-70810527D01*
X239549576Y-71785197D01*
X227628521Y-71785197D01*
X227661038Y-71778729D01*
X228390990Y-71290990D01*
X228878729Y-70561038D01*
X229050000Y-69700000D01*
X229050000Y-68250000D01*
X230150305Y-68250000D01*
X230149645Y-69005981D01*
X230461081Y-69759715D01*
X231037252Y-70336892D01*
X231790441Y-70649643D01*
X232605981Y-70650355D01*
X233359715Y-70338919D01*
X233936892Y-69762748D01*
X234249643Y-69009559D01*
X234250306Y-68250000D01*
X264675000Y-68250000D01*
X264675000Y-91659019D01*
X264440776Y-91562000D01*
X264054500Y-91562000D01*
X263865000Y-91751500D01*
X263865000Y-92745000D01*
X264290000Y-92745000D01*
X264290000Y-93595000D01*
X263865000Y-93595000D01*
X263865000Y-93686354D01*
X263481141Y-93610000D01*
X263398859Y-93610000D01*
X263015000Y-93686354D01*
X263015000Y-93595000D01*
X262021500Y-93595000D01*
X261832000Y-93784500D01*
X261832000Y-94170775D01*
X261877240Y-94279994D01*
X261458712Y-94906365D01*
X261298859Y-95710000D01*
X261458712Y-96513635D01*
X261913935Y-97194924D01*
X262595224Y-97650147D01*
X263398859Y-97810000D01*
X263481141Y-97810000D01*
X264284776Y-97650147D01*
X264675000Y-97389408D01*
X264675000Y-99017875D01*
X264268777Y-98610942D01*
X262799140Y-98000695D01*
X261207841Y-97999307D01*
X259737142Y-98606987D01*
X258610942Y-99731223D01*
X258000695Y-101200860D01*
X257999307Y-102792159D01*
X258606987Y-104262858D01*
X259018410Y-104675000D01*
X257307837Y-104675000D01*
X257327740Y-104661701D01*
X257837156Y-103899306D01*
X258016039Y-103000000D01*
X257837156Y-102100694D01*
X257435785Y-101500000D01*
X257837156Y-100899306D01*
X258016039Y-100000000D01*
X257837156Y-99100694D01*
X257327740Y-98338299D01*
X256565345Y-97828883D01*
X255666039Y-97650000D01*
X255573961Y-97650000D01*
X254674655Y-97828883D01*
X253912260Y-98338299D01*
X253402844Y-99100694D01*
X253223961Y-100000000D01*
X253402844Y-100899306D01*
X253804215Y-101500000D01*
X253402844Y-102100694D01*
X253223961Y-103000000D01*
X253402844Y-103899306D01*
X253912260Y-104661701D01*
X253932163Y-104675000D01*
X249596974Y-104675000D01*
X249742602Y-104529372D01*
X249858000Y-104250775D01*
X249858000Y-103739500D01*
X249668500Y-103550000D01*
X248550000Y-103550000D01*
X248550000Y-104100000D01*
X247450000Y-104100000D01*
X247450000Y-103550000D01*
X246331500Y-103550000D01*
X246142000Y-103739500D01*
X246142000Y-104250775D01*
X246257398Y-104529372D01*
X246403026Y-104675000D01*
X190815336Y-104675000D01*
X190950000Y-103997998D01*
X190950000Y-103902002D01*
X190768752Y-102990805D01*
X192794881Y-102990805D01*
X192879983Y-103238846D01*
X193490064Y-103348239D01*
X194040017Y-103238846D01*
X194125119Y-102990805D01*
X193460000Y-102325685D01*
X192794881Y-102990805D01*
X190768752Y-102990805D01*
X190763505Y-102964428D01*
X190232412Y-102169590D01*
X189664411Y-101790064D01*
X191871761Y-101790064D01*
X191981154Y-102340017D01*
X192229195Y-102425119D01*
X192894315Y-101760000D01*
X194025685Y-101760000D01*
X194690805Y-102425119D01*
X194938846Y-102340017D01*
X195042848Y-101760000D01*
X204069838Y-101760000D01*
X204225885Y-102544501D01*
X204670269Y-103209569D01*
X205335337Y-103653953D01*
X206119838Y-103810000D01*
X206200162Y-103810000D01*
X206984663Y-103653953D01*
X207649731Y-103209569D01*
X208094115Y-102544501D01*
X208137386Y-102326961D01*
X214853699Y-102326961D01*
X215047361Y-102601784D01*
X215941149Y-102691592D01*
X216392639Y-102601784D01*
X216586301Y-102326961D01*
X215720000Y-101460660D01*
X214853699Y-102326961D01*
X208137386Y-102326961D01*
X208250162Y-101760000D01*
X208094115Y-100975499D01*
X207857347Y-100621149D01*
X213428408Y-100621149D01*
X213518216Y-101072639D01*
X213793039Y-101266301D01*
X214659340Y-100400000D01*
X216780660Y-100400000D01*
X217646961Y-101266301D01*
X217921784Y-101072639D01*
X218011592Y-100178851D01*
X217921784Y-99727361D01*
X217646961Y-99533699D01*
X216780660Y-100400000D01*
X214659340Y-100400000D01*
X213793039Y-99533699D01*
X213518216Y-99727361D01*
X213428408Y-100621149D01*
X207857347Y-100621149D01*
X207649731Y-100310431D01*
X206984663Y-99866047D01*
X206200162Y-99710000D01*
X206119838Y-99710000D01*
X205335337Y-99866047D01*
X204670269Y-100310431D01*
X204225885Y-100975499D01*
X204069838Y-101760000D01*
X195042848Y-101760000D01*
X195048239Y-101729936D01*
X194938846Y-101179983D01*
X194690805Y-101094881D01*
X194025685Y-101760000D01*
X192894315Y-101760000D01*
X192229195Y-101094881D01*
X191981154Y-101179983D01*
X191871761Y-101790064D01*
X189664411Y-101790064D01*
X189437574Y-101638497D01*
X188500000Y-101452002D01*
X187562426Y-101638497D01*
X186767588Y-102169590D01*
X186236495Y-102964428D01*
X186050000Y-103902002D01*
X186050000Y-103997998D01*
X186184664Y-104675000D01*
X183682320Y-104675000D01*
X184160579Y-104579869D01*
X184292183Y-104320001D01*
X183540000Y-103567817D01*
X182787817Y-104320001D01*
X182919421Y-104579869D01*
X183607438Y-104675000D01*
X178602320Y-104675000D01*
X179080579Y-104579869D01*
X179212183Y-104320001D01*
X178460000Y-103567817D01*
X177707817Y-104320001D01*
X177839421Y-104579869D01*
X178527438Y-104675000D01*
X154085613Y-104675000D01*
X154299643Y-104159559D01*
X154300020Y-103726961D01*
X160953699Y-103726961D01*
X161147361Y-104001784D01*
X162041149Y-104091592D01*
X162492639Y-104001784D01*
X162686301Y-103726961D01*
X161820000Y-102860660D01*
X160953699Y-103726961D01*
X154300020Y-103726961D01*
X154300355Y-103344019D01*
X153988919Y-102590285D01*
X153420775Y-102021149D01*
X159528408Y-102021149D01*
X159618216Y-102472639D01*
X159893039Y-102666301D01*
X160759340Y-101800000D01*
X162880660Y-101800000D01*
X163746961Y-102666301D01*
X164021784Y-102472639D01*
X164111592Y-101578851D01*
X164021784Y-101127361D01*
X163746961Y-100933699D01*
X162880660Y-101800000D01*
X160759340Y-101800000D01*
X159893039Y-100933699D01*
X159618216Y-101127361D01*
X159528408Y-102021149D01*
X153420775Y-102021149D01*
X153412748Y-102013108D01*
X153382037Y-102000355D01*
X153409715Y-101988919D01*
X153986892Y-101412748D01*
X154299643Y-100659559D01*
X154300329Y-99873039D01*
X160953699Y-99873039D01*
X161820000Y-100739340D01*
X162259340Y-100300000D01*
X164125512Y-100300000D01*
X164125512Y-103300000D01*
X164212673Y-103763222D01*
X164486437Y-104188663D01*
X164904153Y-104474076D01*
X165400000Y-104574488D01*
X168400000Y-104574488D01*
X168863222Y-104487327D01*
X169288663Y-104213563D01*
X169574076Y-103795847D01*
X169674488Y-103300000D01*
X169674488Y-102901613D01*
X176568892Y-102901613D01*
X176670131Y-103410579D01*
X176929999Y-103542183D01*
X177682183Y-102790000D01*
X176929999Y-102037817D01*
X176670131Y-102169421D01*
X176568892Y-102901613D01*
X169674488Y-102901613D01*
X169674488Y-100300000D01*
X169587327Y-99836778D01*
X169313563Y-99411337D01*
X169062805Y-99240001D01*
X177707817Y-99240001D01*
X177839421Y-99499869D01*
X178571613Y-99601108D01*
X178581393Y-99599163D01*
X178759875Y-99777645D01*
X178750392Y-99800484D01*
X178749610Y-100695589D01*
X178760437Y-100721793D01*
X178554798Y-100927432D01*
X178348387Y-100898892D01*
X177839421Y-101000131D01*
X177707817Y-101259999D01*
X178460000Y-102012183D01*
X178848909Y-101623274D01*
X179626726Y-102401091D01*
X179237817Y-102790000D01*
X179990001Y-103542183D01*
X180249869Y-103410579D01*
X180351108Y-102678387D01*
X180349163Y-102668607D01*
X180527645Y-102490125D01*
X180550484Y-102499608D01*
X181445589Y-102500390D01*
X181471793Y-102489563D01*
X181677432Y-102695202D01*
X181648892Y-102901613D01*
X181750131Y-103410579D01*
X182009999Y-103542183D01*
X182762183Y-102790000D01*
X184317817Y-102790000D01*
X185070001Y-103542183D01*
X185329869Y-103410579D01*
X185431108Y-102678387D01*
X185329869Y-102169421D01*
X185070001Y-102037817D01*
X184317817Y-102790000D01*
X182762183Y-102790000D01*
X182373274Y-102401091D01*
X183151091Y-101623274D01*
X183540000Y-102012183D01*
X184292183Y-101259999D01*
X184160579Y-101000131D01*
X183428387Y-100898892D01*
X183418607Y-100900837D01*
X183240125Y-100722355D01*
X183249608Y-100699516D01*
X183249756Y-100529195D01*
X192794881Y-100529195D01*
X193460000Y-101194315D01*
X194125119Y-100529195D01*
X194040017Y-100281154D01*
X193429936Y-100171761D01*
X192879983Y-100281154D01*
X192794881Y-100529195D01*
X183249756Y-100529195D01*
X183250390Y-99804411D01*
X183239563Y-99778207D01*
X183445202Y-99572568D01*
X183651613Y-99601108D01*
X184160579Y-99499869D01*
X184292183Y-99240001D01*
X183540000Y-98487817D01*
X183151091Y-98876726D01*
X182747404Y-98473039D01*
X214853699Y-98473039D01*
X215720000Y-99339340D01*
X216159340Y-98900000D01*
X218025512Y-98900000D01*
X218025512Y-101900000D01*
X218112673Y-102363222D01*
X218386437Y-102788663D01*
X218804153Y-103074076D01*
X219300000Y-103174488D01*
X222300000Y-103174488D01*
X222763222Y-103087327D01*
X223188663Y-102813563D01*
X223474076Y-102395847D01*
X223574488Y-101900000D01*
X223574488Y-98900000D01*
X245625512Y-98900000D01*
X245625512Y-101100000D01*
X245712673Y-101563222D01*
X245986437Y-101988663D01*
X246142000Y-102094955D01*
X246142000Y-102260500D01*
X246331500Y-102450000D01*
X247450000Y-102450000D01*
X247450000Y-102374488D01*
X248550000Y-102374488D01*
X248550000Y-102450000D01*
X249668500Y-102450000D01*
X249858000Y-102260500D01*
X249858000Y-102097642D01*
X249988663Y-102013563D01*
X250274076Y-101595847D01*
X250374488Y-101100000D01*
X250374488Y-98900000D01*
X250287327Y-98436778D01*
X250013563Y-98011337D01*
X249595847Y-97725924D01*
X249100000Y-97625512D01*
X246900000Y-97625512D01*
X246436778Y-97712673D01*
X246011337Y-97986437D01*
X245725924Y-98404153D01*
X245625512Y-98900000D01*
X223574488Y-98900000D01*
X223487327Y-98436778D01*
X223213563Y-98011337D01*
X222795847Y-97725924D01*
X222300000Y-97625512D01*
X219300000Y-97625512D01*
X218836778Y-97712673D01*
X218411337Y-97986437D01*
X218125924Y-98404153D01*
X218025512Y-98900000D01*
X216159340Y-98900000D01*
X216586301Y-98473039D01*
X216392639Y-98198216D01*
X215498851Y-98108408D01*
X215047361Y-98198216D01*
X214853699Y-98473039D01*
X182747404Y-98473039D01*
X182373274Y-98098909D01*
X182762183Y-97710000D01*
X184317817Y-97710000D01*
X185070001Y-98462183D01*
X185329869Y-98330579D01*
X185431108Y-97598387D01*
X185329869Y-97089421D01*
X185312520Y-97080635D01*
X191325306Y-97080635D01*
X191675088Y-97577838D01*
X192119369Y-97874665D01*
X192350000Y-97758737D01*
X192350000Y-96850000D01*
X193150000Y-96850000D01*
X193150000Y-97758737D01*
X193380631Y-97874665D01*
X193824912Y-97577838D01*
X194174694Y-97080635D01*
X194066307Y-96850000D01*
X193150000Y-96850000D01*
X192350000Y-96850000D01*
X191433693Y-96850000D01*
X191325306Y-97080635D01*
X185312520Y-97080635D01*
X185070001Y-96957817D01*
X184317817Y-97710000D01*
X182762183Y-97710000D01*
X182009999Y-96957817D01*
X181750131Y-97089421D01*
X181648892Y-97821613D01*
X181650837Y-97831393D01*
X181472355Y-98009875D01*
X181449516Y-98000392D01*
X180554411Y-97999610D01*
X180528207Y-98010437D01*
X180322568Y-97804798D01*
X180351108Y-97598387D01*
X180249869Y-97089421D01*
X179990001Y-96957817D01*
X179237817Y-97710000D01*
X179626726Y-98098909D01*
X178848909Y-98876726D01*
X178460000Y-98487817D01*
X177707817Y-99240001D01*
X169062805Y-99240001D01*
X168895847Y-99125924D01*
X168400000Y-99025512D01*
X165400000Y-99025512D01*
X164936778Y-99112673D01*
X164511337Y-99386437D01*
X164225924Y-99804153D01*
X164125512Y-100300000D01*
X162259340Y-100300000D01*
X162686301Y-99873039D01*
X162492639Y-99598216D01*
X161598851Y-99508408D01*
X161147361Y-99598216D01*
X160953699Y-99873039D01*
X154300329Y-99873039D01*
X154300355Y-99844019D01*
X153988919Y-99090285D01*
X153412748Y-98513108D01*
X153399019Y-98507407D01*
X153859731Y-98199569D01*
X154112272Y-97821613D01*
X176568892Y-97821613D01*
X176670131Y-98330579D01*
X176929999Y-98462183D01*
X177682183Y-97710000D01*
X176929999Y-96957817D01*
X176670131Y-97089421D01*
X176568892Y-97821613D01*
X154112272Y-97821613D01*
X154304115Y-97534501D01*
X154460162Y-96750000D01*
X154304115Y-95965499D01*
X153930258Y-95405981D01*
X158949645Y-95405981D01*
X159261081Y-96159715D01*
X159837252Y-96736892D01*
X160590441Y-97049643D01*
X161405981Y-97050355D01*
X162159715Y-96738919D01*
X162736892Y-96162748D01*
X162957846Y-95630631D01*
X167195335Y-95630631D01*
X167492162Y-96074912D01*
X167989365Y-96424694D01*
X168220000Y-96316307D01*
X168220000Y-95400000D01*
X169020000Y-95400000D01*
X169020000Y-96316307D01*
X169250635Y-96424694D01*
X169598460Y-96179999D01*
X177707817Y-96179999D01*
X178460000Y-96932183D01*
X179212183Y-96179999D01*
X182787817Y-96179999D01*
X183540000Y-96932183D01*
X184292183Y-96179999D01*
X184160579Y-95920131D01*
X183431808Y-95819365D01*
X191325306Y-95819365D01*
X191433693Y-96050000D01*
X192350000Y-96050000D01*
X192350000Y-95141263D01*
X193150000Y-95141263D01*
X193150000Y-96050000D01*
X194066307Y-96050000D01*
X194174694Y-95819365D01*
X193824912Y-95322162D01*
X193380631Y-95025335D01*
X193150000Y-95141263D01*
X192350000Y-95141263D01*
X192119369Y-95025335D01*
X191675088Y-95322162D01*
X191325306Y-95819365D01*
X183431808Y-95819365D01*
X183428387Y-95818892D01*
X182919421Y-95920131D01*
X182787817Y-96179999D01*
X179212183Y-96179999D01*
X179080579Y-95920131D01*
X178348387Y-95818892D01*
X177839421Y-95920131D01*
X177707817Y-96179999D01*
X169598460Y-96179999D01*
X169747838Y-96074912D01*
X170044665Y-95630631D01*
X169928737Y-95400000D01*
X169020000Y-95400000D01*
X168220000Y-95400000D01*
X167311263Y-95400000D01*
X167195335Y-95630631D01*
X162957846Y-95630631D01*
X163049643Y-95409559D01*
X163050009Y-94989500D01*
X251042000Y-94989500D01*
X251042000Y-95550776D01*
X251157399Y-95829373D01*
X251370628Y-96042602D01*
X251649225Y-96158000D01*
X252210500Y-96158000D01*
X252400000Y-95968500D01*
X252400000Y-94800000D01*
X253600000Y-94800000D01*
X253600000Y-95968500D01*
X253789500Y-96158000D01*
X254350775Y-96158000D01*
X254629372Y-96042602D01*
X254842601Y-95829373D01*
X254958000Y-95550776D01*
X254958000Y-94989500D01*
X254768500Y-94800000D01*
X253600000Y-94800000D01*
X252400000Y-94800000D01*
X251231500Y-94800000D01*
X251042000Y-94989500D01*
X163050009Y-94989500D01*
X163050355Y-94594019D01*
X162957532Y-94369369D01*
X167195335Y-94369369D01*
X167311263Y-94600000D01*
X168220000Y-94600000D01*
X168220000Y-93683693D01*
X169020000Y-93683693D01*
X169020000Y-94600000D01*
X169928737Y-94600000D01*
X170044665Y-94369369D01*
X169747838Y-93925088D01*
X169250635Y-93575306D01*
X169020000Y-93683693D01*
X168220000Y-93683693D01*
X167989365Y-93575306D01*
X167492162Y-93925088D01*
X167195335Y-94369369D01*
X162957532Y-94369369D01*
X162738919Y-93840285D01*
X162162748Y-93263108D01*
X161409559Y-92950357D01*
X160594019Y-92949645D01*
X159840285Y-93261081D01*
X159263108Y-93837252D01*
X158950357Y-94590441D01*
X158949645Y-95405981D01*
X153930258Y-95405981D01*
X153859731Y-95300431D01*
X153194663Y-94856047D01*
X152410162Y-94700000D01*
X152329838Y-94700000D01*
X151545337Y-94856047D01*
X150880269Y-95300431D01*
X150435885Y-95965499D01*
X150279838Y-96750000D01*
X150435885Y-97534501D01*
X150880269Y-98199569D01*
X151248588Y-98445672D01*
X151090285Y-98511081D01*
X150513108Y-99087252D01*
X150200357Y-99840441D01*
X150199645Y-100655981D01*
X150511081Y-101409715D01*
X151087252Y-101986892D01*
X151117963Y-101999645D01*
X151090285Y-102011081D01*
X150513108Y-102587252D01*
X150200357Y-103340441D01*
X150199645Y-104155981D01*
X150414099Y-104675000D01*
X146470237Y-104675000D01*
X146564115Y-104534501D01*
X146720162Y-103750000D01*
X146564115Y-102965499D01*
X146119731Y-102300431D01*
X145670104Y-102000000D01*
X146119731Y-101699569D01*
X146564115Y-101034501D01*
X146720162Y-100250000D01*
X146564115Y-99465499D01*
X146119731Y-98800431D01*
X145751412Y-98554328D01*
X145909715Y-98488919D01*
X146486892Y-97912748D01*
X146799643Y-97159559D01*
X146800355Y-96344019D01*
X146488919Y-95590285D01*
X145912748Y-95013108D01*
X145159559Y-94700357D01*
X144344019Y-94699645D01*
X143590285Y-95011081D01*
X143013108Y-95587252D01*
X142700357Y-96340441D01*
X142699645Y-97155981D01*
X143011081Y-97909715D01*
X143587252Y-98486892D01*
X143600981Y-98492593D01*
X143140269Y-98800431D01*
X142695885Y-99465499D01*
X142539838Y-100250000D01*
X142695885Y-101034501D01*
X143140269Y-101699569D01*
X143589896Y-102000000D01*
X143140269Y-102300431D01*
X142695885Y-102965499D01*
X142539838Y-103750000D01*
X142695885Y-104534501D01*
X142789763Y-104675000D01*
X140104920Y-104675000D01*
X140114458Y-104671059D01*
X140669111Y-104117373D01*
X140969658Y-103393576D01*
X140970342Y-102609862D01*
X140671059Y-101885542D01*
X140516002Y-101730215D01*
X140669111Y-101577373D01*
X140969658Y-100853576D01*
X140970342Y-100069862D01*
X140671059Y-99345542D01*
X140516002Y-99190215D01*
X140669111Y-99037373D01*
X140969658Y-98313576D01*
X140970342Y-97529862D01*
X140671059Y-96805542D01*
X140117373Y-96250889D01*
X139393576Y-95950342D01*
X138609862Y-95949658D01*
X137885542Y-96248941D01*
X137330889Y-96802627D01*
X137030342Y-97526424D01*
X137029658Y-98310138D01*
X137328941Y-99034458D01*
X137483998Y-99189785D01*
X137330889Y-99342627D01*
X137030342Y-100066424D01*
X137029658Y-100850138D01*
X137328941Y-101574458D01*
X137483998Y-101729785D01*
X137330889Y-101882627D01*
X137030342Y-102606424D01*
X137029658Y-103390138D01*
X137328941Y-104114458D01*
X137882627Y-104669111D01*
X137896809Y-104675000D01*
X135793231Y-104675000D01*
X135799643Y-104659559D01*
X135800355Y-103844019D01*
X135488919Y-103090285D01*
X134912748Y-102513108D01*
X134882037Y-102500355D01*
X134909715Y-102488919D01*
X135486892Y-101912748D01*
X135799643Y-101159559D01*
X135800355Y-100344019D01*
X135488919Y-99590285D01*
X134912748Y-99013108D01*
X134309845Y-98762761D01*
X134355119Y-98630805D01*
X133690000Y-97965685D01*
X133024881Y-98630805D01*
X133085192Y-98806590D01*
X132590285Y-99011081D01*
X132013108Y-99587252D01*
X131700357Y-100340441D01*
X131699645Y-101155981D01*
X132011081Y-101909715D01*
X132587252Y-102486892D01*
X132617963Y-102499645D01*
X132590285Y-102511081D01*
X132013108Y-103087252D01*
X131700357Y-103840441D01*
X131699645Y-104655981D01*
X131707503Y-104675000D01*
X128135624Y-104675000D01*
X128220162Y-104250000D01*
X128064115Y-103465499D01*
X127619731Y-102800431D01*
X127170104Y-102500000D01*
X127619731Y-102199569D01*
X128064115Y-101534501D01*
X128220162Y-100750000D01*
X128064115Y-99965499D01*
X127619731Y-99300431D01*
X127312349Y-99095045D01*
X127679731Y-98849569D01*
X128124115Y-98184501D01*
X128274181Y-97430064D01*
X132101761Y-97430064D01*
X132211154Y-97980017D01*
X132459195Y-98065119D01*
X133124315Y-97400000D01*
X134255685Y-97400000D01*
X134920805Y-98065119D01*
X135168846Y-97980017D01*
X135278239Y-97369936D01*
X135168846Y-96819983D01*
X134920805Y-96734881D01*
X134255685Y-97400000D01*
X133124315Y-97400000D01*
X132459195Y-96734881D01*
X132211154Y-96819983D01*
X132101761Y-97430064D01*
X128274181Y-97430064D01*
X128280162Y-97400000D01*
X128124115Y-96615499D01*
X127825905Y-96169195D01*
X133024881Y-96169195D01*
X133690000Y-96834315D01*
X134355119Y-96169195D01*
X134270017Y-95921154D01*
X133659936Y-95811761D01*
X133109983Y-95921154D01*
X133024881Y-96169195D01*
X127825905Y-96169195D01*
X127679731Y-95950431D01*
X127014663Y-95506047D01*
X126230162Y-95350000D01*
X126149838Y-95350000D01*
X125365337Y-95506047D01*
X124700269Y-95950431D01*
X124255885Y-96615499D01*
X124099838Y-97400000D01*
X124255885Y-98184501D01*
X124700269Y-98849569D01*
X125007651Y-99054955D01*
X124640269Y-99300431D01*
X124195885Y-99965499D01*
X124039838Y-100750000D01*
X124195885Y-101534501D01*
X124640269Y-102199569D01*
X125089896Y-102500000D01*
X124640269Y-102800431D01*
X124195885Y-103465499D01*
X124039838Y-104250000D01*
X124124376Y-104675000D01*
X119985573Y-104675000D01*
X120059488Y-104310000D01*
X120059488Y-102790000D01*
X119972327Y-102326778D01*
X119779227Y-102026693D01*
X120034650Y-101411568D01*
X120035348Y-100611940D01*
X119729988Y-99872914D01*
X119597569Y-99740264D01*
X119728001Y-99610060D01*
X120034650Y-98871568D01*
X120035348Y-98071940D01*
X119729988Y-97332914D01*
X119165060Y-96766999D01*
X118426568Y-96460350D01*
X117626940Y-96459652D01*
X116887914Y-96765012D01*
X116321999Y-97329940D01*
X116015350Y-98068432D01*
X116014652Y-98868060D01*
X116320012Y-99607086D01*
X116452431Y-99739736D01*
X116321999Y-99869940D01*
X116015350Y-100608432D01*
X116014652Y-101408060D01*
X116271550Y-102029798D01*
X116090924Y-102294153D01*
X115990512Y-102790000D01*
X115990512Y-104310000D01*
X116059191Y-104675000D01*
X111834488Y-104675000D01*
X111834488Y-103790000D01*
X111747327Y-103326778D01*
X111554227Y-103026693D01*
X111809650Y-102411568D01*
X111810348Y-101611940D01*
X111504988Y-100872914D01*
X111372569Y-100740264D01*
X111503001Y-100610060D01*
X111809650Y-99871568D01*
X111810348Y-99071940D01*
X111504988Y-98332914D01*
X110940060Y-97766999D01*
X110201568Y-97460350D01*
X109401940Y-97459652D01*
X108662914Y-97765012D01*
X108096999Y-98329940D01*
X107790350Y-99068432D01*
X107789652Y-99868060D01*
X108095012Y-100607086D01*
X108227431Y-100739736D01*
X108096999Y-100869940D01*
X107790350Y-101608432D01*
X107789652Y-102408060D01*
X108046550Y-103029798D01*
X107865924Y-103294153D01*
X107765512Y-103790000D01*
X107765512Y-104675000D01*
X89047049Y-104675000D01*
X89050000Y-104660162D01*
X89050000Y-104579838D01*
X88893953Y-103795337D01*
X88449569Y-103130269D01*
X87784501Y-102685885D01*
X87000000Y-102529838D01*
X86215499Y-102685885D01*
X85550431Y-103130269D01*
X85166591Y-103704726D01*
X84849569Y-103230269D01*
X84184501Y-102785885D01*
X83400000Y-102629838D01*
X82615499Y-102785885D01*
X81950431Y-103230269D01*
X81506047Y-103895337D01*
X81350962Y-104675000D01*
X81250110Y-104675000D01*
X81250355Y-104394019D01*
X80938919Y-103640285D01*
X80362748Y-103063108D01*
X79609559Y-102750357D01*
X78794019Y-102749645D01*
X78040285Y-103061081D01*
X77463108Y-103637252D01*
X77150357Y-104390441D01*
X77150109Y-104675000D01*
X76267770Y-104675000D01*
X75851126Y-104258357D01*
X75778846Y-103894983D01*
X75530805Y-103809881D01*
X74865685Y-104475000D01*
X75065685Y-104675000D01*
X73534315Y-104675000D01*
X73734315Y-104475000D01*
X73069195Y-103809881D01*
X72821154Y-103894983D01*
X72757554Y-104249677D01*
X72332230Y-104675000D01*
X71711770Y-104675000D01*
X71710264Y-104670000D01*
X70675000Y-104670000D01*
X70675000Y-104675000D01*
X69575000Y-104675000D01*
X69575000Y-104670000D01*
X68539736Y-104670000D01*
X68538230Y-104675000D01*
X67589584Y-104675000D01*
X67628677Y-104635907D01*
X67176126Y-104183357D01*
X67103846Y-103819983D01*
X66855805Y-103734881D01*
X66190685Y-104400000D01*
X66465685Y-104675000D01*
X64784315Y-104675000D01*
X65059315Y-104400000D01*
X64394195Y-103734881D01*
X64146154Y-103819983D01*
X64082554Y-104174677D01*
X63621323Y-104635907D01*
X63660416Y-104675000D01*
X56720889Y-104675000D01*
X56738663Y-104663563D01*
X57024076Y-104245847D01*
X57124488Y-103750000D01*
X57124488Y-103470857D01*
X60703160Y-103470857D01*
X60973736Y-103875861D01*
X61549137Y-104316875D01*
X61820000Y-104235264D01*
X61820000Y-103200000D01*
X62920000Y-103200000D01*
X62920000Y-104235264D01*
X63190863Y-104316875D01*
X63766264Y-103875861D01*
X64036840Y-103470857D01*
X63945244Y-103200000D01*
X62920000Y-103200000D01*
X61820000Y-103200000D01*
X60794756Y-103200000D01*
X60703160Y-103470857D01*
X57124488Y-103470857D01*
X57124488Y-103169195D01*
X64959881Y-103169195D01*
X65625000Y-103834315D01*
X66160177Y-103299137D01*
X68458125Y-103299137D01*
X68539736Y-103570000D01*
X69575000Y-103570000D01*
X69575000Y-102544756D01*
X70675000Y-102544756D01*
X70675000Y-103570000D01*
X71710264Y-103570000D01*
X71791875Y-103299137D01*
X71749765Y-103244195D01*
X73634881Y-103244195D01*
X74300000Y-103909315D01*
X74965119Y-103244195D01*
X74880017Y-102996154D01*
X74269936Y-102886761D01*
X73719983Y-102996154D01*
X73634881Y-103244195D01*
X71749765Y-103244195D01*
X71350861Y-102723736D01*
X70945857Y-102453160D01*
X70675000Y-102544756D01*
X69575000Y-102544756D01*
X69304143Y-102453160D01*
X68899139Y-102723736D01*
X68458125Y-103299137D01*
X66160177Y-103299137D01*
X66290119Y-103169195D01*
X66205017Y-102921154D01*
X65594936Y-102811761D01*
X65044983Y-102921154D01*
X64959881Y-103169195D01*
X57124488Y-103169195D01*
X57124488Y-101829143D01*
X60703160Y-101829143D01*
X60794756Y-102100000D01*
X61820000Y-102100000D01*
X61820000Y-101064736D01*
X62920000Y-101064736D01*
X62920000Y-102100000D01*
X63945244Y-102100000D01*
X64036840Y-101829143D01*
X63766264Y-101424139D01*
X63190863Y-100983125D01*
X62920000Y-101064736D01*
X61820000Y-101064736D01*
X61549137Y-100983125D01*
X60973736Y-101424139D01*
X60703160Y-101829143D01*
X57124488Y-101829143D01*
X57124488Y-101550000D01*
X57037327Y-101086778D01*
X56763563Y-100661337D01*
X56345847Y-100375924D01*
X55850000Y-100275512D01*
X53650000Y-100275512D01*
X53186778Y-100362673D01*
X52940762Y-100520980D01*
X52840345Y-100453883D01*
X51941039Y-100275000D01*
X51848961Y-100275000D01*
X50949655Y-100453883D01*
X50187260Y-100963299D01*
X49677844Y-101725694D01*
X49498961Y-102625000D01*
X49677844Y-103524306D01*
X50187260Y-104286701D01*
X50768391Y-104675000D01*
X46207038Y-104675000D01*
X46263663Y-104638563D01*
X46549076Y-104220847D01*
X46649488Y-103725000D01*
X46649488Y-101525000D01*
X46562327Y-101061778D01*
X46288563Y-100636337D01*
X45870847Y-100350924D01*
X45375000Y-100250512D01*
X43175000Y-100250512D01*
X42711778Y-100337673D01*
X42286337Y-100611437D01*
X42000924Y-101029153D01*
X41900512Y-101525000D01*
X41900512Y-103725000D01*
X41987673Y-104188222D01*
X42261437Y-104613663D01*
X42351207Y-104675000D01*
X32982125Y-104675000D01*
X33389058Y-104268777D01*
X33999305Y-102799140D01*
X34000693Y-101207841D01*
X33452447Y-99880981D01*
X72249645Y-99880981D01*
X72561081Y-100634715D01*
X73137252Y-101211892D01*
X73890441Y-101524643D01*
X74705981Y-101525355D01*
X75459715Y-101213919D01*
X76036892Y-100637748D01*
X76216177Y-100205981D01*
X77149645Y-100205981D01*
X77461081Y-100959715D01*
X78037252Y-101536892D01*
X78790441Y-101849643D01*
X79605981Y-101850355D01*
X80359715Y-101538919D01*
X80936892Y-100962748D01*
X81249643Y-100209559D01*
X81250355Y-99394019D01*
X80938919Y-98640285D01*
X80362748Y-98063108D01*
X79609559Y-97750357D01*
X78794019Y-97749645D01*
X78040285Y-98061081D01*
X77463108Y-98637252D01*
X77150357Y-99390441D01*
X77149645Y-100205981D01*
X76216177Y-100205981D01*
X76349643Y-99884559D01*
X76350355Y-99069019D01*
X76038919Y-98315285D01*
X75462748Y-97738108D01*
X74903724Y-97505981D01*
X81349645Y-97505981D01*
X81661081Y-98259715D01*
X82237252Y-98836892D01*
X82990441Y-99149643D01*
X83805981Y-99150355D01*
X84559715Y-98838919D01*
X85136892Y-98262748D01*
X85220478Y-98061449D01*
X85261081Y-98159715D01*
X85837252Y-98736892D01*
X86590441Y-99049643D01*
X87405981Y-99050355D01*
X88159715Y-98738919D01*
X88736892Y-98162748D01*
X89049643Y-97409559D01*
X89050355Y-96594019D01*
X88738919Y-95840285D01*
X88162748Y-95263108D01*
X87409559Y-94950357D01*
X86594019Y-94949645D01*
X85840285Y-95261081D01*
X85263108Y-95837252D01*
X85179522Y-96038551D01*
X85138919Y-95940285D01*
X84562748Y-95363108D01*
X83809559Y-95050357D01*
X82994019Y-95049645D01*
X82240285Y-95361081D01*
X81663108Y-95937252D01*
X81350357Y-96690441D01*
X81349645Y-97505981D01*
X74903724Y-97505981D01*
X74709559Y-97425357D01*
X73894019Y-97424645D01*
X73140285Y-97736081D01*
X72563108Y-98312252D01*
X72250357Y-99065441D01*
X72249645Y-99880981D01*
X33452447Y-99880981D01*
X33393013Y-99737142D01*
X32268777Y-98610942D01*
X30799140Y-98000695D01*
X29247186Y-97999341D01*
X29544776Y-97940147D01*
X30226065Y-97484924D01*
X30681288Y-96803635D01*
X30841141Y-96000000D01*
X30681288Y-95196365D01*
X30262760Y-94569994D01*
X30308000Y-94460775D01*
X30308000Y-94074500D01*
X30118500Y-93885000D01*
X29125000Y-93885000D01*
X29125000Y-93976354D01*
X28741141Y-93900000D01*
X28658859Y-93900000D01*
X28275000Y-93976354D01*
X28275000Y-93885000D01*
X27850000Y-93885000D01*
X27850000Y-93225000D01*
X52950512Y-93225000D01*
X52950512Y-95625000D01*
X53037673Y-96088222D01*
X53311437Y-96513663D01*
X53729153Y-96799076D01*
X54225000Y-96899488D01*
X56625000Y-96899488D01*
X57088222Y-96812327D01*
X57513663Y-96538563D01*
X57799076Y-96120847D01*
X57899488Y-95625000D01*
X57899488Y-93225000D01*
X57812327Y-92761778D01*
X57538563Y-92336337D01*
X57120847Y-92050924D01*
X56625000Y-91950512D01*
X54225000Y-91950512D01*
X53761778Y-92037673D01*
X53336337Y-92311437D01*
X53050924Y-92729153D01*
X52950512Y-93225000D01*
X27850000Y-93225000D01*
X27850000Y-93035000D01*
X28275000Y-93035000D01*
X28275000Y-92041500D01*
X29125000Y-92041500D01*
X29125000Y-93035000D01*
X30118500Y-93035000D01*
X30308000Y-92845500D01*
X30308000Y-92459225D01*
X30192602Y-92180628D01*
X29979373Y-91967399D01*
X29700776Y-91852000D01*
X29314500Y-91852000D01*
X29125000Y-92041500D01*
X28275000Y-92041500D01*
X28085500Y-91852000D01*
X27699224Y-91852000D01*
X27420627Y-91967399D01*
X27325000Y-92063026D01*
X27325000Y-90250000D01*
X63100152Y-90250000D01*
X63099576Y-90910197D01*
X63471780Y-91811000D01*
X64160375Y-92500798D01*
X64547606Y-92661590D01*
X64175431Y-92910269D01*
X63731047Y-93575337D01*
X63575000Y-94359838D01*
X63575000Y-94440162D01*
X63731047Y-95224663D01*
X64175431Y-95889731D01*
X64840499Y-96334115D01*
X65625000Y-96490162D01*
X66409501Y-96334115D01*
X67074569Y-95889731D01*
X67401796Y-95400000D01*
X67750512Y-95400000D01*
X67750512Y-97600000D01*
X67837673Y-98063222D01*
X68111437Y-98488663D01*
X68529153Y-98774076D01*
X69025000Y-98874488D01*
X71225000Y-98874488D01*
X71688222Y-98787327D01*
X72113663Y-98513563D01*
X72399076Y-98095847D01*
X72499488Y-97600000D01*
X72499488Y-95864500D01*
X74667000Y-95864500D01*
X74667000Y-96325776D01*
X74782399Y-96604373D01*
X74995628Y-96817602D01*
X75274225Y-96933000D01*
X75735500Y-96933000D01*
X75925000Y-96743500D01*
X75925000Y-95675000D01*
X76925000Y-95675000D01*
X76925000Y-96743500D01*
X77114500Y-96933000D01*
X77575775Y-96933000D01*
X77854372Y-96817602D01*
X78067601Y-96604373D01*
X78183000Y-96325776D01*
X78183000Y-95864500D01*
X77993500Y-95675000D01*
X76925000Y-95675000D01*
X75925000Y-95675000D01*
X74856500Y-95675000D01*
X74667000Y-95864500D01*
X72499488Y-95864500D01*
X72499488Y-95400000D01*
X72412327Y-94936778D01*
X72138563Y-94511337D01*
X71720847Y-94225924D01*
X71225000Y-94125512D01*
X69025000Y-94125512D01*
X68561778Y-94212673D01*
X68136337Y-94486437D01*
X67850924Y-94904153D01*
X67750512Y-95400000D01*
X67401796Y-95400000D01*
X67518953Y-95224663D01*
X67675000Y-94440162D01*
X67675000Y-94359838D01*
X67608243Y-94024224D01*
X74667000Y-94024224D01*
X74667000Y-94485500D01*
X74856500Y-94675000D01*
X75925000Y-94675000D01*
X75925000Y-93606500D01*
X76925000Y-93606500D01*
X76925000Y-94675000D01*
X77993500Y-94675000D01*
X78183000Y-94485500D01*
X78183000Y-94024224D01*
X78067601Y-93745627D01*
X77854372Y-93532398D01*
X77575775Y-93417000D01*
X77114500Y-93417000D01*
X76925000Y-93606500D01*
X75925000Y-93606500D01*
X75735500Y-93417000D01*
X75274225Y-93417000D01*
X74995628Y-93532398D01*
X74782399Y-93745627D01*
X74667000Y-94024224D01*
X67608243Y-94024224D01*
X67518953Y-93575337D01*
X67074569Y-92910269D01*
X66645202Y-92623375D01*
X66936000Y-92503220D01*
X67625798Y-91814625D01*
X67999573Y-90914473D01*
X68000153Y-90250000D01*
X74174934Y-90250000D01*
X74174610Y-90620589D01*
X74516431Y-91447858D01*
X75148813Y-92081345D01*
X75975484Y-92424608D01*
X76870589Y-92425390D01*
X77697858Y-92083569D01*
X78331345Y-91451187D01*
X78674608Y-90624516D01*
X78674935Y-90250000D01*
X90989729Y-90250000D01*
X90989645Y-90345981D01*
X91301081Y-91099715D01*
X91877252Y-91676892D01*
X91878898Y-91677575D01*
X91590269Y-91870431D01*
X91145885Y-92535499D01*
X90989838Y-93320000D01*
X91145885Y-94104501D01*
X91590269Y-94769569D01*
X91725118Y-94859672D01*
X91701940Y-94859652D01*
X90962914Y-95165012D01*
X90396999Y-95729940D01*
X90090350Y-96468432D01*
X90089652Y-97268060D01*
X90395012Y-98007086D01*
X90527431Y-98139736D01*
X90396999Y-98269940D01*
X90090350Y-99008432D01*
X90089652Y-99808060D01*
X90346550Y-100429798D01*
X90165924Y-100694153D01*
X90065512Y-101190000D01*
X90065512Y-102710000D01*
X90152673Y-103173222D01*
X90426437Y-103598663D01*
X90844153Y-103884076D01*
X91340000Y-103984488D01*
X92860000Y-103984488D01*
X93323222Y-103897327D01*
X93748663Y-103623563D01*
X94034076Y-103205847D01*
X94134488Y-102710000D01*
X94134488Y-101190000D01*
X94047327Y-100726778D01*
X93854227Y-100426693D01*
X94109650Y-99811568D01*
X94110348Y-99011940D01*
X93804988Y-98272914D01*
X93672569Y-98140264D01*
X93803001Y-98010060D01*
X94109650Y-97271568D01*
X94110348Y-96471940D01*
X93804988Y-95732914D01*
X93389271Y-95316471D01*
X93904663Y-95213953D01*
X94569731Y-94769569D01*
X95014115Y-94104501D01*
X95170162Y-93320000D01*
X95014115Y-92535499D01*
X94569731Y-91870431D01*
X94233154Y-91645538D01*
X94776892Y-91102748D01*
X95089643Y-90349559D01*
X95089730Y-90250000D01*
X98511501Y-90250000D01*
X98605885Y-90724501D01*
X99050269Y-91389569D01*
X99458730Y-91662494D01*
X98963108Y-92157252D01*
X98650357Y-92910441D01*
X98649645Y-93725981D01*
X98961081Y-94479715D01*
X99537252Y-95056892D01*
X99807932Y-95169288D01*
X99646999Y-95329940D01*
X99340350Y-96068432D01*
X99339652Y-96868060D01*
X99645012Y-97607086D01*
X99777431Y-97739736D01*
X99646999Y-97869940D01*
X99340350Y-98608432D01*
X99339652Y-99408060D01*
X99596550Y-100029798D01*
X99415924Y-100294153D01*
X99315512Y-100790000D01*
X99315512Y-102310000D01*
X99402673Y-102773222D01*
X99676437Y-103198663D01*
X100094153Y-103484076D01*
X100590000Y-103584488D01*
X102110000Y-103584488D01*
X102573222Y-103497327D01*
X102998663Y-103223563D01*
X103284076Y-102805847D01*
X103384488Y-102310000D01*
X103384488Y-100790000D01*
X103297327Y-100326778D01*
X103104227Y-100026693D01*
X103359650Y-99411568D01*
X103360348Y-98611940D01*
X103054988Y-97872914D01*
X102922569Y-97740264D01*
X103053001Y-97610060D01*
X103359650Y-96871568D01*
X103360348Y-96071940D01*
X103054988Y-95332914D01*
X102982967Y-95260767D01*
X105236634Y-95260767D01*
X105315534Y-95507179D01*
X105909247Y-95617619D01*
X106464466Y-95507179D01*
X106543366Y-95260767D01*
X105890000Y-94607401D01*
X105236634Y-95260767D01*
X102982967Y-95260767D01*
X102490060Y-94766999D01*
X102251413Y-94667904D01*
X102436892Y-94482748D01*
X102749643Y-93729559D01*
X102750355Y-92914019D01*
X102438919Y-92160285D01*
X101862748Y-91583108D01*
X101787094Y-91551694D01*
X102029731Y-91389569D01*
X102474115Y-90724501D01*
X102568499Y-90250000D01*
X103966339Y-90250000D01*
X104135773Y-90513307D01*
X103880350Y-91128432D01*
X103879652Y-91928060D01*
X104185012Y-92667086D01*
X104647605Y-93130487D01*
X103915161Y-93862931D01*
X104392266Y-94340036D01*
X104452821Y-94644466D01*
X104699233Y-94723366D01*
X105352599Y-94070000D01*
X105083899Y-93801300D01*
X105387471Y-93497727D01*
X105488432Y-93539650D01*
X106288060Y-93540348D01*
X106392143Y-93497341D01*
X106696102Y-93801300D01*
X106427401Y-94070000D01*
X107080767Y-94723366D01*
X107327179Y-94644466D01*
X107382911Y-94344859D01*
X107864839Y-93862931D01*
X107132083Y-93130175D01*
X107593001Y-92670060D01*
X107899650Y-91931568D01*
X107900348Y-91131940D01*
X107643450Y-90510202D01*
X107821238Y-90250000D01*
X110350818Y-90250000D01*
X110088108Y-90512252D01*
X109775357Y-91265441D01*
X109774645Y-92080981D01*
X110056626Y-92763427D01*
X109820285Y-92861081D01*
X109243108Y-93437252D01*
X108930357Y-94190441D01*
X108929645Y-95005981D01*
X109241081Y-95759715D01*
X109817252Y-96336892D01*
X110570441Y-96649643D01*
X111385981Y-96650355D01*
X112139715Y-96338919D01*
X112716892Y-95762748D01*
X113029643Y-95009559D01*
X113029646Y-95005981D01*
X113929645Y-95005981D01*
X114241081Y-95759715D01*
X114817252Y-96336892D01*
X115570441Y-96649643D01*
X116385981Y-96650355D01*
X117139715Y-96338919D01*
X117716892Y-95762748D01*
X118029643Y-95009559D01*
X118030355Y-94194019D01*
X117718919Y-93440285D01*
X117142748Y-92863108D01*
X116389559Y-92550357D01*
X115574019Y-92549645D01*
X114820285Y-92861081D01*
X114243108Y-93437252D01*
X113930357Y-94190441D01*
X113929645Y-95005981D01*
X113029646Y-95005981D01*
X113030355Y-94194019D01*
X112748374Y-93511573D01*
X112984715Y-93413919D01*
X113561892Y-92837748D01*
X113874643Y-92084559D01*
X113875355Y-91269019D01*
X113563919Y-90515285D01*
X113299096Y-90250000D01*
X117938853Y-90250000D01*
X117510885Y-90890499D01*
X117354838Y-91675000D01*
X117510885Y-92459501D01*
X117955269Y-93124569D01*
X118620337Y-93568953D01*
X119404838Y-93725000D01*
X119485162Y-93725000D01*
X119977939Y-93626981D01*
X120136081Y-94009715D01*
X120712252Y-94586892D01*
X121465441Y-94899643D01*
X122280981Y-94900355D01*
X123034715Y-94588919D01*
X123611892Y-94012748D01*
X123832846Y-93480631D01*
X130450335Y-93480631D01*
X130747162Y-93924912D01*
X131244365Y-94274694D01*
X131475000Y-94166307D01*
X131475000Y-93250000D01*
X130566263Y-93250000D01*
X130450335Y-93480631D01*
X123832846Y-93480631D01*
X123924643Y-93259559D01*
X123925355Y-92444019D01*
X123832532Y-92219369D01*
X130450335Y-92219369D01*
X130566263Y-92450000D01*
X131475000Y-92450000D01*
X131475000Y-91533693D01*
X132275000Y-91533693D01*
X132275000Y-92450000D01*
X132600958Y-92450000D01*
X132480357Y-92740441D01*
X132479912Y-93250000D01*
X132275000Y-93250000D01*
X132275000Y-94166307D01*
X132505635Y-94274694D01*
X132715583Y-94126996D01*
X132791081Y-94309715D01*
X133367252Y-94886892D01*
X134120441Y-95199643D01*
X134935981Y-95200355D01*
X135689715Y-94888919D01*
X136266892Y-94312748D01*
X136579643Y-93559559D01*
X136580355Y-92744019D01*
X136268919Y-91990285D01*
X135692748Y-91413108D01*
X134939559Y-91100357D01*
X134124019Y-91099645D01*
X133370285Y-91411081D01*
X133181038Y-91599998D01*
X132753954Y-91599998D01*
X132505635Y-91425306D01*
X132275000Y-91533693D01*
X131475000Y-91533693D01*
X131244365Y-91425306D01*
X130747162Y-91775088D01*
X130450335Y-92219369D01*
X123832532Y-92219369D01*
X123613919Y-91690285D01*
X123037748Y-91113108D01*
X122284559Y-90800357D01*
X121469019Y-90799645D01*
X121350993Y-90848412D01*
X120951147Y-90250000D01*
X140259294Y-90250000D01*
X140159838Y-90750000D01*
X140255635Y-91231603D01*
X139939559Y-91100357D01*
X139124019Y-91099645D01*
X138370285Y-91411081D01*
X137793108Y-91987252D01*
X137480357Y-92740441D01*
X137479645Y-93555981D01*
X137791081Y-94309715D01*
X138367252Y-94886892D01*
X139120441Y-95199643D01*
X139935981Y-95200355D01*
X140689715Y-94888919D01*
X141266892Y-94312748D01*
X141579643Y-93559559D01*
X141580355Y-92744019D01*
X141549188Y-92668588D01*
X142209838Y-92800000D01*
X142290162Y-92800000D01*
X143074663Y-92643953D01*
X143739731Y-92199569D01*
X144184115Y-91534501D01*
X144340162Y-90750000D01*
X144240706Y-90250000D01*
X150237911Y-90250000D01*
X150200357Y-90340441D01*
X150199645Y-91155981D01*
X150511081Y-91909715D01*
X151087252Y-92486892D01*
X151840441Y-92799643D01*
X152655981Y-92800355D01*
X153409715Y-92488919D01*
X153986892Y-91912748D01*
X154299643Y-91159559D01*
X154300355Y-90344019D01*
X154261507Y-90250000D01*
X155766885Y-90250000D01*
X155650409Y-90530505D01*
X155649593Y-91465393D01*
X156006605Y-92329429D01*
X156667094Y-92991071D01*
X157530505Y-93349591D01*
X158465393Y-93350407D01*
X159329429Y-92993395D01*
X159991071Y-92332906D01*
X160349591Y-91469495D01*
X160350407Y-90534607D01*
X160232810Y-90250000D01*
X170766885Y-90250000D01*
X170650409Y-90530505D01*
X170649593Y-91465393D01*
X171006605Y-92329429D01*
X171667094Y-92991071D01*
X172530505Y-93349591D01*
X173465393Y-93350407D01*
X174329429Y-92993395D01*
X174991071Y-92332906D01*
X175349591Y-91469495D01*
X175350407Y-90534607D01*
X175232810Y-90250000D01*
X186262416Y-90250000D01*
X186050427Y-90760527D01*
X186049576Y-91735197D01*
X186421780Y-92636000D01*
X187110375Y-93325798D01*
X188010527Y-93699573D01*
X188985197Y-93700424D01*
X189153687Y-93630805D01*
X229634881Y-93630805D01*
X229719983Y-93878846D01*
X230330064Y-93988239D01*
X230880017Y-93878846D01*
X230965119Y-93630805D01*
X230300000Y-92965685D01*
X229634881Y-93630805D01*
X189153687Y-93630805D01*
X189886000Y-93328220D01*
X190575798Y-92639625D01*
X190662815Y-92430064D01*
X228711761Y-92430064D01*
X228821154Y-92980017D01*
X229069195Y-93065119D01*
X229734315Y-92400000D01*
X230865685Y-92400000D01*
X231530805Y-93065119D01*
X231778846Y-92980017D01*
X231802298Y-92849224D01*
X251042000Y-92849224D01*
X251042000Y-93410500D01*
X251231500Y-93600000D01*
X252400000Y-93600000D01*
X252400000Y-92431500D01*
X253600000Y-92431500D01*
X253600000Y-93600000D01*
X254768500Y-93600000D01*
X254958000Y-93410500D01*
X254958000Y-92849224D01*
X254842601Y-92570627D01*
X254629372Y-92357398D01*
X254350775Y-92242000D01*
X253789500Y-92242000D01*
X253600000Y-92431500D01*
X252400000Y-92431500D01*
X252210500Y-92242000D01*
X251649225Y-92242000D01*
X251370628Y-92357398D01*
X251157399Y-92570627D01*
X251042000Y-92849224D01*
X231802298Y-92849224D01*
X231888239Y-92369936D01*
X231848315Y-92169225D01*
X261832000Y-92169225D01*
X261832000Y-92555500D01*
X262021500Y-92745000D01*
X263015000Y-92745000D01*
X263015000Y-91751500D01*
X262825500Y-91562000D01*
X262439224Y-91562000D01*
X262160627Y-91677399D01*
X261947398Y-91890628D01*
X261832000Y-92169225D01*
X231848315Y-92169225D01*
X231778846Y-91819983D01*
X231530805Y-91734881D01*
X230865685Y-92400000D01*
X229734315Y-92400000D01*
X229069195Y-91734881D01*
X228821154Y-91819983D01*
X228711761Y-92430064D01*
X190662815Y-92430064D01*
X190949573Y-91739473D01*
X190950070Y-91169195D01*
X229634881Y-91169195D01*
X230300000Y-91834315D01*
X230965119Y-91169195D01*
X230880017Y-90921154D01*
X230269936Y-90811761D01*
X229719983Y-90921154D01*
X229634881Y-91169195D01*
X190950070Y-91169195D01*
X190950424Y-90764803D01*
X190737712Y-90250000D01*
X193000000Y-90250000D01*
X193097264Y-90230304D01*
X193179202Y-90174318D01*
X193232903Y-90090864D01*
X193250000Y-90000000D01*
X193250000Y-89000000D01*
X193235210Y-88926961D01*
X236053699Y-88926961D01*
X236247361Y-89201784D01*
X237141149Y-89291592D01*
X237592639Y-89201784D01*
X237786301Y-88926961D01*
X236920000Y-88060660D01*
X236053699Y-88926961D01*
X193235210Y-88926961D01*
X193230304Y-88902736D01*
X193174318Y-88820798D01*
X193090864Y-88767097D01*
X193000000Y-88750000D01*
X173709336Y-88750000D01*
X173469495Y-88650409D01*
X172534607Y-88649593D01*
X172291603Y-88750000D01*
X158709336Y-88750000D01*
X158469495Y-88650409D01*
X157534607Y-88649593D01*
X157291603Y-88750000D01*
X152779113Y-88750000D01*
X152659559Y-88700357D01*
X151844019Y-88699645D01*
X151722150Y-88750000D01*
X142541529Y-88750000D01*
X142290162Y-88700000D01*
X142209838Y-88700000D01*
X141958471Y-88750000D01*
X107924488Y-88750000D01*
X107924488Y-88230000D01*
X107837327Y-87766778D01*
X107563563Y-87341337D01*
X107145847Y-87055924D01*
X106650000Y-86955512D01*
X105130000Y-86955512D01*
X104666778Y-87042673D01*
X104241337Y-87316437D01*
X103955924Y-87734153D01*
X103855512Y-88230000D01*
X103855512Y-88750000D01*
X102203169Y-88750000D01*
X102029731Y-88490431D01*
X101364663Y-88046047D01*
X100580162Y-87890000D01*
X100499838Y-87890000D01*
X99715337Y-88046047D01*
X99050269Y-88490431D01*
X98876831Y-88750000D01*
X94748687Y-88750000D01*
X94202748Y-88203108D01*
X93449559Y-87890357D01*
X92634019Y-87889645D01*
X91880285Y-88201081D01*
X91330408Y-88750000D01*
X78181692Y-88750000D01*
X77701187Y-88268655D01*
X76874516Y-87925392D01*
X75979411Y-87924610D01*
X75152142Y-88266431D01*
X74667728Y-88750000D01*
X67339724Y-88750000D01*
X66939625Y-88349202D01*
X66039473Y-87975427D01*
X65064803Y-87974576D01*
X64164000Y-88346780D01*
X63760076Y-88750000D01*
X56096756Y-88750000D01*
X56205879Y-88554407D01*
X55425000Y-87773528D01*
X54644121Y-88554407D01*
X54753244Y-88750000D01*
X44723861Y-88750000D01*
X44774488Y-88500000D01*
X44774488Y-87063928D01*
X53433482Y-87063928D01*
X53531911Y-87558768D01*
X53795593Y-87705879D01*
X54576472Y-86925000D01*
X56273528Y-86925000D01*
X57054407Y-87705879D01*
X57318089Y-87558768D01*
X57416518Y-86786072D01*
X57318089Y-86291232D01*
X57054407Y-86144121D01*
X56273528Y-86925000D01*
X54576472Y-86925000D01*
X53795593Y-86144121D01*
X53531911Y-86291232D01*
X53433482Y-87063928D01*
X44774488Y-87063928D01*
X44774488Y-85500000D01*
X44736027Y-85295593D01*
X54644121Y-85295593D01*
X55425000Y-86076472D01*
X56205879Y-85295593D01*
X56058768Y-85031911D01*
X55286072Y-84933482D01*
X54791232Y-85031911D01*
X54644121Y-85295593D01*
X44736027Y-85295593D01*
X44687327Y-85036778D01*
X44564301Y-84845589D01*
X74174610Y-84845589D01*
X74516431Y-85672858D01*
X75148813Y-86306345D01*
X75975484Y-86649608D01*
X76870589Y-86650390D01*
X77697858Y-86308569D01*
X78331345Y-85676187D01*
X78674608Y-84849516D01*
X78675390Y-83954411D01*
X78333569Y-83127142D01*
X77701187Y-82493655D01*
X76874516Y-82150392D01*
X75979411Y-82149610D01*
X75152142Y-82491431D01*
X74518655Y-83123813D01*
X74175392Y-83950484D01*
X74174610Y-84845589D01*
X44564301Y-84845589D01*
X44413563Y-84611337D01*
X43995847Y-84325924D01*
X43500000Y-84225512D01*
X40500000Y-84225512D01*
X40036778Y-84312673D01*
X39611337Y-84586437D01*
X39325924Y-85004153D01*
X39225512Y-85500000D01*
X39225512Y-88500000D01*
X39272553Y-88750000D01*
X37609340Y-88750000D01*
X36920000Y-88060660D01*
X36230660Y-88750000D01*
X27325000Y-88750000D01*
X27325000Y-87221149D01*
X34628408Y-87221149D01*
X34718216Y-87672639D01*
X34993039Y-87866301D01*
X35859340Y-87000000D01*
X37980660Y-87000000D01*
X38846961Y-87866301D01*
X39121784Y-87672639D01*
X39211592Y-86778851D01*
X39121784Y-86327361D01*
X38846961Y-86133699D01*
X37980660Y-87000000D01*
X35859340Y-87000000D01*
X34993039Y-86133699D01*
X34718216Y-86327361D01*
X34628408Y-87221149D01*
X27325000Y-87221149D01*
X27325000Y-85073039D01*
X36053699Y-85073039D01*
X36920000Y-85939340D01*
X37786301Y-85073039D01*
X37592639Y-84798216D01*
X36698851Y-84708408D01*
X36247361Y-84798216D01*
X36053699Y-85073039D01*
X27325000Y-85073039D01*
X27325000Y-78050000D01*
X38025512Y-78050000D01*
X38025512Y-80450000D01*
X38112673Y-80913222D01*
X38386437Y-81338663D01*
X38804153Y-81624076D01*
X39300000Y-81724488D01*
X41700000Y-81724488D01*
X42163222Y-81637327D01*
X42588663Y-81363563D01*
X42874076Y-80945847D01*
X42974488Y-80450000D01*
X42974488Y-78050000D01*
X53125512Y-78050000D01*
X53125512Y-80450000D01*
X53212673Y-80913222D01*
X53486437Y-81338663D01*
X53904153Y-81624076D01*
X54400000Y-81724488D01*
X56800000Y-81724488D01*
X57263222Y-81637327D01*
X57688663Y-81363563D01*
X57974076Y-80945847D01*
X58074488Y-80450000D01*
X58074488Y-78050000D01*
X58004304Y-77677002D01*
X63100000Y-77677002D01*
X63100000Y-77772998D01*
X63286495Y-78710572D01*
X63817588Y-79505410D01*
X64612426Y-80036503D01*
X65550000Y-80222998D01*
X66487574Y-80036503D01*
X67282412Y-79505410D01*
X67448202Y-79257287D01*
X67661437Y-79588663D01*
X68079153Y-79874076D01*
X68575000Y-79974488D01*
X70775000Y-79974488D01*
X71238222Y-79887327D01*
X71663663Y-79613563D01*
X71949076Y-79195847D01*
X72049488Y-78700000D01*
X72049488Y-78400000D01*
X74150512Y-78400000D01*
X74150512Y-80400000D01*
X74237673Y-80863222D01*
X74511437Y-81288663D01*
X74929153Y-81574076D01*
X75425000Y-81674488D01*
X77425000Y-81674488D01*
X77888222Y-81587327D01*
X78313663Y-81313563D01*
X78599076Y-80895847D01*
X78693412Y-80430000D01*
X87615512Y-80430000D01*
X87615512Y-81950000D01*
X87702673Y-82413222D01*
X87895773Y-82713307D01*
X87640350Y-83328432D01*
X87639652Y-84128060D01*
X87945012Y-84867086D01*
X88077431Y-84999736D01*
X87946999Y-85129940D01*
X87640350Y-85868432D01*
X87639652Y-86668060D01*
X87945012Y-87407086D01*
X88509940Y-87973001D01*
X89248432Y-88279650D01*
X90048060Y-88280348D01*
X90787086Y-87974988D01*
X91353001Y-87410060D01*
X91659650Y-86671568D01*
X91660348Y-85871940D01*
X91354988Y-85132914D01*
X91222569Y-85000264D01*
X91353001Y-84870060D01*
X91659650Y-84131568D01*
X91660348Y-83331940D01*
X91403450Y-82710202D01*
X91584076Y-82445847D01*
X91684488Y-81950000D01*
X91684488Y-80430000D01*
X91605083Y-80008000D01*
X91950002Y-80008000D01*
X91950002Y-79328954D01*
X92124694Y-79080635D01*
X92016307Y-78850000D01*
X91100000Y-78850000D01*
X91100000Y-79250000D01*
X90876594Y-79250000D01*
X90410000Y-79155512D01*
X90300000Y-79155512D01*
X90300000Y-78850000D01*
X89383693Y-78850000D01*
X89275306Y-79080635D01*
X89327982Y-79155512D01*
X88890000Y-79155512D01*
X88426778Y-79242673D01*
X88001337Y-79516437D01*
X87715924Y-79934153D01*
X87615512Y-80430000D01*
X78693412Y-80430000D01*
X78699488Y-80400000D01*
X78699488Y-78400000D01*
X78612327Y-77936778D01*
X78536774Y-77819365D01*
X89275306Y-77819365D01*
X89383693Y-78050000D01*
X90300000Y-78050000D01*
X90300000Y-77141263D01*
X91100000Y-77141263D01*
X91100000Y-78050000D01*
X92016307Y-78050000D01*
X92124694Y-77819365D01*
X91774912Y-77322162D01*
X91330631Y-77025335D01*
X91100000Y-77141263D01*
X90300000Y-77141263D01*
X90069369Y-77025335D01*
X89625088Y-77322162D01*
X89275306Y-77819365D01*
X78536774Y-77819365D01*
X78338563Y-77511337D01*
X77920847Y-77225924D01*
X77425000Y-77125512D01*
X75425000Y-77125512D01*
X74961778Y-77212673D01*
X74536337Y-77486437D01*
X74250924Y-77904153D01*
X74150512Y-78400000D01*
X72049488Y-78400000D01*
X72049488Y-76500000D01*
X72031798Y-76405981D01*
X93949645Y-76405981D01*
X94261081Y-77159715D01*
X94837252Y-77736892D01*
X95590441Y-78049643D01*
X96405981Y-78050355D01*
X97159715Y-77738919D01*
X97736892Y-77162748D01*
X97910370Y-76744966D01*
X98061081Y-77109715D01*
X98551492Y-77600982D01*
X98276778Y-77652673D01*
X97851337Y-77926437D01*
X97565924Y-78344153D01*
X97465512Y-78840000D01*
X97465512Y-80360000D01*
X97552673Y-80823222D01*
X97745773Y-81123307D01*
X97490350Y-81738432D01*
X97489652Y-82538060D01*
X97795012Y-83277086D01*
X97927431Y-83409736D01*
X97796999Y-83539940D01*
X97490350Y-84278432D01*
X97489652Y-85078060D01*
X97795012Y-85817086D01*
X98359940Y-86383001D01*
X99098432Y-86689650D01*
X99898060Y-86690348D01*
X100637086Y-86384988D01*
X101203001Y-85820060D01*
X101509650Y-85081568D01*
X101510348Y-84281940D01*
X101204988Y-83542914D01*
X101072569Y-83410264D01*
X101203001Y-83280060D01*
X101509650Y-82541568D01*
X101510012Y-82125981D01*
X106309645Y-82125981D01*
X106621081Y-82879715D01*
X107197252Y-83456892D01*
X107950441Y-83769643D01*
X108765981Y-83770355D01*
X109519715Y-83458919D01*
X110096892Y-82882748D01*
X110409643Y-82129559D01*
X110409668Y-82100000D01*
X121325512Y-82100000D01*
X121325512Y-83900000D01*
X121412673Y-84363222D01*
X121686437Y-84788663D01*
X122104153Y-85074076D01*
X122600000Y-85174488D01*
X124400000Y-85174488D01*
X124863222Y-85087327D01*
X125099093Y-84935548D01*
X125175110Y-84986341D01*
X125997879Y-85150000D01*
X126082121Y-85150000D01*
X126904890Y-84986341D01*
X127310000Y-84715656D01*
X127715110Y-84986341D01*
X128537879Y-85150000D01*
X128622121Y-85150000D01*
X129444890Y-84986341D01*
X130142401Y-84520280D01*
X130608462Y-83822769D01*
X130772121Y-83000000D01*
X130608462Y-82177231D01*
X130142401Y-81479720D01*
X129444890Y-81013659D01*
X128622121Y-80850000D01*
X128537879Y-80850000D01*
X127715110Y-81013659D01*
X127310000Y-81284344D01*
X126904890Y-81013659D01*
X126082121Y-80850000D01*
X125997879Y-80850000D01*
X125175110Y-81013659D01*
X125098838Y-81064622D01*
X124895847Y-80925924D01*
X124400000Y-80825512D01*
X122600000Y-80825512D01*
X122136778Y-80912673D01*
X121711337Y-81186437D01*
X121425924Y-81604153D01*
X121325512Y-82100000D01*
X110409668Y-82100000D01*
X110410355Y-81314019D01*
X110098919Y-80560285D01*
X109849208Y-80310138D01*
X139279658Y-80310138D01*
X139578941Y-81034458D01*
X139733998Y-81189785D01*
X139580889Y-81342627D01*
X139280342Y-82066424D01*
X139279658Y-82850138D01*
X139578941Y-83574458D01*
X139733998Y-83729785D01*
X139580889Y-83882627D01*
X139280342Y-84606424D01*
X139279658Y-85390138D01*
X139578941Y-86114458D01*
X140132627Y-86669111D01*
X140856424Y-86969658D01*
X141640138Y-86970342D01*
X142364458Y-86671059D01*
X142919111Y-86117373D01*
X143219658Y-85393576D01*
X143220219Y-84750000D01*
X144039838Y-84750000D01*
X144195885Y-85534501D01*
X144640269Y-86199569D01*
X145305337Y-86643953D01*
X146089838Y-86800000D01*
X146170162Y-86800000D01*
X146954663Y-86643953D01*
X147619731Y-86199569D01*
X148064115Y-85534501D01*
X148139407Y-85155981D01*
X151699645Y-85155981D01*
X152011081Y-85909715D01*
X152587252Y-86486892D01*
X153340441Y-86799643D01*
X154155981Y-86800355D01*
X154909715Y-86488919D01*
X155486892Y-85912748D01*
X155799643Y-85159559D01*
X155800355Y-84344019D01*
X155691198Y-84079838D01*
X175700000Y-84079838D01*
X175700000Y-84160162D01*
X175856047Y-84944663D01*
X176300431Y-85609731D01*
X176965499Y-86054115D01*
X177750000Y-86210162D01*
X178534501Y-86054115D01*
X179199569Y-85609731D01*
X179260297Y-85518845D01*
X179215512Y-85740000D01*
X179215512Y-87260000D01*
X179302673Y-87723222D01*
X179576437Y-88148663D01*
X179994153Y-88434076D01*
X180490000Y-88534488D01*
X182010000Y-88534488D01*
X182473222Y-88447327D01*
X182773307Y-88254227D01*
X183388432Y-88509650D01*
X184188060Y-88510348D01*
X184927086Y-88204988D01*
X185059736Y-88072569D01*
X185189940Y-88203001D01*
X185928432Y-88509650D01*
X186728060Y-88510348D01*
X187467086Y-88204988D01*
X188033001Y-87640060D01*
X188206948Y-87221149D01*
X234628408Y-87221149D01*
X234718216Y-87672639D01*
X234993039Y-87866301D01*
X235859340Y-87000000D01*
X237980660Y-87000000D01*
X238846961Y-87866301D01*
X239121784Y-87672639D01*
X239211592Y-86778851D01*
X239121784Y-86327361D01*
X238846961Y-86133699D01*
X237980660Y-87000000D01*
X235859340Y-87000000D01*
X234993039Y-86133699D01*
X234718216Y-86327361D01*
X234628408Y-87221149D01*
X188206948Y-87221149D01*
X188339650Y-86901568D01*
X188340348Y-86101940D01*
X188034988Y-85362914D01*
X187470060Y-84796999D01*
X186731568Y-84490350D01*
X185931940Y-84489652D01*
X185192914Y-84795012D01*
X185060264Y-84927431D01*
X184930060Y-84796999D01*
X184191568Y-84490350D01*
X183391940Y-84489652D01*
X182770202Y-84746550D01*
X182505847Y-84565924D01*
X182010000Y-84465512D01*
X180490000Y-84465512D01*
X180026778Y-84552673D01*
X179677177Y-84777635D01*
X179800000Y-84160162D01*
X179800000Y-84079838D01*
X179643953Y-83295337D01*
X179199569Y-82630269D01*
X178534501Y-82185885D01*
X177750000Y-82029838D01*
X176965499Y-82185885D01*
X176300431Y-82630269D01*
X175856047Y-83295337D01*
X175700000Y-84079838D01*
X155691198Y-84079838D01*
X155488919Y-83590285D01*
X154912748Y-83013108D01*
X154899019Y-83007407D01*
X155359731Y-82699569D01*
X155804115Y-82034501D01*
X155960162Y-81250000D01*
X155804115Y-80465499D01*
X155359731Y-79800431D01*
X154694663Y-79356047D01*
X153910162Y-79200000D01*
X161025512Y-79200000D01*
X161025512Y-81000000D01*
X161112673Y-81463222D01*
X161386437Y-81888663D01*
X161804153Y-82174076D01*
X162300000Y-82274488D01*
X164100000Y-82274488D01*
X164563222Y-82187327D01*
X164799093Y-82035548D01*
X164875110Y-82086341D01*
X165697879Y-82250000D01*
X165782121Y-82250000D01*
X166604890Y-82086341D01*
X167010000Y-81815656D01*
X167415110Y-82086341D01*
X168237879Y-82250000D01*
X168322121Y-82250000D01*
X169144890Y-82086341D01*
X169414818Y-81905981D01*
X179449645Y-81905981D01*
X179761081Y-82659715D01*
X180337252Y-83236892D01*
X181090441Y-83549643D01*
X181905981Y-83550355D01*
X182659715Y-83238919D01*
X183236892Y-82662748D01*
X183549643Y-81909559D01*
X183550355Y-81094019D01*
X183238919Y-80340285D01*
X182662748Y-79763108D01*
X181909559Y-79450357D01*
X181094019Y-79449645D01*
X180340285Y-79761081D01*
X179763108Y-80337252D01*
X179450357Y-81090441D01*
X179449645Y-81905981D01*
X169414818Y-81905981D01*
X169842401Y-81620280D01*
X170308462Y-80922769D01*
X170472121Y-80100000D01*
X170308462Y-79277231D01*
X170256859Y-79200000D01*
X186425512Y-79200000D01*
X186425512Y-80800000D01*
X186512673Y-81263222D01*
X186786437Y-81688663D01*
X187204153Y-81974076D01*
X187700000Y-82074488D01*
X189300000Y-82074488D01*
X189763222Y-81987327D01*
X190188663Y-81713563D01*
X190474076Y-81295847D01*
X190574488Y-80800000D01*
X190574488Y-79200000D01*
X190487327Y-78736778D01*
X190316431Y-78471198D01*
X190549643Y-77909559D01*
X190550355Y-77094019D01*
X190238919Y-76340285D01*
X189662748Y-75763108D01*
X188909559Y-75450357D01*
X188094019Y-75449645D01*
X187340285Y-75761081D01*
X186763108Y-76337252D01*
X186450357Y-77090441D01*
X186449645Y-77905981D01*
X186683906Y-78472938D01*
X186525924Y-78704153D01*
X186425512Y-79200000D01*
X170256859Y-79200000D01*
X169842401Y-78579720D01*
X169144890Y-78113659D01*
X168322121Y-77950000D01*
X168237879Y-77950000D01*
X167415110Y-78113659D01*
X167010000Y-78384344D01*
X166604890Y-78113659D01*
X165782121Y-77950000D01*
X165697879Y-77950000D01*
X164875110Y-78113659D01*
X164798838Y-78164622D01*
X164595847Y-78025924D01*
X164100000Y-77925512D01*
X162300000Y-77925512D01*
X161836778Y-78012673D01*
X161411337Y-78286437D01*
X161125924Y-78704153D01*
X161025512Y-79200000D01*
X153910162Y-79200000D01*
X153829838Y-79200000D01*
X153045337Y-79356047D01*
X152380269Y-79800431D01*
X151935885Y-80465499D01*
X151779838Y-81250000D01*
X151935885Y-82034501D01*
X152380269Y-82699569D01*
X152748588Y-82945672D01*
X152590285Y-83011081D01*
X152013108Y-83587252D01*
X151700357Y-84340441D01*
X151699645Y-85155981D01*
X148139407Y-85155981D01*
X148220162Y-84750000D01*
X148064115Y-83965499D01*
X147619731Y-83300431D01*
X147251412Y-83054328D01*
X147409715Y-82988919D01*
X147986892Y-82412748D01*
X148299643Y-81659559D01*
X148300355Y-80844019D01*
X147988919Y-80090285D01*
X147412748Y-79513108D01*
X146659559Y-79200357D01*
X145844019Y-79199645D01*
X145090285Y-79511081D01*
X144513108Y-80087252D01*
X144200357Y-80840441D01*
X144199645Y-81655981D01*
X144511081Y-82409715D01*
X145087252Y-82986892D01*
X145100981Y-82992593D01*
X144640269Y-83300431D01*
X144195885Y-83965499D01*
X144039838Y-84750000D01*
X143220219Y-84750000D01*
X143220342Y-84609862D01*
X142921059Y-83885542D01*
X142766002Y-83730215D01*
X142919111Y-83577373D01*
X143219658Y-82853576D01*
X143220342Y-82069862D01*
X142921059Y-81345542D01*
X142766002Y-81190215D01*
X142919111Y-81037373D01*
X143219658Y-80313576D01*
X143220342Y-79529862D01*
X142921059Y-78805542D01*
X142367373Y-78250889D01*
X141643576Y-77950342D01*
X140859862Y-77949658D01*
X140135542Y-78248941D01*
X139580889Y-78802627D01*
X139280342Y-79526424D01*
X139279658Y-80310138D01*
X109849208Y-80310138D01*
X109522748Y-79983108D01*
X108769559Y-79670357D01*
X107954019Y-79669645D01*
X107200285Y-79981081D01*
X106623108Y-80557252D01*
X106310357Y-81310441D01*
X106309645Y-82125981D01*
X101510012Y-82125981D01*
X101510348Y-81741940D01*
X101253450Y-81120202D01*
X101434076Y-80855847D01*
X101534488Y-80360000D01*
X101534488Y-78840000D01*
X101447327Y-78376778D01*
X101173563Y-77951337D01*
X100853645Y-77732746D01*
X100959715Y-77688919D01*
X101536892Y-77112748D01*
X101649891Y-76840615D01*
X101761081Y-77109715D01*
X102337252Y-77686892D01*
X103090441Y-77999643D01*
X103905981Y-78000355D01*
X104659715Y-77688919D01*
X105236892Y-77112748D01*
X105549643Y-76359559D01*
X105550355Y-75544019D01*
X105238919Y-74790285D01*
X104662748Y-74213108D01*
X103909559Y-73900357D01*
X103094019Y-73899645D01*
X102340285Y-74211081D01*
X101763108Y-74787252D01*
X101650109Y-75059385D01*
X101538919Y-74790285D01*
X100962748Y-74213108D01*
X100209559Y-73900357D01*
X99394019Y-73899645D01*
X98640285Y-74211081D01*
X98063108Y-74787252D01*
X97889630Y-75205034D01*
X97738919Y-74840285D01*
X97162748Y-74263108D01*
X96409559Y-73950357D01*
X95594019Y-73949645D01*
X94840285Y-74261081D01*
X94263108Y-74837252D01*
X93950357Y-75590441D01*
X93949645Y-76405981D01*
X72031798Y-76405981D01*
X71962327Y-76036778D01*
X71688563Y-75611337D01*
X71270847Y-75325924D01*
X70775000Y-75225512D01*
X68575000Y-75225512D01*
X68111778Y-75312673D01*
X67686337Y-75586437D01*
X67400924Y-76004153D01*
X67382617Y-76094557D01*
X67282412Y-75944590D01*
X66487574Y-75413497D01*
X65550000Y-75227002D01*
X64612426Y-75413497D01*
X63817588Y-75944590D01*
X63286495Y-76739428D01*
X63100000Y-77677002D01*
X58004304Y-77677002D01*
X57987327Y-77586778D01*
X57713563Y-77161337D01*
X57295847Y-76875924D01*
X56800000Y-76775512D01*
X54400000Y-76775512D01*
X53936778Y-76862673D01*
X53511337Y-77136437D01*
X53225924Y-77554153D01*
X53125512Y-78050000D01*
X42974488Y-78050000D01*
X42887327Y-77586778D01*
X42613563Y-77161337D01*
X42195847Y-76875924D01*
X41700000Y-76775512D01*
X39300000Y-76775512D01*
X38836778Y-76862673D01*
X38411337Y-77136437D01*
X38125924Y-77554153D01*
X38025512Y-78050000D01*
X27325000Y-78050000D01*
X27325000Y-73379407D01*
X39719121Y-73379407D01*
X39866232Y-73643089D01*
X40638928Y-73741518D01*
X41133768Y-73643089D01*
X41280879Y-73379407D01*
X54819121Y-73379407D01*
X54966232Y-73643089D01*
X55738928Y-73741518D01*
X56233768Y-73643089D01*
X56380879Y-73379407D01*
X55901472Y-72900000D01*
X112962002Y-72900000D01*
X113148497Y-73837574D01*
X113679590Y-74632412D01*
X114474428Y-75163505D01*
X115412002Y-75350000D01*
X115507998Y-75350000D01*
X116445572Y-75163505D01*
X117240410Y-74632412D01*
X117771503Y-73837574D01*
X117861486Y-73385197D01*
X128249576Y-73385197D01*
X128621780Y-74286000D01*
X129310375Y-74975798D01*
X130210527Y-75349573D01*
X131185197Y-75350424D01*
X132086000Y-74978220D01*
X132775798Y-74289625D01*
X133149573Y-73389473D01*
X133150424Y-72414803D01*
X132778220Y-71514000D01*
X132089625Y-70824202D01*
X131189473Y-70450427D01*
X130214803Y-70449576D01*
X129314000Y-70821780D01*
X128624202Y-71510375D01*
X128250427Y-72410527D01*
X128249576Y-73385197D01*
X117861486Y-73385197D01*
X117957998Y-72900000D01*
X117771503Y-71962426D01*
X117240410Y-71167588D01*
X116445572Y-70636495D01*
X115507998Y-70450000D01*
X115412002Y-70450000D01*
X114474428Y-70636495D01*
X113679590Y-71167588D01*
X113148497Y-71962426D01*
X112962002Y-72900000D01*
X55901472Y-72900000D01*
X55600000Y-72598528D01*
X54819121Y-73379407D01*
X41280879Y-73379407D01*
X40500000Y-72598528D01*
X39719121Y-73379407D01*
X27325000Y-73379407D01*
X27325000Y-71888928D01*
X38508482Y-71888928D01*
X38606911Y-72383768D01*
X38870593Y-72530879D01*
X39651472Y-71750000D01*
X41348528Y-71750000D01*
X42129407Y-72530879D01*
X42393089Y-72383768D01*
X42456123Y-71888928D01*
X53608482Y-71888928D01*
X53706911Y-72383768D01*
X53970593Y-72530879D01*
X54751472Y-71750000D01*
X56448528Y-71750000D01*
X57229407Y-72530879D01*
X57493089Y-72383768D01*
X57591518Y-71611072D01*
X57493089Y-71116232D01*
X57229407Y-70969121D01*
X56448528Y-71750000D01*
X54751472Y-71750000D01*
X53970593Y-70969121D01*
X53706911Y-71116232D01*
X53608482Y-71888928D01*
X42456123Y-71888928D01*
X42491518Y-71611072D01*
X42393089Y-71116232D01*
X42129407Y-70969121D01*
X41348528Y-71750000D01*
X39651472Y-71750000D01*
X38870593Y-70969121D01*
X38606911Y-71116232D01*
X38508482Y-71888928D01*
X27325000Y-71888928D01*
X27325000Y-70120593D01*
X39719121Y-70120593D01*
X40500000Y-70901472D01*
X41280879Y-70120593D01*
X54819121Y-70120593D01*
X55600000Y-70901472D01*
X56380879Y-70120593D01*
X56233768Y-69856911D01*
X55461072Y-69758482D01*
X54966232Y-69856911D01*
X54819121Y-70120593D01*
X41280879Y-70120593D01*
X41133768Y-69856911D01*
X40361072Y-69758482D01*
X39866232Y-69856911D01*
X39719121Y-70120593D01*
X27325000Y-70120593D01*
X27325000Y-68250000D01*
X66568020Y-68250000D01*
X67478796Y-69160776D01*
M02*
