M48
;DRILL file {KiCad 4.0.7} date 10/13/20 13:30:50
;FORMAT={-:-/ absolute / metric / decimal}
FMAT,2
METRIC,TZ
T1C0.800
T2C0.900
T3C1.000
T4C1.100
T5C1.200
T6C1.400
T7C1.500
T8C1.520
T9C1.700
T10C3.048
%
G90
G05
M71
T1
X65.625Y-94.4
X65.625Y-104.4
X74.3Y-99.475
X74.3Y-104.475
X79.2Y-99.8
X79.2Y-104.8
X83.4Y-97.1
X83.4Y-104.72
X87.Y-97.
X87.Y-104.62
X89.65Y-81.19
X89.65Y-83.73
X89.65Y-86.27
X90.7Y-68.45
X90.7Y-78.45
X92.1Y-96.87
X92.1Y-99.41
X92.1Y-101.95
X93.04Y-89.94
X93.08Y-93.32
X96.Y-68.38
X96.Y-76.
X99.5Y-79.6
X99.5Y-82.14
X99.5Y-84.68
X99.8Y-68.33
X99.8Y-75.95
X100.54Y-89.94
X100.7Y-93.32
X101.35Y-96.47
X101.35Y-99.01
X101.35Y-101.55
X103.5Y-68.33
X103.5Y-75.95
X105.89Y-88.99
X105.89Y-91.53
X105.89Y-94.07
X108.36Y-69.02
X108.36Y-81.72
X109.8Y-99.47
X109.8Y-102.01
X109.8Y-104.55
X110.98Y-94.6
X111.825Y-91.675
X115.98Y-94.6
X118.025Y-98.47
X118.025Y-101.01
X118.025Y-103.55
X119.445Y-91.675
X120.63Y-69.
X121.875Y-92.85
X126.13Y-100.75
X126.13Y-104.25
X126.19Y-97.4
X128.25Y-69.
X131.875Y-92.85
X133.25Y-61.38
X133.25Y-69.
X133.69Y-97.4
X133.75Y-100.75
X133.75Y-104.25
X134.53Y-93.15
X137.4Y-69.4
X137.4Y-71.94
X137.4Y-74.48
X139.Y-97.92
X139.Y-100.46
X139.Y-103.
X139.53Y-93.15
X141.25Y-79.92
X141.25Y-82.46
X141.25Y-85.
X142.Y-61.13
X142.Y-68.75
X142.25Y-90.75
X144.63Y-100.25
X144.63Y-103.75
X144.75Y-96.75
X146.13Y-84.75
X146.25Y-81.25
X152.25Y-90.75
X152.25Y-100.25
X152.25Y-103.75
X152.37Y-96.75
X153.75Y-84.75
X153.87Y-81.25
X155.25Y-61.25
X155.25Y-68.87
X158.38Y-69.25
X161.Y-95.
X166.Y-69.25
X168.62Y-95.
X168.67Y-69.25
X171.21Y-69.25
X173.75Y-69.25
X176.38Y-69.
X177.75Y-76.5
X177.75Y-84.12
X181.25Y-86.5
X181.5Y-76.5
X181.5Y-81.5
X183.79Y-86.5
X184.Y-69.
X186.33Y-86.5
X186.75Y-61.63
X186.75Y-69.25
X188.5Y-77.5
X188.5Y-80.
X192.75Y-83.75
X192.75Y-96.45
X193.46Y-101.76
X206.16Y-101.76
X226.8Y-69.7
X226.8Y-82.4
X230.3Y-82.4
X230.3Y-92.4
X232.2Y-68.6
X232.2Y-78.6
T2
X195.Y-78.75
X195.Y-81.29
T3
X28.7Y-93.46
X28.7Y-96.
X76.425Y-79.4
X76.425Y-84.4
X76.425Y-90.175
X76.425Y-95.175
X123.5Y-83.
X126.04Y-83.
X128.58Y-83.
X137.Y-47.5
X139.54Y-47.5
X142.08Y-47.5
X146.Y-70.3
X146.92Y-73.8
X149.46Y-73.8
X151.Y-47.5
X152.Y-73.8
X153.54Y-47.5
X156.08Y-47.5
X163.2Y-80.1
X165.74Y-80.1
X168.28Y-80.1
X263.44Y-93.17
X263.44Y-95.71
T4
X44.275Y-102.625
X51.895Y-102.625
X54.75Y-102.65
X62.37Y-102.65
X69.675Y-69.98
X69.675Y-77.6
X70.125Y-96.5
X70.125Y-104.12
X158.Y-91.
X173.Y-91.
X198.5Y-68.5
X198.5Y-76.12
X248.Y-100.
X248.Y-103.
X255.62Y-100.
X255.62Y-103.
T5
X28.25Y-65.5
X40.5Y-71.75
X40.5Y-79.25
X40.95Y-65.5
X55.425Y-86.925
X55.425Y-94.425
X55.6Y-71.75
X55.6Y-79.25
X65.55Y-77.725
X65.55Y-90.425
X115.46Y-72.9
X130.7Y-72.9
X177.76Y-73.
X188.5Y-91.25
X188.5Y-103.95
X193.Y-73.
X221.Y-69.4
X221.Y-84.64
X242.Y-71.3
X242.Y-78.8
X248.05Y-65.
X253.Y-86.7
X253.Y-94.2
X257.4Y-71.3
X257.4Y-78.8
X260.75Y-65.
T6
X29.Y-59.
X49.32Y-59.
X55.Y-59.
X75.32Y-59.
X82.Y-59.
X102.32Y-59.
X109.Y-59.
X129.32Y-59.
X163.68Y-59.
X184.Y-59.
X189.68Y-59.
X209.6Y-70.57
X209.6Y-82.
X210.Y-59.
X215.68Y-59.
X236.Y-59.
X243.68Y-59.
X264.Y-59.
T7
X40.Y-50.
X45.45Y-50.
X50.9Y-50.
X65.Y-50.
X70.45Y-50.
X75.9Y-50.
X90.Y-50.
X95.45Y-50.
X100.9Y-50.
X115.Y-50.
X120.45Y-50.
X125.9Y-50.
X167.Y-50.
X172.45Y-50.
X177.9Y-50.
X181.Y-100.25
X192.Y-50.
X197.45Y-50.
X202.9Y-50.
X217.Y-50.
X222.45Y-50.
X227.9Y-50.
X242.Y-50.
X247.45Y-50.
X252.9Y-50.
T8
X36.92Y-87.
X42.Y-87.
X161.82Y-101.8
X166.9Y-101.8
X215.72Y-100.4
X220.8Y-100.4
X236.92Y-87.
X242.Y-87.
T9
X178.46Y-97.71
X178.46Y-102.79
X183.54Y-97.71
X183.54Y-102.79
T10
X30.Y-47.
X30.Y-102.
X262.Y-47.
X262.Y-102.
T0
M30
