G04 #@! TF.FileFunction,Soldermask,Bot*
%FSLAX46Y46*%
G04 Gerber Fmt 4.6, Leading zero omitted, Abs format (unit mm)*
G04 Created by KiCad (PCBNEW 4.0.7) date 09/21/20 09:57:29*
%MOMM*%
%LPD*%
G01*
G04 APERTURE LIST*
%ADD10C,0.100000*%
%ADD11R,2.800000X2.800000*%
%ADD12C,2.800000*%
%ADD13C,2.600000*%
%ADD14C,2.400000*%
%ADD15R,2.000000X2.000000*%
%ADD16C,2.000000*%
%ADD17C,1.920000*%
%ADD18R,1.920000X1.920000*%
%ADD19O,2.000000X2.000000*%
%ADD20R,2.400000X2.400000*%
%ADD21R,2.600000X2.600000*%
%ADD22O,2.600000X2.600000*%
%ADD23R,2.200000X2.200000*%
%ADD24C,2.200000*%
%ADD25C,1.840000*%
%ADD26O,2.800000X2.800000*%
%ADD27R,4.700000X4.900000*%
%ADD28O,2.900000X4.900000*%
%ADD29O,4.700000X4.900000*%
%ADD30C,3.200000*%
%ADD31O,3.200000X3.200000*%
%ADD32R,3.400000X3.400000*%
%ADD33C,3.400000*%
%ADD34C,5.900000*%
%ADD35C,4.464000*%
%ADD36O,2.200000X2.200000*%
G04 APERTURE END LIST*
D10*
D11*
X55000000Y-72800000D03*
D12*
X55000000Y-80300000D03*
D13*
X178460000Y-102790000D03*
X178460000Y-97710000D03*
X183540000Y-97710000D03*
X183540000Y-102790000D03*
D14*
X181000000Y-100250000D03*
D15*
X188500000Y-80000000D03*
D16*
X188500000Y-77500000D03*
D17*
X118000000Y-100460000D03*
X118000000Y-97920000D03*
D18*
X118000000Y-103000000D03*
D17*
X90550000Y-83740000D03*
X90550000Y-86280000D03*
D18*
X90550000Y-81200000D03*
D16*
X184000000Y-69000000D03*
D19*
X176380000Y-69000000D03*
D16*
X134000000Y-96250000D03*
D19*
X126500000Y-96250000D03*
D16*
X94950000Y-87950000D03*
D19*
X102450000Y-87950000D03*
D16*
X73950000Y-104550000D03*
X73950000Y-99550000D03*
X181500000Y-76500000D03*
X181500000Y-81500000D03*
X78500000Y-104750000D03*
X78500000Y-99750000D03*
D20*
X79800000Y-86800000D03*
D14*
X79800000Y-81800000D03*
D20*
X79600000Y-70400000D03*
D14*
X79600000Y-75400000D03*
D16*
X115750000Y-94000000D03*
X120750000Y-94000000D03*
X152250000Y-90750000D03*
D19*
X142250000Y-90750000D03*
D16*
X230300000Y-92400000D03*
D19*
X230300000Y-82400000D03*
D16*
X90700000Y-68450000D03*
D19*
X90700000Y-78450000D03*
D11*
X257400000Y-78800000D03*
D12*
X257400000Y-71300000D03*
D16*
X232200000Y-68600000D03*
D19*
X232200000Y-78600000D03*
D21*
X75800000Y-93000000D03*
D22*
X83420000Y-93000000D03*
D23*
X195000000Y-78750000D03*
D24*
X195000000Y-81290000D03*
D15*
X142000000Y-68750000D03*
D19*
X142000000Y-61130000D03*
D15*
X155250000Y-61250000D03*
D19*
X155250000Y-68870000D03*
D21*
X66000000Y-77000000D03*
D22*
X66000000Y-69380000D03*
D21*
X198500000Y-68500000D03*
D22*
X198500000Y-76120000D03*
D16*
X144750000Y-96750000D03*
D19*
X152370000Y-96750000D03*
D16*
X161000000Y-88750000D03*
D19*
X168620000Y-88750000D03*
D16*
X99800000Y-75950000D03*
D19*
X99800000Y-68330000D03*
D16*
X96000000Y-76000000D03*
D19*
X96000000Y-68380000D03*
D16*
X102650000Y-92950000D03*
D19*
X95030000Y-92950000D03*
D16*
X133750000Y-100750000D03*
D19*
X126130000Y-100750000D03*
D16*
X133750000Y-104250000D03*
D19*
X126130000Y-104250000D03*
D16*
X152250000Y-100250000D03*
D19*
X144630000Y-100250000D03*
D16*
X152250000Y-103750000D03*
D19*
X144630000Y-103750000D03*
D25*
X139000000Y-103000000D03*
X139000000Y-100460000D03*
X139000000Y-97920000D03*
D12*
X188500000Y-91250000D03*
D26*
X188500000Y-103950000D03*
D16*
X177750000Y-76500000D03*
D19*
X177750000Y-84120000D03*
D12*
X71200000Y-93400000D03*
D26*
X71200000Y-80700000D03*
D16*
X87000000Y-97000000D03*
D19*
X87000000Y-104620000D03*
D16*
X82750000Y-97000000D03*
D19*
X82750000Y-104620000D03*
D16*
X192750000Y-83750000D03*
D19*
X192750000Y-96450000D03*
D16*
X103500000Y-75950000D03*
D19*
X103500000Y-68330000D03*
D16*
X110700000Y-76100000D03*
D19*
X110700000Y-68480000D03*
D16*
X107000000Y-76000000D03*
D19*
X107000000Y-68380000D03*
D16*
X113500000Y-87500000D03*
D19*
X113500000Y-79880000D03*
D16*
X146250000Y-81250000D03*
D19*
X153870000Y-81250000D03*
D25*
X141250000Y-85000000D03*
X141250000Y-82460000D03*
X141250000Y-79920000D03*
D16*
X153750000Y-84750000D03*
D19*
X146130000Y-84750000D03*
D16*
X166000000Y-69250000D03*
D19*
X158380000Y-69250000D03*
D16*
X128250000Y-69000000D03*
D19*
X120630000Y-69000000D03*
D12*
X193000000Y-73000000D03*
D26*
X177760000Y-73000000D03*
D16*
X133250000Y-69000000D03*
D19*
X133250000Y-61380000D03*
D16*
X186750000Y-69250000D03*
D19*
X186750000Y-61630000D03*
D12*
X28250000Y-65500000D03*
D26*
X40950000Y-65500000D03*
D12*
X260750000Y-65000000D03*
D26*
X248050000Y-65000000D03*
D16*
X226800000Y-82400000D03*
D19*
X226800000Y-69700000D03*
D27*
X40000000Y-50000000D03*
D28*
X45450000Y-50000000D03*
D29*
X50900000Y-50000000D03*
D27*
X242000000Y-50000000D03*
D28*
X247450000Y-50000000D03*
D29*
X252900000Y-50000000D03*
D27*
X65000000Y-50000000D03*
D28*
X70450000Y-50000000D03*
D29*
X75900000Y-50000000D03*
D27*
X217000000Y-50000000D03*
D28*
X222450000Y-50000000D03*
D29*
X227900000Y-50000000D03*
D27*
X90000000Y-50000000D03*
D28*
X95450000Y-50000000D03*
D29*
X100900000Y-50000000D03*
D27*
X192000000Y-50000000D03*
D28*
X197450000Y-50000000D03*
D29*
X202900000Y-50000000D03*
D27*
X115000000Y-50000000D03*
D28*
X120450000Y-50000000D03*
D29*
X125900000Y-50000000D03*
D27*
X167000000Y-50000000D03*
D28*
X172450000Y-50000000D03*
D29*
X177900000Y-50000000D03*
D30*
X29000000Y-59000000D03*
D31*
X49320000Y-59000000D03*
D30*
X264000000Y-59000000D03*
D31*
X243680000Y-59000000D03*
D30*
X55000000Y-59000000D03*
D31*
X75320000Y-59000000D03*
D30*
X236000000Y-59000000D03*
D31*
X215680000Y-59000000D03*
D30*
X82000000Y-59000000D03*
D31*
X102320000Y-59000000D03*
D30*
X210000000Y-59000000D03*
D31*
X189680000Y-59000000D03*
D30*
X109000000Y-59000000D03*
D31*
X129320000Y-59000000D03*
D30*
X184000000Y-59000000D03*
D31*
X163680000Y-59000000D03*
D32*
X220800000Y-100400000D03*
D33*
X215720000Y-100400000D03*
D32*
X242000000Y-95600000D03*
D33*
X236920000Y-95600000D03*
D32*
X41800000Y-90500000D03*
D33*
X36720000Y-90500000D03*
D34*
X262000000Y-102000000D03*
D35*
X262000000Y-47000000D03*
D34*
X30000000Y-102000000D03*
D35*
X30000000Y-47000000D03*
D32*
X166900000Y-101800000D03*
D33*
X161820000Y-101800000D03*
D11*
X39800000Y-72400000D03*
D12*
X39800000Y-79900000D03*
D11*
X54800000Y-88000000D03*
D12*
X54800000Y-95500000D03*
D11*
X242000000Y-78800000D03*
D12*
X242000000Y-71300000D03*
D11*
X253000000Y-94200000D03*
D12*
X253000000Y-86700000D03*
X130700000Y-72900000D03*
D26*
X115460000Y-72900000D03*
D16*
X263400000Y-92000000D03*
X263400000Y-97000000D03*
X30000000Y-92000000D03*
X30000000Y-97000000D03*
D13*
X157500000Y-93250000D03*
X172500000Y-93250000D03*
D30*
X209600000Y-82000000D03*
X209600000Y-70570000D03*
D12*
X221000000Y-69400000D03*
D26*
X221000000Y-84640000D03*
D17*
X109800000Y-102010000D03*
X109800000Y-99470000D03*
D18*
X109800000Y-104550000D03*
D17*
X99500000Y-82140000D03*
X99500000Y-84680000D03*
D18*
X99500000Y-79600000D03*
D17*
X101350000Y-99010000D03*
X101350000Y-96470000D03*
D18*
X101350000Y-101550000D03*
D17*
X92100000Y-99410000D03*
X92100000Y-96870000D03*
D18*
X92100000Y-101950000D03*
D17*
X183790000Y-86500000D03*
X186330000Y-86500000D03*
D18*
X181250000Y-86500000D03*
D17*
X108100000Y-91840000D03*
X108100000Y-94380000D03*
D18*
X108100000Y-89300000D03*
D17*
X108550000Y-82490000D03*
X108550000Y-85030000D03*
D18*
X108550000Y-79950000D03*
D17*
X137400000Y-71940000D03*
X137400000Y-74480000D03*
D18*
X137400000Y-69400000D03*
D17*
X171210000Y-69250000D03*
X168670000Y-69250000D03*
D18*
X173750000Y-69250000D03*
D21*
X46700000Y-101500000D03*
D22*
X54320000Y-101500000D03*
D21*
X235800000Y-88800000D03*
D22*
X243420000Y-88800000D03*
D21*
X57600000Y-101400000D03*
D22*
X65220000Y-101400000D03*
D21*
X235800000Y-84800000D03*
D22*
X243420000Y-84800000D03*
D16*
X66000000Y-97000000D03*
D19*
X66000000Y-87000000D03*
D23*
X123500000Y-83000000D03*
D36*
X126040000Y-83000000D03*
X128580000Y-83000000D03*
D23*
X152000000Y-73800000D03*
D36*
X149460000Y-73800000D03*
X146920000Y-73800000D03*
D23*
X163200000Y-80100000D03*
D36*
X165740000Y-80100000D03*
X168280000Y-80100000D03*
D23*
X137000000Y-47500000D03*
D36*
X139540000Y-47500000D03*
X142080000Y-47500000D03*
D23*
X151000000Y-47500000D03*
D36*
X153540000Y-47500000D03*
X156080000Y-47500000D03*
M02*
