G04 #@! TF.FileFunction,Soldermask,Top*
%FSLAX46Y46*%
G04 Gerber Fmt 4.6, Leading zero omitted, Abs format (unit mm)*
G04 Created by KiCad (PCBNEW 4.0.7) date 10/13/20 13:30:47*
%MOMM*%
%LPD*%
G01*
G04 APERTURE LIST*
%ADD10C,0.100000*%
%ADD11R,2.800000X2.800000*%
%ADD12C,2.800000*%
%ADD13C,2.600000*%
%ADD14C,2.400000*%
%ADD15R,2.000000X2.000000*%
%ADD16C,2.000000*%
%ADD17C,1.920000*%
%ADD18R,1.920000X1.920000*%
%ADD19O,2.000000X2.000000*%
%ADD20R,2.400000X2.400000*%
%ADD21R,2.600000X2.600000*%
%ADD22O,2.600000X2.600000*%
%ADD23R,2.200000X2.200000*%
%ADD24C,2.200000*%
%ADD25C,1.840000*%
%ADD26O,2.800000X2.800000*%
%ADD27R,4.700000X5.400000*%
%ADD28R,3.400000X5.400000*%
%ADD29R,4.700000X4.900000*%
%ADD30O,2.900000X4.900000*%
%ADD31O,4.700000X4.900000*%
%ADD32C,3.200000*%
%ADD33O,3.200000X3.200000*%
%ADD34R,3.400000X3.400000*%
%ADD35C,3.400000*%
%ADD36C,5.900000*%
%ADD37C,4.464000*%
%ADD38O,2.200000X2.200000*%
%ADD39R,2.100000X2.100000*%
%ADD40O,2.100000X2.100000*%
G04 APERTURE END LIST*
D10*
D11*
X55600000Y-79250000D03*
D12*
X55600000Y-71750000D03*
D13*
X178460000Y-102790000D03*
X178460000Y-97710000D03*
X183540000Y-97710000D03*
X183540000Y-102790000D03*
D14*
X181000000Y-100250000D03*
D15*
X188500000Y-80000000D03*
D16*
X188500000Y-77500000D03*
D17*
X118025000Y-101010000D03*
X118025000Y-98470000D03*
D18*
X118025000Y-103550000D03*
D17*
X89650000Y-83730000D03*
X89650000Y-86270000D03*
D18*
X89650000Y-81190000D03*
D16*
X184000000Y-69000000D03*
D19*
X176380000Y-69000000D03*
D16*
X133690000Y-97400000D03*
D19*
X126190000Y-97400000D03*
D16*
X93040000Y-89940000D03*
D19*
X100540000Y-89940000D03*
D16*
X74300000Y-104475000D03*
X74300000Y-99475000D03*
X181500000Y-76500000D03*
X181500000Y-81500000D03*
X79200000Y-104800000D03*
X79200000Y-99800000D03*
D20*
X76425000Y-79400000D03*
D14*
X76425000Y-84400000D03*
D20*
X76425000Y-95175000D03*
D14*
X76425000Y-90175000D03*
D16*
X110980000Y-94600000D03*
X115980000Y-94600000D03*
X152250000Y-90750000D03*
D19*
X142250000Y-90750000D03*
D16*
X230300000Y-92400000D03*
D19*
X230300000Y-82400000D03*
D16*
X90700000Y-68450000D03*
D19*
X90700000Y-78450000D03*
D11*
X257400000Y-78800000D03*
D12*
X257400000Y-71300000D03*
D16*
X232200000Y-68600000D03*
D19*
X232200000Y-78600000D03*
D21*
X70125000Y-96500000D03*
D22*
X70125000Y-104120000D03*
D23*
X195000000Y-78750000D03*
D24*
X195000000Y-81290000D03*
D15*
X142000000Y-68750000D03*
D19*
X142000000Y-61130000D03*
D15*
X155250000Y-61250000D03*
D19*
X155250000Y-68870000D03*
D21*
X69675000Y-77600000D03*
D22*
X69675000Y-69980000D03*
D21*
X198500000Y-68500000D03*
D22*
X198500000Y-76120000D03*
D16*
X144750000Y-96750000D03*
D19*
X152370000Y-96750000D03*
D16*
X161000000Y-95000000D03*
D19*
X168620000Y-95000000D03*
D16*
X99800000Y-75950000D03*
D19*
X99800000Y-68330000D03*
D16*
X96000000Y-76000000D03*
D19*
X96000000Y-68380000D03*
D16*
X100700000Y-93320000D03*
D19*
X93080000Y-93320000D03*
D16*
X133750000Y-100750000D03*
D19*
X126130000Y-100750000D03*
D16*
X133750000Y-104250000D03*
D19*
X126130000Y-104250000D03*
D16*
X152250000Y-100250000D03*
D19*
X144630000Y-100250000D03*
D16*
X152250000Y-103750000D03*
D19*
X144630000Y-103750000D03*
D25*
X139000000Y-103000000D03*
X139000000Y-100460000D03*
X139000000Y-97920000D03*
D12*
X188500000Y-91250000D03*
D26*
X188500000Y-103950000D03*
D16*
X177750000Y-76500000D03*
D19*
X177750000Y-84120000D03*
D12*
X65550000Y-90425000D03*
D26*
X65550000Y-77725000D03*
D16*
X87000000Y-97000000D03*
D19*
X87000000Y-104620000D03*
D16*
X83400000Y-97100000D03*
D19*
X83400000Y-104720000D03*
D16*
X192750000Y-83750000D03*
D19*
X192750000Y-96450000D03*
D16*
X103500000Y-75950000D03*
D19*
X103500000Y-68330000D03*
D16*
X146250000Y-81250000D03*
D19*
X153870000Y-81250000D03*
D25*
X141250000Y-85000000D03*
X141250000Y-82460000D03*
X141250000Y-79920000D03*
D16*
X153750000Y-84750000D03*
D19*
X146130000Y-84750000D03*
D16*
X166000000Y-69250000D03*
D19*
X158380000Y-69250000D03*
D16*
X128250000Y-69000000D03*
D19*
X120630000Y-69000000D03*
D12*
X193000000Y-73000000D03*
D26*
X177760000Y-73000000D03*
D16*
X133250000Y-69000000D03*
D19*
X133250000Y-61380000D03*
D16*
X186750000Y-69250000D03*
D19*
X186750000Y-61630000D03*
D12*
X28250000Y-65500000D03*
D26*
X40950000Y-65500000D03*
D12*
X260750000Y-65000000D03*
D26*
X248050000Y-65000000D03*
D16*
X226800000Y-82400000D03*
D19*
X226800000Y-69700000D03*
D27*
X50968000Y-45428000D03*
D28*
X45588000Y-45428000D03*
D29*
X40000000Y-50000000D03*
D30*
X45450000Y-50000000D03*
D31*
X50900000Y-50000000D03*
D27*
X40000000Y-45428000D03*
X252968000Y-45428000D03*
D28*
X247588000Y-45428000D03*
D29*
X242000000Y-50000000D03*
D30*
X247450000Y-50000000D03*
D31*
X252900000Y-50000000D03*
D27*
X242000000Y-45428000D03*
X75968000Y-45428000D03*
D28*
X70588000Y-45428000D03*
D29*
X65000000Y-50000000D03*
D30*
X70450000Y-50000000D03*
D31*
X75900000Y-50000000D03*
D27*
X65000000Y-45428000D03*
X227968000Y-45428000D03*
D28*
X222588000Y-45428000D03*
D29*
X217000000Y-50000000D03*
D30*
X222450000Y-50000000D03*
D31*
X227900000Y-50000000D03*
D27*
X217000000Y-45428000D03*
X100968000Y-45428000D03*
D28*
X95588000Y-45428000D03*
D29*
X90000000Y-50000000D03*
D30*
X95450000Y-50000000D03*
D31*
X100900000Y-50000000D03*
D27*
X90000000Y-45428000D03*
X202968000Y-45428000D03*
D28*
X197588000Y-45428000D03*
D29*
X192000000Y-50000000D03*
D30*
X197450000Y-50000000D03*
D31*
X202900000Y-50000000D03*
D27*
X192000000Y-45428000D03*
X125968000Y-45428000D03*
D28*
X120588000Y-45428000D03*
D29*
X115000000Y-50000000D03*
D30*
X120450000Y-50000000D03*
D31*
X125900000Y-50000000D03*
D27*
X115000000Y-45428000D03*
X177968000Y-45428000D03*
D28*
X172588000Y-45428000D03*
D29*
X167000000Y-50000000D03*
D30*
X172450000Y-50000000D03*
D31*
X177900000Y-50000000D03*
D27*
X167000000Y-45428000D03*
D32*
X29000000Y-59000000D03*
D33*
X49320000Y-59000000D03*
D32*
X264000000Y-59000000D03*
D33*
X243680000Y-59000000D03*
D32*
X55000000Y-59000000D03*
D33*
X75320000Y-59000000D03*
D32*
X236000000Y-59000000D03*
D33*
X215680000Y-59000000D03*
D32*
X82000000Y-59000000D03*
D33*
X102320000Y-59000000D03*
D32*
X210000000Y-59000000D03*
D33*
X189680000Y-59000000D03*
D32*
X109000000Y-59000000D03*
D33*
X129320000Y-59000000D03*
D32*
X184000000Y-59000000D03*
D33*
X163680000Y-59000000D03*
D34*
X220800000Y-100400000D03*
D35*
X215720000Y-100400000D03*
D34*
X242000000Y-87000000D03*
D35*
X236920000Y-87000000D03*
D34*
X42000000Y-87000000D03*
D35*
X36920000Y-87000000D03*
D36*
X262000000Y-102000000D03*
D37*
X262000000Y-47000000D03*
D36*
X30000000Y-102000000D03*
D37*
X30000000Y-47000000D03*
D34*
X166900000Y-101800000D03*
D35*
X161820000Y-101800000D03*
D11*
X40500000Y-79250000D03*
D12*
X40500000Y-71750000D03*
D11*
X55425000Y-94425000D03*
D12*
X55425000Y-86925000D03*
D11*
X242000000Y-78800000D03*
D12*
X242000000Y-71300000D03*
D11*
X253000000Y-94200000D03*
D12*
X253000000Y-86700000D03*
X130700000Y-72900000D03*
D26*
X115460000Y-72900000D03*
D13*
X158000000Y-91000000D03*
X173000000Y-91000000D03*
D32*
X209600000Y-82000000D03*
X209600000Y-70570000D03*
D12*
X221000000Y-69400000D03*
D26*
X221000000Y-84640000D03*
D17*
X109800000Y-102010000D03*
X109800000Y-99470000D03*
D18*
X109800000Y-104550000D03*
D17*
X99500000Y-82140000D03*
X99500000Y-84680000D03*
D18*
X99500000Y-79600000D03*
D17*
X101350000Y-99010000D03*
X101350000Y-96470000D03*
D18*
X101350000Y-101550000D03*
D17*
X92100000Y-99410000D03*
X92100000Y-96870000D03*
D18*
X92100000Y-101950000D03*
D17*
X183790000Y-86500000D03*
X186330000Y-86500000D03*
D18*
X181250000Y-86500000D03*
D17*
X105890000Y-91530000D03*
X105890000Y-94070000D03*
D18*
X105890000Y-88990000D03*
D17*
X137400000Y-71940000D03*
X137400000Y-74480000D03*
D18*
X137400000Y-69400000D03*
D17*
X171210000Y-69250000D03*
X168670000Y-69250000D03*
D18*
X173750000Y-69250000D03*
D21*
X44275000Y-102625000D03*
D22*
X51895000Y-102625000D03*
D21*
X248000000Y-100000000D03*
D22*
X255620000Y-100000000D03*
D21*
X54750000Y-102650000D03*
D22*
X62370000Y-102650000D03*
D21*
X248000000Y-103000000D03*
D22*
X255620000Y-103000000D03*
D16*
X65625000Y-104400000D03*
D19*
X65625000Y-94400000D03*
D23*
X123500000Y-83000000D03*
D38*
X126040000Y-83000000D03*
X128580000Y-83000000D03*
D23*
X152000000Y-73800000D03*
D38*
X149460000Y-73800000D03*
X146920000Y-73800000D03*
D23*
X163200000Y-80100000D03*
D38*
X165740000Y-80100000D03*
X168280000Y-80100000D03*
D23*
X137000000Y-47500000D03*
D38*
X139540000Y-47500000D03*
X142080000Y-47500000D03*
D23*
X151000000Y-47500000D03*
D38*
X153540000Y-47500000D03*
X156080000Y-47500000D03*
D16*
X193460000Y-101760000D03*
D19*
X206160000Y-101760000D03*
D16*
X108360000Y-81720000D03*
D19*
X108360000Y-69020000D03*
D16*
X134530000Y-93150000D03*
X139530000Y-93150000D03*
X121875000Y-92850000D03*
D19*
X131875000Y-92850000D03*
D16*
X111825000Y-91675000D03*
D19*
X119445000Y-91675000D03*
D39*
X263440000Y-93170000D03*
D40*
X263440000Y-95710000D03*
D39*
X28700000Y-93460000D03*
D40*
X28700000Y-96000000D03*
M02*
