M48
;DRILL file {KiCad 4.0.7} date 09/21/20 09:57:31
;FORMAT={-:-/ absolute / metric / decimal}
FMAT,2
METRIC,TZ
T1C0.800
T2C0.900
T3C1.000
T4C1.100
T5C1.200
T6C1.400
T7C1.500
T8C1.520
T9C1.700
T10C3.048
%
G90
G05
M71
T1
X30.Y-92.
X30.Y-97.
X66.Y-87.
X66.Y-97.
X73.95Y-99.55
X73.95Y-104.55
X78.5Y-99.75
X78.5Y-104.75
X82.75Y-97.
X82.75Y-104.62
X87.Y-97.
X87.Y-104.62
X90.55Y-81.2
X90.55Y-83.74
X90.55Y-86.28
X90.7Y-68.45
X90.7Y-78.45
X92.1Y-96.87
X92.1Y-99.41
X92.1Y-101.95
X94.95Y-87.95
X95.03Y-92.95
X96.Y-68.38
X96.Y-76.
X99.5Y-79.6
X99.5Y-82.14
X99.5Y-84.68
X99.8Y-68.33
X99.8Y-75.95
X101.35Y-96.47
X101.35Y-99.01
X101.35Y-101.55
X102.45Y-87.95
X102.65Y-92.95
X103.5Y-68.33
X103.5Y-75.95
X107.Y-68.38
X107.Y-76.
X108.1Y-89.3
X108.1Y-91.84
X108.1Y-94.38
X108.55Y-79.95
X108.55Y-82.49
X108.55Y-85.03
X109.8Y-99.47
X109.8Y-102.01
X109.8Y-104.55
X110.7Y-68.48
X110.7Y-76.1
X113.5Y-79.88
X113.5Y-87.5
X115.75Y-94.
X118.Y-97.92
X118.Y-100.46
X118.Y-103.
X120.63Y-69.
X120.75Y-94.
X126.13Y-100.75
X126.13Y-104.25
X126.5Y-96.25
X128.25Y-69.
X133.25Y-61.38
X133.25Y-69.
X133.75Y-100.75
X133.75Y-104.25
X134.Y-96.25
X137.4Y-69.4
X137.4Y-71.94
X137.4Y-74.48
X139.Y-97.92
X139.Y-100.46
X139.Y-103.
X141.25Y-79.92
X141.25Y-82.46
X141.25Y-85.
X142.Y-61.13
X142.Y-68.75
X142.25Y-90.75
X144.63Y-100.25
X144.63Y-103.75
X144.75Y-96.75
X146.13Y-84.75
X146.25Y-81.25
X152.25Y-90.75
X152.25Y-100.25
X152.25Y-103.75
X152.37Y-96.75
X153.75Y-84.75
X153.87Y-81.25
X155.25Y-61.25
X155.25Y-68.87
X158.38Y-69.25
X161.Y-88.75
X166.Y-69.25
X168.62Y-88.75
X168.67Y-69.25
X171.21Y-69.25
X173.75Y-69.25
X176.38Y-69.
X177.75Y-76.5
X177.75Y-84.12
X181.25Y-86.5
X181.5Y-76.5
X181.5Y-81.5
X183.79Y-86.5
X184.Y-69.
X186.33Y-86.5
X186.75Y-61.63
X186.75Y-69.25
X188.5Y-77.5
X188.5Y-80.
X192.75Y-83.75
X192.75Y-96.45
X226.8Y-69.7
X226.8Y-82.4
X230.3Y-82.4
X230.3Y-92.4
X232.2Y-68.6
X232.2Y-78.6
X263.4Y-92.
X263.4Y-97.
T2
X195.Y-78.75
X195.Y-81.29
T3
X79.6Y-70.4
X79.6Y-75.4
X79.8Y-81.8
X79.8Y-86.8
X123.5Y-83.
X126.04Y-83.
X128.58Y-83.
X137.Y-47.5
X139.54Y-47.5
X142.08Y-47.5
X146.Y-70.3
X146.92Y-73.8
X149.46Y-73.8
X151.Y-47.5
X152.Y-73.8
X153.54Y-47.5
X156.08Y-47.5
X163.2Y-80.1
X165.74Y-80.1
X168.28Y-80.1
T4
X46.7Y-101.5
X54.32Y-101.5
X57.6Y-101.4
X65.22Y-101.4
X66.Y-69.38
X66.Y-77.
X75.8Y-93.
X83.42Y-93.
X157.5Y-93.25
X172.5Y-93.25
X198.5Y-68.5
X198.5Y-76.12
X235.8Y-84.8
X235.8Y-88.8
X243.42Y-84.8
X243.42Y-88.8
T5
X28.25Y-65.5
X39.8Y-72.4
X39.8Y-79.9
X40.95Y-65.5
X54.8Y-88.
X54.8Y-95.5
X55.Y-72.8
X55.Y-80.3
X71.2Y-80.7
X71.2Y-93.4
X115.46Y-72.9
X130.7Y-72.9
X177.76Y-73.
X188.5Y-91.25
X188.5Y-103.95
X193.Y-73.
X221.Y-69.4
X221.Y-84.64
X242.Y-71.3
X242.Y-78.8
X248.05Y-65.
X253.Y-86.7
X253.Y-94.2
X257.4Y-71.3
X257.4Y-78.8
X260.75Y-65.
T6
X29.Y-59.
X49.32Y-59.
X55.Y-59.
X75.32Y-59.
X82.Y-59.
X102.32Y-59.
X109.Y-59.
X129.32Y-59.
X163.68Y-59.
X184.Y-59.
X189.68Y-59.
X209.6Y-70.57
X209.6Y-82.
X210.Y-59.
X215.68Y-59.
X236.Y-59.
X243.68Y-59.
X264.Y-59.
T7
X40.Y-50.
X45.45Y-50.
X50.9Y-50.
X65.Y-50.
X70.45Y-50.
X75.9Y-50.
X90.Y-50.
X95.45Y-50.
X100.9Y-50.
X115.Y-50.
X120.45Y-50.
X125.9Y-50.
X167.Y-50.
X172.45Y-50.
X177.9Y-50.
X181.Y-100.25
X192.Y-50.
X197.45Y-50.
X202.9Y-50.
X217.Y-50.
X222.45Y-50.
X227.9Y-50.
X242.Y-50.
X247.45Y-50.
X252.9Y-50.
T8
X36.72Y-90.5
X41.8Y-90.5
X161.82Y-101.8
X166.9Y-101.8
X215.72Y-100.4
X220.8Y-100.4
X236.92Y-95.6
X242.Y-95.6
T9
X178.46Y-97.71
X178.46Y-102.79
X183.54Y-97.71
X183.54Y-102.79
T10
X30.Y-47.
X30.Y-102.
X262.Y-47.
X262.Y-102.
T0
M30
