G04 #@! TF.FileFunction,Copper,L1,Top,Signal*
%FSLAX46Y46*%
G04 Gerber Fmt 4.6, Leading zero omitted, Abs format (unit mm)*
G04 Created by KiCad (PCBNEW 4.0.7) date 08/19/20 01:37:28*
%MOMM*%
%LPD*%
G01*
G04 APERTURE LIST*
%ADD10C,0.100000*%
%ADD11C,1.600000*%
%ADD12O,1.600000X1.600000*%
%ADD13R,2.400000X2.400000*%
%ADD14C,2.400000*%
%ADD15R,3.200000X3.200000*%
%ADD16O,3.200000X3.200000*%
%ADD17R,2.200000X2.200000*%
%ADD18O,2.200000X2.200000*%
%ADD19R,3.000000X3.000000*%
%ADD20C,3.000000*%
%ADD21C,5.500000*%
%ADD22C,4.064000*%
%ADD23C,4.000000*%
%ADD24C,2.000000*%
G04 APERTURE END LIST*
D10*
D11*
X82270000Y-47800000D03*
D12*
X82270000Y-60300000D03*
D11*
X82270000Y-72800000D03*
D12*
X82270000Y-85300000D03*
D11*
X93270000Y-51800000D03*
D12*
X93270000Y-64300000D03*
D11*
X93270000Y-74800000D03*
D12*
X93270000Y-87300000D03*
D11*
X130810000Y-53340000D03*
D12*
X130810000Y-65840000D03*
D11*
X130810000Y-76200000D03*
D12*
X130810000Y-88700000D03*
D11*
X170180000Y-63500000D03*
D12*
X170180000Y-51000000D03*
D11*
X170180000Y-87630000D03*
D12*
X170180000Y-75130000D03*
D13*
X180340000Y-54610000D03*
D14*
X180340000Y-62110000D03*
D13*
X180340000Y-77470000D03*
D14*
X180340000Y-84970000D03*
D13*
X195580000Y-54610000D03*
D14*
X195580000Y-62110000D03*
D13*
X195580000Y-77470000D03*
D14*
X195580000Y-84970000D03*
D13*
X210820000Y-54610000D03*
D14*
X210820000Y-62110000D03*
D13*
X210820000Y-77470000D03*
D14*
X210820000Y-84970000D03*
D15*
X64770000Y-49530000D03*
D16*
X64770000Y-62230000D03*
D15*
X64770000Y-77470000D03*
D16*
X64770000Y-90170000D03*
D15*
X74930000Y-49530000D03*
D16*
X74930000Y-62230000D03*
D15*
X74930000Y-77470000D03*
D16*
X74930000Y-90170000D03*
D17*
X97790000Y-48260000D03*
D18*
X97790000Y-55880000D03*
D17*
X97790000Y-58420000D03*
D18*
X97790000Y-66040000D03*
D17*
X97790000Y-73660000D03*
D18*
X97790000Y-81280000D03*
D17*
X97790000Y-83820000D03*
D18*
X97790000Y-91440000D03*
D17*
X162560000Y-48260000D03*
D18*
X162560000Y-55880000D03*
D17*
X162560000Y-58420000D03*
D18*
X162560000Y-66040000D03*
D17*
X162560000Y-73660000D03*
D18*
X162560000Y-81280000D03*
D17*
X162560000Y-83820000D03*
D18*
X162560000Y-91440000D03*
D19*
X53340000Y-54610000D03*
D20*
X53340000Y-49530000D03*
D19*
X53340000Y-64770000D03*
D20*
X53340000Y-59690000D03*
D19*
X53340000Y-80010000D03*
D20*
X53340000Y-74930000D03*
D19*
X53340000Y-90170000D03*
D20*
X53340000Y-85090000D03*
D19*
X224790000Y-59690000D03*
D20*
X224790000Y-64770000D03*
D19*
X224790000Y-85090000D03*
D20*
X224790000Y-90170000D03*
D19*
X224790000Y-49530000D03*
D20*
X224790000Y-54610000D03*
D19*
X224790000Y-74930000D03*
D20*
X224790000Y-80010000D03*
X120650000Y-55880000D03*
X105410000Y-55880000D03*
X120650000Y-62230000D03*
X105410000Y-62230000D03*
X120650000Y-78740000D03*
X105410000Y-78740000D03*
X120650000Y-85090000D03*
X105410000Y-85090000D03*
X156210000Y-55880000D03*
X140970000Y-55880000D03*
X156210000Y-62230000D03*
X140970000Y-62230000D03*
X156210000Y-78740000D03*
X140970000Y-78740000D03*
X156210000Y-85090000D03*
X140970000Y-85090000D03*
D21*
X39370000Y-49530000D03*
X39370000Y-90170000D03*
D22*
X240030000Y-49530000D03*
X240030000Y-90170000D03*
D11*
X86270000Y-53800000D03*
D12*
X86270000Y-66300000D03*
D11*
X86270000Y-78800000D03*
D12*
X86270000Y-91300000D03*
D23*
X93270000Y-51800000D02*
X94250000Y-51800000D01*
X94250000Y-51800000D02*
X97790000Y-48260000D01*
X82270000Y-47800000D02*
X97330000Y-47800000D01*
X97330000Y-47800000D02*
X97790000Y-48260000D01*
X97790000Y-48260000D02*
X105410000Y-55880000D01*
X74930000Y-49530000D02*
X81280000Y-49530000D01*
X81280000Y-49530000D02*
X82270000Y-47800000D01*
X64770000Y-49530000D02*
X74930000Y-49530000D01*
X53340000Y-49530000D02*
X64770000Y-49530000D01*
X82270000Y-60300000D02*
X82270000Y-57800000D01*
X82270000Y-57800000D02*
X86270000Y-53800000D01*
X93270000Y-74800000D02*
X96650000Y-74800000D01*
X96650000Y-74800000D02*
X97790000Y-73660000D01*
X82270000Y-72800000D02*
X96930000Y-72800000D01*
X96930000Y-72800000D02*
X97790000Y-73660000D01*
X82270000Y-72800000D02*
X60270000Y-72800000D01*
X58480000Y-80010000D02*
X53340000Y-80010000D01*
X59270000Y-80800000D02*
X58480000Y-80010000D01*
X59270000Y-73800000D02*
X59270000Y-80800000D01*
X60270000Y-72800000D02*
X59270000Y-73800000D01*
X97790000Y-73660000D02*
X100330000Y-73660000D01*
X100330000Y-73660000D02*
X105410000Y-78740000D01*
X53340000Y-80010000D02*
X53340000Y-85090000D01*
X129540000Y-53340000D02*
X138430000Y-53340000D01*
X138430000Y-53340000D02*
X140970000Y-55880000D01*
X120650000Y-55880000D02*
X123190000Y-53340000D01*
X123190000Y-53340000D02*
X129540000Y-53340000D01*
X129540000Y-53340000D02*
X130810000Y-53340000D01*
X140970000Y-62230000D02*
X137160000Y-66040000D01*
X137160000Y-66040000D02*
X131010000Y-66040000D01*
X131010000Y-66040000D02*
X130810000Y-65840000D01*
X120650000Y-62230000D02*
X120650000Y-64770000D01*
X121720000Y-65840000D02*
X130810000Y-65840000D01*
X120650000Y-64770000D02*
X121720000Y-65840000D01*
X130810000Y-76200000D02*
X138430000Y-76200000D01*
X138430000Y-76200000D02*
X140970000Y-78740000D01*
X120650000Y-78740000D02*
X120650000Y-77470000D01*
X120650000Y-77470000D02*
X121920000Y-76200000D01*
X121920000Y-76200000D02*
X130810000Y-76200000D01*
X130810000Y-88700000D02*
X137360000Y-88700000D01*
X137360000Y-88700000D02*
X140970000Y-85090000D01*
X120650000Y-85090000D02*
X120650000Y-86360000D01*
X120650000Y-86360000D02*
X122990000Y-88700000D01*
X122990000Y-88700000D02*
X130810000Y-88700000D01*
X210820000Y-62110000D02*
X210820000Y-64770000D01*
X223520000Y-66040000D02*
X224790000Y-64770000D01*
X212090000Y-66040000D02*
X223520000Y-66040000D01*
X210820000Y-64770000D02*
X212090000Y-66040000D01*
X195580000Y-62110000D02*
X210820000Y-62110000D01*
X180340000Y-62110000D02*
X195580000Y-62110000D01*
X170180000Y-63500000D02*
X171450000Y-63500000D01*
X172840000Y-62110000D02*
X180340000Y-62110000D01*
X171450000Y-63500000D02*
X172840000Y-62110000D01*
X170180000Y-63500000D02*
X170180000Y-64770000D01*
X168910000Y-66040000D02*
X162560000Y-66040000D01*
X170180000Y-64770000D02*
X168910000Y-66040000D01*
X156210000Y-62230000D02*
X156210000Y-64770000D01*
X157480000Y-66040000D02*
X162560000Y-66040000D01*
X156210000Y-64770000D02*
X157480000Y-66040000D01*
X210820000Y-54610000D02*
X212090000Y-54610000D01*
X217170000Y-59690000D02*
X224790000Y-59690000D01*
X212090000Y-54610000D02*
X217170000Y-59690000D01*
X195580000Y-54610000D02*
X210820000Y-54610000D01*
X180340000Y-54610000D02*
X195580000Y-54610000D01*
X170180000Y-51000000D02*
X170180000Y-52070000D01*
X172720000Y-54610000D02*
X180340000Y-54610000D01*
X170180000Y-52070000D02*
X172720000Y-54610000D01*
X162560000Y-48260000D02*
X166170000Y-48260000D01*
X166170000Y-48260000D02*
X170180000Y-51000000D01*
X156210000Y-55880000D02*
X156210000Y-52070000D01*
X160020000Y-48260000D02*
X162560000Y-48260000D01*
X156210000Y-52070000D02*
X160020000Y-48260000D01*
X210820000Y-84970000D02*
X213480000Y-84970000D01*
X218440000Y-80010000D02*
X224790000Y-80010000D01*
X213480000Y-84970000D02*
X218440000Y-80010000D01*
X195580000Y-84970000D02*
X210820000Y-84970000D01*
X180340000Y-84970000D02*
X195580000Y-84970000D01*
X170180000Y-87630000D02*
X171450000Y-87630000D01*
X174110000Y-84970000D02*
X180340000Y-84970000D01*
X171450000Y-87630000D02*
X174110000Y-84970000D01*
X170180000Y-87630000D02*
X170180000Y-88900000D01*
X167640000Y-91440000D02*
X162560000Y-91440000D01*
X170180000Y-88900000D02*
X167640000Y-91440000D01*
X156210000Y-85090000D02*
X156210000Y-90170000D01*
X157480000Y-91440000D02*
X162560000Y-91440000D01*
X156210000Y-90170000D02*
X157480000Y-91440000D01*
X210820000Y-77470000D02*
X212090000Y-77470000D01*
X214630000Y-74930000D02*
X224790000Y-74930000D01*
X212090000Y-77470000D02*
X214630000Y-74930000D01*
X210820000Y-77470000D02*
X195580000Y-77470000D01*
X195580000Y-77470000D02*
X180340000Y-77470000D01*
X170180000Y-75130000D02*
X178000000Y-75130000D01*
X178000000Y-75130000D02*
X180340000Y-77470000D01*
X162560000Y-73660000D02*
X168910000Y-73660000D01*
X168910000Y-73660000D02*
X170180000Y-74930000D01*
X170180000Y-74930000D02*
X170180000Y-75130000D01*
X156210000Y-78740000D02*
X156210000Y-74930000D01*
X157480000Y-73660000D02*
X162560000Y-73660000D01*
X156210000Y-74930000D02*
X157480000Y-73660000D01*
X53340000Y-59690000D02*
X62230000Y-59690000D01*
X62230000Y-59690000D02*
X64770000Y-62230000D01*
D24*
X97790000Y-55880000D02*
X97790000Y-58420000D01*
X97790000Y-81280000D02*
X97790000Y-83820000D01*
X162560000Y-55880000D02*
X162560000Y-58420000D01*
X162560000Y-81280000D02*
X162560000Y-83820000D01*
D23*
X86270000Y-78800000D02*
X86270000Y-81300000D01*
X86270000Y-81300000D02*
X82270000Y-85300000D01*
X86270000Y-66300000D02*
X90780000Y-66300000D01*
X90780000Y-66300000D02*
X92510000Y-64570000D01*
X86270000Y-66300000D02*
X84770000Y-66300000D01*
X83760000Y-67310000D02*
X69850000Y-67310000D01*
X84770000Y-66300000D02*
X83760000Y-67310000D01*
X92510000Y-64570000D02*
X93980000Y-66040000D01*
X93980000Y-66040000D02*
X97790000Y-66040000D01*
X69850000Y-57150000D02*
X69850000Y-66040000D01*
X69850000Y-66040000D02*
X69850000Y-67310000D01*
X55880000Y-67310000D02*
X69850000Y-67310000D01*
X67310000Y-54610000D02*
X69850000Y-57150000D01*
X105410000Y-62230000D02*
X105410000Y-66040000D01*
X105410000Y-66040000D02*
X97790000Y-66040000D01*
X93270000Y-64300000D02*
X92510000Y-64570000D01*
X93270000Y-64300000D02*
X93270000Y-64500000D01*
X53340000Y-54610000D02*
X67310000Y-54610000D01*
X53340000Y-64770000D02*
X55880000Y-67310000D01*
X86270000Y-91300000D02*
X76060000Y-91300000D01*
X76060000Y-91300000D02*
X74930000Y-90170000D01*
X93270000Y-87300000D02*
X93270000Y-91440000D01*
X93270000Y-91440000D02*
X93270000Y-90800000D01*
X93270000Y-90800000D02*
X93270000Y-91440000D01*
X86270000Y-91300000D02*
X86770000Y-91300000D01*
X86770000Y-91300000D02*
X86910000Y-91440000D01*
X86910000Y-91440000D02*
X93270000Y-91440000D01*
X93270000Y-91440000D02*
X97790000Y-91440000D01*
X105410000Y-85090000D02*
X105410000Y-87630000D01*
X101600000Y-91440000D02*
X97790000Y-91440000D01*
X105410000Y-87630000D02*
X101600000Y-91440000D01*
X64770000Y-90170000D02*
X74930000Y-90170000D01*
X53340000Y-90170000D02*
X64770000Y-90170000D01*
M02*
