M48
;DRILL file {KiCad 4.0.7} date 08/19/20 01:37:31
;FORMAT={-:-/ absolute / metric / decimal}
FMAT,2
METRIC,TZ
T1C0.800
T2C1.100
T3C1.200
T4C1.500
T5C1.520
T6C1.600
T7C3.048
%
G90
G05
M71
T1
X82.27Y-47.8
X82.27Y-60.3
X82.27Y-72.8
X82.27Y-85.3
X86.27Y-53.8
X86.27Y-66.3
X86.27Y-78.8
X86.27Y-91.3
X93.27Y-51.8
X93.27Y-64.3
X93.27Y-74.8
X93.27Y-87.3
X130.81Y-53.34
X130.81Y-65.84
X130.81Y-76.2
X130.81Y-88.7
X170.18Y-51.
X170.18Y-63.5
X170.18Y-75.13
X170.18Y-87.63
T2
X97.79Y-48.26
X97.79Y-55.88
X97.79Y-58.42
X97.79Y-66.04
X97.79Y-73.66
X97.79Y-81.28
X97.79Y-83.82
X97.79Y-91.44
X162.56Y-48.26
X162.56Y-55.88
X162.56Y-58.42
X162.56Y-66.04
X162.56Y-73.66
X162.56Y-81.28
X162.56Y-83.82
X162.56Y-91.44
T3
X180.34Y-54.61
X180.34Y-62.11
X180.34Y-77.47
X180.34Y-84.97
X195.58Y-54.61
X195.58Y-62.11
X195.58Y-77.47
X195.58Y-84.97
X210.82Y-54.61
X210.82Y-62.11
X210.82Y-77.47
X210.82Y-84.97
T4
X105.41Y-55.88
X105.41Y-62.23
X105.41Y-78.74
X105.41Y-85.09
X120.65Y-55.88
X120.65Y-62.23
X120.65Y-78.74
X120.65Y-85.09
X140.97Y-55.88
X140.97Y-62.23
X140.97Y-78.74
X140.97Y-85.09
X156.21Y-55.88
X156.21Y-62.23
X156.21Y-78.74
X156.21Y-85.09
T5
X53.34Y-49.53
X53.34Y-54.61
X53.34Y-59.69
X53.34Y-64.77
X53.34Y-74.93
X53.34Y-80.01
X53.34Y-85.09
X53.34Y-90.17
X224.79Y-49.53
X224.79Y-54.61
X224.79Y-59.69
X224.79Y-64.77
X224.79Y-74.93
X224.79Y-80.01
X224.79Y-85.09
X224.79Y-90.17
T6
X64.77Y-49.53
X64.77Y-62.23
X64.77Y-77.47
X64.77Y-90.17
X74.93Y-49.53
X74.93Y-62.23
X74.93Y-77.47
X74.93Y-90.17
T7
X39.37Y-49.53
X39.37Y-90.17
X240.03Y-49.53
X240.03Y-90.17
T0
M30
