M48
;DRILL file {KiCad 4.0.7} date 10/20/20 00:01:48
;FORMAT={-:-/ absolute / metric / decimal}
FMAT,2
METRIC,TZ
T1C0.800
T2C0.900
T3C1.000
T4C1.100
T5C1.200
T6C1.400
T7C1.500
T8C1.520
T9C1.700
T10C3.048
%
G90
G05
M71
T1
X65.Y-94.2
X65.Y-104.2
X69.2Y-99.2
X69.2Y-104.2
X74.Y-99.2
X74.Y-104.2
X79.Y-96.8
X79.Y-104.42
X82.8Y-96.6
X82.8Y-104.22
X84.4Y-68.8
X84.4Y-78.8
X84.8Y-85.25
X87.34Y-85.25
X89.2Y-68.38
X89.2Y-76.
X89.4Y-96.52
X89.4Y-99.06
X89.4Y-101.6
X89.88Y-85.25
X92.73Y-90.19
X92.74Y-93.52
X94.57Y-85.
X97.Y-96.52
X97.Y-99.06
X97.Y-101.6
X97.11Y-85.
X97.6Y-68.38
X97.6Y-76.
X99.65Y-85.
X100.23Y-90.19
X100.36Y-93.52
X101.Y-68.38
X101.Y-76.
X102.12Y-98.8
X103.Y-93.6
X103.35Y-90.39
X104.66Y-98.8
X105.Y-68.1
X105.Y-80.8
X107.2Y-98.8
X108.Y-93.6
X108.35Y-90.39
X110.8Y-92.8
X114.8Y-98.8
X114.92Y-102.8
X117.34Y-98.8
X117.46Y-102.8
X118.42Y-92.8
X119.88Y-98.8
X120.Y-102.8
X120.63Y-69.
X121.575Y-92.825
X126.3Y-98.
X126.38Y-101.2
X126.38Y-104.4
X128.25Y-69.
X131.575Y-92.825
X133.25Y-61.38
X133.25Y-69.
X133.8Y-98.
X134.Y-101.2
X134.Y-104.4
X134.91Y-92.96
X136.3Y-69.
X136.77Y-83.5
X138.84Y-69.
X139.Y-98.52
X139.Y-101.06
X139.Y-103.6
X139.31Y-83.5
X139.91Y-92.96
X141.38Y-69.
X141.85Y-83.5
X144.2Y-61.18
X144.2Y-68.8
X144.58Y-101.2
X144.58Y-104.4
X144.6Y-92.8
X144.6Y-97.8
X146.1Y-81.6
X146.13Y-84.75
X152.2Y-101.2
X152.2Y-104.4
X152.22Y-97.8
X153.72Y-81.6
X153.75Y-84.75
X154.6Y-92.8
X155.25Y-61.25
X155.25Y-68.87
X158.27Y-68.8
X160.81Y-68.8
X163.35Y-68.8
X164.2Y-95.4
X171.82Y-95.4
X178.78Y-75.5
X178.8Y-72.55
X181.22Y-85.45
X183.76Y-85.45
X185.8Y-61.63
X185.8Y-69.25
X186.3Y-85.45
X186.4Y-75.5
X186.42Y-72.55
X189.Y-68.95
X189.Y-76.57
X191.5Y-73.7
X192.75Y-83.75
X192.75Y-96.45
X192.8Y-69.05
X194.Y-103.
X195.3Y-69.05
X196.5Y-73.7
X206.7Y-103.
X226.8Y-69.7
X226.8Y-82.4
X232.Y-81.
X232.Y-91.
X232.2Y-68.6
X232.2Y-78.6
T2
X199.Y-79.
X199.Y-81.54
T3
X28.77Y-94.11
X28.77Y-96.65
X72.8Y-89.4
X72.8Y-94.4
X77.Y-79.125
X77.Y-84.125
X82.8Y-89.2
X119.55Y-80.4
X122.09Y-80.4
X124.63Y-80.4
X137.Y-47.5
X139.54Y-47.5
X142.08Y-47.5
X146.92Y-73.6
X149.46Y-73.6
X151.Y-47.5
X152.Y-73.6
X153.54Y-47.5
X155.9Y-87.4
X156.08Y-47.5
X163.2Y-77.8
X165.74Y-77.8
X168.28Y-77.8
X263.46Y-93.54
X263.46Y-96.08
T4
X28.6Y-71.2
X28.6Y-78.82
X28.6Y-81.6
X28.6Y-89.22
X45.18Y-103.
X52.8Y-103.
X68.975Y-69.58
X68.975Y-77.2
X158.6Y-91.2
X173.6Y-91.2
X199.25Y-68.5
X199.25Y-76.12
X248.Y-100.
X248.Y-103.
X255.62Y-100.
X255.62Y-103.
T5
X28.25Y-65.5
X39.85Y-72.75
X39.85Y-80.25
X40.95Y-65.5
X54.625Y-72.75
X54.625Y-80.25
X54.825Y-87.5
X54.825Y-95.
X64.925Y-78.
X64.925Y-90.7
X115.46Y-72.9
X130.7Y-72.9
X166.86Y-69.25
X182.1Y-69.25
X188.5Y-90.2
X188.5Y-102.9
X221.Y-69.4
X221.Y-84.64
X242.Y-71.3
X242.Y-78.8
X248.05Y-65.
X253.Y-86.7
X253.Y-94.2
X257.4Y-71.3
X257.4Y-78.8
X260.75Y-65.
T6
X28.Y-58.8
X48.32Y-58.8
X55.Y-59.
X75.32Y-59.
X82.Y-59.
X102.32Y-59.
X109.Y-59.
X129.32Y-59.
X162.28Y-58.8
X182.6Y-58.8
X189.68Y-59.
X209.6Y-70.57
X209.6Y-82.
X210.Y-59.
X216.68Y-59.2
X237.Y-59.2
X243.68Y-59.
X264.Y-59.
T7
X40.Y-50.
X45.45Y-50.
X50.9Y-50.
X65.Y-50.
X70.45Y-50.
X75.9Y-50.
X90.Y-50.
X95.45Y-50.
X100.9Y-50.
X115.Y-50.
X120.45Y-50.
X125.9Y-50.
X167.Y-50.
X172.45Y-50.
X177.9Y-50.
X179.4Y-100.2
X192.Y-50.
X197.45Y-50.
X202.9Y-50.
X217.Y-50.
X222.45Y-50.
X227.9Y-50.
X242.Y-50.
X247.45Y-50.
X252.9Y-50.
T8
X36.92Y-88.
X36.92Y-93.08
X42.Y-88.
X42.Y-93.08
X159.045Y-101.85
X164.125Y-101.85
X220.92Y-98.
X220.92Y-103.08
X226.Y-98.
X226.Y-103.08
X236.92Y-88.
X236.92Y-93.08
X242.Y-88.
X242.Y-93.08
T9
X176.86Y-97.66
X176.86Y-102.74
X181.94Y-97.66
X181.94Y-102.74
T10
X30.Y-47.
X30.Y-102.
X262.Y-47.
X262.Y-102.
T0
M30
