M48
;DRILL file {KiCad 4.0.7} date 04/30/21 08:00:17
;FORMAT={-:-/ absolute / metric / decimal}
FMAT,2
METRIC,TZ
T1C0.800
T2C0.900
T3C1.000
T4C1.100
T5C1.200
T6C1.400
T7C1.500
T8C1.520
T9C1.700
T10C3.048
%
G90
G05
M71
T1
X65.59Y-96.4
X65.59Y-103.9
X69.87Y-91.95
X70.4Y-85.1
X72.41Y-91.95
X72.94Y-85.1
X74.85Y-68.43
X74.85Y-76.05
X74.95Y-91.95
X75.48Y-85.1
X78.25Y-68.48
X78.25Y-76.1
X79.57Y-85.05
X79.67Y-92.
X79.71Y-96.59
X79.71Y-104.21
X81.75Y-68.48
X81.75Y-76.1
X82.11Y-85.05
X82.21Y-92.
X83.4Y-94.95
X83.4Y-99.95
X84.65Y-85.05
X84.75Y-92.
X87.4Y-69.25
X90.3Y-86.45
X90.3Y-88.99
X90.3Y-91.53
X97.35Y-91.8
X97.35Y-101.8
X100.1Y-69.25
X104.Y-97.
X104.Y-104.62
X105.4Y-89.8
X105.75Y-82.05
X105.75Y-87.05
X107.4Y-97.
X107.4Y-104.62
X110.Y-69.
X110.4Y-89.8
X110.6Y-99.6
X110.6Y-104.6
X116.8Y-98.7
X116.82Y-102.9
X119.34Y-98.7
X119.36Y-102.9
X120.Y-69.
X121.88Y-98.7
X121.9Y-102.9
X123.38Y-69.
X126.2Y-97.8
X126.38Y-101.2
X126.38Y-104.4
X130.6Y-91.
X131.Y-69.
X131.2Y-97.8
X133.25Y-61.38
X133.25Y-69.
X133.4Y-88.
X134.Y-101.2
X134.Y-104.4
X137.2Y-69.1
X137.32Y-83.4
X138.22Y-91.
X138.4Y-88.
X139.Y-98.52
X139.Y-101.06
X139.Y-103.6
X139.74Y-69.1
X139.86Y-83.4
X140.8Y-91.
X142.28Y-69.1
X142.4Y-83.4
X143.25Y-59.
X144.58Y-101.2
X144.58Y-104.4
X144.6Y-97.8
X145.4Y-61.38
X145.4Y-69.
X146.1Y-81.6
X146.13Y-84.75
X148.5Y-87.75
X150.8Y-91.
X152.2Y-101.2
X152.2Y-104.4
X152.22Y-97.8
X153.25Y-59.
X153.5Y-87.75
X153.72Y-81.6
X153.75Y-84.75
X155.Y-97.2
X155.Y-104.82
X155.4Y-61.4
X155.4Y-69.02
X158.12Y-68.8
X160.66Y-68.8
X163.2Y-68.8
X178.58Y-73.
X178.58Y-76.2
X180.52Y-86.
X183.06Y-86.
X185.56Y-61.45
X185.56Y-69.07
X185.6Y-86.
X186.2Y-73.
X186.2Y-76.2
X188.85Y-68.75
X188.85Y-76.37
X191.4Y-74.8
X192.8Y-91.8
X192.8Y-104.5
X193.4Y-70.4
X195.9Y-70.4
X196.2Y-99.2
X196.2Y-104.6
X196.38Y-101.8
X196.4Y-74.8
X203.7Y-95.8
X203.82Y-99.2
X203.82Y-104.6
X204.Y-101.8
X216.4Y-95.8
X226.8Y-69.7
X226.8Y-82.4
X232.2Y-68.6
X232.2Y-78.6
X232.2Y-81.3
X232.2Y-91.3
T2
X199.Y-79.
X199.Y-81.54
T3
X28.77Y-94.11
X28.77Y-96.65
X90.35Y-75.9
X90.35Y-80.9
X99.Y-82.95
X99.Y-87.95
X118.5Y-82.
X121.04Y-82.
X123.58Y-82.
X137.Y-47.5
X139.54Y-47.5
X142.08Y-47.5
X146.92Y-74.
X149.46Y-74.
X151.Y-47.5
X152.Y-74.
X153.54Y-47.5
X156.08Y-47.5
X164.Y-79.
X166.54Y-79.
X169.08Y-79.
X263.46Y-93.54
X263.46Y-96.08
T4
X28.6Y-71.2
X28.6Y-78.82
X28.6Y-81.6
X28.6Y-89.22
X52.97Y-100.46
X60.59Y-100.46
X68.975Y-69.58
X68.975Y-77.2
X69.23Y-96.54
X69.23Y-104.16
X75.98Y-96.56
X75.98Y-104.18
X158.6Y-91.2
X173.6Y-91.2
X199.2Y-68.6
X199.2Y-76.22
X248.Y-100.
X248.Y-103.
X255.62Y-100.
X255.62Y-103.
T5
X28.15Y-65.95
X39.85Y-72.75
X39.85Y-80.25
X40.01Y-55.3
X40.85Y-65.95
X54.625Y-72.75
X54.625Y-80.25
X54.825Y-87.5
X54.825Y-95.
X55.25Y-55.3
X64.925Y-78.
X64.925Y-90.7
X64.96Y-55.25
X80.2Y-55.25
X92.06Y-55.35
X107.3Y-55.35
X110.31Y-72.7
X115.11Y-55.55
X125.55Y-72.7
X130.35Y-55.55
X151.85Y-55.3
X167.09Y-55.3
X167.36Y-69.2
X176.75Y-55.25
X182.6Y-69.2
X188.4Y-91.8
X188.4Y-104.5
X191.99Y-55.25
X201.7Y-55.05
X216.94Y-55.05
X221.Y-69.4
X221.Y-84.64
X226.7Y-55.
X241.94Y-55.
X242.Y-71.3
X242.Y-78.8
X248.25Y-65.7
X253.Y-86.7
X253.Y-94.2
X257.4Y-71.3
X257.4Y-78.8
X260.95Y-65.7
T6
X27.7Y-60.65
X48.02Y-60.65
X55.05Y-60.7
X75.37Y-60.7
X82.25Y-60.65
X102.57Y-60.65
X109.15Y-60.7
X129.47Y-60.7
X161.98Y-60.5
X182.3Y-60.5
X190.23Y-60.45
X209.6Y-70.57
X209.6Y-82.
X210.55Y-60.45
X217.03Y-60.45
X237.35Y-60.45
X243.63Y-60.4
X263.95Y-60.4
T7
X40.Y-47.2
X45.45Y-47.2
X50.9Y-47.2
X65.Y-47.2
X70.45Y-47.2
X75.9Y-47.2
X90.Y-47.2
X95.45Y-47.2
X100.9Y-47.2
X115.Y-47.2
X120.45Y-47.2
X125.9Y-47.2
X163.42Y-100.53
X167.Y-47.2
X172.45Y-47.2
X177.9Y-47.2
X192.Y-47.2
X197.45Y-47.2
X202.9Y-47.2
X217.Y-47.2
X222.45Y-47.2
X227.9Y-47.2
X242.Y-47.2
X247.45Y-47.2
X252.9Y-47.2
T8
X36.92Y-88.
X36.92Y-93.08
X42.Y-88.
X42.Y-93.08
X178.Y-100.
X183.08Y-100.
X221.92Y-97.9
X221.92Y-102.98
X227.Y-97.9
X227.Y-102.98
X237.52Y-88.
X237.52Y-93.08
X242.6Y-88.
X242.6Y-93.08
T9
X160.88Y-97.99
X160.88Y-103.07
X165.96Y-97.99
X165.96Y-103.07
T10
X30.Y-47.
X30.Y-102.
X262.Y-47.
X262.Y-102.
T0
M30
