G04 #@! TF.FileFunction,Soldermask,Bot*
%FSLAX46Y46*%
G04 Gerber Fmt 4.6, Leading zero omitted, Abs format (unit mm)*
G04 Created by KiCad (PCBNEW 4.0.7) date 05/11/21 12:37:22*
%MOMM*%
%LPD*%
G01*
G04 APERTURE LIST*
%ADD10C,0.100000*%
%ADD11C,2.000000*%
%ADD12O,2.000000X2.000000*%
%ADD13C,2.800000*%
%ADD14O,2.800000X2.800000*%
%ADD15C,1.920000*%
%ADD16R,1.920000X1.920000*%
%ADD17R,2.600000X2.600000*%
%ADD18O,2.600000X2.600000*%
%ADD19R,2.800000X2.800000*%
%ADD20C,2.600000*%
%ADD21C,2.400000*%
%ADD22R,2.000000X2.000000*%
%ADD23R,2.400000X2.400000*%
%ADD24R,2.200000X2.200000*%
%ADD25C,2.200000*%
%ADD26C,1.840000*%
%ADD27C,3.200000*%
%ADD28O,3.200000X3.200000*%
%ADD29C,5.900000*%
%ADD30C,4.464000*%
%ADD31R,2.100000X2.100000*%
%ADD32O,2.100000X2.100000*%
%ADD33R,3.400000X3.400000*%
%ADD34C,3.400000*%
%ADD35R,4.700000X4.900000*%
%ADD36O,2.900000X4.900000*%
%ADD37O,4.700000X4.900000*%
%ADD38O,2.200000X2.200000*%
G04 APERTURE END LIST*
D10*
D11*
X69420000Y-103750000D03*
D12*
X69420000Y-96250000D03*
D13*
X151790000Y-54560000D03*
D14*
X167030000Y-54560000D03*
D15*
X183060000Y-86000000D03*
X180520000Y-86000000D03*
D16*
X185600000Y-86000000D03*
D15*
X72940000Y-85100000D03*
X75480000Y-85100000D03*
D16*
X70400000Y-85100000D03*
D11*
X100100000Y-69250000D03*
D12*
X87400000Y-69250000D03*
D17*
X201630000Y-68580000D03*
D18*
X201630000Y-76200000D03*
D19*
X54625000Y-80250000D03*
D13*
X54625000Y-72750000D03*
D20*
X160880000Y-103070000D03*
X160880000Y-97990000D03*
X165960000Y-97990000D03*
X165960000Y-103070000D03*
D21*
X163420000Y-100530000D03*
D22*
X195950000Y-69950000D03*
D11*
X198450000Y-69950000D03*
D15*
X119340000Y-98700000D03*
X121880000Y-98700000D03*
D16*
X116800000Y-98700000D03*
D11*
X185790000Y-73010000D03*
D12*
X178170000Y-73010000D03*
D11*
X83400000Y-99950000D03*
X83400000Y-94950000D03*
X198840000Y-74370000D03*
X193840000Y-74370000D03*
X110600000Y-104600000D03*
X110600000Y-99600000D03*
D23*
X90350000Y-80900000D03*
D21*
X90350000Y-75900000D03*
D23*
X99000000Y-87950000D03*
D21*
X99000000Y-82950000D03*
D11*
X105750000Y-87050000D03*
X105750000Y-82050000D03*
X158800000Y-58670000D03*
D12*
X148800000Y-58670000D03*
D11*
X232200000Y-91300000D03*
D12*
X232200000Y-81300000D03*
D11*
X110000000Y-69000000D03*
D12*
X120000000Y-69000000D03*
D19*
X257400000Y-78800000D03*
D13*
X257400000Y-71300000D03*
D11*
X232200000Y-68600000D03*
D12*
X232200000Y-78600000D03*
D17*
X60590000Y-100460000D03*
D18*
X52970000Y-100460000D03*
D24*
X201240000Y-79020000D03*
D25*
X201240000Y-81560000D03*
D22*
X149760000Y-69010000D03*
D12*
X149760000Y-61390000D03*
D22*
X155400000Y-61400000D03*
D12*
X155400000Y-69020000D03*
D17*
X68975000Y-77200000D03*
D18*
X68975000Y-69580000D03*
D11*
X144600000Y-97800000D03*
D12*
X152220000Y-97800000D03*
D11*
X155000000Y-97200000D03*
D12*
X155000000Y-104820000D03*
D11*
X78250000Y-76100000D03*
D12*
X78250000Y-68480000D03*
D11*
X74850000Y-76050000D03*
D12*
X74850000Y-68430000D03*
D11*
X75780000Y-96200000D03*
D12*
X75780000Y-103820000D03*
D11*
X134000000Y-101200000D03*
D12*
X126380000Y-101200000D03*
D11*
X134000000Y-104400000D03*
D12*
X126380000Y-104400000D03*
D11*
X152200000Y-101200000D03*
D12*
X144580000Y-101200000D03*
D11*
X152200000Y-104400000D03*
D12*
X144580000Y-104400000D03*
D26*
X139000000Y-103600000D03*
X139000000Y-101060000D03*
X139000000Y-98520000D03*
D13*
X188400000Y-91800000D03*
D14*
X188400000Y-104500000D03*
D11*
X191220000Y-68280000D03*
D12*
X191220000Y-75900000D03*
D13*
X64925000Y-90700000D03*
D14*
X64925000Y-78000000D03*
D11*
X107400000Y-97000000D03*
D12*
X107400000Y-104620000D03*
D11*
X104000000Y-97000000D03*
D12*
X104000000Y-104620000D03*
D11*
X192800000Y-91800000D03*
D12*
X192800000Y-104500000D03*
D11*
X81750000Y-76100000D03*
D12*
X81750000Y-68480000D03*
D11*
X146100000Y-81600000D03*
D12*
X153720000Y-81600000D03*
D26*
X142400000Y-83400000D03*
X139860000Y-83400000D03*
X137320000Y-83400000D03*
D11*
X153750000Y-84750000D03*
D12*
X146130000Y-84750000D03*
D11*
X185830000Y-76200000D03*
D12*
X178210000Y-76200000D03*
D11*
X131000000Y-69000000D03*
D12*
X123380000Y-69000000D03*
D13*
X182600000Y-69200000D03*
D14*
X167360000Y-69200000D03*
D11*
X133250000Y-69000000D03*
D12*
X133250000Y-61380000D03*
D11*
X185560000Y-69070000D03*
D12*
X185560000Y-61450000D03*
D13*
X28150000Y-65950000D03*
D14*
X40850000Y-65950000D03*
D13*
X260950000Y-65700000D03*
D14*
X248250000Y-65700000D03*
D11*
X228180000Y-81800000D03*
D12*
X228180000Y-69100000D03*
D27*
X27700000Y-60650000D03*
D28*
X48020000Y-60650000D03*
D27*
X263950000Y-60400000D03*
D28*
X243630000Y-60400000D03*
D27*
X55050000Y-60700000D03*
D28*
X75370000Y-60700000D03*
D27*
X237350000Y-60450000D03*
D28*
X217030000Y-60450000D03*
D27*
X82250000Y-60650000D03*
D28*
X102570000Y-60650000D03*
D27*
X210550000Y-60450000D03*
D28*
X190230000Y-60450000D03*
D27*
X109150000Y-60700000D03*
D28*
X129470000Y-60700000D03*
D27*
X182300000Y-60500000D03*
D28*
X161980000Y-60500000D03*
D29*
X262000000Y-102000000D03*
D30*
X262000000Y-47000000D03*
D29*
X30000000Y-102000000D03*
D30*
X30000000Y-47000000D03*
D19*
X39850000Y-80250000D03*
D13*
X39850000Y-72750000D03*
D19*
X54825000Y-95000000D03*
D13*
X54825000Y-87500000D03*
D19*
X242000000Y-78800000D03*
D13*
X242000000Y-71300000D03*
D19*
X253000000Y-94200000D03*
D13*
X253000000Y-86700000D03*
X125550000Y-72700000D03*
D14*
X110310000Y-72700000D03*
D20*
X158600000Y-91200000D03*
X173600000Y-91200000D03*
D27*
X212330000Y-82370000D03*
X212330000Y-70940000D03*
D13*
X223910000Y-69460000D03*
D14*
X223910000Y-84700000D03*
D15*
X119360000Y-102900000D03*
X116820000Y-102900000D03*
D16*
X121900000Y-102900000D03*
D15*
X82110000Y-85050000D03*
X79570000Y-85050000D03*
D16*
X84650000Y-85050000D03*
D15*
X82210000Y-92000000D03*
X79670000Y-92000000D03*
D16*
X84750000Y-92000000D03*
D15*
X72410000Y-91950000D03*
X69870000Y-91950000D03*
D16*
X74950000Y-91950000D03*
D15*
X90300000Y-88990000D03*
X90300000Y-91530000D03*
D16*
X90300000Y-86450000D03*
D15*
X139740000Y-69100000D03*
X142280000Y-69100000D03*
D16*
X137200000Y-69100000D03*
D15*
X160660000Y-68800000D03*
X158120000Y-68800000D03*
D16*
X163200000Y-68800000D03*
D17*
X28600000Y-71200000D03*
D18*
X28600000Y-78820000D03*
D17*
X248000000Y-100000000D03*
D18*
X255620000Y-100000000D03*
D17*
X28600000Y-81600000D03*
D18*
X28600000Y-89220000D03*
D17*
X248000000Y-103000000D03*
D18*
X255620000Y-103000000D03*
D11*
X97350000Y-101800000D03*
D12*
X97350000Y-91800000D03*
D11*
X216400000Y-95800000D03*
D12*
X203700000Y-95800000D03*
D11*
X140800000Y-91000000D03*
D12*
X150800000Y-91000000D03*
D11*
X133400000Y-88000000D03*
X138400000Y-88000000D03*
X130600000Y-91000000D03*
D12*
X138220000Y-91000000D03*
D31*
X263460000Y-93540000D03*
D32*
X263460000Y-96080000D03*
D31*
X28770000Y-94110000D03*
D32*
X28770000Y-96650000D03*
D33*
X227000000Y-97900000D03*
D34*
X221920000Y-97900000D03*
D33*
X227000000Y-102980000D03*
D34*
X221920000Y-102980000D03*
D33*
X242600000Y-88000000D03*
D34*
X237520000Y-88000000D03*
D33*
X242600000Y-93080000D03*
D34*
X237520000Y-93080000D03*
D33*
X42000000Y-88000000D03*
D34*
X36920000Y-88000000D03*
D33*
X42000000Y-93080000D03*
D34*
X36920000Y-93080000D03*
D33*
X178000000Y-100000000D03*
D34*
X183080000Y-100000000D03*
D11*
X105400000Y-89800000D03*
X110400000Y-89800000D03*
D22*
X196200000Y-104600000D03*
D12*
X203820000Y-104600000D03*
D22*
X204000000Y-101800000D03*
D12*
X196380000Y-101800000D03*
D11*
X196200000Y-99200000D03*
D12*
X203820000Y-99200000D03*
D13*
X130350000Y-55550000D03*
D14*
X115110000Y-55550000D03*
D13*
X107300000Y-55350000D03*
D14*
X92060000Y-55350000D03*
D13*
X80200000Y-55250000D03*
D14*
X64960000Y-55250000D03*
D13*
X55250000Y-55300000D03*
D14*
X40010000Y-55300000D03*
D13*
X226700000Y-55000000D03*
D14*
X241940000Y-55000000D03*
D13*
X201700000Y-55050000D03*
D14*
X216940000Y-55050000D03*
D13*
X176750000Y-55250000D03*
D14*
X191990000Y-55250000D03*
D35*
X242000000Y-47200000D03*
D36*
X247450000Y-47200000D03*
D37*
X252900000Y-47200000D03*
D35*
X217000000Y-47200000D03*
D36*
X222450000Y-47200000D03*
D37*
X227900000Y-47200000D03*
D35*
X192000000Y-47200000D03*
D36*
X197450000Y-47200000D03*
D37*
X202900000Y-47200000D03*
D35*
X115000000Y-47200000D03*
D36*
X120450000Y-47200000D03*
D37*
X125900000Y-47200000D03*
D35*
X90000000Y-47200000D03*
D36*
X95450000Y-47200000D03*
D37*
X100900000Y-47200000D03*
D35*
X65000000Y-47200000D03*
D36*
X70450000Y-47200000D03*
D37*
X75900000Y-47200000D03*
D35*
X40000000Y-47200000D03*
D36*
X45450000Y-47200000D03*
D37*
X50900000Y-47200000D03*
D35*
X167000000Y-47200000D03*
D36*
X172450000Y-47200000D03*
D37*
X177900000Y-47200000D03*
D11*
X153500000Y-87750000D03*
X148500000Y-87750000D03*
X131200000Y-97800000D03*
X126200000Y-97800000D03*
D24*
X118500000Y-82000000D03*
D38*
X121040000Y-82000000D03*
X123580000Y-82000000D03*
D24*
X152000000Y-74000000D03*
D38*
X149460000Y-74000000D03*
X146920000Y-74000000D03*
D24*
X164000000Y-79000000D03*
D38*
X166540000Y-79000000D03*
X169080000Y-79000000D03*
D24*
X137000000Y-47500000D03*
D38*
X139540000Y-47500000D03*
X142080000Y-47500000D03*
D24*
X151000000Y-47500000D03*
D38*
X153540000Y-47500000D03*
X156080000Y-47500000D03*
D11*
X137880000Y-54100000D03*
D12*
X137880000Y-61720000D03*
D22*
X141050000Y-61650000D03*
D12*
X146130000Y-54030000D03*
X143590000Y-61650000D03*
X143590000Y-54030000D03*
X146130000Y-61650000D03*
X141050000Y-54030000D03*
D22*
X188290000Y-68390000D03*
D12*
X188290000Y-76010000D03*
D22*
X135840000Y-73010000D03*
D12*
X128220000Y-73010000D03*
M02*
