M48
;DRILL file {KiCad 4.0.7} date 10/26/20 22:45:02
;FORMAT={-:-/ absolute / metric / decimal}
FMAT,2
METRIC,TZ
T1C0.800
T2C0.900
T3C1.000
T4C1.100
T5C1.200
T6C1.400
T7C1.500
T8C1.520
T9C1.700
T10C3.048
%
G90
G05
M71
T1
X69.87Y-91.95
X70.Y-97.5
X70.Y-105.
X70.4Y-85.1
X72.41Y-91.95
X72.94Y-85.1
X74.85Y-68.43
X74.85Y-76.05
X74.95Y-91.95
X75.48Y-85.1
X78.25Y-68.48
X78.25Y-76.1
X79.57Y-85.05
X79.67Y-92.
X79.7Y-95.2
X79.7Y-102.82
X81.75Y-68.48
X81.75Y-76.1
X82.11Y-85.05
X82.21Y-92.
X83.4Y-94.95
X83.4Y-99.95
X84.65Y-85.05
X84.75Y-92.
X87.4Y-69.25
X90.3Y-86.45
X90.3Y-88.99
X90.3Y-91.53
X97.35Y-91.8
X97.35Y-101.8
X100.1Y-69.25
X104.Y-97.
X104.Y-104.62
X105.4Y-89.8
X105.75Y-82.05
X105.75Y-87.05
X107.4Y-97.
X107.4Y-104.62
X110.Y-69.
X110.4Y-89.8
X110.6Y-99.6
X110.6Y-104.6
X116.8Y-98.7
X116.82Y-102.9
X119.34Y-98.7
X119.36Y-102.9
X120.Y-69.
X121.88Y-98.7
X121.9Y-102.9
X123.38Y-69.
X126.3Y-98.
X126.38Y-101.2
X126.38Y-104.4
X130.6Y-91.
X131.Y-69.
X133.25Y-61.38
X133.25Y-69.
X133.8Y-98.
X134.Y-101.2
X134.Y-104.4
X135.2Y-87.8
X137.2Y-69.1
X137.32Y-83.4
X138.22Y-91.
X139.Y-98.52
X139.Y-101.06
X139.Y-103.6
X139.74Y-69.1
X139.86Y-83.4
X140.2Y-87.8
X140.6Y-91.
X142.28Y-69.1
X142.4Y-83.4
X143.Y-88.2
X144.58Y-101.2
X144.58Y-104.4
X144.6Y-97.8
X145.4Y-61.38
X145.4Y-69.
X146.1Y-81.6
X146.13Y-84.75
X150.6Y-91.
X152.2Y-101.2
X152.2Y-104.4
X152.22Y-97.8
X153.Y-88.2
X153.72Y-81.6
X153.75Y-84.75
X155.Y-97.2
X155.Y-104.82
X155.4Y-61.4
X155.4Y-69.02
X158.12Y-68.8
X160.66Y-68.8
X163.2Y-68.8
X178.58Y-73.
X178.58Y-76.2
X178.92Y-86.
X181.46Y-86.
X184.Y-86.
X185.6Y-61.78
X185.6Y-69.4
X186.2Y-73.
X186.2Y-76.2
X188.85Y-68.75
X188.85Y-76.37
X191.4Y-74.8
X192.6Y-92.
X192.6Y-104.7
X193.4Y-70.4
X195.78Y-101.4
X195.8Y-104.
X195.9Y-70.4
X196.Y-98.8
X196.4Y-74.8
X203.4Y-101.4
X203.42Y-104.
X203.62Y-98.8
X203.7Y-95.8
X216.4Y-95.8
X226.8Y-69.7
X226.8Y-82.4
X232.2Y-68.6
X232.2Y-78.6
X232.2Y-81.3
X232.2Y-91.3
T2
X199.Y-79.
X199.Y-81.54
T3
X28.77Y-94.11
X28.77Y-96.65
X90.35Y-75.9
X90.35Y-80.9
X99.Y-82.95
X99.Y-87.95
X118.4Y-82.
X120.94Y-82.
X123.48Y-82.
X137.Y-47.5
X139.54Y-47.5
X142.08Y-47.5
X146.92Y-74.
X149.46Y-74.
X151.Y-47.5
X152.Y-74.
X153.54Y-47.5
X156.08Y-47.5
X164.2Y-79.
X166.74Y-79.
X169.28Y-79.
X263.46Y-93.54
X263.46Y-96.08
T4
X28.6Y-71.2
X28.6Y-78.82
X28.6Y-81.6
X28.6Y-89.22
X64.73Y-95.9
X64.73Y-103.52
X68.975Y-69.58
X68.975Y-77.2
X158.6Y-91.2
X173.6Y-91.2
X199.2Y-68.6
X199.2Y-76.22
X248.Y-100.
X248.Y-103.
X255.62Y-100.
X255.62Y-103.
T5
X28.25Y-65.5
X39.85Y-72.75
X39.85Y-80.25
X40.95Y-65.5
X54.625Y-72.75
X54.625Y-80.25
X54.825Y-87.5
X54.825Y-95.
X64.925Y-78.
X64.925Y-90.7
X110.31Y-72.7
X125.55Y-72.7
X167.36Y-69.2
X182.6Y-69.2
X188.4Y-91.6
X188.4Y-104.3
X221.Y-69.4
X221.Y-84.64
X242.Y-71.3
X242.Y-78.8
X248.05Y-65.
X253.Y-86.7
X253.Y-94.2
X257.4Y-71.3
X257.4Y-78.8
X260.75Y-65.
T6
X27.8Y-59.
X48.12Y-59.
X55.Y-59.
X75.32Y-59.
X82.Y-59.
X102.32Y-59.
X109.Y-59.
X129.32Y-59.
X161.88Y-59.2
X182.2Y-59.2
X190.08Y-59.6
X209.6Y-70.57
X209.6Y-82.
X210.4Y-59.6
X216.88Y-59.4
X237.2Y-59.4
X243.68Y-59.
X264.Y-59.
T7
X40.Y-50.
X45.45Y-50.
X50.9Y-50.
X65.Y-50.
X70.45Y-50.
X75.9Y-50.
X90.Y-50.
X95.45Y-50.
X100.9Y-50.
X115.Y-50.
X120.45Y-50.
X125.9Y-50.
X163.52Y-100.56
X167.Y-50.
X172.45Y-50.
X177.9Y-50.
X192.Y-50.
X197.45Y-50.
X202.9Y-50.
X217.Y-50.
X222.45Y-50.
X227.9Y-50.
X242.Y-50.
X247.45Y-50.
X252.9Y-50.
T8
X36.92Y-88.
X36.92Y-93.08
X42.Y-88.
X42.Y-93.08
X178.08Y-100.05
X183.16Y-100.05
X221.92Y-97.9
X221.92Y-102.98
X227.Y-97.9
X227.Y-102.98
X237.52Y-88.
X237.52Y-93.08
X242.6Y-88.
X242.6Y-93.08
T9
X160.98Y-98.02
X160.98Y-103.1
X166.06Y-98.02
X166.06Y-103.1
T10
X30.Y-47.
X30.Y-102.
X262.Y-47.
X262.Y-102.
T0
M30
