G04 #@! TF.FileFunction,Copper,L1,Top,Signal*
%FSLAX46Y46*%
G04 Gerber Fmt 4.6, Leading zero omitted, Abs format (unit mm)*
G04 Created by KiCad (PCBNEW 4.0.7) date 10/17/20 23:21:23*
%MOMM*%
%LPD*%
G01*
G04 APERTURE LIST*
%ADD10C,0.100000*%
%ADD11C,1.520000*%
%ADD12R,1.520000X1.520000*%
%ADD13C,1.600000*%
%ADD14O,1.600000X1.600000*%
%ADD15R,2.200000X2.200000*%
%ADD16O,2.200000X2.200000*%
%ADD17R,2.400000X2.400000*%
%ADD18C,2.400000*%
%ADD19C,2.200000*%
%ADD20C,2.000000*%
%ADD21R,1.600000X1.600000*%
%ADD22R,2.000000X2.000000*%
%ADD23R,1.800000X1.800000*%
%ADD24C,1.800000*%
%ADD25C,1.440000*%
%ADD26O,2.400000X2.400000*%
%ADD27C,2.800000*%
%ADD28O,2.800000X2.800000*%
%ADD29C,5.500000*%
%ADD30C,4.064000*%
%ADD31R,3.000000X3.000000*%
%ADD32C,3.000000*%
%ADD33R,1.700000X1.700000*%
%ADD34O,1.700000X1.700000*%
%ADD35O,1.800000X1.800000*%
%ADD36R,4.300000X5.000000*%
%ADD37R,3.000000X5.000000*%
%ADD38R,4.300000X4.500000*%
%ADD39O,2.500000X4.500000*%
%ADD40O,4.300000X4.500000*%
%ADD41C,1.500000*%
%ADD42C,4.000000*%
%ADD43C,1.000000*%
%ADD44C,2.000000*%
%ADD45C,0.500000*%
G04 APERTURE END LIST*
D10*
D11*
X183760000Y-85450000D03*
X181220000Y-85450000D03*
D12*
X186300000Y-85450000D03*
D13*
X105000000Y-80800000D03*
D14*
X105000000Y-68100000D03*
D15*
X199250000Y-68500000D03*
D16*
X199250000Y-76120000D03*
D17*
X54625000Y-80250000D03*
D18*
X54625000Y-72750000D03*
D19*
X176860000Y-102740000D03*
X176860000Y-97660000D03*
X181940000Y-97660000D03*
X181940000Y-102740000D03*
D20*
X179400000Y-100200000D03*
D21*
X192800000Y-69050000D03*
D13*
X195300000Y-69050000D03*
D11*
X117340000Y-98800000D03*
X119880000Y-98800000D03*
D12*
X114800000Y-98800000D03*
D11*
X87340000Y-85250000D03*
X89880000Y-85250000D03*
D12*
X84800000Y-85250000D03*
D13*
X178800000Y-72550000D03*
D14*
X186420000Y-72550000D03*
D13*
X133800000Y-98000000D03*
D14*
X126300000Y-98000000D03*
D13*
X92730000Y-90190000D03*
D14*
X100230000Y-90190000D03*
D13*
X69200000Y-104200000D03*
X69200000Y-99200000D03*
X196500000Y-73700000D03*
X191500000Y-73700000D03*
X74000000Y-104200000D03*
X74000000Y-99200000D03*
D22*
X77000000Y-79125000D03*
D20*
X77000000Y-84125000D03*
D22*
X72800000Y-94400000D03*
D20*
X72800000Y-89400000D03*
D13*
X103000000Y-93600000D03*
X108000000Y-93600000D03*
X154600000Y-92800000D03*
D14*
X144600000Y-92800000D03*
D13*
X232000000Y-91000000D03*
D14*
X232000000Y-81000000D03*
D13*
X84400000Y-68800000D03*
D14*
X84400000Y-78800000D03*
D17*
X257400000Y-78800000D03*
D18*
X257400000Y-71300000D03*
D13*
X232200000Y-68600000D03*
D14*
X232200000Y-78600000D03*
D15*
X52800000Y-103000000D03*
D16*
X45180000Y-103000000D03*
D23*
X199000000Y-79000000D03*
D24*
X199000000Y-81540000D03*
D21*
X144200000Y-68800000D03*
D14*
X144200000Y-61180000D03*
D21*
X155250000Y-61250000D03*
D14*
X155250000Y-68870000D03*
D15*
X68975000Y-77200000D03*
D16*
X68975000Y-69580000D03*
D13*
X144600000Y-97800000D03*
D14*
X152220000Y-97800000D03*
D13*
X164200000Y-95400000D03*
D14*
X171820000Y-95400000D03*
D13*
X97600000Y-76000000D03*
D14*
X97600000Y-68380000D03*
D13*
X89200000Y-76000000D03*
D14*
X89200000Y-68380000D03*
D13*
X100360000Y-93520000D03*
D14*
X92740000Y-93520000D03*
D13*
X134000000Y-101200000D03*
D14*
X126380000Y-101200000D03*
D13*
X134000000Y-104400000D03*
D14*
X126380000Y-104400000D03*
D13*
X152200000Y-101200000D03*
D14*
X144580000Y-101200000D03*
D13*
X152200000Y-104400000D03*
D14*
X144580000Y-104400000D03*
D25*
X139000000Y-103600000D03*
X139000000Y-101060000D03*
X139000000Y-98520000D03*
D18*
X188500000Y-90200000D03*
D26*
X188500000Y-102900000D03*
D13*
X189000000Y-68950000D03*
D14*
X189000000Y-76570000D03*
D18*
X64925000Y-90700000D03*
D26*
X64925000Y-78000000D03*
D13*
X82800000Y-96600000D03*
D14*
X82800000Y-104220000D03*
D13*
X79000000Y-96800000D03*
D14*
X79000000Y-104420000D03*
D13*
X192750000Y-83750000D03*
D14*
X192750000Y-96450000D03*
D13*
X101000000Y-76000000D03*
D14*
X101000000Y-68380000D03*
D13*
X146100000Y-81600000D03*
D14*
X153720000Y-81600000D03*
D25*
X141850000Y-83500000D03*
X139310000Y-83500000D03*
X136770000Y-83500000D03*
D13*
X153750000Y-84750000D03*
D14*
X146130000Y-84750000D03*
D13*
X186400000Y-75500000D03*
D14*
X178780000Y-75500000D03*
D13*
X128250000Y-69000000D03*
D14*
X120630000Y-69000000D03*
D18*
X182100000Y-69250000D03*
D26*
X166860000Y-69250000D03*
D13*
X133250000Y-69000000D03*
D14*
X133250000Y-61380000D03*
D13*
X185800000Y-69250000D03*
D14*
X185800000Y-61630000D03*
D18*
X28250000Y-65500000D03*
D26*
X40950000Y-65500000D03*
D18*
X260750000Y-65000000D03*
D26*
X248050000Y-65000000D03*
D13*
X226800000Y-82400000D03*
D14*
X226800000Y-69700000D03*
D27*
X28000000Y-58800000D03*
D28*
X48320000Y-58800000D03*
D27*
X264000000Y-59000000D03*
D28*
X243680000Y-59000000D03*
D27*
X55000000Y-59000000D03*
D28*
X75320000Y-59000000D03*
D27*
X237000000Y-59200000D03*
D28*
X216680000Y-59200000D03*
D27*
X82000000Y-59000000D03*
D28*
X102320000Y-59000000D03*
D27*
X210000000Y-59000000D03*
D28*
X189680000Y-59000000D03*
D27*
X109000000Y-59000000D03*
D28*
X129320000Y-59000000D03*
D27*
X182600000Y-58800000D03*
D28*
X162280000Y-58800000D03*
D29*
X262000000Y-102000000D03*
D30*
X262000000Y-47000000D03*
D29*
X30000000Y-102000000D03*
D30*
X30000000Y-47000000D03*
D31*
X164125000Y-101850000D03*
D32*
X159045000Y-101850000D03*
D17*
X39850000Y-80250000D03*
D18*
X39850000Y-72750000D03*
D17*
X54825000Y-95000000D03*
D18*
X54825000Y-87500000D03*
D17*
X242000000Y-78800000D03*
D18*
X242000000Y-71300000D03*
D17*
X253000000Y-94200000D03*
D18*
X253000000Y-86700000D03*
X130700000Y-72900000D03*
D26*
X115460000Y-72900000D03*
D19*
X158600000Y-91200000D03*
X173600000Y-91200000D03*
D27*
X209600000Y-82000000D03*
X209600000Y-70570000D03*
D18*
X221000000Y-69400000D03*
D26*
X221000000Y-84640000D03*
D11*
X117460000Y-102800000D03*
X114920000Y-102800000D03*
D12*
X120000000Y-102800000D03*
D11*
X97110000Y-85000000D03*
X94570000Y-85000000D03*
D12*
X99650000Y-85000000D03*
D11*
X97000000Y-99060000D03*
X97000000Y-96520000D03*
D12*
X97000000Y-101600000D03*
D11*
X89400000Y-99060000D03*
X89400000Y-96520000D03*
D12*
X89400000Y-101600000D03*
D11*
X104660000Y-98800000D03*
X102120000Y-98800000D03*
D12*
X107200000Y-98800000D03*
D11*
X138840000Y-69000000D03*
X141380000Y-69000000D03*
D12*
X136300000Y-69000000D03*
D11*
X160810000Y-68800000D03*
X158270000Y-68800000D03*
D12*
X163350000Y-68800000D03*
D15*
X28600000Y-71200000D03*
D16*
X28600000Y-78820000D03*
D15*
X248000000Y-100000000D03*
D16*
X255620000Y-100000000D03*
D15*
X28600000Y-81600000D03*
D16*
X28600000Y-89220000D03*
D15*
X248000000Y-103000000D03*
D16*
X255620000Y-103000000D03*
D13*
X65000000Y-104200000D03*
D14*
X65000000Y-94200000D03*
D13*
X194000000Y-103000000D03*
D14*
X206700000Y-103000000D03*
D13*
X121575000Y-92825000D03*
D14*
X131575000Y-92825000D03*
D13*
X134910000Y-92960000D03*
X139910000Y-92960000D03*
X110800000Y-92800000D03*
D14*
X118420000Y-92800000D03*
D33*
X263460000Y-93540000D03*
D34*
X263460000Y-96080000D03*
D33*
X28770000Y-94110000D03*
D34*
X28770000Y-96650000D03*
D23*
X119550000Y-80400000D03*
D35*
X122090000Y-80400000D03*
X124630000Y-80400000D03*
D23*
X152000000Y-73600000D03*
D35*
X149460000Y-73600000D03*
X146920000Y-73600000D03*
D23*
X163200000Y-77800000D03*
D35*
X165740000Y-77800000D03*
X168280000Y-77800000D03*
D23*
X137000000Y-47500000D03*
D35*
X139540000Y-47500000D03*
X142080000Y-47500000D03*
D23*
X151000000Y-47500000D03*
D35*
X153540000Y-47500000D03*
X156080000Y-47500000D03*
D36*
X50968000Y-45428000D03*
D37*
X45588000Y-45428000D03*
D38*
X40000000Y-50000000D03*
D39*
X45450000Y-50000000D03*
D40*
X50900000Y-50000000D03*
D36*
X40000000Y-45428000D03*
X252968000Y-45428000D03*
D37*
X247588000Y-45428000D03*
D38*
X242000000Y-50000000D03*
D39*
X247450000Y-50000000D03*
D40*
X252900000Y-50000000D03*
D36*
X242000000Y-45428000D03*
X75968000Y-45428000D03*
D37*
X70588000Y-45428000D03*
D38*
X65000000Y-50000000D03*
D39*
X70450000Y-50000000D03*
D40*
X75900000Y-50000000D03*
D36*
X65000000Y-45428000D03*
X227968000Y-45428000D03*
D37*
X222588000Y-45428000D03*
D38*
X217000000Y-50000000D03*
D39*
X222450000Y-50000000D03*
D40*
X227900000Y-50000000D03*
D36*
X217000000Y-45428000D03*
X100968000Y-45428000D03*
D37*
X95588000Y-45428000D03*
D38*
X90000000Y-50000000D03*
D39*
X95450000Y-50000000D03*
D40*
X100900000Y-50000000D03*
D36*
X90000000Y-45428000D03*
X202968000Y-45428000D03*
D37*
X197588000Y-45428000D03*
D38*
X192000000Y-50000000D03*
D39*
X197450000Y-50000000D03*
D40*
X202900000Y-50000000D03*
D36*
X192000000Y-45428000D03*
X125968000Y-45428000D03*
D37*
X120588000Y-45428000D03*
D38*
X115000000Y-50000000D03*
D39*
X120450000Y-50000000D03*
D40*
X125900000Y-50000000D03*
D36*
X115000000Y-45428000D03*
X177968000Y-45428000D03*
D37*
X172588000Y-45428000D03*
D38*
X167000000Y-50000000D03*
D39*
X172450000Y-50000000D03*
D40*
X177900000Y-50000000D03*
D36*
X167000000Y-45428000D03*
D31*
X226000000Y-98000000D03*
D32*
X220920000Y-98000000D03*
D31*
X226000000Y-103080000D03*
D32*
X220920000Y-103080000D03*
D31*
X242000000Y-88000000D03*
D32*
X236920000Y-88000000D03*
D31*
X242000000Y-93080000D03*
D32*
X236920000Y-93080000D03*
D31*
X42000000Y-88000000D03*
D32*
X36920000Y-88000000D03*
D31*
X42000000Y-93080000D03*
D32*
X36920000Y-93080000D03*
D41*
X155900000Y-87400000D03*
X82800000Y-89200000D03*
D42*
X36920000Y-88000000D02*
X36920000Y-93080000D01*
D43*
X28600000Y-89220000D02*
X31580000Y-89220000D01*
X32800000Y-88000000D02*
X36920000Y-88000000D01*
X31580000Y-89220000D02*
X32800000Y-88000000D01*
D42*
X54825000Y-87500000D02*
X55500000Y-87500000D01*
X55500000Y-87500000D02*
X59000000Y-84000000D01*
X59000000Y-84000000D02*
X59000000Y-75000000D01*
X59000000Y-75000000D02*
X56750000Y-72750000D01*
X56750000Y-72750000D02*
X54625000Y-72750000D01*
X36920000Y-88000000D02*
X35000000Y-88000000D01*
X37600000Y-75000000D02*
X39850000Y-72750000D01*
X34000000Y-75000000D02*
X37600000Y-75000000D01*
X33000000Y-76000000D02*
X34000000Y-75000000D01*
X33000000Y-86000000D02*
X33000000Y-76000000D01*
X35000000Y-88000000D02*
X33000000Y-86000000D01*
D43*
X117340000Y-98800000D02*
X117340000Y-100340000D01*
X123800000Y-98000000D02*
X126300000Y-98000000D01*
X120800000Y-101000000D02*
X123800000Y-98000000D01*
X118000000Y-101000000D02*
X120800000Y-101000000D01*
X117340000Y-100340000D02*
X118000000Y-101000000D01*
D44*
X247450000Y-50000000D02*
X247450000Y-45566000D01*
X247450000Y-45566000D02*
X247588000Y-45428000D01*
X222450000Y-50000000D02*
X222450000Y-45566000D01*
X222450000Y-45566000D02*
X222588000Y-45428000D01*
X197450000Y-50000000D02*
X197450000Y-45566000D01*
X197450000Y-45566000D02*
X197588000Y-45428000D01*
X172450000Y-50000000D02*
X172450000Y-45566000D01*
X172450000Y-45566000D02*
X172588000Y-45428000D01*
D43*
X142080000Y-47500000D02*
X142080000Y-59060000D01*
X142080000Y-59060000D02*
X144200000Y-61180000D01*
X144280000Y-61100000D02*
X144200000Y-61180000D01*
D45*
X144200000Y-61180000D02*
X143830000Y-61180000D01*
D43*
X156080000Y-47500000D02*
X156080000Y-60420000D01*
X156080000Y-60420000D02*
X155250000Y-61250000D01*
D44*
X120588000Y-45428000D02*
X120588000Y-49862000D01*
X120588000Y-49862000D02*
X120450000Y-50000000D01*
X95450000Y-50000000D02*
X95450000Y-45566000D01*
X95450000Y-45566000D02*
X95588000Y-45428000D01*
X70450000Y-50000000D02*
X70450000Y-45566000D01*
X70450000Y-45566000D02*
X70588000Y-45428000D01*
X45450000Y-50000000D02*
X45450000Y-45566000D01*
X45450000Y-45566000D02*
X45588000Y-45428000D01*
X50900000Y-50000000D02*
X50900000Y-57420000D01*
X50900000Y-57420000D02*
X48320000Y-58800000D01*
X50900000Y-50000000D02*
X50900000Y-45496000D01*
X50900000Y-45496000D02*
X50968000Y-45428000D01*
X252900000Y-50000000D02*
X254000000Y-50000000D01*
X254000000Y-50000000D02*
X264000000Y-59000000D01*
X252900000Y-50000000D02*
X252900000Y-45496000D01*
X252900000Y-45496000D02*
X252968000Y-45428000D01*
X75900000Y-50000000D02*
X75900000Y-58420000D01*
X75900000Y-58420000D02*
X75320000Y-59000000D01*
X75900000Y-50000000D02*
X75900000Y-45496000D01*
X75900000Y-45496000D02*
X75968000Y-45428000D01*
X227900000Y-50000000D02*
X227900000Y-45496000D01*
X227900000Y-45496000D02*
X227968000Y-45428000D01*
X227900000Y-50000000D02*
X227900000Y-50900000D01*
X227900000Y-50900000D02*
X237000000Y-59200000D01*
X100900000Y-50000000D02*
X100900000Y-57580000D01*
X100900000Y-57580000D02*
X102320000Y-59000000D01*
X100900000Y-50000000D02*
X100900000Y-45496000D01*
X100900000Y-45496000D02*
X100968000Y-45428000D01*
X202900000Y-50000000D02*
X202900000Y-51900000D01*
X202900000Y-51900000D02*
X210000000Y-59000000D01*
X202900000Y-50000000D02*
X202900000Y-45496000D01*
X202900000Y-45496000D02*
X202968000Y-45428000D01*
D43*
X129320000Y-59000000D02*
X130870000Y-59000000D01*
X130870000Y-59000000D02*
X133250000Y-61380000D01*
D44*
X125900000Y-50000000D02*
X125900000Y-55580000D01*
X125900000Y-55580000D02*
X129320000Y-59000000D01*
X125900000Y-50000000D02*
X125900000Y-45496000D01*
X125900000Y-45496000D02*
X125968000Y-45428000D01*
D43*
X185800000Y-61630000D02*
X185680000Y-61630000D01*
X185680000Y-61630000D02*
X182600000Y-58800000D01*
D45*
X182600000Y-58800000D02*
X182720000Y-58800000D01*
D44*
X177900000Y-50000000D02*
X177900000Y-52900000D01*
X177900000Y-52900000D02*
X182600000Y-58800000D01*
X177900000Y-50000000D02*
X177900000Y-45496000D01*
X177900000Y-45496000D02*
X177968000Y-45428000D01*
D43*
X178800000Y-72550000D02*
X178800000Y-67300000D01*
X178800000Y-67300000D02*
X176500000Y-65000000D01*
X163350000Y-68800000D02*
X163350000Y-67750000D01*
X163350000Y-67750000D02*
X166100000Y-65000000D01*
X136300000Y-69000000D02*
X136300000Y-67700000D01*
X136300000Y-67700000D02*
X139000000Y-65000000D01*
X155900000Y-87500000D02*
X155900000Y-87400000D01*
X154900000Y-88500000D02*
X155900000Y-87500000D01*
X126600000Y-88500000D02*
X154900000Y-88500000D01*
X125700000Y-87600000D02*
X126600000Y-88500000D01*
X91600000Y-87600000D02*
X125700000Y-87600000D01*
X90000000Y-89200000D02*
X91600000Y-87600000D01*
X82800000Y-89200000D02*
X90000000Y-89200000D01*
D44*
X68975000Y-69580000D02*
X68975000Y-65555000D01*
X68975000Y-65555000D02*
X68420000Y-65000000D01*
X31540000Y-68790000D02*
X28250000Y-65500000D01*
X54930000Y-68790000D02*
X31540000Y-68790000D01*
X58720000Y-65000000D02*
X54930000Y-68790000D01*
X61000000Y-65000000D02*
X58720000Y-65000000D01*
D42*
X216680000Y-59200000D02*
X217600000Y-61400000D01*
X217600000Y-61400000D02*
X219420000Y-65000000D01*
D44*
X226800000Y-69700000D02*
X226800000Y-68250000D01*
X226500000Y-67950000D02*
X226500000Y-65000000D01*
X226800000Y-68250000D02*
X226500000Y-67950000D01*
X221000000Y-69400000D02*
X221000000Y-66970000D01*
X221000000Y-66970000D02*
X222970000Y-65000000D01*
D43*
X120630000Y-69000000D02*
X120630000Y-67880000D01*
X120630000Y-67880000D02*
X117750000Y-65000000D01*
D44*
X199250000Y-68500000D02*
X199250000Y-67430000D01*
X199250000Y-67430000D02*
X196070000Y-65000000D01*
X196070000Y-65000000D02*
X196070000Y-65480000D01*
D42*
X209600000Y-70570000D02*
X209600000Y-67720000D01*
X209600000Y-67720000D02*
X206880000Y-65000000D01*
X243680000Y-59000000D02*
X243680000Y-60630000D01*
X243680000Y-60630000D02*
X248050000Y-65000000D01*
X189680000Y-59000000D02*
X189680000Y-59090000D01*
X189680000Y-59090000D02*
X196070000Y-65480000D01*
X196070000Y-65480000D02*
X195590000Y-65000000D01*
X162280000Y-58800000D02*
X162930000Y-58800000D01*
X162930000Y-58800000D02*
X170330000Y-65000000D01*
X109000000Y-59000000D02*
X109000000Y-60550000D01*
X109000000Y-60550000D02*
X113450000Y-65000000D01*
X82000000Y-59000000D02*
X82000000Y-59150000D01*
X82000000Y-59150000D02*
X87850000Y-65000000D01*
X248050000Y-65000000D02*
X226500000Y-65000000D01*
X226500000Y-65000000D02*
X222970000Y-65000000D01*
X222970000Y-65000000D02*
X219420000Y-65000000D01*
X219420000Y-65000000D02*
X206880000Y-65000000D01*
X206880000Y-65000000D02*
X195590000Y-65000000D01*
X195590000Y-65000000D02*
X186600000Y-65000000D01*
X186600000Y-65000000D02*
X176500000Y-65000000D01*
X176500000Y-65000000D02*
X170330000Y-65000000D01*
X170330000Y-65000000D02*
X166100000Y-65000000D01*
X166100000Y-65000000D02*
X144470000Y-65000000D01*
X144470000Y-65000000D02*
X139000000Y-65000000D01*
X139000000Y-65000000D02*
X140050000Y-65000000D01*
X140050000Y-65000000D02*
X117750000Y-65000000D01*
X117750000Y-65000000D02*
X113450000Y-65000000D01*
X113450000Y-65000000D02*
X87850000Y-65000000D01*
X87850000Y-65000000D02*
X68420000Y-65000000D01*
X68420000Y-65000000D02*
X63510000Y-65000000D01*
X63510000Y-65000000D02*
X61000000Y-65000000D01*
X61000000Y-65000000D02*
X55000000Y-59000000D01*
D44*
X28000000Y-58800000D02*
X29000000Y-64750000D01*
X29000000Y-64750000D02*
X28250000Y-65500000D01*
X65000000Y-50000000D02*
X65000000Y-45428000D01*
X115000000Y-50000000D02*
X115000000Y-45428000D01*
X90000000Y-50000000D02*
X90000000Y-45428000D01*
X40000000Y-50000000D02*
X40000000Y-45428000D01*
X217000000Y-50000000D02*
X217000000Y-45428000D01*
X242000000Y-50000000D02*
X242000000Y-45428000D01*
X242000000Y-50000000D02*
X242000000Y-51250000D01*
X242000000Y-51250000D02*
X247500000Y-55500000D01*
X252750000Y-58500000D02*
X260750000Y-65000000D01*
X247500000Y-55500000D02*
X252750000Y-58500000D01*
X192000000Y-50000000D02*
X192000000Y-45428000D01*
X167000000Y-50000000D02*
X167000000Y-45428000D01*
D45*
G36*
X66725000Y-69031227D02*
X66625000Y-69533961D01*
X66625000Y-69626039D01*
X66803883Y-70525345D01*
X67313299Y-71287740D01*
X68075694Y-71797156D01*
X68975000Y-71976039D01*
X69874306Y-71797156D01*
X70636701Y-71287740D01*
X71146117Y-70525345D01*
X71325000Y-69626039D01*
X71325000Y-69533961D01*
X71225000Y-69031227D01*
X71225000Y-68250000D01*
X82408673Y-68250000D01*
X82350357Y-68390441D01*
X82349645Y-69205981D01*
X82661081Y-69959715D01*
X83237252Y-70536892D01*
X83990441Y-70849643D01*
X84805981Y-70850355D01*
X85559715Y-70538919D01*
X86136892Y-69962748D01*
X86449643Y-69209559D01*
X86450355Y-68394019D01*
X86390848Y-68250000D01*
X87167870Y-68250000D01*
X87150000Y-68339838D01*
X87150000Y-68420162D01*
X87306047Y-69204663D01*
X87750431Y-69869731D01*
X88415499Y-70314115D01*
X89200000Y-70470162D01*
X89984501Y-70314115D01*
X90649569Y-69869731D01*
X91093953Y-69204663D01*
X91250000Y-68420162D01*
X91250000Y-68339838D01*
X91232130Y-68250000D01*
X95567870Y-68250000D01*
X95550000Y-68339838D01*
X95550000Y-68420162D01*
X95706047Y-69204663D01*
X96150431Y-69869731D01*
X96815499Y-70314115D01*
X97600000Y-70470162D01*
X98384501Y-70314115D01*
X99049569Y-69869731D01*
X99300000Y-69494934D01*
X99550431Y-69869731D01*
X100215499Y-70314115D01*
X101000000Y-70470162D01*
X101784501Y-70314115D01*
X102449569Y-69869731D01*
X102893953Y-69204663D01*
X103027848Y-68531529D01*
X103106047Y-68924663D01*
X103550431Y-69589731D01*
X104215499Y-70034115D01*
X105000000Y-70190162D01*
X105784501Y-70034115D01*
X106449569Y-69589731D01*
X106893953Y-68924663D01*
X107028152Y-68250000D01*
X118525126Y-68250000D01*
X118661830Y-68386704D01*
X118539838Y-69000000D01*
X118695885Y-69784501D01*
X119140269Y-70449569D01*
X119805337Y-70893953D01*
X120589838Y-71050000D01*
X120670162Y-71050000D01*
X121454663Y-70893953D01*
X122119731Y-70449569D01*
X122564115Y-69784501D01*
X122720162Y-69000000D01*
X122570978Y-68250000D01*
X126341720Y-68250000D01*
X126200357Y-68590441D01*
X126199645Y-69405981D01*
X126511081Y-70159715D01*
X127087252Y-70736892D01*
X127840441Y-71049643D01*
X128655981Y-71050355D01*
X129409715Y-70738919D01*
X129986892Y-70162748D01*
X130299643Y-69409559D01*
X130300355Y-68594019D01*
X130158209Y-68250000D01*
X131341720Y-68250000D01*
X131200357Y-68590441D01*
X131199645Y-69405981D01*
X131511081Y-70159715D01*
X132087252Y-70736892D01*
X132840441Y-71049643D01*
X133655981Y-71050355D01*
X134409715Y-70738919D01*
X134577035Y-70571890D01*
X134626437Y-70648663D01*
X135044153Y-70934076D01*
X135540000Y-71034488D01*
X137060000Y-71034488D01*
X137523222Y-70947327D01*
X137823307Y-70754227D01*
X138438432Y-71009650D01*
X139238060Y-71010348D01*
X139977086Y-70704988D01*
X140109736Y-70572569D01*
X140239940Y-70703001D01*
X140978432Y-71009650D01*
X141778060Y-71010348D01*
X142517086Y-70704988D01*
X142633280Y-70588997D01*
X142904153Y-70774076D01*
X143400000Y-70874488D01*
X145000000Y-70874488D01*
X145463222Y-70787327D01*
X145888663Y-70513563D01*
X146174076Y-70095847D01*
X146274488Y-69600000D01*
X146274488Y-68250000D01*
X153315337Y-68250000D01*
X153200000Y-68829838D01*
X153200000Y-68910162D01*
X153356047Y-69694663D01*
X153800431Y-70359731D01*
X154465499Y-70804115D01*
X155250000Y-70960162D01*
X156034501Y-70804115D01*
X156699569Y-70359731D01*
X156814786Y-70187296D01*
X157129940Y-70503001D01*
X157868432Y-70809650D01*
X158668060Y-70810348D01*
X159407086Y-70504988D01*
X159539736Y-70372569D01*
X159669940Y-70503001D01*
X160408432Y-70809650D01*
X161208060Y-70810348D01*
X161829798Y-70553450D01*
X162094153Y-70734076D01*
X162590000Y-70834488D01*
X164110000Y-70834488D01*
X164573222Y-70747327D01*
X164817487Y-70590147D01*
X165079590Y-70982412D01*
X165874428Y-71513505D01*
X166812002Y-71700000D01*
X166907998Y-71700000D01*
X167845572Y-71513505D01*
X168640410Y-70982412D01*
X169171503Y-70187574D01*
X169357998Y-69250000D01*
X169171503Y-68312426D01*
X169129791Y-68250000D01*
X177050000Y-68250000D01*
X177050000Y-71418820D01*
X176750357Y-72140441D01*
X176749645Y-72955981D01*
X177061081Y-73709715D01*
X177356816Y-74005966D01*
X177290269Y-74050431D01*
X176845885Y-74715499D01*
X176689838Y-75500000D01*
X176845885Y-76284501D01*
X177290269Y-76949569D01*
X177955337Y-77393953D01*
X178739838Y-77550000D01*
X178820162Y-77550000D01*
X179604663Y-77393953D01*
X180269731Y-76949569D01*
X180714115Y-76284501D01*
X180870162Y-75500000D01*
X180714115Y-74715499D01*
X180269731Y-74050431D01*
X180227132Y-74021968D01*
X180536892Y-73712748D01*
X180849643Y-72959559D01*
X180850355Y-72144019D01*
X180550000Y-71417103D01*
X180550000Y-71165143D01*
X180710375Y-71325798D01*
X181610527Y-71699573D01*
X182585197Y-71700424D01*
X183486000Y-71328220D01*
X184175798Y-70639625D01*
X184209520Y-70558413D01*
X184637252Y-70986892D01*
X184926015Y-71106797D01*
X184485885Y-71765499D01*
X184329838Y-72550000D01*
X184485885Y-73334501D01*
X184930269Y-73999569D01*
X184972868Y-74028032D01*
X184663108Y-74337252D01*
X184350357Y-75090441D01*
X184349645Y-75905981D01*
X184661081Y-76659715D01*
X185237252Y-77236892D01*
X185990441Y-77549643D01*
X186805981Y-77550355D01*
X187122650Y-77419510D01*
X187550431Y-78059731D01*
X188215499Y-78504115D01*
X189000000Y-78660162D01*
X189784501Y-78504115D01*
X190449569Y-78059731D01*
X190893953Y-77394663D01*
X191050000Y-76610162D01*
X191050000Y-76529838D01*
X190893953Y-75745337D01*
X190822486Y-75638378D01*
X191090441Y-75749643D01*
X191905981Y-75750355D01*
X192659715Y-75438919D01*
X193236892Y-74862748D01*
X193549643Y-74109559D01*
X193550355Y-73294019D01*
X193238919Y-72540285D01*
X192662748Y-71963108D01*
X191909559Y-71650357D01*
X191094019Y-71649645D01*
X190340285Y-71961081D01*
X189763108Y-72537252D01*
X189450357Y-73290441D01*
X189449645Y-74105981D01*
X189658217Y-74610766D01*
X189000000Y-74479838D01*
X188257598Y-74627511D01*
X188138919Y-74340285D01*
X187843184Y-74044034D01*
X187909731Y-73999569D01*
X188354115Y-73334501D01*
X188510162Y-72550000D01*
X188354115Y-71765499D01*
X187909731Y-71100431D01*
X187273719Y-70675462D01*
X187536892Y-70412748D01*
X187544734Y-70393863D01*
X187837252Y-70686892D01*
X188590441Y-70999643D01*
X189405981Y-71000355D01*
X190159715Y-70688919D01*
X190736892Y-70112748D01*
X190763083Y-70049673D01*
X190812673Y-70313222D01*
X191086437Y-70738663D01*
X191504153Y-71024076D01*
X192000000Y-71124488D01*
X193600000Y-71124488D01*
X194063222Y-71037327D01*
X194328802Y-70866431D01*
X194890441Y-71099643D01*
X195705981Y-71100355D01*
X196459715Y-70788919D01*
X197036892Y-70212748D01*
X197045520Y-70191970D01*
X197236437Y-70488663D01*
X197654153Y-70774076D01*
X198150000Y-70874488D01*
X200350000Y-70874488D01*
X200750000Y-70799223D01*
X200750000Y-74304215D01*
X200149306Y-73902844D01*
X199250000Y-73723961D01*
X198549858Y-73863228D01*
X198550355Y-73294019D01*
X198238919Y-72540285D01*
X197662748Y-71963108D01*
X196909559Y-71650357D01*
X196094019Y-71649645D01*
X195340285Y-71961081D01*
X194763108Y-72537252D01*
X194450357Y-73290441D01*
X194449645Y-74105981D01*
X194761081Y-74859715D01*
X195337252Y-75436892D01*
X196090441Y-75749643D01*
X196905981Y-75750355D01*
X196969598Y-75724069D01*
X196900000Y-76073961D01*
X196900000Y-76166039D01*
X197078883Y-77065345D01*
X197185278Y-77224576D01*
X196925924Y-77604153D01*
X196825512Y-78100000D01*
X196825512Y-79900000D01*
X196912673Y-80363222D01*
X197063395Y-80597450D01*
X196850374Y-81110462D01*
X196849628Y-81965785D01*
X197176256Y-82756286D01*
X197780533Y-83361619D01*
X198570462Y-83689626D01*
X199425785Y-83690372D01*
X200216286Y-83363744D01*
X200750000Y-82830961D01*
X200750000Y-85000000D01*
X200769696Y-85097264D01*
X200825682Y-85179202D01*
X200909136Y-85232903D01*
X201000000Y-85250000D01*
X218000000Y-85250000D01*
X218097264Y-85230304D01*
X218179202Y-85174318D01*
X218232903Y-85090864D01*
X218250000Y-85000000D01*
X218250000Y-84592002D01*
X218550000Y-84592002D01*
X218550000Y-84687998D01*
X218736495Y-85625572D01*
X219267588Y-86420410D01*
X220062426Y-86951503D01*
X221000000Y-87137998D01*
X221937574Y-86951503D01*
X222732412Y-86420410D01*
X223263505Y-85625572D01*
X223450000Y-84687998D01*
X223450000Y-84592002D01*
X223263505Y-83654428D01*
X222732412Y-82859590D01*
X222652181Y-82805981D01*
X224749645Y-82805981D01*
X225061081Y-83559715D01*
X225637252Y-84136892D01*
X226390441Y-84449643D01*
X227205981Y-84450355D01*
X227959715Y-84138919D01*
X228536892Y-83562748D01*
X228849643Y-82809559D01*
X228850355Y-81994019D01*
X228538919Y-81240285D01*
X228258961Y-80959838D01*
X229950000Y-80959838D01*
X229950000Y-81040162D01*
X230106047Y-81824663D01*
X230550431Y-82489731D01*
X231215499Y-82934115D01*
X232000000Y-83090162D01*
X232784501Y-82934115D01*
X233449569Y-82489731D01*
X233893953Y-81824663D01*
X234050000Y-81040162D01*
X234050000Y-80959838D01*
X233893953Y-80175337D01*
X233502510Y-79589500D01*
X240042000Y-79589500D01*
X240042000Y-80150776D01*
X240157399Y-80429373D01*
X240370628Y-80642602D01*
X240649225Y-80758000D01*
X241210500Y-80758000D01*
X241400000Y-80568500D01*
X241400000Y-79400000D01*
X242600000Y-79400000D01*
X242600000Y-80568500D01*
X242789500Y-80758000D01*
X243350775Y-80758000D01*
X243629372Y-80642602D01*
X243842601Y-80429373D01*
X243958000Y-80150776D01*
X243958000Y-79589500D01*
X255442000Y-79589500D01*
X255442000Y-80150776D01*
X255557399Y-80429373D01*
X255770628Y-80642602D01*
X256049225Y-80758000D01*
X256610500Y-80758000D01*
X256800000Y-80568500D01*
X256800000Y-79400000D01*
X258000000Y-79400000D01*
X258000000Y-80568500D01*
X258189500Y-80758000D01*
X258750775Y-80758000D01*
X259029372Y-80642602D01*
X259242601Y-80429373D01*
X259358000Y-80150776D01*
X259358000Y-79589500D01*
X259168500Y-79400000D01*
X258000000Y-79400000D01*
X256800000Y-79400000D01*
X255631500Y-79400000D01*
X255442000Y-79589500D01*
X243958000Y-79589500D01*
X243768500Y-79400000D01*
X242600000Y-79400000D01*
X241400000Y-79400000D01*
X240231500Y-79400000D01*
X240042000Y-79589500D01*
X233502510Y-79589500D01*
X233450002Y-79510917D01*
X233450002Y-79478954D01*
X233624694Y-79230635D01*
X233516307Y-79000000D01*
X232600000Y-79000000D01*
X232600000Y-79029185D01*
X232000000Y-78909838D01*
X231546725Y-79000000D01*
X230883693Y-79000000D01*
X230775306Y-79230635D01*
X230837220Y-79318643D01*
X230550431Y-79510269D01*
X230106047Y-80175337D01*
X229950000Y-80959838D01*
X228258961Y-80959838D01*
X227962748Y-80663108D01*
X227209559Y-80350357D01*
X226394019Y-80349645D01*
X225640285Y-80661081D01*
X225063108Y-81237252D01*
X224750357Y-81990441D01*
X224749645Y-82805981D01*
X222652181Y-82805981D01*
X221937574Y-82328497D01*
X221000000Y-82142002D01*
X220062426Y-82328497D01*
X219267588Y-82859590D01*
X218736495Y-83654428D01*
X218550000Y-84592002D01*
X218250000Y-84592002D01*
X218250000Y-77969365D01*
X230775306Y-77969365D01*
X230883693Y-78200000D01*
X231800000Y-78200000D01*
X231800000Y-77291263D01*
X232600000Y-77291263D01*
X232600000Y-78200000D01*
X233516307Y-78200000D01*
X233624694Y-77969365D01*
X233274912Y-77472162D01*
X233240580Y-77449224D01*
X240042000Y-77449224D01*
X240042000Y-78010500D01*
X240231500Y-78200000D01*
X241400000Y-78200000D01*
X241400000Y-77031500D01*
X242600000Y-77031500D01*
X242600000Y-78200000D01*
X243768500Y-78200000D01*
X243958000Y-78010500D01*
X243958000Y-77449224D01*
X255442000Y-77449224D01*
X255442000Y-78010500D01*
X255631500Y-78200000D01*
X256800000Y-78200000D01*
X256800000Y-77031500D01*
X258000000Y-77031500D01*
X258000000Y-78200000D01*
X259168500Y-78200000D01*
X259358000Y-78010500D01*
X259358000Y-77449224D01*
X259242601Y-77170627D01*
X259029372Y-76957398D01*
X258750775Y-76842000D01*
X258189500Y-76842000D01*
X258000000Y-77031500D01*
X256800000Y-77031500D01*
X256610500Y-76842000D01*
X256049225Y-76842000D01*
X255770628Y-76957398D01*
X255557399Y-77170627D01*
X255442000Y-77449224D01*
X243958000Y-77449224D01*
X243842601Y-77170627D01*
X243629372Y-76957398D01*
X243350775Y-76842000D01*
X242789500Y-76842000D01*
X242600000Y-77031500D01*
X241400000Y-77031500D01*
X241210500Y-76842000D01*
X240649225Y-76842000D01*
X240370628Y-76957398D01*
X240157399Y-77170627D01*
X240042000Y-77449224D01*
X233240580Y-77449224D01*
X232830631Y-77175335D01*
X232600000Y-77291263D01*
X231800000Y-77291263D01*
X231569369Y-77175335D01*
X231125088Y-77472162D01*
X230775306Y-77969365D01*
X218250000Y-77969365D01*
X218250000Y-68250000D01*
X218750000Y-68250000D01*
X218750000Y-68429901D01*
X218550427Y-68910527D01*
X218549576Y-69885197D01*
X218921780Y-70786000D01*
X219610375Y-71475798D01*
X220510527Y-71849573D01*
X221485197Y-71850424D01*
X222386000Y-71478220D01*
X223075798Y-70789625D01*
X223449573Y-69889473D01*
X223450424Y-68914803D01*
X223250000Y-68429740D01*
X223250000Y-68250000D01*
X224309674Y-68250000D01*
X224421271Y-68811038D01*
X224550000Y-69003694D01*
X224550000Y-69700000D01*
X224721271Y-70561038D01*
X225209010Y-71290990D01*
X225938962Y-71778729D01*
X226800000Y-71950000D01*
X227628521Y-71785197D01*
X239549576Y-71785197D01*
X239921780Y-72686000D01*
X240610375Y-73375798D01*
X241510527Y-73749573D01*
X242485197Y-73750424D01*
X243386000Y-73378220D01*
X244075798Y-72689625D01*
X244449573Y-71789473D01*
X244449576Y-71785197D01*
X254949576Y-71785197D01*
X255321780Y-72686000D01*
X256010375Y-73375798D01*
X256910527Y-73749573D01*
X257885197Y-73750424D01*
X258786000Y-73378220D01*
X259475798Y-72689625D01*
X259849573Y-71789473D01*
X259850424Y-70814803D01*
X259478220Y-69914000D01*
X258789625Y-69224202D01*
X257889473Y-68850427D01*
X256914803Y-68849576D01*
X256014000Y-69221780D01*
X255324202Y-69910375D01*
X254950427Y-70810527D01*
X254949576Y-71785197D01*
X244449576Y-71785197D01*
X244450424Y-70814803D01*
X244078220Y-69914000D01*
X243389625Y-69224202D01*
X242489473Y-68850427D01*
X241514803Y-68849576D01*
X240614000Y-69221780D01*
X239924202Y-69910375D01*
X239550427Y-70810527D01*
X239549576Y-71785197D01*
X227628521Y-71785197D01*
X227661038Y-71778729D01*
X228390990Y-71290990D01*
X228878729Y-70561038D01*
X229050000Y-69700000D01*
X229050000Y-68250000D01*
X230150305Y-68250000D01*
X230149645Y-69005981D01*
X230461081Y-69759715D01*
X231037252Y-70336892D01*
X231790441Y-70649643D01*
X232605981Y-70650355D01*
X233359715Y-70338919D01*
X233936892Y-69762748D01*
X234249643Y-69009559D01*
X234250306Y-68250000D01*
X264675000Y-68250000D01*
X264675000Y-92020735D01*
X264460776Y-91932000D01*
X264074500Y-91932000D01*
X263885000Y-92121500D01*
X263885000Y-93115000D01*
X264310000Y-93115000D01*
X264310000Y-93965000D01*
X263885000Y-93965000D01*
X263885000Y-94056354D01*
X263501141Y-93980000D01*
X263418859Y-93980000D01*
X263035000Y-94056354D01*
X263035000Y-93965000D01*
X262041500Y-93965000D01*
X261852000Y-94154500D01*
X261852000Y-94540775D01*
X261897240Y-94649994D01*
X261478712Y-95276365D01*
X261318859Y-96080000D01*
X261478712Y-96883635D01*
X261933935Y-97564924D01*
X262585834Y-98000509D01*
X261207841Y-97999307D01*
X259737142Y-98606987D01*
X258610942Y-99731223D01*
X258000695Y-101200860D01*
X257999307Y-102792159D01*
X258606987Y-104262858D01*
X259018410Y-104675000D01*
X257307837Y-104675000D01*
X257327740Y-104661701D01*
X257837156Y-103899306D01*
X258016039Y-103000000D01*
X257837156Y-102100694D01*
X257435785Y-101500000D01*
X257837156Y-100899306D01*
X258016039Y-100000000D01*
X257837156Y-99100694D01*
X257327740Y-98338299D01*
X256565345Y-97828883D01*
X255666039Y-97650000D01*
X255573961Y-97650000D01*
X254674655Y-97828883D01*
X253912260Y-98338299D01*
X253402844Y-99100694D01*
X253223961Y-100000000D01*
X253402844Y-100899306D01*
X253804215Y-101500000D01*
X253402844Y-102100694D01*
X253223961Y-103000000D01*
X253402844Y-103899306D01*
X253912260Y-104661701D01*
X253932163Y-104675000D01*
X249596974Y-104675000D01*
X249742602Y-104529372D01*
X249858000Y-104250775D01*
X249858000Y-103739500D01*
X249668500Y-103550000D01*
X248550000Y-103550000D01*
X248550000Y-104100000D01*
X247450000Y-104100000D01*
X247450000Y-103550000D01*
X246331500Y-103550000D01*
X246142000Y-103739500D01*
X246142000Y-104250775D01*
X246257398Y-104529372D01*
X246403026Y-104675000D01*
X228755250Y-104675000D01*
X228774488Y-104580000D01*
X228774488Y-101580000D01*
X228687327Y-101116778D01*
X228413563Y-100691337D01*
X228192123Y-100540033D01*
X228388663Y-100413563D01*
X228674076Y-99995847D01*
X228774488Y-99500000D01*
X228774488Y-98900000D01*
X245625512Y-98900000D01*
X245625512Y-101100000D01*
X245712673Y-101563222D01*
X245986437Y-101988663D01*
X246142000Y-102094955D01*
X246142000Y-102260500D01*
X246331500Y-102450000D01*
X247450000Y-102450000D01*
X247450000Y-102374488D01*
X248550000Y-102374488D01*
X248550000Y-102450000D01*
X249668500Y-102450000D01*
X249858000Y-102260500D01*
X249858000Y-102097642D01*
X249988663Y-102013563D01*
X250274076Y-101595847D01*
X250374488Y-101100000D01*
X250374488Y-98900000D01*
X250287327Y-98436778D01*
X250013563Y-98011337D01*
X249595847Y-97725924D01*
X249100000Y-97625512D01*
X246900000Y-97625512D01*
X246436778Y-97712673D01*
X246011337Y-97986437D01*
X245725924Y-98404153D01*
X245625512Y-98900000D01*
X228774488Y-98900000D01*
X228774488Y-96500000D01*
X228687327Y-96036778D01*
X228413563Y-95611337D01*
X227995847Y-95325924D01*
X227500000Y-95225512D01*
X224500000Y-95225512D01*
X224036778Y-95312673D01*
X223611337Y-95586437D01*
X223325924Y-96004153D01*
X223225512Y-96500000D01*
X223225512Y-99500000D01*
X223312673Y-99963222D01*
X223586437Y-100388663D01*
X223807877Y-100539967D01*
X223611337Y-100666437D01*
X223325924Y-101084153D01*
X223225512Y-101580000D01*
X223225512Y-103617742D01*
X223143572Y-103535802D01*
X223211592Y-102858851D01*
X223121784Y-102407361D01*
X222846961Y-102213699D01*
X221980660Y-103080000D01*
X222348356Y-103447696D01*
X221287696Y-104508356D01*
X220920000Y-104140660D01*
X220552304Y-104508356D01*
X219491644Y-103447696D01*
X219859340Y-103080000D01*
X218993039Y-102213699D01*
X218718216Y-102407361D01*
X218628408Y-103301149D01*
X218678625Y-103553605D01*
X218411651Y-103820579D01*
X219266072Y-104675000D01*
X207852349Y-104675000D01*
X208189731Y-104449569D01*
X208634115Y-103784501D01*
X208790162Y-103000000D01*
X208634115Y-102215499D01*
X208189731Y-101550431D01*
X207594992Y-101153039D01*
X220053699Y-101153039D01*
X220920000Y-102019340D01*
X221786301Y-101153039D01*
X221592639Y-100878216D01*
X220698851Y-100788408D01*
X220247361Y-100878216D01*
X220053699Y-101153039D01*
X207594992Y-101153039D01*
X207524663Y-101106047D01*
X206740162Y-100950000D01*
X206659838Y-100950000D01*
X205875337Y-101106047D01*
X205210269Y-101550431D01*
X204765885Y-102215499D01*
X204609838Y-103000000D01*
X204765885Y-103784501D01*
X205210269Y-104449569D01*
X205547651Y-104675000D01*
X190236027Y-104675000D01*
X190532828Y-104230805D01*
X193334881Y-104230805D01*
X193419983Y-104478846D01*
X194030064Y-104588239D01*
X194580017Y-104478846D01*
X194665119Y-104230805D01*
X194000000Y-103565685D01*
X193334881Y-104230805D01*
X190532828Y-104230805D01*
X190763505Y-103885572D01*
X190933676Y-103030064D01*
X192411761Y-103030064D01*
X192521154Y-103580017D01*
X192769195Y-103665119D01*
X193434315Y-103000000D01*
X194565685Y-103000000D01*
X195230805Y-103665119D01*
X195478846Y-103580017D01*
X195588239Y-102969936D01*
X195478846Y-102419983D01*
X195230805Y-102334881D01*
X194565685Y-103000000D01*
X193434315Y-103000000D01*
X192769195Y-102334881D01*
X192521154Y-102419983D01*
X192411761Y-103030064D01*
X190933676Y-103030064D01*
X190950000Y-102947998D01*
X190950000Y-102852002D01*
X190763505Y-101914428D01*
X190666464Y-101769195D01*
X193334881Y-101769195D01*
X194000000Y-102434315D01*
X194665119Y-101769195D01*
X194580017Y-101521154D01*
X193969936Y-101411761D01*
X193419983Y-101521154D01*
X193334881Y-101769195D01*
X190666464Y-101769195D01*
X190232412Y-101119590D01*
X189437574Y-100588497D01*
X188500000Y-100402002D01*
X187562426Y-100588497D01*
X186767588Y-101119590D01*
X186236495Y-101914428D01*
X186050000Y-102852002D01*
X186050000Y-102947998D01*
X186236495Y-103885572D01*
X186763973Y-104675000D01*
X154249760Y-104675000D01*
X154250355Y-103994019D01*
X154160669Y-103776961D01*
X158178699Y-103776961D01*
X158372361Y-104051784D01*
X159266149Y-104141592D01*
X159717639Y-104051784D01*
X159911301Y-103776961D01*
X159045000Y-102910660D01*
X158178699Y-103776961D01*
X154160669Y-103776961D01*
X153938919Y-103240285D01*
X153499139Y-102799738D01*
X153936892Y-102362748D01*
X154057974Y-102071149D01*
X156753408Y-102071149D01*
X156843216Y-102522639D01*
X157118039Y-102716301D01*
X157984340Y-101850000D01*
X160105660Y-101850000D01*
X160971961Y-102716301D01*
X161246784Y-102522639D01*
X161336592Y-101628851D01*
X161246784Y-101177361D01*
X160971961Y-100983699D01*
X160105660Y-101850000D01*
X157984340Y-101850000D01*
X157118039Y-100983699D01*
X156843216Y-101177361D01*
X156753408Y-102071149D01*
X154057974Y-102071149D01*
X154249643Y-101609559D01*
X154250355Y-100794019D01*
X153938919Y-100040285D01*
X153821878Y-99923039D01*
X158178699Y-99923039D01*
X159045000Y-100789340D01*
X159484340Y-100350000D01*
X161350512Y-100350000D01*
X161350512Y-103350000D01*
X161437673Y-103813222D01*
X161711437Y-104238663D01*
X162129153Y-104524076D01*
X162625000Y-104624488D01*
X165625000Y-104624488D01*
X166088222Y-104537327D01*
X166503658Y-104270001D01*
X176107817Y-104270001D01*
X176239421Y-104529869D01*
X176971613Y-104631108D01*
X177480579Y-104529869D01*
X177612183Y-104270001D01*
X181187817Y-104270001D01*
X181319421Y-104529869D01*
X182051613Y-104631108D01*
X182560579Y-104529869D01*
X182692183Y-104270001D01*
X181940000Y-103517817D01*
X181187817Y-104270001D01*
X177612183Y-104270001D01*
X176860000Y-103517817D01*
X176107817Y-104270001D01*
X166503658Y-104270001D01*
X166513663Y-104263563D01*
X166799076Y-103845847D01*
X166899488Y-103350000D01*
X166899488Y-102851613D01*
X174968892Y-102851613D01*
X175070131Y-103360579D01*
X175329999Y-103492183D01*
X176082183Y-102740000D01*
X175329999Y-101987817D01*
X175070131Y-102119421D01*
X174968892Y-102851613D01*
X166899488Y-102851613D01*
X166899488Y-100350000D01*
X166812327Y-99886778D01*
X166538563Y-99461337D01*
X166141450Y-99190001D01*
X176107817Y-99190001D01*
X176239421Y-99449869D01*
X176971613Y-99551108D01*
X176981393Y-99549163D01*
X177159875Y-99727645D01*
X177150392Y-99750484D01*
X177149610Y-100645589D01*
X177160437Y-100671793D01*
X176954798Y-100877432D01*
X176748387Y-100848892D01*
X176239421Y-100950131D01*
X176107817Y-101209999D01*
X176860000Y-101962183D01*
X177248909Y-101573274D01*
X178026726Y-102351091D01*
X177637817Y-102740000D01*
X178390001Y-103492183D01*
X178649869Y-103360579D01*
X178751108Y-102628387D01*
X178749163Y-102618607D01*
X178927645Y-102440125D01*
X178950484Y-102449608D01*
X179845589Y-102450390D01*
X179871793Y-102439563D01*
X180077432Y-102645202D01*
X180048892Y-102851613D01*
X180150131Y-103360579D01*
X180409999Y-103492183D01*
X181162183Y-102740000D01*
X182717817Y-102740000D01*
X183470001Y-103492183D01*
X183729869Y-103360579D01*
X183831108Y-102628387D01*
X183729869Y-102119421D01*
X183470001Y-101987817D01*
X182717817Y-102740000D01*
X181162183Y-102740000D01*
X180773274Y-102351091D01*
X181551091Y-101573274D01*
X181940000Y-101962183D01*
X182692183Y-101209999D01*
X182560579Y-100950131D01*
X181828387Y-100848892D01*
X181818607Y-100850837D01*
X181640125Y-100672355D01*
X181649608Y-100649516D01*
X181650239Y-99926961D01*
X220053699Y-99926961D01*
X220247361Y-100201784D01*
X221141149Y-100291592D01*
X221592639Y-100201784D01*
X221786301Y-99926961D01*
X220920000Y-99060660D01*
X220053699Y-99926961D01*
X181650239Y-99926961D01*
X181650390Y-99754411D01*
X181639563Y-99728207D01*
X181845202Y-99522568D01*
X182051613Y-99551108D01*
X182560579Y-99449869D01*
X182692183Y-99190001D01*
X181940000Y-98437817D01*
X181551091Y-98826726D01*
X180773274Y-98048909D01*
X181162183Y-97660000D01*
X182717817Y-97660000D01*
X183470001Y-98412183D01*
X183729869Y-98280579D01*
X183738086Y-98221149D01*
X218628408Y-98221149D01*
X218718216Y-98672639D01*
X218993039Y-98866301D01*
X219859340Y-98000000D01*
X221980660Y-98000000D01*
X222846961Y-98866301D01*
X223121784Y-98672639D01*
X223211592Y-97778851D01*
X223121784Y-97327361D01*
X222846961Y-97133699D01*
X221980660Y-98000000D01*
X219859340Y-98000000D01*
X218993039Y-97133699D01*
X218718216Y-97327361D01*
X218628408Y-98221149D01*
X183738086Y-98221149D01*
X183831108Y-97548387D01*
X183738067Y-97080635D01*
X191325306Y-97080635D01*
X191675088Y-97577838D01*
X192119369Y-97874665D01*
X192350000Y-97758737D01*
X192350000Y-96850000D01*
X193150000Y-96850000D01*
X193150000Y-97758737D01*
X193380631Y-97874665D01*
X193824912Y-97577838D01*
X194174694Y-97080635D01*
X194066307Y-96850000D01*
X193150000Y-96850000D01*
X192350000Y-96850000D01*
X191433693Y-96850000D01*
X191325306Y-97080635D01*
X183738067Y-97080635D01*
X183729869Y-97039421D01*
X183470001Y-96907817D01*
X182717817Y-97660000D01*
X181162183Y-97660000D01*
X180409999Y-96907817D01*
X180150131Y-97039421D01*
X180048892Y-97771613D01*
X180050837Y-97781393D01*
X179872355Y-97959875D01*
X179849516Y-97950392D01*
X178954411Y-97949610D01*
X178928207Y-97960437D01*
X178722568Y-97754798D01*
X178751108Y-97548387D01*
X178649869Y-97039421D01*
X178390001Y-96907817D01*
X177637817Y-97660000D01*
X178026726Y-98048909D01*
X177248909Y-98826726D01*
X176860000Y-98437817D01*
X176107817Y-99190001D01*
X166141450Y-99190001D01*
X166120847Y-99175924D01*
X165625000Y-99075512D01*
X162625000Y-99075512D01*
X162161778Y-99162673D01*
X161736337Y-99436437D01*
X161450924Y-99854153D01*
X161350512Y-100350000D01*
X159484340Y-100350000D01*
X159911301Y-99923039D01*
X159717639Y-99648216D01*
X158823851Y-99558408D01*
X158372361Y-99648216D01*
X158178699Y-99923039D01*
X153821878Y-99923039D01*
X153373711Y-99474090D01*
X153709731Y-99249569D01*
X154154115Y-98584501D01*
X154310162Y-97800000D01*
X154304516Y-97771613D01*
X174968892Y-97771613D01*
X175070131Y-98280579D01*
X175329999Y-98412183D01*
X176082183Y-97660000D01*
X175329999Y-96907817D01*
X175070131Y-97039421D01*
X174968892Y-97771613D01*
X154304516Y-97771613D01*
X154154115Y-97015499D01*
X153709731Y-96350431D01*
X153044663Y-95906047D01*
X152541598Y-95805981D01*
X162149645Y-95805981D01*
X162461081Y-96559715D01*
X163037252Y-97136892D01*
X163790441Y-97449643D01*
X164605981Y-97450355D01*
X165359715Y-97138919D01*
X165936892Y-96562748D01*
X166157846Y-96030631D01*
X170395335Y-96030631D01*
X170692162Y-96474912D01*
X171189365Y-96824694D01*
X171420000Y-96716307D01*
X171420000Y-95800000D01*
X172220000Y-95800000D01*
X172220000Y-96716307D01*
X172450635Y-96824694D01*
X172947838Y-96474912D01*
X173178276Y-96129999D01*
X176107817Y-96129999D01*
X176860000Y-96882183D01*
X177612183Y-96129999D01*
X181187817Y-96129999D01*
X181940000Y-96882183D01*
X182692183Y-96129999D01*
X182663337Y-96073039D01*
X220053699Y-96073039D01*
X220920000Y-96939340D01*
X221786301Y-96073039D01*
X221592639Y-95798216D01*
X220698851Y-95708408D01*
X220247361Y-95798216D01*
X220053699Y-96073039D01*
X182663337Y-96073039D01*
X182560579Y-95870131D01*
X182193424Y-95819365D01*
X191325306Y-95819365D01*
X191433693Y-96050000D01*
X192350000Y-96050000D01*
X192350000Y-95141263D01*
X193150000Y-95141263D01*
X193150000Y-96050000D01*
X194066307Y-96050000D01*
X194174694Y-95819365D01*
X193824912Y-95322162D01*
X193380631Y-95025335D01*
X193150000Y-95141263D01*
X192350000Y-95141263D01*
X192119369Y-95025335D01*
X191675088Y-95322162D01*
X191325306Y-95819365D01*
X182193424Y-95819365D01*
X181828387Y-95768892D01*
X181319421Y-95870131D01*
X181187817Y-96129999D01*
X177612183Y-96129999D01*
X177480579Y-95870131D01*
X176748387Y-95768892D01*
X176239421Y-95870131D01*
X176107817Y-96129999D01*
X173178276Y-96129999D01*
X173244665Y-96030631D01*
X173128737Y-95800000D01*
X172220000Y-95800000D01*
X171420000Y-95800000D01*
X170511263Y-95800000D01*
X170395335Y-96030631D01*
X166157846Y-96030631D01*
X166249643Y-95809559D01*
X166250355Y-94994019D01*
X166157532Y-94769369D01*
X170395335Y-94769369D01*
X170511263Y-95000000D01*
X171420000Y-95000000D01*
X171420000Y-94083693D01*
X172220000Y-94083693D01*
X172220000Y-95000000D01*
X173128737Y-95000000D01*
X173244665Y-94769369D01*
X172947838Y-94325088D01*
X172450635Y-93975306D01*
X172220000Y-94083693D01*
X171420000Y-94083693D01*
X171189365Y-93975306D01*
X170692162Y-94325088D01*
X170395335Y-94769369D01*
X166157532Y-94769369D01*
X165938919Y-94240285D01*
X165362748Y-93663108D01*
X164609559Y-93350357D01*
X163794019Y-93349645D01*
X163040285Y-93661081D01*
X162463108Y-94237252D01*
X162150357Y-94990441D01*
X162149645Y-95805981D01*
X152541598Y-95805981D01*
X152260162Y-95750000D01*
X152179838Y-95750000D01*
X151395337Y-95906047D01*
X150730269Y-96350431D01*
X150285885Y-97015499D01*
X150129838Y-97800000D01*
X150285885Y-98584501D01*
X150730269Y-99249569D01*
X151044323Y-99459413D01*
X151040285Y-99461081D01*
X150463108Y-100037252D01*
X150150357Y-100790441D01*
X150149645Y-101605981D01*
X150461081Y-102359715D01*
X150900861Y-102800262D01*
X150463108Y-103237252D01*
X150150357Y-103990441D01*
X150149759Y-104675000D01*
X146615461Y-104675000D01*
X146670162Y-104400000D01*
X146514115Y-103615499D01*
X146069731Y-102950431D01*
X145844595Y-102800000D01*
X146069731Y-102649569D01*
X146514115Y-101984501D01*
X146670162Y-101200000D01*
X146514115Y-100415499D01*
X146069731Y-99750431D01*
X145755677Y-99540587D01*
X145759715Y-99538919D01*
X146336892Y-98962748D01*
X146649643Y-98209559D01*
X146650355Y-97394019D01*
X146338919Y-96640285D01*
X145762748Y-96063108D01*
X145009559Y-95750357D01*
X144194019Y-95749645D01*
X143440285Y-96061081D01*
X142863108Y-96637252D01*
X142550357Y-97390441D01*
X142549645Y-98205981D01*
X142861081Y-98959715D01*
X143426289Y-99525910D01*
X143090269Y-99750431D01*
X142645885Y-100415499D01*
X142489838Y-101200000D01*
X142645885Y-101984501D01*
X143090269Y-102649569D01*
X143315405Y-102800000D01*
X143090269Y-102950431D01*
X142645885Y-103615499D01*
X142489838Y-104400000D01*
X142544539Y-104675000D01*
X140686706Y-104675000D01*
X140969658Y-103993576D01*
X140970342Y-103209862D01*
X140671059Y-102485542D01*
X140516002Y-102330215D01*
X140669111Y-102177373D01*
X140969658Y-101453576D01*
X140970342Y-100669862D01*
X140671059Y-99945542D01*
X140516002Y-99790215D01*
X140669111Y-99637373D01*
X140969658Y-98913576D01*
X140970342Y-98129862D01*
X140671059Y-97405542D01*
X140117373Y-96850889D01*
X139393576Y-96550342D01*
X138609862Y-96549658D01*
X137885542Y-96848941D01*
X137330889Y-97402627D01*
X137030342Y-98126424D01*
X137029658Y-98910138D01*
X137328941Y-99634458D01*
X137483998Y-99789785D01*
X137330889Y-99942627D01*
X137030342Y-100666424D01*
X137029658Y-101450138D01*
X137328941Y-102174458D01*
X137483998Y-102329785D01*
X137330889Y-102482627D01*
X137030342Y-103206424D01*
X137029658Y-103990138D01*
X137312637Y-104675000D01*
X136049760Y-104675000D01*
X136050355Y-103994019D01*
X135738919Y-103240285D01*
X135299139Y-102799738D01*
X135736892Y-102362748D01*
X136049643Y-101609559D01*
X136050355Y-100794019D01*
X135738919Y-100040285D01*
X135162748Y-99463108D01*
X134409559Y-99150357D01*
X134384649Y-99150335D01*
X133800000Y-98565685D01*
X133134881Y-99230805D01*
X133167500Y-99325879D01*
X132840285Y-99461081D01*
X132263108Y-100037252D01*
X131950357Y-100790441D01*
X131949645Y-101605981D01*
X132261081Y-102359715D01*
X132700861Y-102800262D01*
X132263108Y-103237252D01*
X131950357Y-103990441D01*
X131949759Y-104675000D01*
X128415461Y-104675000D01*
X128470162Y-104400000D01*
X128314115Y-103615499D01*
X127869731Y-102950431D01*
X127644595Y-102800000D01*
X127869731Y-102649569D01*
X128314115Y-101984501D01*
X128470162Y-101200000D01*
X128314115Y-100415499D01*
X127869731Y-99750431D01*
X127604595Y-99573273D01*
X127789731Y-99449569D01*
X128234115Y-98784501D01*
X128384181Y-98030064D01*
X132211761Y-98030064D01*
X132321154Y-98580017D01*
X132569195Y-98665119D01*
X133234315Y-98000000D01*
X134365685Y-98000000D01*
X135030805Y-98665119D01*
X135278846Y-98580017D01*
X135388239Y-97969936D01*
X135278846Y-97419983D01*
X135030805Y-97334881D01*
X134365685Y-98000000D01*
X133234315Y-98000000D01*
X132569195Y-97334881D01*
X132321154Y-97419983D01*
X132211761Y-98030064D01*
X128384181Y-98030064D01*
X128390162Y-98000000D01*
X128234115Y-97215499D01*
X127935905Y-96769195D01*
X133134881Y-96769195D01*
X133800000Y-97434315D01*
X134465119Y-96769195D01*
X134380017Y-96521154D01*
X133769936Y-96411761D01*
X133219983Y-96521154D01*
X133134881Y-96769195D01*
X127935905Y-96769195D01*
X127789731Y-96550431D01*
X127124663Y-96106047D01*
X126340162Y-95950000D01*
X126259838Y-95950000D01*
X125475337Y-96106047D01*
X125259896Y-96250000D01*
X123800000Y-96250000D01*
X123130304Y-96383211D01*
X122562563Y-96762563D01*
X121607567Y-97717559D01*
X121584988Y-97662914D01*
X121020060Y-97096999D01*
X120281568Y-96790350D01*
X119481940Y-96789652D01*
X118742914Y-97095012D01*
X118610264Y-97227431D01*
X118480060Y-97096999D01*
X117741568Y-96790350D01*
X116941940Y-96789652D01*
X116320202Y-97046550D01*
X116055847Y-96865924D01*
X115560000Y-96765512D01*
X114040000Y-96765512D01*
X113576778Y-96852673D01*
X113151337Y-97126437D01*
X112865924Y-97544153D01*
X112765512Y-98040000D01*
X112765512Y-99560000D01*
X112852673Y-100023222D01*
X113126437Y-100448663D01*
X113544153Y-100734076D01*
X114040000Y-100834488D01*
X114413429Y-100834488D01*
X113782914Y-101095012D01*
X113216999Y-101659940D01*
X112910350Y-102398432D01*
X112909652Y-103198060D01*
X113215012Y-103937086D01*
X113779940Y-104503001D01*
X114194159Y-104675000D01*
X84767484Y-104675000D01*
X84850000Y-104260162D01*
X84850000Y-104179838D01*
X84693953Y-103395337D01*
X84249569Y-102730269D01*
X83584501Y-102285885D01*
X82800000Y-102129838D01*
X82015499Y-102285885D01*
X81350431Y-102730269D01*
X80906047Y-103395337D01*
X80872616Y-103563404D01*
X80449569Y-102930269D01*
X79784501Y-102485885D01*
X79000000Y-102329838D01*
X78215499Y-102485885D01*
X77550431Y-102930269D01*
X77106047Y-103595337D01*
X76950000Y-104379838D01*
X76950000Y-104460162D01*
X76992734Y-104675000D01*
X76022470Y-104675000D01*
X76049643Y-104609559D01*
X76050355Y-103794019D01*
X75738919Y-103040285D01*
X75162748Y-102463108D01*
X74409559Y-102150357D01*
X73594019Y-102149645D01*
X72840285Y-102461081D01*
X72263108Y-103037252D01*
X71950357Y-103790441D01*
X71949645Y-104605981D01*
X71978163Y-104675000D01*
X70964584Y-104675000D01*
X71203677Y-104435907D01*
X70751126Y-103983357D01*
X70678846Y-103619983D01*
X70430805Y-103534881D01*
X69765685Y-104200000D01*
X70048528Y-104482843D01*
X69856371Y-104675000D01*
X68543629Y-104675000D01*
X68351472Y-104482843D01*
X68634315Y-104200000D01*
X67969195Y-103534881D01*
X67721154Y-103619983D01*
X67657554Y-103974677D01*
X67196323Y-104435907D01*
X67435416Y-104675000D01*
X66764584Y-104675000D01*
X67003677Y-104435907D01*
X66551126Y-103983357D01*
X66478846Y-103619983D01*
X66230805Y-103534881D01*
X65565685Y-104200000D01*
X65848528Y-104482843D01*
X65656371Y-104675000D01*
X64343629Y-104675000D01*
X64151472Y-104482843D01*
X64434315Y-104200000D01*
X63769195Y-103534881D01*
X63521154Y-103619983D01*
X63457554Y-103974677D01*
X62996323Y-104435907D01*
X63235416Y-104675000D01*
X55019993Y-104675000D01*
X55074076Y-104595847D01*
X55174488Y-104100000D01*
X55174488Y-102969195D01*
X64334881Y-102969195D01*
X65000000Y-103634315D01*
X65665119Y-102969195D01*
X68534881Y-102969195D01*
X69200000Y-103634315D01*
X69865119Y-102969195D01*
X69780017Y-102721154D01*
X69169936Y-102611761D01*
X68619983Y-102721154D01*
X68534881Y-102969195D01*
X65665119Y-102969195D01*
X65580017Y-102721154D01*
X64969936Y-102611761D01*
X64419983Y-102721154D01*
X64334881Y-102969195D01*
X55174488Y-102969195D01*
X55174488Y-101900000D01*
X55087327Y-101436778D01*
X54813563Y-101011337D01*
X54395847Y-100725924D01*
X53900000Y-100625512D01*
X51700000Y-100625512D01*
X51236778Y-100712673D01*
X50811337Y-100986437D01*
X50525924Y-101404153D01*
X50425512Y-101900000D01*
X50425512Y-104100000D01*
X50512673Y-104563222D01*
X50584600Y-104675000D01*
X46430002Y-104675000D01*
X46430002Y-104337963D01*
X46576264Y-104225861D01*
X46846840Y-103820857D01*
X46755244Y-103550000D01*
X45730000Y-103550000D01*
X45730000Y-104100000D01*
X44630000Y-104100000D01*
X44630000Y-103550000D01*
X43604756Y-103550000D01*
X43513160Y-103820857D01*
X43783736Y-104225861D01*
X43929998Y-104337963D01*
X43929998Y-104675000D01*
X32982125Y-104675000D01*
X33389058Y-104268777D01*
X33999305Y-102799140D01*
X33999845Y-102179143D01*
X43513160Y-102179143D01*
X43604756Y-102450000D01*
X44630000Y-102450000D01*
X44630000Y-101414736D01*
X45730000Y-101414736D01*
X45730000Y-102450000D01*
X46755244Y-102450000D01*
X46846840Y-102179143D01*
X46576264Y-101774139D01*
X46000863Y-101333125D01*
X45730000Y-101414736D01*
X44630000Y-101414736D01*
X44359137Y-101333125D01*
X43783736Y-101774139D01*
X43513160Y-102179143D01*
X33999845Y-102179143D01*
X34000693Y-101207841D01*
X33393013Y-99737142D01*
X33262081Y-99605981D01*
X67149645Y-99605981D01*
X67461081Y-100359715D01*
X68037252Y-100936892D01*
X68790441Y-101249643D01*
X69605981Y-101250355D01*
X70359715Y-100938919D01*
X70936892Y-100362748D01*
X71249643Y-99609559D01*
X71249646Y-99605981D01*
X71949645Y-99605981D01*
X72261081Y-100359715D01*
X72837252Y-100936892D01*
X73590441Y-101249643D01*
X74405981Y-101250355D01*
X75159715Y-100938919D01*
X75258806Y-100840000D01*
X87365512Y-100840000D01*
X87365512Y-102360000D01*
X87452673Y-102823222D01*
X87726437Y-103248663D01*
X88144153Y-103534076D01*
X88640000Y-103634488D01*
X90160000Y-103634488D01*
X90623222Y-103547327D01*
X91048663Y-103273563D01*
X91334076Y-102855847D01*
X91434488Y-102360000D01*
X91434488Y-100840000D01*
X94965512Y-100840000D01*
X94965512Y-102360000D01*
X95052673Y-102823222D01*
X95326437Y-103248663D01*
X95744153Y-103534076D01*
X96240000Y-103634488D01*
X97760000Y-103634488D01*
X98223222Y-103547327D01*
X98648663Y-103273563D01*
X98934076Y-102855847D01*
X99034488Y-102360000D01*
X99034488Y-100840000D01*
X98947327Y-100376778D01*
X98754227Y-100076693D01*
X99009650Y-99461568D01*
X99010210Y-98819247D01*
X100572381Y-98819247D01*
X100682821Y-99374466D01*
X100929233Y-99453366D01*
X101582599Y-98800000D01*
X100929233Y-98146634D01*
X100682821Y-98225534D01*
X100572381Y-98819247D01*
X99010210Y-98819247D01*
X99010348Y-98661940D01*
X98704988Y-97922914D01*
X98572569Y-97790264D01*
X98703001Y-97660060D01*
X98724106Y-97609233D01*
X101466634Y-97609233D01*
X102120000Y-98262599D01*
X102388701Y-97993899D01*
X102692273Y-98297471D01*
X102650350Y-98398432D01*
X102649652Y-99198060D01*
X102692659Y-99302143D01*
X102388701Y-99606102D01*
X102120000Y-99337401D01*
X101466634Y-99990767D01*
X101545534Y-100237179D01*
X101845141Y-100292911D01*
X102327069Y-100774839D01*
X103059825Y-100042083D01*
X103519940Y-100503001D01*
X104258432Y-100809650D01*
X105058060Y-100810348D01*
X105679798Y-100553450D01*
X105944153Y-100734076D01*
X106440000Y-100834488D01*
X107960000Y-100834488D01*
X108423222Y-100747327D01*
X108848663Y-100473563D01*
X109134076Y-100055847D01*
X109234488Y-99560000D01*
X109234488Y-98040000D01*
X109147327Y-97576778D01*
X108873563Y-97151337D01*
X108455847Y-96865924D01*
X107960000Y-96765512D01*
X106440000Y-96765512D01*
X105976778Y-96852673D01*
X105676693Y-97045773D01*
X105061568Y-96790350D01*
X104261940Y-96789652D01*
X103522914Y-97095012D01*
X103059513Y-97557605D01*
X102327069Y-96825161D01*
X101849964Y-97302266D01*
X101545534Y-97362821D01*
X101466634Y-97609233D01*
X98724106Y-97609233D01*
X99009650Y-96921568D01*
X99010348Y-96121940D01*
X98704988Y-95382914D01*
X98140060Y-94816999D01*
X97401568Y-94510350D01*
X96601940Y-94509652D01*
X95862914Y-94815012D01*
X95296999Y-95379940D01*
X94990350Y-96118432D01*
X94989652Y-96918060D01*
X95295012Y-97657086D01*
X95427431Y-97789736D01*
X95296999Y-97919940D01*
X94990350Y-98658432D01*
X94989652Y-99458060D01*
X95246550Y-100079798D01*
X95065924Y-100344153D01*
X94965512Y-100840000D01*
X91434488Y-100840000D01*
X91347327Y-100376778D01*
X91154227Y-100076693D01*
X91409650Y-99461568D01*
X91410348Y-98661940D01*
X91104988Y-97922914D01*
X90972569Y-97790264D01*
X91103001Y-97660060D01*
X91409650Y-96921568D01*
X91410348Y-96121940D01*
X91104988Y-95382914D01*
X90540060Y-94816999D01*
X89801568Y-94510350D01*
X89001940Y-94509652D01*
X88262914Y-94815012D01*
X87696999Y-95379940D01*
X87390350Y-96118432D01*
X87389652Y-96918060D01*
X87695012Y-97657086D01*
X87827431Y-97789736D01*
X87696999Y-97919940D01*
X87390350Y-98658432D01*
X87389652Y-99458060D01*
X87646550Y-100079798D01*
X87465924Y-100344153D01*
X87365512Y-100840000D01*
X75258806Y-100840000D01*
X75736892Y-100362748D01*
X76049643Y-99609559D01*
X76050355Y-98794019D01*
X75738919Y-98040285D01*
X75162748Y-97463108D01*
X74543517Y-97205981D01*
X76949645Y-97205981D01*
X77261081Y-97959715D01*
X77837252Y-98536892D01*
X78590441Y-98849643D01*
X79405981Y-98850355D01*
X80159715Y-98538919D01*
X80736892Y-97962748D01*
X80941436Y-97470151D01*
X81061081Y-97759715D01*
X81637252Y-98336892D01*
X82390441Y-98649643D01*
X83205981Y-98650355D01*
X83959715Y-98338919D01*
X84536892Y-97762748D01*
X84849643Y-97009559D01*
X84850355Y-96194019D01*
X84538919Y-95440285D01*
X83962748Y-94863108D01*
X83209559Y-94550357D01*
X82394019Y-94549645D01*
X81640285Y-94861081D01*
X81063108Y-95437252D01*
X80858564Y-95929849D01*
X80738919Y-95640285D01*
X80162748Y-95063108D01*
X79409559Y-94750357D01*
X78594019Y-94749645D01*
X77840285Y-95061081D01*
X77263108Y-95637252D01*
X76950357Y-96390441D01*
X76949645Y-97205981D01*
X74543517Y-97205981D01*
X74409559Y-97150357D01*
X73594019Y-97149645D01*
X72840285Y-97461081D01*
X72263108Y-98037252D01*
X71950357Y-98790441D01*
X71949645Y-99605981D01*
X71249646Y-99605981D01*
X71250355Y-98794019D01*
X70938919Y-98040285D01*
X70362748Y-97463108D01*
X69609559Y-97150357D01*
X68794019Y-97149645D01*
X68040285Y-97461081D01*
X67463108Y-98037252D01*
X67150357Y-98790441D01*
X67149645Y-99605981D01*
X33262081Y-99605981D01*
X32268777Y-98610942D01*
X30799140Y-98000695D01*
X30385995Y-98000335D01*
X30751288Y-97453635D01*
X30911141Y-96650000D01*
X30751288Y-95846365D01*
X30332760Y-95219994D01*
X30378000Y-95110775D01*
X30378000Y-94724500D01*
X30188500Y-94535000D01*
X29195000Y-94535000D01*
X29195000Y-94626354D01*
X28811141Y-94550000D01*
X28728859Y-94550000D01*
X28345000Y-94626354D01*
X28345000Y-94535000D01*
X27920000Y-94535000D01*
X27920000Y-93685000D01*
X28345000Y-93685000D01*
X28345000Y-92691500D01*
X29195000Y-92691500D01*
X29195000Y-93685000D01*
X30188500Y-93685000D01*
X30378000Y-93495500D01*
X30378000Y-93109225D01*
X30262602Y-92830628D01*
X30049373Y-92617399D01*
X29770776Y-92502000D01*
X29384500Y-92502000D01*
X29195000Y-92691500D01*
X28345000Y-92691500D01*
X28155500Y-92502000D01*
X27769224Y-92502000D01*
X27490627Y-92617399D01*
X27325000Y-92783026D01*
X27325000Y-91250000D01*
X32750000Y-91250000D01*
X32750000Y-96000000D01*
X32769696Y-96097264D01*
X32825682Y-96179202D01*
X32909136Y-96232903D01*
X33000000Y-96250000D01*
X46000000Y-96250000D01*
X46097264Y-96230304D01*
X46179202Y-96174318D01*
X46232903Y-96090864D01*
X46250000Y-96000000D01*
X46250000Y-93800000D01*
X52350512Y-93800000D01*
X52350512Y-96200000D01*
X52437673Y-96663222D01*
X52711437Y-97088663D01*
X53129153Y-97374076D01*
X53625000Y-97474488D01*
X56025000Y-97474488D01*
X56488222Y-97387327D01*
X56913663Y-97113563D01*
X57199076Y-96695847D01*
X57299488Y-96200000D01*
X57299488Y-93800000D01*
X57212327Y-93336778D01*
X56938563Y-92911337D01*
X56520847Y-92625924D01*
X56025000Y-92525512D01*
X53625000Y-92525512D01*
X53161778Y-92612673D01*
X52736337Y-92886437D01*
X52450924Y-93304153D01*
X52350512Y-93800000D01*
X46250000Y-93800000D01*
X46250000Y-91250000D01*
X62501352Y-91250000D01*
X62846780Y-92086000D01*
X63518165Y-92758558D01*
X63106047Y-93375337D01*
X62950000Y-94159838D01*
X62950000Y-94240162D01*
X63106047Y-95024663D01*
X63550431Y-95689731D01*
X64215499Y-96134115D01*
X65000000Y-96290162D01*
X65784501Y-96134115D01*
X66449569Y-95689731D01*
X66850630Y-95089500D01*
X71042000Y-95089500D01*
X71042000Y-95550776D01*
X71157399Y-95829373D01*
X71370628Y-96042602D01*
X71649225Y-96158000D01*
X72110500Y-96158000D01*
X72300000Y-95968500D01*
X72300000Y-94900000D01*
X73300000Y-94900000D01*
X73300000Y-95968500D01*
X73489500Y-96158000D01*
X73950775Y-96158000D01*
X74229372Y-96042602D01*
X74442601Y-95829373D01*
X74558000Y-95550776D01*
X74558000Y-95089500D01*
X74368500Y-94900000D01*
X73300000Y-94900000D01*
X72300000Y-94900000D01*
X71231500Y-94900000D01*
X71042000Y-95089500D01*
X66850630Y-95089500D01*
X66893953Y-95024663D01*
X67050000Y-94240162D01*
X67050000Y-94159838D01*
X66893953Y-93375337D01*
X66809688Y-93249224D01*
X71042000Y-93249224D01*
X71042000Y-93710500D01*
X71231500Y-93900000D01*
X72300000Y-93900000D01*
X72300000Y-92831500D01*
X73300000Y-92831500D01*
X73300000Y-93900000D01*
X74368500Y-93900000D01*
X74558000Y-93710500D01*
X74558000Y-93249224D01*
X74442601Y-92970627D01*
X74229372Y-92757398D01*
X73950775Y-92642000D01*
X73489500Y-92642000D01*
X73300000Y-92831500D01*
X72300000Y-92831500D01*
X72110500Y-92642000D01*
X71649225Y-92642000D01*
X71370628Y-92757398D01*
X71157399Y-92970627D01*
X71042000Y-93249224D01*
X66809688Y-93249224D01*
X66449569Y-92710269D01*
X66407337Y-92682051D01*
X67000798Y-92089625D01*
X67349440Y-91250000D01*
X71467566Y-91250000D01*
X71523813Y-91306345D01*
X72350484Y-91649608D01*
X73245589Y-91650390D01*
X74072858Y-91308569D01*
X74131529Y-91250000D01*
X90949880Y-91250000D01*
X90991081Y-91349715D01*
X91526375Y-91885943D01*
X91250269Y-92070431D01*
X90805885Y-92735499D01*
X90649838Y-93520000D01*
X90805885Y-94304501D01*
X91250269Y-94969569D01*
X91915337Y-95413953D01*
X92699838Y-95570000D01*
X92780162Y-95570000D01*
X93564663Y-95413953D01*
X94229731Y-94969569D01*
X94674115Y-94304501D01*
X94830162Y-93520000D01*
X94674115Y-92735499D01*
X94229731Y-92070431D01*
X93941130Y-91877594D01*
X94466892Y-91352748D01*
X94509557Y-91250000D01*
X98479967Y-91250000D01*
X98740269Y-91639569D01*
X99100755Y-91880438D01*
X98623108Y-92357252D01*
X98310357Y-93110441D01*
X98309645Y-93925981D01*
X98621081Y-94679715D01*
X99197252Y-95256892D01*
X99950441Y-95569643D01*
X100765981Y-95570355D01*
X101519715Y-95258919D01*
X101639774Y-95139069D01*
X101837252Y-95336892D01*
X102590441Y-95649643D01*
X103405981Y-95650355D01*
X104159715Y-95338919D01*
X104736892Y-94762748D01*
X105049643Y-94009559D01*
X105050355Y-93194019D01*
X104738919Y-92440285D01*
X104162748Y-91863108D01*
X103409559Y-91550357D01*
X102594019Y-91549645D01*
X101840285Y-91861081D01*
X101720226Y-91980931D01*
X101522748Y-91783108D01*
X101511746Y-91778540D01*
X101719731Y-91639569D01*
X101980033Y-91250000D01*
X109451036Y-91250000D01*
X109063108Y-91637252D01*
X108997770Y-91794603D01*
X108409559Y-91550357D01*
X107594019Y-91549645D01*
X106840285Y-91861081D01*
X106263108Y-92437252D01*
X105950357Y-93190441D01*
X105949645Y-94005981D01*
X106261081Y-94759715D01*
X106837252Y-95336892D01*
X107590441Y-95649643D01*
X108405981Y-95650355D01*
X109159715Y-95338919D01*
X109736892Y-94762748D01*
X109802230Y-94605397D01*
X110390441Y-94849643D01*
X111205981Y-94850355D01*
X111959715Y-94538919D01*
X112536892Y-93962748D01*
X112849643Y-93209559D01*
X112850355Y-92394019D01*
X112538919Y-91640285D01*
X112149314Y-91250000D01*
X117080575Y-91250000D01*
X116930269Y-91350431D01*
X116485885Y-92015499D01*
X116329838Y-92800000D01*
X116485885Y-93584501D01*
X116930269Y-94249569D01*
X117595337Y-94693953D01*
X118379838Y-94850000D01*
X118460162Y-94850000D01*
X119244663Y-94693953D01*
X119909731Y-94249569D01*
X119986212Y-94135108D01*
X120412252Y-94561892D01*
X121165441Y-94874643D01*
X121980981Y-94875355D01*
X122734715Y-94563919D01*
X123311892Y-93987748D01*
X123532846Y-93455631D01*
X130150335Y-93455631D01*
X130447162Y-93899912D01*
X130944365Y-94249694D01*
X131175000Y-94141307D01*
X131175000Y-93225000D01*
X130266263Y-93225000D01*
X130150335Y-93455631D01*
X123532846Y-93455631D01*
X123624643Y-93234559D01*
X123625355Y-92419019D01*
X123532532Y-92194369D01*
X130150335Y-92194369D01*
X130266263Y-92425000D01*
X131175000Y-92425000D01*
X131175000Y-91508693D01*
X130944365Y-91400306D01*
X130447162Y-91750088D01*
X130150335Y-92194369D01*
X123532532Y-92194369D01*
X123313919Y-91665285D01*
X122899358Y-91250000D01*
X133721316Y-91250000D01*
X133173108Y-91797252D01*
X133133000Y-91893843D01*
X133133000Y-91574998D01*
X132453954Y-91574998D01*
X132205635Y-91400306D01*
X131975000Y-91508693D01*
X131975000Y-92425000D01*
X132375000Y-92425000D01*
X132375000Y-93225000D01*
X131975000Y-93225000D01*
X131975000Y-94141307D01*
X132205635Y-94249694D01*
X132453954Y-94075002D01*
X133133000Y-94075002D01*
X133133000Y-94027552D01*
X133171081Y-94119715D01*
X133747252Y-94696892D01*
X134500441Y-95009643D01*
X135315981Y-95010355D01*
X136069715Y-94698919D01*
X136646892Y-94122748D01*
X136959643Y-93369559D01*
X136960355Y-92554019D01*
X136648919Y-91800285D01*
X136099593Y-91250000D01*
X138721316Y-91250000D01*
X138173108Y-91797252D01*
X137860357Y-92550441D01*
X137859645Y-93365981D01*
X138171081Y-94119715D01*
X138747252Y-94696892D01*
X139500441Y-95009643D01*
X140315981Y-95010355D01*
X141069715Y-94698919D01*
X141646892Y-94122748D01*
X141959643Y-93369559D01*
X141960355Y-92554019D01*
X141648919Y-91800285D01*
X141099593Y-91250000D01*
X143260575Y-91250000D01*
X143110269Y-91350431D01*
X142665885Y-92015499D01*
X142509838Y-92800000D01*
X142665885Y-93584501D01*
X143110269Y-94249569D01*
X143775337Y-94693953D01*
X144559838Y-94850000D01*
X144640162Y-94850000D01*
X145424663Y-94693953D01*
X146089731Y-94249569D01*
X146534115Y-93584501D01*
X146690162Y-92800000D01*
X146534115Y-92015499D01*
X146089731Y-91350431D01*
X145939425Y-91250000D01*
X153251036Y-91250000D01*
X152863108Y-91637252D01*
X152550357Y-92390441D01*
X152549645Y-93205981D01*
X152861081Y-93959715D01*
X153437252Y-94536892D01*
X154190441Y-94849643D01*
X155005981Y-94850355D01*
X155759715Y-94538919D01*
X156336892Y-93962748D01*
X156649643Y-93209559D01*
X156650199Y-92573099D01*
X157267094Y-93191071D01*
X158130505Y-93549591D01*
X159065393Y-93550407D01*
X159929429Y-93193395D01*
X160591071Y-92532906D01*
X160949591Y-91669495D01*
X160949957Y-91250000D01*
X171249956Y-91250000D01*
X171249593Y-91665393D01*
X171606605Y-92529429D01*
X172267094Y-93191071D01*
X173130505Y-93549591D01*
X174065393Y-93550407D01*
X174929429Y-93193395D01*
X175591071Y-92532906D01*
X175949591Y-91669495D01*
X175949957Y-91250000D01*
X186282948Y-91250000D01*
X186421780Y-91586000D01*
X187110375Y-92275798D01*
X188010527Y-92649573D01*
X188985197Y-92650424D01*
X189886000Y-92278220D01*
X189933497Y-92230805D01*
X231334881Y-92230805D01*
X231419983Y-92478846D01*
X232030064Y-92588239D01*
X232580017Y-92478846D01*
X232665119Y-92230805D01*
X232000000Y-91565685D01*
X231334881Y-92230805D01*
X189933497Y-92230805D01*
X190575798Y-91589625D01*
X190808147Y-91030064D01*
X230411761Y-91030064D01*
X230521154Y-91580017D01*
X230769195Y-91665119D01*
X231434315Y-91000000D01*
X232565685Y-91000000D01*
X233230805Y-91665119D01*
X233478846Y-91580017D01*
X233588239Y-90969936D01*
X233478846Y-90419983D01*
X233230805Y-90334881D01*
X232565685Y-91000000D01*
X231434315Y-91000000D01*
X230769195Y-90334881D01*
X230521154Y-90419983D01*
X230411761Y-91030064D01*
X190808147Y-91030064D01*
X190949573Y-90689473D01*
X190950376Y-89769195D01*
X231334881Y-89769195D01*
X232000000Y-90434315D01*
X232665119Y-89769195D01*
X232580017Y-89521154D01*
X231969936Y-89411761D01*
X231419983Y-89521154D01*
X231334881Y-89769195D01*
X190950376Y-89769195D01*
X190950424Y-89714803D01*
X190578220Y-88814000D01*
X190309299Y-88544609D01*
X234169523Y-88544609D01*
X234587304Y-89555715D01*
X235360216Y-90329977D01*
X235866003Y-90539998D01*
X235364285Y-90747304D01*
X234590023Y-91520216D01*
X234170478Y-92530591D01*
X234169523Y-93624609D01*
X234587304Y-94635715D01*
X235360216Y-95409977D01*
X236370591Y-95829522D01*
X237464609Y-95830477D01*
X238475715Y-95412696D01*
X239249977Y-94639784D01*
X239507541Y-94019500D01*
X239742000Y-94019500D01*
X239742000Y-94730775D01*
X239857398Y-95009372D01*
X240070627Y-95222601D01*
X240349224Y-95338000D01*
X241060500Y-95338000D01*
X241250000Y-95148500D01*
X241250000Y-93830000D01*
X242750000Y-93830000D01*
X242750000Y-95148500D01*
X242939500Y-95338000D01*
X243650776Y-95338000D01*
X243929373Y-95222601D01*
X244142602Y-95009372D01*
X244150833Y-94989500D01*
X251042000Y-94989500D01*
X251042000Y-95550776D01*
X251157399Y-95829373D01*
X251370628Y-96042602D01*
X251649225Y-96158000D01*
X252210500Y-96158000D01*
X252400000Y-95968500D01*
X252400000Y-94800000D01*
X253600000Y-94800000D01*
X253600000Y-95968500D01*
X253789500Y-96158000D01*
X254350775Y-96158000D01*
X254629372Y-96042602D01*
X254842601Y-95829373D01*
X254958000Y-95550776D01*
X254958000Y-94989500D01*
X254768500Y-94800000D01*
X253600000Y-94800000D01*
X252400000Y-94800000D01*
X251231500Y-94800000D01*
X251042000Y-94989500D01*
X244150833Y-94989500D01*
X244258000Y-94730775D01*
X244258000Y-94019500D01*
X244068500Y-93830000D01*
X242750000Y-93830000D01*
X241250000Y-93830000D01*
X239931500Y-93830000D01*
X239742000Y-94019500D01*
X239507541Y-94019500D01*
X239669522Y-93629409D01*
X239670203Y-92849224D01*
X251042000Y-92849224D01*
X251042000Y-93410500D01*
X251231500Y-93600000D01*
X252400000Y-93600000D01*
X252400000Y-92431500D01*
X253600000Y-92431500D01*
X253600000Y-93600000D01*
X254768500Y-93600000D01*
X254958000Y-93410500D01*
X254958000Y-92849224D01*
X254842601Y-92570627D01*
X254811199Y-92539225D01*
X261852000Y-92539225D01*
X261852000Y-92925500D01*
X262041500Y-93115000D01*
X263035000Y-93115000D01*
X263035000Y-92121500D01*
X262845500Y-91932000D01*
X262459224Y-91932000D01*
X262180627Y-92047399D01*
X261967398Y-92260628D01*
X261852000Y-92539225D01*
X254811199Y-92539225D01*
X254629372Y-92357398D01*
X254350775Y-92242000D01*
X253789500Y-92242000D01*
X253600000Y-92431500D01*
X252400000Y-92431500D01*
X252210500Y-92242000D01*
X251649225Y-92242000D01*
X251370628Y-92357398D01*
X251157399Y-92570627D01*
X251042000Y-92849224D01*
X239670203Y-92849224D01*
X239670477Y-92535391D01*
X239252696Y-91524285D01*
X239157802Y-91429225D01*
X239742000Y-91429225D01*
X239742000Y-92140500D01*
X239931500Y-92330000D01*
X241250000Y-92330000D01*
X241250000Y-91011500D01*
X242750000Y-91011500D01*
X242750000Y-92330000D01*
X244068500Y-92330000D01*
X244258000Y-92140500D01*
X244258000Y-91429225D01*
X244142602Y-91150628D01*
X243929373Y-90937399D01*
X243650776Y-90822000D01*
X242939500Y-90822000D01*
X242750000Y-91011500D01*
X241250000Y-91011500D01*
X241060500Y-90822000D01*
X240349224Y-90822000D01*
X240070627Y-90937399D01*
X239857398Y-91150628D01*
X239742000Y-91429225D01*
X239157802Y-91429225D01*
X238479784Y-90750023D01*
X237973997Y-90540002D01*
X238475715Y-90332696D01*
X239249977Y-89559784D01*
X239507541Y-88939500D01*
X239742000Y-88939500D01*
X239742000Y-89650775D01*
X239857398Y-89929372D01*
X240070627Y-90142601D01*
X240349224Y-90258000D01*
X241060500Y-90258000D01*
X241250000Y-90068500D01*
X241250000Y-88750000D01*
X242750000Y-88750000D01*
X242750000Y-90068500D01*
X242939500Y-90258000D01*
X243650776Y-90258000D01*
X243929373Y-90142601D01*
X244142602Y-89929372D01*
X244258000Y-89650775D01*
X244258000Y-88939500D01*
X244068500Y-88750000D01*
X242750000Y-88750000D01*
X241250000Y-88750000D01*
X239931500Y-88750000D01*
X239742000Y-88939500D01*
X239507541Y-88939500D01*
X239669522Y-88549409D01*
X239670477Y-87455391D01*
X239252696Y-86444285D01*
X239157802Y-86349225D01*
X239742000Y-86349225D01*
X239742000Y-87060500D01*
X239931500Y-87250000D01*
X241250000Y-87250000D01*
X241250000Y-85931500D01*
X242750000Y-85931500D01*
X242750000Y-87250000D01*
X244068500Y-87250000D01*
X244133303Y-87185197D01*
X250549576Y-87185197D01*
X250921780Y-88086000D01*
X251610375Y-88775798D01*
X252510527Y-89149573D01*
X253485197Y-89150424D01*
X254386000Y-88778220D01*
X255075798Y-88089625D01*
X255449573Y-87189473D01*
X255450424Y-86214803D01*
X255078220Y-85314000D01*
X254389625Y-84624202D01*
X253489473Y-84250427D01*
X252514803Y-84249576D01*
X251614000Y-84621780D01*
X250924202Y-85310375D01*
X250550427Y-86210527D01*
X250549576Y-87185197D01*
X244133303Y-87185197D01*
X244258000Y-87060500D01*
X244258000Y-86349225D01*
X244142602Y-86070628D01*
X243929373Y-85857399D01*
X243650776Y-85742000D01*
X242939500Y-85742000D01*
X242750000Y-85931500D01*
X241250000Y-85931500D01*
X241060500Y-85742000D01*
X240349224Y-85742000D01*
X240070627Y-85857399D01*
X239857398Y-86070628D01*
X239742000Y-86349225D01*
X239157802Y-86349225D01*
X238479784Y-85670023D01*
X237469409Y-85250478D01*
X236375391Y-85249523D01*
X235364285Y-85667304D01*
X234590023Y-86440216D01*
X234170478Y-87450591D01*
X234169523Y-88544609D01*
X190309299Y-88544609D01*
X189889625Y-88124202D01*
X188989473Y-87750427D01*
X188250000Y-87749781D01*
X188250000Y-86627212D01*
X188334488Y-86210000D01*
X188334488Y-84690000D01*
X188247327Y-84226778D01*
X188201771Y-84155981D01*
X190699645Y-84155981D01*
X191011081Y-84909715D01*
X191587252Y-85486892D01*
X192340441Y-85799643D01*
X193155981Y-85800355D01*
X193909715Y-85488919D01*
X194486892Y-84912748D01*
X194799643Y-84159559D01*
X194800355Y-83344019D01*
X194488919Y-82590285D01*
X193912748Y-82013108D01*
X193159559Y-81700357D01*
X192344019Y-81699645D01*
X191590285Y-82011081D01*
X191013108Y-82587252D01*
X190700357Y-83340441D01*
X190699645Y-84155981D01*
X188201771Y-84155981D01*
X187973563Y-83801337D01*
X187555847Y-83515924D01*
X187060000Y-83415512D01*
X185540000Y-83415512D01*
X185076778Y-83502673D01*
X184776693Y-83695773D01*
X184161568Y-83440350D01*
X183361940Y-83439652D01*
X182622914Y-83745012D01*
X182490264Y-83877431D01*
X182360060Y-83746999D01*
X181621568Y-83440350D01*
X180821940Y-83439652D01*
X180082914Y-83745012D01*
X179516999Y-84309940D01*
X179210350Y-85048432D01*
X179209738Y-85750000D01*
X157078839Y-85750000D01*
X157034388Y-85705471D01*
X156299570Y-85400348D01*
X155699876Y-85399825D01*
X155799643Y-85159559D01*
X155800355Y-84344019D01*
X155488919Y-83590285D01*
X155053412Y-83154018D01*
X155209731Y-83049569D01*
X155654115Y-82384501D01*
X155810162Y-81600000D01*
X155654115Y-80815499D01*
X155209731Y-80150431D01*
X154544663Y-79706047D01*
X153760162Y-79550000D01*
X153679838Y-79550000D01*
X152895337Y-79706047D01*
X152230269Y-80150431D01*
X151785885Y-80815499D01*
X151629838Y-81600000D01*
X151785885Y-82384501D01*
X152230269Y-83049569D01*
X152422836Y-83178238D01*
X152013108Y-83587252D01*
X151700357Y-84340441D01*
X151699645Y-85155981D01*
X151945088Y-85750000D01*
X147920123Y-85750000D01*
X148064115Y-85534501D01*
X148220162Y-84750000D01*
X148064115Y-83965499D01*
X147619731Y-83300431D01*
X147427164Y-83171762D01*
X147836892Y-82762748D01*
X148149643Y-82009559D01*
X148150355Y-81194019D01*
X147838919Y-80440285D01*
X147262748Y-79863108D01*
X146509559Y-79550357D01*
X145694019Y-79549645D01*
X144940285Y-79861081D01*
X144363108Y-80437252D01*
X144050357Y-81190441D01*
X144049645Y-82005981D01*
X144361081Y-82759715D01*
X144796588Y-83195982D01*
X144640269Y-83300431D01*
X144195885Y-83965499D01*
X144039838Y-84750000D01*
X144195885Y-85534501D01*
X144339877Y-85750000D01*
X101684488Y-85750000D01*
X101684488Y-84240000D01*
X101618658Y-83890138D01*
X134799658Y-83890138D01*
X135098941Y-84614458D01*
X135652627Y-85169111D01*
X136376424Y-85469658D01*
X137160138Y-85470342D01*
X137884458Y-85171059D01*
X138039785Y-85016002D01*
X138192627Y-85169111D01*
X138916424Y-85469658D01*
X139700138Y-85470342D01*
X140424458Y-85171059D01*
X140579785Y-85016002D01*
X140732627Y-85169111D01*
X141456424Y-85469658D01*
X142240138Y-85470342D01*
X142964458Y-85171059D01*
X143519111Y-84617373D01*
X143819658Y-83893576D01*
X143820342Y-83109862D01*
X143521059Y-82385542D01*
X142967373Y-81830889D01*
X142243576Y-81530342D01*
X141459862Y-81529658D01*
X140735542Y-81828941D01*
X140580215Y-81983998D01*
X140427373Y-81830889D01*
X139703576Y-81530342D01*
X138919862Y-81529658D01*
X138195542Y-81828941D01*
X138040215Y-81983998D01*
X137887373Y-81830889D01*
X137163576Y-81530342D01*
X136379862Y-81529658D01*
X135655542Y-81828941D01*
X135100889Y-82382627D01*
X134800342Y-83106424D01*
X134799658Y-83890138D01*
X101618658Y-83890138D01*
X101597327Y-83776778D01*
X101323563Y-83351337D01*
X100905847Y-83065924D01*
X100410000Y-82965512D01*
X98890000Y-82965512D01*
X98426778Y-83052673D01*
X98126693Y-83245773D01*
X97511568Y-82990350D01*
X96711940Y-82989652D01*
X95972914Y-83295012D01*
X95840264Y-83427431D01*
X95710060Y-83296999D01*
X94971568Y-82990350D01*
X94171940Y-82989652D01*
X93432914Y-83295012D01*
X92866999Y-83859940D01*
X92560350Y-84598432D01*
X92559652Y-85398060D01*
X92705071Y-85750000D01*
X91848778Y-85750000D01*
X91889650Y-85651568D01*
X91890348Y-84851940D01*
X91584988Y-84112914D01*
X91020060Y-83546999D01*
X90281568Y-83240350D01*
X89481940Y-83239652D01*
X88742914Y-83545012D01*
X88610264Y-83677431D01*
X88480060Y-83546999D01*
X87741568Y-83240350D01*
X86941940Y-83239652D01*
X86320202Y-83496550D01*
X86055847Y-83315924D01*
X85560000Y-83215512D01*
X84040000Y-83215512D01*
X83576778Y-83302673D01*
X83151337Y-83576437D01*
X82865924Y-83994153D01*
X82765512Y-84490000D01*
X82765512Y-85750000D01*
X78556922Y-85750000D01*
X78906345Y-85401187D01*
X79249608Y-84574516D01*
X79250390Y-83679411D01*
X78908569Y-82852142D01*
X78276187Y-82218655D01*
X77449516Y-81875392D01*
X76554411Y-81874610D01*
X75727142Y-82216431D01*
X75093655Y-82848813D01*
X74750392Y-83675484D01*
X74749610Y-84570589D01*
X75091431Y-85397858D01*
X75442959Y-85750000D01*
X55891352Y-85750000D01*
X55349291Y-85207939D01*
X55007769Y-85549461D01*
X54686072Y-85508482D01*
X54615324Y-85522554D01*
X54300709Y-85207939D01*
X53758648Y-85750000D01*
X44502790Y-85750000D01*
X44413563Y-85611337D01*
X43995847Y-85325924D01*
X43500000Y-85225512D01*
X40500000Y-85225512D01*
X40036778Y-85312673D01*
X39611337Y-85586437D01*
X39499579Y-85750000D01*
X37918928Y-85750000D01*
X37660579Y-85491651D01*
X37402230Y-85750000D01*
X37112783Y-85750000D01*
X36698851Y-85708408D01*
X36489756Y-85750000D01*
X36437770Y-85750000D01*
X36179421Y-85491651D01*
X35921072Y-85750000D01*
X27325000Y-85750000D01*
X27325000Y-83939049D01*
X27500000Y-83974488D01*
X29700000Y-83974488D01*
X30163222Y-83887327D01*
X30588663Y-83613563D01*
X30874076Y-83195847D01*
X30974488Y-82700000D01*
X30974488Y-80500000D01*
X30887327Y-80036778D01*
X30741340Y-79809909D01*
X30771117Y-79765345D01*
X30913407Y-79050000D01*
X37375512Y-79050000D01*
X37375512Y-81450000D01*
X37462673Y-81913222D01*
X37736437Y-82338663D01*
X38154153Y-82624076D01*
X38650000Y-82724488D01*
X41050000Y-82724488D01*
X41513222Y-82637327D01*
X41938663Y-82363563D01*
X42224076Y-81945847D01*
X42324488Y-81450000D01*
X42324488Y-79050000D01*
X52150512Y-79050000D01*
X52150512Y-81450000D01*
X52237673Y-81913222D01*
X52511437Y-82338663D01*
X52929153Y-82624076D01*
X53425000Y-82724488D01*
X55825000Y-82724488D01*
X56288222Y-82637327D01*
X56713663Y-82363563D01*
X56999076Y-81945847D01*
X57099488Y-81450000D01*
X57099488Y-79050000D01*
X57012327Y-78586778D01*
X56738563Y-78161337D01*
X56432191Y-77952002D01*
X62475000Y-77952002D01*
X62475000Y-78047998D01*
X62661495Y-78985572D01*
X63192588Y-79780410D01*
X63987426Y-80311503D01*
X64925000Y-80497998D01*
X65862574Y-80311503D01*
X66657412Y-79780410D01*
X67024166Y-79231524D01*
X67379153Y-79474076D01*
X67875000Y-79574488D01*
X70075000Y-79574488D01*
X70538222Y-79487327D01*
X70963663Y-79213563D01*
X71249076Y-78795847D01*
X71349488Y-78300000D01*
X71349488Y-78125000D01*
X74725512Y-78125000D01*
X74725512Y-80125000D01*
X74812673Y-80588222D01*
X75086437Y-81013663D01*
X75504153Y-81299076D01*
X76000000Y-81399488D01*
X78000000Y-81399488D01*
X78463222Y-81312327D01*
X78628488Y-81205981D01*
X102949645Y-81205981D01*
X103261081Y-81959715D01*
X103837252Y-82536892D01*
X104590441Y-82849643D01*
X105405981Y-82850355D01*
X106159715Y-82538919D01*
X106736892Y-81962748D01*
X107049643Y-81209559D01*
X107050355Y-80394019D01*
X106738919Y-79640285D01*
X106598879Y-79500000D01*
X117375512Y-79500000D01*
X117375512Y-81300000D01*
X117462673Y-81763222D01*
X117736437Y-82188663D01*
X118154153Y-82474076D01*
X118650000Y-82574488D01*
X120450000Y-82574488D01*
X120913222Y-82487327D01*
X121149093Y-82335548D01*
X121225110Y-82386341D01*
X122047879Y-82550000D01*
X122132121Y-82550000D01*
X122954890Y-82386341D01*
X123360000Y-82115656D01*
X123765110Y-82386341D01*
X124587879Y-82550000D01*
X124672121Y-82550000D01*
X125494890Y-82386341D01*
X126192401Y-81920280D01*
X126658462Y-81222769D01*
X126822121Y-80400000D01*
X126658462Y-79577231D01*
X126192401Y-78879720D01*
X125494890Y-78413659D01*
X124672121Y-78250000D01*
X124587879Y-78250000D01*
X123765110Y-78413659D01*
X123360000Y-78684344D01*
X122954890Y-78413659D01*
X122132121Y-78250000D01*
X122047879Y-78250000D01*
X121225110Y-78413659D01*
X121148838Y-78464622D01*
X120945847Y-78325924D01*
X120450000Y-78225512D01*
X118650000Y-78225512D01*
X118186778Y-78312673D01*
X117761337Y-78586437D01*
X117475924Y-79004153D01*
X117375512Y-79500000D01*
X106598879Y-79500000D01*
X106162748Y-79063108D01*
X105409559Y-78750357D01*
X104594019Y-78749645D01*
X103840285Y-79061081D01*
X103263108Y-79637252D01*
X102950357Y-80390441D01*
X102949645Y-81205981D01*
X78628488Y-81205981D01*
X78888663Y-81038563D01*
X79174076Y-80620847D01*
X79274488Y-80125000D01*
X79274488Y-79430635D01*
X82975306Y-79430635D01*
X83325088Y-79927838D01*
X83769369Y-80224665D01*
X84000000Y-80108737D01*
X84000000Y-79200000D01*
X84800000Y-79200000D01*
X84800000Y-80108737D01*
X85030631Y-80224665D01*
X85474912Y-79927838D01*
X85824694Y-79430635D01*
X85716307Y-79200000D01*
X84800000Y-79200000D01*
X84000000Y-79200000D01*
X83083693Y-79200000D01*
X82975306Y-79430635D01*
X79274488Y-79430635D01*
X79274488Y-78169365D01*
X82975306Y-78169365D01*
X83083693Y-78400000D01*
X84000000Y-78400000D01*
X84000000Y-77491263D01*
X84800000Y-77491263D01*
X84800000Y-78400000D01*
X85716307Y-78400000D01*
X85824694Y-78169365D01*
X85474912Y-77672162D01*
X85030631Y-77375335D01*
X84800000Y-77491263D01*
X84000000Y-77491263D01*
X83769369Y-77375335D01*
X83325088Y-77672162D01*
X82975306Y-78169365D01*
X79274488Y-78169365D01*
X79274488Y-78125000D01*
X79187327Y-77661778D01*
X78913563Y-77236337D01*
X78495847Y-76950924D01*
X78000000Y-76850512D01*
X76000000Y-76850512D01*
X75536778Y-76937673D01*
X75111337Y-77211437D01*
X74825924Y-77629153D01*
X74725512Y-78125000D01*
X71349488Y-78125000D01*
X71349488Y-76405981D01*
X87149645Y-76405981D01*
X87461081Y-77159715D01*
X88037252Y-77736892D01*
X88790441Y-78049643D01*
X89605981Y-78050355D01*
X90359715Y-77738919D01*
X90936892Y-77162748D01*
X91249643Y-76409559D01*
X91249646Y-76405981D01*
X95549645Y-76405981D01*
X95861081Y-77159715D01*
X96437252Y-77736892D01*
X97190441Y-78049643D01*
X98005981Y-78050355D01*
X98759715Y-77738919D01*
X99300437Y-77199140D01*
X99837252Y-77736892D01*
X100590441Y-78049643D01*
X101405981Y-78050355D01*
X102159715Y-77738919D01*
X102736892Y-77162748D01*
X102845994Y-76900000D01*
X161025512Y-76900000D01*
X161025512Y-78700000D01*
X161112673Y-79163222D01*
X161386437Y-79588663D01*
X161804153Y-79874076D01*
X162300000Y-79974488D01*
X164100000Y-79974488D01*
X164563222Y-79887327D01*
X164799093Y-79735548D01*
X164875110Y-79786341D01*
X165697879Y-79950000D01*
X165782121Y-79950000D01*
X166604890Y-79786341D01*
X167010000Y-79515656D01*
X167415110Y-79786341D01*
X168237879Y-79950000D01*
X168322121Y-79950000D01*
X169144890Y-79786341D01*
X169842401Y-79320280D01*
X170308462Y-78622769D01*
X170472121Y-77800000D01*
X170308462Y-76977231D01*
X169842401Y-76279720D01*
X169144890Y-75813659D01*
X168322121Y-75650000D01*
X168237879Y-75650000D01*
X167415110Y-75813659D01*
X167010000Y-76084344D01*
X166604890Y-75813659D01*
X165782121Y-75650000D01*
X165697879Y-75650000D01*
X164875110Y-75813659D01*
X164798838Y-75864622D01*
X164595847Y-75725924D01*
X164100000Y-75625512D01*
X162300000Y-75625512D01*
X161836778Y-75712673D01*
X161411337Y-75986437D01*
X161125924Y-76404153D01*
X161025512Y-76900000D01*
X102845994Y-76900000D01*
X103049643Y-76409559D01*
X103050355Y-75594019D01*
X102738919Y-74840285D01*
X102162748Y-74263108D01*
X101409559Y-73950357D01*
X100594019Y-73949645D01*
X99840285Y-74261081D01*
X99299563Y-74800860D01*
X98762748Y-74263108D01*
X98009559Y-73950357D01*
X97194019Y-73949645D01*
X96440285Y-74261081D01*
X95863108Y-74837252D01*
X95550357Y-75590441D01*
X95549645Y-76405981D01*
X91249646Y-76405981D01*
X91250355Y-75594019D01*
X90938919Y-74840285D01*
X90362748Y-74263108D01*
X89609559Y-73950357D01*
X88794019Y-73949645D01*
X88040285Y-74261081D01*
X87463108Y-74837252D01*
X87150357Y-75590441D01*
X87149645Y-76405981D01*
X71349488Y-76405981D01*
X71349488Y-76100000D01*
X71262327Y-75636778D01*
X70988563Y-75211337D01*
X70570847Y-74925924D01*
X70075000Y-74825512D01*
X67875000Y-74825512D01*
X67411778Y-74912673D01*
X66986337Y-75186437D01*
X66700924Y-75604153D01*
X66600512Y-76100000D01*
X66600512Y-76181571D01*
X65862574Y-75688497D01*
X64925000Y-75502002D01*
X63987426Y-75688497D01*
X63192588Y-76219590D01*
X62661495Y-77014428D01*
X62475000Y-77952002D01*
X56432191Y-77952002D01*
X56320847Y-77875924D01*
X55825000Y-77775512D01*
X53425000Y-77775512D01*
X52961778Y-77862673D01*
X52536337Y-78136437D01*
X52250924Y-78554153D01*
X52150512Y-79050000D01*
X42324488Y-79050000D01*
X42237327Y-78586778D01*
X41963563Y-78161337D01*
X41545847Y-77875924D01*
X41050000Y-77775512D01*
X38650000Y-77775512D01*
X38186778Y-77862673D01*
X37761337Y-78136437D01*
X37475924Y-78554153D01*
X37375512Y-79050000D01*
X30913407Y-79050000D01*
X30950000Y-78866039D01*
X30950000Y-78773961D01*
X30771117Y-77874655D01*
X30261701Y-77112260D01*
X29499306Y-76602844D01*
X28600000Y-76423961D01*
X27700694Y-76602844D01*
X27325000Y-76853875D01*
X27325000Y-74379407D01*
X39069121Y-74379407D01*
X39216232Y-74643089D01*
X39988928Y-74741518D01*
X40483768Y-74643089D01*
X40630879Y-74379407D01*
X53844121Y-74379407D01*
X53991232Y-74643089D01*
X54763928Y-74741518D01*
X55258768Y-74643089D01*
X55405879Y-74379407D01*
X54625000Y-73598528D01*
X53844121Y-74379407D01*
X40630879Y-74379407D01*
X39850000Y-73598528D01*
X39069121Y-74379407D01*
X27325000Y-74379407D01*
X27325000Y-73539049D01*
X27500000Y-73574488D01*
X29700000Y-73574488D01*
X30163222Y-73487327D01*
X30588663Y-73213563D01*
X30810476Y-72888928D01*
X37858482Y-72888928D01*
X37956911Y-73383768D01*
X38220593Y-73530879D01*
X39001472Y-72750000D01*
X40698528Y-72750000D01*
X41479407Y-73530879D01*
X41743089Y-73383768D01*
X41806123Y-72888928D01*
X52633482Y-72888928D01*
X52731911Y-73383768D01*
X52995593Y-73530879D01*
X53776472Y-72750000D01*
X55473528Y-72750000D01*
X56254407Y-73530879D01*
X56518089Y-73383768D01*
X56579713Y-72900000D01*
X112962002Y-72900000D01*
X113148497Y-73837574D01*
X113679590Y-74632412D01*
X114474428Y-75163505D01*
X115412002Y-75350000D01*
X115507998Y-75350000D01*
X116445572Y-75163505D01*
X117240410Y-74632412D01*
X117771503Y-73837574D01*
X117861486Y-73385197D01*
X128249576Y-73385197D01*
X128621780Y-74286000D01*
X129310375Y-74975798D01*
X130210527Y-75349573D01*
X131185197Y-75350424D01*
X132086000Y-74978220D01*
X132775798Y-74289625D01*
X133062154Y-73600000D01*
X144727879Y-73600000D01*
X144891538Y-74422769D01*
X145357599Y-75120280D01*
X146055110Y-75586341D01*
X146877879Y-75750000D01*
X146962121Y-75750000D01*
X147784890Y-75586341D01*
X148190000Y-75315656D01*
X148595110Y-75586341D01*
X149417879Y-75750000D01*
X149502121Y-75750000D01*
X150324890Y-75586341D01*
X150401162Y-75535378D01*
X150604153Y-75674076D01*
X151100000Y-75774488D01*
X152900000Y-75774488D01*
X153363222Y-75687327D01*
X153788663Y-75413563D01*
X154074076Y-74995847D01*
X154174488Y-74500000D01*
X154174488Y-72700000D01*
X154087327Y-72236778D01*
X153813563Y-71811337D01*
X153395847Y-71525924D01*
X152900000Y-71425512D01*
X151100000Y-71425512D01*
X150636778Y-71512673D01*
X150400907Y-71664452D01*
X150324890Y-71613659D01*
X149502121Y-71450000D01*
X149417879Y-71450000D01*
X148595110Y-71613659D01*
X148190000Y-71884344D01*
X147784890Y-71613659D01*
X146962121Y-71450000D01*
X146877879Y-71450000D01*
X146055110Y-71613659D01*
X145357599Y-72079720D01*
X144891538Y-72777231D01*
X144727879Y-73600000D01*
X133062154Y-73600000D01*
X133149573Y-73389473D01*
X133150424Y-72414803D01*
X132778220Y-71514000D01*
X132089625Y-70824202D01*
X131189473Y-70450427D01*
X130214803Y-70449576D01*
X129314000Y-70821780D01*
X128624202Y-71510375D01*
X128250427Y-72410527D01*
X128249576Y-73385197D01*
X117861486Y-73385197D01*
X117957998Y-72900000D01*
X117771503Y-71962426D01*
X117240410Y-71167588D01*
X116445572Y-70636495D01*
X115507998Y-70450000D01*
X115412002Y-70450000D01*
X114474428Y-70636495D01*
X113679590Y-71167588D01*
X113148497Y-71962426D01*
X112962002Y-72900000D01*
X56579713Y-72900000D01*
X56616518Y-72611072D01*
X56518089Y-72116232D01*
X56254407Y-71969121D01*
X55473528Y-72750000D01*
X53776472Y-72750000D01*
X52995593Y-71969121D01*
X52731911Y-72116232D01*
X52633482Y-72888928D01*
X41806123Y-72888928D01*
X41841518Y-72611072D01*
X41743089Y-72116232D01*
X41479407Y-71969121D01*
X40698528Y-72750000D01*
X39001472Y-72750000D01*
X38220593Y-71969121D01*
X37956911Y-72116232D01*
X37858482Y-72888928D01*
X30810476Y-72888928D01*
X30874076Y-72795847D01*
X30974488Y-72300000D01*
X30974488Y-70927513D01*
X31540000Y-71040000D01*
X39114085Y-71040000D01*
X39069121Y-71120593D01*
X39850000Y-71901472D01*
X40630879Y-71120593D01*
X40585915Y-71040000D01*
X53889085Y-71040000D01*
X53844121Y-71120593D01*
X54625000Y-71901472D01*
X55405879Y-71120593D01*
X55317871Y-70962848D01*
X55791038Y-70868729D01*
X56520990Y-70380990D01*
X58651981Y-68250000D01*
X66725000Y-68250000D01*
X66725000Y-69031227D01*
X66725000Y-69031227D01*
G37*
X66725000Y-69031227D02*
X66625000Y-69533961D01*
X66625000Y-69626039D01*
X66803883Y-70525345D01*
X67313299Y-71287740D01*
X68075694Y-71797156D01*
X68975000Y-71976039D01*
X69874306Y-71797156D01*
X70636701Y-71287740D01*
X71146117Y-70525345D01*
X71325000Y-69626039D01*
X71325000Y-69533961D01*
X71225000Y-69031227D01*
X71225000Y-68250000D01*
X82408673Y-68250000D01*
X82350357Y-68390441D01*
X82349645Y-69205981D01*
X82661081Y-69959715D01*
X83237252Y-70536892D01*
X83990441Y-70849643D01*
X84805981Y-70850355D01*
X85559715Y-70538919D01*
X86136892Y-69962748D01*
X86449643Y-69209559D01*
X86450355Y-68394019D01*
X86390848Y-68250000D01*
X87167870Y-68250000D01*
X87150000Y-68339838D01*
X87150000Y-68420162D01*
X87306047Y-69204663D01*
X87750431Y-69869731D01*
X88415499Y-70314115D01*
X89200000Y-70470162D01*
X89984501Y-70314115D01*
X90649569Y-69869731D01*
X91093953Y-69204663D01*
X91250000Y-68420162D01*
X91250000Y-68339838D01*
X91232130Y-68250000D01*
X95567870Y-68250000D01*
X95550000Y-68339838D01*
X95550000Y-68420162D01*
X95706047Y-69204663D01*
X96150431Y-69869731D01*
X96815499Y-70314115D01*
X97600000Y-70470162D01*
X98384501Y-70314115D01*
X99049569Y-69869731D01*
X99300000Y-69494934D01*
X99550431Y-69869731D01*
X100215499Y-70314115D01*
X101000000Y-70470162D01*
X101784501Y-70314115D01*
X102449569Y-69869731D01*
X102893953Y-69204663D01*
X103027848Y-68531529D01*
X103106047Y-68924663D01*
X103550431Y-69589731D01*
X104215499Y-70034115D01*
X105000000Y-70190162D01*
X105784501Y-70034115D01*
X106449569Y-69589731D01*
X106893953Y-68924663D01*
X107028152Y-68250000D01*
X118525126Y-68250000D01*
X118661830Y-68386704D01*
X118539838Y-69000000D01*
X118695885Y-69784501D01*
X119140269Y-70449569D01*
X119805337Y-70893953D01*
X120589838Y-71050000D01*
X120670162Y-71050000D01*
X121454663Y-70893953D01*
X122119731Y-70449569D01*
X122564115Y-69784501D01*
X122720162Y-69000000D01*
X122570978Y-68250000D01*
X126341720Y-68250000D01*
X126200357Y-68590441D01*
X126199645Y-69405981D01*
X126511081Y-70159715D01*
X127087252Y-70736892D01*
X127840441Y-71049643D01*
X128655981Y-71050355D01*
X129409715Y-70738919D01*
X129986892Y-70162748D01*
X130299643Y-69409559D01*
X130300355Y-68594019D01*
X130158209Y-68250000D01*
X131341720Y-68250000D01*
X131200357Y-68590441D01*
X131199645Y-69405981D01*
X131511081Y-70159715D01*
X132087252Y-70736892D01*
X132840441Y-71049643D01*
X133655981Y-71050355D01*
X134409715Y-70738919D01*
X134577035Y-70571890D01*
X134626437Y-70648663D01*
X135044153Y-70934076D01*
X135540000Y-71034488D01*
X137060000Y-71034488D01*
X137523222Y-70947327D01*
X137823307Y-70754227D01*
X138438432Y-71009650D01*
X139238060Y-71010348D01*
X139977086Y-70704988D01*
X140109736Y-70572569D01*
X140239940Y-70703001D01*
X140978432Y-71009650D01*
X141778060Y-71010348D01*
X142517086Y-70704988D01*
X142633280Y-70588997D01*
X142904153Y-70774076D01*
X143400000Y-70874488D01*
X145000000Y-70874488D01*
X145463222Y-70787327D01*
X145888663Y-70513563D01*
X146174076Y-70095847D01*
X146274488Y-69600000D01*
X146274488Y-68250000D01*
X153315337Y-68250000D01*
X153200000Y-68829838D01*
X153200000Y-68910162D01*
X153356047Y-69694663D01*
X153800431Y-70359731D01*
X154465499Y-70804115D01*
X155250000Y-70960162D01*
X156034501Y-70804115D01*
X156699569Y-70359731D01*
X156814786Y-70187296D01*
X157129940Y-70503001D01*
X157868432Y-70809650D01*
X158668060Y-70810348D01*
X159407086Y-70504988D01*
X159539736Y-70372569D01*
X159669940Y-70503001D01*
X160408432Y-70809650D01*
X161208060Y-70810348D01*
X161829798Y-70553450D01*
X162094153Y-70734076D01*
X162590000Y-70834488D01*
X164110000Y-70834488D01*
X164573222Y-70747327D01*
X164817487Y-70590147D01*
X165079590Y-70982412D01*
X165874428Y-71513505D01*
X166812002Y-71700000D01*
X166907998Y-71700000D01*
X167845572Y-71513505D01*
X168640410Y-70982412D01*
X169171503Y-70187574D01*
X169357998Y-69250000D01*
X169171503Y-68312426D01*
X169129791Y-68250000D01*
X177050000Y-68250000D01*
X177050000Y-71418820D01*
X176750357Y-72140441D01*
X176749645Y-72955981D01*
X177061081Y-73709715D01*
X177356816Y-74005966D01*
X177290269Y-74050431D01*
X176845885Y-74715499D01*
X176689838Y-75500000D01*
X176845885Y-76284501D01*
X177290269Y-76949569D01*
X177955337Y-77393953D01*
X178739838Y-77550000D01*
X178820162Y-77550000D01*
X179604663Y-77393953D01*
X180269731Y-76949569D01*
X180714115Y-76284501D01*
X180870162Y-75500000D01*
X180714115Y-74715499D01*
X180269731Y-74050431D01*
X180227132Y-74021968D01*
X180536892Y-73712748D01*
X180849643Y-72959559D01*
X180850355Y-72144019D01*
X180550000Y-71417103D01*
X180550000Y-71165143D01*
X180710375Y-71325798D01*
X181610527Y-71699573D01*
X182585197Y-71700424D01*
X183486000Y-71328220D01*
X184175798Y-70639625D01*
X184209520Y-70558413D01*
X184637252Y-70986892D01*
X184926015Y-71106797D01*
X184485885Y-71765499D01*
X184329838Y-72550000D01*
X184485885Y-73334501D01*
X184930269Y-73999569D01*
X184972868Y-74028032D01*
X184663108Y-74337252D01*
X184350357Y-75090441D01*
X184349645Y-75905981D01*
X184661081Y-76659715D01*
X185237252Y-77236892D01*
X185990441Y-77549643D01*
X186805981Y-77550355D01*
X187122650Y-77419510D01*
X187550431Y-78059731D01*
X188215499Y-78504115D01*
X189000000Y-78660162D01*
X189784501Y-78504115D01*
X190449569Y-78059731D01*
X190893953Y-77394663D01*
X191050000Y-76610162D01*
X191050000Y-76529838D01*
X190893953Y-75745337D01*
X190822486Y-75638378D01*
X191090441Y-75749643D01*
X191905981Y-75750355D01*
X192659715Y-75438919D01*
X193236892Y-74862748D01*
X193549643Y-74109559D01*
X193550355Y-73294019D01*
X193238919Y-72540285D01*
X192662748Y-71963108D01*
X191909559Y-71650357D01*
X191094019Y-71649645D01*
X190340285Y-71961081D01*
X189763108Y-72537252D01*
X189450357Y-73290441D01*
X189449645Y-74105981D01*
X189658217Y-74610766D01*
X189000000Y-74479838D01*
X188257598Y-74627511D01*
X188138919Y-74340285D01*
X187843184Y-74044034D01*
X187909731Y-73999569D01*
X188354115Y-73334501D01*
X188510162Y-72550000D01*
X188354115Y-71765499D01*
X187909731Y-71100431D01*
X187273719Y-70675462D01*
X187536892Y-70412748D01*
X187544734Y-70393863D01*
X187837252Y-70686892D01*
X188590441Y-70999643D01*
X189405981Y-71000355D01*
X190159715Y-70688919D01*
X190736892Y-70112748D01*
X190763083Y-70049673D01*
X190812673Y-70313222D01*
X191086437Y-70738663D01*
X191504153Y-71024076D01*
X192000000Y-71124488D01*
X193600000Y-71124488D01*
X194063222Y-71037327D01*
X194328802Y-70866431D01*
X194890441Y-71099643D01*
X195705981Y-71100355D01*
X196459715Y-70788919D01*
X197036892Y-70212748D01*
X197045520Y-70191970D01*
X197236437Y-70488663D01*
X197654153Y-70774076D01*
X198150000Y-70874488D01*
X200350000Y-70874488D01*
X200750000Y-70799223D01*
X200750000Y-74304215D01*
X200149306Y-73902844D01*
X199250000Y-73723961D01*
X198549858Y-73863228D01*
X198550355Y-73294019D01*
X198238919Y-72540285D01*
X197662748Y-71963108D01*
X196909559Y-71650357D01*
X196094019Y-71649645D01*
X195340285Y-71961081D01*
X194763108Y-72537252D01*
X194450357Y-73290441D01*
X194449645Y-74105981D01*
X194761081Y-74859715D01*
X195337252Y-75436892D01*
X196090441Y-75749643D01*
X196905981Y-75750355D01*
X196969598Y-75724069D01*
X196900000Y-76073961D01*
X196900000Y-76166039D01*
X197078883Y-77065345D01*
X197185278Y-77224576D01*
X196925924Y-77604153D01*
X196825512Y-78100000D01*
X196825512Y-79900000D01*
X196912673Y-80363222D01*
X197063395Y-80597450D01*
X196850374Y-81110462D01*
X196849628Y-81965785D01*
X197176256Y-82756286D01*
X197780533Y-83361619D01*
X198570462Y-83689626D01*
X199425785Y-83690372D01*
X200216286Y-83363744D01*
X200750000Y-82830961D01*
X200750000Y-85000000D01*
X200769696Y-85097264D01*
X200825682Y-85179202D01*
X200909136Y-85232903D01*
X201000000Y-85250000D01*
X218000000Y-85250000D01*
X218097264Y-85230304D01*
X218179202Y-85174318D01*
X218232903Y-85090864D01*
X218250000Y-85000000D01*
X218250000Y-84592002D01*
X218550000Y-84592002D01*
X218550000Y-84687998D01*
X218736495Y-85625572D01*
X219267588Y-86420410D01*
X220062426Y-86951503D01*
X221000000Y-87137998D01*
X221937574Y-86951503D01*
X222732412Y-86420410D01*
X223263505Y-85625572D01*
X223450000Y-84687998D01*
X223450000Y-84592002D01*
X223263505Y-83654428D01*
X222732412Y-82859590D01*
X222652181Y-82805981D01*
X224749645Y-82805981D01*
X225061081Y-83559715D01*
X225637252Y-84136892D01*
X226390441Y-84449643D01*
X227205981Y-84450355D01*
X227959715Y-84138919D01*
X228536892Y-83562748D01*
X228849643Y-82809559D01*
X228850355Y-81994019D01*
X228538919Y-81240285D01*
X228258961Y-80959838D01*
X229950000Y-80959838D01*
X229950000Y-81040162D01*
X230106047Y-81824663D01*
X230550431Y-82489731D01*
X231215499Y-82934115D01*
X232000000Y-83090162D01*
X232784501Y-82934115D01*
X233449569Y-82489731D01*
X233893953Y-81824663D01*
X234050000Y-81040162D01*
X234050000Y-80959838D01*
X233893953Y-80175337D01*
X233502510Y-79589500D01*
X240042000Y-79589500D01*
X240042000Y-80150776D01*
X240157399Y-80429373D01*
X240370628Y-80642602D01*
X240649225Y-80758000D01*
X241210500Y-80758000D01*
X241400000Y-80568500D01*
X241400000Y-79400000D01*
X242600000Y-79400000D01*
X242600000Y-80568500D01*
X242789500Y-80758000D01*
X243350775Y-80758000D01*
X243629372Y-80642602D01*
X243842601Y-80429373D01*
X243958000Y-80150776D01*
X243958000Y-79589500D01*
X255442000Y-79589500D01*
X255442000Y-80150776D01*
X255557399Y-80429373D01*
X255770628Y-80642602D01*
X256049225Y-80758000D01*
X256610500Y-80758000D01*
X256800000Y-80568500D01*
X256800000Y-79400000D01*
X258000000Y-79400000D01*
X258000000Y-80568500D01*
X258189500Y-80758000D01*
X258750775Y-80758000D01*
X259029372Y-80642602D01*
X259242601Y-80429373D01*
X259358000Y-80150776D01*
X259358000Y-79589500D01*
X259168500Y-79400000D01*
X258000000Y-79400000D01*
X256800000Y-79400000D01*
X255631500Y-79400000D01*
X255442000Y-79589500D01*
X243958000Y-79589500D01*
X243768500Y-79400000D01*
X242600000Y-79400000D01*
X241400000Y-79400000D01*
X240231500Y-79400000D01*
X240042000Y-79589500D01*
X233502510Y-79589500D01*
X233450002Y-79510917D01*
X233450002Y-79478954D01*
X233624694Y-79230635D01*
X233516307Y-79000000D01*
X232600000Y-79000000D01*
X232600000Y-79029185D01*
X232000000Y-78909838D01*
X231546725Y-79000000D01*
X230883693Y-79000000D01*
X230775306Y-79230635D01*
X230837220Y-79318643D01*
X230550431Y-79510269D01*
X230106047Y-80175337D01*
X229950000Y-80959838D01*
X228258961Y-80959838D01*
X227962748Y-80663108D01*
X227209559Y-80350357D01*
X226394019Y-80349645D01*
X225640285Y-80661081D01*
X225063108Y-81237252D01*
X224750357Y-81990441D01*
X224749645Y-82805981D01*
X222652181Y-82805981D01*
X221937574Y-82328497D01*
X221000000Y-82142002D01*
X220062426Y-82328497D01*
X219267588Y-82859590D01*
X218736495Y-83654428D01*
X218550000Y-84592002D01*
X218250000Y-84592002D01*
X218250000Y-77969365D01*
X230775306Y-77969365D01*
X230883693Y-78200000D01*
X231800000Y-78200000D01*
X231800000Y-77291263D01*
X232600000Y-77291263D01*
X232600000Y-78200000D01*
X233516307Y-78200000D01*
X233624694Y-77969365D01*
X233274912Y-77472162D01*
X233240580Y-77449224D01*
X240042000Y-77449224D01*
X240042000Y-78010500D01*
X240231500Y-78200000D01*
X241400000Y-78200000D01*
X241400000Y-77031500D01*
X242600000Y-77031500D01*
X242600000Y-78200000D01*
X243768500Y-78200000D01*
X243958000Y-78010500D01*
X243958000Y-77449224D01*
X255442000Y-77449224D01*
X255442000Y-78010500D01*
X255631500Y-78200000D01*
X256800000Y-78200000D01*
X256800000Y-77031500D01*
X258000000Y-77031500D01*
X258000000Y-78200000D01*
X259168500Y-78200000D01*
X259358000Y-78010500D01*
X259358000Y-77449224D01*
X259242601Y-77170627D01*
X259029372Y-76957398D01*
X258750775Y-76842000D01*
X258189500Y-76842000D01*
X258000000Y-77031500D01*
X256800000Y-77031500D01*
X256610500Y-76842000D01*
X256049225Y-76842000D01*
X255770628Y-76957398D01*
X255557399Y-77170627D01*
X255442000Y-77449224D01*
X243958000Y-77449224D01*
X243842601Y-77170627D01*
X243629372Y-76957398D01*
X243350775Y-76842000D01*
X242789500Y-76842000D01*
X242600000Y-77031500D01*
X241400000Y-77031500D01*
X241210500Y-76842000D01*
X240649225Y-76842000D01*
X240370628Y-76957398D01*
X240157399Y-77170627D01*
X240042000Y-77449224D01*
X233240580Y-77449224D01*
X232830631Y-77175335D01*
X232600000Y-77291263D01*
X231800000Y-77291263D01*
X231569369Y-77175335D01*
X231125088Y-77472162D01*
X230775306Y-77969365D01*
X218250000Y-77969365D01*
X218250000Y-68250000D01*
X218750000Y-68250000D01*
X218750000Y-68429901D01*
X218550427Y-68910527D01*
X218549576Y-69885197D01*
X218921780Y-70786000D01*
X219610375Y-71475798D01*
X220510527Y-71849573D01*
X221485197Y-71850424D01*
X222386000Y-71478220D01*
X223075798Y-70789625D01*
X223449573Y-69889473D01*
X223450424Y-68914803D01*
X223250000Y-68429740D01*
X223250000Y-68250000D01*
X224309674Y-68250000D01*
X224421271Y-68811038D01*
X224550000Y-69003694D01*
X224550000Y-69700000D01*
X224721271Y-70561038D01*
X225209010Y-71290990D01*
X225938962Y-71778729D01*
X226800000Y-71950000D01*
X227628521Y-71785197D01*
X239549576Y-71785197D01*
X239921780Y-72686000D01*
X240610375Y-73375798D01*
X241510527Y-73749573D01*
X242485197Y-73750424D01*
X243386000Y-73378220D01*
X244075798Y-72689625D01*
X244449573Y-71789473D01*
X244449576Y-71785197D01*
X254949576Y-71785197D01*
X255321780Y-72686000D01*
X256010375Y-73375798D01*
X256910527Y-73749573D01*
X257885197Y-73750424D01*
X258786000Y-73378220D01*
X259475798Y-72689625D01*
X259849573Y-71789473D01*
X259850424Y-70814803D01*
X259478220Y-69914000D01*
X258789625Y-69224202D01*
X257889473Y-68850427D01*
X256914803Y-68849576D01*
X256014000Y-69221780D01*
X255324202Y-69910375D01*
X254950427Y-70810527D01*
X254949576Y-71785197D01*
X244449576Y-71785197D01*
X244450424Y-70814803D01*
X244078220Y-69914000D01*
X243389625Y-69224202D01*
X242489473Y-68850427D01*
X241514803Y-68849576D01*
X240614000Y-69221780D01*
X239924202Y-69910375D01*
X239550427Y-70810527D01*
X239549576Y-71785197D01*
X227628521Y-71785197D01*
X227661038Y-71778729D01*
X228390990Y-71290990D01*
X228878729Y-70561038D01*
X229050000Y-69700000D01*
X229050000Y-68250000D01*
X230150305Y-68250000D01*
X230149645Y-69005981D01*
X230461081Y-69759715D01*
X231037252Y-70336892D01*
X231790441Y-70649643D01*
X232605981Y-70650355D01*
X233359715Y-70338919D01*
X233936892Y-69762748D01*
X234249643Y-69009559D01*
X234250306Y-68250000D01*
X264675000Y-68250000D01*
X264675000Y-92020735D01*
X264460776Y-91932000D01*
X264074500Y-91932000D01*
X263885000Y-92121500D01*
X263885000Y-93115000D01*
X264310000Y-93115000D01*
X264310000Y-93965000D01*
X263885000Y-93965000D01*
X263885000Y-94056354D01*
X263501141Y-93980000D01*
X263418859Y-93980000D01*
X263035000Y-94056354D01*
X263035000Y-93965000D01*
X262041500Y-93965000D01*
X261852000Y-94154500D01*
X261852000Y-94540775D01*
X261897240Y-94649994D01*
X261478712Y-95276365D01*
X261318859Y-96080000D01*
X261478712Y-96883635D01*
X261933935Y-97564924D01*
X262585834Y-98000509D01*
X261207841Y-97999307D01*
X259737142Y-98606987D01*
X258610942Y-99731223D01*
X258000695Y-101200860D01*
X257999307Y-102792159D01*
X258606987Y-104262858D01*
X259018410Y-104675000D01*
X257307837Y-104675000D01*
X257327740Y-104661701D01*
X257837156Y-103899306D01*
X258016039Y-103000000D01*
X257837156Y-102100694D01*
X257435785Y-101500000D01*
X257837156Y-100899306D01*
X258016039Y-100000000D01*
X257837156Y-99100694D01*
X257327740Y-98338299D01*
X256565345Y-97828883D01*
X255666039Y-97650000D01*
X255573961Y-97650000D01*
X254674655Y-97828883D01*
X253912260Y-98338299D01*
X253402844Y-99100694D01*
X253223961Y-100000000D01*
X253402844Y-100899306D01*
X253804215Y-101500000D01*
X253402844Y-102100694D01*
X253223961Y-103000000D01*
X253402844Y-103899306D01*
X253912260Y-104661701D01*
X253932163Y-104675000D01*
X249596974Y-104675000D01*
X249742602Y-104529372D01*
X249858000Y-104250775D01*
X249858000Y-103739500D01*
X249668500Y-103550000D01*
X248550000Y-103550000D01*
X248550000Y-104100000D01*
X247450000Y-104100000D01*
X247450000Y-103550000D01*
X246331500Y-103550000D01*
X246142000Y-103739500D01*
X246142000Y-104250775D01*
X246257398Y-104529372D01*
X246403026Y-104675000D01*
X228755250Y-104675000D01*
X228774488Y-104580000D01*
X228774488Y-101580000D01*
X228687327Y-101116778D01*
X228413563Y-100691337D01*
X228192123Y-100540033D01*
X228388663Y-100413563D01*
X228674076Y-99995847D01*
X228774488Y-99500000D01*
X228774488Y-98900000D01*
X245625512Y-98900000D01*
X245625512Y-101100000D01*
X245712673Y-101563222D01*
X245986437Y-101988663D01*
X246142000Y-102094955D01*
X246142000Y-102260500D01*
X246331500Y-102450000D01*
X247450000Y-102450000D01*
X247450000Y-102374488D01*
X248550000Y-102374488D01*
X248550000Y-102450000D01*
X249668500Y-102450000D01*
X249858000Y-102260500D01*
X249858000Y-102097642D01*
X249988663Y-102013563D01*
X250274076Y-101595847D01*
X250374488Y-101100000D01*
X250374488Y-98900000D01*
X250287327Y-98436778D01*
X250013563Y-98011337D01*
X249595847Y-97725924D01*
X249100000Y-97625512D01*
X246900000Y-97625512D01*
X246436778Y-97712673D01*
X246011337Y-97986437D01*
X245725924Y-98404153D01*
X245625512Y-98900000D01*
X228774488Y-98900000D01*
X228774488Y-96500000D01*
X228687327Y-96036778D01*
X228413563Y-95611337D01*
X227995847Y-95325924D01*
X227500000Y-95225512D01*
X224500000Y-95225512D01*
X224036778Y-95312673D01*
X223611337Y-95586437D01*
X223325924Y-96004153D01*
X223225512Y-96500000D01*
X223225512Y-99500000D01*
X223312673Y-99963222D01*
X223586437Y-100388663D01*
X223807877Y-100539967D01*
X223611337Y-100666437D01*
X223325924Y-101084153D01*
X223225512Y-101580000D01*
X223225512Y-103617742D01*
X223143572Y-103535802D01*
X223211592Y-102858851D01*
X223121784Y-102407361D01*
X222846961Y-102213699D01*
X221980660Y-103080000D01*
X222348356Y-103447696D01*
X221287696Y-104508356D01*
X220920000Y-104140660D01*
X220552304Y-104508356D01*
X219491644Y-103447696D01*
X219859340Y-103080000D01*
X218993039Y-102213699D01*
X218718216Y-102407361D01*
X218628408Y-103301149D01*
X218678625Y-103553605D01*
X218411651Y-103820579D01*
X219266072Y-104675000D01*
X207852349Y-104675000D01*
X208189731Y-104449569D01*
X208634115Y-103784501D01*
X208790162Y-103000000D01*
X208634115Y-102215499D01*
X208189731Y-101550431D01*
X207594992Y-101153039D01*
X220053699Y-101153039D01*
X220920000Y-102019340D01*
X221786301Y-101153039D01*
X221592639Y-100878216D01*
X220698851Y-100788408D01*
X220247361Y-100878216D01*
X220053699Y-101153039D01*
X207594992Y-101153039D01*
X207524663Y-101106047D01*
X206740162Y-100950000D01*
X206659838Y-100950000D01*
X205875337Y-101106047D01*
X205210269Y-101550431D01*
X204765885Y-102215499D01*
X204609838Y-103000000D01*
X204765885Y-103784501D01*
X205210269Y-104449569D01*
X205547651Y-104675000D01*
X190236027Y-104675000D01*
X190532828Y-104230805D01*
X193334881Y-104230805D01*
X193419983Y-104478846D01*
X194030064Y-104588239D01*
X194580017Y-104478846D01*
X194665119Y-104230805D01*
X194000000Y-103565685D01*
X193334881Y-104230805D01*
X190532828Y-104230805D01*
X190763505Y-103885572D01*
X190933676Y-103030064D01*
X192411761Y-103030064D01*
X192521154Y-103580017D01*
X192769195Y-103665119D01*
X193434315Y-103000000D01*
X194565685Y-103000000D01*
X195230805Y-103665119D01*
X195478846Y-103580017D01*
X195588239Y-102969936D01*
X195478846Y-102419983D01*
X195230805Y-102334881D01*
X194565685Y-103000000D01*
X193434315Y-103000000D01*
X192769195Y-102334881D01*
X192521154Y-102419983D01*
X192411761Y-103030064D01*
X190933676Y-103030064D01*
X190950000Y-102947998D01*
X190950000Y-102852002D01*
X190763505Y-101914428D01*
X190666464Y-101769195D01*
X193334881Y-101769195D01*
X194000000Y-102434315D01*
X194665119Y-101769195D01*
X194580017Y-101521154D01*
X193969936Y-101411761D01*
X193419983Y-101521154D01*
X193334881Y-101769195D01*
X190666464Y-101769195D01*
X190232412Y-101119590D01*
X189437574Y-100588497D01*
X188500000Y-100402002D01*
X187562426Y-100588497D01*
X186767588Y-101119590D01*
X186236495Y-101914428D01*
X186050000Y-102852002D01*
X186050000Y-102947998D01*
X186236495Y-103885572D01*
X186763973Y-104675000D01*
X154249760Y-104675000D01*
X154250355Y-103994019D01*
X154160669Y-103776961D01*
X158178699Y-103776961D01*
X158372361Y-104051784D01*
X159266149Y-104141592D01*
X159717639Y-104051784D01*
X159911301Y-103776961D01*
X159045000Y-102910660D01*
X158178699Y-103776961D01*
X154160669Y-103776961D01*
X153938919Y-103240285D01*
X153499139Y-102799738D01*
X153936892Y-102362748D01*
X154057974Y-102071149D01*
X156753408Y-102071149D01*
X156843216Y-102522639D01*
X157118039Y-102716301D01*
X157984340Y-101850000D01*
X160105660Y-101850000D01*
X160971961Y-102716301D01*
X161246784Y-102522639D01*
X161336592Y-101628851D01*
X161246784Y-101177361D01*
X160971961Y-100983699D01*
X160105660Y-101850000D01*
X157984340Y-101850000D01*
X157118039Y-100983699D01*
X156843216Y-101177361D01*
X156753408Y-102071149D01*
X154057974Y-102071149D01*
X154249643Y-101609559D01*
X154250355Y-100794019D01*
X153938919Y-100040285D01*
X153821878Y-99923039D01*
X158178699Y-99923039D01*
X159045000Y-100789340D01*
X159484340Y-100350000D01*
X161350512Y-100350000D01*
X161350512Y-103350000D01*
X161437673Y-103813222D01*
X161711437Y-104238663D01*
X162129153Y-104524076D01*
X162625000Y-104624488D01*
X165625000Y-104624488D01*
X166088222Y-104537327D01*
X166503658Y-104270001D01*
X176107817Y-104270001D01*
X176239421Y-104529869D01*
X176971613Y-104631108D01*
X177480579Y-104529869D01*
X177612183Y-104270001D01*
X181187817Y-104270001D01*
X181319421Y-104529869D01*
X182051613Y-104631108D01*
X182560579Y-104529869D01*
X182692183Y-104270001D01*
X181940000Y-103517817D01*
X181187817Y-104270001D01*
X177612183Y-104270001D01*
X176860000Y-103517817D01*
X176107817Y-104270001D01*
X166503658Y-104270001D01*
X166513663Y-104263563D01*
X166799076Y-103845847D01*
X166899488Y-103350000D01*
X166899488Y-102851613D01*
X174968892Y-102851613D01*
X175070131Y-103360579D01*
X175329999Y-103492183D01*
X176082183Y-102740000D01*
X175329999Y-101987817D01*
X175070131Y-102119421D01*
X174968892Y-102851613D01*
X166899488Y-102851613D01*
X166899488Y-100350000D01*
X166812327Y-99886778D01*
X166538563Y-99461337D01*
X166141450Y-99190001D01*
X176107817Y-99190001D01*
X176239421Y-99449869D01*
X176971613Y-99551108D01*
X176981393Y-99549163D01*
X177159875Y-99727645D01*
X177150392Y-99750484D01*
X177149610Y-100645589D01*
X177160437Y-100671793D01*
X176954798Y-100877432D01*
X176748387Y-100848892D01*
X176239421Y-100950131D01*
X176107817Y-101209999D01*
X176860000Y-101962183D01*
X177248909Y-101573274D01*
X178026726Y-102351091D01*
X177637817Y-102740000D01*
X178390001Y-103492183D01*
X178649869Y-103360579D01*
X178751108Y-102628387D01*
X178749163Y-102618607D01*
X178927645Y-102440125D01*
X178950484Y-102449608D01*
X179845589Y-102450390D01*
X179871793Y-102439563D01*
X180077432Y-102645202D01*
X180048892Y-102851613D01*
X180150131Y-103360579D01*
X180409999Y-103492183D01*
X181162183Y-102740000D01*
X182717817Y-102740000D01*
X183470001Y-103492183D01*
X183729869Y-103360579D01*
X183831108Y-102628387D01*
X183729869Y-102119421D01*
X183470001Y-101987817D01*
X182717817Y-102740000D01*
X181162183Y-102740000D01*
X180773274Y-102351091D01*
X181551091Y-101573274D01*
X181940000Y-101962183D01*
X182692183Y-101209999D01*
X182560579Y-100950131D01*
X181828387Y-100848892D01*
X181818607Y-100850837D01*
X181640125Y-100672355D01*
X181649608Y-100649516D01*
X181650239Y-99926961D01*
X220053699Y-99926961D01*
X220247361Y-100201784D01*
X221141149Y-100291592D01*
X221592639Y-100201784D01*
X221786301Y-99926961D01*
X220920000Y-99060660D01*
X220053699Y-99926961D01*
X181650239Y-99926961D01*
X181650390Y-99754411D01*
X181639563Y-99728207D01*
X181845202Y-99522568D01*
X182051613Y-99551108D01*
X182560579Y-99449869D01*
X182692183Y-99190001D01*
X181940000Y-98437817D01*
X181551091Y-98826726D01*
X180773274Y-98048909D01*
X181162183Y-97660000D01*
X182717817Y-97660000D01*
X183470001Y-98412183D01*
X183729869Y-98280579D01*
X183738086Y-98221149D01*
X218628408Y-98221149D01*
X218718216Y-98672639D01*
X218993039Y-98866301D01*
X219859340Y-98000000D01*
X221980660Y-98000000D01*
X222846961Y-98866301D01*
X223121784Y-98672639D01*
X223211592Y-97778851D01*
X223121784Y-97327361D01*
X222846961Y-97133699D01*
X221980660Y-98000000D01*
X219859340Y-98000000D01*
X218993039Y-97133699D01*
X218718216Y-97327361D01*
X218628408Y-98221149D01*
X183738086Y-98221149D01*
X183831108Y-97548387D01*
X183738067Y-97080635D01*
X191325306Y-97080635D01*
X191675088Y-97577838D01*
X192119369Y-97874665D01*
X192350000Y-97758737D01*
X192350000Y-96850000D01*
X193150000Y-96850000D01*
X193150000Y-97758737D01*
X193380631Y-97874665D01*
X193824912Y-97577838D01*
X194174694Y-97080635D01*
X194066307Y-96850000D01*
X193150000Y-96850000D01*
X192350000Y-96850000D01*
X191433693Y-96850000D01*
X191325306Y-97080635D01*
X183738067Y-97080635D01*
X183729869Y-97039421D01*
X183470001Y-96907817D01*
X182717817Y-97660000D01*
X181162183Y-97660000D01*
X180409999Y-96907817D01*
X180150131Y-97039421D01*
X180048892Y-97771613D01*
X180050837Y-97781393D01*
X179872355Y-97959875D01*
X179849516Y-97950392D01*
X178954411Y-97949610D01*
X178928207Y-97960437D01*
X178722568Y-97754798D01*
X178751108Y-97548387D01*
X178649869Y-97039421D01*
X178390001Y-96907817D01*
X177637817Y-97660000D01*
X178026726Y-98048909D01*
X177248909Y-98826726D01*
X176860000Y-98437817D01*
X176107817Y-99190001D01*
X166141450Y-99190001D01*
X166120847Y-99175924D01*
X165625000Y-99075512D01*
X162625000Y-99075512D01*
X162161778Y-99162673D01*
X161736337Y-99436437D01*
X161450924Y-99854153D01*
X161350512Y-100350000D01*
X159484340Y-100350000D01*
X159911301Y-99923039D01*
X159717639Y-99648216D01*
X158823851Y-99558408D01*
X158372361Y-99648216D01*
X158178699Y-99923039D01*
X153821878Y-99923039D01*
X153373711Y-99474090D01*
X153709731Y-99249569D01*
X154154115Y-98584501D01*
X154310162Y-97800000D01*
X154304516Y-97771613D01*
X174968892Y-97771613D01*
X175070131Y-98280579D01*
X175329999Y-98412183D01*
X176082183Y-97660000D01*
X175329999Y-96907817D01*
X175070131Y-97039421D01*
X174968892Y-97771613D01*
X154304516Y-97771613D01*
X154154115Y-97015499D01*
X153709731Y-96350431D01*
X153044663Y-95906047D01*
X152541598Y-95805981D01*
X162149645Y-95805981D01*
X162461081Y-96559715D01*
X163037252Y-97136892D01*
X163790441Y-97449643D01*
X164605981Y-97450355D01*
X165359715Y-97138919D01*
X165936892Y-96562748D01*
X166157846Y-96030631D01*
X170395335Y-96030631D01*
X170692162Y-96474912D01*
X171189365Y-96824694D01*
X171420000Y-96716307D01*
X171420000Y-95800000D01*
X172220000Y-95800000D01*
X172220000Y-96716307D01*
X172450635Y-96824694D01*
X172947838Y-96474912D01*
X173178276Y-96129999D01*
X176107817Y-96129999D01*
X176860000Y-96882183D01*
X177612183Y-96129999D01*
X181187817Y-96129999D01*
X181940000Y-96882183D01*
X182692183Y-96129999D01*
X182663337Y-96073039D01*
X220053699Y-96073039D01*
X220920000Y-96939340D01*
X221786301Y-96073039D01*
X221592639Y-95798216D01*
X220698851Y-95708408D01*
X220247361Y-95798216D01*
X220053699Y-96073039D01*
X182663337Y-96073039D01*
X182560579Y-95870131D01*
X182193424Y-95819365D01*
X191325306Y-95819365D01*
X191433693Y-96050000D01*
X192350000Y-96050000D01*
X192350000Y-95141263D01*
X193150000Y-95141263D01*
X193150000Y-96050000D01*
X194066307Y-96050000D01*
X194174694Y-95819365D01*
X193824912Y-95322162D01*
X193380631Y-95025335D01*
X193150000Y-95141263D01*
X192350000Y-95141263D01*
X192119369Y-95025335D01*
X191675088Y-95322162D01*
X191325306Y-95819365D01*
X182193424Y-95819365D01*
X181828387Y-95768892D01*
X181319421Y-95870131D01*
X181187817Y-96129999D01*
X177612183Y-96129999D01*
X177480579Y-95870131D01*
X176748387Y-95768892D01*
X176239421Y-95870131D01*
X176107817Y-96129999D01*
X173178276Y-96129999D01*
X173244665Y-96030631D01*
X173128737Y-95800000D01*
X172220000Y-95800000D01*
X171420000Y-95800000D01*
X170511263Y-95800000D01*
X170395335Y-96030631D01*
X166157846Y-96030631D01*
X166249643Y-95809559D01*
X166250355Y-94994019D01*
X166157532Y-94769369D01*
X170395335Y-94769369D01*
X170511263Y-95000000D01*
X171420000Y-95000000D01*
X171420000Y-94083693D01*
X172220000Y-94083693D01*
X172220000Y-95000000D01*
X173128737Y-95000000D01*
X173244665Y-94769369D01*
X172947838Y-94325088D01*
X172450635Y-93975306D01*
X172220000Y-94083693D01*
X171420000Y-94083693D01*
X171189365Y-93975306D01*
X170692162Y-94325088D01*
X170395335Y-94769369D01*
X166157532Y-94769369D01*
X165938919Y-94240285D01*
X165362748Y-93663108D01*
X164609559Y-93350357D01*
X163794019Y-93349645D01*
X163040285Y-93661081D01*
X162463108Y-94237252D01*
X162150357Y-94990441D01*
X162149645Y-95805981D01*
X152541598Y-95805981D01*
X152260162Y-95750000D01*
X152179838Y-95750000D01*
X151395337Y-95906047D01*
X150730269Y-96350431D01*
X150285885Y-97015499D01*
X150129838Y-97800000D01*
X150285885Y-98584501D01*
X150730269Y-99249569D01*
X151044323Y-99459413D01*
X151040285Y-99461081D01*
X150463108Y-100037252D01*
X150150357Y-100790441D01*
X150149645Y-101605981D01*
X150461081Y-102359715D01*
X150900861Y-102800262D01*
X150463108Y-103237252D01*
X150150357Y-103990441D01*
X150149759Y-104675000D01*
X146615461Y-104675000D01*
X146670162Y-104400000D01*
X146514115Y-103615499D01*
X146069731Y-102950431D01*
X145844595Y-102800000D01*
X146069731Y-102649569D01*
X146514115Y-101984501D01*
X146670162Y-101200000D01*
X146514115Y-100415499D01*
X146069731Y-99750431D01*
X145755677Y-99540587D01*
X145759715Y-99538919D01*
X146336892Y-98962748D01*
X146649643Y-98209559D01*
X146650355Y-97394019D01*
X146338919Y-96640285D01*
X145762748Y-96063108D01*
X145009559Y-95750357D01*
X144194019Y-95749645D01*
X143440285Y-96061081D01*
X142863108Y-96637252D01*
X142550357Y-97390441D01*
X142549645Y-98205981D01*
X142861081Y-98959715D01*
X143426289Y-99525910D01*
X143090269Y-99750431D01*
X142645885Y-100415499D01*
X142489838Y-101200000D01*
X142645885Y-101984501D01*
X143090269Y-102649569D01*
X143315405Y-102800000D01*
X143090269Y-102950431D01*
X142645885Y-103615499D01*
X142489838Y-104400000D01*
X142544539Y-104675000D01*
X140686706Y-104675000D01*
X140969658Y-103993576D01*
X140970342Y-103209862D01*
X140671059Y-102485542D01*
X140516002Y-102330215D01*
X140669111Y-102177373D01*
X140969658Y-101453576D01*
X140970342Y-100669862D01*
X140671059Y-99945542D01*
X140516002Y-99790215D01*
X140669111Y-99637373D01*
X140969658Y-98913576D01*
X140970342Y-98129862D01*
X140671059Y-97405542D01*
X140117373Y-96850889D01*
X139393576Y-96550342D01*
X138609862Y-96549658D01*
X137885542Y-96848941D01*
X137330889Y-97402627D01*
X137030342Y-98126424D01*
X137029658Y-98910138D01*
X137328941Y-99634458D01*
X137483998Y-99789785D01*
X137330889Y-99942627D01*
X137030342Y-100666424D01*
X137029658Y-101450138D01*
X137328941Y-102174458D01*
X137483998Y-102329785D01*
X137330889Y-102482627D01*
X137030342Y-103206424D01*
X137029658Y-103990138D01*
X137312637Y-104675000D01*
X136049760Y-104675000D01*
X136050355Y-103994019D01*
X135738919Y-103240285D01*
X135299139Y-102799738D01*
X135736892Y-102362748D01*
X136049643Y-101609559D01*
X136050355Y-100794019D01*
X135738919Y-100040285D01*
X135162748Y-99463108D01*
X134409559Y-99150357D01*
X134384649Y-99150335D01*
X133800000Y-98565685D01*
X133134881Y-99230805D01*
X133167500Y-99325879D01*
X132840285Y-99461081D01*
X132263108Y-100037252D01*
X131950357Y-100790441D01*
X131949645Y-101605981D01*
X132261081Y-102359715D01*
X132700861Y-102800262D01*
X132263108Y-103237252D01*
X131950357Y-103990441D01*
X131949759Y-104675000D01*
X128415461Y-104675000D01*
X128470162Y-104400000D01*
X128314115Y-103615499D01*
X127869731Y-102950431D01*
X127644595Y-102800000D01*
X127869731Y-102649569D01*
X128314115Y-101984501D01*
X128470162Y-101200000D01*
X128314115Y-100415499D01*
X127869731Y-99750431D01*
X127604595Y-99573273D01*
X127789731Y-99449569D01*
X128234115Y-98784501D01*
X128384181Y-98030064D01*
X132211761Y-98030064D01*
X132321154Y-98580017D01*
X132569195Y-98665119D01*
X133234315Y-98000000D01*
X134365685Y-98000000D01*
X135030805Y-98665119D01*
X135278846Y-98580017D01*
X135388239Y-97969936D01*
X135278846Y-97419983D01*
X135030805Y-97334881D01*
X134365685Y-98000000D01*
X133234315Y-98000000D01*
X132569195Y-97334881D01*
X132321154Y-97419983D01*
X132211761Y-98030064D01*
X128384181Y-98030064D01*
X128390162Y-98000000D01*
X128234115Y-97215499D01*
X127935905Y-96769195D01*
X133134881Y-96769195D01*
X133800000Y-97434315D01*
X134465119Y-96769195D01*
X134380017Y-96521154D01*
X133769936Y-96411761D01*
X133219983Y-96521154D01*
X133134881Y-96769195D01*
X127935905Y-96769195D01*
X127789731Y-96550431D01*
X127124663Y-96106047D01*
X126340162Y-95950000D01*
X126259838Y-95950000D01*
X125475337Y-96106047D01*
X125259896Y-96250000D01*
X123800000Y-96250000D01*
X123130304Y-96383211D01*
X122562563Y-96762563D01*
X121607567Y-97717559D01*
X121584988Y-97662914D01*
X121020060Y-97096999D01*
X120281568Y-96790350D01*
X119481940Y-96789652D01*
X118742914Y-97095012D01*
X118610264Y-97227431D01*
X118480060Y-97096999D01*
X117741568Y-96790350D01*
X116941940Y-96789652D01*
X116320202Y-97046550D01*
X116055847Y-96865924D01*
X115560000Y-96765512D01*
X114040000Y-96765512D01*
X113576778Y-96852673D01*
X113151337Y-97126437D01*
X112865924Y-97544153D01*
X112765512Y-98040000D01*
X112765512Y-99560000D01*
X112852673Y-100023222D01*
X113126437Y-100448663D01*
X113544153Y-100734076D01*
X114040000Y-100834488D01*
X114413429Y-100834488D01*
X113782914Y-101095012D01*
X113216999Y-101659940D01*
X112910350Y-102398432D01*
X112909652Y-103198060D01*
X113215012Y-103937086D01*
X113779940Y-104503001D01*
X114194159Y-104675000D01*
X84767484Y-104675000D01*
X84850000Y-104260162D01*
X84850000Y-104179838D01*
X84693953Y-103395337D01*
X84249569Y-102730269D01*
X83584501Y-102285885D01*
X82800000Y-102129838D01*
X82015499Y-102285885D01*
X81350431Y-102730269D01*
X80906047Y-103395337D01*
X80872616Y-103563404D01*
X80449569Y-102930269D01*
X79784501Y-102485885D01*
X79000000Y-102329838D01*
X78215499Y-102485885D01*
X77550431Y-102930269D01*
X77106047Y-103595337D01*
X76950000Y-104379838D01*
X76950000Y-104460162D01*
X76992734Y-104675000D01*
X76022470Y-104675000D01*
X76049643Y-104609559D01*
X76050355Y-103794019D01*
X75738919Y-103040285D01*
X75162748Y-102463108D01*
X74409559Y-102150357D01*
X73594019Y-102149645D01*
X72840285Y-102461081D01*
X72263108Y-103037252D01*
X71950357Y-103790441D01*
X71949645Y-104605981D01*
X71978163Y-104675000D01*
X70964584Y-104675000D01*
X71203677Y-104435907D01*
X70751126Y-103983357D01*
X70678846Y-103619983D01*
X70430805Y-103534881D01*
X69765685Y-104200000D01*
X70048528Y-104482843D01*
X69856371Y-104675000D01*
X68543629Y-104675000D01*
X68351472Y-104482843D01*
X68634315Y-104200000D01*
X67969195Y-103534881D01*
X67721154Y-103619983D01*
X67657554Y-103974677D01*
X67196323Y-104435907D01*
X67435416Y-104675000D01*
X66764584Y-104675000D01*
X67003677Y-104435907D01*
X66551126Y-103983357D01*
X66478846Y-103619983D01*
X66230805Y-103534881D01*
X65565685Y-104200000D01*
X65848528Y-104482843D01*
X65656371Y-104675000D01*
X64343629Y-104675000D01*
X64151472Y-104482843D01*
X64434315Y-104200000D01*
X63769195Y-103534881D01*
X63521154Y-103619983D01*
X63457554Y-103974677D01*
X62996323Y-104435907D01*
X63235416Y-104675000D01*
X55019993Y-104675000D01*
X55074076Y-104595847D01*
X55174488Y-104100000D01*
X55174488Y-102969195D01*
X64334881Y-102969195D01*
X65000000Y-103634315D01*
X65665119Y-102969195D01*
X68534881Y-102969195D01*
X69200000Y-103634315D01*
X69865119Y-102969195D01*
X69780017Y-102721154D01*
X69169936Y-102611761D01*
X68619983Y-102721154D01*
X68534881Y-102969195D01*
X65665119Y-102969195D01*
X65580017Y-102721154D01*
X64969936Y-102611761D01*
X64419983Y-102721154D01*
X64334881Y-102969195D01*
X55174488Y-102969195D01*
X55174488Y-101900000D01*
X55087327Y-101436778D01*
X54813563Y-101011337D01*
X54395847Y-100725924D01*
X53900000Y-100625512D01*
X51700000Y-100625512D01*
X51236778Y-100712673D01*
X50811337Y-100986437D01*
X50525924Y-101404153D01*
X50425512Y-101900000D01*
X50425512Y-104100000D01*
X50512673Y-104563222D01*
X50584600Y-104675000D01*
X46430002Y-104675000D01*
X46430002Y-104337963D01*
X46576264Y-104225861D01*
X46846840Y-103820857D01*
X46755244Y-103550000D01*
X45730000Y-103550000D01*
X45730000Y-104100000D01*
X44630000Y-104100000D01*
X44630000Y-103550000D01*
X43604756Y-103550000D01*
X43513160Y-103820857D01*
X43783736Y-104225861D01*
X43929998Y-104337963D01*
X43929998Y-104675000D01*
X32982125Y-104675000D01*
X33389058Y-104268777D01*
X33999305Y-102799140D01*
X33999845Y-102179143D01*
X43513160Y-102179143D01*
X43604756Y-102450000D01*
X44630000Y-102450000D01*
X44630000Y-101414736D01*
X45730000Y-101414736D01*
X45730000Y-102450000D01*
X46755244Y-102450000D01*
X46846840Y-102179143D01*
X46576264Y-101774139D01*
X46000863Y-101333125D01*
X45730000Y-101414736D01*
X44630000Y-101414736D01*
X44359137Y-101333125D01*
X43783736Y-101774139D01*
X43513160Y-102179143D01*
X33999845Y-102179143D01*
X34000693Y-101207841D01*
X33393013Y-99737142D01*
X33262081Y-99605981D01*
X67149645Y-99605981D01*
X67461081Y-100359715D01*
X68037252Y-100936892D01*
X68790441Y-101249643D01*
X69605981Y-101250355D01*
X70359715Y-100938919D01*
X70936892Y-100362748D01*
X71249643Y-99609559D01*
X71249646Y-99605981D01*
X71949645Y-99605981D01*
X72261081Y-100359715D01*
X72837252Y-100936892D01*
X73590441Y-101249643D01*
X74405981Y-101250355D01*
X75159715Y-100938919D01*
X75258806Y-100840000D01*
X87365512Y-100840000D01*
X87365512Y-102360000D01*
X87452673Y-102823222D01*
X87726437Y-103248663D01*
X88144153Y-103534076D01*
X88640000Y-103634488D01*
X90160000Y-103634488D01*
X90623222Y-103547327D01*
X91048663Y-103273563D01*
X91334076Y-102855847D01*
X91434488Y-102360000D01*
X91434488Y-100840000D01*
X94965512Y-100840000D01*
X94965512Y-102360000D01*
X95052673Y-102823222D01*
X95326437Y-103248663D01*
X95744153Y-103534076D01*
X96240000Y-103634488D01*
X97760000Y-103634488D01*
X98223222Y-103547327D01*
X98648663Y-103273563D01*
X98934076Y-102855847D01*
X99034488Y-102360000D01*
X99034488Y-100840000D01*
X98947327Y-100376778D01*
X98754227Y-100076693D01*
X99009650Y-99461568D01*
X99010210Y-98819247D01*
X100572381Y-98819247D01*
X100682821Y-99374466D01*
X100929233Y-99453366D01*
X101582599Y-98800000D01*
X100929233Y-98146634D01*
X100682821Y-98225534D01*
X100572381Y-98819247D01*
X99010210Y-98819247D01*
X99010348Y-98661940D01*
X98704988Y-97922914D01*
X98572569Y-97790264D01*
X98703001Y-97660060D01*
X98724106Y-97609233D01*
X101466634Y-97609233D01*
X102120000Y-98262599D01*
X102388701Y-97993899D01*
X102692273Y-98297471D01*
X102650350Y-98398432D01*
X102649652Y-99198060D01*
X102692659Y-99302143D01*
X102388701Y-99606102D01*
X102120000Y-99337401D01*
X101466634Y-99990767D01*
X101545534Y-100237179D01*
X101845141Y-100292911D01*
X102327069Y-100774839D01*
X103059825Y-100042083D01*
X103519940Y-100503001D01*
X104258432Y-100809650D01*
X105058060Y-100810348D01*
X105679798Y-100553450D01*
X105944153Y-100734076D01*
X106440000Y-100834488D01*
X107960000Y-100834488D01*
X108423222Y-100747327D01*
X108848663Y-100473563D01*
X109134076Y-100055847D01*
X109234488Y-99560000D01*
X109234488Y-98040000D01*
X109147327Y-97576778D01*
X108873563Y-97151337D01*
X108455847Y-96865924D01*
X107960000Y-96765512D01*
X106440000Y-96765512D01*
X105976778Y-96852673D01*
X105676693Y-97045773D01*
X105061568Y-96790350D01*
X104261940Y-96789652D01*
X103522914Y-97095012D01*
X103059513Y-97557605D01*
X102327069Y-96825161D01*
X101849964Y-97302266D01*
X101545534Y-97362821D01*
X101466634Y-97609233D01*
X98724106Y-97609233D01*
X99009650Y-96921568D01*
X99010348Y-96121940D01*
X98704988Y-95382914D01*
X98140060Y-94816999D01*
X97401568Y-94510350D01*
X96601940Y-94509652D01*
X95862914Y-94815012D01*
X95296999Y-95379940D01*
X94990350Y-96118432D01*
X94989652Y-96918060D01*
X95295012Y-97657086D01*
X95427431Y-97789736D01*
X95296999Y-97919940D01*
X94990350Y-98658432D01*
X94989652Y-99458060D01*
X95246550Y-100079798D01*
X95065924Y-100344153D01*
X94965512Y-100840000D01*
X91434488Y-100840000D01*
X91347327Y-100376778D01*
X91154227Y-100076693D01*
X91409650Y-99461568D01*
X91410348Y-98661940D01*
X91104988Y-97922914D01*
X90972569Y-97790264D01*
X91103001Y-97660060D01*
X91409650Y-96921568D01*
X91410348Y-96121940D01*
X91104988Y-95382914D01*
X90540060Y-94816999D01*
X89801568Y-94510350D01*
X89001940Y-94509652D01*
X88262914Y-94815012D01*
X87696999Y-95379940D01*
X87390350Y-96118432D01*
X87389652Y-96918060D01*
X87695012Y-97657086D01*
X87827431Y-97789736D01*
X87696999Y-97919940D01*
X87390350Y-98658432D01*
X87389652Y-99458060D01*
X87646550Y-100079798D01*
X87465924Y-100344153D01*
X87365512Y-100840000D01*
X75258806Y-100840000D01*
X75736892Y-100362748D01*
X76049643Y-99609559D01*
X76050355Y-98794019D01*
X75738919Y-98040285D01*
X75162748Y-97463108D01*
X74543517Y-97205981D01*
X76949645Y-97205981D01*
X77261081Y-97959715D01*
X77837252Y-98536892D01*
X78590441Y-98849643D01*
X79405981Y-98850355D01*
X80159715Y-98538919D01*
X80736892Y-97962748D01*
X80941436Y-97470151D01*
X81061081Y-97759715D01*
X81637252Y-98336892D01*
X82390441Y-98649643D01*
X83205981Y-98650355D01*
X83959715Y-98338919D01*
X84536892Y-97762748D01*
X84849643Y-97009559D01*
X84850355Y-96194019D01*
X84538919Y-95440285D01*
X83962748Y-94863108D01*
X83209559Y-94550357D01*
X82394019Y-94549645D01*
X81640285Y-94861081D01*
X81063108Y-95437252D01*
X80858564Y-95929849D01*
X80738919Y-95640285D01*
X80162748Y-95063108D01*
X79409559Y-94750357D01*
X78594019Y-94749645D01*
X77840285Y-95061081D01*
X77263108Y-95637252D01*
X76950357Y-96390441D01*
X76949645Y-97205981D01*
X74543517Y-97205981D01*
X74409559Y-97150357D01*
X73594019Y-97149645D01*
X72840285Y-97461081D01*
X72263108Y-98037252D01*
X71950357Y-98790441D01*
X71949645Y-99605981D01*
X71249646Y-99605981D01*
X71250355Y-98794019D01*
X70938919Y-98040285D01*
X70362748Y-97463108D01*
X69609559Y-97150357D01*
X68794019Y-97149645D01*
X68040285Y-97461081D01*
X67463108Y-98037252D01*
X67150357Y-98790441D01*
X67149645Y-99605981D01*
X33262081Y-99605981D01*
X32268777Y-98610942D01*
X30799140Y-98000695D01*
X30385995Y-98000335D01*
X30751288Y-97453635D01*
X30911141Y-96650000D01*
X30751288Y-95846365D01*
X30332760Y-95219994D01*
X30378000Y-95110775D01*
X30378000Y-94724500D01*
X30188500Y-94535000D01*
X29195000Y-94535000D01*
X29195000Y-94626354D01*
X28811141Y-94550000D01*
X28728859Y-94550000D01*
X28345000Y-94626354D01*
X28345000Y-94535000D01*
X27920000Y-94535000D01*
X27920000Y-93685000D01*
X28345000Y-93685000D01*
X28345000Y-92691500D01*
X29195000Y-92691500D01*
X29195000Y-93685000D01*
X30188500Y-93685000D01*
X30378000Y-93495500D01*
X30378000Y-93109225D01*
X30262602Y-92830628D01*
X30049373Y-92617399D01*
X29770776Y-92502000D01*
X29384500Y-92502000D01*
X29195000Y-92691500D01*
X28345000Y-92691500D01*
X28155500Y-92502000D01*
X27769224Y-92502000D01*
X27490627Y-92617399D01*
X27325000Y-92783026D01*
X27325000Y-91250000D01*
X32750000Y-91250000D01*
X32750000Y-96000000D01*
X32769696Y-96097264D01*
X32825682Y-96179202D01*
X32909136Y-96232903D01*
X33000000Y-96250000D01*
X46000000Y-96250000D01*
X46097264Y-96230304D01*
X46179202Y-96174318D01*
X46232903Y-96090864D01*
X46250000Y-96000000D01*
X46250000Y-93800000D01*
X52350512Y-93800000D01*
X52350512Y-96200000D01*
X52437673Y-96663222D01*
X52711437Y-97088663D01*
X53129153Y-97374076D01*
X53625000Y-97474488D01*
X56025000Y-97474488D01*
X56488222Y-97387327D01*
X56913663Y-97113563D01*
X57199076Y-96695847D01*
X57299488Y-96200000D01*
X57299488Y-93800000D01*
X57212327Y-93336778D01*
X56938563Y-92911337D01*
X56520847Y-92625924D01*
X56025000Y-92525512D01*
X53625000Y-92525512D01*
X53161778Y-92612673D01*
X52736337Y-92886437D01*
X52450924Y-93304153D01*
X52350512Y-93800000D01*
X46250000Y-93800000D01*
X46250000Y-91250000D01*
X62501352Y-91250000D01*
X62846780Y-92086000D01*
X63518165Y-92758558D01*
X63106047Y-93375337D01*
X62950000Y-94159838D01*
X62950000Y-94240162D01*
X63106047Y-95024663D01*
X63550431Y-95689731D01*
X64215499Y-96134115D01*
X65000000Y-96290162D01*
X65784501Y-96134115D01*
X66449569Y-95689731D01*
X66850630Y-95089500D01*
X71042000Y-95089500D01*
X71042000Y-95550776D01*
X71157399Y-95829373D01*
X71370628Y-96042602D01*
X71649225Y-96158000D01*
X72110500Y-96158000D01*
X72300000Y-95968500D01*
X72300000Y-94900000D01*
X73300000Y-94900000D01*
X73300000Y-95968500D01*
X73489500Y-96158000D01*
X73950775Y-96158000D01*
X74229372Y-96042602D01*
X74442601Y-95829373D01*
X74558000Y-95550776D01*
X74558000Y-95089500D01*
X74368500Y-94900000D01*
X73300000Y-94900000D01*
X72300000Y-94900000D01*
X71231500Y-94900000D01*
X71042000Y-95089500D01*
X66850630Y-95089500D01*
X66893953Y-95024663D01*
X67050000Y-94240162D01*
X67050000Y-94159838D01*
X66893953Y-93375337D01*
X66809688Y-93249224D01*
X71042000Y-93249224D01*
X71042000Y-93710500D01*
X71231500Y-93900000D01*
X72300000Y-93900000D01*
X72300000Y-92831500D01*
X73300000Y-92831500D01*
X73300000Y-93900000D01*
X74368500Y-93900000D01*
X74558000Y-93710500D01*
X74558000Y-93249224D01*
X74442601Y-92970627D01*
X74229372Y-92757398D01*
X73950775Y-92642000D01*
X73489500Y-92642000D01*
X73300000Y-92831500D01*
X72300000Y-92831500D01*
X72110500Y-92642000D01*
X71649225Y-92642000D01*
X71370628Y-92757398D01*
X71157399Y-92970627D01*
X71042000Y-93249224D01*
X66809688Y-93249224D01*
X66449569Y-92710269D01*
X66407337Y-92682051D01*
X67000798Y-92089625D01*
X67349440Y-91250000D01*
X71467566Y-91250000D01*
X71523813Y-91306345D01*
X72350484Y-91649608D01*
X73245589Y-91650390D01*
X74072858Y-91308569D01*
X74131529Y-91250000D01*
X90949880Y-91250000D01*
X90991081Y-91349715D01*
X91526375Y-91885943D01*
X91250269Y-92070431D01*
X90805885Y-92735499D01*
X90649838Y-93520000D01*
X90805885Y-94304501D01*
X91250269Y-94969569D01*
X91915337Y-95413953D01*
X92699838Y-95570000D01*
X92780162Y-95570000D01*
X93564663Y-95413953D01*
X94229731Y-94969569D01*
X94674115Y-94304501D01*
X94830162Y-93520000D01*
X94674115Y-92735499D01*
X94229731Y-92070431D01*
X93941130Y-91877594D01*
X94466892Y-91352748D01*
X94509557Y-91250000D01*
X98479967Y-91250000D01*
X98740269Y-91639569D01*
X99100755Y-91880438D01*
X98623108Y-92357252D01*
X98310357Y-93110441D01*
X98309645Y-93925981D01*
X98621081Y-94679715D01*
X99197252Y-95256892D01*
X99950441Y-95569643D01*
X100765981Y-95570355D01*
X101519715Y-95258919D01*
X101639774Y-95139069D01*
X101837252Y-95336892D01*
X102590441Y-95649643D01*
X103405981Y-95650355D01*
X104159715Y-95338919D01*
X104736892Y-94762748D01*
X105049643Y-94009559D01*
X105050355Y-93194019D01*
X104738919Y-92440285D01*
X104162748Y-91863108D01*
X103409559Y-91550357D01*
X102594019Y-91549645D01*
X101840285Y-91861081D01*
X101720226Y-91980931D01*
X101522748Y-91783108D01*
X101511746Y-91778540D01*
X101719731Y-91639569D01*
X101980033Y-91250000D01*
X109451036Y-91250000D01*
X109063108Y-91637252D01*
X108997770Y-91794603D01*
X108409559Y-91550357D01*
X107594019Y-91549645D01*
X106840285Y-91861081D01*
X106263108Y-92437252D01*
X105950357Y-93190441D01*
X105949645Y-94005981D01*
X106261081Y-94759715D01*
X106837252Y-95336892D01*
X107590441Y-95649643D01*
X108405981Y-95650355D01*
X109159715Y-95338919D01*
X109736892Y-94762748D01*
X109802230Y-94605397D01*
X110390441Y-94849643D01*
X111205981Y-94850355D01*
X111959715Y-94538919D01*
X112536892Y-93962748D01*
X112849643Y-93209559D01*
X112850355Y-92394019D01*
X112538919Y-91640285D01*
X112149314Y-91250000D01*
X117080575Y-91250000D01*
X116930269Y-91350431D01*
X116485885Y-92015499D01*
X116329838Y-92800000D01*
X116485885Y-93584501D01*
X116930269Y-94249569D01*
X117595337Y-94693953D01*
X118379838Y-94850000D01*
X118460162Y-94850000D01*
X119244663Y-94693953D01*
X119909731Y-94249569D01*
X119986212Y-94135108D01*
X120412252Y-94561892D01*
X121165441Y-94874643D01*
X121980981Y-94875355D01*
X122734715Y-94563919D01*
X123311892Y-93987748D01*
X123532846Y-93455631D01*
X130150335Y-93455631D01*
X130447162Y-93899912D01*
X130944365Y-94249694D01*
X131175000Y-94141307D01*
X131175000Y-93225000D01*
X130266263Y-93225000D01*
X130150335Y-93455631D01*
X123532846Y-93455631D01*
X123624643Y-93234559D01*
X123625355Y-92419019D01*
X123532532Y-92194369D01*
X130150335Y-92194369D01*
X130266263Y-92425000D01*
X131175000Y-92425000D01*
X131175000Y-91508693D01*
X130944365Y-91400306D01*
X130447162Y-91750088D01*
X130150335Y-92194369D01*
X123532532Y-92194369D01*
X123313919Y-91665285D01*
X122899358Y-91250000D01*
X133721316Y-91250000D01*
X133173108Y-91797252D01*
X133133000Y-91893843D01*
X133133000Y-91574998D01*
X132453954Y-91574998D01*
X132205635Y-91400306D01*
X131975000Y-91508693D01*
X131975000Y-92425000D01*
X132375000Y-92425000D01*
X132375000Y-93225000D01*
X131975000Y-93225000D01*
X131975000Y-94141307D01*
X132205635Y-94249694D01*
X132453954Y-94075002D01*
X133133000Y-94075002D01*
X133133000Y-94027552D01*
X133171081Y-94119715D01*
X133747252Y-94696892D01*
X134500441Y-95009643D01*
X135315981Y-95010355D01*
X136069715Y-94698919D01*
X136646892Y-94122748D01*
X136959643Y-93369559D01*
X136960355Y-92554019D01*
X136648919Y-91800285D01*
X136099593Y-91250000D01*
X138721316Y-91250000D01*
X138173108Y-91797252D01*
X137860357Y-92550441D01*
X137859645Y-93365981D01*
X138171081Y-94119715D01*
X138747252Y-94696892D01*
X139500441Y-95009643D01*
X140315981Y-95010355D01*
X141069715Y-94698919D01*
X141646892Y-94122748D01*
X141959643Y-93369559D01*
X141960355Y-92554019D01*
X141648919Y-91800285D01*
X141099593Y-91250000D01*
X143260575Y-91250000D01*
X143110269Y-91350431D01*
X142665885Y-92015499D01*
X142509838Y-92800000D01*
X142665885Y-93584501D01*
X143110269Y-94249569D01*
X143775337Y-94693953D01*
X144559838Y-94850000D01*
X144640162Y-94850000D01*
X145424663Y-94693953D01*
X146089731Y-94249569D01*
X146534115Y-93584501D01*
X146690162Y-92800000D01*
X146534115Y-92015499D01*
X146089731Y-91350431D01*
X145939425Y-91250000D01*
X153251036Y-91250000D01*
X152863108Y-91637252D01*
X152550357Y-92390441D01*
X152549645Y-93205981D01*
X152861081Y-93959715D01*
X153437252Y-94536892D01*
X154190441Y-94849643D01*
X155005981Y-94850355D01*
X155759715Y-94538919D01*
X156336892Y-93962748D01*
X156649643Y-93209559D01*
X156650199Y-92573099D01*
X157267094Y-93191071D01*
X158130505Y-93549591D01*
X159065393Y-93550407D01*
X159929429Y-93193395D01*
X160591071Y-92532906D01*
X160949591Y-91669495D01*
X160949957Y-91250000D01*
X171249956Y-91250000D01*
X171249593Y-91665393D01*
X171606605Y-92529429D01*
X172267094Y-93191071D01*
X173130505Y-93549591D01*
X174065393Y-93550407D01*
X174929429Y-93193395D01*
X175591071Y-92532906D01*
X175949591Y-91669495D01*
X175949957Y-91250000D01*
X186282948Y-91250000D01*
X186421780Y-91586000D01*
X187110375Y-92275798D01*
X188010527Y-92649573D01*
X188985197Y-92650424D01*
X189886000Y-92278220D01*
X189933497Y-92230805D01*
X231334881Y-92230805D01*
X231419983Y-92478846D01*
X232030064Y-92588239D01*
X232580017Y-92478846D01*
X232665119Y-92230805D01*
X232000000Y-91565685D01*
X231334881Y-92230805D01*
X189933497Y-92230805D01*
X190575798Y-91589625D01*
X190808147Y-91030064D01*
X230411761Y-91030064D01*
X230521154Y-91580017D01*
X230769195Y-91665119D01*
X231434315Y-91000000D01*
X232565685Y-91000000D01*
X233230805Y-91665119D01*
X233478846Y-91580017D01*
X233588239Y-90969936D01*
X233478846Y-90419983D01*
X233230805Y-90334881D01*
X232565685Y-91000000D01*
X231434315Y-91000000D01*
X230769195Y-90334881D01*
X230521154Y-90419983D01*
X230411761Y-91030064D01*
X190808147Y-91030064D01*
X190949573Y-90689473D01*
X190950376Y-89769195D01*
X231334881Y-89769195D01*
X232000000Y-90434315D01*
X232665119Y-89769195D01*
X232580017Y-89521154D01*
X231969936Y-89411761D01*
X231419983Y-89521154D01*
X231334881Y-89769195D01*
X190950376Y-89769195D01*
X190950424Y-89714803D01*
X190578220Y-88814000D01*
X190309299Y-88544609D01*
X234169523Y-88544609D01*
X234587304Y-89555715D01*
X235360216Y-90329977D01*
X235866003Y-90539998D01*
X235364285Y-90747304D01*
X234590023Y-91520216D01*
X234170478Y-92530591D01*
X234169523Y-93624609D01*
X234587304Y-94635715D01*
X235360216Y-95409977D01*
X236370591Y-95829522D01*
X237464609Y-95830477D01*
X238475715Y-95412696D01*
X239249977Y-94639784D01*
X239507541Y-94019500D01*
X239742000Y-94019500D01*
X239742000Y-94730775D01*
X239857398Y-95009372D01*
X240070627Y-95222601D01*
X240349224Y-95338000D01*
X241060500Y-95338000D01*
X241250000Y-95148500D01*
X241250000Y-93830000D01*
X242750000Y-93830000D01*
X242750000Y-95148500D01*
X242939500Y-95338000D01*
X243650776Y-95338000D01*
X243929373Y-95222601D01*
X244142602Y-95009372D01*
X244150833Y-94989500D01*
X251042000Y-94989500D01*
X251042000Y-95550776D01*
X251157399Y-95829373D01*
X251370628Y-96042602D01*
X251649225Y-96158000D01*
X252210500Y-96158000D01*
X252400000Y-95968500D01*
X252400000Y-94800000D01*
X253600000Y-94800000D01*
X253600000Y-95968500D01*
X253789500Y-96158000D01*
X254350775Y-96158000D01*
X254629372Y-96042602D01*
X254842601Y-95829373D01*
X254958000Y-95550776D01*
X254958000Y-94989500D01*
X254768500Y-94800000D01*
X253600000Y-94800000D01*
X252400000Y-94800000D01*
X251231500Y-94800000D01*
X251042000Y-94989500D01*
X244150833Y-94989500D01*
X244258000Y-94730775D01*
X244258000Y-94019500D01*
X244068500Y-93830000D01*
X242750000Y-93830000D01*
X241250000Y-93830000D01*
X239931500Y-93830000D01*
X239742000Y-94019500D01*
X239507541Y-94019500D01*
X239669522Y-93629409D01*
X239670203Y-92849224D01*
X251042000Y-92849224D01*
X251042000Y-93410500D01*
X251231500Y-93600000D01*
X252400000Y-93600000D01*
X252400000Y-92431500D01*
X253600000Y-92431500D01*
X253600000Y-93600000D01*
X254768500Y-93600000D01*
X254958000Y-93410500D01*
X254958000Y-92849224D01*
X254842601Y-92570627D01*
X254811199Y-92539225D01*
X261852000Y-92539225D01*
X261852000Y-92925500D01*
X262041500Y-93115000D01*
X263035000Y-93115000D01*
X263035000Y-92121500D01*
X262845500Y-91932000D01*
X262459224Y-91932000D01*
X262180627Y-92047399D01*
X261967398Y-92260628D01*
X261852000Y-92539225D01*
X254811199Y-92539225D01*
X254629372Y-92357398D01*
X254350775Y-92242000D01*
X253789500Y-92242000D01*
X253600000Y-92431500D01*
X252400000Y-92431500D01*
X252210500Y-92242000D01*
X251649225Y-92242000D01*
X251370628Y-92357398D01*
X251157399Y-92570627D01*
X251042000Y-92849224D01*
X239670203Y-92849224D01*
X239670477Y-92535391D01*
X239252696Y-91524285D01*
X239157802Y-91429225D01*
X239742000Y-91429225D01*
X239742000Y-92140500D01*
X239931500Y-92330000D01*
X241250000Y-92330000D01*
X241250000Y-91011500D01*
X242750000Y-91011500D01*
X242750000Y-92330000D01*
X244068500Y-92330000D01*
X244258000Y-92140500D01*
X244258000Y-91429225D01*
X244142602Y-91150628D01*
X243929373Y-90937399D01*
X243650776Y-90822000D01*
X242939500Y-90822000D01*
X242750000Y-91011500D01*
X241250000Y-91011500D01*
X241060500Y-90822000D01*
X240349224Y-90822000D01*
X240070627Y-90937399D01*
X239857398Y-91150628D01*
X239742000Y-91429225D01*
X239157802Y-91429225D01*
X238479784Y-90750023D01*
X237973997Y-90540002D01*
X238475715Y-90332696D01*
X239249977Y-89559784D01*
X239507541Y-88939500D01*
X239742000Y-88939500D01*
X239742000Y-89650775D01*
X239857398Y-89929372D01*
X240070627Y-90142601D01*
X240349224Y-90258000D01*
X241060500Y-90258000D01*
X241250000Y-90068500D01*
X241250000Y-88750000D01*
X242750000Y-88750000D01*
X242750000Y-90068500D01*
X242939500Y-90258000D01*
X243650776Y-90258000D01*
X243929373Y-90142601D01*
X244142602Y-89929372D01*
X244258000Y-89650775D01*
X244258000Y-88939500D01*
X244068500Y-88750000D01*
X242750000Y-88750000D01*
X241250000Y-88750000D01*
X239931500Y-88750000D01*
X239742000Y-88939500D01*
X239507541Y-88939500D01*
X239669522Y-88549409D01*
X239670477Y-87455391D01*
X239252696Y-86444285D01*
X239157802Y-86349225D01*
X239742000Y-86349225D01*
X239742000Y-87060500D01*
X239931500Y-87250000D01*
X241250000Y-87250000D01*
X241250000Y-85931500D01*
X242750000Y-85931500D01*
X242750000Y-87250000D01*
X244068500Y-87250000D01*
X244133303Y-87185197D01*
X250549576Y-87185197D01*
X250921780Y-88086000D01*
X251610375Y-88775798D01*
X252510527Y-89149573D01*
X253485197Y-89150424D01*
X254386000Y-88778220D01*
X255075798Y-88089625D01*
X255449573Y-87189473D01*
X255450424Y-86214803D01*
X255078220Y-85314000D01*
X254389625Y-84624202D01*
X253489473Y-84250427D01*
X252514803Y-84249576D01*
X251614000Y-84621780D01*
X250924202Y-85310375D01*
X250550427Y-86210527D01*
X250549576Y-87185197D01*
X244133303Y-87185197D01*
X244258000Y-87060500D01*
X244258000Y-86349225D01*
X244142602Y-86070628D01*
X243929373Y-85857399D01*
X243650776Y-85742000D01*
X242939500Y-85742000D01*
X242750000Y-85931500D01*
X241250000Y-85931500D01*
X241060500Y-85742000D01*
X240349224Y-85742000D01*
X240070627Y-85857399D01*
X239857398Y-86070628D01*
X239742000Y-86349225D01*
X239157802Y-86349225D01*
X238479784Y-85670023D01*
X237469409Y-85250478D01*
X236375391Y-85249523D01*
X235364285Y-85667304D01*
X234590023Y-86440216D01*
X234170478Y-87450591D01*
X234169523Y-88544609D01*
X190309299Y-88544609D01*
X189889625Y-88124202D01*
X188989473Y-87750427D01*
X188250000Y-87749781D01*
X188250000Y-86627212D01*
X188334488Y-86210000D01*
X188334488Y-84690000D01*
X188247327Y-84226778D01*
X188201771Y-84155981D01*
X190699645Y-84155981D01*
X191011081Y-84909715D01*
X191587252Y-85486892D01*
X192340441Y-85799643D01*
X193155981Y-85800355D01*
X193909715Y-85488919D01*
X194486892Y-84912748D01*
X194799643Y-84159559D01*
X194800355Y-83344019D01*
X194488919Y-82590285D01*
X193912748Y-82013108D01*
X193159559Y-81700357D01*
X192344019Y-81699645D01*
X191590285Y-82011081D01*
X191013108Y-82587252D01*
X190700357Y-83340441D01*
X190699645Y-84155981D01*
X188201771Y-84155981D01*
X187973563Y-83801337D01*
X187555847Y-83515924D01*
X187060000Y-83415512D01*
X185540000Y-83415512D01*
X185076778Y-83502673D01*
X184776693Y-83695773D01*
X184161568Y-83440350D01*
X183361940Y-83439652D01*
X182622914Y-83745012D01*
X182490264Y-83877431D01*
X182360060Y-83746999D01*
X181621568Y-83440350D01*
X180821940Y-83439652D01*
X180082914Y-83745012D01*
X179516999Y-84309940D01*
X179210350Y-85048432D01*
X179209738Y-85750000D01*
X157078839Y-85750000D01*
X157034388Y-85705471D01*
X156299570Y-85400348D01*
X155699876Y-85399825D01*
X155799643Y-85159559D01*
X155800355Y-84344019D01*
X155488919Y-83590285D01*
X155053412Y-83154018D01*
X155209731Y-83049569D01*
X155654115Y-82384501D01*
X155810162Y-81600000D01*
X155654115Y-80815499D01*
X155209731Y-80150431D01*
X154544663Y-79706047D01*
X153760162Y-79550000D01*
X153679838Y-79550000D01*
X152895337Y-79706047D01*
X152230269Y-80150431D01*
X151785885Y-80815499D01*
X151629838Y-81600000D01*
X151785885Y-82384501D01*
X152230269Y-83049569D01*
X152422836Y-83178238D01*
X152013108Y-83587252D01*
X151700357Y-84340441D01*
X151699645Y-85155981D01*
X151945088Y-85750000D01*
X147920123Y-85750000D01*
X148064115Y-85534501D01*
X148220162Y-84750000D01*
X148064115Y-83965499D01*
X147619731Y-83300431D01*
X147427164Y-83171762D01*
X147836892Y-82762748D01*
X148149643Y-82009559D01*
X148150355Y-81194019D01*
X147838919Y-80440285D01*
X147262748Y-79863108D01*
X146509559Y-79550357D01*
X145694019Y-79549645D01*
X144940285Y-79861081D01*
X144363108Y-80437252D01*
X144050357Y-81190441D01*
X144049645Y-82005981D01*
X144361081Y-82759715D01*
X144796588Y-83195982D01*
X144640269Y-83300431D01*
X144195885Y-83965499D01*
X144039838Y-84750000D01*
X144195885Y-85534501D01*
X144339877Y-85750000D01*
X101684488Y-85750000D01*
X101684488Y-84240000D01*
X101618658Y-83890138D01*
X134799658Y-83890138D01*
X135098941Y-84614458D01*
X135652627Y-85169111D01*
X136376424Y-85469658D01*
X137160138Y-85470342D01*
X137884458Y-85171059D01*
X138039785Y-85016002D01*
X138192627Y-85169111D01*
X138916424Y-85469658D01*
X139700138Y-85470342D01*
X140424458Y-85171059D01*
X140579785Y-85016002D01*
X140732627Y-85169111D01*
X141456424Y-85469658D01*
X142240138Y-85470342D01*
X142964458Y-85171059D01*
X143519111Y-84617373D01*
X143819658Y-83893576D01*
X143820342Y-83109862D01*
X143521059Y-82385542D01*
X142967373Y-81830889D01*
X142243576Y-81530342D01*
X141459862Y-81529658D01*
X140735542Y-81828941D01*
X140580215Y-81983998D01*
X140427373Y-81830889D01*
X139703576Y-81530342D01*
X138919862Y-81529658D01*
X138195542Y-81828941D01*
X138040215Y-81983998D01*
X137887373Y-81830889D01*
X137163576Y-81530342D01*
X136379862Y-81529658D01*
X135655542Y-81828941D01*
X135100889Y-82382627D01*
X134800342Y-83106424D01*
X134799658Y-83890138D01*
X101618658Y-83890138D01*
X101597327Y-83776778D01*
X101323563Y-83351337D01*
X100905847Y-83065924D01*
X100410000Y-82965512D01*
X98890000Y-82965512D01*
X98426778Y-83052673D01*
X98126693Y-83245773D01*
X97511568Y-82990350D01*
X96711940Y-82989652D01*
X95972914Y-83295012D01*
X95840264Y-83427431D01*
X95710060Y-83296999D01*
X94971568Y-82990350D01*
X94171940Y-82989652D01*
X93432914Y-83295012D01*
X92866999Y-83859940D01*
X92560350Y-84598432D01*
X92559652Y-85398060D01*
X92705071Y-85750000D01*
X91848778Y-85750000D01*
X91889650Y-85651568D01*
X91890348Y-84851940D01*
X91584988Y-84112914D01*
X91020060Y-83546999D01*
X90281568Y-83240350D01*
X89481940Y-83239652D01*
X88742914Y-83545012D01*
X88610264Y-83677431D01*
X88480060Y-83546999D01*
X87741568Y-83240350D01*
X86941940Y-83239652D01*
X86320202Y-83496550D01*
X86055847Y-83315924D01*
X85560000Y-83215512D01*
X84040000Y-83215512D01*
X83576778Y-83302673D01*
X83151337Y-83576437D01*
X82865924Y-83994153D01*
X82765512Y-84490000D01*
X82765512Y-85750000D01*
X78556922Y-85750000D01*
X78906345Y-85401187D01*
X79249608Y-84574516D01*
X79250390Y-83679411D01*
X78908569Y-82852142D01*
X78276187Y-82218655D01*
X77449516Y-81875392D01*
X76554411Y-81874610D01*
X75727142Y-82216431D01*
X75093655Y-82848813D01*
X74750392Y-83675484D01*
X74749610Y-84570589D01*
X75091431Y-85397858D01*
X75442959Y-85750000D01*
X55891352Y-85750000D01*
X55349291Y-85207939D01*
X55007769Y-85549461D01*
X54686072Y-85508482D01*
X54615324Y-85522554D01*
X54300709Y-85207939D01*
X53758648Y-85750000D01*
X44502790Y-85750000D01*
X44413563Y-85611337D01*
X43995847Y-85325924D01*
X43500000Y-85225512D01*
X40500000Y-85225512D01*
X40036778Y-85312673D01*
X39611337Y-85586437D01*
X39499579Y-85750000D01*
X37918928Y-85750000D01*
X37660579Y-85491651D01*
X37402230Y-85750000D01*
X37112783Y-85750000D01*
X36698851Y-85708408D01*
X36489756Y-85750000D01*
X36437770Y-85750000D01*
X36179421Y-85491651D01*
X35921072Y-85750000D01*
X27325000Y-85750000D01*
X27325000Y-83939049D01*
X27500000Y-83974488D01*
X29700000Y-83974488D01*
X30163222Y-83887327D01*
X30588663Y-83613563D01*
X30874076Y-83195847D01*
X30974488Y-82700000D01*
X30974488Y-80500000D01*
X30887327Y-80036778D01*
X30741340Y-79809909D01*
X30771117Y-79765345D01*
X30913407Y-79050000D01*
X37375512Y-79050000D01*
X37375512Y-81450000D01*
X37462673Y-81913222D01*
X37736437Y-82338663D01*
X38154153Y-82624076D01*
X38650000Y-82724488D01*
X41050000Y-82724488D01*
X41513222Y-82637327D01*
X41938663Y-82363563D01*
X42224076Y-81945847D01*
X42324488Y-81450000D01*
X42324488Y-79050000D01*
X52150512Y-79050000D01*
X52150512Y-81450000D01*
X52237673Y-81913222D01*
X52511437Y-82338663D01*
X52929153Y-82624076D01*
X53425000Y-82724488D01*
X55825000Y-82724488D01*
X56288222Y-82637327D01*
X56713663Y-82363563D01*
X56999076Y-81945847D01*
X57099488Y-81450000D01*
X57099488Y-79050000D01*
X57012327Y-78586778D01*
X56738563Y-78161337D01*
X56432191Y-77952002D01*
X62475000Y-77952002D01*
X62475000Y-78047998D01*
X62661495Y-78985572D01*
X63192588Y-79780410D01*
X63987426Y-80311503D01*
X64925000Y-80497998D01*
X65862574Y-80311503D01*
X66657412Y-79780410D01*
X67024166Y-79231524D01*
X67379153Y-79474076D01*
X67875000Y-79574488D01*
X70075000Y-79574488D01*
X70538222Y-79487327D01*
X70963663Y-79213563D01*
X71249076Y-78795847D01*
X71349488Y-78300000D01*
X71349488Y-78125000D01*
X74725512Y-78125000D01*
X74725512Y-80125000D01*
X74812673Y-80588222D01*
X75086437Y-81013663D01*
X75504153Y-81299076D01*
X76000000Y-81399488D01*
X78000000Y-81399488D01*
X78463222Y-81312327D01*
X78628488Y-81205981D01*
X102949645Y-81205981D01*
X103261081Y-81959715D01*
X103837252Y-82536892D01*
X104590441Y-82849643D01*
X105405981Y-82850355D01*
X106159715Y-82538919D01*
X106736892Y-81962748D01*
X107049643Y-81209559D01*
X107050355Y-80394019D01*
X106738919Y-79640285D01*
X106598879Y-79500000D01*
X117375512Y-79500000D01*
X117375512Y-81300000D01*
X117462673Y-81763222D01*
X117736437Y-82188663D01*
X118154153Y-82474076D01*
X118650000Y-82574488D01*
X120450000Y-82574488D01*
X120913222Y-82487327D01*
X121149093Y-82335548D01*
X121225110Y-82386341D01*
X122047879Y-82550000D01*
X122132121Y-82550000D01*
X122954890Y-82386341D01*
X123360000Y-82115656D01*
X123765110Y-82386341D01*
X124587879Y-82550000D01*
X124672121Y-82550000D01*
X125494890Y-82386341D01*
X126192401Y-81920280D01*
X126658462Y-81222769D01*
X126822121Y-80400000D01*
X126658462Y-79577231D01*
X126192401Y-78879720D01*
X125494890Y-78413659D01*
X124672121Y-78250000D01*
X124587879Y-78250000D01*
X123765110Y-78413659D01*
X123360000Y-78684344D01*
X122954890Y-78413659D01*
X122132121Y-78250000D01*
X122047879Y-78250000D01*
X121225110Y-78413659D01*
X121148838Y-78464622D01*
X120945847Y-78325924D01*
X120450000Y-78225512D01*
X118650000Y-78225512D01*
X118186778Y-78312673D01*
X117761337Y-78586437D01*
X117475924Y-79004153D01*
X117375512Y-79500000D01*
X106598879Y-79500000D01*
X106162748Y-79063108D01*
X105409559Y-78750357D01*
X104594019Y-78749645D01*
X103840285Y-79061081D01*
X103263108Y-79637252D01*
X102950357Y-80390441D01*
X102949645Y-81205981D01*
X78628488Y-81205981D01*
X78888663Y-81038563D01*
X79174076Y-80620847D01*
X79274488Y-80125000D01*
X79274488Y-79430635D01*
X82975306Y-79430635D01*
X83325088Y-79927838D01*
X83769369Y-80224665D01*
X84000000Y-80108737D01*
X84000000Y-79200000D01*
X84800000Y-79200000D01*
X84800000Y-80108737D01*
X85030631Y-80224665D01*
X85474912Y-79927838D01*
X85824694Y-79430635D01*
X85716307Y-79200000D01*
X84800000Y-79200000D01*
X84000000Y-79200000D01*
X83083693Y-79200000D01*
X82975306Y-79430635D01*
X79274488Y-79430635D01*
X79274488Y-78169365D01*
X82975306Y-78169365D01*
X83083693Y-78400000D01*
X84000000Y-78400000D01*
X84000000Y-77491263D01*
X84800000Y-77491263D01*
X84800000Y-78400000D01*
X85716307Y-78400000D01*
X85824694Y-78169365D01*
X85474912Y-77672162D01*
X85030631Y-77375335D01*
X84800000Y-77491263D01*
X84000000Y-77491263D01*
X83769369Y-77375335D01*
X83325088Y-77672162D01*
X82975306Y-78169365D01*
X79274488Y-78169365D01*
X79274488Y-78125000D01*
X79187327Y-77661778D01*
X78913563Y-77236337D01*
X78495847Y-76950924D01*
X78000000Y-76850512D01*
X76000000Y-76850512D01*
X75536778Y-76937673D01*
X75111337Y-77211437D01*
X74825924Y-77629153D01*
X74725512Y-78125000D01*
X71349488Y-78125000D01*
X71349488Y-76405981D01*
X87149645Y-76405981D01*
X87461081Y-77159715D01*
X88037252Y-77736892D01*
X88790441Y-78049643D01*
X89605981Y-78050355D01*
X90359715Y-77738919D01*
X90936892Y-77162748D01*
X91249643Y-76409559D01*
X91249646Y-76405981D01*
X95549645Y-76405981D01*
X95861081Y-77159715D01*
X96437252Y-77736892D01*
X97190441Y-78049643D01*
X98005981Y-78050355D01*
X98759715Y-77738919D01*
X99300437Y-77199140D01*
X99837252Y-77736892D01*
X100590441Y-78049643D01*
X101405981Y-78050355D01*
X102159715Y-77738919D01*
X102736892Y-77162748D01*
X102845994Y-76900000D01*
X161025512Y-76900000D01*
X161025512Y-78700000D01*
X161112673Y-79163222D01*
X161386437Y-79588663D01*
X161804153Y-79874076D01*
X162300000Y-79974488D01*
X164100000Y-79974488D01*
X164563222Y-79887327D01*
X164799093Y-79735548D01*
X164875110Y-79786341D01*
X165697879Y-79950000D01*
X165782121Y-79950000D01*
X166604890Y-79786341D01*
X167010000Y-79515656D01*
X167415110Y-79786341D01*
X168237879Y-79950000D01*
X168322121Y-79950000D01*
X169144890Y-79786341D01*
X169842401Y-79320280D01*
X170308462Y-78622769D01*
X170472121Y-77800000D01*
X170308462Y-76977231D01*
X169842401Y-76279720D01*
X169144890Y-75813659D01*
X168322121Y-75650000D01*
X168237879Y-75650000D01*
X167415110Y-75813659D01*
X167010000Y-76084344D01*
X166604890Y-75813659D01*
X165782121Y-75650000D01*
X165697879Y-75650000D01*
X164875110Y-75813659D01*
X164798838Y-75864622D01*
X164595847Y-75725924D01*
X164100000Y-75625512D01*
X162300000Y-75625512D01*
X161836778Y-75712673D01*
X161411337Y-75986437D01*
X161125924Y-76404153D01*
X161025512Y-76900000D01*
X102845994Y-76900000D01*
X103049643Y-76409559D01*
X103050355Y-75594019D01*
X102738919Y-74840285D01*
X102162748Y-74263108D01*
X101409559Y-73950357D01*
X100594019Y-73949645D01*
X99840285Y-74261081D01*
X99299563Y-74800860D01*
X98762748Y-74263108D01*
X98009559Y-73950357D01*
X97194019Y-73949645D01*
X96440285Y-74261081D01*
X95863108Y-74837252D01*
X95550357Y-75590441D01*
X95549645Y-76405981D01*
X91249646Y-76405981D01*
X91250355Y-75594019D01*
X90938919Y-74840285D01*
X90362748Y-74263108D01*
X89609559Y-73950357D01*
X88794019Y-73949645D01*
X88040285Y-74261081D01*
X87463108Y-74837252D01*
X87150357Y-75590441D01*
X87149645Y-76405981D01*
X71349488Y-76405981D01*
X71349488Y-76100000D01*
X71262327Y-75636778D01*
X70988563Y-75211337D01*
X70570847Y-74925924D01*
X70075000Y-74825512D01*
X67875000Y-74825512D01*
X67411778Y-74912673D01*
X66986337Y-75186437D01*
X66700924Y-75604153D01*
X66600512Y-76100000D01*
X66600512Y-76181571D01*
X65862574Y-75688497D01*
X64925000Y-75502002D01*
X63987426Y-75688497D01*
X63192588Y-76219590D01*
X62661495Y-77014428D01*
X62475000Y-77952002D01*
X56432191Y-77952002D01*
X56320847Y-77875924D01*
X55825000Y-77775512D01*
X53425000Y-77775512D01*
X52961778Y-77862673D01*
X52536337Y-78136437D01*
X52250924Y-78554153D01*
X52150512Y-79050000D01*
X42324488Y-79050000D01*
X42237327Y-78586778D01*
X41963563Y-78161337D01*
X41545847Y-77875924D01*
X41050000Y-77775512D01*
X38650000Y-77775512D01*
X38186778Y-77862673D01*
X37761337Y-78136437D01*
X37475924Y-78554153D01*
X37375512Y-79050000D01*
X30913407Y-79050000D01*
X30950000Y-78866039D01*
X30950000Y-78773961D01*
X30771117Y-77874655D01*
X30261701Y-77112260D01*
X29499306Y-76602844D01*
X28600000Y-76423961D01*
X27700694Y-76602844D01*
X27325000Y-76853875D01*
X27325000Y-74379407D01*
X39069121Y-74379407D01*
X39216232Y-74643089D01*
X39988928Y-74741518D01*
X40483768Y-74643089D01*
X40630879Y-74379407D01*
X53844121Y-74379407D01*
X53991232Y-74643089D01*
X54763928Y-74741518D01*
X55258768Y-74643089D01*
X55405879Y-74379407D01*
X54625000Y-73598528D01*
X53844121Y-74379407D01*
X40630879Y-74379407D01*
X39850000Y-73598528D01*
X39069121Y-74379407D01*
X27325000Y-74379407D01*
X27325000Y-73539049D01*
X27500000Y-73574488D01*
X29700000Y-73574488D01*
X30163222Y-73487327D01*
X30588663Y-73213563D01*
X30810476Y-72888928D01*
X37858482Y-72888928D01*
X37956911Y-73383768D01*
X38220593Y-73530879D01*
X39001472Y-72750000D01*
X40698528Y-72750000D01*
X41479407Y-73530879D01*
X41743089Y-73383768D01*
X41806123Y-72888928D01*
X52633482Y-72888928D01*
X52731911Y-73383768D01*
X52995593Y-73530879D01*
X53776472Y-72750000D01*
X55473528Y-72750000D01*
X56254407Y-73530879D01*
X56518089Y-73383768D01*
X56579713Y-72900000D01*
X112962002Y-72900000D01*
X113148497Y-73837574D01*
X113679590Y-74632412D01*
X114474428Y-75163505D01*
X115412002Y-75350000D01*
X115507998Y-75350000D01*
X116445572Y-75163505D01*
X117240410Y-74632412D01*
X117771503Y-73837574D01*
X117861486Y-73385197D01*
X128249576Y-73385197D01*
X128621780Y-74286000D01*
X129310375Y-74975798D01*
X130210527Y-75349573D01*
X131185197Y-75350424D01*
X132086000Y-74978220D01*
X132775798Y-74289625D01*
X133062154Y-73600000D01*
X144727879Y-73600000D01*
X144891538Y-74422769D01*
X145357599Y-75120280D01*
X146055110Y-75586341D01*
X146877879Y-75750000D01*
X146962121Y-75750000D01*
X147784890Y-75586341D01*
X148190000Y-75315656D01*
X148595110Y-75586341D01*
X149417879Y-75750000D01*
X149502121Y-75750000D01*
X150324890Y-75586341D01*
X150401162Y-75535378D01*
X150604153Y-75674076D01*
X151100000Y-75774488D01*
X152900000Y-75774488D01*
X153363222Y-75687327D01*
X153788663Y-75413563D01*
X154074076Y-74995847D01*
X154174488Y-74500000D01*
X154174488Y-72700000D01*
X154087327Y-72236778D01*
X153813563Y-71811337D01*
X153395847Y-71525924D01*
X152900000Y-71425512D01*
X151100000Y-71425512D01*
X150636778Y-71512673D01*
X150400907Y-71664452D01*
X150324890Y-71613659D01*
X149502121Y-71450000D01*
X149417879Y-71450000D01*
X148595110Y-71613659D01*
X148190000Y-71884344D01*
X147784890Y-71613659D01*
X146962121Y-71450000D01*
X146877879Y-71450000D01*
X146055110Y-71613659D01*
X145357599Y-72079720D01*
X144891538Y-72777231D01*
X144727879Y-73600000D01*
X133062154Y-73600000D01*
X133149573Y-73389473D01*
X133150424Y-72414803D01*
X132778220Y-71514000D01*
X132089625Y-70824202D01*
X131189473Y-70450427D01*
X130214803Y-70449576D01*
X129314000Y-70821780D01*
X128624202Y-71510375D01*
X128250427Y-72410527D01*
X128249576Y-73385197D01*
X117861486Y-73385197D01*
X117957998Y-72900000D01*
X117771503Y-71962426D01*
X117240410Y-71167588D01*
X116445572Y-70636495D01*
X115507998Y-70450000D01*
X115412002Y-70450000D01*
X114474428Y-70636495D01*
X113679590Y-71167588D01*
X113148497Y-71962426D01*
X112962002Y-72900000D01*
X56579713Y-72900000D01*
X56616518Y-72611072D01*
X56518089Y-72116232D01*
X56254407Y-71969121D01*
X55473528Y-72750000D01*
X53776472Y-72750000D01*
X52995593Y-71969121D01*
X52731911Y-72116232D01*
X52633482Y-72888928D01*
X41806123Y-72888928D01*
X41841518Y-72611072D01*
X41743089Y-72116232D01*
X41479407Y-71969121D01*
X40698528Y-72750000D01*
X39001472Y-72750000D01*
X38220593Y-71969121D01*
X37956911Y-72116232D01*
X37858482Y-72888928D01*
X30810476Y-72888928D01*
X30874076Y-72795847D01*
X30974488Y-72300000D01*
X30974488Y-70927513D01*
X31540000Y-71040000D01*
X39114085Y-71040000D01*
X39069121Y-71120593D01*
X39850000Y-71901472D01*
X40630879Y-71120593D01*
X40585915Y-71040000D01*
X53889085Y-71040000D01*
X53844121Y-71120593D01*
X54625000Y-71901472D01*
X55405879Y-71120593D01*
X55317871Y-70962848D01*
X55791038Y-70868729D01*
X56520990Y-70380990D01*
X58651981Y-68250000D01*
X66725000Y-68250000D01*
X66725000Y-69031227D01*
M02*
