G04 #@! TF.FileFunction,Soldermask,Bot*
%FSLAX46Y46*%
G04 Gerber Fmt 4.6, Leading zero omitted, Abs format (unit mm)*
G04 Created by KiCad (PCBNEW 4.0.7) date 10/14/20 09:32:55*
%MOMM*%
%LPD*%
G01*
G04 APERTURE LIST*
%ADD10C,0.100000*%
%ADD11C,2.000000*%
%ADD12O,2.000000X2.000000*%
%ADD13R,2.600000X2.600000*%
%ADD14O,2.600000X2.600000*%
%ADD15R,2.800000X2.800000*%
%ADD16C,2.800000*%
%ADD17C,2.600000*%
%ADD18C,2.400000*%
%ADD19R,2.000000X2.000000*%
%ADD20C,1.920000*%
%ADD21R,1.920000X1.920000*%
%ADD22R,2.400000X2.400000*%
%ADD23R,2.200000X2.200000*%
%ADD24C,2.200000*%
%ADD25C,1.840000*%
%ADD26O,2.800000X2.800000*%
%ADD27C,3.200000*%
%ADD28O,3.200000X3.200000*%
%ADD29R,3.400000X3.400000*%
%ADD30C,3.400000*%
%ADD31C,5.900000*%
%ADD32C,4.464000*%
%ADD33R,2.100000X2.100000*%
%ADD34O,2.100000X2.100000*%
%ADD35O,2.200000X2.200000*%
%ADD36R,4.700000X4.900000*%
%ADD37O,2.900000X4.900000*%
%ADD38O,4.700000X4.900000*%
G04 APERTURE END LIST*
D10*
D11*
X106910000Y-81500000D03*
D12*
X106910000Y-68800000D03*
D13*
X198500000Y-68500000D03*
D14*
X198500000Y-76120000D03*
D15*
X54625000Y-80250000D03*
D16*
X54625000Y-72750000D03*
D17*
X176860000Y-102740000D03*
X176860000Y-97660000D03*
X181940000Y-97660000D03*
X181940000Y-102740000D03*
D18*
X179400000Y-100200000D03*
D19*
X188500000Y-80000000D03*
D11*
X188500000Y-77500000D03*
D20*
X117340000Y-98800000D03*
X119880000Y-98800000D03*
D21*
X114800000Y-98800000D03*
D20*
X89840000Y-83690000D03*
X89840000Y-86230000D03*
D21*
X89840000Y-81150000D03*
D11*
X184000000Y-69000000D03*
D12*
X176380000Y-69000000D03*
D11*
X133800000Y-98000000D03*
D12*
X126300000Y-98000000D03*
D11*
X92730000Y-90190000D03*
D12*
X100230000Y-90190000D03*
D11*
X69200000Y-104200000D03*
X69200000Y-99200000D03*
X183000000Y-76600000D03*
X183000000Y-81600000D03*
X74000000Y-104200000D03*
X74000000Y-99200000D03*
D22*
X77000000Y-79125000D03*
D18*
X77000000Y-84125000D03*
D22*
X72800000Y-94400000D03*
D18*
X72800000Y-89400000D03*
D11*
X103000000Y-93600000D03*
X108000000Y-93600000D03*
X154600000Y-92800000D03*
D12*
X144600000Y-92800000D03*
D11*
X230300000Y-92400000D03*
D12*
X230300000Y-82400000D03*
D11*
X90700000Y-68450000D03*
D12*
X90700000Y-78450000D03*
D15*
X257400000Y-78800000D03*
D16*
X257400000Y-71300000D03*
D11*
X232200000Y-68600000D03*
D12*
X232200000Y-78600000D03*
D13*
X52800000Y-103000000D03*
D14*
X45180000Y-103000000D03*
D23*
X199000000Y-79000000D03*
D24*
X199000000Y-81540000D03*
D19*
X142000000Y-68750000D03*
D12*
X142000000Y-61130000D03*
D19*
X155250000Y-61250000D03*
D12*
X155250000Y-68870000D03*
D13*
X68975000Y-77200000D03*
D14*
X68975000Y-69580000D03*
D11*
X144600000Y-97800000D03*
D12*
X152220000Y-97800000D03*
D11*
X164200000Y-95400000D03*
D12*
X171820000Y-95400000D03*
D11*
X99800000Y-75950000D03*
D12*
X99800000Y-68330000D03*
D11*
X96000000Y-76000000D03*
D12*
X96000000Y-68380000D03*
D11*
X100360000Y-93520000D03*
D12*
X92740000Y-93520000D03*
D11*
X134000000Y-101200000D03*
D12*
X126380000Y-101200000D03*
D11*
X134000000Y-104400000D03*
D12*
X126380000Y-104400000D03*
D11*
X152200000Y-101200000D03*
D12*
X144580000Y-101200000D03*
D11*
X152200000Y-104400000D03*
D12*
X144580000Y-104400000D03*
D25*
X139000000Y-103600000D03*
X139000000Y-101060000D03*
X139000000Y-98520000D03*
D16*
X188500000Y-90200000D03*
D26*
X188500000Y-102900000D03*
D11*
X177750000Y-76500000D03*
D12*
X177750000Y-84120000D03*
D16*
X64925000Y-90700000D03*
D26*
X64925000Y-78000000D03*
D11*
X82800000Y-96600000D03*
D12*
X82800000Y-104220000D03*
D11*
X79000000Y-96800000D03*
D12*
X79000000Y-104420000D03*
D11*
X192750000Y-83750000D03*
D12*
X192750000Y-96450000D03*
D11*
X103500000Y-75950000D03*
D12*
X103500000Y-68330000D03*
D11*
X146250000Y-81250000D03*
D12*
X153870000Y-81250000D03*
D25*
X141250000Y-85000000D03*
X141250000Y-82460000D03*
X141250000Y-79920000D03*
D11*
X153750000Y-84750000D03*
D12*
X146130000Y-84750000D03*
D11*
X166000000Y-69250000D03*
D12*
X158380000Y-69250000D03*
D11*
X128250000Y-69000000D03*
D12*
X120630000Y-69000000D03*
D16*
X193000000Y-73000000D03*
D26*
X177760000Y-73000000D03*
D11*
X133250000Y-69000000D03*
D12*
X133250000Y-61380000D03*
D11*
X186750000Y-69250000D03*
D12*
X186750000Y-61630000D03*
D16*
X28250000Y-65500000D03*
D26*
X40950000Y-65500000D03*
D16*
X260750000Y-65000000D03*
D26*
X248050000Y-65000000D03*
D11*
X226800000Y-82400000D03*
D12*
X226800000Y-69700000D03*
D27*
X29000000Y-59000000D03*
D28*
X49320000Y-59000000D03*
D27*
X264000000Y-59000000D03*
D28*
X243680000Y-59000000D03*
D27*
X55000000Y-59000000D03*
D28*
X75320000Y-59000000D03*
D27*
X236000000Y-59000000D03*
D28*
X215680000Y-59000000D03*
D27*
X82000000Y-59000000D03*
D28*
X102320000Y-59000000D03*
D27*
X210000000Y-59000000D03*
D28*
X189680000Y-59000000D03*
D27*
X109000000Y-59000000D03*
D28*
X129320000Y-59000000D03*
D27*
X184000000Y-59000000D03*
D28*
X163680000Y-59000000D03*
D29*
X220900000Y-100900000D03*
D30*
X215820000Y-100900000D03*
D29*
X242000000Y-88000000D03*
D30*
X236920000Y-88000000D03*
D29*
X42000000Y-88000000D03*
D30*
X36920000Y-88000000D03*
D31*
X262000000Y-102000000D03*
D32*
X262000000Y-47000000D03*
D31*
X30000000Y-102000000D03*
D32*
X30000000Y-47000000D03*
D29*
X164125000Y-101850000D03*
D30*
X159045000Y-101850000D03*
D15*
X39850000Y-80250000D03*
D16*
X39850000Y-72750000D03*
D15*
X54825000Y-95000000D03*
D16*
X54825000Y-87500000D03*
D15*
X242000000Y-78800000D03*
D16*
X242000000Y-71300000D03*
D15*
X253000000Y-94200000D03*
D16*
X253000000Y-86700000D03*
X130700000Y-72900000D03*
D26*
X115460000Y-72900000D03*
D17*
X158600000Y-91200000D03*
X173600000Y-91200000D03*
D27*
X209600000Y-82000000D03*
X209600000Y-70570000D03*
D16*
X221000000Y-69400000D03*
D26*
X221000000Y-84640000D03*
D20*
X117460000Y-102800000D03*
X114920000Y-102800000D03*
D21*
X120000000Y-102800000D03*
D20*
X99500000Y-82140000D03*
X99500000Y-84680000D03*
D21*
X99500000Y-79600000D03*
D20*
X97000000Y-99060000D03*
X97000000Y-96520000D03*
D21*
X97000000Y-101600000D03*
D20*
X89400000Y-99060000D03*
X89400000Y-96520000D03*
D21*
X89400000Y-101600000D03*
D20*
X183740000Y-87000000D03*
X186280000Y-87000000D03*
D21*
X181200000Y-87000000D03*
D20*
X104660000Y-98800000D03*
X102120000Y-98800000D03*
D21*
X107200000Y-98800000D03*
D20*
X137400000Y-71940000D03*
X137400000Y-74480000D03*
D21*
X137400000Y-69400000D03*
D20*
X171210000Y-69250000D03*
X168670000Y-69250000D03*
D21*
X173750000Y-69250000D03*
D13*
X28600000Y-71200000D03*
D14*
X28600000Y-78820000D03*
D13*
X248000000Y-100000000D03*
D14*
X255620000Y-100000000D03*
D13*
X28600000Y-81600000D03*
D14*
X28600000Y-89220000D03*
D13*
X248000000Y-103000000D03*
D14*
X255620000Y-103000000D03*
D11*
X65000000Y-104200000D03*
D12*
X65000000Y-94200000D03*
D11*
X193850000Y-101530000D03*
D12*
X206550000Y-101530000D03*
D11*
X121575000Y-92825000D03*
D12*
X131575000Y-92825000D03*
D11*
X134910000Y-92960000D03*
X139910000Y-92960000D03*
X110800000Y-92800000D03*
D12*
X118420000Y-92800000D03*
D33*
X263460000Y-93540000D03*
D34*
X263460000Y-96080000D03*
D33*
X28770000Y-94110000D03*
D34*
X28770000Y-96650000D03*
D23*
X122400000Y-80400000D03*
D35*
X124940000Y-80400000D03*
X127480000Y-80400000D03*
D23*
X152000000Y-73600000D03*
D35*
X149460000Y-73600000D03*
X146920000Y-73600000D03*
D23*
X163200000Y-77800000D03*
D35*
X165740000Y-77800000D03*
X168280000Y-77800000D03*
D23*
X137000000Y-47500000D03*
D35*
X139540000Y-47500000D03*
X142080000Y-47500000D03*
D23*
X151000000Y-47500000D03*
D35*
X153540000Y-47500000D03*
X156080000Y-47500000D03*
D36*
X40000000Y-50000000D03*
D37*
X45450000Y-50000000D03*
D38*
X50900000Y-50000000D03*
D36*
X242000000Y-50000000D03*
D37*
X247450000Y-50000000D03*
D38*
X252900000Y-50000000D03*
D36*
X65000000Y-50000000D03*
D37*
X70450000Y-50000000D03*
D38*
X75900000Y-50000000D03*
D36*
X217000000Y-50000000D03*
D37*
X222450000Y-50000000D03*
D38*
X227900000Y-50000000D03*
D36*
X90000000Y-50000000D03*
D37*
X95450000Y-50000000D03*
D38*
X100900000Y-50000000D03*
D36*
X192000000Y-50000000D03*
D37*
X197450000Y-50000000D03*
D38*
X202900000Y-50000000D03*
D36*
X115000000Y-50000000D03*
D37*
X120450000Y-50000000D03*
D38*
X125900000Y-50000000D03*
D36*
X167000000Y-50000000D03*
D37*
X172450000Y-50000000D03*
D38*
X177900000Y-50000000D03*
M02*
