G04 #@! TF.FileFunction,Copper,L2,Bot,Signal*
%FSLAX46Y46*%
G04 Gerber Fmt 4.6, Leading zero omitted, Abs format (unit mm)*
G04 Created by KiCad (PCBNEW 4.0.7) date 08/24/20 10:47:44*
%MOMM*%
%LPD*%
G01*
G04 APERTURE LIST*
%ADD10C,0.100000*%
%ADD11R,1.700000X1.700000*%
%ADD12O,1.700000X1.700000*%
%ADD13C,1.600000*%
%ADD14O,1.600000X1.600000*%
%ADD15R,2.400000X2.400000*%
%ADD16C,2.400000*%
%ADD17R,3.200000X3.200000*%
%ADD18O,3.200000X3.200000*%
%ADD19R,2.200000X2.200000*%
%ADD20O,2.200000X2.200000*%
%ADD21R,3.000000X3.000000*%
%ADD22C,3.000000*%
%ADD23C,5.500000*%
%ADD24C,4.100000*%
%ADD25C,1.000000*%
%ADD26C,4.000000*%
G04 APERTURE END LIST*
D10*
D11*
X149520000Y-47800000D03*
D12*
X146980000Y-47800000D03*
D13*
X82270000Y-47800000D03*
D14*
X82270000Y-60300000D03*
D13*
X82270000Y-72800000D03*
D14*
X82270000Y-85300000D03*
D13*
X93270000Y-51800000D03*
D14*
X93270000Y-64300000D03*
D13*
X93270000Y-74800000D03*
D14*
X93270000Y-87300000D03*
D13*
X130770000Y-47800000D03*
D14*
X130770000Y-60300000D03*
D13*
X131020000Y-73800000D03*
D14*
X131020000Y-86300000D03*
D13*
X168020000Y-60800000D03*
D14*
X168020000Y-48300000D03*
D13*
X168270000Y-85800000D03*
D14*
X168270000Y-73300000D03*
D15*
X181270000Y-54800000D03*
D16*
X181270000Y-62300000D03*
D15*
X181270000Y-77550000D03*
D16*
X181270000Y-85050000D03*
D15*
X196020000Y-54800000D03*
D16*
X196020000Y-62300000D03*
D15*
X196020000Y-77550000D03*
D16*
X196020000Y-85050000D03*
D15*
X210820000Y-54610000D03*
D16*
X210820000Y-62110000D03*
D15*
X210820000Y-77470000D03*
D16*
X210820000Y-84970000D03*
D17*
X64770000Y-49530000D03*
D18*
X64770000Y-62230000D03*
D17*
X64770000Y-77470000D03*
D18*
X64770000Y-90170000D03*
D17*
X74930000Y-49530000D03*
D18*
X74930000Y-62230000D03*
D17*
X74930000Y-77470000D03*
D18*
X74930000Y-90170000D03*
D19*
X97790000Y-48260000D03*
D20*
X97790000Y-55880000D03*
D19*
X97790000Y-58420000D03*
D20*
X97790000Y-66040000D03*
D19*
X97790000Y-73660000D03*
D20*
X97790000Y-81280000D03*
D19*
X97790000Y-83820000D03*
D20*
X97790000Y-91440000D03*
D19*
X161020000Y-47800000D03*
D20*
X161020000Y-55420000D03*
D19*
X161020000Y-58300000D03*
D20*
X161020000Y-65920000D03*
D19*
X161020000Y-73550000D03*
D20*
X161020000Y-81170000D03*
D19*
X161020000Y-84050000D03*
D20*
X161020000Y-91670000D03*
D21*
X53340000Y-54610000D03*
D22*
X53340000Y-49530000D03*
D21*
X53340000Y-64770000D03*
D22*
X53340000Y-59690000D03*
D21*
X53340000Y-80010000D03*
D22*
X53340000Y-74930000D03*
D21*
X53340000Y-90170000D03*
D22*
X53340000Y-85090000D03*
D21*
X224790000Y-59690000D03*
D22*
X224790000Y-64770000D03*
D21*
X224790000Y-85090000D03*
D22*
X224790000Y-90170000D03*
D21*
X224790000Y-49530000D03*
D22*
X224790000Y-54610000D03*
D21*
X224790000Y-74930000D03*
D22*
X224790000Y-80010000D03*
X120650000Y-55880000D03*
X105410000Y-55880000D03*
X120650000Y-62230000D03*
X105410000Y-62230000D03*
X120650000Y-78740000D03*
X105410000Y-78740000D03*
X120650000Y-85090000D03*
X105410000Y-85090000D03*
X156210000Y-55880000D03*
X140970000Y-55880000D03*
X156210000Y-62230000D03*
X140970000Y-62230000D03*
X156210000Y-78740000D03*
X140970000Y-78740000D03*
X156210000Y-85090000D03*
X140970000Y-85090000D03*
D23*
X39370000Y-49530000D03*
X39370000Y-90170000D03*
D24*
X240030000Y-49530000D03*
X240030000Y-90170000D03*
D13*
X86270000Y-53800000D03*
D14*
X86270000Y-66300000D03*
D13*
X86270000Y-78800000D03*
D14*
X86270000Y-91300000D03*
D13*
X101020000Y-51050000D03*
X101020000Y-56050000D03*
X101020000Y-76300000D03*
X101020000Y-81300000D03*
X126770000Y-51550000D03*
X126770000Y-56550000D03*
X126520000Y-76050000D03*
X126520000Y-81050000D03*
X164520000Y-50800000D03*
X164520000Y-55800000D03*
X164520000Y-76050000D03*
X164520000Y-81050000D03*
X101020000Y-58300000D03*
X101020000Y-63300000D03*
X101020000Y-83550000D03*
X101020000Y-88550000D03*
X134770000Y-54300000D03*
D14*
X134770000Y-66800000D03*
D13*
X134520000Y-79300000D03*
D14*
X134520000Y-91800000D03*
D13*
X126770000Y-58550000D03*
X126770000Y-63550000D03*
X126520000Y-83300000D03*
X126520000Y-88300000D03*
X171770000Y-66550000D03*
D14*
X171770000Y-54050000D03*
D13*
X171770000Y-92050000D03*
D14*
X171770000Y-79550000D03*
D13*
X164520000Y-58050000D03*
X164520000Y-63050000D03*
X164520000Y-83550000D03*
X164520000Y-88550000D03*
D11*
X147520000Y-91800000D03*
D12*
X150060000Y-91800000D03*
D25*
X131020000Y-86300000D02*
X136520000Y-86300000D01*
X142020000Y-91800000D02*
X147520000Y-91800000D01*
X136520000Y-86300000D02*
X142020000Y-91800000D01*
X146980000Y-47800000D02*
X141270000Y-47800000D01*
X141270000Y-47800000D02*
X134770000Y-54300000D01*
X130770000Y-60300000D02*
X130770000Y-67300000D01*
X134520000Y-71050000D02*
X134520000Y-79300000D01*
X130770000Y-67300000D02*
X134520000Y-71050000D01*
X89520000Y-56050000D02*
X89520000Y-77300000D01*
X89520000Y-77300000D02*
X88020000Y-78800000D01*
X39370000Y-90170000D02*
X39370000Y-49530000D01*
X113270000Y-48800000D02*
X113270000Y-71300000D01*
X113270000Y-92800000D02*
X113770000Y-93300000D01*
X101020000Y-56050000D02*
X101020000Y-55300000D01*
X101020000Y-55300000D02*
X107520000Y-48800000D01*
X132770000Y-54300000D02*
X134770000Y-54300000D01*
X127270000Y-48800000D02*
X132770000Y-54300000D01*
X107520000Y-48800000D02*
X113270000Y-48800000D01*
X113270000Y-48800000D02*
X127270000Y-48800000D01*
X86270000Y-53800000D02*
X87270000Y-53800000D01*
X87270000Y-53800000D02*
X89520000Y-56050000D01*
X89520000Y-56050000D02*
X93520000Y-56050000D01*
X98270000Y-53300000D02*
X101020000Y-56050000D01*
X93520000Y-56050000D02*
X96270000Y-53300000D01*
X96270000Y-53300000D02*
X98270000Y-53300000D01*
X86270000Y-78800000D02*
X88020000Y-78800000D01*
X88020000Y-78800000D02*
X100020000Y-78800000D01*
X100020000Y-78800000D02*
X101020000Y-79800000D01*
X101020000Y-79800000D02*
X101020000Y-81300000D01*
X131020000Y-86300000D02*
X131020000Y-87550000D01*
X125270000Y-93300000D02*
X113770000Y-93300000D01*
X131020000Y-87550000D02*
X125270000Y-93300000D01*
X113770000Y-93300000D02*
X109270000Y-93300000D01*
X109270000Y-93300000D02*
X101020000Y-85050000D01*
X101020000Y-85050000D02*
X101020000Y-83550000D01*
X86270000Y-53800000D02*
X81270000Y-53800000D01*
X81270000Y-53800000D02*
X78270000Y-50800000D01*
X78270000Y-50800000D02*
X78270000Y-47300000D01*
X78270000Y-47300000D02*
X77270000Y-46300000D01*
X77270000Y-46300000D02*
X42600000Y-46300000D01*
X42600000Y-46300000D02*
X39370000Y-49530000D01*
X82270000Y-85300000D02*
X82270000Y-91300000D01*
X42500000Y-93300000D02*
X39370000Y-90170000D01*
X80270000Y-93300000D02*
X42500000Y-93300000D01*
X82270000Y-91300000D02*
X80270000Y-93300000D01*
X113270000Y-71300000D02*
X113270000Y-92800000D01*
D26*
X210820000Y-62110000D02*
X213480000Y-62110000D01*
X220980000Y-54610000D02*
X224790000Y-54610000D01*
X213480000Y-62110000D02*
X220980000Y-54610000D01*
X210820000Y-54610000D02*
X210820000Y-53340000D01*
X214630000Y-49530000D02*
X224790000Y-49530000D01*
X210820000Y-53340000D02*
X214630000Y-49530000D01*
X210820000Y-84970000D02*
X210820000Y-87630000D01*
X210820000Y-87630000D02*
X213360000Y-90170000D01*
X213360000Y-90170000D02*
X224790000Y-90170000D01*
X224790000Y-85090000D02*
X217170000Y-85090000D01*
X214630000Y-77470000D02*
X210820000Y-77470000D01*
X217170000Y-80010000D02*
X214630000Y-77470000D01*
X217170000Y-85090000D02*
X217170000Y-80010000D01*
X64770000Y-62230000D02*
X64770000Y-77470000D01*
X53340000Y-74930000D02*
X57150000Y-74930000D01*
X74930000Y-80010000D02*
X74930000Y-77470000D01*
X71120000Y-83820000D02*
X74930000Y-80010000D01*
X62230000Y-83820000D02*
X71120000Y-83820000D01*
X59690000Y-81280000D02*
X62230000Y-83820000D01*
X59690000Y-77470000D02*
X59690000Y-81280000D01*
X57150000Y-74930000D02*
X59690000Y-77470000D01*
X74930000Y-62230000D02*
X74930000Y-77470000D01*
D25*
X164520000Y-55800000D02*
X164520000Y-54800000D01*
X152270000Y-50550000D02*
X149520000Y-47800000D01*
X160270000Y-50550000D02*
X152270000Y-50550000D01*
X164520000Y-54800000D02*
X160270000Y-50550000D01*
X164520000Y-55050000D02*
X164520000Y-55800000D01*
X164520000Y-83550000D02*
X164520000Y-83800000D01*
X164520000Y-83800000D02*
X161770000Y-87800000D01*
X153020000Y-91800000D02*
X150060000Y-91800000D01*
X157020000Y-87800000D02*
X153020000Y-91800000D01*
X161770000Y-87800000D02*
X157020000Y-87800000D01*
M02*
