M48
;DRILL file {KiCad 4.0.7} date 10/17/20 23:28:12
;FORMAT={-:-/ absolute / metric / decimal}
FMAT,2
METRIC,TZ
T1C0.800
T2C1.000
T3C1.100
T4C1.200
T5C1.500
T6C1.520
T7C1.600
T8C3.048
%
G90
G05
M71
T1
X86.27Y-47.8
X86.27Y-60.3
X86.27Y-72.8
X86.27Y-85.3
X91.77Y-53.3
X91.77Y-65.8
X91.77Y-79.3
X91.77Y-91.8
X101.02Y-51.05
X101.02Y-56.05
X101.02Y-58.3
X101.02Y-63.3
X101.02Y-76.3
X101.02Y-81.3
X101.02Y-83.55
X101.02Y-88.55
X126.52Y-76.05
X126.52Y-81.05
X126.52Y-83.3
X126.52Y-88.3
X126.77Y-51.55
X126.77Y-56.55
X126.77Y-58.55
X126.77Y-63.55
X130.77Y-47.8
X130.77Y-60.3
X131.02Y-73.8
X131.02Y-86.3
X134.52Y-79.3
X134.52Y-91.8
X134.77Y-54.3
X134.77Y-66.8
X164.52Y-50.8
X164.52Y-55.8
X164.52Y-58.05
X164.52Y-63.05
X164.52Y-76.05
X164.52Y-81.05
X164.52Y-83.55
X164.52Y-88.55
X168.02Y-48.3
X168.02Y-60.8
X168.27Y-73.3
X168.27Y-85.8
X171.77Y-54.05
X171.77Y-66.55
X171.77Y-79.55
X171.77Y-92.05
X180.77Y-70.3
X193.47Y-70.3
X200.27Y-70.3
X212.97Y-70.3
T2
X146.98Y-47.8
X147.52Y-91.8
X149.52Y-47.8
X150.06Y-91.8
T3
X97.79Y-48.26
X97.79Y-55.88
X97.79Y-58.42
X97.79Y-66.04
X97.79Y-73.66
X97.79Y-81.28
X97.79Y-83.82
X97.79Y-91.44
X161.02Y-47.8
X161.02Y-55.42
X161.02Y-58.3
X161.02Y-65.92
X161.02Y-73.55
X161.02Y-81.17
X161.02Y-84.05
X161.02Y-91.67
T4
X181.27Y-54.8
X181.27Y-62.3
X181.27Y-77.55
X181.27Y-85.05
X196.02Y-54.8
X196.02Y-62.3
X196.02Y-77.55
X196.02Y-85.05
X210.82Y-54.61
X210.82Y-62.11
X210.82Y-77.47
X210.82Y-84.97
T5
X105.41Y-55.88
X105.41Y-62.23
X105.41Y-78.74
X105.41Y-85.09
X120.65Y-55.88
X120.65Y-62.23
X120.65Y-78.74
X120.65Y-85.09
X140.97Y-55.88
X140.97Y-62.23
X140.97Y-78.74
X140.97Y-85.09
X156.21Y-55.88
X156.21Y-62.23
X156.21Y-78.74
X156.21Y-85.09
T6
X48.26Y-49.53
X48.26Y-54.61
X48.26Y-59.69
X48.26Y-64.77
X48.26Y-74.93
X48.26Y-80.01
X48.26Y-85.09
X48.26Y-90.17
X53.34Y-49.53
X53.34Y-54.61
X53.34Y-59.69
X53.34Y-64.77
X53.34Y-74.93
X53.34Y-80.01
X53.34Y-85.09
X53.34Y-90.17
X224.79Y-49.53
X224.79Y-54.61
X224.79Y-59.69
X224.79Y-64.77
X224.79Y-74.93
X224.79Y-80.01
X224.79Y-85.09
X224.79Y-90.17
X229.87Y-49.53
X229.87Y-54.61
X229.87Y-59.69
X229.87Y-64.77
X229.87Y-74.93
X229.87Y-80.01
X229.87Y-85.09
X229.87Y-90.17
T7
X64.77Y-49.53
X64.77Y-62.23
X64.77Y-77.47
X64.77Y-90.17
X74.93Y-49.53
X74.93Y-62.23
X74.93Y-77.47
X74.93Y-90.17
T8
X39.37Y-49.53
X39.37Y-90.17
X240.03Y-49.53
X240.03Y-90.17
T0
M30
