G04 #@! TF.FileFunction,Soldermask,Bot*
%FSLAX46Y46*%
G04 Gerber Fmt 4.6, Leading zero omitted, Abs format (unit mm)*
G04 Created by KiCad (PCBNEW 4.0.7) date 09/16/20 11:21:24*
%MOMM*%
%LPD*%
G01*
G04 APERTURE LIST*
%ADD10C,0.100000*%
%ADD11C,1.920000*%
%ADD12R,1.920000X1.920000*%
%ADD13C,2.000000*%
%ADD14O,2.000000X2.000000*%
%ADD15R,2.400000X2.400000*%
%ADD16C,2.400000*%
%ADD17R,2.800000X2.800000*%
%ADD18C,2.800000*%
%ADD19R,2.600000X2.600000*%
%ADD20O,2.600000X2.600000*%
%ADD21R,2.200000X2.200000*%
%ADD22C,2.200000*%
%ADD23R,2.000000X2.000000*%
%ADD24C,1.840000*%
%ADD25O,2.800000X2.800000*%
%ADD26R,4.700000X4.900000*%
%ADD27O,2.900000X4.900000*%
%ADD28O,4.700000X4.900000*%
%ADD29C,3.200000*%
%ADD30O,3.200000X3.200000*%
%ADD31R,3.400000X3.400000*%
%ADD32C,3.400000*%
%ADD33C,5.900000*%
%ADD34C,4.464000*%
%ADD35C,2.600000*%
%ADD36O,2.200000X2.200000*%
G04 APERTURE END LIST*
D10*
D11*
X118000000Y-100460000D03*
X118000000Y-97920000D03*
D12*
X118000000Y-103000000D03*
D11*
X90550000Y-83740000D03*
X90550000Y-86280000D03*
D12*
X90550000Y-81200000D03*
D13*
X184000000Y-69000000D03*
D14*
X176380000Y-69000000D03*
D13*
X130900000Y-95250000D03*
D14*
X123400000Y-95250000D03*
D13*
X94950000Y-87950000D03*
D14*
X102450000Y-87950000D03*
D13*
X73950000Y-104550000D03*
X73950000Y-99550000D03*
X182000000Y-80000000D03*
X182000000Y-85000000D03*
X78550000Y-101800000D03*
X78550000Y-96800000D03*
D15*
X66350000Y-100600000D03*
D16*
X66350000Y-95600000D03*
D15*
X66500000Y-84600000D03*
D16*
X66500000Y-89600000D03*
D13*
X115000000Y-93050000D03*
X120000000Y-93050000D03*
X155000000Y-86500000D03*
D14*
X145000000Y-86500000D03*
D13*
X64300000Y-69950000D03*
D14*
X74300000Y-69950000D03*
D17*
X50750000Y-76650000D03*
D18*
X50750000Y-84150000D03*
D13*
X90700000Y-68450000D03*
D14*
X90700000Y-78450000D03*
D17*
X209500000Y-78500000D03*
D18*
X209500000Y-71000000D03*
D13*
X221000000Y-69000000D03*
D14*
X221000000Y-79000000D03*
D19*
X57000000Y-102500000D03*
D20*
X57000000Y-94880000D03*
D21*
X190000000Y-83500000D03*
D22*
X190000000Y-86040000D03*
D23*
X142000000Y-68750000D03*
D14*
X142000000Y-61130000D03*
D23*
X155250000Y-61250000D03*
D14*
X155250000Y-68870000D03*
D19*
X53450000Y-70000000D03*
D20*
X61070000Y-70000000D03*
D19*
X198500000Y-68500000D03*
D20*
X198500000Y-76120000D03*
D13*
X123300000Y-98375000D03*
D14*
X130920000Y-98375000D03*
D13*
X136250000Y-98750000D03*
D14*
X136250000Y-91130000D03*
D13*
X99800000Y-75950000D03*
D14*
X99800000Y-68330000D03*
D13*
X96000000Y-76000000D03*
D14*
X96000000Y-68380000D03*
D13*
X102650000Y-92950000D03*
D14*
X95030000Y-92950000D03*
D13*
X134620000Y-101600000D03*
D14*
X127000000Y-101600000D03*
D13*
X134600000Y-104700000D03*
D14*
X126980000Y-104700000D03*
D13*
X154500000Y-99750000D03*
D14*
X146880000Y-99750000D03*
D13*
X154500000Y-103500000D03*
D14*
X146880000Y-103500000D03*
D24*
X142000000Y-103000000D03*
X142000000Y-100460000D03*
X142000000Y-97920000D03*
D18*
X178500000Y-91000000D03*
D25*
X178500000Y-103700000D03*
D13*
X177500000Y-79500000D03*
D14*
X177500000Y-87120000D03*
D18*
X52550000Y-102350000D03*
D25*
X52550000Y-89650000D03*
D13*
X86900000Y-94350000D03*
D14*
X86900000Y-101970000D03*
D13*
X82750000Y-94350000D03*
D14*
X82750000Y-101970000D03*
D13*
X190500000Y-91500000D03*
D14*
X190500000Y-104200000D03*
D13*
X103500000Y-75950000D03*
D14*
X103500000Y-68330000D03*
D13*
X110700000Y-76100000D03*
D14*
X110700000Y-68480000D03*
D13*
X107000000Y-76000000D03*
D14*
X107000000Y-68380000D03*
D13*
X113050000Y-86650000D03*
D14*
X113050000Y-79030000D03*
D13*
X142500000Y-77500000D03*
D14*
X142500000Y-85120000D03*
D24*
X138000000Y-84000000D03*
X138000000Y-81460000D03*
X138000000Y-78920000D03*
D13*
X153000000Y-83000000D03*
D14*
X145380000Y-83000000D03*
D13*
X173750000Y-68500000D03*
D14*
X173750000Y-76120000D03*
D13*
X128250000Y-69000000D03*
D14*
X120630000Y-69000000D03*
D18*
X193000000Y-73000000D03*
D25*
X177760000Y-73000000D03*
D13*
X133250000Y-69000000D03*
D14*
X133250000Y-61380000D03*
D13*
X186750000Y-69250000D03*
D14*
X186750000Y-61630000D03*
D18*
X28250000Y-65500000D03*
D25*
X40950000Y-65500000D03*
D18*
X260750000Y-65000000D03*
D25*
X248050000Y-65000000D03*
D13*
X73400000Y-75750000D03*
D14*
X60700000Y-75750000D03*
D26*
X40000000Y-50000000D03*
D27*
X45450000Y-50000000D03*
D28*
X50900000Y-50000000D03*
D26*
X242000000Y-50000000D03*
D27*
X247450000Y-50000000D03*
D28*
X252900000Y-50000000D03*
D26*
X65000000Y-50000000D03*
D27*
X70450000Y-50000000D03*
D28*
X75900000Y-50000000D03*
D26*
X217000000Y-50000000D03*
D27*
X222450000Y-50000000D03*
D28*
X227900000Y-50000000D03*
D26*
X90000000Y-50000000D03*
D27*
X95450000Y-50000000D03*
D28*
X100900000Y-50000000D03*
D26*
X192000000Y-50000000D03*
D27*
X197450000Y-50000000D03*
D28*
X202900000Y-50000000D03*
D26*
X115000000Y-50000000D03*
D27*
X120450000Y-50000000D03*
D28*
X125900000Y-50000000D03*
D26*
X167000000Y-50000000D03*
D27*
X172450000Y-50000000D03*
D28*
X177900000Y-50000000D03*
D29*
X29000000Y-59000000D03*
D30*
X49320000Y-59000000D03*
D29*
X264000000Y-59000000D03*
D30*
X243680000Y-59000000D03*
D29*
X55000000Y-59000000D03*
D30*
X75320000Y-59000000D03*
D29*
X236000000Y-59000000D03*
D30*
X215680000Y-59000000D03*
D29*
X82000000Y-59000000D03*
D30*
X102320000Y-59000000D03*
D29*
X210000000Y-59000000D03*
D30*
X189680000Y-59000000D03*
D29*
X109000000Y-59000000D03*
D30*
X129320000Y-59000000D03*
D29*
X184000000Y-59000000D03*
D30*
X163680000Y-59000000D03*
D31*
X245500000Y-101000000D03*
D32*
X250580000Y-101000000D03*
D31*
X229500000Y-71900000D03*
D32*
X234580000Y-71900000D03*
D31*
X79000000Y-72400000D03*
D32*
X84080000Y-72400000D03*
D33*
X262000000Y-102000000D03*
D34*
X262000000Y-47000000D03*
D33*
X30000000Y-102000000D03*
D34*
X30000000Y-47000000D03*
D31*
X163500000Y-101750000D03*
D32*
X168580000Y-101750000D03*
D35*
X163460000Y-93290000D03*
X163460000Y-88210000D03*
X168540000Y-88210000D03*
X168540000Y-93290000D03*
D16*
X166000000Y-90750000D03*
D17*
X35750000Y-76600000D03*
D18*
X35750000Y-84100000D03*
D17*
X42350000Y-92650000D03*
D18*
X42350000Y-100150000D03*
D17*
X220000000Y-89500000D03*
D18*
X212500000Y-89500000D03*
D17*
X197250000Y-89500000D03*
D18*
X204750000Y-89500000D03*
X130700000Y-72900000D03*
D25*
X115460000Y-72900000D03*
D13*
X262000000Y-92000000D03*
X262000000Y-97000000D03*
X30000000Y-92000000D03*
X30000000Y-97000000D03*
D35*
X140000000Y-91000000D03*
X155000000Y-91000000D03*
D21*
X127250000Y-83950000D03*
D36*
X124710000Y-83950000D03*
X122170000Y-83950000D03*
D21*
X147000000Y-73500000D03*
D36*
X149540000Y-73500000D03*
X152080000Y-73500000D03*
D21*
X166000000Y-77900000D03*
D36*
X163460000Y-77900000D03*
X160920000Y-77900000D03*
D21*
X137000000Y-47500000D03*
D36*
X139540000Y-47500000D03*
X142080000Y-47500000D03*
D21*
X151000000Y-47500000D03*
D36*
X153540000Y-47500000D03*
X156080000Y-47500000D03*
D29*
X261000000Y-78000000D03*
X249570000Y-78000000D03*
D18*
X241000000Y-71000000D03*
D25*
X241000000Y-86240000D03*
D11*
X109800000Y-102010000D03*
X109800000Y-99470000D03*
D12*
X109800000Y-104550000D03*
D11*
X99500000Y-82140000D03*
X99500000Y-84680000D03*
D12*
X99500000Y-79600000D03*
D11*
X101350000Y-99010000D03*
X101350000Y-96470000D03*
D12*
X101350000Y-101550000D03*
D11*
X92100000Y-99410000D03*
X92100000Y-96870000D03*
D12*
X92100000Y-101950000D03*
D11*
X184350000Y-91640000D03*
X184350000Y-94180000D03*
D12*
X184350000Y-89100000D03*
D11*
X108100000Y-91840000D03*
X108100000Y-94380000D03*
D12*
X108100000Y-89300000D03*
D11*
X108550000Y-82490000D03*
X108550000Y-85030000D03*
D12*
X108550000Y-79950000D03*
D11*
X137400000Y-71940000D03*
X137400000Y-74480000D03*
D12*
X137400000Y-69400000D03*
D11*
X163710000Y-69100000D03*
X161170000Y-69100000D03*
D12*
X166250000Y-69100000D03*
D19*
X47000000Y-70500000D03*
D20*
X39380000Y-70500000D03*
D19*
X233350000Y-95150000D03*
D20*
X225730000Y-95150000D03*
D19*
X36200000Y-70350000D03*
D20*
X28580000Y-70350000D03*
D19*
X225800000Y-91150000D03*
D20*
X233420000Y-91150000D03*
D23*
X186500000Y-79500000D03*
D13*
X186500000Y-77000000D03*
M02*
