G04 #@! TF.FileFunction,Copper,L1,Top,Signal*
%FSLAX46Y46*%
G04 Gerber Fmt 4.6, Leading zero omitted, Abs format (unit mm)*
G04 Created by KiCad (PCBNEW 4.0.7) date 05/11/21 12:31:05*
%MOMM*%
%LPD*%
G01*
G04 APERTURE LIST*
%ADD10C,0.100000*%
%ADD11C,1.520000*%
%ADD12R,1.520000X1.520000*%
%ADD13C,1.600000*%
%ADD14O,1.600000X1.600000*%
%ADD15R,2.400000X2.400000*%
%ADD16C,2.400000*%
%ADD17O,2.400000X2.400000*%
%ADD18R,2.200000X2.200000*%
%ADD19O,2.200000X2.200000*%
%ADD20C,2.200000*%
%ADD21C,2.000000*%
%ADD22R,1.600000X1.600000*%
%ADD23R,2.000000X2.000000*%
%ADD24R,1.800000X1.800000*%
%ADD25C,1.800000*%
%ADD26C,1.440000*%
%ADD27C,2.800000*%
%ADD28O,2.800000X2.800000*%
%ADD29C,5.500000*%
%ADD30C,4.064000*%
%ADD31O,1.800000X1.800000*%
%ADD32R,1.700000X1.700000*%
%ADD33O,1.700000X1.700000*%
%ADD34R,3.000000X3.000000*%
%ADD35C,3.000000*%
%ADD36R,4.300000X2.000000*%
%ADD37R,3.000000X2.000000*%
%ADD38R,4.300000X4.500000*%
%ADD39O,2.500000X4.500000*%
%ADD40O,4.300000X4.500000*%
%ADD41C,1.000000*%
%ADD42C,4.000000*%
%ADD43C,2.000000*%
%ADD44C,0.500000*%
%ADD45C,1.500000*%
G04 APERTURE END LIST*
D10*
D11*
X82210000Y-92000000D03*
X79670000Y-92000000D03*
D12*
X84750000Y-92000000D03*
D13*
X70030000Y-104010000D03*
D14*
X70030000Y-96510000D03*
D15*
X54825000Y-95000000D03*
D16*
X54825000Y-87500000D03*
X151750000Y-54830000D03*
D17*
X166990000Y-54830000D03*
D11*
X183060000Y-86000000D03*
X180520000Y-86000000D03*
D12*
X185600000Y-86000000D03*
D11*
X72940000Y-85100000D03*
X75480000Y-85100000D03*
D12*
X70400000Y-85100000D03*
D13*
X100100000Y-69250000D03*
D14*
X87400000Y-69250000D03*
D18*
X201630000Y-68620000D03*
D19*
X201630000Y-76240000D03*
D15*
X54625000Y-80250000D03*
D16*
X54625000Y-72750000D03*
D20*
X160880000Y-103070000D03*
X160880000Y-97990000D03*
X165960000Y-97990000D03*
X165960000Y-103070000D03*
D21*
X163420000Y-100530000D03*
D22*
X195780000Y-69990000D03*
D13*
X198280000Y-69990000D03*
D11*
X119340000Y-98700000D03*
X121880000Y-98700000D03*
D12*
X116800000Y-98700000D03*
D13*
X186200000Y-73000000D03*
D14*
X178580000Y-73000000D03*
D13*
X84180000Y-100750000D03*
X84180000Y-95750000D03*
X198740000Y-74880000D03*
X193740000Y-74880000D03*
X110600000Y-104600000D03*
X110600000Y-99600000D03*
D23*
X90350000Y-80900000D03*
D21*
X90350000Y-75900000D03*
D23*
X99000000Y-87950000D03*
D21*
X99000000Y-82950000D03*
D13*
X105750000Y-87050000D03*
X105750000Y-82050000D03*
X159110000Y-58640000D03*
D14*
X149110000Y-58640000D03*
D13*
X232200000Y-91300000D03*
D14*
X232200000Y-81300000D03*
D13*
X110000000Y-69000000D03*
D14*
X120000000Y-69000000D03*
D15*
X257400000Y-78800000D03*
D16*
X257400000Y-71300000D03*
D13*
X232200000Y-68600000D03*
D14*
X232200000Y-78600000D03*
D18*
X60800000Y-100470000D03*
D19*
X53180000Y-100470000D03*
D24*
X201560000Y-78820000D03*
D25*
X201560000Y-81360000D03*
D22*
X149700000Y-69070000D03*
D14*
X149700000Y-61450000D03*
D22*
X155400000Y-61400000D03*
D14*
X155400000Y-69020000D03*
D18*
X68975000Y-77200000D03*
D19*
X68975000Y-69580000D03*
D13*
X144600000Y-97800000D03*
D14*
X152220000Y-97800000D03*
D13*
X155000000Y-97200000D03*
D14*
X155000000Y-104820000D03*
D13*
X78250000Y-76100000D03*
D14*
X78250000Y-68480000D03*
D13*
X74850000Y-76050000D03*
D14*
X74850000Y-68430000D03*
D13*
X76500000Y-96510000D03*
D14*
X76500000Y-104130000D03*
D13*
X134000000Y-101200000D03*
D14*
X126380000Y-101200000D03*
D13*
X134000000Y-104400000D03*
D14*
X126380000Y-104400000D03*
D13*
X152200000Y-101200000D03*
D14*
X144580000Y-101200000D03*
D13*
X152200000Y-104400000D03*
D14*
X144580000Y-104400000D03*
D26*
X139000000Y-103600000D03*
X139000000Y-101060000D03*
X139000000Y-98520000D03*
D16*
X188400000Y-91800000D03*
D17*
X188400000Y-104500000D03*
D13*
X191280000Y-68900000D03*
D14*
X191280000Y-76520000D03*
D16*
X64925000Y-90700000D03*
D17*
X64925000Y-78000000D03*
D13*
X107400000Y-97000000D03*
D14*
X107400000Y-104620000D03*
D13*
X104000000Y-97000000D03*
D14*
X104000000Y-104620000D03*
D13*
X192800000Y-91800000D03*
D14*
X192800000Y-104500000D03*
D13*
X81750000Y-76100000D03*
D14*
X81750000Y-68480000D03*
D13*
X146100000Y-81600000D03*
D14*
X153720000Y-81600000D03*
D26*
X142400000Y-83400000D03*
X139860000Y-83400000D03*
X137320000Y-83400000D03*
D13*
X153750000Y-84750000D03*
D14*
X146130000Y-84750000D03*
D13*
X185780000Y-76160000D03*
D14*
X178160000Y-76160000D03*
D13*
X131000000Y-69000000D03*
D14*
X123380000Y-69000000D03*
D16*
X182600000Y-69200000D03*
D17*
X167360000Y-69200000D03*
D13*
X133250000Y-69000000D03*
D14*
X133250000Y-61380000D03*
D13*
X185560000Y-69070000D03*
D14*
X185560000Y-61450000D03*
D16*
X28150000Y-65950000D03*
D17*
X40850000Y-65950000D03*
D16*
X260950000Y-65700000D03*
D17*
X248250000Y-65700000D03*
D13*
X226800000Y-82400000D03*
D14*
X226800000Y-69700000D03*
D27*
X27700000Y-60650000D03*
D28*
X48020000Y-60650000D03*
D27*
X263950000Y-60400000D03*
D28*
X243630000Y-60400000D03*
D27*
X55050000Y-60700000D03*
D28*
X75370000Y-60700000D03*
D27*
X237350000Y-60450000D03*
D28*
X217030000Y-60450000D03*
D27*
X82250000Y-60650000D03*
D28*
X102570000Y-60650000D03*
D27*
X210550000Y-60450000D03*
D28*
X190230000Y-60450000D03*
D27*
X109150000Y-60700000D03*
D28*
X129470000Y-60700000D03*
D27*
X182300000Y-60500000D03*
D28*
X161980000Y-60500000D03*
D29*
X262000000Y-102000000D03*
D30*
X262000000Y-47000000D03*
D29*
X30000000Y-102000000D03*
D30*
X30000000Y-47000000D03*
D15*
X39850000Y-80250000D03*
D16*
X39850000Y-72750000D03*
D15*
X242000000Y-78800000D03*
D16*
X242000000Y-71300000D03*
D15*
X253000000Y-94200000D03*
D16*
X253000000Y-86700000D03*
X125550000Y-72700000D03*
D17*
X110310000Y-72700000D03*
D20*
X158600000Y-91200000D03*
X173600000Y-91200000D03*
D24*
X123450000Y-81750000D03*
D31*
X120910000Y-81750000D03*
X118370000Y-81750000D03*
D24*
X147000000Y-73500000D03*
D31*
X149540000Y-73500000D03*
X152080000Y-73500000D03*
D24*
X169000000Y-79000000D03*
D31*
X166460000Y-79000000D03*
X163920000Y-79000000D03*
D24*
X137000000Y-47500000D03*
D31*
X139540000Y-47500000D03*
X142080000Y-47500000D03*
D24*
X151000000Y-47500000D03*
D31*
X153540000Y-47500000D03*
X156080000Y-47500000D03*
D27*
X211950000Y-81690000D03*
X211950000Y-70260000D03*
D16*
X222770000Y-68730000D03*
D17*
X222770000Y-83970000D03*
D11*
X119360000Y-102900000D03*
X116820000Y-102900000D03*
D12*
X121900000Y-102900000D03*
D11*
X82110000Y-85050000D03*
X79570000Y-85050000D03*
D12*
X84650000Y-85050000D03*
D11*
X72410000Y-91950000D03*
X69870000Y-91950000D03*
D12*
X74950000Y-91950000D03*
D11*
X90300000Y-88990000D03*
X90300000Y-91530000D03*
D12*
X90300000Y-86450000D03*
D11*
X139740000Y-69100000D03*
X142280000Y-69100000D03*
D12*
X137200000Y-69100000D03*
D11*
X160660000Y-68800000D03*
X158120000Y-68800000D03*
D12*
X163200000Y-68800000D03*
D18*
X28600000Y-71200000D03*
D19*
X28600000Y-78820000D03*
D18*
X248000000Y-100000000D03*
D19*
X255620000Y-100000000D03*
D18*
X28600000Y-81600000D03*
D19*
X28600000Y-89220000D03*
D18*
X248000000Y-103000000D03*
D19*
X255620000Y-103000000D03*
D13*
X97350000Y-101800000D03*
D14*
X97350000Y-91800000D03*
D13*
X216400000Y-95800000D03*
D14*
X203700000Y-95800000D03*
D13*
X140800000Y-91000000D03*
D14*
X150800000Y-91000000D03*
D13*
X133400000Y-88000000D03*
X138400000Y-88000000D03*
X130600000Y-91000000D03*
D14*
X138220000Y-91000000D03*
D32*
X263460000Y-93540000D03*
D33*
X263460000Y-96080000D03*
D32*
X28770000Y-94110000D03*
D33*
X28770000Y-96650000D03*
D34*
X227000000Y-97900000D03*
D35*
X221920000Y-97900000D03*
D34*
X227000000Y-102980000D03*
D35*
X221920000Y-102980000D03*
D34*
X242600000Y-88000000D03*
D35*
X237520000Y-88000000D03*
D34*
X242600000Y-93080000D03*
D35*
X237520000Y-93080000D03*
D34*
X42000000Y-88000000D03*
D35*
X36920000Y-88000000D03*
D34*
X42000000Y-93080000D03*
D35*
X36920000Y-93080000D03*
D34*
X178000000Y-100000000D03*
D35*
X183080000Y-100000000D03*
D13*
X105400000Y-89800000D03*
X110400000Y-89800000D03*
D22*
X196200000Y-104600000D03*
D14*
X203820000Y-104600000D03*
D22*
X204000000Y-101800000D03*
D14*
X196380000Y-101800000D03*
D13*
X196200000Y-99200000D03*
D14*
X203820000Y-99200000D03*
D16*
X130350000Y-55550000D03*
D17*
X115110000Y-55550000D03*
D16*
X107300000Y-55350000D03*
D17*
X92060000Y-55350000D03*
D16*
X80200000Y-55250000D03*
D17*
X64960000Y-55250000D03*
D16*
X55250000Y-55300000D03*
D17*
X40010000Y-55300000D03*
D16*
X226700000Y-55000000D03*
D17*
X241940000Y-55000000D03*
D16*
X201700000Y-55050000D03*
D17*
X216940000Y-55050000D03*
D16*
X176750000Y-55250000D03*
D17*
X191990000Y-55250000D03*
D36*
X252968000Y-44078000D03*
D37*
X247588000Y-44078000D03*
D38*
X242000000Y-47200000D03*
D39*
X247450000Y-47200000D03*
D40*
X252900000Y-47200000D03*
D36*
X242000000Y-44078000D03*
X227968000Y-44078000D03*
D37*
X222588000Y-44078000D03*
D38*
X217000000Y-47200000D03*
D39*
X222450000Y-47200000D03*
D40*
X227900000Y-47200000D03*
D36*
X217000000Y-44078000D03*
X202968000Y-44078000D03*
D37*
X197588000Y-44078000D03*
D38*
X192000000Y-47200000D03*
D39*
X197450000Y-47200000D03*
D40*
X202900000Y-47200000D03*
D36*
X192000000Y-44078000D03*
X125968000Y-44078000D03*
D37*
X120588000Y-44078000D03*
D38*
X115000000Y-47200000D03*
D39*
X120450000Y-47200000D03*
D40*
X125900000Y-47200000D03*
D36*
X115000000Y-44078000D03*
X100968000Y-44078000D03*
D37*
X95588000Y-44078000D03*
D38*
X90000000Y-47200000D03*
D39*
X95450000Y-47200000D03*
D40*
X100900000Y-47200000D03*
D36*
X90000000Y-44078000D03*
X75968000Y-44078000D03*
D37*
X70588000Y-44078000D03*
D38*
X65000000Y-47200000D03*
D39*
X70450000Y-47200000D03*
D40*
X75900000Y-47200000D03*
D36*
X65000000Y-44078000D03*
X50968000Y-44078000D03*
D37*
X45588000Y-44078000D03*
D38*
X40000000Y-47200000D03*
D39*
X45450000Y-47200000D03*
D40*
X50900000Y-47200000D03*
D36*
X40000000Y-44078000D03*
X177968000Y-44078000D03*
D37*
X172588000Y-44078000D03*
D38*
X167000000Y-47200000D03*
D39*
X172450000Y-47200000D03*
D40*
X177900000Y-47200000D03*
D36*
X167000000Y-44078000D03*
D13*
X153500000Y-87750000D03*
X148500000Y-87750000D03*
X131100000Y-97900000D03*
X126100000Y-97900000D03*
X138150000Y-53800000D03*
D14*
X138150000Y-61420000D03*
D22*
X141240000Y-61380000D03*
D14*
X146320000Y-53760000D03*
X143780000Y-61380000D03*
X143780000Y-53760000D03*
X146320000Y-61380000D03*
X141240000Y-53760000D03*
D22*
X136040000Y-73090000D03*
D14*
X128420000Y-73090000D03*
D22*
X188150000Y-68620000D03*
D14*
X188150000Y-76240000D03*
D41*
X203800000Y-104580000D02*
X203820000Y-104600000D01*
X203800000Y-104580000D02*
X203820000Y-104600000D01*
D42*
X36920000Y-93080000D02*
X36920000Y-88000000D01*
D41*
X28600000Y-89220000D02*
X31580000Y-89220000D01*
X32800000Y-88000000D02*
X36920000Y-88000000D01*
X31580000Y-89220000D02*
X32800000Y-88000000D01*
D42*
X54825000Y-87500000D02*
X55500000Y-87500000D01*
X55500000Y-87500000D02*
X59000000Y-84000000D01*
X59000000Y-84000000D02*
X59000000Y-75000000D01*
X59000000Y-75000000D02*
X56750000Y-72750000D01*
X56750000Y-72750000D02*
X54625000Y-72750000D01*
X36920000Y-88000000D02*
X35000000Y-88000000D01*
X37600000Y-75000000D02*
X39850000Y-72750000D01*
X34000000Y-75000000D02*
X37600000Y-75000000D01*
X33000000Y-76000000D02*
X34000000Y-75000000D01*
X33000000Y-86000000D02*
X33000000Y-76000000D01*
X35000000Y-88000000D02*
X33000000Y-86000000D01*
D41*
X72410000Y-91950000D02*
X72410000Y-90540000D01*
X72410000Y-90540000D02*
X73700000Y-89250000D01*
X73700000Y-89250000D02*
X80400000Y-89250000D01*
X80400000Y-89250000D02*
X82210000Y-91060000D01*
X82210000Y-91060000D02*
X82210000Y-92000000D01*
D43*
X172450000Y-48300000D02*
X172450000Y-44816000D01*
X172450000Y-44816000D02*
X172588000Y-44678000D01*
X197450000Y-48300000D02*
X197450000Y-44816000D01*
X197450000Y-44816000D02*
X197588000Y-44678000D01*
X222450000Y-48300000D02*
X222450000Y-44816000D01*
X222450000Y-44816000D02*
X222588000Y-44678000D01*
X247450000Y-48300000D02*
X247450000Y-44816000D01*
X247450000Y-44816000D02*
X247588000Y-44678000D01*
X172450000Y-45566000D02*
X172588000Y-45428000D01*
X222450000Y-45566000D02*
X222588000Y-45428000D01*
X120450000Y-47200000D02*
X120450000Y-44216000D01*
X120450000Y-44216000D02*
X120588000Y-44078000D01*
X95450000Y-48300000D02*
X95450000Y-44816000D01*
X95450000Y-44816000D02*
X95588000Y-44678000D01*
X70450000Y-48200000D02*
X70450000Y-44716000D01*
X70450000Y-44716000D02*
X70588000Y-44578000D01*
X45450000Y-48350000D02*
X45450000Y-44866000D01*
X45450000Y-44866000D02*
X45588000Y-44728000D01*
D41*
X116800000Y-98700000D02*
X116800000Y-99300000D01*
X116800000Y-99300000D02*
X118450000Y-100950000D01*
X118450000Y-100950000D02*
X126130000Y-100950000D01*
X126130000Y-100950000D02*
X126380000Y-101200000D01*
D43*
X50900000Y-48350000D02*
X50900000Y-44796000D01*
X50900000Y-44796000D02*
X50968000Y-44728000D01*
X252900000Y-47200000D02*
X252900000Y-49350000D01*
X252900000Y-49350000D02*
X263950000Y-60400000D01*
X252900000Y-48300000D02*
X252900000Y-44746000D01*
X252900000Y-44746000D02*
X252968000Y-44678000D01*
X75900000Y-48200000D02*
X75900000Y-44646000D01*
X75900000Y-44646000D02*
X75968000Y-44578000D01*
X75950000Y-60120000D02*
X75370000Y-60700000D01*
X227900000Y-48300000D02*
X227900000Y-44746000D01*
X227900000Y-44746000D02*
X227968000Y-44678000D01*
X227900000Y-45496000D02*
X227968000Y-45428000D01*
X100900000Y-48300000D02*
X100900000Y-44746000D01*
X100900000Y-44746000D02*
X100968000Y-44678000D01*
X202900000Y-48300000D02*
X202900000Y-44746000D01*
X202900000Y-44746000D02*
X202968000Y-44678000D01*
X202900000Y-45496000D02*
X202968000Y-45428000D01*
D41*
X138150000Y-61420000D02*
X133290000Y-61420000D01*
X133290000Y-61420000D02*
X133250000Y-61380000D01*
X133250000Y-61380000D02*
X130150000Y-61380000D01*
X130150000Y-61380000D02*
X129470000Y-60700000D01*
D43*
X125900000Y-48300000D02*
X125900000Y-44746000D01*
X125900000Y-44746000D02*
X125968000Y-44678000D01*
D41*
X130150000Y-61380000D02*
X129470000Y-60700000D01*
X143780000Y-61380000D02*
X143780000Y-58680000D01*
X180670000Y-58870000D02*
X182300000Y-60500000D01*
X167250000Y-58870000D02*
X180670000Y-58870000D01*
X164430000Y-56050000D02*
X167250000Y-58870000D01*
X158120000Y-56050000D02*
X164430000Y-56050000D01*
X156650000Y-57520000D02*
X158120000Y-56050000D01*
X150790000Y-57520000D02*
X156650000Y-57520000D01*
X149600000Y-56330000D02*
X150790000Y-57520000D01*
X146130000Y-56330000D02*
X149600000Y-56330000D01*
X143780000Y-58680000D02*
X146130000Y-56330000D01*
D43*
X177900000Y-48300000D02*
X177900000Y-44746000D01*
X177900000Y-44746000D02*
X177968000Y-44678000D01*
X177900000Y-45496000D02*
X177968000Y-45428000D01*
D41*
X185560000Y-61450000D02*
X185440000Y-61450000D01*
X185440000Y-61450000D02*
X182300000Y-60500000D01*
D44*
X182300000Y-60500000D02*
X182420000Y-60500000D01*
D43*
X107300000Y-55350000D02*
X107300000Y-54700000D01*
X107300000Y-54700000D02*
X110500000Y-51500000D01*
X130350000Y-55550000D02*
X130350000Y-54900000D01*
X130350000Y-54900000D02*
X133750000Y-51500000D01*
X80200000Y-55250000D02*
X80200000Y-55050000D01*
X80200000Y-55050000D02*
X83750000Y-51500000D01*
X40850000Y-65950000D02*
X40850000Y-60900000D01*
X46450000Y-55300000D02*
X55250000Y-55300000D01*
X40850000Y-60900000D02*
X46450000Y-55300000D01*
X142080000Y-47500000D02*
X142080000Y-50670000D01*
X142080000Y-50670000D02*
X141250000Y-51500000D01*
X141250000Y-51500000D02*
X133750000Y-51500000D01*
X133750000Y-51500000D02*
X110500000Y-51500000D01*
X110500000Y-51500000D02*
X83750000Y-51500000D01*
X83750000Y-51500000D02*
X59050000Y-51500000D01*
X59050000Y-51500000D02*
X55250000Y-55300000D01*
D45*
X130350000Y-55550000D02*
X130700000Y-55550000D01*
X107300000Y-55350000D02*
X107300000Y-55200000D01*
D43*
X130350000Y-55550000D02*
X130950000Y-55550000D01*
X107300000Y-55350000D02*
X107300000Y-54900000D01*
X80200000Y-55250000D02*
X80200000Y-55100000D01*
X159250000Y-51250000D02*
X159250000Y-52000000D01*
X156354857Y-54618337D02*
X151750000Y-54830000D01*
X159250000Y-52000000D02*
X156354857Y-54618337D01*
X176750000Y-55250000D02*
X176500000Y-55250000D01*
X176500000Y-55250000D02*
X172500000Y-51250000D01*
X201700000Y-55050000D02*
X201700000Y-54950000D01*
X201700000Y-54950000D02*
X198000000Y-51250000D01*
X222950000Y-51250000D02*
X246500000Y-51250000D01*
X246500000Y-51250000D02*
X260950000Y-65700000D01*
X156080000Y-47500000D02*
X156080000Y-48080000D01*
X156080000Y-48080000D02*
X159250000Y-51250000D01*
X222950000Y-51250000D02*
X226700000Y-55000000D01*
X159250000Y-51250000D02*
X172500000Y-51250000D01*
X172500000Y-51250000D02*
X198000000Y-51250000D01*
X198000000Y-51250000D02*
X222950000Y-51250000D01*
D45*
X201700000Y-55050000D02*
X201550000Y-55050000D01*
D43*
X176750000Y-55250000D02*
X176350000Y-55250000D01*
X201700000Y-55050000D02*
X201700000Y-54650000D01*
D41*
X188150000Y-68620000D02*
X188140000Y-66540000D01*
X188140000Y-66540000D02*
X186600000Y-65000000D01*
D42*
X166400000Y-65000000D02*
X148250000Y-65000000D01*
X140050000Y-65000000D02*
X132800000Y-65000000D01*
X139700000Y-65000000D02*
X140050000Y-65000000D01*
X144470000Y-65000000D02*
X139700000Y-65000000D01*
X148250000Y-65000000D02*
X144470000Y-65000000D01*
D41*
X128420000Y-73090000D02*
X128420000Y-69380000D01*
X128420000Y-69380000D02*
X132800000Y-65000000D01*
X137200000Y-69100000D02*
X137200000Y-66050000D01*
X137200000Y-66050000D02*
X138830000Y-64420000D01*
D42*
X82250000Y-60650000D02*
X82250000Y-61200000D01*
X82250000Y-61200000D02*
X86050000Y-65000000D01*
X55050000Y-60700000D02*
X58900000Y-60700000D01*
X63200000Y-65000000D02*
X61000000Y-65000000D01*
X58900000Y-60700000D02*
X63200000Y-65000000D01*
D41*
X107400000Y-97000000D02*
X108000000Y-97000000D01*
X108000000Y-97000000D02*
X110600000Y-99600000D01*
X123380000Y-69000000D02*
X123380000Y-65000000D01*
X124000000Y-66000000D02*
X124000000Y-65000000D01*
X124000000Y-65620000D02*
X124000000Y-66000000D01*
X123380000Y-65000000D02*
X124000000Y-65620000D01*
X186200000Y-73000000D02*
X185190000Y-73000000D01*
X185190000Y-73000000D02*
X182000000Y-73000000D01*
X179600000Y-70600000D02*
X179600000Y-65000000D01*
X182000000Y-73000000D02*
X179600000Y-70600000D01*
X163200000Y-68800000D02*
X163200000Y-68200000D01*
X163200000Y-68200000D02*
X166400000Y-65000000D01*
D42*
X170330000Y-65000000D02*
X166400000Y-65000000D01*
D43*
X68975000Y-69580000D02*
X68975000Y-65555000D01*
X68975000Y-65555000D02*
X68420000Y-65000000D01*
X31540000Y-68790000D02*
X28150000Y-65950000D01*
X54930000Y-68790000D02*
X31540000Y-68790000D01*
X58720000Y-65000000D02*
X54930000Y-68790000D01*
X61000000Y-65000000D02*
X58720000Y-65000000D01*
D42*
X217030000Y-60450000D02*
X218000000Y-61400000D01*
X218000000Y-61400000D02*
X219420000Y-65000000D01*
D43*
X226800000Y-69700000D02*
X226800000Y-68250000D01*
X226500000Y-67950000D02*
X226500000Y-65000000D01*
X226800000Y-68250000D02*
X226500000Y-67950000D01*
X222770000Y-68730000D02*
X221000000Y-66970000D01*
X221000000Y-66970000D02*
X222970000Y-65000000D01*
X201630000Y-68620000D02*
X201630000Y-67550000D01*
X201630000Y-67550000D02*
X196070000Y-65000000D01*
X196070000Y-65000000D02*
X196070000Y-65480000D01*
D42*
X211950000Y-70260000D02*
X209600000Y-67720000D01*
X209600000Y-67720000D02*
X206880000Y-65000000D01*
X243630000Y-60400000D02*
X243680000Y-60630000D01*
X243680000Y-60630000D02*
X248250000Y-65700000D01*
X190230000Y-60450000D02*
X190230000Y-60540000D01*
X190230000Y-60540000D02*
X196070000Y-65480000D01*
X196070000Y-65480000D02*
X195590000Y-65000000D01*
X161980000Y-60500000D02*
X162630000Y-60500000D01*
X162630000Y-60500000D02*
X170330000Y-65000000D01*
X109150000Y-60700000D02*
X109000000Y-60550000D01*
X109000000Y-60550000D02*
X113450000Y-65000000D01*
X248250000Y-65700000D02*
X226500000Y-65000000D01*
X226500000Y-65000000D02*
X222970000Y-65000000D01*
X222970000Y-65000000D02*
X219420000Y-65000000D01*
X219420000Y-65000000D02*
X206880000Y-65000000D01*
X206880000Y-65000000D02*
X195590000Y-65000000D01*
X195590000Y-65000000D02*
X186600000Y-65000000D01*
X186600000Y-65000000D02*
X179600000Y-65000000D01*
X179600000Y-65000000D02*
X170330000Y-65000000D01*
X132800000Y-65000000D02*
X124000000Y-65000000D01*
X124000000Y-65000000D02*
X122000000Y-65000000D01*
X122000000Y-65000000D02*
X117750000Y-65000000D01*
X117750000Y-65000000D02*
X113450000Y-65000000D01*
X113450000Y-65000000D02*
X86050000Y-65000000D01*
X86050000Y-65000000D02*
X87850000Y-65000000D01*
X87850000Y-65000000D02*
X68420000Y-65000000D01*
X68420000Y-65000000D02*
X63510000Y-65000000D01*
X63510000Y-65000000D02*
X61000000Y-65000000D01*
D43*
X27700000Y-60650000D02*
X28900000Y-65200000D01*
X28900000Y-65200000D02*
X28150000Y-65950000D01*
D41*
X105600000Y-89600000D02*
X105400000Y-89800000D01*
X183080000Y-100000000D02*
X183080000Y-100720000D01*
X99000000Y-87950000D02*
X99100000Y-87950000D01*
X155000000Y-104820000D02*
X155000000Y-104600000D01*
X155000000Y-104600000D02*
X156600000Y-103000000D01*
D43*
X40000000Y-48350000D02*
X40000000Y-44728000D01*
X242000000Y-48300000D02*
X242000000Y-44678000D01*
X65000000Y-48200000D02*
X65000000Y-44578000D01*
X217000000Y-48300000D02*
X217000000Y-44678000D01*
X90000000Y-48300000D02*
X90000000Y-44678000D01*
X192000000Y-48300000D02*
X192000000Y-44678000D01*
X115000000Y-48300000D02*
X115000000Y-44678000D01*
X167000000Y-48300000D02*
X167000000Y-44678000D01*
D41*
X141240000Y-61380000D02*
X141240000Y-59670000D01*
X138150000Y-56580000D02*
X138150000Y-53800000D01*
X141240000Y-59670000D02*
X138150000Y-56580000D01*
D44*
G36*
X51575000Y-87500000D02*
X51822392Y-88743721D01*
X52526903Y-89798097D01*
X53581279Y-90502608D01*
X54825000Y-90750000D01*
X55500000Y-90750000D01*
X56743721Y-90502608D01*
X57798097Y-89798097D01*
X60346194Y-87250000D01*
X88273038Y-87250000D01*
X88352673Y-87673222D01*
X88545773Y-87973307D01*
X88290350Y-88588432D01*
X88289652Y-89388060D01*
X88595012Y-90127086D01*
X89057605Y-90590487D01*
X88325161Y-91322931D01*
X88802266Y-91800036D01*
X88862821Y-92104466D01*
X89109233Y-92183366D01*
X89762599Y-91530000D01*
X89493899Y-91261300D01*
X89797471Y-90957727D01*
X89898432Y-90999650D01*
X90698060Y-91000348D01*
X90802143Y-90957341D01*
X91106102Y-91261300D01*
X90837401Y-91530000D01*
X91490767Y-92183366D01*
X91737179Y-92104466D01*
X91792911Y-91804859D01*
X91837932Y-91759838D01*
X95300000Y-91759838D01*
X95300000Y-91840162D01*
X95456047Y-92624663D01*
X95900431Y-93289731D01*
X96565499Y-93734115D01*
X97350000Y-93890162D01*
X98134501Y-93734115D01*
X98799569Y-93289731D01*
X99243953Y-92624663D01*
X99400000Y-91840162D01*
X99400000Y-91759838D01*
X99243953Y-90975337D01*
X98799569Y-90310269D01*
X98134501Y-89865885D01*
X97350000Y-89709838D01*
X96565499Y-89865885D01*
X95900431Y-90310269D01*
X95456047Y-90975337D01*
X95300000Y-91759838D01*
X91837932Y-91759838D01*
X92274839Y-91322931D01*
X91542083Y-90590175D01*
X92003001Y-90130060D01*
X92309650Y-89391568D01*
X92310306Y-88639500D01*
X97242000Y-88639500D01*
X97242000Y-89100776D01*
X97357399Y-89379373D01*
X97570628Y-89592602D01*
X97849225Y-89708000D01*
X98310500Y-89708000D01*
X98500000Y-89518500D01*
X98500000Y-88450000D01*
X99500000Y-88450000D01*
X99500000Y-89518500D01*
X99689500Y-89708000D01*
X100150775Y-89708000D01*
X100429372Y-89592602D01*
X100642601Y-89379373D01*
X100758000Y-89100776D01*
X100758000Y-88639500D01*
X100568500Y-88450000D01*
X99500000Y-88450000D01*
X98500000Y-88450000D01*
X97431500Y-88450000D01*
X97242000Y-88639500D01*
X92310306Y-88639500D01*
X92310348Y-88591940D01*
X92053450Y-87970202D01*
X92234076Y-87705847D01*
X92326388Y-87250000D01*
X97242000Y-87250000D01*
X97242000Y-87260500D01*
X97431500Y-87450000D01*
X98500000Y-87450000D01*
X98500000Y-87250000D01*
X99500000Y-87250000D01*
X99500000Y-87450000D01*
X100568500Y-87450000D01*
X100758000Y-87260500D01*
X100758000Y-87250000D01*
X103699825Y-87250000D01*
X103699645Y-87455981D01*
X104011081Y-88209715D01*
X104051166Y-88249870D01*
X103663108Y-88637252D01*
X103350357Y-89390441D01*
X103349645Y-90205981D01*
X103661081Y-90959715D01*
X104237252Y-91536892D01*
X104990441Y-91849643D01*
X105805981Y-91850355D01*
X106559715Y-91538919D01*
X107136892Y-90962748D01*
X107449643Y-90209559D01*
X107449646Y-90205981D01*
X108349645Y-90205981D01*
X108661081Y-90959715D01*
X109237252Y-91536892D01*
X109990441Y-91849643D01*
X110805981Y-91850355D01*
X111559715Y-91538919D01*
X111692885Y-91405981D01*
X128549645Y-91405981D01*
X128861081Y-92159715D01*
X129437252Y-92736892D01*
X130190441Y-93049643D01*
X131005981Y-93050355D01*
X131759715Y-92738919D01*
X132336892Y-92162748D01*
X132649643Y-91409559D01*
X132650355Y-90594019D01*
X132338919Y-89840285D01*
X131762748Y-89263108D01*
X131009559Y-88950357D01*
X130194019Y-88949645D01*
X129440285Y-89261081D01*
X128863108Y-89837252D01*
X128550357Y-90590441D01*
X128549645Y-91405981D01*
X111692885Y-91405981D01*
X112136892Y-90962748D01*
X112449643Y-90209559D01*
X112450355Y-89394019D01*
X112138919Y-88640285D01*
X111562748Y-88063108D01*
X110809559Y-87750357D01*
X109994019Y-87749645D01*
X109240285Y-88061081D01*
X108663108Y-88637252D01*
X108350357Y-89390441D01*
X108349645Y-90205981D01*
X107449646Y-90205981D01*
X107450355Y-89394019D01*
X107138919Y-88640285D01*
X107098834Y-88600130D01*
X107486892Y-88212748D01*
X107799643Y-87459559D01*
X107799826Y-87250000D01*
X131491720Y-87250000D01*
X131350357Y-87590441D01*
X131349645Y-88405981D01*
X131661081Y-89159715D01*
X132237252Y-89736892D01*
X132990441Y-90049643D01*
X133805981Y-90050355D01*
X134559715Y-89738919D01*
X135136892Y-89162748D01*
X135449643Y-88409559D01*
X135450355Y-87594019D01*
X135308209Y-87250000D01*
X136491720Y-87250000D01*
X136350357Y-87590441D01*
X136349645Y-88405981D01*
X136661081Y-89159715D01*
X136922737Y-89421828D01*
X136730269Y-89550431D01*
X136285885Y-90215499D01*
X136129838Y-91000000D01*
X136285885Y-91784501D01*
X136730269Y-92449569D01*
X137395337Y-92893953D01*
X138179838Y-93050000D01*
X138260162Y-93050000D01*
X139044663Y-92893953D01*
X139494195Y-92593585D01*
X139637252Y-92736892D01*
X140390441Y-93049643D01*
X141205981Y-93050355D01*
X141959715Y-92738919D01*
X142536892Y-92162748D01*
X142757846Y-91630631D01*
X149375335Y-91630631D01*
X149672162Y-92074912D01*
X150169365Y-92424694D01*
X150400000Y-92316307D01*
X150400000Y-91400000D01*
X151200000Y-91400000D01*
X151200000Y-92316307D01*
X151430635Y-92424694D01*
X151927838Y-92074912D01*
X152201440Y-91665393D01*
X156249593Y-91665393D01*
X156606605Y-92529429D01*
X157267094Y-93191071D01*
X158130505Y-93549591D01*
X159065393Y-93550407D01*
X159929429Y-93193395D01*
X160591071Y-92532906D01*
X160949591Y-91669495D01*
X160949594Y-91665393D01*
X171249593Y-91665393D01*
X171606605Y-92529429D01*
X172267094Y-93191071D01*
X173130505Y-93549591D01*
X174065393Y-93550407D01*
X174929429Y-93193395D01*
X175591071Y-92532906D01*
X175949591Y-91669495D01*
X175950407Y-90734607D01*
X175593395Y-89870571D01*
X174932906Y-89208929D01*
X174069495Y-88850409D01*
X173134607Y-88849593D01*
X172270571Y-89206605D01*
X171608929Y-89867094D01*
X171250409Y-90730505D01*
X171249593Y-91665393D01*
X160949594Y-91665393D01*
X160950407Y-90734607D01*
X160593395Y-89870571D01*
X159932906Y-89208929D01*
X159069495Y-88850409D01*
X158134607Y-88849593D01*
X157270571Y-89206605D01*
X156608929Y-89867094D01*
X156250409Y-90730505D01*
X156249593Y-91665393D01*
X152201440Y-91665393D01*
X152224665Y-91630631D01*
X152108737Y-91400000D01*
X151200000Y-91400000D01*
X150400000Y-91400000D01*
X149491263Y-91400000D01*
X149375335Y-91630631D01*
X142757846Y-91630631D01*
X142849643Y-91409559D01*
X142850355Y-90594019D01*
X142757532Y-90369369D01*
X149375335Y-90369369D01*
X149491263Y-90600000D01*
X150400000Y-90600000D01*
X150400000Y-89683693D01*
X151200000Y-89683693D01*
X151200000Y-90600000D01*
X152108737Y-90600000D01*
X152224665Y-90369369D01*
X151927838Y-89925088D01*
X151430635Y-89575306D01*
X151200000Y-89683693D01*
X150400000Y-89683693D01*
X150169365Y-89575306D01*
X149672162Y-89925088D01*
X149375335Y-90369369D01*
X142757532Y-90369369D01*
X142538919Y-89840285D01*
X141962748Y-89263108D01*
X141209559Y-88950357D01*
X140394019Y-88949645D01*
X140190454Y-89033756D01*
X140449643Y-88409559D01*
X140450355Y-87594019D01*
X140308209Y-87250000D01*
X146487911Y-87250000D01*
X146450357Y-87340441D01*
X146449645Y-88155981D01*
X146761081Y-88909715D01*
X147337252Y-89486892D01*
X148090441Y-89799643D01*
X148905981Y-89800355D01*
X149659715Y-89488919D01*
X150236892Y-88912748D01*
X150549643Y-88159559D01*
X150550355Y-87344019D01*
X150511507Y-87250000D01*
X151487911Y-87250000D01*
X151450357Y-87340441D01*
X151449645Y-88155981D01*
X151761081Y-88909715D01*
X152337252Y-89486892D01*
X153090441Y-89799643D01*
X153905981Y-89800355D01*
X154659715Y-89488919D01*
X155236892Y-88912748D01*
X155549643Y-88159559D01*
X155550355Y-87344019D01*
X155511507Y-87250000D01*
X178927729Y-87250000D01*
X179379940Y-87703001D01*
X180118432Y-88009650D01*
X180918060Y-88010348D01*
X181657086Y-87704988D01*
X181789736Y-87572569D01*
X181919940Y-87703001D01*
X182658432Y-88009650D01*
X183458060Y-88010348D01*
X184079798Y-87753450D01*
X184344153Y-87934076D01*
X184840000Y-88034488D01*
X186360000Y-88034488D01*
X186750000Y-87961105D01*
X186750000Y-89985320D01*
X186324202Y-90410375D01*
X185950427Y-91310527D01*
X185949576Y-92285197D01*
X186321780Y-93186000D01*
X186750000Y-93614968D01*
X186750000Y-102664524D01*
X186667588Y-102719590D01*
X186136495Y-103514428D01*
X185950000Y-104452002D01*
X185950000Y-104547998D01*
X185975262Y-104675000D01*
X166674202Y-104675000D01*
X166712183Y-104600001D01*
X165960000Y-103847817D01*
X165207817Y-104600001D01*
X165245798Y-104675000D01*
X161594202Y-104675000D01*
X161632183Y-104600001D01*
X160880000Y-103847817D01*
X160127817Y-104600001D01*
X160165798Y-104675000D01*
X156558000Y-104675000D01*
X156558000Y-103569998D01*
X155892061Y-103569998D01*
X155630631Y-103395335D01*
X155400000Y-103511263D01*
X155400000Y-104420000D01*
X155800000Y-104420000D01*
X155800000Y-104675000D01*
X154249760Y-104675000D01*
X154249983Y-104420000D01*
X154600000Y-104420000D01*
X154600000Y-103511263D01*
X154369369Y-103395335D01*
X154107939Y-103569998D01*
X154075153Y-103569998D01*
X153938919Y-103240285D01*
X153880350Y-103181613D01*
X158988892Y-103181613D01*
X159090131Y-103690579D01*
X159349999Y-103822183D01*
X160102183Y-103070000D01*
X159349999Y-102317817D01*
X159090131Y-102449421D01*
X158988892Y-103181613D01*
X153880350Y-103181613D01*
X153499139Y-102799738D01*
X153936892Y-102362748D01*
X154249643Y-101609559D01*
X154250355Y-100794019D01*
X153938919Y-100040285D01*
X153419542Y-99520001D01*
X160127817Y-99520001D01*
X160259421Y-99779869D01*
X160991613Y-99881108D01*
X161001393Y-99879163D01*
X161179875Y-100057645D01*
X161170392Y-100080484D01*
X161169610Y-100975589D01*
X161180437Y-101001793D01*
X160974798Y-101207432D01*
X160768387Y-101178892D01*
X160259421Y-101280131D01*
X160127817Y-101539999D01*
X160880000Y-102292183D01*
X161268909Y-101903274D01*
X162046726Y-102681091D01*
X161657817Y-103070000D01*
X162410001Y-103822183D01*
X162669869Y-103690579D01*
X162771108Y-102958387D01*
X162769163Y-102948607D01*
X162947645Y-102770125D01*
X162970484Y-102779608D01*
X163865589Y-102780390D01*
X163891793Y-102769563D01*
X164097432Y-102975202D01*
X164068892Y-103181613D01*
X164170131Y-103690579D01*
X164429999Y-103822183D01*
X165182183Y-103070000D01*
X166737817Y-103070000D01*
X167490001Y-103822183D01*
X167749869Y-103690579D01*
X167851108Y-102958387D01*
X167749869Y-102449421D01*
X167490001Y-102317817D01*
X166737817Y-103070000D01*
X165182183Y-103070000D01*
X164793274Y-102681091D01*
X165571091Y-101903274D01*
X165960000Y-102292183D01*
X166712183Y-101539999D01*
X166580579Y-101280131D01*
X165848387Y-101178892D01*
X165838607Y-101180837D01*
X165660125Y-101002355D01*
X165669608Y-100979516D01*
X165670390Y-100084411D01*
X165659563Y-100058207D01*
X165865202Y-99852568D01*
X166071613Y-99881108D01*
X166580579Y-99779869D01*
X166712183Y-99520001D01*
X165960000Y-98767817D01*
X165571091Y-99156726D01*
X164793274Y-98378909D01*
X165182183Y-97990000D01*
X166737817Y-97990000D01*
X167490001Y-98742183D01*
X167749869Y-98610579D01*
X167765158Y-98500000D01*
X175225512Y-98500000D01*
X175225512Y-101500000D01*
X175312673Y-101963222D01*
X175586437Y-102388663D01*
X176004153Y-102674076D01*
X176500000Y-102774488D01*
X179500000Y-102774488D01*
X179963222Y-102687327D01*
X180388663Y-102413563D01*
X180674076Y-101995847D01*
X180688025Y-101926961D01*
X182213699Y-101926961D01*
X182407361Y-102201784D01*
X183301149Y-102291592D01*
X183752639Y-102201784D01*
X183946301Y-101926961D01*
X183080000Y-101060660D01*
X182213699Y-101926961D01*
X180688025Y-101926961D01*
X180774488Y-101500000D01*
X180774488Y-100221149D01*
X180788408Y-100221149D01*
X180878216Y-100672639D01*
X181153039Y-100866301D01*
X182019340Y-100000000D01*
X184140660Y-100000000D01*
X185006961Y-100866301D01*
X185281784Y-100672639D01*
X185371592Y-99778851D01*
X185281784Y-99327361D01*
X185006961Y-99133699D01*
X184140660Y-100000000D01*
X182019340Y-100000000D01*
X181153039Y-99133699D01*
X180878216Y-99327361D01*
X180788408Y-100221149D01*
X180774488Y-100221149D01*
X180774488Y-98500000D01*
X180694150Y-98073039D01*
X182213699Y-98073039D01*
X183080000Y-98939340D01*
X183946301Y-98073039D01*
X183752639Y-97798216D01*
X182858851Y-97708408D01*
X182407361Y-97798216D01*
X182213699Y-98073039D01*
X180694150Y-98073039D01*
X180687327Y-98036778D01*
X180413563Y-97611337D01*
X179995847Y-97325924D01*
X179500000Y-97225512D01*
X176500000Y-97225512D01*
X176036778Y-97312673D01*
X175611337Y-97586437D01*
X175325924Y-98004153D01*
X175225512Y-98500000D01*
X167765158Y-98500000D01*
X167851108Y-97878387D01*
X167749869Y-97369421D01*
X167490001Y-97237817D01*
X166737817Y-97990000D01*
X165182183Y-97990000D01*
X164429999Y-97237817D01*
X164170131Y-97369421D01*
X164068892Y-98101613D01*
X164070837Y-98111393D01*
X163892355Y-98289875D01*
X163869516Y-98280392D01*
X162974411Y-98279610D01*
X162948207Y-98290437D01*
X162742568Y-98084798D01*
X162771108Y-97878387D01*
X162669869Y-97369421D01*
X162410001Y-97237817D01*
X161657817Y-97990000D01*
X162046726Y-98378909D01*
X161268909Y-99156726D01*
X160880000Y-98767817D01*
X160127817Y-99520001D01*
X153419542Y-99520001D01*
X153373711Y-99474090D01*
X153709731Y-99249569D01*
X153900975Y-98963352D01*
X154590441Y-99249643D01*
X155405981Y-99250355D01*
X156159715Y-98938919D01*
X156736892Y-98362748D01*
X156845324Y-98101613D01*
X158988892Y-98101613D01*
X159090131Y-98610579D01*
X159349999Y-98742183D01*
X160102183Y-97990000D01*
X159349999Y-97237817D01*
X159090131Y-97369421D01*
X158988892Y-98101613D01*
X156845324Y-98101613D01*
X157049643Y-97609559D01*
X157050355Y-96794019D01*
X156912341Y-96459999D01*
X160127817Y-96459999D01*
X160880000Y-97212183D01*
X161632183Y-96459999D01*
X165207817Y-96459999D01*
X165960000Y-97212183D01*
X166712183Y-96459999D01*
X166580579Y-96200131D01*
X165848387Y-96098892D01*
X165339421Y-96200131D01*
X165207817Y-96459999D01*
X161632183Y-96459999D01*
X161500579Y-96200131D01*
X160768387Y-96098892D01*
X160259421Y-96200131D01*
X160127817Y-96459999D01*
X156912341Y-96459999D01*
X156738919Y-96040285D01*
X156162748Y-95463108D01*
X155409559Y-95150357D01*
X154594019Y-95149645D01*
X153840285Y-95461081D01*
X153263108Y-96037252D01*
X153258312Y-96048803D01*
X153044663Y-95906047D01*
X152260162Y-95750000D01*
X152179838Y-95750000D01*
X151395337Y-95906047D01*
X150730269Y-96350431D01*
X150285885Y-97015499D01*
X150129838Y-97800000D01*
X150285885Y-98584501D01*
X150730269Y-99249569D01*
X151044323Y-99459413D01*
X151040285Y-99461081D01*
X150463108Y-100037252D01*
X150150357Y-100790441D01*
X150149645Y-101605981D01*
X150461081Y-102359715D01*
X150900861Y-102800262D01*
X150463108Y-103237252D01*
X150150357Y-103990441D01*
X150149759Y-104675000D01*
X146615461Y-104675000D01*
X146670162Y-104400000D01*
X146514115Y-103615499D01*
X146069731Y-102950431D01*
X145844595Y-102800000D01*
X146069731Y-102649569D01*
X146514115Y-101984501D01*
X146670162Y-101200000D01*
X146514115Y-100415499D01*
X146069731Y-99750431D01*
X145755677Y-99540587D01*
X145759715Y-99538919D01*
X146336892Y-98962748D01*
X146649643Y-98209559D01*
X146650355Y-97394019D01*
X146338919Y-96640285D01*
X145762748Y-96063108D01*
X145009559Y-95750357D01*
X144194019Y-95749645D01*
X143440285Y-96061081D01*
X142863108Y-96637252D01*
X142550357Y-97390441D01*
X142549645Y-98205981D01*
X142861081Y-98959715D01*
X143426289Y-99525910D01*
X143090269Y-99750431D01*
X142645885Y-100415499D01*
X142489838Y-101200000D01*
X142645885Y-101984501D01*
X143090269Y-102649569D01*
X143315405Y-102800000D01*
X143090269Y-102950431D01*
X142645885Y-103615499D01*
X142489838Y-104400000D01*
X142544539Y-104675000D01*
X140686706Y-104675000D01*
X140969658Y-103993576D01*
X140970342Y-103209862D01*
X140671059Y-102485542D01*
X140516002Y-102330215D01*
X140669111Y-102177373D01*
X140969658Y-101453576D01*
X140970342Y-100669862D01*
X140671059Y-99945542D01*
X140516002Y-99790215D01*
X140669111Y-99637373D01*
X140969658Y-98913576D01*
X140970342Y-98129862D01*
X140671059Y-97405542D01*
X140117373Y-96850889D01*
X139393576Y-96550342D01*
X138609862Y-96549658D01*
X137885542Y-96848941D01*
X137330889Y-97402627D01*
X137030342Y-98126424D01*
X137029658Y-98910138D01*
X137328941Y-99634458D01*
X137483998Y-99789785D01*
X137330889Y-99942627D01*
X137030342Y-100666424D01*
X137029658Y-101450138D01*
X137328941Y-102174458D01*
X137483998Y-102329785D01*
X137330889Y-102482627D01*
X137030342Y-103206424D01*
X137029658Y-103990138D01*
X137312637Y-104675000D01*
X136049760Y-104675000D01*
X136050355Y-103994019D01*
X135738919Y-103240285D01*
X135299139Y-102799738D01*
X135736892Y-102362748D01*
X136049643Y-101609559D01*
X136050355Y-100794019D01*
X135738919Y-100040285D01*
X135162748Y-99463108D01*
X134409559Y-99150357D01*
X133594019Y-99149645D01*
X132840285Y-99461081D01*
X132263108Y-100037252D01*
X131950357Y-100790441D01*
X131949645Y-101605981D01*
X132261081Y-102359715D01*
X132700861Y-102800262D01*
X132263108Y-103237252D01*
X131950357Y-103990441D01*
X131949759Y-104675000D01*
X128415461Y-104675000D01*
X128470162Y-104400000D01*
X128314115Y-103615499D01*
X127869731Y-102950431D01*
X127644595Y-102800000D01*
X127869731Y-102649569D01*
X128314115Y-101984501D01*
X128470162Y-101200000D01*
X128314115Y-100415499D01*
X127869731Y-99750431D01*
X127437392Y-99461552D01*
X127768716Y-99130805D01*
X130434881Y-99130805D01*
X130519983Y-99378846D01*
X131130064Y-99488239D01*
X131680017Y-99378846D01*
X131765119Y-99130805D01*
X131100000Y-98465685D01*
X130434881Y-99130805D01*
X127768716Y-99130805D01*
X127836892Y-99062748D01*
X128149643Y-98309559D01*
X128149974Y-97930064D01*
X129511761Y-97930064D01*
X129621154Y-98480017D01*
X129869195Y-98565119D01*
X130534315Y-97900000D01*
X131665685Y-97900000D01*
X132330805Y-98565119D01*
X132578846Y-98480017D01*
X132688239Y-97869936D01*
X132578846Y-97319983D01*
X132330805Y-97234881D01*
X131665685Y-97900000D01*
X130534315Y-97900000D01*
X129869195Y-97234881D01*
X129621154Y-97319983D01*
X129511761Y-97930064D01*
X128149974Y-97930064D01*
X128150355Y-97494019D01*
X127838919Y-96740285D01*
X127767953Y-96669195D01*
X130434881Y-96669195D01*
X131100000Y-97334315D01*
X131765119Y-96669195D01*
X131680017Y-96421154D01*
X131069936Y-96311761D01*
X130519983Y-96421154D01*
X130434881Y-96669195D01*
X127767953Y-96669195D01*
X127262748Y-96163108D01*
X126509559Y-95850357D01*
X125694019Y-95849645D01*
X124940285Y-96161081D01*
X124363108Y-96737252D01*
X124050357Y-97490441D01*
X124049645Y-98305981D01*
X124361081Y-99059715D01*
X124501121Y-99200000D01*
X123848777Y-99200000D01*
X123889650Y-99101568D01*
X123890348Y-98301940D01*
X123584988Y-97562914D01*
X123020060Y-96996999D01*
X122281568Y-96690350D01*
X121481940Y-96689652D01*
X120742914Y-96995012D01*
X120610264Y-97127431D01*
X120480060Y-96996999D01*
X119741568Y-96690350D01*
X118941940Y-96689652D01*
X118320202Y-96946550D01*
X118055847Y-96765924D01*
X117560000Y-96665512D01*
X116040000Y-96665512D01*
X115576778Y-96752673D01*
X115151337Y-97026437D01*
X114865924Y-97444153D01*
X114765512Y-97940000D01*
X114765512Y-99460000D01*
X114852673Y-99923222D01*
X115126437Y-100348663D01*
X115544153Y-100634076D01*
X115688416Y-100663290D01*
X116063063Y-101037937D01*
X115682914Y-101195012D01*
X115116999Y-101759940D01*
X114810350Y-102498432D01*
X114809652Y-103298060D01*
X115115012Y-104037086D01*
X115679940Y-104603001D01*
X115853333Y-104675000D01*
X112649935Y-104675000D01*
X112650355Y-104194019D01*
X112338919Y-103440285D01*
X111762748Y-102863108D01*
X111009559Y-102550357D01*
X110194019Y-102549645D01*
X109440285Y-102861081D01*
X108978032Y-103322528D01*
X108849569Y-103130269D01*
X108184501Y-102685885D01*
X107400000Y-102529838D01*
X106615499Y-102685885D01*
X105950431Y-103130269D01*
X105700000Y-103505066D01*
X105449569Y-103130269D01*
X104784501Y-102685885D01*
X104000000Y-102529838D01*
X103215499Y-102685885D01*
X102550431Y-103130269D01*
X102106047Y-103795337D01*
X101950000Y-104579838D01*
X101950000Y-104660162D01*
X101952951Y-104675000D01*
X78449581Y-104675000D01*
X78550000Y-104170162D01*
X78550000Y-104089838D01*
X78393953Y-103305337D01*
X78210517Y-103030805D01*
X96684881Y-103030805D01*
X96769983Y-103278846D01*
X97380064Y-103388239D01*
X97930017Y-103278846D01*
X98015119Y-103030805D01*
X97350000Y-102365685D01*
X96684881Y-103030805D01*
X78210517Y-103030805D01*
X77949569Y-102640269D01*
X77284501Y-102195885D01*
X76500000Y-102039838D01*
X75715499Y-102195885D01*
X75050431Y-102640269D01*
X74606047Y-103305337D01*
X74450000Y-104089838D01*
X74450000Y-104170162D01*
X74550419Y-104675000D01*
X71973575Y-104675000D01*
X72079643Y-104419559D01*
X72080355Y-103604019D01*
X71768919Y-102850285D01*
X71192748Y-102273108D01*
X70488804Y-101980805D01*
X83514881Y-101980805D01*
X83599983Y-102228846D01*
X84210064Y-102338239D01*
X84760017Y-102228846D01*
X84845119Y-101980805D01*
X84694379Y-101830064D01*
X95761761Y-101830064D01*
X95871154Y-102380017D01*
X96119195Y-102465119D01*
X96784315Y-101800000D01*
X97915685Y-101800000D01*
X98580805Y-102465119D01*
X98828846Y-102380017D01*
X98938239Y-101769936D01*
X98828846Y-101219983D01*
X98580805Y-101134881D01*
X97915685Y-101800000D01*
X96784315Y-101800000D01*
X96119195Y-101134881D01*
X95871154Y-101219983D01*
X95761761Y-101830064D01*
X84694379Y-101830064D01*
X84180000Y-101315685D01*
X83514881Y-101980805D01*
X70488804Y-101980805D01*
X70439559Y-101960357D01*
X69624019Y-101959645D01*
X68870285Y-102271081D01*
X68293108Y-102847252D01*
X67980357Y-103600441D01*
X67979645Y-104415981D01*
X68086669Y-104675000D01*
X32982125Y-104675000D01*
X33389058Y-104268777D01*
X33999305Y-102799140D01*
X34000620Y-101290857D01*
X51513160Y-101290857D01*
X51783736Y-101695861D01*
X52359137Y-102136875D01*
X52630000Y-102055264D01*
X52630000Y-101020000D01*
X53730000Y-101020000D01*
X53730000Y-102055264D01*
X54000863Y-102136875D01*
X54576264Y-101695861D01*
X54846840Y-101290857D01*
X54755244Y-101020000D01*
X53730000Y-101020000D01*
X52630000Y-101020000D01*
X51604756Y-101020000D01*
X51513160Y-101290857D01*
X34000620Y-101290857D01*
X34000693Y-101207841D01*
X33393013Y-99737142D01*
X33305168Y-99649143D01*
X51513160Y-99649143D01*
X51604756Y-99920000D01*
X52630000Y-99920000D01*
X52630000Y-98884736D01*
X53730000Y-98884736D01*
X53730000Y-99920000D01*
X54755244Y-99920000D01*
X54846840Y-99649143D01*
X54660350Y-99370000D01*
X58425512Y-99370000D01*
X58425512Y-101570000D01*
X58512673Y-102033222D01*
X58786437Y-102458663D01*
X59204153Y-102744076D01*
X59700000Y-102844488D01*
X61900000Y-102844488D01*
X62363222Y-102757327D01*
X62788663Y-102483563D01*
X63074076Y-102065847D01*
X63174488Y-101570000D01*
X63174488Y-100780064D01*
X82591761Y-100780064D01*
X82701154Y-101330017D01*
X82949195Y-101415119D01*
X83614315Y-100750000D01*
X84745685Y-100750000D01*
X85410805Y-101415119D01*
X85658846Y-101330017D01*
X85768239Y-100719936D01*
X85738255Y-100569195D01*
X96684881Y-100569195D01*
X97350000Y-101234315D01*
X98015119Y-100569195D01*
X97930017Y-100321154D01*
X97319936Y-100211761D01*
X96769983Y-100321154D01*
X96684881Y-100569195D01*
X85738255Y-100569195D01*
X85658846Y-100169983D01*
X85410805Y-100084881D01*
X84745685Y-100750000D01*
X83614315Y-100750000D01*
X82949195Y-100084881D01*
X82701154Y-100169983D01*
X82591761Y-100780064D01*
X63174488Y-100780064D01*
X63174488Y-99519195D01*
X83514881Y-99519195D01*
X84180000Y-100184315D01*
X84845119Y-99519195D01*
X84760017Y-99271154D01*
X84149936Y-99161761D01*
X83599983Y-99271154D01*
X83514881Y-99519195D01*
X63174488Y-99519195D01*
X63174488Y-99370000D01*
X63087327Y-98906778D01*
X62813563Y-98481337D01*
X62395847Y-98195924D01*
X61900000Y-98095512D01*
X59700000Y-98095512D01*
X59236778Y-98182673D01*
X58811337Y-98456437D01*
X58525924Y-98874153D01*
X58425512Y-99370000D01*
X54660350Y-99370000D01*
X54576264Y-99244139D01*
X54000863Y-98803125D01*
X53730000Y-98884736D01*
X52630000Y-98884736D01*
X52359137Y-98803125D01*
X51783736Y-99244139D01*
X51513160Y-99649143D01*
X33305168Y-99649143D01*
X32268777Y-98610942D01*
X30799140Y-98000695D01*
X30385995Y-98000335D01*
X30751288Y-97453635D01*
X30911141Y-96650000D01*
X30751288Y-95846365D01*
X30332760Y-95219994D01*
X30378000Y-95110775D01*
X30378000Y-94724500D01*
X30188500Y-94535000D01*
X29195000Y-94535000D01*
X29195000Y-94626354D01*
X28811141Y-94550000D01*
X28728859Y-94550000D01*
X28345000Y-94626354D01*
X28345000Y-94535000D01*
X27920000Y-94535000D01*
X27920000Y-93685000D01*
X28345000Y-93685000D01*
X28345000Y-92691500D01*
X29195000Y-92691500D01*
X29195000Y-93685000D01*
X30188500Y-93685000D01*
X30378000Y-93495500D01*
X30378000Y-93109225D01*
X30262602Y-92830628D01*
X30049373Y-92617399D01*
X29770776Y-92502000D01*
X29384500Y-92502000D01*
X29195000Y-92691500D01*
X28345000Y-92691500D01*
X28155500Y-92502000D01*
X27769224Y-92502000D01*
X27490627Y-92617399D01*
X27325000Y-92783026D01*
X27325000Y-91186125D01*
X27700694Y-91437156D01*
X28600000Y-91616039D01*
X29499306Y-91437156D01*
X30198454Y-90970000D01*
X31580000Y-90970000D01*
X32249696Y-90836789D01*
X32817437Y-90457437D01*
X32866678Y-90408196D01*
X33670000Y-90944958D01*
X33670000Y-93080000D01*
X33917392Y-94323721D01*
X34621903Y-95378097D01*
X35676279Y-96082608D01*
X36920000Y-96330000D01*
X38163721Y-96082608D01*
X39218097Y-95378097D01*
X39376047Y-95141708D01*
X39586437Y-95468663D01*
X40004153Y-95754076D01*
X40500000Y-95854488D01*
X43500000Y-95854488D01*
X43963222Y-95767327D01*
X44388663Y-95493563D01*
X44674076Y-95075847D01*
X44774488Y-94580000D01*
X44774488Y-93800000D01*
X52350512Y-93800000D01*
X52350512Y-96200000D01*
X52437673Y-96663222D01*
X52711437Y-97088663D01*
X53129153Y-97374076D01*
X53625000Y-97474488D01*
X56025000Y-97474488D01*
X56488222Y-97387327D01*
X56913663Y-97113563D01*
X57199076Y-96695847D01*
X57244844Y-96469838D01*
X67980000Y-96469838D01*
X67980000Y-96550162D01*
X68136047Y-97334663D01*
X68580431Y-97999731D01*
X69245499Y-98444115D01*
X70030000Y-98600162D01*
X70814501Y-98444115D01*
X71479569Y-97999731D01*
X71923953Y-97334663D01*
X72007234Y-96915981D01*
X74449645Y-96915981D01*
X74761081Y-97669715D01*
X75337252Y-98246892D01*
X76090441Y-98559643D01*
X76905981Y-98560355D01*
X77659715Y-98248919D01*
X78236892Y-97672748D01*
X78549643Y-96919559D01*
X78550355Y-96104019D01*
X78238919Y-95350285D01*
X77662748Y-94773108D01*
X76909559Y-94460357D01*
X76094019Y-94459645D01*
X75340285Y-94771081D01*
X74763108Y-95347252D01*
X74450357Y-96100441D01*
X74449645Y-96915981D01*
X72007234Y-96915981D01*
X72080000Y-96550162D01*
X72080000Y-96469838D01*
X71923953Y-95685337D01*
X71479569Y-95020269D01*
X70814501Y-94575885D01*
X70030000Y-94419838D01*
X69245499Y-94575885D01*
X68580431Y-95020269D01*
X68136047Y-95685337D01*
X67980000Y-96469838D01*
X57244844Y-96469838D01*
X57299488Y-96200000D01*
X57299488Y-93800000D01*
X57212327Y-93336778D01*
X56938563Y-92911337D01*
X56520847Y-92625924D01*
X56025000Y-92525512D01*
X53625000Y-92525512D01*
X53161778Y-92612673D01*
X52736337Y-92886437D01*
X52450924Y-93304153D01*
X52350512Y-93800000D01*
X44774488Y-93800000D01*
X44774488Y-91580000D01*
X44700201Y-91185197D01*
X62474576Y-91185197D01*
X62846780Y-92086000D01*
X63535375Y-92775798D01*
X64435527Y-93149573D01*
X65410197Y-93150424D01*
X66311000Y-92778220D01*
X66741911Y-92348060D01*
X67859652Y-92348060D01*
X68165012Y-93087086D01*
X68729940Y-93653001D01*
X69468432Y-93959650D01*
X70268060Y-93960348D01*
X71007086Y-93654988D01*
X71139736Y-93522569D01*
X71269940Y-93653001D01*
X72008432Y-93959650D01*
X72808060Y-93960348D01*
X73429798Y-93703450D01*
X73694153Y-93884076D01*
X74190000Y-93984488D01*
X75710000Y-93984488D01*
X76173222Y-93897327D01*
X76598663Y-93623563D01*
X76884076Y-93205847D01*
X76984488Y-92710000D01*
X76984488Y-91190000D01*
X76948737Y-91000000D01*
X77908841Y-91000000D01*
X77660350Y-91598432D01*
X77659652Y-92398060D01*
X77965012Y-93137086D01*
X78529940Y-93703001D01*
X79268432Y-94009650D01*
X80068060Y-94010348D01*
X80807086Y-93704988D01*
X80939736Y-93572569D01*
X81069940Y-93703001D01*
X81808432Y-94009650D01*
X82608060Y-94010348D01*
X83229798Y-93753450D01*
X83385811Y-93860049D01*
X83020285Y-94011081D01*
X82443108Y-94587252D01*
X82130357Y-95340441D01*
X82129645Y-96155981D01*
X82441081Y-96909715D01*
X83017252Y-97486892D01*
X83770441Y-97799643D01*
X84585981Y-97800355D01*
X85339715Y-97488919D01*
X85422797Y-97405981D01*
X101949645Y-97405981D01*
X102261081Y-98159715D01*
X102837252Y-98736892D01*
X103590441Y-99049643D01*
X104405981Y-99050355D01*
X105159715Y-98738919D01*
X105700437Y-98199140D01*
X106237252Y-98736892D01*
X106990441Y-99049643D01*
X107575280Y-99050154D01*
X108562698Y-100037572D01*
X108861081Y-100759715D01*
X109437252Y-101336892D01*
X110190441Y-101649643D01*
X111005981Y-101650355D01*
X111759715Y-101338919D01*
X112336892Y-100762748D01*
X112649643Y-100009559D01*
X112650355Y-99194019D01*
X112338919Y-98440285D01*
X111762748Y-97863108D01*
X111036360Y-97561486D01*
X109237437Y-95762563D01*
X108708573Y-95409188D01*
X108562748Y-95263108D01*
X107809559Y-94950357D01*
X106994019Y-94949645D01*
X106240285Y-95261081D01*
X105699563Y-95800860D01*
X105162748Y-95263108D01*
X104409559Y-94950357D01*
X103594019Y-94949645D01*
X102840285Y-95261081D01*
X102263108Y-95837252D01*
X101950357Y-96590441D01*
X101949645Y-97405981D01*
X85422797Y-97405981D01*
X85916892Y-96912748D01*
X86229643Y-96159559D01*
X86230355Y-95344019D01*
X85918919Y-94590285D01*
X85364091Y-94034488D01*
X85510000Y-94034488D01*
X85973222Y-93947327D01*
X86398663Y-93673563D01*
X86684076Y-93255847D01*
X86784488Y-92760000D01*
X86784488Y-92720767D01*
X89646634Y-92720767D01*
X89725534Y-92967179D01*
X90319247Y-93077619D01*
X90874466Y-92967179D01*
X90953366Y-92720767D01*
X90300000Y-92067401D01*
X89646634Y-92720767D01*
X86784488Y-92720767D01*
X86784488Y-91240000D01*
X86697327Y-90776778D01*
X86423563Y-90351337D01*
X86005847Y-90065924D01*
X85510000Y-89965512D01*
X83990000Y-89965512D01*
X83592881Y-90040235D01*
X83447437Y-89822563D01*
X81637437Y-88012563D01*
X81069696Y-87633211D01*
X80400000Y-87500000D01*
X73700000Y-87500000D01*
X73030304Y-87633211D01*
X72462563Y-88012563D01*
X71172563Y-89302563D01*
X70793211Y-89870304D01*
X70740543Y-90135085D01*
X70271568Y-89940350D01*
X69471940Y-89939652D01*
X68732914Y-90245012D01*
X68166999Y-90809940D01*
X67860350Y-91548432D01*
X67859652Y-92348060D01*
X66741911Y-92348060D01*
X67000798Y-92089625D01*
X67374573Y-91189473D01*
X67375424Y-90214803D01*
X67003220Y-89314000D01*
X66314625Y-88624202D01*
X65414473Y-88250427D01*
X64439803Y-88249576D01*
X63539000Y-88621780D01*
X62849202Y-89310375D01*
X62475427Y-90210527D01*
X62474576Y-91185197D01*
X44700201Y-91185197D01*
X44687327Y-91116778D01*
X44413563Y-90691337D01*
X44192123Y-90540033D01*
X44388663Y-90413563D01*
X44674076Y-89995847D01*
X44774488Y-89500000D01*
X44774488Y-87250000D01*
X51624728Y-87250000D01*
X51575000Y-87500000D01*
X51575000Y-87500000D01*
G37*
X51575000Y-87500000D02*
X51822392Y-88743721D01*
X52526903Y-89798097D01*
X53581279Y-90502608D01*
X54825000Y-90750000D01*
X55500000Y-90750000D01*
X56743721Y-90502608D01*
X57798097Y-89798097D01*
X60346194Y-87250000D01*
X88273038Y-87250000D01*
X88352673Y-87673222D01*
X88545773Y-87973307D01*
X88290350Y-88588432D01*
X88289652Y-89388060D01*
X88595012Y-90127086D01*
X89057605Y-90590487D01*
X88325161Y-91322931D01*
X88802266Y-91800036D01*
X88862821Y-92104466D01*
X89109233Y-92183366D01*
X89762599Y-91530000D01*
X89493899Y-91261300D01*
X89797471Y-90957727D01*
X89898432Y-90999650D01*
X90698060Y-91000348D01*
X90802143Y-90957341D01*
X91106102Y-91261300D01*
X90837401Y-91530000D01*
X91490767Y-92183366D01*
X91737179Y-92104466D01*
X91792911Y-91804859D01*
X91837932Y-91759838D01*
X95300000Y-91759838D01*
X95300000Y-91840162D01*
X95456047Y-92624663D01*
X95900431Y-93289731D01*
X96565499Y-93734115D01*
X97350000Y-93890162D01*
X98134501Y-93734115D01*
X98799569Y-93289731D01*
X99243953Y-92624663D01*
X99400000Y-91840162D01*
X99400000Y-91759838D01*
X99243953Y-90975337D01*
X98799569Y-90310269D01*
X98134501Y-89865885D01*
X97350000Y-89709838D01*
X96565499Y-89865885D01*
X95900431Y-90310269D01*
X95456047Y-90975337D01*
X95300000Y-91759838D01*
X91837932Y-91759838D01*
X92274839Y-91322931D01*
X91542083Y-90590175D01*
X92003001Y-90130060D01*
X92309650Y-89391568D01*
X92310306Y-88639500D01*
X97242000Y-88639500D01*
X97242000Y-89100776D01*
X97357399Y-89379373D01*
X97570628Y-89592602D01*
X97849225Y-89708000D01*
X98310500Y-89708000D01*
X98500000Y-89518500D01*
X98500000Y-88450000D01*
X99500000Y-88450000D01*
X99500000Y-89518500D01*
X99689500Y-89708000D01*
X100150775Y-89708000D01*
X100429372Y-89592602D01*
X100642601Y-89379373D01*
X100758000Y-89100776D01*
X100758000Y-88639500D01*
X100568500Y-88450000D01*
X99500000Y-88450000D01*
X98500000Y-88450000D01*
X97431500Y-88450000D01*
X97242000Y-88639500D01*
X92310306Y-88639500D01*
X92310348Y-88591940D01*
X92053450Y-87970202D01*
X92234076Y-87705847D01*
X92326388Y-87250000D01*
X97242000Y-87250000D01*
X97242000Y-87260500D01*
X97431500Y-87450000D01*
X98500000Y-87450000D01*
X98500000Y-87250000D01*
X99500000Y-87250000D01*
X99500000Y-87450000D01*
X100568500Y-87450000D01*
X100758000Y-87260500D01*
X100758000Y-87250000D01*
X103699825Y-87250000D01*
X103699645Y-87455981D01*
X104011081Y-88209715D01*
X104051166Y-88249870D01*
X103663108Y-88637252D01*
X103350357Y-89390441D01*
X103349645Y-90205981D01*
X103661081Y-90959715D01*
X104237252Y-91536892D01*
X104990441Y-91849643D01*
X105805981Y-91850355D01*
X106559715Y-91538919D01*
X107136892Y-90962748D01*
X107449643Y-90209559D01*
X107449646Y-90205981D01*
X108349645Y-90205981D01*
X108661081Y-90959715D01*
X109237252Y-91536892D01*
X109990441Y-91849643D01*
X110805981Y-91850355D01*
X111559715Y-91538919D01*
X111692885Y-91405981D01*
X128549645Y-91405981D01*
X128861081Y-92159715D01*
X129437252Y-92736892D01*
X130190441Y-93049643D01*
X131005981Y-93050355D01*
X131759715Y-92738919D01*
X132336892Y-92162748D01*
X132649643Y-91409559D01*
X132650355Y-90594019D01*
X132338919Y-89840285D01*
X131762748Y-89263108D01*
X131009559Y-88950357D01*
X130194019Y-88949645D01*
X129440285Y-89261081D01*
X128863108Y-89837252D01*
X128550357Y-90590441D01*
X128549645Y-91405981D01*
X111692885Y-91405981D01*
X112136892Y-90962748D01*
X112449643Y-90209559D01*
X112450355Y-89394019D01*
X112138919Y-88640285D01*
X111562748Y-88063108D01*
X110809559Y-87750357D01*
X109994019Y-87749645D01*
X109240285Y-88061081D01*
X108663108Y-88637252D01*
X108350357Y-89390441D01*
X108349645Y-90205981D01*
X107449646Y-90205981D01*
X107450355Y-89394019D01*
X107138919Y-88640285D01*
X107098834Y-88600130D01*
X107486892Y-88212748D01*
X107799643Y-87459559D01*
X107799826Y-87250000D01*
X131491720Y-87250000D01*
X131350357Y-87590441D01*
X131349645Y-88405981D01*
X131661081Y-89159715D01*
X132237252Y-89736892D01*
X132990441Y-90049643D01*
X133805981Y-90050355D01*
X134559715Y-89738919D01*
X135136892Y-89162748D01*
X135449643Y-88409559D01*
X135450355Y-87594019D01*
X135308209Y-87250000D01*
X136491720Y-87250000D01*
X136350357Y-87590441D01*
X136349645Y-88405981D01*
X136661081Y-89159715D01*
X136922737Y-89421828D01*
X136730269Y-89550431D01*
X136285885Y-90215499D01*
X136129838Y-91000000D01*
X136285885Y-91784501D01*
X136730269Y-92449569D01*
X137395337Y-92893953D01*
X138179838Y-93050000D01*
X138260162Y-93050000D01*
X139044663Y-92893953D01*
X139494195Y-92593585D01*
X139637252Y-92736892D01*
X140390441Y-93049643D01*
X141205981Y-93050355D01*
X141959715Y-92738919D01*
X142536892Y-92162748D01*
X142757846Y-91630631D01*
X149375335Y-91630631D01*
X149672162Y-92074912D01*
X150169365Y-92424694D01*
X150400000Y-92316307D01*
X150400000Y-91400000D01*
X151200000Y-91400000D01*
X151200000Y-92316307D01*
X151430635Y-92424694D01*
X151927838Y-92074912D01*
X152201440Y-91665393D01*
X156249593Y-91665393D01*
X156606605Y-92529429D01*
X157267094Y-93191071D01*
X158130505Y-93549591D01*
X159065393Y-93550407D01*
X159929429Y-93193395D01*
X160591071Y-92532906D01*
X160949591Y-91669495D01*
X160949594Y-91665393D01*
X171249593Y-91665393D01*
X171606605Y-92529429D01*
X172267094Y-93191071D01*
X173130505Y-93549591D01*
X174065393Y-93550407D01*
X174929429Y-93193395D01*
X175591071Y-92532906D01*
X175949591Y-91669495D01*
X175950407Y-90734607D01*
X175593395Y-89870571D01*
X174932906Y-89208929D01*
X174069495Y-88850409D01*
X173134607Y-88849593D01*
X172270571Y-89206605D01*
X171608929Y-89867094D01*
X171250409Y-90730505D01*
X171249593Y-91665393D01*
X160949594Y-91665393D01*
X160950407Y-90734607D01*
X160593395Y-89870571D01*
X159932906Y-89208929D01*
X159069495Y-88850409D01*
X158134607Y-88849593D01*
X157270571Y-89206605D01*
X156608929Y-89867094D01*
X156250409Y-90730505D01*
X156249593Y-91665393D01*
X152201440Y-91665393D01*
X152224665Y-91630631D01*
X152108737Y-91400000D01*
X151200000Y-91400000D01*
X150400000Y-91400000D01*
X149491263Y-91400000D01*
X149375335Y-91630631D01*
X142757846Y-91630631D01*
X142849643Y-91409559D01*
X142850355Y-90594019D01*
X142757532Y-90369369D01*
X149375335Y-90369369D01*
X149491263Y-90600000D01*
X150400000Y-90600000D01*
X150400000Y-89683693D01*
X151200000Y-89683693D01*
X151200000Y-90600000D01*
X152108737Y-90600000D01*
X152224665Y-90369369D01*
X151927838Y-89925088D01*
X151430635Y-89575306D01*
X151200000Y-89683693D01*
X150400000Y-89683693D01*
X150169365Y-89575306D01*
X149672162Y-89925088D01*
X149375335Y-90369369D01*
X142757532Y-90369369D01*
X142538919Y-89840285D01*
X141962748Y-89263108D01*
X141209559Y-88950357D01*
X140394019Y-88949645D01*
X140190454Y-89033756D01*
X140449643Y-88409559D01*
X140450355Y-87594019D01*
X140308209Y-87250000D01*
X146487911Y-87250000D01*
X146450357Y-87340441D01*
X146449645Y-88155981D01*
X146761081Y-88909715D01*
X147337252Y-89486892D01*
X148090441Y-89799643D01*
X148905981Y-89800355D01*
X149659715Y-89488919D01*
X150236892Y-88912748D01*
X150549643Y-88159559D01*
X150550355Y-87344019D01*
X150511507Y-87250000D01*
X151487911Y-87250000D01*
X151450357Y-87340441D01*
X151449645Y-88155981D01*
X151761081Y-88909715D01*
X152337252Y-89486892D01*
X153090441Y-89799643D01*
X153905981Y-89800355D01*
X154659715Y-89488919D01*
X155236892Y-88912748D01*
X155549643Y-88159559D01*
X155550355Y-87344019D01*
X155511507Y-87250000D01*
X178927729Y-87250000D01*
X179379940Y-87703001D01*
X180118432Y-88009650D01*
X180918060Y-88010348D01*
X181657086Y-87704988D01*
X181789736Y-87572569D01*
X181919940Y-87703001D01*
X182658432Y-88009650D01*
X183458060Y-88010348D01*
X184079798Y-87753450D01*
X184344153Y-87934076D01*
X184840000Y-88034488D01*
X186360000Y-88034488D01*
X186750000Y-87961105D01*
X186750000Y-89985320D01*
X186324202Y-90410375D01*
X185950427Y-91310527D01*
X185949576Y-92285197D01*
X186321780Y-93186000D01*
X186750000Y-93614968D01*
X186750000Y-102664524D01*
X186667588Y-102719590D01*
X186136495Y-103514428D01*
X185950000Y-104452002D01*
X185950000Y-104547998D01*
X185975262Y-104675000D01*
X166674202Y-104675000D01*
X166712183Y-104600001D01*
X165960000Y-103847817D01*
X165207817Y-104600001D01*
X165245798Y-104675000D01*
X161594202Y-104675000D01*
X161632183Y-104600001D01*
X160880000Y-103847817D01*
X160127817Y-104600001D01*
X160165798Y-104675000D01*
X156558000Y-104675000D01*
X156558000Y-103569998D01*
X155892061Y-103569998D01*
X155630631Y-103395335D01*
X155400000Y-103511263D01*
X155400000Y-104420000D01*
X155800000Y-104420000D01*
X155800000Y-104675000D01*
X154249760Y-104675000D01*
X154249983Y-104420000D01*
X154600000Y-104420000D01*
X154600000Y-103511263D01*
X154369369Y-103395335D01*
X154107939Y-103569998D01*
X154075153Y-103569998D01*
X153938919Y-103240285D01*
X153880350Y-103181613D01*
X158988892Y-103181613D01*
X159090131Y-103690579D01*
X159349999Y-103822183D01*
X160102183Y-103070000D01*
X159349999Y-102317817D01*
X159090131Y-102449421D01*
X158988892Y-103181613D01*
X153880350Y-103181613D01*
X153499139Y-102799738D01*
X153936892Y-102362748D01*
X154249643Y-101609559D01*
X154250355Y-100794019D01*
X153938919Y-100040285D01*
X153419542Y-99520001D01*
X160127817Y-99520001D01*
X160259421Y-99779869D01*
X160991613Y-99881108D01*
X161001393Y-99879163D01*
X161179875Y-100057645D01*
X161170392Y-100080484D01*
X161169610Y-100975589D01*
X161180437Y-101001793D01*
X160974798Y-101207432D01*
X160768387Y-101178892D01*
X160259421Y-101280131D01*
X160127817Y-101539999D01*
X160880000Y-102292183D01*
X161268909Y-101903274D01*
X162046726Y-102681091D01*
X161657817Y-103070000D01*
X162410001Y-103822183D01*
X162669869Y-103690579D01*
X162771108Y-102958387D01*
X162769163Y-102948607D01*
X162947645Y-102770125D01*
X162970484Y-102779608D01*
X163865589Y-102780390D01*
X163891793Y-102769563D01*
X164097432Y-102975202D01*
X164068892Y-103181613D01*
X164170131Y-103690579D01*
X164429999Y-103822183D01*
X165182183Y-103070000D01*
X166737817Y-103070000D01*
X167490001Y-103822183D01*
X167749869Y-103690579D01*
X167851108Y-102958387D01*
X167749869Y-102449421D01*
X167490001Y-102317817D01*
X166737817Y-103070000D01*
X165182183Y-103070000D01*
X164793274Y-102681091D01*
X165571091Y-101903274D01*
X165960000Y-102292183D01*
X166712183Y-101539999D01*
X166580579Y-101280131D01*
X165848387Y-101178892D01*
X165838607Y-101180837D01*
X165660125Y-101002355D01*
X165669608Y-100979516D01*
X165670390Y-100084411D01*
X165659563Y-100058207D01*
X165865202Y-99852568D01*
X166071613Y-99881108D01*
X166580579Y-99779869D01*
X166712183Y-99520001D01*
X165960000Y-98767817D01*
X165571091Y-99156726D01*
X164793274Y-98378909D01*
X165182183Y-97990000D01*
X166737817Y-97990000D01*
X167490001Y-98742183D01*
X167749869Y-98610579D01*
X167765158Y-98500000D01*
X175225512Y-98500000D01*
X175225512Y-101500000D01*
X175312673Y-101963222D01*
X175586437Y-102388663D01*
X176004153Y-102674076D01*
X176500000Y-102774488D01*
X179500000Y-102774488D01*
X179963222Y-102687327D01*
X180388663Y-102413563D01*
X180674076Y-101995847D01*
X180688025Y-101926961D01*
X182213699Y-101926961D01*
X182407361Y-102201784D01*
X183301149Y-102291592D01*
X183752639Y-102201784D01*
X183946301Y-101926961D01*
X183080000Y-101060660D01*
X182213699Y-101926961D01*
X180688025Y-101926961D01*
X180774488Y-101500000D01*
X180774488Y-100221149D01*
X180788408Y-100221149D01*
X180878216Y-100672639D01*
X181153039Y-100866301D01*
X182019340Y-100000000D01*
X184140660Y-100000000D01*
X185006961Y-100866301D01*
X185281784Y-100672639D01*
X185371592Y-99778851D01*
X185281784Y-99327361D01*
X185006961Y-99133699D01*
X184140660Y-100000000D01*
X182019340Y-100000000D01*
X181153039Y-99133699D01*
X180878216Y-99327361D01*
X180788408Y-100221149D01*
X180774488Y-100221149D01*
X180774488Y-98500000D01*
X180694150Y-98073039D01*
X182213699Y-98073039D01*
X183080000Y-98939340D01*
X183946301Y-98073039D01*
X183752639Y-97798216D01*
X182858851Y-97708408D01*
X182407361Y-97798216D01*
X182213699Y-98073039D01*
X180694150Y-98073039D01*
X180687327Y-98036778D01*
X180413563Y-97611337D01*
X179995847Y-97325924D01*
X179500000Y-97225512D01*
X176500000Y-97225512D01*
X176036778Y-97312673D01*
X175611337Y-97586437D01*
X175325924Y-98004153D01*
X175225512Y-98500000D01*
X167765158Y-98500000D01*
X167851108Y-97878387D01*
X167749869Y-97369421D01*
X167490001Y-97237817D01*
X166737817Y-97990000D01*
X165182183Y-97990000D01*
X164429999Y-97237817D01*
X164170131Y-97369421D01*
X164068892Y-98101613D01*
X164070837Y-98111393D01*
X163892355Y-98289875D01*
X163869516Y-98280392D01*
X162974411Y-98279610D01*
X162948207Y-98290437D01*
X162742568Y-98084798D01*
X162771108Y-97878387D01*
X162669869Y-97369421D01*
X162410001Y-97237817D01*
X161657817Y-97990000D01*
X162046726Y-98378909D01*
X161268909Y-99156726D01*
X160880000Y-98767817D01*
X160127817Y-99520001D01*
X153419542Y-99520001D01*
X153373711Y-99474090D01*
X153709731Y-99249569D01*
X153900975Y-98963352D01*
X154590441Y-99249643D01*
X155405981Y-99250355D01*
X156159715Y-98938919D01*
X156736892Y-98362748D01*
X156845324Y-98101613D01*
X158988892Y-98101613D01*
X159090131Y-98610579D01*
X159349999Y-98742183D01*
X160102183Y-97990000D01*
X159349999Y-97237817D01*
X159090131Y-97369421D01*
X158988892Y-98101613D01*
X156845324Y-98101613D01*
X157049643Y-97609559D01*
X157050355Y-96794019D01*
X156912341Y-96459999D01*
X160127817Y-96459999D01*
X160880000Y-97212183D01*
X161632183Y-96459999D01*
X165207817Y-96459999D01*
X165960000Y-97212183D01*
X166712183Y-96459999D01*
X166580579Y-96200131D01*
X165848387Y-96098892D01*
X165339421Y-96200131D01*
X165207817Y-96459999D01*
X161632183Y-96459999D01*
X161500579Y-96200131D01*
X160768387Y-96098892D01*
X160259421Y-96200131D01*
X160127817Y-96459999D01*
X156912341Y-96459999D01*
X156738919Y-96040285D01*
X156162748Y-95463108D01*
X155409559Y-95150357D01*
X154594019Y-95149645D01*
X153840285Y-95461081D01*
X153263108Y-96037252D01*
X153258312Y-96048803D01*
X153044663Y-95906047D01*
X152260162Y-95750000D01*
X152179838Y-95750000D01*
X151395337Y-95906047D01*
X150730269Y-96350431D01*
X150285885Y-97015499D01*
X150129838Y-97800000D01*
X150285885Y-98584501D01*
X150730269Y-99249569D01*
X151044323Y-99459413D01*
X151040285Y-99461081D01*
X150463108Y-100037252D01*
X150150357Y-100790441D01*
X150149645Y-101605981D01*
X150461081Y-102359715D01*
X150900861Y-102800262D01*
X150463108Y-103237252D01*
X150150357Y-103990441D01*
X150149759Y-104675000D01*
X146615461Y-104675000D01*
X146670162Y-104400000D01*
X146514115Y-103615499D01*
X146069731Y-102950431D01*
X145844595Y-102800000D01*
X146069731Y-102649569D01*
X146514115Y-101984501D01*
X146670162Y-101200000D01*
X146514115Y-100415499D01*
X146069731Y-99750431D01*
X145755677Y-99540587D01*
X145759715Y-99538919D01*
X146336892Y-98962748D01*
X146649643Y-98209559D01*
X146650355Y-97394019D01*
X146338919Y-96640285D01*
X145762748Y-96063108D01*
X145009559Y-95750357D01*
X144194019Y-95749645D01*
X143440285Y-96061081D01*
X142863108Y-96637252D01*
X142550357Y-97390441D01*
X142549645Y-98205981D01*
X142861081Y-98959715D01*
X143426289Y-99525910D01*
X143090269Y-99750431D01*
X142645885Y-100415499D01*
X142489838Y-101200000D01*
X142645885Y-101984501D01*
X143090269Y-102649569D01*
X143315405Y-102800000D01*
X143090269Y-102950431D01*
X142645885Y-103615499D01*
X142489838Y-104400000D01*
X142544539Y-104675000D01*
X140686706Y-104675000D01*
X140969658Y-103993576D01*
X140970342Y-103209862D01*
X140671059Y-102485542D01*
X140516002Y-102330215D01*
X140669111Y-102177373D01*
X140969658Y-101453576D01*
X140970342Y-100669862D01*
X140671059Y-99945542D01*
X140516002Y-99790215D01*
X140669111Y-99637373D01*
X140969658Y-98913576D01*
X140970342Y-98129862D01*
X140671059Y-97405542D01*
X140117373Y-96850889D01*
X139393576Y-96550342D01*
X138609862Y-96549658D01*
X137885542Y-96848941D01*
X137330889Y-97402627D01*
X137030342Y-98126424D01*
X137029658Y-98910138D01*
X137328941Y-99634458D01*
X137483998Y-99789785D01*
X137330889Y-99942627D01*
X137030342Y-100666424D01*
X137029658Y-101450138D01*
X137328941Y-102174458D01*
X137483998Y-102329785D01*
X137330889Y-102482627D01*
X137030342Y-103206424D01*
X137029658Y-103990138D01*
X137312637Y-104675000D01*
X136049760Y-104675000D01*
X136050355Y-103994019D01*
X135738919Y-103240285D01*
X135299139Y-102799738D01*
X135736892Y-102362748D01*
X136049643Y-101609559D01*
X136050355Y-100794019D01*
X135738919Y-100040285D01*
X135162748Y-99463108D01*
X134409559Y-99150357D01*
X133594019Y-99149645D01*
X132840285Y-99461081D01*
X132263108Y-100037252D01*
X131950357Y-100790441D01*
X131949645Y-101605981D01*
X132261081Y-102359715D01*
X132700861Y-102800262D01*
X132263108Y-103237252D01*
X131950357Y-103990441D01*
X131949759Y-104675000D01*
X128415461Y-104675000D01*
X128470162Y-104400000D01*
X128314115Y-103615499D01*
X127869731Y-102950431D01*
X127644595Y-102800000D01*
X127869731Y-102649569D01*
X128314115Y-101984501D01*
X128470162Y-101200000D01*
X128314115Y-100415499D01*
X127869731Y-99750431D01*
X127437392Y-99461552D01*
X127768716Y-99130805D01*
X130434881Y-99130805D01*
X130519983Y-99378846D01*
X131130064Y-99488239D01*
X131680017Y-99378846D01*
X131765119Y-99130805D01*
X131100000Y-98465685D01*
X130434881Y-99130805D01*
X127768716Y-99130805D01*
X127836892Y-99062748D01*
X128149643Y-98309559D01*
X128149974Y-97930064D01*
X129511761Y-97930064D01*
X129621154Y-98480017D01*
X129869195Y-98565119D01*
X130534315Y-97900000D01*
X131665685Y-97900000D01*
X132330805Y-98565119D01*
X132578846Y-98480017D01*
X132688239Y-97869936D01*
X132578846Y-97319983D01*
X132330805Y-97234881D01*
X131665685Y-97900000D01*
X130534315Y-97900000D01*
X129869195Y-97234881D01*
X129621154Y-97319983D01*
X129511761Y-97930064D01*
X128149974Y-97930064D01*
X128150355Y-97494019D01*
X127838919Y-96740285D01*
X127767953Y-96669195D01*
X130434881Y-96669195D01*
X131100000Y-97334315D01*
X131765119Y-96669195D01*
X131680017Y-96421154D01*
X131069936Y-96311761D01*
X130519983Y-96421154D01*
X130434881Y-96669195D01*
X127767953Y-96669195D01*
X127262748Y-96163108D01*
X126509559Y-95850357D01*
X125694019Y-95849645D01*
X124940285Y-96161081D01*
X124363108Y-96737252D01*
X124050357Y-97490441D01*
X124049645Y-98305981D01*
X124361081Y-99059715D01*
X124501121Y-99200000D01*
X123848777Y-99200000D01*
X123889650Y-99101568D01*
X123890348Y-98301940D01*
X123584988Y-97562914D01*
X123020060Y-96996999D01*
X122281568Y-96690350D01*
X121481940Y-96689652D01*
X120742914Y-96995012D01*
X120610264Y-97127431D01*
X120480060Y-96996999D01*
X119741568Y-96690350D01*
X118941940Y-96689652D01*
X118320202Y-96946550D01*
X118055847Y-96765924D01*
X117560000Y-96665512D01*
X116040000Y-96665512D01*
X115576778Y-96752673D01*
X115151337Y-97026437D01*
X114865924Y-97444153D01*
X114765512Y-97940000D01*
X114765512Y-99460000D01*
X114852673Y-99923222D01*
X115126437Y-100348663D01*
X115544153Y-100634076D01*
X115688416Y-100663290D01*
X116063063Y-101037937D01*
X115682914Y-101195012D01*
X115116999Y-101759940D01*
X114810350Y-102498432D01*
X114809652Y-103298060D01*
X115115012Y-104037086D01*
X115679940Y-104603001D01*
X115853333Y-104675000D01*
X112649935Y-104675000D01*
X112650355Y-104194019D01*
X112338919Y-103440285D01*
X111762748Y-102863108D01*
X111009559Y-102550357D01*
X110194019Y-102549645D01*
X109440285Y-102861081D01*
X108978032Y-103322528D01*
X108849569Y-103130269D01*
X108184501Y-102685885D01*
X107400000Y-102529838D01*
X106615499Y-102685885D01*
X105950431Y-103130269D01*
X105700000Y-103505066D01*
X105449569Y-103130269D01*
X104784501Y-102685885D01*
X104000000Y-102529838D01*
X103215499Y-102685885D01*
X102550431Y-103130269D01*
X102106047Y-103795337D01*
X101950000Y-104579838D01*
X101950000Y-104660162D01*
X101952951Y-104675000D01*
X78449581Y-104675000D01*
X78550000Y-104170162D01*
X78550000Y-104089838D01*
X78393953Y-103305337D01*
X78210517Y-103030805D01*
X96684881Y-103030805D01*
X96769983Y-103278846D01*
X97380064Y-103388239D01*
X97930017Y-103278846D01*
X98015119Y-103030805D01*
X97350000Y-102365685D01*
X96684881Y-103030805D01*
X78210517Y-103030805D01*
X77949569Y-102640269D01*
X77284501Y-102195885D01*
X76500000Y-102039838D01*
X75715499Y-102195885D01*
X75050431Y-102640269D01*
X74606047Y-103305337D01*
X74450000Y-104089838D01*
X74450000Y-104170162D01*
X74550419Y-104675000D01*
X71973575Y-104675000D01*
X72079643Y-104419559D01*
X72080355Y-103604019D01*
X71768919Y-102850285D01*
X71192748Y-102273108D01*
X70488804Y-101980805D01*
X83514881Y-101980805D01*
X83599983Y-102228846D01*
X84210064Y-102338239D01*
X84760017Y-102228846D01*
X84845119Y-101980805D01*
X84694379Y-101830064D01*
X95761761Y-101830064D01*
X95871154Y-102380017D01*
X96119195Y-102465119D01*
X96784315Y-101800000D01*
X97915685Y-101800000D01*
X98580805Y-102465119D01*
X98828846Y-102380017D01*
X98938239Y-101769936D01*
X98828846Y-101219983D01*
X98580805Y-101134881D01*
X97915685Y-101800000D01*
X96784315Y-101800000D01*
X96119195Y-101134881D01*
X95871154Y-101219983D01*
X95761761Y-101830064D01*
X84694379Y-101830064D01*
X84180000Y-101315685D01*
X83514881Y-101980805D01*
X70488804Y-101980805D01*
X70439559Y-101960357D01*
X69624019Y-101959645D01*
X68870285Y-102271081D01*
X68293108Y-102847252D01*
X67980357Y-103600441D01*
X67979645Y-104415981D01*
X68086669Y-104675000D01*
X32982125Y-104675000D01*
X33389058Y-104268777D01*
X33999305Y-102799140D01*
X34000620Y-101290857D01*
X51513160Y-101290857D01*
X51783736Y-101695861D01*
X52359137Y-102136875D01*
X52630000Y-102055264D01*
X52630000Y-101020000D01*
X53730000Y-101020000D01*
X53730000Y-102055264D01*
X54000863Y-102136875D01*
X54576264Y-101695861D01*
X54846840Y-101290857D01*
X54755244Y-101020000D01*
X53730000Y-101020000D01*
X52630000Y-101020000D01*
X51604756Y-101020000D01*
X51513160Y-101290857D01*
X34000620Y-101290857D01*
X34000693Y-101207841D01*
X33393013Y-99737142D01*
X33305168Y-99649143D01*
X51513160Y-99649143D01*
X51604756Y-99920000D01*
X52630000Y-99920000D01*
X52630000Y-98884736D01*
X53730000Y-98884736D01*
X53730000Y-99920000D01*
X54755244Y-99920000D01*
X54846840Y-99649143D01*
X54660350Y-99370000D01*
X58425512Y-99370000D01*
X58425512Y-101570000D01*
X58512673Y-102033222D01*
X58786437Y-102458663D01*
X59204153Y-102744076D01*
X59700000Y-102844488D01*
X61900000Y-102844488D01*
X62363222Y-102757327D01*
X62788663Y-102483563D01*
X63074076Y-102065847D01*
X63174488Y-101570000D01*
X63174488Y-100780064D01*
X82591761Y-100780064D01*
X82701154Y-101330017D01*
X82949195Y-101415119D01*
X83614315Y-100750000D01*
X84745685Y-100750000D01*
X85410805Y-101415119D01*
X85658846Y-101330017D01*
X85768239Y-100719936D01*
X85738255Y-100569195D01*
X96684881Y-100569195D01*
X97350000Y-101234315D01*
X98015119Y-100569195D01*
X97930017Y-100321154D01*
X97319936Y-100211761D01*
X96769983Y-100321154D01*
X96684881Y-100569195D01*
X85738255Y-100569195D01*
X85658846Y-100169983D01*
X85410805Y-100084881D01*
X84745685Y-100750000D01*
X83614315Y-100750000D01*
X82949195Y-100084881D01*
X82701154Y-100169983D01*
X82591761Y-100780064D01*
X63174488Y-100780064D01*
X63174488Y-99519195D01*
X83514881Y-99519195D01*
X84180000Y-100184315D01*
X84845119Y-99519195D01*
X84760017Y-99271154D01*
X84149936Y-99161761D01*
X83599983Y-99271154D01*
X83514881Y-99519195D01*
X63174488Y-99519195D01*
X63174488Y-99370000D01*
X63087327Y-98906778D01*
X62813563Y-98481337D01*
X62395847Y-98195924D01*
X61900000Y-98095512D01*
X59700000Y-98095512D01*
X59236778Y-98182673D01*
X58811337Y-98456437D01*
X58525924Y-98874153D01*
X58425512Y-99370000D01*
X54660350Y-99370000D01*
X54576264Y-99244139D01*
X54000863Y-98803125D01*
X53730000Y-98884736D01*
X52630000Y-98884736D01*
X52359137Y-98803125D01*
X51783736Y-99244139D01*
X51513160Y-99649143D01*
X33305168Y-99649143D01*
X32268777Y-98610942D01*
X30799140Y-98000695D01*
X30385995Y-98000335D01*
X30751288Y-97453635D01*
X30911141Y-96650000D01*
X30751288Y-95846365D01*
X30332760Y-95219994D01*
X30378000Y-95110775D01*
X30378000Y-94724500D01*
X30188500Y-94535000D01*
X29195000Y-94535000D01*
X29195000Y-94626354D01*
X28811141Y-94550000D01*
X28728859Y-94550000D01*
X28345000Y-94626354D01*
X28345000Y-94535000D01*
X27920000Y-94535000D01*
X27920000Y-93685000D01*
X28345000Y-93685000D01*
X28345000Y-92691500D01*
X29195000Y-92691500D01*
X29195000Y-93685000D01*
X30188500Y-93685000D01*
X30378000Y-93495500D01*
X30378000Y-93109225D01*
X30262602Y-92830628D01*
X30049373Y-92617399D01*
X29770776Y-92502000D01*
X29384500Y-92502000D01*
X29195000Y-92691500D01*
X28345000Y-92691500D01*
X28155500Y-92502000D01*
X27769224Y-92502000D01*
X27490627Y-92617399D01*
X27325000Y-92783026D01*
X27325000Y-91186125D01*
X27700694Y-91437156D01*
X28600000Y-91616039D01*
X29499306Y-91437156D01*
X30198454Y-90970000D01*
X31580000Y-90970000D01*
X32249696Y-90836789D01*
X32817437Y-90457437D01*
X32866678Y-90408196D01*
X33670000Y-90944958D01*
X33670000Y-93080000D01*
X33917392Y-94323721D01*
X34621903Y-95378097D01*
X35676279Y-96082608D01*
X36920000Y-96330000D01*
X38163721Y-96082608D01*
X39218097Y-95378097D01*
X39376047Y-95141708D01*
X39586437Y-95468663D01*
X40004153Y-95754076D01*
X40500000Y-95854488D01*
X43500000Y-95854488D01*
X43963222Y-95767327D01*
X44388663Y-95493563D01*
X44674076Y-95075847D01*
X44774488Y-94580000D01*
X44774488Y-93800000D01*
X52350512Y-93800000D01*
X52350512Y-96200000D01*
X52437673Y-96663222D01*
X52711437Y-97088663D01*
X53129153Y-97374076D01*
X53625000Y-97474488D01*
X56025000Y-97474488D01*
X56488222Y-97387327D01*
X56913663Y-97113563D01*
X57199076Y-96695847D01*
X57244844Y-96469838D01*
X67980000Y-96469838D01*
X67980000Y-96550162D01*
X68136047Y-97334663D01*
X68580431Y-97999731D01*
X69245499Y-98444115D01*
X70030000Y-98600162D01*
X70814501Y-98444115D01*
X71479569Y-97999731D01*
X71923953Y-97334663D01*
X72007234Y-96915981D01*
X74449645Y-96915981D01*
X74761081Y-97669715D01*
X75337252Y-98246892D01*
X76090441Y-98559643D01*
X76905981Y-98560355D01*
X77659715Y-98248919D01*
X78236892Y-97672748D01*
X78549643Y-96919559D01*
X78550355Y-96104019D01*
X78238919Y-95350285D01*
X77662748Y-94773108D01*
X76909559Y-94460357D01*
X76094019Y-94459645D01*
X75340285Y-94771081D01*
X74763108Y-95347252D01*
X74450357Y-96100441D01*
X74449645Y-96915981D01*
X72007234Y-96915981D01*
X72080000Y-96550162D01*
X72080000Y-96469838D01*
X71923953Y-95685337D01*
X71479569Y-95020269D01*
X70814501Y-94575885D01*
X70030000Y-94419838D01*
X69245499Y-94575885D01*
X68580431Y-95020269D01*
X68136047Y-95685337D01*
X67980000Y-96469838D01*
X57244844Y-96469838D01*
X57299488Y-96200000D01*
X57299488Y-93800000D01*
X57212327Y-93336778D01*
X56938563Y-92911337D01*
X56520847Y-92625924D01*
X56025000Y-92525512D01*
X53625000Y-92525512D01*
X53161778Y-92612673D01*
X52736337Y-92886437D01*
X52450924Y-93304153D01*
X52350512Y-93800000D01*
X44774488Y-93800000D01*
X44774488Y-91580000D01*
X44700201Y-91185197D01*
X62474576Y-91185197D01*
X62846780Y-92086000D01*
X63535375Y-92775798D01*
X64435527Y-93149573D01*
X65410197Y-93150424D01*
X66311000Y-92778220D01*
X66741911Y-92348060D01*
X67859652Y-92348060D01*
X68165012Y-93087086D01*
X68729940Y-93653001D01*
X69468432Y-93959650D01*
X70268060Y-93960348D01*
X71007086Y-93654988D01*
X71139736Y-93522569D01*
X71269940Y-93653001D01*
X72008432Y-93959650D01*
X72808060Y-93960348D01*
X73429798Y-93703450D01*
X73694153Y-93884076D01*
X74190000Y-93984488D01*
X75710000Y-93984488D01*
X76173222Y-93897327D01*
X76598663Y-93623563D01*
X76884076Y-93205847D01*
X76984488Y-92710000D01*
X76984488Y-91190000D01*
X76948737Y-91000000D01*
X77908841Y-91000000D01*
X77660350Y-91598432D01*
X77659652Y-92398060D01*
X77965012Y-93137086D01*
X78529940Y-93703001D01*
X79268432Y-94009650D01*
X80068060Y-94010348D01*
X80807086Y-93704988D01*
X80939736Y-93572569D01*
X81069940Y-93703001D01*
X81808432Y-94009650D01*
X82608060Y-94010348D01*
X83229798Y-93753450D01*
X83385811Y-93860049D01*
X83020285Y-94011081D01*
X82443108Y-94587252D01*
X82130357Y-95340441D01*
X82129645Y-96155981D01*
X82441081Y-96909715D01*
X83017252Y-97486892D01*
X83770441Y-97799643D01*
X84585981Y-97800355D01*
X85339715Y-97488919D01*
X85422797Y-97405981D01*
X101949645Y-97405981D01*
X102261081Y-98159715D01*
X102837252Y-98736892D01*
X103590441Y-99049643D01*
X104405981Y-99050355D01*
X105159715Y-98738919D01*
X105700437Y-98199140D01*
X106237252Y-98736892D01*
X106990441Y-99049643D01*
X107575280Y-99050154D01*
X108562698Y-100037572D01*
X108861081Y-100759715D01*
X109437252Y-101336892D01*
X110190441Y-101649643D01*
X111005981Y-101650355D01*
X111759715Y-101338919D01*
X112336892Y-100762748D01*
X112649643Y-100009559D01*
X112650355Y-99194019D01*
X112338919Y-98440285D01*
X111762748Y-97863108D01*
X111036360Y-97561486D01*
X109237437Y-95762563D01*
X108708573Y-95409188D01*
X108562748Y-95263108D01*
X107809559Y-94950357D01*
X106994019Y-94949645D01*
X106240285Y-95261081D01*
X105699563Y-95800860D01*
X105162748Y-95263108D01*
X104409559Y-94950357D01*
X103594019Y-94949645D01*
X102840285Y-95261081D01*
X102263108Y-95837252D01*
X101950357Y-96590441D01*
X101949645Y-97405981D01*
X85422797Y-97405981D01*
X85916892Y-96912748D01*
X86229643Y-96159559D01*
X86230355Y-95344019D01*
X85918919Y-94590285D01*
X85364091Y-94034488D01*
X85510000Y-94034488D01*
X85973222Y-93947327D01*
X86398663Y-93673563D01*
X86684076Y-93255847D01*
X86784488Y-92760000D01*
X86784488Y-92720767D01*
X89646634Y-92720767D01*
X89725534Y-92967179D01*
X90319247Y-93077619D01*
X90874466Y-92967179D01*
X90953366Y-92720767D01*
X90300000Y-92067401D01*
X89646634Y-92720767D01*
X86784488Y-92720767D01*
X86784488Y-91240000D01*
X86697327Y-90776778D01*
X86423563Y-90351337D01*
X86005847Y-90065924D01*
X85510000Y-89965512D01*
X83990000Y-89965512D01*
X83592881Y-90040235D01*
X83447437Y-89822563D01*
X81637437Y-88012563D01*
X81069696Y-87633211D01*
X80400000Y-87500000D01*
X73700000Y-87500000D01*
X73030304Y-87633211D01*
X72462563Y-88012563D01*
X71172563Y-89302563D01*
X70793211Y-89870304D01*
X70740543Y-90135085D01*
X70271568Y-89940350D01*
X69471940Y-89939652D01*
X68732914Y-90245012D01*
X68166999Y-90809940D01*
X67860350Y-91548432D01*
X67859652Y-92348060D01*
X66741911Y-92348060D01*
X67000798Y-92089625D01*
X67374573Y-91189473D01*
X67375424Y-90214803D01*
X67003220Y-89314000D01*
X66314625Y-88624202D01*
X65414473Y-88250427D01*
X64439803Y-88249576D01*
X63539000Y-88621780D01*
X62849202Y-89310375D01*
X62475427Y-90210527D01*
X62474576Y-91185197D01*
X44700201Y-91185197D01*
X44687327Y-91116778D01*
X44413563Y-90691337D01*
X44192123Y-90540033D01*
X44388663Y-90413563D01*
X44674076Y-89995847D01*
X44774488Y-89500000D01*
X44774488Y-87250000D01*
X51624728Y-87250000D01*
X51575000Y-87500000D01*
G36*
X66725000Y-69031227D02*
X66625000Y-69533961D01*
X66625000Y-69626039D01*
X66803883Y-70525345D01*
X67313299Y-71287740D01*
X68075694Y-71797156D01*
X68975000Y-71976039D01*
X69874306Y-71797156D01*
X70636701Y-71287740D01*
X71146117Y-70525345D01*
X71325000Y-69626039D01*
X71325000Y-69533961D01*
X71225000Y-69031227D01*
X71225000Y-68250000D01*
X72827816Y-68250000D01*
X72800000Y-68389838D01*
X72800000Y-68470162D01*
X72956047Y-69254663D01*
X73400431Y-69919731D01*
X74065499Y-70364115D01*
X74850000Y-70520162D01*
X75634501Y-70364115D01*
X76299569Y-69919731D01*
X76533296Y-69569934D01*
X76800431Y-69969731D01*
X77465499Y-70414115D01*
X78250000Y-70570162D01*
X79034501Y-70414115D01*
X79699569Y-69969731D01*
X80000000Y-69520104D01*
X80300431Y-69969731D01*
X80965499Y-70414115D01*
X81750000Y-70570162D01*
X82534501Y-70414115D01*
X83199569Y-69969731D01*
X83643953Y-69304663D01*
X83800000Y-68520162D01*
X83800000Y-68439838D01*
X83762239Y-68250000D01*
X85609877Y-68250000D01*
X85465885Y-68465499D01*
X85309838Y-69250000D01*
X85465885Y-70034501D01*
X85910269Y-70699569D01*
X86575337Y-71143953D01*
X87359838Y-71300000D01*
X87440162Y-71300000D01*
X88224663Y-71143953D01*
X88889731Y-70699569D01*
X89334115Y-70034501D01*
X89490162Y-69250000D01*
X89334115Y-68465499D01*
X89190123Y-68250000D01*
X98295529Y-68250000D01*
X98050357Y-68840441D01*
X98049645Y-69655981D01*
X98361081Y-70409715D01*
X98937252Y-70986892D01*
X99690441Y-71299643D01*
X100505981Y-71300355D01*
X101259715Y-70988919D01*
X101836892Y-70412748D01*
X102149643Y-69659559D01*
X102150355Y-68844019D01*
X101904912Y-68250000D01*
X108091720Y-68250000D01*
X107950357Y-68590441D01*
X107949645Y-69405981D01*
X108261081Y-70159715D01*
X108837252Y-70736892D01*
X108860441Y-70746521D01*
X108529590Y-70967588D01*
X107998497Y-71762426D01*
X107812002Y-72700000D01*
X107998497Y-73637574D01*
X108529590Y-74432412D01*
X109324428Y-74963505D01*
X110262002Y-75150000D01*
X110357998Y-75150000D01*
X111295572Y-74963505D01*
X112090410Y-74432412D01*
X112621503Y-73637574D01*
X112807998Y-72700000D01*
X112621503Y-71762426D01*
X112090410Y-70967588D01*
X111395668Y-70503377D01*
X111736892Y-70162748D01*
X111957846Y-69630631D01*
X118575335Y-69630631D01*
X118872162Y-70074912D01*
X119369365Y-70424694D01*
X119600000Y-70316307D01*
X119600000Y-69400000D01*
X118691263Y-69400000D01*
X118575335Y-69630631D01*
X111957846Y-69630631D01*
X112049643Y-69409559D01*
X112050355Y-68594019D01*
X111908209Y-68250000D01*
X118655086Y-68250000D01*
X118575335Y-68369369D01*
X118691263Y-68600000D01*
X119600000Y-68600000D01*
X119600000Y-68250000D01*
X120400000Y-68250000D01*
X120400000Y-68600000D01*
X120800000Y-68600000D01*
X120800000Y-69400000D01*
X120400000Y-69400000D01*
X120400000Y-70316307D01*
X120630635Y-70424694D01*
X120878954Y-70250002D01*
X121558000Y-70250002D01*
X121558000Y-69952293D01*
X121890269Y-70449569D01*
X122555337Y-70893953D01*
X123339838Y-71050000D01*
X123420162Y-71050000D01*
X123813386Y-70971783D01*
X123474202Y-71310375D01*
X123100427Y-72210527D01*
X123099576Y-73185197D01*
X123471780Y-74086000D01*
X124160375Y-74775798D01*
X125060527Y-75149573D01*
X126035197Y-75150424D01*
X126936000Y-74778220D01*
X127076913Y-74637553D01*
X127595337Y-74983953D01*
X128379838Y-75140000D01*
X128460162Y-75140000D01*
X129244663Y-74983953D01*
X129909731Y-74539569D01*
X130354115Y-73874501D01*
X130510162Y-73090000D01*
X130354115Y-72305499D01*
X130170000Y-72029951D01*
X130170000Y-70875061D01*
X130590441Y-71049643D01*
X131405981Y-71050355D01*
X132125841Y-70752915D01*
X132840441Y-71049643D01*
X133655981Y-71050355D01*
X134409715Y-70738919D01*
X134986892Y-70162748D01*
X135165512Y-69732583D01*
X135165512Y-69860000D01*
X135252673Y-70323222D01*
X135526437Y-70748663D01*
X135916984Y-71015512D01*
X135240000Y-71015512D01*
X134776778Y-71102673D01*
X134351337Y-71376437D01*
X134065924Y-71794153D01*
X133965512Y-72290000D01*
X133965512Y-73890000D01*
X134052673Y-74353222D01*
X134326437Y-74778663D01*
X134744153Y-75064076D01*
X135240000Y-75164488D01*
X136840000Y-75164488D01*
X137303222Y-75077327D01*
X137728663Y-74803563D01*
X138014076Y-74385847D01*
X138114488Y-73890000D01*
X138114488Y-72600000D01*
X144825512Y-72600000D01*
X144825512Y-74400000D01*
X144912673Y-74863222D01*
X145186437Y-75288663D01*
X145604153Y-75574076D01*
X146100000Y-75674488D01*
X147900000Y-75674488D01*
X148363222Y-75587327D01*
X148599093Y-75435548D01*
X148675110Y-75486341D01*
X149497879Y-75650000D01*
X149582121Y-75650000D01*
X150404890Y-75486341D01*
X150810000Y-75215656D01*
X151215110Y-75486341D01*
X152037879Y-75650000D01*
X152122121Y-75650000D01*
X152944890Y-75486341D01*
X153642401Y-75020280D01*
X154108462Y-74322769D01*
X154272121Y-73500000D01*
X154108462Y-72677231D01*
X153642401Y-71979720D01*
X152944890Y-71513659D01*
X152122121Y-71350000D01*
X152037879Y-71350000D01*
X151215110Y-71513659D01*
X150810000Y-71784344D01*
X150404890Y-71513659D01*
X149582121Y-71350000D01*
X149497879Y-71350000D01*
X148675110Y-71513659D01*
X148598838Y-71564622D01*
X148395847Y-71425924D01*
X147900000Y-71325512D01*
X146100000Y-71325512D01*
X145636778Y-71412673D01*
X145211337Y-71686437D01*
X144925924Y-72104153D01*
X144825512Y-72600000D01*
X138114488Y-72600000D01*
X138114488Y-72290000D01*
X138027327Y-71826778D01*
X137753563Y-71401337D01*
X137363016Y-71134488D01*
X137960000Y-71134488D01*
X138423222Y-71047327D01*
X138723307Y-70854227D01*
X139338432Y-71109650D01*
X140138060Y-71110348D01*
X140877086Y-70804988D01*
X141009736Y-70672569D01*
X141139940Y-70803001D01*
X141878432Y-71109650D01*
X142678060Y-71110348D01*
X143417086Y-70804988D01*
X143983001Y-70240060D01*
X144289650Y-69501568D01*
X144290348Y-68701940D01*
X144103610Y-68250000D01*
X147629562Y-68250000D01*
X147625512Y-68270000D01*
X147625512Y-69870000D01*
X147712673Y-70333222D01*
X147986437Y-70758663D01*
X148404153Y-71044076D01*
X148900000Y-71144488D01*
X150500000Y-71144488D01*
X150963222Y-71057327D01*
X151388663Y-70783563D01*
X151674076Y-70365847D01*
X151774488Y-69870000D01*
X151774488Y-68270000D01*
X151770725Y-68250000D01*
X153495174Y-68250000D01*
X153350000Y-68979838D01*
X153350000Y-69060162D01*
X153506047Y-69844663D01*
X153950431Y-70509731D01*
X154615499Y-70954115D01*
X155400000Y-71110162D01*
X156184501Y-70954115D01*
X156849569Y-70509731D01*
X156904537Y-70427466D01*
X156979940Y-70503001D01*
X157718432Y-70809650D01*
X158518060Y-70810348D01*
X159257086Y-70504988D01*
X159389736Y-70372569D01*
X159519940Y-70503001D01*
X160258432Y-70809650D01*
X161058060Y-70810348D01*
X161679798Y-70553450D01*
X161944153Y-70734076D01*
X162440000Y-70834488D01*
X163960000Y-70834488D01*
X164423222Y-70747327D01*
X164848663Y-70473563D01*
X165063200Y-70159578D01*
X165579590Y-70932412D01*
X166374428Y-71463505D01*
X167312002Y-71650000D01*
X167407998Y-71650000D01*
X168345572Y-71463505D01*
X169140410Y-70932412D01*
X169671503Y-70137574D01*
X169857998Y-69200000D01*
X169671503Y-68262426D01*
X169663200Y-68250000D01*
X177850000Y-68250000D01*
X177850000Y-70600000D01*
X177943225Y-71068674D01*
X177755337Y-71106047D01*
X177090269Y-71550431D01*
X176645885Y-72215499D01*
X176489838Y-73000000D01*
X176645885Y-73784501D01*
X177081135Y-74435899D01*
X176670269Y-74710431D01*
X176225885Y-75375499D01*
X176069838Y-76160000D01*
X176225885Y-76944501D01*
X176670269Y-77609569D01*
X177335337Y-78053953D01*
X178119838Y-78210000D01*
X178200162Y-78210000D01*
X178984663Y-78053953D01*
X179649731Y-77609569D01*
X180094115Y-76944501D01*
X180250162Y-76160000D01*
X180094115Y-75375499D01*
X179658865Y-74724101D01*
X180069731Y-74449569D01*
X180432209Y-73907083D01*
X180762563Y-74237437D01*
X181330304Y-74616789D01*
X182000000Y-74750001D01*
X182000005Y-74750000D01*
X184290792Y-74750000D01*
X184043108Y-74997252D01*
X183730357Y-75750441D01*
X183729645Y-76565981D01*
X184041081Y-77319715D01*
X184617252Y-77896892D01*
X185370441Y-78209643D01*
X186185981Y-78210355D01*
X186939715Y-77898919D01*
X186945298Y-77893346D01*
X187365499Y-78174115D01*
X188150000Y-78330162D01*
X188934501Y-78174115D01*
X189599569Y-77729731D01*
X189621455Y-77696976D01*
X189830431Y-78009731D01*
X190495499Y-78454115D01*
X191280000Y-78610162D01*
X192064501Y-78454115D01*
X192729569Y-78009731D01*
X193173953Y-77344663D01*
X193262146Y-76901285D01*
X193330441Y-76929643D01*
X194145981Y-76930355D01*
X194899715Y-76618919D01*
X195476892Y-76042748D01*
X195789643Y-75289559D01*
X195789646Y-75285981D01*
X196689645Y-75285981D01*
X197001081Y-76039715D01*
X197577252Y-76616892D01*
X198330441Y-76929643D01*
X199145981Y-76930355D01*
X199388251Y-76830251D01*
X199458883Y-77185345D01*
X199552927Y-77326091D01*
X199485924Y-77424153D01*
X199385512Y-77920000D01*
X199385512Y-79720000D01*
X199472673Y-80183222D01*
X199623395Y-80417450D01*
X199410374Y-80930462D01*
X199409628Y-81785785D01*
X199736256Y-82576286D01*
X200340533Y-83181619D01*
X201130462Y-83509626D01*
X201985785Y-83510372D01*
X202776286Y-83183744D01*
X203381619Y-82579467D01*
X203533039Y-82214805D01*
X209299541Y-82214805D01*
X209702129Y-83189144D01*
X210446935Y-83935251D01*
X211420570Y-84339539D01*
X212474805Y-84340459D01*
X213449144Y-83937871D01*
X213465040Y-83922002D01*
X220320000Y-83922002D01*
X220320000Y-84017998D01*
X220506495Y-84955572D01*
X221037588Y-85750410D01*
X221832426Y-86281503D01*
X222770000Y-86467998D01*
X223707574Y-86281503D01*
X224502412Y-85750410D01*
X225033505Y-84955572D01*
X225220000Y-84017998D01*
X225220000Y-83922002D01*
X225169550Y-83668374D01*
X225637252Y-84136892D01*
X226390441Y-84449643D01*
X227205981Y-84450355D01*
X227959715Y-84138919D01*
X228536892Y-83562748D01*
X228849643Y-82809559D01*
X228850355Y-81994019D01*
X228546999Y-81259838D01*
X230150000Y-81259838D01*
X230150000Y-81340162D01*
X230306047Y-82124663D01*
X230750431Y-82789731D01*
X231415499Y-83234115D01*
X232200000Y-83390162D01*
X232984501Y-83234115D01*
X233649569Y-82789731D01*
X234093953Y-82124663D01*
X234250000Y-81340162D01*
X234250000Y-81259838D01*
X234093953Y-80475337D01*
X233649569Y-79810269D01*
X233450002Y-79676923D01*
X233450002Y-79589500D01*
X240042000Y-79589500D01*
X240042000Y-80150776D01*
X240157399Y-80429373D01*
X240370628Y-80642602D01*
X240649225Y-80758000D01*
X241210500Y-80758000D01*
X241400000Y-80568500D01*
X241400000Y-79400000D01*
X242600000Y-79400000D01*
X242600000Y-80568500D01*
X242789500Y-80758000D01*
X243350775Y-80758000D01*
X243629372Y-80642602D01*
X243842601Y-80429373D01*
X243958000Y-80150776D01*
X243958000Y-79589500D01*
X255442000Y-79589500D01*
X255442000Y-80150776D01*
X255557399Y-80429373D01*
X255770628Y-80642602D01*
X256049225Y-80758000D01*
X256610500Y-80758000D01*
X256800000Y-80568500D01*
X256800000Y-79400000D01*
X258000000Y-79400000D01*
X258000000Y-80568500D01*
X258189500Y-80758000D01*
X258750775Y-80758000D01*
X259029372Y-80642602D01*
X259242601Y-80429373D01*
X259358000Y-80150776D01*
X259358000Y-79589500D01*
X259168500Y-79400000D01*
X258000000Y-79400000D01*
X256800000Y-79400000D01*
X255631500Y-79400000D01*
X255442000Y-79589500D01*
X243958000Y-79589500D01*
X243768500Y-79400000D01*
X242600000Y-79400000D01*
X241400000Y-79400000D01*
X240231500Y-79400000D01*
X240042000Y-79589500D01*
X233450002Y-79589500D01*
X233450002Y-79478954D01*
X233624694Y-79230635D01*
X233516307Y-79000000D01*
X232600000Y-79000000D01*
X232600000Y-79289403D01*
X232200000Y-79209838D01*
X231800000Y-79289403D01*
X231800000Y-79000000D01*
X230883693Y-79000000D01*
X230775306Y-79230635D01*
X230949998Y-79478954D01*
X230949998Y-79676923D01*
X230750431Y-79810269D01*
X230306047Y-80475337D01*
X230150000Y-81259838D01*
X228546999Y-81259838D01*
X228538919Y-81240285D01*
X227962748Y-80663108D01*
X227209559Y-80350357D01*
X226394019Y-80349645D01*
X225640285Y-80661081D01*
X225063108Y-81237252D01*
X224750357Y-81990441D01*
X224749860Y-82559922D01*
X224502412Y-82189590D01*
X223707574Y-81658497D01*
X222770000Y-81472002D01*
X221832426Y-81658497D01*
X221037588Y-82189590D01*
X220506495Y-82984428D01*
X220320000Y-83922002D01*
X213465040Y-83922002D01*
X214195251Y-83193065D01*
X214599539Y-82219430D01*
X214600459Y-81165195D01*
X214197871Y-80190856D01*
X213453065Y-79444749D01*
X212479430Y-79040461D01*
X211425195Y-79039541D01*
X210450856Y-79442129D01*
X209704749Y-80186935D01*
X209300461Y-81160570D01*
X209299541Y-82214805D01*
X203533039Y-82214805D01*
X203709626Y-81789538D01*
X203710372Y-80934215D01*
X203496652Y-80416973D01*
X203634076Y-80215847D01*
X203734488Y-79720000D01*
X203734488Y-77969365D01*
X230775306Y-77969365D01*
X230883693Y-78200000D01*
X231800000Y-78200000D01*
X231800000Y-77291263D01*
X232600000Y-77291263D01*
X232600000Y-78200000D01*
X233516307Y-78200000D01*
X233624694Y-77969365D01*
X233274912Y-77472162D01*
X233240580Y-77449224D01*
X240042000Y-77449224D01*
X240042000Y-78010500D01*
X240231500Y-78200000D01*
X241400000Y-78200000D01*
X241400000Y-77031500D01*
X242600000Y-77031500D01*
X242600000Y-78200000D01*
X243768500Y-78200000D01*
X243958000Y-78010500D01*
X243958000Y-77449224D01*
X255442000Y-77449224D01*
X255442000Y-78010500D01*
X255631500Y-78200000D01*
X256800000Y-78200000D01*
X256800000Y-77031500D01*
X258000000Y-77031500D01*
X258000000Y-78200000D01*
X259168500Y-78200000D01*
X259358000Y-78010500D01*
X259358000Y-77449224D01*
X259242601Y-77170627D01*
X259029372Y-76957398D01*
X258750775Y-76842000D01*
X258189500Y-76842000D01*
X258000000Y-77031500D01*
X256800000Y-77031500D01*
X256610500Y-76842000D01*
X256049225Y-76842000D01*
X255770628Y-76957398D01*
X255557399Y-77170627D01*
X255442000Y-77449224D01*
X243958000Y-77449224D01*
X243842601Y-77170627D01*
X243629372Y-76957398D01*
X243350775Y-76842000D01*
X242789500Y-76842000D01*
X242600000Y-77031500D01*
X241400000Y-77031500D01*
X241210500Y-76842000D01*
X240649225Y-76842000D01*
X240370628Y-76957398D01*
X240157399Y-77170627D01*
X240042000Y-77449224D01*
X233240580Y-77449224D01*
X232830631Y-77175335D01*
X232600000Y-77291263D01*
X231800000Y-77291263D01*
X231569369Y-77175335D01*
X231125088Y-77472162D01*
X230775306Y-77969365D01*
X203734488Y-77969365D01*
X203734488Y-77920000D01*
X203647327Y-77456778D01*
X203633799Y-77435755D01*
X203801117Y-77185345D01*
X203980000Y-76286039D01*
X203980000Y-76193961D01*
X203801117Y-75294655D01*
X203291701Y-74532260D01*
X202529306Y-74022844D01*
X201630000Y-73843961D01*
X200730694Y-74022844D01*
X200631359Y-74089218D01*
X200478919Y-73720285D01*
X199902748Y-73143108D01*
X199149559Y-72830357D01*
X198334019Y-72829645D01*
X197580285Y-73141081D01*
X197003108Y-73717252D01*
X196690357Y-74470441D01*
X196689645Y-75285981D01*
X195789646Y-75285981D01*
X195790355Y-74474019D01*
X195478919Y-73720285D01*
X194902748Y-73143108D01*
X194149559Y-72830357D01*
X193334019Y-72829645D01*
X192580285Y-73141081D01*
X192003108Y-73717252D01*
X191690357Y-74470441D01*
X191690321Y-74511456D01*
X191280000Y-74429838D01*
X190495499Y-74585885D01*
X189830431Y-75030269D01*
X189808545Y-75063024D01*
X189599569Y-74750269D01*
X188934501Y-74305885D01*
X188150000Y-74149838D01*
X187900012Y-74199564D01*
X187936892Y-74162748D01*
X188249643Y-73409559D01*
X188250355Y-72594019D01*
X187938919Y-71840285D01*
X187362748Y-71263108D01*
X186609559Y-70950357D01*
X186377898Y-70950155D01*
X186719715Y-70808919D01*
X186921310Y-70607676D01*
X187350000Y-70694488D01*
X188950000Y-70694488D01*
X189413222Y-70607327D01*
X189823921Y-70343049D01*
X190117252Y-70636892D01*
X190870441Y-70949643D01*
X191685981Y-70950355D01*
X192439715Y-70638919D01*
X193016892Y-70062748D01*
X193329643Y-69309559D01*
X193330355Y-68494019D01*
X193229529Y-68250000D01*
X194132421Y-68250000D01*
X194091337Y-68276437D01*
X193805924Y-68694153D01*
X193705512Y-69190000D01*
X193705512Y-70790000D01*
X193792673Y-71253222D01*
X194066437Y-71678663D01*
X194484153Y-71964076D01*
X194980000Y-72064488D01*
X196580000Y-72064488D01*
X197043222Y-71977327D01*
X197308802Y-71806431D01*
X197870441Y-72039643D01*
X198685981Y-72040355D01*
X199439715Y-71728919D01*
X200016892Y-71152748D01*
X200117309Y-70910916D01*
X200530000Y-70994488D01*
X202730000Y-70994488D01*
X203193222Y-70907327D01*
X203618663Y-70633563D01*
X203904076Y-70215847D01*
X204004488Y-69720000D01*
X204004488Y-68250000D01*
X205533806Y-68250000D01*
X207257280Y-69973474D01*
X209564411Y-72467139D01*
X210590639Y-73212056D01*
X211823817Y-73507549D01*
X213076205Y-73308632D01*
X214157139Y-72645589D01*
X214902056Y-71619361D01*
X215197549Y-70386183D01*
X214998632Y-69133794D01*
X214456514Y-68250000D01*
X219201213Y-68250000D01*
X219409010Y-68560990D01*
X219411710Y-68562794D01*
X219413523Y-68565491D01*
X220495773Y-69641627D01*
X220691780Y-70116000D01*
X221380375Y-70805798D01*
X222280527Y-71179573D01*
X223255197Y-71180424D01*
X224156000Y-70808220D01*
X224668645Y-70296469D01*
X224721271Y-70561038D01*
X225209010Y-71290990D01*
X225938962Y-71778729D01*
X226800000Y-71950000D01*
X227628521Y-71785197D01*
X239549576Y-71785197D01*
X239921780Y-72686000D01*
X240610375Y-73375798D01*
X241510527Y-73749573D01*
X242485197Y-73750424D01*
X243386000Y-73378220D01*
X244075798Y-72689625D01*
X244449573Y-71789473D01*
X244449576Y-71785197D01*
X254949576Y-71785197D01*
X255321780Y-72686000D01*
X256010375Y-73375798D01*
X256910527Y-73749573D01*
X257885197Y-73750424D01*
X258786000Y-73378220D01*
X259475798Y-72689625D01*
X259849573Y-71789473D01*
X259850424Y-70814803D01*
X259478220Y-69914000D01*
X258789625Y-69224202D01*
X257889473Y-68850427D01*
X256914803Y-68849576D01*
X256014000Y-69221780D01*
X255324202Y-69910375D01*
X254950427Y-70810527D01*
X254949576Y-71785197D01*
X244449576Y-71785197D01*
X244450424Y-70814803D01*
X244078220Y-69914000D01*
X243389625Y-69224202D01*
X242489473Y-68850427D01*
X241514803Y-68849576D01*
X240614000Y-69221780D01*
X239924202Y-69910375D01*
X239550427Y-70810527D01*
X239549576Y-71785197D01*
X227628521Y-71785197D01*
X227661038Y-71778729D01*
X228390990Y-71290990D01*
X228878729Y-70561038D01*
X229050000Y-69700000D01*
X229050000Y-68333752D01*
X230150201Y-68369160D01*
X230149645Y-69005981D01*
X230461081Y-69759715D01*
X231037252Y-70336892D01*
X231790441Y-70649643D01*
X232605981Y-70650355D01*
X233359715Y-70338919D01*
X233936892Y-69762748D01*
X234249643Y-69009559D01*
X234250087Y-68501111D01*
X248145456Y-68948318D01*
X248740076Y-68849808D01*
X249336523Y-68762999D01*
X249364438Y-68746371D01*
X249396491Y-68741061D01*
X249908141Y-68422505D01*
X250197741Y-68250000D01*
X264675000Y-68250000D01*
X264675000Y-92020735D01*
X264460776Y-91932000D01*
X264074500Y-91932000D01*
X263885000Y-92121500D01*
X263885000Y-93115000D01*
X264310000Y-93115000D01*
X264310000Y-93965000D01*
X263885000Y-93965000D01*
X263885000Y-94056354D01*
X263501141Y-93980000D01*
X263418859Y-93980000D01*
X263035000Y-94056354D01*
X263035000Y-93965000D01*
X262041500Y-93965000D01*
X261852000Y-94154500D01*
X261852000Y-94540775D01*
X261897240Y-94649994D01*
X261478712Y-95276365D01*
X261318859Y-96080000D01*
X261478712Y-96883635D01*
X261933935Y-97564924D01*
X262585834Y-98000509D01*
X261207841Y-97999307D01*
X259737142Y-98606987D01*
X258610942Y-99731223D01*
X258000695Y-101200860D01*
X257999307Y-102792159D01*
X258606987Y-104262858D01*
X259018410Y-104675000D01*
X257307837Y-104675000D01*
X257327740Y-104661701D01*
X257837156Y-103899306D01*
X258016039Y-103000000D01*
X257837156Y-102100694D01*
X257435785Y-101500000D01*
X257837156Y-100899306D01*
X258016039Y-100000000D01*
X257837156Y-99100694D01*
X257327740Y-98338299D01*
X256565345Y-97828883D01*
X255666039Y-97650000D01*
X255573961Y-97650000D01*
X254674655Y-97828883D01*
X253912260Y-98338299D01*
X253402844Y-99100694D01*
X253223961Y-100000000D01*
X253402844Y-100899306D01*
X253804215Y-101500000D01*
X253402844Y-102100694D01*
X253223961Y-103000000D01*
X253402844Y-103899306D01*
X253912260Y-104661701D01*
X253932163Y-104675000D01*
X249596974Y-104675000D01*
X249742602Y-104529372D01*
X249858000Y-104250775D01*
X249858000Y-103739500D01*
X249668500Y-103550000D01*
X248550000Y-103550000D01*
X248550000Y-104100000D01*
X247450000Y-104100000D01*
X247450000Y-103550000D01*
X246331500Y-103550000D01*
X246142000Y-103739500D01*
X246142000Y-104250775D01*
X246257398Y-104529372D01*
X246403026Y-104675000D01*
X229734999Y-104675000D01*
X229774488Y-104480000D01*
X229774488Y-101480000D01*
X229687327Y-101016778D01*
X229413563Y-100591337D01*
X229192123Y-100440033D01*
X229388663Y-100313563D01*
X229674076Y-99895847D01*
X229774488Y-99400000D01*
X229774488Y-98900000D01*
X245625512Y-98900000D01*
X245625512Y-101100000D01*
X245712673Y-101563222D01*
X245986437Y-101988663D01*
X246142000Y-102094955D01*
X246142000Y-102260500D01*
X246331500Y-102450000D01*
X247450000Y-102450000D01*
X247450000Y-102374488D01*
X248550000Y-102374488D01*
X248550000Y-102450000D01*
X249668500Y-102450000D01*
X249858000Y-102260500D01*
X249858000Y-102097642D01*
X249988663Y-102013563D01*
X250274076Y-101595847D01*
X250374488Y-101100000D01*
X250374488Y-98900000D01*
X250287327Y-98436778D01*
X250013563Y-98011337D01*
X249595847Y-97725924D01*
X249100000Y-97625512D01*
X246900000Y-97625512D01*
X246436778Y-97712673D01*
X246011337Y-97986437D01*
X245725924Y-98404153D01*
X245625512Y-98900000D01*
X229774488Y-98900000D01*
X229774488Y-96400000D01*
X229687327Y-95936778D01*
X229413563Y-95511337D01*
X228995847Y-95225924D01*
X228500000Y-95125512D01*
X225500000Y-95125512D01*
X225036778Y-95212673D01*
X224611337Y-95486437D01*
X224325924Y-95904153D01*
X224225512Y-96400000D01*
X224225512Y-99400000D01*
X224312673Y-99863222D01*
X224586437Y-100288663D01*
X224807877Y-100439967D01*
X224611337Y-100566437D01*
X224325924Y-100984153D01*
X224225512Y-101480000D01*
X224225512Y-104480000D01*
X224262204Y-104675000D01*
X222554340Y-104675000D01*
X221920000Y-104040660D01*
X221285660Y-104675000D01*
X198274488Y-104675000D01*
X198274488Y-103969369D01*
X202395335Y-103969369D01*
X202511263Y-104200000D01*
X203420000Y-104200000D01*
X203420000Y-103348500D01*
X203484807Y-103283693D01*
X204220000Y-103283693D01*
X204220000Y-104200000D01*
X205128737Y-104200000D01*
X205244665Y-103969369D01*
X204947838Y-103525088D01*
X204710328Y-103358000D01*
X204950776Y-103358000D01*
X205229373Y-103242601D01*
X205270825Y-103201149D01*
X219628408Y-103201149D01*
X219718216Y-103652639D01*
X219993039Y-103846301D01*
X220859340Y-102980000D01*
X222980660Y-102980000D01*
X223846961Y-103846301D01*
X224121784Y-103652639D01*
X224211592Y-102758851D01*
X224121784Y-102307361D01*
X223846961Y-102113699D01*
X222980660Y-102980000D01*
X220859340Y-102980000D01*
X219993039Y-102113699D01*
X219718216Y-102307361D01*
X219628408Y-103201149D01*
X205270825Y-103201149D01*
X205442602Y-103029372D01*
X205558000Y-102750775D01*
X205558000Y-102389500D01*
X205368500Y-102200000D01*
X204400000Y-102200000D01*
X204400000Y-103168500D01*
X204420818Y-103189318D01*
X204220000Y-103283693D01*
X203484807Y-103283693D01*
X203600000Y-103168500D01*
X203600000Y-102200000D01*
X202631500Y-102200000D01*
X202442000Y-102389500D01*
X202442000Y-102750775D01*
X202557398Y-103029372D01*
X202770627Y-103242601D01*
X202973977Y-103326831D01*
X202692162Y-103525088D01*
X202395335Y-103969369D01*
X198274488Y-103969369D01*
X198274488Y-103800000D01*
X198187327Y-103336778D01*
X198002932Y-103050220D01*
X198314115Y-102584501D01*
X198470162Y-101800000D01*
X198314115Y-101015499D01*
X197901541Y-100398038D01*
X197936892Y-100362748D01*
X198157846Y-99830631D01*
X202395335Y-99830631D01*
X202692162Y-100274912D01*
X202795040Y-100347287D01*
X202770627Y-100357399D01*
X202557398Y-100570628D01*
X202442000Y-100849225D01*
X202442000Y-101210500D01*
X202631500Y-101400000D01*
X203600000Y-101400000D01*
X203600000Y-100431500D01*
X203420000Y-100251500D01*
X203420000Y-99600000D01*
X204220000Y-99600000D01*
X204220000Y-100516307D01*
X204400000Y-100600898D01*
X204400000Y-101400000D01*
X205368500Y-101400000D01*
X205558000Y-101210500D01*
X205558000Y-101053039D01*
X221053699Y-101053039D01*
X221920000Y-101919340D01*
X222786301Y-101053039D01*
X222592639Y-100778216D01*
X221698851Y-100688408D01*
X221247361Y-100778216D01*
X221053699Y-101053039D01*
X205558000Y-101053039D01*
X205558000Y-100849225D01*
X205442602Y-100570628D01*
X205229373Y-100357399D01*
X204965697Y-100248181D01*
X205244665Y-99830631D01*
X205242821Y-99826961D01*
X221053699Y-99826961D01*
X221247361Y-100101784D01*
X222141149Y-100191592D01*
X222592639Y-100101784D01*
X222786301Y-99826961D01*
X221920000Y-98960660D01*
X221053699Y-99826961D01*
X205242821Y-99826961D01*
X205128737Y-99600000D01*
X204220000Y-99600000D01*
X203420000Y-99600000D01*
X202511263Y-99600000D01*
X202395335Y-99830631D01*
X198157846Y-99830631D01*
X198249643Y-99609559D01*
X198250355Y-98794019D01*
X197938919Y-98040285D01*
X197362748Y-97463108D01*
X196609559Y-97150357D01*
X195794019Y-97149645D01*
X195040285Y-97461081D01*
X194463108Y-98037252D01*
X194150357Y-98790441D01*
X194149645Y-99605981D01*
X194461081Y-100359715D01*
X194714465Y-100613541D01*
X194445885Y-101015499D01*
X194289838Y-101800000D01*
X194445885Y-102584501D01*
X194606651Y-102825104D01*
X194511337Y-102886437D01*
X194337158Y-103141356D01*
X194249569Y-103010269D01*
X193584501Y-102565885D01*
X192800000Y-102409838D01*
X192015499Y-102565885D01*
X191350431Y-103010269D01*
X190906047Y-103675337D01*
X190800779Y-104204553D01*
X190663505Y-103514428D01*
X190132412Y-102719590D01*
X189337574Y-102188497D01*
X189250000Y-102171077D01*
X189250000Y-95800000D01*
X201609838Y-95800000D01*
X201765885Y-96584501D01*
X202210269Y-97249569D01*
X202797584Y-97642000D01*
X202569998Y-97642000D01*
X202569998Y-98307939D01*
X202395335Y-98569369D01*
X202511263Y-98800000D01*
X203420000Y-98800000D01*
X203420000Y-98400000D01*
X204220000Y-98400000D01*
X204220000Y-98800000D01*
X205128737Y-98800000D01*
X205244665Y-98569369D01*
X205070002Y-98307939D01*
X205070002Y-98121149D01*
X219628408Y-98121149D01*
X219718216Y-98572639D01*
X219993039Y-98766301D01*
X220859340Y-97900000D01*
X222980660Y-97900000D01*
X223846961Y-98766301D01*
X224121784Y-98572639D01*
X224211592Y-97678851D01*
X224121784Y-97227361D01*
X223846961Y-97033699D01*
X222980660Y-97900000D01*
X220859340Y-97900000D01*
X219993039Y-97033699D01*
X219718216Y-97227361D01*
X219628408Y-98121149D01*
X205070002Y-98121149D01*
X205070002Y-97642000D01*
X204602416Y-97642000D01*
X205189731Y-97249569D01*
X205335904Y-97030805D01*
X215734881Y-97030805D01*
X215819983Y-97278846D01*
X216430064Y-97388239D01*
X216980017Y-97278846D01*
X217065119Y-97030805D01*
X216400000Y-96365685D01*
X215734881Y-97030805D01*
X205335904Y-97030805D01*
X205634115Y-96584501D01*
X205784181Y-95830064D01*
X214811761Y-95830064D01*
X214921154Y-96380017D01*
X215169195Y-96465119D01*
X215834315Y-95800000D01*
X216965685Y-95800000D01*
X217630805Y-96465119D01*
X217878846Y-96380017D01*
X217951820Y-95973039D01*
X221053699Y-95973039D01*
X221920000Y-96839340D01*
X222786301Y-95973039D01*
X222592639Y-95698216D01*
X221698851Y-95608408D01*
X221247361Y-95698216D01*
X221053699Y-95973039D01*
X217951820Y-95973039D01*
X217988239Y-95769936D01*
X217878846Y-95219983D01*
X217630805Y-95134881D01*
X216965685Y-95800000D01*
X215834315Y-95800000D01*
X215169195Y-95134881D01*
X214921154Y-95219983D01*
X214811761Y-95830064D01*
X205784181Y-95830064D01*
X205790162Y-95800000D01*
X205634115Y-95015499D01*
X205335905Y-94569195D01*
X215734881Y-94569195D01*
X216400000Y-95234315D01*
X217065119Y-94569195D01*
X216980017Y-94321154D01*
X216369936Y-94211761D01*
X215819983Y-94321154D01*
X215734881Y-94569195D01*
X205335905Y-94569195D01*
X205189731Y-94350431D01*
X204524663Y-93906047D01*
X203740162Y-93750000D01*
X203659838Y-93750000D01*
X202875337Y-93906047D01*
X202210269Y-94350431D01*
X201765885Y-95015499D01*
X201609838Y-95800000D01*
X189250000Y-95800000D01*
X189250000Y-94099691D01*
X189786000Y-93878220D01*
X190475798Y-93189625D01*
X190816777Y-92368454D01*
X191061081Y-92959715D01*
X191637252Y-93536892D01*
X192390441Y-93849643D01*
X193205981Y-93850355D01*
X193959715Y-93538919D01*
X194536892Y-92962748D01*
X194716250Y-92530805D01*
X231534881Y-92530805D01*
X231619983Y-92778846D01*
X232230064Y-92888239D01*
X232780017Y-92778846D01*
X232865119Y-92530805D01*
X232200000Y-91865685D01*
X231534881Y-92530805D01*
X194716250Y-92530805D01*
X194849643Y-92209559D01*
X194850355Y-91394019D01*
X194823930Y-91330064D01*
X230611761Y-91330064D01*
X230721154Y-91880017D01*
X230969195Y-91965119D01*
X231634315Y-91300000D01*
X232765685Y-91300000D01*
X233430805Y-91965119D01*
X233678846Y-91880017D01*
X233788239Y-91269936D01*
X233678846Y-90719983D01*
X233430805Y-90634881D01*
X232765685Y-91300000D01*
X231634315Y-91300000D01*
X230969195Y-90634881D01*
X230721154Y-90719983D01*
X230611761Y-91330064D01*
X194823930Y-91330064D01*
X194538919Y-90640285D01*
X193968825Y-90069195D01*
X231534881Y-90069195D01*
X232200000Y-90734315D01*
X232865119Y-90069195D01*
X232780017Y-89821154D01*
X232169936Y-89711761D01*
X231619983Y-89821154D01*
X231534881Y-90069195D01*
X193968825Y-90069195D01*
X193962748Y-90063108D01*
X193209559Y-89750357D01*
X192394019Y-89749645D01*
X191640285Y-90061081D01*
X191063108Y-90637252D01*
X190816179Y-91231924D01*
X190478220Y-90414000D01*
X189789625Y-89724202D01*
X189250000Y-89500131D01*
X189250000Y-88544609D01*
X234769523Y-88544609D01*
X235187304Y-89555715D01*
X235960216Y-90329977D01*
X236466003Y-90539998D01*
X235964285Y-90747304D01*
X235190023Y-91520216D01*
X234770478Y-92530591D01*
X234769523Y-93624609D01*
X235187304Y-94635715D01*
X235960216Y-95409977D01*
X236970591Y-95829522D01*
X238064609Y-95830477D01*
X239075715Y-95412696D01*
X239849977Y-94639784D01*
X240107541Y-94019500D01*
X240342000Y-94019500D01*
X240342000Y-94730775D01*
X240457398Y-95009372D01*
X240670627Y-95222601D01*
X240949224Y-95338000D01*
X241660500Y-95338000D01*
X241850000Y-95148500D01*
X241850000Y-93830000D01*
X243350000Y-93830000D01*
X243350000Y-95148500D01*
X243539500Y-95338000D01*
X244250776Y-95338000D01*
X244529373Y-95222601D01*
X244742602Y-95009372D01*
X244750833Y-94989500D01*
X251042000Y-94989500D01*
X251042000Y-95550776D01*
X251157399Y-95829373D01*
X251370628Y-96042602D01*
X251649225Y-96158000D01*
X252210500Y-96158000D01*
X252400000Y-95968500D01*
X252400000Y-94800000D01*
X253600000Y-94800000D01*
X253600000Y-95968500D01*
X253789500Y-96158000D01*
X254350775Y-96158000D01*
X254629372Y-96042602D01*
X254842601Y-95829373D01*
X254958000Y-95550776D01*
X254958000Y-94989500D01*
X254768500Y-94800000D01*
X253600000Y-94800000D01*
X252400000Y-94800000D01*
X251231500Y-94800000D01*
X251042000Y-94989500D01*
X244750833Y-94989500D01*
X244858000Y-94730775D01*
X244858000Y-94019500D01*
X244668500Y-93830000D01*
X243350000Y-93830000D01*
X241850000Y-93830000D01*
X240531500Y-93830000D01*
X240342000Y-94019500D01*
X240107541Y-94019500D01*
X240269522Y-93629409D01*
X240270203Y-92849224D01*
X251042000Y-92849224D01*
X251042000Y-93410500D01*
X251231500Y-93600000D01*
X252400000Y-93600000D01*
X252400000Y-92431500D01*
X253600000Y-92431500D01*
X253600000Y-93600000D01*
X254768500Y-93600000D01*
X254958000Y-93410500D01*
X254958000Y-92849224D01*
X254842601Y-92570627D01*
X254811199Y-92539225D01*
X261852000Y-92539225D01*
X261852000Y-92925500D01*
X262041500Y-93115000D01*
X263035000Y-93115000D01*
X263035000Y-92121500D01*
X262845500Y-91932000D01*
X262459224Y-91932000D01*
X262180627Y-92047399D01*
X261967398Y-92260628D01*
X261852000Y-92539225D01*
X254811199Y-92539225D01*
X254629372Y-92357398D01*
X254350775Y-92242000D01*
X253789500Y-92242000D01*
X253600000Y-92431500D01*
X252400000Y-92431500D01*
X252210500Y-92242000D01*
X251649225Y-92242000D01*
X251370628Y-92357398D01*
X251157399Y-92570627D01*
X251042000Y-92849224D01*
X240270203Y-92849224D01*
X240270477Y-92535391D01*
X239852696Y-91524285D01*
X239757802Y-91429225D01*
X240342000Y-91429225D01*
X240342000Y-92140500D01*
X240531500Y-92330000D01*
X241850000Y-92330000D01*
X241850000Y-91011500D01*
X243350000Y-91011500D01*
X243350000Y-92330000D01*
X244668500Y-92330000D01*
X244858000Y-92140500D01*
X244858000Y-91429225D01*
X244742602Y-91150628D01*
X244529373Y-90937399D01*
X244250776Y-90822000D01*
X243539500Y-90822000D01*
X243350000Y-91011500D01*
X241850000Y-91011500D01*
X241660500Y-90822000D01*
X240949224Y-90822000D01*
X240670627Y-90937399D01*
X240457398Y-91150628D01*
X240342000Y-91429225D01*
X239757802Y-91429225D01*
X239079784Y-90750023D01*
X238573997Y-90540002D01*
X239075715Y-90332696D01*
X239849977Y-89559784D01*
X240107541Y-88939500D01*
X240342000Y-88939500D01*
X240342000Y-89650775D01*
X240457398Y-89929372D01*
X240670627Y-90142601D01*
X240949224Y-90258000D01*
X241660500Y-90258000D01*
X241850000Y-90068500D01*
X241850000Y-88750000D01*
X243350000Y-88750000D01*
X243350000Y-90068500D01*
X243539500Y-90258000D01*
X244250776Y-90258000D01*
X244529373Y-90142601D01*
X244742602Y-89929372D01*
X244858000Y-89650775D01*
X244858000Y-88939500D01*
X244668500Y-88750000D01*
X243350000Y-88750000D01*
X241850000Y-88750000D01*
X240531500Y-88750000D01*
X240342000Y-88939500D01*
X240107541Y-88939500D01*
X240269522Y-88549409D01*
X240270477Y-87455391D01*
X239852696Y-86444285D01*
X239757802Y-86349225D01*
X240342000Y-86349225D01*
X240342000Y-87060500D01*
X240531500Y-87250000D01*
X241850000Y-87250000D01*
X241850000Y-85931500D01*
X243350000Y-85931500D01*
X243350000Y-87250000D01*
X244668500Y-87250000D01*
X244733303Y-87185197D01*
X250549576Y-87185197D01*
X250921780Y-88086000D01*
X251610375Y-88775798D01*
X252510527Y-89149573D01*
X253485197Y-89150424D01*
X254386000Y-88778220D01*
X255075798Y-88089625D01*
X255449573Y-87189473D01*
X255450424Y-86214803D01*
X255078220Y-85314000D01*
X254389625Y-84624202D01*
X253489473Y-84250427D01*
X252514803Y-84249576D01*
X251614000Y-84621780D01*
X250924202Y-85310375D01*
X250550427Y-86210527D01*
X250549576Y-87185197D01*
X244733303Y-87185197D01*
X244858000Y-87060500D01*
X244858000Y-86349225D01*
X244742602Y-86070628D01*
X244529373Y-85857399D01*
X244250776Y-85742000D01*
X243539500Y-85742000D01*
X243350000Y-85931500D01*
X241850000Y-85931500D01*
X241660500Y-85742000D01*
X240949224Y-85742000D01*
X240670627Y-85857399D01*
X240457398Y-86070628D01*
X240342000Y-86349225D01*
X239757802Y-86349225D01*
X239079784Y-85670023D01*
X238069409Y-85250478D01*
X236975391Y-85249523D01*
X235964285Y-85667304D01*
X235190023Y-86440216D01*
X234770478Y-87450591D01*
X234769523Y-88544609D01*
X189250000Y-88544609D01*
X189250000Y-86000000D01*
X189230304Y-85902736D01*
X189174318Y-85820798D01*
X189090864Y-85767097D01*
X189000000Y-85750000D01*
X187634488Y-85750000D01*
X187634488Y-85240000D01*
X187547327Y-84776778D01*
X187273563Y-84351337D01*
X186855847Y-84065924D01*
X186360000Y-83965512D01*
X184840000Y-83965512D01*
X184376778Y-84052673D01*
X184076693Y-84245773D01*
X183461568Y-83990350D01*
X182661940Y-83989652D01*
X181922914Y-84295012D01*
X181790264Y-84427431D01*
X181660060Y-84296999D01*
X180921568Y-83990350D01*
X180121940Y-83989652D01*
X179382914Y-84295012D01*
X178816999Y-84859940D01*
X178510350Y-85598432D01*
X178510218Y-85750000D01*
X155554471Y-85750000D01*
X155799643Y-85159559D01*
X155800355Y-84344019D01*
X155488919Y-83590285D01*
X155053412Y-83154018D01*
X155209731Y-83049569D01*
X155654115Y-82384501D01*
X155810162Y-81600000D01*
X155654115Y-80815499D01*
X155209731Y-80150431D01*
X154544663Y-79706047D01*
X153760162Y-79550000D01*
X153679838Y-79550000D01*
X152895337Y-79706047D01*
X152230269Y-80150431D01*
X151785885Y-80815499D01*
X151629838Y-81600000D01*
X151785885Y-82384501D01*
X152230269Y-83049569D01*
X152422836Y-83178238D01*
X152013108Y-83587252D01*
X151700357Y-84340441D01*
X151699645Y-85155981D01*
X151945088Y-85750000D01*
X149029113Y-85750000D01*
X148909559Y-85700357D01*
X148094019Y-85699645D01*
X147972151Y-85750000D01*
X147920123Y-85750000D01*
X148064115Y-85534501D01*
X148220162Y-84750000D01*
X148064115Y-83965499D01*
X147619731Y-83300431D01*
X147427164Y-83171762D01*
X147836892Y-82762748D01*
X148149643Y-82009559D01*
X148150355Y-81194019D01*
X147838919Y-80440285D01*
X147262748Y-79863108D01*
X146509559Y-79550357D01*
X145694019Y-79549645D01*
X144940285Y-79861081D01*
X144363108Y-80437252D01*
X144050357Y-81190441D01*
X144049645Y-82005981D01*
X144361081Y-82759715D01*
X144796588Y-83195982D01*
X144640269Y-83300431D01*
X144369735Y-83705314D01*
X144370342Y-83009862D01*
X144071059Y-82285542D01*
X143517373Y-81730889D01*
X142793576Y-81430342D01*
X142009862Y-81429658D01*
X141285542Y-81728941D01*
X141130215Y-81883998D01*
X140977373Y-81730889D01*
X140253576Y-81430342D01*
X139469862Y-81429658D01*
X138745542Y-81728941D01*
X138590215Y-81883998D01*
X138437373Y-81730889D01*
X137713576Y-81430342D01*
X136929862Y-81429658D01*
X136205542Y-81728941D01*
X135650889Y-82282627D01*
X135350342Y-83006424D01*
X135349658Y-83790138D01*
X135648941Y-84514458D01*
X136202627Y-85069111D01*
X136926424Y-85369658D01*
X137710138Y-85370342D01*
X138434458Y-85071059D01*
X138589785Y-84916002D01*
X138742627Y-85069111D01*
X139466424Y-85369658D01*
X140250138Y-85370342D01*
X140974458Y-85071059D01*
X141129785Y-84916002D01*
X141282627Y-85069111D01*
X142006424Y-85369658D01*
X142790138Y-85370342D01*
X143514458Y-85071059D01*
X144069111Y-84517373D01*
X144101742Y-84438790D01*
X144039838Y-84750000D01*
X144195885Y-85534501D01*
X144339877Y-85750000D01*
X107348879Y-85750000D01*
X106912748Y-85313108D01*
X106159559Y-85000357D01*
X105344019Y-84999645D01*
X104590285Y-85311081D01*
X104150600Y-85750000D01*
X100367831Y-85750000D01*
X100000000Y-85675512D01*
X98000000Y-85675512D01*
X97604129Y-85750000D01*
X92334488Y-85750000D01*
X92334488Y-85690000D01*
X92247327Y-85226778D01*
X91973563Y-84801337D01*
X91555847Y-84515924D01*
X91060000Y-84415512D01*
X89540000Y-84415512D01*
X89076778Y-84502673D01*
X88651337Y-84776437D01*
X88365924Y-85194153D01*
X88265512Y-85690000D01*
X88265512Y-85750000D01*
X86684488Y-85750000D01*
X86684488Y-84290000D01*
X86597327Y-83826778D01*
X86323563Y-83401337D01*
X86315151Y-83395589D01*
X96749610Y-83395589D01*
X97091431Y-84222858D01*
X97723813Y-84856345D01*
X98550484Y-85199608D01*
X99445589Y-85200390D01*
X100272858Y-84858569D01*
X100906345Y-84226187D01*
X101249608Y-83399516D01*
X101250390Y-82504411D01*
X101230380Y-82455981D01*
X103699645Y-82455981D01*
X104011081Y-83209715D01*
X104587252Y-83786892D01*
X105340441Y-84099643D01*
X106155981Y-84100355D01*
X106909715Y-83788919D01*
X107486892Y-83212748D01*
X107799643Y-82459559D01*
X107800262Y-81750000D01*
X116177879Y-81750000D01*
X116341538Y-82572769D01*
X116807599Y-83270280D01*
X117505110Y-83736341D01*
X118327879Y-83900000D01*
X118412121Y-83900000D01*
X119234890Y-83736341D01*
X119640000Y-83465656D01*
X120045110Y-83736341D01*
X120867879Y-83900000D01*
X120952121Y-83900000D01*
X121774890Y-83736341D01*
X121851162Y-83685378D01*
X122054153Y-83824076D01*
X122550000Y-83924488D01*
X124350000Y-83924488D01*
X124813222Y-83837327D01*
X125238663Y-83563563D01*
X125524076Y-83145847D01*
X125624488Y-82650000D01*
X125624488Y-80850000D01*
X125537327Y-80386778D01*
X125263563Y-79961337D01*
X124845847Y-79675924D01*
X124350000Y-79575512D01*
X122550000Y-79575512D01*
X122086778Y-79662673D01*
X121850907Y-79814452D01*
X121774890Y-79763659D01*
X120952121Y-79600000D01*
X120867879Y-79600000D01*
X120045110Y-79763659D01*
X119640000Y-80034344D01*
X119234890Y-79763659D01*
X118412121Y-79600000D01*
X118327879Y-79600000D01*
X117505110Y-79763659D01*
X116807599Y-80229720D01*
X116341538Y-80927231D01*
X116177879Y-81750000D01*
X107800262Y-81750000D01*
X107800355Y-81644019D01*
X107488919Y-80890285D01*
X106912748Y-80313108D01*
X106159559Y-80000357D01*
X105344019Y-79999645D01*
X104590285Y-80311081D01*
X104013108Y-80887252D01*
X103700357Y-81640441D01*
X103699645Y-82455981D01*
X101230380Y-82455981D01*
X100908569Y-81677142D01*
X100276187Y-81043655D01*
X99449516Y-80700392D01*
X98554411Y-80699610D01*
X97727142Y-81041431D01*
X97093655Y-81673813D01*
X96750392Y-82500484D01*
X96749610Y-83395589D01*
X86315151Y-83395589D01*
X85905847Y-83115924D01*
X85410000Y-83015512D01*
X83890000Y-83015512D01*
X83426778Y-83102673D01*
X83126693Y-83295773D01*
X82511568Y-83040350D01*
X81711940Y-83039652D01*
X80972914Y-83345012D01*
X80840264Y-83477431D01*
X80710060Y-83346999D01*
X79971568Y-83040350D01*
X79171940Y-83039652D01*
X78432914Y-83345012D01*
X77866999Y-83909940D01*
X77560350Y-84648432D01*
X77559652Y-85448060D01*
X77684411Y-85750000D01*
X77386492Y-85750000D01*
X77489650Y-85501568D01*
X77490348Y-84701940D01*
X77184988Y-83962914D01*
X76620060Y-83396999D01*
X75881568Y-83090350D01*
X75081940Y-83089652D01*
X74342914Y-83395012D01*
X74210264Y-83527431D01*
X74080060Y-83396999D01*
X73341568Y-83090350D01*
X72541940Y-83089652D01*
X71920202Y-83346550D01*
X71655847Y-83165924D01*
X71160000Y-83065512D01*
X69640000Y-83065512D01*
X69176778Y-83152673D01*
X68751337Y-83426437D01*
X68465924Y-83844153D01*
X68365512Y-84340000D01*
X68365512Y-85750000D01*
X55891352Y-85750000D01*
X55349291Y-85207939D01*
X55007769Y-85549461D01*
X54686072Y-85508482D01*
X54615324Y-85522554D01*
X54300709Y-85207939D01*
X53758648Y-85750000D01*
X44502790Y-85750000D01*
X44413563Y-85611337D01*
X43995847Y-85325924D01*
X43500000Y-85225512D01*
X40500000Y-85225512D01*
X40036778Y-85312673D01*
X39611337Y-85586437D01*
X39499579Y-85750000D01*
X37918928Y-85750000D01*
X37660579Y-85491651D01*
X37402230Y-85750000D01*
X37112783Y-85750000D01*
X36698851Y-85708408D01*
X36489756Y-85750000D01*
X36437770Y-85750000D01*
X36179421Y-85491651D01*
X35921072Y-85750000D01*
X27325000Y-85750000D01*
X27325000Y-83939049D01*
X27500000Y-83974488D01*
X29700000Y-83974488D01*
X30163222Y-83887327D01*
X30588663Y-83613563D01*
X30874076Y-83195847D01*
X30974488Y-82700000D01*
X30974488Y-80500000D01*
X30887327Y-80036778D01*
X30741340Y-79809909D01*
X30771117Y-79765345D01*
X30913407Y-79050000D01*
X37375512Y-79050000D01*
X37375512Y-81450000D01*
X37462673Y-81913222D01*
X37736437Y-82338663D01*
X38154153Y-82624076D01*
X38650000Y-82724488D01*
X41050000Y-82724488D01*
X41513222Y-82637327D01*
X41938663Y-82363563D01*
X42224076Y-81945847D01*
X42324488Y-81450000D01*
X42324488Y-79050000D01*
X52150512Y-79050000D01*
X52150512Y-81450000D01*
X52237673Y-81913222D01*
X52511437Y-82338663D01*
X52929153Y-82624076D01*
X53425000Y-82724488D01*
X55825000Y-82724488D01*
X56288222Y-82637327D01*
X56713663Y-82363563D01*
X56999076Y-81945847D01*
X57099488Y-81450000D01*
X57099488Y-79050000D01*
X57012327Y-78586778D01*
X56738563Y-78161337D01*
X56432191Y-77952002D01*
X62475000Y-77952002D01*
X62475000Y-78047998D01*
X62661495Y-78985572D01*
X63192588Y-79780410D01*
X63987426Y-80311503D01*
X64925000Y-80497998D01*
X65862574Y-80311503D01*
X66478432Y-79900000D01*
X88075512Y-79900000D01*
X88075512Y-81900000D01*
X88162673Y-82363222D01*
X88436437Y-82788663D01*
X88854153Y-83074076D01*
X89350000Y-83174488D01*
X91350000Y-83174488D01*
X91813222Y-83087327D01*
X92238663Y-82813563D01*
X92524076Y-82395847D01*
X92624488Y-81900000D01*
X92624488Y-79900000D01*
X92537327Y-79436778D01*
X92263563Y-79011337D01*
X92246971Y-79000000D01*
X161727879Y-79000000D01*
X161891538Y-79822769D01*
X162357599Y-80520280D01*
X163055110Y-80986341D01*
X163877879Y-81150000D01*
X163962121Y-81150000D01*
X164784890Y-80986341D01*
X165190000Y-80715656D01*
X165595110Y-80986341D01*
X166417879Y-81150000D01*
X166502121Y-81150000D01*
X167324890Y-80986341D01*
X167401162Y-80935378D01*
X167604153Y-81074076D01*
X168100000Y-81174488D01*
X169900000Y-81174488D01*
X170363222Y-81087327D01*
X170788663Y-80813563D01*
X171074076Y-80395847D01*
X171174488Y-79900000D01*
X171174488Y-78100000D01*
X171087327Y-77636778D01*
X170813563Y-77211337D01*
X170395847Y-76925924D01*
X169900000Y-76825512D01*
X168100000Y-76825512D01*
X167636778Y-76912673D01*
X167400907Y-77064452D01*
X167324890Y-77013659D01*
X166502121Y-76850000D01*
X166417879Y-76850000D01*
X165595110Y-77013659D01*
X165190000Y-77284344D01*
X164784890Y-77013659D01*
X163962121Y-76850000D01*
X163877879Y-76850000D01*
X163055110Y-77013659D01*
X162357599Y-77479720D01*
X161891538Y-78177231D01*
X161727879Y-79000000D01*
X92246971Y-79000000D01*
X91845847Y-78725924D01*
X91350000Y-78625512D01*
X89350000Y-78625512D01*
X88886778Y-78712673D01*
X88461337Y-78986437D01*
X88175924Y-79404153D01*
X88075512Y-79900000D01*
X66478432Y-79900000D01*
X66657412Y-79780410D01*
X67024166Y-79231524D01*
X67379153Y-79474076D01*
X67875000Y-79574488D01*
X70075000Y-79574488D01*
X70538222Y-79487327D01*
X70963663Y-79213563D01*
X71249076Y-78795847D01*
X71349488Y-78300000D01*
X71349488Y-76455981D01*
X72799645Y-76455981D01*
X73111081Y-77209715D01*
X73687252Y-77786892D01*
X74440441Y-78099643D01*
X75255981Y-78100355D01*
X76009715Y-77788919D01*
X76525437Y-77274096D01*
X77087252Y-77836892D01*
X77840441Y-78149643D01*
X78655981Y-78150355D01*
X79409715Y-77838919D01*
X79986892Y-77262748D01*
X79999645Y-77232037D01*
X80011081Y-77259715D01*
X80587252Y-77836892D01*
X81340441Y-78149643D01*
X82155981Y-78150355D01*
X82909715Y-77838919D01*
X83486892Y-77262748D01*
X83799643Y-76509559D01*
X83799786Y-76345589D01*
X88099610Y-76345589D01*
X88441431Y-77172858D01*
X89073813Y-77806345D01*
X89900484Y-78149608D01*
X90795589Y-78150390D01*
X91622858Y-77808569D01*
X92256345Y-77176187D01*
X92599608Y-76349516D01*
X92600390Y-75454411D01*
X92258569Y-74627142D01*
X91626187Y-73993655D01*
X90799516Y-73650392D01*
X89904411Y-73649610D01*
X89077142Y-73991431D01*
X88443655Y-74623813D01*
X88100392Y-75450484D01*
X88099610Y-76345589D01*
X83799786Y-76345589D01*
X83800355Y-75694019D01*
X83488919Y-74940285D01*
X82912748Y-74363108D01*
X82159559Y-74050357D01*
X81344019Y-74049645D01*
X80590285Y-74361081D01*
X80013108Y-74937252D01*
X80000355Y-74967963D01*
X79988919Y-74940285D01*
X79412748Y-74363108D01*
X78659559Y-74050357D01*
X77844019Y-74049645D01*
X77090285Y-74361081D01*
X76574563Y-74875904D01*
X76012748Y-74313108D01*
X75259559Y-74000357D01*
X74444019Y-73999645D01*
X73690285Y-74311081D01*
X73113108Y-74887252D01*
X72800357Y-75640441D01*
X72799645Y-76455981D01*
X71349488Y-76455981D01*
X71349488Y-76100000D01*
X71262327Y-75636778D01*
X70988563Y-75211337D01*
X70570847Y-74925924D01*
X70075000Y-74825512D01*
X67875000Y-74825512D01*
X67411778Y-74912673D01*
X66986337Y-75186437D01*
X66700924Y-75604153D01*
X66600512Y-76100000D01*
X66600512Y-76181571D01*
X65862574Y-75688497D01*
X64925000Y-75502002D01*
X63987426Y-75688497D01*
X63192588Y-76219590D01*
X62661495Y-77014428D01*
X62475000Y-77952002D01*
X56432191Y-77952002D01*
X56320847Y-77875924D01*
X55825000Y-77775512D01*
X53425000Y-77775512D01*
X52961778Y-77862673D01*
X52536337Y-78136437D01*
X52250924Y-78554153D01*
X52150512Y-79050000D01*
X42324488Y-79050000D01*
X42237327Y-78586778D01*
X41963563Y-78161337D01*
X41545847Y-77875924D01*
X41050000Y-77775512D01*
X38650000Y-77775512D01*
X38186778Y-77862673D01*
X37761337Y-78136437D01*
X37475924Y-78554153D01*
X37375512Y-79050000D01*
X30913407Y-79050000D01*
X30950000Y-78866039D01*
X30950000Y-78773961D01*
X30771117Y-77874655D01*
X30261701Y-77112260D01*
X29499306Y-76602844D01*
X28600000Y-76423961D01*
X27700694Y-76602844D01*
X27325000Y-76853875D01*
X27325000Y-74379407D01*
X39069121Y-74379407D01*
X39216232Y-74643089D01*
X39988928Y-74741518D01*
X40483768Y-74643089D01*
X40630879Y-74379407D01*
X53844121Y-74379407D01*
X53991232Y-74643089D01*
X54763928Y-74741518D01*
X55258768Y-74643089D01*
X55405879Y-74379407D01*
X54625000Y-73598528D01*
X53844121Y-74379407D01*
X40630879Y-74379407D01*
X39850000Y-73598528D01*
X39069121Y-74379407D01*
X27325000Y-74379407D01*
X27325000Y-73539049D01*
X27500000Y-73574488D01*
X29700000Y-73574488D01*
X30163222Y-73487327D01*
X30588663Y-73213563D01*
X30810476Y-72888928D01*
X37858482Y-72888928D01*
X37956911Y-73383768D01*
X38220593Y-73530879D01*
X39001472Y-72750000D01*
X40698528Y-72750000D01*
X41479407Y-73530879D01*
X41743089Y-73383768D01*
X41806123Y-72888928D01*
X52633482Y-72888928D01*
X52731911Y-73383768D01*
X52995593Y-73530879D01*
X53776472Y-72750000D01*
X55473528Y-72750000D01*
X56254407Y-73530879D01*
X56518089Y-73383768D01*
X56616518Y-72611072D01*
X56518089Y-72116232D01*
X56254407Y-71969121D01*
X55473528Y-72750000D01*
X53776472Y-72750000D01*
X52995593Y-71969121D01*
X52731911Y-72116232D01*
X52633482Y-72888928D01*
X41806123Y-72888928D01*
X41841518Y-72611072D01*
X41743089Y-72116232D01*
X41479407Y-71969121D01*
X40698528Y-72750000D01*
X39001472Y-72750000D01*
X38220593Y-71969121D01*
X37956911Y-72116232D01*
X37858482Y-72888928D01*
X30810476Y-72888928D01*
X30874076Y-72795847D01*
X30974488Y-72300000D01*
X30974488Y-70948288D01*
X31204837Y-70973332D01*
X31540000Y-71040000D01*
X39114085Y-71040000D01*
X39069121Y-71120593D01*
X39850000Y-71901472D01*
X40630879Y-71120593D01*
X40585915Y-71040000D01*
X53889085Y-71040000D01*
X53844121Y-71120593D01*
X54625000Y-71901472D01*
X55405879Y-71120593D01*
X55317871Y-70962848D01*
X55791038Y-70868729D01*
X56520990Y-70380990D01*
X58651981Y-68250000D01*
X66725000Y-68250000D01*
X66725000Y-69031227D01*
X66725000Y-69031227D01*
G37*
X66725000Y-69031227D02*
X66625000Y-69533961D01*
X66625000Y-69626039D01*
X66803883Y-70525345D01*
X67313299Y-71287740D01*
X68075694Y-71797156D01*
X68975000Y-71976039D01*
X69874306Y-71797156D01*
X70636701Y-71287740D01*
X71146117Y-70525345D01*
X71325000Y-69626039D01*
X71325000Y-69533961D01*
X71225000Y-69031227D01*
X71225000Y-68250000D01*
X72827816Y-68250000D01*
X72800000Y-68389838D01*
X72800000Y-68470162D01*
X72956047Y-69254663D01*
X73400431Y-69919731D01*
X74065499Y-70364115D01*
X74850000Y-70520162D01*
X75634501Y-70364115D01*
X76299569Y-69919731D01*
X76533296Y-69569934D01*
X76800431Y-69969731D01*
X77465499Y-70414115D01*
X78250000Y-70570162D01*
X79034501Y-70414115D01*
X79699569Y-69969731D01*
X80000000Y-69520104D01*
X80300431Y-69969731D01*
X80965499Y-70414115D01*
X81750000Y-70570162D01*
X82534501Y-70414115D01*
X83199569Y-69969731D01*
X83643953Y-69304663D01*
X83800000Y-68520162D01*
X83800000Y-68439838D01*
X83762239Y-68250000D01*
X85609877Y-68250000D01*
X85465885Y-68465499D01*
X85309838Y-69250000D01*
X85465885Y-70034501D01*
X85910269Y-70699569D01*
X86575337Y-71143953D01*
X87359838Y-71300000D01*
X87440162Y-71300000D01*
X88224663Y-71143953D01*
X88889731Y-70699569D01*
X89334115Y-70034501D01*
X89490162Y-69250000D01*
X89334115Y-68465499D01*
X89190123Y-68250000D01*
X98295529Y-68250000D01*
X98050357Y-68840441D01*
X98049645Y-69655981D01*
X98361081Y-70409715D01*
X98937252Y-70986892D01*
X99690441Y-71299643D01*
X100505981Y-71300355D01*
X101259715Y-70988919D01*
X101836892Y-70412748D01*
X102149643Y-69659559D01*
X102150355Y-68844019D01*
X101904912Y-68250000D01*
X108091720Y-68250000D01*
X107950357Y-68590441D01*
X107949645Y-69405981D01*
X108261081Y-70159715D01*
X108837252Y-70736892D01*
X108860441Y-70746521D01*
X108529590Y-70967588D01*
X107998497Y-71762426D01*
X107812002Y-72700000D01*
X107998497Y-73637574D01*
X108529590Y-74432412D01*
X109324428Y-74963505D01*
X110262002Y-75150000D01*
X110357998Y-75150000D01*
X111295572Y-74963505D01*
X112090410Y-74432412D01*
X112621503Y-73637574D01*
X112807998Y-72700000D01*
X112621503Y-71762426D01*
X112090410Y-70967588D01*
X111395668Y-70503377D01*
X111736892Y-70162748D01*
X111957846Y-69630631D01*
X118575335Y-69630631D01*
X118872162Y-70074912D01*
X119369365Y-70424694D01*
X119600000Y-70316307D01*
X119600000Y-69400000D01*
X118691263Y-69400000D01*
X118575335Y-69630631D01*
X111957846Y-69630631D01*
X112049643Y-69409559D01*
X112050355Y-68594019D01*
X111908209Y-68250000D01*
X118655086Y-68250000D01*
X118575335Y-68369369D01*
X118691263Y-68600000D01*
X119600000Y-68600000D01*
X119600000Y-68250000D01*
X120400000Y-68250000D01*
X120400000Y-68600000D01*
X120800000Y-68600000D01*
X120800000Y-69400000D01*
X120400000Y-69400000D01*
X120400000Y-70316307D01*
X120630635Y-70424694D01*
X120878954Y-70250002D01*
X121558000Y-70250002D01*
X121558000Y-69952293D01*
X121890269Y-70449569D01*
X122555337Y-70893953D01*
X123339838Y-71050000D01*
X123420162Y-71050000D01*
X123813386Y-70971783D01*
X123474202Y-71310375D01*
X123100427Y-72210527D01*
X123099576Y-73185197D01*
X123471780Y-74086000D01*
X124160375Y-74775798D01*
X125060527Y-75149573D01*
X126035197Y-75150424D01*
X126936000Y-74778220D01*
X127076913Y-74637553D01*
X127595337Y-74983953D01*
X128379838Y-75140000D01*
X128460162Y-75140000D01*
X129244663Y-74983953D01*
X129909731Y-74539569D01*
X130354115Y-73874501D01*
X130510162Y-73090000D01*
X130354115Y-72305499D01*
X130170000Y-72029951D01*
X130170000Y-70875061D01*
X130590441Y-71049643D01*
X131405981Y-71050355D01*
X132125841Y-70752915D01*
X132840441Y-71049643D01*
X133655981Y-71050355D01*
X134409715Y-70738919D01*
X134986892Y-70162748D01*
X135165512Y-69732583D01*
X135165512Y-69860000D01*
X135252673Y-70323222D01*
X135526437Y-70748663D01*
X135916984Y-71015512D01*
X135240000Y-71015512D01*
X134776778Y-71102673D01*
X134351337Y-71376437D01*
X134065924Y-71794153D01*
X133965512Y-72290000D01*
X133965512Y-73890000D01*
X134052673Y-74353222D01*
X134326437Y-74778663D01*
X134744153Y-75064076D01*
X135240000Y-75164488D01*
X136840000Y-75164488D01*
X137303222Y-75077327D01*
X137728663Y-74803563D01*
X138014076Y-74385847D01*
X138114488Y-73890000D01*
X138114488Y-72600000D01*
X144825512Y-72600000D01*
X144825512Y-74400000D01*
X144912673Y-74863222D01*
X145186437Y-75288663D01*
X145604153Y-75574076D01*
X146100000Y-75674488D01*
X147900000Y-75674488D01*
X148363222Y-75587327D01*
X148599093Y-75435548D01*
X148675110Y-75486341D01*
X149497879Y-75650000D01*
X149582121Y-75650000D01*
X150404890Y-75486341D01*
X150810000Y-75215656D01*
X151215110Y-75486341D01*
X152037879Y-75650000D01*
X152122121Y-75650000D01*
X152944890Y-75486341D01*
X153642401Y-75020280D01*
X154108462Y-74322769D01*
X154272121Y-73500000D01*
X154108462Y-72677231D01*
X153642401Y-71979720D01*
X152944890Y-71513659D01*
X152122121Y-71350000D01*
X152037879Y-71350000D01*
X151215110Y-71513659D01*
X150810000Y-71784344D01*
X150404890Y-71513659D01*
X149582121Y-71350000D01*
X149497879Y-71350000D01*
X148675110Y-71513659D01*
X148598838Y-71564622D01*
X148395847Y-71425924D01*
X147900000Y-71325512D01*
X146100000Y-71325512D01*
X145636778Y-71412673D01*
X145211337Y-71686437D01*
X144925924Y-72104153D01*
X144825512Y-72600000D01*
X138114488Y-72600000D01*
X138114488Y-72290000D01*
X138027327Y-71826778D01*
X137753563Y-71401337D01*
X137363016Y-71134488D01*
X137960000Y-71134488D01*
X138423222Y-71047327D01*
X138723307Y-70854227D01*
X139338432Y-71109650D01*
X140138060Y-71110348D01*
X140877086Y-70804988D01*
X141009736Y-70672569D01*
X141139940Y-70803001D01*
X141878432Y-71109650D01*
X142678060Y-71110348D01*
X143417086Y-70804988D01*
X143983001Y-70240060D01*
X144289650Y-69501568D01*
X144290348Y-68701940D01*
X144103610Y-68250000D01*
X147629562Y-68250000D01*
X147625512Y-68270000D01*
X147625512Y-69870000D01*
X147712673Y-70333222D01*
X147986437Y-70758663D01*
X148404153Y-71044076D01*
X148900000Y-71144488D01*
X150500000Y-71144488D01*
X150963222Y-71057327D01*
X151388663Y-70783563D01*
X151674076Y-70365847D01*
X151774488Y-69870000D01*
X151774488Y-68270000D01*
X151770725Y-68250000D01*
X153495174Y-68250000D01*
X153350000Y-68979838D01*
X153350000Y-69060162D01*
X153506047Y-69844663D01*
X153950431Y-70509731D01*
X154615499Y-70954115D01*
X155400000Y-71110162D01*
X156184501Y-70954115D01*
X156849569Y-70509731D01*
X156904537Y-70427466D01*
X156979940Y-70503001D01*
X157718432Y-70809650D01*
X158518060Y-70810348D01*
X159257086Y-70504988D01*
X159389736Y-70372569D01*
X159519940Y-70503001D01*
X160258432Y-70809650D01*
X161058060Y-70810348D01*
X161679798Y-70553450D01*
X161944153Y-70734076D01*
X162440000Y-70834488D01*
X163960000Y-70834488D01*
X164423222Y-70747327D01*
X164848663Y-70473563D01*
X165063200Y-70159578D01*
X165579590Y-70932412D01*
X166374428Y-71463505D01*
X167312002Y-71650000D01*
X167407998Y-71650000D01*
X168345572Y-71463505D01*
X169140410Y-70932412D01*
X169671503Y-70137574D01*
X169857998Y-69200000D01*
X169671503Y-68262426D01*
X169663200Y-68250000D01*
X177850000Y-68250000D01*
X177850000Y-70600000D01*
X177943225Y-71068674D01*
X177755337Y-71106047D01*
X177090269Y-71550431D01*
X176645885Y-72215499D01*
X176489838Y-73000000D01*
X176645885Y-73784501D01*
X177081135Y-74435899D01*
X176670269Y-74710431D01*
X176225885Y-75375499D01*
X176069838Y-76160000D01*
X176225885Y-76944501D01*
X176670269Y-77609569D01*
X177335337Y-78053953D01*
X178119838Y-78210000D01*
X178200162Y-78210000D01*
X178984663Y-78053953D01*
X179649731Y-77609569D01*
X180094115Y-76944501D01*
X180250162Y-76160000D01*
X180094115Y-75375499D01*
X179658865Y-74724101D01*
X180069731Y-74449569D01*
X180432209Y-73907083D01*
X180762563Y-74237437D01*
X181330304Y-74616789D01*
X182000000Y-74750001D01*
X182000005Y-74750000D01*
X184290792Y-74750000D01*
X184043108Y-74997252D01*
X183730357Y-75750441D01*
X183729645Y-76565981D01*
X184041081Y-77319715D01*
X184617252Y-77896892D01*
X185370441Y-78209643D01*
X186185981Y-78210355D01*
X186939715Y-77898919D01*
X186945298Y-77893346D01*
X187365499Y-78174115D01*
X188150000Y-78330162D01*
X188934501Y-78174115D01*
X189599569Y-77729731D01*
X189621455Y-77696976D01*
X189830431Y-78009731D01*
X190495499Y-78454115D01*
X191280000Y-78610162D01*
X192064501Y-78454115D01*
X192729569Y-78009731D01*
X193173953Y-77344663D01*
X193262146Y-76901285D01*
X193330441Y-76929643D01*
X194145981Y-76930355D01*
X194899715Y-76618919D01*
X195476892Y-76042748D01*
X195789643Y-75289559D01*
X195789646Y-75285981D01*
X196689645Y-75285981D01*
X197001081Y-76039715D01*
X197577252Y-76616892D01*
X198330441Y-76929643D01*
X199145981Y-76930355D01*
X199388251Y-76830251D01*
X199458883Y-77185345D01*
X199552927Y-77326091D01*
X199485924Y-77424153D01*
X199385512Y-77920000D01*
X199385512Y-79720000D01*
X199472673Y-80183222D01*
X199623395Y-80417450D01*
X199410374Y-80930462D01*
X199409628Y-81785785D01*
X199736256Y-82576286D01*
X200340533Y-83181619D01*
X201130462Y-83509626D01*
X201985785Y-83510372D01*
X202776286Y-83183744D01*
X203381619Y-82579467D01*
X203533039Y-82214805D01*
X209299541Y-82214805D01*
X209702129Y-83189144D01*
X210446935Y-83935251D01*
X211420570Y-84339539D01*
X212474805Y-84340459D01*
X213449144Y-83937871D01*
X213465040Y-83922002D01*
X220320000Y-83922002D01*
X220320000Y-84017998D01*
X220506495Y-84955572D01*
X221037588Y-85750410D01*
X221832426Y-86281503D01*
X222770000Y-86467998D01*
X223707574Y-86281503D01*
X224502412Y-85750410D01*
X225033505Y-84955572D01*
X225220000Y-84017998D01*
X225220000Y-83922002D01*
X225169550Y-83668374D01*
X225637252Y-84136892D01*
X226390441Y-84449643D01*
X227205981Y-84450355D01*
X227959715Y-84138919D01*
X228536892Y-83562748D01*
X228849643Y-82809559D01*
X228850355Y-81994019D01*
X228546999Y-81259838D01*
X230150000Y-81259838D01*
X230150000Y-81340162D01*
X230306047Y-82124663D01*
X230750431Y-82789731D01*
X231415499Y-83234115D01*
X232200000Y-83390162D01*
X232984501Y-83234115D01*
X233649569Y-82789731D01*
X234093953Y-82124663D01*
X234250000Y-81340162D01*
X234250000Y-81259838D01*
X234093953Y-80475337D01*
X233649569Y-79810269D01*
X233450002Y-79676923D01*
X233450002Y-79589500D01*
X240042000Y-79589500D01*
X240042000Y-80150776D01*
X240157399Y-80429373D01*
X240370628Y-80642602D01*
X240649225Y-80758000D01*
X241210500Y-80758000D01*
X241400000Y-80568500D01*
X241400000Y-79400000D01*
X242600000Y-79400000D01*
X242600000Y-80568500D01*
X242789500Y-80758000D01*
X243350775Y-80758000D01*
X243629372Y-80642602D01*
X243842601Y-80429373D01*
X243958000Y-80150776D01*
X243958000Y-79589500D01*
X255442000Y-79589500D01*
X255442000Y-80150776D01*
X255557399Y-80429373D01*
X255770628Y-80642602D01*
X256049225Y-80758000D01*
X256610500Y-80758000D01*
X256800000Y-80568500D01*
X256800000Y-79400000D01*
X258000000Y-79400000D01*
X258000000Y-80568500D01*
X258189500Y-80758000D01*
X258750775Y-80758000D01*
X259029372Y-80642602D01*
X259242601Y-80429373D01*
X259358000Y-80150776D01*
X259358000Y-79589500D01*
X259168500Y-79400000D01*
X258000000Y-79400000D01*
X256800000Y-79400000D01*
X255631500Y-79400000D01*
X255442000Y-79589500D01*
X243958000Y-79589500D01*
X243768500Y-79400000D01*
X242600000Y-79400000D01*
X241400000Y-79400000D01*
X240231500Y-79400000D01*
X240042000Y-79589500D01*
X233450002Y-79589500D01*
X233450002Y-79478954D01*
X233624694Y-79230635D01*
X233516307Y-79000000D01*
X232600000Y-79000000D01*
X232600000Y-79289403D01*
X232200000Y-79209838D01*
X231800000Y-79289403D01*
X231800000Y-79000000D01*
X230883693Y-79000000D01*
X230775306Y-79230635D01*
X230949998Y-79478954D01*
X230949998Y-79676923D01*
X230750431Y-79810269D01*
X230306047Y-80475337D01*
X230150000Y-81259838D01*
X228546999Y-81259838D01*
X228538919Y-81240285D01*
X227962748Y-80663108D01*
X227209559Y-80350357D01*
X226394019Y-80349645D01*
X225640285Y-80661081D01*
X225063108Y-81237252D01*
X224750357Y-81990441D01*
X224749860Y-82559922D01*
X224502412Y-82189590D01*
X223707574Y-81658497D01*
X222770000Y-81472002D01*
X221832426Y-81658497D01*
X221037588Y-82189590D01*
X220506495Y-82984428D01*
X220320000Y-83922002D01*
X213465040Y-83922002D01*
X214195251Y-83193065D01*
X214599539Y-82219430D01*
X214600459Y-81165195D01*
X214197871Y-80190856D01*
X213453065Y-79444749D01*
X212479430Y-79040461D01*
X211425195Y-79039541D01*
X210450856Y-79442129D01*
X209704749Y-80186935D01*
X209300461Y-81160570D01*
X209299541Y-82214805D01*
X203533039Y-82214805D01*
X203709626Y-81789538D01*
X203710372Y-80934215D01*
X203496652Y-80416973D01*
X203634076Y-80215847D01*
X203734488Y-79720000D01*
X203734488Y-77969365D01*
X230775306Y-77969365D01*
X230883693Y-78200000D01*
X231800000Y-78200000D01*
X231800000Y-77291263D01*
X232600000Y-77291263D01*
X232600000Y-78200000D01*
X233516307Y-78200000D01*
X233624694Y-77969365D01*
X233274912Y-77472162D01*
X233240580Y-77449224D01*
X240042000Y-77449224D01*
X240042000Y-78010500D01*
X240231500Y-78200000D01*
X241400000Y-78200000D01*
X241400000Y-77031500D01*
X242600000Y-77031500D01*
X242600000Y-78200000D01*
X243768500Y-78200000D01*
X243958000Y-78010500D01*
X243958000Y-77449224D01*
X255442000Y-77449224D01*
X255442000Y-78010500D01*
X255631500Y-78200000D01*
X256800000Y-78200000D01*
X256800000Y-77031500D01*
X258000000Y-77031500D01*
X258000000Y-78200000D01*
X259168500Y-78200000D01*
X259358000Y-78010500D01*
X259358000Y-77449224D01*
X259242601Y-77170627D01*
X259029372Y-76957398D01*
X258750775Y-76842000D01*
X258189500Y-76842000D01*
X258000000Y-77031500D01*
X256800000Y-77031500D01*
X256610500Y-76842000D01*
X256049225Y-76842000D01*
X255770628Y-76957398D01*
X255557399Y-77170627D01*
X255442000Y-77449224D01*
X243958000Y-77449224D01*
X243842601Y-77170627D01*
X243629372Y-76957398D01*
X243350775Y-76842000D01*
X242789500Y-76842000D01*
X242600000Y-77031500D01*
X241400000Y-77031500D01*
X241210500Y-76842000D01*
X240649225Y-76842000D01*
X240370628Y-76957398D01*
X240157399Y-77170627D01*
X240042000Y-77449224D01*
X233240580Y-77449224D01*
X232830631Y-77175335D01*
X232600000Y-77291263D01*
X231800000Y-77291263D01*
X231569369Y-77175335D01*
X231125088Y-77472162D01*
X230775306Y-77969365D01*
X203734488Y-77969365D01*
X203734488Y-77920000D01*
X203647327Y-77456778D01*
X203633799Y-77435755D01*
X203801117Y-77185345D01*
X203980000Y-76286039D01*
X203980000Y-76193961D01*
X203801117Y-75294655D01*
X203291701Y-74532260D01*
X202529306Y-74022844D01*
X201630000Y-73843961D01*
X200730694Y-74022844D01*
X200631359Y-74089218D01*
X200478919Y-73720285D01*
X199902748Y-73143108D01*
X199149559Y-72830357D01*
X198334019Y-72829645D01*
X197580285Y-73141081D01*
X197003108Y-73717252D01*
X196690357Y-74470441D01*
X196689645Y-75285981D01*
X195789646Y-75285981D01*
X195790355Y-74474019D01*
X195478919Y-73720285D01*
X194902748Y-73143108D01*
X194149559Y-72830357D01*
X193334019Y-72829645D01*
X192580285Y-73141081D01*
X192003108Y-73717252D01*
X191690357Y-74470441D01*
X191690321Y-74511456D01*
X191280000Y-74429838D01*
X190495499Y-74585885D01*
X189830431Y-75030269D01*
X189808545Y-75063024D01*
X189599569Y-74750269D01*
X188934501Y-74305885D01*
X188150000Y-74149838D01*
X187900012Y-74199564D01*
X187936892Y-74162748D01*
X188249643Y-73409559D01*
X188250355Y-72594019D01*
X187938919Y-71840285D01*
X187362748Y-71263108D01*
X186609559Y-70950357D01*
X186377898Y-70950155D01*
X186719715Y-70808919D01*
X186921310Y-70607676D01*
X187350000Y-70694488D01*
X188950000Y-70694488D01*
X189413222Y-70607327D01*
X189823921Y-70343049D01*
X190117252Y-70636892D01*
X190870441Y-70949643D01*
X191685981Y-70950355D01*
X192439715Y-70638919D01*
X193016892Y-70062748D01*
X193329643Y-69309559D01*
X193330355Y-68494019D01*
X193229529Y-68250000D01*
X194132421Y-68250000D01*
X194091337Y-68276437D01*
X193805924Y-68694153D01*
X193705512Y-69190000D01*
X193705512Y-70790000D01*
X193792673Y-71253222D01*
X194066437Y-71678663D01*
X194484153Y-71964076D01*
X194980000Y-72064488D01*
X196580000Y-72064488D01*
X197043222Y-71977327D01*
X197308802Y-71806431D01*
X197870441Y-72039643D01*
X198685981Y-72040355D01*
X199439715Y-71728919D01*
X200016892Y-71152748D01*
X200117309Y-70910916D01*
X200530000Y-70994488D01*
X202730000Y-70994488D01*
X203193222Y-70907327D01*
X203618663Y-70633563D01*
X203904076Y-70215847D01*
X204004488Y-69720000D01*
X204004488Y-68250000D01*
X205533806Y-68250000D01*
X207257280Y-69973474D01*
X209564411Y-72467139D01*
X210590639Y-73212056D01*
X211823817Y-73507549D01*
X213076205Y-73308632D01*
X214157139Y-72645589D01*
X214902056Y-71619361D01*
X215197549Y-70386183D01*
X214998632Y-69133794D01*
X214456514Y-68250000D01*
X219201213Y-68250000D01*
X219409010Y-68560990D01*
X219411710Y-68562794D01*
X219413523Y-68565491D01*
X220495773Y-69641627D01*
X220691780Y-70116000D01*
X221380375Y-70805798D01*
X222280527Y-71179573D01*
X223255197Y-71180424D01*
X224156000Y-70808220D01*
X224668645Y-70296469D01*
X224721271Y-70561038D01*
X225209010Y-71290990D01*
X225938962Y-71778729D01*
X226800000Y-71950000D01*
X227628521Y-71785197D01*
X239549576Y-71785197D01*
X239921780Y-72686000D01*
X240610375Y-73375798D01*
X241510527Y-73749573D01*
X242485197Y-73750424D01*
X243386000Y-73378220D01*
X244075798Y-72689625D01*
X244449573Y-71789473D01*
X244449576Y-71785197D01*
X254949576Y-71785197D01*
X255321780Y-72686000D01*
X256010375Y-73375798D01*
X256910527Y-73749573D01*
X257885197Y-73750424D01*
X258786000Y-73378220D01*
X259475798Y-72689625D01*
X259849573Y-71789473D01*
X259850424Y-70814803D01*
X259478220Y-69914000D01*
X258789625Y-69224202D01*
X257889473Y-68850427D01*
X256914803Y-68849576D01*
X256014000Y-69221780D01*
X255324202Y-69910375D01*
X254950427Y-70810527D01*
X254949576Y-71785197D01*
X244449576Y-71785197D01*
X244450424Y-70814803D01*
X244078220Y-69914000D01*
X243389625Y-69224202D01*
X242489473Y-68850427D01*
X241514803Y-68849576D01*
X240614000Y-69221780D01*
X239924202Y-69910375D01*
X239550427Y-70810527D01*
X239549576Y-71785197D01*
X227628521Y-71785197D01*
X227661038Y-71778729D01*
X228390990Y-71290990D01*
X228878729Y-70561038D01*
X229050000Y-69700000D01*
X229050000Y-68333752D01*
X230150201Y-68369160D01*
X230149645Y-69005981D01*
X230461081Y-69759715D01*
X231037252Y-70336892D01*
X231790441Y-70649643D01*
X232605981Y-70650355D01*
X233359715Y-70338919D01*
X233936892Y-69762748D01*
X234249643Y-69009559D01*
X234250087Y-68501111D01*
X248145456Y-68948318D01*
X248740076Y-68849808D01*
X249336523Y-68762999D01*
X249364438Y-68746371D01*
X249396491Y-68741061D01*
X249908141Y-68422505D01*
X250197741Y-68250000D01*
X264675000Y-68250000D01*
X264675000Y-92020735D01*
X264460776Y-91932000D01*
X264074500Y-91932000D01*
X263885000Y-92121500D01*
X263885000Y-93115000D01*
X264310000Y-93115000D01*
X264310000Y-93965000D01*
X263885000Y-93965000D01*
X263885000Y-94056354D01*
X263501141Y-93980000D01*
X263418859Y-93980000D01*
X263035000Y-94056354D01*
X263035000Y-93965000D01*
X262041500Y-93965000D01*
X261852000Y-94154500D01*
X261852000Y-94540775D01*
X261897240Y-94649994D01*
X261478712Y-95276365D01*
X261318859Y-96080000D01*
X261478712Y-96883635D01*
X261933935Y-97564924D01*
X262585834Y-98000509D01*
X261207841Y-97999307D01*
X259737142Y-98606987D01*
X258610942Y-99731223D01*
X258000695Y-101200860D01*
X257999307Y-102792159D01*
X258606987Y-104262858D01*
X259018410Y-104675000D01*
X257307837Y-104675000D01*
X257327740Y-104661701D01*
X257837156Y-103899306D01*
X258016039Y-103000000D01*
X257837156Y-102100694D01*
X257435785Y-101500000D01*
X257837156Y-100899306D01*
X258016039Y-100000000D01*
X257837156Y-99100694D01*
X257327740Y-98338299D01*
X256565345Y-97828883D01*
X255666039Y-97650000D01*
X255573961Y-97650000D01*
X254674655Y-97828883D01*
X253912260Y-98338299D01*
X253402844Y-99100694D01*
X253223961Y-100000000D01*
X253402844Y-100899306D01*
X253804215Y-101500000D01*
X253402844Y-102100694D01*
X253223961Y-103000000D01*
X253402844Y-103899306D01*
X253912260Y-104661701D01*
X253932163Y-104675000D01*
X249596974Y-104675000D01*
X249742602Y-104529372D01*
X249858000Y-104250775D01*
X249858000Y-103739500D01*
X249668500Y-103550000D01*
X248550000Y-103550000D01*
X248550000Y-104100000D01*
X247450000Y-104100000D01*
X247450000Y-103550000D01*
X246331500Y-103550000D01*
X246142000Y-103739500D01*
X246142000Y-104250775D01*
X246257398Y-104529372D01*
X246403026Y-104675000D01*
X229734999Y-104675000D01*
X229774488Y-104480000D01*
X229774488Y-101480000D01*
X229687327Y-101016778D01*
X229413563Y-100591337D01*
X229192123Y-100440033D01*
X229388663Y-100313563D01*
X229674076Y-99895847D01*
X229774488Y-99400000D01*
X229774488Y-98900000D01*
X245625512Y-98900000D01*
X245625512Y-101100000D01*
X245712673Y-101563222D01*
X245986437Y-101988663D01*
X246142000Y-102094955D01*
X246142000Y-102260500D01*
X246331500Y-102450000D01*
X247450000Y-102450000D01*
X247450000Y-102374488D01*
X248550000Y-102374488D01*
X248550000Y-102450000D01*
X249668500Y-102450000D01*
X249858000Y-102260500D01*
X249858000Y-102097642D01*
X249988663Y-102013563D01*
X250274076Y-101595847D01*
X250374488Y-101100000D01*
X250374488Y-98900000D01*
X250287327Y-98436778D01*
X250013563Y-98011337D01*
X249595847Y-97725924D01*
X249100000Y-97625512D01*
X246900000Y-97625512D01*
X246436778Y-97712673D01*
X246011337Y-97986437D01*
X245725924Y-98404153D01*
X245625512Y-98900000D01*
X229774488Y-98900000D01*
X229774488Y-96400000D01*
X229687327Y-95936778D01*
X229413563Y-95511337D01*
X228995847Y-95225924D01*
X228500000Y-95125512D01*
X225500000Y-95125512D01*
X225036778Y-95212673D01*
X224611337Y-95486437D01*
X224325924Y-95904153D01*
X224225512Y-96400000D01*
X224225512Y-99400000D01*
X224312673Y-99863222D01*
X224586437Y-100288663D01*
X224807877Y-100439967D01*
X224611337Y-100566437D01*
X224325924Y-100984153D01*
X224225512Y-101480000D01*
X224225512Y-104480000D01*
X224262204Y-104675000D01*
X222554340Y-104675000D01*
X221920000Y-104040660D01*
X221285660Y-104675000D01*
X198274488Y-104675000D01*
X198274488Y-103969369D01*
X202395335Y-103969369D01*
X202511263Y-104200000D01*
X203420000Y-104200000D01*
X203420000Y-103348500D01*
X203484807Y-103283693D01*
X204220000Y-103283693D01*
X204220000Y-104200000D01*
X205128737Y-104200000D01*
X205244665Y-103969369D01*
X204947838Y-103525088D01*
X204710328Y-103358000D01*
X204950776Y-103358000D01*
X205229373Y-103242601D01*
X205270825Y-103201149D01*
X219628408Y-103201149D01*
X219718216Y-103652639D01*
X219993039Y-103846301D01*
X220859340Y-102980000D01*
X222980660Y-102980000D01*
X223846961Y-103846301D01*
X224121784Y-103652639D01*
X224211592Y-102758851D01*
X224121784Y-102307361D01*
X223846961Y-102113699D01*
X222980660Y-102980000D01*
X220859340Y-102980000D01*
X219993039Y-102113699D01*
X219718216Y-102307361D01*
X219628408Y-103201149D01*
X205270825Y-103201149D01*
X205442602Y-103029372D01*
X205558000Y-102750775D01*
X205558000Y-102389500D01*
X205368500Y-102200000D01*
X204400000Y-102200000D01*
X204400000Y-103168500D01*
X204420818Y-103189318D01*
X204220000Y-103283693D01*
X203484807Y-103283693D01*
X203600000Y-103168500D01*
X203600000Y-102200000D01*
X202631500Y-102200000D01*
X202442000Y-102389500D01*
X202442000Y-102750775D01*
X202557398Y-103029372D01*
X202770627Y-103242601D01*
X202973977Y-103326831D01*
X202692162Y-103525088D01*
X202395335Y-103969369D01*
X198274488Y-103969369D01*
X198274488Y-103800000D01*
X198187327Y-103336778D01*
X198002932Y-103050220D01*
X198314115Y-102584501D01*
X198470162Y-101800000D01*
X198314115Y-101015499D01*
X197901541Y-100398038D01*
X197936892Y-100362748D01*
X198157846Y-99830631D01*
X202395335Y-99830631D01*
X202692162Y-100274912D01*
X202795040Y-100347287D01*
X202770627Y-100357399D01*
X202557398Y-100570628D01*
X202442000Y-100849225D01*
X202442000Y-101210500D01*
X202631500Y-101400000D01*
X203600000Y-101400000D01*
X203600000Y-100431500D01*
X203420000Y-100251500D01*
X203420000Y-99600000D01*
X204220000Y-99600000D01*
X204220000Y-100516307D01*
X204400000Y-100600898D01*
X204400000Y-101400000D01*
X205368500Y-101400000D01*
X205558000Y-101210500D01*
X205558000Y-101053039D01*
X221053699Y-101053039D01*
X221920000Y-101919340D01*
X222786301Y-101053039D01*
X222592639Y-100778216D01*
X221698851Y-100688408D01*
X221247361Y-100778216D01*
X221053699Y-101053039D01*
X205558000Y-101053039D01*
X205558000Y-100849225D01*
X205442602Y-100570628D01*
X205229373Y-100357399D01*
X204965697Y-100248181D01*
X205244665Y-99830631D01*
X205242821Y-99826961D01*
X221053699Y-99826961D01*
X221247361Y-100101784D01*
X222141149Y-100191592D01*
X222592639Y-100101784D01*
X222786301Y-99826961D01*
X221920000Y-98960660D01*
X221053699Y-99826961D01*
X205242821Y-99826961D01*
X205128737Y-99600000D01*
X204220000Y-99600000D01*
X203420000Y-99600000D01*
X202511263Y-99600000D01*
X202395335Y-99830631D01*
X198157846Y-99830631D01*
X198249643Y-99609559D01*
X198250355Y-98794019D01*
X197938919Y-98040285D01*
X197362748Y-97463108D01*
X196609559Y-97150357D01*
X195794019Y-97149645D01*
X195040285Y-97461081D01*
X194463108Y-98037252D01*
X194150357Y-98790441D01*
X194149645Y-99605981D01*
X194461081Y-100359715D01*
X194714465Y-100613541D01*
X194445885Y-101015499D01*
X194289838Y-101800000D01*
X194445885Y-102584501D01*
X194606651Y-102825104D01*
X194511337Y-102886437D01*
X194337158Y-103141356D01*
X194249569Y-103010269D01*
X193584501Y-102565885D01*
X192800000Y-102409838D01*
X192015499Y-102565885D01*
X191350431Y-103010269D01*
X190906047Y-103675337D01*
X190800779Y-104204553D01*
X190663505Y-103514428D01*
X190132412Y-102719590D01*
X189337574Y-102188497D01*
X189250000Y-102171077D01*
X189250000Y-95800000D01*
X201609838Y-95800000D01*
X201765885Y-96584501D01*
X202210269Y-97249569D01*
X202797584Y-97642000D01*
X202569998Y-97642000D01*
X202569998Y-98307939D01*
X202395335Y-98569369D01*
X202511263Y-98800000D01*
X203420000Y-98800000D01*
X203420000Y-98400000D01*
X204220000Y-98400000D01*
X204220000Y-98800000D01*
X205128737Y-98800000D01*
X205244665Y-98569369D01*
X205070002Y-98307939D01*
X205070002Y-98121149D01*
X219628408Y-98121149D01*
X219718216Y-98572639D01*
X219993039Y-98766301D01*
X220859340Y-97900000D01*
X222980660Y-97900000D01*
X223846961Y-98766301D01*
X224121784Y-98572639D01*
X224211592Y-97678851D01*
X224121784Y-97227361D01*
X223846961Y-97033699D01*
X222980660Y-97900000D01*
X220859340Y-97900000D01*
X219993039Y-97033699D01*
X219718216Y-97227361D01*
X219628408Y-98121149D01*
X205070002Y-98121149D01*
X205070002Y-97642000D01*
X204602416Y-97642000D01*
X205189731Y-97249569D01*
X205335904Y-97030805D01*
X215734881Y-97030805D01*
X215819983Y-97278846D01*
X216430064Y-97388239D01*
X216980017Y-97278846D01*
X217065119Y-97030805D01*
X216400000Y-96365685D01*
X215734881Y-97030805D01*
X205335904Y-97030805D01*
X205634115Y-96584501D01*
X205784181Y-95830064D01*
X214811761Y-95830064D01*
X214921154Y-96380017D01*
X215169195Y-96465119D01*
X215834315Y-95800000D01*
X216965685Y-95800000D01*
X217630805Y-96465119D01*
X217878846Y-96380017D01*
X217951820Y-95973039D01*
X221053699Y-95973039D01*
X221920000Y-96839340D01*
X222786301Y-95973039D01*
X222592639Y-95698216D01*
X221698851Y-95608408D01*
X221247361Y-95698216D01*
X221053699Y-95973039D01*
X217951820Y-95973039D01*
X217988239Y-95769936D01*
X217878846Y-95219983D01*
X217630805Y-95134881D01*
X216965685Y-95800000D01*
X215834315Y-95800000D01*
X215169195Y-95134881D01*
X214921154Y-95219983D01*
X214811761Y-95830064D01*
X205784181Y-95830064D01*
X205790162Y-95800000D01*
X205634115Y-95015499D01*
X205335905Y-94569195D01*
X215734881Y-94569195D01*
X216400000Y-95234315D01*
X217065119Y-94569195D01*
X216980017Y-94321154D01*
X216369936Y-94211761D01*
X215819983Y-94321154D01*
X215734881Y-94569195D01*
X205335905Y-94569195D01*
X205189731Y-94350431D01*
X204524663Y-93906047D01*
X203740162Y-93750000D01*
X203659838Y-93750000D01*
X202875337Y-93906047D01*
X202210269Y-94350431D01*
X201765885Y-95015499D01*
X201609838Y-95800000D01*
X189250000Y-95800000D01*
X189250000Y-94099691D01*
X189786000Y-93878220D01*
X190475798Y-93189625D01*
X190816777Y-92368454D01*
X191061081Y-92959715D01*
X191637252Y-93536892D01*
X192390441Y-93849643D01*
X193205981Y-93850355D01*
X193959715Y-93538919D01*
X194536892Y-92962748D01*
X194716250Y-92530805D01*
X231534881Y-92530805D01*
X231619983Y-92778846D01*
X232230064Y-92888239D01*
X232780017Y-92778846D01*
X232865119Y-92530805D01*
X232200000Y-91865685D01*
X231534881Y-92530805D01*
X194716250Y-92530805D01*
X194849643Y-92209559D01*
X194850355Y-91394019D01*
X194823930Y-91330064D01*
X230611761Y-91330064D01*
X230721154Y-91880017D01*
X230969195Y-91965119D01*
X231634315Y-91300000D01*
X232765685Y-91300000D01*
X233430805Y-91965119D01*
X233678846Y-91880017D01*
X233788239Y-91269936D01*
X233678846Y-90719983D01*
X233430805Y-90634881D01*
X232765685Y-91300000D01*
X231634315Y-91300000D01*
X230969195Y-90634881D01*
X230721154Y-90719983D01*
X230611761Y-91330064D01*
X194823930Y-91330064D01*
X194538919Y-90640285D01*
X193968825Y-90069195D01*
X231534881Y-90069195D01*
X232200000Y-90734315D01*
X232865119Y-90069195D01*
X232780017Y-89821154D01*
X232169936Y-89711761D01*
X231619983Y-89821154D01*
X231534881Y-90069195D01*
X193968825Y-90069195D01*
X193962748Y-90063108D01*
X193209559Y-89750357D01*
X192394019Y-89749645D01*
X191640285Y-90061081D01*
X191063108Y-90637252D01*
X190816179Y-91231924D01*
X190478220Y-90414000D01*
X189789625Y-89724202D01*
X189250000Y-89500131D01*
X189250000Y-88544609D01*
X234769523Y-88544609D01*
X235187304Y-89555715D01*
X235960216Y-90329977D01*
X236466003Y-90539998D01*
X235964285Y-90747304D01*
X235190023Y-91520216D01*
X234770478Y-92530591D01*
X234769523Y-93624609D01*
X235187304Y-94635715D01*
X235960216Y-95409977D01*
X236970591Y-95829522D01*
X238064609Y-95830477D01*
X239075715Y-95412696D01*
X239849977Y-94639784D01*
X240107541Y-94019500D01*
X240342000Y-94019500D01*
X240342000Y-94730775D01*
X240457398Y-95009372D01*
X240670627Y-95222601D01*
X240949224Y-95338000D01*
X241660500Y-95338000D01*
X241850000Y-95148500D01*
X241850000Y-93830000D01*
X243350000Y-93830000D01*
X243350000Y-95148500D01*
X243539500Y-95338000D01*
X244250776Y-95338000D01*
X244529373Y-95222601D01*
X244742602Y-95009372D01*
X244750833Y-94989500D01*
X251042000Y-94989500D01*
X251042000Y-95550776D01*
X251157399Y-95829373D01*
X251370628Y-96042602D01*
X251649225Y-96158000D01*
X252210500Y-96158000D01*
X252400000Y-95968500D01*
X252400000Y-94800000D01*
X253600000Y-94800000D01*
X253600000Y-95968500D01*
X253789500Y-96158000D01*
X254350775Y-96158000D01*
X254629372Y-96042602D01*
X254842601Y-95829373D01*
X254958000Y-95550776D01*
X254958000Y-94989500D01*
X254768500Y-94800000D01*
X253600000Y-94800000D01*
X252400000Y-94800000D01*
X251231500Y-94800000D01*
X251042000Y-94989500D01*
X244750833Y-94989500D01*
X244858000Y-94730775D01*
X244858000Y-94019500D01*
X244668500Y-93830000D01*
X243350000Y-93830000D01*
X241850000Y-93830000D01*
X240531500Y-93830000D01*
X240342000Y-94019500D01*
X240107541Y-94019500D01*
X240269522Y-93629409D01*
X240270203Y-92849224D01*
X251042000Y-92849224D01*
X251042000Y-93410500D01*
X251231500Y-93600000D01*
X252400000Y-93600000D01*
X252400000Y-92431500D01*
X253600000Y-92431500D01*
X253600000Y-93600000D01*
X254768500Y-93600000D01*
X254958000Y-93410500D01*
X254958000Y-92849224D01*
X254842601Y-92570627D01*
X254811199Y-92539225D01*
X261852000Y-92539225D01*
X261852000Y-92925500D01*
X262041500Y-93115000D01*
X263035000Y-93115000D01*
X263035000Y-92121500D01*
X262845500Y-91932000D01*
X262459224Y-91932000D01*
X262180627Y-92047399D01*
X261967398Y-92260628D01*
X261852000Y-92539225D01*
X254811199Y-92539225D01*
X254629372Y-92357398D01*
X254350775Y-92242000D01*
X253789500Y-92242000D01*
X253600000Y-92431500D01*
X252400000Y-92431500D01*
X252210500Y-92242000D01*
X251649225Y-92242000D01*
X251370628Y-92357398D01*
X251157399Y-92570627D01*
X251042000Y-92849224D01*
X240270203Y-92849224D01*
X240270477Y-92535391D01*
X239852696Y-91524285D01*
X239757802Y-91429225D01*
X240342000Y-91429225D01*
X240342000Y-92140500D01*
X240531500Y-92330000D01*
X241850000Y-92330000D01*
X241850000Y-91011500D01*
X243350000Y-91011500D01*
X243350000Y-92330000D01*
X244668500Y-92330000D01*
X244858000Y-92140500D01*
X244858000Y-91429225D01*
X244742602Y-91150628D01*
X244529373Y-90937399D01*
X244250776Y-90822000D01*
X243539500Y-90822000D01*
X243350000Y-91011500D01*
X241850000Y-91011500D01*
X241660500Y-90822000D01*
X240949224Y-90822000D01*
X240670627Y-90937399D01*
X240457398Y-91150628D01*
X240342000Y-91429225D01*
X239757802Y-91429225D01*
X239079784Y-90750023D01*
X238573997Y-90540002D01*
X239075715Y-90332696D01*
X239849977Y-89559784D01*
X240107541Y-88939500D01*
X240342000Y-88939500D01*
X240342000Y-89650775D01*
X240457398Y-89929372D01*
X240670627Y-90142601D01*
X240949224Y-90258000D01*
X241660500Y-90258000D01*
X241850000Y-90068500D01*
X241850000Y-88750000D01*
X243350000Y-88750000D01*
X243350000Y-90068500D01*
X243539500Y-90258000D01*
X244250776Y-90258000D01*
X244529373Y-90142601D01*
X244742602Y-89929372D01*
X244858000Y-89650775D01*
X244858000Y-88939500D01*
X244668500Y-88750000D01*
X243350000Y-88750000D01*
X241850000Y-88750000D01*
X240531500Y-88750000D01*
X240342000Y-88939500D01*
X240107541Y-88939500D01*
X240269522Y-88549409D01*
X240270477Y-87455391D01*
X239852696Y-86444285D01*
X239757802Y-86349225D01*
X240342000Y-86349225D01*
X240342000Y-87060500D01*
X240531500Y-87250000D01*
X241850000Y-87250000D01*
X241850000Y-85931500D01*
X243350000Y-85931500D01*
X243350000Y-87250000D01*
X244668500Y-87250000D01*
X244733303Y-87185197D01*
X250549576Y-87185197D01*
X250921780Y-88086000D01*
X251610375Y-88775798D01*
X252510527Y-89149573D01*
X253485197Y-89150424D01*
X254386000Y-88778220D01*
X255075798Y-88089625D01*
X255449573Y-87189473D01*
X255450424Y-86214803D01*
X255078220Y-85314000D01*
X254389625Y-84624202D01*
X253489473Y-84250427D01*
X252514803Y-84249576D01*
X251614000Y-84621780D01*
X250924202Y-85310375D01*
X250550427Y-86210527D01*
X250549576Y-87185197D01*
X244733303Y-87185197D01*
X244858000Y-87060500D01*
X244858000Y-86349225D01*
X244742602Y-86070628D01*
X244529373Y-85857399D01*
X244250776Y-85742000D01*
X243539500Y-85742000D01*
X243350000Y-85931500D01*
X241850000Y-85931500D01*
X241660500Y-85742000D01*
X240949224Y-85742000D01*
X240670627Y-85857399D01*
X240457398Y-86070628D01*
X240342000Y-86349225D01*
X239757802Y-86349225D01*
X239079784Y-85670023D01*
X238069409Y-85250478D01*
X236975391Y-85249523D01*
X235964285Y-85667304D01*
X235190023Y-86440216D01*
X234770478Y-87450591D01*
X234769523Y-88544609D01*
X189250000Y-88544609D01*
X189250000Y-86000000D01*
X189230304Y-85902736D01*
X189174318Y-85820798D01*
X189090864Y-85767097D01*
X189000000Y-85750000D01*
X187634488Y-85750000D01*
X187634488Y-85240000D01*
X187547327Y-84776778D01*
X187273563Y-84351337D01*
X186855847Y-84065924D01*
X186360000Y-83965512D01*
X184840000Y-83965512D01*
X184376778Y-84052673D01*
X184076693Y-84245773D01*
X183461568Y-83990350D01*
X182661940Y-83989652D01*
X181922914Y-84295012D01*
X181790264Y-84427431D01*
X181660060Y-84296999D01*
X180921568Y-83990350D01*
X180121940Y-83989652D01*
X179382914Y-84295012D01*
X178816999Y-84859940D01*
X178510350Y-85598432D01*
X178510218Y-85750000D01*
X155554471Y-85750000D01*
X155799643Y-85159559D01*
X155800355Y-84344019D01*
X155488919Y-83590285D01*
X155053412Y-83154018D01*
X155209731Y-83049569D01*
X155654115Y-82384501D01*
X155810162Y-81600000D01*
X155654115Y-80815499D01*
X155209731Y-80150431D01*
X154544663Y-79706047D01*
X153760162Y-79550000D01*
X153679838Y-79550000D01*
X152895337Y-79706047D01*
X152230269Y-80150431D01*
X151785885Y-80815499D01*
X151629838Y-81600000D01*
X151785885Y-82384501D01*
X152230269Y-83049569D01*
X152422836Y-83178238D01*
X152013108Y-83587252D01*
X151700357Y-84340441D01*
X151699645Y-85155981D01*
X151945088Y-85750000D01*
X149029113Y-85750000D01*
X148909559Y-85700357D01*
X148094019Y-85699645D01*
X147972151Y-85750000D01*
X147920123Y-85750000D01*
X148064115Y-85534501D01*
X148220162Y-84750000D01*
X148064115Y-83965499D01*
X147619731Y-83300431D01*
X147427164Y-83171762D01*
X147836892Y-82762748D01*
X148149643Y-82009559D01*
X148150355Y-81194019D01*
X147838919Y-80440285D01*
X147262748Y-79863108D01*
X146509559Y-79550357D01*
X145694019Y-79549645D01*
X144940285Y-79861081D01*
X144363108Y-80437252D01*
X144050357Y-81190441D01*
X144049645Y-82005981D01*
X144361081Y-82759715D01*
X144796588Y-83195982D01*
X144640269Y-83300431D01*
X144369735Y-83705314D01*
X144370342Y-83009862D01*
X144071059Y-82285542D01*
X143517373Y-81730889D01*
X142793576Y-81430342D01*
X142009862Y-81429658D01*
X141285542Y-81728941D01*
X141130215Y-81883998D01*
X140977373Y-81730889D01*
X140253576Y-81430342D01*
X139469862Y-81429658D01*
X138745542Y-81728941D01*
X138590215Y-81883998D01*
X138437373Y-81730889D01*
X137713576Y-81430342D01*
X136929862Y-81429658D01*
X136205542Y-81728941D01*
X135650889Y-82282627D01*
X135350342Y-83006424D01*
X135349658Y-83790138D01*
X135648941Y-84514458D01*
X136202627Y-85069111D01*
X136926424Y-85369658D01*
X137710138Y-85370342D01*
X138434458Y-85071059D01*
X138589785Y-84916002D01*
X138742627Y-85069111D01*
X139466424Y-85369658D01*
X140250138Y-85370342D01*
X140974458Y-85071059D01*
X141129785Y-84916002D01*
X141282627Y-85069111D01*
X142006424Y-85369658D01*
X142790138Y-85370342D01*
X143514458Y-85071059D01*
X144069111Y-84517373D01*
X144101742Y-84438790D01*
X144039838Y-84750000D01*
X144195885Y-85534501D01*
X144339877Y-85750000D01*
X107348879Y-85750000D01*
X106912748Y-85313108D01*
X106159559Y-85000357D01*
X105344019Y-84999645D01*
X104590285Y-85311081D01*
X104150600Y-85750000D01*
X100367831Y-85750000D01*
X100000000Y-85675512D01*
X98000000Y-85675512D01*
X97604129Y-85750000D01*
X92334488Y-85750000D01*
X92334488Y-85690000D01*
X92247327Y-85226778D01*
X91973563Y-84801337D01*
X91555847Y-84515924D01*
X91060000Y-84415512D01*
X89540000Y-84415512D01*
X89076778Y-84502673D01*
X88651337Y-84776437D01*
X88365924Y-85194153D01*
X88265512Y-85690000D01*
X88265512Y-85750000D01*
X86684488Y-85750000D01*
X86684488Y-84290000D01*
X86597327Y-83826778D01*
X86323563Y-83401337D01*
X86315151Y-83395589D01*
X96749610Y-83395589D01*
X97091431Y-84222858D01*
X97723813Y-84856345D01*
X98550484Y-85199608D01*
X99445589Y-85200390D01*
X100272858Y-84858569D01*
X100906345Y-84226187D01*
X101249608Y-83399516D01*
X101250390Y-82504411D01*
X101230380Y-82455981D01*
X103699645Y-82455981D01*
X104011081Y-83209715D01*
X104587252Y-83786892D01*
X105340441Y-84099643D01*
X106155981Y-84100355D01*
X106909715Y-83788919D01*
X107486892Y-83212748D01*
X107799643Y-82459559D01*
X107800262Y-81750000D01*
X116177879Y-81750000D01*
X116341538Y-82572769D01*
X116807599Y-83270280D01*
X117505110Y-83736341D01*
X118327879Y-83900000D01*
X118412121Y-83900000D01*
X119234890Y-83736341D01*
X119640000Y-83465656D01*
X120045110Y-83736341D01*
X120867879Y-83900000D01*
X120952121Y-83900000D01*
X121774890Y-83736341D01*
X121851162Y-83685378D01*
X122054153Y-83824076D01*
X122550000Y-83924488D01*
X124350000Y-83924488D01*
X124813222Y-83837327D01*
X125238663Y-83563563D01*
X125524076Y-83145847D01*
X125624488Y-82650000D01*
X125624488Y-80850000D01*
X125537327Y-80386778D01*
X125263563Y-79961337D01*
X124845847Y-79675924D01*
X124350000Y-79575512D01*
X122550000Y-79575512D01*
X122086778Y-79662673D01*
X121850907Y-79814452D01*
X121774890Y-79763659D01*
X120952121Y-79600000D01*
X120867879Y-79600000D01*
X120045110Y-79763659D01*
X119640000Y-80034344D01*
X119234890Y-79763659D01*
X118412121Y-79600000D01*
X118327879Y-79600000D01*
X117505110Y-79763659D01*
X116807599Y-80229720D01*
X116341538Y-80927231D01*
X116177879Y-81750000D01*
X107800262Y-81750000D01*
X107800355Y-81644019D01*
X107488919Y-80890285D01*
X106912748Y-80313108D01*
X106159559Y-80000357D01*
X105344019Y-79999645D01*
X104590285Y-80311081D01*
X104013108Y-80887252D01*
X103700357Y-81640441D01*
X103699645Y-82455981D01*
X101230380Y-82455981D01*
X100908569Y-81677142D01*
X100276187Y-81043655D01*
X99449516Y-80700392D01*
X98554411Y-80699610D01*
X97727142Y-81041431D01*
X97093655Y-81673813D01*
X96750392Y-82500484D01*
X96749610Y-83395589D01*
X86315151Y-83395589D01*
X85905847Y-83115924D01*
X85410000Y-83015512D01*
X83890000Y-83015512D01*
X83426778Y-83102673D01*
X83126693Y-83295773D01*
X82511568Y-83040350D01*
X81711940Y-83039652D01*
X80972914Y-83345012D01*
X80840264Y-83477431D01*
X80710060Y-83346999D01*
X79971568Y-83040350D01*
X79171940Y-83039652D01*
X78432914Y-83345012D01*
X77866999Y-83909940D01*
X77560350Y-84648432D01*
X77559652Y-85448060D01*
X77684411Y-85750000D01*
X77386492Y-85750000D01*
X77489650Y-85501568D01*
X77490348Y-84701940D01*
X77184988Y-83962914D01*
X76620060Y-83396999D01*
X75881568Y-83090350D01*
X75081940Y-83089652D01*
X74342914Y-83395012D01*
X74210264Y-83527431D01*
X74080060Y-83396999D01*
X73341568Y-83090350D01*
X72541940Y-83089652D01*
X71920202Y-83346550D01*
X71655847Y-83165924D01*
X71160000Y-83065512D01*
X69640000Y-83065512D01*
X69176778Y-83152673D01*
X68751337Y-83426437D01*
X68465924Y-83844153D01*
X68365512Y-84340000D01*
X68365512Y-85750000D01*
X55891352Y-85750000D01*
X55349291Y-85207939D01*
X55007769Y-85549461D01*
X54686072Y-85508482D01*
X54615324Y-85522554D01*
X54300709Y-85207939D01*
X53758648Y-85750000D01*
X44502790Y-85750000D01*
X44413563Y-85611337D01*
X43995847Y-85325924D01*
X43500000Y-85225512D01*
X40500000Y-85225512D01*
X40036778Y-85312673D01*
X39611337Y-85586437D01*
X39499579Y-85750000D01*
X37918928Y-85750000D01*
X37660579Y-85491651D01*
X37402230Y-85750000D01*
X37112783Y-85750000D01*
X36698851Y-85708408D01*
X36489756Y-85750000D01*
X36437770Y-85750000D01*
X36179421Y-85491651D01*
X35921072Y-85750000D01*
X27325000Y-85750000D01*
X27325000Y-83939049D01*
X27500000Y-83974488D01*
X29700000Y-83974488D01*
X30163222Y-83887327D01*
X30588663Y-83613563D01*
X30874076Y-83195847D01*
X30974488Y-82700000D01*
X30974488Y-80500000D01*
X30887327Y-80036778D01*
X30741340Y-79809909D01*
X30771117Y-79765345D01*
X30913407Y-79050000D01*
X37375512Y-79050000D01*
X37375512Y-81450000D01*
X37462673Y-81913222D01*
X37736437Y-82338663D01*
X38154153Y-82624076D01*
X38650000Y-82724488D01*
X41050000Y-82724488D01*
X41513222Y-82637327D01*
X41938663Y-82363563D01*
X42224076Y-81945847D01*
X42324488Y-81450000D01*
X42324488Y-79050000D01*
X52150512Y-79050000D01*
X52150512Y-81450000D01*
X52237673Y-81913222D01*
X52511437Y-82338663D01*
X52929153Y-82624076D01*
X53425000Y-82724488D01*
X55825000Y-82724488D01*
X56288222Y-82637327D01*
X56713663Y-82363563D01*
X56999076Y-81945847D01*
X57099488Y-81450000D01*
X57099488Y-79050000D01*
X57012327Y-78586778D01*
X56738563Y-78161337D01*
X56432191Y-77952002D01*
X62475000Y-77952002D01*
X62475000Y-78047998D01*
X62661495Y-78985572D01*
X63192588Y-79780410D01*
X63987426Y-80311503D01*
X64925000Y-80497998D01*
X65862574Y-80311503D01*
X66478432Y-79900000D01*
X88075512Y-79900000D01*
X88075512Y-81900000D01*
X88162673Y-82363222D01*
X88436437Y-82788663D01*
X88854153Y-83074076D01*
X89350000Y-83174488D01*
X91350000Y-83174488D01*
X91813222Y-83087327D01*
X92238663Y-82813563D01*
X92524076Y-82395847D01*
X92624488Y-81900000D01*
X92624488Y-79900000D01*
X92537327Y-79436778D01*
X92263563Y-79011337D01*
X92246971Y-79000000D01*
X161727879Y-79000000D01*
X161891538Y-79822769D01*
X162357599Y-80520280D01*
X163055110Y-80986341D01*
X163877879Y-81150000D01*
X163962121Y-81150000D01*
X164784890Y-80986341D01*
X165190000Y-80715656D01*
X165595110Y-80986341D01*
X166417879Y-81150000D01*
X166502121Y-81150000D01*
X167324890Y-80986341D01*
X167401162Y-80935378D01*
X167604153Y-81074076D01*
X168100000Y-81174488D01*
X169900000Y-81174488D01*
X170363222Y-81087327D01*
X170788663Y-80813563D01*
X171074076Y-80395847D01*
X171174488Y-79900000D01*
X171174488Y-78100000D01*
X171087327Y-77636778D01*
X170813563Y-77211337D01*
X170395847Y-76925924D01*
X169900000Y-76825512D01*
X168100000Y-76825512D01*
X167636778Y-76912673D01*
X167400907Y-77064452D01*
X167324890Y-77013659D01*
X166502121Y-76850000D01*
X166417879Y-76850000D01*
X165595110Y-77013659D01*
X165190000Y-77284344D01*
X164784890Y-77013659D01*
X163962121Y-76850000D01*
X163877879Y-76850000D01*
X163055110Y-77013659D01*
X162357599Y-77479720D01*
X161891538Y-78177231D01*
X161727879Y-79000000D01*
X92246971Y-79000000D01*
X91845847Y-78725924D01*
X91350000Y-78625512D01*
X89350000Y-78625512D01*
X88886778Y-78712673D01*
X88461337Y-78986437D01*
X88175924Y-79404153D01*
X88075512Y-79900000D01*
X66478432Y-79900000D01*
X66657412Y-79780410D01*
X67024166Y-79231524D01*
X67379153Y-79474076D01*
X67875000Y-79574488D01*
X70075000Y-79574488D01*
X70538222Y-79487327D01*
X70963663Y-79213563D01*
X71249076Y-78795847D01*
X71349488Y-78300000D01*
X71349488Y-76455981D01*
X72799645Y-76455981D01*
X73111081Y-77209715D01*
X73687252Y-77786892D01*
X74440441Y-78099643D01*
X75255981Y-78100355D01*
X76009715Y-77788919D01*
X76525437Y-77274096D01*
X77087252Y-77836892D01*
X77840441Y-78149643D01*
X78655981Y-78150355D01*
X79409715Y-77838919D01*
X79986892Y-77262748D01*
X79999645Y-77232037D01*
X80011081Y-77259715D01*
X80587252Y-77836892D01*
X81340441Y-78149643D01*
X82155981Y-78150355D01*
X82909715Y-77838919D01*
X83486892Y-77262748D01*
X83799643Y-76509559D01*
X83799786Y-76345589D01*
X88099610Y-76345589D01*
X88441431Y-77172858D01*
X89073813Y-77806345D01*
X89900484Y-78149608D01*
X90795589Y-78150390D01*
X91622858Y-77808569D01*
X92256345Y-77176187D01*
X92599608Y-76349516D01*
X92600390Y-75454411D01*
X92258569Y-74627142D01*
X91626187Y-73993655D01*
X90799516Y-73650392D01*
X89904411Y-73649610D01*
X89077142Y-73991431D01*
X88443655Y-74623813D01*
X88100392Y-75450484D01*
X88099610Y-76345589D01*
X83799786Y-76345589D01*
X83800355Y-75694019D01*
X83488919Y-74940285D01*
X82912748Y-74363108D01*
X82159559Y-74050357D01*
X81344019Y-74049645D01*
X80590285Y-74361081D01*
X80013108Y-74937252D01*
X80000355Y-74967963D01*
X79988919Y-74940285D01*
X79412748Y-74363108D01*
X78659559Y-74050357D01*
X77844019Y-74049645D01*
X77090285Y-74361081D01*
X76574563Y-74875904D01*
X76012748Y-74313108D01*
X75259559Y-74000357D01*
X74444019Y-73999645D01*
X73690285Y-74311081D01*
X73113108Y-74887252D01*
X72800357Y-75640441D01*
X72799645Y-76455981D01*
X71349488Y-76455981D01*
X71349488Y-76100000D01*
X71262327Y-75636778D01*
X70988563Y-75211337D01*
X70570847Y-74925924D01*
X70075000Y-74825512D01*
X67875000Y-74825512D01*
X67411778Y-74912673D01*
X66986337Y-75186437D01*
X66700924Y-75604153D01*
X66600512Y-76100000D01*
X66600512Y-76181571D01*
X65862574Y-75688497D01*
X64925000Y-75502002D01*
X63987426Y-75688497D01*
X63192588Y-76219590D01*
X62661495Y-77014428D01*
X62475000Y-77952002D01*
X56432191Y-77952002D01*
X56320847Y-77875924D01*
X55825000Y-77775512D01*
X53425000Y-77775512D01*
X52961778Y-77862673D01*
X52536337Y-78136437D01*
X52250924Y-78554153D01*
X52150512Y-79050000D01*
X42324488Y-79050000D01*
X42237327Y-78586778D01*
X41963563Y-78161337D01*
X41545847Y-77875924D01*
X41050000Y-77775512D01*
X38650000Y-77775512D01*
X38186778Y-77862673D01*
X37761337Y-78136437D01*
X37475924Y-78554153D01*
X37375512Y-79050000D01*
X30913407Y-79050000D01*
X30950000Y-78866039D01*
X30950000Y-78773961D01*
X30771117Y-77874655D01*
X30261701Y-77112260D01*
X29499306Y-76602844D01*
X28600000Y-76423961D01*
X27700694Y-76602844D01*
X27325000Y-76853875D01*
X27325000Y-74379407D01*
X39069121Y-74379407D01*
X39216232Y-74643089D01*
X39988928Y-74741518D01*
X40483768Y-74643089D01*
X40630879Y-74379407D01*
X53844121Y-74379407D01*
X53991232Y-74643089D01*
X54763928Y-74741518D01*
X55258768Y-74643089D01*
X55405879Y-74379407D01*
X54625000Y-73598528D01*
X53844121Y-74379407D01*
X40630879Y-74379407D01*
X39850000Y-73598528D01*
X39069121Y-74379407D01*
X27325000Y-74379407D01*
X27325000Y-73539049D01*
X27500000Y-73574488D01*
X29700000Y-73574488D01*
X30163222Y-73487327D01*
X30588663Y-73213563D01*
X30810476Y-72888928D01*
X37858482Y-72888928D01*
X37956911Y-73383768D01*
X38220593Y-73530879D01*
X39001472Y-72750000D01*
X40698528Y-72750000D01*
X41479407Y-73530879D01*
X41743089Y-73383768D01*
X41806123Y-72888928D01*
X52633482Y-72888928D01*
X52731911Y-73383768D01*
X52995593Y-73530879D01*
X53776472Y-72750000D01*
X55473528Y-72750000D01*
X56254407Y-73530879D01*
X56518089Y-73383768D01*
X56616518Y-72611072D01*
X56518089Y-72116232D01*
X56254407Y-71969121D01*
X55473528Y-72750000D01*
X53776472Y-72750000D01*
X52995593Y-71969121D01*
X52731911Y-72116232D01*
X52633482Y-72888928D01*
X41806123Y-72888928D01*
X41841518Y-72611072D01*
X41743089Y-72116232D01*
X41479407Y-71969121D01*
X40698528Y-72750000D01*
X39001472Y-72750000D01*
X38220593Y-71969121D01*
X37956911Y-72116232D01*
X37858482Y-72888928D01*
X30810476Y-72888928D01*
X30874076Y-72795847D01*
X30974488Y-72300000D01*
X30974488Y-70948288D01*
X31204837Y-70973332D01*
X31540000Y-71040000D01*
X39114085Y-71040000D01*
X39069121Y-71120593D01*
X39850000Y-71901472D01*
X40630879Y-71120593D01*
X40585915Y-71040000D01*
X53889085Y-71040000D01*
X53844121Y-71120593D01*
X54625000Y-71901472D01*
X55405879Y-71120593D01*
X55317871Y-70962848D01*
X55791038Y-70868729D01*
X56520990Y-70380990D01*
X58651981Y-68250000D01*
X66725000Y-68250000D01*
X66725000Y-69031227D01*
M02*
