G04 #@! TF.FileFunction,Soldermask,Bot*
%FSLAX46Y46*%
G04 Gerber Fmt 4.6, Leading zero omitted, Abs format (unit mm)*
G04 Created by KiCad (PCBNEW 4.0.7) date 08/21/20 07:00:09*
%MOMM*%
%LPD*%
G01*
G04 APERTURE LIST*
%ADD10C,0.100000*%
%ADD11R,2.200000X2.200000*%
%ADD12O,2.200000X2.200000*%
%ADD13C,2.000000*%
%ADD14O,2.000000X2.000000*%
%ADD15R,2.400000X2.400000*%
%ADD16C,2.400000*%
%ADD17R,2.800000X2.800000*%
%ADD18C,2.800000*%
%ADD19R,2.600000X2.600000*%
%ADD20O,2.600000X2.600000*%
%ADD21C,2.200000*%
%ADD22R,2.000000X2.000000*%
%ADD23C,1.400000*%
%ADD24R,1.400000X1.400000*%
%ADD25C,1.840000*%
%ADD26O,2.800000X2.800000*%
%ADD27R,4.700000X4.900000*%
%ADD28O,2.900000X4.900000*%
%ADD29O,4.700000X4.900000*%
%ADD30C,3.200000*%
%ADD31O,3.200000X3.200000*%
%ADD32R,3.400000X3.400000*%
%ADD33C,3.400000*%
%ADD34C,4.464000*%
%ADD35C,2.600000*%
G04 APERTURE END LIST*
D10*
D11*
X151000000Y-47500000D03*
D12*
X153540000Y-47500000D03*
X156080000Y-47500000D03*
D13*
X184000000Y-69000000D03*
D14*
X176380000Y-69000000D03*
D11*
X153000000Y-73000000D03*
D12*
X150460000Y-73000000D03*
X147920000Y-73000000D03*
D13*
X145250000Y-92750000D03*
D14*
X155250000Y-92750000D03*
D13*
X130900000Y-95250000D03*
D14*
X123400000Y-95250000D03*
D13*
X96000000Y-86000000D03*
D14*
X103500000Y-86000000D03*
D13*
X90000000Y-102000000D03*
X90000000Y-97000000D03*
X182000000Y-80000000D03*
X182000000Y-85000000D03*
X85500000Y-101000000D03*
X80500000Y-101000000D03*
D15*
X54250000Y-98750000D03*
D16*
X54250000Y-93750000D03*
D15*
X54250000Y-82750000D03*
D16*
X54250000Y-87750000D03*
D13*
X116575000Y-93300000D03*
X116575000Y-88300000D03*
X152600000Y-85575000D03*
D14*
X142600000Y-85575000D03*
D13*
X48000000Y-73500000D03*
D14*
X58000000Y-73500000D03*
D17*
X81000000Y-71000000D03*
D18*
X81000000Y-78500000D03*
D13*
X92500000Y-68500000D03*
D14*
X92500000Y-78500000D03*
D17*
X209500000Y-78500000D03*
D18*
X209500000Y-71000000D03*
D13*
X221000000Y-69000000D03*
D14*
X221000000Y-79000000D03*
D19*
X87500000Y-93000000D03*
D20*
X79880000Y-93000000D03*
D11*
X186500000Y-81000000D03*
D21*
X186500000Y-83540000D03*
D22*
X142000000Y-68750000D03*
D14*
X142000000Y-61130000D03*
D22*
X155250000Y-61250000D03*
D14*
X155250000Y-68870000D03*
D19*
X47000000Y-70000000D03*
D20*
X54620000Y-70000000D03*
D19*
X198500000Y-68500000D03*
D20*
X198500000Y-76120000D03*
D23*
X115770000Y-97230000D03*
X117040000Y-98500000D03*
D24*
X114500000Y-98500000D03*
D23*
X106770000Y-100730000D03*
X108040000Y-102000000D03*
D24*
X105500000Y-102000000D03*
D23*
X103230000Y-81230000D03*
X104500000Y-79960000D03*
D24*
X104500000Y-82500000D03*
D23*
X96230000Y-81230000D03*
X97500000Y-79960000D03*
D24*
X97500000Y-82500000D03*
D23*
X105770000Y-94770000D03*
X104500000Y-96040000D03*
D24*
X104500000Y-93500000D03*
D23*
X96770000Y-94770000D03*
X95500000Y-96040000D03*
D24*
X95500000Y-93500000D03*
D23*
X182730000Y-92230000D03*
X184000000Y-90960000D03*
D24*
X184000000Y-93500000D03*
D23*
X111230000Y-90270000D03*
X109960000Y-89000000D03*
D24*
X112500000Y-89000000D03*
D23*
X113005000Y-80505000D03*
X114275000Y-79235000D03*
D24*
X114275000Y-81775000D03*
D11*
X126500000Y-86875000D03*
D12*
X126500000Y-84335000D03*
X126500000Y-81795000D03*
D11*
X161000000Y-80000000D03*
D12*
X163540000Y-80000000D03*
X166080000Y-80000000D03*
D23*
X137730000Y-72270000D03*
X136460000Y-71000000D03*
D24*
X139000000Y-71000000D03*
D23*
X161770000Y-68480000D03*
X163040000Y-69750000D03*
D24*
X160500000Y-69750000D03*
D11*
X137000000Y-47500000D03*
D12*
X139540000Y-47500000D03*
X142080000Y-47500000D03*
D13*
X123300000Y-98375000D03*
D14*
X130920000Y-98375000D03*
D13*
X134000000Y-93250000D03*
D14*
X141620000Y-93250000D03*
D13*
X101000000Y-76000000D03*
D14*
X101000000Y-68380000D03*
D13*
X96000000Y-76000000D03*
D14*
X96000000Y-68380000D03*
D13*
X103500000Y-89500000D03*
D14*
X95880000Y-89500000D03*
D13*
X134620000Y-101600000D03*
D14*
X127000000Y-101600000D03*
D13*
X134620000Y-104140000D03*
D14*
X127000000Y-104140000D03*
D13*
X154500000Y-97000000D03*
D14*
X146880000Y-97000000D03*
D13*
X154500000Y-103500000D03*
D14*
X146880000Y-103500000D03*
D25*
X141500000Y-102500000D03*
X141500000Y-99960000D03*
X141500000Y-97420000D03*
D18*
X178500000Y-91000000D03*
D26*
X178500000Y-103700000D03*
D13*
X177500000Y-79500000D03*
D14*
X177500000Y-87120000D03*
D18*
X90000000Y-87250000D03*
D26*
X77300000Y-87250000D03*
D13*
X79500000Y-97500000D03*
D14*
X87120000Y-97500000D03*
D13*
X66750000Y-93500000D03*
D14*
X74370000Y-93500000D03*
D13*
X190500000Y-91500000D03*
D14*
X190500000Y-104200000D03*
D13*
X105000000Y-76000000D03*
D14*
X105000000Y-68380000D03*
D13*
X112750000Y-76000000D03*
D14*
X112750000Y-68380000D03*
D13*
X109000000Y-76000000D03*
D14*
X109000000Y-68380000D03*
D13*
X116950000Y-85000000D03*
D14*
X109330000Y-85000000D03*
D13*
X140500000Y-75250000D03*
D14*
X140500000Y-82870000D03*
D25*
X136250000Y-84750000D03*
X136250000Y-82210000D03*
X136250000Y-79670000D03*
D13*
X152325000Y-89000000D03*
D14*
X144705000Y-89000000D03*
D13*
X173750000Y-68500000D03*
D14*
X173750000Y-76120000D03*
D13*
X128250000Y-69000000D03*
D14*
X120630000Y-69000000D03*
D18*
X193000000Y-73000000D03*
D26*
X177760000Y-73000000D03*
D13*
X133250000Y-69000000D03*
D14*
X133250000Y-61380000D03*
D13*
X186750000Y-69250000D03*
D14*
X186750000Y-61630000D03*
D18*
X28250000Y-65500000D03*
D26*
X40950000Y-65500000D03*
D18*
X260750000Y-65000000D03*
D26*
X248050000Y-65000000D03*
D13*
X58000000Y-77500000D03*
D14*
X45300000Y-77500000D03*
D27*
X40000000Y-50000000D03*
D28*
X45450000Y-50000000D03*
D29*
X50900000Y-50000000D03*
D27*
X242000000Y-50000000D03*
D28*
X247450000Y-50000000D03*
D29*
X252900000Y-50000000D03*
D27*
X65000000Y-50000000D03*
D28*
X70450000Y-50000000D03*
D29*
X75900000Y-50000000D03*
D27*
X217000000Y-50000000D03*
D28*
X222450000Y-50000000D03*
D29*
X227900000Y-50000000D03*
D27*
X90000000Y-50000000D03*
D28*
X95450000Y-50000000D03*
D29*
X100900000Y-50000000D03*
D27*
X192000000Y-50000000D03*
D28*
X197450000Y-50000000D03*
D29*
X202900000Y-50000000D03*
D27*
X115000000Y-50000000D03*
D28*
X120450000Y-50000000D03*
D29*
X125900000Y-50000000D03*
D27*
X167000000Y-50000000D03*
D28*
X172450000Y-50000000D03*
D29*
X177900000Y-50000000D03*
D30*
X29000000Y-59000000D03*
D31*
X49320000Y-59000000D03*
D30*
X264000000Y-59000000D03*
D31*
X243680000Y-59000000D03*
D30*
X55000000Y-59000000D03*
D31*
X75320000Y-59000000D03*
D30*
X236000000Y-59000000D03*
D31*
X215680000Y-59000000D03*
D30*
X82000000Y-59000000D03*
D31*
X102320000Y-59000000D03*
D30*
X210000000Y-59000000D03*
D31*
X189680000Y-59000000D03*
D30*
X109000000Y-59000000D03*
D31*
X129320000Y-59000000D03*
D30*
X184000000Y-59000000D03*
D31*
X163680000Y-59000000D03*
D32*
X247750000Y-74500000D03*
D33*
X252830000Y-74500000D03*
D32*
X231000000Y-74750000D03*
D33*
X236080000Y-74750000D03*
D32*
X64000000Y-71000000D03*
D33*
X69080000Y-71000000D03*
D34*
X263000000Y-103000000D03*
X263000000Y-46000000D03*
X29000000Y-103000000D03*
X29000000Y-46000000D03*
D32*
X163500000Y-101750000D03*
D33*
X168580000Y-101750000D03*
D35*
X163460000Y-93290000D03*
X163460000Y-88210000D03*
X168540000Y-88210000D03*
X168540000Y-93290000D03*
D16*
X166000000Y-90750000D03*
D17*
X35750000Y-75000000D03*
D18*
X35750000Y-82500000D03*
D17*
X39500000Y-90500000D03*
D18*
X39500000Y-98000000D03*
D17*
X220000000Y-89500000D03*
D18*
X212500000Y-89500000D03*
D17*
X197250000Y-89500000D03*
D18*
X204750000Y-89500000D03*
X132500000Y-73500000D03*
D26*
X117260000Y-73500000D03*
M02*
