M48
;DRILL file {KiCad 4.0.7} date 03/06/22 22:14:18
;FORMAT={-:-/ absolute / inch / decimal}
FMAT,2
INCH,TZ
T1C0.031
T2C0.035
T3C0.039
T4C0.043
T5C0.047
T6C0.055
T7C0.059
T8C0.060
T9C0.067
T10C0.120
%
G90
G05
M72
T1
X2.6732Y-2.7246
X2.6732Y-3.0246
X2.7508Y-3.6201
X2.7571Y-3.7996
X2.7571Y-4.0949
X2.7717Y-3.3504
X2.8346Y-2.7236
X2.8346Y-3.0236
X2.8508Y-3.6201
X2.8717Y-3.3504
X2.9508Y-3.6201
X2.9663Y-2.7175
X2.9717Y-3.3504
X3.0118Y-3.7996
X3.0118Y-4.0996
X3.0663Y-2.7175
X3.1327Y-3.3484
X3.1366Y-3.622
X3.1663Y-2.7175
X3.2327Y-3.3484
X3.2366Y-3.622
X3.2835Y-2.6951
X3.2835Y-2.9951
X3.3142Y-3.7697
X3.3142Y-3.9665
X3.3327Y-3.3484
X3.3366Y-3.622
X3.4409Y-2.7264
X3.5551Y-3.4035
X3.5551Y-3.5035
X3.5551Y-3.6035
X3.8327Y-3.6142
X3.8327Y-4.0079
X3.9409Y-2.7264
X4.0945Y-3.8189
X4.0945Y-4.1189
X4.1496Y-3.5354
X4.1634Y-3.2303
X4.1634Y-3.4272
X4.2283Y-3.8189
X4.2283Y-4.1189
X4.3307Y-2.7165
X4.3465Y-3.5354
X4.3543Y-3.9213
X4.3543Y-4.1181
X4.5984Y-3.8858
X4.5992Y-4.0512
X4.6984Y-3.8858
X4.6992Y-4.0512
X4.7244Y-2.7165
X4.7984Y-3.8858
X4.7992Y-4.0512
X4.8575Y-2.7165
X4.9646Y-3.8543
X4.9756Y-3.9843
X4.9756Y-4.1102
X5.0559Y-2.8776
X5.1417Y-3.5827
X5.1575Y-2.7165
X5.1614Y-3.8543
X5.2461Y-2.4165
X5.2461Y-2.7165
X5.252Y-3.4646
X5.2756Y-3.9843
X5.2756Y-4.1102
X5.3559Y-2.8776
X5.4016Y-2.7205
X5.4063Y-3.2835
X5.439Y-2.1181
X5.439Y-2.4181
X5.4417Y-3.5827
X5.4488Y-3.4646
X5.4724Y-3.8787
X5.4724Y-3.9787
X5.4724Y-4.0787
X5.5016Y-2.7205
X5.5063Y-3.2835
X5.5433Y-3.5827
X5.5606Y-2.1165
X5.5606Y-2.4165
X5.6016Y-2.7205
X5.6063Y-3.2835
X5.6606Y-2.1165
X5.6606Y-2.4165
X5.6921Y-3.9843
X5.6921Y-4.1102
X5.6929Y-3.8504
X5.752Y-3.2126
X5.7531Y-3.3366
X5.7606Y-2.1165
X5.7606Y-2.4165
X5.8465Y-3.4547
X5.8705Y-2.3087
X5.8937Y-2.4193
X5.8937Y-2.7193
X5.937Y-3.5827
X5.9921Y-3.9843
X5.9921Y-4.1102
X5.9929Y-3.8504
X6.0433Y-3.4547
X6.052Y-3.2126
X6.0531Y-3.3366
X6.1024Y-3.8268
X6.1024Y-4.1268
X6.1181Y-2.4173
X6.1181Y-2.7173
X6.2252Y-2.7087
X6.2642Y-2.3087
X6.3252Y-2.7087
X6.4252Y-2.7087
X7.0142Y-2.9984
X7.0307Y-2.874
X7.1071Y-3.3858
X7.2071Y-3.3858
X7.3055Y-2.4193
X7.3055Y-2.7193
X7.3071Y-3.3858
X7.3142Y-2.9984
X7.3307Y-2.874
X7.4075Y-2.7016
X7.4075Y-3.0016
X7.5307Y-2.7126
X7.5307Y-3.0126
X7.5906Y-3.6142
X7.5906Y-4.1142
X7.6276Y-2.948
X7.7079Y-2.7555
X7.7244Y-3.9055
X7.7244Y-4.1181
X7.7315Y-4.0079
X7.8063Y-2.7555
X7.8244Y-2.948
X8.0197Y-3.7717
X8.0244Y-3.9055
X8.0244Y-4.1181
X8.0315Y-4.0079
X8.5197Y-3.7717
X8.9291Y-2.7441
X8.9291Y-3.2441
X9.1417Y-2.7008
X9.1417Y-3.0945
X9.1417Y-3.2008
X9.1417Y-3.5945
T2
X7.9354Y-3.1031
X7.9354Y-3.2031
T3
X1.1327Y-3.7051
X1.1327Y-3.8051
X3.5571Y-2.9882
X3.5571Y-3.185
X3.8976Y-3.2657
X3.8976Y-3.4626
X4.6602Y-3.2185
X4.7602Y-3.2185
X4.8602Y-3.2185
X5.3937Y-1.8701
X5.4937Y-1.8701
X5.5937Y-1.8701
X5.7874Y-2.8937
X5.8874Y-2.8937
X5.9449Y-1.8701
X5.9874Y-2.8937
X6.0449Y-1.8701
X6.1449Y-1.8701
X6.4535Y-3.1102
X6.5535Y-3.1102
X6.6535Y-3.1102
X10.3724Y-3.6827
X10.3724Y-3.7827
T4
X1.126Y-2.8031
X1.126Y-3.1031
X1.126Y-3.2126
X1.126Y-3.5126
X2.0937Y-3.9555
X2.3937Y-3.9555
X2.5217Y-2.7531
X2.5217Y-3.0531
X6.2441Y-3.5906
X6.8346Y-3.5906
X7.9382Y-2.7016
X7.9382Y-3.0016
X9.7638Y-3.937
X9.7638Y-4.0551
X10.0638Y-3.937
X10.0638Y-4.0551
T5
X1.1083Y-2.5965
X1.5689Y-2.8642
X1.5689Y-3.1594
X1.5752Y-2.1772
X1.6083Y-2.5965
X2.1506Y-2.8642
X2.1506Y-3.1594
X2.1585Y-3.4449
X2.1585Y-3.7402
X2.1752Y-2.1772
X2.5433Y-3.4026
X2.5433Y-3.9026
X2.5575Y-2.1752
X3.1575Y-2.1752
X3.6244Y-2.1791
X4.2244Y-2.1791
X4.3429Y-2.8622
X4.5319Y-2.187
X4.9429Y-2.8622
X5.1319Y-2.187
X5.9744Y-2.1587
X6.5744Y-2.1587
X6.589Y-2.7244
X6.9587Y-2.1752
X7.189Y-2.7244
X7.4173Y-3.6142
X7.4173Y-4.1142
X7.5587Y-2.1752
X7.9409Y-2.1673
X8.5409Y-2.1673
X8.7705Y-2.7059
X8.7705Y-3.3059
X8.9252Y-2.1654
X9.5252Y-2.1654
X9.5276Y-2.8071
X9.5276Y-3.1024
X9.7736Y-2.5866
X9.9606Y-3.4134
X9.9606Y-3.7087
X10.1339Y-2.8071
X10.1339Y-3.1024
X10.2736Y-2.5866
T6
X1.0906Y-2.3878
X1.8906Y-2.3878
X2.1673Y-2.3898
X2.9673Y-2.3898
X3.2382Y-2.3878
X4.0382Y-2.3878
X4.2972Y-2.3898
X5.0972Y-2.3898
X6.3772Y-2.3819
X7.1772Y-2.3819
X7.4894Y-2.3799
X8.2894Y-2.3799
X8.3445Y-2.7661
X8.3445Y-3.2161
X8.5445Y-2.3799
X9.3445Y-2.3799
X9.5917Y-2.378
X10.3917Y-2.378
T7
X1.5748Y-1.8583
X1.7894Y-1.8583
X2.0039Y-1.8583
X2.5591Y-1.8583
X2.7736Y-1.8583
X2.9882Y-1.8583
X3.5433Y-1.8583
X3.7579Y-1.8583
X3.9724Y-1.8583
X4.5276Y-1.8583
X4.7421Y-1.8583
X4.9567Y-1.8583
X6.4339Y-3.9579
X6.5748Y-1.8583
X6.7894Y-1.8583
X7.0039Y-1.8583
X7.5591Y-1.8583
X7.7736Y-1.8583
X7.9882Y-1.8583
X8.5433Y-1.8583
X8.7579Y-1.8583
X8.9724Y-1.8583
X9.5276Y-1.8583
X9.7421Y-1.8583
X9.9567Y-1.8583
T8
X1.4535Y-3.4646
X1.4535Y-3.6646
X1.6535Y-3.4646
X1.6535Y-3.6646
X7.0079Y-3.937
X7.2079Y-3.937
X8.737Y-3.8543
X8.737Y-4.0543
X8.937Y-3.8543
X8.937Y-4.0543
X9.3512Y-3.4646
X9.3512Y-3.6646
X9.5512Y-3.4646
X9.5512Y-3.6646
T9
X6.3339Y-3.8579
X6.3339Y-4.0579
X6.5339Y-3.8579
X6.5339Y-4.0579
T10
X1.1811Y-1.8504
X1.1811Y-4.0157
X10.315Y-1.8504
X10.315Y-4.0157
T0
M30
