G04 #@! TF.FileFunction,Soldermask,Top*
%FSLAX46Y46*%
G04 Gerber Fmt 4.6, Leading zero omitted, Abs format (unit mm)*
G04 Created by KiCad (PCBNEW 4.0.7) date 09/07/20 08:53:50*
%MOMM*%
%LPD*%
G01*
G04 APERTURE LIST*
%ADD10C,0.100000*%
%ADD11C,2.000000*%
%ADD12O,2.000000X2.000000*%
%ADD13R,2.400000X2.400000*%
%ADD14C,2.400000*%
%ADD15R,2.800000X2.800000*%
%ADD16C,2.800000*%
%ADD17R,2.600000X2.600000*%
%ADD18O,2.600000X2.600000*%
%ADD19R,2.200000X2.200000*%
%ADD20C,2.200000*%
%ADD21R,2.000000X2.000000*%
%ADD22C,1.400000*%
%ADD23R,1.400000X1.400000*%
%ADD24C,1.840000*%
%ADD25O,2.800000X2.800000*%
%ADD26R,4.700000X5.400000*%
%ADD27R,3.400000X5.400000*%
%ADD28R,4.700000X4.900000*%
%ADD29O,2.900000X4.900000*%
%ADD30O,4.700000X4.900000*%
%ADD31C,3.200000*%
%ADD32O,3.200000X3.200000*%
%ADD33R,3.400000X3.400000*%
%ADD34C,3.400000*%
%ADD35C,5.900000*%
%ADD36C,4.464000*%
%ADD37C,2.600000*%
%ADD38O,2.200000X2.200000*%
G04 APERTURE END LIST*
D10*
D11*
X184000000Y-69000000D03*
D12*
X176380000Y-69000000D03*
D11*
X130900000Y-95250000D03*
D12*
X123400000Y-95250000D03*
D11*
X96000000Y-86000000D03*
D12*
X103500000Y-86000000D03*
D11*
X90000000Y-102000000D03*
X90000000Y-97000000D03*
X182000000Y-80000000D03*
X182000000Y-85000000D03*
X85500000Y-101000000D03*
X80500000Y-101000000D03*
D13*
X66750000Y-96000000D03*
D14*
X66750000Y-91000000D03*
D13*
X66750000Y-79750000D03*
D14*
X66750000Y-84750000D03*
D11*
X116575000Y-93300000D03*
X116575000Y-88300000D03*
X155000000Y-87000000D03*
D12*
X145000000Y-87000000D03*
D11*
X68000000Y-70000000D03*
D12*
X78000000Y-70000000D03*
D15*
X50750000Y-75000000D03*
D16*
X50750000Y-82500000D03*
D11*
X92500000Y-68500000D03*
D12*
X92500000Y-78500000D03*
D15*
X209500000Y-78500000D03*
D16*
X209500000Y-71000000D03*
D11*
X221000000Y-69000000D03*
D12*
X221000000Y-79000000D03*
D17*
X75500000Y-98000000D03*
D18*
X75500000Y-90380000D03*
D19*
X186500000Y-81000000D03*
D20*
X186500000Y-83540000D03*
D21*
X142000000Y-68750000D03*
D12*
X142000000Y-61130000D03*
D21*
X155250000Y-61250000D03*
D12*
X155250000Y-68870000D03*
D17*
X56750000Y-69750000D03*
D18*
X64370000Y-69750000D03*
D17*
X198500000Y-68500000D03*
D18*
X198500000Y-76120000D03*
D22*
X115770000Y-97230000D03*
X117040000Y-98500000D03*
D23*
X114500000Y-98500000D03*
D22*
X106770000Y-100730000D03*
X108040000Y-102000000D03*
D23*
X105500000Y-102000000D03*
D22*
X103230000Y-81230000D03*
X104500000Y-79960000D03*
D23*
X104500000Y-82500000D03*
D22*
X96230000Y-81230000D03*
X97500000Y-79960000D03*
D23*
X97500000Y-82500000D03*
D22*
X105770000Y-94770000D03*
X104500000Y-96040000D03*
D23*
X104500000Y-93500000D03*
D22*
X96770000Y-94770000D03*
X95500000Y-96040000D03*
D23*
X95500000Y-93500000D03*
D22*
X182730000Y-92230000D03*
X184000000Y-90960000D03*
D23*
X184000000Y-93500000D03*
D22*
X111770000Y-91020000D03*
X110500000Y-92290000D03*
D23*
X110500000Y-89750000D03*
D22*
X113005000Y-80505000D03*
X114275000Y-79235000D03*
D23*
X114275000Y-81775000D03*
D22*
X137730000Y-72270000D03*
X136460000Y-71000000D03*
D23*
X139000000Y-71000000D03*
D22*
X161770000Y-68480000D03*
X163040000Y-69750000D03*
D23*
X160500000Y-69750000D03*
D11*
X123300000Y-98375000D03*
D12*
X130920000Y-98375000D03*
D11*
X136250000Y-98750000D03*
D12*
X136250000Y-91130000D03*
D11*
X101000000Y-76000000D03*
D12*
X101000000Y-68380000D03*
D11*
X96000000Y-76000000D03*
D12*
X96000000Y-68380000D03*
D11*
X103500000Y-89500000D03*
D12*
X95880000Y-89500000D03*
D11*
X134620000Y-101600000D03*
D12*
X127000000Y-101600000D03*
D11*
X134620000Y-104140000D03*
D12*
X127000000Y-104140000D03*
D11*
X154500000Y-99750000D03*
D12*
X146880000Y-99750000D03*
D11*
X154500000Y-103500000D03*
D12*
X146880000Y-103500000D03*
D24*
X142000000Y-103000000D03*
X142000000Y-100460000D03*
X142000000Y-97920000D03*
D16*
X178500000Y-91000000D03*
D25*
X178500000Y-103700000D03*
D11*
X177500000Y-79500000D03*
D12*
X177500000Y-87120000D03*
D16*
X75250000Y-101750000D03*
D25*
X62550000Y-101750000D03*
D11*
X79500000Y-97500000D03*
D12*
X87120000Y-97500000D03*
D11*
X79500000Y-94250000D03*
D12*
X87120000Y-94250000D03*
D11*
X190500000Y-91500000D03*
D12*
X190500000Y-104200000D03*
D11*
X105000000Y-76000000D03*
D12*
X105000000Y-68380000D03*
D11*
X112750000Y-76000000D03*
D12*
X112750000Y-68380000D03*
D11*
X109000000Y-76000000D03*
D12*
X109000000Y-68380000D03*
D11*
X116950000Y-85000000D03*
D12*
X109330000Y-85000000D03*
D11*
X142000000Y-79500000D03*
D12*
X142000000Y-87120000D03*
D24*
X137500000Y-86000000D03*
X137500000Y-83460000D03*
X137500000Y-80920000D03*
D11*
X153000000Y-83000000D03*
D12*
X145380000Y-83000000D03*
D11*
X173750000Y-68500000D03*
D12*
X173750000Y-76120000D03*
D11*
X128250000Y-69000000D03*
D12*
X120630000Y-69000000D03*
D16*
X193000000Y-73000000D03*
D25*
X177760000Y-73000000D03*
D11*
X133250000Y-69000000D03*
D12*
X133250000Y-61380000D03*
D11*
X186750000Y-69250000D03*
D12*
X186750000Y-61630000D03*
D16*
X28250000Y-65500000D03*
D25*
X40950000Y-65500000D03*
D16*
X260750000Y-65000000D03*
D25*
X248050000Y-65000000D03*
D11*
X78250000Y-73750000D03*
D12*
X65550000Y-73750000D03*
D26*
X50968000Y-45428000D03*
D27*
X45588000Y-45428000D03*
D28*
X40000000Y-50000000D03*
D29*
X45450000Y-50000000D03*
D30*
X50900000Y-50000000D03*
D26*
X40000000Y-45428000D03*
X252968000Y-45428000D03*
D27*
X247588000Y-45428000D03*
D28*
X242000000Y-50000000D03*
D29*
X247450000Y-50000000D03*
D30*
X252900000Y-50000000D03*
D26*
X242000000Y-45428000D03*
X75968000Y-45428000D03*
D27*
X70588000Y-45428000D03*
D28*
X65000000Y-50000000D03*
D29*
X70450000Y-50000000D03*
D30*
X75900000Y-50000000D03*
D26*
X65000000Y-45428000D03*
X227968000Y-45428000D03*
D27*
X222588000Y-45428000D03*
D28*
X217000000Y-50000000D03*
D29*
X222450000Y-50000000D03*
D30*
X227900000Y-50000000D03*
D26*
X217000000Y-45428000D03*
X100968000Y-45428000D03*
D27*
X95588000Y-45428000D03*
D28*
X90000000Y-50000000D03*
D29*
X95450000Y-50000000D03*
D30*
X100900000Y-50000000D03*
D26*
X90000000Y-45428000D03*
X202968000Y-45428000D03*
D27*
X197588000Y-45428000D03*
D28*
X192000000Y-50000000D03*
D29*
X197450000Y-50000000D03*
D30*
X202900000Y-50000000D03*
D26*
X192000000Y-45428000D03*
X125968000Y-45428000D03*
D27*
X120588000Y-45428000D03*
D28*
X115000000Y-50000000D03*
D29*
X120450000Y-50000000D03*
D30*
X125900000Y-50000000D03*
D26*
X115000000Y-45428000D03*
X177968000Y-45428000D03*
D27*
X172588000Y-45428000D03*
D28*
X167000000Y-50000000D03*
D29*
X172450000Y-50000000D03*
D30*
X177900000Y-50000000D03*
D26*
X167000000Y-45428000D03*
D31*
X29000000Y-59000000D03*
D32*
X49320000Y-59000000D03*
D31*
X264000000Y-59000000D03*
D32*
X243680000Y-59000000D03*
D31*
X55000000Y-59000000D03*
D32*
X75320000Y-59000000D03*
D31*
X236000000Y-59000000D03*
D32*
X215680000Y-59000000D03*
D31*
X82000000Y-59000000D03*
D32*
X102320000Y-59000000D03*
D31*
X210000000Y-59000000D03*
D32*
X189680000Y-59000000D03*
D31*
X109000000Y-59000000D03*
D32*
X129320000Y-59000000D03*
D31*
X184000000Y-59000000D03*
D32*
X163680000Y-59000000D03*
D33*
X245500000Y-101000000D03*
D34*
X250580000Y-101000000D03*
D33*
X229500000Y-74500000D03*
D34*
X234580000Y-74500000D03*
D33*
X82500000Y-71750000D03*
D34*
X87580000Y-71750000D03*
D35*
X262000000Y-102000000D03*
D36*
X262000000Y-47000000D03*
D35*
X30000000Y-102000000D03*
D36*
X30000000Y-47000000D03*
D33*
X163500000Y-101750000D03*
D34*
X168580000Y-101750000D03*
D37*
X163460000Y-93290000D03*
X163460000Y-88210000D03*
X168540000Y-88210000D03*
X168540000Y-93290000D03*
D14*
X166000000Y-90750000D03*
D15*
X35750000Y-75000000D03*
D16*
X35750000Y-82500000D03*
D15*
X42500000Y-90250000D03*
D16*
X42500000Y-97750000D03*
D15*
X220000000Y-89500000D03*
D16*
X212500000Y-89500000D03*
D15*
X197250000Y-89500000D03*
D16*
X204750000Y-89500000D03*
X132500000Y-73500000D03*
D25*
X117260000Y-73500000D03*
D11*
X262000000Y-92000000D03*
X262000000Y-97000000D03*
X30000000Y-92000000D03*
X30000000Y-97000000D03*
D37*
X139500000Y-93000000D03*
X154500000Y-93000000D03*
D19*
X126500000Y-82000000D03*
D38*
X126500000Y-84540000D03*
X126500000Y-87080000D03*
D19*
X147000000Y-73500000D03*
D38*
X149540000Y-73500000D03*
X152080000Y-73500000D03*
D19*
X166000000Y-77000000D03*
D38*
X163460000Y-77000000D03*
X160920000Y-77000000D03*
D19*
X137000000Y-47500000D03*
D38*
X139540000Y-47500000D03*
X142080000Y-47500000D03*
D19*
X151000000Y-47500000D03*
D38*
X153540000Y-47500000D03*
X156080000Y-47500000D03*
D31*
X261000000Y-78000000D03*
X249570000Y-78000000D03*
D16*
X241000000Y-71000000D03*
D25*
X241000000Y-86240000D03*
M02*
