G04 #@! TF.FileFunction,Copper,L2,Bot,Signal*
%FSLAX46Y46*%
G04 Gerber Fmt 4.6, Leading zero omitted, Abs format (unit mm)*
G04 Created by KiCad (PCBNEW 4.0.7) date 08/24/20 20:28:34*
%MOMM*%
%LPD*%
G01*
G04 APERTURE LIST*
%ADD10C,0.100000*%
%ADD11R,1.800000X1.800000*%
%ADD12O,1.800000X1.800000*%
%ADD13C,1.600000*%
%ADD14O,1.600000X1.600000*%
%ADD15R,2.000000X2.000000*%
%ADD16C,2.000000*%
%ADD17R,2.400000X2.400000*%
%ADD18C,2.400000*%
%ADD19R,2.200000X2.200000*%
%ADD20O,2.200000X2.200000*%
%ADD21C,1.800000*%
%ADD22R,1.600000X1.600000*%
%ADD23C,1.000000*%
%ADD24R,1.000000X1.000000*%
%ADD25C,1.440000*%
%ADD26O,2.400000X2.400000*%
%ADD27R,4.300000X4.500000*%
%ADD28O,2.500000X4.500000*%
%ADD29O,4.300000X4.500000*%
%ADD30C,2.800000*%
%ADD31O,2.800000X2.800000*%
%ADD32R,3.000000X3.000000*%
%ADD33C,3.000000*%
%ADD34C,5.500000*%
%ADD35C,4.064000*%
%ADD36C,2.200000*%
%ADD37C,0.500000*%
%ADD38C,4.000000*%
%ADD39C,2.000000*%
G04 APERTURE END LIST*
D10*
D11*
X151000000Y-47500000D03*
D12*
X153540000Y-47500000D03*
X156080000Y-47500000D03*
D13*
X184000000Y-69000000D03*
D14*
X176380000Y-69000000D03*
D11*
X153000000Y-73000000D03*
D12*
X150460000Y-73000000D03*
X147920000Y-73000000D03*
D13*
X130900000Y-95250000D03*
D14*
X123400000Y-95250000D03*
D13*
X96000000Y-86000000D03*
D14*
X103500000Y-86000000D03*
D13*
X90000000Y-102000000D03*
X90000000Y-97000000D03*
X182000000Y-80000000D03*
X182000000Y-85000000D03*
X85500000Y-101000000D03*
X80500000Y-101000000D03*
D15*
X66750000Y-96000000D03*
D16*
X66750000Y-91000000D03*
D15*
X66750000Y-79750000D03*
D16*
X66750000Y-84750000D03*
D13*
X116575000Y-93300000D03*
X116575000Y-88300000D03*
X152600000Y-85575000D03*
D14*
X142600000Y-85575000D03*
D13*
X68000000Y-70000000D03*
D14*
X78000000Y-70000000D03*
D17*
X50750000Y-75000000D03*
D18*
X50750000Y-82500000D03*
D13*
X92500000Y-68500000D03*
D14*
X92500000Y-78500000D03*
D17*
X209500000Y-78500000D03*
D18*
X209500000Y-71000000D03*
D13*
X221000000Y-69000000D03*
D14*
X221000000Y-79000000D03*
D19*
X75500000Y-98000000D03*
D20*
X75500000Y-90380000D03*
D11*
X186500000Y-81000000D03*
D21*
X186500000Y-83540000D03*
D22*
X142000000Y-68750000D03*
D14*
X142000000Y-61130000D03*
D22*
X155250000Y-61250000D03*
D14*
X155250000Y-68870000D03*
D19*
X56750000Y-69750000D03*
D20*
X64370000Y-69750000D03*
D19*
X198500000Y-68500000D03*
D20*
X198500000Y-76120000D03*
D23*
X115770000Y-97230000D03*
X117040000Y-98500000D03*
D24*
X114500000Y-98500000D03*
D23*
X106770000Y-100730000D03*
X108040000Y-102000000D03*
D24*
X105500000Y-102000000D03*
D23*
X103230000Y-81230000D03*
X104500000Y-79960000D03*
D24*
X104500000Y-82500000D03*
D23*
X96230000Y-81230000D03*
X97500000Y-79960000D03*
D24*
X97500000Y-82500000D03*
D23*
X105770000Y-94770000D03*
X104500000Y-96040000D03*
D24*
X104500000Y-93500000D03*
D23*
X96770000Y-94770000D03*
X95500000Y-96040000D03*
D24*
X95500000Y-93500000D03*
D23*
X182730000Y-92230000D03*
X184000000Y-90960000D03*
D24*
X184000000Y-93500000D03*
D23*
X111770000Y-91020000D03*
X110500000Y-92290000D03*
D24*
X110500000Y-89750000D03*
D23*
X113005000Y-80505000D03*
X114275000Y-79235000D03*
D24*
X114275000Y-81775000D03*
D11*
X126500000Y-86875000D03*
D12*
X126500000Y-84335000D03*
X126500000Y-81795000D03*
D11*
X161000000Y-80000000D03*
D12*
X163540000Y-80000000D03*
X166080000Y-80000000D03*
D23*
X137730000Y-72270000D03*
X136460000Y-71000000D03*
D24*
X139000000Y-71000000D03*
D23*
X161770000Y-68480000D03*
X163040000Y-69750000D03*
D24*
X160500000Y-69750000D03*
D11*
X137000000Y-47500000D03*
D12*
X139540000Y-47500000D03*
X142080000Y-47500000D03*
D13*
X123300000Y-98375000D03*
D14*
X130920000Y-98375000D03*
D13*
X136250000Y-98750000D03*
D14*
X136250000Y-91130000D03*
D13*
X101000000Y-76000000D03*
D14*
X101000000Y-68380000D03*
D13*
X96000000Y-76000000D03*
D14*
X96000000Y-68380000D03*
D13*
X103500000Y-89500000D03*
D14*
X95880000Y-89500000D03*
D13*
X134620000Y-101600000D03*
D14*
X127000000Y-101600000D03*
D13*
X134620000Y-104140000D03*
D14*
X127000000Y-104140000D03*
D13*
X154500000Y-99750000D03*
D14*
X146880000Y-99750000D03*
D13*
X154500000Y-103500000D03*
D14*
X146880000Y-103500000D03*
D25*
X142000000Y-103000000D03*
X142000000Y-100460000D03*
X142000000Y-97920000D03*
D18*
X178500000Y-91000000D03*
D26*
X178500000Y-103700000D03*
D13*
X177500000Y-79500000D03*
D14*
X177500000Y-87120000D03*
D18*
X75250000Y-101750000D03*
D26*
X62550000Y-101750000D03*
D13*
X79500000Y-97500000D03*
D14*
X87120000Y-97500000D03*
D13*
X79500000Y-94250000D03*
D14*
X87120000Y-94250000D03*
D13*
X190500000Y-91500000D03*
D14*
X190500000Y-104200000D03*
D13*
X105000000Y-76000000D03*
D14*
X105000000Y-68380000D03*
D13*
X112750000Y-76000000D03*
D14*
X112750000Y-68380000D03*
D13*
X109000000Y-76000000D03*
D14*
X109000000Y-68380000D03*
D13*
X116950000Y-85000000D03*
D14*
X109330000Y-85000000D03*
D13*
X140500000Y-75250000D03*
D14*
X140500000Y-82870000D03*
D25*
X136250000Y-84750000D03*
X136250000Y-82210000D03*
X136250000Y-79670000D03*
D13*
X152250000Y-89000000D03*
D14*
X144630000Y-89000000D03*
D13*
X173750000Y-68500000D03*
D14*
X173750000Y-76120000D03*
D13*
X128250000Y-69000000D03*
D14*
X120630000Y-69000000D03*
D18*
X193000000Y-73000000D03*
D26*
X177760000Y-73000000D03*
D13*
X133250000Y-69000000D03*
D14*
X133250000Y-61380000D03*
D13*
X186750000Y-69250000D03*
D14*
X186750000Y-61630000D03*
D18*
X28250000Y-65500000D03*
D26*
X40950000Y-65500000D03*
D18*
X260750000Y-65000000D03*
D26*
X248050000Y-65000000D03*
D13*
X78250000Y-73750000D03*
D14*
X65550000Y-73750000D03*
D27*
X40000000Y-50000000D03*
D28*
X45450000Y-50000000D03*
D29*
X50900000Y-50000000D03*
D27*
X242000000Y-50000000D03*
D28*
X247450000Y-50000000D03*
D29*
X252900000Y-50000000D03*
D27*
X65000000Y-50000000D03*
D28*
X70450000Y-50000000D03*
D29*
X75900000Y-50000000D03*
D27*
X217000000Y-50000000D03*
D28*
X222450000Y-50000000D03*
D29*
X227900000Y-50000000D03*
D27*
X90000000Y-50000000D03*
D28*
X95450000Y-50000000D03*
D29*
X100900000Y-50000000D03*
D27*
X192000000Y-50000000D03*
D28*
X197450000Y-50000000D03*
D29*
X202900000Y-50000000D03*
D27*
X115000000Y-50000000D03*
D28*
X120450000Y-50000000D03*
D29*
X125900000Y-50000000D03*
D27*
X167000000Y-50000000D03*
D28*
X172450000Y-50000000D03*
D29*
X177900000Y-50000000D03*
D30*
X29000000Y-59000000D03*
D31*
X49320000Y-59000000D03*
D30*
X264000000Y-59000000D03*
D31*
X243680000Y-59000000D03*
D30*
X55000000Y-59000000D03*
D31*
X75320000Y-59000000D03*
D30*
X236000000Y-59000000D03*
D31*
X215680000Y-59000000D03*
D30*
X82000000Y-59000000D03*
D31*
X102320000Y-59000000D03*
D30*
X210000000Y-59000000D03*
D31*
X189680000Y-59000000D03*
D30*
X109000000Y-59000000D03*
D31*
X129320000Y-59000000D03*
D30*
X184000000Y-59000000D03*
D31*
X163680000Y-59000000D03*
D32*
X247750000Y-74500000D03*
D33*
X252830000Y-74500000D03*
D32*
X231000000Y-74750000D03*
D33*
X236080000Y-74750000D03*
D32*
X82500000Y-71750000D03*
D33*
X87580000Y-71750000D03*
D34*
X262000000Y-102000000D03*
D35*
X262000000Y-47000000D03*
D34*
X30000000Y-102000000D03*
D35*
X30000000Y-47000000D03*
D32*
X163500000Y-101750000D03*
D33*
X168580000Y-101750000D03*
D36*
X163460000Y-93290000D03*
X163460000Y-88210000D03*
X168540000Y-88210000D03*
X168540000Y-93290000D03*
D16*
X166000000Y-90750000D03*
D17*
X35750000Y-75000000D03*
D18*
X35750000Y-82500000D03*
D17*
X42500000Y-90250000D03*
D18*
X42500000Y-97750000D03*
D17*
X220000000Y-89500000D03*
D18*
X212500000Y-89500000D03*
D17*
X197250000Y-89500000D03*
D18*
X204750000Y-89500000D03*
X132500000Y-73500000D03*
D26*
X117260000Y-73500000D03*
D13*
X262000000Y-92000000D03*
X262000000Y-97000000D03*
X30000000Y-92000000D03*
X30000000Y-97000000D03*
D36*
X139500000Y-93000000D03*
X154500000Y-93000000D03*
D37*
X139500000Y-93000000D02*
X139500000Y-93500000D01*
X139500000Y-93500000D02*
X136250000Y-98750000D01*
X130920000Y-98375000D02*
X133375000Y-98375000D01*
X133375000Y-98375000D02*
X136250000Y-98750000D01*
X139500000Y-93000000D02*
X139250000Y-93000000D01*
X130920000Y-98375000D02*
X130920000Y-97755000D01*
X154500000Y-93000000D02*
X154750000Y-93000000D01*
X154750000Y-93000000D02*
X163500000Y-101750000D01*
X155250000Y-92750000D02*
X155250000Y-93500000D01*
X166000000Y-90750000D02*
X166000000Y-96750000D01*
X166000000Y-96750000D02*
X166000000Y-99250000D01*
X166000000Y-99250000D02*
X163500000Y-101750000D01*
X115770000Y-97230000D02*
X115770000Y-96905000D01*
X115770000Y-96905000D02*
X117425000Y-95250000D01*
X117425000Y-95250000D02*
X123400000Y-95250000D01*
X123400000Y-95250000D02*
X123360000Y-98315000D01*
X123360000Y-98315000D02*
X123300000Y-98375000D01*
X115770000Y-97230000D02*
X116170000Y-97230000D01*
X123050000Y-98125000D02*
X123300000Y-98375000D01*
X96000000Y-86000000D02*
X96000000Y-89380000D01*
X96000000Y-89380000D02*
X95880000Y-89500000D01*
X96230000Y-81230000D02*
X94770000Y-81230000D01*
X93000000Y-91000000D02*
X95500000Y-93500000D01*
X93000000Y-83000000D02*
X93000000Y-91000000D01*
X94770000Y-81230000D02*
X93000000Y-83000000D01*
X102000000Y-81230000D02*
X102000000Y-84500000D01*
X102000000Y-84500000D02*
X103500000Y-86000000D01*
X97500000Y-82500000D02*
X98000000Y-82500000D01*
X98000000Y-82500000D02*
X99270000Y-81230000D01*
X99270000Y-81230000D02*
X102000000Y-81230000D01*
X102000000Y-81230000D02*
X103230000Y-81230000D01*
X96230000Y-81230000D02*
X97500000Y-82500000D01*
X90000000Y-97000000D02*
X90000000Y-93250000D01*
X77500000Y-104000000D02*
X75250000Y-101750000D01*
X82000000Y-104000000D02*
X77500000Y-104000000D01*
X83250000Y-102750000D02*
X82000000Y-104000000D01*
X83250000Y-92250000D02*
X83250000Y-102750000D01*
X84000000Y-91500000D02*
X83250000Y-92250000D01*
X88250000Y-91500000D02*
X84000000Y-91500000D01*
X90000000Y-93250000D02*
X88250000Y-91500000D01*
X75500000Y-98000000D02*
X75500000Y-101500000D01*
X75500000Y-101500000D02*
X75250000Y-101750000D01*
X93000000Y-94770000D02*
X92230000Y-94770000D01*
X92230000Y-94770000D02*
X90000000Y-97000000D01*
X96770000Y-94770000D02*
X93000000Y-94770000D01*
X96770000Y-94770000D02*
X105770000Y-94770000D01*
D38*
X212500000Y-89500000D02*
X204750000Y-89500000D01*
X209500000Y-71000000D02*
X211500000Y-71000000D01*
X214250000Y-87750000D02*
X212500000Y-89500000D01*
X214250000Y-73750000D02*
X214250000Y-87750000D01*
X211500000Y-71000000D02*
X214250000Y-73750000D01*
D37*
X193000000Y-73000000D02*
X195380000Y-73000000D01*
X195380000Y-73000000D02*
X198500000Y-76120000D01*
D39*
X172450000Y-50000000D02*
X172450000Y-63450000D01*
X172450000Y-63450000D02*
X174000000Y-65000000D01*
X153540000Y-47500000D02*
X153540000Y-52540000D01*
X156000000Y-55000000D02*
X172450000Y-55000000D01*
X153540000Y-52540000D02*
X156000000Y-55000000D01*
D37*
X173750000Y-68500000D02*
X173750000Y-67250000D01*
X173750000Y-67250000D02*
X176000000Y-65000000D01*
X193000000Y-73000000D02*
X193000000Y-68000000D01*
X193000000Y-68000000D02*
X196000000Y-65000000D01*
X186500000Y-81000000D02*
X186500000Y-79500000D01*
X186500000Y-79500000D02*
X193000000Y-73000000D01*
X186500000Y-81000000D02*
X187000000Y-81000000D01*
D39*
X198500000Y-76120000D02*
X203880000Y-76120000D01*
X203880000Y-76120000D02*
X211000000Y-69000000D01*
D37*
X182000000Y-80000000D02*
X185500000Y-80000000D01*
X185500000Y-80000000D02*
X186500000Y-81000000D01*
X177500000Y-79500000D02*
X181500000Y-79500000D01*
X181500000Y-79500000D02*
X182000000Y-80000000D01*
X174000000Y-65000000D02*
X173500000Y-65000000D01*
X173500000Y-65000000D02*
X173250000Y-65250000D01*
X173250000Y-65250000D02*
X173250000Y-64250000D01*
D39*
X173250000Y-64250000D02*
X174000000Y-65000000D01*
X247450000Y-50000000D02*
X247450000Y-60300000D01*
X228750000Y-64250000D02*
X226000000Y-67000000D01*
X243500000Y-64250000D02*
X228750000Y-64250000D01*
X247450000Y-60300000D02*
X243500000Y-64250000D01*
X221000000Y-69000000D02*
X221000000Y-65000000D01*
X221000000Y-65000000D02*
X222000000Y-65000000D01*
D38*
X228000000Y-65000000D02*
X226000000Y-67000000D01*
D39*
X222450000Y-50000000D02*
X222450000Y-63450000D01*
X222450000Y-63450000D02*
X224000000Y-65000000D01*
X197450000Y-50000000D02*
X197450000Y-58450000D01*
X197450000Y-58450000D02*
X204000000Y-65000000D01*
X172450000Y-50000000D02*
X172450000Y-55000000D01*
D38*
X174000000Y-65000000D02*
X176000000Y-65000000D01*
X176000000Y-65000000D02*
X184000000Y-65000000D01*
X184000000Y-65000000D02*
X196000000Y-65000000D01*
X196000000Y-65000000D02*
X200000000Y-65000000D01*
X200000000Y-65000000D02*
X204000000Y-65000000D01*
X204000000Y-65000000D02*
X207000000Y-65000000D01*
X209500000Y-71000000D02*
X211000000Y-69000000D01*
X211000000Y-69000000D02*
X207000000Y-65000000D01*
X231000000Y-74750000D02*
X226000000Y-67000000D01*
X224000000Y-65000000D02*
X222000000Y-65000000D01*
X222000000Y-65000000D02*
X207000000Y-65000000D01*
X226000000Y-67000000D02*
X224000000Y-65000000D01*
D37*
X186500000Y-83540000D02*
X186500000Y-90250000D01*
X186500000Y-90250000D02*
X184520000Y-92230000D01*
X182730000Y-92230000D02*
X184520000Y-92230000D01*
X184520000Y-92230000D02*
X189770000Y-92230000D01*
X189770000Y-92230000D02*
X190500000Y-91500000D01*
X186500000Y-83540000D02*
X186500000Y-84750000D01*
X186250000Y-85000000D02*
X182000000Y-85000000D01*
X186500000Y-84750000D02*
X186250000Y-85000000D01*
X166080000Y-80000000D02*
X166080000Y-80330000D01*
X166080000Y-80330000D02*
X172750000Y-85000000D01*
X172750000Y-85000000D02*
X182000000Y-85000000D01*
X181580000Y-84580000D02*
X182000000Y-85000000D01*
X87120000Y-94250000D02*
X87120000Y-97500000D01*
X101500000Y-103500000D02*
X88000000Y-103500000D01*
X88000000Y-103500000D02*
X85500000Y-101000000D01*
X106770000Y-100730000D02*
X106770000Y-103230000D01*
X106500000Y-103500000D02*
X101500000Y-103500000D01*
X106770000Y-103230000D02*
X106500000Y-103500000D01*
X87120000Y-97500000D02*
X87120000Y-99380000D01*
X87120000Y-99380000D02*
X85500000Y-101000000D01*
X79500000Y-97500000D02*
X80500000Y-97500000D01*
X75500000Y-72500000D02*
X78000000Y-70000000D01*
X75500000Y-76000000D02*
X75500000Y-72500000D01*
X82000000Y-82500000D02*
X75500000Y-76000000D01*
X82000000Y-96000000D02*
X82000000Y-82500000D01*
X80500000Y-97500000D02*
X82000000Y-96000000D01*
X80500000Y-101000000D02*
X80500000Y-98500000D01*
X80500000Y-98500000D02*
X79500000Y-97500000D01*
X66750000Y-96000000D02*
X73500000Y-96000000D01*
X75250000Y-94250000D02*
X79500000Y-94250000D01*
X73500000Y-96000000D02*
X75250000Y-94250000D01*
X66750000Y-91000000D02*
X66750000Y-84750000D01*
X111770000Y-91020000D02*
X114295000Y-91020000D01*
X114295000Y-91020000D02*
X116575000Y-93300000D01*
X111770000Y-91020000D02*
X105980000Y-91020000D01*
X105980000Y-91020000D02*
X104500000Y-92500000D01*
X105325000Y-89500000D02*
X105325000Y-83325000D01*
X105325000Y-83325000D02*
X104500000Y-82500000D01*
X104500000Y-93500000D02*
X104500000Y-92500000D01*
X104500000Y-92500000D02*
X104500000Y-89500000D01*
X103500000Y-89500000D02*
X104500000Y-89500000D01*
X104500000Y-89500000D02*
X105325000Y-89500000D01*
X150460000Y-73000000D02*
X150460000Y-77715000D01*
X150460000Y-77715000D02*
X142600000Y-85575000D01*
X128750000Y-84335000D02*
X128750000Y-88875000D01*
X118225000Y-89950000D02*
X116575000Y-88300000D01*
X127675000Y-89950000D02*
X118225000Y-89950000D01*
X128750000Y-88875000D02*
X127675000Y-89950000D01*
X116575000Y-88300000D02*
X116575000Y-88875000D01*
X126500000Y-84335000D02*
X128750000Y-84335000D01*
X128750000Y-84335000D02*
X129915000Y-84335000D01*
X138505000Y-80875000D02*
X140500000Y-82870000D01*
X133375000Y-80875000D02*
X138505000Y-80875000D01*
X129915000Y-84335000D02*
X133375000Y-80875000D01*
X142080000Y-47500000D02*
X142080000Y-61050000D01*
X140500000Y-82870000D02*
X140500000Y-83000000D01*
X140500000Y-83000000D02*
X142750000Y-85250000D01*
X142750000Y-85250000D02*
X142600000Y-85575000D01*
X126500000Y-84335000D02*
X126540000Y-84335000D01*
X140870000Y-82500000D02*
X140500000Y-82870000D01*
X126500000Y-84335000D02*
X127290000Y-84085000D01*
X150460000Y-73000000D02*
X150460000Y-67710000D01*
X143880000Y-61130000D02*
X142000000Y-61130000D01*
X150460000Y-67710000D02*
X143880000Y-61130000D01*
X142000000Y-61130000D02*
X142000000Y-61500000D01*
X142080000Y-61050000D02*
X142000000Y-61130000D01*
X160025000Y-85575000D02*
X152600000Y-85575000D01*
X152600000Y-85575000D02*
X152525000Y-88725000D01*
X152525000Y-88725000D02*
X152250000Y-89000000D01*
X152525000Y-88725000D02*
X152250000Y-89000000D01*
X153000000Y-73000000D02*
X153000000Y-85175000D01*
X153000000Y-85175000D02*
X152600000Y-85575000D01*
X153000000Y-73000000D02*
X153000000Y-75025000D01*
X152975000Y-63525000D02*
X155250000Y-61250000D01*
X152975000Y-75000000D02*
X152975000Y-63525000D01*
X153000000Y-75025000D02*
X152975000Y-75000000D01*
X153000000Y-73000000D02*
X153700000Y-73000000D01*
X152600000Y-85575000D02*
X152350000Y-85575000D01*
X152600000Y-85575000D02*
X152600000Y-85325000D01*
X152350000Y-85825000D02*
X152600000Y-85575000D01*
X155250000Y-62000000D02*
X155250000Y-61250000D01*
X155080000Y-61080000D02*
X155250000Y-61250000D01*
X163540000Y-80000000D02*
X163540000Y-82060000D01*
X163540000Y-82060000D02*
X160025000Y-85575000D01*
X65550000Y-73750000D02*
X65750000Y-73750000D01*
X65750000Y-73750000D02*
X68000000Y-71500000D01*
X68000000Y-71500000D02*
X68000000Y-70000000D01*
X62550000Y-101750000D02*
X48500000Y-101750000D01*
X46250000Y-94000000D02*
X42500000Y-90250000D01*
X46250000Y-99500000D02*
X46250000Y-94000000D01*
X48500000Y-101750000D02*
X46250000Y-99500000D01*
D38*
X43625000Y-70625000D02*
X43625000Y-89125000D01*
X43625000Y-89125000D02*
X42500000Y-90250000D01*
X50750000Y-75000000D02*
X50750000Y-73750000D01*
X50750000Y-73750000D02*
X45625000Y-68625000D01*
D37*
X56750000Y-69750000D02*
X56750000Y-68500000D01*
X56750000Y-68500000D02*
X59925676Y-65324324D01*
D38*
X82500000Y-71750000D02*
X82500000Y-68250000D01*
X82500000Y-68250000D02*
X85750000Y-65000000D01*
D37*
X117260000Y-73500000D02*
X117260000Y-68260000D01*
X117260000Y-68260000D02*
X114000000Y-65000000D01*
X112750000Y-68380000D02*
X112750000Y-66250000D01*
X112750000Y-66250000D02*
X114000000Y-65000000D01*
X109000000Y-68380000D02*
X109000000Y-67125000D01*
X109000000Y-67125000D02*
X106875000Y-65000000D01*
X105000000Y-68380000D02*
X105000000Y-65500000D01*
X105000000Y-65500000D02*
X104500000Y-65000000D01*
X101000000Y-68380000D02*
X101000000Y-67000000D01*
X101000000Y-67000000D02*
X99000000Y-65000000D01*
X96000000Y-68380000D02*
X96000000Y-66000000D01*
X96000000Y-66000000D02*
X97000000Y-65000000D01*
D38*
X35750000Y-75000000D02*
X36750000Y-75000000D01*
X35750000Y-75000000D02*
X38250000Y-72250000D01*
X48925676Y-65324324D02*
X49675676Y-65324324D01*
X43500000Y-70750000D02*
X43625000Y-70625000D01*
X43625000Y-70625000D02*
X45625000Y-68625000D01*
X45625000Y-68625000D02*
X48925676Y-65324324D01*
X39750000Y-70750000D02*
X43500000Y-70750000D01*
X38250000Y-72250000D02*
X39750000Y-70750000D01*
X64945946Y-65324324D02*
X59925676Y-65324324D01*
X59925676Y-65324324D02*
X49675676Y-65324324D01*
X49675676Y-65324324D02*
X50324324Y-65324324D01*
X50324324Y-65324324D02*
X50000000Y-65000000D01*
D39*
X139540000Y-47500000D02*
X139540000Y-51460000D01*
X136000000Y-55000000D02*
X120450000Y-55000000D01*
X139540000Y-51460000D02*
X136000000Y-55000000D01*
X47000000Y-70000000D02*
X48000000Y-67000000D01*
X48000000Y-67000000D02*
X50000000Y-65000000D01*
D37*
X104500000Y-65000000D02*
X104500000Y-65500000D01*
X104500000Y-65500000D02*
X104500000Y-65000000D01*
X99000000Y-65000000D02*
X99000000Y-65500000D01*
X99000000Y-65500000D02*
X99000000Y-65000000D01*
D39*
X45450000Y-50000000D02*
X45450000Y-63200000D01*
X45450000Y-63200000D02*
X47250000Y-65000000D01*
X47250000Y-65000000D02*
X50000000Y-65000000D01*
X92500000Y-68500000D02*
X91000000Y-65000000D01*
X91000000Y-65000000D02*
X91000000Y-66000000D01*
X91000000Y-66000000D02*
X91000000Y-65000000D01*
D38*
X64945946Y-65324324D02*
X65000000Y-65000000D01*
X65000000Y-65000000D02*
X65000000Y-66000000D01*
X65000000Y-66000000D02*
X65000000Y-65000000D01*
D39*
X95450000Y-64450000D02*
X96000000Y-65000000D01*
D38*
X97000000Y-64000000D02*
X96000000Y-65000000D01*
X97000000Y-64000000D02*
X97000000Y-65000000D01*
X96000000Y-65000000D02*
X91000000Y-65000000D01*
X91000000Y-65000000D02*
X85750000Y-65000000D01*
X85750000Y-65000000D02*
X81000000Y-65000000D01*
X81000000Y-65000000D02*
X70000000Y-65000000D01*
X70000000Y-65000000D02*
X65000000Y-65000000D01*
X97000000Y-65000000D02*
X99000000Y-65000000D01*
X99000000Y-65000000D02*
X104500000Y-65000000D01*
X104500000Y-65000000D02*
X106875000Y-65000000D01*
X106875000Y-65000000D02*
X111000000Y-65000000D01*
X111000000Y-65000000D02*
X114000000Y-65000000D01*
X114000000Y-65000000D02*
X116000000Y-65000000D01*
D39*
X120450000Y-60000000D02*
X120450000Y-60550000D01*
X120450000Y-60550000D02*
X118250000Y-62750000D01*
X118250000Y-62750000D02*
X116000000Y-65000000D01*
X70450000Y-65000000D02*
X70000000Y-65450000D01*
D38*
X116000000Y-65000000D02*
X119000000Y-65000000D01*
D39*
X120450000Y-50000000D02*
X120450000Y-55000000D01*
X120450000Y-55000000D02*
X120450000Y-55250000D01*
X120450000Y-55250000D02*
X120450000Y-60000000D01*
X95450000Y-50000000D02*
X95450000Y-64450000D01*
X70450000Y-50000000D02*
X70450000Y-65000000D01*
D37*
X139000000Y-71000000D02*
X139750000Y-71000000D01*
X139750000Y-71000000D02*
X142000000Y-68750000D01*
X160500000Y-69750000D02*
X156130000Y-69750000D01*
X156130000Y-69750000D02*
X155250000Y-68870000D01*
X117040000Y-98500000D02*
X117040000Y-99615000D01*
X119025000Y-101600000D02*
X127000000Y-101600000D01*
X117040000Y-99615000D02*
X119025000Y-101600000D01*
X117040000Y-98500000D02*
X117250000Y-98500000D01*
X104500000Y-96040000D02*
X112040000Y-96040000D01*
X112040000Y-96040000D02*
X114500000Y-98500000D01*
X108040000Y-102000000D02*
X108400000Y-102000000D01*
X108400000Y-102000000D02*
X110540000Y-104140000D01*
X110540000Y-104140000D02*
X127000000Y-104140000D01*
X108040000Y-102000000D02*
X108500000Y-102000000D01*
X95500000Y-96040000D02*
X99540000Y-96040000D01*
X99540000Y-96040000D02*
X105500000Y-102000000D01*
X101000000Y-76000000D02*
X101000000Y-76750000D01*
X101000000Y-76750000D02*
X104210000Y-79960000D01*
X104210000Y-79960000D02*
X104500000Y-79960000D01*
X96000000Y-76000000D02*
X96000000Y-78460000D01*
X96000000Y-78460000D02*
X97500000Y-79960000D01*
X177500000Y-87120000D02*
X180160000Y-87120000D01*
X180160000Y-87120000D02*
X184000000Y-90960000D01*
X178500000Y-91000000D02*
X178500000Y-93500000D01*
X183000000Y-94500000D02*
X184000000Y-93500000D01*
X179500000Y-94500000D02*
X183000000Y-94500000D01*
X178500000Y-93500000D02*
X179500000Y-94500000D01*
X110500000Y-89750000D02*
X110500000Y-88500000D01*
X110500000Y-88500000D02*
X109525000Y-87525000D01*
X107300000Y-79750000D02*
X107300000Y-78300000D01*
X107300000Y-78300000D02*
X105000000Y-76000000D01*
X107300000Y-79750000D02*
X107300000Y-87100000D01*
X107300000Y-87100000D02*
X107725000Y-87525000D01*
X107725000Y-87525000D02*
X109525000Y-87525000D01*
X109525000Y-87525000D02*
X109960000Y-87525000D01*
X114275000Y-81775000D02*
X114700000Y-81775000D01*
X114700000Y-81775000D02*
X114720000Y-81795000D01*
X114720000Y-81795000D02*
X126500000Y-81795000D01*
X114275000Y-81775000D02*
X114225000Y-83025000D01*
X109960000Y-87290000D02*
X109960000Y-87525000D01*
X114225000Y-83025000D02*
X109960000Y-87290000D01*
X109000000Y-80500000D02*
X113000000Y-80500000D01*
X113000000Y-80500000D02*
X113005000Y-80505000D01*
X109000000Y-76000000D02*
X109000000Y-80500000D01*
X109000000Y-80500000D02*
X109000000Y-84670000D01*
X109000000Y-84670000D02*
X109330000Y-85000000D01*
X113005000Y-80505000D02*
X113005000Y-80305000D01*
X113005000Y-80505000D02*
X112795000Y-80505000D01*
X109700000Y-84630000D02*
X109330000Y-85000000D01*
X114275000Y-79235000D02*
X114275000Y-77525000D01*
X114275000Y-77525000D02*
X112750000Y-76000000D01*
X114275000Y-79235000D02*
X114590000Y-79235000D01*
X114275000Y-79235000D02*
X114315000Y-79235000D01*
X116950000Y-85000000D02*
X118225000Y-85000000D01*
X120100000Y-86875000D02*
X126500000Y-86875000D01*
X118225000Y-85000000D02*
X120100000Y-86875000D01*
X117200000Y-84750000D02*
X116950000Y-85000000D01*
X140500000Y-75250000D02*
X147170000Y-75250000D01*
X147170000Y-75250000D02*
X147920000Y-73000000D01*
X140500000Y-75250000D02*
X140500000Y-75420000D01*
X140500000Y-75420000D02*
X136250000Y-79670000D01*
X161000000Y-80000000D02*
X163000000Y-76750000D01*
X163630000Y-76120000D02*
X173750000Y-76120000D01*
X163000000Y-76750000D02*
X163630000Y-76120000D01*
X137730000Y-72270000D02*
X137730000Y-72770000D01*
X137730000Y-72770000D02*
X137000000Y-73500000D01*
X137000000Y-73500000D02*
X132500000Y-73500000D01*
X128250000Y-69000000D02*
X133250000Y-69000000D01*
X133250000Y-69000000D02*
X132500000Y-69750000D01*
X132500000Y-69750000D02*
X132500000Y-73500000D01*
X186750000Y-69250000D02*
X186750000Y-71250000D01*
X185000000Y-73000000D02*
X177760000Y-73000000D01*
X186750000Y-71250000D02*
X185000000Y-73000000D01*
X176380000Y-69000000D02*
X176380000Y-71620000D01*
X176380000Y-71620000D02*
X177760000Y-73000000D01*
X161770000Y-68480000D02*
X161770000Y-71520000D01*
X173880000Y-71500000D02*
X176380000Y-69000000D01*
X161790000Y-71500000D02*
X173880000Y-71500000D01*
X161770000Y-71520000D02*
X161790000Y-71500000D01*
D39*
X113000000Y-44500000D02*
X134000000Y-44500000D01*
X134000000Y-44500000D02*
X137000000Y-47500000D01*
X40000000Y-50000000D02*
X40000000Y-64550000D01*
X40000000Y-64550000D02*
X40950000Y-65500000D01*
X40950000Y-65450000D02*
X40950000Y-65500000D01*
X115000000Y-50000000D02*
X115000000Y-45000000D01*
X115000000Y-45000000D02*
X115000000Y-46000000D01*
X115000000Y-46000000D02*
X115000000Y-45000000D01*
X90000000Y-50000000D02*
X90000000Y-47000000D01*
X90000000Y-47000000D02*
X92000000Y-45000000D01*
X92000000Y-45000000D02*
X92000000Y-46000000D01*
X92000000Y-46000000D02*
X92000000Y-45000000D01*
X65000000Y-50000000D02*
X65000000Y-48000000D01*
X65000000Y-48000000D02*
X68000000Y-45000000D01*
X115000000Y-45000000D02*
X113000000Y-44500000D01*
X113000000Y-44500000D02*
X92000000Y-45000000D01*
X92000000Y-45000000D02*
X68000000Y-45000000D01*
X40000000Y-45000000D02*
X40000000Y-50000000D01*
X68000000Y-45000000D02*
X40000000Y-45000000D01*
X151000000Y-47500000D02*
X151750000Y-44500000D01*
X151750000Y-44500000D02*
X164000000Y-44500000D01*
X217000000Y-45000000D02*
X240000000Y-45000000D01*
X242000000Y-47000000D02*
X242000000Y-50000000D01*
X240000000Y-45000000D02*
X242000000Y-47000000D01*
X189000000Y-45000000D02*
X215000000Y-45000000D01*
X215000000Y-45000000D02*
X217000000Y-45000000D01*
X217000000Y-50000000D02*
X217000000Y-45000000D01*
X217000000Y-45000000D02*
X217000000Y-45750000D01*
X217000000Y-45750000D02*
X217000000Y-45000000D01*
X167000000Y-50000000D02*
X167000000Y-48000000D01*
X167000000Y-48000000D02*
X164000000Y-44500000D01*
X192000000Y-50000000D02*
X192000000Y-48000000D01*
X192000000Y-48000000D02*
X189000000Y-45000000D01*
X164000000Y-44500000D02*
X189000000Y-45000000D01*
D37*
X142000000Y-97920000D02*
X145050000Y-97920000D01*
X145050000Y-97920000D02*
X146880000Y-99750000D01*
X142000000Y-97920000D02*
X141330000Y-97920000D01*
X141330000Y-97920000D02*
X137650000Y-101600000D01*
X137650000Y-101600000D02*
X134620000Y-101600000D01*
X141920000Y-98000000D02*
X142000000Y-97920000D01*
X142420000Y-97500000D02*
X142000000Y-97920000D01*
X142000000Y-103000000D02*
X146380000Y-103000000D01*
X146380000Y-103000000D02*
X146880000Y-103500000D01*
X134620000Y-104140000D02*
X137610000Y-104140000D01*
X138750000Y-103000000D02*
X142000000Y-103000000D01*
X137610000Y-104140000D02*
X138750000Y-103000000D01*
X142000000Y-103000000D02*
X141875000Y-103000000D01*
X154500000Y-101500000D02*
X142500000Y-101500000D01*
X142500000Y-101500000D02*
X142000000Y-101000000D01*
X142000000Y-101000000D02*
X142000000Y-100460000D01*
X154500000Y-99750000D02*
X154500000Y-101500000D01*
X154500000Y-101500000D02*
X154500000Y-103500000D01*
X154500000Y-103500000D02*
X154750000Y-103500000D01*
X154750000Y-103500000D02*
X156250000Y-105000000D01*
X177200000Y-105000000D02*
X178500000Y-103700000D01*
X156250000Y-105000000D02*
X177200000Y-105000000D01*
X136250000Y-84750000D02*
X136250000Y-86125000D01*
X139125000Y-89000000D02*
X144630000Y-89000000D01*
X136250000Y-86125000D02*
X139125000Y-89000000D01*
X136250000Y-82210000D02*
X136250000Y-84750000D01*
X262000000Y-97000000D02*
X262000000Y-102000000D01*
X30000000Y-97000000D02*
X30000000Y-102000000D01*
G36*
X163575512Y-52250000D02*
X163662673Y-52713222D01*
X163936437Y-53138663D01*
X164354153Y-53424076D01*
X164850000Y-53524488D01*
X169150000Y-53524488D01*
X169613222Y-53437327D01*
X170038663Y-53163563D01*
X170324076Y-52745847D01*
X170424488Y-52250000D01*
X170424488Y-50250000D01*
X170442000Y-50250000D01*
X170442000Y-51250002D01*
X170607522Y-51250002D01*
X170521161Y-51432056D01*
X170833326Y-52137302D01*
X171391615Y-52669404D01*
X171534178Y-52786990D01*
X171825000Y-52707723D01*
X171825000Y-51125000D01*
X171200000Y-51125000D01*
X171200000Y-50250000D01*
X173700000Y-50250000D01*
X173700000Y-51125000D01*
X173075000Y-51125000D01*
X173075000Y-52707723D01*
X173365822Y-52786990D01*
X173508385Y-52669404D01*
X174066674Y-52137302D01*
X174378839Y-51432056D01*
X174292478Y-51250002D01*
X174458000Y-51250002D01*
X174458000Y-50250000D01*
X174516198Y-50250000D01*
X174758810Y-51469693D01*
X175495837Y-52572732D01*
X176598876Y-53309759D01*
X177900000Y-53568569D01*
X179201124Y-53309759D01*
X180304163Y-52572732D01*
X181041190Y-51469693D01*
X181283802Y-50250000D01*
X188575512Y-50250000D01*
X188575512Y-52250000D01*
X188662673Y-52713222D01*
X188936437Y-53138663D01*
X189354153Y-53424076D01*
X189850000Y-53524488D01*
X194150000Y-53524488D01*
X194613222Y-53437327D01*
X195038663Y-53163563D01*
X195324076Y-52745847D01*
X195424488Y-52250000D01*
X195424488Y-50250000D01*
X195442000Y-50250000D01*
X195442000Y-51250002D01*
X195607522Y-51250002D01*
X195521161Y-51432056D01*
X195833326Y-52137302D01*
X196391615Y-52669404D01*
X196534178Y-52786990D01*
X196825000Y-52707723D01*
X196825000Y-51125000D01*
X196200000Y-51125000D01*
X196200000Y-50250000D01*
X198700000Y-50250000D01*
X198700000Y-51125000D01*
X198075000Y-51125000D01*
X198075000Y-52707723D01*
X198365822Y-52786990D01*
X198508385Y-52669404D01*
X199066674Y-52137302D01*
X199378839Y-51432056D01*
X199292478Y-51250002D01*
X199458000Y-51250002D01*
X199458000Y-50250000D01*
X199516198Y-50250000D01*
X199758810Y-51469693D01*
X200495837Y-52572732D01*
X201598876Y-53309759D01*
X202900000Y-53568569D01*
X204201124Y-53309759D01*
X205304163Y-52572732D01*
X206041190Y-51469693D01*
X206283802Y-50250000D01*
X213575512Y-50250000D01*
X213575512Y-52250000D01*
X213662673Y-52713222D01*
X213936437Y-53138663D01*
X214354153Y-53424076D01*
X214850000Y-53524488D01*
X219150000Y-53524488D01*
X219613222Y-53437327D01*
X220038663Y-53163563D01*
X220324076Y-52745847D01*
X220424488Y-52250000D01*
X220424488Y-50250000D01*
X220442000Y-50250000D01*
X220442000Y-51250002D01*
X220607522Y-51250002D01*
X220521161Y-51432056D01*
X220833326Y-52137302D01*
X221391615Y-52669404D01*
X221534178Y-52786990D01*
X221825000Y-52707723D01*
X221825000Y-51125000D01*
X221200000Y-51125000D01*
X221200000Y-50250000D01*
X223700000Y-50250000D01*
X223700000Y-51125000D01*
X223075000Y-51125000D01*
X223075000Y-52707723D01*
X223365822Y-52786990D01*
X223508385Y-52669404D01*
X224066674Y-52137302D01*
X224378839Y-51432056D01*
X224292478Y-51250002D01*
X224458000Y-51250002D01*
X224458000Y-50250000D01*
X224516198Y-50250000D01*
X224758810Y-51469693D01*
X225495837Y-52572732D01*
X226598876Y-53309759D01*
X227900000Y-53568569D01*
X229201124Y-53309759D01*
X230304163Y-52572732D01*
X231041190Y-51469693D01*
X231283802Y-50250000D01*
X238575512Y-50250000D01*
X238575512Y-52250000D01*
X238662673Y-52713222D01*
X238936437Y-53138663D01*
X239354153Y-53424076D01*
X239850000Y-53524488D01*
X244150000Y-53524488D01*
X244613222Y-53437327D01*
X245038663Y-53163563D01*
X245324076Y-52745847D01*
X245424488Y-52250000D01*
X245424488Y-50250000D01*
X245442000Y-50250000D01*
X245442000Y-51250002D01*
X245607522Y-51250002D01*
X245521161Y-51432056D01*
X245833326Y-52137302D01*
X246391615Y-52669404D01*
X246534178Y-52786990D01*
X246825000Y-52707723D01*
X246825000Y-51125000D01*
X246200000Y-51125000D01*
X246200000Y-50250000D01*
X248700000Y-50250000D01*
X248700000Y-51125000D01*
X248075000Y-51125000D01*
X248075000Y-52707723D01*
X248365822Y-52786990D01*
X248508385Y-52669404D01*
X249066674Y-52137302D01*
X249378839Y-51432056D01*
X249292478Y-51250002D01*
X249458000Y-51250002D01*
X249458000Y-50250000D01*
X249516198Y-50250000D01*
X249750000Y-51425402D01*
X249750000Y-63213860D01*
X249035572Y-62736495D01*
X248097998Y-62550000D01*
X248002002Y-62550000D01*
X247064428Y-62736495D01*
X246269590Y-63267588D01*
X245738497Y-64062426D01*
X245552002Y-65000000D01*
X245701186Y-65750000D01*
X160250000Y-65750000D01*
X160250000Y-59000000D01*
X160978083Y-59000000D01*
X161179802Y-60014111D01*
X161754250Y-60873833D01*
X162613972Y-61448281D01*
X163628083Y-61650000D01*
X163731917Y-61650000D01*
X164746028Y-61448281D01*
X165605750Y-60873833D01*
X166180198Y-60014111D01*
X166277526Y-59524805D01*
X181349541Y-59524805D01*
X181752129Y-60499144D01*
X182496935Y-61245251D01*
X183470570Y-61649539D01*
X184524805Y-61650459D01*
X184702550Y-61577016D01*
X184700000Y-61589838D01*
X184700000Y-61670162D01*
X184856047Y-62454663D01*
X185300431Y-63119731D01*
X185965499Y-63564115D01*
X186750000Y-63720162D01*
X187534501Y-63564115D01*
X188199569Y-63119731D01*
X188643953Y-62454663D01*
X188800000Y-61670162D01*
X188800000Y-61589838D01*
X188778346Y-61480977D01*
X189628083Y-61650000D01*
X189731917Y-61650000D01*
X190746028Y-61448281D01*
X191605750Y-60873833D01*
X192180198Y-60014111D01*
X192277526Y-59524805D01*
X207349541Y-59524805D01*
X207752129Y-60499144D01*
X208496935Y-61245251D01*
X209470570Y-61649539D01*
X210524805Y-61650459D01*
X211499144Y-61247871D01*
X212245251Y-60503065D01*
X212649539Y-59529430D01*
X212650001Y-59000000D01*
X212978083Y-59000000D01*
X213179802Y-60014111D01*
X213754250Y-60873833D01*
X214613972Y-61448281D01*
X215628083Y-61650000D01*
X215731917Y-61650000D01*
X216746028Y-61448281D01*
X217605750Y-60873833D01*
X218180198Y-60014111D01*
X218277526Y-59524805D01*
X233349541Y-59524805D01*
X233752129Y-60499144D01*
X234496935Y-61245251D01*
X235470570Y-61649539D01*
X236524805Y-61650459D01*
X237499144Y-61247871D01*
X238245251Y-60503065D01*
X238649539Y-59529430D01*
X238650001Y-59000000D01*
X240978083Y-59000000D01*
X241179802Y-60014111D01*
X241754250Y-60873833D01*
X242613972Y-61448281D01*
X243628083Y-61650000D01*
X243731917Y-61650000D01*
X244746028Y-61448281D01*
X245605750Y-60873833D01*
X246180198Y-60014111D01*
X246381917Y-59000000D01*
X246180198Y-57985889D01*
X245605750Y-57126167D01*
X244746028Y-56551719D01*
X243731917Y-56350000D01*
X243628083Y-56350000D01*
X242613972Y-56551719D01*
X241754250Y-57126167D01*
X241179802Y-57985889D01*
X240978083Y-59000000D01*
X238650001Y-59000000D01*
X238650459Y-58475195D01*
X238247871Y-57500856D01*
X237503065Y-56754749D01*
X236529430Y-56350461D01*
X235475195Y-56349541D01*
X234500856Y-56752129D01*
X233754749Y-57496935D01*
X233350461Y-58470570D01*
X233349541Y-59524805D01*
X218277526Y-59524805D01*
X218381917Y-59000000D01*
X218180198Y-57985889D01*
X217605750Y-57126167D01*
X216746028Y-56551719D01*
X215731917Y-56350000D01*
X215628083Y-56350000D01*
X214613972Y-56551719D01*
X213754250Y-57126167D01*
X213179802Y-57985889D01*
X212978083Y-59000000D01*
X212650001Y-59000000D01*
X212650459Y-58475195D01*
X212247871Y-57500856D01*
X211503065Y-56754749D01*
X210529430Y-56350461D01*
X209475195Y-56349541D01*
X208500856Y-56752129D01*
X207754749Y-57496935D01*
X207350461Y-58470570D01*
X207349541Y-59524805D01*
X192277526Y-59524805D01*
X192381917Y-59000000D01*
X192180198Y-57985889D01*
X191605750Y-57126167D01*
X190746028Y-56551719D01*
X189731917Y-56350000D01*
X189628083Y-56350000D01*
X188613972Y-56551719D01*
X187754250Y-57126167D01*
X187179802Y-57985889D01*
X186978083Y-59000000D01*
X187099283Y-59609315D01*
X186750000Y-59539838D01*
X186635783Y-59562557D01*
X186649539Y-59529430D01*
X186650459Y-58475195D01*
X186247871Y-57500856D01*
X185503065Y-56754749D01*
X184529430Y-56350461D01*
X183475195Y-56349541D01*
X182500856Y-56752129D01*
X181754749Y-57496935D01*
X181350461Y-58470570D01*
X181349541Y-59524805D01*
X166277526Y-59524805D01*
X166381917Y-59000000D01*
X166180198Y-57985889D01*
X165605750Y-57126167D01*
X164746028Y-56551719D01*
X163731917Y-56350000D01*
X163628083Y-56350000D01*
X162613972Y-56551719D01*
X161754250Y-57126167D01*
X161179802Y-57985889D01*
X160978083Y-59000000D01*
X160250000Y-59000000D01*
X160250000Y-50250000D01*
X163575512Y-50250000D01*
X163575512Y-52250000D01*
X163575512Y-52250000D01*
G37*
X163575512Y-52250000D02*
X163662673Y-52713222D01*
X163936437Y-53138663D01*
X164354153Y-53424076D01*
X164850000Y-53524488D01*
X169150000Y-53524488D01*
X169613222Y-53437327D01*
X170038663Y-53163563D01*
X170324076Y-52745847D01*
X170424488Y-52250000D01*
X170424488Y-50250000D01*
X170442000Y-50250000D01*
X170442000Y-51250002D01*
X170607522Y-51250002D01*
X170521161Y-51432056D01*
X170833326Y-52137302D01*
X171391615Y-52669404D01*
X171534178Y-52786990D01*
X171825000Y-52707723D01*
X171825000Y-51125000D01*
X171200000Y-51125000D01*
X171200000Y-50250000D01*
X173700000Y-50250000D01*
X173700000Y-51125000D01*
X173075000Y-51125000D01*
X173075000Y-52707723D01*
X173365822Y-52786990D01*
X173508385Y-52669404D01*
X174066674Y-52137302D01*
X174378839Y-51432056D01*
X174292478Y-51250002D01*
X174458000Y-51250002D01*
X174458000Y-50250000D01*
X174516198Y-50250000D01*
X174758810Y-51469693D01*
X175495837Y-52572732D01*
X176598876Y-53309759D01*
X177900000Y-53568569D01*
X179201124Y-53309759D01*
X180304163Y-52572732D01*
X181041190Y-51469693D01*
X181283802Y-50250000D01*
X188575512Y-50250000D01*
X188575512Y-52250000D01*
X188662673Y-52713222D01*
X188936437Y-53138663D01*
X189354153Y-53424076D01*
X189850000Y-53524488D01*
X194150000Y-53524488D01*
X194613222Y-53437327D01*
X195038663Y-53163563D01*
X195324076Y-52745847D01*
X195424488Y-52250000D01*
X195424488Y-50250000D01*
X195442000Y-50250000D01*
X195442000Y-51250002D01*
X195607522Y-51250002D01*
X195521161Y-51432056D01*
X195833326Y-52137302D01*
X196391615Y-52669404D01*
X196534178Y-52786990D01*
X196825000Y-52707723D01*
X196825000Y-51125000D01*
X196200000Y-51125000D01*
X196200000Y-50250000D01*
X198700000Y-50250000D01*
X198700000Y-51125000D01*
X198075000Y-51125000D01*
X198075000Y-52707723D01*
X198365822Y-52786990D01*
X198508385Y-52669404D01*
X199066674Y-52137302D01*
X199378839Y-51432056D01*
X199292478Y-51250002D01*
X199458000Y-51250002D01*
X199458000Y-50250000D01*
X199516198Y-50250000D01*
X199758810Y-51469693D01*
X200495837Y-52572732D01*
X201598876Y-53309759D01*
X202900000Y-53568569D01*
X204201124Y-53309759D01*
X205304163Y-52572732D01*
X206041190Y-51469693D01*
X206283802Y-50250000D01*
X213575512Y-50250000D01*
X213575512Y-52250000D01*
X213662673Y-52713222D01*
X213936437Y-53138663D01*
X214354153Y-53424076D01*
X214850000Y-53524488D01*
X219150000Y-53524488D01*
X219613222Y-53437327D01*
X220038663Y-53163563D01*
X220324076Y-52745847D01*
X220424488Y-52250000D01*
X220424488Y-50250000D01*
X220442000Y-50250000D01*
X220442000Y-51250002D01*
X220607522Y-51250002D01*
X220521161Y-51432056D01*
X220833326Y-52137302D01*
X221391615Y-52669404D01*
X221534178Y-52786990D01*
X221825000Y-52707723D01*
X221825000Y-51125000D01*
X221200000Y-51125000D01*
X221200000Y-50250000D01*
X223700000Y-50250000D01*
X223700000Y-51125000D01*
X223075000Y-51125000D01*
X223075000Y-52707723D01*
X223365822Y-52786990D01*
X223508385Y-52669404D01*
X224066674Y-52137302D01*
X224378839Y-51432056D01*
X224292478Y-51250002D01*
X224458000Y-51250002D01*
X224458000Y-50250000D01*
X224516198Y-50250000D01*
X224758810Y-51469693D01*
X225495837Y-52572732D01*
X226598876Y-53309759D01*
X227900000Y-53568569D01*
X229201124Y-53309759D01*
X230304163Y-52572732D01*
X231041190Y-51469693D01*
X231283802Y-50250000D01*
X238575512Y-50250000D01*
X238575512Y-52250000D01*
X238662673Y-52713222D01*
X238936437Y-53138663D01*
X239354153Y-53424076D01*
X239850000Y-53524488D01*
X244150000Y-53524488D01*
X244613222Y-53437327D01*
X245038663Y-53163563D01*
X245324076Y-52745847D01*
X245424488Y-52250000D01*
X245424488Y-50250000D01*
X245442000Y-50250000D01*
X245442000Y-51250002D01*
X245607522Y-51250002D01*
X245521161Y-51432056D01*
X245833326Y-52137302D01*
X246391615Y-52669404D01*
X246534178Y-52786990D01*
X246825000Y-52707723D01*
X246825000Y-51125000D01*
X246200000Y-51125000D01*
X246200000Y-50250000D01*
X248700000Y-50250000D01*
X248700000Y-51125000D01*
X248075000Y-51125000D01*
X248075000Y-52707723D01*
X248365822Y-52786990D01*
X248508385Y-52669404D01*
X249066674Y-52137302D01*
X249378839Y-51432056D01*
X249292478Y-51250002D01*
X249458000Y-51250002D01*
X249458000Y-50250000D01*
X249516198Y-50250000D01*
X249750000Y-51425402D01*
X249750000Y-63213860D01*
X249035572Y-62736495D01*
X248097998Y-62550000D01*
X248002002Y-62550000D01*
X247064428Y-62736495D01*
X246269590Y-63267588D01*
X245738497Y-64062426D01*
X245552002Y-65000000D01*
X245701186Y-65750000D01*
X160250000Y-65750000D01*
X160250000Y-59000000D01*
X160978083Y-59000000D01*
X161179802Y-60014111D01*
X161754250Y-60873833D01*
X162613972Y-61448281D01*
X163628083Y-61650000D01*
X163731917Y-61650000D01*
X164746028Y-61448281D01*
X165605750Y-60873833D01*
X166180198Y-60014111D01*
X166277526Y-59524805D01*
X181349541Y-59524805D01*
X181752129Y-60499144D01*
X182496935Y-61245251D01*
X183470570Y-61649539D01*
X184524805Y-61650459D01*
X184702550Y-61577016D01*
X184700000Y-61589838D01*
X184700000Y-61670162D01*
X184856047Y-62454663D01*
X185300431Y-63119731D01*
X185965499Y-63564115D01*
X186750000Y-63720162D01*
X187534501Y-63564115D01*
X188199569Y-63119731D01*
X188643953Y-62454663D01*
X188800000Y-61670162D01*
X188800000Y-61589838D01*
X188778346Y-61480977D01*
X189628083Y-61650000D01*
X189731917Y-61650000D01*
X190746028Y-61448281D01*
X191605750Y-60873833D01*
X192180198Y-60014111D01*
X192277526Y-59524805D01*
X207349541Y-59524805D01*
X207752129Y-60499144D01*
X208496935Y-61245251D01*
X209470570Y-61649539D01*
X210524805Y-61650459D01*
X211499144Y-61247871D01*
X212245251Y-60503065D01*
X212649539Y-59529430D01*
X212650001Y-59000000D01*
X212978083Y-59000000D01*
X213179802Y-60014111D01*
X213754250Y-60873833D01*
X214613972Y-61448281D01*
X215628083Y-61650000D01*
X215731917Y-61650000D01*
X216746028Y-61448281D01*
X217605750Y-60873833D01*
X218180198Y-60014111D01*
X218277526Y-59524805D01*
X233349541Y-59524805D01*
X233752129Y-60499144D01*
X234496935Y-61245251D01*
X235470570Y-61649539D01*
X236524805Y-61650459D01*
X237499144Y-61247871D01*
X238245251Y-60503065D01*
X238649539Y-59529430D01*
X238650001Y-59000000D01*
X240978083Y-59000000D01*
X241179802Y-60014111D01*
X241754250Y-60873833D01*
X242613972Y-61448281D01*
X243628083Y-61650000D01*
X243731917Y-61650000D01*
X244746028Y-61448281D01*
X245605750Y-60873833D01*
X246180198Y-60014111D01*
X246381917Y-59000000D01*
X246180198Y-57985889D01*
X245605750Y-57126167D01*
X244746028Y-56551719D01*
X243731917Y-56350000D01*
X243628083Y-56350000D01*
X242613972Y-56551719D01*
X241754250Y-57126167D01*
X241179802Y-57985889D01*
X240978083Y-59000000D01*
X238650001Y-59000000D01*
X238650459Y-58475195D01*
X238247871Y-57500856D01*
X237503065Y-56754749D01*
X236529430Y-56350461D01*
X235475195Y-56349541D01*
X234500856Y-56752129D01*
X233754749Y-57496935D01*
X233350461Y-58470570D01*
X233349541Y-59524805D01*
X218277526Y-59524805D01*
X218381917Y-59000000D01*
X218180198Y-57985889D01*
X217605750Y-57126167D01*
X216746028Y-56551719D01*
X215731917Y-56350000D01*
X215628083Y-56350000D01*
X214613972Y-56551719D01*
X213754250Y-57126167D01*
X213179802Y-57985889D01*
X212978083Y-59000000D01*
X212650001Y-59000000D01*
X212650459Y-58475195D01*
X212247871Y-57500856D01*
X211503065Y-56754749D01*
X210529430Y-56350461D01*
X209475195Y-56349541D01*
X208500856Y-56752129D01*
X207754749Y-57496935D01*
X207350461Y-58470570D01*
X207349541Y-59524805D01*
X192277526Y-59524805D01*
X192381917Y-59000000D01*
X192180198Y-57985889D01*
X191605750Y-57126167D01*
X190746028Y-56551719D01*
X189731917Y-56350000D01*
X189628083Y-56350000D01*
X188613972Y-56551719D01*
X187754250Y-57126167D01*
X187179802Y-57985889D01*
X186978083Y-59000000D01*
X187099283Y-59609315D01*
X186750000Y-59539838D01*
X186635783Y-59562557D01*
X186649539Y-59529430D01*
X186650459Y-58475195D01*
X186247871Y-57500856D01*
X185503065Y-56754749D01*
X184529430Y-56350461D01*
X183475195Y-56349541D01*
X182500856Y-56752129D01*
X181754749Y-57496935D01*
X181350461Y-58470570D01*
X181349541Y-59524805D01*
X166277526Y-59524805D01*
X166381917Y-59000000D01*
X166180198Y-57985889D01*
X165605750Y-57126167D01*
X164746028Y-56551719D01*
X163731917Y-56350000D01*
X163628083Y-56350000D01*
X162613972Y-56551719D01*
X161754250Y-57126167D01*
X161179802Y-57985889D01*
X160978083Y-59000000D01*
X160250000Y-59000000D01*
X160250000Y-50250000D01*
X163575512Y-50250000D01*
X163575512Y-52250000D01*
G36*
X46700000Y-51125000D02*
X46075000Y-51125000D01*
X46075000Y-52707723D01*
X46365822Y-52786990D01*
X46508385Y-52669404D01*
X47066674Y-52137302D01*
X47378839Y-51432056D01*
X47292478Y-51250002D01*
X47458000Y-51250002D01*
X47458000Y-50250000D01*
X47516198Y-50250000D01*
X47758810Y-51469693D01*
X48495837Y-52572732D01*
X49598876Y-53309759D01*
X50900000Y-53568569D01*
X52201124Y-53309759D01*
X53304163Y-52572732D01*
X54041190Y-51469693D01*
X54283802Y-50250000D01*
X61575512Y-50250000D01*
X61575512Y-52250000D01*
X61662673Y-52713222D01*
X61936437Y-53138663D01*
X62354153Y-53424076D01*
X62850000Y-53524488D01*
X67150000Y-53524488D01*
X67613222Y-53437327D01*
X68038663Y-53163563D01*
X68324076Y-52745847D01*
X68424488Y-52250000D01*
X68424488Y-50250000D01*
X68442000Y-50250000D01*
X68442000Y-51250002D01*
X68607522Y-51250002D01*
X68521161Y-51432056D01*
X68833326Y-52137302D01*
X69391615Y-52669404D01*
X69534178Y-52786990D01*
X69825000Y-52707723D01*
X69825000Y-51125000D01*
X69200000Y-51125000D01*
X69200000Y-50250000D01*
X71700000Y-50250000D01*
X71700000Y-51125000D01*
X71075000Y-51125000D01*
X71075000Y-52707723D01*
X71365822Y-52786990D01*
X71508385Y-52669404D01*
X72066674Y-52137302D01*
X72378839Y-51432056D01*
X72292478Y-51250002D01*
X72458000Y-51250002D01*
X72458000Y-50250000D01*
X72516198Y-50250000D01*
X72758810Y-51469693D01*
X73495837Y-52572732D01*
X74598876Y-53309759D01*
X75900000Y-53568569D01*
X77201124Y-53309759D01*
X78304163Y-52572732D01*
X79041190Y-51469693D01*
X79283802Y-50250000D01*
X86575512Y-50250000D01*
X86575512Y-52250000D01*
X86662673Y-52713222D01*
X86936437Y-53138663D01*
X87354153Y-53424076D01*
X87850000Y-53524488D01*
X92150000Y-53524488D01*
X92613222Y-53437327D01*
X93038663Y-53163563D01*
X93324076Y-52745847D01*
X93424488Y-52250000D01*
X93424488Y-50250000D01*
X93442000Y-50250000D01*
X93442000Y-51250002D01*
X93607522Y-51250002D01*
X93521161Y-51432056D01*
X93833326Y-52137302D01*
X94391615Y-52669404D01*
X94534178Y-52786990D01*
X94825000Y-52707723D01*
X94825000Y-51125000D01*
X94200000Y-51125000D01*
X94200000Y-50250000D01*
X96700000Y-50250000D01*
X96700000Y-51125000D01*
X96075000Y-51125000D01*
X96075000Y-52707723D01*
X96365822Y-52786990D01*
X96508385Y-52669404D01*
X97066674Y-52137302D01*
X97378839Y-51432056D01*
X97292478Y-51250002D01*
X97458000Y-51250002D01*
X97458000Y-50250000D01*
X97516198Y-50250000D01*
X97758810Y-51469693D01*
X98495837Y-52572732D01*
X99598876Y-53309759D01*
X100900000Y-53568569D01*
X102201124Y-53309759D01*
X103304163Y-52572732D01*
X104041190Y-51469693D01*
X104283802Y-50250000D01*
X111575512Y-50250000D01*
X111575512Y-52250000D01*
X111662673Y-52713222D01*
X111936437Y-53138663D01*
X112354153Y-53424076D01*
X112850000Y-53524488D01*
X117150000Y-53524488D01*
X117613222Y-53437327D01*
X118038663Y-53163563D01*
X118324076Y-52745847D01*
X118424488Y-52250000D01*
X118424488Y-50250000D01*
X118442000Y-50250000D01*
X118442000Y-51250002D01*
X118607522Y-51250002D01*
X118521161Y-51432056D01*
X118833326Y-52137302D01*
X119391615Y-52669404D01*
X119534178Y-52786990D01*
X119825000Y-52707723D01*
X119825000Y-51125000D01*
X119200000Y-51125000D01*
X119200000Y-50250000D01*
X121700000Y-50250000D01*
X121700000Y-51125000D01*
X121075000Y-51125000D01*
X121075000Y-52707723D01*
X121365822Y-52786990D01*
X121508385Y-52669404D01*
X122066674Y-52137302D01*
X122378839Y-51432056D01*
X122292478Y-51250002D01*
X122458000Y-51250002D01*
X122458000Y-50250000D01*
X122516198Y-50250000D01*
X122758810Y-51469693D01*
X123495837Y-52572732D01*
X124598876Y-53309759D01*
X125900000Y-53568569D01*
X127201124Y-53309759D01*
X128304163Y-52572732D01*
X129041190Y-51469693D01*
X129283802Y-50250000D01*
X132750000Y-50250000D01*
X132750000Y-59389294D01*
X132465499Y-59445885D01*
X131851637Y-59856054D01*
X132021917Y-59000000D01*
X131820198Y-57985889D01*
X131245750Y-57126167D01*
X130386028Y-56551719D01*
X129371917Y-56350000D01*
X129268083Y-56350000D01*
X128253972Y-56551719D01*
X127394250Y-57126167D01*
X126819802Y-57985889D01*
X126618083Y-59000000D01*
X126819802Y-60014111D01*
X127394250Y-60873833D01*
X128253972Y-61448281D01*
X129268083Y-61650000D01*
X129371917Y-61650000D01*
X130386028Y-61448281D01*
X131245750Y-60873833D01*
X131312593Y-60773796D01*
X131200000Y-61339838D01*
X131200000Y-61420162D01*
X131356047Y-62204663D01*
X131800431Y-62869731D01*
X132465499Y-63314115D01*
X132750000Y-63370706D01*
X132750000Y-65750000D01*
X44250000Y-65750000D01*
X44250000Y-59000000D01*
X46618083Y-59000000D01*
X46819802Y-60014111D01*
X47394250Y-60873833D01*
X48253972Y-61448281D01*
X49268083Y-61650000D01*
X49371917Y-61650000D01*
X50386028Y-61448281D01*
X51245750Y-60873833D01*
X51820198Y-60014111D01*
X51917526Y-59524805D01*
X52349541Y-59524805D01*
X52752129Y-60499144D01*
X53496935Y-61245251D01*
X54470570Y-61649539D01*
X55524805Y-61650459D01*
X56499144Y-61247871D01*
X57245251Y-60503065D01*
X57649539Y-59529430D01*
X57650001Y-59000000D01*
X72618083Y-59000000D01*
X72819802Y-60014111D01*
X73394250Y-60873833D01*
X74253972Y-61448281D01*
X75268083Y-61650000D01*
X75371917Y-61650000D01*
X76386028Y-61448281D01*
X77245750Y-60873833D01*
X77820198Y-60014111D01*
X77917526Y-59524805D01*
X79349541Y-59524805D01*
X79752129Y-60499144D01*
X80496935Y-61245251D01*
X81470570Y-61649539D01*
X82524805Y-61650459D01*
X83499144Y-61247871D01*
X84245251Y-60503065D01*
X84649539Y-59529430D01*
X84650001Y-59000000D01*
X99618083Y-59000000D01*
X99819802Y-60014111D01*
X100394250Y-60873833D01*
X101253972Y-61448281D01*
X102268083Y-61650000D01*
X102371917Y-61650000D01*
X103386028Y-61448281D01*
X104245750Y-60873833D01*
X104820198Y-60014111D01*
X104917526Y-59524805D01*
X106349541Y-59524805D01*
X106752129Y-60499144D01*
X107496935Y-61245251D01*
X108470570Y-61649539D01*
X109524805Y-61650459D01*
X110499144Y-61247871D01*
X111245251Y-60503065D01*
X111649539Y-59529430D01*
X111650459Y-58475195D01*
X111247871Y-57500856D01*
X110503065Y-56754749D01*
X109529430Y-56350461D01*
X108475195Y-56349541D01*
X107500856Y-56752129D01*
X106754749Y-57496935D01*
X106350461Y-58470570D01*
X106349541Y-59524805D01*
X104917526Y-59524805D01*
X105021917Y-59000000D01*
X104820198Y-57985889D01*
X104245750Y-57126167D01*
X103386028Y-56551719D01*
X102371917Y-56350000D01*
X102268083Y-56350000D01*
X101253972Y-56551719D01*
X100394250Y-57126167D01*
X99819802Y-57985889D01*
X99618083Y-59000000D01*
X84650001Y-59000000D01*
X84650459Y-58475195D01*
X84247871Y-57500856D01*
X83503065Y-56754749D01*
X82529430Y-56350461D01*
X81475195Y-56349541D01*
X80500856Y-56752129D01*
X79754749Y-57496935D01*
X79350461Y-58470570D01*
X79349541Y-59524805D01*
X77917526Y-59524805D01*
X78021917Y-59000000D01*
X77820198Y-57985889D01*
X77245750Y-57126167D01*
X76386028Y-56551719D01*
X75371917Y-56350000D01*
X75268083Y-56350000D01*
X74253972Y-56551719D01*
X73394250Y-57126167D01*
X72819802Y-57985889D01*
X72618083Y-59000000D01*
X57650001Y-59000000D01*
X57650459Y-58475195D01*
X57247871Y-57500856D01*
X56503065Y-56754749D01*
X55529430Y-56350461D01*
X54475195Y-56349541D01*
X53500856Y-56752129D01*
X52754749Y-57496935D01*
X52350461Y-58470570D01*
X52349541Y-59524805D01*
X51917526Y-59524805D01*
X52021917Y-59000000D01*
X51820198Y-57985889D01*
X51245750Y-57126167D01*
X50386028Y-56551719D01*
X49371917Y-56350000D01*
X49268083Y-56350000D01*
X48253972Y-56551719D01*
X47394250Y-57126167D01*
X46819802Y-57985889D01*
X46618083Y-59000000D01*
X44250000Y-59000000D01*
X44250000Y-52534432D01*
X44391615Y-52669404D01*
X44534178Y-52786990D01*
X44825000Y-52707723D01*
X44825000Y-51125000D01*
X44250000Y-51125000D01*
X44250000Y-50250000D01*
X46700000Y-50250000D01*
X46700000Y-51125000D01*
X46700000Y-51125000D01*
G37*
X46700000Y-51125000D02*
X46075000Y-51125000D01*
X46075000Y-52707723D01*
X46365822Y-52786990D01*
X46508385Y-52669404D01*
X47066674Y-52137302D01*
X47378839Y-51432056D01*
X47292478Y-51250002D01*
X47458000Y-51250002D01*
X47458000Y-50250000D01*
X47516198Y-50250000D01*
X47758810Y-51469693D01*
X48495837Y-52572732D01*
X49598876Y-53309759D01*
X50900000Y-53568569D01*
X52201124Y-53309759D01*
X53304163Y-52572732D01*
X54041190Y-51469693D01*
X54283802Y-50250000D01*
X61575512Y-50250000D01*
X61575512Y-52250000D01*
X61662673Y-52713222D01*
X61936437Y-53138663D01*
X62354153Y-53424076D01*
X62850000Y-53524488D01*
X67150000Y-53524488D01*
X67613222Y-53437327D01*
X68038663Y-53163563D01*
X68324076Y-52745847D01*
X68424488Y-52250000D01*
X68424488Y-50250000D01*
X68442000Y-50250000D01*
X68442000Y-51250002D01*
X68607522Y-51250002D01*
X68521161Y-51432056D01*
X68833326Y-52137302D01*
X69391615Y-52669404D01*
X69534178Y-52786990D01*
X69825000Y-52707723D01*
X69825000Y-51125000D01*
X69200000Y-51125000D01*
X69200000Y-50250000D01*
X71700000Y-50250000D01*
X71700000Y-51125000D01*
X71075000Y-51125000D01*
X71075000Y-52707723D01*
X71365822Y-52786990D01*
X71508385Y-52669404D01*
X72066674Y-52137302D01*
X72378839Y-51432056D01*
X72292478Y-51250002D01*
X72458000Y-51250002D01*
X72458000Y-50250000D01*
X72516198Y-50250000D01*
X72758810Y-51469693D01*
X73495837Y-52572732D01*
X74598876Y-53309759D01*
X75900000Y-53568569D01*
X77201124Y-53309759D01*
X78304163Y-52572732D01*
X79041190Y-51469693D01*
X79283802Y-50250000D01*
X86575512Y-50250000D01*
X86575512Y-52250000D01*
X86662673Y-52713222D01*
X86936437Y-53138663D01*
X87354153Y-53424076D01*
X87850000Y-53524488D01*
X92150000Y-53524488D01*
X92613222Y-53437327D01*
X93038663Y-53163563D01*
X93324076Y-52745847D01*
X93424488Y-52250000D01*
X93424488Y-50250000D01*
X93442000Y-50250000D01*
X93442000Y-51250002D01*
X93607522Y-51250002D01*
X93521161Y-51432056D01*
X93833326Y-52137302D01*
X94391615Y-52669404D01*
X94534178Y-52786990D01*
X94825000Y-52707723D01*
X94825000Y-51125000D01*
X94200000Y-51125000D01*
X94200000Y-50250000D01*
X96700000Y-50250000D01*
X96700000Y-51125000D01*
X96075000Y-51125000D01*
X96075000Y-52707723D01*
X96365822Y-52786990D01*
X96508385Y-52669404D01*
X97066674Y-52137302D01*
X97378839Y-51432056D01*
X97292478Y-51250002D01*
X97458000Y-51250002D01*
X97458000Y-50250000D01*
X97516198Y-50250000D01*
X97758810Y-51469693D01*
X98495837Y-52572732D01*
X99598876Y-53309759D01*
X100900000Y-53568569D01*
X102201124Y-53309759D01*
X103304163Y-52572732D01*
X104041190Y-51469693D01*
X104283802Y-50250000D01*
X111575512Y-50250000D01*
X111575512Y-52250000D01*
X111662673Y-52713222D01*
X111936437Y-53138663D01*
X112354153Y-53424076D01*
X112850000Y-53524488D01*
X117150000Y-53524488D01*
X117613222Y-53437327D01*
X118038663Y-53163563D01*
X118324076Y-52745847D01*
X118424488Y-52250000D01*
X118424488Y-50250000D01*
X118442000Y-50250000D01*
X118442000Y-51250002D01*
X118607522Y-51250002D01*
X118521161Y-51432056D01*
X118833326Y-52137302D01*
X119391615Y-52669404D01*
X119534178Y-52786990D01*
X119825000Y-52707723D01*
X119825000Y-51125000D01*
X119200000Y-51125000D01*
X119200000Y-50250000D01*
X121700000Y-50250000D01*
X121700000Y-51125000D01*
X121075000Y-51125000D01*
X121075000Y-52707723D01*
X121365822Y-52786990D01*
X121508385Y-52669404D01*
X122066674Y-52137302D01*
X122378839Y-51432056D01*
X122292478Y-51250002D01*
X122458000Y-51250002D01*
X122458000Y-50250000D01*
X122516198Y-50250000D01*
X122758810Y-51469693D01*
X123495837Y-52572732D01*
X124598876Y-53309759D01*
X125900000Y-53568569D01*
X127201124Y-53309759D01*
X128304163Y-52572732D01*
X129041190Y-51469693D01*
X129283802Y-50250000D01*
X132750000Y-50250000D01*
X132750000Y-59389294D01*
X132465499Y-59445885D01*
X131851637Y-59856054D01*
X132021917Y-59000000D01*
X131820198Y-57985889D01*
X131245750Y-57126167D01*
X130386028Y-56551719D01*
X129371917Y-56350000D01*
X129268083Y-56350000D01*
X128253972Y-56551719D01*
X127394250Y-57126167D01*
X126819802Y-57985889D01*
X126618083Y-59000000D01*
X126819802Y-60014111D01*
X127394250Y-60873833D01*
X128253972Y-61448281D01*
X129268083Y-61650000D01*
X129371917Y-61650000D01*
X130386028Y-61448281D01*
X131245750Y-60873833D01*
X131312593Y-60773796D01*
X131200000Y-61339838D01*
X131200000Y-61420162D01*
X131356047Y-62204663D01*
X131800431Y-62869731D01*
X132465499Y-63314115D01*
X132750000Y-63370706D01*
X132750000Y-65750000D01*
X44250000Y-65750000D01*
X44250000Y-59000000D01*
X46618083Y-59000000D01*
X46819802Y-60014111D01*
X47394250Y-60873833D01*
X48253972Y-61448281D01*
X49268083Y-61650000D01*
X49371917Y-61650000D01*
X50386028Y-61448281D01*
X51245750Y-60873833D01*
X51820198Y-60014111D01*
X51917526Y-59524805D01*
X52349541Y-59524805D01*
X52752129Y-60499144D01*
X53496935Y-61245251D01*
X54470570Y-61649539D01*
X55524805Y-61650459D01*
X56499144Y-61247871D01*
X57245251Y-60503065D01*
X57649539Y-59529430D01*
X57650001Y-59000000D01*
X72618083Y-59000000D01*
X72819802Y-60014111D01*
X73394250Y-60873833D01*
X74253972Y-61448281D01*
X75268083Y-61650000D01*
X75371917Y-61650000D01*
X76386028Y-61448281D01*
X77245750Y-60873833D01*
X77820198Y-60014111D01*
X77917526Y-59524805D01*
X79349541Y-59524805D01*
X79752129Y-60499144D01*
X80496935Y-61245251D01*
X81470570Y-61649539D01*
X82524805Y-61650459D01*
X83499144Y-61247871D01*
X84245251Y-60503065D01*
X84649539Y-59529430D01*
X84650001Y-59000000D01*
X99618083Y-59000000D01*
X99819802Y-60014111D01*
X100394250Y-60873833D01*
X101253972Y-61448281D01*
X102268083Y-61650000D01*
X102371917Y-61650000D01*
X103386028Y-61448281D01*
X104245750Y-60873833D01*
X104820198Y-60014111D01*
X104917526Y-59524805D01*
X106349541Y-59524805D01*
X106752129Y-60499144D01*
X107496935Y-61245251D01*
X108470570Y-61649539D01*
X109524805Y-61650459D01*
X110499144Y-61247871D01*
X111245251Y-60503065D01*
X111649539Y-59529430D01*
X111650459Y-58475195D01*
X111247871Y-57500856D01*
X110503065Y-56754749D01*
X109529430Y-56350461D01*
X108475195Y-56349541D01*
X107500856Y-56752129D01*
X106754749Y-57496935D01*
X106350461Y-58470570D01*
X106349541Y-59524805D01*
X104917526Y-59524805D01*
X105021917Y-59000000D01*
X104820198Y-57985889D01*
X104245750Y-57126167D01*
X103386028Y-56551719D01*
X102371917Y-56350000D01*
X102268083Y-56350000D01*
X101253972Y-56551719D01*
X100394250Y-57126167D01*
X99819802Y-57985889D01*
X99618083Y-59000000D01*
X84650001Y-59000000D01*
X84650459Y-58475195D01*
X84247871Y-57500856D01*
X83503065Y-56754749D01*
X82529430Y-56350461D01*
X81475195Y-56349541D01*
X80500856Y-56752129D01*
X79754749Y-57496935D01*
X79350461Y-58470570D01*
X79349541Y-59524805D01*
X77917526Y-59524805D01*
X78021917Y-59000000D01*
X77820198Y-57985889D01*
X77245750Y-57126167D01*
X76386028Y-56551719D01*
X75371917Y-56350000D01*
X75268083Y-56350000D01*
X74253972Y-56551719D01*
X73394250Y-57126167D01*
X72819802Y-57985889D01*
X72618083Y-59000000D01*
X57650001Y-59000000D01*
X57650459Y-58475195D01*
X57247871Y-57500856D01*
X56503065Y-56754749D01*
X55529430Y-56350461D01*
X54475195Y-56349541D01*
X53500856Y-56752129D01*
X52754749Y-57496935D01*
X52350461Y-58470570D01*
X52349541Y-59524805D01*
X51917526Y-59524805D01*
X52021917Y-59000000D01*
X51820198Y-57985889D01*
X51245750Y-57126167D01*
X50386028Y-56551719D01*
X49371917Y-56350000D01*
X49268083Y-56350000D01*
X48253972Y-56551719D01*
X47394250Y-57126167D01*
X46819802Y-57985889D01*
X46618083Y-59000000D01*
X44250000Y-59000000D01*
X44250000Y-52534432D01*
X44391615Y-52669404D01*
X44534178Y-52786990D01*
X44825000Y-52707723D01*
X44825000Y-51125000D01*
X44250000Y-51125000D01*
X44250000Y-50250000D01*
X46700000Y-50250000D01*
X46700000Y-51125000D01*
M02*
