G04 #@! TF.FileFunction,Copper,L2,Bot,Signal*
%FSLAX46Y46*%
G04 Gerber Fmt 4.6, Leading zero omitted, Abs format (unit mm)*
G04 Created by KiCad (PCBNEW 4.0.7) date 10/12/20 10:19:49*
%MOMM*%
%LPD*%
G01*
G04 APERTURE LIST*
%ADD10C,0.100000*%
%ADD11C,1.600000*%
%ADD12O,1.600000X1.600000*%
%ADD13R,2.200000X2.200000*%
%ADD14O,2.200000X2.200000*%
%ADD15R,2.400000X2.400000*%
%ADD16C,2.400000*%
%ADD17C,2.200000*%
%ADD18C,2.000000*%
%ADD19R,1.600000X1.600000*%
%ADD20C,1.520000*%
%ADD21R,1.520000X1.520000*%
%ADD22R,2.000000X2.000000*%
%ADD23R,1.800000X1.800000*%
%ADD24C,1.800000*%
%ADD25C,1.440000*%
%ADD26O,2.400000X2.400000*%
%ADD27R,4.300000X4.500000*%
%ADD28O,2.500000X4.500000*%
%ADD29O,4.300000X4.500000*%
%ADD30C,2.800000*%
%ADD31O,2.800000X2.800000*%
%ADD32R,3.000000X3.000000*%
%ADD33C,3.000000*%
%ADD34C,5.500000*%
%ADD35C,4.064000*%
%ADD36O,1.800000X1.800000*%
%ADD37C,1.500000*%
%ADD38C,1.000000*%
%ADD39C,0.500000*%
%ADD40C,2.000000*%
%ADD41C,4.000000*%
G04 APERTURE END LIST*
D10*
D11*
X111100000Y-81800000D03*
D12*
X111100000Y-69100000D03*
D13*
X198500000Y-68500000D03*
D14*
X198500000Y-76120000D03*
D15*
X55000000Y-72800000D03*
D16*
X55000000Y-80300000D03*
D17*
X178460000Y-102790000D03*
X178460000Y-97710000D03*
X183540000Y-97710000D03*
X183540000Y-102790000D03*
D18*
X181000000Y-100250000D03*
D19*
X188500000Y-80000000D03*
D11*
X188500000Y-77500000D03*
D20*
X118000000Y-100460000D03*
X118000000Y-97920000D03*
D21*
X118000000Y-103000000D03*
D20*
X90550000Y-83740000D03*
X90550000Y-86280000D03*
D21*
X90550000Y-81200000D03*
D11*
X184000000Y-69000000D03*
D12*
X176380000Y-69000000D03*
D11*
X134000000Y-96250000D03*
D12*
X126500000Y-96250000D03*
D11*
X94950000Y-87950000D03*
D12*
X102450000Y-87950000D03*
D11*
X73950000Y-104550000D03*
X73950000Y-99550000D03*
X181500000Y-76500000D03*
X181500000Y-81500000D03*
X78500000Y-104750000D03*
X78500000Y-99750000D03*
D22*
X79800000Y-86800000D03*
D18*
X79800000Y-81800000D03*
D22*
X79600000Y-70400000D03*
D18*
X79600000Y-75400000D03*
D11*
X115750000Y-94000000D03*
X120750000Y-94000000D03*
X152250000Y-90750000D03*
D12*
X142250000Y-90750000D03*
D11*
X230300000Y-92400000D03*
D12*
X230300000Y-82400000D03*
D11*
X90700000Y-68450000D03*
D12*
X90700000Y-78450000D03*
D15*
X257400000Y-78800000D03*
D16*
X257400000Y-71300000D03*
D11*
X232200000Y-68600000D03*
D12*
X232200000Y-78600000D03*
D13*
X75800000Y-93000000D03*
D14*
X83420000Y-93000000D03*
D23*
X195000000Y-78750000D03*
D24*
X195000000Y-81290000D03*
D19*
X142000000Y-68750000D03*
D12*
X142000000Y-61130000D03*
D19*
X155250000Y-61250000D03*
D12*
X155250000Y-68870000D03*
D13*
X66000000Y-77000000D03*
D14*
X66000000Y-69380000D03*
D11*
X144750000Y-96750000D03*
D12*
X152370000Y-96750000D03*
D11*
X161000000Y-88750000D03*
D12*
X168620000Y-88750000D03*
D11*
X99800000Y-75950000D03*
D12*
X99800000Y-68330000D03*
D11*
X96000000Y-76000000D03*
D12*
X96000000Y-68380000D03*
D11*
X102650000Y-92950000D03*
D12*
X95030000Y-92950000D03*
D11*
X133750000Y-100750000D03*
D12*
X126130000Y-100750000D03*
D11*
X133750000Y-104250000D03*
D12*
X126130000Y-104250000D03*
D11*
X152250000Y-100250000D03*
D12*
X144630000Y-100250000D03*
D11*
X152250000Y-103750000D03*
D12*
X144630000Y-103750000D03*
D25*
X139000000Y-103000000D03*
X139000000Y-100460000D03*
X139000000Y-97920000D03*
D16*
X188500000Y-91250000D03*
D26*
X188500000Y-103950000D03*
D11*
X177750000Y-76500000D03*
D12*
X177750000Y-84120000D03*
D16*
X71200000Y-93400000D03*
D26*
X71200000Y-80700000D03*
D11*
X87000000Y-97000000D03*
D12*
X87000000Y-104620000D03*
D11*
X82750000Y-97000000D03*
D12*
X82750000Y-104620000D03*
D11*
X192750000Y-83750000D03*
D12*
X192750000Y-96450000D03*
D11*
X103500000Y-75950000D03*
D12*
X103500000Y-68330000D03*
D11*
X146250000Y-81250000D03*
D12*
X153870000Y-81250000D03*
D25*
X141250000Y-85000000D03*
X141250000Y-82460000D03*
X141250000Y-79920000D03*
D11*
X153750000Y-84750000D03*
D12*
X146130000Y-84750000D03*
D11*
X166000000Y-69250000D03*
D12*
X158380000Y-69250000D03*
D11*
X128250000Y-69000000D03*
D12*
X120630000Y-69000000D03*
D16*
X193000000Y-73000000D03*
D26*
X177760000Y-73000000D03*
D11*
X133250000Y-69000000D03*
D12*
X133250000Y-61380000D03*
D11*
X186750000Y-69250000D03*
D12*
X186750000Y-61630000D03*
D16*
X28250000Y-65500000D03*
D26*
X40950000Y-65500000D03*
D16*
X260750000Y-65000000D03*
D26*
X248050000Y-65000000D03*
D11*
X226800000Y-82400000D03*
D12*
X226800000Y-69700000D03*
D27*
X40000000Y-50000000D03*
D28*
X45450000Y-50000000D03*
D29*
X50900000Y-50000000D03*
D27*
X242000000Y-50000000D03*
D28*
X247450000Y-50000000D03*
D29*
X252900000Y-50000000D03*
D27*
X65000000Y-50000000D03*
D28*
X70450000Y-50000000D03*
D29*
X75900000Y-50000000D03*
D27*
X217000000Y-50000000D03*
D28*
X222450000Y-50000000D03*
D29*
X227900000Y-50000000D03*
D27*
X90000000Y-50000000D03*
D28*
X95450000Y-50000000D03*
D29*
X100900000Y-50000000D03*
D27*
X192000000Y-50000000D03*
D28*
X197450000Y-50000000D03*
D29*
X202900000Y-50000000D03*
D27*
X115000000Y-50000000D03*
D28*
X120450000Y-50000000D03*
D29*
X125900000Y-50000000D03*
D27*
X167000000Y-50000000D03*
D28*
X172450000Y-50000000D03*
D29*
X177900000Y-50000000D03*
D30*
X29000000Y-59000000D03*
D31*
X49320000Y-59000000D03*
D30*
X264000000Y-59000000D03*
D31*
X243680000Y-59000000D03*
D30*
X55000000Y-59000000D03*
D31*
X75320000Y-59000000D03*
D30*
X236000000Y-59000000D03*
D31*
X215680000Y-59000000D03*
D30*
X82000000Y-59000000D03*
D31*
X102320000Y-59000000D03*
D30*
X210000000Y-59000000D03*
D31*
X189680000Y-59000000D03*
D30*
X109000000Y-59000000D03*
D31*
X129320000Y-59000000D03*
D30*
X184000000Y-59000000D03*
D31*
X163680000Y-59000000D03*
D32*
X220900000Y-100900000D03*
D33*
X215820000Y-100900000D03*
D32*
X242000000Y-95600000D03*
D33*
X236920000Y-95600000D03*
D32*
X41800000Y-90500000D03*
D33*
X36720000Y-90500000D03*
D34*
X262000000Y-102000000D03*
D35*
X262000000Y-47000000D03*
D34*
X30000000Y-102000000D03*
D35*
X30000000Y-47000000D03*
D32*
X166900000Y-101800000D03*
D33*
X161820000Y-101800000D03*
D15*
X39800000Y-72400000D03*
D16*
X39800000Y-79900000D03*
D15*
X54800000Y-88000000D03*
D16*
X54800000Y-95500000D03*
D15*
X242000000Y-78800000D03*
D16*
X242000000Y-71300000D03*
D15*
X253000000Y-94200000D03*
D16*
X253000000Y-86700000D03*
X130700000Y-72900000D03*
D26*
X115460000Y-72900000D03*
D11*
X263400000Y-92000000D03*
X263400000Y-97000000D03*
X30000000Y-92000000D03*
X30000000Y-97000000D03*
D17*
X157500000Y-93250000D03*
X172500000Y-93250000D03*
D23*
X127750000Y-84000000D03*
D36*
X125210000Y-84000000D03*
X122670000Y-84000000D03*
D23*
X147000000Y-73500000D03*
D36*
X149540000Y-73500000D03*
X152080000Y-73500000D03*
D23*
X168000000Y-77750000D03*
D36*
X165460000Y-77750000D03*
X162920000Y-77750000D03*
D23*
X137000000Y-47500000D03*
D36*
X139540000Y-47500000D03*
X142080000Y-47500000D03*
D23*
X151000000Y-47500000D03*
D36*
X153540000Y-47500000D03*
X156080000Y-47500000D03*
D30*
X209600000Y-82000000D03*
X209600000Y-70570000D03*
D16*
X221000000Y-69400000D03*
D26*
X221000000Y-84640000D03*
D20*
X109800000Y-102010000D03*
X109800000Y-99470000D03*
D21*
X109800000Y-104550000D03*
D20*
X99500000Y-82140000D03*
X99500000Y-84680000D03*
D21*
X99500000Y-79600000D03*
D20*
X101350000Y-99010000D03*
X101350000Y-96470000D03*
D21*
X101350000Y-101550000D03*
D20*
X92100000Y-99410000D03*
X92100000Y-96870000D03*
D21*
X92100000Y-101950000D03*
D20*
X183790000Y-86500000D03*
X186330000Y-86500000D03*
D21*
X181250000Y-86500000D03*
D20*
X108100000Y-91840000D03*
X108100000Y-94380000D03*
D21*
X108100000Y-89300000D03*
D20*
X137400000Y-71940000D03*
X137400000Y-74480000D03*
D21*
X137400000Y-69400000D03*
D20*
X171210000Y-69250000D03*
X168670000Y-69250000D03*
D21*
X173750000Y-69250000D03*
D13*
X46700000Y-101500000D03*
D14*
X54320000Y-101500000D03*
D13*
X235800000Y-88800000D03*
D14*
X243420000Y-88800000D03*
D13*
X57600000Y-101400000D03*
D14*
X65220000Y-101400000D03*
D13*
X235800000Y-84800000D03*
D14*
X243420000Y-84800000D03*
D11*
X66000000Y-97000000D03*
D12*
X66000000Y-87000000D03*
D11*
X193850000Y-101530000D03*
D12*
X206550000Y-101530000D03*
D37*
X146600000Y-69900000D03*
D38*
X161000000Y-88750000D02*
X161000000Y-89750000D01*
X161000000Y-89750000D02*
X157500000Y-93250000D01*
X157500000Y-93250000D02*
X155870000Y-93250000D01*
X155870000Y-93250000D02*
X152370000Y-96750000D01*
D39*
X157500000Y-93250000D02*
X157120000Y-93250000D01*
D38*
X166900000Y-101800000D02*
X167500000Y-101800000D01*
X167500000Y-101800000D02*
X171000000Y-98300000D01*
X171000000Y-98300000D02*
X171000000Y-94750000D01*
X171000000Y-94750000D02*
X172500000Y-93250000D01*
X181000000Y-100250000D02*
X174350000Y-100250000D01*
X172400000Y-98300000D02*
X171000000Y-98300000D01*
X174350000Y-100250000D02*
X172400000Y-98300000D01*
D39*
X161800000Y-101950000D02*
X161800000Y-101200000D01*
D38*
X126500000Y-96250000D02*
X126500000Y-96200000D01*
X126500000Y-96200000D02*
X128700000Y-94000000D01*
X142000000Y-94000000D02*
X144750000Y-96750000D01*
X128700000Y-94000000D02*
X142000000Y-94000000D01*
X118000000Y-100460000D02*
X120340000Y-100460000D01*
X124550000Y-96250000D02*
X126500000Y-96250000D01*
X120340000Y-100460000D02*
X124550000Y-96250000D01*
D39*
X126500000Y-96250000D02*
X126500000Y-95750000D01*
X126500000Y-96250000D02*
X126750000Y-96250000D01*
X144250000Y-96750000D02*
X144750000Y-96750000D01*
D38*
X95030000Y-92950000D02*
X95030000Y-88030000D01*
X95030000Y-88030000D02*
X94950000Y-87950000D01*
D39*
X94950000Y-92870000D02*
X95030000Y-92950000D01*
X95030000Y-88030000D02*
X94950000Y-87950000D01*
D38*
X90550000Y-83740000D02*
X90550000Y-86280000D01*
X99500000Y-82140000D02*
X96560000Y-82140000D01*
X94960000Y-83740000D02*
X90550000Y-83740000D01*
X96560000Y-82140000D02*
X94960000Y-83740000D01*
X99500000Y-82140000D02*
X100240000Y-82140000D01*
X100240000Y-82140000D02*
X102450000Y-84350000D01*
X102450000Y-84350000D02*
X102450000Y-87950000D01*
X90550000Y-86280000D02*
X90550000Y-95320000D01*
X90550000Y-95320000D02*
X92100000Y-96870000D01*
X92100000Y-99410000D02*
X98990000Y-99410000D01*
X99390000Y-99010000D02*
X101350000Y-99010000D01*
X98990000Y-99410000D02*
X99390000Y-99010000D01*
X73950000Y-99550000D02*
X73950000Y-94050000D01*
X73950000Y-94050000D02*
X75000000Y-93000000D01*
X75000000Y-93000000D02*
X75800000Y-93000000D01*
X75800000Y-93000000D02*
X71600000Y-93000000D01*
X71600000Y-93000000D02*
X71200000Y-93400000D01*
X92100000Y-99410000D02*
X89690000Y-99410000D01*
X76400000Y-102000000D02*
X73950000Y-99550000D01*
X87100000Y-102000000D02*
X76400000Y-102000000D01*
X89690000Y-99410000D02*
X87100000Y-102000000D01*
D39*
X73950000Y-99550000D02*
X73950000Y-100050000D01*
X73950000Y-99550000D02*
X73950000Y-99700000D01*
X74090000Y-99410000D02*
X73950000Y-99550000D01*
X92500000Y-99010000D02*
X92100000Y-99410000D01*
X74240000Y-99260000D02*
X73950000Y-99550000D01*
D40*
X247450000Y-50000000D02*
X247450000Y-54150000D01*
X247450000Y-54150000D02*
X247000000Y-54600000D01*
D38*
X193000000Y-73000000D02*
X193000000Y-67800000D01*
X193000000Y-67800000D02*
X195800000Y-65000000D01*
X193000000Y-73000000D02*
X195380000Y-73000000D01*
X195380000Y-73000000D02*
X198500000Y-76120000D01*
X198500000Y-76120000D02*
X198500000Y-75500000D01*
X198500000Y-75500000D02*
X198100000Y-75100000D01*
X198100000Y-75100000D02*
X198500000Y-76120000D01*
X195000000Y-78750000D02*
X195870000Y-78750000D01*
X195870000Y-78750000D02*
X198500000Y-76120000D01*
X181500000Y-76500000D02*
X187500000Y-76500000D01*
X187500000Y-76500000D02*
X188500000Y-77500000D01*
X188500000Y-77500000D02*
X188500000Y-77300000D01*
X188500000Y-77300000D02*
X189750000Y-76050000D01*
X189750000Y-76050000D02*
X189750000Y-65000000D01*
X189750000Y-65000000D02*
X189500000Y-65250000D01*
X189500000Y-65250000D02*
X189500000Y-66400000D01*
X189500000Y-66400000D02*
X189500000Y-65000000D01*
X181500000Y-76500000D02*
X177750000Y-76500000D01*
X166000000Y-69250000D02*
X166000000Y-65400000D01*
X166000000Y-65400000D02*
X166200000Y-65200000D01*
D40*
X232200000Y-68600000D02*
X232200000Y-68000000D01*
X232200000Y-68000000D02*
X235200000Y-65000000D01*
X243420000Y-88800000D02*
X246800000Y-88800000D01*
X246800000Y-88800000D02*
X248200000Y-90200000D01*
D41*
X253000000Y-86700000D02*
X251700000Y-86700000D01*
X245800000Y-95600000D02*
X242000000Y-95600000D01*
X248200000Y-93200000D02*
X245800000Y-95600000D01*
X248200000Y-90200000D02*
X248200000Y-93200000D01*
X251700000Y-86700000D02*
X248200000Y-90200000D01*
X242000000Y-71300000D02*
X246300000Y-71300000D01*
X250600000Y-84300000D02*
X253000000Y-86700000D01*
X250600000Y-75600000D02*
X250600000Y-84300000D01*
X246300000Y-71300000D02*
X250600000Y-75600000D01*
X242000000Y-71300000D02*
X257400000Y-71300000D01*
X224000000Y-65000000D02*
X235200000Y-65000000D01*
X235200000Y-65000000D02*
X235700000Y-65000000D01*
X235700000Y-65000000D02*
X242000000Y-71300000D01*
D39*
X188500000Y-77500000D02*
X188500000Y-77000000D01*
X166000000Y-69250000D02*
X166000000Y-68500000D01*
X194500000Y-78250000D02*
X195000000Y-78750000D01*
X194500000Y-78250000D02*
X195000000Y-78750000D01*
X188000000Y-77000000D02*
X188500000Y-77500000D01*
X195500000Y-78750000D02*
X195000000Y-78750000D01*
X181500000Y-76500000D02*
X181500000Y-76000000D01*
D40*
X172450000Y-50000000D02*
X172450000Y-63450000D01*
X172450000Y-63450000D02*
X173750000Y-64750000D01*
X173750000Y-64750000D02*
X174000000Y-65000000D01*
X153540000Y-47500000D02*
X153540000Y-52540000D01*
X156000000Y-55000000D02*
X172450000Y-55000000D01*
X153540000Y-52540000D02*
X156000000Y-55000000D01*
D39*
X174000000Y-65000000D02*
X173500000Y-65000000D01*
X173500000Y-65000000D02*
X173250000Y-65250000D01*
X173250000Y-65250000D02*
X173250000Y-64250000D01*
D40*
X173250000Y-64250000D02*
X174000000Y-65000000D01*
X222450000Y-50000000D02*
X222450000Y-63450000D01*
X222450000Y-63450000D02*
X224000000Y-65000000D01*
X197450000Y-50000000D02*
X197450000Y-58450000D01*
X197450000Y-58450000D02*
X204000000Y-65000000D01*
X172450000Y-50000000D02*
X172450000Y-55000000D01*
D41*
X174000000Y-65000000D02*
X176000000Y-65000000D01*
X184000000Y-65000000D02*
X189500000Y-65000000D01*
X189500000Y-65000000D02*
X189750000Y-65000000D01*
X176000000Y-65000000D02*
X184000000Y-65000000D01*
X189750000Y-65000000D02*
X195800000Y-65000000D01*
X195800000Y-65000000D02*
X196000000Y-65000000D01*
X200000000Y-65000000D02*
X204000000Y-65000000D01*
X196000000Y-65000000D02*
X200000000Y-65000000D01*
X204000000Y-65000000D02*
X207000000Y-65000000D01*
X224000000Y-65000000D02*
X222000000Y-65000000D01*
X222000000Y-65000000D02*
X207000000Y-65000000D01*
D38*
X109800000Y-102010000D02*
X107890000Y-102010000D01*
X106400000Y-105200000D02*
X87580000Y-105200000D01*
X107100000Y-104100000D02*
X106400000Y-105200000D01*
X107100000Y-102800000D02*
X107100000Y-104100000D01*
X107890000Y-102010000D02*
X107100000Y-102800000D01*
X87580000Y-105200000D02*
X87000000Y-104620000D01*
X87000000Y-104620000D02*
X82750000Y-104620000D01*
X82750000Y-104620000D02*
X78630000Y-104620000D01*
X78630000Y-104620000D02*
X78500000Y-104750000D01*
D39*
X82620000Y-104750000D02*
X82750000Y-104620000D01*
X78670000Y-104920000D02*
X78500000Y-104750000D01*
X78580000Y-104670000D02*
X78500000Y-104750000D01*
X82900000Y-104770000D02*
X82750000Y-104620000D01*
X109800000Y-102010000D02*
X109340000Y-102010000D01*
D41*
X209600000Y-82000000D02*
X211400000Y-82000000D01*
X218360000Y-82000000D02*
X221000000Y-84640000D01*
X211400000Y-82000000D02*
X218360000Y-82000000D01*
X221000000Y-84640000D02*
X221000000Y-100800000D01*
X221000000Y-100800000D02*
X220900000Y-100900000D01*
D40*
X79600000Y-75400000D02*
X79600000Y-81600000D01*
X79600000Y-81600000D02*
X79800000Y-81800000D01*
D38*
X108100000Y-91840000D02*
X113590000Y-91840000D01*
X113590000Y-91840000D02*
X115750000Y-94000000D01*
X99500000Y-84680000D02*
X99500000Y-91200000D01*
X101250000Y-92950000D02*
X102650000Y-92950000D01*
X99500000Y-91200000D02*
X101250000Y-92950000D01*
X108900000Y-91840000D02*
X103760000Y-91840000D01*
X103760000Y-91840000D02*
X102650000Y-92950000D01*
X102650000Y-92950000D02*
X102650000Y-95170000D01*
X102650000Y-95170000D02*
X101350000Y-96470000D01*
D39*
X108100000Y-91840000D02*
X108900000Y-91840000D01*
X107940000Y-91650000D02*
X108150000Y-91860000D01*
X108290000Y-92000000D02*
X108150000Y-91860000D01*
X102800000Y-93100000D02*
X102650000Y-92950000D01*
D38*
X142000000Y-61130000D02*
X144730000Y-61130000D01*
X149540000Y-65940000D02*
X149540000Y-73500000D01*
X144730000Y-61130000D02*
X149540000Y-65940000D01*
X153870000Y-81250000D02*
X150350000Y-81250000D01*
X150350000Y-81250000D02*
X149540000Y-82060000D01*
X149540000Y-73500000D02*
X149540000Y-82060000D01*
X149540000Y-82060000D02*
X149540000Y-87460000D01*
X146250000Y-90750000D02*
X142250000Y-90750000D01*
X149540000Y-87460000D02*
X146250000Y-90750000D01*
X125210000Y-84000000D02*
X125210000Y-90390000D01*
X125210000Y-90390000D02*
X124850000Y-90750000D01*
X142250000Y-90750000D02*
X124850000Y-90750000D01*
X124850000Y-90750000D02*
X124000000Y-90750000D01*
X124000000Y-90750000D02*
X120750000Y-94000000D01*
D39*
X142750000Y-90250000D02*
X142250000Y-90750000D01*
X125050000Y-84160000D02*
X125210000Y-84000000D01*
X142130000Y-90870000D02*
X142250000Y-90750000D01*
X142000000Y-61130000D02*
X142000000Y-61500000D01*
X142080000Y-61050000D02*
X142000000Y-61130000D01*
D38*
X152080000Y-73500000D02*
X152080000Y-73980000D01*
X152080000Y-73980000D02*
X158800000Y-80700000D01*
X153750000Y-84750000D02*
X154750000Y-84750000D01*
X165460000Y-80140000D02*
X165460000Y-77750000D01*
X164900000Y-80700000D02*
X165460000Y-80140000D01*
X158800000Y-80700000D02*
X164900000Y-80700000D01*
X154750000Y-84750000D02*
X158800000Y-80700000D01*
X152080000Y-73500000D02*
X152080000Y-64420000D01*
X152080000Y-64420000D02*
X155250000Y-61250000D01*
X153750000Y-84750000D02*
X153750000Y-89250000D01*
X153750000Y-89250000D02*
X152250000Y-90750000D01*
D39*
X153750000Y-84750000D02*
X153750000Y-85500000D01*
X165460000Y-78540000D02*
X165460000Y-77750000D01*
X152600000Y-74020000D02*
X152080000Y-73500000D01*
X155250000Y-62000000D02*
X155250000Y-61250000D01*
X155080000Y-61080000D02*
X155250000Y-61250000D01*
D38*
X111100000Y-69100000D02*
X111100000Y-65100000D01*
X111100000Y-65100000D02*
X111000000Y-65000000D01*
X96000000Y-68380000D02*
X96000000Y-65000000D01*
X96000000Y-65000000D02*
X95800000Y-65200000D01*
X95800000Y-65200000D02*
X95800000Y-65900000D01*
X95800000Y-65900000D02*
X95800000Y-65200000D01*
D41*
X97000000Y-64000000D02*
X95800000Y-65200000D01*
X95800000Y-65200000D02*
X96000000Y-65000000D01*
X97000000Y-65000000D02*
X99000000Y-65000000D01*
X97000000Y-64000000D02*
X97000000Y-65000000D01*
D38*
X99800000Y-68330000D02*
X99800000Y-65800000D01*
X99800000Y-65800000D02*
X99000000Y-65000000D01*
X103500000Y-68330000D02*
X103500000Y-67200000D01*
X103500000Y-67200000D02*
X101300000Y-65000000D01*
X115460000Y-72900000D02*
X115460000Y-66460000D01*
X115460000Y-66460000D02*
X114000000Y-65000000D01*
D40*
X41800000Y-90500000D02*
X44100000Y-90500000D01*
X46700000Y-93100000D02*
X46700000Y-101500000D01*
X44100000Y-90500000D02*
X46700000Y-93100000D01*
D41*
X48400000Y-88000000D02*
X48400000Y-73400000D01*
X48400000Y-73400000D02*
X47400000Y-72400000D01*
X41800000Y-90500000D02*
X41800000Y-89600000D01*
X41800000Y-89600000D02*
X43400000Y-88000000D01*
X43400000Y-88000000D02*
X48400000Y-88000000D01*
X48400000Y-88000000D02*
X54800000Y-88000000D01*
D40*
X66000000Y-77000000D02*
X67500000Y-77000000D01*
X67500000Y-77000000D02*
X71200000Y-80700000D01*
X66000000Y-77000000D02*
X59200000Y-77000000D01*
X59200000Y-77000000D02*
X55000000Y-72800000D01*
D41*
X39800000Y-72400000D02*
X47400000Y-72400000D01*
X47400000Y-72400000D02*
X54600000Y-72400000D01*
X54600000Y-72400000D02*
X55000000Y-72800000D01*
X55000000Y-72800000D02*
X55000000Y-67600000D01*
X55000000Y-67600000D02*
X57275676Y-65324324D01*
D40*
X90700000Y-68450000D02*
X91000000Y-65000000D01*
D39*
X96000000Y-65000000D02*
X96250000Y-65250000D01*
X96250000Y-65250000D02*
X96250000Y-65450000D01*
X96250000Y-65450000D02*
X96250000Y-65250000D01*
D41*
X64945946Y-65324324D02*
X59925676Y-65324324D01*
X59925676Y-65324324D02*
X57275676Y-65324324D01*
X57275676Y-65324324D02*
X49675676Y-65324324D01*
X49675676Y-65324324D02*
X50324324Y-65324324D01*
X50324324Y-65324324D02*
X50000000Y-65000000D01*
D40*
X139540000Y-47500000D02*
X139540000Y-51460000D01*
X136000000Y-55000000D02*
X120450000Y-55000000D01*
X139540000Y-51460000D02*
X136000000Y-55000000D01*
D39*
X104500000Y-65000000D02*
X104500000Y-65500000D01*
X104500000Y-65500000D02*
X104500000Y-65000000D01*
X99000000Y-65000000D02*
X99000000Y-65500000D01*
X99000000Y-65500000D02*
X99000000Y-65000000D01*
D40*
X45450000Y-50000000D02*
X45450000Y-63200000D01*
X45450000Y-63200000D02*
X47250000Y-65000000D01*
X47250000Y-65000000D02*
X50000000Y-65000000D01*
X91000000Y-65000000D02*
X91000000Y-66000000D01*
X91000000Y-66000000D02*
X91000000Y-65000000D01*
D41*
X64945946Y-65324324D02*
X65000000Y-65000000D01*
D40*
X95450000Y-64450000D02*
X96250000Y-65250000D01*
X96250000Y-65250000D02*
X96000000Y-65000000D01*
D41*
X96000000Y-65000000D02*
X91000000Y-65000000D01*
X91000000Y-65000000D02*
X85750000Y-65000000D01*
X85750000Y-65000000D02*
X81000000Y-65000000D01*
X81000000Y-65000000D02*
X75950000Y-65000000D01*
X75950000Y-65000000D02*
X70000000Y-65000000D01*
X70000000Y-65000000D02*
X65000000Y-65000000D01*
X99000000Y-65000000D02*
X101300000Y-65000000D01*
X101300000Y-65000000D02*
X104500000Y-65000000D01*
X104500000Y-65000000D02*
X106875000Y-65000000D01*
X106875000Y-65000000D02*
X109300000Y-65000000D01*
X109300000Y-65000000D02*
X111000000Y-65000000D01*
X111000000Y-65000000D02*
X114000000Y-65000000D01*
X114000000Y-65000000D02*
X116000000Y-65000000D01*
D40*
X120450000Y-60000000D02*
X120450000Y-60550000D01*
X120450000Y-60550000D02*
X118250000Y-62750000D01*
X118250000Y-62750000D02*
X116000000Y-65000000D01*
X70450000Y-65000000D02*
X70000000Y-65450000D01*
X120450000Y-50000000D02*
X120450000Y-55000000D01*
X120450000Y-55000000D02*
X120450000Y-55250000D01*
X120450000Y-55250000D02*
X120450000Y-60000000D01*
X95450000Y-50000000D02*
X95450000Y-64450000D01*
X70450000Y-50000000D02*
X70450000Y-65000000D01*
D38*
X142000000Y-68750000D02*
X142000000Y-72300000D01*
X139820000Y-74480000D02*
X137400000Y-74480000D01*
X142000000Y-72300000D02*
X139820000Y-74480000D01*
X155250000Y-68870000D02*
X155250000Y-68450000D01*
X155250000Y-68450000D02*
X156400000Y-67300000D01*
X168670000Y-71230000D02*
X168670000Y-69250000D01*
X168600000Y-71300000D02*
X168670000Y-71230000D01*
X163700000Y-71300000D02*
X168600000Y-71300000D01*
X159700000Y-67300000D02*
X163700000Y-71300000D01*
X156400000Y-67300000D02*
X159700000Y-67300000D01*
D39*
X168670000Y-69250000D02*
X168670000Y-69330000D01*
X155250000Y-68870000D02*
X155880000Y-68870000D01*
X155380000Y-69000000D02*
X155250000Y-68870000D01*
X155480000Y-69100000D02*
X155250000Y-68870000D01*
D38*
X101350000Y-101550000D02*
X101850000Y-101550000D01*
X101850000Y-101550000D02*
X103600000Y-99800000D01*
X115120000Y-97920000D02*
X118000000Y-97920000D01*
X114200000Y-97000000D02*
X115120000Y-97920000D01*
X105100000Y-97000000D02*
X114200000Y-97000000D01*
X103600000Y-98500000D02*
X105100000Y-97000000D01*
X103600000Y-99800000D02*
X103600000Y-98500000D01*
D39*
X101350000Y-101550000D02*
X101950000Y-101550000D01*
X101350000Y-101550000D02*
X101350000Y-101400000D01*
D38*
X118000000Y-103000000D02*
X122200000Y-103000000D01*
X124450000Y-100750000D02*
X126130000Y-100750000D01*
X122200000Y-103000000D02*
X124450000Y-100750000D01*
X109800000Y-99470000D02*
X106330000Y-99470000D01*
X93550000Y-103400000D02*
X92100000Y-101950000D01*
X103800000Y-103400000D02*
X93550000Y-103400000D01*
X105300000Y-101900000D02*
X103800000Y-103400000D01*
X105300000Y-100500000D02*
X105300000Y-101900000D01*
X106330000Y-99470000D02*
X105300000Y-100500000D01*
X109800000Y-104550000D02*
X110150000Y-104550000D01*
X110150000Y-104550000D02*
X110900000Y-105300000D01*
X110900000Y-105300000D02*
X125080000Y-105300000D01*
X125080000Y-105300000D02*
X126130000Y-104250000D01*
D39*
X109950000Y-105200000D02*
X109800000Y-105050000D01*
X110160000Y-104190000D02*
X109800000Y-105050000D01*
X125790000Y-104590000D02*
X126130000Y-104250000D01*
D38*
X186330000Y-86500000D02*
X188000000Y-86500000D01*
X188500000Y-87000000D02*
X188500000Y-91250000D01*
X188000000Y-86500000D02*
X188500000Y-87000000D01*
D39*
X186330000Y-86500000D02*
X187000000Y-86500000D01*
X187830000Y-90580000D02*
X188500000Y-91250000D01*
D38*
X177750000Y-84120000D02*
X177750000Y-84150000D01*
X177750000Y-84150000D02*
X180100000Y-86500000D01*
X180100000Y-86500000D02*
X181250000Y-86500000D01*
D39*
X177750000Y-84120000D02*
X177750000Y-84750000D01*
D38*
X111100000Y-81800000D02*
X120470000Y-81800000D01*
X120470000Y-81800000D02*
X122670000Y-84000000D01*
X122670000Y-84000000D02*
X122670000Y-84730000D01*
X108100000Y-89300000D02*
X108100000Y-87600000D01*
X107710000Y-87210000D02*
X107710000Y-78600000D01*
X108100000Y-87600000D02*
X107710000Y-87210000D01*
X103500000Y-75950000D02*
X103650000Y-75950000D01*
X103650000Y-75950000D02*
X106300000Y-78600000D01*
X127750000Y-82450000D02*
X127750000Y-84000000D01*
X123900000Y-78600000D02*
X127750000Y-82450000D01*
X106300000Y-78600000D02*
X107710000Y-78600000D01*
X107710000Y-78600000D02*
X123900000Y-78600000D01*
D39*
X103500000Y-75950000D02*
X103900000Y-75950000D01*
D38*
X133250000Y-69000000D02*
X133250000Y-70050000D01*
X133250000Y-70050000D02*
X135140000Y-71940000D01*
X135140000Y-71940000D02*
X137400000Y-71940000D01*
X130300000Y-69000000D02*
X130300000Y-72500000D01*
X130300000Y-72500000D02*
X130700000Y-72900000D01*
X133250000Y-69000000D02*
X130300000Y-69000000D01*
X130300000Y-69000000D02*
X128250000Y-69000000D01*
D39*
X130400000Y-72600000D02*
X130700000Y-72900000D01*
D38*
X186750000Y-69250000D02*
X186750000Y-70150000D01*
X183900000Y-73000000D02*
X177760000Y-73000000D01*
X186750000Y-70150000D02*
X183900000Y-73000000D01*
X177760000Y-73000000D02*
X177760000Y-70380000D01*
X177760000Y-70380000D02*
X176380000Y-69000000D01*
X171210000Y-69250000D02*
X171210000Y-70610000D01*
X173600000Y-73000000D02*
X177760000Y-73000000D01*
X171210000Y-70610000D02*
X173600000Y-73000000D01*
X139000000Y-97920000D02*
X141520000Y-97920000D01*
X141520000Y-97920000D02*
X143850000Y-100250000D01*
X143850000Y-100250000D02*
X144630000Y-100250000D01*
X133750000Y-100750000D02*
X134150000Y-100750000D01*
X134150000Y-100750000D02*
X136980000Y-97920000D01*
X136980000Y-97920000D02*
X139000000Y-97920000D01*
D39*
X133750000Y-100750000D02*
X134000000Y-100750000D01*
X138920000Y-98000000D02*
X139000000Y-97920000D01*
D38*
X139000000Y-103000000D02*
X139000000Y-103400000D01*
X139000000Y-103400000D02*
X140100000Y-104500000D01*
X143880000Y-104500000D02*
X144630000Y-103750000D01*
X140100000Y-104500000D02*
X143880000Y-104500000D01*
X139000000Y-103000000D02*
X139000000Y-103500000D01*
X139000000Y-103500000D02*
X138250000Y-104250000D01*
X138250000Y-104250000D02*
X133750000Y-104250000D01*
D39*
X139000000Y-103000000D02*
X139000000Y-103150000D01*
X139000000Y-103150000D02*
X139350000Y-103500000D01*
X139000000Y-103000000D02*
X138900000Y-103000000D01*
X144130000Y-103250000D02*
X144630000Y-103750000D01*
X139000000Y-103000000D02*
X138875000Y-103000000D01*
D38*
X152250000Y-103750000D02*
X153650000Y-103750000D01*
X187450000Y-105000000D02*
X188500000Y-103950000D01*
X154900000Y-105000000D02*
X187450000Y-105000000D01*
X153650000Y-103750000D02*
X154900000Y-105000000D01*
X152250000Y-102000000D02*
X142300000Y-102000000D01*
X140660000Y-100460000D02*
X139000000Y-100460000D01*
X142300000Y-102000000D02*
X140660000Y-100460000D01*
X152250000Y-100250000D02*
X152250000Y-102000000D01*
X152250000Y-102000000D02*
X152250000Y-103750000D01*
D39*
X188500000Y-103950000D02*
X187550000Y-103950000D01*
X152250000Y-103750000D02*
X152500000Y-103750000D01*
D38*
X141250000Y-82460000D02*
X141250000Y-85000000D01*
X146130000Y-84750000D02*
X141500000Y-84750000D01*
X141500000Y-84750000D02*
X141250000Y-85000000D01*
D39*
X141500000Y-84750000D02*
X141250000Y-85000000D01*
X141250000Y-85000000D02*
X141250000Y-85500000D01*
X141250000Y-85000000D02*
X141500000Y-85000000D01*
X145630000Y-85250000D02*
X146130000Y-84750000D01*
D38*
X263400000Y-97000000D02*
X263400000Y-100600000D01*
X263400000Y-100600000D02*
X262000000Y-102000000D01*
X30000000Y-97000000D02*
X30000000Y-102000000D01*
X141250000Y-79920000D02*
X144920000Y-79920000D01*
X144920000Y-79920000D02*
X146250000Y-81250000D01*
X147000000Y-73500000D02*
X147000000Y-80500000D01*
X147000000Y-80500000D02*
X146250000Y-81250000D01*
D39*
X146250000Y-81250000D02*
X146250000Y-80750000D01*
X146250000Y-74250000D02*
X147000000Y-73500000D01*
X141250000Y-79920000D02*
X141670000Y-79670000D01*
D38*
X158380000Y-69250000D02*
X158380000Y-73210000D01*
X158380000Y-73210000D02*
X162920000Y-77750000D01*
D39*
X162920000Y-77750000D02*
X162920000Y-77830000D01*
D40*
X65500000Y-44500000D02*
X65500000Y-49500000D01*
X65500000Y-49500000D02*
X65000000Y-50000000D01*
X90500000Y-44500000D02*
X90500000Y-49500000D01*
X90500000Y-49500000D02*
X90000000Y-50000000D01*
X115000000Y-50000000D02*
X115000000Y-45000000D01*
X115000000Y-45000000D02*
X115500000Y-44500000D01*
X40000000Y-50000000D02*
X40000000Y-47000000D01*
X40000000Y-47000000D02*
X42500000Y-44500000D01*
X42500000Y-44500000D02*
X65500000Y-44500000D01*
X65500000Y-44500000D02*
X90500000Y-44500000D01*
X90500000Y-44500000D02*
X115500000Y-44500000D01*
X142080000Y-46080000D02*
X142080000Y-47500000D01*
X115500000Y-44500000D02*
X140500000Y-44500000D01*
X140500000Y-44500000D02*
X142080000Y-46080000D01*
X40000000Y-50000000D02*
X40000000Y-64550000D01*
X40000000Y-64550000D02*
X40950000Y-65500000D01*
X40950000Y-65450000D02*
X40950000Y-65500000D01*
X167000000Y-50000000D02*
X167000000Y-44500000D01*
X166500000Y-45000000D02*
X166500000Y-44500000D01*
X167000000Y-44500000D02*
X166500000Y-45000000D01*
X168000000Y-49000000D02*
X167000000Y-50000000D01*
X192500000Y-44500000D02*
X192500000Y-49500000D01*
X192500000Y-49500000D02*
X192000000Y-50000000D01*
X217000000Y-50000000D02*
X217000000Y-44500000D01*
X217000000Y-44500000D02*
X217000000Y-45000000D01*
X217000000Y-45000000D02*
X217000000Y-44500000D01*
X156080000Y-47500000D02*
X156080000Y-47420000D01*
X156080000Y-47420000D02*
X159000000Y-44500000D01*
X159000000Y-44500000D02*
X166500000Y-44500000D01*
X166500000Y-44500000D02*
X168000000Y-44500000D01*
X168000000Y-44500000D02*
X192500000Y-44500000D01*
X192500000Y-44500000D02*
X217000000Y-44500000D01*
X217000000Y-44500000D02*
X238500000Y-44500000D01*
X238500000Y-44500000D02*
X242000000Y-48000000D01*
X242000000Y-48000000D02*
X242000000Y-50000000D01*
X230300000Y-82400000D02*
X226900000Y-82300000D01*
X226900000Y-82300000D02*
X226800000Y-82400000D01*
D38*
X99800000Y-75950000D02*
X99800000Y-79300000D01*
X99800000Y-79300000D02*
X99500000Y-79600000D01*
D39*
X99800000Y-79300000D02*
X99500000Y-79600000D01*
X99800000Y-75950000D02*
X100100000Y-75950000D01*
D38*
X96000000Y-76000000D02*
X96000000Y-77900000D01*
X92700000Y-81200000D02*
X90550000Y-81200000D01*
X96000000Y-77900000D02*
X92700000Y-81200000D01*
D40*
X57600000Y-101400000D02*
X54420000Y-101400000D01*
X54420000Y-101400000D02*
X54320000Y-101500000D01*
X235800000Y-88800000D02*
X238600000Y-88800000D01*
X240400000Y-84800000D02*
X243420000Y-84800000D01*
X239600000Y-85600000D02*
X240400000Y-84800000D01*
X239600000Y-87800000D02*
X239600000Y-85600000D01*
X238600000Y-88800000D02*
X239600000Y-87800000D01*
X243420000Y-84800000D02*
X243200000Y-84800000D01*
D38*
X192750000Y-83750000D02*
X192750000Y-82350000D01*
X192750000Y-82350000D02*
X191690000Y-81290000D01*
X188500000Y-80000000D02*
X188800000Y-80000000D01*
X188800000Y-80000000D02*
X190090000Y-81290000D01*
X190090000Y-81290000D02*
X191690000Y-81290000D01*
X191690000Y-81290000D02*
X195000000Y-81290000D01*
X181500000Y-81500000D02*
X182300000Y-81500000D01*
X182300000Y-81500000D02*
X183790000Y-82990000D01*
X183790000Y-82990000D02*
X183790000Y-86500000D01*
X188500000Y-80000000D02*
X183000000Y-80000000D01*
X183000000Y-80000000D02*
X181500000Y-81500000D01*
X168000000Y-77750000D02*
X168000000Y-78200000D01*
X168000000Y-78200000D02*
X171300000Y-81500000D01*
X171300000Y-81500000D02*
X181500000Y-81500000D01*
D39*
X188500000Y-80000000D02*
X188500000Y-80250000D01*
X195000000Y-81290000D02*
X194460000Y-81290000D01*
X181500000Y-81500000D02*
X181750000Y-81500000D01*
X168000000Y-77750000D02*
X168000000Y-78250000D01*
X188500000Y-80000000D02*
X188000000Y-80000000D01*
X194460000Y-80750000D02*
X195000000Y-81290000D01*
D38*
X79800000Y-86800000D02*
X79800000Y-95800000D01*
X81000000Y-97000000D02*
X82750000Y-97000000D01*
X79800000Y-95800000D02*
X81000000Y-97000000D01*
D40*
X79800000Y-86800000D02*
X66200000Y-86800000D01*
X66200000Y-86800000D02*
X66000000Y-87000000D01*
D38*
X109800000Y-71900000D02*
X113000000Y-75100000D01*
X90900000Y-71900000D02*
X109800000Y-71900000D01*
X87000000Y-75800000D02*
X90900000Y-71900000D01*
X118100000Y-76700000D02*
X140900000Y-76700000D01*
X143900000Y-70900000D02*
X144900000Y-69900000D01*
X144900000Y-69900000D02*
X146600000Y-69900000D01*
X140900000Y-76700000D02*
X143900000Y-73700000D01*
X143900000Y-73700000D02*
X143900000Y-70900000D01*
X114700000Y-76700000D02*
X118100000Y-76700000D01*
X113100000Y-75100000D02*
X114700000Y-76700000D01*
X113000000Y-75100000D02*
X113100000Y-75100000D01*
X87000000Y-97000000D02*
X87000000Y-75800000D01*
X87000000Y-97000000D02*
X87000000Y-97700000D01*
X87000000Y-97700000D02*
X84950000Y-99750000D01*
X84950000Y-99750000D02*
X78500000Y-99750000D01*
D39*
X87000000Y-97000000D02*
X86600000Y-97000000D01*
X87000000Y-97000000D02*
X87000000Y-97350000D01*
D40*
X209600000Y-70570000D02*
X209020000Y-70570000D01*
X209020000Y-70570000D02*
X202960000Y-76630000D01*
X206550000Y-97820000D02*
X206550000Y-101530000D01*
X202960000Y-94230000D02*
X206550000Y-97820000D01*
X202960000Y-76630000D02*
X202960000Y-94230000D01*
D39*
X163250000Y-59430000D02*
X163680000Y-59000000D01*
G36*
X163575512Y-52250000D02*
X163662673Y-52713222D01*
X163936437Y-53138663D01*
X164354153Y-53424076D01*
X164850000Y-53524488D01*
X169150000Y-53524488D01*
X169613222Y-53437327D01*
X170038663Y-53163563D01*
X170324076Y-52745847D01*
X170424488Y-52250000D01*
X170424488Y-50250000D01*
X170442000Y-50250000D01*
X170442000Y-51250002D01*
X170607522Y-51250002D01*
X170521161Y-51432056D01*
X170833326Y-52137302D01*
X171391615Y-52669404D01*
X171534178Y-52786990D01*
X171825000Y-52707723D01*
X171825000Y-51125000D01*
X171200000Y-51125000D01*
X171200000Y-50250000D01*
X173700000Y-50250000D01*
X173700000Y-51125000D01*
X173075000Y-51125000D01*
X173075000Y-52707723D01*
X173365822Y-52786990D01*
X173508385Y-52669404D01*
X174066674Y-52137302D01*
X174378839Y-51432056D01*
X174292478Y-51250002D01*
X174458000Y-51250002D01*
X174458000Y-50250000D01*
X174516198Y-50250000D01*
X174758810Y-51469693D01*
X175495837Y-52572732D01*
X176598876Y-53309759D01*
X177900000Y-53568569D01*
X179201124Y-53309759D01*
X180304163Y-52572732D01*
X181041190Y-51469693D01*
X181283802Y-50250000D01*
X188575512Y-50250000D01*
X188575512Y-52250000D01*
X188662673Y-52713222D01*
X188936437Y-53138663D01*
X189354153Y-53424076D01*
X189850000Y-53524488D01*
X194150000Y-53524488D01*
X194613222Y-53437327D01*
X195038663Y-53163563D01*
X195324076Y-52745847D01*
X195424488Y-52250000D01*
X195424488Y-50250000D01*
X195442000Y-50250000D01*
X195442000Y-51250002D01*
X195607522Y-51250002D01*
X195521161Y-51432056D01*
X195833326Y-52137302D01*
X196391615Y-52669404D01*
X196534178Y-52786990D01*
X196825000Y-52707723D01*
X196825000Y-51125000D01*
X196200000Y-51125000D01*
X196200000Y-50250000D01*
X198700000Y-50250000D01*
X198700000Y-51125000D01*
X198075000Y-51125000D01*
X198075000Y-52707723D01*
X198365822Y-52786990D01*
X198508385Y-52669404D01*
X199066674Y-52137302D01*
X199378839Y-51432056D01*
X199292478Y-51250002D01*
X199458000Y-51250002D01*
X199458000Y-50250000D01*
X199516198Y-50250000D01*
X199758810Y-51469693D01*
X200495837Y-52572732D01*
X201598876Y-53309759D01*
X202900000Y-53568569D01*
X204201124Y-53309759D01*
X205304163Y-52572732D01*
X206041190Y-51469693D01*
X206283802Y-50250000D01*
X213575512Y-50250000D01*
X213575512Y-52250000D01*
X213662673Y-52713222D01*
X213936437Y-53138663D01*
X214354153Y-53424076D01*
X214850000Y-53524488D01*
X219150000Y-53524488D01*
X219613222Y-53437327D01*
X220038663Y-53163563D01*
X220324076Y-52745847D01*
X220424488Y-52250000D01*
X220424488Y-50250000D01*
X220442000Y-50250000D01*
X220442000Y-51250002D01*
X220607522Y-51250002D01*
X220521161Y-51432056D01*
X220833326Y-52137302D01*
X221391615Y-52669404D01*
X221534178Y-52786990D01*
X221825000Y-52707723D01*
X221825000Y-51125000D01*
X221200000Y-51125000D01*
X221200000Y-50250000D01*
X223700000Y-50250000D01*
X223700000Y-51125000D01*
X223075000Y-51125000D01*
X223075000Y-52707723D01*
X223365822Y-52786990D01*
X223508385Y-52669404D01*
X224066674Y-52137302D01*
X224378839Y-51432056D01*
X224292478Y-51250002D01*
X224458000Y-51250002D01*
X224458000Y-50250000D01*
X224516198Y-50250000D01*
X224758810Y-51469693D01*
X225495837Y-52572732D01*
X226598876Y-53309759D01*
X227900000Y-53568569D01*
X229201124Y-53309759D01*
X230304163Y-52572732D01*
X231041190Y-51469693D01*
X231283802Y-50250000D01*
X238575512Y-50250000D01*
X238575512Y-52250000D01*
X238662673Y-52713222D01*
X238936437Y-53138663D01*
X239354153Y-53424076D01*
X239850000Y-53524488D01*
X244150000Y-53524488D01*
X244613222Y-53437327D01*
X245038663Y-53163563D01*
X245324076Y-52745847D01*
X245424488Y-52250000D01*
X245424488Y-50250000D01*
X245442000Y-50250000D01*
X245442000Y-51250002D01*
X245607522Y-51250002D01*
X245521161Y-51432056D01*
X245833326Y-52137302D01*
X246391615Y-52669404D01*
X246534178Y-52786990D01*
X246825000Y-52707723D01*
X246825000Y-51125000D01*
X246200000Y-51125000D01*
X246200000Y-50250000D01*
X248700000Y-50250000D01*
X248700000Y-51125000D01*
X248075000Y-51125000D01*
X248075000Y-52707723D01*
X248365822Y-52786990D01*
X248508385Y-52669404D01*
X249066674Y-52137302D01*
X249378839Y-51432056D01*
X249292478Y-51250002D01*
X249458000Y-51250002D01*
X249458000Y-50250000D01*
X249516198Y-50250000D01*
X249750000Y-51425402D01*
X249750000Y-63213860D01*
X249035572Y-62736495D01*
X248097998Y-62550000D01*
X248002002Y-62550000D01*
X247064428Y-62736495D01*
X246269590Y-63267588D01*
X245738497Y-64062426D01*
X245552002Y-65000000D01*
X245701186Y-65750000D01*
X160469653Y-65750000D01*
X160369696Y-65683211D01*
X160250000Y-65659402D01*
X160250000Y-59000000D01*
X160978083Y-59000000D01*
X161179802Y-60014111D01*
X161754250Y-60873833D01*
X162613972Y-61448281D01*
X163628083Y-61650000D01*
X163731917Y-61650000D01*
X164746028Y-61448281D01*
X165605750Y-60873833D01*
X166180198Y-60014111D01*
X166277526Y-59524805D01*
X181349541Y-59524805D01*
X181752129Y-60499144D01*
X182496935Y-61245251D01*
X183470570Y-61649539D01*
X184524805Y-61650459D01*
X184702550Y-61577016D01*
X184700000Y-61589838D01*
X184700000Y-61670162D01*
X184856047Y-62454663D01*
X185300431Y-63119731D01*
X185965499Y-63564115D01*
X186750000Y-63720162D01*
X187534501Y-63564115D01*
X188199569Y-63119731D01*
X188643953Y-62454663D01*
X188800000Y-61670162D01*
X188800000Y-61589838D01*
X188778346Y-61480977D01*
X189628083Y-61650000D01*
X189731917Y-61650000D01*
X190746028Y-61448281D01*
X191605750Y-60873833D01*
X192180198Y-60014111D01*
X192277526Y-59524805D01*
X207349541Y-59524805D01*
X207752129Y-60499144D01*
X208496935Y-61245251D01*
X209470570Y-61649539D01*
X210524805Y-61650459D01*
X211499144Y-61247871D01*
X212245251Y-60503065D01*
X212649539Y-59529430D01*
X212650001Y-59000000D01*
X212978083Y-59000000D01*
X213179802Y-60014111D01*
X213754250Y-60873833D01*
X214613972Y-61448281D01*
X215628083Y-61650000D01*
X215731917Y-61650000D01*
X216746028Y-61448281D01*
X217605750Y-60873833D01*
X218180198Y-60014111D01*
X218277526Y-59524805D01*
X233349541Y-59524805D01*
X233752129Y-60499144D01*
X234496935Y-61245251D01*
X235470570Y-61649539D01*
X236524805Y-61650459D01*
X237499144Y-61247871D01*
X238245251Y-60503065D01*
X238649539Y-59529430D01*
X238650001Y-59000000D01*
X240978083Y-59000000D01*
X241179802Y-60014111D01*
X241754250Y-60873833D01*
X242613972Y-61448281D01*
X243628083Y-61650000D01*
X243731917Y-61650000D01*
X244746028Y-61448281D01*
X245605750Y-60873833D01*
X246180198Y-60014111D01*
X246381917Y-59000000D01*
X246180198Y-57985889D01*
X245605750Y-57126167D01*
X244746028Y-56551719D01*
X243731917Y-56350000D01*
X243628083Y-56350000D01*
X242613972Y-56551719D01*
X241754250Y-57126167D01*
X241179802Y-57985889D01*
X240978083Y-59000000D01*
X238650001Y-59000000D01*
X238650459Y-58475195D01*
X238247871Y-57500856D01*
X237503065Y-56754749D01*
X236529430Y-56350461D01*
X235475195Y-56349541D01*
X234500856Y-56752129D01*
X233754749Y-57496935D01*
X233350461Y-58470570D01*
X233349541Y-59524805D01*
X218277526Y-59524805D01*
X218381917Y-59000000D01*
X218180198Y-57985889D01*
X217605750Y-57126167D01*
X216746028Y-56551719D01*
X215731917Y-56350000D01*
X215628083Y-56350000D01*
X214613972Y-56551719D01*
X213754250Y-57126167D01*
X213179802Y-57985889D01*
X212978083Y-59000000D01*
X212650001Y-59000000D01*
X212650459Y-58475195D01*
X212247871Y-57500856D01*
X211503065Y-56754749D01*
X210529430Y-56350461D01*
X209475195Y-56349541D01*
X208500856Y-56752129D01*
X207754749Y-57496935D01*
X207350461Y-58470570D01*
X207349541Y-59524805D01*
X192277526Y-59524805D01*
X192381917Y-59000000D01*
X192180198Y-57985889D01*
X191605750Y-57126167D01*
X190746028Y-56551719D01*
X189731917Y-56350000D01*
X189628083Y-56350000D01*
X188613972Y-56551719D01*
X187754250Y-57126167D01*
X187179802Y-57985889D01*
X186978083Y-59000000D01*
X187099283Y-59609315D01*
X186750000Y-59539838D01*
X186635783Y-59562557D01*
X186649539Y-59529430D01*
X186650459Y-58475195D01*
X186247871Y-57500856D01*
X185503065Y-56754749D01*
X184529430Y-56350461D01*
X183475195Y-56349541D01*
X182500856Y-56752129D01*
X181754749Y-57496935D01*
X181350461Y-58470570D01*
X181349541Y-59524805D01*
X166277526Y-59524805D01*
X166381917Y-59000000D01*
X166180198Y-57985889D01*
X165605750Y-57126167D01*
X164746028Y-56551719D01*
X163731917Y-56350000D01*
X163628083Y-56350000D01*
X162613972Y-56551719D01*
X161754250Y-57126167D01*
X161179802Y-57985889D01*
X160978083Y-59000000D01*
X160250000Y-59000000D01*
X160250000Y-50250000D01*
X163575512Y-50250000D01*
X163575512Y-52250000D01*
X163575512Y-52250000D01*
G37*
X163575512Y-52250000D02*
X163662673Y-52713222D01*
X163936437Y-53138663D01*
X164354153Y-53424076D01*
X164850000Y-53524488D01*
X169150000Y-53524488D01*
X169613222Y-53437327D01*
X170038663Y-53163563D01*
X170324076Y-52745847D01*
X170424488Y-52250000D01*
X170424488Y-50250000D01*
X170442000Y-50250000D01*
X170442000Y-51250002D01*
X170607522Y-51250002D01*
X170521161Y-51432056D01*
X170833326Y-52137302D01*
X171391615Y-52669404D01*
X171534178Y-52786990D01*
X171825000Y-52707723D01*
X171825000Y-51125000D01*
X171200000Y-51125000D01*
X171200000Y-50250000D01*
X173700000Y-50250000D01*
X173700000Y-51125000D01*
X173075000Y-51125000D01*
X173075000Y-52707723D01*
X173365822Y-52786990D01*
X173508385Y-52669404D01*
X174066674Y-52137302D01*
X174378839Y-51432056D01*
X174292478Y-51250002D01*
X174458000Y-51250002D01*
X174458000Y-50250000D01*
X174516198Y-50250000D01*
X174758810Y-51469693D01*
X175495837Y-52572732D01*
X176598876Y-53309759D01*
X177900000Y-53568569D01*
X179201124Y-53309759D01*
X180304163Y-52572732D01*
X181041190Y-51469693D01*
X181283802Y-50250000D01*
X188575512Y-50250000D01*
X188575512Y-52250000D01*
X188662673Y-52713222D01*
X188936437Y-53138663D01*
X189354153Y-53424076D01*
X189850000Y-53524488D01*
X194150000Y-53524488D01*
X194613222Y-53437327D01*
X195038663Y-53163563D01*
X195324076Y-52745847D01*
X195424488Y-52250000D01*
X195424488Y-50250000D01*
X195442000Y-50250000D01*
X195442000Y-51250002D01*
X195607522Y-51250002D01*
X195521161Y-51432056D01*
X195833326Y-52137302D01*
X196391615Y-52669404D01*
X196534178Y-52786990D01*
X196825000Y-52707723D01*
X196825000Y-51125000D01*
X196200000Y-51125000D01*
X196200000Y-50250000D01*
X198700000Y-50250000D01*
X198700000Y-51125000D01*
X198075000Y-51125000D01*
X198075000Y-52707723D01*
X198365822Y-52786990D01*
X198508385Y-52669404D01*
X199066674Y-52137302D01*
X199378839Y-51432056D01*
X199292478Y-51250002D01*
X199458000Y-51250002D01*
X199458000Y-50250000D01*
X199516198Y-50250000D01*
X199758810Y-51469693D01*
X200495837Y-52572732D01*
X201598876Y-53309759D01*
X202900000Y-53568569D01*
X204201124Y-53309759D01*
X205304163Y-52572732D01*
X206041190Y-51469693D01*
X206283802Y-50250000D01*
X213575512Y-50250000D01*
X213575512Y-52250000D01*
X213662673Y-52713222D01*
X213936437Y-53138663D01*
X214354153Y-53424076D01*
X214850000Y-53524488D01*
X219150000Y-53524488D01*
X219613222Y-53437327D01*
X220038663Y-53163563D01*
X220324076Y-52745847D01*
X220424488Y-52250000D01*
X220424488Y-50250000D01*
X220442000Y-50250000D01*
X220442000Y-51250002D01*
X220607522Y-51250002D01*
X220521161Y-51432056D01*
X220833326Y-52137302D01*
X221391615Y-52669404D01*
X221534178Y-52786990D01*
X221825000Y-52707723D01*
X221825000Y-51125000D01*
X221200000Y-51125000D01*
X221200000Y-50250000D01*
X223700000Y-50250000D01*
X223700000Y-51125000D01*
X223075000Y-51125000D01*
X223075000Y-52707723D01*
X223365822Y-52786990D01*
X223508385Y-52669404D01*
X224066674Y-52137302D01*
X224378839Y-51432056D01*
X224292478Y-51250002D01*
X224458000Y-51250002D01*
X224458000Y-50250000D01*
X224516198Y-50250000D01*
X224758810Y-51469693D01*
X225495837Y-52572732D01*
X226598876Y-53309759D01*
X227900000Y-53568569D01*
X229201124Y-53309759D01*
X230304163Y-52572732D01*
X231041190Y-51469693D01*
X231283802Y-50250000D01*
X238575512Y-50250000D01*
X238575512Y-52250000D01*
X238662673Y-52713222D01*
X238936437Y-53138663D01*
X239354153Y-53424076D01*
X239850000Y-53524488D01*
X244150000Y-53524488D01*
X244613222Y-53437327D01*
X245038663Y-53163563D01*
X245324076Y-52745847D01*
X245424488Y-52250000D01*
X245424488Y-50250000D01*
X245442000Y-50250000D01*
X245442000Y-51250002D01*
X245607522Y-51250002D01*
X245521161Y-51432056D01*
X245833326Y-52137302D01*
X246391615Y-52669404D01*
X246534178Y-52786990D01*
X246825000Y-52707723D01*
X246825000Y-51125000D01*
X246200000Y-51125000D01*
X246200000Y-50250000D01*
X248700000Y-50250000D01*
X248700000Y-51125000D01*
X248075000Y-51125000D01*
X248075000Y-52707723D01*
X248365822Y-52786990D01*
X248508385Y-52669404D01*
X249066674Y-52137302D01*
X249378839Y-51432056D01*
X249292478Y-51250002D01*
X249458000Y-51250002D01*
X249458000Y-50250000D01*
X249516198Y-50250000D01*
X249750000Y-51425402D01*
X249750000Y-63213860D01*
X249035572Y-62736495D01*
X248097998Y-62550000D01*
X248002002Y-62550000D01*
X247064428Y-62736495D01*
X246269590Y-63267588D01*
X245738497Y-64062426D01*
X245552002Y-65000000D01*
X245701186Y-65750000D01*
X160469653Y-65750000D01*
X160369696Y-65683211D01*
X160250000Y-65659402D01*
X160250000Y-59000000D01*
X160978083Y-59000000D01*
X161179802Y-60014111D01*
X161754250Y-60873833D01*
X162613972Y-61448281D01*
X163628083Y-61650000D01*
X163731917Y-61650000D01*
X164746028Y-61448281D01*
X165605750Y-60873833D01*
X166180198Y-60014111D01*
X166277526Y-59524805D01*
X181349541Y-59524805D01*
X181752129Y-60499144D01*
X182496935Y-61245251D01*
X183470570Y-61649539D01*
X184524805Y-61650459D01*
X184702550Y-61577016D01*
X184700000Y-61589838D01*
X184700000Y-61670162D01*
X184856047Y-62454663D01*
X185300431Y-63119731D01*
X185965499Y-63564115D01*
X186750000Y-63720162D01*
X187534501Y-63564115D01*
X188199569Y-63119731D01*
X188643953Y-62454663D01*
X188800000Y-61670162D01*
X188800000Y-61589838D01*
X188778346Y-61480977D01*
X189628083Y-61650000D01*
X189731917Y-61650000D01*
X190746028Y-61448281D01*
X191605750Y-60873833D01*
X192180198Y-60014111D01*
X192277526Y-59524805D01*
X207349541Y-59524805D01*
X207752129Y-60499144D01*
X208496935Y-61245251D01*
X209470570Y-61649539D01*
X210524805Y-61650459D01*
X211499144Y-61247871D01*
X212245251Y-60503065D01*
X212649539Y-59529430D01*
X212650001Y-59000000D01*
X212978083Y-59000000D01*
X213179802Y-60014111D01*
X213754250Y-60873833D01*
X214613972Y-61448281D01*
X215628083Y-61650000D01*
X215731917Y-61650000D01*
X216746028Y-61448281D01*
X217605750Y-60873833D01*
X218180198Y-60014111D01*
X218277526Y-59524805D01*
X233349541Y-59524805D01*
X233752129Y-60499144D01*
X234496935Y-61245251D01*
X235470570Y-61649539D01*
X236524805Y-61650459D01*
X237499144Y-61247871D01*
X238245251Y-60503065D01*
X238649539Y-59529430D01*
X238650001Y-59000000D01*
X240978083Y-59000000D01*
X241179802Y-60014111D01*
X241754250Y-60873833D01*
X242613972Y-61448281D01*
X243628083Y-61650000D01*
X243731917Y-61650000D01*
X244746028Y-61448281D01*
X245605750Y-60873833D01*
X246180198Y-60014111D01*
X246381917Y-59000000D01*
X246180198Y-57985889D01*
X245605750Y-57126167D01*
X244746028Y-56551719D01*
X243731917Y-56350000D01*
X243628083Y-56350000D01*
X242613972Y-56551719D01*
X241754250Y-57126167D01*
X241179802Y-57985889D01*
X240978083Y-59000000D01*
X238650001Y-59000000D01*
X238650459Y-58475195D01*
X238247871Y-57500856D01*
X237503065Y-56754749D01*
X236529430Y-56350461D01*
X235475195Y-56349541D01*
X234500856Y-56752129D01*
X233754749Y-57496935D01*
X233350461Y-58470570D01*
X233349541Y-59524805D01*
X218277526Y-59524805D01*
X218381917Y-59000000D01*
X218180198Y-57985889D01*
X217605750Y-57126167D01*
X216746028Y-56551719D01*
X215731917Y-56350000D01*
X215628083Y-56350000D01*
X214613972Y-56551719D01*
X213754250Y-57126167D01*
X213179802Y-57985889D01*
X212978083Y-59000000D01*
X212650001Y-59000000D01*
X212650459Y-58475195D01*
X212247871Y-57500856D01*
X211503065Y-56754749D01*
X210529430Y-56350461D01*
X209475195Y-56349541D01*
X208500856Y-56752129D01*
X207754749Y-57496935D01*
X207350461Y-58470570D01*
X207349541Y-59524805D01*
X192277526Y-59524805D01*
X192381917Y-59000000D01*
X192180198Y-57985889D01*
X191605750Y-57126167D01*
X190746028Y-56551719D01*
X189731917Y-56350000D01*
X189628083Y-56350000D01*
X188613972Y-56551719D01*
X187754250Y-57126167D01*
X187179802Y-57985889D01*
X186978083Y-59000000D01*
X187099283Y-59609315D01*
X186750000Y-59539838D01*
X186635783Y-59562557D01*
X186649539Y-59529430D01*
X186650459Y-58475195D01*
X186247871Y-57500856D01*
X185503065Y-56754749D01*
X184529430Y-56350461D01*
X183475195Y-56349541D01*
X182500856Y-56752129D01*
X181754749Y-57496935D01*
X181350461Y-58470570D01*
X181349541Y-59524805D01*
X166277526Y-59524805D01*
X166381917Y-59000000D01*
X166180198Y-57985889D01*
X165605750Y-57126167D01*
X164746028Y-56551719D01*
X163731917Y-56350000D01*
X163628083Y-56350000D01*
X162613972Y-56551719D01*
X161754250Y-57126167D01*
X161179802Y-57985889D01*
X160978083Y-59000000D01*
X160250000Y-59000000D01*
X160250000Y-50250000D01*
X163575512Y-50250000D01*
X163575512Y-52250000D01*
G36*
X46700000Y-51125000D02*
X46075000Y-51125000D01*
X46075000Y-52707723D01*
X46365822Y-52786990D01*
X46508385Y-52669404D01*
X47066674Y-52137302D01*
X47378839Y-51432056D01*
X47292478Y-51250002D01*
X47458000Y-51250002D01*
X47458000Y-50250000D01*
X47516198Y-50250000D01*
X47758810Y-51469693D01*
X48495837Y-52572732D01*
X49598876Y-53309759D01*
X50900000Y-53568569D01*
X52201124Y-53309759D01*
X53304163Y-52572732D01*
X54041190Y-51469693D01*
X54283802Y-50250000D01*
X61575512Y-50250000D01*
X61575512Y-52250000D01*
X61662673Y-52713222D01*
X61936437Y-53138663D01*
X62354153Y-53424076D01*
X62850000Y-53524488D01*
X67150000Y-53524488D01*
X67613222Y-53437327D01*
X68038663Y-53163563D01*
X68324076Y-52745847D01*
X68424488Y-52250000D01*
X68424488Y-50250000D01*
X68442000Y-50250000D01*
X68442000Y-51250002D01*
X68607522Y-51250002D01*
X68521161Y-51432056D01*
X68833326Y-52137302D01*
X69391615Y-52669404D01*
X69534178Y-52786990D01*
X69825000Y-52707723D01*
X69825000Y-51125000D01*
X69200000Y-51125000D01*
X69200000Y-50250000D01*
X71700000Y-50250000D01*
X71700000Y-51125000D01*
X71075000Y-51125000D01*
X71075000Y-52707723D01*
X71365822Y-52786990D01*
X71508385Y-52669404D01*
X72066674Y-52137302D01*
X72378839Y-51432056D01*
X72292478Y-51250002D01*
X72458000Y-51250002D01*
X72458000Y-50250000D01*
X72516198Y-50250000D01*
X72758810Y-51469693D01*
X73495837Y-52572732D01*
X74598876Y-53309759D01*
X75900000Y-53568569D01*
X77201124Y-53309759D01*
X78304163Y-52572732D01*
X79041190Y-51469693D01*
X79283802Y-50250000D01*
X86575512Y-50250000D01*
X86575512Y-52250000D01*
X86662673Y-52713222D01*
X86936437Y-53138663D01*
X87354153Y-53424076D01*
X87850000Y-53524488D01*
X92150000Y-53524488D01*
X92613222Y-53437327D01*
X93038663Y-53163563D01*
X93324076Y-52745847D01*
X93424488Y-52250000D01*
X93424488Y-50250000D01*
X93442000Y-50250000D01*
X93442000Y-51250002D01*
X93607522Y-51250002D01*
X93521161Y-51432056D01*
X93833326Y-52137302D01*
X94391615Y-52669404D01*
X94534178Y-52786990D01*
X94825000Y-52707723D01*
X94825000Y-51125000D01*
X94200000Y-51125000D01*
X94200000Y-50250000D01*
X96700000Y-50250000D01*
X96700000Y-51125000D01*
X96075000Y-51125000D01*
X96075000Y-52707723D01*
X96365822Y-52786990D01*
X96508385Y-52669404D01*
X97066674Y-52137302D01*
X97378839Y-51432056D01*
X97292478Y-51250002D01*
X97458000Y-51250002D01*
X97458000Y-50250000D01*
X97516198Y-50250000D01*
X97758810Y-51469693D01*
X98495837Y-52572732D01*
X99598876Y-53309759D01*
X100900000Y-53568569D01*
X102201124Y-53309759D01*
X103304163Y-52572732D01*
X104041190Y-51469693D01*
X104283802Y-50250000D01*
X111575512Y-50250000D01*
X111575512Y-52250000D01*
X111662673Y-52713222D01*
X111936437Y-53138663D01*
X112354153Y-53424076D01*
X112850000Y-53524488D01*
X117150000Y-53524488D01*
X117613222Y-53437327D01*
X118038663Y-53163563D01*
X118324076Y-52745847D01*
X118424488Y-52250000D01*
X118424488Y-50250000D01*
X118442000Y-50250000D01*
X118442000Y-51250002D01*
X118607522Y-51250002D01*
X118521161Y-51432056D01*
X118833326Y-52137302D01*
X119391615Y-52669404D01*
X119534178Y-52786990D01*
X119825000Y-52707723D01*
X119825000Y-51125000D01*
X119200000Y-51125000D01*
X119200000Y-50250000D01*
X121700000Y-50250000D01*
X121700000Y-51125000D01*
X121075000Y-51125000D01*
X121075000Y-52707723D01*
X121365822Y-52786990D01*
X121508385Y-52669404D01*
X122066674Y-52137302D01*
X122378839Y-51432056D01*
X122292478Y-51250002D01*
X122458000Y-51250002D01*
X122458000Y-50250000D01*
X122516198Y-50250000D01*
X122758810Y-51469693D01*
X123495837Y-52572732D01*
X124598876Y-53309759D01*
X125900000Y-53568569D01*
X127201124Y-53309759D01*
X128304163Y-52572732D01*
X129041190Y-51469693D01*
X129283802Y-50250000D01*
X132750000Y-50250000D01*
X132750000Y-59389294D01*
X132465499Y-59445885D01*
X131851637Y-59856054D01*
X132021917Y-59000000D01*
X131820198Y-57985889D01*
X131245750Y-57126167D01*
X130386028Y-56551719D01*
X129371917Y-56350000D01*
X129268083Y-56350000D01*
X128253972Y-56551719D01*
X127394250Y-57126167D01*
X126819802Y-57985889D01*
X126618083Y-59000000D01*
X126819802Y-60014111D01*
X127394250Y-60873833D01*
X128253972Y-61448281D01*
X129268083Y-61650000D01*
X129371917Y-61650000D01*
X130386028Y-61448281D01*
X131245750Y-60873833D01*
X131312593Y-60773796D01*
X131200000Y-61339838D01*
X131200000Y-61420162D01*
X131356047Y-62204663D01*
X131800431Y-62869731D01*
X132465499Y-63314115D01*
X132750000Y-63370706D01*
X132750000Y-65750000D01*
X44250000Y-65750000D01*
X44250000Y-59000000D01*
X46618083Y-59000000D01*
X46819802Y-60014111D01*
X47394250Y-60873833D01*
X48253972Y-61448281D01*
X49268083Y-61650000D01*
X49371917Y-61650000D01*
X50386028Y-61448281D01*
X51245750Y-60873833D01*
X51820198Y-60014111D01*
X51917526Y-59524805D01*
X52349541Y-59524805D01*
X52752129Y-60499144D01*
X53496935Y-61245251D01*
X54470570Y-61649539D01*
X55524805Y-61650459D01*
X56499144Y-61247871D01*
X57245251Y-60503065D01*
X57649539Y-59529430D01*
X57650001Y-59000000D01*
X72618083Y-59000000D01*
X72819802Y-60014111D01*
X73394250Y-60873833D01*
X74253972Y-61448281D01*
X75268083Y-61650000D01*
X75371917Y-61650000D01*
X76386028Y-61448281D01*
X77245750Y-60873833D01*
X77820198Y-60014111D01*
X77917526Y-59524805D01*
X79349541Y-59524805D01*
X79752129Y-60499144D01*
X80496935Y-61245251D01*
X81470570Y-61649539D01*
X82524805Y-61650459D01*
X83499144Y-61247871D01*
X84245251Y-60503065D01*
X84649539Y-59529430D01*
X84650001Y-59000000D01*
X99618083Y-59000000D01*
X99819802Y-60014111D01*
X100394250Y-60873833D01*
X101253972Y-61448281D01*
X102268083Y-61650000D01*
X102371917Y-61650000D01*
X103386028Y-61448281D01*
X104245750Y-60873833D01*
X104820198Y-60014111D01*
X104917526Y-59524805D01*
X106349541Y-59524805D01*
X106752129Y-60499144D01*
X107496935Y-61245251D01*
X108470570Y-61649539D01*
X109524805Y-61650459D01*
X110499144Y-61247871D01*
X111245251Y-60503065D01*
X111649539Y-59529430D01*
X111650459Y-58475195D01*
X111247871Y-57500856D01*
X110503065Y-56754749D01*
X109529430Y-56350461D01*
X108475195Y-56349541D01*
X107500856Y-56752129D01*
X106754749Y-57496935D01*
X106350461Y-58470570D01*
X106349541Y-59524805D01*
X104917526Y-59524805D01*
X105021917Y-59000000D01*
X104820198Y-57985889D01*
X104245750Y-57126167D01*
X103386028Y-56551719D01*
X102371917Y-56350000D01*
X102268083Y-56350000D01*
X101253972Y-56551719D01*
X100394250Y-57126167D01*
X99819802Y-57985889D01*
X99618083Y-59000000D01*
X84650001Y-59000000D01*
X84650459Y-58475195D01*
X84247871Y-57500856D01*
X83503065Y-56754749D01*
X82529430Y-56350461D01*
X81475195Y-56349541D01*
X80500856Y-56752129D01*
X79754749Y-57496935D01*
X79350461Y-58470570D01*
X79349541Y-59524805D01*
X77917526Y-59524805D01*
X78021917Y-59000000D01*
X77820198Y-57985889D01*
X77245750Y-57126167D01*
X76386028Y-56551719D01*
X75371917Y-56350000D01*
X75268083Y-56350000D01*
X74253972Y-56551719D01*
X73394250Y-57126167D01*
X72819802Y-57985889D01*
X72618083Y-59000000D01*
X57650001Y-59000000D01*
X57650459Y-58475195D01*
X57247871Y-57500856D01*
X56503065Y-56754749D01*
X55529430Y-56350461D01*
X54475195Y-56349541D01*
X53500856Y-56752129D01*
X52754749Y-57496935D01*
X52350461Y-58470570D01*
X52349541Y-59524805D01*
X51917526Y-59524805D01*
X52021917Y-59000000D01*
X51820198Y-57985889D01*
X51245750Y-57126167D01*
X50386028Y-56551719D01*
X49371917Y-56350000D01*
X49268083Y-56350000D01*
X48253972Y-56551719D01*
X47394250Y-57126167D01*
X46819802Y-57985889D01*
X46618083Y-59000000D01*
X44250000Y-59000000D01*
X44250000Y-52534432D01*
X44391615Y-52669404D01*
X44534178Y-52786990D01*
X44825000Y-52707723D01*
X44825000Y-51125000D01*
X44250000Y-51125000D01*
X44250000Y-50250000D01*
X46700000Y-50250000D01*
X46700000Y-51125000D01*
X46700000Y-51125000D01*
G37*
X46700000Y-51125000D02*
X46075000Y-51125000D01*
X46075000Y-52707723D01*
X46365822Y-52786990D01*
X46508385Y-52669404D01*
X47066674Y-52137302D01*
X47378839Y-51432056D01*
X47292478Y-51250002D01*
X47458000Y-51250002D01*
X47458000Y-50250000D01*
X47516198Y-50250000D01*
X47758810Y-51469693D01*
X48495837Y-52572732D01*
X49598876Y-53309759D01*
X50900000Y-53568569D01*
X52201124Y-53309759D01*
X53304163Y-52572732D01*
X54041190Y-51469693D01*
X54283802Y-50250000D01*
X61575512Y-50250000D01*
X61575512Y-52250000D01*
X61662673Y-52713222D01*
X61936437Y-53138663D01*
X62354153Y-53424076D01*
X62850000Y-53524488D01*
X67150000Y-53524488D01*
X67613222Y-53437327D01*
X68038663Y-53163563D01*
X68324076Y-52745847D01*
X68424488Y-52250000D01*
X68424488Y-50250000D01*
X68442000Y-50250000D01*
X68442000Y-51250002D01*
X68607522Y-51250002D01*
X68521161Y-51432056D01*
X68833326Y-52137302D01*
X69391615Y-52669404D01*
X69534178Y-52786990D01*
X69825000Y-52707723D01*
X69825000Y-51125000D01*
X69200000Y-51125000D01*
X69200000Y-50250000D01*
X71700000Y-50250000D01*
X71700000Y-51125000D01*
X71075000Y-51125000D01*
X71075000Y-52707723D01*
X71365822Y-52786990D01*
X71508385Y-52669404D01*
X72066674Y-52137302D01*
X72378839Y-51432056D01*
X72292478Y-51250002D01*
X72458000Y-51250002D01*
X72458000Y-50250000D01*
X72516198Y-50250000D01*
X72758810Y-51469693D01*
X73495837Y-52572732D01*
X74598876Y-53309759D01*
X75900000Y-53568569D01*
X77201124Y-53309759D01*
X78304163Y-52572732D01*
X79041190Y-51469693D01*
X79283802Y-50250000D01*
X86575512Y-50250000D01*
X86575512Y-52250000D01*
X86662673Y-52713222D01*
X86936437Y-53138663D01*
X87354153Y-53424076D01*
X87850000Y-53524488D01*
X92150000Y-53524488D01*
X92613222Y-53437327D01*
X93038663Y-53163563D01*
X93324076Y-52745847D01*
X93424488Y-52250000D01*
X93424488Y-50250000D01*
X93442000Y-50250000D01*
X93442000Y-51250002D01*
X93607522Y-51250002D01*
X93521161Y-51432056D01*
X93833326Y-52137302D01*
X94391615Y-52669404D01*
X94534178Y-52786990D01*
X94825000Y-52707723D01*
X94825000Y-51125000D01*
X94200000Y-51125000D01*
X94200000Y-50250000D01*
X96700000Y-50250000D01*
X96700000Y-51125000D01*
X96075000Y-51125000D01*
X96075000Y-52707723D01*
X96365822Y-52786990D01*
X96508385Y-52669404D01*
X97066674Y-52137302D01*
X97378839Y-51432056D01*
X97292478Y-51250002D01*
X97458000Y-51250002D01*
X97458000Y-50250000D01*
X97516198Y-50250000D01*
X97758810Y-51469693D01*
X98495837Y-52572732D01*
X99598876Y-53309759D01*
X100900000Y-53568569D01*
X102201124Y-53309759D01*
X103304163Y-52572732D01*
X104041190Y-51469693D01*
X104283802Y-50250000D01*
X111575512Y-50250000D01*
X111575512Y-52250000D01*
X111662673Y-52713222D01*
X111936437Y-53138663D01*
X112354153Y-53424076D01*
X112850000Y-53524488D01*
X117150000Y-53524488D01*
X117613222Y-53437327D01*
X118038663Y-53163563D01*
X118324076Y-52745847D01*
X118424488Y-52250000D01*
X118424488Y-50250000D01*
X118442000Y-50250000D01*
X118442000Y-51250002D01*
X118607522Y-51250002D01*
X118521161Y-51432056D01*
X118833326Y-52137302D01*
X119391615Y-52669404D01*
X119534178Y-52786990D01*
X119825000Y-52707723D01*
X119825000Y-51125000D01*
X119200000Y-51125000D01*
X119200000Y-50250000D01*
X121700000Y-50250000D01*
X121700000Y-51125000D01*
X121075000Y-51125000D01*
X121075000Y-52707723D01*
X121365822Y-52786990D01*
X121508385Y-52669404D01*
X122066674Y-52137302D01*
X122378839Y-51432056D01*
X122292478Y-51250002D01*
X122458000Y-51250002D01*
X122458000Y-50250000D01*
X122516198Y-50250000D01*
X122758810Y-51469693D01*
X123495837Y-52572732D01*
X124598876Y-53309759D01*
X125900000Y-53568569D01*
X127201124Y-53309759D01*
X128304163Y-52572732D01*
X129041190Y-51469693D01*
X129283802Y-50250000D01*
X132750000Y-50250000D01*
X132750000Y-59389294D01*
X132465499Y-59445885D01*
X131851637Y-59856054D01*
X132021917Y-59000000D01*
X131820198Y-57985889D01*
X131245750Y-57126167D01*
X130386028Y-56551719D01*
X129371917Y-56350000D01*
X129268083Y-56350000D01*
X128253972Y-56551719D01*
X127394250Y-57126167D01*
X126819802Y-57985889D01*
X126618083Y-59000000D01*
X126819802Y-60014111D01*
X127394250Y-60873833D01*
X128253972Y-61448281D01*
X129268083Y-61650000D01*
X129371917Y-61650000D01*
X130386028Y-61448281D01*
X131245750Y-60873833D01*
X131312593Y-60773796D01*
X131200000Y-61339838D01*
X131200000Y-61420162D01*
X131356047Y-62204663D01*
X131800431Y-62869731D01*
X132465499Y-63314115D01*
X132750000Y-63370706D01*
X132750000Y-65750000D01*
X44250000Y-65750000D01*
X44250000Y-59000000D01*
X46618083Y-59000000D01*
X46819802Y-60014111D01*
X47394250Y-60873833D01*
X48253972Y-61448281D01*
X49268083Y-61650000D01*
X49371917Y-61650000D01*
X50386028Y-61448281D01*
X51245750Y-60873833D01*
X51820198Y-60014111D01*
X51917526Y-59524805D01*
X52349541Y-59524805D01*
X52752129Y-60499144D01*
X53496935Y-61245251D01*
X54470570Y-61649539D01*
X55524805Y-61650459D01*
X56499144Y-61247871D01*
X57245251Y-60503065D01*
X57649539Y-59529430D01*
X57650001Y-59000000D01*
X72618083Y-59000000D01*
X72819802Y-60014111D01*
X73394250Y-60873833D01*
X74253972Y-61448281D01*
X75268083Y-61650000D01*
X75371917Y-61650000D01*
X76386028Y-61448281D01*
X77245750Y-60873833D01*
X77820198Y-60014111D01*
X77917526Y-59524805D01*
X79349541Y-59524805D01*
X79752129Y-60499144D01*
X80496935Y-61245251D01*
X81470570Y-61649539D01*
X82524805Y-61650459D01*
X83499144Y-61247871D01*
X84245251Y-60503065D01*
X84649539Y-59529430D01*
X84650001Y-59000000D01*
X99618083Y-59000000D01*
X99819802Y-60014111D01*
X100394250Y-60873833D01*
X101253972Y-61448281D01*
X102268083Y-61650000D01*
X102371917Y-61650000D01*
X103386028Y-61448281D01*
X104245750Y-60873833D01*
X104820198Y-60014111D01*
X104917526Y-59524805D01*
X106349541Y-59524805D01*
X106752129Y-60499144D01*
X107496935Y-61245251D01*
X108470570Y-61649539D01*
X109524805Y-61650459D01*
X110499144Y-61247871D01*
X111245251Y-60503065D01*
X111649539Y-59529430D01*
X111650459Y-58475195D01*
X111247871Y-57500856D01*
X110503065Y-56754749D01*
X109529430Y-56350461D01*
X108475195Y-56349541D01*
X107500856Y-56752129D01*
X106754749Y-57496935D01*
X106350461Y-58470570D01*
X106349541Y-59524805D01*
X104917526Y-59524805D01*
X105021917Y-59000000D01*
X104820198Y-57985889D01*
X104245750Y-57126167D01*
X103386028Y-56551719D01*
X102371917Y-56350000D01*
X102268083Y-56350000D01*
X101253972Y-56551719D01*
X100394250Y-57126167D01*
X99819802Y-57985889D01*
X99618083Y-59000000D01*
X84650001Y-59000000D01*
X84650459Y-58475195D01*
X84247871Y-57500856D01*
X83503065Y-56754749D01*
X82529430Y-56350461D01*
X81475195Y-56349541D01*
X80500856Y-56752129D01*
X79754749Y-57496935D01*
X79350461Y-58470570D01*
X79349541Y-59524805D01*
X77917526Y-59524805D01*
X78021917Y-59000000D01*
X77820198Y-57985889D01*
X77245750Y-57126167D01*
X76386028Y-56551719D01*
X75371917Y-56350000D01*
X75268083Y-56350000D01*
X74253972Y-56551719D01*
X73394250Y-57126167D01*
X72819802Y-57985889D01*
X72618083Y-59000000D01*
X57650001Y-59000000D01*
X57650459Y-58475195D01*
X57247871Y-57500856D01*
X56503065Y-56754749D01*
X55529430Y-56350461D01*
X54475195Y-56349541D01*
X53500856Y-56752129D01*
X52754749Y-57496935D01*
X52350461Y-58470570D01*
X52349541Y-59524805D01*
X51917526Y-59524805D01*
X52021917Y-59000000D01*
X51820198Y-57985889D01*
X51245750Y-57126167D01*
X50386028Y-56551719D01*
X49371917Y-56350000D01*
X49268083Y-56350000D01*
X48253972Y-56551719D01*
X47394250Y-57126167D01*
X46819802Y-57985889D01*
X46618083Y-59000000D01*
X44250000Y-59000000D01*
X44250000Y-52534432D01*
X44391615Y-52669404D01*
X44534178Y-52786990D01*
X44825000Y-52707723D01*
X44825000Y-51125000D01*
X44250000Y-51125000D01*
X44250000Y-50250000D01*
X46700000Y-50250000D01*
X46700000Y-51125000D01*
M02*
