G04 #@! TF.FileFunction,Copper,L1,Top,Signal*
%FSLAX46Y46*%
G04 Gerber Fmt 4.6, Leading zero omitted, Abs format (unit mm)*
G04 Created by KiCad (PCBNEW 4.0.7) date 08/18/20 10:19:07*
%MOMM*%
%LPD*%
G01*
G04 APERTURE LIST*
%ADD10C,0.100000*%
%ADD11R,1.800000X1.800000*%
%ADD12O,1.800000X1.800000*%
%ADD13C,1.600000*%
%ADD14O,1.600000X1.600000*%
%ADD15C,2.400000*%
%ADD16O,2.400000X2.400000*%
%ADD17R,2.000000X2.000000*%
%ADD18C,2.000000*%
%ADD19R,2.400000X2.400000*%
%ADD20R,2.200000X2.200000*%
%ADD21O,2.200000X2.200000*%
%ADD22C,1.800000*%
%ADD23R,1.600000X1.600000*%
%ADD24C,1.000000*%
%ADD25R,1.000000X1.000000*%
%ADD26C,1.440000*%
%ADD27R,4.300000X5.000000*%
%ADD28R,3.000000X5.000000*%
%ADD29R,4.300000X4.500000*%
%ADD30O,2.500000X4.500000*%
%ADD31O,4.300000X4.500000*%
%ADD32C,2.800000*%
%ADD33O,2.800000X2.800000*%
%ADD34R,3.000000X3.000000*%
%ADD35C,3.000000*%
%ADD36C,4.064000*%
%ADD37C,2.200000*%
%ADD38C,2.000000*%
%ADD39C,0.500000*%
%ADD40C,4.000000*%
G04 APERTURE END LIST*
D10*
D11*
X151000000Y-47500000D03*
D12*
X153540000Y-47500000D03*
X156080000Y-47500000D03*
D13*
X184000000Y-69000000D03*
D14*
X176380000Y-69000000D03*
D15*
X129500000Y-70000000D03*
D16*
X114260000Y-70000000D03*
D11*
X153000000Y-76000000D03*
D12*
X150460000Y-76000000D03*
X147920000Y-76000000D03*
D13*
X145250000Y-92750000D03*
D14*
X155250000Y-92750000D03*
D13*
X130500000Y-92000000D03*
D14*
X123000000Y-92000000D03*
D13*
X96000000Y-86000000D03*
D14*
X103500000Y-86000000D03*
D13*
X82500000Y-89000000D03*
X87500000Y-89000000D03*
X182000000Y-80000000D03*
X182000000Y-85000000D03*
X85500000Y-101000000D03*
X80500000Y-101000000D03*
D17*
X63500000Y-87000000D03*
D18*
X58500000Y-87000000D03*
D17*
X43000000Y-87000000D03*
D18*
X48000000Y-87000000D03*
D13*
X118500000Y-93000000D03*
X118500000Y-88000000D03*
X156000000Y-85250000D03*
D14*
X146000000Y-85250000D03*
D13*
X48000000Y-73500000D03*
D14*
X58000000Y-73500000D03*
D19*
X81000000Y-71000000D03*
D15*
X81000000Y-78500000D03*
D13*
X92500000Y-68500000D03*
D14*
X92500000Y-78500000D03*
D19*
X209500000Y-78500000D03*
D15*
X209500000Y-71000000D03*
D13*
X221000000Y-69000000D03*
D14*
X221000000Y-79000000D03*
D20*
X87500000Y-93000000D03*
D21*
X79880000Y-93000000D03*
D11*
X186500000Y-81000000D03*
D22*
X186500000Y-83540000D03*
D23*
X142000000Y-68750000D03*
D14*
X142000000Y-61130000D03*
D23*
X155250000Y-61250000D03*
D14*
X155250000Y-68870000D03*
D20*
X47000000Y-70000000D03*
D21*
X54620000Y-70000000D03*
D20*
X198500000Y-68500000D03*
D21*
X198500000Y-76120000D03*
D24*
X115770000Y-97230000D03*
X117040000Y-98500000D03*
D25*
X114500000Y-98500000D03*
D24*
X106770000Y-100730000D03*
X108040000Y-102000000D03*
D25*
X105500000Y-102000000D03*
D24*
X103230000Y-81230000D03*
X104500000Y-79960000D03*
D25*
X104500000Y-82500000D03*
D24*
X96230000Y-81230000D03*
X97500000Y-79960000D03*
D25*
X97500000Y-82500000D03*
D24*
X105770000Y-94770000D03*
X104500000Y-96040000D03*
D25*
X104500000Y-93500000D03*
D24*
X96770000Y-94770000D03*
X95500000Y-96040000D03*
D25*
X95500000Y-93500000D03*
D24*
X182730000Y-92230000D03*
X184000000Y-90960000D03*
D25*
X184000000Y-93500000D03*
D24*
X111230000Y-90270000D03*
X109960000Y-89000000D03*
D25*
X112500000Y-89000000D03*
D24*
X116230000Y-79480000D03*
X117500000Y-78210000D03*
D25*
X117500000Y-80750000D03*
D11*
X127000000Y-85000000D03*
D12*
X127000000Y-82460000D03*
X127000000Y-79920000D03*
D11*
X163000000Y-80000000D03*
D12*
X165540000Y-80000000D03*
X168080000Y-80000000D03*
D24*
X137730000Y-72270000D03*
X136460000Y-71000000D03*
D25*
X139000000Y-71000000D03*
D24*
X161770000Y-68480000D03*
X163040000Y-69750000D03*
D25*
X160500000Y-69750000D03*
D11*
X137000000Y-47500000D03*
D12*
X139540000Y-47500000D03*
X142080000Y-47500000D03*
D13*
X123250000Y-95500000D03*
D14*
X130870000Y-95500000D03*
D13*
X134000000Y-93250000D03*
D14*
X141620000Y-93250000D03*
D13*
X104500000Y-76500000D03*
D14*
X104500000Y-68880000D03*
D13*
X99000000Y-76500000D03*
D14*
X99000000Y-68880000D03*
D13*
X103500000Y-89500000D03*
D14*
X95880000Y-89500000D03*
D13*
X135000000Y-99000000D03*
D14*
X127380000Y-99000000D03*
D13*
X135000000Y-102000000D03*
D14*
X127380000Y-102000000D03*
D13*
X154500000Y-97000000D03*
D14*
X146880000Y-97000000D03*
D13*
X154500000Y-103500000D03*
D14*
X146880000Y-103500000D03*
D26*
X141500000Y-102500000D03*
X141500000Y-99960000D03*
X141500000Y-97420000D03*
D15*
X178500000Y-91000000D03*
D16*
X178500000Y-103700000D03*
D13*
X177500000Y-79500000D03*
D14*
X177500000Y-87120000D03*
D15*
X90000000Y-85000000D03*
D16*
X77300000Y-85000000D03*
D13*
X79500000Y-97500000D03*
D14*
X87120000Y-97500000D03*
D13*
X69000000Y-94500000D03*
D14*
X76620000Y-94500000D03*
D13*
X186500000Y-87000000D03*
D14*
X199200000Y-87000000D03*
D13*
X109500000Y-83500000D03*
D14*
X109500000Y-75880000D03*
D13*
X123500000Y-74000000D03*
D14*
X115880000Y-74000000D03*
D13*
X112500000Y-81000000D03*
D14*
X112500000Y-73380000D03*
D13*
X120250000Y-84500000D03*
D14*
X112630000Y-84500000D03*
D13*
X140500000Y-75250000D03*
D14*
X140500000Y-82870000D03*
D26*
X136250000Y-84750000D03*
X136250000Y-82210000D03*
X136250000Y-79670000D03*
D13*
X152250000Y-88750000D03*
D14*
X144630000Y-88750000D03*
D13*
X173750000Y-68500000D03*
D14*
X173750000Y-76120000D03*
D13*
X134000000Y-74000000D03*
D14*
X126380000Y-74000000D03*
D15*
X193000000Y-73000000D03*
D16*
X177760000Y-73000000D03*
D13*
X133250000Y-69000000D03*
D14*
X133250000Y-61380000D03*
D13*
X186750000Y-69250000D03*
D14*
X186750000Y-61630000D03*
D15*
X28250000Y-65500000D03*
D16*
X40950000Y-65500000D03*
D15*
X260750000Y-65000000D03*
D16*
X248050000Y-65000000D03*
D13*
X60000000Y-77500000D03*
D14*
X47300000Y-77500000D03*
D27*
X50968000Y-45428000D03*
D28*
X45588000Y-45428000D03*
D29*
X40000000Y-50000000D03*
D30*
X45450000Y-50000000D03*
D31*
X50900000Y-50000000D03*
D27*
X40000000Y-45428000D03*
X252968000Y-45428000D03*
D28*
X247588000Y-45428000D03*
D29*
X242000000Y-50000000D03*
D30*
X247450000Y-50000000D03*
D31*
X252900000Y-50000000D03*
D27*
X242000000Y-45428000D03*
X75968000Y-45428000D03*
D28*
X70588000Y-45428000D03*
D29*
X65000000Y-50000000D03*
D30*
X70450000Y-50000000D03*
D31*
X75900000Y-50000000D03*
D27*
X65000000Y-45428000D03*
X227968000Y-45428000D03*
D28*
X222588000Y-45428000D03*
D29*
X217000000Y-50000000D03*
D30*
X222450000Y-50000000D03*
D31*
X227900000Y-50000000D03*
D27*
X217000000Y-45428000D03*
X100968000Y-45428000D03*
D28*
X95588000Y-45428000D03*
D29*
X90000000Y-50000000D03*
D30*
X95450000Y-50000000D03*
D31*
X100900000Y-50000000D03*
D27*
X90000000Y-45428000D03*
X202968000Y-45428000D03*
D28*
X197588000Y-45428000D03*
D29*
X192000000Y-50000000D03*
D30*
X197450000Y-50000000D03*
D31*
X202900000Y-50000000D03*
D27*
X192000000Y-45428000D03*
X125968000Y-45428000D03*
D28*
X120588000Y-45428000D03*
D29*
X115000000Y-50000000D03*
D30*
X120450000Y-50000000D03*
D31*
X125900000Y-50000000D03*
D27*
X115000000Y-45428000D03*
X177968000Y-45428000D03*
D28*
X172588000Y-45428000D03*
D29*
X167000000Y-50000000D03*
D30*
X172450000Y-50000000D03*
D31*
X177900000Y-50000000D03*
D27*
X167000000Y-45428000D03*
D32*
X29000000Y-59000000D03*
D33*
X49320000Y-59000000D03*
D32*
X264000000Y-59000000D03*
D33*
X243680000Y-59000000D03*
D32*
X55000000Y-59000000D03*
D33*
X75320000Y-59000000D03*
D32*
X236000000Y-59000000D03*
D33*
X215680000Y-59000000D03*
D32*
X82000000Y-59000000D03*
D33*
X102320000Y-59000000D03*
D32*
X210000000Y-59000000D03*
D33*
X189680000Y-59000000D03*
D32*
X109000000Y-59000000D03*
D33*
X129320000Y-59000000D03*
D32*
X184000000Y-59000000D03*
D33*
X163680000Y-59000000D03*
D34*
X242500000Y-72000000D03*
D35*
X247580000Y-72000000D03*
D34*
X226000000Y-72000000D03*
D35*
X231080000Y-72000000D03*
D34*
X64000000Y-71000000D03*
D35*
X69080000Y-71000000D03*
D36*
X263000000Y-103000000D03*
X263000000Y-46000000D03*
X29000000Y-103000000D03*
X29000000Y-46000000D03*
D34*
X163500000Y-101750000D03*
D35*
X168580000Y-101750000D03*
D37*
X163460000Y-93290000D03*
X163460000Y-88210000D03*
X168540000Y-88210000D03*
X168540000Y-93290000D03*
D18*
X166000000Y-90750000D03*
D38*
X247450000Y-50000000D02*
X247450000Y-45566000D01*
X247450000Y-45566000D02*
X247588000Y-45428000D01*
X222450000Y-50000000D02*
X222450000Y-45566000D01*
X222450000Y-45566000D02*
X222588000Y-45428000D01*
X197450000Y-50000000D02*
X197450000Y-45566000D01*
X197450000Y-45566000D02*
X197588000Y-45428000D01*
X172450000Y-50000000D02*
X172450000Y-45566000D01*
X172450000Y-45566000D02*
X172588000Y-45428000D01*
D39*
X184000000Y-69000000D02*
X184000000Y-65000000D01*
X184000000Y-65000000D02*
X184000000Y-65750000D01*
X184000000Y-65750000D02*
X184000000Y-65000000D01*
X163040000Y-69750000D02*
X163040000Y-68960000D01*
X163680000Y-68320000D02*
X163680000Y-65000000D01*
X163040000Y-68960000D02*
X163680000Y-68320000D01*
D40*
X190680000Y-58750000D02*
X190680000Y-59430000D01*
X190680000Y-59430000D02*
X195000000Y-65000000D01*
D38*
X198500000Y-68500000D02*
X201500000Y-65000000D01*
X201500000Y-65000000D02*
X201500000Y-63500000D01*
X201500000Y-63500000D02*
X201500000Y-65000000D01*
X54620000Y-70000000D02*
X55620000Y-65620000D01*
X55620000Y-65620000D02*
X55000000Y-65000000D01*
D40*
X242500000Y-72000000D02*
X242500000Y-68250000D01*
X242500000Y-68250000D02*
X239250000Y-65000000D01*
D38*
X58000000Y-73500000D02*
X58500000Y-65000000D01*
X58500000Y-65000000D02*
X58000000Y-64500000D01*
X58000000Y-64500000D02*
X58000000Y-65000000D01*
D39*
X126380000Y-74000000D02*
X126380000Y-65000000D01*
X125500000Y-65500000D02*
X125500000Y-65000000D01*
X125880000Y-65500000D02*
X125500000Y-65500000D01*
X126380000Y-65000000D02*
X125880000Y-65500000D01*
X136460000Y-71000000D02*
X136460000Y-65000000D01*
X136460000Y-65000000D02*
X136250000Y-65000000D01*
D38*
X29000000Y-59000000D02*
X29000000Y-64750000D01*
X29000000Y-64750000D02*
X28250000Y-65500000D01*
X29000000Y-59000000D02*
X39500000Y-59000000D01*
X39500000Y-59000000D02*
X45500000Y-65000000D01*
X243680000Y-59000000D02*
X242680000Y-61570000D01*
X242680000Y-61570000D02*
X239250000Y-65000000D01*
X248050000Y-65000000D02*
X241000000Y-65000000D01*
D40*
X55000000Y-59000000D02*
X55000000Y-65000000D01*
X55000000Y-65000000D02*
X53000000Y-65000000D01*
X82000000Y-59000000D02*
X76000000Y-65000000D01*
X80000000Y-64000000D02*
X80000000Y-65000000D01*
X79000000Y-65000000D02*
X80000000Y-64000000D01*
X76000000Y-65000000D02*
X79000000Y-65000000D01*
X109000000Y-59000000D02*
X109000000Y-61000000D01*
X109000000Y-61000000D02*
X105000000Y-65000000D01*
X163680000Y-59000000D02*
X163680000Y-65000000D01*
X163000000Y-64000000D02*
X163000000Y-65000000D01*
X163000000Y-64320000D02*
X163000000Y-64000000D01*
X163680000Y-65000000D02*
X163000000Y-64320000D01*
X215680000Y-59000000D02*
X215680000Y-65000000D01*
X216000000Y-64000000D02*
X216000000Y-65000000D01*
X216000000Y-64680000D02*
X216000000Y-64000000D01*
X215680000Y-65000000D02*
X216000000Y-64680000D01*
X45500000Y-65000000D02*
X53000000Y-65000000D01*
X53000000Y-65000000D02*
X58000000Y-65000000D01*
X58000000Y-65000000D02*
X80000000Y-65000000D01*
X80000000Y-65000000D02*
X100000000Y-65000000D01*
X100000000Y-65000000D02*
X105000000Y-65000000D01*
X105000000Y-65000000D02*
X122250000Y-65000000D01*
X122250000Y-65000000D02*
X125500000Y-65000000D01*
X125500000Y-65000000D02*
X136250000Y-65000000D01*
X136250000Y-65000000D02*
X159750000Y-65000000D01*
X159750000Y-65000000D02*
X163000000Y-65000000D01*
X163000000Y-65000000D02*
X177250000Y-65000000D01*
X177250000Y-65000000D02*
X184000000Y-65000000D01*
X184000000Y-65000000D02*
X190000000Y-65000000D01*
X190000000Y-65000000D02*
X195000000Y-65000000D01*
X195000000Y-65000000D02*
X201500000Y-65000000D01*
X201500000Y-65000000D02*
X216000000Y-65000000D01*
X216000000Y-65000000D02*
X239250000Y-65000000D01*
X239250000Y-65000000D02*
X241000000Y-65000000D01*
D39*
X156080000Y-47500000D02*
X156080000Y-60420000D01*
X156080000Y-60420000D02*
X155250000Y-61250000D01*
D38*
X48000000Y-73500000D02*
X48000000Y-73000000D01*
X48000000Y-73000000D02*
X47300000Y-77500000D01*
X120588000Y-45428000D02*
X120588000Y-49862000D01*
X120588000Y-49862000D02*
X120450000Y-50000000D01*
X95450000Y-50000000D02*
X95450000Y-45566000D01*
X95450000Y-45566000D02*
X95588000Y-45428000D01*
X70450000Y-50000000D02*
X70450000Y-45566000D01*
X70450000Y-45566000D02*
X70588000Y-45428000D01*
X45450000Y-50000000D02*
X45450000Y-45566000D01*
X45450000Y-45566000D02*
X45588000Y-45428000D01*
X115000000Y-50000000D02*
X115000000Y-45428000D01*
X90000000Y-50000000D02*
X90000000Y-45428000D01*
X65000000Y-50000000D02*
X65000000Y-45428000D01*
X40000000Y-50000000D02*
X40000000Y-45428000D01*
X242000000Y-50000000D02*
X242000000Y-45428000D01*
X217000000Y-50000000D02*
X217000000Y-45428000D01*
X242000000Y-50000000D02*
X242000000Y-51250000D01*
X242000000Y-51250000D02*
X246000000Y-57000000D01*
X252500000Y-56750000D02*
X260750000Y-65000000D01*
X246000000Y-57000000D02*
X252500000Y-56750000D01*
X192000000Y-50000000D02*
X192000000Y-45428000D01*
X167000000Y-50000000D02*
X167000000Y-45428000D01*
X50900000Y-50000000D02*
X50900000Y-57420000D01*
X50900000Y-57420000D02*
X49320000Y-59000000D01*
X50900000Y-50000000D02*
X50900000Y-45496000D01*
X50900000Y-45496000D02*
X50968000Y-45428000D01*
X252900000Y-50000000D02*
X254000000Y-50000000D01*
X254000000Y-50000000D02*
X264000000Y-59000000D01*
X252900000Y-50000000D02*
X252900000Y-45496000D01*
X252900000Y-45496000D02*
X252968000Y-45428000D01*
X75900000Y-50000000D02*
X75900000Y-58420000D01*
X75900000Y-58420000D02*
X75320000Y-59000000D01*
X75900000Y-50000000D02*
X75900000Y-45496000D01*
X75900000Y-45496000D02*
X75968000Y-45428000D01*
X227900000Y-50000000D02*
X227900000Y-45496000D01*
X227900000Y-45496000D02*
X227968000Y-45428000D01*
X227900000Y-50000000D02*
X227900000Y-50900000D01*
X227900000Y-50900000D02*
X236000000Y-59000000D01*
X100900000Y-50000000D02*
X100900000Y-57580000D01*
X100900000Y-57580000D02*
X102320000Y-59000000D01*
X100900000Y-50000000D02*
X100900000Y-45496000D01*
X100900000Y-45496000D02*
X100968000Y-45428000D01*
X202900000Y-50000000D02*
X202900000Y-51900000D01*
X202900000Y-51900000D02*
X210000000Y-59000000D01*
X202900000Y-50000000D02*
X202900000Y-45496000D01*
X202900000Y-45496000D02*
X202968000Y-45428000D01*
D39*
X129320000Y-59000000D02*
X130870000Y-59000000D01*
X130870000Y-59000000D02*
X133250000Y-61380000D01*
D38*
X125900000Y-50000000D02*
X125900000Y-55580000D01*
X125900000Y-55580000D02*
X129320000Y-59000000D01*
X125900000Y-50000000D02*
X125900000Y-45496000D01*
X125900000Y-45496000D02*
X125968000Y-45428000D01*
D39*
X184000000Y-59000000D02*
X184120000Y-59000000D01*
X184120000Y-59000000D02*
X186750000Y-61630000D01*
D38*
X177900000Y-50000000D02*
X177900000Y-52900000D01*
X177900000Y-52900000D02*
X184000000Y-59000000D01*
X177900000Y-50000000D02*
X177900000Y-45496000D01*
X177900000Y-45496000D02*
X177968000Y-45428000D01*
D39*
G36*
X245323307Y-47928000D02*
X245375604Y-48205933D01*
X245539862Y-48461198D01*
X245544811Y-48464580D01*
X245450000Y-48941227D01*
X245450000Y-51058773D01*
X245602241Y-51824140D01*
X246035786Y-52472987D01*
X246684633Y-52906532D01*
X247450000Y-53058773D01*
X248215367Y-52906532D01*
X248864214Y-52472987D01*
X249297759Y-51824140D01*
X249450000Y-51058773D01*
X249450000Y-48941227D01*
X249387412Y-48626575D01*
X249621198Y-48476138D01*
X249792446Y-48225508D01*
X249852693Y-47928000D01*
X249852693Y-43825000D01*
X250053307Y-43825000D01*
X250053307Y-47928000D01*
X250105604Y-48205933D01*
X250269862Y-48461198D01*
X250360117Y-48522866D01*
X250220749Y-48731445D01*
X250000000Y-49841227D01*
X250000000Y-50158773D01*
X250220749Y-51268555D01*
X250849390Y-52209383D01*
X251790218Y-52838024D01*
X252900000Y-53058773D01*
X254009782Y-52838024D01*
X254312577Y-52635703D01*
X261849634Y-59419055D01*
X261849628Y-59425785D01*
X262176256Y-60216286D01*
X262780533Y-60821619D01*
X263570462Y-61149626D01*
X264425785Y-61150372D01*
X265175000Y-60840803D01*
X265175000Y-101241019D01*
X264577934Y-100642910D01*
X263555802Y-100218484D01*
X262449054Y-100217518D01*
X261426182Y-100640160D01*
X260642910Y-101422066D01*
X260218484Y-102444198D01*
X260217518Y-103550946D01*
X260640160Y-104573818D01*
X261240294Y-105175000D01*
X179792146Y-105175000D01*
X179878858Y-105117061D01*
X180301565Y-104484436D01*
X180450000Y-103738203D01*
X180450000Y-103661797D01*
X180301565Y-102915564D01*
X179878858Y-102282939D01*
X179246233Y-101860232D01*
X178500000Y-101711797D01*
X177753767Y-101860232D01*
X177121142Y-102282939D01*
X176698435Y-102915564D01*
X176550000Y-103661797D01*
X176550000Y-103738203D01*
X176698435Y-104484436D01*
X177121142Y-105117061D01*
X177207854Y-105175000D01*
X30758981Y-105175000D01*
X31357090Y-104577934D01*
X31781516Y-103555802D01*
X31782482Y-102449054D01*
X31359840Y-101426182D01*
X31240827Y-101306961D01*
X78949732Y-101306961D01*
X79185208Y-101876857D01*
X79620849Y-102313260D01*
X80190333Y-102549730D01*
X80806961Y-102550268D01*
X81376857Y-102314792D01*
X81813260Y-101879151D01*
X82049730Y-101309667D01*
X82049732Y-101306961D01*
X83949732Y-101306961D01*
X84185208Y-101876857D01*
X84620849Y-102313260D01*
X85190333Y-102549730D01*
X85806961Y-102550268D01*
X86376857Y-102314792D01*
X86813260Y-101879151D01*
X86970696Y-101500000D01*
X104235307Y-101500000D01*
X104235307Y-102500000D01*
X104287604Y-102777933D01*
X104451862Y-103033198D01*
X104702492Y-103204446D01*
X105000000Y-103264693D01*
X106000000Y-103264693D01*
X106277933Y-103212396D01*
X106533198Y-103048138D01*
X106704446Y-102797508D01*
X106764693Y-102500000D01*
X106764693Y-101979996D01*
X106790016Y-101980018D01*
X106789783Y-102247550D01*
X106979684Y-102707143D01*
X107331007Y-103059081D01*
X107790269Y-103249783D01*
X108287550Y-103250217D01*
X108747143Y-103060316D01*
X109099081Y-102708993D01*
X109289783Y-102249731D01*
X109290217Y-101752450D01*
X109100316Y-101292857D01*
X108748993Y-100940919D01*
X108289731Y-100750217D01*
X108019984Y-100749982D01*
X108020217Y-100482450D01*
X107830316Y-100022857D01*
X107478993Y-99670919D01*
X107019731Y-99480217D01*
X106522450Y-99479783D01*
X106062857Y-99669684D01*
X105710919Y-100021007D01*
X105520217Y-100480269D01*
X105519994Y-100735307D01*
X105000000Y-100735307D01*
X104722067Y-100787604D01*
X104466802Y-100951862D01*
X104295554Y-101202492D01*
X104235307Y-101500000D01*
X86970696Y-101500000D01*
X87049730Y-101309667D01*
X87050268Y-100693039D01*
X86814792Y-100123143D01*
X86379151Y-99686740D01*
X85809667Y-99450270D01*
X85193039Y-99449732D01*
X84623143Y-99685208D01*
X84186740Y-100120849D01*
X83950270Y-100690333D01*
X83949732Y-101306961D01*
X82049732Y-101306961D01*
X82050268Y-100693039D01*
X81814792Y-100123143D01*
X81379151Y-99686740D01*
X80809667Y-99450270D01*
X80193039Y-99449732D01*
X79623143Y-99685208D01*
X79186740Y-100120849D01*
X78950270Y-100690333D01*
X78949732Y-101306961D01*
X31240827Y-101306961D01*
X30577934Y-100642910D01*
X29555802Y-100218484D01*
X28449054Y-100217518D01*
X27426182Y-100640160D01*
X26825000Y-101240294D01*
X26825000Y-97806961D01*
X77949732Y-97806961D01*
X78185208Y-98376857D01*
X78620849Y-98813260D01*
X79190333Y-99049730D01*
X79806961Y-99050268D01*
X80376857Y-98814792D01*
X80813260Y-98379151D01*
X81049730Y-97809667D01*
X81050000Y-97500000D01*
X85539634Y-97500000D01*
X85657621Y-98093159D01*
X85993618Y-98596016D01*
X86496475Y-98932013D01*
X87089634Y-99050000D01*
X87150366Y-99050000D01*
X87743525Y-98932013D01*
X88246382Y-98596016D01*
X88582379Y-98093159D01*
X88600909Y-98000000D01*
X113235307Y-98000000D01*
X113235307Y-99000000D01*
X113287604Y-99277933D01*
X113451862Y-99533198D01*
X113702492Y-99704446D01*
X114000000Y-99764693D01*
X115000000Y-99764693D01*
X115277933Y-99712396D01*
X115533198Y-99548138D01*
X115704446Y-99297508D01*
X115764693Y-99000000D01*
X115764693Y-98479996D01*
X115790016Y-98480018D01*
X115789783Y-98747550D01*
X115979684Y-99207143D01*
X116331007Y-99559081D01*
X116790269Y-99749783D01*
X117287550Y-99750217D01*
X117747143Y-99560316D01*
X118099081Y-99208993D01*
X118185862Y-99000000D01*
X125799634Y-99000000D01*
X125917621Y-99593159D01*
X126253618Y-100096016D01*
X126756475Y-100432013D01*
X127098268Y-100500000D01*
X126756475Y-100567987D01*
X126253618Y-100903984D01*
X125917621Y-101406841D01*
X125799634Y-102000000D01*
X125917621Y-102593159D01*
X126253618Y-103096016D01*
X126756475Y-103432013D01*
X127349634Y-103550000D01*
X127410366Y-103550000D01*
X128003525Y-103432013D01*
X128506382Y-103096016D01*
X128842379Y-102593159D01*
X128960366Y-102000000D01*
X128842379Y-101406841D01*
X128506382Y-100903984D01*
X128003525Y-100567987D01*
X127661732Y-100500000D01*
X128003525Y-100432013D01*
X128506382Y-100096016D01*
X128842379Y-99593159D01*
X128899307Y-99306961D01*
X133449732Y-99306961D01*
X133685208Y-99876857D01*
X134120849Y-100313260D01*
X134570974Y-100500168D01*
X134123143Y-100685208D01*
X133686740Y-101120849D01*
X133450270Y-101690333D01*
X133449732Y-102306961D01*
X133685208Y-102876857D01*
X134120849Y-103313260D01*
X134690333Y-103549730D01*
X135306961Y-103550268D01*
X135876857Y-103314792D01*
X136313260Y-102879151D01*
X136549730Y-102309667D01*
X136550268Y-101693039D01*
X136314792Y-101123143D01*
X135879151Y-100686740D01*
X135429026Y-100499832D01*
X135876857Y-100314792D01*
X136313260Y-99879151D01*
X136549730Y-99309667D01*
X136550268Y-98693039D01*
X136314792Y-98123143D01*
X135903487Y-97711118D01*
X140029745Y-97711118D01*
X140253068Y-98251600D01*
X140666225Y-98665479D01*
X140724755Y-98689783D01*
X140668400Y-98713068D01*
X140254521Y-99126225D01*
X140030256Y-99666316D01*
X140029745Y-100251118D01*
X140253068Y-100791600D01*
X140666225Y-101205479D01*
X140724755Y-101229783D01*
X140668400Y-101253068D01*
X140254521Y-101666225D01*
X140030256Y-102206316D01*
X140029745Y-102791118D01*
X140253068Y-103331600D01*
X140666225Y-103745479D01*
X141206316Y-103969744D01*
X141791118Y-103970255D01*
X142331600Y-103746932D01*
X142578963Y-103500000D01*
X145299634Y-103500000D01*
X145417621Y-104093159D01*
X145753618Y-104596016D01*
X146256475Y-104932013D01*
X146849634Y-105050000D01*
X146910366Y-105050000D01*
X147503525Y-104932013D01*
X148006382Y-104596016D01*
X148342379Y-104093159D01*
X148399307Y-103806961D01*
X152949732Y-103806961D01*
X153185208Y-104376857D01*
X153620849Y-104813260D01*
X154190333Y-105049730D01*
X154806961Y-105050268D01*
X155376857Y-104814792D01*
X155813260Y-104379151D01*
X156049730Y-103809667D01*
X156050268Y-103193039D01*
X155814792Y-102623143D01*
X155379151Y-102186740D01*
X154809667Y-101950270D01*
X154193039Y-101949732D01*
X153623143Y-102185208D01*
X153186740Y-102620849D01*
X152950270Y-103190333D01*
X152949732Y-103806961D01*
X148399307Y-103806961D01*
X148460366Y-103500000D01*
X148342379Y-102906841D01*
X148006382Y-102403984D01*
X147503525Y-102067987D01*
X146910366Y-101950000D01*
X146849634Y-101950000D01*
X146256475Y-102067987D01*
X145753618Y-102403984D01*
X145417621Y-102906841D01*
X145299634Y-103500000D01*
X142578963Y-103500000D01*
X142745479Y-103333775D01*
X142969744Y-102793684D01*
X142970255Y-102208882D01*
X142746932Y-101668400D01*
X142333775Y-101254521D01*
X142275245Y-101230217D01*
X142331600Y-101206932D01*
X142745479Y-100793775D01*
X142969744Y-100253684D01*
X142969747Y-100250000D01*
X161235307Y-100250000D01*
X161235307Y-103250000D01*
X161287604Y-103527933D01*
X161451862Y-103783198D01*
X161702492Y-103954446D01*
X162000000Y-104014693D01*
X165000000Y-104014693D01*
X165277933Y-103962396D01*
X165533198Y-103798138D01*
X165615994Y-103676961D01*
X167713699Y-103676961D01*
X167907361Y-103951784D01*
X168801149Y-104041592D01*
X169252639Y-103951784D01*
X169446301Y-103676961D01*
X168580000Y-102810660D01*
X167713699Y-103676961D01*
X165615994Y-103676961D01*
X165704446Y-103547508D01*
X165764693Y-103250000D01*
X165764693Y-101971149D01*
X166288408Y-101971149D01*
X166378216Y-102422639D01*
X166653039Y-102616301D01*
X167519340Y-101750000D01*
X169640660Y-101750000D01*
X170506961Y-102616301D01*
X170781784Y-102422639D01*
X170871592Y-101528851D01*
X170781784Y-101077361D01*
X170506961Y-100883699D01*
X169640660Y-101750000D01*
X167519340Y-101750000D01*
X166653039Y-100883699D01*
X166378216Y-101077361D01*
X166288408Y-101971149D01*
X165764693Y-101971149D01*
X165764693Y-100250000D01*
X165712396Y-99972067D01*
X165616500Y-99823039D01*
X167713699Y-99823039D01*
X168580000Y-100689340D01*
X169446301Y-99823039D01*
X169252639Y-99548216D01*
X168358851Y-99458408D01*
X167907361Y-99548216D01*
X167713699Y-99823039D01*
X165616500Y-99823039D01*
X165548138Y-99716802D01*
X165297508Y-99545554D01*
X165000000Y-99485307D01*
X162000000Y-99485307D01*
X161722067Y-99537604D01*
X161466802Y-99701862D01*
X161295554Y-99952492D01*
X161235307Y-100250000D01*
X142969747Y-100250000D01*
X142970255Y-99668882D01*
X142746932Y-99128400D01*
X142333775Y-98714521D01*
X142275245Y-98690217D01*
X142331600Y-98666932D01*
X142745479Y-98253775D01*
X142969744Y-97713684D01*
X142970255Y-97128882D01*
X142917002Y-97000000D01*
X145299634Y-97000000D01*
X145417621Y-97593159D01*
X145753618Y-98096016D01*
X146256475Y-98432013D01*
X146849634Y-98550000D01*
X146910366Y-98550000D01*
X147503525Y-98432013D01*
X148006382Y-98096016D01*
X148342379Y-97593159D01*
X148399307Y-97306961D01*
X152949732Y-97306961D01*
X153185208Y-97876857D01*
X153620849Y-98313260D01*
X154190333Y-98549730D01*
X154806961Y-98550268D01*
X155376857Y-98314792D01*
X155813260Y-97879151D01*
X156049730Y-97309667D01*
X156050268Y-96693039D01*
X155814792Y-96123143D01*
X155379151Y-95686740D01*
X154809667Y-95450270D01*
X154193039Y-95449732D01*
X153623143Y-95685208D01*
X153186740Y-96120849D01*
X152950270Y-96690333D01*
X152949732Y-97306961D01*
X148399307Y-97306961D01*
X148460366Y-97000000D01*
X148342379Y-96406841D01*
X148006382Y-95903984D01*
X147503525Y-95567987D01*
X146910366Y-95450000D01*
X146849634Y-95450000D01*
X146256475Y-95567987D01*
X145753618Y-95903984D01*
X145417621Y-96406841D01*
X145299634Y-97000000D01*
X142917002Y-97000000D01*
X142746932Y-96588400D01*
X142333775Y-96174521D01*
X141793684Y-95950256D01*
X141208882Y-95949745D01*
X140668400Y-96173068D01*
X140254521Y-96586225D01*
X140030256Y-97126316D01*
X140029745Y-97711118D01*
X135903487Y-97711118D01*
X135879151Y-97686740D01*
X135309667Y-97450270D01*
X134693039Y-97449732D01*
X134123143Y-97685208D01*
X133686740Y-98120849D01*
X133450270Y-98690333D01*
X133449732Y-99306961D01*
X128899307Y-99306961D01*
X128960366Y-99000000D01*
X128842379Y-98406841D01*
X128506382Y-97903984D01*
X128003525Y-97567987D01*
X127410366Y-97450000D01*
X127349634Y-97450000D01*
X126756475Y-97567987D01*
X126253618Y-97903984D01*
X125917621Y-98406841D01*
X125799634Y-99000000D01*
X118185862Y-99000000D01*
X118289783Y-98749731D01*
X118290217Y-98252450D01*
X118100316Y-97792857D01*
X117748993Y-97440919D01*
X117289731Y-97250217D01*
X117019984Y-97249982D01*
X117020217Y-96982450D01*
X116830316Y-96522857D01*
X116478993Y-96170919D01*
X116019731Y-95980217D01*
X115522450Y-95979783D01*
X115062857Y-96169684D01*
X114710919Y-96521007D01*
X114520217Y-96980269D01*
X114519994Y-97235307D01*
X114000000Y-97235307D01*
X113722067Y-97287604D01*
X113466802Y-97451862D01*
X113295554Y-97702492D01*
X113235307Y-98000000D01*
X88600909Y-98000000D01*
X88700366Y-97500000D01*
X88582379Y-96906841D01*
X88246382Y-96403984D01*
X87743525Y-96067987D01*
X87150366Y-95950000D01*
X87089634Y-95950000D01*
X86496475Y-96067987D01*
X85993618Y-96403984D01*
X85657621Y-96906841D01*
X85539634Y-97500000D01*
X81050000Y-97500000D01*
X81050268Y-97193039D01*
X80814792Y-96623143D01*
X80379151Y-96186740D01*
X79809667Y-95950270D01*
X79193039Y-95949732D01*
X78623143Y-96185208D01*
X78186740Y-96620849D01*
X77950270Y-97190333D01*
X77949732Y-97806961D01*
X26825000Y-97806961D01*
X26825000Y-94806961D01*
X67449732Y-94806961D01*
X67685208Y-95376857D01*
X68120849Y-95813260D01*
X68690333Y-96049730D01*
X69306961Y-96050268D01*
X69876857Y-95814792D01*
X70313260Y-95379151D01*
X70549730Y-94809667D01*
X70550000Y-94500000D01*
X75039634Y-94500000D01*
X75157621Y-95093159D01*
X75493618Y-95596016D01*
X75996475Y-95932013D01*
X76589634Y-96050000D01*
X76650366Y-96050000D01*
X77243525Y-95932013D01*
X77746382Y-95596016D01*
X78082379Y-95093159D01*
X78200366Y-94500000D01*
X78082379Y-93906841D01*
X78024927Y-93820857D01*
X78213160Y-93820857D01*
X78483736Y-94225861D01*
X79059137Y-94666875D01*
X79330000Y-94585264D01*
X79330000Y-93550000D01*
X80430000Y-93550000D01*
X80430000Y-94585264D01*
X80700863Y-94666875D01*
X81276264Y-94225861D01*
X81546840Y-93820857D01*
X81455244Y-93550000D01*
X80430000Y-93550000D01*
X79330000Y-93550000D01*
X78304756Y-93550000D01*
X78213160Y-93820857D01*
X78024927Y-93820857D01*
X77746382Y-93403984D01*
X77243525Y-93067987D01*
X76650366Y-92950000D01*
X76589634Y-92950000D01*
X75996475Y-93067987D01*
X75493618Y-93403984D01*
X75157621Y-93906841D01*
X75039634Y-94500000D01*
X70550000Y-94500000D01*
X70550268Y-94193039D01*
X70314792Y-93623143D01*
X69879151Y-93186740D01*
X69309667Y-92950270D01*
X68693039Y-92949732D01*
X68123143Y-93185208D01*
X67686740Y-93620849D01*
X67450270Y-94190333D01*
X67449732Y-94806961D01*
X26825000Y-94806961D01*
X26825000Y-92179143D01*
X78213160Y-92179143D01*
X78304756Y-92450000D01*
X79330000Y-92450000D01*
X79330000Y-91414736D01*
X80430000Y-91414736D01*
X80430000Y-92450000D01*
X81455244Y-92450000D01*
X81546840Y-92179143D01*
X81360350Y-91900000D01*
X85635307Y-91900000D01*
X85635307Y-94100000D01*
X85687604Y-94377933D01*
X85851862Y-94633198D01*
X86102492Y-94804446D01*
X86400000Y-94864693D01*
X88600000Y-94864693D01*
X88877933Y-94812396D01*
X89133198Y-94648138D01*
X89304446Y-94397508D01*
X89364693Y-94100000D01*
X89364693Y-93000000D01*
X94235307Y-93000000D01*
X94235307Y-94000000D01*
X94287604Y-94277933D01*
X94451862Y-94533198D01*
X94702492Y-94704446D01*
X95000000Y-94764693D01*
X95520004Y-94764693D01*
X95519982Y-94790016D01*
X95252450Y-94789783D01*
X94792857Y-94979684D01*
X94440919Y-95331007D01*
X94250217Y-95790269D01*
X94249783Y-96287550D01*
X94439684Y-96747143D01*
X94791007Y-97099081D01*
X95250269Y-97289783D01*
X95747550Y-97290217D01*
X96207143Y-97100316D01*
X96559081Y-96748993D01*
X96749783Y-96289731D01*
X96750018Y-96019984D01*
X97017550Y-96020217D01*
X97477143Y-95830316D01*
X97829081Y-95478993D01*
X98019783Y-95019731D01*
X98020217Y-94522450D01*
X97830316Y-94062857D01*
X97478993Y-93710919D01*
X97019731Y-93520217D01*
X96764693Y-93519994D01*
X96764693Y-93000000D01*
X103235307Y-93000000D01*
X103235307Y-94000000D01*
X103287604Y-94277933D01*
X103451862Y-94533198D01*
X103702492Y-94704446D01*
X104000000Y-94764693D01*
X104520004Y-94764693D01*
X104519982Y-94790016D01*
X104252450Y-94789783D01*
X103792857Y-94979684D01*
X103440919Y-95331007D01*
X103250217Y-95790269D01*
X103249783Y-96287550D01*
X103439684Y-96747143D01*
X103791007Y-97099081D01*
X104250269Y-97289783D01*
X104747550Y-97290217D01*
X105207143Y-97100316D01*
X105559081Y-96748993D01*
X105749783Y-96289731D01*
X105750018Y-96019984D01*
X106017550Y-96020217D01*
X106477143Y-95830316D01*
X106500538Y-95806961D01*
X121699732Y-95806961D01*
X121935208Y-96376857D01*
X122370849Y-96813260D01*
X122940333Y-97049730D01*
X123556961Y-97050268D01*
X124126857Y-96814792D01*
X124563260Y-96379151D01*
X124799730Y-95809667D01*
X124800000Y-95500000D01*
X129289634Y-95500000D01*
X129407621Y-96093159D01*
X129743618Y-96596016D01*
X130246475Y-96932013D01*
X130839634Y-97050000D01*
X130900366Y-97050000D01*
X131493525Y-96932013D01*
X131996382Y-96596016D01*
X132332379Y-96093159D01*
X132450366Y-95500000D01*
X132332379Y-94906841D01*
X132274355Y-94820001D01*
X162707817Y-94820001D01*
X162839421Y-95079869D01*
X163571613Y-95181108D01*
X164080579Y-95079869D01*
X164212183Y-94820001D01*
X167787817Y-94820001D01*
X167919421Y-95079869D01*
X168651613Y-95181108D01*
X169160579Y-95079869D01*
X169292183Y-94820001D01*
X168540000Y-94067817D01*
X167787817Y-94820001D01*
X164212183Y-94820001D01*
X163460000Y-94067817D01*
X162707817Y-94820001D01*
X132274355Y-94820001D01*
X131996382Y-94403984D01*
X131493525Y-94067987D01*
X130900366Y-93950000D01*
X130839634Y-93950000D01*
X130246475Y-94067987D01*
X129743618Y-94403984D01*
X129407621Y-94906841D01*
X129289634Y-95500000D01*
X124800000Y-95500000D01*
X124800268Y-95193039D01*
X124564792Y-94623143D01*
X124129151Y-94186740D01*
X123559667Y-93950270D01*
X122943039Y-93949732D01*
X122373143Y-94185208D01*
X121936740Y-94620849D01*
X121700270Y-95190333D01*
X121699732Y-95806961D01*
X106500538Y-95806961D01*
X106829081Y-95478993D01*
X107019783Y-95019731D01*
X107020217Y-94522450D01*
X106830316Y-94062857D01*
X106478993Y-93710919D01*
X106019731Y-93520217D01*
X105764693Y-93519994D01*
X105764693Y-93306961D01*
X116949732Y-93306961D01*
X117185208Y-93876857D01*
X117620849Y-94313260D01*
X118190333Y-94549730D01*
X118806961Y-94550268D01*
X119376857Y-94314792D01*
X119813260Y-93879151D01*
X120049730Y-93309667D01*
X120050268Y-92693039D01*
X119814792Y-92123143D01*
X119691865Y-92000000D01*
X121419634Y-92000000D01*
X121537621Y-92593159D01*
X121873618Y-93096016D01*
X122376475Y-93432013D01*
X122969634Y-93550000D01*
X123030366Y-93550000D01*
X123623525Y-93432013D01*
X123924655Y-93230805D01*
X129834881Y-93230805D01*
X129919983Y-93478846D01*
X130530064Y-93588239D01*
X130687308Y-93556961D01*
X132449732Y-93556961D01*
X132685208Y-94126857D01*
X133120849Y-94563260D01*
X133690333Y-94799730D01*
X134306961Y-94800268D01*
X134876857Y-94564792D01*
X135313260Y-94129151D01*
X135416454Y-93880631D01*
X140195335Y-93880631D01*
X140492162Y-94324912D01*
X140989365Y-94674694D01*
X141220000Y-94566307D01*
X141220000Y-93650000D01*
X142020000Y-93650000D01*
X142020000Y-94566307D01*
X142250635Y-94674694D01*
X142747838Y-94324912D01*
X143044665Y-93880631D01*
X142928737Y-93650000D01*
X142020000Y-93650000D01*
X141220000Y-93650000D01*
X140311263Y-93650000D01*
X140195335Y-93880631D01*
X135416454Y-93880631D01*
X135549730Y-93559667D01*
X135550168Y-93056961D01*
X143699732Y-93056961D01*
X143935208Y-93626857D01*
X144370849Y-94063260D01*
X144940333Y-94299730D01*
X145556961Y-94300268D01*
X146126857Y-94064792D01*
X146563260Y-93629151D01*
X146799730Y-93059667D01*
X146800000Y-92750000D01*
X153669634Y-92750000D01*
X153787621Y-93343159D01*
X154123618Y-93846016D01*
X154626475Y-94182013D01*
X155219634Y-94300000D01*
X155280366Y-94300000D01*
X155873525Y-94182013D01*
X156376382Y-93846016D01*
X156673321Y-93401613D01*
X161568892Y-93401613D01*
X161670131Y-93910579D01*
X161929999Y-94042183D01*
X162682183Y-93290000D01*
X161929999Y-92537817D01*
X161670131Y-92669421D01*
X161568892Y-93401613D01*
X156673321Y-93401613D01*
X156712379Y-93343159D01*
X156830366Y-92750000D01*
X156712379Y-92156841D01*
X156376382Y-91653984D01*
X155873525Y-91317987D01*
X155280366Y-91200000D01*
X155219634Y-91200000D01*
X154626475Y-91317987D01*
X154123618Y-91653984D01*
X153787621Y-92156841D01*
X153669634Y-92750000D01*
X146800000Y-92750000D01*
X146800268Y-92443039D01*
X146564792Y-91873143D01*
X146129151Y-91436740D01*
X145559667Y-91200270D01*
X144943039Y-91199732D01*
X144373143Y-91435208D01*
X143936740Y-91870849D01*
X143700270Y-92440333D01*
X143699732Y-93056961D01*
X135550168Y-93056961D01*
X135550268Y-92943039D01*
X135416531Y-92619369D01*
X140195335Y-92619369D01*
X140311263Y-92850000D01*
X141220000Y-92850000D01*
X141220000Y-91933693D01*
X142020000Y-91933693D01*
X142020000Y-92850000D01*
X142928737Y-92850000D01*
X143044665Y-92619369D01*
X142747838Y-92175088D01*
X142250635Y-91825306D01*
X142020000Y-91933693D01*
X141220000Y-91933693D01*
X140989365Y-91825306D01*
X140492162Y-92175088D01*
X140195335Y-92619369D01*
X135416531Y-92619369D01*
X135314792Y-92373143D01*
X134879151Y-91936740D01*
X134309667Y-91700270D01*
X133693039Y-91699732D01*
X133123143Y-91935208D01*
X132686740Y-92370849D01*
X132450270Y-92940333D01*
X132449732Y-93556961D01*
X130687308Y-93556961D01*
X131080017Y-93478846D01*
X131165119Y-93230805D01*
X130500000Y-92565685D01*
X129834881Y-93230805D01*
X123924655Y-93230805D01*
X124126382Y-93096016D01*
X124462379Y-92593159D01*
X124574385Y-92030064D01*
X128911761Y-92030064D01*
X129021154Y-92580017D01*
X129269195Y-92665119D01*
X129934315Y-92000000D01*
X131065685Y-92000000D01*
X131730805Y-92665119D01*
X131978846Y-92580017D01*
X132088239Y-91969936D01*
X131978846Y-91419983D01*
X131730805Y-91334881D01*
X131065685Y-92000000D01*
X129934315Y-92000000D01*
X129269195Y-91334881D01*
X129021154Y-91419983D01*
X128911761Y-92030064D01*
X124574385Y-92030064D01*
X124580366Y-92000000D01*
X124462379Y-91406841D01*
X124126382Y-90903984D01*
X123924656Y-90769195D01*
X129834881Y-90769195D01*
X130500000Y-91434315D01*
X131165119Y-90769195D01*
X131080017Y-90521154D01*
X130469936Y-90411761D01*
X129919983Y-90521154D01*
X129834881Y-90769195D01*
X123924656Y-90769195D01*
X123623525Y-90567987D01*
X123030366Y-90450000D01*
X122969634Y-90450000D01*
X122376475Y-90567987D01*
X121873618Y-90903984D01*
X121537621Y-91406841D01*
X121419634Y-92000000D01*
X119691865Y-92000000D01*
X119379151Y-91686740D01*
X118809667Y-91450270D01*
X118193039Y-91449732D01*
X117623143Y-91685208D01*
X117186740Y-92120849D01*
X116950270Y-92690333D01*
X116949732Y-93306961D01*
X105764693Y-93306961D01*
X105764693Y-93000000D01*
X105712396Y-92722067D01*
X105548138Y-92466802D01*
X105297508Y-92295554D01*
X105000000Y-92235307D01*
X104000000Y-92235307D01*
X103722067Y-92287604D01*
X103466802Y-92451862D01*
X103295554Y-92702492D01*
X103235307Y-93000000D01*
X96764693Y-93000000D01*
X96712396Y-92722067D01*
X96548138Y-92466802D01*
X96297508Y-92295554D01*
X96000000Y-92235307D01*
X95000000Y-92235307D01*
X94722067Y-92287604D01*
X94466802Y-92451862D01*
X94295554Y-92702492D01*
X94235307Y-93000000D01*
X89364693Y-93000000D01*
X89364693Y-91900000D01*
X89312396Y-91622067D01*
X89148138Y-91366802D01*
X88897508Y-91195554D01*
X88600000Y-91135307D01*
X86400000Y-91135307D01*
X86122067Y-91187604D01*
X85866802Y-91351862D01*
X85695554Y-91602492D01*
X85635307Y-91900000D01*
X81360350Y-91900000D01*
X81276264Y-91774139D01*
X80700863Y-91333125D01*
X80430000Y-91414736D01*
X79330000Y-91414736D01*
X79059137Y-91333125D01*
X78483736Y-91774139D01*
X78213160Y-92179143D01*
X26825000Y-92179143D01*
X26825000Y-90230805D01*
X81834881Y-90230805D01*
X81919983Y-90478846D01*
X82530064Y-90588239D01*
X83080017Y-90478846D01*
X83165119Y-90230805D01*
X82500000Y-89565685D01*
X81834881Y-90230805D01*
X26825000Y-90230805D01*
X26825000Y-89030064D01*
X80911761Y-89030064D01*
X81021154Y-89580017D01*
X81269195Y-89665119D01*
X81934315Y-89000000D01*
X83065685Y-89000000D01*
X83730805Y-89665119D01*
X83978846Y-89580017D01*
X84027807Y-89306961D01*
X85949732Y-89306961D01*
X86185208Y-89876857D01*
X86620849Y-90313260D01*
X87190333Y-90549730D01*
X87806961Y-90550268D01*
X88376857Y-90314792D01*
X88813260Y-89879151D01*
X88970696Y-89500000D01*
X94299634Y-89500000D01*
X94417621Y-90093159D01*
X94753618Y-90596016D01*
X95256475Y-90932013D01*
X95849634Y-91050000D01*
X95910366Y-91050000D01*
X96503525Y-90932013D01*
X97006382Y-90596016D01*
X97342379Y-90093159D01*
X97399307Y-89806961D01*
X101949732Y-89806961D01*
X102185208Y-90376857D01*
X102620849Y-90813260D01*
X103190333Y-91049730D01*
X103806961Y-91050268D01*
X104376857Y-90814792D01*
X104813260Y-90379151D01*
X105049730Y-89809667D01*
X105050220Y-89247550D01*
X108709783Y-89247550D01*
X108899684Y-89707143D01*
X109251007Y-90059081D01*
X109710269Y-90249783D01*
X109980016Y-90250018D01*
X109979783Y-90517550D01*
X110169684Y-90977143D01*
X110521007Y-91329081D01*
X110980269Y-91519783D01*
X111477550Y-91520217D01*
X111937143Y-91330316D01*
X112289081Y-90978993D01*
X112479783Y-90519731D01*
X112480217Y-90022450D01*
X112290316Y-89562857D01*
X112250000Y-89522470D01*
X112250000Y-89250000D01*
X112750000Y-89250000D01*
X112750000Y-90068500D01*
X112939500Y-90258000D01*
X113150775Y-90258000D01*
X113429372Y-90142602D01*
X113642601Y-89929373D01*
X113758000Y-89650776D01*
X113758000Y-89439500D01*
X113568500Y-89250000D01*
X112750000Y-89250000D01*
X112250000Y-89250000D01*
X111978006Y-89250000D01*
X111938993Y-89210919D01*
X111479731Y-89020217D01*
X111209984Y-89019982D01*
X111210217Y-88752450D01*
X111043607Y-88349224D01*
X111242000Y-88349224D01*
X111242000Y-88560500D01*
X111431500Y-88750000D01*
X112250000Y-88750000D01*
X112250000Y-87931500D01*
X112750000Y-87931500D01*
X112750000Y-88750000D01*
X113568500Y-88750000D01*
X113758000Y-88560500D01*
X113758000Y-88349224D01*
X113740495Y-88306961D01*
X116949732Y-88306961D01*
X117185208Y-88876857D01*
X117620849Y-89313260D01*
X118190333Y-89549730D01*
X118806961Y-89550268D01*
X119376857Y-89314792D01*
X119813260Y-88879151D01*
X119866888Y-88750000D01*
X143049634Y-88750000D01*
X143167621Y-89343159D01*
X143503618Y-89846016D01*
X144006475Y-90182013D01*
X144599634Y-90300000D01*
X144660366Y-90300000D01*
X145253525Y-90182013D01*
X145756382Y-89846016D01*
X146092379Y-89343159D01*
X146149307Y-89056961D01*
X150699732Y-89056961D01*
X150935208Y-89626857D01*
X151370849Y-90063260D01*
X151940333Y-90299730D01*
X152556961Y-90300268D01*
X153126857Y-90064792D01*
X153452216Y-89740001D01*
X162707817Y-89740001D01*
X162839421Y-89999869D01*
X163571613Y-90101108D01*
X163581393Y-90099163D01*
X163912195Y-90429965D01*
X164469382Y-89872778D01*
X164250304Y-90400376D01*
X164249696Y-91096569D01*
X164468659Y-91626499D01*
X163912195Y-91070035D01*
X163554798Y-91427432D01*
X163348387Y-91398892D01*
X162839421Y-91500131D01*
X162707817Y-91759999D01*
X163460000Y-92512183D01*
X163848909Y-92123274D01*
X164626726Y-92901091D01*
X164237817Y-93290000D01*
X164990001Y-94042183D01*
X165249869Y-93910579D01*
X165351108Y-93178387D01*
X165349163Y-93168607D01*
X165679965Y-92837805D01*
X165122778Y-92280618D01*
X165650376Y-92499696D01*
X166346569Y-92500304D01*
X166876499Y-92281341D01*
X166320035Y-92837805D01*
X166677432Y-93195202D01*
X166648892Y-93401613D01*
X166750131Y-93910579D01*
X167009999Y-94042183D01*
X167762183Y-93290000D01*
X169317817Y-93290000D01*
X170070001Y-94042183D01*
X170329869Y-93910579D01*
X170431108Y-93178387D01*
X170329869Y-92669421D01*
X170070001Y-92537817D01*
X169317817Y-93290000D01*
X167762183Y-93290000D01*
X167373274Y-92901091D01*
X168151091Y-92123274D01*
X168540000Y-92512183D01*
X169292183Y-91759999D01*
X169160579Y-91500131D01*
X168428387Y-91398892D01*
X168418607Y-91400837D01*
X168403947Y-91386177D01*
X176549662Y-91386177D01*
X176845906Y-92103143D01*
X177393971Y-92652166D01*
X178110419Y-92949661D01*
X178886177Y-92950338D01*
X179603143Y-92654094D01*
X179779995Y-92477550D01*
X181479783Y-92477550D01*
X181669684Y-92937143D01*
X182021007Y-93289081D01*
X182480269Y-93479783D01*
X182735307Y-93480006D01*
X182735307Y-94000000D01*
X182787604Y-94277933D01*
X182951862Y-94533198D01*
X183202492Y-94704446D01*
X183500000Y-94764693D01*
X184500000Y-94764693D01*
X184777933Y-94712396D01*
X185033198Y-94548138D01*
X185204446Y-94297508D01*
X185264693Y-94000000D01*
X185264693Y-93000000D01*
X185212396Y-92722067D01*
X185048138Y-92466802D01*
X184797508Y-92295554D01*
X184500000Y-92235307D01*
X183979996Y-92235307D01*
X183980018Y-92209984D01*
X184247550Y-92210217D01*
X184707143Y-92020316D01*
X185059081Y-91668993D01*
X185249783Y-91209731D01*
X185250217Y-90712450D01*
X185060316Y-90252857D01*
X184708993Y-89900919D01*
X184249731Y-89710217D01*
X183752450Y-89709783D01*
X183292857Y-89899684D01*
X182940919Y-90251007D01*
X182750217Y-90710269D01*
X182749982Y-90980016D01*
X182482450Y-90979783D01*
X182022857Y-91169684D01*
X181670919Y-91521007D01*
X181480217Y-91980269D01*
X181479783Y-92477550D01*
X179779995Y-92477550D01*
X180152166Y-92106029D01*
X180449661Y-91389581D01*
X180450338Y-90613823D01*
X180154094Y-89896857D01*
X179606029Y-89347834D01*
X178889581Y-89050339D01*
X178113823Y-89049662D01*
X177396857Y-89345906D01*
X176847834Y-89893971D01*
X176550339Y-90610419D01*
X176549662Y-91386177D01*
X168403947Y-91386177D01*
X168087805Y-91070035D01*
X167530618Y-91627222D01*
X167749696Y-91099624D01*
X167750304Y-90403431D01*
X167531341Y-89873501D01*
X168087805Y-90429965D01*
X168445202Y-90072568D01*
X168651613Y-90101108D01*
X169160579Y-89999869D01*
X169292183Y-89740001D01*
X168540000Y-88987817D01*
X168151091Y-89376726D01*
X167373274Y-88598909D01*
X167762183Y-88210000D01*
X169317817Y-88210000D01*
X170070001Y-88962183D01*
X170329869Y-88830579D01*
X170431108Y-88098387D01*
X170329869Y-87589421D01*
X170070001Y-87457817D01*
X169317817Y-88210000D01*
X167762183Y-88210000D01*
X167009999Y-87457817D01*
X166750131Y-87589421D01*
X166648892Y-88321613D01*
X166650837Y-88331393D01*
X166320035Y-88662195D01*
X166877222Y-89219382D01*
X166349624Y-89000304D01*
X165653431Y-88999696D01*
X165123501Y-89218659D01*
X165679965Y-88662195D01*
X165322568Y-88304798D01*
X165351108Y-88098387D01*
X165249869Y-87589421D01*
X164990001Y-87457817D01*
X164237817Y-88210000D01*
X164626726Y-88598909D01*
X163848909Y-89376726D01*
X163460000Y-88987817D01*
X162707817Y-89740001D01*
X153452216Y-89740001D01*
X153563260Y-89629151D01*
X153799730Y-89059667D01*
X153800268Y-88443039D01*
X153750096Y-88321613D01*
X161568892Y-88321613D01*
X161670131Y-88830579D01*
X161929999Y-88962183D01*
X162682183Y-88210000D01*
X161929999Y-87457817D01*
X161670131Y-87589421D01*
X161568892Y-88321613D01*
X153750096Y-88321613D01*
X153564792Y-87873143D01*
X153129151Y-87436740D01*
X152559667Y-87200270D01*
X151943039Y-87199732D01*
X151373143Y-87435208D01*
X150936740Y-87870849D01*
X150700270Y-88440333D01*
X150699732Y-89056961D01*
X146149307Y-89056961D01*
X146210366Y-88750000D01*
X146092379Y-88156841D01*
X145756382Y-87653984D01*
X145253525Y-87317987D01*
X144660366Y-87200000D01*
X144599634Y-87200000D01*
X144006475Y-87317987D01*
X143503618Y-87653984D01*
X143167621Y-88156841D01*
X143049634Y-88750000D01*
X119866888Y-88750000D01*
X120049730Y-88309667D01*
X120050268Y-87693039D01*
X119814792Y-87123143D01*
X119379151Y-86686740D01*
X118809667Y-86450270D01*
X118193039Y-86449732D01*
X117623143Y-86685208D01*
X117186740Y-87120849D01*
X116950270Y-87690333D01*
X116949732Y-88306961D01*
X113740495Y-88306961D01*
X113642601Y-88070627D01*
X113429372Y-87857398D01*
X113150775Y-87742000D01*
X112939500Y-87742000D01*
X112750000Y-87931500D01*
X112250000Y-87931500D01*
X112060500Y-87742000D01*
X111849225Y-87742000D01*
X111570628Y-87857398D01*
X111357399Y-88070627D01*
X111242000Y-88349224D01*
X111043607Y-88349224D01*
X111020316Y-88292857D01*
X110668993Y-87940919D01*
X110209731Y-87750217D01*
X109712450Y-87749783D01*
X109252857Y-87939684D01*
X108900919Y-88291007D01*
X108710217Y-88750269D01*
X108709783Y-89247550D01*
X105050220Y-89247550D01*
X105050268Y-89193039D01*
X104814792Y-88623143D01*
X104379151Y-88186740D01*
X103809667Y-87950270D01*
X103193039Y-87949732D01*
X102623143Y-88185208D01*
X102186740Y-88620849D01*
X101950270Y-89190333D01*
X101949732Y-89806961D01*
X97399307Y-89806961D01*
X97460366Y-89500000D01*
X97342379Y-88906841D01*
X97006382Y-88403984D01*
X96503525Y-88067987D01*
X95910366Y-87950000D01*
X95849634Y-87950000D01*
X95256475Y-88067987D01*
X94753618Y-88403984D01*
X94417621Y-88906841D01*
X94299634Y-89500000D01*
X88970696Y-89500000D01*
X89049730Y-89309667D01*
X89050268Y-88693039D01*
X88814792Y-88123143D01*
X88379151Y-87686740D01*
X87809667Y-87450270D01*
X87193039Y-87449732D01*
X86623143Y-87685208D01*
X86186740Y-88120849D01*
X85950270Y-88690333D01*
X85949732Y-89306961D01*
X84027807Y-89306961D01*
X84088239Y-88969936D01*
X83978846Y-88419983D01*
X83730805Y-88334881D01*
X83065685Y-89000000D01*
X81934315Y-89000000D01*
X81269195Y-88334881D01*
X81021154Y-88419983D01*
X80911761Y-89030064D01*
X26825000Y-89030064D01*
X26825000Y-87689500D01*
X41242000Y-87689500D01*
X41242000Y-88150775D01*
X41357398Y-88429372D01*
X41570627Y-88642601D01*
X41849224Y-88758000D01*
X42310500Y-88758000D01*
X42500000Y-88568500D01*
X42500000Y-87500000D01*
X43500000Y-87500000D01*
X43500000Y-88568500D01*
X43689500Y-88758000D01*
X44150776Y-88758000D01*
X44429373Y-88642601D01*
X44642602Y-88429372D01*
X44758000Y-88150775D01*
X44758000Y-87689500D01*
X44568500Y-87500000D01*
X43500000Y-87500000D01*
X42500000Y-87500000D01*
X41431500Y-87500000D01*
X41242000Y-87689500D01*
X26825000Y-87689500D01*
X26825000Y-87346569D01*
X46249696Y-87346569D01*
X46515557Y-87990001D01*
X47007410Y-88482713D01*
X47650376Y-88749696D01*
X48346569Y-88750304D01*
X48990001Y-88484443D01*
X49482713Y-87992590D01*
X49749696Y-87349624D01*
X49749698Y-87346569D01*
X56749696Y-87346569D01*
X57015557Y-87990001D01*
X57507410Y-88482713D01*
X58150376Y-88749696D01*
X58846569Y-88750304D01*
X59490001Y-88484443D01*
X59982713Y-87992590D01*
X60249696Y-87349624D01*
X60250304Y-86653431D01*
X59984443Y-86009999D01*
X59974462Y-86000000D01*
X61735307Y-86000000D01*
X61735307Y-88000000D01*
X61787604Y-88277933D01*
X61951862Y-88533198D01*
X62202492Y-88704446D01*
X62500000Y-88764693D01*
X64500000Y-88764693D01*
X64777933Y-88712396D01*
X65033198Y-88548138D01*
X65204446Y-88297508D01*
X65264693Y-88000000D01*
X65264693Y-87769195D01*
X81834881Y-87769195D01*
X82500000Y-88434315D01*
X83165119Y-87769195D01*
X83080017Y-87521154D01*
X82469936Y-87411761D01*
X81919983Y-87521154D01*
X81834881Y-87769195D01*
X65264693Y-87769195D01*
X65264693Y-86000000D01*
X65212396Y-85722067D01*
X65048138Y-85466802D01*
X64797508Y-85295554D01*
X64500000Y-85235307D01*
X62500000Y-85235307D01*
X62222067Y-85287604D01*
X61966802Y-85451862D01*
X61795554Y-85702492D01*
X61735307Y-86000000D01*
X59974462Y-86000000D01*
X59492590Y-85517287D01*
X58849624Y-85250304D01*
X58153431Y-85249696D01*
X57509999Y-85515557D01*
X57017287Y-86007410D01*
X56750304Y-86650376D01*
X56749696Y-87346569D01*
X49749698Y-87346569D01*
X49750304Y-86653431D01*
X49484443Y-86009999D01*
X48992590Y-85517287D01*
X48349624Y-85250304D01*
X47653431Y-85249696D01*
X47009999Y-85515557D01*
X46517287Y-86007410D01*
X46250304Y-86650376D01*
X46249696Y-87346569D01*
X26825000Y-87346569D01*
X26825000Y-85849225D01*
X41242000Y-85849225D01*
X41242000Y-86310500D01*
X41431500Y-86500000D01*
X42500000Y-86500000D01*
X42500000Y-85431500D01*
X43500000Y-85431500D01*
X43500000Y-86500000D01*
X44568500Y-86500000D01*
X44758000Y-86310500D01*
X44758000Y-85849225D01*
X44642602Y-85570628D01*
X44429373Y-85357399D01*
X44150776Y-85242000D01*
X43689500Y-85242000D01*
X43500000Y-85431500D01*
X42500000Y-85431500D01*
X42310500Y-85242000D01*
X41849224Y-85242000D01*
X41570627Y-85357399D01*
X41357398Y-85570628D01*
X41242000Y-85849225D01*
X26825000Y-85849225D01*
X26825000Y-85000000D01*
X75311797Y-85000000D01*
X75460232Y-85746233D01*
X75882939Y-86378858D01*
X76515564Y-86801565D01*
X77261797Y-86950000D01*
X77338203Y-86950000D01*
X78084436Y-86801565D01*
X78717061Y-86378858D01*
X79139768Y-85746233D01*
X79211387Y-85386177D01*
X88049662Y-85386177D01*
X88345906Y-86103143D01*
X88893971Y-86652166D01*
X89610419Y-86949661D01*
X90386177Y-86950338D01*
X91103143Y-86654094D01*
X91450882Y-86306961D01*
X94449732Y-86306961D01*
X94685208Y-86876857D01*
X95120849Y-87313260D01*
X95690333Y-87549730D01*
X96306961Y-87550268D01*
X96876857Y-87314792D01*
X97313260Y-86879151D01*
X97549730Y-86309667D01*
X97550000Y-86000000D01*
X101919634Y-86000000D01*
X102037621Y-86593159D01*
X102373618Y-87096016D01*
X102876475Y-87432013D01*
X103469634Y-87550000D01*
X103530366Y-87550000D01*
X104123525Y-87432013D01*
X104626382Y-87096016D01*
X104962379Y-86593159D01*
X105080366Y-86000000D01*
X104962379Y-85406841D01*
X104626382Y-84903984D01*
X104123525Y-84567987D01*
X103530366Y-84450000D01*
X103469634Y-84450000D01*
X102876475Y-84567987D01*
X102373618Y-84903984D01*
X102037621Y-85406841D01*
X101919634Y-86000000D01*
X97550000Y-86000000D01*
X97550268Y-85693039D01*
X97314792Y-85123143D01*
X96879151Y-84686740D01*
X96309667Y-84450270D01*
X95693039Y-84449732D01*
X95123143Y-84685208D01*
X94686740Y-85120849D01*
X94450270Y-85690333D01*
X94449732Y-86306961D01*
X91450882Y-86306961D01*
X91652166Y-86106029D01*
X91949661Y-85389581D01*
X91950338Y-84613823D01*
X91654094Y-83896857D01*
X91564355Y-83806961D01*
X107949732Y-83806961D01*
X108185208Y-84376857D01*
X108620849Y-84813260D01*
X109190333Y-85049730D01*
X109806961Y-85050268D01*
X110376857Y-84814792D01*
X110692199Y-84500000D01*
X111049634Y-84500000D01*
X111167621Y-85093159D01*
X111503618Y-85596016D01*
X112006475Y-85932013D01*
X112599634Y-86050000D01*
X112660366Y-86050000D01*
X113253525Y-85932013D01*
X113756382Y-85596016D01*
X114092379Y-85093159D01*
X114149307Y-84806961D01*
X118699732Y-84806961D01*
X118935208Y-85376857D01*
X119370849Y-85813260D01*
X119940333Y-86049730D01*
X120556961Y-86050268D01*
X121126857Y-85814792D01*
X121563260Y-85379151D01*
X121799730Y-84809667D01*
X121800268Y-84193039D01*
X121761826Y-84100000D01*
X125335307Y-84100000D01*
X125335307Y-85900000D01*
X125387604Y-86177933D01*
X125551862Y-86433198D01*
X125802492Y-86604446D01*
X126100000Y-86664693D01*
X127900000Y-86664693D01*
X128177933Y-86612396D01*
X128433198Y-86448138D01*
X128604446Y-86197508D01*
X128664693Y-85900000D01*
X128664693Y-84100000D01*
X128612396Y-83822067D01*
X128448138Y-83566802D01*
X128297252Y-83463706D01*
X128524401Y-83123753D01*
X128650000Y-82492325D01*
X128650000Y-82427675D01*
X128524401Y-81796247D01*
X128166726Y-81260949D01*
X128060543Y-81190000D01*
X128166726Y-81119051D01*
X128524401Y-80583753D01*
X128648250Y-79961118D01*
X134779745Y-79961118D01*
X135003068Y-80501600D01*
X135416225Y-80915479D01*
X135474755Y-80939783D01*
X135418400Y-80963068D01*
X135004521Y-81376225D01*
X134780256Y-81916316D01*
X134779745Y-82501118D01*
X135003068Y-83041600D01*
X135416225Y-83455479D01*
X135474755Y-83479783D01*
X135418400Y-83503068D01*
X135004521Y-83916225D01*
X134780256Y-84456316D01*
X134779745Y-85041118D01*
X135003068Y-85581600D01*
X135416225Y-85995479D01*
X135956316Y-86219744D01*
X136541118Y-86220255D01*
X137081600Y-85996932D01*
X137495479Y-85583775D01*
X137634074Y-85250000D01*
X144419634Y-85250000D01*
X144537621Y-85843159D01*
X144873618Y-86346016D01*
X145376475Y-86682013D01*
X145969634Y-86800000D01*
X146030366Y-86800000D01*
X146623525Y-86682013D01*
X147126382Y-86346016D01*
X147462379Y-85843159D01*
X147519307Y-85556961D01*
X154449732Y-85556961D01*
X154685208Y-86126857D01*
X155120849Y-86563260D01*
X155690333Y-86799730D01*
X156306961Y-86800268D01*
X156598034Y-86679999D01*
X162707817Y-86679999D01*
X163460000Y-87432183D01*
X164212183Y-86679999D01*
X167787817Y-86679999D01*
X168540000Y-87432183D01*
X168882548Y-87089634D01*
X175950000Y-87089634D01*
X175950000Y-87150366D01*
X176067987Y-87743525D01*
X176403984Y-88246382D01*
X176906841Y-88582379D01*
X177500000Y-88700366D01*
X178093159Y-88582379D01*
X178596016Y-88246382D01*
X178932013Y-87743525D01*
X179018851Y-87306961D01*
X184949732Y-87306961D01*
X185185208Y-87876857D01*
X185620849Y-88313260D01*
X186190333Y-88549730D01*
X186806961Y-88550268D01*
X187376857Y-88314792D01*
X187813260Y-87879151D01*
X187916454Y-87630631D01*
X197775335Y-87630631D01*
X198072162Y-88074912D01*
X198569365Y-88424694D01*
X198800000Y-88316307D01*
X198800000Y-87400000D01*
X199600000Y-87400000D01*
X199600000Y-88316307D01*
X199830635Y-88424694D01*
X200327838Y-88074912D01*
X200624665Y-87630631D01*
X200508737Y-87400000D01*
X199600000Y-87400000D01*
X198800000Y-87400000D01*
X197891263Y-87400000D01*
X197775335Y-87630631D01*
X187916454Y-87630631D01*
X188049730Y-87309667D01*
X188050268Y-86693039D01*
X187916531Y-86369369D01*
X197775335Y-86369369D01*
X197891263Y-86600000D01*
X198800000Y-86600000D01*
X198800000Y-85683693D01*
X199600000Y-85683693D01*
X199600000Y-86600000D01*
X200508737Y-86600000D01*
X200624665Y-86369369D01*
X200327838Y-85925088D01*
X199830635Y-85575306D01*
X199600000Y-85683693D01*
X198800000Y-85683693D01*
X198569365Y-85575306D01*
X198072162Y-85925088D01*
X197775335Y-86369369D01*
X187916531Y-86369369D01*
X187814792Y-86123143D01*
X187379151Y-85686740D01*
X186809667Y-85450270D01*
X186193039Y-85449732D01*
X185623143Y-85685208D01*
X185186740Y-86120849D01*
X184950270Y-86690333D01*
X184949732Y-87306961D01*
X179018851Y-87306961D01*
X179050000Y-87150366D01*
X179050000Y-87089634D01*
X178932013Y-86496475D01*
X178596016Y-85993618D01*
X178093159Y-85657621D01*
X177500000Y-85539634D01*
X176906841Y-85657621D01*
X176403984Y-85993618D01*
X176067987Y-86496475D01*
X175950000Y-87089634D01*
X168882548Y-87089634D01*
X169292183Y-86679999D01*
X169160579Y-86420131D01*
X168428387Y-86318892D01*
X167919421Y-86420131D01*
X167787817Y-86679999D01*
X164212183Y-86679999D01*
X164080579Y-86420131D01*
X163348387Y-86318892D01*
X162839421Y-86420131D01*
X162707817Y-86679999D01*
X156598034Y-86679999D01*
X156876857Y-86564792D01*
X157313260Y-86129151D01*
X157549730Y-85559667D01*
X157549950Y-85306961D01*
X180449732Y-85306961D01*
X180685208Y-85876857D01*
X181120849Y-86313260D01*
X181690333Y-86549730D01*
X182306961Y-86550268D01*
X182876857Y-86314792D01*
X183313260Y-85879151D01*
X183549730Y-85309667D01*
X183550268Y-84693039D01*
X183314792Y-84123143D01*
X182879151Y-83686740D01*
X182309667Y-83450270D01*
X181693039Y-83449732D01*
X181123143Y-83685208D01*
X180686740Y-84120849D01*
X180450270Y-84690333D01*
X180449732Y-85306961D01*
X157549950Y-85306961D01*
X157550268Y-84943039D01*
X157314792Y-84373143D01*
X156879151Y-83936740D01*
X156309667Y-83700270D01*
X155693039Y-83699732D01*
X155123143Y-83935208D01*
X154686740Y-84370849D01*
X154450270Y-84940333D01*
X154449732Y-85556961D01*
X147519307Y-85556961D01*
X147580366Y-85250000D01*
X147462379Y-84656841D01*
X147126382Y-84153984D01*
X146623525Y-83817987D01*
X146030366Y-83700000D01*
X145969634Y-83700000D01*
X145376475Y-83817987D01*
X144873618Y-84153984D01*
X144537621Y-84656841D01*
X144419634Y-85250000D01*
X137634074Y-85250000D01*
X137719744Y-85043684D01*
X137720255Y-84458882D01*
X137496932Y-83918400D01*
X137083775Y-83504521D01*
X137025245Y-83480217D01*
X137081600Y-83456932D01*
X137495479Y-83043775D01*
X137580245Y-82839634D01*
X138950000Y-82839634D01*
X138950000Y-82900366D01*
X139067987Y-83493525D01*
X139403984Y-83996382D01*
X139906841Y-84332379D01*
X140500000Y-84450366D01*
X141093159Y-84332379D01*
X141596016Y-83996382D01*
X141932013Y-83493525D01*
X142050000Y-82900366D01*
X142050000Y-82839634D01*
X141932013Y-82246475D01*
X141596016Y-81743618D01*
X141093159Y-81407621D01*
X140500000Y-81289634D01*
X139906841Y-81407621D01*
X139403984Y-81743618D01*
X139067987Y-82246475D01*
X138950000Y-82839634D01*
X137580245Y-82839634D01*
X137719744Y-82503684D01*
X137720255Y-81918882D01*
X137496932Y-81378400D01*
X137083775Y-80964521D01*
X137025245Y-80940217D01*
X137081600Y-80916932D01*
X137495479Y-80503775D01*
X137719744Y-79963684D01*
X137720255Y-79378882D01*
X137605024Y-79100000D01*
X161335307Y-79100000D01*
X161335307Y-80900000D01*
X161387604Y-81177933D01*
X161551862Y-81433198D01*
X161802492Y-81604446D01*
X162100000Y-81664693D01*
X163900000Y-81664693D01*
X164177933Y-81612396D01*
X164433198Y-81448138D01*
X164536294Y-81297252D01*
X164876247Y-81524401D01*
X165507675Y-81650000D01*
X165572325Y-81650000D01*
X166203753Y-81524401D01*
X166739051Y-81166726D01*
X166810000Y-81060543D01*
X166880949Y-81166726D01*
X167416247Y-81524401D01*
X168047675Y-81650000D01*
X168112325Y-81650000D01*
X168743753Y-81524401D01*
X169279051Y-81166726D01*
X169636726Y-80631428D01*
X169762325Y-80000000D01*
X169723928Y-79806961D01*
X175949732Y-79806961D01*
X176185208Y-80376857D01*
X176620849Y-80813260D01*
X177190333Y-81049730D01*
X177806961Y-81050268D01*
X178376857Y-80814792D01*
X178813260Y-80379151D01*
X178843235Y-80306961D01*
X180449732Y-80306961D01*
X180685208Y-80876857D01*
X181120849Y-81313260D01*
X181690333Y-81549730D01*
X182306961Y-81550268D01*
X182876857Y-81314792D01*
X183313260Y-80879151D01*
X183549730Y-80309667D01*
X183549912Y-80100000D01*
X184835307Y-80100000D01*
X184835307Y-81900000D01*
X184887604Y-82177933D01*
X185051862Y-82433198D01*
X185183288Y-82522998D01*
X185102014Y-82604130D01*
X184850287Y-83210355D01*
X184849715Y-83866765D01*
X185100383Y-84473429D01*
X185564130Y-84937986D01*
X186170355Y-85189713D01*
X186826765Y-85190285D01*
X187433429Y-84939617D01*
X187897986Y-84475870D01*
X188149713Y-83869645D01*
X188150285Y-83213235D01*
X187899617Y-82606571D01*
X187816453Y-82523261D01*
X187933198Y-82448138D01*
X188104446Y-82197508D01*
X188164693Y-81900000D01*
X188164693Y-80100000D01*
X188112396Y-79822067D01*
X187948138Y-79566802D01*
X187697508Y-79395554D01*
X187400000Y-79335307D01*
X185600000Y-79335307D01*
X185322067Y-79387604D01*
X185066802Y-79551862D01*
X184895554Y-79802492D01*
X184835307Y-80100000D01*
X183549912Y-80100000D01*
X183550268Y-79693039D01*
X183383530Y-79289500D01*
X207542000Y-79289500D01*
X207542000Y-79850776D01*
X207657399Y-80129373D01*
X207870628Y-80342602D01*
X208149225Y-80458000D01*
X208710500Y-80458000D01*
X208900000Y-80268500D01*
X208900000Y-79100000D01*
X210100000Y-79100000D01*
X210100000Y-80268500D01*
X210289500Y-80458000D01*
X210850775Y-80458000D01*
X211129372Y-80342602D01*
X211342601Y-80129373D01*
X211458000Y-79850776D01*
X211458000Y-79630635D01*
X219575306Y-79630635D01*
X219925088Y-80127838D01*
X220369369Y-80424665D01*
X220600000Y-80308737D01*
X220600000Y-79400000D01*
X221400000Y-79400000D01*
X221400000Y-80308737D01*
X221630631Y-80424665D01*
X222074912Y-80127838D01*
X222424694Y-79630635D01*
X222316307Y-79400000D01*
X221400000Y-79400000D01*
X220600000Y-79400000D01*
X219683693Y-79400000D01*
X219575306Y-79630635D01*
X211458000Y-79630635D01*
X211458000Y-79289500D01*
X211268500Y-79100000D01*
X210100000Y-79100000D01*
X208900000Y-79100000D01*
X207731500Y-79100000D01*
X207542000Y-79289500D01*
X183383530Y-79289500D01*
X183314792Y-79123143D01*
X182879151Y-78686740D01*
X182309667Y-78450270D01*
X181693039Y-78449732D01*
X181123143Y-78685208D01*
X180686740Y-79120849D01*
X180450270Y-79690333D01*
X180449732Y-80306961D01*
X178843235Y-80306961D01*
X179049730Y-79809667D01*
X179050268Y-79193039D01*
X178814792Y-78623143D01*
X178561458Y-78369365D01*
X219575306Y-78369365D01*
X219683693Y-78600000D01*
X220600000Y-78600000D01*
X220600000Y-77691263D01*
X221400000Y-77691263D01*
X221400000Y-78600000D01*
X222316307Y-78600000D01*
X222424694Y-78369365D01*
X222074912Y-77872162D01*
X221630631Y-77575335D01*
X221400000Y-77691263D01*
X220600000Y-77691263D01*
X220369369Y-77575335D01*
X219925088Y-77872162D01*
X219575306Y-78369365D01*
X178561458Y-78369365D01*
X178379151Y-78186740D01*
X177809667Y-77950270D01*
X177193039Y-77949732D01*
X176623143Y-78185208D01*
X176186740Y-78620849D01*
X175950270Y-79190333D01*
X175949732Y-79806961D01*
X169723928Y-79806961D01*
X169636726Y-79368572D01*
X169279051Y-78833274D01*
X168743753Y-78475599D01*
X168112325Y-78350000D01*
X168047675Y-78350000D01*
X167416247Y-78475599D01*
X166880949Y-78833274D01*
X166810000Y-78939457D01*
X166739051Y-78833274D01*
X166203753Y-78475599D01*
X165572325Y-78350000D01*
X165507675Y-78350000D01*
X164876247Y-78475599D01*
X164535821Y-78703065D01*
X164448138Y-78566802D01*
X164197508Y-78395554D01*
X163900000Y-78335307D01*
X162100000Y-78335307D01*
X161822067Y-78387604D01*
X161566802Y-78551862D01*
X161395554Y-78802492D01*
X161335307Y-79100000D01*
X137605024Y-79100000D01*
X137496932Y-78838400D01*
X137083775Y-78424521D01*
X136543684Y-78200256D01*
X135958882Y-78199745D01*
X135418400Y-78423068D01*
X135004521Y-78836225D01*
X134780256Y-79376316D01*
X134779745Y-79961118D01*
X128648250Y-79961118D01*
X128650000Y-79952325D01*
X128650000Y-79887675D01*
X128524401Y-79256247D01*
X128166726Y-78720949D01*
X127631428Y-78363274D01*
X127000000Y-78237675D01*
X126368572Y-78363274D01*
X125833274Y-78720949D01*
X125475599Y-79256247D01*
X125350000Y-79887675D01*
X125350000Y-79952325D01*
X125475599Y-80583753D01*
X125833274Y-81119051D01*
X125939457Y-81190000D01*
X125833274Y-81260949D01*
X125475599Y-81796247D01*
X125350000Y-82427675D01*
X125350000Y-82492325D01*
X125475599Y-83123753D01*
X125703065Y-83464179D01*
X125566802Y-83551862D01*
X125395554Y-83802492D01*
X125335307Y-84100000D01*
X121761826Y-84100000D01*
X121564792Y-83623143D01*
X121129151Y-83186740D01*
X120559667Y-82950270D01*
X119943039Y-82949732D01*
X119373143Y-83185208D01*
X118936740Y-83620849D01*
X118700270Y-84190333D01*
X118699732Y-84806961D01*
X114149307Y-84806961D01*
X114210366Y-84500000D01*
X114092379Y-83906841D01*
X113756382Y-83403984D01*
X113253525Y-83067987D01*
X112660366Y-82950000D01*
X112599634Y-82950000D01*
X112006475Y-83067987D01*
X111503618Y-83403984D01*
X111167621Y-83906841D01*
X111049634Y-84500000D01*
X110692199Y-84500000D01*
X110813260Y-84379151D01*
X111049730Y-83809667D01*
X111050268Y-83193039D01*
X110814792Y-82623143D01*
X110379151Y-82186740D01*
X109809667Y-81950270D01*
X109193039Y-81949732D01*
X108623143Y-82185208D01*
X108186740Y-82620849D01*
X107950270Y-83190333D01*
X107949732Y-83806961D01*
X91564355Y-83806961D01*
X91106029Y-83347834D01*
X90389581Y-83050339D01*
X89613823Y-83049662D01*
X88896857Y-83345906D01*
X88347834Y-83893971D01*
X88050339Y-84610419D01*
X88049662Y-85386177D01*
X79211387Y-85386177D01*
X79288203Y-85000000D01*
X79139768Y-84253767D01*
X78717061Y-83621142D01*
X78084436Y-83198435D01*
X77338203Y-83050000D01*
X77261797Y-83050000D01*
X76515564Y-83198435D01*
X75882939Y-83621142D01*
X75460232Y-84253767D01*
X75311797Y-85000000D01*
X26825000Y-85000000D01*
X26825000Y-81477550D01*
X94979783Y-81477550D01*
X95169684Y-81937143D01*
X95521007Y-82289081D01*
X95980269Y-82479783D01*
X96235307Y-82480006D01*
X96235307Y-83000000D01*
X96287604Y-83277933D01*
X96451862Y-83533198D01*
X96702492Y-83704446D01*
X97000000Y-83764693D01*
X98000000Y-83764693D01*
X98277933Y-83712396D01*
X98533198Y-83548138D01*
X98704446Y-83297508D01*
X98764693Y-83000000D01*
X98764693Y-82000000D01*
X98712396Y-81722067D01*
X98555055Y-81477550D01*
X101979783Y-81477550D01*
X102169684Y-81937143D01*
X102521007Y-82289081D01*
X102980269Y-82479783D01*
X103235307Y-82480006D01*
X103235307Y-83000000D01*
X103287604Y-83277933D01*
X103451862Y-83533198D01*
X103702492Y-83704446D01*
X104000000Y-83764693D01*
X105000000Y-83764693D01*
X105277933Y-83712396D01*
X105533198Y-83548138D01*
X105704446Y-83297508D01*
X105764693Y-83000000D01*
X105764693Y-82000000D01*
X105712396Y-81722067D01*
X105548138Y-81466802D01*
X105314203Y-81306961D01*
X110949732Y-81306961D01*
X111185208Y-81876857D01*
X111620849Y-82313260D01*
X112190333Y-82549730D01*
X112806961Y-82550268D01*
X113376857Y-82314792D01*
X113813260Y-81879151D01*
X114049730Y-81309667D01*
X114050268Y-80693039D01*
X113814792Y-80123143D01*
X113419890Y-79727550D01*
X114979783Y-79727550D01*
X115169684Y-80187143D01*
X115521007Y-80539081D01*
X115980269Y-80729783D01*
X116235307Y-80730006D01*
X116235307Y-81250000D01*
X116287604Y-81527933D01*
X116451862Y-81783198D01*
X116702492Y-81954446D01*
X117000000Y-82014693D01*
X118000000Y-82014693D01*
X118277933Y-81962396D01*
X118533198Y-81798138D01*
X118704446Y-81547508D01*
X118764693Y-81250000D01*
X118764693Y-80250000D01*
X118712396Y-79972067D01*
X118548138Y-79716802D01*
X118297508Y-79545554D01*
X118000000Y-79485307D01*
X117479996Y-79485307D01*
X117480018Y-79459984D01*
X117747550Y-79460217D01*
X118207143Y-79270316D01*
X118559081Y-78918993D01*
X118749783Y-78459731D01*
X118750217Y-77962450D01*
X118560316Y-77502857D01*
X118208993Y-77150919D01*
X117749731Y-76960217D01*
X117252450Y-76959783D01*
X116792857Y-77149684D01*
X116440919Y-77501007D01*
X116250217Y-77960269D01*
X116249982Y-78230016D01*
X115982450Y-78229783D01*
X115522857Y-78419684D01*
X115170919Y-78771007D01*
X114980217Y-79230269D01*
X114979783Y-79727550D01*
X113419890Y-79727550D01*
X113379151Y-79686740D01*
X112809667Y-79450270D01*
X112193039Y-79449732D01*
X111623143Y-79685208D01*
X111186740Y-80120849D01*
X110950270Y-80690333D01*
X110949732Y-81306961D01*
X105314203Y-81306961D01*
X105297508Y-81295554D01*
X105000000Y-81235307D01*
X104479996Y-81235307D01*
X104480018Y-81209984D01*
X104747550Y-81210217D01*
X105207143Y-81020316D01*
X105559081Y-80668993D01*
X105749783Y-80209731D01*
X105750217Y-79712450D01*
X105560316Y-79252857D01*
X105208993Y-78900919D01*
X104749731Y-78710217D01*
X104252450Y-78709783D01*
X103792857Y-78899684D01*
X103440919Y-79251007D01*
X103250217Y-79710269D01*
X103249982Y-79980016D01*
X102982450Y-79979783D01*
X102522857Y-80169684D01*
X102170919Y-80521007D01*
X101980217Y-80980269D01*
X101979783Y-81477550D01*
X98555055Y-81477550D01*
X98548138Y-81466802D01*
X98297508Y-81295554D01*
X98000000Y-81235307D01*
X97479996Y-81235307D01*
X97480018Y-81209984D01*
X97747550Y-81210217D01*
X98207143Y-81020316D01*
X98559081Y-80668993D01*
X98749783Y-80209731D01*
X98750217Y-79712450D01*
X98560316Y-79252857D01*
X98208993Y-78900919D01*
X97749731Y-78710217D01*
X97252450Y-78709783D01*
X96792857Y-78899684D01*
X96440919Y-79251007D01*
X96250217Y-79710269D01*
X96249982Y-79980016D01*
X95982450Y-79979783D01*
X95522857Y-80169684D01*
X95170919Y-80521007D01*
X94980217Y-80980269D01*
X94979783Y-81477550D01*
X26825000Y-81477550D01*
X26825000Y-80129407D01*
X80219121Y-80129407D01*
X80366232Y-80393089D01*
X81138928Y-80491518D01*
X81633768Y-80393089D01*
X81780879Y-80129407D01*
X81000000Y-79348528D01*
X80219121Y-80129407D01*
X26825000Y-80129407D01*
X26825000Y-68900000D01*
X45135307Y-68900000D01*
X45135307Y-71100000D01*
X45187604Y-71377933D01*
X45351862Y-71633198D01*
X45602492Y-71804446D01*
X45900000Y-71864693D01*
X46694322Y-71864693D01*
X46646609Y-71936101D01*
X46505361Y-72089751D01*
X46458690Y-72217341D01*
X46383211Y-72330304D01*
X46342494Y-72535003D01*
X46270796Y-72731013D01*
X45570796Y-77231013D01*
X45599487Y-77913226D01*
X45887065Y-78532529D01*
X46389751Y-78994639D01*
X47031013Y-79229204D01*
X47713226Y-79200513D01*
X48332529Y-78912935D01*
X48499957Y-78730805D01*
X59334881Y-78730805D01*
X59419983Y-78978846D01*
X60030064Y-79088239D01*
X60580017Y-78978846D01*
X60665119Y-78730805D01*
X60573243Y-78638928D01*
X79008482Y-78638928D01*
X79106911Y-79133768D01*
X79370593Y-79280879D01*
X80151472Y-78500000D01*
X81848528Y-78500000D01*
X82629407Y-79280879D01*
X82893089Y-79133768D01*
X82893488Y-79130635D01*
X91075306Y-79130635D01*
X91425088Y-79627838D01*
X91869369Y-79924665D01*
X92100000Y-79808737D01*
X92100000Y-78900000D01*
X92900000Y-78900000D01*
X92900000Y-79808737D01*
X93130631Y-79924665D01*
X93574912Y-79627838D01*
X93924694Y-79130635D01*
X93816307Y-78900000D01*
X92900000Y-78900000D01*
X92100000Y-78900000D01*
X91183693Y-78900000D01*
X91075306Y-79130635D01*
X82893488Y-79130635D01*
X82991518Y-78361072D01*
X82893713Y-77869365D01*
X91075306Y-77869365D01*
X91183693Y-78100000D01*
X92100000Y-78100000D01*
X92100000Y-77191263D01*
X92900000Y-77191263D01*
X92900000Y-78100000D01*
X93816307Y-78100000D01*
X93924694Y-77869365D01*
X93574912Y-77372162D01*
X93130631Y-77075335D01*
X92900000Y-77191263D01*
X92100000Y-77191263D01*
X91869369Y-77075335D01*
X91425088Y-77372162D01*
X91075306Y-77869365D01*
X82893713Y-77869365D01*
X82893089Y-77866232D01*
X82629407Y-77719121D01*
X81848528Y-78500000D01*
X80151472Y-78500000D01*
X79370593Y-77719121D01*
X79106911Y-77866232D01*
X79008482Y-78638928D01*
X60573243Y-78638928D01*
X60000000Y-78065685D01*
X59334881Y-78730805D01*
X48499957Y-78730805D01*
X48794639Y-78410249D01*
X49029204Y-77768987D01*
X49066369Y-77530064D01*
X58411761Y-77530064D01*
X58521154Y-78080017D01*
X58769195Y-78165119D01*
X59434315Y-77500000D01*
X60565685Y-77500000D01*
X61230805Y-78165119D01*
X61478846Y-78080017D01*
X61588239Y-77469936D01*
X61478846Y-76919983D01*
X61334893Y-76870593D01*
X80219121Y-76870593D01*
X81000000Y-77651472D01*
X81780879Y-76870593D01*
X81745379Y-76806961D01*
X97449732Y-76806961D01*
X97685208Y-77376857D01*
X98120849Y-77813260D01*
X98690333Y-78049730D01*
X99306961Y-78050268D01*
X99876857Y-77814792D01*
X100313260Y-77379151D01*
X100549730Y-76809667D01*
X100549732Y-76806961D01*
X102949732Y-76806961D01*
X103185208Y-77376857D01*
X103620849Y-77813260D01*
X104190333Y-78049730D01*
X104806961Y-78050268D01*
X105376857Y-77814792D01*
X105813260Y-77379151D01*
X106049730Y-76809667D01*
X106050268Y-76193039D01*
X105908377Y-75849634D01*
X107950000Y-75849634D01*
X107950000Y-75910366D01*
X108067987Y-76503525D01*
X108403984Y-77006382D01*
X108906841Y-77342379D01*
X109500000Y-77460366D01*
X110093159Y-77342379D01*
X110596016Y-77006382D01*
X110932013Y-76503525D01*
X111050000Y-75910366D01*
X111050000Y-75849634D01*
X110991784Y-75556961D01*
X138949732Y-75556961D01*
X139185208Y-76126857D01*
X139620849Y-76563260D01*
X140190333Y-76799730D01*
X140806961Y-76800268D01*
X141376857Y-76564792D01*
X141813260Y-76129151D01*
X141866888Y-76000000D01*
X146237675Y-76000000D01*
X146363274Y-76631428D01*
X146720949Y-77166726D01*
X147256247Y-77524401D01*
X147887675Y-77650000D01*
X147952325Y-77650000D01*
X148583753Y-77524401D01*
X149119051Y-77166726D01*
X149190000Y-77060543D01*
X149260949Y-77166726D01*
X149796247Y-77524401D01*
X150427675Y-77650000D01*
X150492325Y-77650000D01*
X151123753Y-77524401D01*
X151464179Y-77296935D01*
X151551862Y-77433198D01*
X151802492Y-77604446D01*
X152100000Y-77664693D01*
X153900000Y-77664693D01*
X154177933Y-77612396D01*
X154433198Y-77448138D01*
X154604446Y-77197508D01*
X154664693Y-76900000D01*
X154664693Y-76089634D01*
X172200000Y-76089634D01*
X172200000Y-76150366D01*
X172317987Y-76743525D01*
X172653984Y-77246382D01*
X173156841Y-77582379D01*
X173750000Y-77700366D01*
X174343159Y-77582379D01*
X174846016Y-77246382D01*
X175182013Y-76743525D01*
X175300000Y-76150366D01*
X175300000Y-76089634D01*
X175298831Y-76083756D01*
X196650000Y-76083756D01*
X196650000Y-76156244D01*
X196790823Y-76864208D01*
X197191852Y-77464392D01*
X197792036Y-77865421D01*
X198500000Y-78006244D01*
X199207964Y-77865421D01*
X199808148Y-77464392D01*
X200018735Y-77149224D01*
X207542000Y-77149224D01*
X207542000Y-77710500D01*
X207731500Y-77900000D01*
X208900000Y-77900000D01*
X208900000Y-76731500D01*
X210100000Y-76731500D01*
X210100000Y-77900000D01*
X211268500Y-77900000D01*
X211458000Y-77710500D01*
X211458000Y-77149224D01*
X211342601Y-76870627D01*
X211129372Y-76657398D01*
X210850775Y-76542000D01*
X210289500Y-76542000D01*
X210100000Y-76731500D01*
X208900000Y-76731500D01*
X208710500Y-76542000D01*
X208149225Y-76542000D01*
X207870628Y-76657398D01*
X207657399Y-76870627D01*
X207542000Y-77149224D01*
X200018735Y-77149224D01*
X200209177Y-76864208D01*
X200350000Y-76156244D01*
X200350000Y-76083756D01*
X200209177Y-75375792D01*
X199808148Y-74775608D01*
X199207964Y-74374579D01*
X198500000Y-74233756D01*
X197792036Y-74374579D01*
X197191852Y-74775608D01*
X196790823Y-75375792D01*
X196650000Y-76083756D01*
X175298831Y-76083756D01*
X175182013Y-75496475D01*
X174846016Y-74993618D01*
X174343159Y-74657621D01*
X173750000Y-74539634D01*
X173156841Y-74657621D01*
X172653984Y-74993618D01*
X172317987Y-75496475D01*
X172200000Y-76089634D01*
X154664693Y-76089634D01*
X154664693Y-75100000D01*
X154612396Y-74822067D01*
X154448138Y-74566802D01*
X154197508Y-74395554D01*
X153900000Y-74335307D01*
X152100000Y-74335307D01*
X151822067Y-74387604D01*
X151566802Y-74551862D01*
X151463706Y-74702748D01*
X151123753Y-74475599D01*
X150492325Y-74350000D01*
X150427675Y-74350000D01*
X149796247Y-74475599D01*
X149260949Y-74833274D01*
X149190000Y-74939457D01*
X149119051Y-74833274D01*
X148583753Y-74475599D01*
X147952325Y-74350000D01*
X147887675Y-74350000D01*
X147256247Y-74475599D01*
X146720949Y-74833274D01*
X146363274Y-75368572D01*
X146237675Y-76000000D01*
X141866888Y-76000000D01*
X142049730Y-75559667D01*
X142050268Y-74943039D01*
X141814792Y-74373143D01*
X141379151Y-73936740D01*
X140809667Y-73700270D01*
X140193039Y-73699732D01*
X139623143Y-73935208D01*
X139186740Y-74370849D01*
X138950270Y-74940333D01*
X138949732Y-75556961D01*
X110991784Y-75556961D01*
X110932013Y-75256475D01*
X110596016Y-74753618D01*
X110093159Y-74417621D01*
X109500000Y-74299634D01*
X108906841Y-74417621D01*
X108403984Y-74753618D01*
X108067987Y-75256475D01*
X107950000Y-75849634D01*
X105908377Y-75849634D01*
X105814792Y-75623143D01*
X105379151Y-75186740D01*
X104809667Y-74950270D01*
X104193039Y-74949732D01*
X103623143Y-75185208D01*
X103186740Y-75620849D01*
X102950270Y-76190333D01*
X102949732Y-76806961D01*
X100549732Y-76806961D01*
X100550268Y-76193039D01*
X100314792Y-75623143D01*
X99879151Y-75186740D01*
X99309667Y-74950270D01*
X98693039Y-74949732D01*
X98123143Y-75185208D01*
X97686740Y-75620849D01*
X97450270Y-76190333D01*
X97449732Y-76806961D01*
X81745379Y-76806961D01*
X81633768Y-76606911D01*
X80861072Y-76508482D01*
X80366232Y-76606911D01*
X80219121Y-76870593D01*
X61334893Y-76870593D01*
X61230805Y-76834881D01*
X60565685Y-77500000D01*
X59434315Y-77500000D01*
X58769195Y-76834881D01*
X58521154Y-76919983D01*
X58411761Y-77530064D01*
X49066369Y-77530064D01*
X49262504Y-76269195D01*
X59334881Y-76269195D01*
X60000000Y-76934315D01*
X60665119Y-76269195D01*
X60580017Y-76021154D01*
X59969936Y-75911761D01*
X59419983Y-76021154D01*
X59334881Y-76269195D01*
X49262504Y-76269195D01*
X49580690Y-74223723D01*
X49616789Y-74169696D01*
X49750000Y-73500000D01*
X49750000Y-73000000D01*
X49709283Y-72795301D01*
X49700513Y-72586774D01*
X49643294Y-72463551D01*
X49616789Y-72330304D01*
X49500837Y-72156770D01*
X49412935Y-71967471D01*
X49312916Y-71875525D01*
X49237437Y-71762563D01*
X49063899Y-71646609D01*
X48910249Y-71505361D01*
X48782659Y-71458690D01*
X48768916Y-71449508D01*
X48804446Y-71397508D01*
X48864693Y-71100000D01*
X48864693Y-68900000D01*
X48812396Y-68622067D01*
X48648138Y-68366802D01*
X48397508Y-68195554D01*
X48100000Y-68135307D01*
X45900000Y-68135307D01*
X45622067Y-68187604D01*
X45366802Y-68351862D01*
X45195554Y-68602492D01*
X45135307Y-68900000D01*
X26825000Y-68900000D01*
X26825000Y-66832637D01*
X27143971Y-67152166D01*
X27860419Y-67449661D01*
X28636177Y-67450338D01*
X29353143Y-67154094D01*
X29902166Y-66606029D01*
X30103350Y-66121524D01*
X30237437Y-65987437D01*
X30616789Y-65419696D01*
X30750000Y-64750000D01*
X30750000Y-60750000D01*
X38775126Y-60750000D01*
X41720861Y-63695735D01*
X40988203Y-63550000D01*
X40911797Y-63550000D01*
X40165564Y-63698435D01*
X39532939Y-64121142D01*
X39110232Y-64753767D01*
X38961797Y-65500000D01*
X39110232Y-66246233D01*
X39532939Y-66878858D01*
X40165564Y-67301565D01*
X40911797Y-67450000D01*
X40988203Y-67450000D01*
X41734436Y-67301565D01*
X42367061Y-66878858D01*
X42789768Y-66246233D01*
X42893830Y-65723081D01*
X42959331Y-66052379D01*
X43555456Y-66944544D01*
X44447621Y-67540669D01*
X45500000Y-67750000D01*
X53338668Y-67750000D01*
X53044752Y-69037354D01*
X52874579Y-69292036D01*
X52733756Y-70000000D01*
X52874579Y-70707964D01*
X53275608Y-71308148D01*
X53875792Y-71709177D01*
X54583756Y-71850000D01*
X54656244Y-71850000D01*
X55364208Y-71709177D01*
X55964392Y-71308148D01*
X56365421Y-70707964D01*
X56430440Y-70381090D01*
X56253020Y-73397236D01*
X56346675Y-74073599D01*
X56692034Y-74662637D01*
X57236519Y-75074673D01*
X57897236Y-75246980D01*
X58573599Y-75153325D01*
X59162637Y-74807966D01*
X59574673Y-74263481D01*
X59746980Y-73602764D01*
X59761869Y-73349634D01*
X110950000Y-73349634D01*
X110950000Y-73410366D01*
X111067987Y-74003525D01*
X111403984Y-74506382D01*
X111906841Y-74842379D01*
X112500000Y-74960366D01*
X113093159Y-74842379D01*
X113596016Y-74506382D01*
X113932013Y-74003525D01*
X113932714Y-74000000D01*
X114299634Y-74000000D01*
X114417621Y-74593159D01*
X114753618Y-75096016D01*
X115256475Y-75432013D01*
X115849634Y-75550000D01*
X115910366Y-75550000D01*
X116503525Y-75432013D01*
X117006382Y-75096016D01*
X117342379Y-74593159D01*
X117460366Y-74000000D01*
X117342379Y-73406841D01*
X117006382Y-72903984D01*
X116503525Y-72567987D01*
X115910366Y-72450000D01*
X115849634Y-72450000D01*
X115256475Y-72567987D01*
X114753618Y-72903984D01*
X114417621Y-73406841D01*
X114299634Y-74000000D01*
X113932714Y-74000000D01*
X114050000Y-73410366D01*
X114050000Y-73349634D01*
X113932013Y-72756475D01*
X113596016Y-72253618D01*
X113093159Y-71917621D01*
X112500000Y-71799634D01*
X111906841Y-71917621D01*
X111403984Y-72253618D01*
X111067987Y-72756475D01*
X110950000Y-73349634D01*
X59761869Y-73349634D01*
X59988318Y-69500000D01*
X61735307Y-69500000D01*
X61735307Y-72500000D01*
X61787604Y-72777933D01*
X61951862Y-73033198D01*
X62202492Y-73204446D01*
X62500000Y-73264693D01*
X65500000Y-73264693D01*
X65777933Y-73212396D01*
X66033198Y-73048138D01*
X66115994Y-72926961D01*
X68213699Y-72926961D01*
X68407361Y-73201784D01*
X69301149Y-73291592D01*
X69752639Y-73201784D01*
X69946301Y-72926961D01*
X69080000Y-72060660D01*
X68213699Y-72926961D01*
X66115994Y-72926961D01*
X66204446Y-72797508D01*
X66264693Y-72500000D01*
X66264693Y-71221149D01*
X66788408Y-71221149D01*
X66878216Y-71672639D01*
X67153039Y-71866301D01*
X68019340Y-71000000D01*
X70140660Y-71000000D01*
X71006961Y-71866301D01*
X71281784Y-71672639D01*
X71371592Y-70778851D01*
X71281784Y-70327361D01*
X71006961Y-70133699D01*
X70140660Y-71000000D01*
X68019340Y-71000000D01*
X67153039Y-70133699D01*
X66878216Y-70327361D01*
X66788408Y-71221149D01*
X66264693Y-71221149D01*
X66264693Y-69500000D01*
X66212396Y-69222067D01*
X66116500Y-69073039D01*
X68213699Y-69073039D01*
X69080000Y-69939340D01*
X69219340Y-69800000D01*
X79035307Y-69800000D01*
X79035307Y-72200000D01*
X79087604Y-72477933D01*
X79251862Y-72733198D01*
X79502492Y-72904446D01*
X79800000Y-72964693D01*
X82200000Y-72964693D01*
X82477933Y-72912396D01*
X82733198Y-72748138D01*
X82904446Y-72497508D01*
X82964693Y-72200000D01*
X82964693Y-69800000D01*
X82912396Y-69522067D01*
X82748138Y-69266802D01*
X82497508Y-69095554D01*
X82200000Y-69035307D01*
X79800000Y-69035307D01*
X79522067Y-69087604D01*
X79266802Y-69251862D01*
X79095554Y-69502492D01*
X79035307Y-69800000D01*
X69219340Y-69800000D01*
X69946301Y-69073039D01*
X69752639Y-68798216D01*
X68858851Y-68708408D01*
X68407361Y-68798216D01*
X68213699Y-69073039D01*
X66116500Y-69073039D01*
X66048138Y-68966802D01*
X65797508Y-68795554D01*
X65500000Y-68735307D01*
X62500000Y-68735307D01*
X62222067Y-68787604D01*
X61966802Y-68951862D01*
X61795554Y-69202492D01*
X61735307Y-69500000D01*
X59988318Y-69500000D01*
X60091260Y-67750000D01*
X91133112Y-67750000D01*
X90950270Y-68190333D01*
X90949732Y-68806961D01*
X91185208Y-69376857D01*
X91620849Y-69813260D01*
X92190333Y-70049730D01*
X92806961Y-70050268D01*
X93376857Y-69814792D01*
X93813260Y-69379151D01*
X94049730Y-68809667D01*
X94050268Y-68193039D01*
X93867208Y-67750000D01*
X97909399Y-67750000D01*
X97903984Y-67753618D01*
X97567987Y-68256475D01*
X97450000Y-68849634D01*
X97450000Y-68910366D01*
X97567987Y-69503525D01*
X97903984Y-70006382D01*
X98406841Y-70342379D01*
X99000000Y-70460366D01*
X99593159Y-70342379D01*
X100096016Y-70006382D01*
X100432013Y-69503525D01*
X100550000Y-68910366D01*
X100550000Y-68849634D01*
X100432013Y-68256475D01*
X100096016Y-67753618D01*
X100090601Y-67750000D01*
X103409399Y-67750000D01*
X103403984Y-67753618D01*
X103067987Y-68256475D01*
X102950000Y-68849634D01*
X102950000Y-68910366D01*
X103067987Y-69503525D01*
X103403984Y-70006382D01*
X103906841Y-70342379D01*
X104500000Y-70460366D01*
X105093159Y-70342379D01*
X105596016Y-70006382D01*
X105600280Y-70000000D01*
X112271797Y-70000000D01*
X112420232Y-70746233D01*
X112842939Y-71378858D01*
X113475564Y-71801565D01*
X114221797Y-71950000D01*
X114298203Y-71950000D01*
X115044436Y-71801565D01*
X115677061Y-71378858D01*
X116099768Y-70746233D01*
X116248203Y-70000000D01*
X116099768Y-69253767D01*
X115677061Y-68621142D01*
X115044436Y-68198435D01*
X114298203Y-68050000D01*
X114221797Y-68050000D01*
X113475564Y-68198435D01*
X112842939Y-68621142D01*
X112420232Y-69253767D01*
X112271797Y-70000000D01*
X105600280Y-70000000D01*
X105932013Y-69503525D01*
X106050000Y-68910366D01*
X106050000Y-68849634D01*
X105932013Y-68256475D01*
X105596016Y-67753618D01*
X105590601Y-67750000D01*
X125380000Y-67750000D01*
X125380000Y-72819539D01*
X125253618Y-72903984D01*
X124926514Y-73393531D01*
X124814792Y-73123143D01*
X124379151Y-72686740D01*
X123809667Y-72450270D01*
X123193039Y-72449732D01*
X122623143Y-72685208D01*
X122186740Y-73120849D01*
X121950270Y-73690333D01*
X121949732Y-74306961D01*
X122185208Y-74876857D01*
X122620849Y-75313260D01*
X123190333Y-75549730D01*
X123806961Y-75550268D01*
X124376857Y-75314792D01*
X124813260Y-74879151D01*
X124926498Y-74606444D01*
X125253618Y-75096016D01*
X125756475Y-75432013D01*
X126349634Y-75550000D01*
X126410366Y-75550000D01*
X127003525Y-75432013D01*
X127506382Y-75096016D01*
X127842379Y-74593159D01*
X127899307Y-74306961D01*
X132449732Y-74306961D01*
X132685208Y-74876857D01*
X133120849Y-75313260D01*
X133690333Y-75549730D01*
X134306961Y-75550268D01*
X134876857Y-75314792D01*
X135313260Y-74879151D01*
X135549730Y-74309667D01*
X135550268Y-73693039D01*
X135314792Y-73123143D01*
X134879151Y-72686740D01*
X134309667Y-72450270D01*
X133693039Y-72449732D01*
X133123143Y-72685208D01*
X132686740Y-73120849D01*
X132450270Y-73690333D01*
X132449732Y-74306961D01*
X127899307Y-74306961D01*
X127960366Y-74000000D01*
X127842379Y-73406841D01*
X127506382Y-72903984D01*
X127380000Y-72819539D01*
X127380000Y-70386177D01*
X127549662Y-70386177D01*
X127845906Y-71103143D01*
X128393971Y-71652166D01*
X129110419Y-71949661D01*
X129886177Y-71950338D01*
X130603143Y-71654094D01*
X131152166Y-71106029D01*
X131449661Y-70389581D01*
X131450338Y-69613823D01*
X131154094Y-68896857D01*
X130606029Y-68347834D01*
X129889581Y-68050339D01*
X129113823Y-68049662D01*
X128396857Y-68345906D01*
X127847834Y-68893971D01*
X127550339Y-69610419D01*
X127549662Y-70386177D01*
X127380000Y-70386177D01*
X127380000Y-67750000D01*
X132308238Y-67750000D01*
X131936740Y-68120849D01*
X131700270Y-68690333D01*
X131699732Y-69306961D01*
X131935208Y-69876857D01*
X132370849Y-70313260D01*
X132940333Y-70549730D01*
X133556961Y-70550268D01*
X134126857Y-70314792D01*
X134563260Y-69879151D01*
X134799730Y-69309667D01*
X134800268Y-68693039D01*
X134564792Y-68123143D01*
X134192301Y-67750000D01*
X135460000Y-67750000D01*
X135460000Y-70232029D01*
X135400919Y-70291007D01*
X135210217Y-70750269D01*
X135209783Y-71247550D01*
X135399684Y-71707143D01*
X135751007Y-72059081D01*
X136210269Y-72249783D01*
X136480016Y-72250018D01*
X136479783Y-72517550D01*
X136669684Y-72977143D01*
X137021007Y-73329081D01*
X137480269Y-73519783D01*
X137977550Y-73520217D01*
X138437143Y-73330316D01*
X138768037Y-73000000D01*
X175771797Y-73000000D01*
X175920232Y-73746233D01*
X176342939Y-74378858D01*
X176975564Y-74801565D01*
X177721797Y-74950000D01*
X177798203Y-74950000D01*
X178544436Y-74801565D01*
X179177061Y-74378858D01*
X179599768Y-73746233D01*
X179671387Y-73386177D01*
X191049662Y-73386177D01*
X191345906Y-74103143D01*
X191893971Y-74652166D01*
X192610419Y-74949661D01*
X193386177Y-74950338D01*
X194103143Y-74654094D01*
X194652166Y-74106029D01*
X194949661Y-73389581D01*
X194950338Y-72613823D01*
X194654094Y-71896857D01*
X194144306Y-71386177D01*
X207549662Y-71386177D01*
X207845906Y-72103143D01*
X208393971Y-72652166D01*
X209110419Y-72949661D01*
X209886177Y-72950338D01*
X210603143Y-72654094D01*
X211152166Y-72106029D01*
X211449661Y-71389581D01*
X211450338Y-70613823D01*
X211154094Y-69896857D01*
X210606029Y-69347834D01*
X209889581Y-69050339D01*
X209113823Y-69049662D01*
X208396857Y-69345906D01*
X207847834Y-69893971D01*
X207550339Y-70610419D01*
X207549662Y-71386177D01*
X194144306Y-71386177D01*
X194106029Y-71347834D01*
X193389581Y-71050339D01*
X192613823Y-71049662D01*
X191896857Y-71345906D01*
X191347834Y-71893971D01*
X191050339Y-72610419D01*
X191049662Y-73386177D01*
X179671387Y-73386177D01*
X179748203Y-73000000D01*
X179599768Y-72253767D01*
X179177061Y-71621142D01*
X178544436Y-71198435D01*
X177798203Y-71050000D01*
X177721797Y-71050000D01*
X176975564Y-71198435D01*
X176342939Y-71621142D01*
X175920232Y-72253767D01*
X175771797Y-73000000D01*
X138768037Y-73000000D01*
X138789081Y-72978993D01*
X138979783Y-72519731D01*
X138980006Y-72264693D01*
X139500000Y-72264693D01*
X139777933Y-72212396D01*
X140033198Y-72048138D01*
X140204446Y-71797508D01*
X140264693Y-71500000D01*
X140264693Y-70500000D01*
X140212396Y-70222067D01*
X140048138Y-69966802D01*
X139797508Y-69795554D01*
X139500000Y-69735307D01*
X138500000Y-69735307D01*
X138222067Y-69787604D01*
X137966802Y-69951862D01*
X137795554Y-70202492D01*
X137735307Y-70500000D01*
X137735307Y-71020004D01*
X137709984Y-71019982D01*
X137710217Y-70752450D01*
X137520316Y-70292857D01*
X137460000Y-70232435D01*
X137460000Y-67750000D01*
X140475808Y-67750000D01*
X140435307Y-67950000D01*
X140435307Y-69550000D01*
X140487604Y-69827933D01*
X140651862Y-70083198D01*
X140902492Y-70254446D01*
X141200000Y-70314693D01*
X142800000Y-70314693D01*
X143077933Y-70262396D01*
X143333198Y-70098138D01*
X143504446Y-69847508D01*
X143564693Y-69550000D01*
X143564693Y-67950000D01*
X143527060Y-67750000D01*
X154149720Y-67750000D01*
X153817987Y-68246475D01*
X153700000Y-68839634D01*
X153700000Y-68900366D01*
X153817987Y-69493525D01*
X154153984Y-69996382D01*
X154656841Y-70332379D01*
X155250000Y-70450366D01*
X155843159Y-70332379D01*
X156346016Y-69996382D01*
X156682013Y-69493525D01*
X156800000Y-68900366D01*
X156800000Y-68839634D01*
X156682013Y-68246475D01*
X156350280Y-67750000D01*
X160731963Y-67750000D01*
X160710919Y-67771007D01*
X160520217Y-68230269D01*
X160519994Y-68485307D01*
X160000000Y-68485307D01*
X159722067Y-68537604D01*
X159466802Y-68701862D01*
X159295554Y-68952492D01*
X159235307Y-69250000D01*
X159235307Y-70250000D01*
X159287604Y-70527933D01*
X159451862Y-70783198D01*
X159702492Y-70954446D01*
X160000000Y-71014693D01*
X161000000Y-71014693D01*
X161277933Y-70962396D01*
X161533198Y-70798138D01*
X161704446Y-70547508D01*
X161764693Y-70250000D01*
X161764693Y-69729996D01*
X161790016Y-69730018D01*
X161789783Y-69997550D01*
X161979684Y-70457143D01*
X162331007Y-70809081D01*
X162790269Y-70999783D01*
X163287550Y-71000217D01*
X163747143Y-70810316D01*
X164099081Y-70458993D01*
X164289783Y-69999731D01*
X164290217Y-69502450D01*
X164179564Y-69234650D01*
X164387107Y-69027107D01*
X164603880Y-68702684D01*
X164680001Y-68320000D01*
X164680000Y-68319995D01*
X164680000Y-67750000D01*
X172383112Y-67750000D01*
X172200270Y-68190333D01*
X172199732Y-68806961D01*
X172435208Y-69376857D01*
X172870849Y-69813260D01*
X173440333Y-70049730D01*
X174056961Y-70050268D01*
X174626857Y-69814792D01*
X174906232Y-69535904D01*
X174917621Y-69593159D01*
X175253618Y-70096016D01*
X175756475Y-70432013D01*
X176349634Y-70550000D01*
X176410366Y-70550000D01*
X177003525Y-70432013D01*
X177506382Y-70096016D01*
X177842379Y-69593159D01*
X177960366Y-69000000D01*
X177842379Y-68406841D01*
X177506382Y-67903984D01*
X177275928Y-67750000D01*
X183000000Y-67750000D01*
X183000000Y-67808136D01*
X182686740Y-68120849D01*
X182450270Y-68690333D01*
X182449732Y-69306961D01*
X182685208Y-69876857D01*
X183120849Y-70313260D01*
X183690333Y-70549730D01*
X184306961Y-70550268D01*
X184876857Y-70314792D01*
X185313260Y-69879151D01*
X185323083Y-69855494D01*
X185435208Y-70126857D01*
X185870849Y-70563260D01*
X186440333Y-70799730D01*
X187056961Y-70800268D01*
X187626857Y-70564792D01*
X188063260Y-70129151D01*
X188299730Y-69559667D01*
X188300268Y-68943039D01*
X188064792Y-68373143D01*
X187629151Y-67936740D01*
X187179430Y-67750000D01*
X196635307Y-67750000D01*
X196635307Y-69600000D01*
X196687604Y-69877933D01*
X196851862Y-70133198D01*
X197102492Y-70304446D01*
X197400000Y-70364693D01*
X199600000Y-70364693D01*
X199877933Y-70312396D01*
X200133198Y-70148138D01*
X200304446Y-69897508D01*
X200364693Y-69600000D01*
X200364693Y-69013559D01*
X201447743Y-67750000D01*
X220058238Y-67750000D01*
X219686740Y-68120849D01*
X219450270Y-68690333D01*
X219449732Y-69306961D01*
X219685208Y-69876857D01*
X220120849Y-70313260D01*
X220690333Y-70549730D01*
X221306961Y-70550268D01*
X221428618Y-70500000D01*
X223735307Y-70500000D01*
X223735307Y-73500000D01*
X223787604Y-73777933D01*
X223951862Y-74033198D01*
X224202492Y-74204446D01*
X224500000Y-74264693D01*
X227500000Y-74264693D01*
X227777933Y-74212396D01*
X228033198Y-74048138D01*
X228204446Y-73797508D01*
X228264693Y-73500000D01*
X228264693Y-72445589D01*
X228829610Y-72445589D01*
X229171431Y-73272858D01*
X229803813Y-73906345D01*
X230630484Y-74249608D01*
X231525589Y-74250390D01*
X232352858Y-73908569D01*
X232986345Y-73276187D01*
X233329608Y-72449516D01*
X233330390Y-71554411D01*
X232988569Y-70727142D01*
X232356187Y-70093655D01*
X231529516Y-69750392D01*
X230634411Y-69749610D01*
X229807142Y-70091431D01*
X229173655Y-70723813D01*
X228830392Y-71550484D01*
X228829610Y-72445589D01*
X228264693Y-72445589D01*
X228264693Y-70500000D01*
X228212396Y-70222067D01*
X228048138Y-69966802D01*
X227797508Y-69795554D01*
X227500000Y-69735307D01*
X224500000Y-69735307D01*
X224222067Y-69787604D01*
X223966802Y-69951862D01*
X223795554Y-70202492D01*
X223735307Y-70500000D01*
X221428618Y-70500000D01*
X221876857Y-70314792D01*
X222313260Y-69879151D01*
X222549730Y-69309667D01*
X222550268Y-68693039D01*
X222314792Y-68123143D01*
X221942301Y-67750000D01*
X238110912Y-67750000D01*
X239750000Y-69389088D01*
X239750000Y-72000000D01*
X239959331Y-73052379D01*
X240235307Y-73465407D01*
X240235307Y-73500000D01*
X240287604Y-73777933D01*
X240451862Y-74033198D01*
X240702492Y-74204446D01*
X241000000Y-74264693D01*
X241034593Y-74264693D01*
X241447621Y-74540669D01*
X242500000Y-74750000D01*
X243552379Y-74540669D01*
X243965407Y-74264693D01*
X244000000Y-74264693D01*
X244277933Y-74212396D01*
X244533198Y-74048138D01*
X244615994Y-73926961D01*
X246713699Y-73926961D01*
X246907361Y-74201784D01*
X247801149Y-74291592D01*
X248252639Y-74201784D01*
X248446301Y-73926961D01*
X247580000Y-73060660D01*
X246713699Y-73926961D01*
X244615994Y-73926961D01*
X244704446Y-73797508D01*
X244764693Y-73500000D01*
X244764693Y-73465407D01*
X245040669Y-73052379D01*
X245206010Y-72221149D01*
X245288408Y-72221149D01*
X245378216Y-72672639D01*
X245653039Y-72866301D01*
X246519340Y-72000000D01*
X248640660Y-72000000D01*
X249506961Y-72866301D01*
X249781784Y-72672639D01*
X249871592Y-71778851D01*
X249781784Y-71327361D01*
X249506961Y-71133699D01*
X248640660Y-72000000D01*
X246519340Y-72000000D01*
X245653039Y-71133699D01*
X245378216Y-71327361D01*
X245288408Y-72221149D01*
X245206010Y-72221149D01*
X245250000Y-72000000D01*
X245250000Y-70073039D01*
X246713699Y-70073039D01*
X247580000Y-70939340D01*
X248446301Y-70073039D01*
X248252639Y-69798216D01*
X247358851Y-69708408D01*
X246907361Y-69798216D01*
X246713699Y-70073039D01*
X245250000Y-70073039D01*
X245250000Y-68250000D01*
X245207457Y-68036120D01*
X245040669Y-67197620D01*
X244741579Y-66750000D01*
X247188392Y-66750000D01*
X247265564Y-66801565D01*
X248011797Y-66950000D01*
X248088203Y-66950000D01*
X248834436Y-66801565D01*
X249467061Y-66378858D01*
X249889768Y-65746233D01*
X250038203Y-65000000D01*
X249889768Y-64253767D01*
X249467061Y-63621142D01*
X248834436Y-63198435D01*
X248088203Y-63050000D01*
X248011797Y-63050000D01*
X247265564Y-63198435D01*
X247188392Y-63250000D01*
X243474874Y-63250000D01*
X243917437Y-62807437D01*
X243928131Y-62791432D01*
X243943899Y-62780396D01*
X244117417Y-62508145D01*
X244296789Y-62239696D01*
X244300544Y-62220818D01*
X244310889Y-62204587D01*
X244869244Y-60769615D01*
X245242401Y-60520280D01*
X245708462Y-59822769D01*
X245872121Y-59000000D01*
X245816449Y-58720119D01*
X245880211Y-58718923D01*
X246067258Y-58748707D01*
X251803219Y-58528093D01*
X258897085Y-65621959D01*
X259095906Y-66103143D01*
X259643971Y-66652166D01*
X260360419Y-66949661D01*
X261136177Y-66950338D01*
X261853143Y-66654094D01*
X262402166Y-66106029D01*
X262699661Y-65389581D01*
X262700338Y-64613823D01*
X262404094Y-63896857D01*
X261856029Y-63347834D01*
X261371524Y-63146650D01*
X253737437Y-55512563D01*
X253709025Y-55493579D01*
X253688964Y-55465919D01*
X253426135Y-55304558D01*
X253169696Y-55133211D01*
X253136183Y-55126545D01*
X253107063Y-55108667D01*
X252802488Y-55060169D01*
X252500000Y-55000000D01*
X252466487Y-55006666D01*
X252432742Y-55001293D01*
X246889697Y-55214487D01*
X244895021Y-52347141D01*
X244914693Y-52250000D01*
X244914693Y-43825000D01*
X245323307Y-43825000D01*
X245323307Y-47928000D01*
X245323307Y-47928000D01*
G37*
X245323307Y-47928000D02*
X245375604Y-48205933D01*
X245539862Y-48461198D01*
X245544811Y-48464580D01*
X245450000Y-48941227D01*
X245450000Y-51058773D01*
X245602241Y-51824140D01*
X246035786Y-52472987D01*
X246684633Y-52906532D01*
X247450000Y-53058773D01*
X248215367Y-52906532D01*
X248864214Y-52472987D01*
X249297759Y-51824140D01*
X249450000Y-51058773D01*
X249450000Y-48941227D01*
X249387412Y-48626575D01*
X249621198Y-48476138D01*
X249792446Y-48225508D01*
X249852693Y-47928000D01*
X249852693Y-43825000D01*
X250053307Y-43825000D01*
X250053307Y-47928000D01*
X250105604Y-48205933D01*
X250269862Y-48461198D01*
X250360117Y-48522866D01*
X250220749Y-48731445D01*
X250000000Y-49841227D01*
X250000000Y-50158773D01*
X250220749Y-51268555D01*
X250849390Y-52209383D01*
X251790218Y-52838024D01*
X252900000Y-53058773D01*
X254009782Y-52838024D01*
X254312577Y-52635703D01*
X261849634Y-59419055D01*
X261849628Y-59425785D01*
X262176256Y-60216286D01*
X262780533Y-60821619D01*
X263570462Y-61149626D01*
X264425785Y-61150372D01*
X265175000Y-60840803D01*
X265175000Y-101241019D01*
X264577934Y-100642910D01*
X263555802Y-100218484D01*
X262449054Y-100217518D01*
X261426182Y-100640160D01*
X260642910Y-101422066D01*
X260218484Y-102444198D01*
X260217518Y-103550946D01*
X260640160Y-104573818D01*
X261240294Y-105175000D01*
X179792146Y-105175000D01*
X179878858Y-105117061D01*
X180301565Y-104484436D01*
X180450000Y-103738203D01*
X180450000Y-103661797D01*
X180301565Y-102915564D01*
X179878858Y-102282939D01*
X179246233Y-101860232D01*
X178500000Y-101711797D01*
X177753767Y-101860232D01*
X177121142Y-102282939D01*
X176698435Y-102915564D01*
X176550000Y-103661797D01*
X176550000Y-103738203D01*
X176698435Y-104484436D01*
X177121142Y-105117061D01*
X177207854Y-105175000D01*
X30758981Y-105175000D01*
X31357090Y-104577934D01*
X31781516Y-103555802D01*
X31782482Y-102449054D01*
X31359840Y-101426182D01*
X31240827Y-101306961D01*
X78949732Y-101306961D01*
X79185208Y-101876857D01*
X79620849Y-102313260D01*
X80190333Y-102549730D01*
X80806961Y-102550268D01*
X81376857Y-102314792D01*
X81813260Y-101879151D01*
X82049730Y-101309667D01*
X82049732Y-101306961D01*
X83949732Y-101306961D01*
X84185208Y-101876857D01*
X84620849Y-102313260D01*
X85190333Y-102549730D01*
X85806961Y-102550268D01*
X86376857Y-102314792D01*
X86813260Y-101879151D01*
X86970696Y-101500000D01*
X104235307Y-101500000D01*
X104235307Y-102500000D01*
X104287604Y-102777933D01*
X104451862Y-103033198D01*
X104702492Y-103204446D01*
X105000000Y-103264693D01*
X106000000Y-103264693D01*
X106277933Y-103212396D01*
X106533198Y-103048138D01*
X106704446Y-102797508D01*
X106764693Y-102500000D01*
X106764693Y-101979996D01*
X106790016Y-101980018D01*
X106789783Y-102247550D01*
X106979684Y-102707143D01*
X107331007Y-103059081D01*
X107790269Y-103249783D01*
X108287550Y-103250217D01*
X108747143Y-103060316D01*
X109099081Y-102708993D01*
X109289783Y-102249731D01*
X109290217Y-101752450D01*
X109100316Y-101292857D01*
X108748993Y-100940919D01*
X108289731Y-100750217D01*
X108019984Y-100749982D01*
X108020217Y-100482450D01*
X107830316Y-100022857D01*
X107478993Y-99670919D01*
X107019731Y-99480217D01*
X106522450Y-99479783D01*
X106062857Y-99669684D01*
X105710919Y-100021007D01*
X105520217Y-100480269D01*
X105519994Y-100735307D01*
X105000000Y-100735307D01*
X104722067Y-100787604D01*
X104466802Y-100951862D01*
X104295554Y-101202492D01*
X104235307Y-101500000D01*
X86970696Y-101500000D01*
X87049730Y-101309667D01*
X87050268Y-100693039D01*
X86814792Y-100123143D01*
X86379151Y-99686740D01*
X85809667Y-99450270D01*
X85193039Y-99449732D01*
X84623143Y-99685208D01*
X84186740Y-100120849D01*
X83950270Y-100690333D01*
X83949732Y-101306961D01*
X82049732Y-101306961D01*
X82050268Y-100693039D01*
X81814792Y-100123143D01*
X81379151Y-99686740D01*
X80809667Y-99450270D01*
X80193039Y-99449732D01*
X79623143Y-99685208D01*
X79186740Y-100120849D01*
X78950270Y-100690333D01*
X78949732Y-101306961D01*
X31240827Y-101306961D01*
X30577934Y-100642910D01*
X29555802Y-100218484D01*
X28449054Y-100217518D01*
X27426182Y-100640160D01*
X26825000Y-101240294D01*
X26825000Y-97806961D01*
X77949732Y-97806961D01*
X78185208Y-98376857D01*
X78620849Y-98813260D01*
X79190333Y-99049730D01*
X79806961Y-99050268D01*
X80376857Y-98814792D01*
X80813260Y-98379151D01*
X81049730Y-97809667D01*
X81050000Y-97500000D01*
X85539634Y-97500000D01*
X85657621Y-98093159D01*
X85993618Y-98596016D01*
X86496475Y-98932013D01*
X87089634Y-99050000D01*
X87150366Y-99050000D01*
X87743525Y-98932013D01*
X88246382Y-98596016D01*
X88582379Y-98093159D01*
X88600909Y-98000000D01*
X113235307Y-98000000D01*
X113235307Y-99000000D01*
X113287604Y-99277933D01*
X113451862Y-99533198D01*
X113702492Y-99704446D01*
X114000000Y-99764693D01*
X115000000Y-99764693D01*
X115277933Y-99712396D01*
X115533198Y-99548138D01*
X115704446Y-99297508D01*
X115764693Y-99000000D01*
X115764693Y-98479996D01*
X115790016Y-98480018D01*
X115789783Y-98747550D01*
X115979684Y-99207143D01*
X116331007Y-99559081D01*
X116790269Y-99749783D01*
X117287550Y-99750217D01*
X117747143Y-99560316D01*
X118099081Y-99208993D01*
X118185862Y-99000000D01*
X125799634Y-99000000D01*
X125917621Y-99593159D01*
X126253618Y-100096016D01*
X126756475Y-100432013D01*
X127098268Y-100500000D01*
X126756475Y-100567987D01*
X126253618Y-100903984D01*
X125917621Y-101406841D01*
X125799634Y-102000000D01*
X125917621Y-102593159D01*
X126253618Y-103096016D01*
X126756475Y-103432013D01*
X127349634Y-103550000D01*
X127410366Y-103550000D01*
X128003525Y-103432013D01*
X128506382Y-103096016D01*
X128842379Y-102593159D01*
X128960366Y-102000000D01*
X128842379Y-101406841D01*
X128506382Y-100903984D01*
X128003525Y-100567987D01*
X127661732Y-100500000D01*
X128003525Y-100432013D01*
X128506382Y-100096016D01*
X128842379Y-99593159D01*
X128899307Y-99306961D01*
X133449732Y-99306961D01*
X133685208Y-99876857D01*
X134120849Y-100313260D01*
X134570974Y-100500168D01*
X134123143Y-100685208D01*
X133686740Y-101120849D01*
X133450270Y-101690333D01*
X133449732Y-102306961D01*
X133685208Y-102876857D01*
X134120849Y-103313260D01*
X134690333Y-103549730D01*
X135306961Y-103550268D01*
X135876857Y-103314792D01*
X136313260Y-102879151D01*
X136549730Y-102309667D01*
X136550268Y-101693039D01*
X136314792Y-101123143D01*
X135879151Y-100686740D01*
X135429026Y-100499832D01*
X135876857Y-100314792D01*
X136313260Y-99879151D01*
X136549730Y-99309667D01*
X136550268Y-98693039D01*
X136314792Y-98123143D01*
X135903487Y-97711118D01*
X140029745Y-97711118D01*
X140253068Y-98251600D01*
X140666225Y-98665479D01*
X140724755Y-98689783D01*
X140668400Y-98713068D01*
X140254521Y-99126225D01*
X140030256Y-99666316D01*
X140029745Y-100251118D01*
X140253068Y-100791600D01*
X140666225Y-101205479D01*
X140724755Y-101229783D01*
X140668400Y-101253068D01*
X140254521Y-101666225D01*
X140030256Y-102206316D01*
X140029745Y-102791118D01*
X140253068Y-103331600D01*
X140666225Y-103745479D01*
X141206316Y-103969744D01*
X141791118Y-103970255D01*
X142331600Y-103746932D01*
X142578963Y-103500000D01*
X145299634Y-103500000D01*
X145417621Y-104093159D01*
X145753618Y-104596016D01*
X146256475Y-104932013D01*
X146849634Y-105050000D01*
X146910366Y-105050000D01*
X147503525Y-104932013D01*
X148006382Y-104596016D01*
X148342379Y-104093159D01*
X148399307Y-103806961D01*
X152949732Y-103806961D01*
X153185208Y-104376857D01*
X153620849Y-104813260D01*
X154190333Y-105049730D01*
X154806961Y-105050268D01*
X155376857Y-104814792D01*
X155813260Y-104379151D01*
X156049730Y-103809667D01*
X156050268Y-103193039D01*
X155814792Y-102623143D01*
X155379151Y-102186740D01*
X154809667Y-101950270D01*
X154193039Y-101949732D01*
X153623143Y-102185208D01*
X153186740Y-102620849D01*
X152950270Y-103190333D01*
X152949732Y-103806961D01*
X148399307Y-103806961D01*
X148460366Y-103500000D01*
X148342379Y-102906841D01*
X148006382Y-102403984D01*
X147503525Y-102067987D01*
X146910366Y-101950000D01*
X146849634Y-101950000D01*
X146256475Y-102067987D01*
X145753618Y-102403984D01*
X145417621Y-102906841D01*
X145299634Y-103500000D01*
X142578963Y-103500000D01*
X142745479Y-103333775D01*
X142969744Y-102793684D01*
X142970255Y-102208882D01*
X142746932Y-101668400D01*
X142333775Y-101254521D01*
X142275245Y-101230217D01*
X142331600Y-101206932D01*
X142745479Y-100793775D01*
X142969744Y-100253684D01*
X142969747Y-100250000D01*
X161235307Y-100250000D01*
X161235307Y-103250000D01*
X161287604Y-103527933D01*
X161451862Y-103783198D01*
X161702492Y-103954446D01*
X162000000Y-104014693D01*
X165000000Y-104014693D01*
X165277933Y-103962396D01*
X165533198Y-103798138D01*
X165615994Y-103676961D01*
X167713699Y-103676961D01*
X167907361Y-103951784D01*
X168801149Y-104041592D01*
X169252639Y-103951784D01*
X169446301Y-103676961D01*
X168580000Y-102810660D01*
X167713699Y-103676961D01*
X165615994Y-103676961D01*
X165704446Y-103547508D01*
X165764693Y-103250000D01*
X165764693Y-101971149D01*
X166288408Y-101971149D01*
X166378216Y-102422639D01*
X166653039Y-102616301D01*
X167519340Y-101750000D01*
X169640660Y-101750000D01*
X170506961Y-102616301D01*
X170781784Y-102422639D01*
X170871592Y-101528851D01*
X170781784Y-101077361D01*
X170506961Y-100883699D01*
X169640660Y-101750000D01*
X167519340Y-101750000D01*
X166653039Y-100883699D01*
X166378216Y-101077361D01*
X166288408Y-101971149D01*
X165764693Y-101971149D01*
X165764693Y-100250000D01*
X165712396Y-99972067D01*
X165616500Y-99823039D01*
X167713699Y-99823039D01*
X168580000Y-100689340D01*
X169446301Y-99823039D01*
X169252639Y-99548216D01*
X168358851Y-99458408D01*
X167907361Y-99548216D01*
X167713699Y-99823039D01*
X165616500Y-99823039D01*
X165548138Y-99716802D01*
X165297508Y-99545554D01*
X165000000Y-99485307D01*
X162000000Y-99485307D01*
X161722067Y-99537604D01*
X161466802Y-99701862D01*
X161295554Y-99952492D01*
X161235307Y-100250000D01*
X142969747Y-100250000D01*
X142970255Y-99668882D01*
X142746932Y-99128400D01*
X142333775Y-98714521D01*
X142275245Y-98690217D01*
X142331600Y-98666932D01*
X142745479Y-98253775D01*
X142969744Y-97713684D01*
X142970255Y-97128882D01*
X142917002Y-97000000D01*
X145299634Y-97000000D01*
X145417621Y-97593159D01*
X145753618Y-98096016D01*
X146256475Y-98432013D01*
X146849634Y-98550000D01*
X146910366Y-98550000D01*
X147503525Y-98432013D01*
X148006382Y-98096016D01*
X148342379Y-97593159D01*
X148399307Y-97306961D01*
X152949732Y-97306961D01*
X153185208Y-97876857D01*
X153620849Y-98313260D01*
X154190333Y-98549730D01*
X154806961Y-98550268D01*
X155376857Y-98314792D01*
X155813260Y-97879151D01*
X156049730Y-97309667D01*
X156050268Y-96693039D01*
X155814792Y-96123143D01*
X155379151Y-95686740D01*
X154809667Y-95450270D01*
X154193039Y-95449732D01*
X153623143Y-95685208D01*
X153186740Y-96120849D01*
X152950270Y-96690333D01*
X152949732Y-97306961D01*
X148399307Y-97306961D01*
X148460366Y-97000000D01*
X148342379Y-96406841D01*
X148006382Y-95903984D01*
X147503525Y-95567987D01*
X146910366Y-95450000D01*
X146849634Y-95450000D01*
X146256475Y-95567987D01*
X145753618Y-95903984D01*
X145417621Y-96406841D01*
X145299634Y-97000000D01*
X142917002Y-97000000D01*
X142746932Y-96588400D01*
X142333775Y-96174521D01*
X141793684Y-95950256D01*
X141208882Y-95949745D01*
X140668400Y-96173068D01*
X140254521Y-96586225D01*
X140030256Y-97126316D01*
X140029745Y-97711118D01*
X135903487Y-97711118D01*
X135879151Y-97686740D01*
X135309667Y-97450270D01*
X134693039Y-97449732D01*
X134123143Y-97685208D01*
X133686740Y-98120849D01*
X133450270Y-98690333D01*
X133449732Y-99306961D01*
X128899307Y-99306961D01*
X128960366Y-99000000D01*
X128842379Y-98406841D01*
X128506382Y-97903984D01*
X128003525Y-97567987D01*
X127410366Y-97450000D01*
X127349634Y-97450000D01*
X126756475Y-97567987D01*
X126253618Y-97903984D01*
X125917621Y-98406841D01*
X125799634Y-99000000D01*
X118185862Y-99000000D01*
X118289783Y-98749731D01*
X118290217Y-98252450D01*
X118100316Y-97792857D01*
X117748993Y-97440919D01*
X117289731Y-97250217D01*
X117019984Y-97249982D01*
X117020217Y-96982450D01*
X116830316Y-96522857D01*
X116478993Y-96170919D01*
X116019731Y-95980217D01*
X115522450Y-95979783D01*
X115062857Y-96169684D01*
X114710919Y-96521007D01*
X114520217Y-96980269D01*
X114519994Y-97235307D01*
X114000000Y-97235307D01*
X113722067Y-97287604D01*
X113466802Y-97451862D01*
X113295554Y-97702492D01*
X113235307Y-98000000D01*
X88600909Y-98000000D01*
X88700366Y-97500000D01*
X88582379Y-96906841D01*
X88246382Y-96403984D01*
X87743525Y-96067987D01*
X87150366Y-95950000D01*
X87089634Y-95950000D01*
X86496475Y-96067987D01*
X85993618Y-96403984D01*
X85657621Y-96906841D01*
X85539634Y-97500000D01*
X81050000Y-97500000D01*
X81050268Y-97193039D01*
X80814792Y-96623143D01*
X80379151Y-96186740D01*
X79809667Y-95950270D01*
X79193039Y-95949732D01*
X78623143Y-96185208D01*
X78186740Y-96620849D01*
X77950270Y-97190333D01*
X77949732Y-97806961D01*
X26825000Y-97806961D01*
X26825000Y-94806961D01*
X67449732Y-94806961D01*
X67685208Y-95376857D01*
X68120849Y-95813260D01*
X68690333Y-96049730D01*
X69306961Y-96050268D01*
X69876857Y-95814792D01*
X70313260Y-95379151D01*
X70549730Y-94809667D01*
X70550000Y-94500000D01*
X75039634Y-94500000D01*
X75157621Y-95093159D01*
X75493618Y-95596016D01*
X75996475Y-95932013D01*
X76589634Y-96050000D01*
X76650366Y-96050000D01*
X77243525Y-95932013D01*
X77746382Y-95596016D01*
X78082379Y-95093159D01*
X78200366Y-94500000D01*
X78082379Y-93906841D01*
X78024927Y-93820857D01*
X78213160Y-93820857D01*
X78483736Y-94225861D01*
X79059137Y-94666875D01*
X79330000Y-94585264D01*
X79330000Y-93550000D01*
X80430000Y-93550000D01*
X80430000Y-94585264D01*
X80700863Y-94666875D01*
X81276264Y-94225861D01*
X81546840Y-93820857D01*
X81455244Y-93550000D01*
X80430000Y-93550000D01*
X79330000Y-93550000D01*
X78304756Y-93550000D01*
X78213160Y-93820857D01*
X78024927Y-93820857D01*
X77746382Y-93403984D01*
X77243525Y-93067987D01*
X76650366Y-92950000D01*
X76589634Y-92950000D01*
X75996475Y-93067987D01*
X75493618Y-93403984D01*
X75157621Y-93906841D01*
X75039634Y-94500000D01*
X70550000Y-94500000D01*
X70550268Y-94193039D01*
X70314792Y-93623143D01*
X69879151Y-93186740D01*
X69309667Y-92950270D01*
X68693039Y-92949732D01*
X68123143Y-93185208D01*
X67686740Y-93620849D01*
X67450270Y-94190333D01*
X67449732Y-94806961D01*
X26825000Y-94806961D01*
X26825000Y-92179143D01*
X78213160Y-92179143D01*
X78304756Y-92450000D01*
X79330000Y-92450000D01*
X79330000Y-91414736D01*
X80430000Y-91414736D01*
X80430000Y-92450000D01*
X81455244Y-92450000D01*
X81546840Y-92179143D01*
X81360350Y-91900000D01*
X85635307Y-91900000D01*
X85635307Y-94100000D01*
X85687604Y-94377933D01*
X85851862Y-94633198D01*
X86102492Y-94804446D01*
X86400000Y-94864693D01*
X88600000Y-94864693D01*
X88877933Y-94812396D01*
X89133198Y-94648138D01*
X89304446Y-94397508D01*
X89364693Y-94100000D01*
X89364693Y-93000000D01*
X94235307Y-93000000D01*
X94235307Y-94000000D01*
X94287604Y-94277933D01*
X94451862Y-94533198D01*
X94702492Y-94704446D01*
X95000000Y-94764693D01*
X95520004Y-94764693D01*
X95519982Y-94790016D01*
X95252450Y-94789783D01*
X94792857Y-94979684D01*
X94440919Y-95331007D01*
X94250217Y-95790269D01*
X94249783Y-96287550D01*
X94439684Y-96747143D01*
X94791007Y-97099081D01*
X95250269Y-97289783D01*
X95747550Y-97290217D01*
X96207143Y-97100316D01*
X96559081Y-96748993D01*
X96749783Y-96289731D01*
X96750018Y-96019984D01*
X97017550Y-96020217D01*
X97477143Y-95830316D01*
X97829081Y-95478993D01*
X98019783Y-95019731D01*
X98020217Y-94522450D01*
X97830316Y-94062857D01*
X97478993Y-93710919D01*
X97019731Y-93520217D01*
X96764693Y-93519994D01*
X96764693Y-93000000D01*
X103235307Y-93000000D01*
X103235307Y-94000000D01*
X103287604Y-94277933D01*
X103451862Y-94533198D01*
X103702492Y-94704446D01*
X104000000Y-94764693D01*
X104520004Y-94764693D01*
X104519982Y-94790016D01*
X104252450Y-94789783D01*
X103792857Y-94979684D01*
X103440919Y-95331007D01*
X103250217Y-95790269D01*
X103249783Y-96287550D01*
X103439684Y-96747143D01*
X103791007Y-97099081D01*
X104250269Y-97289783D01*
X104747550Y-97290217D01*
X105207143Y-97100316D01*
X105559081Y-96748993D01*
X105749783Y-96289731D01*
X105750018Y-96019984D01*
X106017550Y-96020217D01*
X106477143Y-95830316D01*
X106500538Y-95806961D01*
X121699732Y-95806961D01*
X121935208Y-96376857D01*
X122370849Y-96813260D01*
X122940333Y-97049730D01*
X123556961Y-97050268D01*
X124126857Y-96814792D01*
X124563260Y-96379151D01*
X124799730Y-95809667D01*
X124800000Y-95500000D01*
X129289634Y-95500000D01*
X129407621Y-96093159D01*
X129743618Y-96596016D01*
X130246475Y-96932013D01*
X130839634Y-97050000D01*
X130900366Y-97050000D01*
X131493525Y-96932013D01*
X131996382Y-96596016D01*
X132332379Y-96093159D01*
X132450366Y-95500000D01*
X132332379Y-94906841D01*
X132274355Y-94820001D01*
X162707817Y-94820001D01*
X162839421Y-95079869D01*
X163571613Y-95181108D01*
X164080579Y-95079869D01*
X164212183Y-94820001D01*
X167787817Y-94820001D01*
X167919421Y-95079869D01*
X168651613Y-95181108D01*
X169160579Y-95079869D01*
X169292183Y-94820001D01*
X168540000Y-94067817D01*
X167787817Y-94820001D01*
X164212183Y-94820001D01*
X163460000Y-94067817D01*
X162707817Y-94820001D01*
X132274355Y-94820001D01*
X131996382Y-94403984D01*
X131493525Y-94067987D01*
X130900366Y-93950000D01*
X130839634Y-93950000D01*
X130246475Y-94067987D01*
X129743618Y-94403984D01*
X129407621Y-94906841D01*
X129289634Y-95500000D01*
X124800000Y-95500000D01*
X124800268Y-95193039D01*
X124564792Y-94623143D01*
X124129151Y-94186740D01*
X123559667Y-93950270D01*
X122943039Y-93949732D01*
X122373143Y-94185208D01*
X121936740Y-94620849D01*
X121700270Y-95190333D01*
X121699732Y-95806961D01*
X106500538Y-95806961D01*
X106829081Y-95478993D01*
X107019783Y-95019731D01*
X107020217Y-94522450D01*
X106830316Y-94062857D01*
X106478993Y-93710919D01*
X106019731Y-93520217D01*
X105764693Y-93519994D01*
X105764693Y-93306961D01*
X116949732Y-93306961D01*
X117185208Y-93876857D01*
X117620849Y-94313260D01*
X118190333Y-94549730D01*
X118806961Y-94550268D01*
X119376857Y-94314792D01*
X119813260Y-93879151D01*
X120049730Y-93309667D01*
X120050268Y-92693039D01*
X119814792Y-92123143D01*
X119691865Y-92000000D01*
X121419634Y-92000000D01*
X121537621Y-92593159D01*
X121873618Y-93096016D01*
X122376475Y-93432013D01*
X122969634Y-93550000D01*
X123030366Y-93550000D01*
X123623525Y-93432013D01*
X123924655Y-93230805D01*
X129834881Y-93230805D01*
X129919983Y-93478846D01*
X130530064Y-93588239D01*
X130687308Y-93556961D01*
X132449732Y-93556961D01*
X132685208Y-94126857D01*
X133120849Y-94563260D01*
X133690333Y-94799730D01*
X134306961Y-94800268D01*
X134876857Y-94564792D01*
X135313260Y-94129151D01*
X135416454Y-93880631D01*
X140195335Y-93880631D01*
X140492162Y-94324912D01*
X140989365Y-94674694D01*
X141220000Y-94566307D01*
X141220000Y-93650000D01*
X142020000Y-93650000D01*
X142020000Y-94566307D01*
X142250635Y-94674694D01*
X142747838Y-94324912D01*
X143044665Y-93880631D01*
X142928737Y-93650000D01*
X142020000Y-93650000D01*
X141220000Y-93650000D01*
X140311263Y-93650000D01*
X140195335Y-93880631D01*
X135416454Y-93880631D01*
X135549730Y-93559667D01*
X135550168Y-93056961D01*
X143699732Y-93056961D01*
X143935208Y-93626857D01*
X144370849Y-94063260D01*
X144940333Y-94299730D01*
X145556961Y-94300268D01*
X146126857Y-94064792D01*
X146563260Y-93629151D01*
X146799730Y-93059667D01*
X146800000Y-92750000D01*
X153669634Y-92750000D01*
X153787621Y-93343159D01*
X154123618Y-93846016D01*
X154626475Y-94182013D01*
X155219634Y-94300000D01*
X155280366Y-94300000D01*
X155873525Y-94182013D01*
X156376382Y-93846016D01*
X156673321Y-93401613D01*
X161568892Y-93401613D01*
X161670131Y-93910579D01*
X161929999Y-94042183D01*
X162682183Y-93290000D01*
X161929999Y-92537817D01*
X161670131Y-92669421D01*
X161568892Y-93401613D01*
X156673321Y-93401613D01*
X156712379Y-93343159D01*
X156830366Y-92750000D01*
X156712379Y-92156841D01*
X156376382Y-91653984D01*
X155873525Y-91317987D01*
X155280366Y-91200000D01*
X155219634Y-91200000D01*
X154626475Y-91317987D01*
X154123618Y-91653984D01*
X153787621Y-92156841D01*
X153669634Y-92750000D01*
X146800000Y-92750000D01*
X146800268Y-92443039D01*
X146564792Y-91873143D01*
X146129151Y-91436740D01*
X145559667Y-91200270D01*
X144943039Y-91199732D01*
X144373143Y-91435208D01*
X143936740Y-91870849D01*
X143700270Y-92440333D01*
X143699732Y-93056961D01*
X135550168Y-93056961D01*
X135550268Y-92943039D01*
X135416531Y-92619369D01*
X140195335Y-92619369D01*
X140311263Y-92850000D01*
X141220000Y-92850000D01*
X141220000Y-91933693D01*
X142020000Y-91933693D01*
X142020000Y-92850000D01*
X142928737Y-92850000D01*
X143044665Y-92619369D01*
X142747838Y-92175088D01*
X142250635Y-91825306D01*
X142020000Y-91933693D01*
X141220000Y-91933693D01*
X140989365Y-91825306D01*
X140492162Y-92175088D01*
X140195335Y-92619369D01*
X135416531Y-92619369D01*
X135314792Y-92373143D01*
X134879151Y-91936740D01*
X134309667Y-91700270D01*
X133693039Y-91699732D01*
X133123143Y-91935208D01*
X132686740Y-92370849D01*
X132450270Y-92940333D01*
X132449732Y-93556961D01*
X130687308Y-93556961D01*
X131080017Y-93478846D01*
X131165119Y-93230805D01*
X130500000Y-92565685D01*
X129834881Y-93230805D01*
X123924655Y-93230805D01*
X124126382Y-93096016D01*
X124462379Y-92593159D01*
X124574385Y-92030064D01*
X128911761Y-92030064D01*
X129021154Y-92580017D01*
X129269195Y-92665119D01*
X129934315Y-92000000D01*
X131065685Y-92000000D01*
X131730805Y-92665119D01*
X131978846Y-92580017D01*
X132088239Y-91969936D01*
X131978846Y-91419983D01*
X131730805Y-91334881D01*
X131065685Y-92000000D01*
X129934315Y-92000000D01*
X129269195Y-91334881D01*
X129021154Y-91419983D01*
X128911761Y-92030064D01*
X124574385Y-92030064D01*
X124580366Y-92000000D01*
X124462379Y-91406841D01*
X124126382Y-90903984D01*
X123924656Y-90769195D01*
X129834881Y-90769195D01*
X130500000Y-91434315D01*
X131165119Y-90769195D01*
X131080017Y-90521154D01*
X130469936Y-90411761D01*
X129919983Y-90521154D01*
X129834881Y-90769195D01*
X123924656Y-90769195D01*
X123623525Y-90567987D01*
X123030366Y-90450000D01*
X122969634Y-90450000D01*
X122376475Y-90567987D01*
X121873618Y-90903984D01*
X121537621Y-91406841D01*
X121419634Y-92000000D01*
X119691865Y-92000000D01*
X119379151Y-91686740D01*
X118809667Y-91450270D01*
X118193039Y-91449732D01*
X117623143Y-91685208D01*
X117186740Y-92120849D01*
X116950270Y-92690333D01*
X116949732Y-93306961D01*
X105764693Y-93306961D01*
X105764693Y-93000000D01*
X105712396Y-92722067D01*
X105548138Y-92466802D01*
X105297508Y-92295554D01*
X105000000Y-92235307D01*
X104000000Y-92235307D01*
X103722067Y-92287604D01*
X103466802Y-92451862D01*
X103295554Y-92702492D01*
X103235307Y-93000000D01*
X96764693Y-93000000D01*
X96712396Y-92722067D01*
X96548138Y-92466802D01*
X96297508Y-92295554D01*
X96000000Y-92235307D01*
X95000000Y-92235307D01*
X94722067Y-92287604D01*
X94466802Y-92451862D01*
X94295554Y-92702492D01*
X94235307Y-93000000D01*
X89364693Y-93000000D01*
X89364693Y-91900000D01*
X89312396Y-91622067D01*
X89148138Y-91366802D01*
X88897508Y-91195554D01*
X88600000Y-91135307D01*
X86400000Y-91135307D01*
X86122067Y-91187604D01*
X85866802Y-91351862D01*
X85695554Y-91602492D01*
X85635307Y-91900000D01*
X81360350Y-91900000D01*
X81276264Y-91774139D01*
X80700863Y-91333125D01*
X80430000Y-91414736D01*
X79330000Y-91414736D01*
X79059137Y-91333125D01*
X78483736Y-91774139D01*
X78213160Y-92179143D01*
X26825000Y-92179143D01*
X26825000Y-90230805D01*
X81834881Y-90230805D01*
X81919983Y-90478846D01*
X82530064Y-90588239D01*
X83080017Y-90478846D01*
X83165119Y-90230805D01*
X82500000Y-89565685D01*
X81834881Y-90230805D01*
X26825000Y-90230805D01*
X26825000Y-89030064D01*
X80911761Y-89030064D01*
X81021154Y-89580017D01*
X81269195Y-89665119D01*
X81934315Y-89000000D01*
X83065685Y-89000000D01*
X83730805Y-89665119D01*
X83978846Y-89580017D01*
X84027807Y-89306961D01*
X85949732Y-89306961D01*
X86185208Y-89876857D01*
X86620849Y-90313260D01*
X87190333Y-90549730D01*
X87806961Y-90550268D01*
X88376857Y-90314792D01*
X88813260Y-89879151D01*
X88970696Y-89500000D01*
X94299634Y-89500000D01*
X94417621Y-90093159D01*
X94753618Y-90596016D01*
X95256475Y-90932013D01*
X95849634Y-91050000D01*
X95910366Y-91050000D01*
X96503525Y-90932013D01*
X97006382Y-90596016D01*
X97342379Y-90093159D01*
X97399307Y-89806961D01*
X101949732Y-89806961D01*
X102185208Y-90376857D01*
X102620849Y-90813260D01*
X103190333Y-91049730D01*
X103806961Y-91050268D01*
X104376857Y-90814792D01*
X104813260Y-90379151D01*
X105049730Y-89809667D01*
X105050220Y-89247550D01*
X108709783Y-89247550D01*
X108899684Y-89707143D01*
X109251007Y-90059081D01*
X109710269Y-90249783D01*
X109980016Y-90250018D01*
X109979783Y-90517550D01*
X110169684Y-90977143D01*
X110521007Y-91329081D01*
X110980269Y-91519783D01*
X111477550Y-91520217D01*
X111937143Y-91330316D01*
X112289081Y-90978993D01*
X112479783Y-90519731D01*
X112480217Y-90022450D01*
X112290316Y-89562857D01*
X112250000Y-89522470D01*
X112250000Y-89250000D01*
X112750000Y-89250000D01*
X112750000Y-90068500D01*
X112939500Y-90258000D01*
X113150775Y-90258000D01*
X113429372Y-90142602D01*
X113642601Y-89929373D01*
X113758000Y-89650776D01*
X113758000Y-89439500D01*
X113568500Y-89250000D01*
X112750000Y-89250000D01*
X112250000Y-89250000D01*
X111978006Y-89250000D01*
X111938993Y-89210919D01*
X111479731Y-89020217D01*
X111209984Y-89019982D01*
X111210217Y-88752450D01*
X111043607Y-88349224D01*
X111242000Y-88349224D01*
X111242000Y-88560500D01*
X111431500Y-88750000D01*
X112250000Y-88750000D01*
X112250000Y-87931500D01*
X112750000Y-87931500D01*
X112750000Y-88750000D01*
X113568500Y-88750000D01*
X113758000Y-88560500D01*
X113758000Y-88349224D01*
X113740495Y-88306961D01*
X116949732Y-88306961D01*
X117185208Y-88876857D01*
X117620849Y-89313260D01*
X118190333Y-89549730D01*
X118806961Y-89550268D01*
X119376857Y-89314792D01*
X119813260Y-88879151D01*
X119866888Y-88750000D01*
X143049634Y-88750000D01*
X143167621Y-89343159D01*
X143503618Y-89846016D01*
X144006475Y-90182013D01*
X144599634Y-90300000D01*
X144660366Y-90300000D01*
X145253525Y-90182013D01*
X145756382Y-89846016D01*
X146092379Y-89343159D01*
X146149307Y-89056961D01*
X150699732Y-89056961D01*
X150935208Y-89626857D01*
X151370849Y-90063260D01*
X151940333Y-90299730D01*
X152556961Y-90300268D01*
X153126857Y-90064792D01*
X153452216Y-89740001D01*
X162707817Y-89740001D01*
X162839421Y-89999869D01*
X163571613Y-90101108D01*
X163581393Y-90099163D01*
X163912195Y-90429965D01*
X164469382Y-89872778D01*
X164250304Y-90400376D01*
X164249696Y-91096569D01*
X164468659Y-91626499D01*
X163912195Y-91070035D01*
X163554798Y-91427432D01*
X163348387Y-91398892D01*
X162839421Y-91500131D01*
X162707817Y-91759999D01*
X163460000Y-92512183D01*
X163848909Y-92123274D01*
X164626726Y-92901091D01*
X164237817Y-93290000D01*
X164990001Y-94042183D01*
X165249869Y-93910579D01*
X165351108Y-93178387D01*
X165349163Y-93168607D01*
X165679965Y-92837805D01*
X165122778Y-92280618D01*
X165650376Y-92499696D01*
X166346569Y-92500304D01*
X166876499Y-92281341D01*
X166320035Y-92837805D01*
X166677432Y-93195202D01*
X166648892Y-93401613D01*
X166750131Y-93910579D01*
X167009999Y-94042183D01*
X167762183Y-93290000D01*
X169317817Y-93290000D01*
X170070001Y-94042183D01*
X170329869Y-93910579D01*
X170431108Y-93178387D01*
X170329869Y-92669421D01*
X170070001Y-92537817D01*
X169317817Y-93290000D01*
X167762183Y-93290000D01*
X167373274Y-92901091D01*
X168151091Y-92123274D01*
X168540000Y-92512183D01*
X169292183Y-91759999D01*
X169160579Y-91500131D01*
X168428387Y-91398892D01*
X168418607Y-91400837D01*
X168403947Y-91386177D01*
X176549662Y-91386177D01*
X176845906Y-92103143D01*
X177393971Y-92652166D01*
X178110419Y-92949661D01*
X178886177Y-92950338D01*
X179603143Y-92654094D01*
X179779995Y-92477550D01*
X181479783Y-92477550D01*
X181669684Y-92937143D01*
X182021007Y-93289081D01*
X182480269Y-93479783D01*
X182735307Y-93480006D01*
X182735307Y-94000000D01*
X182787604Y-94277933D01*
X182951862Y-94533198D01*
X183202492Y-94704446D01*
X183500000Y-94764693D01*
X184500000Y-94764693D01*
X184777933Y-94712396D01*
X185033198Y-94548138D01*
X185204446Y-94297508D01*
X185264693Y-94000000D01*
X185264693Y-93000000D01*
X185212396Y-92722067D01*
X185048138Y-92466802D01*
X184797508Y-92295554D01*
X184500000Y-92235307D01*
X183979996Y-92235307D01*
X183980018Y-92209984D01*
X184247550Y-92210217D01*
X184707143Y-92020316D01*
X185059081Y-91668993D01*
X185249783Y-91209731D01*
X185250217Y-90712450D01*
X185060316Y-90252857D01*
X184708993Y-89900919D01*
X184249731Y-89710217D01*
X183752450Y-89709783D01*
X183292857Y-89899684D01*
X182940919Y-90251007D01*
X182750217Y-90710269D01*
X182749982Y-90980016D01*
X182482450Y-90979783D01*
X182022857Y-91169684D01*
X181670919Y-91521007D01*
X181480217Y-91980269D01*
X181479783Y-92477550D01*
X179779995Y-92477550D01*
X180152166Y-92106029D01*
X180449661Y-91389581D01*
X180450338Y-90613823D01*
X180154094Y-89896857D01*
X179606029Y-89347834D01*
X178889581Y-89050339D01*
X178113823Y-89049662D01*
X177396857Y-89345906D01*
X176847834Y-89893971D01*
X176550339Y-90610419D01*
X176549662Y-91386177D01*
X168403947Y-91386177D01*
X168087805Y-91070035D01*
X167530618Y-91627222D01*
X167749696Y-91099624D01*
X167750304Y-90403431D01*
X167531341Y-89873501D01*
X168087805Y-90429965D01*
X168445202Y-90072568D01*
X168651613Y-90101108D01*
X169160579Y-89999869D01*
X169292183Y-89740001D01*
X168540000Y-88987817D01*
X168151091Y-89376726D01*
X167373274Y-88598909D01*
X167762183Y-88210000D01*
X169317817Y-88210000D01*
X170070001Y-88962183D01*
X170329869Y-88830579D01*
X170431108Y-88098387D01*
X170329869Y-87589421D01*
X170070001Y-87457817D01*
X169317817Y-88210000D01*
X167762183Y-88210000D01*
X167009999Y-87457817D01*
X166750131Y-87589421D01*
X166648892Y-88321613D01*
X166650837Y-88331393D01*
X166320035Y-88662195D01*
X166877222Y-89219382D01*
X166349624Y-89000304D01*
X165653431Y-88999696D01*
X165123501Y-89218659D01*
X165679965Y-88662195D01*
X165322568Y-88304798D01*
X165351108Y-88098387D01*
X165249869Y-87589421D01*
X164990001Y-87457817D01*
X164237817Y-88210000D01*
X164626726Y-88598909D01*
X163848909Y-89376726D01*
X163460000Y-88987817D01*
X162707817Y-89740001D01*
X153452216Y-89740001D01*
X153563260Y-89629151D01*
X153799730Y-89059667D01*
X153800268Y-88443039D01*
X153750096Y-88321613D01*
X161568892Y-88321613D01*
X161670131Y-88830579D01*
X161929999Y-88962183D01*
X162682183Y-88210000D01*
X161929999Y-87457817D01*
X161670131Y-87589421D01*
X161568892Y-88321613D01*
X153750096Y-88321613D01*
X153564792Y-87873143D01*
X153129151Y-87436740D01*
X152559667Y-87200270D01*
X151943039Y-87199732D01*
X151373143Y-87435208D01*
X150936740Y-87870849D01*
X150700270Y-88440333D01*
X150699732Y-89056961D01*
X146149307Y-89056961D01*
X146210366Y-88750000D01*
X146092379Y-88156841D01*
X145756382Y-87653984D01*
X145253525Y-87317987D01*
X144660366Y-87200000D01*
X144599634Y-87200000D01*
X144006475Y-87317987D01*
X143503618Y-87653984D01*
X143167621Y-88156841D01*
X143049634Y-88750000D01*
X119866888Y-88750000D01*
X120049730Y-88309667D01*
X120050268Y-87693039D01*
X119814792Y-87123143D01*
X119379151Y-86686740D01*
X118809667Y-86450270D01*
X118193039Y-86449732D01*
X117623143Y-86685208D01*
X117186740Y-87120849D01*
X116950270Y-87690333D01*
X116949732Y-88306961D01*
X113740495Y-88306961D01*
X113642601Y-88070627D01*
X113429372Y-87857398D01*
X113150775Y-87742000D01*
X112939500Y-87742000D01*
X112750000Y-87931500D01*
X112250000Y-87931500D01*
X112060500Y-87742000D01*
X111849225Y-87742000D01*
X111570628Y-87857398D01*
X111357399Y-88070627D01*
X111242000Y-88349224D01*
X111043607Y-88349224D01*
X111020316Y-88292857D01*
X110668993Y-87940919D01*
X110209731Y-87750217D01*
X109712450Y-87749783D01*
X109252857Y-87939684D01*
X108900919Y-88291007D01*
X108710217Y-88750269D01*
X108709783Y-89247550D01*
X105050220Y-89247550D01*
X105050268Y-89193039D01*
X104814792Y-88623143D01*
X104379151Y-88186740D01*
X103809667Y-87950270D01*
X103193039Y-87949732D01*
X102623143Y-88185208D01*
X102186740Y-88620849D01*
X101950270Y-89190333D01*
X101949732Y-89806961D01*
X97399307Y-89806961D01*
X97460366Y-89500000D01*
X97342379Y-88906841D01*
X97006382Y-88403984D01*
X96503525Y-88067987D01*
X95910366Y-87950000D01*
X95849634Y-87950000D01*
X95256475Y-88067987D01*
X94753618Y-88403984D01*
X94417621Y-88906841D01*
X94299634Y-89500000D01*
X88970696Y-89500000D01*
X89049730Y-89309667D01*
X89050268Y-88693039D01*
X88814792Y-88123143D01*
X88379151Y-87686740D01*
X87809667Y-87450270D01*
X87193039Y-87449732D01*
X86623143Y-87685208D01*
X86186740Y-88120849D01*
X85950270Y-88690333D01*
X85949732Y-89306961D01*
X84027807Y-89306961D01*
X84088239Y-88969936D01*
X83978846Y-88419983D01*
X83730805Y-88334881D01*
X83065685Y-89000000D01*
X81934315Y-89000000D01*
X81269195Y-88334881D01*
X81021154Y-88419983D01*
X80911761Y-89030064D01*
X26825000Y-89030064D01*
X26825000Y-87689500D01*
X41242000Y-87689500D01*
X41242000Y-88150775D01*
X41357398Y-88429372D01*
X41570627Y-88642601D01*
X41849224Y-88758000D01*
X42310500Y-88758000D01*
X42500000Y-88568500D01*
X42500000Y-87500000D01*
X43500000Y-87500000D01*
X43500000Y-88568500D01*
X43689500Y-88758000D01*
X44150776Y-88758000D01*
X44429373Y-88642601D01*
X44642602Y-88429372D01*
X44758000Y-88150775D01*
X44758000Y-87689500D01*
X44568500Y-87500000D01*
X43500000Y-87500000D01*
X42500000Y-87500000D01*
X41431500Y-87500000D01*
X41242000Y-87689500D01*
X26825000Y-87689500D01*
X26825000Y-87346569D01*
X46249696Y-87346569D01*
X46515557Y-87990001D01*
X47007410Y-88482713D01*
X47650376Y-88749696D01*
X48346569Y-88750304D01*
X48990001Y-88484443D01*
X49482713Y-87992590D01*
X49749696Y-87349624D01*
X49749698Y-87346569D01*
X56749696Y-87346569D01*
X57015557Y-87990001D01*
X57507410Y-88482713D01*
X58150376Y-88749696D01*
X58846569Y-88750304D01*
X59490001Y-88484443D01*
X59982713Y-87992590D01*
X60249696Y-87349624D01*
X60250304Y-86653431D01*
X59984443Y-86009999D01*
X59974462Y-86000000D01*
X61735307Y-86000000D01*
X61735307Y-88000000D01*
X61787604Y-88277933D01*
X61951862Y-88533198D01*
X62202492Y-88704446D01*
X62500000Y-88764693D01*
X64500000Y-88764693D01*
X64777933Y-88712396D01*
X65033198Y-88548138D01*
X65204446Y-88297508D01*
X65264693Y-88000000D01*
X65264693Y-87769195D01*
X81834881Y-87769195D01*
X82500000Y-88434315D01*
X83165119Y-87769195D01*
X83080017Y-87521154D01*
X82469936Y-87411761D01*
X81919983Y-87521154D01*
X81834881Y-87769195D01*
X65264693Y-87769195D01*
X65264693Y-86000000D01*
X65212396Y-85722067D01*
X65048138Y-85466802D01*
X64797508Y-85295554D01*
X64500000Y-85235307D01*
X62500000Y-85235307D01*
X62222067Y-85287604D01*
X61966802Y-85451862D01*
X61795554Y-85702492D01*
X61735307Y-86000000D01*
X59974462Y-86000000D01*
X59492590Y-85517287D01*
X58849624Y-85250304D01*
X58153431Y-85249696D01*
X57509999Y-85515557D01*
X57017287Y-86007410D01*
X56750304Y-86650376D01*
X56749696Y-87346569D01*
X49749698Y-87346569D01*
X49750304Y-86653431D01*
X49484443Y-86009999D01*
X48992590Y-85517287D01*
X48349624Y-85250304D01*
X47653431Y-85249696D01*
X47009999Y-85515557D01*
X46517287Y-86007410D01*
X46250304Y-86650376D01*
X46249696Y-87346569D01*
X26825000Y-87346569D01*
X26825000Y-85849225D01*
X41242000Y-85849225D01*
X41242000Y-86310500D01*
X41431500Y-86500000D01*
X42500000Y-86500000D01*
X42500000Y-85431500D01*
X43500000Y-85431500D01*
X43500000Y-86500000D01*
X44568500Y-86500000D01*
X44758000Y-86310500D01*
X44758000Y-85849225D01*
X44642602Y-85570628D01*
X44429373Y-85357399D01*
X44150776Y-85242000D01*
X43689500Y-85242000D01*
X43500000Y-85431500D01*
X42500000Y-85431500D01*
X42310500Y-85242000D01*
X41849224Y-85242000D01*
X41570627Y-85357399D01*
X41357398Y-85570628D01*
X41242000Y-85849225D01*
X26825000Y-85849225D01*
X26825000Y-85000000D01*
X75311797Y-85000000D01*
X75460232Y-85746233D01*
X75882939Y-86378858D01*
X76515564Y-86801565D01*
X77261797Y-86950000D01*
X77338203Y-86950000D01*
X78084436Y-86801565D01*
X78717061Y-86378858D01*
X79139768Y-85746233D01*
X79211387Y-85386177D01*
X88049662Y-85386177D01*
X88345906Y-86103143D01*
X88893971Y-86652166D01*
X89610419Y-86949661D01*
X90386177Y-86950338D01*
X91103143Y-86654094D01*
X91450882Y-86306961D01*
X94449732Y-86306961D01*
X94685208Y-86876857D01*
X95120849Y-87313260D01*
X95690333Y-87549730D01*
X96306961Y-87550268D01*
X96876857Y-87314792D01*
X97313260Y-86879151D01*
X97549730Y-86309667D01*
X97550000Y-86000000D01*
X101919634Y-86000000D01*
X102037621Y-86593159D01*
X102373618Y-87096016D01*
X102876475Y-87432013D01*
X103469634Y-87550000D01*
X103530366Y-87550000D01*
X104123525Y-87432013D01*
X104626382Y-87096016D01*
X104962379Y-86593159D01*
X105080366Y-86000000D01*
X104962379Y-85406841D01*
X104626382Y-84903984D01*
X104123525Y-84567987D01*
X103530366Y-84450000D01*
X103469634Y-84450000D01*
X102876475Y-84567987D01*
X102373618Y-84903984D01*
X102037621Y-85406841D01*
X101919634Y-86000000D01*
X97550000Y-86000000D01*
X97550268Y-85693039D01*
X97314792Y-85123143D01*
X96879151Y-84686740D01*
X96309667Y-84450270D01*
X95693039Y-84449732D01*
X95123143Y-84685208D01*
X94686740Y-85120849D01*
X94450270Y-85690333D01*
X94449732Y-86306961D01*
X91450882Y-86306961D01*
X91652166Y-86106029D01*
X91949661Y-85389581D01*
X91950338Y-84613823D01*
X91654094Y-83896857D01*
X91564355Y-83806961D01*
X107949732Y-83806961D01*
X108185208Y-84376857D01*
X108620849Y-84813260D01*
X109190333Y-85049730D01*
X109806961Y-85050268D01*
X110376857Y-84814792D01*
X110692199Y-84500000D01*
X111049634Y-84500000D01*
X111167621Y-85093159D01*
X111503618Y-85596016D01*
X112006475Y-85932013D01*
X112599634Y-86050000D01*
X112660366Y-86050000D01*
X113253525Y-85932013D01*
X113756382Y-85596016D01*
X114092379Y-85093159D01*
X114149307Y-84806961D01*
X118699732Y-84806961D01*
X118935208Y-85376857D01*
X119370849Y-85813260D01*
X119940333Y-86049730D01*
X120556961Y-86050268D01*
X121126857Y-85814792D01*
X121563260Y-85379151D01*
X121799730Y-84809667D01*
X121800268Y-84193039D01*
X121761826Y-84100000D01*
X125335307Y-84100000D01*
X125335307Y-85900000D01*
X125387604Y-86177933D01*
X125551862Y-86433198D01*
X125802492Y-86604446D01*
X126100000Y-86664693D01*
X127900000Y-86664693D01*
X128177933Y-86612396D01*
X128433198Y-86448138D01*
X128604446Y-86197508D01*
X128664693Y-85900000D01*
X128664693Y-84100000D01*
X128612396Y-83822067D01*
X128448138Y-83566802D01*
X128297252Y-83463706D01*
X128524401Y-83123753D01*
X128650000Y-82492325D01*
X128650000Y-82427675D01*
X128524401Y-81796247D01*
X128166726Y-81260949D01*
X128060543Y-81190000D01*
X128166726Y-81119051D01*
X128524401Y-80583753D01*
X128648250Y-79961118D01*
X134779745Y-79961118D01*
X135003068Y-80501600D01*
X135416225Y-80915479D01*
X135474755Y-80939783D01*
X135418400Y-80963068D01*
X135004521Y-81376225D01*
X134780256Y-81916316D01*
X134779745Y-82501118D01*
X135003068Y-83041600D01*
X135416225Y-83455479D01*
X135474755Y-83479783D01*
X135418400Y-83503068D01*
X135004521Y-83916225D01*
X134780256Y-84456316D01*
X134779745Y-85041118D01*
X135003068Y-85581600D01*
X135416225Y-85995479D01*
X135956316Y-86219744D01*
X136541118Y-86220255D01*
X137081600Y-85996932D01*
X137495479Y-85583775D01*
X137634074Y-85250000D01*
X144419634Y-85250000D01*
X144537621Y-85843159D01*
X144873618Y-86346016D01*
X145376475Y-86682013D01*
X145969634Y-86800000D01*
X146030366Y-86800000D01*
X146623525Y-86682013D01*
X147126382Y-86346016D01*
X147462379Y-85843159D01*
X147519307Y-85556961D01*
X154449732Y-85556961D01*
X154685208Y-86126857D01*
X155120849Y-86563260D01*
X155690333Y-86799730D01*
X156306961Y-86800268D01*
X156598034Y-86679999D01*
X162707817Y-86679999D01*
X163460000Y-87432183D01*
X164212183Y-86679999D01*
X167787817Y-86679999D01*
X168540000Y-87432183D01*
X168882548Y-87089634D01*
X175950000Y-87089634D01*
X175950000Y-87150366D01*
X176067987Y-87743525D01*
X176403984Y-88246382D01*
X176906841Y-88582379D01*
X177500000Y-88700366D01*
X178093159Y-88582379D01*
X178596016Y-88246382D01*
X178932013Y-87743525D01*
X179018851Y-87306961D01*
X184949732Y-87306961D01*
X185185208Y-87876857D01*
X185620849Y-88313260D01*
X186190333Y-88549730D01*
X186806961Y-88550268D01*
X187376857Y-88314792D01*
X187813260Y-87879151D01*
X187916454Y-87630631D01*
X197775335Y-87630631D01*
X198072162Y-88074912D01*
X198569365Y-88424694D01*
X198800000Y-88316307D01*
X198800000Y-87400000D01*
X199600000Y-87400000D01*
X199600000Y-88316307D01*
X199830635Y-88424694D01*
X200327838Y-88074912D01*
X200624665Y-87630631D01*
X200508737Y-87400000D01*
X199600000Y-87400000D01*
X198800000Y-87400000D01*
X197891263Y-87400000D01*
X197775335Y-87630631D01*
X187916454Y-87630631D01*
X188049730Y-87309667D01*
X188050268Y-86693039D01*
X187916531Y-86369369D01*
X197775335Y-86369369D01*
X197891263Y-86600000D01*
X198800000Y-86600000D01*
X198800000Y-85683693D01*
X199600000Y-85683693D01*
X199600000Y-86600000D01*
X200508737Y-86600000D01*
X200624665Y-86369369D01*
X200327838Y-85925088D01*
X199830635Y-85575306D01*
X199600000Y-85683693D01*
X198800000Y-85683693D01*
X198569365Y-85575306D01*
X198072162Y-85925088D01*
X197775335Y-86369369D01*
X187916531Y-86369369D01*
X187814792Y-86123143D01*
X187379151Y-85686740D01*
X186809667Y-85450270D01*
X186193039Y-85449732D01*
X185623143Y-85685208D01*
X185186740Y-86120849D01*
X184950270Y-86690333D01*
X184949732Y-87306961D01*
X179018851Y-87306961D01*
X179050000Y-87150366D01*
X179050000Y-87089634D01*
X178932013Y-86496475D01*
X178596016Y-85993618D01*
X178093159Y-85657621D01*
X177500000Y-85539634D01*
X176906841Y-85657621D01*
X176403984Y-85993618D01*
X176067987Y-86496475D01*
X175950000Y-87089634D01*
X168882548Y-87089634D01*
X169292183Y-86679999D01*
X169160579Y-86420131D01*
X168428387Y-86318892D01*
X167919421Y-86420131D01*
X167787817Y-86679999D01*
X164212183Y-86679999D01*
X164080579Y-86420131D01*
X163348387Y-86318892D01*
X162839421Y-86420131D01*
X162707817Y-86679999D01*
X156598034Y-86679999D01*
X156876857Y-86564792D01*
X157313260Y-86129151D01*
X157549730Y-85559667D01*
X157549950Y-85306961D01*
X180449732Y-85306961D01*
X180685208Y-85876857D01*
X181120849Y-86313260D01*
X181690333Y-86549730D01*
X182306961Y-86550268D01*
X182876857Y-86314792D01*
X183313260Y-85879151D01*
X183549730Y-85309667D01*
X183550268Y-84693039D01*
X183314792Y-84123143D01*
X182879151Y-83686740D01*
X182309667Y-83450270D01*
X181693039Y-83449732D01*
X181123143Y-83685208D01*
X180686740Y-84120849D01*
X180450270Y-84690333D01*
X180449732Y-85306961D01*
X157549950Y-85306961D01*
X157550268Y-84943039D01*
X157314792Y-84373143D01*
X156879151Y-83936740D01*
X156309667Y-83700270D01*
X155693039Y-83699732D01*
X155123143Y-83935208D01*
X154686740Y-84370849D01*
X154450270Y-84940333D01*
X154449732Y-85556961D01*
X147519307Y-85556961D01*
X147580366Y-85250000D01*
X147462379Y-84656841D01*
X147126382Y-84153984D01*
X146623525Y-83817987D01*
X146030366Y-83700000D01*
X145969634Y-83700000D01*
X145376475Y-83817987D01*
X144873618Y-84153984D01*
X144537621Y-84656841D01*
X144419634Y-85250000D01*
X137634074Y-85250000D01*
X137719744Y-85043684D01*
X137720255Y-84458882D01*
X137496932Y-83918400D01*
X137083775Y-83504521D01*
X137025245Y-83480217D01*
X137081600Y-83456932D01*
X137495479Y-83043775D01*
X137580245Y-82839634D01*
X138950000Y-82839634D01*
X138950000Y-82900366D01*
X139067987Y-83493525D01*
X139403984Y-83996382D01*
X139906841Y-84332379D01*
X140500000Y-84450366D01*
X141093159Y-84332379D01*
X141596016Y-83996382D01*
X141932013Y-83493525D01*
X142050000Y-82900366D01*
X142050000Y-82839634D01*
X141932013Y-82246475D01*
X141596016Y-81743618D01*
X141093159Y-81407621D01*
X140500000Y-81289634D01*
X139906841Y-81407621D01*
X139403984Y-81743618D01*
X139067987Y-82246475D01*
X138950000Y-82839634D01*
X137580245Y-82839634D01*
X137719744Y-82503684D01*
X137720255Y-81918882D01*
X137496932Y-81378400D01*
X137083775Y-80964521D01*
X137025245Y-80940217D01*
X137081600Y-80916932D01*
X137495479Y-80503775D01*
X137719744Y-79963684D01*
X137720255Y-79378882D01*
X137605024Y-79100000D01*
X161335307Y-79100000D01*
X161335307Y-80900000D01*
X161387604Y-81177933D01*
X161551862Y-81433198D01*
X161802492Y-81604446D01*
X162100000Y-81664693D01*
X163900000Y-81664693D01*
X164177933Y-81612396D01*
X164433198Y-81448138D01*
X164536294Y-81297252D01*
X164876247Y-81524401D01*
X165507675Y-81650000D01*
X165572325Y-81650000D01*
X166203753Y-81524401D01*
X166739051Y-81166726D01*
X166810000Y-81060543D01*
X166880949Y-81166726D01*
X167416247Y-81524401D01*
X168047675Y-81650000D01*
X168112325Y-81650000D01*
X168743753Y-81524401D01*
X169279051Y-81166726D01*
X169636726Y-80631428D01*
X169762325Y-80000000D01*
X169723928Y-79806961D01*
X175949732Y-79806961D01*
X176185208Y-80376857D01*
X176620849Y-80813260D01*
X177190333Y-81049730D01*
X177806961Y-81050268D01*
X178376857Y-80814792D01*
X178813260Y-80379151D01*
X178843235Y-80306961D01*
X180449732Y-80306961D01*
X180685208Y-80876857D01*
X181120849Y-81313260D01*
X181690333Y-81549730D01*
X182306961Y-81550268D01*
X182876857Y-81314792D01*
X183313260Y-80879151D01*
X183549730Y-80309667D01*
X183549912Y-80100000D01*
X184835307Y-80100000D01*
X184835307Y-81900000D01*
X184887604Y-82177933D01*
X185051862Y-82433198D01*
X185183288Y-82522998D01*
X185102014Y-82604130D01*
X184850287Y-83210355D01*
X184849715Y-83866765D01*
X185100383Y-84473429D01*
X185564130Y-84937986D01*
X186170355Y-85189713D01*
X186826765Y-85190285D01*
X187433429Y-84939617D01*
X187897986Y-84475870D01*
X188149713Y-83869645D01*
X188150285Y-83213235D01*
X187899617Y-82606571D01*
X187816453Y-82523261D01*
X187933198Y-82448138D01*
X188104446Y-82197508D01*
X188164693Y-81900000D01*
X188164693Y-80100000D01*
X188112396Y-79822067D01*
X187948138Y-79566802D01*
X187697508Y-79395554D01*
X187400000Y-79335307D01*
X185600000Y-79335307D01*
X185322067Y-79387604D01*
X185066802Y-79551862D01*
X184895554Y-79802492D01*
X184835307Y-80100000D01*
X183549912Y-80100000D01*
X183550268Y-79693039D01*
X183383530Y-79289500D01*
X207542000Y-79289500D01*
X207542000Y-79850776D01*
X207657399Y-80129373D01*
X207870628Y-80342602D01*
X208149225Y-80458000D01*
X208710500Y-80458000D01*
X208900000Y-80268500D01*
X208900000Y-79100000D01*
X210100000Y-79100000D01*
X210100000Y-80268500D01*
X210289500Y-80458000D01*
X210850775Y-80458000D01*
X211129372Y-80342602D01*
X211342601Y-80129373D01*
X211458000Y-79850776D01*
X211458000Y-79630635D01*
X219575306Y-79630635D01*
X219925088Y-80127838D01*
X220369369Y-80424665D01*
X220600000Y-80308737D01*
X220600000Y-79400000D01*
X221400000Y-79400000D01*
X221400000Y-80308737D01*
X221630631Y-80424665D01*
X222074912Y-80127838D01*
X222424694Y-79630635D01*
X222316307Y-79400000D01*
X221400000Y-79400000D01*
X220600000Y-79400000D01*
X219683693Y-79400000D01*
X219575306Y-79630635D01*
X211458000Y-79630635D01*
X211458000Y-79289500D01*
X211268500Y-79100000D01*
X210100000Y-79100000D01*
X208900000Y-79100000D01*
X207731500Y-79100000D01*
X207542000Y-79289500D01*
X183383530Y-79289500D01*
X183314792Y-79123143D01*
X182879151Y-78686740D01*
X182309667Y-78450270D01*
X181693039Y-78449732D01*
X181123143Y-78685208D01*
X180686740Y-79120849D01*
X180450270Y-79690333D01*
X180449732Y-80306961D01*
X178843235Y-80306961D01*
X179049730Y-79809667D01*
X179050268Y-79193039D01*
X178814792Y-78623143D01*
X178561458Y-78369365D01*
X219575306Y-78369365D01*
X219683693Y-78600000D01*
X220600000Y-78600000D01*
X220600000Y-77691263D01*
X221400000Y-77691263D01*
X221400000Y-78600000D01*
X222316307Y-78600000D01*
X222424694Y-78369365D01*
X222074912Y-77872162D01*
X221630631Y-77575335D01*
X221400000Y-77691263D01*
X220600000Y-77691263D01*
X220369369Y-77575335D01*
X219925088Y-77872162D01*
X219575306Y-78369365D01*
X178561458Y-78369365D01*
X178379151Y-78186740D01*
X177809667Y-77950270D01*
X177193039Y-77949732D01*
X176623143Y-78185208D01*
X176186740Y-78620849D01*
X175950270Y-79190333D01*
X175949732Y-79806961D01*
X169723928Y-79806961D01*
X169636726Y-79368572D01*
X169279051Y-78833274D01*
X168743753Y-78475599D01*
X168112325Y-78350000D01*
X168047675Y-78350000D01*
X167416247Y-78475599D01*
X166880949Y-78833274D01*
X166810000Y-78939457D01*
X166739051Y-78833274D01*
X166203753Y-78475599D01*
X165572325Y-78350000D01*
X165507675Y-78350000D01*
X164876247Y-78475599D01*
X164535821Y-78703065D01*
X164448138Y-78566802D01*
X164197508Y-78395554D01*
X163900000Y-78335307D01*
X162100000Y-78335307D01*
X161822067Y-78387604D01*
X161566802Y-78551862D01*
X161395554Y-78802492D01*
X161335307Y-79100000D01*
X137605024Y-79100000D01*
X137496932Y-78838400D01*
X137083775Y-78424521D01*
X136543684Y-78200256D01*
X135958882Y-78199745D01*
X135418400Y-78423068D01*
X135004521Y-78836225D01*
X134780256Y-79376316D01*
X134779745Y-79961118D01*
X128648250Y-79961118D01*
X128650000Y-79952325D01*
X128650000Y-79887675D01*
X128524401Y-79256247D01*
X128166726Y-78720949D01*
X127631428Y-78363274D01*
X127000000Y-78237675D01*
X126368572Y-78363274D01*
X125833274Y-78720949D01*
X125475599Y-79256247D01*
X125350000Y-79887675D01*
X125350000Y-79952325D01*
X125475599Y-80583753D01*
X125833274Y-81119051D01*
X125939457Y-81190000D01*
X125833274Y-81260949D01*
X125475599Y-81796247D01*
X125350000Y-82427675D01*
X125350000Y-82492325D01*
X125475599Y-83123753D01*
X125703065Y-83464179D01*
X125566802Y-83551862D01*
X125395554Y-83802492D01*
X125335307Y-84100000D01*
X121761826Y-84100000D01*
X121564792Y-83623143D01*
X121129151Y-83186740D01*
X120559667Y-82950270D01*
X119943039Y-82949732D01*
X119373143Y-83185208D01*
X118936740Y-83620849D01*
X118700270Y-84190333D01*
X118699732Y-84806961D01*
X114149307Y-84806961D01*
X114210366Y-84500000D01*
X114092379Y-83906841D01*
X113756382Y-83403984D01*
X113253525Y-83067987D01*
X112660366Y-82950000D01*
X112599634Y-82950000D01*
X112006475Y-83067987D01*
X111503618Y-83403984D01*
X111167621Y-83906841D01*
X111049634Y-84500000D01*
X110692199Y-84500000D01*
X110813260Y-84379151D01*
X111049730Y-83809667D01*
X111050268Y-83193039D01*
X110814792Y-82623143D01*
X110379151Y-82186740D01*
X109809667Y-81950270D01*
X109193039Y-81949732D01*
X108623143Y-82185208D01*
X108186740Y-82620849D01*
X107950270Y-83190333D01*
X107949732Y-83806961D01*
X91564355Y-83806961D01*
X91106029Y-83347834D01*
X90389581Y-83050339D01*
X89613823Y-83049662D01*
X88896857Y-83345906D01*
X88347834Y-83893971D01*
X88050339Y-84610419D01*
X88049662Y-85386177D01*
X79211387Y-85386177D01*
X79288203Y-85000000D01*
X79139768Y-84253767D01*
X78717061Y-83621142D01*
X78084436Y-83198435D01*
X77338203Y-83050000D01*
X77261797Y-83050000D01*
X76515564Y-83198435D01*
X75882939Y-83621142D01*
X75460232Y-84253767D01*
X75311797Y-85000000D01*
X26825000Y-85000000D01*
X26825000Y-81477550D01*
X94979783Y-81477550D01*
X95169684Y-81937143D01*
X95521007Y-82289081D01*
X95980269Y-82479783D01*
X96235307Y-82480006D01*
X96235307Y-83000000D01*
X96287604Y-83277933D01*
X96451862Y-83533198D01*
X96702492Y-83704446D01*
X97000000Y-83764693D01*
X98000000Y-83764693D01*
X98277933Y-83712396D01*
X98533198Y-83548138D01*
X98704446Y-83297508D01*
X98764693Y-83000000D01*
X98764693Y-82000000D01*
X98712396Y-81722067D01*
X98555055Y-81477550D01*
X101979783Y-81477550D01*
X102169684Y-81937143D01*
X102521007Y-82289081D01*
X102980269Y-82479783D01*
X103235307Y-82480006D01*
X103235307Y-83000000D01*
X103287604Y-83277933D01*
X103451862Y-83533198D01*
X103702492Y-83704446D01*
X104000000Y-83764693D01*
X105000000Y-83764693D01*
X105277933Y-83712396D01*
X105533198Y-83548138D01*
X105704446Y-83297508D01*
X105764693Y-83000000D01*
X105764693Y-82000000D01*
X105712396Y-81722067D01*
X105548138Y-81466802D01*
X105314203Y-81306961D01*
X110949732Y-81306961D01*
X111185208Y-81876857D01*
X111620849Y-82313260D01*
X112190333Y-82549730D01*
X112806961Y-82550268D01*
X113376857Y-82314792D01*
X113813260Y-81879151D01*
X114049730Y-81309667D01*
X114050268Y-80693039D01*
X113814792Y-80123143D01*
X113419890Y-79727550D01*
X114979783Y-79727550D01*
X115169684Y-80187143D01*
X115521007Y-80539081D01*
X115980269Y-80729783D01*
X116235307Y-80730006D01*
X116235307Y-81250000D01*
X116287604Y-81527933D01*
X116451862Y-81783198D01*
X116702492Y-81954446D01*
X117000000Y-82014693D01*
X118000000Y-82014693D01*
X118277933Y-81962396D01*
X118533198Y-81798138D01*
X118704446Y-81547508D01*
X118764693Y-81250000D01*
X118764693Y-80250000D01*
X118712396Y-79972067D01*
X118548138Y-79716802D01*
X118297508Y-79545554D01*
X118000000Y-79485307D01*
X117479996Y-79485307D01*
X117480018Y-79459984D01*
X117747550Y-79460217D01*
X118207143Y-79270316D01*
X118559081Y-78918993D01*
X118749783Y-78459731D01*
X118750217Y-77962450D01*
X118560316Y-77502857D01*
X118208993Y-77150919D01*
X117749731Y-76960217D01*
X117252450Y-76959783D01*
X116792857Y-77149684D01*
X116440919Y-77501007D01*
X116250217Y-77960269D01*
X116249982Y-78230016D01*
X115982450Y-78229783D01*
X115522857Y-78419684D01*
X115170919Y-78771007D01*
X114980217Y-79230269D01*
X114979783Y-79727550D01*
X113419890Y-79727550D01*
X113379151Y-79686740D01*
X112809667Y-79450270D01*
X112193039Y-79449732D01*
X111623143Y-79685208D01*
X111186740Y-80120849D01*
X110950270Y-80690333D01*
X110949732Y-81306961D01*
X105314203Y-81306961D01*
X105297508Y-81295554D01*
X105000000Y-81235307D01*
X104479996Y-81235307D01*
X104480018Y-81209984D01*
X104747550Y-81210217D01*
X105207143Y-81020316D01*
X105559081Y-80668993D01*
X105749783Y-80209731D01*
X105750217Y-79712450D01*
X105560316Y-79252857D01*
X105208993Y-78900919D01*
X104749731Y-78710217D01*
X104252450Y-78709783D01*
X103792857Y-78899684D01*
X103440919Y-79251007D01*
X103250217Y-79710269D01*
X103249982Y-79980016D01*
X102982450Y-79979783D01*
X102522857Y-80169684D01*
X102170919Y-80521007D01*
X101980217Y-80980269D01*
X101979783Y-81477550D01*
X98555055Y-81477550D01*
X98548138Y-81466802D01*
X98297508Y-81295554D01*
X98000000Y-81235307D01*
X97479996Y-81235307D01*
X97480018Y-81209984D01*
X97747550Y-81210217D01*
X98207143Y-81020316D01*
X98559081Y-80668993D01*
X98749783Y-80209731D01*
X98750217Y-79712450D01*
X98560316Y-79252857D01*
X98208993Y-78900919D01*
X97749731Y-78710217D01*
X97252450Y-78709783D01*
X96792857Y-78899684D01*
X96440919Y-79251007D01*
X96250217Y-79710269D01*
X96249982Y-79980016D01*
X95982450Y-79979783D01*
X95522857Y-80169684D01*
X95170919Y-80521007D01*
X94980217Y-80980269D01*
X94979783Y-81477550D01*
X26825000Y-81477550D01*
X26825000Y-80129407D01*
X80219121Y-80129407D01*
X80366232Y-80393089D01*
X81138928Y-80491518D01*
X81633768Y-80393089D01*
X81780879Y-80129407D01*
X81000000Y-79348528D01*
X80219121Y-80129407D01*
X26825000Y-80129407D01*
X26825000Y-68900000D01*
X45135307Y-68900000D01*
X45135307Y-71100000D01*
X45187604Y-71377933D01*
X45351862Y-71633198D01*
X45602492Y-71804446D01*
X45900000Y-71864693D01*
X46694322Y-71864693D01*
X46646609Y-71936101D01*
X46505361Y-72089751D01*
X46458690Y-72217341D01*
X46383211Y-72330304D01*
X46342494Y-72535003D01*
X46270796Y-72731013D01*
X45570796Y-77231013D01*
X45599487Y-77913226D01*
X45887065Y-78532529D01*
X46389751Y-78994639D01*
X47031013Y-79229204D01*
X47713226Y-79200513D01*
X48332529Y-78912935D01*
X48499957Y-78730805D01*
X59334881Y-78730805D01*
X59419983Y-78978846D01*
X60030064Y-79088239D01*
X60580017Y-78978846D01*
X60665119Y-78730805D01*
X60573243Y-78638928D01*
X79008482Y-78638928D01*
X79106911Y-79133768D01*
X79370593Y-79280879D01*
X80151472Y-78500000D01*
X81848528Y-78500000D01*
X82629407Y-79280879D01*
X82893089Y-79133768D01*
X82893488Y-79130635D01*
X91075306Y-79130635D01*
X91425088Y-79627838D01*
X91869369Y-79924665D01*
X92100000Y-79808737D01*
X92100000Y-78900000D01*
X92900000Y-78900000D01*
X92900000Y-79808737D01*
X93130631Y-79924665D01*
X93574912Y-79627838D01*
X93924694Y-79130635D01*
X93816307Y-78900000D01*
X92900000Y-78900000D01*
X92100000Y-78900000D01*
X91183693Y-78900000D01*
X91075306Y-79130635D01*
X82893488Y-79130635D01*
X82991518Y-78361072D01*
X82893713Y-77869365D01*
X91075306Y-77869365D01*
X91183693Y-78100000D01*
X92100000Y-78100000D01*
X92100000Y-77191263D01*
X92900000Y-77191263D01*
X92900000Y-78100000D01*
X93816307Y-78100000D01*
X93924694Y-77869365D01*
X93574912Y-77372162D01*
X93130631Y-77075335D01*
X92900000Y-77191263D01*
X92100000Y-77191263D01*
X91869369Y-77075335D01*
X91425088Y-77372162D01*
X91075306Y-77869365D01*
X82893713Y-77869365D01*
X82893089Y-77866232D01*
X82629407Y-77719121D01*
X81848528Y-78500000D01*
X80151472Y-78500000D01*
X79370593Y-77719121D01*
X79106911Y-77866232D01*
X79008482Y-78638928D01*
X60573243Y-78638928D01*
X60000000Y-78065685D01*
X59334881Y-78730805D01*
X48499957Y-78730805D01*
X48794639Y-78410249D01*
X49029204Y-77768987D01*
X49066369Y-77530064D01*
X58411761Y-77530064D01*
X58521154Y-78080017D01*
X58769195Y-78165119D01*
X59434315Y-77500000D01*
X60565685Y-77500000D01*
X61230805Y-78165119D01*
X61478846Y-78080017D01*
X61588239Y-77469936D01*
X61478846Y-76919983D01*
X61334893Y-76870593D01*
X80219121Y-76870593D01*
X81000000Y-77651472D01*
X81780879Y-76870593D01*
X81745379Y-76806961D01*
X97449732Y-76806961D01*
X97685208Y-77376857D01*
X98120849Y-77813260D01*
X98690333Y-78049730D01*
X99306961Y-78050268D01*
X99876857Y-77814792D01*
X100313260Y-77379151D01*
X100549730Y-76809667D01*
X100549732Y-76806961D01*
X102949732Y-76806961D01*
X103185208Y-77376857D01*
X103620849Y-77813260D01*
X104190333Y-78049730D01*
X104806961Y-78050268D01*
X105376857Y-77814792D01*
X105813260Y-77379151D01*
X106049730Y-76809667D01*
X106050268Y-76193039D01*
X105908377Y-75849634D01*
X107950000Y-75849634D01*
X107950000Y-75910366D01*
X108067987Y-76503525D01*
X108403984Y-77006382D01*
X108906841Y-77342379D01*
X109500000Y-77460366D01*
X110093159Y-77342379D01*
X110596016Y-77006382D01*
X110932013Y-76503525D01*
X111050000Y-75910366D01*
X111050000Y-75849634D01*
X110991784Y-75556961D01*
X138949732Y-75556961D01*
X139185208Y-76126857D01*
X139620849Y-76563260D01*
X140190333Y-76799730D01*
X140806961Y-76800268D01*
X141376857Y-76564792D01*
X141813260Y-76129151D01*
X141866888Y-76000000D01*
X146237675Y-76000000D01*
X146363274Y-76631428D01*
X146720949Y-77166726D01*
X147256247Y-77524401D01*
X147887675Y-77650000D01*
X147952325Y-77650000D01*
X148583753Y-77524401D01*
X149119051Y-77166726D01*
X149190000Y-77060543D01*
X149260949Y-77166726D01*
X149796247Y-77524401D01*
X150427675Y-77650000D01*
X150492325Y-77650000D01*
X151123753Y-77524401D01*
X151464179Y-77296935D01*
X151551862Y-77433198D01*
X151802492Y-77604446D01*
X152100000Y-77664693D01*
X153900000Y-77664693D01*
X154177933Y-77612396D01*
X154433198Y-77448138D01*
X154604446Y-77197508D01*
X154664693Y-76900000D01*
X154664693Y-76089634D01*
X172200000Y-76089634D01*
X172200000Y-76150366D01*
X172317987Y-76743525D01*
X172653984Y-77246382D01*
X173156841Y-77582379D01*
X173750000Y-77700366D01*
X174343159Y-77582379D01*
X174846016Y-77246382D01*
X175182013Y-76743525D01*
X175300000Y-76150366D01*
X175300000Y-76089634D01*
X175298831Y-76083756D01*
X196650000Y-76083756D01*
X196650000Y-76156244D01*
X196790823Y-76864208D01*
X197191852Y-77464392D01*
X197792036Y-77865421D01*
X198500000Y-78006244D01*
X199207964Y-77865421D01*
X199808148Y-77464392D01*
X200018735Y-77149224D01*
X207542000Y-77149224D01*
X207542000Y-77710500D01*
X207731500Y-77900000D01*
X208900000Y-77900000D01*
X208900000Y-76731500D01*
X210100000Y-76731500D01*
X210100000Y-77900000D01*
X211268500Y-77900000D01*
X211458000Y-77710500D01*
X211458000Y-77149224D01*
X211342601Y-76870627D01*
X211129372Y-76657398D01*
X210850775Y-76542000D01*
X210289500Y-76542000D01*
X210100000Y-76731500D01*
X208900000Y-76731500D01*
X208710500Y-76542000D01*
X208149225Y-76542000D01*
X207870628Y-76657398D01*
X207657399Y-76870627D01*
X207542000Y-77149224D01*
X200018735Y-77149224D01*
X200209177Y-76864208D01*
X200350000Y-76156244D01*
X200350000Y-76083756D01*
X200209177Y-75375792D01*
X199808148Y-74775608D01*
X199207964Y-74374579D01*
X198500000Y-74233756D01*
X197792036Y-74374579D01*
X197191852Y-74775608D01*
X196790823Y-75375792D01*
X196650000Y-76083756D01*
X175298831Y-76083756D01*
X175182013Y-75496475D01*
X174846016Y-74993618D01*
X174343159Y-74657621D01*
X173750000Y-74539634D01*
X173156841Y-74657621D01*
X172653984Y-74993618D01*
X172317987Y-75496475D01*
X172200000Y-76089634D01*
X154664693Y-76089634D01*
X154664693Y-75100000D01*
X154612396Y-74822067D01*
X154448138Y-74566802D01*
X154197508Y-74395554D01*
X153900000Y-74335307D01*
X152100000Y-74335307D01*
X151822067Y-74387604D01*
X151566802Y-74551862D01*
X151463706Y-74702748D01*
X151123753Y-74475599D01*
X150492325Y-74350000D01*
X150427675Y-74350000D01*
X149796247Y-74475599D01*
X149260949Y-74833274D01*
X149190000Y-74939457D01*
X149119051Y-74833274D01*
X148583753Y-74475599D01*
X147952325Y-74350000D01*
X147887675Y-74350000D01*
X147256247Y-74475599D01*
X146720949Y-74833274D01*
X146363274Y-75368572D01*
X146237675Y-76000000D01*
X141866888Y-76000000D01*
X142049730Y-75559667D01*
X142050268Y-74943039D01*
X141814792Y-74373143D01*
X141379151Y-73936740D01*
X140809667Y-73700270D01*
X140193039Y-73699732D01*
X139623143Y-73935208D01*
X139186740Y-74370849D01*
X138950270Y-74940333D01*
X138949732Y-75556961D01*
X110991784Y-75556961D01*
X110932013Y-75256475D01*
X110596016Y-74753618D01*
X110093159Y-74417621D01*
X109500000Y-74299634D01*
X108906841Y-74417621D01*
X108403984Y-74753618D01*
X108067987Y-75256475D01*
X107950000Y-75849634D01*
X105908377Y-75849634D01*
X105814792Y-75623143D01*
X105379151Y-75186740D01*
X104809667Y-74950270D01*
X104193039Y-74949732D01*
X103623143Y-75185208D01*
X103186740Y-75620849D01*
X102950270Y-76190333D01*
X102949732Y-76806961D01*
X100549732Y-76806961D01*
X100550268Y-76193039D01*
X100314792Y-75623143D01*
X99879151Y-75186740D01*
X99309667Y-74950270D01*
X98693039Y-74949732D01*
X98123143Y-75185208D01*
X97686740Y-75620849D01*
X97450270Y-76190333D01*
X97449732Y-76806961D01*
X81745379Y-76806961D01*
X81633768Y-76606911D01*
X80861072Y-76508482D01*
X80366232Y-76606911D01*
X80219121Y-76870593D01*
X61334893Y-76870593D01*
X61230805Y-76834881D01*
X60565685Y-77500000D01*
X59434315Y-77500000D01*
X58769195Y-76834881D01*
X58521154Y-76919983D01*
X58411761Y-77530064D01*
X49066369Y-77530064D01*
X49262504Y-76269195D01*
X59334881Y-76269195D01*
X60000000Y-76934315D01*
X60665119Y-76269195D01*
X60580017Y-76021154D01*
X59969936Y-75911761D01*
X59419983Y-76021154D01*
X59334881Y-76269195D01*
X49262504Y-76269195D01*
X49580690Y-74223723D01*
X49616789Y-74169696D01*
X49750000Y-73500000D01*
X49750000Y-73000000D01*
X49709283Y-72795301D01*
X49700513Y-72586774D01*
X49643294Y-72463551D01*
X49616789Y-72330304D01*
X49500837Y-72156770D01*
X49412935Y-71967471D01*
X49312916Y-71875525D01*
X49237437Y-71762563D01*
X49063899Y-71646609D01*
X48910249Y-71505361D01*
X48782659Y-71458690D01*
X48768916Y-71449508D01*
X48804446Y-71397508D01*
X48864693Y-71100000D01*
X48864693Y-68900000D01*
X48812396Y-68622067D01*
X48648138Y-68366802D01*
X48397508Y-68195554D01*
X48100000Y-68135307D01*
X45900000Y-68135307D01*
X45622067Y-68187604D01*
X45366802Y-68351862D01*
X45195554Y-68602492D01*
X45135307Y-68900000D01*
X26825000Y-68900000D01*
X26825000Y-66832637D01*
X27143971Y-67152166D01*
X27860419Y-67449661D01*
X28636177Y-67450338D01*
X29353143Y-67154094D01*
X29902166Y-66606029D01*
X30103350Y-66121524D01*
X30237437Y-65987437D01*
X30616789Y-65419696D01*
X30750000Y-64750000D01*
X30750000Y-60750000D01*
X38775126Y-60750000D01*
X41720861Y-63695735D01*
X40988203Y-63550000D01*
X40911797Y-63550000D01*
X40165564Y-63698435D01*
X39532939Y-64121142D01*
X39110232Y-64753767D01*
X38961797Y-65500000D01*
X39110232Y-66246233D01*
X39532939Y-66878858D01*
X40165564Y-67301565D01*
X40911797Y-67450000D01*
X40988203Y-67450000D01*
X41734436Y-67301565D01*
X42367061Y-66878858D01*
X42789768Y-66246233D01*
X42893830Y-65723081D01*
X42959331Y-66052379D01*
X43555456Y-66944544D01*
X44447621Y-67540669D01*
X45500000Y-67750000D01*
X53338668Y-67750000D01*
X53044752Y-69037354D01*
X52874579Y-69292036D01*
X52733756Y-70000000D01*
X52874579Y-70707964D01*
X53275608Y-71308148D01*
X53875792Y-71709177D01*
X54583756Y-71850000D01*
X54656244Y-71850000D01*
X55364208Y-71709177D01*
X55964392Y-71308148D01*
X56365421Y-70707964D01*
X56430440Y-70381090D01*
X56253020Y-73397236D01*
X56346675Y-74073599D01*
X56692034Y-74662637D01*
X57236519Y-75074673D01*
X57897236Y-75246980D01*
X58573599Y-75153325D01*
X59162637Y-74807966D01*
X59574673Y-74263481D01*
X59746980Y-73602764D01*
X59761869Y-73349634D01*
X110950000Y-73349634D01*
X110950000Y-73410366D01*
X111067987Y-74003525D01*
X111403984Y-74506382D01*
X111906841Y-74842379D01*
X112500000Y-74960366D01*
X113093159Y-74842379D01*
X113596016Y-74506382D01*
X113932013Y-74003525D01*
X113932714Y-74000000D01*
X114299634Y-74000000D01*
X114417621Y-74593159D01*
X114753618Y-75096016D01*
X115256475Y-75432013D01*
X115849634Y-75550000D01*
X115910366Y-75550000D01*
X116503525Y-75432013D01*
X117006382Y-75096016D01*
X117342379Y-74593159D01*
X117460366Y-74000000D01*
X117342379Y-73406841D01*
X117006382Y-72903984D01*
X116503525Y-72567987D01*
X115910366Y-72450000D01*
X115849634Y-72450000D01*
X115256475Y-72567987D01*
X114753618Y-72903984D01*
X114417621Y-73406841D01*
X114299634Y-74000000D01*
X113932714Y-74000000D01*
X114050000Y-73410366D01*
X114050000Y-73349634D01*
X113932013Y-72756475D01*
X113596016Y-72253618D01*
X113093159Y-71917621D01*
X112500000Y-71799634D01*
X111906841Y-71917621D01*
X111403984Y-72253618D01*
X111067987Y-72756475D01*
X110950000Y-73349634D01*
X59761869Y-73349634D01*
X59988318Y-69500000D01*
X61735307Y-69500000D01*
X61735307Y-72500000D01*
X61787604Y-72777933D01*
X61951862Y-73033198D01*
X62202492Y-73204446D01*
X62500000Y-73264693D01*
X65500000Y-73264693D01*
X65777933Y-73212396D01*
X66033198Y-73048138D01*
X66115994Y-72926961D01*
X68213699Y-72926961D01*
X68407361Y-73201784D01*
X69301149Y-73291592D01*
X69752639Y-73201784D01*
X69946301Y-72926961D01*
X69080000Y-72060660D01*
X68213699Y-72926961D01*
X66115994Y-72926961D01*
X66204446Y-72797508D01*
X66264693Y-72500000D01*
X66264693Y-71221149D01*
X66788408Y-71221149D01*
X66878216Y-71672639D01*
X67153039Y-71866301D01*
X68019340Y-71000000D01*
X70140660Y-71000000D01*
X71006961Y-71866301D01*
X71281784Y-71672639D01*
X71371592Y-70778851D01*
X71281784Y-70327361D01*
X71006961Y-70133699D01*
X70140660Y-71000000D01*
X68019340Y-71000000D01*
X67153039Y-70133699D01*
X66878216Y-70327361D01*
X66788408Y-71221149D01*
X66264693Y-71221149D01*
X66264693Y-69500000D01*
X66212396Y-69222067D01*
X66116500Y-69073039D01*
X68213699Y-69073039D01*
X69080000Y-69939340D01*
X69219340Y-69800000D01*
X79035307Y-69800000D01*
X79035307Y-72200000D01*
X79087604Y-72477933D01*
X79251862Y-72733198D01*
X79502492Y-72904446D01*
X79800000Y-72964693D01*
X82200000Y-72964693D01*
X82477933Y-72912396D01*
X82733198Y-72748138D01*
X82904446Y-72497508D01*
X82964693Y-72200000D01*
X82964693Y-69800000D01*
X82912396Y-69522067D01*
X82748138Y-69266802D01*
X82497508Y-69095554D01*
X82200000Y-69035307D01*
X79800000Y-69035307D01*
X79522067Y-69087604D01*
X79266802Y-69251862D01*
X79095554Y-69502492D01*
X79035307Y-69800000D01*
X69219340Y-69800000D01*
X69946301Y-69073039D01*
X69752639Y-68798216D01*
X68858851Y-68708408D01*
X68407361Y-68798216D01*
X68213699Y-69073039D01*
X66116500Y-69073039D01*
X66048138Y-68966802D01*
X65797508Y-68795554D01*
X65500000Y-68735307D01*
X62500000Y-68735307D01*
X62222067Y-68787604D01*
X61966802Y-68951862D01*
X61795554Y-69202492D01*
X61735307Y-69500000D01*
X59988318Y-69500000D01*
X60091260Y-67750000D01*
X91133112Y-67750000D01*
X90950270Y-68190333D01*
X90949732Y-68806961D01*
X91185208Y-69376857D01*
X91620849Y-69813260D01*
X92190333Y-70049730D01*
X92806961Y-70050268D01*
X93376857Y-69814792D01*
X93813260Y-69379151D01*
X94049730Y-68809667D01*
X94050268Y-68193039D01*
X93867208Y-67750000D01*
X97909399Y-67750000D01*
X97903984Y-67753618D01*
X97567987Y-68256475D01*
X97450000Y-68849634D01*
X97450000Y-68910366D01*
X97567987Y-69503525D01*
X97903984Y-70006382D01*
X98406841Y-70342379D01*
X99000000Y-70460366D01*
X99593159Y-70342379D01*
X100096016Y-70006382D01*
X100432013Y-69503525D01*
X100550000Y-68910366D01*
X100550000Y-68849634D01*
X100432013Y-68256475D01*
X100096016Y-67753618D01*
X100090601Y-67750000D01*
X103409399Y-67750000D01*
X103403984Y-67753618D01*
X103067987Y-68256475D01*
X102950000Y-68849634D01*
X102950000Y-68910366D01*
X103067987Y-69503525D01*
X103403984Y-70006382D01*
X103906841Y-70342379D01*
X104500000Y-70460366D01*
X105093159Y-70342379D01*
X105596016Y-70006382D01*
X105600280Y-70000000D01*
X112271797Y-70000000D01*
X112420232Y-70746233D01*
X112842939Y-71378858D01*
X113475564Y-71801565D01*
X114221797Y-71950000D01*
X114298203Y-71950000D01*
X115044436Y-71801565D01*
X115677061Y-71378858D01*
X116099768Y-70746233D01*
X116248203Y-70000000D01*
X116099768Y-69253767D01*
X115677061Y-68621142D01*
X115044436Y-68198435D01*
X114298203Y-68050000D01*
X114221797Y-68050000D01*
X113475564Y-68198435D01*
X112842939Y-68621142D01*
X112420232Y-69253767D01*
X112271797Y-70000000D01*
X105600280Y-70000000D01*
X105932013Y-69503525D01*
X106050000Y-68910366D01*
X106050000Y-68849634D01*
X105932013Y-68256475D01*
X105596016Y-67753618D01*
X105590601Y-67750000D01*
X125380000Y-67750000D01*
X125380000Y-72819539D01*
X125253618Y-72903984D01*
X124926514Y-73393531D01*
X124814792Y-73123143D01*
X124379151Y-72686740D01*
X123809667Y-72450270D01*
X123193039Y-72449732D01*
X122623143Y-72685208D01*
X122186740Y-73120849D01*
X121950270Y-73690333D01*
X121949732Y-74306961D01*
X122185208Y-74876857D01*
X122620849Y-75313260D01*
X123190333Y-75549730D01*
X123806961Y-75550268D01*
X124376857Y-75314792D01*
X124813260Y-74879151D01*
X124926498Y-74606444D01*
X125253618Y-75096016D01*
X125756475Y-75432013D01*
X126349634Y-75550000D01*
X126410366Y-75550000D01*
X127003525Y-75432013D01*
X127506382Y-75096016D01*
X127842379Y-74593159D01*
X127899307Y-74306961D01*
X132449732Y-74306961D01*
X132685208Y-74876857D01*
X133120849Y-75313260D01*
X133690333Y-75549730D01*
X134306961Y-75550268D01*
X134876857Y-75314792D01*
X135313260Y-74879151D01*
X135549730Y-74309667D01*
X135550268Y-73693039D01*
X135314792Y-73123143D01*
X134879151Y-72686740D01*
X134309667Y-72450270D01*
X133693039Y-72449732D01*
X133123143Y-72685208D01*
X132686740Y-73120849D01*
X132450270Y-73690333D01*
X132449732Y-74306961D01*
X127899307Y-74306961D01*
X127960366Y-74000000D01*
X127842379Y-73406841D01*
X127506382Y-72903984D01*
X127380000Y-72819539D01*
X127380000Y-70386177D01*
X127549662Y-70386177D01*
X127845906Y-71103143D01*
X128393971Y-71652166D01*
X129110419Y-71949661D01*
X129886177Y-71950338D01*
X130603143Y-71654094D01*
X131152166Y-71106029D01*
X131449661Y-70389581D01*
X131450338Y-69613823D01*
X131154094Y-68896857D01*
X130606029Y-68347834D01*
X129889581Y-68050339D01*
X129113823Y-68049662D01*
X128396857Y-68345906D01*
X127847834Y-68893971D01*
X127550339Y-69610419D01*
X127549662Y-70386177D01*
X127380000Y-70386177D01*
X127380000Y-67750000D01*
X132308238Y-67750000D01*
X131936740Y-68120849D01*
X131700270Y-68690333D01*
X131699732Y-69306961D01*
X131935208Y-69876857D01*
X132370849Y-70313260D01*
X132940333Y-70549730D01*
X133556961Y-70550268D01*
X134126857Y-70314792D01*
X134563260Y-69879151D01*
X134799730Y-69309667D01*
X134800268Y-68693039D01*
X134564792Y-68123143D01*
X134192301Y-67750000D01*
X135460000Y-67750000D01*
X135460000Y-70232029D01*
X135400919Y-70291007D01*
X135210217Y-70750269D01*
X135209783Y-71247550D01*
X135399684Y-71707143D01*
X135751007Y-72059081D01*
X136210269Y-72249783D01*
X136480016Y-72250018D01*
X136479783Y-72517550D01*
X136669684Y-72977143D01*
X137021007Y-73329081D01*
X137480269Y-73519783D01*
X137977550Y-73520217D01*
X138437143Y-73330316D01*
X138768037Y-73000000D01*
X175771797Y-73000000D01*
X175920232Y-73746233D01*
X176342939Y-74378858D01*
X176975564Y-74801565D01*
X177721797Y-74950000D01*
X177798203Y-74950000D01*
X178544436Y-74801565D01*
X179177061Y-74378858D01*
X179599768Y-73746233D01*
X179671387Y-73386177D01*
X191049662Y-73386177D01*
X191345906Y-74103143D01*
X191893971Y-74652166D01*
X192610419Y-74949661D01*
X193386177Y-74950338D01*
X194103143Y-74654094D01*
X194652166Y-74106029D01*
X194949661Y-73389581D01*
X194950338Y-72613823D01*
X194654094Y-71896857D01*
X194144306Y-71386177D01*
X207549662Y-71386177D01*
X207845906Y-72103143D01*
X208393971Y-72652166D01*
X209110419Y-72949661D01*
X209886177Y-72950338D01*
X210603143Y-72654094D01*
X211152166Y-72106029D01*
X211449661Y-71389581D01*
X211450338Y-70613823D01*
X211154094Y-69896857D01*
X210606029Y-69347834D01*
X209889581Y-69050339D01*
X209113823Y-69049662D01*
X208396857Y-69345906D01*
X207847834Y-69893971D01*
X207550339Y-70610419D01*
X207549662Y-71386177D01*
X194144306Y-71386177D01*
X194106029Y-71347834D01*
X193389581Y-71050339D01*
X192613823Y-71049662D01*
X191896857Y-71345906D01*
X191347834Y-71893971D01*
X191050339Y-72610419D01*
X191049662Y-73386177D01*
X179671387Y-73386177D01*
X179748203Y-73000000D01*
X179599768Y-72253767D01*
X179177061Y-71621142D01*
X178544436Y-71198435D01*
X177798203Y-71050000D01*
X177721797Y-71050000D01*
X176975564Y-71198435D01*
X176342939Y-71621142D01*
X175920232Y-72253767D01*
X175771797Y-73000000D01*
X138768037Y-73000000D01*
X138789081Y-72978993D01*
X138979783Y-72519731D01*
X138980006Y-72264693D01*
X139500000Y-72264693D01*
X139777933Y-72212396D01*
X140033198Y-72048138D01*
X140204446Y-71797508D01*
X140264693Y-71500000D01*
X140264693Y-70500000D01*
X140212396Y-70222067D01*
X140048138Y-69966802D01*
X139797508Y-69795554D01*
X139500000Y-69735307D01*
X138500000Y-69735307D01*
X138222067Y-69787604D01*
X137966802Y-69951862D01*
X137795554Y-70202492D01*
X137735307Y-70500000D01*
X137735307Y-71020004D01*
X137709984Y-71019982D01*
X137710217Y-70752450D01*
X137520316Y-70292857D01*
X137460000Y-70232435D01*
X137460000Y-67750000D01*
X140475808Y-67750000D01*
X140435307Y-67950000D01*
X140435307Y-69550000D01*
X140487604Y-69827933D01*
X140651862Y-70083198D01*
X140902492Y-70254446D01*
X141200000Y-70314693D01*
X142800000Y-70314693D01*
X143077933Y-70262396D01*
X143333198Y-70098138D01*
X143504446Y-69847508D01*
X143564693Y-69550000D01*
X143564693Y-67950000D01*
X143527060Y-67750000D01*
X154149720Y-67750000D01*
X153817987Y-68246475D01*
X153700000Y-68839634D01*
X153700000Y-68900366D01*
X153817987Y-69493525D01*
X154153984Y-69996382D01*
X154656841Y-70332379D01*
X155250000Y-70450366D01*
X155843159Y-70332379D01*
X156346016Y-69996382D01*
X156682013Y-69493525D01*
X156800000Y-68900366D01*
X156800000Y-68839634D01*
X156682013Y-68246475D01*
X156350280Y-67750000D01*
X160731963Y-67750000D01*
X160710919Y-67771007D01*
X160520217Y-68230269D01*
X160519994Y-68485307D01*
X160000000Y-68485307D01*
X159722067Y-68537604D01*
X159466802Y-68701862D01*
X159295554Y-68952492D01*
X159235307Y-69250000D01*
X159235307Y-70250000D01*
X159287604Y-70527933D01*
X159451862Y-70783198D01*
X159702492Y-70954446D01*
X160000000Y-71014693D01*
X161000000Y-71014693D01*
X161277933Y-70962396D01*
X161533198Y-70798138D01*
X161704446Y-70547508D01*
X161764693Y-70250000D01*
X161764693Y-69729996D01*
X161790016Y-69730018D01*
X161789783Y-69997550D01*
X161979684Y-70457143D01*
X162331007Y-70809081D01*
X162790269Y-70999783D01*
X163287550Y-71000217D01*
X163747143Y-70810316D01*
X164099081Y-70458993D01*
X164289783Y-69999731D01*
X164290217Y-69502450D01*
X164179564Y-69234650D01*
X164387107Y-69027107D01*
X164603880Y-68702684D01*
X164680001Y-68320000D01*
X164680000Y-68319995D01*
X164680000Y-67750000D01*
X172383112Y-67750000D01*
X172200270Y-68190333D01*
X172199732Y-68806961D01*
X172435208Y-69376857D01*
X172870849Y-69813260D01*
X173440333Y-70049730D01*
X174056961Y-70050268D01*
X174626857Y-69814792D01*
X174906232Y-69535904D01*
X174917621Y-69593159D01*
X175253618Y-70096016D01*
X175756475Y-70432013D01*
X176349634Y-70550000D01*
X176410366Y-70550000D01*
X177003525Y-70432013D01*
X177506382Y-70096016D01*
X177842379Y-69593159D01*
X177960366Y-69000000D01*
X177842379Y-68406841D01*
X177506382Y-67903984D01*
X177275928Y-67750000D01*
X183000000Y-67750000D01*
X183000000Y-67808136D01*
X182686740Y-68120849D01*
X182450270Y-68690333D01*
X182449732Y-69306961D01*
X182685208Y-69876857D01*
X183120849Y-70313260D01*
X183690333Y-70549730D01*
X184306961Y-70550268D01*
X184876857Y-70314792D01*
X185313260Y-69879151D01*
X185323083Y-69855494D01*
X185435208Y-70126857D01*
X185870849Y-70563260D01*
X186440333Y-70799730D01*
X187056961Y-70800268D01*
X187626857Y-70564792D01*
X188063260Y-70129151D01*
X188299730Y-69559667D01*
X188300268Y-68943039D01*
X188064792Y-68373143D01*
X187629151Y-67936740D01*
X187179430Y-67750000D01*
X196635307Y-67750000D01*
X196635307Y-69600000D01*
X196687604Y-69877933D01*
X196851862Y-70133198D01*
X197102492Y-70304446D01*
X197400000Y-70364693D01*
X199600000Y-70364693D01*
X199877933Y-70312396D01*
X200133198Y-70148138D01*
X200304446Y-69897508D01*
X200364693Y-69600000D01*
X200364693Y-69013559D01*
X201447743Y-67750000D01*
X220058238Y-67750000D01*
X219686740Y-68120849D01*
X219450270Y-68690333D01*
X219449732Y-69306961D01*
X219685208Y-69876857D01*
X220120849Y-70313260D01*
X220690333Y-70549730D01*
X221306961Y-70550268D01*
X221428618Y-70500000D01*
X223735307Y-70500000D01*
X223735307Y-73500000D01*
X223787604Y-73777933D01*
X223951862Y-74033198D01*
X224202492Y-74204446D01*
X224500000Y-74264693D01*
X227500000Y-74264693D01*
X227777933Y-74212396D01*
X228033198Y-74048138D01*
X228204446Y-73797508D01*
X228264693Y-73500000D01*
X228264693Y-72445589D01*
X228829610Y-72445589D01*
X229171431Y-73272858D01*
X229803813Y-73906345D01*
X230630484Y-74249608D01*
X231525589Y-74250390D01*
X232352858Y-73908569D01*
X232986345Y-73276187D01*
X233329608Y-72449516D01*
X233330390Y-71554411D01*
X232988569Y-70727142D01*
X232356187Y-70093655D01*
X231529516Y-69750392D01*
X230634411Y-69749610D01*
X229807142Y-70091431D01*
X229173655Y-70723813D01*
X228830392Y-71550484D01*
X228829610Y-72445589D01*
X228264693Y-72445589D01*
X228264693Y-70500000D01*
X228212396Y-70222067D01*
X228048138Y-69966802D01*
X227797508Y-69795554D01*
X227500000Y-69735307D01*
X224500000Y-69735307D01*
X224222067Y-69787604D01*
X223966802Y-69951862D01*
X223795554Y-70202492D01*
X223735307Y-70500000D01*
X221428618Y-70500000D01*
X221876857Y-70314792D01*
X222313260Y-69879151D01*
X222549730Y-69309667D01*
X222550268Y-68693039D01*
X222314792Y-68123143D01*
X221942301Y-67750000D01*
X238110912Y-67750000D01*
X239750000Y-69389088D01*
X239750000Y-72000000D01*
X239959331Y-73052379D01*
X240235307Y-73465407D01*
X240235307Y-73500000D01*
X240287604Y-73777933D01*
X240451862Y-74033198D01*
X240702492Y-74204446D01*
X241000000Y-74264693D01*
X241034593Y-74264693D01*
X241447621Y-74540669D01*
X242500000Y-74750000D01*
X243552379Y-74540669D01*
X243965407Y-74264693D01*
X244000000Y-74264693D01*
X244277933Y-74212396D01*
X244533198Y-74048138D01*
X244615994Y-73926961D01*
X246713699Y-73926961D01*
X246907361Y-74201784D01*
X247801149Y-74291592D01*
X248252639Y-74201784D01*
X248446301Y-73926961D01*
X247580000Y-73060660D01*
X246713699Y-73926961D01*
X244615994Y-73926961D01*
X244704446Y-73797508D01*
X244764693Y-73500000D01*
X244764693Y-73465407D01*
X245040669Y-73052379D01*
X245206010Y-72221149D01*
X245288408Y-72221149D01*
X245378216Y-72672639D01*
X245653039Y-72866301D01*
X246519340Y-72000000D01*
X248640660Y-72000000D01*
X249506961Y-72866301D01*
X249781784Y-72672639D01*
X249871592Y-71778851D01*
X249781784Y-71327361D01*
X249506961Y-71133699D01*
X248640660Y-72000000D01*
X246519340Y-72000000D01*
X245653039Y-71133699D01*
X245378216Y-71327361D01*
X245288408Y-72221149D01*
X245206010Y-72221149D01*
X245250000Y-72000000D01*
X245250000Y-70073039D01*
X246713699Y-70073039D01*
X247580000Y-70939340D01*
X248446301Y-70073039D01*
X248252639Y-69798216D01*
X247358851Y-69708408D01*
X246907361Y-69798216D01*
X246713699Y-70073039D01*
X245250000Y-70073039D01*
X245250000Y-68250000D01*
X245207457Y-68036120D01*
X245040669Y-67197620D01*
X244741579Y-66750000D01*
X247188392Y-66750000D01*
X247265564Y-66801565D01*
X248011797Y-66950000D01*
X248088203Y-66950000D01*
X248834436Y-66801565D01*
X249467061Y-66378858D01*
X249889768Y-65746233D01*
X250038203Y-65000000D01*
X249889768Y-64253767D01*
X249467061Y-63621142D01*
X248834436Y-63198435D01*
X248088203Y-63050000D01*
X248011797Y-63050000D01*
X247265564Y-63198435D01*
X247188392Y-63250000D01*
X243474874Y-63250000D01*
X243917437Y-62807437D01*
X243928131Y-62791432D01*
X243943899Y-62780396D01*
X244117417Y-62508145D01*
X244296789Y-62239696D01*
X244300544Y-62220818D01*
X244310889Y-62204587D01*
X244869244Y-60769615D01*
X245242401Y-60520280D01*
X245708462Y-59822769D01*
X245872121Y-59000000D01*
X245816449Y-58720119D01*
X245880211Y-58718923D01*
X246067258Y-58748707D01*
X251803219Y-58528093D01*
X258897085Y-65621959D01*
X259095906Y-66103143D01*
X259643971Y-66652166D01*
X260360419Y-66949661D01*
X261136177Y-66950338D01*
X261853143Y-66654094D01*
X262402166Y-66106029D01*
X262699661Y-65389581D01*
X262700338Y-64613823D01*
X262404094Y-63896857D01*
X261856029Y-63347834D01*
X261371524Y-63146650D01*
X253737437Y-55512563D01*
X253709025Y-55493579D01*
X253688964Y-55465919D01*
X253426135Y-55304558D01*
X253169696Y-55133211D01*
X253136183Y-55126545D01*
X253107063Y-55108667D01*
X252802488Y-55060169D01*
X252500000Y-55000000D01*
X252466487Y-55006666D01*
X252432742Y-55001293D01*
X246889697Y-55214487D01*
X244895021Y-52347141D01*
X244914693Y-52250000D01*
X244914693Y-43825000D01*
X245323307Y-43825000D01*
X245323307Y-47928000D01*
M02*
