M48
;DRILL file {KiCad 4.0.7} date 08/21/20 07:00:11
;FORMAT={-:-/ absolute / metric / decimal}
FMAT,2
METRIC,TZ
T1C0.600
T2C0.800
T3C0.900
T4C1.000
T5C1.100
T6C1.200
T7C1.400
T8C1.500
T9C1.520
T10C1.700
T11C3.048
%
G90
G05
M71
T1
X95.5Y-93.5
X95.5Y-96.04
X96.23Y-81.23
X96.77Y-94.77
X97.5Y-79.96
X97.5Y-82.5
X103.23Y-81.23
X104.5Y-79.96
X104.5Y-82.5
X104.5Y-93.5
X104.5Y-96.04
X105.5Y-102.
X105.77Y-94.77
X106.77Y-100.73
X108.04Y-102.
X109.96Y-89.
X111.23Y-90.27
X112.5Y-89.
X113.005Y-80.505
X114.275Y-79.235
X114.275Y-81.775
X114.5Y-98.5
X115.77Y-97.23
X117.04Y-98.5
X136.46Y-71.
X137.73Y-72.27
X139.Y-71.
X160.5Y-69.75
X161.77Y-68.48
X163.04Y-69.75
X182.73Y-92.23
X184.Y-90.96
X184.Y-93.5
T2
X45.3Y-77.5
X48.Y-73.5
X58.Y-73.5
X58.Y-77.5
X66.75Y-93.5
X74.37Y-93.5
X79.5Y-97.5
X80.5Y-101.
X85.5Y-101.
X87.12Y-97.5
X90.Y-97.
X90.Y-102.
X92.5Y-68.5
X92.5Y-78.5
X95.88Y-89.5
X96.Y-68.38
X96.Y-76.
X96.Y-86.
X101.Y-68.38
X101.Y-76.
X103.5Y-86.
X103.5Y-89.5
X105.Y-68.38
X105.Y-76.
X109.Y-68.38
X109.Y-76.
X109.33Y-85.
X112.75Y-68.38
X112.75Y-76.
X116.575Y-88.3
X116.575Y-93.3
X116.95Y-85.
X120.63Y-69.
X123.3Y-98.375
X123.4Y-95.25
X127.Y-101.6
X127.Y-104.14
X128.25Y-69.
X130.9Y-95.25
X130.92Y-98.375
X133.25Y-61.38
X133.25Y-69.
X134.Y-93.25
X134.62Y-101.6
X134.62Y-104.14
X136.25Y-79.67
X136.25Y-82.21
X136.25Y-84.75
X140.5Y-75.25
X140.5Y-82.87
X141.5Y-97.42
X141.5Y-99.96
X141.5Y-102.5
X141.62Y-93.25
X142.Y-61.13
X142.Y-68.75
X142.6Y-85.575
X144.705Y-89.
X145.25Y-92.75
X146.88Y-97.
X146.88Y-103.5
X152.325Y-89.
X152.6Y-85.575
X154.5Y-97.
X154.5Y-103.5
X155.25Y-61.25
X155.25Y-68.87
X155.25Y-92.75
X173.75Y-68.5
X173.75Y-76.12
X176.38Y-69.
X177.5Y-79.5
X177.5Y-87.12
X182.Y-80.
X182.Y-85.
X184.Y-69.
X186.75Y-61.63
X186.75Y-69.25
X190.5Y-91.5
X190.5Y-104.2
X221.Y-69.
X221.Y-79.
T3
X186.5Y-81.
X186.5Y-83.54
T4
X54.25Y-82.75
X54.25Y-87.75
X54.25Y-93.75
X54.25Y-98.75
X126.5Y-81.795
X126.5Y-84.335
X126.5Y-86.875
X137.Y-47.5
X139.54Y-47.5
X142.08Y-47.5
X147.92Y-73.
X150.46Y-73.
X151.Y-47.5
X153.Y-73.
X153.54Y-47.5
X156.08Y-47.5
X161.Y-80.
X163.54Y-80.
X166.08Y-80.
T5
X47.Y-70.
X54.62Y-70.
X79.88Y-93.
X87.5Y-93.
X198.5Y-68.5
X198.5Y-76.12
T6
X28.25Y-65.5
X35.75Y-75.
X35.75Y-82.5
X39.5Y-90.5
X39.5Y-98.
X40.95Y-65.5
X77.3Y-87.25
X81.Y-71.
X81.Y-78.5
X90.Y-87.25
X117.26Y-73.5
X132.5Y-73.5
X177.76Y-73.
X178.5Y-91.
X178.5Y-103.7
X193.Y-73.
X197.25Y-89.5
X204.75Y-89.5
X209.5Y-71.
X209.5Y-78.5
X212.5Y-89.5
X220.Y-89.5
X248.05Y-65.
X260.75Y-65.
T7
X29.Y-59.
X49.32Y-59.
X55.Y-59.
X75.32Y-59.
X82.Y-59.
X102.32Y-59.
X109.Y-59.
X129.32Y-59.
X163.68Y-59.
X184.Y-59.
X189.68Y-59.
X210.Y-59.
X215.68Y-59.
X236.Y-59.
X243.68Y-59.
X264.Y-59.
T8
X40.Y-50.
X45.45Y-50.
X50.9Y-50.
X65.Y-50.
X70.45Y-50.
X75.9Y-50.
X90.Y-50.
X95.45Y-50.
X100.9Y-50.
X115.Y-50.
X120.45Y-50.
X125.9Y-50.
X166.Y-90.75
X167.Y-50.
X172.45Y-50.
X177.9Y-50.
X192.Y-50.
X197.45Y-50.
X202.9Y-50.
X217.Y-50.
X222.45Y-50.
X227.9Y-50.
X242.Y-50.
X247.45Y-50.
X252.9Y-50.
T9
X64.Y-71.
X69.08Y-71.
X163.5Y-101.75
X168.58Y-101.75
X231.Y-74.75
X236.08Y-74.75
X247.75Y-74.5
X252.83Y-74.5
T10
X163.46Y-88.21
X163.46Y-93.29
X168.54Y-88.21
X168.54Y-93.29
T11
X29.Y-46.
X29.Y-103.
X263.Y-46.
X263.Y-103.
T0
M30
