G04 #@! TF.FileFunction,Copper,L1,Top,Signal*
%FSLAX46Y46*%
G04 Gerber Fmt 4.6, Leading zero omitted, Abs format (unit mm)*
G04 Created by KiCad (PCBNEW 4.0.7) date 10/13/20 13:25:23*
%MOMM*%
%LPD*%
G01*
G04 APERTURE LIST*
%ADD10C,0.100000*%
%ADD11C,1.600000*%
%ADD12O,1.600000X1.600000*%
%ADD13R,2.200000X2.200000*%
%ADD14O,2.200000X2.200000*%
%ADD15R,2.400000X2.400000*%
%ADD16C,2.400000*%
%ADD17C,2.200000*%
%ADD18C,2.000000*%
%ADD19R,1.600000X1.600000*%
%ADD20C,1.520000*%
%ADD21R,1.520000X1.520000*%
%ADD22R,2.000000X2.000000*%
%ADD23R,1.800000X1.800000*%
%ADD24C,1.800000*%
%ADD25C,1.440000*%
%ADD26O,2.400000X2.400000*%
%ADD27R,4.300000X5.000000*%
%ADD28R,3.000000X5.000000*%
%ADD29R,4.300000X4.500000*%
%ADD30O,2.500000X4.500000*%
%ADD31O,4.300000X4.500000*%
%ADD32C,2.800000*%
%ADD33O,2.800000X2.800000*%
%ADD34R,3.000000X3.000000*%
%ADD35C,3.000000*%
%ADD36C,5.500000*%
%ADD37C,4.064000*%
%ADD38O,1.800000X1.800000*%
%ADD39R,1.700000X1.700000*%
%ADD40O,1.700000X1.700000*%
%ADD41C,1.500000*%
%ADD42C,2.000000*%
%ADD43C,1.000000*%
%ADD44C,0.500000*%
%ADD45C,4.000000*%
G04 APERTURE END LIST*
D10*
D11*
X106910000Y-81500000D03*
D12*
X106910000Y-68800000D03*
D13*
X198500000Y-68500000D03*
D14*
X198500000Y-76120000D03*
D15*
X54625000Y-80250000D03*
D16*
X54625000Y-72750000D03*
D17*
X178460000Y-102790000D03*
X178460000Y-97710000D03*
X183540000Y-97710000D03*
X183540000Y-102790000D03*
D18*
X181000000Y-100250000D03*
D19*
X188500000Y-80000000D03*
D11*
X188500000Y-77500000D03*
D20*
X118050000Y-100960000D03*
X118050000Y-98420000D03*
D21*
X118050000Y-103500000D03*
D20*
X89840000Y-83690000D03*
X89840000Y-86230000D03*
D21*
X89840000Y-81150000D03*
D11*
X184000000Y-69000000D03*
D12*
X176380000Y-69000000D03*
D11*
X133460000Y-97310000D03*
D12*
X125960000Y-97310000D03*
D11*
X92730000Y-90190000D03*
D12*
X100230000Y-90190000D03*
D11*
X76925000Y-104675000D03*
X76925000Y-99675000D03*
X181500000Y-76500000D03*
X181500000Y-81500000D03*
X80350000Y-104725000D03*
X80350000Y-99725000D03*
D22*
X77000000Y-79125000D03*
D18*
X77000000Y-84125000D03*
D22*
X77050000Y-95100000D03*
D18*
X77050000Y-90100000D03*
D11*
X112600000Y-93750000D03*
X117600000Y-93750000D03*
X152250000Y-90750000D03*
D12*
X142250000Y-90750000D03*
D11*
X230300000Y-92400000D03*
D12*
X230300000Y-82400000D03*
D11*
X90700000Y-68450000D03*
D12*
X90700000Y-78450000D03*
D15*
X257400000Y-78800000D03*
D16*
X257400000Y-71300000D03*
D11*
X232200000Y-68600000D03*
D12*
X232200000Y-78600000D03*
D13*
X69950000Y-96475000D03*
D14*
X69950000Y-104095000D03*
D23*
X195000000Y-78750000D03*
D24*
X195000000Y-81290000D03*
D19*
X142000000Y-68750000D03*
D12*
X142000000Y-61130000D03*
D19*
X155250000Y-61250000D03*
D12*
X155250000Y-68870000D03*
D13*
X68975000Y-77200000D03*
D14*
X68975000Y-69580000D03*
D11*
X144750000Y-96750000D03*
D12*
X152370000Y-96750000D03*
D11*
X161000000Y-94000000D03*
D12*
X168620000Y-94000000D03*
D11*
X99800000Y-75950000D03*
D12*
X99800000Y-68330000D03*
D11*
X96000000Y-76000000D03*
D12*
X96000000Y-68380000D03*
D11*
X100360000Y-93520000D03*
D12*
X92740000Y-93520000D03*
D11*
X133750000Y-100750000D03*
D12*
X126130000Y-100750000D03*
D11*
X133750000Y-104250000D03*
D12*
X126130000Y-104250000D03*
D11*
X152250000Y-100250000D03*
D12*
X144630000Y-100250000D03*
D11*
X152250000Y-103750000D03*
D12*
X144630000Y-103750000D03*
D25*
X139000000Y-103000000D03*
X139000000Y-100460000D03*
X139000000Y-97920000D03*
D16*
X188500000Y-91250000D03*
D26*
X188500000Y-103950000D03*
D11*
X177750000Y-76500000D03*
D12*
X177750000Y-84120000D03*
D16*
X64925000Y-90700000D03*
D26*
X64925000Y-78000000D03*
D11*
X87000000Y-97000000D03*
D12*
X87000000Y-104620000D03*
D11*
X83650000Y-96975000D03*
D12*
X83650000Y-104595000D03*
D11*
X192750000Y-83750000D03*
D12*
X192750000Y-96450000D03*
D11*
X103500000Y-75950000D03*
D12*
X103500000Y-68330000D03*
D11*
X146250000Y-81250000D03*
D12*
X153870000Y-81250000D03*
D25*
X141250000Y-85000000D03*
X141250000Y-82460000D03*
X141250000Y-79920000D03*
D11*
X153750000Y-84750000D03*
D12*
X146130000Y-84750000D03*
D11*
X166000000Y-69250000D03*
D12*
X158380000Y-69250000D03*
D11*
X128250000Y-69000000D03*
D12*
X120630000Y-69000000D03*
D16*
X193000000Y-73000000D03*
D26*
X177760000Y-73000000D03*
D11*
X133250000Y-69000000D03*
D12*
X133250000Y-61380000D03*
D11*
X186750000Y-69250000D03*
D12*
X186750000Y-61630000D03*
D16*
X28250000Y-65500000D03*
D26*
X40950000Y-65500000D03*
D16*
X260750000Y-65000000D03*
D26*
X248050000Y-65000000D03*
D11*
X226800000Y-82400000D03*
D12*
X226800000Y-69700000D03*
D27*
X50968000Y-45428000D03*
D28*
X45588000Y-45428000D03*
D29*
X40000000Y-50000000D03*
D30*
X45450000Y-50000000D03*
D31*
X50900000Y-50000000D03*
D27*
X40000000Y-45428000D03*
X252968000Y-45428000D03*
D28*
X247588000Y-45428000D03*
D29*
X242000000Y-50000000D03*
D30*
X247450000Y-50000000D03*
D31*
X252900000Y-50000000D03*
D27*
X242000000Y-45428000D03*
X75968000Y-45428000D03*
D28*
X70588000Y-45428000D03*
D29*
X65000000Y-50000000D03*
D30*
X70450000Y-50000000D03*
D31*
X75900000Y-50000000D03*
D27*
X65000000Y-45428000D03*
X227968000Y-45428000D03*
D28*
X222588000Y-45428000D03*
D29*
X217000000Y-50000000D03*
D30*
X222450000Y-50000000D03*
D31*
X227900000Y-50000000D03*
D27*
X217000000Y-45428000D03*
X100968000Y-45428000D03*
D28*
X95588000Y-45428000D03*
D29*
X90000000Y-50000000D03*
D30*
X95450000Y-50000000D03*
D31*
X100900000Y-50000000D03*
D27*
X90000000Y-45428000D03*
X202968000Y-45428000D03*
D28*
X197588000Y-45428000D03*
D29*
X192000000Y-50000000D03*
D30*
X197450000Y-50000000D03*
D31*
X202900000Y-50000000D03*
D27*
X192000000Y-45428000D03*
X125968000Y-45428000D03*
D28*
X120588000Y-45428000D03*
D29*
X115000000Y-50000000D03*
D30*
X120450000Y-50000000D03*
D31*
X125900000Y-50000000D03*
D27*
X115000000Y-45428000D03*
X177968000Y-45428000D03*
D28*
X172588000Y-45428000D03*
D29*
X167000000Y-50000000D03*
D30*
X172450000Y-50000000D03*
D31*
X177900000Y-50000000D03*
D27*
X167000000Y-45428000D03*
D32*
X29000000Y-59000000D03*
D33*
X49320000Y-59000000D03*
D32*
X264000000Y-59000000D03*
D33*
X243680000Y-59000000D03*
D32*
X55000000Y-59000000D03*
D33*
X75320000Y-59000000D03*
D32*
X236000000Y-59000000D03*
D33*
X215680000Y-59000000D03*
D32*
X82000000Y-59000000D03*
D33*
X102320000Y-59000000D03*
D32*
X210000000Y-59000000D03*
D33*
X189680000Y-59000000D03*
D32*
X109000000Y-59000000D03*
D33*
X129320000Y-59000000D03*
D32*
X184000000Y-59000000D03*
D33*
X163680000Y-59000000D03*
D34*
X220900000Y-100900000D03*
D35*
X215820000Y-100900000D03*
D34*
X242000000Y-88000000D03*
D35*
X236920000Y-88000000D03*
D34*
X42000000Y-88000000D03*
D35*
X36920000Y-88000000D03*
D36*
X262000000Y-102000000D03*
D37*
X262000000Y-47000000D03*
D36*
X30000000Y-102000000D03*
D37*
X30000000Y-47000000D03*
D34*
X164125000Y-101850000D03*
D35*
X159045000Y-101850000D03*
D15*
X39850000Y-80250000D03*
D16*
X39850000Y-72750000D03*
D15*
X54825000Y-95000000D03*
D16*
X54825000Y-87500000D03*
D15*
X242000000Y-78800000D03*
D16*
X242000000Y-71300000D03*
D15*
X253000000Y-94200000D03*
D16*
X253000000Y-86700000D03*
X130700000Y-72900000D03*
D26*
X115460000Y-72900000D03*
D17*
X158000000Y-90000000D03*
X173000000Y-90000000D03*
D23*
X127350000Y-81975000D03*
D38*
X124810000Y-81975000D03*
X122270000Y-81975000D03*
D23*
X147000000Y-73500000D03*
D38*
X149540000Y-73500000D03*
X152080000Y-73500000D03*
D23*
X168050000Y-78675000D03*
D38*
X165510000Y-78675000D03*
X162970000Y-78675000D03*
D23*
X137000000Y-47500000D03*
D38*
X139540000Y-47500000D03*
X142080000Y-47500000D03*
D23*
X151000000Y-47500000D03*
D38*
X153540000Y-47500000D03*
X156080000Y-47500000D03*
D32*
X209600000Y-82000000D03*
X209600000Y-70570000D03*
D16*
X221000000Y-69400000D03*
D26*
X221000000Y-84640000D03*
D20*
X109800000Y-102010000D03*
X109800000Y-99470000D03*
D21*
X109800000Y-104550000D03*
D20*
X99500000Y-82140000D03*
X99500000Y-84680000D03*
D21*
X99500000Y-79600000D03*
D20*
X100175000Y-99110000D03*
X100175000Y-96570000D03*
D21*
X100175000Y-101650000D03*
D20*
X92100000Y-99410000D03*
X92100000Y-96870000D03*
D21*
X92100000Y-101950000D03*
D20*
X183790000Y-86500000D03*
X186330000Y-86500000D03*
D21*
X181250000Y-86500000D03*
D20*
X106400000Y-92730000D03*
X106400000Y-95270000D03*
D21*
X106400000Y-90190000D03*
D20*
X137400000Y-71940000D03*
X137400000Y-74480000D03*
D21*
X137400000Y-69400000D03*
D20*
X171210000Y-69250000D03*
X168670000Y-69250000D03*
D21*
X173750000Y-69250000D03*
D13*
X44150000Y-102925000D03*
D14*
X51770000Y-102925000D03*
D13*
X248000000Y-100000000D03*
D14*
X255620000Y-100000000D03*
D13*
X55375000Y-102925000D03*
D14*
X62995000Y-102925000D03*
D13*
X248000000Y-103000000D03*
D14*
X255620000Y-103000000D03*
D11*
X66025000Y-104275000D03*
D12*
X66025000Y-94275000D03*
D11*
X193850000Y-101530000D03*
D12*
X206550000Y-101530000D03*
D11*
X121575000Y-92825000D03*
D12*
X131575000Y-92825000D03*
D11*
X134910000Y-92960000D03*
X139910000Y-92960000D03*
X111525000Y-90575000D03*
D12*
X119145000Y-90575000D03*
D39*
X263460000Y-93540000D03*
D40*
X263460000Y-96080000D03*
D39*
X28770000Y-94110000D03*
D40*
X28770000Y-96650000D03*
D41*
X146600000Y-69900000D03*
D42*
X247450000Y-50000000D02*
X247450000Y-45566000D01*
X247450000Y-45566000D02*
X247588000Y-45428000D01*
X222450000Y-50000000D02*
X222450000Y-45566000D01*
X222450000Y-45566000D02*
X222588000Y-45428000D01*
X197450000Y-50000000D02*
X197450000Y-45566000D01*
X197450000Y-45566000D02*
X197588000Y-45428000D01*
X172450000Y-50000000D02*
X172450000Y-45566000D01*
X172450000Y-45566000D02*
X172588000Y-45428000D01*
D43*
X137000000Y-47500000D02*
X137000000Y-56130000D01*
X137000000Y-56130000D02*
X142000000Y-61130000D01*
D44*
X142000000Y-61130000D02*
X141630000Y-61130000D01*
D43*
X151000000Y-47500000D02*
X151000000Y-57000000D01*
X151000000Y-57000000D02*
X155250000Y-61250000D01*
D42*
X120588000Y-45428000D02*
X120588000Y-49862000D01*
X120588000Y-49862000D02*
X120450000Y-50000000D01*
X95450000Y-50000000D02*
X95450000Y-45566000D01*
X95450000Y-45566000D02*
X95588000Y-45428000D01*
X70450000Y-50000000D02*
X70450000Y-45566000D01*
X70450000Y-45566000D02*
X70588000Y-45428000D01*
X45450000Y-50000000D02*
X45450000Y-45566000D01*
X45450000Y-45566000D02*
X45588000Y-45428000D01*
X50900000Y-50000000D02*
X50900000Y-57420000D01*
X50900000Y-57420000D02*
X49320000Y-59000000D01*
X50900000Y-50000000D02*
X50900000Y-45496000D01*
X50900000Y-45496000D02*
X50968000Y-45428000D01*
X252900000Y-50000000D02*
X254000000Y-50000000D01*
X254000000Y-50000000D02*
X264000000Y-59000000D01*
X252900000Y-50000000D02*
X252900000Y-45496000D01*
X252900000Y-45496000D02*
X252968000Y-45428000D01*
X75900000Y-50000000D02*
X75900000Y-58420000D01*
X75900000Y-58420000D02*
X75320000Y-59000000D01*
X75900000Y-50000000D02*
X75900000Y-45496000D01*
X75900000Y-45496000D02*
X75968000Y-45428000D01*
X227900000Y-50000000D02*
X227900000Y-45496000D01*
X227900000Y-45496000D02*
X227968000Y-45428000D01*
X227900000Y-50000000D02*
X227900000Y-50900000D01*
X227900000Y-50900000D02*
X236000000Y-59000000D01*
X100900000Y-50000000D02*
X100900000Y-57580000D01*
X100900000Y-57580000D02*
X102320000Y-59000000D01*
X100900000Y-50000000D02*
X100900000Y-45496000D01*
X100900000Y-45496000D02*
X100968000Y-45428000D01*
X202900000Y-50000000D02*
X202900000Y-51900000D01*
X202900000Y-51900000D02*
X210000000Y-59000000D01*
X202900000Y-50000000D02*
X202900000Y-45496000D01*
X202900000Y-45496000D02*
X202968000Y-45428000D01*
D43*
X129320000Y-59000000D02*
X130870000Y-59000000D01*
X130870000Y-59000000D02*
X133250000Y-61380000D01*
D42*
X125900000Y-50000000D02*
X125900000Y-55580000D01*
X125900000Y-55580000D02*
X129320000Y-59000000D01*
X125900000Y-50000000D02*
X125900000Y-45496000D01*
X125900000Y-45496000D02*
X125968000Y-45428000D01*
D43*
X186750000Y-61630000D02*
X186630000Y-61630000D01*
X186630000Y-61630000D02*
X184000000Y-59000000D01*
D44*
X184000000Y-59000000D02*
X184120000Y-59000000D01*
D42*
X177900000Y-50000000D02*
X177900000Y-52900000D01*
X177900000Y-52900000D02*
X184000000Y-59000000D01*
X177900000Y-50000000D02*
X177900000Y-45496000D01*
X177900000Y-45496000D02*
X177968000Y-45428000D01*
X65000000Y-50000000D02*
X65000000Y-45428000D01*
X115000000Y-50000000D02*
X115000000Y-45428000D01*
X90000000Y-50000000D02*
X90000000Y-45428000D01*
X40000000Y-50000000D02*
X40000000Y-45428000D01*
X217000000Y-50000000D02*
X217000000Y-45428000D01*
X242000000Y-50000000D02*
X242000000Y-45428000D01*
X242000000Y-50000000D02*
X242000000Y-51250000D01*
X242000000Y-51250000D02*
X247500000Y-55500000D01*
X252750000Y-58500000D02*
X260750000Y-65000000D01*
X247500000Y-55500000D02*
X252750000Y-58500000D01*
X192000000Y-50000000D02*
X192000000Y-45428000D01*
X167000000Y-50000000D02*
X167000000Y-45428000D01*
X68975000Y-69580000D02*
X68975000Y-65555000D01*
X68975000Y-65555000D02*
X68420000Y-65000000D01*
D43*
X144470000Y-65000000D02*
X146600000Y-67130000D01*
X146600000Y-69900000D02*
X146600000Y-67130000D01*
D42*
X31540000Y-68790000D02*
X28250000Y-65500000D01*
X54930000Y-68790000D02*
X31540000Y-68790000D01*
X58720000Y-65000000D02*
X54930000Y-68790000D01*
X61000000Y-65000000D02*
X58720000Y-65000000D01*
D45*
X215680000Y-59000000D02*
X215680000Y-61260000D01*
X215680000Y-61260000D02*
X219420000Y-65000000D01*
D42*
X226800000Y-69700000D02*
X226800000Y-68250000D01*
X226500000Y-67950000D02*
X226500000Y-65000000D01*
X226800000Y-68250000D02*
X226500000Y-67950000D01*
X221000000Y-69400000D02*
X221000000Y-66970000D01*
X221000000Y-66970000D02*
X222970000Y-65000000D01*
D43*
X120630000Y-69000000D02*
X120630000Y-67880000D01*
X120630000Y-67880000D02*
X117750000Y-65000000D01*
X137400000Y-69400000D02*
X137400000Y-67650000D01*
X137400000Y-67650000D02*
X140050000Y-65000000D01*
X173750000Y-69250000D02*
X173750000Y-67830000D01*
X170920000Y-65000000D02*
X170330000Y-65000000D01*
X173750000Y-67830000D02*
X170920000Y-65000000D01*
D42*
X184000000Y-69000000D02*
X184000000Y-67600000D01*
X184000000Y-67600000D02*
X186600000Y-65000000D01*
X198500000Y-68500000D02*
X198500000Y-67430000D01*
X198500000Y-67430000D02*
X196070000Y-65000000D01*
X196070000Y-65000000D02*
X196070000Y-65480000D01*
D45*
X209600000Y-70570000D02*
X209600000Y-67720000D01*
X209600000Y-67720000D02*
X206880000Y-65000000D01*
X243680000Y-59000000D02*
X243680000Y-60630000D01*
X243680000Y-60630000D02*
X248050000Y-65000000D01*
X189680000Y-59000000D02*
X189680000Y-59090000D01*
X189680000Y-59090000D02*
X196070000Y-65480000D01*
X196070000Y-65480000D02*
X195590000Y-65000000D01*
X163680000Y-59000000D02*
X164330000Y-59000000D01*
X164330000Y-59000000D02*
X170330000Y-65000000D01*
X109000000Y-59000000D02*
X109000000Y-60550000D01*
X109000000Y-60550000D02*
X113450000Y-65000000D01*
X82000000Y-59000000D02*
X82000000Y-59150000D01*
X82000000Y-59150000D02*
X87850000Y-65000000D01*
X248050000Y-65000000D02*
X226500000Y-65000000D01*
X226500000Y-65000000D02*
X222970000Y-65000000D01*
X222970000Y-65000000D02*
X219420000Y-65000000D01*
X219420000Y-65000000D02*
X206880000Y-65000000D01*
X206880000Y-65000000D02*
X195590000Y-65000000D01*
X195590000Y-65000000D02*
X186600000Y-65000000D01*
X186600000Y-65000000D02*
X170330000Y-65000000D01*
X170330000Y-65000000D02*
X144470000Y-65000000D01*
X144470000Y-65000000D02*
X140050000Y-65000000D01*
X140050000Y-65000000D02*
X117750000Y-65000000D01*
X117750000Y-65000000D02*
X113450000Y-65000000D01*
X113450000Y-65000000D02*
X87850000Y-65000000D01*
X87850000Y-65000000D02*
X68420000Y-65000000D01*
X68420000Y-65000000D02*
X63510000Y-65000000D01*
X63510000Y-65000000D02*
X61000000Y-65000000D01*
X61000000Y-65000000D02*
X55000000Y-59000000D01*
D42*
X29000000Y-59000000D02*
X29000000Y-64750000D01*
X29000000Y-64750000D02*
X28250000Y-65500000D01*
D44*
G36*
X29949010Y-70380991D02*
X30351077Y-70649643D01*
X30678962Y-70868729D01*
X31540000Y-71040000D01*
X39114085Y-71040000D01*
X39069121Y-71120593D01*
X39850000Y-71901472D01*
X40630879Y-71120593D01*
X40585915Y-71040000D01*
X53889085Y-71040000D01*
X53844121Y-71120593D01*
X54625000Y-71901472D01*
X55405879Y-71120593D01*
X55317871Y-70962848D01*
X55791038Y-70868729D01*
X56520990Y-70380990D01*
X58651981Y-68250000D01*
X66725000Y-68250000D01*
X66725000Y-69031227D01*
X66625000Y-69533961D01*
X66625000Y-69626039D01*
X66803883Y-70525345D01*
X67313299Y-71287740D01*
X68075694Y-71797156D01*
X68975000Y-71976039D01*
X69874306Y-71797156D01*
X70636701Y-71287740D01*
X71146117Y-70525345D01*
X71325000Y-69626039D01*
X71325000Y-69533961D01*
X71225000Y-69031227D01*
X71225000Y-68250000D01*
X88650174Y-68250000D01*
X88649645Y-68855981D01*
X88961081Y-69609715D01*
X89537252Y-70186892D01*
X90290441Y-70499643D01*
X91105981Y-70500355D01*
X91859715Y-70188919D01*
X92436892Y-69612748D01*
X92749643Y-68859559D01*
X92750175Y-68250000D01*
X93967870Y-68250000D01*
X93950000Y-68339838D01*
X93950000Y-68420162D01*
X94106047Y-69204663D01*
X94550431Y-69869731D01*
X95215499Y-70314115D01*
X96000000Y-70470162D01*
X96784501Y-70314115D01*
X97449569Y-69869731D01*
X97893953Y-69204663D01*
X97904973Y-69149263D01*
X97906047Y-69154663D01*
X98350431Y-69819731D01*
X99015499Y-70264115D01*
X99800000Y-70420162D01*
X100584501Y-70264115D01*
X101249569Y-69819731D01*
X101650000Y-69220443D01*
X102050431Y-69819731D01*
X102715499Y-70264115D01*
X103500000Y-70420162D01*
X104284501Y-70264115D01*
X104949569Y-69819731D01*
X105047978Y-69672451D01*
X105460431Y-70289731D01*
X106125499Y-70734115D01*
X106910000Y-70890162D01*
X107694501Y-70734115D01*
X108359569Y-70289731D01*
X108803953Y-69624663D01*
X108960000Y-68840162D01*
X108960000Y-68759838D01*
X108858587Y-68250000D01*
X118525126Y-68250000D01*
X118661830Y-68386704D01*
X118539838Y-69000000D01*
X118695885Y-69784501D01*
X119140269Y-70449569D01*
X119805337Y-70893953D01*
X120589838Y-71050000D01*
X120670162Y-71050000D01*
X121454663Y-70893953D01*
X122119731Y-70449569D01*
X122564115Y-69784501D01*
X122720162Y-69000000D01*
X122570978Y-68250000D01*
X126341720Y-68250000D01*
X126200357Y-68590441D01*
X126199645Y-69405981D01*
X126511081Y-70159715D01*
X127087252Y-70736892D01*
X127840441Y-71049643D01*
X128655981Y-71050355D01*
X129409715Y-70738919D01*
X129986892Y-70162748D01*
X130299643Y-69409559D01*
X130300355Y-68594019D01*
X130158209Y-68250000D01*
X131341720Y-68250000D01*
X131200357Y-68590441D01*
X131199645Y-69405981D01*
X131511081Y-70159715D01*
X132087252Y-70736892D01*
X132840441Y-71049643D01*
X133655981Y-71050355D01*
X134409715Y-70738919D01*
X134986892Y-70162748D01*
X135299643Y-69409559D01*
X135300355Y-68594019D01*
X135158209Y-68250000D01*
X135444489Y-68250000D01*
X135365512Y-68640000D01*
X135365512Y-70160000D01*
X135452673Y-70623222D01*
X135645773Y-70923307D01*
X135390350Y-71538432D01*
X135389652Y-72338060D01*
X135695012Y-73077086D01*
X135827431Y-73209736D01*
X135696999Y-73339940D01*
X135390350Y-74078432D01*
X135389652Y-74878060D01*
X135695012Y-75617086D01*
X136259940Y-76183001D01*
X136998432Y-76489650D01*
X137798060Y-76490348D01*
X138537086Y-76184988D01*
X139103001Y-75620060D01*
X139409650Y-74881568D01*
X139410348Y-74081940D01*
X139104988Y-73342914D01*
X138972569Y-73210264D01*
X139103001Y-73080060D01*
X139409650Y-72341568D01*
X139410348Y-71541940D01*
X139153450Y-70920202D01*
X139334076Y-70655847D01*
X139434488Y-70160000D01*
X139434488Y-68640000D01*
X139361105Y-68250000D01*
X139925512Y-68250000D01*
X139925512Y-69550000D01*
X140012673Y-70013222D01*
X140286437Y-70438663D01*
X140704153Y-70724076D01*
X141200000Y-70824488D01*
X142800000Y-70824488D01*
X143263222Y-70737327D01*
X143688663Y-70463563D01*
X143974076Y-70045847D01*
X144074488Y-69550000D01*
X144074488Y-68250000D01*
X144850000Y-68250000D01*
X144850000Y-68899201D01*
X144600348Y-69500430D01*
X144599654Y-70296079D01*
X144903494Y-71031429D01*
X145422023Y-71550864D01*
X145211337Y-71686437D01*
X144925924Y-72104153D01*
X144825512Y-72600000D01*
X144825512Y-74400000D01*
X144912673Y-74863222D01*
X145186437Y-75288663D01*
X145604153Y-75574076D01*
X146100000Y-75674488D01*
X147900000Y-75674488D01*
X148363222Y-75587327D01*
X148599093Y-75435548D01*
X148675110Y-75486341D01*
X149497879Y-75650000D01*
X149582121Y-75650000D01*
X150404890Y-75486341D01*
X150810000Y-75215656D01*
X151215110Y-75486341D01*
X152037879Y-75650000D01*
X152122121Y-75650000D01*
X152944890Y-75486341D01*
X153642401Y-75020280D01*
X154108462Y-74322769D01*
X154272121Y-73500000D01*
X154108462Y-72677231D01*
X153642401Y-71979720D01*
X152944890Y-71513659D01*
X152122121Y-71350000D01*
X152037879Y-71350000D01*
X151215110Y-71513659D01*
X150810000Y-71784344D01*
X150404890Y-71513659D01*
X149582121Y-71350000D01*
X149497879Y-71350000D01*
X148675110Y-71513659D01*
X148598838Y-71564622D01*
X148395847Y-71425924D01*
X147985543Y-71342835D01*
X148294529Y-71034388D01*
X148599652Y-70299570D01*
X148600346Y-69503921D01*
X148350000Y-68898037D01*
X148350000Y-68250000D01*
X153315337Y-68250000D01*
X153200000Y-68829838D01*
X153200000Y-68910162D01*
X153356047Y-69694663D01*
X153800431Y-70359731D01*
X154465499Y-70804115D01*
X155250000Y-70960162D01*
X156034501Y-70804115D01*
X156674423Y-70376533D01*
X156890269Y-70699569D01*
X157555337Y-71143953D01*
X158339838Y-71300000D01*
X158420162Y-71300000D01*
X159204663Y-71143953D01*
X159869731Y-70699569D01*
X160314115Y-70034501D01*
X160470162Y-69250000D01*
X160314115Y-68465499D01*
X160170123Y-68250000D01*
X164195529Y-68250000D01*
X163950357Y-68840441D01*
X163949645Y-69655981D01*
X164261081Y-70409715D01*
X164837252Y-70986892D01*
X165590441Y-71299643D01*
X166405981Y-71300355D01*
X167159715Y-70988919D01*
X167363109Y-70785879D01*
X167529940Y-70953001D01*
X168268432Y-71259650D01*
X169068060Y-71260348D01*
X169807086Y-70954988D01*
X169939736Y-70822569D01*
X170069940Y-70953001D01*
X170808432Y-71259650D01*
X171608060Y-71260348D01*
X172229798Y-71003450D01*
X172494153Y-71184076D01*
X172990000Y-71284488D01*
X174510000Y-71284488D01*
X174973222Y-71197327D01*
X175398663Y-70923563D01*
X175461662Y-70831361D01*
X175555337Y-70893953D01*
X176313172Y-71044696D01*
X175979590Y-71267588D01*
X175448497Y-72062426D01*
X175262002Y-73000000D01*
X175448497Y-73937574D01*
X175979590Y-74732412D01*
X176362623Y-74988346D01*
X176013108Y-75337252D01*
X175700357Y-76090441D01*
X175699645Y-76905981D01*
X176011081Y-77659715D01*
X176587252Y-78236892D01*
X177340441Y-78549643D01*
X178155981Y-78550355D01*
X178909715Y-78238919D01*
X179486892Y-77662748D01*
X179624953Y-77330260D01*
X179761081Y-77659715D01*
X180337252Y-78236892D01*
X181090441Y-78549643D01*
X181905981Y-78550355D01*
X182659715Y-78238919D01*
X183236892Y-77662748D01*
X183549643Y-76909559D01*
X183550355Y-76094019D01*
X183238919Y-75340285D01*
X182662748Y-74763108D01*
X181909559Y-74450357D01*
X181094019Y-74449645D01*
X180340285Y-74761081D01*
X179763108Y-75337252D01*
X179625047Y-75669740D01*
X179488919Y-75340285D01*
X179145509Y-74996276D01*
X179540410Y-74732412D01*
X180071503Y-73937574D01*
X180161486Y-73485197D01*
X190549576Y-73485197D01*
X190921780Y-74386000D01*
X191610375Y-75075798D01*
X192510527Y-75449573D01*
X193485197Y-75450424D01*
X194386000Y-75078220D01*
X195075798Y-74389625D01*
X195449573Y-73489473D01*
X195450424Y-72514803D01*
X195078220Y-71614000D01*
X194389625Y-70924202D01*
X193489473Y-70550427D01*
X192514803Y-70549576D01*
X191614000Y-70921780D01*
X190924202Y-71610375D01*
X190550427Y-72510527D01*
X190549576Y-73485197D01*
X180161486Y-73485197D01*
X180257998Y-73000000D01*
X180071503Y-72062426D01*
X179540410Y-71267588D01*
X178745572Y-70736495D01*
X177807998Y-70550000D01*
X177719425Y-70550000D01*
X177869731Y-70449569D01*
X178314115Y-69784501D01*
X178470162Y-69000000D01*
X178320978Y-68250000D01*
X181750000Y-68250000D01*
X181750000Y-69000000D01*
X181921271Y-69861038D01*
X182409010Y-70590990D01*
X183138962Y-71078729D01*
X184000000Y-71250000D01*
X184861038Y-71078729D01*
X185351670Y-70750899D01*
X185587252Y-70986892D01*
X186340441Y-71299643D01*
X187155981Y-71300355D01*
X187909715Y-70988919D01*
X188486892Y-70412748D01*
X188799643Y-69659559D01*
X188800355Y-68844019D01*
X188554912Y-68250000D01*
X194478156Y-68250000D01*
X194826279Y-68482608D01*
X196070000Y-68730000D01*
X196125512Y-68718958D01*
X196125512Y-69600000D01*
X196212673Y-70063222D01*
X196486437Y-70488663D01*
X196904153Y-70774076D01*
X197400000Y-70874488D01*
X199600000Y-70874488D01*
X200063222Y-70787327D01*
X200488663Y-70513563D01*
X200750000Y-70131083D01*
X200750000Y-75571227D01*
X200671117Y-75174655D01*
X200161701Y-74412260D01*
X199399306Y-73902844D01*
X198500000Y-73723961D01*
X197600694Y-73902844D01*
X196838299Y-74412260D01*
X196328883Y-75174655D01*
X196150000Y-76073961D01*
X196150000Y-76166039D01*
X196245361Y-76645450D01*
X195900000Y-76575512D01*
X194100000Y-76575512D01*
X193636778Y-76662673D01*
X193211337Y-76936437D01*
X192925924Y-77354153D01*
X192825512Y-77850000D01*
X192825512Y-79650000D01*
X192912673Y-80113222D01*
X193063395Y-80347450D01*
X192850374Y-80860462D01*
X192849642Y-81700086D01*
X192344019Y-81699645D01*
X191590285Y-82011081D01*
X191013108Y-82587252D01*
X190700357Y-83340441D01*
X190699645Y-84155981D01*
X191011081Y-84909715D01*
X191587252Y-85486892D01*
X192340441Y-85799643D01*
X193155981Y-85800355D01*
X193909715Y-85488919D01*
X194486892Y-84912748D01*
X194799643Y-84159559D01*
X194800271Y-83439826D01*
X195425785Y-83440372D01*
X196216286Y-83113744D01*
X196821619Y-82509467D01*
X197149626Y-81719538D01*
X197150372Y-80864215D01*
X196936652Y-80346973D01*
X197074076Y-80145847D01*
X197174488Y-79650000D01*
X197174488Y-78052374D01*
X197600694Y-78337156D01*
X198500000Y-78516039D01*
X199399306Y-78337156D01*
X200161701Y-77827740D01*
X200671117Y-77065345D01*
X200750000Y-76668773D01*
X200750000Y-85000000D01*
X200769696Y-85097264D01*
X200825682Y-85179202D01*
X200909136Y-85232903D01*
X201000000Y-85250000D01*
X218000000Y-85250000D01*
X218097264Y-85230304D01*
X218179202Y-85174318D01*
X218232903Y-85090864D01*
X218250000Y-85000000D01*
X218250000Y-84592002D01*
X218550000Y-84592002D01*
X218550000Y-84687998D01*
X218736495Y-85625572D01*
X219267588Y-86420410D01*
X220062426Y-86951503D01*
X221000000Y-87137998D01*
X221937574Y-86951503D01*
X222732412Y-86420410D01*
X222964517Y-86073039D01*
X236053699Y-86073039D01*
X236920000Y-86939340D01*
X237359340Y-86500000D01*
X239225512Y-86500000D01*
X239225512Y-89500000D01*
X239312673Y-89963222D01*
X239586437Y-90388663D01*
X240004153Y-90674076D01*
X240500000Y-90774488D01*
X243500000Y-90774488D01*
X243963222Y-90687327D01*
X244388663Y-90413563D01*
X244674076Y-89995847D01*
X244774488Y-89500000D01*
X244774488Y-87185197D01*
X250549576Y-87185197D01*
X250921780Y-88086000D01*
X251610375Y-88775798D01*
X252510527Y-89149573D01*
X253485197Y-89150424D01*
X254386000Y-88778220D01*
X255075798Y-88089625D01*
X255449573Y-87189473D01*
X255450424Y-86214803D01*
X255078220Y-85314000D01*
X254389625Y-84624202D01*
X253489473Y-84250427D01*
X252514803Y-84249576D01*
X251614000Y-84621780D01*
X250924202Y-85310375D01*
X250550427Y-86210527D01*
X250549576Y-87185197D01*
X244774488Y-87185197D01*
X244774488Y-86500000D01*
X244687327Y-86036778D01*
X244413563Y-85611337D01*
X243995847Y-85325924D01*
X243500000Y-85225512D01*
X240500000Y-85225512D01*
X240036778Y-85312673D01*
X239611337Y-85586437D01*
X239325924Y-86004153D01*
X239225512Y-86500000D01*
X237359340Y-86500000D01*
X237786301Y-86073039D01*
X237592639Y-85798216D01*
X236698851Y-85708408D01*
X236247361Y-85798216D01*
X236053699Y-86073039D01*
X222964517Y-86073039D01*
X223263505Y-85625572D01*
X223450000Y-84687998D01*
X223450000Y-84592002D01*
X223263505Y-83654428D01*
X222732412Y-82859590D01*
X222652181Y-82805981D01*
X224749645Y-82805981D01*
X225061081Y-83559715D01*
X225637252Y-84136892D01*
X226390441Y-84449643D01*
X227205981Y-84450355D01*
X227959715Y-84138919D01*
X228536892Y-83562748D01*
X228573324Y-83475010D01*
X228850431Y-83889731D01*
X229515499Y-84334115D01*
X230300000Y-84490162D01*
X231084501Y-84334115D01*
X231749569Y-83889731D01*
X232193953Y-83224663D01*
X232350000Y-82440162D01*
X232350000Y-82359838D01*
X232193953Y-81575337D01*
X231749569Y-80910269D01*
X231084501Y-80465885D01*
X230300000Y-80309838D01*
X229515499Y-80465885D01*
X228850431Y-80910269D01*
X228573691Y-81324440D01*
X228538919Y-81240285D01*
X227962748Y-80663108D01*
X227209559Y-80350357D01*
X226394019Y-80349645D01*
X225640285Y-80661081D01*
X225063108Y-81237252D01*
X224750357Y-81990441D01*
X224749645Y-82805981D01*
X222652181Y-82805981D01*
X221937574Y-82328497D01*
X221000000Y-82142002D01*
X220062426Y-82328497D01*
X219267588Y-82859590D01*
X218736495Y-83654428D01*
X218550000Y-84592002D01*
X218250000Y-84592002D01*
X218250000Y-79230635D01*
X230775306Y-79230635D01*
X231125088Y-79727838D01*
X231569369Y-80024665D01*
X231800000Y-79908737D01*
X231800000Y-79000000D01*
X232600000Y-79000000D01*
X232600000Y-79908737D01*
X232830631Y-80024665D01*
X233274912Y-79727838D01*
X233372232Y-79589500D01*
X240042000Y-79589500D01*
X240042000Y-80150776D01*
X240157399Y-80429373D01*
X240370628Y-80642602D01*
X240649225Y-80758000D01*
X241210500Y-80758000D01*
X241400000Y-80568500D01*
X241400000Y-79400000D01*
X242600000Y-79400000D01*
X242600000Y-80568500D01*
X242789500Y-80758000D01*
X243350775Y-80758000D01*
X243629372Y-80642602D01*
X243842601Y-80429373D01*
X243958000Y-80150776D01*
X243958000Y-79589500D01*
X255442000Y-79589500D01*
X255442000Y-80150776D01*
X255557399Y-80429373D01*
X255770628Y-80642602D01*
X256049225Y-80758000D01*
X256610500Y-80758000D01*
X256800000Y-80568500D01*
X256800000Y-79400000D01*
X258000000Y-79400000D01*
X258000000Y-80568500D01*
X258189500Y-80758000D01*
X258750775Y-80758000D01*
X259029372Y-80642602D01*
X259242601Y-80429373D01*
X259358000Y-80150776D01*
X259358000Y-79589500D01*
X259168500Y-79400000D01*
X258000000Y-79400000D01*
X256800000Y-79400000D01*
X255631500Y-79400000D01*
X255442000Y-79589500D01*
X243958000Y-79589500D01*
X243768500Y-79400000D01*
X242600000Y-79400000D01*
X241400000Y-79400000D01*
X240231500Y-79400000D01*
X240042000Y-79589500D01*
X233372232Y-79589500D01*
X233624694Y-79230635D01*
X233516307Y-79000000D01*
X232600000Y-79000000D01*
X231800000Y-79000000D01*
X230883693Y-79000000D01*
X230775306Y-79230635D01*
X218250000Y-79230635D01*
X218250000Y-77969365D01*
X230775306Y-77969365D01*
X230883693Y-78200000D01*
X231800000Y-78200000D01*
X231800000Y-77291263D01*
X232600000Y-77291263D01*
X232600000Y-78200000D01*
X233516307Y-78200000D01*
X233624694Y-77969365D01*
X233274912Y-77472162D01*
X233240580Y-77449224D01*
X240042000Y-77449224D01*
X240042000Y-78010500D01*
X240231500Y-78200000D01*
X241400000Y-78200000D01*
X241400000Y-77031500D01*
X242600000Y-77031500D01*
X242600000Y-78200000D01*
X243768500Y-78200000D01*
X243958000Y-78010500D01*
X243958000Y-77449224D01*
X255442000Y-77449224D01*
X255442000Y-78010500D01*
X255631500Y-78200000D01*
X256800000Y-78200000D01*
X256800000Y-77031500D01*
X258000000Y-77031500D01*
X258000000Y-78200000D01*
X259168500Y-78200000D01*
X259358000Y-78010500D01*
X259358000Y-77449224D01*
X259242601Y-77170627D01*
X259029372Y-76957398D01*
X258750775Y-76842000D01*
X258189500Y-76842000D01*
X258000000Y-77031500D01*
X256800000Y-77031500D01*
X256610500Y-76842000D01*
X256049225Y-76842000D01*
X255770628Y-76957398D01*
X255557399Y-77170627D01*
X255442000Y-77449224D01*
X243958000Y-77449224D01*
X243842601Y-77170627D01*
X243629372Y-76957398D01*
X243350775Y-76842000D01*
X242789500Y-76842000D01*
X242600000Y-77031500D01*
X241400000Y-77031500D01*
X241210500Y-76842000D01*
X240649225Y-76842000D01*
X240370628Y-76957398D01*
X240157399Y-77170627D01*
X240042000Y-77449224D01*
X233240580Y-77449224D01*
X232830631Y-77175335D01*
X232600000Y-77291263D01*
X231800000Y-77291263D01*
X231569369Y-77175335D01*
X231125088Y-77472162D01*
X230775306Y-77969365D01*
X218250000Y-77969365D01*
X218250000Y-68250000D01*
X218750000Y-68250000D01*
X218750000Y-68429901D01*
X218550427Y-68910527D01*
X218549576Y-69885197D01*
X218921780Y-70786000D01*
X219610375Y-71475798D01*
X220510527Y-71849573D01*
X221485197Y-71850424D01*
X222386000Y-71478220D01*
X223075798Y-70789625D01*
X223449573Y-69889473D01*
X223450424Y-68914803D01*
X223250000Y-68429740D01*
X223250000Y-68250000D01*
X224309674Y-68250000D01*
X224421271Y-68811038D01*
X224550000Y-69003694D01*
X224550000Y-69700000D01*
X224721271Y-70561038D01*
X225209010Y-71290990D01*
X225938962Y-71778729D01*
X226800000Y-71950000D01*
X227628521Y-71785197D01*
X239549576Y-71785197D01*
X239921780Y-72686000D01*
X240610375Y-73375798D01*
X241510527Y-73749573D01*
X242485197Y-73750424D01*
X243386000Y-73378220D01*
X244075798Y-72689625D01*
X244449573Y-71789473D01*
X244449576Y-71785197D01*
X254949576Y-71785197D01*
X255321780Y-72686000D01*
X256010375Y-73375798D01*
X256910527Y-73749573D01*
X257885197Y-73750424D01*
X258786000Y-73378220D01*
X259475798Y-72689625D01*
X259849573Y-71789473D01*
X259850424Y-70814803D01*
X259478220Y-69914000D01*
X258789625Y-69224202D01*
X257889473Y-68850427D01*
X256914803Y-68849576D01*
X256014000Y-69221780D01*
X255324202Y-69910375D01*
X254950427Y-70810527D01*
X254949576Y-71785197D01*
X244449576Y-71785197D01*
X244450424Y-70814803D01*
X244078220Y-69914000D01*
X243389625Y-69224202D01*
X242489473Y-68850427D01*
X241514803Y-68849576D01*
X240614000Y-69221780D01*
X239924202Y-69910375D01*
X239550427Y-70810527D01*
X239549576Y-71785197D01*
X227628521Y-71785197D01*
X227661038Y-71778729D01*
X228390990Y-71290990D01*
X228878729Y-70561038D01*
X229050000Y-69700000D01*
X229050000Y-68250000D01*
X230150305Y-68250000D01*
X230149645Y-69005981D01*
X230461081Y-69759715D01*
X231037252Y-70336892D01*
X231790441Y-70649643D01*
X232605981Y-70650355D01*
X233359715Y-70338919D01*
X233936892Y-69762748D01*
X234249643Y-69009559D01*
X234250306Y-68250000D01*
X264675000Y-68250000D01*
X264675000Y-92020735D01*
X264460776Y-91932000D01*
X264074500Y-91932000D01*
X263885000Y-92121500D01*
X263885000Y-93115000D01*
X264310000Y-93115000D01*
X264310000Y-93965000D01*
X263885000Y-93965000D01*
X263885000Y-94056354D01*
X263501141Y-93980000D01*
X263418859Y-93980000D01*
X263035000Y-94056354D01*
X263035000Y-93965000D01*
X262041500Y-93965000D01*
X261852000Y-94154500D01*
X261852000Y-94540775D01*
X261897240Y-94649994D01*
X261478712Y-95276365D01*
X261318859Y-96080000D01*
X261478712Y-96883635D01*
X261933935Y-97564924D01*
X262585834Y-98000509D01*
X261207841Y-97999307D01*
X259737142Y-98606987D01*
X258610942Y-99731223D01*
X258000695Y-101200860D01*
X257999307Y-102792159D01*
X258606987Y-104262858D01*
X259018410Y-104675000D01*
X257307837Y-104675000D01*
X257327740Y-104661701D01*
X257837156Y-103899306D01*
X258016039Y-103000000D01*
X257837156Y-102100694D01*
X257435785Y-101500000D01*
X257837156Y-100899306D01*
X258016039Y-100000000D01*
X257837156Y-99100694D01*
X257327740Y-98338299D01*
X256565345Y-97828883D01*
X255666039Y-97650000D01*
X255573961Y-97650000D01*
X254674655Y-97828883D01*
X253912260Y-98338299D01*
X253402844Y-99100694D01*
X253223961Y-100000000D01*
X253402844Y-100899306D01*
X253804215Y-101500000D01*
X253402844Y-102100694D01*
X253223961Y-103000000D01*
X253402844Y-103899306D01*
X253912260Y-104661701D01*
X253932163Y-104675000D01*
X249596974Y-104675000D01*
X249742602Y-104529372D01*
X249858000Y-104250775D01*
X249858000Y-103739500D01*
X249668500Y-103550000D01*
X248550000Y-103550000D01*
X248550000Y-104100000D01*
X247450000Y-104100000D01*
X247450000Y-103550000D01*
X246331500Y-103550000D01*
X246142000Y-103739500D01*
X246142000Y-104250775D01*
X246257398Y-104529372D01*
X246403026Y-104675000D01*
X190815336Y-104675000D01*
X190950000Y-103997998D01*
X190950000Y-103902002D01*
X190763505Y-102964428D01*
X190627449Y-102760805D01*
X193184881Y-102760805D01*
X193269983Y-103008846D01*
X193880064Y-103118239D01*
X194430017Y-103008846D01*
X194515119Y-102760805D01*
X193850000Y-102095685D01*
X193184881Y-102760805D01*
X190627449Y-102760805D01*
X190232412Y-102169590D01*
X189437574Y-101638497D01*
X189043265Y-101560064D01*
X192261761Y-101560064D01*
X192371154Y-102110017D01*
X192619195Y-102195119D01*
X193284315Y-101530000D01*
X194415685Y-101530000D01*
X195080805Y-102195119D01*
X195328846Y-102110017D01*
X195432848Y-101530000D01*
X204459838Y-101530000D01*
X204615885Y-102314501D01*
X205060269Y-102979569D01*
X205725337Y-103423953D01*
X206509838Y-103580000D01*
X206590162Y-103580000D01*
X207374663Y-103423953D01*
X208039731Y-102979569D01*
X208141700Y-102826961D01*
X214953699Y-102826961D01*
X215147361Y-103101784D01*
X216041149Y-103191592D01*
X216492639Y-103101784D01*
X216686301Y-102826961D01*
X215820000Y-101960660D01*
X214953699Y-102826961D01*
X208141700Y-102826961D01*
X208484115Y-102314501D01*
X208640162Y-101530000D01*
X208558837Y-101121149D01*
X213528408Y-101121149D01*
X213618216Y-101572639D01*
X213893039Y-101766301D01*
X214759340Y-100900000D01*
X216880660Y-100900000D01*
X217746961Y-101766301D01*
X218021784Y-101572639D01*
X218111592Y-100678851D01*
X218021784Y-100227361D01*
X217746961Y-100033699D01*
X216880660Y-100900000D01*
X214759340Y-100900000D01*
X213893039Y-100033699D01*
X213618216Y-100227361D01*
X213528408Y-101121149D01*
X208558837Y-101121149D01*
X208484115Y-100745499D01*
X208039731Y-100080431D01*
X207374663Y-99636047D01*
X206590162Y-99480000D01*
X206509838Y-99480000D01*
X205725337Y-99636047D01*
X205060269Y-100080431D01*
X204615885Y-100745499D01*
X204459838Y-101530000D01*
X195432848Y-101530000D01*
X195438239Y-101499936D01*
X195328846Y-100949983D01*
X195080805Y-100864881D01*
X194415685Y-101530000D01*
X193284315Y-101530000D01*
X192619195Y-100864881D01*
X192371154Y-100949983D01*
X192261761Y-101560064D01*
X189043265Y-101560064D01*
X188500000Y-101452002D01*
X187562426Y-101638497D01*
X186767588Y-102169590D01*
X186236495Y-102964428D01*
X186050000Y-103902002D01*
X186050000Y-103997998D01*
X186184664Y-104675000D01*
X183682320Y-104675000D01*
X184160579Y-104579869D01*
X184292183Y-104320001D01*
X183540000Y-103567817D01*
X182787817Y-104320001D01*
X182919421Y-104579869D01*
X183607438Y-104675000D01*
X178602320Y-104675000D01*
X179080579Y-104579869D01*
X179212183Y-104320001D01*
X178460000Y-103567817D01*
X177707817Y-104320001D01*
X177839421Y-104579869D01*
X178527438Y-104675000D01*
X154085613Y-104675000D01*
X154299643Y-104159559D01*
X154299977Y-103776961D01*
X158178699Y-103776961D01*
X158372361Y-104051784D01*
X159266149Y-104141592D01*
X159717639Y-104051784D01*
X159911301Y-103776961D01*
X159045000Y-102910660D01*
X158178699Y-103776961D01*
X154299977Y-103776961D01*
X154300355Y-103344019D01*
X153988919Y-102590285D01*
X153470688Y-102071149D01*
X156753408Y-102071149D01*
X156843216Y-102522639D01*
X157118039Y-102716301D01*
X157984340Y-101850000D01*
X160105660Y-101850000D01*
X160971961Y-102716301D01*
X161246784Y-102522639D01*
X161336592Y-101628851D01*
X161246784Y-101177361D01*
X160971961Y-100983699D01*
X160105660Y-101850000D01*
X157984340Y-101850000D01*
X157118039Y-100983699D01*
X156843216Y-101177361D01*
X156753408Y-102071149D01*
X153470688Y-102071149D01*
X153412748Y-102013108D01*
X153382037Y-102000355D01*
X153409715Y-101988919D01*
X153986892Y-101412748D01*
X154299643Y-100659559D01*
X154300286Y-99923039D01*
X158178699Y-99923039D01*
X159045000Y-100789340D01*
X159484340Y-100350000D01*
X161350512Y-100350000D01*
X161350512Y-103350000D01*
X161437673Y-103813222D01*
X161711437Y-104238663D01*
X162129153Y-104524076D01*
X162625000Y-104624488D01*
X165625000Y-104624488D01*
X166088222Y-104537327D01*
X166513663Y-104263563D01*
X166799076Y-103845847D01*
X166899488Y-103350000D01*
X166899488Y-102901613D01*
X176568892Y-102901613D01*
X176670131Y-103410579D01*
X176929999Y-103542183D01*
X177682183Y-102790000D01*
X176929999Y-102037817D01*
X176670131Y-102169421D01*
X176568892Y-102901613D01*
X166899488Y-102901613D01*
X166899488Y-100350000D01*
X166812327Y-99886778D01*
X166538563Y-99461337D01*
X166214627Y-99240001D01*
X177707817Y-99240001D01*
X177839421Y-99499869D01*
X178571613Y-99601108D01*
X178581393Y-99599163D01*
X178759875Y-99777645D01*
X178750392Y-99800484D01*
X178749610Y-100695589D01*
X178760437Y-100721793D01*
X178554798Y-100927432D01*
X178348387Y-100898892D01*
X177839421Y-101000131D01*
X177707817Y-101259999D01*
X178460000Y-102012183D01*
X178848909Y-101623274D01*
X179626726Y-102401091D01*
X179237817Y-102790000D01*
X179990001Y-103542183D01*
X180249869Y-103410579D01*
X180351108Y-102678387D01*
X180349163Y-102668607D01*
X180527645Y-102490125D01*
X180550484Y-102499608D01*
X181445589Y-102500390D01*
X181471793Y-102489563D01*
X181677432Y-102695202D01*
X181648892Y-102901613D01*
X181750131Y-103410579D01*
X182009999Y-103542183D01*
X182762183Y-102790000D01*
X184317817Y-102790000D01*
X185070001Y-103542183D01*
X185329869Y-103410579D01*
X185431108Y-102678387D01*
X185329869Y-102169421D01*
X185070001Y-102037817D01*
X184317817Y-102790000D01*
X182762183Y-102790000D01*
X182373274Y-102401091D01*
X183151091Y-101623274D01*
X183540000Y-102012183D01*
X184292183Y-101259999D01*
X184160579Y-101000131D01*
X183428387Y-100898892D01*
X183418607Y-100900837D01*
X183240125Y-100722355D01*
X183249608Y-100699516D01*
X183249957Y-100299195D01*
X193184881Y-100299195D01*
X193850000Y-100964315D01*
X194515119Y-100299195D01*
X194430017Y-100051154D01*
X193819936Y-99941761D01*
X193269983Y-100051154D01*
X193184881Y-100299195D01*
X183249957Y-100299195D01*
X183250390Y-99804411D01*
X183239563Y-99778207D01*
X183445202Y-99572568D01*
X183651613Y-99601108D01*
X184160579Y-99499869D01*
X184292183Y-99240001D01*
X184025222Y-98973039D01*
X214953699Y-98973039D01*
X215820000Y-99839340D01*
X216259340Y-99400000D01*
X218125512Y-99400000D01*
X218125512Y-102400000D01*
X218212673Y-102863222D01*
X218486437Y-103288663D01*
X218904153Y-103574076D01*
X219400000Y-103674488D01*
X222400000Y-103674488D01*
X222863222Y-103587327D01*
X223288663Y-103313563D01*
X223574076Y-102895847D01*
X223674488Y-102400000D01*
X223674488Y-99400000D01*
X223587327Y-98936778D01*
X223563661Y-98900000D01*
X245625512Y-98900000D01*
X245625512Y-101100000D01*
X245712673Y-101563222D01*
X245986437Y-101988663D01*
X246142000Y-102094955D01*
X246142000Y-102260500D01*
X246331500Y-102450000D01*
X247450000Y-102450000D01*
X247450000Y-102374488D01*
X248550000Y-102374488D01*
X248550000Y-102450000D01*
X249668500Y-102450000D01*
X249858000Y-102260500D01*
X249858000Y-102097642D01*
X249988663Y-102013563D01*
X250274076Y-101595847D01*
X250374488Y-101100000D01*
X250374488Y-98900000D01*
X250287327Y-98436778D01*
X250013563Y-98011337D01*
X249595847Y-97725924D01*
X249100000Y-97625512D01*
X246900000Y-97625512D01*
X246436778Y-97712673D01*
X246011337Y-97986437D01*
X245725924Y-98404153D01*
X245625512Y-98900000D01*
X223563661Y-98900000D01*
X223313563Y-98511337D01*
X222895847Y-98225924D01*
X222400000Y-98125512D01*
X219400000Y-98125512D01*
X218936778Y-98212673D01*
X218511337Y-98486437D01*
X218225924Y-98904153D01*
X218125512Y-99400000D01*
X216259340Y-99400000D01*
X216686301Y-98973039D01*
X216492639Y-98698216D01*
X215598851Y-98608408D01*
X215147361Y-98698216D01*
X214953699Y-98973039D01*
X184025222Y-98973039D01*
X183540000Y-98487817D01*
X183151091Y-98876726D01*
X182373274Y-98098909D01*
X182762183Y-97710000D01*
X184317817Y-97710000D01*
X185070001Y-98462183D01*
X185329869Y-98330579D01*
X185431108Y-97598387D01*
X185329869Y-97089421D01*
X185312520Y-97080635D01*
X191325306Y-97080635D01*
X191675088Y-97577838D01*
X192119369Y-97874665D01*
X192350000Y-97758737D01*
X192350000Y-96850000D01*
X193150000Y-96850000D01*
X193150000Y-97758737D01*
X193380631Y-97874665D01*
X193824912Y-97577838D01*
X194174694Y-97080635D01*
X194066307Y-96850000D01*
X193150000Y-96850000D01*
X192350000Y-96850000D01*
X191433693Y-96850000D01*
X191325306Y-97080635D01*
X185312520Y-97080635D01*
X185070001Y-96957817D01*
X184317817Y-97710000D01*
X182762183Y-97710000D01*
X182009999Y-96957817D01*
X181750131Y-97089421D01*
X181648892Y-97821613D01*
X181650837Y-97831393D01*
X181472355Y-98009875D01*
X181449516Y-98000392D01*
X180554411Y-97999610D01*
X180528207Y-98010437D01*
X180322568Y-97804798D01*
X180351108Y-97598387D01*
X180249869Y-97089421D01*
X179990001Y-96957817D01*
X179237817Y-97710000D01*
X179626726Y-98098909D01*
X178848909Y-98876726D01*
X178460000Y-98487817D01*
X177707817Y-99240001D01*
X166214627Y-99240001D01*
X166120847Y-99175924D01*
X165625000Y-99075512D01*
X162625000Y-99075512D01*
X162161778Y-99162673D01*
X161736337Y-99436437D01*
X161450924Y-99854153D01*
X161350512Y-100350000D01*
X159484340Y-100350000D01*
X159911301Y-99923039D01*
X159717639Y-99648216D01*
X158823851Y-99558408D01*
X158372361Y-99648216D01*
X158178699Y-99923039D01*
X154300286Y-99923039D01*
X154300355Y-99844019D01*
X153988919Y-99090285D01*
X153412748Y-98513108D01*
X153399019Y-98507407D01*
X153859731Y-98199569D01*
X154112272Y-97821613D01*
X176568892Y-97821613D01*
X176670131Y-98330579D01*
X176929999Y-98462183D01*
X177682183Y-97710000D01*
X176929999Y-96957817D01*
X176670131Y-97089421D01*
X176568892Y-97821613D01*
X154112272Y-97821613D01*
X154304115Y-97534501D01*
X154460162Y-96750000D01*
X154346782Y-96179999D01*
X177707817Y-96179999D01*
X178460000Y-96932183D01*
X179212183Y-96179999D01*
X182787817Y-96179999D01*
X183540000Y-96932183D01*
X184292183Y-96179999D01*
X184160579Y-95920131D01*
X183431808Y-95819365D01*
X191325306Y-95819365D01*
X191433693Y-96050000D01*
X192350000Y-96050000D01*
X192350000Y-95141263D01*
X193150000Y-95141263D01*
X193150000Y-96050000D01*
X194066307Y-96050000D01*
X194174694Y-95819365D01*
X193824912Y-95322162D01*
X193380631Y-95025335D01*
X193150000Y-95141263D01*
X192350000Y-95141263D01*
X192119369Y-95025335D01*
X191675088Y-95322162D01*
X191325306Y-95819365D01*
X183431808Y-95819365D01*
X183428387Y-95818892D01*
X182919421Y-95920131D01*
X182787817Y-96179999D01*
X179212183Y-96179999D01*
X179080579Y-95920131D01*
X178348387Y-95818892D01*
X177839421Y-95920131D01*
X177707817Y-96179999D01*
X154346782Y-96179999D01*
X154304115Y-95965499D01*
X153859731Y-95300431D01*
X153194663Y-94856047D01*
X152410162Y-94700000D01*
X152329838Y-94700000D01*
X151545337Y-94856047D01*
X150880269Y-95300431D01*
X150435885Y-95965499D01*
X150279838Y-96750000D01*
X150435885Y-97534501D01*
X150880269Y-98199569D01*
X151248588Y-98445672D01*
X151090285Y-98511081D01*
X150513108Y-99087252D01*
X150200357Y-99840441D01*
X150199645Y-100655981D01*
X150511081Y-101409715D01*
X151087252Y-101986892D01*
X151117963Y-101999645D01*
X151090285Y-102011081D01*
X150513108Y-102587252D01*
X150200357Y-103340441D01*
X150199645Y-104155981D01*
X150414099Y-104675000D01*
X146470237Y-104675000D01*
X146564115Y-104534501D01*
X146720162Y-103750000D01*
X146564115Y-102965499D01*
X146119731Y-102300431D01*
X145670104Y-102000000D01*
X146119731Y-101699569D01*
X146564115Y-101034501D01*
X146720162Y-100250000D01*
X146564115Y-99465499D01*
X146119731Y-98800431D01*
X145751412Y-98554328D01*
X145909715Y-98488919D01*
X146486892Y-97912748D01*
X146799643Y-97159559D01*
X146800355Y-96344019D01*
X146488919Y-95590285D01*
X145912748Y-95013108D01*
X145159559Y-94700357D01*
X144344019Y-94699645D01*
X143590285Y-95011081D01*
X143013108Y-95587252D01*
X142700357Y-96340441D01*
X142699645Y-97155981D01*
X143011081Y-97909715D01*
X143587252Y-98486892D01*
X143600981Y-98492593D01*
X143140269Y-98800431D01*
X142695885Y-99465499D01*
X142539838Y-100250000D01*
X142695885Y-101034501D01*
X143140269Y-101699569D01*
X143589896Y-102000000D01*
X143140269Y-102300431D01*
X142695885Y-102965499D01*
X142539838Y-103750000D01*
X142695885Y-104534501D01*
X142789763Y-104675000D01*
X140104920Y-104675000D01*
X140114458Y-104671059D01*
X140669111Y-104117373D01*
X140969658Y-103393576D01*
X140970342Y-102609862D01*
X140671059Y-101885542D01*
X140516002Y-101730215D01*
X140669111Y-101577373D01*
X140969658Y-100853576D01*
X140970342Y-100069862D01*
X140671059Y-99345542D01*
X140516002Y-99190215D01*
X140669111Y-99037373D01*
X140969658Y-98313576D01*
X140970342Y-97529862D01*
X140671059Y-96805542D01*
X140117373Y-96250889D01*
X139393576Y-95950342D01*
X138609862Y-95949658D01*
X137885542Y-96248941D01*
X137330889Y-96802627D01*
X137030342Y-97526424D01*
X137029658Y-98310138D01*
X137328941Y-99034458D01*
X137483998Y-99189785D01*
X137330889Y-99342627D01*
X137030342Y-100066424D01*
X137029658Y-100850138D01*
X137328941Y-101574458D01*
X137483998Y-101729785D01*
X137330889Y-101882627D01*
X137030342Y-102606424D01*
X137029658Y-103390138D01*
X137328941Y-104114458D01*
X137882627Y-104669111D01*
X137896809Y-104675000D01*
X135793231Y-104675000D01*
X135799643Y-104659559D01*
X135800355Y-103844019D01*
X135488919Y-103090285D01*
X134912748Y-102513108D01*
X134882037Y-102500355D01*
X134909715Y-102488919D01*
X135486892Y-101912748D01*
X135799643Y-101159559D01*
X135800355Y-100344019D01*
X135488919Y-99590285D01*
X134912748Y-99013108D01*
X134159559Y-98700357D01*
X134070404Y-98700279D01*
X134125119Y-98540805D01*
X133460000Y-97875685D01*
X132794881Y-98540805D01*
X132879983Y-98788846D01*
X133053037Y-98819876D01*
X132590285Y-99011081D01*
X132013108Y-99587252D01*
X131700357Y-100340441D01*
X131699645Y-101155981D01*
X132011081Y-101909715D01*
X132587252Y-102486892D01*
X132617963Y-102499645D01*
X132590285Y-102511081D01*
X132013108Y-103087252D01*
X131700357Y-103840441D01*
X131699645Y-104655981D01*
X131707503Y-104675000D01*
X128135624Y-104675000D01*
X128220162Y-104250000D01*
X128064115Y-103465499D01*
X127619731Y-102800431D01*
X127170104Y-102500000D01*
X127619731Y-102199569D01*
X128064115Y-101534501D01*
X128220162Y-100750000D01*
X128064115Y-99965499D01*
X127619731Y-99300431D01*
X127130002Y-98973205D01*
X127449731Y-98759569D01*
X127894115Y-98094501D01*
X128044181Y-97340064D01*
X131871761Y-97340064D01*
X131981154Y-97890017D01*
X132229195Y-97975119D01*
X132894315Y-97310000D01*
X134025685Y-97310000D01*
X134690805Y-97975119D01*
X134938846Y-97890017D01*
X135048239Y-97279936D01*
X134938846Y-96729983D01*
X134690805Y-96644881D01*
X134025685Y-97310000D01*
X132894315Y-97310000D01*
X132229195Y-96644881D01*
X131981154Y-96729983D01*
X131871761Y-97340064D01*
X128044181Y-97340064D01*
X128050162Y-97310000D01*
X127894115Y-96525499D01*
X127595905Y-96079195D01*
X132794881Y-96079195D01*
X133460000Y-96744315D01*
X134125119Y-96079195D01*
X134040017Y-95831154D01*
X133429936Y-95721761D01*
X132879983Y-95831154D01*
X132794881Y-96079195D01*
X127595905Y-96079195D01*
X127449731Y-95860431D01*
X126784663Y-95416047D01*
X126000162Y-95260000D01*
X125919838Y-95260000D01*
X125135337Y-95416047D01*
X124470269Y-95860431D01*
X124025885Y-96525499D01*
X123869838Y-97310000D01*
X124025885Y-98094501D01*
X124470269Y-98759569D01*
X124959998Y-99086795D01*
X124640269Y-99300431D01*
X124195885Y-99965499D01*
X124039838Y-100750000D01*
X124195885Y-101534501D01*
X124640269Y-102199569D01*
X125089896Y-102500000D01*
X124640269Y-102800431D01*
X124195885Y-103465499D01*
X124039838Y-104250000D01*
X124124376Y-104675000D01*
X120000448Y-104675000D01*
X120084488Y-104260000D01*
X120084488Y-102740000D01*
X119997327Y-102276778D01*
X119804227Y-101976693D01*
X120059650Y-101361568D01*
X120060348Y-100561940D01*
X119754988Y-99822914D01*
X119622569Y-99690264D01*
X119753001Y-99560060D01*
X120059650Y-98821568D01*
X120060348Y-98021940D01*
X119754988Y-97282914D01*
X119190060Y-96716999D01*
X118451568Y-96410350D01*
X117651940Y-96409652D01*
X116912914Y-96715012D01*
X116346999Y-97279940D01*
X116040350Y-98018432D01*
X116039652Y-98818060D01*
X116345012Y-99557086D01*
X116477431Y-99689736D01*
X116346999Y-99819940D01*
X116040350Y-100558432D01*
X116039652Y-101358060D01*
X116296550Y-101979798D01*
X116115924Y-102244153D01*
X116015512Y-102740000D01*
X116015512Y-104260000D01*
X116093599Y-104675000D01*
X111834488Y-104675000D01*
X111834488Y-103790000D01*
X111747327Y-103326778D01*
X111554227Y-103026693D01*
X111809650Y-102411568D01*
X111810348Y-101611940D01*
X111504988Y-100872914D01*
X111372569Y-100740264D01*
X111503001Y-100610060D01*
X111809650Y-99871568D01*
X111810348Y-99071940D01*
X111504988Y-98332914D01*
X110940060Y-97766999D01*
X110201568Y-97460350D01*
X109401940Y-97459652D01*
X108662914Y-97765012D01*
X108096999Y-98329940D01*
X107790350Y-99068432D01*
X107789652Y-99868060D01*
X108095012Y-100607086D01*
X108227431Y-100739736D01*
X108096999Y-100869940D01*
X107790350Y-101608432D01*
X107789652Y-102408060D01*
X108046550Y-103029798D01*
X107865924Y-103294153D01*
X107765512Y-103790000D01*
X107765512Y-104675000D01*
X89047049Y-104675000D01*
X89050000Y-104660162D01*
X89050000Y-104579838D01*
X88893953Y-103795337D01*
X88449569Y-103130269D01*
X87784501Y-102685885D01*
X87000000Y-102529838D01*
X86215499Y-102685885D01*
X85550431Y-103130269D01*
X85333352Y-103455151D01*
X85099569Y-103105269D01*
X84434501Y-102660885D01*
X83650000Y-102504838D01*
X82865499Y-102660885D01*
X82200431Y-103105269D01*
X81971591Y-103447752D01*
X81512748Y-102988108D01*
X80759559Y-102675357D01*
X79944019Y-102674645D01*
X79190285Y-102986081D01*
X78613108Y-103562252D01*
X78393389Y-104091395D01*
X78155805Y-104009881D01*
X77490685Y-104675000D01*
X76359315Y-104675000D01*
X75694195Y-104009881D01*
X75446154Y-104094983D01*
X75382554Y-104449676D01*
X75157230Y-104675000D01*
X71544303Y-104675000D01*
X71535264Y-104645000D01*
X70500000Y-104645000D01*
X70500000Y-104675000D01*
X69400000Y-104675000D01*
X69400000Y-104645000D01*
X68364736Y-104645000D01*
X68355697Y-104675000D01*
X67864584Y-104675000D01*
X68028677Y-104510907D01*
X67576126Y-104058357D01*
X67503846Y-103694983D01*
X67255805Y-103609881D01*
X66590685Y-104275000D01*
X66873528Y-104557843D01*
X66756371Y-104675000D01*
X65293629Y-104675000D01*
X65176472Y-104557843D01*
X65459315Y-104275000D01*
X64794195Y-103609881D01*
X64634397Y-103664707D01*
X64570244Y-103475000D01*
X63545000Y-103475000D01*
X63545000Y-104025000D01*
X62445000Y-104025000D01*
X62445000Y-103475000D01*
X61419756Y-103475000D01*
X61328160Y-103745857D01*
X61598736Y-104150861D01*
X61744998Y-104262963D01*
X61744998Y-104675000D01*
X57543748Y-104675000D01*
X57649076Y-104520847D01*
X57749488Y-104025000D01*
X57749488Y-103044195D01*
X65359881Y-103044195D01*
X66025000Y-103709315D01*
X66460177Y-103274137D01*
X68283125Y-103274137D01*
X68364736Y-103545000D01*
X69400000Y-103545000D01*
X69400000Y-102519756D01*
X70500000Y-102519756D01*
X70500000Y-103545000D01*
X71535264Y-103545000D01*
X71565636Y-103444195D01*
X76259881Y-103444195D01*
X76925000Y-104109315D01*
X77590119Y-103444195D01*
X77505017Y-103196154D01*
X76894936Y-103086761D01*
X76344983Y-103196154D01*
X76259881Y-103444195D01*
X71565636Y-103444195D01*
X71616875Y-103274137D01*
X71175861Y-102698736D01*
X70770857Y-102428160D01*
X70500000Y-102519756D01*
X69400000Y-102519756D01*
X69129143Y-102428160D01*
X68724139Y-102698736D01*
X68283125Y-103274137D01*
X66460177Y-103274137D01*
X66690119Y-103044195D01*
X66605017Y-102796154D01*
X65994936Y-102686761D01*
X65444983Y-102796154D01*
X65359881Y-103044195D01*
X57749488Y-103044195D01*
X57749488Y-102104143D01*
X61328160Y-102104143D01*
X61419756Y-102375000D01*
X62445000Y-102375000D01*
X62445000Y-101339736D01*
X63545000Y-101339736D01*
X63545000Y-102375000D01*
X64570244Y-102375000D01*
X64661840Y-102104143D01*
X64391264Y-101699139D01*
X63815863Y-101258125D01*
X63545000Y-101339736D01*
X62445000Y-101339736D01*
X62174137Y-101258125D01*
X61598736Y-101699139D01*
X61328160Y-102104143D01*
X57749488Y-102104143D01*
X57749488Y-101825000D01*
X57662327Y-101361778D01*
X57388563Y-100936337D01*
X56970847Y-100650924D01*
X56475000Y-100550512D01*
X54275000Y-100550512D01*
X53811778Y-100637673D01*
X53386337Y-100911437D01*
X53249927Y-101111079D01*
X52715345Y-100753883D01*
X51816039Y-100575000D01*
X51723961Y-100575000D01*
X50824655Y-100753883D01*
X50062260Y-101263299D01*
X49552844Y-102025694D01*
X49373961Y-102925000D01*
X49552844Y-103824306D01*
X50062260Y-104586701D01*
X50194409Y-104675000D01*
X46318748Y-104675000D01*
X46424076Y-104520847D01*
X46524488Y-104025000D01*
X46524488Y-101825000D01*
X46437327Y-101361778D01*
X46163563Y-100936337D01*
X45745847Y-100650924D01*
X45250000Y-100550512D01*
X43050000Y-100550512D01*
X42586778Y-100637673D01*
X42161337Y-100911437D01*
X41875924Y-101329153D01*
X41775512Y-101825000D01*
X41775512Y-104025000D01*
X41862673Y-104488222D01*
X41982861Y-104675000D01*
X32982125Y-104675000D01*
X33389058Y-104268777D01*
X33999305Y-102799140D01*
X34000693Y-101207841D01*
X33535085Y-100080981D01*
X74874645Y-100080981D01*
X75186081Y-100834715D01*
X75762252Y-101411892D01*
X76515441Y-101724643D01*
X77330981Y-101725355D01*
X78084715Y-101413919D01*
X78612959Y-100886596D01*
X79187252Y-101461892D01*
X79940441Y-101774643D01*
X80755981Y-101775355D01*
X81509715Y-101463919D01*
X82086892Y-100887748D01*
X82399643Y-100134559D01*
X82400355Y-99319019D01*
X82088919Y-98565285D01*
X81512748Y-97988108D01*
X80759559Y-97675357D01*
X79944019Y-97674645D01*
X79190285Y-97986081D01*
X78662041Y-98513404D01*
X78087748Y-97938108D01*
X77334559Y-97625357D01*
X76519019Y-97624645D01*
X75765285Y-97936081D01*
X75188108Y-98512252D01*
X74875357Y-99265441D01*
X74874645Y-100080981D01*
X33535085Y-100080981D01*
X33393013Y-99737142D01*
X32268777Y-98610942D01*
X30799140Y-98000695D01*
X30385995Y-98000335D01*
X30751288Y-97453635D01*
X30911141Y-96650000D01*
X30751288Y-95846365D01*
X30332760Y-95219994D01*
X30378000Y-95110775D01*
X30378000Y-94724500D01*
X30188500Y-94535000D01*
X29195000Y-94535000D01*
X29195000Y-94626354D01*
X28811141Y-94550000D01*
X28728859Y-94550000D01*
X28345000Y-94626354D01*
X28345000Y-94535000D01*
X27920000Y-94535000D01*
X27920000Y-93800000D01*
X52350512Y-93800000D01*
X52350512Y-96200000D01*
X52437673Y-96663222D01*
X52711437Y-97088663D01*
X53129153Y-97374076D01*
X53625000Y-97474488D01*
X56025000Y-97474488D01*
X56488222Y-97387327D01*
X56913663Y-97113563D01*
X57199076Y-96695847D01*
X57299488Y-96200000D01*
X57299488Y-93800000D01*
X57212327Y-93336778D01*
X56938563Y-92911337D01*
X56520847Y-92625924D01*
X56025000Y-92525512D01*
X53625000Y-92525512D01*
X53161778Y-92612673D01*
X52736337Y-92886437D01*
X52450924Y-93304153D01*
X52350512Y-93800000D01*
X27920000Y-93800000D01*
X27920000Y-93685000D01*
X28345000Y-93685000D01*
X28345000Y-92691500D01*
X29195000Y-92691500D01*
X29195000Y-93685000D01*
X30188500Y-93685000D01*
X30378000Y-93495500D01*
X30378000Y-93109225D01*
X30262602Y-92830628D01*
X30049373Y-92617399D01*
X29770776Y-92502000D01*
X29384500Y-92502000D01*
X29195000Y-92691500D01*
X28345000Y-92691500D01*
X28155500Y-92502000D01*
X27769224Y-92502000D01*
X27490627Y-92617399D01*
X27325000Y-92783026D01*
X27325000Y-91250000D01*
X62501352Y-91250000D01*
X62846780Y-92086000D01*
X63535375Y-92775798D01*
X64354494Y-93115925D01*
X64131047Y-93450337D01*
X63975000Y-94234838D01*
X63975000Y-94315162D01*
X64131047Y-95099663D01*
X64575431Y-95764731D01*
X65240499Y-96209115D01*
X66025000Y-96365162D01*
X66809501Y-96209115D01*
X67474569Y-95764731D01*
X67575512Y-95613659D01*
X67575512Y-97575000D01*
X67662673Y-98038222D01*
X67936437Y-98463663D01*
X68354153Y-98749076D01*
X68850000Y-98849488D01*
X71050000Y-98849488D01*
X71513222Y-98762327D01*
X71938663Y-98488563D01*
X72224076Y-98070847D01*
X72324488Y-97575000D01*
X72324488Y-97380981D01*
X81599645Y-97380981D01*
X81911081Y-98134715D01*
X82487252Y-98711892D01*
X83240441Y-99024643D01*
X84055981Y-99025355D01*
X84809715Y-98713919D01*
X85312893Y-98211618D01*
X85837252Y-98736892D01*
X86590441Y-99049643D01*
X87405981Y-99050355D01*
X88159715Y-98738919D01*
X88736892Y-98162748D01*
X89049643Y-97409559D01*
X89050355Y-96594019D01*
X88738919Y-95840285D01*
X88162748Y-95263108D01*
X87409559Y-94950357D01*
X86594019Y-94949645D01*
X85840285Y-95261081D01*
X85337107Y-95763382D01*
X84812748Y-95238108D01*
X84059559Y-94925357D01*
X83244019Y-94924645D01*
X82490285Y-95236081D01*
X81913108Y-95812252D01*
X81600357Y-96565441D01*
X81599645Y-97380981D01*
X72324488Y-97380981D01*
X72324488Y-95789500D01*
X75292000Y-95789500D01*
X75292000Y-96250776D01*
X75407399Y-96529373D01*
X75620628Y-96742602D01*
X75899225Y-96858000D01*
X76360500Y-96858000D01*
X76550000Y-96668500D01*
X76550000Y-95600000D01*
X77550000Y-95600000D01*
X77550000Y-96668500D01*
X77739500Y-96858000D01*
X78200775Y-96858000D01*
X78479372Y-96742602D01*
X78692601Y-96529373D01*
X78808000Y-96250776D01*
X78808000Y-95789500D01*
X78618500Y-95600000D01*
X77550000Y-95600000D01*
X76550000Y-95600000D01*
X75481500Y-95600000D01*
X75292000Y-95789500D01*
X72324488Y-95789500D01*
X72324488Y-95375000D01*
X72237327Y-94911778D01*
X71963563Y-94486337D01*
X71545847Y-94200924D01*
X71050000Y-94100512D01*
X68850000Y-94100512D01*
X68386778Y-94187673D01*
X68058317Y-94399032D01*
X68075000Y-94315162D01*
X68075000Y-94234838D01*
X68018188Y-93949224D01*
X75292000Y-93949224D01*
X75292000Y-94410500D01*
X75481500Y-94600000D01*
X76550000Y-94600000D01*
X76550000Y-93531500D01*
X77550000Y-93531500D01*
X77550000Y-94600000D01*
X78618500Y-94600000D01*
X78808000Y-94410500D01*
X78808000Y-93949224D01*
X78692601Y-93670627D01*
X78479372Y-93457398D01*
X78200775Y-93342000D01*
X77739500Y-93342000D01*
X77550000Y-93531500D01*
X76550000Y-93531500D01*
X76360500Y-93342000D01*
X75899225Y-93342000D01*
X75620628Y-93457398D01*
X75407399Y-93670627D01*
X75292000Y-93949224D01*
X68018188Y-93949224D01*
X67918953Y-93450337D01*
X67474569Y-92785269D01*
X66809501Y-92340885D01*
X66759135Y-92330867D01*
X67000798Y-92089625D01*
X67349440Y-91250000D01*
X75090667Y-91250000D01*
X75141431Y-91372858D01*
X75773813Y-92006345D01*
X76600484Y-92349608D01*
X77495589Y-92350390D01*
X78322858Y-92008569D01*
X78956345Y-91376187D01*
X79008742Y-91250000D01*
X90949880Y-91250000D01*
X90991081Y-91349715D01*
X91526375Y-91885943D01*
X91250269Y-92070431D01*
X90805885Y-92735499D01*
X90649838Y-93520000D01*
X90805885Y-94304501D01*
X91250269Y-94969569D01*
X91321207Y-95016968D01*
X90962914Y-95165012D01*
X90396999Y-95729940D01*
X90090350Y-96468432D01*
X90089652Y-97268060D01*
X90395012Y-98007086D01*
X90527431Y-98139736D01*
X90396999Y-98269940D01*
X90090350Y-99008432D01*
X90089652Y-99808060D01*
X90346550Y-100429798D01*
X90165924Y-100694153D01*
X90065512Y-101190000D01*
X90065512Y-102710000D01*
X90152673Y-103173222D01*
X90426437Y-103598663D01*
X90844153Y-103884076D01*
X91340000Y-103984488D01*
X92860000Y-103984488D01*
X93323222Y-103897327D01*
X93748663Y-103623563D01*
X94034076Y-103205847D01*
X94134488Y-102710000D01*
X94134488Y-101190000D01*
X94047327Y-100726778D01*
X93854227Y-100426693D01*
X94109650Y-99811568D01*
X94110348Y-99011940D01*
X93804988Y-98272914D01*
X93672569Y-98140264D01*
X93803001Y-98010060D01*
X94109650Y-97271568D01*
X94110348Y-96471940D01*
X93804988Y-95732914D01*
X93499519Y-95426911D01*
X93564663Y-95413953D01*
X94229731Y-94969569D01*
X94674115Y-94304501D01*
X94830162Y-93520000D01*
X94674115Y-92735499D01*
X94229731Y-92070431D01*
X93941130Y-91877594D01*
X94466892Y-91352748D01*
X94509557Y-91250000D01*
X98479967Y-91250000D01*
X98740269Y-91639569D01*
X99100755Y-91880438D01*
X98623108Y-92357252D01*
X98310357Y-93110441D01*
X98309645Y-93925981D01*
X98621081Y-94679715D01*
X98921782Y-94980941D01*
X98471999Y-95429940D01*
X98165350Y-96168432D01*
X98164652Y-96968060D01*
X98470012Y-97707086D01*
X98602431Y-97839736D01*
X98471999Y-97969940D01*
X98165350Y-98708432D01*
X98164652Y-99508060D01*
X98421550Y-100129798D01*
X98240924Y-100394153D01*
X98140512Y-100890000D01*
X98140512Y-102410000D01*
X98227673Y-102873222D01*
X98501437Y-103298663D01*
X98919153Y-103584076D01*
X99415000Y-103684488D01*
X100935000Y-103684488D01*
X101398222Y-103597327D01*
X101823663Y-103323563D01*
X102109076Y-102905847D01*
X102209488Y-102410000D01*
X102209488Y-100890000D01*
X102122327Y-100426778D01*
X101929227Y-100126693D01*
X102184650Y-99511568D01*
X102185348Y-98711940D01*
X101879988Y-97972914D01*
X101747569Y-97840264D01*
X101878001Y-97710060D01*
X102184650Y-96971568D01*
X102185095Y-96460767D01*
X105746634Y-96460767D01*
X105825534Y-96707179D01*
X106419247Y-96817619D01*
X106974466Y-96707179D01*
X107053366Y-96460767D01*
X106400000Y-95807401D01*
X105746634Y-96460767D01*
X102185095Y-96460767D01*
X102185348Y-96171940D01*
X101879988Y-95432914D01*
X101613169Y-95165628D01*
X102096892Y-94682748D01*
X102409643Y-93929559D01*
X102410355Y-93114019D01*
X102098919Y-92360285D01*
X101522748Y-91783108D01*
X101511746Y-91778540D01*
X101719731Y-91639569D01*
X101980033Y-91250000D01*
X104421961Y-91250000D01*
X104452673Y-91413222D01*
X104645773Y-91713307D01*
X104390350Y-92328432D01*
X104389652Y-93128060D01*
X104695012Y-93867086D01*
X105157605Y-94330487D01*
X104425161Y-95062931D01*
X104902266Y-95540036D01*
X104962821Y-95844466D01*
X105209233Y-95923366D01*
X105862599Y-95270000D01*
X105593899Y-95001300D01*
X105897471Y-94697727D01*
X105998432Y-94739650D01*
X106798060Y-94740348D01*
X106902143Y-94697341D01*
X107206102Y-95001300D01*
X106937401Y-95270000D01*
X107590767Y-95923366D01*
X107837179Y-95844466D01*
X107892911Y-95544859D01*
X108374839Y-95062931D01*
X107642083Y-94330175D01*
X108103001Y-93870060D01*
X108409650Y-93131568D01*
X108410348Y-92331940D01*
X108153450Y-91710202D01*
X108334076Y-91445847D01*
X108373736Y-91250000D01*
X109585801Y-91250000D01*
X109786081Y-91734715D01*
X110362252Y-92311892D01*
X110910782Y-92539661D01*
X110863108Y-92587252D01*
X110550357Y-93340441D01*
X110549645Y-94155981D01*
X110861081Y-94909715D01*
X111437252Y-95486892D01*
X112190441Y-95799643D01*
X113005981Y-95800355D01*
X113759715Y-95488919D01*
X114336892Y-94912748D01*
X114649643Y-94159559D01*
X114650355Y-93344019D01*
X114338919Y-92590285D01*
X113762748Y-92013108D01*
X113214218Y-91785339D01*
X113261892Y-91737748D01*
X113464422Y-91250000D01*
X117189104Y-91250000D01*
X117210885Y-91359501D01*
X117438304Y-91699858D01*
X117194019Y-91699645D01*
X116440285Y-92011081D01*
X115863108Y-92587252D01*
X115550357Y-93340441D01*
X115549645Y-94155981D01*
X115861081Y-94909715D01*
X116437252Y-95486892D01*
X117190441Y-95799643D01*
X118005981Y-95800355D01*
X118759715Y-95488919D01*
X119336892Y-94912748D01*
X119649643Y-94159559D01*
X119650188Y-93534820D01*
X119836081Y-93984715D01*
X120412252Y-94561892D01*
X121165441Y-94874643D01*
X121980981Y-94875355D01*
X122734715Y-94563919D01*
X123311892Y-93987748D01*
X123532846Y-93455631D01*
X130150335Y-93455631D01*
X130447162Y-93899912D01*
X130944365Y-94249694D01*
X131175000Y-94141307D01*
X131175000Y-93225000D01*
X130266263Y-93225000D01*
X130150335Y-93455631D01*
X123532846Y-93455631D01*
X123624643Y-93234559D01*
X123625355Y-92419019D01*
X123532532Y-92194369D01*
X130150335Y-92194369D01*
X130266263Y-92425000D01*
X131175000Y-92425000D01*
X131175000Y-91508693D01*
X130944365Y-91400306D01*
X130447162Y-91750088D01*
X130150335Y-92194369D01*
X123532532Y-92194369D01*
X123313919Y-91665285D01*
X122899358Y-91250000D01*
X133721316Y-91250000D01*
X133173108Y-91797252D01*
X133133000Y-91893843D01*
X133133000Y-91574998D01*
X132453954Y-91574998D01*
X132205635Y-91400306D01*
X131975000Y-91508693D01*
X131975000Y-92425000D01*
X132375000Y-92425000D01*
X132375000Y-93225000D01*
X131975000Y-93225000D01*
X131975000Y-94141307D01*
X132205635Y-94249694D01*
X132453954Y-94075002D01*
X133133000Y-94075002D01*
X133133000Y-94027552D01*
X133171081Y-94119715D01*
X133747252Y-94696892D01*
X134500441Y-95009643D01*
X135315981Y-95010355D01*
X136069715Y-94698919D01*
X136646892Y-94122748D01*
X136959643Y-93369559D01*
X136960355Y-92554019D01*
X136648919Y-91800285D01*
X136099593Y-91250000D01*
X138721316Y-91250000D01*
X138173108Y-91797252D01*
X137860357Y-92550441D01*
X137859645Y-93365981D01*
X138171081Y-94119715D01*
X138747252Y-94696892D01*
X139500441Y-95009643D01*
X140315981Y-95010355D01*
X141069715Y-94698919D01*
X141363164Y-94405981D01*
X158949645Y-94405981D01*
X159261081Y-95159715D01*
X159837252Y-95736892D01*
X160590441Y-96049643D01*
X161405981Y-96050355D01*
X162159715Y-95738919D01*
X162736892Y-95162748D01*
X162957846Y-94630631D01*
X167195335Y-94630631D01*
X167492162Y-95074912D01*
X167989365Y-95424694D01*
X168220000Y-95316307D01*
X168220000Y-94400000D01*
X169020000Y-94400000D01*
X169020000Y-95316307D01*
X169250635Y-95424694D01*
X169747838Y-95074912D01*
X169804902Y-94989500D01*
X251042000Y-94989500D01*
X251042000Y-95550776D01*
X251157399Y-95829373D01*
X251370628Y-96042602D01*
X251649225Y-96158000D01*
X252210500Y-96158000D01*
X252400000Y-95968500D01*
X252400000Y-94800000D01*
X253600000Y-94800000D01*
X253600000Y-95968500D01*
X253789500Y-96158000D01*
X254350775Y-96158000D01*
X254629372Y-96042602D01*
X254842601Y-95829373D01*
X254958000Y-95550776D01*
X254958000Y-94989500D01*
X254768500Y-94800000D01*
X253600000Y-94800000D01*
X252400000Y-94800000D01*
X251231500Y-94800000D01*
X251042000Y-94989500D01*
X169804902Y-94989500D01*
X170044665Y-94630631D01*
X169928737Y-94400000D01*
X169020000Y-94400000D01*
X168220000Y-94400000D01*
X167311263Y-94400000D01*
X167195335Y-94630631D01*
X162957846Y-94630631D01*
X163049643Y-94409559D01*
X163050355Y-93594019D01*
X162957532Y-93369369D01*
X167195335Y-93369369D01*
X167311263Y-93600000D01*
X168220000Y-93600000D01*
X168220000Y-92683693D01*
X169020000Y-92683693D01*
X169020000Y-93600000D01*
X169928737Y-93600000D01*
X170044665Y-93369369D01*
X169747838Y-92925088D01*
X169250635Y-92575306D01*
X169020000Y-92683693D01*
X168220000Y-92683693D01*
X167989365Y-92575306D01*
X167492162Y-92925088D01*
X167195335Y-93369369D01*
X162957532Y-93369369D01*
X162738919Y-92840285D01*
X162162748Y-92263108D01*
X161409559Y-91950357D01*
X160594019Y-91949645D01*
X159840285Y-92261081D01*
X159263108Y-92837252D01*
X158950357Y-93590441D01*
X158949645Y-94405981D01*
X141363164Y-94405981D01*
X141646892Y-94122748D01*
X141959643Y-93369559D01*
X141960184Y-92750341D01*
X142209838Y-92800000D01*
X142290162Y-92800000D01*
X143074663Y-92643953D01*
X143739731Y-92199569D01*
X144184115Y-91534501D01*
X144240706Y-91250000D01*
X150238493Y-91250000D01*
X150511081Y-91909715D01*
X151087252Y-92486892D01*
X151840441Y-92799643D01*
X152655981Y-92800355D01*
X153409715Y-92488919D01*
X153986892Y-91912748D01*
X154262089Y-91250000D01*
X155973786Y-91250000D01*
X156006605Y-91329429D01*
X156667094Y-91991071D01*
X157530505Y-92349591D01*
X158465393Y-92350407D01*
X159329429Y-91993395D01*
X159991071Y-91332906D01*
X160025497Y-91250000D01*
X170973786Y-91250000D01*
X171006605Y-91329429D01*
X171667094Y-91991071D01*
X172530505Y-92349591D01*
X173465393Y-92350407D01*
X174329429Y-91993395D01*
X174991071Y-91332906D01*
X175025497Y-91250000D01*
X186050000Y-91250000D01*
X186049576Y-91735197D01*
X186421780Y-92636000D01*
X187110375Y-93325798D01*
X188010527Y-93699573D01*
X188985197Y-93700424D01*
X189153687Y-93630805D01*
X229634881Y-93630805D01*
X229719983Y-93878846D01*
X230330064Y-93988239D01*
X230880017Y-93878846D01*
X230965119Y-93630805D01*
X230300000Y-92965685D01*
X229634881Y-93630805D01*
X189153687Y-93630805D01*
X189886000Y-93328220D01*
X190575798Y-92639625D01*
X190662815Y-92430064D01*
X228711761Y-92430064D01*
X228821154Y-92980017D01*
X229069195Y-93065119D01*
X229734315Y-92400000D01*
X230865685Y-92400000D01*
X231530805Y-93065119D01*
X231778846Y-92980017D01*
X231802298Y-92849224D01*
X251042000Y-92849224D01*
X251042000Y-93410500D01*
X251231500Y-93600000D01*
X252400000Y-93600000D01*
X252400000Y-92431500D01*
X253600000Y-92431500D01*
X253600000Y-93600000D01*
X254768500Y-93600000D01*
X254958000Y-93410500D01*
X254958000Y-92849224D01*
X254842601Y-92570627D01*
X254811199Y-92539225D01*
X261852000Y-92539225D01*
X261852000Y-92925500D01*
X262041500Y-93115000D01*
X263035000Y-93115000D01*
X263035000Y-92121500D01*
X262845500Y-91932000D01*
X262459224Y-91932000D01*
X262180627Y-92047399D01*
X261967398Y-92260628D01*
X261852000Y-92539225D01*
X254811199Y-92539225D01*
X254629372Y-92357398D01*
X254350775Y-92242000D01*
X253789500Y-92242000D01*
X253600000Y-92431500D01*
X252400000Y-92431500D01*
X252210500Y-92242000D01*
X251649225Y-92242000D01*
X251370628Y-92357398D01*
X251157399Y-92570627D01*
X251042000Y-92849224D01*
X231802298Y-92849224D01*
X231888239Y-92369936D01*
X231778846Y-91819983D01*
X231530805Y-91734881D01*
X230865685Y-92400000D01*
X229734315Y-92400000D01*
X229069195Y-91734881D01*
X228821154Y-91819983D01*
X228711761Y-92430064D01*
X190662815Y-92430064D01*
X190949573Y-91739473D01*
X190950000Y-91250000D01*
X191000000Y-91250000D01*
X191097264Y-91230304D01*
X191179202Y-91174318D01*
X191182498Y-91169195D01*
X229634881Y-91169195D01*
X230300000Y-91834315D01*
X230965119Y-91169195D01*
X230880017Y-90921154D01*
X230269936Y-90811761D01*
X229719983Y-90921154D01*
X229634881Y-91169195D01*
X191182498Y-91169195D01*
X191232903Y-91090864D01*
X191250000Y-91000000D01*
X191250000Y-90000000D01*
X191235210Y-89926961D01*
X236053699Y-89926961D01*
X236247361Y-90201784D01*
X237141149Y-90291592D01*
X237592639Y-90201784D01*
X237786301Y-89926961D01*
X236920000Y-89060660D01*
X236053699Y-89926961D01*
X191235210Y-89926961D01*
X191230304Y-89902736D01*
X191174318Y-89820798D01*
X191090864Y-89767097D01*
X191000000Y-89750000D01*
X190464419Y-89750000D01*
X189889625Y-89174202D01*
X188989473Y-88800427D01*
X188014803Y-88799576D01*
X187114000Y-89171780D01*
X186534770Y-89750000D01*
X175350219Y-89750000D01*
X175350407Y-89534607D01*
X174993395Y-88670571D01*
X174332906Y-88008929D01*
X173469495Y-87650409D01*
X172534607Y-87649593D01*
X171670571Y-88006605D01*
X171008929Y-88667094D01*
X170650409Y-89530505D01*
X170650217Y-89750000D01*
X160350219Y-89750000D01*
X160350407Y-89534607D01*
X159993395Y-88670571D01*
X159332906Y-88008929D01*
X158469495Y-87650409D01*
X157534607Y-87649593D01*
X156670571Y-88006605D01*
X156008929Y-88667094D01*
X155650409Y-89530505D01*
X155650217Y-89750000D01*
X154054912Y-89750000D01*
X153988919Y-89590285D01*
X153412748Y-89013108D01*
X152659559Y-88700357D01*
X151844019Y-88699645D01*
X151090285Y-89011081D01*
X150513108Y-89587252D01*
X150445529Y-89750000D01*
X144040123Y-89750000D01*
X143739731Y-89300431D01*
X143074663Y-88856047D01*
X142290162Y-88700000D01*
X142209838Y-88700000D01*
X141425337Y-88856047D01*
X140760269Y-89300431D01*
X140459877Y-89750000D01*
X121052054Y-89750000D01*
X120634731Y-89125431D01*
X119969663Y-88681047D01*
X119185162Y-88525000D01*
X119104838Y-88525000D01*
X118320337Y-88681047D01*
X117655269Y-89125431D01*
X117237946Y-89750000D01*
X113402220Y-89750000D01*
X113263919Y-89415285D01*
X112687748Y-88838108D01*
X111934559Y-88525357D01*
X111119019Y-88524645D01*
X110365285Y-88836081D01*
X109788108Y-89412252D01*
X109647863Y-89750000D01*
X108434488Y-89750000D01*
X108434488Y-89430000D01*
X108347327Y-88966778D01*
X108073563Y-88541337D01*
X107655847Y-88255924D01*
X107160000Y-88155512D01*
X105640000Y-88155512D01*
X105176778Y-88242673D01*
X104751337Y-88516437D01*
X104465924Y-88934153D01*
X104365512Y-89430000D01*
X104365512Y-89750000D01*
X102232641Y-89750000D01*
X102164115Y-89405499D01*
X101719731Y-88740431D01*
X101054663Y-88296047D01*
X100270162Y-88140000D01*
X100189838Y-88140000D01*
X99405337Y-88296047D01*
X98740269Y-88740431D01*
X98295885Y-89405499D01*
X98227359Y-89750000D01*
X94766299Y-89750000D01*
X94468919Y-89030285D01*
X93892748Y-88453108D01*
X93139559Y-88140357D01*
X92324019Y-88139645D01*
X91570285Y-88451081D01*
X90993108Y-89027252D01*
X90692997Y-89750000D01*
X79300306Y-89750000D01*
X79300390Y-89654411D01*
X78958569Y-88827142D01*
X78326187Y-88193655D01*
X77499516Y-87850392D01*
X76604411Y-87849610D01*
X75777142Y-88191431D01*
X75143655Y-88823813D01*
X74800392Y-89650484D01*
X74800305Y-89750000D01*
X67183371Y-89750000D01*
X67003220Y-89314000D01*
X66314625Y-88624202D01*
X65414473Y-88250427D01*
X64439803Y-88249576D01*
X63539000Y-88621780D01*
X62849202Y-89310375D01*
X62666654Y-89750000D01*
X44723861Y-89750000D01*
X44774488Y-89500000D01*
X44774488Y-89129407D01*
X54044121Y-89129407D01*
X54191232Y-89393089D01*
X54963928Y-89491518D01*
X55458768Y-89393089D01*
X55605879Y-89129407D01*
X54825000Y-88348528D01*
X54044121Y-89129407D01*
X44774488Y-89129407D01*
X44774488Y-87638928D01*
X52833482Y-87638928D01*
X52931911Y-88133768D01*
X53195593Y-88280879D01*
X53976472Y-87500000D01*
X55673528Y-87500000D01*
X56454407Y-88280879D01*
X56718089Y-88133768D01*
X56816518Y-87361072D01*
X56718089Y-86866232D01*
X56454407Y-86719121D01*
X55673528Y-87500000D01*
X53976472Y-87500000D01*
X53195593Y-86719121D01*
X52931911Y-86866232D01*
X52833482Y-87638928D01*
X44774488Y-87638928D01*
X44774488Y-86500000D01*
X44687327Y-86036778D01*
X44580390Y-85870593D01*
X54044121Y-85870593D01*
X54825000Y-86651472D01*
X55605879Y-85870593D01*
X55458768Y-85606911D01*
X54686072Y-85508482D01*
X54191232Y-85606911D01*
X54044121Y-85870593D01*
X44580390Y-85870593D01*
X44413563Y-85611337D01*
X43995847Y-85325924D01*
X43500000Y-85225512D01*
X40500000Y-85225512D01*
X40036778Y-85312673D01*
X39611337Y-85586437D01*
X39325924Y-86004153D01*
X39225512Y-86500000D01*
X39225512Y-89500000D01*
X39272553Y-89750000D01*
X37609340Y-89750000D01*
X36920000Y-89060660D01*
X36230660Y-89750000D01*
X27325000Y-89750000D01*
X27325000Y-88221149D01*
X34628408Y-88221149D01*
X34718216Y-88672639D01*
X34993039Y-88866301D01*
X35859340Y-88000000D01*
X37980660Y-88000000D01*
X38846961Y-88866301D01*
X39121784Y-88672639D01*
X39211592Y-87778851D01*
X39121784Y-87327361D01*
X38846961Y-87133699D01*
X37980660Y-88000000D01*
X35859340Y-88000000D01*
X34993039Y-87133699D01*
X34718216Y-87327361D01*
X34628408Y-88221149D01*
X27325000Y-88221149D01*
X27325000Y-86073039D01*
X36053699Y-86073039D01*
X36920000Y-86939340D01*
X37786301Y-86073039D01*
X37592639Y-85798216D01*
X36698851Y-85708408D01*
X36247361Y-85798216D01*
X36053699Y-86073039D01*
X27325000Y-86073039D01*
X27325000Y-84570589D01*
X74749610Y-84570589D01*
X75091431Y-85397858D01*
X75723813Y-86031345D01*
X76550484Y-86374608D01*
X77445589Y-86375390D01*
X78272858Y-86033569D01*
X78906345Y-85401187D01*
X79249608Y-84574516D01*
X79250390Y-83679411D01*
X78908569Y-82852142D01*
X78276187Y-82218655D01*
X77449516Y-81875392D01*
X76554411Y-81874610D01*
X75727142Y-82216431D01*
X75093655Y-82848813D01*
X74750392Y-83675484D01*
X74749610Y-84570589D01*
X27325000Y-84570589D01*
X27325000Y-79050000D01*
X37375512Y-79050000D01*
X37375512Y-81450000D01*
X37462673Y-81913222D01*
X37736437Y-82338663D01*
X38154153Y-82624076D01*
X38650000Y-82724488D01*
X41050000Y-82724488D01*
X41513222Y-82637327D01*
X41938663Y-82363563D01*
X42224076Y-81945847D01*
X42324488Y-81450000D01*
X42324488Y-79050000D01*
X52150512Y-79050000D01*
X52150512Y-81450000D01*
X52237673Y-81913222D01*
X52511437Y-82338663D01*
X52929153Y-82624076D01*
X53425000Y-82724488D01*
X55825000Y-82724488D01*
X56288222Y-82637327D01*
X56713663Y-82363563D01*
X56999076Y-81945847D01*
X57099488Y-81450000D01*
X57099488Y-79050000D01*
X57012327Y-78586778D01*
X56738563Y-78161337D01*
X56432191Y-77952002D01*
X62475000Y-77952002D01*
X62475000Y-78047998D01*
X62661495Y-78985572D01*
X63192588Y-79780410D01*
X63987426Y-80311503D01*
X64925000Y-80497998D01*
X65862574Y-80311503D01*
X66657412Y-79780410D01*
X67024166Y-79231524D01*
X67379153Y-79474076D01*
X67875000Y-79574488D01*
X70075000Y-79574488D01*
X70538222Y-79487327D01*
X70963663Y-79213563D01*
X71249076Y-78795847D01*
X71349488Y-78300000D01*
X71349488Y-78125000D01*
X74725512Y-78125000D01*
X74725512Y-80125000D01*
X74812673Y-80588222D01*
X75086437Y-81013663D01*
X75504153Y-81299076D01*
X76000000Y-81399488D01*
X78000000Y-81399488D01*
X78463222Y-81312327D01*
X78888663Y-81038563D01*
X79174076Y-80620847D01*
X79220823Y-80390000D01*
X87805512Y-80390000D01*
X87805512Y-81910000D01*
X87892673Y-82373222D01*
X88085773Y-82673307D01*
X87830350Y-83288432D01*
X87829652Y-84088060D01*
X88135012Y-84827086D01*
X88267431Y-84959736D01*
X88136999Y-85089940D01*
X87830350Y-85828432D01*
X87829652Y-86628060D01*
X88135012Y-87367086D01*
X88699940Y-87933001D01*
X89438432Y-88239650D01*
X90238060Y-88240348D01*
X90977086Y-87934988D01*
X91543001Y-87370060D01*
X91849650Y-86631568D01*
X91850348Y-85831940D01*
X91544988Y-85092914D01*
X91412569Y-84960264D01*
X91543001Y-84830060D01*
X91849650Y-84091568D01*
X91850348Y-83291940D01*
X91593450Y-82670202D01*
X91774076Y-82405847D01*
X91874488Y-81910000D01*
X91874488Y-80390000D01*
X91802610Y-80008000D01*
X91950002Y-80008000D01*
X91950002Y-79328954D01*
X92124694Y-79080635D01*
X92016307Y-78850000D01*
X91100000Y-78850000D01*
X91100000Y-79218762D01*
X91095847Y-79215924D01*
X90600000Y-79115512D01*
X90300000Y-79115512D01*
X90300000Y-78850000D01*
X89383693Y-78850000D01*
X89275306Y-79080635D01*
X89299842Y-79115512D01*
X89080000Y-79115512D01*
X88616778Y-79202673D01*
X88191337Y-79476437D01*
X87905924Y-79894153D01*
X87805512Y-80390000D01*
X79220823Y-80390000D01*
X79274488Y-80125000D01*
X79274488Y-78125000D01*
X79216979Y-77819365D01*
X89275306Y-77819365D01*
X89383693Y-78050000D01*
X90300000Y-78050000D01*
X90300000Y-77141263D01*
X91100000Y-77141263D01*
X91100000Y-78050000D01*
X92016307Y-78050000D01*
X92124694Y-77819365D01*
X91774912Y-77322162D01*
X91330631Y-77025335D01*
X91100000Y-77141263D01*
X90300000Y-77141263D01*
X90069369Y-77025335D01*
X89625088Y-77322162D01*
X89275306Y-77819365D01*
X79216979Y-77819365D01*
X79187327Y-77661778D01*
X78913563Y-77236337D01*
X78495847Y-76950924D01*
X78000000Y-76850512D01*
X76000000Y-76850512D01*
X75536778Y-76937673D01*
X75111337Y-77211437D01*
X74825924Y-77629153D01*
X74725512Y-78125000D01*
X71349488Y-78125000D01*
X71349488Y-76405981D01*
X93949645Y-76405981D01*
X94261081Y-77159715D01*
X94837252Y-77736892D01*
X95590441Y-78049643D01*
X96405981Y-78050355D01*
X97159715Y-77738919D01*
X97736892Y-77162748D01*
X97910370Y-76744966D01*
X98061081Y-77109715D01*
X98551492Y-77600982D01*
X98276778Y-77652673D01*
X97851337Y-77926437D01*
X97565924Y-78344153D01*
X97465512Y-78840000D01*
X97465512Y-80360000D01*
X97552673Y-80823222D01*
X97745773Y-81123307D01*
X97490350Y-81738432D01*
X97489652Y-82538060D01*
X97795012Y-83277086D01*
X97927431Y-83409736D01*
X97796999Y-83539940D01*
X97490350Y-84278432D01*
X97489652Y-85078060D01*
X97795012Y-85817086D01*
X98359940Y-86383001D01*
X99098432Y-86689650D01*
X99898060Y-86690348D01*
X100637086Y-86384988D01*
X101203001Y-85820060D01*
X101509650Y-85081568D01*
X101510348Y-84281940D01*
X101204988Y-83542914D01*
X101072569Y-83410264D01*
X101203001Y-83280060D01*
X101509650Y-82541568D01*
X101510204Y-81905981D01*
X104859645Y-81905981D01*
X105171081Y-82659715D01*
X105747252Y-83236892D01*
X106500441Y-83549643D01*
X107315981Y-83550355D01*
X108069715Y-83238919D01*
X108646892Y-82662748D01*
X108932469Y-81975000D01*
X120077879Y-81975000D01*
X120241538Y-82797769D01*
X120707599Y-83495280D01*
X121405110Y-83961341D01*
X122227879Y-84125000D01*
X122312121Y-84125000D01*
X123134890Y-83961341D01*
X123540000Y-83690656D01*
X123945110Y-83961341D01*
X124767879Y-84125000D01*
X124852121Y-84125000D01*
X125674890Y-83961341D01*
X125751162Y-83910378D01*
X125954153Y-84049076D01*
X126450000Y-84149488D01*
X128250000Y-84149488D01*
X128713222Y-84062327D01*
X129138663Y-83788563D01*
X129424076Y-83370847D01*
X129524488Y-82875000D01*
X129524488Y-81075000D01*
X129437327Y-80611778D01*
X129243227Y-80310138D01*
X139279658Y-80310138D01*
X139578941Y-81034458D01*
X139733998Y-81189785D01*
X139580889Y-81342627D01*
X139280342Y-82066424D01*
X139279658Y-82850138D01*
X139578941Y-83574458D01*
X139733998Y-83729785D01*
X139580889Y-83882627D01*
X139280342Y-84606424D01*
X139279658Y-85390138D01*
X139578941Y-86114458D01*
X140132627Y-86669111D01*
X140856424Y-86969658D01*
X141640138Y-86970342D01*
X142364458Y-86671059D01*
X142919111Y-86117373D01*
X143219658Y-85393576D01*
X143220219Y-84750000D01*
X144039838Y-84750000D01*
X144195885Y-85534501D01*
X144640269Y-86199569D01*
X145305337Y-86643953D01*
X146089838Y-86800000D01*
X146170162Y-86800000D01*
X146954663Y-86643953D01*
X147619731Y-86199569D01*
X148064115Y-85534501D01*
X148139407Y-85155981D01*
X151699645Y-85155981D01*
X152011081Y-85909715D01*
X152587252Y-86486892D01*
X153340441Y-86799643D01*
X154155981Y-86800355D01*
X154909715Y-86488919D01*
X155486892Y-85912748D01*
X155799643Y-85159559D01*
X155800355Y-84344019D01*
X155691198Y-84079838D01*
X175700000Y-84079838D01*
X175700000Y-84160162D01*
X175856047Y-84944663D01*
X176300431Y-85609731D01*
X176965499Y-86054115D01*
X177750000Y-86210162D01*
X178534501Y-86054115D01*
X179199569Y-85609731D01*
X179260297Y-85518845D01*
X179215512Y-85740000D01*
X179215512Y-87260000D01*
X179302673Y-87723222D01*
X179576437Y-88148663D01*
X179994153Y-88434076D01*
X180490000Y-88534488D01*
X182010000Y-88534488D01*
X182473222Y-88447327D01*
X182773307Y-88254227D01*
X183388432Y-88509650D01*
X184188060Y-88510348D01*
X184927086Y-88204988D01*
X185059736Y-88072569D01*
X185189940Y-88203001D01*
X185928432Y-88509650D01*
X186728060Y-88510348D01*
X187427973Y-88221149D01*
X234628408Y-88221149D01*
X234718216Y-88672639D01*
X234993039Y-88866301D01*
X235859340Y-88000000D01*
X237980660Y-88000000D01*
X238846961Y-88866301D01*
X239121784Y-88672639D01*
X239211592Y-87778851D01*
X239121784Y-87327361D01*
X238846961Y-87133699D01*
X237980660Y-88000000D01*
X235859340Y-88000000D01*
X234993039Y-87133699D01*
X234718216Y-87327361D01*
X234628408Y-88221149D01*
X187427973Y-88221149D01*
X187467086Y-88204988D01*
X188033001Y-87640060D01*
X188339650Y-86901568D01*
X188340348Y-86101940D01*
X188034988Y-85362914D01*
X187470060Y-84796999D01*
X186731568Y-84490350D01*
X185931940Y-84489652D01*
X185192914Y-84795012D01*
X185060264Y-84927431D01*
X184930060Y-84796999D01*
X184191568Y-84490350D01*
X183391940Y-84489652D01*
X182770202Y-84746550D01*
X182505847Y-84565924D01*
X182010000Y-84465512D01*
X180490000Y-84465512D01*
X180026778Y-84552673D01*
X179677177Y-84777635D01*
X179800000Y-84160162D01*
X179800000Y-84079838D01*
X179643953Y-83295337D01*
X179199569Y-82630269D01*
X178534501Y-82185885D01*
X177750000Y-82029838D01*
X176965499Y-82185885D01*
X176300431Y-82630269D01*
X175856047Y-83295337D01*
X175700000Y-84079838D01*
X155691198Y-84079838D01*
X155488919Y-83590285D01*
X154912748Y-83013108D01*
X154899019Y-83007407D01*
X155359731Y-82699569D01*
X155804115Y-82034501D01*
X155829679Y-81905981D01*
X179449645Y-81905981D01*
X179761081Y-82659715D01*
X180337252Y-83236892D01*
X181090441Y-83549643D01*
X181905981Y-83550355D01*
X182659715Y-83238919D01*
X183236892Y-82662748D01*
X183549643Y-81909559D01*
X183550355Y-81094019D01*
X183238919Y-80340285D01*
X182662748Y-79763108D01*
X181909559Y-79450357D01*
X181094019Y-79449645D01*
X180340285Y-79761081D01*
X179763108Y-80337252D01*
X179450357Y-81090441D01*
X179449645Y-81905981D01*
X155829679Y-81905981D01*
X155960162Y-81250000D01*
X155804115Y-80465499D01*
X155359731Y-79800431D01*
X154694663Y-79356047D01*
X153910162Y-79200000D01*
X153829838Y-79200000D01*
X153045337Y-79356047D01*
X152380269Y-79800431D01*
X151935885Y-80465499D01*
X151779838Y-81250000D01*
X151935885Y-82034501D01*
X152380269Y-82699569D01*
X152748588Y-82945672D01*
X152590285Y-83011081D01*
X152013108Y-83587252D01*
X151700357Y-84340441D01*
X151699645Y-85155981D01*
X148139407Y-85155981D01*
X148220162Y-84750000D01*
X148064115Y-83965499D01*
X147619731Y-83300431D01*
X147251412Y-83054328D01*
X147409715Y-82988919D01*
X147986892Y-82412748D01*
X148299643Y-81659559D01*
X148300355Y-80844019D01*
X147988919Y-80090285D01*
X147412748Y-79513108D01*
X146659559Y-79200357D01*
X145844019Y-79199645D01*
X145090285Y-79511081D01*
X144513108Y-80087252D01*
X144200357Y-80840441D01*
X144199645Y-81655981D01*
X144511081Y-82409715D01*
X145087252Y-82986892D01*
X145100981Y-82992593D01*
X144640269Y-83300431D01*
X144195885Y-83965499D01*
X144039838Y-84750000D01*
X143220219Y-84750000D01*
X143220342Y-84609862D01*
X142921059Y-83885542D01*
X142766002Y-83730215D01*
X142919111Y-83577373D01*
X143219658Y-82853576D01*
X143220342Y-82069862D01*
X142921059Y-81345542D01*
X142766002Y-81190215D01*
X142919111Y-81037373D01*
X143219658Y-80313576D01*
X143220342Y-79529862D01*
X142921059Y-78805542D01*
X142790745Y-78675000D01*
X160777879Y-78675000D01*
X160941538Y-79497769D01*
X161407599Y-80195280D01*
X162105110Y-80661341D01*
X162927879Y-80825000D01*
X163012121Y-80825000D01*
X163834890Y-80661341D01*
X164240000Y-80390656D01*
X164645110Y-80661341D01*
X165467879Y-80825000D01*
X165552121Y-80825000D01*
X166374890Y-80661341D01*
X166451162Y-80610378D01*
X166654153Y-80749076D01*
X167150000Y-80849488D01*
X168950000Y-80849488D01*
X169413222Y-80762327D01*
X169838663Y-80488563D01*
X170124076Y-80070847D01*
X170224488Y-79575000D01*
X170224488Y-79200000D01*
X186425512Y-79200000D01*
X186425512Y-80800000D01*
X186512673Y-81263222D01*
X186786437Y-81688663D01*
X187204153Y-81974076D01*
X187700000Y-82074488D01*
X189300000Y-82074488D01*
X189763222Y-81987327D01*
X190188663Y-81713563D01*
X190474076Y-81295847D01*
X190574488Y-80800000D01*
X190574488Y-79200000D01*
X190487327Y-78736778D01*
X190316431Y-78471198D01*
X190549643Y-77909559D01*
X190550355Y-77094019D01*
X190238919Y-76340285D01*
X189662748Y-75763108D01*
X188909559Y-75450357D01*
X188094019Y-75449645D01*
X187340285Y-75761081D01*
X186763108Y-76337252D01*
X186450357Y-77090441D01*
X186449645Y-77905981D01*
X186683906Y-78472938D01*
X186525924Y-78704153D01*
X186425512Y-79200000D01*
X170224488Y-79200000D01*
X170224488Y-77775000D01*
X170137327Y-77311778D01*
X169863563Y-76886337D01*
X169445847Y-76600924D01*
X168950000Y-76500512D01*
X167150000Y-76500512D01*
X166686778Y-76587673D01*
X166450907Y-76739452D01*
X166374890Y-76688659D01*
X165552121Y-76525000D01*
X165467879Y-76525000D01*
X164645110Y-76688659D01*
X164240000Y-76959344D01*
X163834890Y-76688659D01*
X163012121Y-76525000D01*
X162927879Y-76525000D01*
X162105110Y-76688659D01*
X161407599Y-77154720D01*
X160941538Y-77852231D01*
X160777879Y-78675000D01*
X142790745Y-78675000D01*
X142367373Y-78250889D01*
X141643576Y-77950342D01*
X140859862Y-77949658D01*
X140135542Y-78248941D01*
X139580889Y-78802627D01*
X139280342Y-79526424D01*
X139279658Y-80310138D01*
X129243227Y-80310138D01*
X129163563Y-80186337D01*
X128745847Y-79900924D01*
X128250000Y-79800512D01*
X126450000Y-79800512D01*
X125986778Y-79887673D01*
X125750907Y-80039452D01*
X125674890Y-79988659D01*
X124852121Y-79825000D01*
X124767879Y-79825000D01*
X123945110Y-79988659D01*
X123540000Y-80259344D01*
X123134890Y-79988659D01*
X122312121Y-79825000D01*
X122227879Y-79825000D01*
X121405110Y-79988659D01*
X120707599Y-80454720D01*
X120241538Y-81152231D01*
X120077879Y-81975000D01*
X108932469Y-81975000D01*
X108959643Y-81909559D01*
X108960355Y-81094019D01*
X108648919Y-80340285D01*
X108072748Y-79763108D01*
X107319559Y-79450357D01*
X106504019Y-79449645D01*
X105750285Y-79761081D01*
X105173108Y-80337252D01*
X104860357Y-81090441D01*
X104859645Y-81905981D01*
X101510204Y-81905981D01*
X101510348Y-81741940D01*
X101253450Y-81120202D01*
X101434076Y-80855847D01*
X101534488Y-80360000D01*
X101534488Y-78840000D01*
X101447327Y-78376778D01*
X101173563Y-77951337D01*
X100853645Y-77732746D01*
X100959715Y-77688919D01*
X101536892Y-77112748D01*
X101649891Y-76840615D01*
X101761081Y-77109715D01*
X102337252Y-77686892D01*
X103090441Y-77999643D01*
X103905981Y-78000355D01*
X104659715Y-77688919D01*
X105236892Y-77112748D01*
X105549643Y-76359559D01*
X105550355Y-75544019D01*
X105238919Y-74790285D01*
X104662748Y-74213108D01*
X103909559Y-73900357D01*
X103094019Y-73899645D01*
X102340285Y-74211081D01*
X101763108Y-74787252D01*
X101650109Y-75059385D01*
X101538919Y-74790285D01*
X100962748Y-74213108D01*
X100209559Y-73900357D01*
X99394019Y-73899645D01*
X98640285Y-74211081D01*
X98063108Y-74787252D01*
X97889630Y-75205034D01*
X97738919Y-74840285D01*
X97162748Y-74263108D01*
X96409559Y-73950357D01*
X95594019Y-73949645D01*
X94840285Y-74261081D01*
X94263108Y-74837252D01*
X93950357Y-75590441D01*
X93949645Y-76405981D01*
X71349488Y-76405981D01*
X71349488Y-76100000D01*
X71262327Y-75636778D01*
X70988563Y-75211337D01*
X70570847Y-74925924D01*
X70075000Y-74825512D01*
X67875000Y-74825512D01*
X67411778Y-74912673D01*
X66986337Y-75186437D01*
X66700924Y-75604153D01*
X66600512Y-76100000D01*
X66600512Y-76181571D01*
X65862574Y-75688497D01*
X64925000Y-75502002D01*
X63987426Y-75688497D01*
X63192588Y-76219590D01*
X62661495Y-77014428D01*
X62475000Y-77952002D01*
X56432191Y-77952002D01*
X56320847Y-77875924D01*
X55825000Y-77775512D01*
X53425000Y-77775512D01*
X52961778Y-77862673D01*
X52536337Y-78136437D01*
X52250924Y-78554153D01*
X52150512Y-79050000D01*
X42324488Y-79050000D01*
X42237327Y-78586778D01*
X41963563Y-78161337D01*
X41545847Y-77875924D01*
X41050000Y-77775512D01*
X38650000Y-77775512D01*
X38186778Y-77862673D01*
X37761337Y-78136437D01*
X37475924Y-78554153D01*
X37375512Y-79050000D01*
X27325000Y-79050000D01*
X27325000Y-74379407D01*
X39069121Y-74379407D01*
X39216232Y-74643089D01*
X39988928Y-74741518D01*
X40483768Y-74643089D01*
X40630879Y-74379407D01*
X53844121Y-74379407D01*
X53991232Y-74643089D01*
X54763928Y-74741518D01*
X55258768Y-74643089D01*
X55405879Y-74379407D01*
X54625000Y-73598528D01*
X53844121Y-74379407D01*
X40630879Y-74379407D01*
X39850000Y-73598528D01*
X39069121Y-74379407D01*
X27325000Y-74379407D01*
X27325000Y-72888928D01*
X37858482Y-72888928D01*
X37956911Y-73383768D01*
X38220593Y-73530879D01*
X39001472Y-72750000D01*
X40698528Y-72750000D01*
X41479407Y-73530879D01*
X41743089Y-73383768D01*
X41806123Y-72888928D01*
X52633482Y-72888928D01*
X52731911Y-73383768D01*
X52995593Y-73530879D01*
X53776472Y-72750000D01*
X55473528Y-72750000D01*
X56254407Y-73530879D01*
X56518089Y-73383768D01*
X56579713Y-72900000D01*
X112962002Y-72900000D01*
X113148497Y-73837574D01*
X113679590Y-74632412D01*
X114474428Y-75163505D01*
X115412002Y-75350000D01*
X115507998Y-75350000D01*
X116445572Y-75163505D01*
X117240410Y-74632412D01*
X117771503Y-73837574D01*
X117861486Y-73385197D01*
X128249576Y-73385197D01*
X128621780Y-74286000D01*
X129310375Y-74975798D01*
X130210527Y-75349573D01*
X131185197Y-75350424D01*
X132086000Y-74978220D01*
X132775798Y-74289625D01*
X133149573Y-73389473D01*
X133150424Y-72414803D01*
X132778220Y-71514000D01*
X132089625Y-70824202D01*
X131189473Y-70450427D01*
X130214803Y-70449576D01*
X129314000Y-70821780D01*
X128624202Y-71510375D01*
X128250427Y-72410527D01*
X128249576Y-73385197D01*
X117861486Y-73385197D01*
X117957998Y-72900000D01*
X117771503Y-71962426D01*
X117240410Y-71167588D01*
X116445572Y-70636495D01*
X115507998Y-70450000D01*
X115412002Y-70450000D01*
X114474428Y-70636495D01*
X113679590Y-71167588D01*
X113148497Y-71962426D01*
X112962002Y-72900000D01*
X56579713Y-72900000D01*
X56616518Y-72611072D01*
X56518089Y-72116232D01*
X56254407Y-71969121D01*
X55473528Y-72750000D01*
X53776472Y-72750000D01*
X52995593Y-71969121D01*
X52731911Y-72116232D01*
X52633482Y-72888928D01*
X41806123Y-72888928D01*
X41841518Y-72611072D01*
X41743089Y-72116232D01*
X41479407Y-71969121D01*
X40698528Y-72750000D01*
X39001472Y-72750000D01*
X38220593Y-71969121D01*
X37956911Y-72116232D01*
X37858482Y-72888928D01*
X27325000Y-72888928D01*
X27325000Y-68250000D01*
X27818020Y-68250000D01*
X29949010Y-70380991D01*
X29949010Y-70380991D01*
G37*
X29949010Y-70380991D02*
X30351077Y-70649643D01*
X30678962Y-70868729D01*
X31540000Y-71040000D01*
X39114085Y-71040000D01*
X39069121Y-71120593D01*
X39850000Y-71901472D01*
X40630879Y-71120593D01*
X40585915Y-71040000D01*
X53889085Y-71040000D01*
X53844121Y-71120593D01*
X54625000Y-71901472D01*
X55405879Y-71120593D01*
X55317871Y-70962848D01*
X55791038Y-70868729D01*
X56520990Y-70380990D01*
X58651981Y-68250000D01*
X66725000Y-68250000D01*
X66725000Y-69031227D01*
X66625000Y-69533961D01*
X66625000Y-69626039D01*
X66803883Y-70525345D01*
X67313299Y-71287740D01*
X68075694Y-71797156D01*
X68975000Y-71976039D01*
X69874306Y-71797156D01*
X70636701Y-71287740D01*
X71146117Y-70525345D01*
X71325000Y-69626039D01*
X71325000Y-69533961D01*
X71225000Y-69031227D01*
X71225000Y-68250000D01*
X88650174Y-68250000D01*
X88649645Y-68855981D01*
X88961081Y-69609715D01*
X89537252Y-70186892D01*
X90290441Y-70499643D01*
X91105981Y-70500355D01*
X91859715Y-70188919D01*
X92436892Y-69612748D01*
X92749643Y-68859559D01*
X92750175Y-68250000D01*
X93967870Y-68250000D01*
X93950000Y-68339838D01*
X93950000Y-68420162D01*
X94106047Y-69204663D01*
X94550431Y-69869731D01*
X95215499Y-70314115D01*
X96000000Y-70470162D01*
X96784501Y-70314115D01*
X97449569Y-69869731D01*
X97893953Y-69204663D01*
X97904973Y-69149263D01*
X97906047Y-69154663D01*
X98350431Y-69819731D01*
X99015499Y-70264115D01*
X99800000Y-70420162D01*
X100584501Y-70264115D01*
X101249569Y-69819731D01*
X101650000Y-69220443D01*
X102050431Y-69819731D01*
X102715499Y-70264115D01*
X103500000Y-70420162D01*
X104284501Y-70264115D01*
X104949569Y-69819731D01*
X105047978Y-69672451D01*
X105460431Y-70289731D01*
X106125499Y-70734115D01*
X106910000Y-70890162D01*
X107694501Y-70734115D01*
X108359569Y-70289731D01*
X108803953Y-69624663D01*
X108960000Y-68840162D01*
X108960000Y-68759838D01*
X108858587Y-68250000D01*
X118525126Y-68250000D01*
X118661830Y-68386704D01*
X118539838Y-69000000D01*
X118695885Y-69784501D01*
X119140269Y-70449569D01*
X119805337Y-70893953D01*
X120589838Y-71050000D01*
X120670162Y-71050000D01*
X121454663Y-70893953D01*
X122119731Y-70449569D01*
X122564115Y-69784501D01*
X122720162Y-69000000D01*
X122570978Y-68250000D01*
X126341720Y-68250000D01*
X126200357Y-68590441D01*
X126199645Y-69405981D01*
X126511081Y-70159715D01*
X127087252Y-70736892D01*
X127840441Y-71049643D01*
X128655981Y-71050355D01*
X129409715Y-70738919D01*
X129986892Y-70162748D01*
X130299643Y-69409559D01*
X130300355Y-68594019D01*
X130158209Y-68250000D01*
X131341720Y-68250000D01*
X131200357Y-68590441D01*
X131199645Y-69405981D01*
X131511081Y-70159715D01*
X132087252Y-70736892D01*
X132840441Y-71049643D01*
X133655981Y-71050355D01*
X134409715Y-70738919D01*
X134986892Y-70162748D01*
X135299643Y-69409559D01*
X135300355Y-68594019D01*
X135158209Y-68250000D01*
X135444489Y-68250000D01*
X135365512Y-68640000D01*
X135365512Y-70160000D01*
X135452673Y-70623222D01*
X135645773Y-70923307D01*
X135390350Y-71538432D01*
X135389652Y-72338060D01*
X135695012Y-73077086D01*
X135827431Y-73209736D01*
X135696999Y-73339940D01*
X135390350Y-74078432D01*
X135389652Y-74878060D01*
X135695012Y-75617086D01*
X136259940Y-76183001D01*
X136998432Y-76489650D01*
X137798060Y-76490348D01*
X138537086Y-76184988D01*
X139103001Y-75620060D01*
X139409650Y-74881568D01*
X139410348Y-74081940D01*
X139104988Y-73342914D01*
X138972569Y-73210264D01*
X139103001Y-73080060D01*
X139409650Y-72341568D01*
X139410348Y-71541940D01*
X139153450Y-70920202D01*
X139334076Y-70655847D01*
X139434488Y-70160000D01*
X139434488Y-68640000D01*
X139361105Y-68250000D01*
X139925512Y-68250000D01*
X139925512Y-69550000D01*
X140012673Y-70013222D01*
X140286437Y-70438663D01*
X140704153Y-70724076D01*
X141200000Y-70824488D01*
X142800000Y-70824488D01*
X143263222Y-70737327D01*
X143688663Y-70463563D01*
X143974076Y-70045847D01*
X144074488Y-69550000D01*
X144074488Y-68250000D01*
X144850000Y-68250000D01*
X144850000Y-68899201D01*
X144600348Y-69500430D01*
X144599654Y-70296079D01*
X144903494Y-71031429D01*
X145422023Y-71550864D01*
X145211337Y-71686437D01*
X144925924Y-72104153D01*
X144825512Y-72600000D01*
X144825512Y-74400000D01*
X144912673Y-74863222D01*
X145186437Y-75288663D01*
X145604153Y-75574076D01*
X146100000Y-75674488D01*
X147900000Y-75674488D01*
X148363222Y-75587327D01*
X148599093Y-75435548D01*
X148675110Y-75486341D01*
X149497879Y-75650000D01*
X149582121Y-75650000D01*
X150404890Y-75486341D01*
X150810000Y-75215656D01*
X151215110Y-75486341D01*
X152037879Y-75650000D01*
X152122121Y-75650000D01*
X152944890Y-75486341D01*
X153642401Y-75020280D01*
X154108462Y-74322769D01*
X154272121Y-73500000D01*
X154108462Y-72677231D01*
X153642401Y-71979720D01*
X152944890Y-71513659D01*
X152122121Y-71350000D01*
X152037879Y-71350000D01*
X151215110Y-71513659D01*
X150810000Y-71784344D01*
X150404890Y-71513659D01*
X149582121Y-71350000D01*
X149497879Y-71350000D01*
X148675110Y-71513659D01*
X148598838Y-71564622D01*
X148395847Y-71425924D01*
X147985543Y-71342835D01*
X148294529Y-71034388D01*
X148599652Y-70299570D01*
X148600346Y-69503921D01*
X148350000Y-68898037D01*
X148350000Y-68250000D01*
X153315337Y-68250000D01*
X153200000Y-68829838D01*
X153200000Y-68910162D01*
X153356047Y-69694663D01*
X153800431Y-70359731D01*
X154465499Y-70804115D01*
X155250000Y-70960162D01*
X156034501Y-70804115D01*
X156674423Y-70376533D01*
X156890269Y-70699569D01*
X157555337Y-71143953D01*
X158339838Y-71300000D01*
X158420162Y-71300000D01*
X159204663Y-71143953D01*
X159869731Y-70699569D01*
X160314115Y-70034501D01*
X160470162Y-69250000D01*
X160314115Y-68465499D01*
X160170123Y-68250000D01*
X164195529Y-68250000D01*
X163950357Y-68840441D01*
X163949645Y-69655981D01*
X164261081Y-70409715D01*
X164837252Y-70986892D01*
X165590441Y-71299643D01*
X166405981Y-71300355D01*
X167159715Y-70988919D01*
X167363109Y-70785879D01*
X167529940Y-70953001D01*
X168268432Y-71259650D01*
X169068060Y-71260348D01*
X169807086Y-70954988D01*
X169939736Y-70822569D01*
X170069940Y-70953001D01*
X170808432Y-71259650D01*
X171608060Y-71260348D01*
X172229798Y-71003450D01*
X172494153Y-71184076D01*
X172990000Y-71284488D01*
X174510000Y-71284488D01*
X174973222Y-71197327D01*
X175398663Y-70923563D01*
X175461662Y-70831361D01*
X175555337Y-70893953D01*
X176313172Y-71044696D01*
X175979590Y-71267588D01*
X175448497Y-72062426D01*
X175262002Y-73000000D01*
X175448497Y-73937574D01*
X175979590Y-74732412D01*
X176362623Y-74988346D01*
X176013108Y-75337252D01*
X175700357Y-76090441D01*
X175699645Y-76905981D01*
X176011081Y-77659715D01*
X176587252Y-78236892D01*
X177340441Y-78549643D01*
X178155981Y-78550355D01*
X178909715Y-78238919D01*
X179486892Y-77662748D01*
X179624953Y-77330260D01*
X179761081Y-77659715D01*
X180337252Y-78236892D01*
X181090441Y-78549643D01*
X181905981Y-78550355D01*
X182659715Y-78238919D01*
X183236892Y-77662748D01*
X183549643Y-76909559D01*
X183550355Y-76094019D01*
X183238919Y-75340285D01*
X182662748Y-74763108D01*
X181909559Y-74450357D01*
X181094019Y-74449645D01*
X180340285Y-74761081D01*
X179763108Y-75337252D01*
X179625047Y-75669740D01*
X179488919Y-75340285D01*
X179145509Y-74996276D01*
X179540410Y-74732412D01*
X180071503Y-73937574D01*
X180161486Y-73485197D01*
X190549576Y-73485197D01*
X190921780Y-74386000D01*
X191610375Y-75075798D01*
X192510527Y-75449573D01*
X193485197Y-75450424D01*
X194386000Y-75078220D01*
X195075798Y-74389625D01*
X195449573Y-73489473D01*
X195450424Y-72514803D01*
X195078220Y-71614000D01*
X194389625Y-70924202D01*
X193489473Y-70550427D01*
X192514803Y-70549576D01*
X191614000Y-70921780D01*
X190924202Y-71610375D01*
X190550427Y-72510527D01*
X190549576Y-73485197D01*
X180161486Y-73485197D01*
X180257998Y-73000000D01*
X180071503Y-72062426D01*
X179540410Y-71267588D01*
X178745572Y-70736495D01*
X177807998Y-70550000D01*
X177719425Y-70550000D01*
X177869731Y-70449569D01*
X178314115Y-69784501D01*
X178470162Y-69000000D01*
X178320978Y-68250000D01*
X181750000Y-68250000D01*
X181750000Y-69000000D01*
X181921271Y-69861038D01*
X182409010Y-70590990D01*
X183138962Y-71078729D01*
X184000000Y-71250000D01*
X184861038Y-71078729D01*
X185351670Y-70750899D01*
X185587252Y-70986892D01*
X186340441Y-71299643D01*
X187155981Y-71300355D01*
X187909715Y-70988919D01*
X188486892Y-70412748D01*
X188799643Y-69659559D01*
X188800355Y-68844019D01*
X188554912Y-68250000D01*
X194478156Y-68250000D01*
X194826279Y-68482608D01*
X196070000Y-68730000D01*
X196125512Y-68718958D01*
X196125512Y-69600000D01*
X196212673Y-70063222D01*
X196486437Y-70488663D01*
X196904153Y-70774076D01*
X197400000Y-70874488D01*
X199600000Y-70874488D01*
X200063222Y-70787327D01*
X200488663Y-70513563D01*
X200750000Y-70131083D01*
X200750000Y-75571227D01*
X200671117Y-75174655D01*
X200161701Y-74412260D01*
X199399306Y-73902844D01*
X198500000Y-73723961D01*
X197600694Y-73902844D01*
X196838299Y-74412260D01*
X196328883Y-75174655D01*
X196150000Y-76073961D01*
X196150000Y-76166039D01*
X196245361Y-76645450D01*
X195900000Y-76575512D01*
X194100000Y-76575512D01*
X193636778Y-76662673D01*
X193211337Y-76936437D01*
X192925924Y-77354153D01*
X192825512Y-77850000D01*
X192825512Y-79650000D01*
X192912673Y-80113222D01*
X193063395Y-80347450D01*
X192850374Y-80860462D01*
X192849642Y-81700086D01*
X192344019Y-81699645D01*
X191590285Y-82011081D01*
X191013108Y-82587252D01*
X190700357Y-83340441D01*
X190699645Y-84155981D01*
X191011081Y-84909715D01*
X191587252Y-85486892D01*
X192340441Y-85799643D01*
X193155981Y-85800355D01*
X193909715Y-85488919D01*
X194486892Y-84912748D01*
X194799643Y-84159559D01*
X194800271Y-83439826D01*
X195425785Y-83440372D01*
X196216286Y-83113744D01*
X196821619Y-82509467D01*
X197149626Y-81719538D01*
X197150372Y-80864215D01*
X196936652Y-80346973D01*
X197074076Y-80145847D01*
X197174488Y-79650000D01*
X197174488Y-78052374D01*
X197600694Y-78337156D01*
X198500000Y-78516039D01*
X199399306Y-78337156D01*
X200161701Y-77827740D01*
X200671117Y-77065345D01*
X200750000Y-76668773D01*
X200750000Y-85000000D01*
X200769696Y-85097264D01*
X200825682Y-85179202D01*
X200909136Y-85232903D01*
X201000000Y-85250000D01*
X218000000Y-85250000D01*
X218097264Y-85230304D01*
X218179202Y-85174318D01*
X218232903Y-85090864D01*
X218250000Y-85000000D01*
X218250000Y-84592002D01*
X218550000Y-84592002D01*
X218550000Y-84687998D01*
X218736495Y-85625572D01*
X219267588Y-86420410D01*
X220062426Y-86951503D01*
X221000000Y-87137998D01*
X221937574Y-86951503D01*
X222732412Y-86420410D01*
X222964517Y-86073039D01*
X236053699Y-86073039D01*
X236920000Y-86939340D01*
X237359340Y-86500000D01*
X239225512Y-86500000D01*
X239225512Y-89500000D01*
X239312673Y-89963222D01*
X239586437Y-90388663D01*
X240004153Y-90674076D01*
X240500000Y-90774488D01*
X243500000Y-90774488D01*
X243963222Y-90687327D01*
X244388663Y-90413563D01*
X244674076Y-89995847D01*
X244774488Y-89500000D01*
X244774488Y-87185197D01*
X250549576Y-87185197D01*
X250921780Y-88086000D01*
X251610375Y-88775798D01*
X252510527Y-89149573D01*
X253485197Y-89150424D01*
X254386000Y-88778220D01*
X255075798Y-88089625D01*
X255449573Y-87189473D01*
X255450424Y-86214803D01*
X255078220Y-85314000D01*
X254389625Y-84624202D01*
X253489473Y-84250427D01*
X252514803Y-84249576D01*
X251614000Y-84621780D01*
X250924202Y-85310375D01*
X250550427Y-86210527D01*
X250549576Y-87185197D01*
X244774488Y-87185197D01*
X244774488Y-86500000D01*
X244687327Y-86036778D01*
X244413563Y-85611337D01*
X243995847Y-85325924D01*
X243500000Y-85225512D01*
X240500000Y-85225512D01*
X240036778Y-85312673D01*
X239611337Y-85586437D01*
X239325924Y-86004153D01*
X239225512Y-86500000D01*
X237359340Y-86500000D01*
X237786301Y-86073039D01*
X237592639Y-85798216D01*
X236698851Y-85708408D01*
X236247361Y-85798216D01*
X236053699Y-86073039D01*
X222964517Y-86073039D01*
X223263505Y-85625572D01*
X223450000Y-84687998D01*
X223450000Y-84592002D01*
X223263505Y-83654428D01*
X222732412Y-82859590D01*
X222652181Y-82805981D01*
X224749645Y-82805981D01*
X225061081Y-83559715D01*
X225637252Y-84136892D01*
X226390441Y-84449643D01*
X227205981Y-84450355D01*
X227959715Y-84138919D01*
X228536892Y-83562748D01*
X228573324Y-83475010D01*
X228850431Y-83889731D01*
X229515499Y-84334115D01*
X230300000Y-84490162D01*
X231084501Y-84334115D01*
X231749569Y-83889731D01*
X232193953Y-83224663D01*
X232350000Y-82440162D01*
X232350000Y-82359838D01*
X232193953Y-81575337D01*
X231749569Y-80910269D01*
X231084501Y-80465885D01*
X230300000Y-80309838D01*
X229515499Y-80465885D01*
X228850431Y-80910269D01*
X228573691Y-81324440D01*
X228538919Y-81240285D01*
X227962748Y-80663108D01*
X227209559Y-80350357D01*
X226394019Y-80349645D01*
X225640285Y-80661081D01*
X225063108Y-81237252D01*
X224750357Y-81990441D01*
X224749645Y-82805981D01*
X222652181Y-82805981D01*
X221937574Y-82328497D01*
X221000000Y-82142002D01*
X220062426Y-82328497D01*
X219267588Y-82859590D01*
X218736495Y-83654428D01*
X218550000Y-84592002D01*
X218250000Y-84592002D01*
X218250000Y-79230635D01*
X230775306Y-79230635D01*
X231125088Y-79727838D01*
X231569369Y-80024665D01*
X231800000Y-79908737D01*
X231800000Y-79000000D01*
X232600000Y-79000000D01*
X232600000Y-79908737D01*
X232830631Y-80024665D01*
X233274912Y-79727838D01*
X233372232Y-79589500D01*
X240042000Y-79589500D01*
X240042000Y-80150776D01*
X240157399Y-80429373D01*
X240370628Y-80642602D01*
X240649225Y-80758000D01*
X241210500Y-80758000D01*
X241400000Y-80568500D01*
X241400000Y-79400000D01*
X242600000Y-79400000D01*
X242600000Y-80568500D01*
X242789500Y-80758000D01*
X243350775Y-80758000D01*
X243629372Y-80642602D01*
X243842601Y-80429373D01*
X243958000Y-80150776D01*
X243958000Y-79589500D01*
X255442000Y-79589500D01*
X255442000Y-80150776D01*
X255557399Y-80429373D01*
X255770628Y-80642602D01*
X256049225Y-80758000D01*
X256610500Y-80758000D01*
X256800000Y-80568500D01*
X256800000Y-79400000D01*
X258000000Y-79400000D01*
X258000000Y-80568500D01*
X258189500Y-80758000D01*
X258750775Y-80758000D01*
X259029372Y-80642602D01*
X259242601Y-80429373D01*
X259358000Y-80150776D01*
X259358000Y-79589500D01*
X259168500Y-79400000D01*
X258000000Y-79400000D01*
X256800000Y-79400000D01*
X255631500Y-79400000D01*
X255442000Y-79589500D01*
X243958000Y-79589500D01*
X243768500Y-79400000D01*
X242600000Y-79400000D01*
X241400000Y-79400000D01*
X240231500Y-79400000D01*
X240042000Y-79589500D01*
X233372232Y-79589500D01*
X233624694Y-79230635D01*
X233516307Y-79000000D01*
X232600000Y-79000000D01*
X231800000Y-79000000D01*
X230883693Y-79000000D01*
X230775306Y-79230635D01*
X218250000Y-79230635D01*
X218250000Y-77969365D01*
X230775306Y-77969365D01*
X230883693Y-78200000D01*
X231800000Y-78200000D01*
X231800000Y-77291263D01*
X232600000Y-77291263D01*
X232600000Y-78200000D01*
X233516307Y-78200000D01*
X233624694Y-77969365D01*
X233274912Y-77472162D01*
X233240580Y-77449224D01*
X240042000Y-77449224D01*
X240042000Y-78010500D01*
X240231500Y-78200000D01*
X241400000Y-78200000D01*
X241400000Y-77031500D01*
X242600000Y-77031500D01*
X242600000Y-78200000D01*
X243768500Y-78200000D01*
X243958000Y-78010500D01*
X243958000Y-77449224D01*
X255442000Y-77449224D01*
X255442000Y-78010500D01*
X255631500Y-78200000D01*
X256800000Y-78200000D01*
X256800000Y-77031500D01*
X258000000Y-77031500D01*
X258000000Y-78200000D01*
X259168500Y-78200000D01*
X259358000Y-78010500D01*
X259358000Y-77449224D01*
X259242601Y-77170627D01*
X259029372Y-76957398D01*
X258750775Y-76842000D01*
X258189500Y-76842000D01*
X258000000Y-77031500D01*
X256800000Y-77031500D01*
X256610500Y-76842000D01*
X256049225Y-76842000D01*
X255770628Y-76957398D01*
X255557399Y-77170627D01*
X255442000Y-77449224D01*
X243958000Y-77449224D01*
X243842601Y-77170627D01*
X243629372Y-76957398D01*
X243350775Y-76842000D01*
X242789500Y-76842000D01*
X242600000Y-77031500D01*
X241400000Y-77031500D01*
X241210500Y-76842000D01*
X240649225Y-76842000D01*
X240370628Y-76957398D01*
X240157399Y-77170627D01*
X240042000Y-77449224D01*
X233240580Y-77449224D01*
X232830631Y-77175335D01*
X232600000Y-77291263D01*
X231800000Y-77291263D01*
X231569369Y-77175335D01*
X231125088Y-77472162D01*
X230775306Y-77969365D01*
X218250000Y-77969365D01*
X218250000Y-68250000D01*
X218750000Y-68250000D01*
X218750000Y-68429901D01*
X218550427Y-68910527D01*
X218549576Y-69885197D01*
X218921780Y-70786000D01*
X219610375Y-71475798D01*
X220510527Y-71849573D01*
X221485197Y-71850424D01*
X222386000Y-71478220D01*
X223075798Y-70789625D01*
X223449573Y-69889473D01*
X223450424Y-68914803D01*
X223250000Y-68429740D01*
X223250000Y-68250000D01*
X224309674Y-68250000D01*
X224421271Y-68811038D01*
X224550000Y-69003694D01*
X224550000Y-69700000D01*
X224721271Y-70561038D01*
X225209010Y-71290990D01*
X225938962Y-71778729D01*
X226800000Y-71950000D01*
X227628521Y-71785197D01*
X239549576Y-71785197D01*
X239921780Y-72686000D01*
X240610375Y-73375798D01*
X241510527Y-73749573D01*
X242485197Y-73750424D01*
X243386000Y-73378220D01*
X244075798Y-72689625D01*
X244449573Y-71789473D01*
X244449576Y-71785197D01*
X254949576Y-71785197D01*
X255321780Y-72686000D01*
X256010375Y-73375798D01*
X256910527Y-73749573D01*
X257885197Y-73750424D01*
X258786000Y-73378220D01*
X259475798Y-72689625D01*
X259849573Y-71789473D01*
X259850424Y-70814803D01*
X259478220Y-69914000D01*
X258789625Y-69224202D01*
X257889473Y-68850427D01*
X256914803Y-68849576D01*
X256014000Y-69221780D01*
X255324202Y-69910375D01*
X254950427Y-70810527D01*
X254949576Y-71785197D01*
X244449576Y-71785197D01*
X244450424Y-70814803D01*
X244078220Y-69914000D01*
X243389625Y-69224202D01*
X242489473Y-68850427D01*
X241514803Y-68849576D01*
X240614000Y-69221780D01*
X239924202Y-69910375D01*
X239550427Y-70810527D01*
X239549576Y-71785197D01*
X227628521Y-71785197D01*
X227661038Y-71778729D01*
X228390990Y-71290990D01*
X228878729Y-70561038D01*
X229050000Y-69700000D01*
X229050000Y-68250000D01*
X230150305Y-68250000D01*
X230149645Y-69005981D01*
X230461081Y-69759715D01*
X231037252Y-70336892D01*
X231790441Y-70649643D01*
X232605981Y-70650355D01*
X233359715Y-70338919D01*
X233936892Y-69762748D01*
X234249643Y-69009559D01*
X234250306Y-68250000D01*
X264675000Y-68250000D01*
X264675000Y-92020735D01*
X264460776Y-91932000D01*
X264074500Y-91932000D01*
X263885000Y-92121500D01*
X263885000Y-93115000D01*
X264310000Y-93115000D01*
X264310000Y-93965000D01*
X263885000Y-93965000D01*
X263885000Y-94056354D01*
X263501141Y-93980000D01*
X263418859Y-93980000D01*
X263035000Y-94056354D01*
X263035000Y-93965000D01*
X262041500Y-93965000D01*
X261852000Y-94154500D01*
X261852000Y-94540775D01*
X261897240Y-94649994D01*
X261478712Y-95276365D01*
X261318859Y-96080000D01*
X261478712Y-96883635D01*
X261933935Y-97564924D01*
X262585834Y-98000509D01*
X261207841Y-97999307D01*
X259737142Y-98606987D01*
X258610942Y-99731223D01*
X258000695Y-101200860D01*
X257999307Y-102792159D01*
X258606987Y-104262858D01*
X259018410Y-104675000D01*
X257307837Y-104675000D01*
X257327740Y-104661701D01*
X257837156Y-103899306D01*
X258016039Y-103000000D01*
X257837156Y-102100694D01*
X257435785Y-101500000D01*
X257837156Y-100899306D01*
X258016039Y-100000000D01*
X257837156Y-99100694D01*
X257327740Y-98338299D01*
X256565345Y-97828883D01*
X255666039Y-97650000D01*
X255573961Y-97650000D01*
X254674655Y-97828883D01*
X253912260Y-98338299D01*
X253402844Y-99100694D01*
X253223961Y-100000000D01*
X253402844Y-100899306D01*
X253804215Y-101500000D01*
X253402844Y-102100694D01*
X253223961Y-103000000D01*
X253402844Y-103899306D01*
X253912260Y-104661701D01*
X253932163Y-104675000D01*
X249596974Y-104675000D01*
X249742602Y-104529372D01*
X249858000Y-104250775D01*
X249858000Y-103739500D01*
X249668500Y-103550000D01*
X248550000Y-103550000D01*
X248550000Y-104100000D01*
X247450000Y-104100000D01*
X247450000Y-103550000D01*
X246331500Y-103550000D01*
X246142000Y-103739500D01*
X246142000Y-104250775D01*
X246257398Y-104529372D01*
X246403026Y-104675000D01*
X190815336Y-104675000D01*
X190950000Y-103997998D01*
X190950000Y-103902002D01*
X190763505Y-102964428D01*
X190627449Y-102760805D01*
X193184881Y-102760805D01*
X193269983Y-103008846D01*
X193880064Y-103118239D01*
X194430017Y-103008846D01*
X194515119Y-102760805D01*
X193850000Y-102095685D01*
X193184881Y-102760805D01*
X190627449Y-102760805D01*
X190232412Y-102169590D01*
X189437574Y-101638497D01*
X189043265Y-101560064D01*
X192261761Y-101560064D01*
X192371154Y-102110017D01*
X192619195Y-102195119D01*
X193284315Y-101530000D01*
X194415685Y-101530000D01*
X195080805Y-102195119D01*
X195328846Y-102110017D01*
X195432848Y-101530000D01*
X204459838Y-101530000D01*
X204615885Y-102314501D01*
X205060269Y-102979569D01*
X205725337Y-103423953D01*
X206509838Y-103580000D01*
X206590162Y-103580000D01*
X207374663Y-103423953D01*
X208039731Y-102979569D01*
X208141700Y-102826961D01*
X214953699Y-102826961D01*
X215147361Y-103101784D01*
X216041149Y-103191592D01*
X216492639Y-103101784D01*
X216686301Y-102826961D01*
X215820000Y-101960660D01*
X214953699Y-102826961D01*
X208141700Y-102826961D01*
X208484115Y-102314501D01*
X208640162Y-101530000D01*
X208558837Y-101121149D01*
X213528408Y-101121149D01*
X213618216Y-101572639D01*
X213893039Y-101766301D01*
X214759340Y-100900000D01*
X216880660Y-100900000D01*
X217746961Y-101766301D01*
X218021784Y-101572639D01*
X218111592Y-100678851D01*
X218021784Y-100227361D01*
X217746961Y-100033699D01*
X216880660Y-100900000D01*
X214759340Y-100900000D01*
X213893039Y-100033699D01*
X213618216Y-100227361D01*
X213528408Y-101121149D01*
X208558837Y-101121149D01*
X208484115Y-100745499D01*
X208039731Y-100080431D01*
X207374663Y-99636047D01*
X206590162Y-99480000D01*
X206509838Y-99480000D01*
X205725337Y-99636047D01*
X205060269Y-100080431D01*
X204615885Y-100745499D01*
X204459838Y-101530000D01*
X195432848Y-101530000D01*
X195438239Y-101499936D01*
X195328846Y-100949983D01*
X195080805Y-100864881D01*
X194415685Y-101530000D01*
X193284315Y-101530000D01*
X192619195Y-100864881D01*
X192371154Y-100949983D01*
X192261761Y-101560064D01*
X189043265Y-101560064D01*
X188500000Y-101452002D01*
X187562426Y-101638497D01*
X186767588Y-102169590D01*
X186236495Y-102964428D01*
X186050000Y-103902002D01*
X186050000Y-103997998D01*
X186184664Y-104675000D01*
X183682320Y-104675000D01*
X184160579Y-104579869D01*
X184292183Y-104320001D01*
X183540000Y-103567817D01*
X182787817Y-104320001D01*
X182919421Y-104579869D01*
X183607438Y-104675000D01*
X178602320Y-104675000D01*
X179080579Y-104579869D01*
X179212183Y-104320001D01*
X178460000Y-103567817D01*
X177707817Y-104320001D01*
X177839421Y-104579869D01*
X178527438Y-104675000D01*
X154085613Y-104675000D01*
X154299643Y-104159559D01*
X154299977Y-103776961D01*
X158178699Y-103776961D01*
X158372361Y-104051784D01*
X159266149Y-104141592D01*
X159717639Y-104051784D01*
X159911301Y-103776961D01*
X159045000Y-102910660D01*
X158178699Y-103776961D01*
X154299977Y-103776961D01*
X154300355Y-103344019D01*
X153988919Y-102590285D01*
X153470688Y-102071149D01*
X156753408Y-102071149D01*
X156843216Y-102522639D01*
X157118039Y-102716301D01*
X157984340Y-101850000D01*
X160105660Y-101850000D01*
X160971961Y-102716301D01*
X161246784Y-102522639D01*
X161336592Y-101628851D01*
X161246784Y-101177361D01*
X160971961Y-100983699D01*
X160105660Y-101850000D01*
X157984340Y-101850000D01*
X157118039Y-100983699D01*
X156843216Y-101177361D01*
X156753408Y-102071149D01*
X153470688Y-102071149D01*
X153412748Y-102013108D01*
X153382037Y-102000355D01*
X153409715Y-101988919D01*
X153986892Y-101412748D01*
X154299643Y-100659559D01*
X154300286Y-99923039D01*
X158178699Y-99923039D01*
X159045000Y-100789340D01*
X159484340Y-100350000D01*
X161350512Y-100350000D01*
X161350512Y-103350000D01*
X161437673Y-103813222D01*
X161711437Y-104238663D01*
X162129153Y-104524076D01*
X162625000Y-104624488D01*
X165625000Y-104624488D01*
X166088222Y-104537327D01*
X166513663Y-104263563D01*
X166799076Y-103845847D01*
X166899488Y-103350000D01*
X166899488Y-102901613D01*
X176568892Y-102901613D01*
X176670131Y-103410579D01*
X176929999Y-103542183D01*
X177682183Y-102790000D01*
X176929999Y-102037817D01*
X176670131Y-102169421D01*
X176568892Y-102901613D01*
X166899488Y-102901613D01*
X166899488Y-100350000D01*
X166812327Y-99886778D01*
X166538563Y-99461337D01*
X166214627Y-99240001D01*
X177707817Y-99240001D01*
X177839421Y-99499869D01*
X178571613Y-99601108D01*
X178581393Y-99599163D01*
X178759875Y-99777645D01*
X178750392Y-99800484D01*
X178749610Y-100695589D01*
X178760437Y-100721793D01*
X178554798Y-100927432D01*
X178348387Y-100898892D01*
X177839421Y-101000131D01*
X177707817Y-101259999D01*
X178460000Y-102012183D01*
X178848909Y-101623274D01*
X179626726Y-102401091D01*
X179237817Y-102790000D01*
X179990001Y-103542183D01*
X180249869Y-103410579D01*
X180351108Y-102678387D01*
X180349163Y-102668607D01*
X180527645Y-102490125D01*
X180550484Y-102499608D01*
X181445589Y-102500390D01*
X181471793Y-102489563D01*
X181677432Y-102695202D01*
X181648892Y-102901613D01*
X181750131Y-103410579D01*
X182009999Y-103542183D01*
X182762183Y-102790000D01*
X184317817Y-102790000D01*
X185070001Y-103542183D01*
X185329869Y-103410579D01*
X185431108Y-102678387D01*
X185329869Y-102169421D01*
X185070001Y-102037817D01*
X184317817Y-102790000D01*
X182762183Y-102790000D01*
X182373274Y-102401091D01*
X183151091Y-101623274D01*
X183540000Y-102012183D01*
X184292183Y-101259999D01*
X184160579Y-101000131D01*
X183428387Y-100898892D01*
X183418607Y-100900837D01*
X183240125Y-100722355D01*
X183249608Y-100699516D01*
X183249957Y-100299195D01*
X193184881Y-100299195D01*
X193850000Y-100964315D01*
X194515119Y-100299195D01*
X194430017Y-100051154D01*
X193819936Y-99941761D01*
X193269983Y-100051154D01*
X193184881Y-100299195D01*
X183249957Y-100299195D01*
X183250390Y-99804411D01*
X183239563Y-99778207D01*
X183445202Y-99572568D01*
X183651613Y-99601108D01*
X184160579Y-99499869D01*
X184292183Y-99240001D01*
X184025222Y-98973039D01*
X214953699Y-98973039D01*
X215820000Y-99839340D01*
X216259340Y-99400000D01*
X218125512Y-99400000D01*
X218125512Y-102400000D01*
X218212673Y-102863222D01*
X218486437Y-103288663D01*
X218904153Y-103574076D01*
X219400000Y-103674488D01*
X222400000Y-103674488D01*
X222863222Y-103587327D01*
X223288663Y-103313563D01*
X223574076Y-102895847D01*
X223674488Y-102400000D01*
X223674488Y-99400000D01*
X223587327Y-98936778D01*
X223563661Y-98900000D01*
X245625512Y-98900000D01*
X245625512Y-101100000D01*
X245712673Y-101563222D01*
X245986437Y-101988663D01*
X246142000Y-102094955D01*
X246142000Y-102260500D01*
X246331500Y-102450000D01*
X247450000Y-102450000D01*
X247450000Y-102374488D01*
X248550000Y-102374488D01*
X248550000Y-102450000D01*
X249668500Y-102450000D01*
X249858000Y-102260500D01*
X249858000Y-102097642D01*
X249988663Y-102013563D01*
X250274076Y-101595847D01*
X250374488Y-101100000D01*
X250374488Y-98900000D01*
X250287327Y-98436778D01*
X250013563Y-98011337D01*
X249595847Y-97725924D01*
X249100000Y-97625512D01*
X246900000Y-97625512D01*
X246436778Y-97712673D01*
X246011337Y-97986437D01*
X245725924Y-98404153D01*
X245625512Y-98900000D01*
X223563661Y-98900000D01*
X223313563Y-98511337D01*
X222895847Y-98225924D01*
X222400000Y-98125512D01*
X219400000Y-98125512D01*
X218936778Y-98212673D01*
X218511337Y-98486437D01*
X218225924Y-98904153D01*
X218125512Y-99400000D01*
X216259340Y-99400000D01*
X216686301Y-98973039D01*
X216492639Y-98698216D01*
X215598851Y-98608408D01*
X215147361Y-98698216D01*
X214953699Y-98973039D01*
X184025222Y-98973039D01*
X183540000Y-98487817D01*
X183151091Y-98876726D01*
X182373274Y-98098909D01*
X182762183Y-97710000D01*
X184317817Y-97710000D01*
X185070001Y-98462183D01*
X185329869Y-98330579D01*
X185431108Y-97598387D01*
X185329869Y-97089421D01*
X185312520Y-97080635D01*
X191325306Y-97080635D01*
X191675088Y-97577838D01*
X192119369Y-97874665D01*
X192350000Y-97758737D01*
X192350000Y-96850000D01*
X193150000Y-96850000D01*
X193150000Y-97758737D01*
X193380631Y-97874665D01*
X193824912Y-97577838D01*
X194174694Y-97080635D01*
X194066307Y-96850000D01*
X193150000Y-96850000D01*
X192350000Y-96850000D01*
X191433693Y-96850000D01*
X191325306Y-97080635D01*
X185312520Y-97080635D01*
X185070001Y-96957817D01*
X184317817Y-97710000D01*
X182762183Y-97710000D01*
X182009999Y-96957817D01*
X181750131Y-97089421D01*
X181648892Y-97821613D01*
X181650837Y-97831393D01*
X181472355Y-98009875D01*
X181449516Y-98000392D01*
X180554411Y-97999610D01*
X180528207Y-98010437D01*
X180322568Y-97804798D01*
X180351108Y-97598387D01*
X180249869Y-97089421D01*
X179990001Y-96957817D01*
X179237817Y-97710000D01*
X179626726Y-98098909D01*
X178848909Y-98876726D01*
X178460000Y-98487817D01*
X177707817Y-99240001D01*
X166214627Y-99240001D01*
X166120847Y-99175924D01*
X165625000Y-99075512D01*
X162625000Y-99075512D01*
X162161778Y-99162673D01*
X161736337Y-99436437D01*
X161450924Y-99854153D01*
X161350512Y-100350000D01*
X159484340Y-100350000D01*
X159911301Y-99923039D01*
X159717639Y-99648216D01*
X158823851Y-99558408D01*
X158372361Y-99648216D01*
X158178699Y-99923039D01*
X154300286Y-99923039D01*
X154300355Y-99844019D01*
X153988919Y-99090285D01*
X153412748Y-98513108D01*
X153399019Y-98507407D01*
X153859731Y-98199569D01*
X154112272Y-97821613D01*
X176568892Y-97821613D01*
X176670131Y-98330579D01*
X176929999Y-98462183D01*
X177682183Y-97710000D01*
X176929999Y-96957817D01*
X176670131Y-97089421D01*
X176568892Y-97821613D01*
X154112272Y-97821613D01*
X154304115Y-97534501D01*
X154460162Y-96750000D01*
X154346782Y-96179999D01*
X177707817Y-96179999D01*
X178460000Y-96932183D01*
X179212183Y-96179999D01*
X182787817Y-96179999D01*
X183540000Y-96932183D01*
X184292183Y-96179999D01*
X184160579Y-95920131D01*
X183431808Y-95819365D01*
X191325306Y-95819365D01*
X191433693Y-96050000D01*
X192350000Y-96050000D01*
X192350000Y-95141263D01*
X193150000Y-95141263D01*
X193150000Y-96050000D01*
X194066307Y-96050000D01*
X194174694Y-95819365D01*
X193824912Y-95322162D01*
X193380631Y-95025335D01*
X193150000Y-95141263D01*
X192350000Y-95141263D01*
X192119369Y-95025335D01*
X191675088Y-95322162D01*
X191325306Y-95819365D01*
X183431808Y-95819365D01*
X183428387Y-95818892D01*
X182919421Y-95920131D01*
X182787817Y-96179999D01*
X179212183Y-96179999D01*
X179080579Y-95920131D01*
X178348387Y-95818892D01*
X177839421Y-95920131D01*
X177707817Y-96179999D01*
X154346782Y-96179999D01*
X154304115Y-95965499D01*
X153859731Y-95300431D01*
X153194663Y-94856047D01*
X152410162Y-94700000D01*
X152329838Y-94700000D01*
X151545337Y-94856047D01*
X150880269Y-95300431D01*
X150435885Y-95965499D01*
X150279838Y-96750000D01*
X150435885Y-97534501D01*
X150880269Y-98199569D01*
X151248588Y-98445672D01*
X151090285Y-98511081D01*
X150513108Y-99087252D01*
X150200357Y-99840441D01*
X150199645Y-100655981D01*
X150511081Y-101409715D01*
X151087252Y-101986892D01*
X151117963Y-101999645D01*
X151090285Y-102011081D01*
X150513108Y-102587252D01*
X150200357Y-103340441D01*
X150199645Y-104155981D01*
X150414099Y-104675000D01*
X146470237Y-104675000D01*
X146564115Y-104534501D01*
X146720162Y-103750000D01*
X146564115Y-102965499D01*
X146119731Y-102300431D01*
X145670104Y-102000000D01*
X146119731Y-101699569D01*
X146564115Y-101034501D01*
X146720162Y-100250000D01*
X146564115Y-99465499D01*
X146119731Y-98800431D01*
X145751412Y-98554328D01*
X145909715Y-98488919D01*
X146486892Y-97912748D01*
X146799643Y-97159559D01*
X146800355Y-96344019D01*
X146488919Y-95590285D01*
X145912748Y-95013108D01*
X145159559Y-94700357D01*
X144344019Y-94699645D01*
X143590285Y-95011081D01*
X143013108Y-95587252D01*
X142700357Y-96340441D01*
X142699645Y-97155981D01*
X143011081Y-97909715D01*
X143587252Y-98486892D01*
X143600981Y-98492593D01*
X143140269Y-98800431D01*
X142695885Y-99465499D01*
X142539838Y-100250000D01*
X142695885Y-101034501D01*
X143140269Y-101699569D01*
X143589896Y-102000000D01*
X143140269Y-102300431D01*
X142695885Y-102965499D01*
X142539838Y-103750000D01*
X142695885Y-104534501D01*
X142789763Y-104675000D01*
X140104920Y-104675000D01*
X140114458Y-104671059D01*
X140669111Y-104117373D01*
X140969658Y-103393576D01*
X140970342Y-102609862D01*
X140671059Y-101885542D01*
X140516002Y-101730215D01*
X140669111Y-101577373D01*
X140969658Y-100853576D01*
X140970342Y-100069862D01*
X140671059Y-99345542D01*
X140516002Y-99190215D01*
X140669111Y-99037373D01*
X140969658Y-98313576D01*
X140970342Y-97529862D01*
X140671059Y-96805542D01*
X140117373Y-96250889D01*
X139393576Y-95950342D01*
X138609862Y-95949658D01*
X137885542Y-96248941D01*
X137330889Y-96802627D01*
X137030342Y-97526424D01*
X137029658Y-98310138D01*
X137328941Y-99034458D01*
X137483998Y-99189785D01*
X137330889Y-99342627D01*
X137030342Y-100066424D01*
X137029658Y-100850138D01*
X137328941Y-101574458D01*
X137483998Y-101729785D01*
X137330889Y-101882627D01*
X137030342Y-102606424D01*
X137029658Y-103390138D01*
X137328941Y-104114458D01*
X137882627Y-104669111D01*
X137896809Y-104675000D01*
X135793231Y-104675000D01*
X135799643Y-104659559D01*
X135800355Y-103844019D01*
X135488919Y-103090285D01*
X134912748Y-102513108D01*
X134882037Y-102500355D01*
X134909715Y-102488919D01*
X135486892Y-101912748D01*
X135799643Y-101159559D01*
X135800355Y-100344019D01*
X135488919Y-99590285D01*
X134912748Y-99013108D01*
X134159559Y-98700357D01*
X134070404Y-98700279D01*
X134125119Y-98540805D01*
X133460000Y-97875685D01*
X132794881Y-98540805D01*
X132879983Y-98788846D01*
X133053037Y-98819876D01*
X132590285Y-99011081D01*
X132013108Y-99587252D01*
X131700357Y-100340441D01*
X131699645Y-101155981D01*
X132011081Y-101909715D01*
X132587252Y-102486892D01*
X132617963Y-102499645D01*
X132590285Y-102511081D01*
X132013108Y-103087252D01*
X131700357Y-103840441D01*
X131699645Y-104655981D01*
X131707503Y-104675000D01*
X128135624Y-104675000D01*
X128220162Y-104250000D01*
X128064115Y-103465499D01*
X127619731Y-102800431D01*
X127170104Y-102500000D01*
X127619731Y-102199569D01*
X128064115Y-101534501D01*
X128220162Y-100750000D01*
X128064115Y-99965499D01*
X127619731Y-99300431D01*
X127130002Y-98973205D01*
X127449731Y-98759569D01*
X127894115Y-98094501D01*
X128044181Y-97340064D01*
X131871761Y-97340064D01*
X131981154Y-97890017D01*
X132229195Y-97975119D01*
X132894315Y-97310000D01*
X134025685Y-97310000D01*
X134690805Y-97975119D01*
X134938846Y-97890017D01*
X135048239Y-97279936D01*
X134938846Y-96729983D01*
X134690805Y-96644881D01*
X134025685Y-97310000D01*
X132894315Y-97310000D01*
X132229195Y-96644881D01*
X131981154Y-96729983D01*
X131871761Y-97340064D01*
X128044181Y-97340064D01*
X128050162Y-97310000D01*
X127894115Y-96525499D01*
X127595905Y-96079195D01*
X132794881Y-96079195D01*
X133460000Y-96744315D01*
X134125119Y-96079195D01*
X134040017Y-95831154D01*
X133429936Y-95721761D01*
X132879983Y-95831154D01*
X132794881Y-96079195D01*
X127595905Y-96079195D01*
X127449731Y-95860431D01*
X126784663Y-95416047D01*
X126000162Y-95260000D01*
X125919838Y-95260000D01*
X125135337Y-95416047D01*
X124470269Y-95860431D01*
X124025885Y-96525499D01*
X123869838Y-97310000D01*
X124025885Y-98094501D01*
X124470269Y-98759569D01*
X124959998Y-99086795D01*
X124640269Y-99300431D01*
X124195885Y-99965499D01*
X124039838Y-100750000D01*
X124195885Y-101534501D01*
X124640269Y-102199569D01*
X125089896Y-102500000D01*
X124640269Y-102800431D01*
X124195885Y-103465499D01*
X124039838Y-104250000D01*
X124124376Y-104675000D01*
X120000448Y-104675000D01*
X120084488Y-104260000D01*
X120084488Y-102740000D01*
X119997327Y-102276778D01*
X119804227Y-101976693D01*
X120059650Y-101361568D01*
X120060348Y-100561940D01*
X119754988Y-99822914D01*
X119622569Y-99690264D01*
X119753001Y-99560060D01*
X120059650Y-98821568D01*
X120060348Y-98021940D01*
X119754988Y-97282914D01*
X119190060Y-96716999D01*
X118451568Y-96410350D01*
X117651940Y-96409652D01*
X116912914Y-96715012D01*
X116346999Y-97279940D01*
X116040350Y-98018432D01*
X116039652Y-98818060D01*
X116345012Y-99557086D01*
X116477431Y-99689736D01*
X116346999Y-99819940D01*
X116040350Y-100558432D01*
X116039652Y-101358060D01*
X116296550Y-101979798D01*
X116115924Y-102244153D01*
X116015512Y-102740000D01*
X116015512Y-104260000D01*
X116093599Y-104675000D01*
X111834488Y-104675000D01*
X111834488Y-103790000D01*
X111747327Y-103326778D01*
X111554227Y-103026693D01*
X111809650Y-102411568D01*
X111810348Y-101611940D01*
X111504988Y-100872914D01*
X111372569Y-100740264D01*
X111503001Y-100610060D01*
X111809650Y-99871568D01*
X111810348Y-99071940D01*
X111504988Y-98332914D01*
X110940060Y-97766999D01*
X110201568Y-97460350D01*
X109401940Y-97459652D01*
X108662914Y-97765012D01*
X108096999Y-98329940D01*
X107790350Y-99068432D01*
X107789652Y-99868060D01*
X108095012Y-100607086D01*
X108227431Y-100739736D01*
X108096999Y-100869940D01*
X107790350Y-101608432D01*
X107789652Y-102408060D01*
X108046550Y-103029798D01*
X107865924Y-103294153D01*
X107765512Y-103790000D01*
X107765512Y-104675000D01*
X89047049Y-104675000D01*
X89050000Y-104660162D01*
X89050000Y-104579838D01*
X88893953Y-103795337D01*
X88449569Y-103130269D01*
X87784501Y-102685885D01*
X87000000Y-102529838D01*
X86215499Y-102685885D01*
X85550431Y-103130269D01*
X85333352Y-103455151D01*
X85099569Y-103105269D01*
X84434501Y-102660885D01*
X83650000Y-102504838D01*
X82865499Y-102660885D01*
X82200431Y-103105269D01*
X81971591Y-103447752D01*
X81512748Y-102988108D01*
X80759559Y-102675357D01*
X79944019Y-102674645D01*
X79190285Y-102986081D01*
X78613108Y-103562252D01*
X78393389Y-104091395D01*
X78155805Y-104009881D01*
X77490685Y-104675000D01*
X76359315Y-104675000D01*
X75694195Y-104009881D01*
X75446154Y-104094983D01*
X75382554Y-104449676D01*
X75157230Y-104675000D01*
X71544303Y-104675000D01*
X71535264Y-104645000D01*
X70500000Y-104645000D01*
X70500000Y-104675000D01*
X69400000Y-104675000D01*
X69400000Y-104645000D01*
X68364736Y-104645000D01*
X68355697Y-104675000D01*
X67864584Y-104675000D01*
X68028677Y-104510907D01*
X67576126Y-104058357D01*
X67503846Y-103694983D01*
X67255805Y-103609881D01*
X66590685Y-104275000D01*
X66873528Y-104557843D01*
X66756371Y-104675000D01*
X65293629Y-104675000D01*
X65176472Y-104557843D01*
X65459315Y-104275000D01*
X64794195Y-103609881D01*
X64634397Y-103664707D01*
X64570244Y-103475000D01*
X63545000Y-103475000D01*
X63545000Y-104025000D01*
X62445000Y-104025000D01*
X62445000Y-103475000D01*
X61419756Y-103475000D01*
X61328160Y-103745857D01*
X61598736Y-104150861D01*
X61744998Y-104262963D01*
X61744998Y-104675000D01*
X57543748Y-104675000D01*
X57649076Y-104520847D01*
X57749488Y-104025000D01*
X57749488Y-103044195D01*
X65359881Y-103044195D01*
X66025000Y-103709315D01*
X66460177Y-103274137D01*
X68283125Y-103274137D01*
X68364736Y-103545000D01*
X69400000Y-103545000D01*
X69400000Y-102519756D01*
X70500000Y-102519756D01*
X70500000Y-103545000D01*
X71535264Y-103545000D01*
X71565636Y-103444195D01*
X76259881Y-103444195D01*
X76925000Y-104109315D01*
X77590119Y-103444195D01*
X77505017Y-103196154D01*
X76894936Y-103086761D01*
X76344983Y-103196154D01*
X76259881Y-103444195D01*
X71565636Y-103444195D01*
X71616875Y-103274137D01*
X71175861Y-102698736D01*
X70770857Y-102428160D01*
X70500000Y-102519756D01*
X69400000Y-102519756D01*
X69129143Y-102428160D01*
X68724139Y-102698736D01*
X68283125Y-103274137D01*
X66460177Y-103274137D01*
X66690119Y-103044195D01*
X66605017Y-102796154D01*
X65994936Y-102686761D01*
X65444983Y-102796154D01*
X65359881Y-103044195D01*
X57749488Y-103044195D01*
X57749488Y-102104143D01*
X61328160Y-102104143D01*
X61419756Y-102375000D01*
X62445000Y-102375000D01*
X62445000Y-101339736D01*
X63545000Y-101339736D01*
X63545000Y-102375000D01*
X64570244Y-102375000D01*
X64661840Y-102104143D01*
X64391264Y-101699139D01*
X63815863Y-101258125D01*
X63545000Y-101339736D01*
X62445000Y-101339736D01*
X62174137Y-101258125D01*
X61598736Y-101699139D01*
X61328160Y-102104143D01*
X57749488Y-102104143D01*
X57749488Y-101825000D01*
X57662327Y-101361778D01*
X57388563Y-100936337D01*
X56970847Y-100650924D01*
X56475000Y-100550512D01*
X54275000Y-100550512D01*
X53811778Y-100637673D01*
X53386337Y-100911437D01*
X53249927Y-101111079D01*
X52715345Y-100753883D01*
X51816039Y-100575000D01*
X51723961Y-100575000D01*
X50824655Y-100753883D01*
X50062260Y-101263299D01*
X49552844Y-102025694D01*
X49373961Y-102925000D01*
X49552844Y-103824306D01*
X50062260Y-104586701D01*
X50194409Y-104675000D01*
X46318748Y-104675000D01*
X46424076Y-104520847D01*
X46524488Y-104025000D01*
X46524488Y-101825000D01*
X46437327Y-101361778D01*
X46163563Y-100936337D01*
X45745847Y-100650924D01*
X45250000Y-100550512D01*
X43050000Y-100550512D01*
X42586778Y-100637673D01*
X42161337Y-100911437D01*
X41875924Y-101329153D01*
X41775512Y-101825000D01*
X41775512Y-104025000D01*
X41862673Y-104488222D01*
X41982861Y-104675000D01*
X32982125Y-104675000D01*
X33389058Y-104268777D01*
X33999305Y-102799140D01*
X34000693Y-101207841D01*
X33535085Y-100080981D01*
X74874645Y-100080981D01*
X75186081Y-100834715D01*
X75762252Y-101411892D01*
X76515441Y-101724643D01*
X77330981Y-101725355D01*
X78084715Y-101413919D01*
X78612959Y-100886596D01*
X79187252Y-101461892D01*
X79940441Y-101774643D01*
X80755981Y-101775355D01*
X81509715Y-101463919D01*
X82086892Y-100887748D01*
X82399643Y-100134559D01*
X82400355Y-99319019D01*
X82088919Y-98565285D01*
X81512748Y-97988108D01*
X80759559Y-97675357D01*
X79944019Y-97674645D01*
X79190285Y-97986081D01*
X78662041Y-98513404D01*
X78087748Y-97938108D01*
X77334559Y-97625357D01*
X76519019Y-97624645D01*
X75765285Y-97936081D01*
X75188108Y-98512252D01*
X74875357Y-99265441D01*
X74874645Y-100080981D01*
X33535085Y-100080981D01*
X33393013Y-99737142D01*
X32268777Y-98610942D01*
X30799140Y-98000695D01*
X30385995Y-98000335D01*
X30751288Y-97453635D01*
X30911141Y-96650000D01*
X30751288Y-95846365D01*
X30332760Y-95219994D01*
X30378000Y-95110775D01*
X30378000Y-94724500D01*
X30188500Y-94535000D01*
X29195000Y-94535000D01*
X29195000Y-94626354D01*
X28811141Y-94550000D01*
X28728859Y-94550000D01*
X28345000Y-94626354D01*
X28345000Y-94535000D01*
X27920000Y-94535000D01*
X27920000Y-93800000D01*
X52350512Y-93800000D01*
X52350512Y-96200000D01*
X52437673Y-96663222D01*
X52711437Y-97088663D01*
X53129153Y-97374076D01*
X53625000Y-97474488D01*
X56025000Y-97474488D01*
X56488222Y-97387327D01*
X56913663Y-97113563D01*
X57199076Y-96695847D01*
X57299488Y-96200000D01*
X57299488Y-93800000D01*
X57212327Y-93336778D01*
X56938563Y-92911337D01*
X56520847Y-92625924D01*
X56025000Y-92525512D01*
X53625000Y-92525512D01*
X53161778Y-92612673D01*
X52736337Y-92886437D01*
X52450924Y-93304153D01*
X52350512Y-93800000D01*
X27920000Y-93800000D01*
X27920000Y-93685000D01*
X28345000Y-93685000D01*
X28345000Y-92691500D01*
X29195000Y-92691500D01*
X29195000Y-93685000D01*
X30188500Y-93685000D01*
X30378000Y-93495500D01*
X30378000Y-93109225D01*
X30262602Y-92830628D01*
X30049373Y-92617399D01*
X29770776Y-92502000D01*
X29384500Y-92502000D01*
X29195000Y-92691500D01*
X28345000Y-92691500D01*
X28155500Y-92502000D01*
X27769224Y-92502000D01*
X27490627Y-92617399D01*
X27325000Y-92783026D01*
X27325000Y-91250000D01*
X62501352Y-91250000D01*
X62846780Y-92086000D01*
X63535375Y-92775798D01*
X64354494Y-93115925D01*
X64131047Y-93450337D01*
X63975000Y-94234838D01*
X63975000Y-94315162D01*
X64131047Y-95099663D01*
X64575431Y-95764731D01*
X65240499Y-96209115D01*
X66025000Y-96365162D01*
X66809501Y-96209115D01*
X67474569Y-95764731D01*
X67575512Y-95613659D01*
X67575512Y-97575000D01*
X67662673Y-98038222D01*
X67936437Y-98463663D01*
X68354153Y-98749076D01*
X68850000Y-98849488D01*
X71050000Y-98849488D01*
X71513222Y-98762327D01*
X71938663Y-98488563D01*
X72224076Y-98070847D01*
X72324488Y-97575000D01*
X72324488Y-97380981D01*
X81599645Y-97380981D01*
X81911081Y-98134715D01*
X82487252Y-98711892D01*
X83240441Y-99024643D01*
X84055981Y-99025355D01*
X84809715Y-98713919D01*
X85312893Y-98211618D01*
X85837252Y-98736892D01*
X86590441Y-99049643D01*
X87405981Y-99050355D01*
X88159715Y-98738919D01*
X88736892Y-98162748D01*
X89049643Y-97409559D01*
X89050355Y-96594019D01*
X88738919Y-95840285D01*
X88162748Y-95263108D01*
X87409559Y-94950357D01*
X86594019Y-94949645D01*
X85840285Y-95261081D01*
X85337107Y-95763382D01*
X84812748Y-95238108D01*
X84059559Y-94925357D01*
X83244019Y-94924645D01*
X82490285Y-95236081D01*
X81913108Y-95812252D01*
X81600357Y-96565441D01*
X81599645Y-97380981D01*
X72324488Y-97380981D01*
X72324488Y-95789500D01*
X75292000Y-95789500D01*
X75292000Y-96250776D01*
X75407399Y-96529373D01*
X75620628Y-96742602D01*
X75899225Y-96858000D01*
X76360500Y-96858000D01*
X76550000Y-96668500D01*
X76550000Y-95600000D01*
X77550000Y-95600000D01*
X77550000Y-96668500D01*
X77739500Y-96858000D01*
X78200775Y-96858000D01*
X78479372Y-96742602D01*
X78692601Y-96529373D01*
X78808000Y-96250776D01*
X78808000Y-95789500D01*
X78618500Y-95600000D01*
X77550000Y-95600000D01*
X76550000Y-95600000D01*
X75481500Y-95600000D01*
X75292000Y-95789500D01*
X72324488Y-95789500D01*
X72324488Y-95375000D01*
X72237327Y-94911778D01*
X71963563Y-94486337D01*
X71545847Y-94200924D01*
X71050000Y-94100512D01*
X68850000Y-94100512D01*
X68386778Y-94187673D01*
X68058317Y-94399032D01*
X68075000Y-94315162D01*
X68075000Y-94234838D01*
X68018188Y-93949224D01*
X75292000Y-93949224D01*
X75292000Y-94410500D01*
X75481500Y-94600000D01*
X76550000Y-94600000D01*
X76550000Y-93531500D01*
X77550000Y-93531500D01*
X77550000Y-94600000D01*
X78618500Y-94600000D01*
X78808000Y-94410500D01*
X78808000Y-93949224D01*
X78692601Y-93670627D01*
X78479372Y-93457398D01*
X78200775Y-93342000D01*
X77739500Y-93342000D01*
X77550000Y-93531500D01*
X76550000Y-93531500D01*
X76360500Y-93342000D01*
X75899225Y-93342000D01*
X75620628Y-93457398D01*
X75407399Y-93670627D01*
X75292000Y-93949224D01*
X68018188Y-93949224D01*
X67918953Y-93450337D01*
X67474569Y-92785269D01*
X66809501Y-92340885D01*
X66759135Y-92330867D01*
X67000798Y-92089625D01*
X67349440Y-91250000D01*
X75090667Y-91250000D01*
X75141431Y-91372858D01*
X75773813Y-92006345D01*
X76600484Y-92349608D01*
X77495589Y-92350390D01*
X78322858Y-92008569D01*
X78956345Y-91376187D01*
X79008742Y-91250000D01*
X90949880Y-91250000D01*
X90991081Y-91349715D01*
X91526375Y-91885943D01*
X91250269Y-92070431D01*
X90805885Y-92735499D01*
X90649838Y-93520000D01*
X90805885Y-94304501D01*
X91250269Y-94969569D01*
X91321207Y-95016968D01*
X90962914Y-95165012D01*
X90396999Y-95729940D01*
X90090350Y-96468432D01*
X90089652Y-97268060D01*
X90395012Y-98007086D01*
X90527431Y-98139736D01*
X90396999Y-98269940D01*
X90090350Y-99008432D01*
X90089652Y-99808060D01*
X90346550Y-100429798D01*
X90165924Y-100694153D01*
X90065512Y-101190000D01*
X90065512Y-102710000D01*
X90152673Y-103173222D01*
X90426437Y-103598663D01*
X90844153Y-103884076D01*
X91340000Y-103984488D01*
X92860000Y-103984488D01*
X93323222Y-103897327D01*
X93748663Y-103623563D01*
X94034076Y-103205847D01*
X94134488Y-102710000D01*
X94134488Y-101190000D01*
X94047327Y-100726778D01*
X93854227Y-100426693D01*
X94109650Y-99811568D01*
X94110348Y-99011940D01*
X93804988Y-98272914D01*
X93672569Y-98140264D01*
X93803001Y-98010060D01*
X94109650Y-97271568D01*
X94110348Y-96471940D01*
X93804988Y-95732914D01*
X93499519Y-95426911D01*
X93564663Y-95413953D01*
X94229731Y-94969569D01*
X94674115Y-94304501D01*
X94830162Y-93520000D01*
X94674115Y-92735499D01*
X94229731Y-92070431D01*
X93941130Y-91877594D01*
X94466892Y-91352748D01*
X94509557Y-91250000D01*
X98479967Y-91250000D01*
X98740269Y-91639569D01*
X99100755Y-91880438D01*
X98623108Y-92357252D01*
X98310357Y-93110441D01*
X98309645Y-93925981D01*
X98621081Y-94679715D01*
X98921782Y-94980941D01*
X98471999Y-95429940D01*
X98165350Y-96168432D01*
X98164652Y-96968060D01*
X98470012Y-97707086D01*
X98602431Y-97839736D01*
X98471999Y-97969940D01*
X98165350Y-98708432D01*
X98164652Y-99508060D01*
X98421550Y-100129798D01*
X98240924Y-100394153D01*
X98140512Y-100890000D01*
X98140512Y-102410000D01*
X98227673Y-102873222D01*
X98501437Y-103298663D01*
X98919153Y-103584076D01*
X99415000Y-103684488D01*
X100935000Y-103684488D01*
X101398222Y-103597327D01*
X101823663Y-103323563D01*
X102109076Y-102905847D01*
X102209488Y-102410000D01*
X102209488Y-100890000D01*
X102122327Y-100426778D01*
X101929227Y-100126693D01*
X102184650Y-99511568D01*
X102185348Y-98711940D01*
X101879988Y-97972914D01*
X101747569Y-97840264D01*
X101878001Y-97710060D01*
X102184650Y-96971568D01*
X102185095Y-96460767D01*
X105746634Y-96460767D01*
X105825534Y-96707179D01*
X106419247Y-96817619D01*
X106974466Y-96707179D01*
X107053366Y-96460767D01*
X106400000Y-95807401D01*
X105746634Y-96460767D01*
X102185095Y-96460767D01*
X102185348Y-96171940D01*
X101879988Y-95432914D01*
X101613169Y-95165628D01*
X102096892Y-94682748D01*
X102409643Y-93929559D01*
X102410355Y-93114019D01*
X102098919Y-92360285D01*
X101522748Y-91783108D01*
X101511746Y-91778540D01*
X101719731Y-91639569D01*
X101980033Y-91250000D01*
X104421961Y-91250000D01*
X104452673Y-91413222D01*
X104645773Y-91713307D01*
X104390350Y-92328432D01*
X104389652Y-93128060D01*
X104695012Y-93867086D01*
X105157605Y-94330487D01*
X104425161Y-95062931D01*
X104902266Y-95540036D01*
X104962821Y-95844466D01*
X105209233Y-95923366D01*
X105862599Y-95270000D01*
X105593899Y-95001300D01*
X105897471Y-94697727D01*
X105998432Y-94739650D01*
X106798060Y-94740348D01*
X106902143Y-94697341D01*
X107206102Y-95001300D01*
X106937401Y-95270000D01*
X107590767Y-95923366D01*
X107837179Y-95844466D01*
X107892911Y-95544859D01*
X108374839Y-95062931D01*
X107642083Y-94330175D01*
X108103001Y-93870060D01*
X108409650Y-93131568D01*
X108410348Y-92331940D01*
X108153450Y-91710202D01*
X108334076Y-91445847D01*
X108373736Y-91250000D01*
X109585801Y-91250000D01*
X109786081Y-91734715D01*
X110362252Y-92311892D01*
X110910782Y-92539661D01*
X110863108Y-92587252D01*
X110550357Y-93340441D01*
X110549645Y-94155981D01*
X110861081Y-94909715D01*
X111437252Y-95486892D01*
X112190441Y-95799643D01*
X113005981Y-95800355D01*
X113759715Y-95488919D01*
X114336892Y-94912748D01*
X114649643Y-94159559D01*
X114650355Y-93344019D01*
X114338919Y-92590285D01*
X113762748Y-92013108D01*
X113214218Y-91785339D01*
X113261892Y-91737748D01*
X113464422Y-91250000D01*
X117189104Y-91250000D01*
X117210885Y-91359501D01*
X117438304Y-91699858D01*
X117194019Y-91699645D01*
X116440285Y-92011081D01*
X115863108Y-92587252D01*
X115550357Y-93340441D01*
X115549645Y-94155981D01*
X115861081Y-94909715D01*
X116437252Y-95486892D01*
X117190441Y-95799643D01*
X118005981Y-95800355D01*
X118759715Y-95488919D01*
X119336892Y-94912748D01*
X119649643Y-94159559D01*
X119650188Y-93534820D01*
X119836081Y-93984715D01*
X120412252Y-94561892D01*
X121165441Y-94874643D01*
X121980981Y-94875355D01*
X122734715Y-94563919D01*
X123311892Y-93987748D01*
X123532846Y-93455631D01*
X130150335Y-93455631D01*
X130447162Y-93899912D01*
X130944365Y-94249694D01*
X131175000Y-94141307D01*
X131175000Y-93225000D01*
X130266263Y-93225000D01*
X130150335Y-93455631D01*
X123532846Y-93455631D01*
X123624643Y-93234559D01*
X123625355Y-92419019D01*
X123532532Y-92194369D01*
X130150335Y-92194369D01*
X130266263Y-92425000D01*
X131175000Y-92425000D01*
X131175000Y-91508693D01*
X130944365Y-91400306D01*
X130447162Y-91750088D01*
X130150335Y-92194369D01*
X123532532Y-92194369D01*
X123313919Y-91665285D01*
X122899358Y-91250000D01*
X133721316Y-91250000D01*
X133173108Y-91797252D01*
X133133000Y-91893843D01*
X133133000Y-91574998D01*
X132453954Y-91574998D01*
X132205635Y-91400306D01*
X131975000Y-91508693D01*
X131975000Y-92425000D01*
X132375000Y-92425000D01*
X132375000Y-93225000D01*
X131975000Y-93225000D01*
X131975000Y-94141307D01*
X132205635Y-94249694D01*
X132453954Y-94075002D01*
X133133000Y-94075002D01*
X133133000Y-94027552D01*
X133171081Y-94119715D01*
X133747252Y-94696892D01*
X134500441Y-95009643D01*
X135315981Y-95010355D01*
X136069715Y-94698919D01*
X136646892Y-94122748D01*
X136959643Y-93369559D01*
X136960355Y-92554019D01*
X136648919Y-91800285D01*
X136099593Y-91250000D01*
X138721316Y-91250000D01*
X138173108Y-91797252D01*
X137860357Y-92550441D01*
X137859645Y-93365981D01*
X138171081Y-94119715D01*
X138747252Y-94696892D01*
X139500441Y-95009643D01*
X140315981Y-95010355D01*
X141069715Y-94698919D01*
X141363164Y-94405981D01*
X158949645Y-94405981D01*
X159261081Y-95159715D01*
X159837252Y-95736892D01*
X160590441Y-96049643D01*
X161405981Y-96050355D01*
X162159715Y-95738919D01*
X162736892Y-95162748D01*
X162957846Y-94630631D01*
X167195335Y-94630631D01*
X167492162Y-95074912D01*
X167989365Y-95424694D01*
X168220000Y-95316307D01*
X168220000Y-94400000D01*
X169020000Y-94400000D01*
X169020000Y-95316307D01*
X169250635Y-95424694D01*
X169747838Y-95074912D01*
X169804902Y-94989500D01*
X251042000Y-94989500D01*
X251042000Y-95550776D01*
X251157399Y-95829373D01*
X251370628Y-96042602D01*
X251649225Y-96158000D01*
X252210500Y-96158000D01*
X252400000Y-95968500D01*
X252400000Y-94800000D01*
X253600000Y-94800000D01*
X253600000Y-95968500D01*
X253789500Y-96158000D01*
X254350775Y-96158000D01*
X254629372Y-96042602D01*
X254842601Y-95829373D01*
X254958000Y-95550776D01*
X254958000Y-94989500D01*
X254768500Y-94800000D01*
X253600000Y-94800000D01*
X252400000Y-94800000D01*
X251231500Y-94800000D01*
X251042000Y-94989500D01*
X169804902Y-94989500D01*
X170044665Y-94630631D01*
X169928737Y-94400000D01*
X169020000Y-94400000D01*
X168220000Y-94400000D01*
X167311263Y-94400000D01*
X167195335Y-94630631D01*
X162957846Y-94630631D01*
X163049643Y-94409559D01*
X163050355Y-93594019D01*
X162957532Y-93369369D01*
X167195335Y-93369369D01*
X167311263Y-93600000D01*
X168220000Y-93600000D01*
X168220000Y-92683693D01*
X169020000Y-92683693D01*
X169020000Y-93600000D01*
X169928737Y-93600000D01*
X170044665Y-93369369D01*
X169747838Y-92925088D01*
X169250635Y-92575306D01*
X169020000Y-92683693D01*
X168220000Y-92683693D01*
X167989365Y-92575306D01*
X167492162Y-92925088D01*
X167195335Y-93369369D01*
X162957532Y-93369369D01*
X162738919Y-92840285D01*
X162162748Y-92263108D01*
X161409559Y-91950357D01*
X160594019Y-91949645D01*
X159840285Y-92261081D01*
X159263108Y-92837252D01*
X158950357Y-93590441D01*
X158949645Y-94405981D01*
X141363164Y-94405981D01*
X141646892Y-94122748D01*
X141959643Y-93369559D01*
X141960184Y-92750341D01*
X142209838Y-92800000D01*
X142290162Y-92800000D01*
X143074663Y-92643953D01*
X143739731Y-92199569D01*
X144184115Y-91534501D01*
X144240706Y-91250000D01*
X150238493Y-91250000D01*
X150511081Y-91909715D01*
X151087252Y-92486892D01*
X151840441Y-92799643D01*
X152655981Y-92800355D01*
X153409715Y-92488919D01*
X153986892Y-91912748D01*
X154262089Y-91250000D01*
X155973786Y-91250000D01*
X156006605Y-91329429D01*
X156667094Y-91991071D01*
X157530505Y-92349591D01*
X158465393Y-92350407D01*
X159329429Y-91993395D01*
X159991071Y-91332906D01*
X160025497Y-91250000D01*
X170973786Y-91250000D01*
X171006605Y-91329429D01*
X171667094Y-91991071D01*
X172530505Y-92349591D01*
X173465393Y-92350407D01*
X174329429Y-91993395D01*
X174991071Y-91332906D01*
X175025497Y-91250000D01*
X186050000Y-91250000D01*
X186049576Y-91735197D01*
X186421780Y-92636000D01*
X187110375Y-93325798D01*
X188010527Y-93699573D01*
X188985197Y-93700424D01*
X189153687Y-93630805D01*
X229634881Y-93630805D01*
X229719983Y-93878846D01*
X230330064Y-93988239D01*
X230880017Y-93878846D01*
X230965119Y-93630805D01*
X230300000Y-92965685D01*
X229634881Y-93630805D01*
X189153687Y-93630805D01*
X189886000Y-93328220D01*
X190575798Y-92639625D01*
X190662815Y-92430064D01*
X228711761Y-92430064D01*
X228821154Y-92980017D01*
X229069195Y-93065119D01*
X229734315Y-92400000D01*
X230865685Y-92400000D01*
X231530805Y-93065119D01*
X231778846Y-92980017D01*
X231802298Y-92849224D01*
X251042000Y-92849224D01*
X251042000Y-93410500D01*
X251231500Y-93600000D01*
X252400000Y-93600000D01*
X252400000Y-92431500D01*
X253600000Y-92431500D01*
X253600000Y-93600000D01*
X254768500Y-93600000D01*
X254958000Y-93410500D01*
X254958000Y-92849224D01*
X254842601Y-92570627D01*
X254811199Y-92539225D01*
X261852000Y-92539225D01*
X261852000Y-92925500D01*
X262041500Y-93115000D01*
X263035000Y-93115000D01*
X263035000Y-92121500D01*
X262845500Y-91932000D01*
X262459224Y-91932000D01*
X262180627Y-92047399D01*
X261967398Y-92260628D01*
X261852000Y-92539225D01*
X254811199Y-92539225D01*
X254629372Y-92357398D01*
X254350775Y-92242000D01*
X253789500Y-92242000D01*
X253600000Y-92431500D01*
X252400000Y-92431500D01*
X252210500Y-92242000D01*
X251649225Y-92242000D01*
X251370628Y-92357398D01*
X251157399Y-92570627D01*
X251042000Y-92849224D01*
X231802298Y-92849224D01*
X231888239Y-92369936D01*
X231778846Y-91819983D01*
X231530805Y-91734881D01*
X230865685Y-92400000D01*
X229734315Y-92400000D01*
X229069195Y-91734881D01*
X228821154Y-91819983D01*
X228711761Y-92430064D01*
X190662815Y-92430064D01*
X190949573Y-91739473D01*
X190950000Y-91250000D01*
X191000000Y-91250000D01*
X191097264Y-91230304D01*
X191179202Y-91174318D01*
X191182498Y-91169195D01*
X229634881Y-91169195D01*
X230300000Y-91834315D01*
X230965119Y-91169195D01*
X230880017Y-90921154D01*
X230269936Y-90811761D01*
X229719983Y-90921154D01*
X229634881Y-91169195D01*
X191182498Y-91169195D01*
X191232903Y-91090864D01*
X191250000Y-91000000D01*
X191250000Y-90000000D01*
X191235210Y-89926961D01*
X236053699Y-89926961D01*
X236247361Y-90201784D01*
X237141149Y-90291592D01*
X237592639Y-90201784D01*
X237786301Y-89926961D01*
X236920000Y-89060660D01*
X236053699Y-89926961D01*
X191235210Y-89926961D01*
X191230304Y-89902736D01*
X191174318Y-89820798D01*
X191090864Y-89767097D01*
X191000000Y-89750000D01*
X190464419Y-89750000D01*
X189889625Y-89174202D01*
X188989473Y-88800427D01*
X188014803Y-88799576D01*
X187114000Y-89171780D01*
X186534770Y-89750000D01*
X175350219Y-89750000D01*
X175350407Y-89534607D01*
X174993395Y-88670571D01*
X174332906Y-88008929D01*
X173469495Y-87650409D01*
X172534607Y-87649593D01*
X171670571Y-88006605D01*
X171008929Y-88667094D01*
X170650409Y-89530505D01*
X170650217Y-89750000D01*
X160350219Y-89750000D01*
X160350407Y-89534607D01*
X159993395Y-88670571D01*
X159332906Y-88008929D01*
X158469495Y-87650409D01*
X157534607Y-87649593D01*
X156670571Y-88006605D01*
X156008929Y-88667094D01*
X155650409Y-89530505D01*
X155650217Y-89750000D01*
X154054912Y-89750000D01*
X153988919Y-89590285D01*
X153412748Y-89013108D01*
X152659559Y-88700357D01*
X151844019Y-88699645D01*
X151090285Y-89011081D01*
X150513108Y-89587252D01*
X150445529Y-89750000D01*
X144040123Y-89750000D01*
X143739731Y-89300431D01*
X143074663Y-88856047D01*
X142290162Y-88700000D01*
X142209838Y-88700000D01*
X141425337Y-88856047D01*
X140760269Y-89300431D01*
X140459877Y-89750000D01*
X121052054Y-89750000D01*
X120634731Y-89125431D01*
X119969663Y-88681047D01*
X119185162Y-88525000D01*
X119104838Y-88525000D01*
X118320337Y-88681047D01*
X117655269Y-89125431D01*
X117237946Y-89750000D01*
X113402220Y-89750000D01*
X113263919Y-89415285D01*
X112687748Y-88838108D01*
X111934559Y-88525357D01*
X111119019Y-88524645D01*
X110365285Y-88836081D01*
X109788108Y-89412252D01*
X109647863Y-89750000D01*
X108434488Y-89750000D01*
X108434488Y-89430000D01*
X108347327Y-88966778D01*
X108073563Y-88541337D01*
X107655847Y-88255924D01*
X107160000Y-88155512D01*
X105640000Y-88155512D01*
X105176778Y-88242673D01*
X104751337Y-88516437D01*
X104465924Y-88934153D01*
X104365512Y-89430000D01*
X104365512Y-89750000D01*
X102232641Y-89750000D01*
X102164115Y-89405499D01*
X101719731Y-88740431D01*
X101054663Y-88296047D01*
X100270162Y-88140000D01*
X100189838Y-88140000D01*
X99405337Y-88296047D01*
X98740269Y-88740431D01*
X98295885Y-89405499D01*
X98227359Y-89750000D01*
X94766299Y-89750000D01*
X94468919Y-89030285D01*
X93892748Y-88453108D01*
X93139559Y-88140357D01*
X92324019Y-88139645D01*
X91570285Y-88451081D01*
X90993108Y-89027252D01*
X90692997Y-89750000D01*
X79300306Y-89750000D01*
X79300390Y-89654411D01*
X78958569Y-88827142D01*
X78326187Y-88193655D01*
X77499516Y-87850392D01*
X76604411Y-87849610D01*
X75777142Y-88191431D01*
X75143655Y-88823813D01*
X74800392Y-89650484D01*
X74800305Y-89750000D01*
X67183371Y-89750000D01*
X67003220Y-89314000D01*
X66314625Y-88624202D01*
X65414473Y-88250427D01*
X64439803Y-88249576D01*
X63539000Y-88621780D01*
X62849202Y-89310375D01*
X62666654Y-89750000D01*
X44723861Y-89750000D01*
X44774488Y-89500000D01*
X44774488Y-89129407D01*
X54044121Y-89129407D01*
X54191232Y-89393089D01*
X54963928Y-89491518D01*
X55458768Y-89393089D01*
X55605879Y-89129407D01*
X54825000Y-88348528D01*
X54044121Y-89129407D01*
X44774488Y-89129407D01*
X44774488Y-87638928D01*
X52833482Y-87638928D01*
X52931911Y-88133768D01*
X53195593Y-88280879D01*
X53976472Y-87500000D01*
X55673528Y-87500000D01*
X56454407Y-88280879D01*
X56718089Y-88133768D01*
X56816518Y-87361072D01*
X56718089Y-86866232D01*
X56454407Y-86719121D01*
X55673528Y-87500000D01*
X53976472Y-87500000D01*
X53195593Y-86719121D01*
X52931911Y-86866232D01*
X52833482Y-87638928D01*
X44774488Y-87638928D01*
X44774488Y-86500000D01*
X44687327Y-86036778D01*
X44580390Y-85870593D01*
X54044121Y-85870593D01*
X54825000Y-86651472D01*
X55605879Y-85870593D01*
X55458768Y-85606911D01*
X54686072Y-85508482D01*
X54191232Y-85606911D01*
X54044121Y-85870593D01*
X44580390Y-85870593D01*
X44413563Y-85611337D01*
X43995847Y-85325924D01*
X43500000Y-85225512D01*
X40500000Y-85225512D01*
X40036778Y-85312673D01*
X39611337Y-85586437D01*
X39325924Y-86004153D01*
X39225512Y-86500000D01*
X39225512Y-89500000D01*
X39272553Y-89750000D01*
X37609340Y-89750000D01*
X36920000Y-89060660D01*
X36230660Y-89750000D01*
X27325000Y-89750000D01*
X27325000Y-88221149D01*
X34628408Y-88221149D01*
X34718216Y-88672639D01*
X34993039Y-88866301D01*
X35859340Y-88000000D01*
X37980660Y-88000000D01*
X38846961Y-88866301D01*
X39121784Y-88672639D01*
X39211592Y-87778851D01*
X39121784Y-87327361D01*
X38846961Y-87133699D01*
X37980660Y-88000000D01*
X35859340Y-88000000D01*
X34993039Y-87133699D01*
X34718216Y-87327361D01*
X34628408Y-88221149D01*
X27325000Y-88221149D01*
X27325000Y-86073039D01*
X36053699Y-86073039D01*
X36920000Y-86939340D01*
X37786301Y-86073039D01*
X37592639Y-85798216D01*
X36698851Y-85708408D01*
X36247361Y-85798216D01*
X36053699Y-86073039D01*
X27325000Y-86073039D01*
X27325000Y-84570589D01*
X74749610Y-84570589D01*
X75091431Y-85397858D01*
X75723813Y-86031345D01*
X76550484Y-86374608D01*
X77445589Y-86375390D01*
X78272858Y-86033569D01*
X78906345Y-85401187D01*
X79249608Y-84574516D01*
X79250390Y-83679411D01*
X78908569Y-82852142D01*
X78276187Y-82218655D01*
X77449516Y-81875392D01*
X76554411Y-81874610D01*
X75727142Y-82216431D01*
X75093655Y-82848813D01*
X74750392Y-83675484D01*
X74749610Y-84570589D01*
X27325000Y-84570589D01*
X27325000Y-79050000D01*
X37375512Y-79050000D01*
X37375512Y-81450000D01*
X37462673Y-81913222D01*
X37736437Y-82338663D01*
X38154153Y-82624076D01*
X38650000Y-82724488D01*
X41050000Y-82724488D01*
X41513222Y-82637327D01*
X41938663Y-82363563D01*
X42224076Y-81945847D01*
X42324488Y-81450000D01*
X42324488Y-79050000D01*
X52150512Y-79050000D01*
X52150512Y-81450000D01*
X52237673Y-81913222D01*
X52511437Y-82338663D01*
X52929153Y-82624076D01*
X53425000Y-82724488D01*
X55825000Y-82724488D01*
X56288222Y-82637327D01*
X56713663Y-82363563D01*
X56999076Y-81945847D01*
X57099488Y-81450000D01*
X57099488Y-79050000D01*
X57012327Y-78586778D01*
X56738563Y-78161337D01*
X56432191Y-77952002D01*
X62475000Y-77952002D01*
X62475000Y-78047998D01*
X62661495Y-78985572D01*
X63192588Y-79780410D01*
X63987426Y-80311503D01*
X64925000Y-80497998D01*
X65862574Y-80311503D01*
X66657412Y-79780410D01*
X67024166Y-79231524D01*
X67379153Y-79474076D01*
X67875000Y-79574488D01*
X70075000Y-79574488D01*
X70538222Y-79487327D01*
X70963663Y-79213563D01*
X71249076Y-78795847D01*
X71349488Y-78300000D01*
X71349488Y-78125000D01*
X74725512Y-78125000D01*
X74725512Y-80125000D01*
X74812673Y-80588222D01*
X75086437Y-81013663D01*
X75504153Y-81299076D01*
X76000000Y-81399488D01*
X78000000Y-81399488D01*
X78463222Y-81312327D01*
X78888663Y-81038563D01*
X79174076Y-80620847D01*
X79220823Y-80390000D01*
X87805512Y-80390000D01*
X87805512Y-81910000D01*
X87892673Y-82373222D01*
X88085773Y-82673307D01*
X87830350Y-83288432D01*
X87829652Y-84088060D01*
X88135012Y-84827086D01*
X88267431Y-84959736D01*
X88136999Y-85089940D01*
X87830350Y-85828432D01*
X87829652Y-86628060D01*
X88135012Y-87367086D01*
X88699940Y-87933001D01*
X89438432Y-88239650D01*
X90238060Y-88240348D01*
X90977086Y-87934988D01*
X91543001Y-87370060D01*
X91849650Y-86631568D01*
X91850348Y-85831940D01*
X91544988Y-85092914D01*
X91412569Y-84960264D01*
X91543001Y-84830060D01*
X91849650Y-84091568D01*
X91850348Y-83291940D01*
X91593450Y-82670202D01*
X91774076Y-82405847D01*
X91874488Y-81910000D01*
X91874488Y-80390000D01*
X91802610Y-80008000D01*
X91950002Y-80008000D01*
X91950002Y-79328954D01*
X92124694Y-79080635D01*
X92016307Y-78850000D01*
X91100000Y-78850000D01*
X91100000Y-79218762D01*
X91095847Y-79215924D01*
X90600000Y-79115512D01*
X90300000Y-79115512D01*
X90300000Y-78850000D01*
X89383693Y-78850000D01*
X89275306Y-79080635D01*
X89299842Y-79115512D01*
X89080000Y-79115512D01*
X88616778Y-79202673D01*
X88191337Y-79476437D01*
X87905924Y-79894153D01*
X87805512Y-80390000D01*
X79220823Y-80390000D01*
X79274488Y-80125000D01*
X79274488Y-78125000D01*
X79216979Y-77819365D01*
X89275306Y-77819365D01*
X89383693Y-78050000D01*
X90300000Y-78050000D01*
X90300000Y-77141263D01*
X91100000Y-77141263D01*
X91100000Y-78050000D01*
X92016307Y-78050000D01*
X92124694Y-77819365D01*
X91774912Y-77322162D01*
X91330631Y-77025335D01*
X91100000Y-77141263D01*
X90300000Y-77141263D01*
X90069369Y-77025335D01*
X89625088Y-77322162D01*
X89275306Y-77819365D01*
X79216979Y-77819365D01*
X79187327Y-77661778D01*
X78913563Y-77236337D01*
X78495847Y-76950924D01*
X78000000Y-76850512D01*
X76000000Y-76850512D01*
X75536778Y-76937673D01*
X75111337Y-77211437D01*
X74825924Y-77629153D01*
X74725512Y-78125000D01*
X71349488Y-78125000D01*
X71349488Y-76405981D01*
X93949645Y-76405981D01*
X94261081Y-77159715D01*
X94837252Y-77736892D01*
X95590441Y-78049643D01*
X96405981Y-78050355D01*
X97159715Y-77738919D01*
X97736892Y-77162748D01*
X97910370Y-76744966D01*
X98061081Y-77109715D01*
X98551492Y-77600982D01*
X98276778Y-77652673D01*
X97851337Y-77926437D01*
X97565924Y-78344153D01*
X97465512Y-78840000D01*
X97465512Y-80360000D01*
X97552673Y-80823222D01*
X97745773Y-81123307D01*
X97490350Y-81738432D01*
X97489652Y-82538060D01*
X97795012Y-83277086D01*
X97927431Y-83409736D01*
X97796999Y-83539940D01*
X97490350Y-84278432D01*
X97489652Y-85078060D01*
X97795012Y-85817086D01*
X98359940Y-86383001D01*
X99098432Y-86689650D01*
X99898060Y-86690348D01*
X100637086Y-86384988D01*
X101203001Y-85820060D01*
X101509650Y-85081568D01*
X101510348Y-84281940D01*
X101204988Y-83542914D01*
X101072569Y-83410264D01*
X101203001Y-83280060D01*
X101509650Y-82541568D01*
X101510204Y-81905981D01*
X104859645Y-81905981D01*
X105171081Y-82659715D01*
X105747252Y-83236892D01*
X106500441Y-83549643D01*
X107315981Y-83550355D01*
X108069715Y-83238919D01*
X108646892Y-82662748D01*
X108932469Y-81975000D01*
X120077879Y-81975000D01*
X120241538Y-82797769D01*
X120707599Y-83495280D01*
X121405110Y-83961341D01*
X122227879Y-84125000D01*
X122312121Y-84125000D01*
X123134890Y-83961341D01*
X123540000Y-83690656D01*
X123945110Y-83961341D01*
X124767879Y-84125000D01*
X124852121Y-84125000D01*
X125674890Y-83961341D01*
X125751162Y-83910378D01*
X125954153Y-84049076D01*
X126450000Y-84149488D01*
X128250000Y-84149488D01*
X128713222Y-84062327D01*
X129138663Y-83788563D01*
X129424076Y-83370847D01*
X129524488Y-82875000D01*
X129524488Y-81075000D01*
X129437327Y-80611778D01*
X129243227Y-80310138D01*
X139279658Y-80310138D01*
X139578941Y-81034458D01*
X139733998Y-81189785D01*
X139580889Y-81342627D01*
X139280342Y-82066424D01*
X139279658Y-82850138D01*
X139578941Y-83574458D01*
X139733998Y-83729785D01*
X139580889Y-83882627D01*
X139280342Y-84606424D01*
X139279658Y-85390138D01*
X139578941Y-86114458D01*
X140132627Y-86669111D01*
X140856424Y-86969658D01*
X141640138Y-86970342D01*
X142364458Y-86671059D01*
X142919111Y-86117373D01*
X143219658Y-85393576D01*
X143220219Y-84750000D01*
X144039838Y-84750000D01*
X144195885Y-85534501D01*
X144640269Y-86199569D01*
X145305337Y-86643953D01*
X146089838Y-86800000D01*
X146170162Y-86800000D01*
X146954663Y-86643953D01*
X147619731Y-86199569D01*
X148064115Y-85534501D01*
X148139407Y-85155981D01*
X151699645Y-85155981D01*
X152011081Y-85909715D01*
X152587252Y-86486892D01*
X153340441Y-86799643D01*
X154155981Y-86800355D01*
X154909715Y-86488919D01*
X155486892Y-85912748D01*
X155799643Y-85159559D01*
X155800355Y-84344019D01*
X155691198Y-84079838D01*
X175700000Y-84079838D01*
X175700000Y-84160162D01*
X175856047Y-84944663D01*
X176300431Y-85609731D01*
X176965499Y-86054115D01*
X177750000Y-86210162D01*
X178534501Y-86054115D01*
X179199569Y-85609731D01*
X179260297Y-85518845D01*
X179215512Y-85740000D01*
X179215512Y-87260000D01*
X179302673Y-87723222D01*
X179576437Y-88148663D01*
X179994153Y-88434076D01*
X180490000Y-88534488D01*
X182010000Y-88534488D01*
X182473222Y-88447327D01*
X182773307Y-88254227D01*
X183388432Y-88509650D01*
X184188060Y-88510348D01*
X184927086Y-88204988D01*
X185059736Y-88072569D01*
X185189940Y-88203001D01*
X185928432Y-88509650D01*
X186728060Y-88510348D01*
X187427973Y-88221149D01*
X234628408Y-88221149D01*
X234718216Y-88672639D01*
X234993039Y-88866301D01*
X235859340Y-88000000D01*
X237980660Y-88000000D01*
X238846961Y-88866301D01*
X239121784Y-88672639D01*
X239211592Y-87778851D01*
X239121784Y-87327361D01*
X238846961Y-87133699D01*
X237980660Y-88000000D01*
X235859340Y-88000000D01*
X234993039Y-87133699D01*
X234718216Y-87327361D01*
X234628408Y-88221149D01*
X187427973Y-88221149D01*
X187467086Y-88204988D01*
X188033001Y-87640060D01*
X188339650Y-86901568D01*
X188340348Y-86101940D01*
X188034988Y-85362914D01*
X187470060Y-84796999D01*
X186731568Y-84490350D01*
X185931940Y-84489652D01*
X185192914Y-84795012D01*
X185060264Y-84927431D01*
X184930060Y-84796999D01*
X184191568Y-84490350D01*
X183391940Y-84489652D01*
X182770202Y-84746550D01*
X182505847Y-84565924D01*
X182010000Y-84465512D01*
X180490000Y-84465512D01*
X180026778Y-84552673D01*
X179677177Y-84777635D01*
X179800000Y-84160162D01*
X179800000Y-84079838D01*
X179643953Y-83295337D01*
X179199569Y-82630269D01*
X178534501Y-82185885D01*
X177750000Y-82029838D01*
X176965499Y-82185885D01*
X176300431Y-82630269D01*
X175856047Y-83295337D01*
X175700000Y-84079838D01*
X155691198Y-84079838D01*
X155488919Y-83590285D01*
X154912748Y-83013108D01*
X154899019Y-83007407D01*
X155359731Y-82699569D01*
X155804115Y-82034501D01*
X155829679Y-81905981D01*
X179449645Y-81905981D01*
X179761081Y-82659715D01*
X180337252Y-83236892D01*
X181090441Y-83549643D01*
X181905981Y-83550355D01*
X182659715Y-83238919D01*
X183236892Y-82662748D01*
X183549643Y-81909559D01*
X183550355Y-81094019D01*
X183238919Y-80340285D01*
X182662748Y-79763108D01*
X181909559Y-79450357D01*
X181094019Y-79449645D01*
X180340285Y-79761081D01*
X179763108Y-80337252D01*
X179450357Y-81090441D01*
X179449645Y-81905981D01*
X155829679Y-81905981D01*
X155960162Y-81250000D01*
X155804115Y-80465499D01*
X155359731Y-79800431D01*
X154694663Y-79356047D01*
X153910162Y-79200000D01*
X153829838Y-79200000D01*
X153045337Y-79356047D01*
X152380269Y-79800431D01*
X151935885Y-80465499D01*
X151779838Y-81250000D01*
X151935885Y-82034501D01*
X152380269Y-82699569D01*
X152748588Y-82945672D01*
X152590285Y-83011081D01*
X152013108Y-83587252D01*
X151700357Y-84340441D01*
X151699645Y-85155981D01*
X148139407Y-85155981D01*
X148220162Y-84750000D01*
X148064115Y-83965499D01*
X147619731Y-83300431D01*
X147251412Y-83054328D01*
X147409715Y-82988919D01*
X147986892Y-82412748D01*
X148299643Y-81659559D01*
X148300355Y-80844019D01*
X147988919Y-80090285D01*
X147412748Y-79513108D01*
X146659559Y-79200357D01*
X145844019Y-79199645D01*
X145090285Y-79511081D01*
X144513108Y-80087252D01*
X144200357Y-80840441D01*
X144199645Y-81655981D01*
X144511081Y-82409715D01*
X145087252Y-82986892D01*
X145100981Y-82992593D01*
X144640269Y-83300431D01*
X144195885Y-83965499D01*
X144039838Y-84750000D01*
X143220219Y-84750000D01*
X143220342Y-84609862D01*
X142921059Y-83885542D01*
X142766002Y-83730215D01*
X142919111Y-83577373D01*
X143219658Y-82853576D01*
X143220342Y-82069862D01*
X142921059Y-81345542D01*
X142766002Y-81190215D01*
X142919111Y-81037373D01*
X143219658Y-80313576D01*
X143220342Y-79529862D01*
X142921059Y-78805542D01*
X142790745Y-78675000D01*
X160777879Y-78675000D01*
X160941538Y-79497769D01*
X161407599Y-80195280D01*
X162105110Y-80661341D01*
X162927879Y-80825000D01*
X163012121Y-80825000D01*
X163834890Y-80661341D01*
X164240000Y-80390656D01*
X164645110Y-80661341D01*
X165467879Y-80825000D01*
X165552121Y-80825000D01*
X166374890Y-80661341D01*
X166451162Y-80610378D01*
X166654153Y-80749076D01*
X167150000Y-80849488D01*
X168950000Y-80849488D01*
X169413222Y-80762327D01*
X169838663Y-80488563D01*
X170124076Y-80070847D01*
X170224488Y-79575000D01*
X170224488Y-79200000D01*
X186425512Y-79200000D01*
X186425512Y-80800000D01*
X186512673Y-81263222D01*
X186786437Y-81688663D01*
X187204153Y-81974076D01*
X187700000Y-82074488D01*
X189300000Y-82074488D01*
X189763222Y-81987327D01*
X190188663Y-81713563D01*
X190474076Y-81295847D01*
X190574488Y-80800000D01*
X190574488Y-79200000D01*
X190487327Y-78736778D01*
X190316431Y-78471198D01*
X190549643Y-77909559D01*
X190550355Y-77094019D01*
X190238919Y-76340285D01*
X189662748Y-75763108D01*
X188909559Y-75450357D01*
X188094019Y-75449645D01*
X187340285Y-75761081D01*
X186763108Y-76337252D01*
X186450357Y-77090441D01*
X186449645Y-77905981D01*
X186683906Y-78472938D01*
X186525924Y-78704153D01*
X186425512Y-79200000D01*
X170224488Y-79200000D01*
X170224488Y-77775000D01*
X170137327Y-77311778D01*
X169863563Y-76886337D01*
X169445847Y-76600924D01*
X168950000Y-76500512D01*
X167150000Y-76500512D01*
X166686778Y-76587673D01*
X166450907Y-76739452D01*
X166374890Y-76688659D01*
X165552121Y-76525000D01*
X165467879Y-76525000D01*
X164645110Y-76688659D01*
X164240000Y-76959344D01*
X163834890Y-76688659D01*
X163012121Y-76525000D01*
X162927879Y-76525000D01*
X162105110Y-76688659D01*
X161407599Y-77154720D01*
X160941538Y-77852231D01*
X160777879Y-78675000D01*
X142790745Y-78675000D01*
X142367373Y-78250889D01*
X141643576Y-77950342D01*
X140859862Y-77949658D01*
X140135542Y-78248941D01*
X139580889Y-78802627D01*
X139280342Y-79526424D01*
X139279658Y-80310138D01*
X129243227Y-80310138D01*
X129163563Y-80186337D01*
X128745847Y-79900924D01*
X128250000Y-79800512D01*
X126450000Y-79800512D01*
X125986778Y-79887673D01*
X125750907Y-80039452D01*
X125674890Y-79988659D01*
X124852121Y-79825000D01*
X124767879Y-79825000D01*
X123945110Y-79988659D01*
X123540000Y-80259344D01*
X123134890Y-79988659D01*
X122312121Y-79825000D01*
X122227879Y-79825000D01*
X121405110Y-79988659D01*
X120707599Y-80454720D01*
X120241538Y-81152231D01*
X120077879Y-81975000D01*
X108932469Y-81975000D01*
X108959643Y-81909559D01*
X108960355Y-81094019D01*
X108648919Y-80340285D01*
X108072748Y-79763108D01*
X107319559Y-79450357D01*
X106504019Y-79449645D01*
X105750285Y-79761081D01*
X105173108Y-80337252D01*
X104860357Y-81090441D01*
X104859645Y-81905981D01*
X101510204Y-81905981D01*
X101510348Y-81741940D01*
X101253450Y-81120202D01*
X101434076Y-80855847D01*
X101534488Y-80360000D01*
X101534488Y-78840000D01*
X101447327Y-78376778D01*
X101173563Y-77951337D01*
X100853645Y-77732746D01*
X100959715Y-77688919D01*
X101536892Y-77112748D01*
X101649891Y-76840615D01*
X101761081Y-77109715D01*
X102337252Y-77686892D01*
X103090441Y-77999643D01*
X103905981Y-78000355D01*
X104659715Y-77688919D01*
X105236892Y-77112748D01*
X105549643Y-76359559D01*
X105550355Y-75544019D01*
X105238919Y-74790285D01*
X104662748Y-74213108D01*
X103909559Y-73900357D01*
X103094019Y-73899645D01*
X102340285Y-74211081D01*
X101763108Y-74787252D01*
X101650109Y-75059385D01*
X101538919Y-74790285D01*
X100962748Y-74213108D01*
X100209559Y-73900357D01*
X99394019Y-73899645D01*
X98640285Y-74211081D01*
X98063108Y-74787252D01*
X97889630Y-75205034D01*
X97738919Y-74840285D01*
X97162748Y-74263108D01*
X96409559Y-73950357D01*
X95594019Y-73949645D01*
X94840285Y-74261081D01*
X94263108Y-74837252D01*
X93950357Y-75590441D01*
X93949645Y-76405981D01*
X71349488Y-76405981D01*
X71349488Y-76100000D01*
X71262327Y-75636778D01*
X70988563Y-75211337D01*
X70570847Y-74925924D01*
X70075000Y-74825512D01*
X67875000Y-74825512D01*
X67411778Y-74912673D01*
X66986337Y-75186437D01*
X66700924Y-75604153D01*
X66600512Y-76100000D01*
X66600512Y-76181571D01*
X65862574Y-75688497D01*
X64925000Y-75502002D01*
X63987426Y-75688497D01*
X63192588Y-76219590D01*
X62661495Y-77014428D01*
X62475000Y-77952002D01*
X56432191Y-77952002D01*
X56320847Y-77875924D01*
X55825000Y-77775512D01*
X53425000Y-77775512D01*
X52961778Y-77862673D01*
X52536337Y-78136437D01*
X52250924Y-78554153D01*
X52150512Y-79050000D01*
X42324488Y-79050000D01*
X42237327Y-78586778D01*
X41963563Y-78161337D01*
X41545847Y-77875924D01*
X41050000Y-77775512D01*
X38650000Y-77775512D01*
X38186778Y-77862673D01*
X37761337Y-78136437D01*
X37475924Y-78554153D01*
X37375512Y-79050000D01*
X27325000Y-79050000D01*
X27325000Y-74379407D01*
X39069121Y-74379407D01*
X39216232Y-74643089D01*
X39988928Y-74741518D01*
X40483768Y-74643089D01*
X40630879Y-74379407D01*
X53844121Y-74379407D01*
X53991232Y-74643089D01*
X54763928Y-74741518D01*
X55258768Y-74643089D01*
X55405879Y-74379407D01*
X54625000Y-73598528D01*
X53844121Y-74379407D01*
X40630879Y-74379407D01*
X39850000Y-73598528D01*
X39069121Y-74379407D01*
X27325000Y-74379407D01*
X27325000Y-72888928D01*
X37858482Y-72888928D01*
X37956911Y-73383768D01*
X38220593Y-73530879D01*
X39001472Y-72750000D01*
X40698528Y-72750000D01*
X41479407Y-73530879D01*
X41743089Y-73383768D01*
X41806123Y-72888928D01*
X52633482Y-72888928D01*
X52731911Y-73383768D01*
X52995593Y-73530879D01*
X53776472Y-72750000D01*
X55473528Y-72750000D01*
X56254407Y-73530879D01*
X56518089Y-73383768D01*
X56579713Y-72900000D01*
X112962002Y-72900000D01*
X113148497Y-73837574D01*
X113679590Y-74632412D01*
X114474428Y-75163505D01*
X115412002Y-75350000D01*
X115507998Y-75350000D01*
X116445572Y-75163505D01*
X117240410Y-74632412D01*
X117771503Y-73837574D01*
X117861486Y-73385197D01*
X128249576Y-73385197D01*
X128621780Y-74286000D01*
X129310375Y-74975798D01*
X130210527Y-75349573D01*
X131185197Y-75350424D01*
X132086000Y-74978220D01*
X132775798Y-74289625D01*
X133149573Y-73389473D01*
X133150424Y-72414803D01*
X132778220Y-71514000D01*
X132089625Y-70824202D01*
X131189473Y-70450427D01*
X130214803Y-70449576D01*
X129314000Y-70821780D01*
X128624202Y-71510375D01*
X128250427Y-72410527D01*
X128249576Y-73385197D01*
X117861486Y-73385197D01*
X117957998Y-72900000D01*
X117771503Y-71962426D01*
X117240410Y-71167588D01*
X116445572Y-70636495D01*
X115507998Y-70450000D01*
X115412002Y-70450000D01*
X114474428Y-70636495D01*
X113679590Y-71167588D01*
X113148497Y-71962426D01*
X112962002Y-72900000D01*
X56579713Y-72900000D01*
X56616518Y-72611072D01*
X56518089Y-72116232D01*
X56254407Y-71969121D01*
X55473528Y-72750000D01*
X53776472Y-72750000D01*
X52995593Y-71969121D01*
X52731911Y-72116232D01*
X52633482Y-72888928D01*
X41806123Y-72888928D01*
X41841518Y-72611072D01*
X41743089Y-72116232D01*
X41479407Y-71969121D01*
X40698528Y-72750000D01*
X39001472Y-72750000D01*
X38220593Y-71969121D01*
X37956911Y-72116232D01*
X37858482Y-72888928D01*
X27325000Y-72888928D01*
X27325000Y-68250000D01*
X27818020Y-68250000D01*
X29949010Y-70380991D01*
M02*
