G04 #@! TF.FileFunction,Legend,Top*
%FSLAX46Y46*%
G04 Gerber Fmt 4.6, Leading zero omitted, Abs format (unit mm)*
G04 Created by KiCad (PCBNEW 4.0.7) date 08/18/20 10:19:07*
%MOMM*%
%LPD*%
G01*
G04 APERTURE LIST*
%ADD10C,0.100000*%
%ADD11C,0.300000*%
%ADD12C,0.150000*%
%ADD13C,0.120000*%
G04 APERTURE END LIST*
D10*
D11*
X172000000Y-102642857D02*
X171928571Y-102785714D01*
X171928571Y-103000000D01*
X172000000Y-103214285D01*
X172142857Y-103357143D01*
X172285714Y-103428571D01*
X172571429Y-103500000D01*
X172785714Y-103500000D01*
X173071429Y-103428571D01*
X173214286Y-103357143D01*
X173357143Y-103214285D01*
X173428571Y-103000000D01*
X173428571Y-102857143D01*
X173357143Y-102642857D01*
X173285714Y-102571428D01*
X172785714Y-102571428D01*
X172785714Y-102857143D01*
X173428571Y-101928571D02*
X171928571Y-101928571D01*
X173428571Y-101071428D01*
X171928571Y-101071428D01*
X173428571Y-100357142D02*
X171928571Y-100357142D01*
X171928571Y-99999999D01*
X172000000Y-99785714D01*
X172142857Y-99642856D01*
X172285714Y-99571428D01*
X172571429Y-99499999D01*
X172785714Y-99499999D01*
X173071429Y-99571428D01*
X173214286Y-99642856D01*
X173357143Y-99785714D01*
X173428571Y-99999999D01*
X173428571Y-100357142D01*
X160178571Y-104142857D02*
X158678571Y-104142857D01*
X160178571Y-103428571D02*
X158678571Y-103428571D01*
X160178571Y-102571428D01*
X158678571Y-102571428D01*
X160178571Y-101857142D02*
X158678571Y-101857142D01*
X158678571Y-101285714D01*
X158750000Y-101142856D01*
X158821429Y-101071428D01*
X158964286Y-100999999D01*
X159178571Y-100999999D01*
X159321429Y-101071428D01*
X159392857Y-101142856D01*
X159464286Y-101285714D01*
X159464286Y-101857142D01*
X158678571Y-100357142D02*
X159892857Y-100357142D01*
X160035714Y-100285714D01*
X160107143Y-100214285D01*
X160178571Y-100071428D01*
X160178571Y-99785714D01*
X160107143Y-99642856D01*
X160035714Y-99571428D01*
X159892857Y-99499999D01*
X158678571Y-99499999D01*
X158678571Y-98999999D02*
X158678571Y-98142856D01*
X160178571Y-98571427D02*
X158678571Y-98571427D01*
X211892858Y-100510714D02*
X211821429Y-100582143D01*
X211607143Y-100653571D01*
X211464286Y-100653571D01*
X211250001Y-100582143D01*
X211107143Y-100439286D01*
X211035715Y-100296429D01*
X210964286Y-100010714D01*
X210964286Y-99796429D01*
X211035715Y-99510714D01*
X211107143Y-99367857D01*
X211250001Y-99225000D01*
X211464286Y-99153571D01*
X211607143Y-99153571D01*
X211821429Y-99225000D01*
X211892858Y-99296429D01*
X212392858Y-99153571D02*
X213321429Y-99153571D01*
X212821429Y-99725000D01*
X213035715Y-99725000D01*
X213178572Y-99796429D01*
X213250001Y-99867857D01*
X213321429Y-100010714D01*
X213321429Y-100367857D01*
X213250001Y-100510714D01*
X213178572Y-100582143D01*
X213035715Y-100653571D01*
X212607143Y-100653571D01*
X212464286Y-100582143D01*
X212392858Y-100510714D01*
X214250000Y-99153571D02*
X214392857Y-99153571D01*
X214535714Y-99225000D01*
X214607143Y-99296429D01*
X214678572Y-99439286D01*
X214750000Y-99725000D01*
X214750000Y-100082143D01*
X214678572Y-100367857D01*
X214607143Y-100510714D01*
X214535714Y-100582143D01*
X214392857Y-100653571D01*
X214250000Y-100653571D01*
X214107143Y-100582143D01*
X214035714Y-100510714D01*
X213964286Y-100367857D01*
X213892857Y-100082143D01*
X213892857Y-99725000D01*
X213964286Y-99439286D01*
X214035714Y-99296429D01*
X214107143Y-99225000D01*
X214250000Y-99153571D01*
X215678571Y-99153571D02*
X215821428Y-99153571D01*
X215964285Y-99225000D01*
X216035714Y-99296429D01*
X216107143Y-99439286D01*
X216178571Y-99725000D01*
X216178571Y-100082143D01*
X216107143Y-100367857D01*
X216035714Y-100510714D01*
X215964285Y-100582143D01*
X215821428Y-100653571D01*
X215678571Y-100653571D01*
X215535714Y-100582143D01*
X215464285Y-100510714D01*
X215392857Y-100367857D01*
X215321428Y-100082143D01*
X215321428Y-99725000D01*
X215392857Y-99439286D01*
X215464285Y-99296429D01*
X215535714Y-99225000D01*
X215678571Y-99153571D01*
X217892856Y-100225000D02*
X218607142Y-100225000D01*
X217749999Y-100653571D02*
X218249999Y-99153571D01*
X218749999Y-100653571D01*
X219249999Y-100653571D02*
X219249999Y-99153571D01*
X219749999Y-100225000D01*
X220249999Y-99153571D01*
X220249999Y-100653571D01*
X220964285Y-100653571D02*
X220964285Y-99153571D01*
X221535713Y-99153571D01*
X221678571Y-99225000D01*
X221749999Y-99296429D01*
X221821428Y-99439286D01*
X221821428Y-99653571D01*
X221749999Y-99796429D01*
X221678571Y-99867857D01*
X221535713Y-99939286D01*
X220964285Y-99939286D01*
X223178571Y-100653571D02*
X222464285Y-100653571D01*
X222464285Y-99153571D01*
X223678571Y-100653571D02*
X223678571Y-99153571D01*
X224892857Y-99867857D02*
X224392857Y-99867857D01*
X224392857Y-100653571D02*
X224392857Y-99153571D01*
X225107143Y-99153571D01*
X225678571Y-100653571D02*
X225678571Y-99153571D01*
X226392857Y-99867857D02*
X226892857Y-99867857D01*
X227107143Y-100653571D02*
X226392857Y-100653571D01*
X226392857Y-99153571D01*
X227107143Y-99153571D01*
X228607143Y-100653571D02*
X228107143Y-99939286D01*
X227750000Y-100653571D02*
X227750000Y-99153571D01*
X228321428Y-99153571D01*
X228464286Y-99225000D01*
X228535714Y-99296429D01*
X228607143Y-99439286D01*
X228607143Y-99653571D01*
X228535714Y-99796429D01*
X228464286Y-99867857D01*
X228321428Y-99939286D01*
X227750000Y-99939286D01*
X230392857Y-100653571D02*
X230392857Y-99153571D01*
X230964285Y-99153571D01*
X231107143Y-99225000D01*
X231178571Y-99296429D01*
X231250000Y-99439286D01*
X231250000Y-99653571D01*
X231178571Y-99796429D01*
X231107143Y-99867857D01*
X230964285Y-99939286D01*
X230392857Y-99939286D01*
X232750000Y-100510714D02*
X232678571Y-100582143D01*
X232464285Y-100653571D01*
X232321428Y-100653571D01*
X232107143Y-100582143D01*
X231964285Y-100439286D01*
X231892857Y-100296429D01*
X231821428Y-100010714D01*
X231821428Y-99796429D01*
X231892857Y-99510714D01*
X231964285Y-99367857D01*
X232107143Y-99225000D01*
X232321428Y-99153571D01*
X232464285Y-99153571D01*
X232678571Y-99225000D01*
X232750000Y-99296429D01*
X233892857Y-99867857D02*
X234107143Y-99939286D01*
X234178571Y-100010714D01*
X234250000Y-100153571D01*
X234250000Y-100367857D01*
X234178571Y-100510714D01*
X234107143Y-100582143D01*
X233964285Y-100653571D01*
X233392857Y-100653571D01*
X233392857Y-99153571D01*
X233892857Y-99153571D01*
X234035714Y-99225000D01*
X234107143Y-99296429D01*
X234178571Y-99439286D01*
X234178571Y-99582143D01*
X234107143Y-99725000D01*
X234035714Y-99796429D01*
X233892857Y-99867857D01*
X233392857Y-99867857D01*
X236535714Y-99867857D02*
X236750000Y-99939286D01*
X236821428Y-100010714D01*
X236892857Y-100153571D01*
X236892857Y-100367857D01*
X236821428Y-100510714D01*
X236750000Y-100582143D01*
X236607142Y-100653571D01*
X236035714Y-100653571D01*
X236035714Y-99153571D01*
X236535714Y-99153571D01*
X236678571Y-99225000D01*
X236750000Y-99296429D01*
X236821428Y-99439286D01*
X236821428Y-99582143D01*
X236750000Y-99725000D01*
X236678571Y-99796429D01*
X236535714Y-99867857D01*
X236035714Y-99867857D01*
X237821428Y-99939286D02*
X237821428Y-100653571D01*
X237321428Y-99153571D02*
X237821428Y-99939286D01*
X238321428Y-99153571D01*
X239964285Y-100653571D02*
X239964285Y-99153571D01*
X240321428Y-99153571D01*
X240535713Y-99225000D01*
X240678571Y-99367857D01*
X240749999Y-99510714D01*
X240821428Y-99796429D01*
X240821428Y-100010714D01*
X240749999Y-100296429D01*
X240678571Y-100439286D01*
X240535713Y-100582143D01*
X240321428Y-100653571D01*
X239964285Y-100653571D01*
X241392856Y-100225000D02*
X242107142Y-100225000D01*
X241249999Y-100653571D02*
X241749999Y-99153571D01*
X242249999Y-100653571D01*
X242749999Y-100653571D02*
X242749999Y-99153571D01*
X243607142Y-100653571D01*
X243607142Y-99153571D01*
X244321428Y-100653571D02*
X244321428Y-99153571D01*
X245035714Y-99867857D02*
X245535714Y-99867857D01*
X245750000Y-100653571D02*
X245035714Y-100653571D01*
X245035714Y-99153571D01*
X245750000Y-99153571D01*
X247107143Y-100653571D02*
X246392857Y-100653571D01*
X246392857Y-99153571D01*
X248750000Y-100653571D02*
X248750000Y-99153571D01*
X249250000Y-100225000D01*
X249750000Y-99153571D01*
X249750000Y-100653571D01*
X250392857Y-100225000D02*
X251107143Y-100225000D01*
X250250000Y-100653571D02*
X250750000Y-99153571D01*
X251250000Y-100653571D01*
X252607143Y-100653571D02*
X252107143Y-99939286D01*
X251750000Y-100653571D02*
X251750000Y-99153571D01*
X252321428Y-99153571D01*
X252464286Y-99225000D01*
X252535714Y-99296429D01*
X252607143Y-99439286D01*
X252607143Y-99653571D01*
X252535714Y-99796429D01*
X252464286Y-99867857D01*
X252321428Y-99939286D01*
X251750000Y-99939286D01*
X253250000Y-100653571D02*
X253250000Y-99153571D01*
X254107143Y-100653571D02*
X253464286Y-99796429D01*
X254107143Y-99153571D02*
X253250000Y-100010714D01*
X254678571Y-100582143D02*
X254892857Y-100653571D01*
X255250000Y-100653571D01*
X255392857Y-100582143D01*
X255464286Y-100510714D01*
X255535714Y-100367857D01*
X255535714Y-100225000D01*
X255464286Y-100082143D01*
X255392857Y-100010714D01*
X255250000Y-99939286D01*
X254964286Y-99867857D01*
X254821428Y-99796429D01*
X254750000Y-99725000D01*
X254678571Y-99582143D01*
X254678571Y-99439286D01*
X254750000Y-99296429D01*
X254821428Y-99225000D01*
X254964286Y-99153571D01*
X255321428Y-99153571D01*
X255535714Y-99225000D01*
X226000001Y-103060714D02*
X225928572Y-103132143D01*
X225714286Y-103203571D01*
X225571429Y-103203571D01*
X225357144Y-103132143D01*
X225214286Y-102989286D01*
X225142858Y-102846429D01*
X225071429Y-102560714D01*
X225071429Y-102346429D01*
X225142858Y-102060714D01*
X225214286Y-101917857D01*
X225357144Y-101775000D01*
X225571429Y-101703571D01*
X225714286Y-101703571D01*
X225928572Y-101775000D01*
X226000001Y-101846429D01*
X227500001Y-103060714D02*
X227428572Y-103132143D01*
X227214286Y-103203571D01*
X227071429Y-103203571D01*
X226857144Y-103132143D01*
X226714286Y-102989286D01*
X226642858Y-102846429D01*
X226571429Y-102560714D01*
X226571429Y-102346429D01*
X226642858Y-102060714D01*
X226714286Y-101917857D01*
X226857144Y-101775000D01*
X227071429Y-101703571D01*
X227214286Y-101703571D01*
X227428572Y-101775000D01*
X227500001Y-101846429D01*
X228142858Y-102632143D02*
X229285715Y-102632143D01*
X230500001Y-102417857D02*
X230714287Y-102489286D01*
X230785715Y-102560714D01*
X230857144Y-102703571D01*
X230857144Y-102917857D01*
X230785715Y-103060714D01*
X230714287Y-103132143D01*
X230571429Y-103203571D01*
X230000001Y-103203571D01*
X230000001Y-101703571D01*
X230500001Y-101703571D01*
X230642858Y-101775000D01*
X230714287Y-101846429D01*
X230785715Y-101989286D01*
X230785715Y-102132143D01*
X230714287Y-102275000D01*
X230642858Y-102346429D01*
X230500001Y-102417857D01*
X230000001Y-102417857D01*
X231785715Y-102489286D02*
X231785715Y-103203571D01*
X231285715Y-101703571D02*
X231785715Y-102489286D01*
X232285715Y-101703571D01*
X232785715Y-102632143D02*
X233928572Y-102632143D01*
X234571429Y-103132143D02*
X234785715Y-103203571D01*
X235142858Y-103203571D01*
X235285715Y-103132143D01*
X235357144Y-103060714D01*
X235428572Y-102917857D01*
X235428572Y-102775000D01*
X235357144Y-102632143D01*
X235285715Y-102560714D01*
X235142858Y-102489286D01*
X234857144Y-102417857D01*
X234714286Y-102346429D01*
X234642858Y-102275000D01*
X234571429Y-102132143D01*
X234571429Y-101989286D01*
X234642858Y-101846429D01*
X234714286Y-101775000D01*
X234857144Y-101703571D01*
X235214286Y-101703571D01*
X235428572Y-101775000D01*
X236000000Y-102775000D02*
X236714286Y-102775000D01*
X235857143Y-103203571D02*
X236357143Y-101703571D01*
X236857143Y-103203571D01*
X239142857Y-102203571D02*
X239142857Y-103203571D01*
X238785714Y-101632143D02*
X238428571Y-102703571D01*
X239357143Y-102703571D01*
X239928571Y-103060714D02*
X239999999Y-103132143D01*
X239928571Y-103203571D01*
X239857142Y-103132143D01*
X239928571Y-103060714D01*
X239928571Y-103203571D01*
X240928571Y-101703571D02*
X241071428Y-101703571D01*
X241214285Y-101775000D01*
X241285714Y-101846429D01*
X241357143Y-101989286D01*
X241428571Y-102275000D01*
X241428571Y-102632143D01*
X241357143Y-102917857D01*
X241285714Y-103060714D01*
X241214285Y-103132143D01*
X241071428Y-103203571D01*
X240928571Y-103203571D01*
X240785714Y-103132143D01*
X240714285Y-103060714D01*
X240642857Y-102917857D01*
X240571428Y-102632143D01*
X240571428Y-102275000D01*
X240642857Y-101989286D01*
X240714285Y-101846429D01*
X240785714Y-101775000D01*
X240928571Y-101703571D01*
D12*
X127452381Y-87214285D02*
X127452381Y-87785714D01*
X127452381Y-87500000D02*
X126452381Y-87500000D01*
X126595238Y-87595238D01*
X126690476Y-87690476D01*
X126738095Y-87785714D01*
X148285715Y-48452381D02*
X147714286Y-48452381D01*
X148000000Y-48452381D02*
X148000000Y-47452381D01*
X147904762Y-47595238D01*
X147809524Y-47690476D01*
X147714286Y-47738095D01*
X134285715Y-48452381D02*
X133714286Y-48452381D01*
X134000000Y-48452381D02*
X134000000Y-47452381D01*
X133904762Y-47595238D01*
X133809524Y-47690476D01*
X133714286Y-47738095D01*
X160785715Y-80202381D02*
X160214286Y-80202381D01*
X160500000Y-80202381D02*
X160500000Y-79202381D01*
X160404762Y-79345238D01*
X160309524Y-79440476D01*
X160214286Y-79488095D01*
X155785715Y-75952381D02*
X155214286Y-75952381D01*
X155500000Y-75952381D02*
X155500000Y-74952381D01*
X155404762Y-75095238D01*
X155309524Y-75190476D01*
X155214286Y-75238095D01*
D11*
X230857143Y-77250000D02*
X230714286Y-77178571D01*
X230500000Y-77178571D01*
X230285715Y-77250000D01*
X230142857Y-77392857D01*
X230071429Y-77535714D01*
X230000000Y-77821429D01*
X230000000Y-78035714D01*
X230071429Y-78321429D01*
X230142857Y-78464286D01*
X230285715Y-78607143D01*
X230500000Y-78678571D01*
X230642857Y-78678571D01*
X230857143Y-78607143D01*
X230928572Y-78535714D01*
X230928572Y-78035714D01*
X230642857Y-78035714D01*
X231571429Y-78678571D02*
X231571429Y-77178571D01*
X232428572Y-78678571D01*
X232428572Y-77178571D01*
X233142858Y-78678571D02*
X233142858Y-77178571D01*
X233500001Y-77178571D01*
X233714286Y-77250000D01*
X233857144Y-77392857D01*
X233928572Y-77535714D01*
X234000001Y-77821429D01*
X234000001Y-78035714D01*
X233928572Y-78321429D01*
X233857144Y-78464286D01*
X233714286Y-78607143D01*
X233500001Y-78678571D01*
X233142858Y-78678571D01*
X68857143Y-76250000D02*
X68714286Y-76178571D01*
X68500000Y-76178571D01*
X68285715Y-76250000D01*
X68142857Y-76392857D01*
X68071429Y-76535714D01*
X68000000Y-76821429D01*
X68000000Y-77035714D01*
X68071429Y-77321429D01*
X68142857Y-77464286D01*
X68285715Y-77607143D01*
X68500000Y-77678571D01*
X68642857Y-77678571D01*
X68857143Y-77607143D01*
X68928572Y-77535714D01*
X68928572Y-77035714D01*
X68642857Y-77035714D01*
X69571429Y-77678571D02*
X69571429Y-76178571D01*
X70428572Y-77678571D01*
X70428572Y-76178571D01*
X71142858Y-77678571D02*
X71142858Y-76178571D01*
X71500001Y-76178571D01*
X71714286Y-76250000D01*
X71857144Y-76392857D01*
X71928572Y-76535714D01*
X72000001Y-76821429D01*
X72000001Y-77035714D01*
X71928572Y-77321429D01*
X71857144Y-77464286D01*
X71714286Y-77607143D01*
X71500001Y-77678571D01*
X71142858Y-77678571D01*
X224785715Y-78107143D02*
X225928572Y-78107143D01*
X226428572Y-77178571D02*
X226928572Y-78678571D01*
X227428572Y-77178571D01*
X63785715Y-77107143D02*
X64928572Y-77107143D01*
X64357143Y-77678571D02*
X64357143Y-76535714D01*
X65428572Y-76178571D02*
X65928572Y-77678571D01*
X66428572Y-76178571D01*
X250750000Y-72142857D02*
X250678571Y-72285714D01*
X250678571Y-72500000D01*
X250750000Y-72714285D01*
X250892857Y-72857143D01*
X251035714Y-72928571D01*
X251321429Y-73000000D01*
X251535714Y-73000000D01*
X251821429Y-72928571D01*
X251964286Y-72857143D01*
X252107143Y-72714285D01*
X252178571Y-72500000D01*
X252178571Y-72357143D01*
X252107143Y-72142857D01*
X252035714Y-72071428D01*
X251535714Y-72071428D01*
X251535714Y-72357143D01*
X252178571Y-71428571D02*
X250678571Y-71428571D01*
X252178571Y-70571428D01*
X250678571Y-70571428D01*
X252178571Y-69857142D02*
X250678571Y-69857142D01*
X250678571Y-69499999D01*
X250750000Y-69285714D01*
X250892857Y-69142856D01*
X251035714Y-69071428D01*
X251321429Y-68999999D01*
X251535714Y-68999999D01*
X251821429Y-69071428D01*
X251964286Y-69142856D01*
X252107143Y-69285714D01*
X252178571Y-69499999D01*
X252178571Y-69857142D01*
X237678571Y-75607143D02*
X237678571Y-75321429D01*
X237750000Y-75178571D01*
X237892857Y-75035714D01*
X238178571Y-74964286D01*
X238678571Y-74964286D01*
X238964286Y-75035714D01*
X239107143Y-75178571D01*
X239178571Y-75321429D01*
X239178571Y-75607143D01*
X239107143Y-75750000D01*
X238964286Y-75892857D01*
X238678571Y-75964286D01*
X238178571Y-75964286D01*
X237892857Y-75892857D01*
X237750000Y-75750000D01*
X237678571Y-75607143D01*
X237678571Y-74321428D02*
X238892857Y-74321428D01*
X239035714Y-74250000D01*
X239107143Y-74178571D01*
X239178571Y-74035714D01*
X239178571Y-73750000D01*
X239107143Y-73607142D01*
X239035714Y-73535714D01*
X238892857Y-73464285D01*
X237678571Y-73464285D01*
X237678571Y-72964285D02*
X237678571Y-72107142D01*
X239178571Y-72535713D02*
X237678571Y-72535713D01*
X239178571Y-71607142D02*
X237678571Y-71607142D01*
X237678571Y-71035714D01*
X237750000Y-70892856D01*
X237821429Y-70821428D01*
X237964286Y-70749999D01*
X238178571Y-70749999D01*
X238321429Y-70821428D01*
X238392857Y-70892856D01*
X238464286Y-71035714D01*
X238464286Y-71607142D01*
X237678571Y-70107142D02*
X238892857Y-70107142D01*
X239035714Y-70035714D01*
X239107143Y-69964285D01*
X239178571Y-69821428D01*
X239178571Y-69535714D01*
X239107143Y-69392856D01*
X239035714Y-69321428D01*
X238892857Y-69249999D01*
X237678571Y-69249999D01*
X237678571Y-68749999D02*
X237678571Y-67892856D01*
X239178571Y-68321427D02*
X237678571Y-68321427D01*
D13*
X149420000Y-45380000D02*
X157660000Y-45380000D01*
X149420000Y-48870000D02*
X157660000Y-48870000D01*
X149420000Y-45380000D02*
X149420000Y-48870000D01*
X157660000Y-45380000D02*
X157660000Y-48870000D01*
X151940000Y-45380000D02*
X151940000Y-46450000D01*
X151940000Y-48550000D02*
X151940000Y-48870000D01*
X155141000Y-45380000D02*
X155141000Y-46960000D01*
X155141000Y-48040000D02*
X155141000Y-48870000D01*
X183400000Y-69980000D02*
X183400000Y-70310000D01*
X183400000Y-70310000D02*
X176980000Y-70310000D01*
X176980000Y-70310000D02*
X176980000Y-69980000D01*
X183400000Y-68020000D02*
X183400000Y-67690000D01*
X183400000Y-67690000D02*
X176980000Y-67690000D01*
X176980000Y-67690000D02*
X176980000Y-68020000D01*
X126890000Y-71860000D02*
X126890000Y-68140000D01*
X126890000Y-68140000D02*
X116870000Y-68140000D01*
X116870000Y-68140000D02*
X116870000Y-71860000D01*
X116870000Y-71860000D02*
X126890000Y-71860000D01*
X128120000Y-70000000D02*
X126890000Y-70000000D01*
X115640000Y-70000000D02*
X116870000Y-70000000D01*
X154580000Y-78120000D02*
X146340000Y-78120000D01*
X154580000Y-74630000D02*
X146340000Y-74630000D01*
X154580000Y-78120000D02*
X154580000Y-74630000D01*
X146340000Y-78120000D02*
X146340000Y-74630000D01*
X152060000Y-78120000D02*
X152060000Y-77050000D01*
X152060000Y-74950000D02*
X152060000Y-74630000D01*
X148859000Y-78120000D02*
X148859000Y-76540000D01*
X148859000Y-75460000D02*
X148859000Y-74630000D01*
X147640000Y-91140000D02*
X147640000Y-94360000D01*
X147640000Y-94360000D02*
X152860000Y-94360000D01*
X152860000Y-94360000D02*
X152860000Y-91140000D01*
X152860000Y-91140000D02*
X147640000Y-91140000D01*
X146230000Y-92750000D02*
X147640000Y-92750000D01*
X154270000Y-92750000D02*
X152860000Y-92750000D01*
X128710000Y-93360000D02*
X128710000Y-90640000D01*
X128710000Y-90640000D02*
X124790000Y-90640000D01*
X124790000Y-90640000D02*
X124790000Y-93360000D01*
X124790000Y-93360000D02*
X128710000Y-93360000D01*
X129520000Y-92000000D02*
X128710000Y-92000000D01*
X123980000Y-92000000D02*
X124790000Y-92000000D01*
X97790000Y-84640000D02*
X97790000Y-87360000D01*
X97790000Y-87360000D02*
X101710000Y-87360000D01*
X101710000Y-87360000D02*
X101710000Y-84640000D01*
X101710000Y-84640000D02*
X97790000Y-84640000D01*
X96980000Y-86000000D02*
X97790000Y-86000000D01*
X102520000Y-86000000D02*
X101710000Y-86000000D01*
X82440000Y-87690000D02*
X87560000Y-87690000D01*
X82440000Y-90310000D02*
X87560000Y-90310000D01*
X82440000Y-87690000D02*
X82440000Y-88004000D01*
X82440000Y-89996000D02*
X82440000Y-90310000D01*
X87560000Y-87690000D02*
X87560000Y-88004000D01*
X87560000Y-89996000D02*
X87560000Y-90310000D01*
X183310000Y-79940000D02*
X183310000Y-85060000D01*
X180690000Y-79940000D02*
X180690000Y-85060000D01*
X183310000Y-79940000D02*
X182996000Y-79940000D01*
X181004000Y-79940000D02*
X180690000Y-79940000D01*
X183310000Y-85060000D02*
X182996000Y-85060000D01*
X181004000Y-85060000D02*
X180690000Y-85060000D01*
X85560000Y-102310000D02*
X80440000Y-102310000D01*
X85560000Y-99690000D02*
X80440000Y-99690000D01*
X85560000Y-102310000D02*
X85560000Y-101996000D01*
X85560000Y-100004000D02*
X85560000Y-99690000D01*
X80440000Y-102310000D02*
X80440000Y-101996000D01*
X80440000Y-100004000D02*
X80440000Y-99690000D01*
X56101563Y-88383264D02*
G75*
G03X65899357Y-88380000I4898437J1383264D01*
G01*
X56101563Y-85616736D02*
G75*
G02X65899357Y-85620000I4898437J-1383264D01*
G01*
X56101563Y-85616736D02*
G75*
G03X56100643Y-88380000I4898437J-1383264D01*
G01*
X61000000Y-92050000D02*
X61000000Y-81950000D01*
X60960000Y-92050000D02*
X60960000Y-81950000D01*
X60920000Y-92050000D02*
X60920000Y-81950000D01*
X60880000Y-92049000D02*
X60880000Y-81951000D01*
X60840000Y-92048000D02*
X60840000Y-81952000D01*
X60800000Y-92047000D02*
X60800000Y-81953000D01*
X60760000Y-92045000D02*
X60760000Y-81955000D01*
X60720000Y-92043000D02*
X60720000Y-81957000D01*
X60680000Y-92040000D02*
X60680000Y-81960000D01*
X60640000Y-92038000D02*
X60640000Y-81962000D01*
X60600000Y-92035000D02*
X60600000Y-81965000D01*
X60560000Y-92031000D02*
X60560000Y-81969000D01*
X60520000Y-92028000D02*
X60520000Y-81972000D01*
X60480000Y-92024000D02*
X60480000Y-81976000D01*
X60440000Y-92020000D02*
X60440000Y-81980000D01*
X60400000Y-92015000D02*
X60400000Y-81985000D01*
X60360000Y-92010000D02*
X60360000Y-81990000D01*
X60320000Y-92005000D02*
X60320000Y-81995000D01*
X60279000Y-91999000D02*
X60279000Y-82001000D01*
X60239000Y-91993000D02*
X60239000Y-82007000D01*
X60199000Y-91987000D02*
X60199000Y-82013000D01*
X60159000Y-91981000D02*
X60159000Y-82019000D01*
X60119000Y-91974000D02*
X60119000Y-82026000D01*
X60079000Y-91967000D02*
X60079000Y-82033000D01*
X60039000Y-91959000D02*
X60039000Y-82041000D01*
X59999000Y-91951000D02*
X59999000Y-82049000D01*
X59959000Y-91943000D02*
X59959000Y-82057000D01*
X59919000Y-91935000D02*
X59919000Y-82065000D01*
X59879000Y-91926000D02*
X59879000Y-82074000D01*
X59839000Y-91917000D02*
X59839000Y-82083000D01*
X59799000Y-91907000D02*
X59799000Y-82093000D01*
X59759000Y-91897000D02*
X59759000Y-82103000D01*
X59719000Y-91887000D02*
X59719000Y-82113000D01*
X59679000Y-91876000D02*
X59679000Y-88181000D01*
X59679000Y-85819000D02*
X59679000Y-82124000D01*
X59639000Y-91865000D02*
X59639000Y-88181000D01*
X59639000Y-85819000D02*
X59639000Y-82135000D01*
X59599000Y-91854000D02*
X59599000Y-88181000D01*
X59599000Y-85819000D02*
X59599000Y-82146000D01*
X59559000Y-91843000D02*
X59559000Y-88181000D01*
X59559000Y-85819000D02*
X59559000Y-82157000D01*
X59519000Y-91831000D02*
X59519000Y-88181000D01*
X59519000Y-85819000D02*
X59519000Y-82169000D01*
X59479000Y-91818000D02*
X59479000Y-88181000D01*
X59479000Y-85819000D02*
X59479000Y-82182000D01*
X59439000Y-91806000D02*
X59439000Y-88181000D01*
X59439000Y-85819000D02*
X59439000Y-82194000D01*
X59399000Y-91792000D02*
X59399000Y-88181000D01*
X59399000Y-85819000D02*
X59399000Y-82208000D01*
X59359000Y-91779000D02*
X59359000Y-88181000D01*
X59359000Y-85819000D02*
X59359000Y-82221000D01*
X59319000Y-91765000D02*
X59319000Y-88181000D01*
X59319000Y-85819000D02*
X59319000Y-82235000D01*
X59279000Y-91751000D02*
X59279000Y-88181000D01*
X59279000Y-85819000D02*
X59279000Y-82249000D01*
X59239000Y-91737000D02*
X59239000Y-88181000D01*
X59239000Y-85819000D02*
X59239000Y-82263000D01*
X59199000Y-91722000D02*
X59199000Y-88181000D01*
X59199000Y-85819000D02*
X59199000Y-82278000D01*
X59159000Y-91706000D02*
X59159000Y-88181000D01*
X59159000Y-85819000D02*
X59159000Y-82294000D01*
X59119000Y-91691000D02*
X59119000Y-88181000D01*
X59119000Y-85819000D02*
X59119000Y-82309000D01*
X59079000Y-91674000D02*
X59079000Y-88181000D01*
X59079000Y-85819000D02*
X59079000Y-82326000D01*
X59039000Y-91658000D02*
X59039000Y-88181000D01*
X59039000Y-85819000D02*
X59039000Y-82342000D01*
X58999000Y-91641000D02*
X58999000Y-88181000D01*
X58999000Y-85819000D02*
X58999000Y-82359000D01*
X58959000Y-91624000D02*
X58959000Y-88181000D01*
X58959000Y-85819000D02*
X58959000Y-82376000D01*
X58919000Y-91606000D02*
X58919000Y-88181000D01*
X58919000Y-85819000D02*
X58919000Y-82394000D01*
X58879000Y-91588000D02*
X58879000Y-88181000D01*
X58879000Y-85819000D02*
X58879000Y-82412000D01*
X58839000Y-91569000D02*
X58839000Y-88181000D01*
X58839000Y-85819000D02*
X58839000Y-82431000D01*
X58799000Y-91550000D02*
X58799000Y-88181000D01*
X58799000Y-85819000D02*
X58799000Y-82450000D01*
X58759000Y-91531000D02*
X58759000Y-88181000D01*
X58759000Y-85819000D02*
X58759000Y-82469000D01*
X58719000Y-91511000D02*
X58719000Y-88181000D01*
X58719000Y-85819000D02*
X58719000Y-82489000D01*
X58679000Y-91491000D02*
X58679000Y-88181000D01*
X58679000Y-85819000D02*
X58679000Y-82509000D01*
X58639000Y-91470000D02*
X58639000Y-88181000D01*
X58639000Y-85819000D02*
X58639000Y-82530000D01*
X58599000Y-91449000D02*
X58599000Y-88181000D01*
X58599000Y-85819000D02*
X58599000Y-82551000D01*
X58559000Y-91428000D02*
X58559000Y-88181000D01*
X58559000Y-85819000D02*
X58559000Y-82572000D01*
X58519000Y-91405000D02*
X58519000Y-88181000D01*
X58519000Y-85819000D02*
X58519000Y-82595000D01*
X58479000Y-91383000D02*
X58479000Y-88181000D01*
X58479000Y-85819000D02*
X58479000Y-82617000D01*
X58439000Y-91360000D02*
X58439000Y-88181000D01*
X58439000Y-85819000D02*
X58439000Y-82640000D01*
X58399000Y-91336000D02*
X58399000Y-88181000D01*
X58399000Y-85819000D02*
X58399000Y-82664000D01*
X58359000Y-91312000D02*
X58359000Y-88181000D01*
X58359000Y-85819000D02*
X58359000Y-82688000D01*
X58319000Y-91288000D02*
X58319000Y-88181000D01*
X58319000Y-85819000D02*
X58319000Y-82712000D01*
X58279000Y-91263000D02*
X58279000Y-88181000D01*
X58279000Y-85819000D02*
X58279000Y-82737000D01*
X58239000Y-91237000D02*
X58239000Y-88181000D01*
X58239000Y-85819000D02*
X58239000Y-82763000D01*
X58199000Y-91211000D02*
X58199000Y-88181000D01*
X58199000Y-85819000D02*
X58199000Y-82789000D01*
X58159000Y-91185000D02*
X58159000Y-88181000D01*
X58159000Y-85819000D02*
X58159000Y-82815000D01*
X58119000Y-91157000D02*
X58119000Y-88181000D01*
X58119000Y-85819000D02*
X58119000Y-82843000D01*
X58079000Y-91130000D02*
X58079000Y-88181000D01*
X58079000Y-85819000D02*
X58079000Y-82870000D01*
X58039000Y-91101000D02*
X58039000Y-88181000D01*
X58039000Y-85819000D02*
X58039000Y-82899000D01*
X57999000Y-91072000D02*
X57999000Y-88181000D01*
X57999000Y-85819000D02*
X57999000Y-82928000D01*
X57959000Y-91043000D02*
X57959000Y-88181000D01*
X57959000Y-85819000D02*
X57959000Y-82957000D01*
X57919000Y-91013000D02*
X57919000Y-88181000D01*
X57919000Y-85819000D02*
X57919000Y-82987000D01*
X57879000Y-90982000D02*
X57879000Y-88181000D01*
X57879000Y-85819000D02*
X57879000Y-83018000D01*
X57839000Y-90951000D02*
X57839000Y-88181000D01*
X57839000Y-85819000D02*
X57839000Y-83049000D01*
X57799000Y-90919000D02*
X57799000Y-88181000D01*
X57799000Y-85819000D02*
X57799000Y-83081000D01*
X57759000Y-90886000D02*
X57759000Y-88181000D01*
X57759000Y-85819000D02*
X57759000Y-83114000D01*
X57719000Y-90853000D02*
X57719000Y-88181000D01*
X57719000Y-85819000D02*
X57719000Y-83147000D01*
X57679000Y-90819000D02*
X57679000Y-88181000D01*
X57679000Y-85819000D02*
X57679000Y-83181000D01*
X57639000Y-90784000D02*
X57639000Y-88181000D01*
X57639000Y-85819000D02*
X57639000Y-83216000D01*
X57599000Y-90748000D02*
X57599000Y-88181000D01*
X57599000Y-85819000D02*
X57599000Y-83252000D01*
X57559000Y-90712000D02*
X57559000Y-88181000D01*
X57559000Y-85819000D02*
X57559000Y-83288000D01*
X57519000Y-90675000D02*
X57519000Y-88181000D01*
X57519000Y-85819000D02*
X57519000Y-83325000D01*
X57479000Y-90637000D02*
X57479000Y-88181000D01*
X57479000Y-85819000D02*
X57479000Y-83363000D01*
X57439000Y-90598000D02*
X57439000Y-88181000D01*
X57439000Y-85819000D02*
X57439000Y-83402000D01*
X57399000Y-90559000D02*
X57399000Y-88181000D01*
X57399000Y-85819000D02*
X57399000Y-83441000D01*
X57359000Y-90518000D02*
X57359000Y-88181000D01*
X57359000Y-85819000D02*
X57359000Y-83482000D01*
X57319000Y-90477000D02*
X57319000Y-83523000D01*
X57279000Y-90435000D02*
X57279000Y-83565000D01*
X57239000Y-90391000D02*
X57239000Y-83609000D01*
X57199000Y-90347000D02*
X57199000Y-83653000D01*
X57159000Y-90302000D02*
X57159000Y-83698000D01*
X57119000Y-90255000D02*
X57119000Y-83745000D01*
X57079000Y-90207000D02*
X57079000Y-83793000D01*
X57039000Y-90158000D02*
X57039000Y-83842000D01*
X56999000Y-90108000D02*
X56999000Y-83892000D01*
X56959000Y-90057000D02*
X56959000Y-83943000D01*
X56919000Y-90004000D02*
X56919000Y-83996000D01*
X56879000Y-89949000D02*
X56879000Y-84051000D01*
X56839000Y-89894000D02*
X56839000Y-84106000D01*
X56799000Y-89836000D02*
X56799000Y-84164000D01*
X56759000Y-89777000D02*
X56759000Y-84223000D01*
X56719000Y-89715000D02*
X56719000Y-84285000D01*
X56679000Y-89652000D02*
X56679000Y-84348000D01*
X56639000Y-89587000D02*
X56639000Y-84413000D01*
X56599000Y-89519000D02*
X56599000Y-84481000D01*
X56559000Y-89449000D02*
X56559000Y-84551000D01*
X56519000Y-89377000D02*
X56519000Y-84623000D01*
X56479000Y-89301000D02*
X56479000Y-84699000D01*
X56439000Y-89222000D02*
X56439000Y-84778000D01*
X56399000Y-89140000D02*
X56399000Y-84860000D01*
X56359000Y-89053000D02*
X56359000Y-84947000D01*
X56319000Y-88962000D02*
X56319000Y-85038000D01*
X56279000Y-88866000D02*
X56279000Y-85134000D01*
X56239000Y-88763000D02*
X56239000Y-85237000D01*
X56199000Y-88654000D02*
X56199000Y-85346000D01*
X56159000Y-88536000D02*
X56159000Y-85464000D01*
X56119000Y-88407000D02*
X56119000Y-85593000D01*
X56079000Y-88265000D02*
X56079000Y-85735000D01*
X56039000Y-88104000D02*
X56039000Y-85896000D01*
X55999000Y-87913000D02*
X55999000Y-86087000D01*
X55959000Y-87672000D02*
X55959000Y-86328000D01*
X55919000Y-87279000D02*
X55919000Y-86721000D01*
X66200000Y-87000000D02*
X64700000Y-87000000D01*
X65450000Y-87750000D02*
X65450000Y-86250000D01*
X50398437Y-85616736D02*
G75*
G03X40600643Y-85620000I-4898437J-1383264D01*
G01*
X50398437Y-88383264D02*
G75*
G02X40600643Y-88380000I-4898437J1383264D01*
G01*
X50398437Y-88383264D02*
G75*
G03X50399357Y-85620000I-4898437J1383264D01*
G01*
X45500000Y-81950000D02*
X45500000Y-92050000D01*
X45540000Y-81950000D02*
X45540000Y-92050000D01*
X45580000Y-81950000D02*
X45580000Y-92050000D01*
X45620000Y-81951000D02*
X45620000Y-92049000D01*
X45660000Y-81952000D02*
X45660000Y-92048000D01*
X45700000Y-81953000D02*
X45700000Y-92047000D01*
X45740000Y-81955000D02*
X45740000Y-92045000D01*
X45780000Y-81957000D02*
X45780000Y-92043000D01*
X45820000Y-81960000D02*
X45820000Y-92040000D01*
X45860000Y-81962000D02*
X45860000Y-92038000D01*
X45900000Y-81965000D02*
X45900000Y-92035000D01*
X45940000Y-81969000D02*
X45940000Y-92031000D01*
X45980000Y-81972000D02*
X45980000Y-92028000D01*
X46020000Y-81976000D02*
X46020000Y-92024000D01*
X46060000Y-81980000D02*
X46060000Y-92020000D01*
X46100000Y-81985000D02*
X46100000Y-92015000D01*
X46140000Y-81990000D02*
X46140000Y-92010000D01*
X46180000Y-81995000D02*
X46180000Y-92005000D01*
X46221000Y-82001000D02*
X46221000Y-91999000D01*
X46261000Y-82007000D02*
X46261000Y-91993000D01*
X46301000Y-82013000D02*
X46301000Y-91987000D01*
X46341000Y-82019000D02*
X46341000Y-91981000D01*
X46381000Y-82026000D02*
X46381000Y-91974000D01*
X46421000Y-82033000D02*
X46421000Y-91967000D01*
X46461000Y-82041000D02*
X46461000Y-91959000D01*
X46501000Y-82049000D02*
X46501000Y-91951000D01*
X46541000Y-82057000D02*
X46541000Y-91943000D01*
X46581000Y-82065000D02*
X46581000Y-91935000D01*
X46621000Y-82074000D02*
X46621000Y-91926000D01*
X46661000Y-82083000D02*
X46661000Y-91917000D01*
X46701000Y-82093000D02*
X46701000Y-91907000D01*
X46741000Y-82103000D02*
X46741000Y-91897000D01*
X46781000Y-82113000D02*
X46781000Y-91887000D01*
X46821000Y-82124000D02*
X46821000Y-85819000D01*
X46821000Y-88181000D02*
X46821000Y-91876000D01*
X46861000Y-82135000D02*
X46861000Y-85819000D01*
X46861000Y-88181000D02*
X46861000Y-91865000D01*
X46901000Y-82146000D02*
X46901000Y-85819000D01*
X46901000Y-88181000D02*
X46901000Y-91854000D01*
X46941000Y-82157000D02*
X46941000Y-85819000D01*
X46941000Y-88181000D02*
X46941000Y-91843000D01*
X46981000Y-82169000D02*
X46981000Y-85819000D01*
X46981000Y-88181000D02*
X46981000Y-91831000D01*
X47021000Y-82182000D02*
X47021000Y-85819000D01*
X47021000Y-88181000D02*
X47021000Y-91818000D01*
X47061000Y-82194000D02*
X47061000Y-85819000D01*
X47061000Y-88181000D02*
X47061000Y-91806000D01*
X47101000Y-82208000D02*
X47101000Y-85819000D01*
X47101000Y-88181000D02*
X47101000Y-91792000D01*
X47141000Y-82221000D02*
X47141000Y-85819000D01*
X47141000Y-88181000D02*
X47141000Y-91779000D01*
X47181000Y-82235000D02*
X47181000Y-85819000D01*
X47181000Y-88181000D02*
X47181000Y-91765000D01*
X47221000Y-82249000D02*
X47221000Y-85819000D01*
X47221000Y-88181000D02*
X47221000Y-91751000D01*
X47261000Y-82263000D02*
X47261000Y-85819000D01*
X47261000Y-88181000D02*
X47261000Y-91737000D01*
X47301000Y-82278000D02*
X47301000Y-85819000D01*
X47301000Y-88181000D02*
X47301000Y-91722000D01*
X47341000Y-82294000D02*
X47341000Y-85819000D01*
X47341000Y-88181000D02*
X47341000Y-91706000D01*
X47381000Y-82309000D02*
X47381000Y-85819000D01*
X47381000Y-88181000D02*
X47381000Y-91691000D01*
X47421000Y-82326000D02*
X47421000Y-85819000D01*
X47421000Y-88181000D02*
X47421000Y-91674000D01*
X47461000Y-82342000D02*
X47461000Y-85819000D01*
X47461000Y-88181000D02*
X47461000Y-91658000D01*
X47501000Y-82359000D02*
X47501000Y-85819000D01*
X47501000Y-88181000D02*
X47501000Y-91641000D01*
X47541000Y-82376000D02*
X47541000Y-85819000D01*
X47541000Y-88181000D02*
X47541000Y-91624000D01*
X47581000Y-82394000D02*
X47581000Y-85819000D01*
X47581000Y-88181000D02*
X47581000Y-91606000D01*
X47621000Y-82412000D02*
X47621000Y-85819000D01*
X47621000Y-88181000D02*
X47621000Y-91588000D01*
X47661000Y-82431000D02*
X47661000Y-85819000D01*
X47661000Y-88181000D02*
X47661000Y-91569000D01*
X47701000Y-82450000D02*
X47701000Y-85819000D01*
X47701000Y-88181000D02*
X47701000Y-91550000D01*
X47741000Y-82469000D02*
X47741000Y-85819000D01*
X47741000Y-88181000D02*
X47741000Y-91531000D01*
X47781000Y-82489000D02*
X47781000Y-85819000D01*
X47781000Y-88181000D02*
X47781000Y-91511000D01*
X47821000Y-82509000D02*
X47821000Y-85819000D01*
X47821000Y-88181000D02*
X47821000Y-91491000D01*
X47861000Y-82530000D02*
X47861000Y-85819000D01*
X47861000Y-88181000D02*
X47861000Y-91470000D01*
X47901000Y-82551000D02*
X47901000Y-85819000D01*
X47901000Y-88181000D02*
X47901000Y-91449000D01*
X47941000Y-82572000D02*
X47941000Y-85819000D01*
X47941000Y-88181000D02*
X47941000Y-91428000D01*
X47981000Y-82595000D02*
X47981000Y-85819000D01*
X47981000Y-88181000D02*
X47981000Y-91405000D01*
X48021000Y-82617000D02*
X48021000Y-85819000D01*
X48021000Y-88181000D02*
X48021000Y-91383000D01*
X48061000Y-82640000D02*
X48061000Y-85819000D01*
X48061000Y-88181000D02*
X48061000Y-91360000D01*
X48101000Y-82664000D02*
X48101000Y-85819000D01*
X48101000Y-88181000D02*
X48101000Y-91336000D01*
X48141000Y-82688000D02*
X48141000Y-85819000D01*
X48141000Y-88181000D02*
X48141000Y-91312000D01*
X48181000Y-82712000D02*
X48181000Y-85819000D01*
X48181000Y-88181000D02*
X48181000Y-91288000D01*
X48221000Y-82737000D02*
X48221000Y-85819000D01*
X48221000Y-88181000D02*
X48221000Y-91263000D01*
X48261000Y-82763000D02*
X48261000Y-85819000D01*
X48261000Y-88181000D02*
X48261000Y-91237000D01*
X48301000Y-82789000D02*
X48301000Y-85819000D01*
X48301000Y-88181000D02*
X48301000Y-91211000D01*
X48341000Y-82815000D02*
X48341000Y-85819000D01*
X48341000Y-88181000D02*
X48341000Y-91185000D01*
X48381000Y-82843000D02*
X48381000Y-85819000D01*
X48381000Y-88181000D02*
X48381000Y-91157000D01*
X48421000Y-82870000D02*
X48421000Y-85819000D01*
X48421000Y-88181000D02*
X48421000Y-91130000D01*
X48461000Y-82899000D02*
X48461000Y-85819000D01*
X48461000Y-88181000D02*
X48461000Y-91101000D01*
X48501000Y-82928000D02*
X48501000Y-85819000D01*
X48501000Y-88181000D02*
X48501000Y-91072000D01*
X48541000Y-82957000D02*
X48541000Y-85819000D01*
X48541000Y-88181000D02*
X48541000Y-91043000D01*
X48581000Y-82987000D02*
X48581000Y-85819000D01*
X48581000Y-88181000D02*
X48581000Y-91013000D01*
X48621000Y-83018000D02*
X48621000Y-85819000D01*
X48621000Y-88181000D02*
X48621000Y-90982000D01*
X48661000Y-83049000D02*
X48661000Y-85819000D01*
X48661000Y-88181000D02*
X48661000Y-90951000D01*
X48701000Y-83081000D02*
X48701000Y-85819000D01*
X48701000Y-88181000D02*
X48701000Y-90919000D01*
X48741000Y-83114000D02*
X48741000Y-85819000D01*
X48741000Y-88181000D02*
X48741000Y-90886000D01*
X48781000Y-83147000D02*
X48781000Y-85819000D01*
X48781000Y-88181000D02*
X48781000Y-90853000D01*
X48821000Y-83181000D02*
X48821000Y-85819000D01*
X48821000Y-88181000D02*
X48821000Y-90819000D01*
X48861000Y-83216000D02*
X48861000Y-85819000D01*
X48861000Y-88181000D02*
X48861000Y-90784000D01*
X48901000Y-83252000D02*
X48901000Y-85819000D01*
X48901000Y-88181000D02*
X48901000Y-90748000D01*
X48941000Y-83288000D02*
X48941000Y-85819000D01*
X48941000Y-88181000D02*
X48941000Y-90712000D01*
X48981000Y-83325000D02*
X48981000Y-85819000D01*
X48981000Y-88181000D02*
X48981000Y-90675000D01*
X49021000Y-83363000D02*
X49021000Y-85819000D01*
X49021000Y-88181000D02*
X49021000Y-90637000D01*
X49061000Y-83402000D02*
X49061000Y-85819000D01*
X49061000Y-88181000D02*
X49061000Y-90598000D01*
X49101000Y-83441000D02*
X49101000Y-85819000D01*
X49101000Y-88181000D02*
X49101000Y-90559000D01*
X49141000Y-83482000D02*
X49141000Y-85819000D01*
X49141000Y-88181000D02*
X49141000Y-90518000D01*
X49181000Y-83523000D02*
X49181000Y-90477000D01*
X49221000Y-83565000D02*
X49221000Y-90435000D01*
X49261000Y-83609000D02*
X49261000Y-90391000D01*
X49301000Y-83653000D02*
X49301000Y-90347000D01*
X49341000Y-83698000D02*
X49341000Y-90302000D01*
X49381000Y-83745000D02*
X49381000Y-90255000D01*
X49421000Y-83793000D02*
X49421000Y-90207000D01*
X49461000Y-83842000D02*
X49461000Y-90158000D01*
X49501000Y-83892000D02*
X49501000Y-90108000D01*
X49541000Y-83943000D02*
X49541000Y-90057000D01*
X49581000Y-83996000D02*
X49581000Y-90004000D01*
X49621000Y-84051000D02*
X49621000Y-89949000D01*
X49661000Y-84106000D02*
X49661000Y-89894000D01*
X49701000Y-84164000D02*
X49701000Y-89836000D01*
X49741000Y-84223000D02*
X49741000Y-89777000D01*
X49781000Y-84285000D02*
X49781000Y-89715000D01*
X49821000Y-84348000D02*
X49821000Y-89652000D01*
X49861000Y-84413000D02*
X49861000Y-89587000D01*
X49901000Y-84481000D02*
X49901000Y-89519000D01*
X49941000Y-84551000D02*
X49941000Y-89449000D01*
X49981000Y-84623000D02*
X49981000Y-89377000D01*
X50021000Y-84699000D02*
X50021000Y-89301000D01*
X50061000Y-84778000D02*
X50061000Y-89222000D01*
X50101000Y-84860000D02*
X50101000Y-89140000D01*
X50141000Y-84947000D02*
X50141000Y-89053000D01*
X50181000Y-85038000D02*
X50181000Y-88962000D01*
X50221000Y-85134000D02*
X50221000Y-88866000D01*
X50261000Y-85237000D02*
X50261000Y-88763000D01*
X50301000Y-85346000D02*
X50301000Y-88654000D01*
X50341000Y-85464000D02*
X50341000Y-88536000D01*
X50381000Y-85593000D02*
X50381000Y-88407000D01*
X50421000Y-85735000D02*
X50421000Y-88265000D01*
X50461000Y-85896000D02*
X50461000Y-88104000D01*
X50501000Y-86087000D02*
X50501000Y-87913000D01*
X50541000Y-86328000D02*
X50541000Y-87672000D01*
X50581000Y-86721000D02*
X50581000Y-87279000D01*
X40300000Y-87000000D02*
X41800000Y-87000000D01*
X41050000Y-86250000D02*
X41050000Y-87750000D01*
X117190000Y-93060000D02*
X117190000Y-87940000D01*
X119810000Y-93060000D02*
X119810000Y-87940000D01*
X117190000Y-93060000D02*
X117504000Y-93060000D01*
X119496000Y-93060000D02*
X119810000Y-93060000D01*
X117190000Y-87940000D02*
X117504000Y-87940000D01*
X119496000Y-87940000D02*
X119810000Y-87940000D01*
X152960000Y-86610000D02*
X152960000Y-83890000D01*
X152960000Y-83890000D02*
X149040000Y-83890000D01*
X149040000Y-83890000D02*
X149040000Y-86610000D01*
X149040000Y-86610000D02*
X152960000Y-86610000D01*
X155020000Y-85250000D02*
X152960000Y-85250000D01*
X146980000Y-85250000D02*
X149040000Y-85250000D01*
X51040000Y-72140000D02*
X51040000Y-74860000D01*
X51040000Y-74860000D02*
X54960000Y-74860000D01*
X54960000Y-74860000D02*
X54960000Y-72140000D01*
X54960000Y-72140000D02*
X51040000Y-72140000D01*
X48980000Y-73500000D02*
X51040000Y-73500000D01*
X57020000Y-73500000D02*
X54960000Y-73500000D01*
X88090000Y-74750000D02*
G75*
G03X88090000Y-74750000I-7090000J0D01*
G01*
X88050000Y-74750000D02*
X73950000Y-74750000D01*
X88050000Y-74790000D02*
X73950000Y-74790000D01*
X88050000Y-74830000D02*
X73950000Y-74830000D01*
X88049000Y-74870000D02*
X73951000Y-74870000D01*
X88049000Y-74910000D02*
X73951000Y-74910000D01*
X88048000Y-74950000D02*
X73952000Y-74950000D01*
X88046000Y-74990000D02*
X73954000Y-74990000D01*
X88045000Y-75030000D02*
X73955000Y-75030000D01*
X88043000Y-75070000D02*
X73957000Y-75070000D01*
X88041000Y-75110000D02*
X73959000Y-75110000D01*
X88039000Y-75150000D02*
X73961000Y-75150000D01*
X88037000Y-75190000D02*
X73963000Y-75190000D01*
X88034000Y-75230000D02*
X73966000Y-75230000D01*
X88031000Y-75270000D02*
X73969000Y-75270000D01*
X88028000Y-75310000D02*
X73972000Y-75310000D01*
X88025000Y-75350000D02*
X73975000Y-75350000D01*
X88022000Y-75390000D02*
X73978000Y-75390000D01*
X88018000Y-75430000D02*
X73982000Y-75430000D01*
X88014000Y-75471000D02*
X73986000Y-75471000D01*
X88010000Y-75511000D02*
X73990000Y-75511000D01*
X88005000Y-75551000D02*
X73995000Y-75551000D01*
X88001000Y-75591000D02*
X73999000Y-75591000D01*
X87996000Y-75631000D02*
X74004000Y-75631000D01*
X87991000Y-75671000D02*
X74009000Y-75671000D01*
X87985000Y-75711000D02*
X74015000Y-75711000D01*
X87980000Y-75751000D02*
X74020000Y-75751000D01*
X87974000Y-75791000D02*
X74026000Y-75791000D01*
X87968000Y-75831000D02*
X74032000Y-75831000D01*
X87961000Y-75871000D02*
X74039000Y-75871000D01*
X87955000Y-75911000D02*
X74045000Y-75911000D01*
X87948000Y-75951000D02*
X74052000Y-75951000D01*
X87941000Y-75991000D02*
X74059000Y-75991000D01*
X87934000Y-76031000D02*
X74066000Y-76031000D01*
X87927000Y-76071000D02*
X74073000Y-76071000D01*
X87919000Y-76111000D02*
X74081000Y-76111000D01*
X87911000Y-76151000D02*
X74089000Y-76151000D01*
X87903000Y-76191000D02*
X74097000Y-76191000D01*
X87894000Y-76231000D02*
X74106000Y-76231000D01*
X87886000Y-76271000D02*
X74114000Y-76271000D01*
X87877000Y-76311000D02*
X74123000Y-76311000D01*
X87868000Y-76351000D02*
X74132000Y-76351000D01*
X87858000Y-76391000D02*
X74142000Y-76391000D01*
X87849000Y-76431000D02*
X74151000Y-76431000D01*
X87839000Y-76471000D02*
X74161000Y-76471000D01*
X87829000Y-76511000D02*
X74171000Y-76511000D01*
X87818000Y-76551000D02*
X74182000Y-76551000D01*
X87808000Y-76591000D02*
X74192000Y-76591000D01*
X87797000Y-76631000D02*
X74203000Y-76631000D01*
X87786000Y-76671000D02*
X74214000Y-76671000D01*
X87774000Y-76711000D02*
X74226000Y-76711000D01*
X87763000Y-76751000D02*
X74237000Y-76751000D01*
X87751000Y-76791000D02*
X74249000Y-76791000D01*
X87739000Y-76831000D02*
X74261000Y-76831000D01*
X87726000Y-76871000D02*
X74274000Y-76871000D01*
X87713000Y-76911000D02*
X74287000Y-76911000D01*
X87701000Y-76951000D02*
X74299000Y-76951000D01*
X87687000Y-76991000D02*
X74313000Y-76991000D01*
X87674000Y-77031000D02*
X74326000Y-77031000D01*
X87660000Y-77071000D02*
X74340000Y-77071000D01*
X87646000Y-77111000D02*
X74354000Y-77111000D01*
X87632000Y-77151000D02*
X82380000Y-77151000D01*
X79620000Y-77151000D02*
X74368000Y-77151000D01*
X87617000Y-77191000D02*
X82380000Y-77191000D01*
X79620000Y-77191000D02*
X74383000Y-77191000D01*
X87603000Y-77231000D02*
X82380000Y-77231000D01*
X79620000Y-77231000D02*
X74397000Y-77231000D01*
X87588000Y-77271000D02*
X82380000Y-77271000D01*
X79620000Y-77271000D02*
X74412000Y-77271000D01*
X87572000Y-77311000D02*
X82380000Y-77311000D01*
X79620000Y-77311000D02*
X74428000Y-77311000D01*
X87557000Y-77351000D02*
X82380000Y-77351000D01*
X79620000Y-77351000D02*
X74443000Y-77351000D01*
X87541000Y-77391000D02*
X82380000Y-77391000D01*
X79620000Y-77391000D02*
X74459000Y-77391000D01*
X87524000Y-77431000D02*
X82380000Y-77431000D01*
X79620000Y-77431000D02*
X74476000Y-77431000D01*
X87508000Y-77471000D02*
X82380000Y-77471000D01*
X79620000Y-77471000D02*
X74492000Y-77471000D01*
X87491000Y-77511000D02*
X82380000Y-77511000D01*
X79620000Y-77511000D02*
X74509000Y-77511000D01*
X87474000Y-77551000D02*
X82380000Y-77551000D01*
X79620000Y-77551000D02*
X74526000Y-77551000D01*
X87457000Y-77591000D02*
X82380000Y-77591000D01*
X79620000Y-77591000D02*
X74543000Y-77591000D01*
X87439000Y-77631000D02*
X82380000Y-77631000D01*
X79620000Y-77631000D02*
X74561000Y-77631000D01*
X87421000Y-77671000D02*
X82380000Y-77671000D01*
X79620000Y-77671000D02*
X74579000Y-77671000D01*
X87403000Y-77711000D02*
X82380000Y-77711000D01*
X79620000Y-77711000D02*
X74597000Y-77711000D01*
X87385000Y-77751000D02*
X82380000Y-77751000D01*
X79620000Y-77751000D02*
X74615000Y-77751000D01*
X87366000Y-77791000D02*
X82380000Y-77791000D01*
X79620000Y-77791000D02*
X74634000Y-77791000D01*
X87347000Y-77831000D02*
X82380000Y-77831000D01*
X79620000Y-77831000D02*
X74653000Y-77831000D01*
X87327000Y-77871000D02*
X82380000Y-77871000D01*
X79620000Y-77871000D02*
X74673000Y-77871000D01*
X87307000Y-77911000D02*
X82380000Y-77911000D01*
X79620000Y-77911000D02*
X74693000Y-77911000D01*
X87287000Y-77951000D02*
X82380000Y-77951000D01*
X79620000Y-77951000D02*
X74713000Y-77951000D01*
X87267000Y-77991000D02*
X82380000Y-77991000D01*
X79620000Y-77991000D02*
X74733000Y-77991000D01*
X87246000Y-78031000D02*
X82380000Y-78031000D01*
X79620000Y-78031000D02*
X74754000Y-78031000D01*
X87225000Y-78071000D02*
X82380000Y-78071000D01*
X79620000Y-78071000D02*
X74775000Y-78071000D01*
X87204000Y-78111000D02*
X82380000Y-78111000D01*
X79620000Y-78111000D02*
X74796000Y-78111000D01*
X87182000Y-78151000D02*
X82380000Y-78151000D01*
X79620000Y-78151000D02*
X74818000Y-78151000D01*
X87160000Y-78191000D02*
X82380000Y-78191000D01*
X79620000Y-78191000D02*
X74840000Y-78191000D01*
X87138000Y-78231000D02*
X82380000Y-78231000D01*
X79620000Y-78231000D02*
X74862000Y-78231000D01*
X87115000Y-78271000D02*
X82380000Y-78271000D01*
X79620000Y-78271000D02*
X74885000Y-78271000D01*
X87092000Y-78311000D02*
X82380000Y-78311000D01*
X79620000Y-78311000D02*
X74908000Y-78311000D01*
X87069000Y-78351000D02*
X82380000Y-78351000D01*
X79620000Y-78351000D02*
X74931000Y-78351000D01*
X87045000Y-78391000D02*
X82380000Y-78391000D01*
X79620000Y-78391000D02*
X74955000Y-78391000D01*
X87021000Y-78431000D02*
X82380000Y-78431000D01*
X79620000Y-78431000D02*
X74979000Y-78431000D01*
X86996000Y-78471000D02*
X82380000Y-78471000D01*
X79620000Y-78471000D02*
X75004000Y-78471000D01*
X86971000Y-78511000D02*
X82380000Y-78511000D01*
X79620000Y-78511000D02*
X75029000Y-78511000D01*
X86946000Y-78551000D02*
X82380000Y-78551000D01*
X79620000Y-78551000D02*
X75054000Y-78551000D01*
X86921000Y-78591000D02*
X82380000Y-78591000D01*
X79620000Y-78591000D02*
X75079000Y-78591000D01*
X86895000Y-78631000D02*
X82380000Y-78631000D01*
X79620000Y-78631000D02*
X75105000Y-78631000D01*
X86868000Y-78671000D02*
X82380000Y-78671000D01*
X79620000Y-78671000D02*
X75132000Y-78671000D01*
X86842000Y-78711000D02*
X82380000Y-78711000D01*
X79620000Y-78711000D02*
X75158000Y-78711000D01*
X86814000Y-78751000D02*
X82380000Y-78751000D01*
X79620000Y-78751000D02*
X75186000Y-78751000D01*
X86787000Y-78791000D02*
X82380000Y-78791000D01*
X79620000Y-78791000D02*
X75213000Y-78791000D01*
X86759000Y-78831000D02*
X82380000Y-78831000D01*
X79620000Y-78831000D02*
X75241000Y-78831000D01*
X86731000Y-78871000D02*
X82380000Y-78871000D01*
X79620000Y-78871000D02*
X75269000Y-78871000D01*
X86702000Y-78911000D02*
X82380000Y-78911000D01*
X79620000Y-78911000D02*
X75298000Y-78911000D01*
X86673000Y-78951000D02*
X82380000Y-78951000D01*
X79620000Y-78951000D02*
X75327000Y-78951000D01*
X86643000Y-78991000D02*
X82380000Y-78991000D01*
X79620000Y-78991000D02*
X75357000Y-78991000D01*
X86613000Y-79031000D02*
X82380000Y-79031000D01*
X79620000Y-79031000D02*
X75387000Y-79031000D01*
X86582000Y-79071000D02*
X82380000Y-79071000D01*
X79620000Y-79071000D02*
X75418000Y-79071000D01*
X86551000Y-79111000D02*
X82380000Y-79111000D01*
X79620000Y-79111000D02*
X75449000Y-79111000D01*
X86520000Y-79151000D02*
X82380000Y-79151000D01*
X79620000Y-79151000D02*
X75480000Y-79151000D01*
X86488000Y-79191000D02*
X82380000Y-79191000D01*
X79620000Y-79191000D02*
X75512000Y-79191000D01*
X86456000Y-79231000D02*
X82380000Y-79231000D01*
X79620000Y-79231000D02*
X75544000Y-79231000D01*
X86423000Y-79271000D02*
X82380000Y-79271000D01*
X79620000Y-79271000D02*
X75577000Y-79271000D01*
X86390000Y-79311000D02*
X82380000Y-79311000D01*
X79620000Y-79311000D02*
X75610000Y-79311000D01*
X86356000Y-79351000D02*
X82380000Y-79351000D01*
X79620000Y-79351000D02*
X75644000Y-79351000D01*
X86321000Y-79391000D02*
X82380000Y-79391000D01*
X79620000Y-79391000D02*
X75679000Y-79391000D01*
X86286000Y-79431000D02*
X82380000Y-79431000D01*
X79620000Y-79431000D02*
X75714000Y-79431000D01*
X86251000Y-79471000D02*
X82380000Y-79471000D01*
X79620000Y-79471000D02*
X75749000Y-79471000D01*
X86215000Y-79511000D02*
X82380000Y-79511000D01*
X79620000Y-79511000D02*
X75785000Y-79511000D01*
X86179000Y-79551000D02*
X82380000Y-79551000D01*
X79620000Y-79551000D02*
X75821000Y-79551000D01*
X86141000Y-79591000D02*
X82380000Y-79591000D01*
X79620000Y-79591000D02*
X75859000Y-79591000D01*
X86104000Y-79631000D02*
X82380000Y-79631000D01*
X79620000Y-79631000D02*
X75896000Y-79631000D01*
X86066000Y-79671000D02*
X82380000Y-79671000D01*
X79620000Y-79671000D02*
X75934000Y-79671000D01*
X86027000Y-79711000D02*
X82380000Y-79711000D01*
X79620000Y-79711000D02*
X75973000Y-79711000D01*
X85987000Y-79751000D02*
X82380000Y-79751000D01*
X79620000Y-79751000D02*
X76013000Y-79751000D01*
X85947000Y-79791000D02*
X82380000Y-79791000D01*
X79620000Y-79791000D02*
X76053000Y-79791000D01*
X85906000Y-79831000D02*
X82380000Y-79831000D01*
X79620000Y-79831000D02*
X76094000Y-79831000D01*
X85865000Y-79871000D02*
X82380000Y-79871000D01*
X79620000Y-79871000D02*
X76135000Y-79871000D01*
X85823000Y-79911000D02*
X76177000Y-79911000D01*
X85780000Y-79951000D02*
X76220000Y-79951000D01*
X85737000Y-79991000D02*
X76263000Y-79991000D01*
X85692000Y-80031000D02*
X76308000Y-80031000D01*
X85647000Y-80071000D02*
X76353000Y-80071000D01*
X85601000Y-80111000D02*
X76399000Y-80111000D01*
X85555000Y-80151000D02*
X76445000Y-80151000D01*
X85507000Y-80191000D02*
X76493000Y-80191000D01*
X85459000Y-80231000D02*
X76541000Y-80231000D01*
X85410000Y-80271000D02*
X76590000Y-80271000D01*
X85360000Y-80311000D02*
X76640000Y-80311000D01*
X85309000Y-80351000D02*
X76691000Y-80351000D01*
X85257000Y-80391000D02*
X76743000Y-80391000D01*
X85204000Y-80431000D02*
X76796000Y-80431000D01*
X85150000Y-80471000D02*
X76850000Y-80471000D01*
X85095000Y-80511000D02*
X76905000Y-80511000D01*
X85038000Y-80551000D02*
X76962000Y-80551000D01*
X84981000Y-80591000D02*
X77019000Y-80591000D01*
X84922000Y-80631000D02*
X77078000Y-80631000D01*
X84862000Y-80671000D02*
X77138000Y-80671000D01*
X84801000Y-80711000D02*
X77199000Y-80711000D01*
X84738000Y-80751000D02*
X77262000Y-80751000D01*
X84674000Y-80791000D02*
X77326000Y-80791000D01*
X84608000Y-80831000D02*
X77392000Y-80831000D01*
X84540000Y-80871000D02*
X77460000Y-80871000D01*
X84471000Y-80911000D02*
X77529000Y-80911000D01*
X84400000Y-80951000D02*
X77600000Y-80951000D01*
X84327000Y-80991000D02*
X77673000Y-80991000D01*
X84251000Y-81031000D02*
X77749000Y-81031000D01*
X84174000Y-81071000D02*
X77826000Y-81071000D01*
X84094000Y-81111000D02*
X77906000Y-81111000D01*
X84011000Y-81151000D02*
X77989000Y-81151000D01*
X83926000Y-81191000D02*
X78074000Y-81191000D01*
X83838000Y-81231000D02*
X78162000Y-81231000D01*
X83746000Y-81271000D02*
X78254000Y-81271000D01*
X83650000Y-81311000D02*
X78350000Y-81311000D01*
X83550000Y-81351000D02*
X78450000Y-81351000D01*
X83446000Y-81391000D02*
X78554000Y-81391000D01*
X83337000Y-81431000D02*
X78663000Y-81431000D01*
X83221000Y-81471000D02*
X78779000Y-81471000D01*
X83098000Y-81511000D02*
X78902000Y-81511000D01*
X82968000Y-81551000D02*
X79032000Y-81551000D01*
X82827000Y-81591000D02*
X79173000Y-81591000D01*
X82673000Y-81631000D02*
X79327000Y-81631000D01*
X82504000Y-81671000D02*
X79496000Y-81671000D01*
X82312000Y-81711000D02*
X79688000Y-81711000D01*
X82087000Y-81751000D02*
X79913000Y-81751000D01*
X81801000Y-81791000D02*
X80199000Y-81791000D01*
X81337000Y-81831000D02*
X80663000Y-81831000D01*
X81000000Y-67800000D02*
X81000000Y-69600000D01*
X81900000Y-68700000D02*
X80100000Y-68700000D01*
X93860000Y-71540000D02*
X91140000Y-71540000D01*
X91140000Y-71540000D02*
X91140000Y-75460000D01*
X91140000Y-75460000D02*
X93860000Y-75460000D01*
X93860000Y-75460000D02*
X93860000Y-71540000D01*
X92500000Y-69480000D02*
X92500000Y-71540000D01*
X92500000Y-77520000D02*
X92500000Y-75460000D01*
X216590000Y-74750000D02*
G75*
G03X216590000Y-74750000I-7090000J0D01*
G01*
X202450000Y-74750000D02*
X216550000Y-74750000D01*
X202450000Y-74710000D02*
X216550000Y-74710000D01*
X202450000Y-74670000D02*
X216550000Y-74670000D01*
X202451000Y-74630000D02*
X216549000Y-74630000D01*
X202451000Y-74590000D02*
X216549000Y-74590000D01*
X202452000Y-74550000D02*
X216548000Y-74550000D01*
X202454000Y-74510000D02*
X216546000Y-74510000D01*
X202455000Y-74470000D02*
X216545000Y-74470000D01*
X202457000Y-74430000D02*
X216543000Y-74430000D01*
X202459000Y-74390000D02*
X216541000Y-74390000D01*
X202461000Y-74350000D02*
X216539000Y-74350000D01*
X202463000Y-74310000D02*
X216537000Y-74310000D01*
X202466000Y-74270000D02*
X216534000Y-74270000D01*
X202469000Y-74230000D02*
X216531000Y-74230000D01*
X202472000Y-74190000D02*
X216528000Y-74190000D01*
X202475000Y-74150000D02*
X216525000Y-74150000D01*
X202478000Y-74110000D02*
X216522000Y-74110000D01*
X202482000Y-74070000D02*
X216518000Y-74070000D01*
X202486000Y-74029000D02*
X216514000Y-74029000D01*
X202490000Y-73989000D02*
X216510000Y-73989000D01*
X202495000Y-73949000D02*
X216505000Y-73949000D01*
X202499000Y-73909000D02*
X216501000Y-73909000D01*
X202504000Y-73869000D02*
X216496000Y-73869000D01*
X202509000Y-73829000D02*
X216491000Y-73829000D01*
X202515000Y-73789000D02*
X216485000Y-73789000D01*
X202520000Y-73749000D02*
X216480000Y-73749000D01*
X202526000Y-73709000D02*
X216474000Y-73709000D01*
X202532000Y-73669000D02*
X216468000Y-73669000D01*
X202539000Y-73629000D02*
X216461000Y-73629000D01*
X202545000Y-73589000D02*
X216455000Y-73589000D01*
X202552000Y-73549000D02*
X216448000Y-73549000D01*
X202559000Y-73509000D02*
X216441000Y-73509000D01*
X202566000Y-73469000D02*
X216434000Y-73469000D01*
X202573000Y-73429000D02*
X216427000Y-73429000D01*
X202581000Y-73389000D02*
X216419000Y-73389000D01*
X202589000Y-73349000D02*
X216411000Y-73349000D01*
X202597000Y-73309000D02*
X216403000Y-73309000D01*
X202606000Y-73269000D02*
X216394000Y-73269000D01*
X202614000Y-73229000D02*
X216386000Y-73229000D01*
X202623000Y-73189000D02*
X216377000Y-73189000D01*
X202632000Y-73149000D02*
X216368000Y-73149000D01*
X202642000Y-73109000D02*
X216358000Y-73109000D01*
X202651000Y-73069000D02*
X216349000Y-73069000D01*
X202661000Y-73029000D02*
X216339000Y-73029000D01*
X202671000Y-72989000D02*
X216329000Y-72989000D01*
X202682000Y-72949000D02*
X216318000Y-72949000D01*
X202692000Y-72909000D02*
X216308000Y-72909000D01*
X202703000Y-72869000D02*
X216297000Y-72869000D01*
X202714000Y-72829000D02*
X216286000Y-72829000D01*
X202726000Y-72789000D02*
X216274000Y-72789000D01*
X202737000Y-72749000D02*
X216263000Y-72749000D01*
X202749000Y-72709000D02*
X216251000Y-72709000D01*
X202761000Y-72669000D02*
X216239000Y-72669000D01*
X202774000Y-72629000D02*
X216226000Y-72629000D01*
X202787000Y-72589000D02*
X216213000Y-72589000D01*
X202799000Y-72549000D02*
X216201000Y-72549000D01*
X202813000Y-72509000D02*
X216187000Y-72509000D01*
X202826000Y-72469000D02*
X216174000Y-72469000D01*
X202840000Y-72429000D02*
X216160000Y-72429000D01*
X202854000Y-72389000D02*
X216146000Y-72389000D01*
X202868000Y-72349000D02*
X208120000Y-72349000D01*
X210880000Y-72349000D02*
X216132000Y-72349000D01*
X202883000Y-72309000D02*
X208120000Y-72309000D01*
X210880000Y-72309000D02*
X216117000Y-72309000D01*
X202897000Y-72269000D02*
X208120000Y-72269000D01*
X210880000Y-72269000D02*
X216103000Y-72269000D01*
X202912000Y-72229000D02*
X208120000Y-72229000D01*
X210880000Y-72229000D02*
X216088000Y-72229000D01*
X202928000Y-72189000D02*
X208120000Y-72189000D01*
X210880000Y-72189000D02*
X216072000Y-72189000D01*
X202943000Y-72149000D02*
X208120000Y-72149000D01*
X210880000Y-72149000D02*
X216057000Y-72149000D01*
X202959000Y-72109000D02*
X208120000Y-72109000D01*
X210880000Y-72109000D02*
X216041000Y-72109000D01*
X202976000Y-72069000D02*
X208120000Y-72069000D01*
X210880000Y-72069000D02*
X216024000Y-72069000D01*
X202992000Y-72029000D02*
X208120000Y-72029000D01*
X210880000Y-72029000D02*
X216008000Y-72029000D01*
X203009000Y-71989000D02*
X208120000Y-71989000D01*
X210880000Y-71989000D02*
X215991000Y-71989000D01*
X203026000Y-71949000D02*
X208120000Y-71949000D01*
X210880000Y-71949000D02*
X215974000Y-71949000D01*
X203043000Y-71909000D02*
X208120000Y-71909000D01*
X210880000Y-71909000D02*
X215957000Y-71909000D01*
X203061000Y-71869000D02*
X208120000Y-71869000D01*
X210880000Y-71869000D02*
X215939000Y-71869000D01*
X203079000Y-71829000D02*
X208120000Y-71829000D01*
X210880000Y-71829000D02*
X215921000Y-71829000D01*
X203097000Y-71789000D02*
X208120000Y-71789000D01*
X210880000Y-71789000D02*
X215903000Y-71789000D01*
X203115000Y-71749000D02*
X208120000Y-71749000D01*
X210880000Y-71749000D02*
X215885000Y-71749000D01*
X203134000Y-71709000D02*
X208120000Y-71709000D01*
X210880000Y-71709000D02*
X215866000Y-71709000D01*
X203153000Y-71669000D02*
X208120000Y-71669000D01*
X210880000Y-71669000D02*
X215847000Y-71669000D01*
X203173000Y-71629000D02*
X208120000Y-71629000D01*
X210880000Y-71629000D02*
X215827000Y-71629000D01*
X203193000Y-71589000D02*
X208120000Y-71589000D01*
X210880000Y-71589000D02*
X215807000Y-71589000D01*
X203213000Y-71549000D02*
X208120000Y-71549000D01*
X210880000Y-71549000D02*
X215787000Y-71549000D01*
X203233000Y-71509000D02*
X208120000Y-71509000D01*
X210880000Y-71509000D02*
X215767000Y-71509000D01*
X203254000Y-71469000D02*
X208120000Y-71469000D01*
X210880000Y-71469000D02*
X215746000Y-71469000D01*
X203275000Y-71429000D02*
X208120000Y-71429000D01*
X210880000Y-71429000D02*
X215725000Y-71429000D01*
X203296000Y-71389000D02*
X208120000Y-71389000D01*
X210880000Y-71389000D02*
X215704000Y-71389000D01*
X203318000Y-71349000D02*
X208120000Y-71349000D01*
X210880000Y-71349000D02*
X215682000Y-71349000D01*
X203340000Y-71309000D02*
X208120000Y-71309000D01*
X210880000Y-71309000D02*
X215660000Y-71309000D01*
X203362000Y-71269000D02*
X208120000Y-71269000D01*
X210880000Y-71269000D02*
X215638000Y-71269000D01*
X203385000Y-71229000D02*
X208120000Y-71229000D01*
X210880000Y-71229000D02*
X215615000Y-71229000D01*
X203408000Y-71189000D02*
X208120000Y-71189000D01*
X210880000Y-71189000D02*
X215592000Y-71189000D01*
X203431000Y-71149000D02*
X208120000Y-71149000D01*
X210880000Y-71149000D02*
X215569000Y-71149000D01*
X203455000Y-71109000D02*
X208120000Y-71109000D01*
X210880000Y-71109000D02*
X215545000Y-71109000D01*
X203479000Y-71069000D02*
X208120000Y-71069000D01*
X210880000Y-71069000D02*
X215521000Y-71069000D01*
X203504000Y-71029000D02*
X208120000Y-71029000D01*
X210880000Y-71029000D02*
X215496000Y-71029000D01*
X203529000Y-70989000D02*
X208120000Y-70989000D01*
X210880000Y-70989000D02*
X215471000Y-70989000D01*
X203554000Y-70949000D02*
X208120000Y-70949000D01*
X210880000Y-70949000D02*
X215446000Y-70949000D01*
X203579000Y-70909000D02*
X208120000Y-70909000D01*
X210880000Y-70909000D02*
X215421000Y-70909000D01*
X203605000Y-70869000D02*
X208120000Y-70869000D01*
X210880000Y-70869000D02*
X215395000Y-70869000D01*
X203632000Y-70829000D02*
X208120000Y-70829000D01*
X210880000Y-70829000D02*
X215368000Y-70829000D01*
X203658000Y-70789000D02*
X208120000Y-70789000D01*
X210880000Y-70789000D02*
X215342000Y-70789000D01*
X203686000Y-70749000D02*
X208120000Y-70749000D01*
X210880000Y-70749000D02*
X215314000Y-70749000D01*
X203713000Y-70709000D02*
X208120000Y-70709000D01*
X210880000Y-70709000D02*
X215287000Y-70709000D01*
X203741000Y-70669000D02*
X208120000Y-70669000D01*
X210880000Y-70669000D02*
X215259000Y-70669000D01*
X203769000Y-70629000D02*
X208120000Y-70629000D01*
X210880000Y-70629000D02*
X215231000Y-70629000D01*
X203798000Y-70589000D02*
X208120000Y-70589000D01*
X210880000Y-70589000D02*
X215202000Y-70589000D01*
X203827000Y-70549000D02*
X208120000Y-70549000D01*
X210880000Y-70549000D02*
X215173000Y-70549000D01*
X203857000Y-70509000D02*
X208120000Y-70509000D01*
X210880000Y-70509000D02*
X215143000Y-70509000D01*
X203887000Y-70469000D02*
X208120000Y-70469000D01*
X210880000Y-70469000D02*
X215113000Y-70469000D01*
X203918000Y-70429000D02*
X208120000Y-70429000D01*
X210880000Y-70429000D02*
X215082000Y-70429000D01*
X203949000Y-70389000D02*
X208120000Y-70389000D01*
X210880000Y-70389000D02*
X215051000Y-70389000D01*
X203980000Y-70349000D02*
X208120000Y-70349000D01*
X210880000Y-70349000D02*
X215020000Y-70349000D01*
X204012000Y-70309000D02*
X208120000Y-70309000D01*
X210880000Y-70309000D02*
X214988000Y-70309000D01*
X204044000Y-70269000D02*
X208120000Y-70269000D01*
X210880000Y-70269000D02*
X214956000Y-70269000D01*
X204077000Y-70229000D02*
X208120000Y-70229000D01*
X210880000Y-70229000D02*
X214923000Y-70229000D01*
X204110000Y-70189000D02*
X208120000Y-70189000D01*
X210880000Y-70189000D02*
X214890000Y-70189000D01*
X204144000Y-70149000D02*
X208120000Y-70149000D01*
X210880000Y-70149000D02*
X214856000Y-70149000D01*
X204179000Y-70109000D02*
X208120000Y-70109000D01*
X210880000Y-70109000D02*
X214821000Y-70109000D01*
X204214000Y-70069000D02*
X208120000Y-70069000D01*
X210880000Y-70069000D02*
X214786000Y-70069000D01*
X204249000Y-70029000D02*
X208120000Y-70029000D01*
X210880000Y-70029000D02*
X214751000Y-70029000D01*
X204285000Y-69989000D02*
X208120000Y-69989000D01*
X210880000Y-69989000D02*
X214715000Y-69989000D01*
X204321000Y-69949000D02*
X208120000Y-69949000D01*
X210880000Y-69949000D02*
X214679000Y-69949000D01*
X204359000Y-69909000D02*
X208120000Y-69909000D01*
X210880000Y-69909000D02*
X214641000Y-69909000D01*
X204396000Y-69869000D02*
X208120000Y-69869000D01*
X210880000Y-69869000D02*
X214604000Y-69869000D01*
X204434000Y-69829000D02*
X208120000Y-69829000D01*
X210880000Y-69829000D02*
X214566000Y-69829000D01*
X204473000Y-69789000D02*
X208120000Y-69789000D01*
X210880000Y-69789000D02*
X214527000Y-69789000D01*
X204513000Y-69749000D02*
X208120000Y-69749000D01*
X210880000Y-69749000D02*
X214487000Y-69749000D01*
X204553000Y-69709000D02*
X208120000Y-69709000D01*
X210880000Y-69709000D02*
X214447000Y-69709000D01*
X204594000Y-69669000D02*
X208120000Y-69669000D01*
X210880000Y-69669000D02*
X214406000Y-69669000D01*
X204635000Y-69629000D02*
X208120000Y-69629000D01*
X210880000Y-69629000D02*
X214365000Y-69629000D01*
X204677000Y-69589000D02*
X214323000Y-69589000D01*
X204720000Y-69549000D02*
X214280000Y-69549000D01*
X204763000Y-69509000D02*
X214237000Y-69509000D01*
X204808000Y-69469000D02*
X214192000Y-69469000D01*
X204853000Y-69429000D02*
X214147000Y-69429000D01*
X204899000Y-69389000D02*
X214101000Y-69389000D01*
X204945000Y-69349000D02*
X214055000Y-69349000D01*
X204993000Y-69309000D02*
X214007000Y-69309000D01*
X205041000Y-69269000D02*
X213959000Y-69269000D01*
X205090000Y-69229000D02*
X213910000Y-69229000D01*
X205140000Y-69189000D02*
X213860000Y-69189000D01*
X205191000Y-69149000D02*
X213809000Y-69149000D01*
X205243000Y-69109000D02*
X213757000Y-69109000D01*
X205296000Y-69069000D02*
X213704000Y-69069000D01*
X205350000Y-69029000D02*
X213650000Y-69029000D01*
X205405000Y-68989000D02*
X213595000Y-68989000D01*
X205462000Y-68949000D02*
X213538000Y-68949000D01*
X205519000Y-68909000D02*
X213481000Y-68909000D01*
X205578000Y-68869000D02*
X213422000Y-68869000D01*
X205638000Y-68829000D02*
X213362000Y-68829000D01*
X205699000Y-68789000D02*
X213301000Y-68789000D01*
X205762000Y-68749000D02*
X213238000Y-68749000D01*
X205826000Y-68709000D02*
X213174000Y-68709000D01*
X205892000Y-68669000D02*
X213108000Y-68669000D01*
X205960000Y-68629000D02*
X213040000Y-68629000D01*
X206029000Y-68589000D02*
X212971000Y-68589000D01*
X206100000Y-68549000D02*
X212900000Y-68549000D01*
X206173000Y-68509000D02*
X212827000Y-68509000D01*
X206249000Y-68469000D02*
X212751000Y-68469000D01*
X206326000Y-68429000D02*
X212674000Y-68429000D01*
X206406000Y-68389000D02*
X212594000Y-68389000D01*
X206489000Y-68349000D02*
X212511000Y-68349000D01*
X206574000Y-68309000D02*
X212426000Y-68309000D01*
X206662000Y-68269000D02*
X212338000Y-68269000D01*
X206754000Y-68229000D02*
X212246000Y-68229000D01*
X206850000Y-68189000D02*
X212150000Y-68189000D01*
X206950000Y-68149000D02*
X212050000Y-68149000D01*
X207054000Y-68109000D02*
X211946000Y-68109000D01*
X207163000Y-68069000D02*
X211837000Y-68069000D01*
X207279000Y-68029000D02*
X211721000Y-68029000D01*
X207402000Y-67989000D02*
X211598000Y-67989000D01*
X207532000Y-67949000D02*
X211468000Y-67949000D01*
X207673000Y-67909000D02*
X211327000Y-67909000D01*
X207827000Y-67869000D02*
X211173000Y-67869000D01*
X207996000Y-67829000D02*
X211004000Y-67829000D01*
X208188000Y-67789000D02*
X210812000Y-67789000D01*
X208413000Y-67749000D02*
X210587000Y-67749000D01*
X208699000Y-67709000D02*
X210301000Y-67709000D01*
X209163000Y-67669000D02*
X209837000Y-67669000D01*
X209500000Y-81700000D02*
X209500000Y-79900000D01*
X208600000Y-80800000D02*
X210400000Y-80800000D01*
X222360000Y-72040000D02*
X219640000Y-72040000D01*
X219640000Y-72040000D02*
X219640000Y-75960000D01*
X219640000Y-75960000D02*
X222360000Y-75960000D01*
X222360000Y-75960000D02*
X222360000Y-72040000D01*
X221000000Y-69980000D02*
X221000000Y-72040000D01*
X221000000Y-78020000D02*
X221000000Y-75960000D01*
X86350000Y-94280000D02*
X86350000Y-94410000D01*
X86350000Y-94410000D02*
X81030000Y-94410000D01*
X81030000Y-94410000D02*
X81030000Y-94280000D01*
X86350000Y-91720000D02*
X86350000Y-91590000D01*
X86350000Y-91590000D02*
X81030000Y-91590000D01*
X81030000Y-91590000D02*
X81030000Y-91720000D01*
X85510000Y-94410000D02*
X85510000Y-91590000D01*
X187578608Y-83942335D02*
G75*
G03X187735516Y-80710000I-1078608J1672335D01*
G01*
X185421392Y-83942335D02*
G75*
G02X185264484Y-80710000I1078608J1672335D01*
G01*
X187579837Y-83311130D02*
G75*
G03X187580000Y-81229039I-1079837J1041130D01*
G01*
X185420163Y-83311130D02*
G75*
G02X185420000Y-81229039I1079837J1041130D01*
G01*
X187736000Y-80710000D02*
X187580000Y-80710000D01*
X185420000Y-80710000D02*
X185264000Y-80710000D01*
X140940000Y-67000000D02*
X143060000Y-67000000D01*
X143060000Y-67000000D02*
X143060000Y-62880000D01*
X143060000Y-62880000D02*
X140940000Y-62880000D01*
X140940000Y-62880000D02*
X140940000Y-67000000D01*
X142000000Y-67770000D02*
X142000000Y-67000000D01*
X142000000Y-62110000D02*
X142000000Y-62880000D01*
X140940000Y-66340000D02*
X143060000Y-66340000D01*
X156310000Y-63000000D02*
X154190000Y-63000000D01*
X154190000Y-63000000D02*
X154190000Y-67120000D01*
X154190000Y-67120000D02*
X156310000Y-67120000D01*
X156310000Y-67120000D02*
X156310000Y-63000000D01*
X155250000Y-62230000D02*
X155250000Y-63000000D01*
X155250000Y-67890000D02*
X155250000Y-67120000D01*
X156310000Y-63660000D02*
X154190000Y-63660000D01*
X48150000Y-68720000D02*
X48150000Y-68590000D01*
X48150000Y-68590000D02*
X53470000Y-68590000D01*
X53470000Y-68590000D02*
X53470000Y-68720000D01*
X48150000Y-71280000D02*
X48150000Y-71410000D01*
X48150000Y-71410000D02*
X53470000Y-71410000D01*
X53470000Y-71410000D02*
X53470000Y-71280000D01*
X48990000Y-68590000D02*
X48990000Y-71410000D01*
X199780000Y-69650000D02*
X199910000Y-69650000D01*
X199910000Y-69650000D02*
X199910000Y-74970000D01*
X199910000Y-74970000D02*
X199780000Y-74970000D01*
X197220000Y-69650000D02*
X197090000Y-69650000D01*
X197090000Y-69650000D02*
X197090000Y-74970000D01*
X197090000Y-74970000D02*
X197220000Y-74970000D01*
X199910000Y-70490000D02*
X197090000Y-70490000D01*
X113970000Y-100350000D02*
X117570000Y-100350000D01*
X113931522Y-100338478D02*
G75*
G02X115770000Y-95900000I1838478J1838478D01*
G01*
X117608478Y-100338478D02*
G75*
G03X115770000Y-95900000I-1838478J1838478D01*
G01*
X104970000Y-103850000D02*
X108570000Y-103850000D01*
X104931522Y-103838478D02*
G75*
G02X106770000Y-99400000I1838478J1838478D01*
G01*
X108608478Y-103838478D02*
G75*
G03X106770000Y-99400000I-1838478J1838478D01*
G01*
X106350000Y-83030000D02*
X106350000Y-79430000D01*
X106338478Y-83068478D02*
G75*
G02X101900000Y-81230000I-1838478J1838478D01*
G01*
X106338478Y-79391522D02*
G75*
G03X101900000Y-81230000I-1838478J-1838478D01*
G01*
X99350000Y-83030000D02*
X99350000Y-79430000D01*
X99338478Y-83068478D02*
G75*
G02X94900000Y-81230000I-1838478J1838478D01*
G01*
X99338478Y-79391522D02*
G75*
G03X94900000Y-81230000I-1838478J-1838478D01*
G01*
X102650000Y-92970000D02*
X102650000Y-96570000D01*
X102661522Y-92931522D02*
G75*
G02X107100000Y-94770000I1838478J-1838478D01*
G01*
X102661522Y-96608478D02*
G75*
G03X107100000Y-94770000I1838478J1838478D01*
G01*
X93650000Y-92970000D02*
X93650000Y-96570000D01*
X93661522Y-92931522D02*
G75*
G02X98100000Y-94770000I1838478J-1838478D01*
G01*
X93661522Y-96608478D02*
G75*
G03X98100000Y-94770000I1838478J1838478D01*
G01*
X185850000Y-94030000D02*
X185850000Y-90430000D01*
X185838478Y-94068478D02*
G75*
G02X181400000Y-92230000I-1838478J1838478D01*
G01*
X185838478Y-90391522D02*
G75*
G03X181400000Y-92230000I-1838478J-1838478D01*
G01*
X113030000Y-87150000D02*
X109430000Y-87150000D01*
X113068478Y-87161522D02*
G75*
G02X111230000Y-91600000I-1838478J-1838478D01*
G01*
X109391522Y-87161522D02*
G75*
G03X111230000Y-91600000I1838478J-1838478D01*
G01*
X119350000Y-81280000D02*
X119350000Y-77680000D01*
X119338478Y-81318478D02*
G75*
G02X114900000Y-79480000I-1838478J1838478D01*
G01*
X119338478Y-77641522D02*
G75*
G03X114900000Y-79480000I-1838478J-1838478D01*
G01*
X124880000Y-86580000D02*
X124880000Y-78340000D01*
X128370000Y-86580000D02*
X128370000Y-78340000D01*
X124880000Y-86580000D02*
X128370000Y-86580000D01*
X124880000Y-78340000D02*
X128370000Y-78340000D01*
X124880000Y-84060000D02*
X125950000Y-84060000D01*
X128050000Y-84060000D02*
X128370000Y-84060000D01*
X124880000Y-80859000D02*
X126460000Y-80859000D01*
X127540000Y-80859000D02*
X128370000Y-80859000D01*
X161420000Y-77880000D02*
X169660000Y-77880000D01*
X161420000Y-81370000D02*
X169660000Y-81370000D01*
X161420000Y-77880000D02*
X161420000Y-81370000D01*
X169660000Y-77880000D02*
X169660000Y-81370000D01*
X163940000Y-77880000D02*
X163940000Y-78950000D01*
X163940000Y-81050000D02*
X163940000Y-81370000D01*
X167141000Y-77880000D02*
X167141000Y-79460000D01*
X167141000Y-80540000D02*
X167141000Y-81370000D01*
X139530000Y-69150000D02*
X135930000Y-69150000D01*
X139568478Y-69161522D02*
G75*
G02X137730000Y-73600000I-1838478J-1838478D01*
G01*
X135891522Y-69161522D02*
G75*
G03X137730000Y-73600000I1838478J-1838478D01*
G01*
X159970000Y-71600000D02*
X163570000Y-71600000D01*
X159931522Y-71588478D02*
G75*
G02X161770000Y-67150000I1838478J1838478D01*
G01*
X163608478Y-71588478D02*
G75*
G03X161770000Y-67150000I-1838478J1838478D01*
G01*
X135420000Y-45380000D02*
X143660000Y-45380000D01*
X135420000Y-48870000D02*
X143660000Y-48870000D01*
X135420000Y-45380000D02*
X135420000Y-48870000D01*
X143660000Y-45380000D02*
X143660000Y-48870000D01*
X137940000Y-45380000D02*
X137940000Y-46450000D01*
X137940000Y-48550000D02*
X137940000Y-48870000D01*
X141141000Y-45380000D02*
X141141000Y-46960000D01*
X141141000Y-48040000D02*
X141141000Y-48870000D01*
X123850000Y-94520000D02*
X123850000Y-94190000D01*
X123850000Y-94190000D02*
X130270000Y-94190000D01*
X130270000Y-94190000D02*
X130270000Y-94520000D01*
X123850000Y-96480000D02*
X123850000Y-96810000D01*
X123850000Y-96810000D02*
X130270000Y-96810000D01*
X130270000Y-96810000D02*
X130270000Y-96480000D01*
X134600000Y-92270000D02*
X134600000Y-91940000D01*
X134600000Y-91940000D02*
X141020000Y-91940000D01*
X141020000Y-91940000D02*
X141020000Y-92270000D01*
X134600000Y-94230000D02*
X134600000Y-94560000D01*
X134600000Y-94560000D02*
X141020000Y-94560000D01*
X141020000Y-94560000D02*
X141020000Y-94230000D01*
X103520000Y-75900000D02*
X103190000Y-75900000D01*
X103190000Y-75900000D02*
X103190000Y-69480000D01*
X103190000Y-69480000D02*
X103520000Y-69480000D01*
X105480000Y-75900000D02*
X105810000Y-75900000D01*
X105810000Y-75900000D02*
X105810000Y-69480000D01*
X105810000Y-69480000D02*
X105480000Y-69480000D01*
X98020000Y-75900000D02*
X97690000Y-75900000D01*
X97690000Y-75900000D02*
X97690000Y-69480000D01*
X97690000Y-69480000D02*
X98020000Y-69480000D01*
X99980000Y-75900000D02*
X100310000Y-75900000D01*
X100310000Y-75900000D02*
X100310000Y-69480000D01*
X100310000Y-69480000D02*
X99980000Y-69480000D01*
X102900000Y-90480000D02*
X102900000Y-90810000D01*
X102900000Y-90810000D02*
X96480000Y-90810000D01*
X96480000Y-90810000D02*
X96480000Y-90480000D01*
X102900000Y-88520000D02*
X102900000Y-88190000D01*
X102900000Y-88190000D02*
X96480000Y-88190000D01*
X96480000Y-88190000D02*
X96480000Y-88520000D01*
X134400000Y-99980000D02*
X134400000Y-100310000D01*
X134400000Y-100310000D02*
X127980000Y-100310000D01*
X127980000Y-100310000D02*
X127980000Y-99980000D01*
X134400000Y-98020000D02*
X134400000Y-97690000D01*
X134400000Y-97690000D02*
X127980000Y-97690000D01*
X127980000Y-97690000D02*
X127980000Y-98020000D01*
X134400000Y-102980000D02*
X134400000Y-103310000D01*
X134400000Y-103310000D02*
X127980000Y-103310000D01*
X127980000Y-103310000D02*
X127980000Y-102980000D01*
X134400000Y-101020000D02*
X134400000Y-100690000D01*
X134400000Y-100690000D02*
X127980000Y-100690000D01*
X127980000Y-100690000D02*
X127980000Y-101020000D01*
X153900000Y-97980000D02*
X153900000Y-98310000D01*
X153900000Y-98310000D02*
X147480000Y-98310000D01*
X147480000Y-98310000D02*
X147480000Y-97980000D01*
X153900000Y-96020000D02*
X153900000Y-95690000D01*
X153900000Y-95690000D02*
X147480000Y-95690000D01*
X147480000Y-95690000D02*
X147480000Y-96020000D01*
X153900000Y-104480000D02*
X153900000Y-104810000D01*
X153900000Y-104810000D02*
X147480000Y-104810000D01*
X147480000Y-104810000D02*
X147480000Y-104480000D01*
X153900000Y-102520000D02*
X153900000Y-102190000D01*
X153900000Y-102190000D02*
X147480000Y-102190000D01*
X147480000Y-102190000D02*
X147480000Y-102520000D01*
X141504296Y-103414691D02*
G75*
G02X139195000Y-103455000I-1154296J-40309D01*
G01*
X139195948Y-103475121D02*
G75*
G02X140590000Y-102326000I1154052J20121D01*
G01*
X143970000Y-95135000D02*
X143970000Y-104785000D01*
X139019000Y-95135000D02*
X139019000Y-104785000D01*
X143970000Y-95135000D02*
X139019000Y-95135000D01*
X143970000Y-104785000D02*
X139019000Y-104785000D01*
X141084000Y-104331000D02*
X139474000Y-102720000D01*
X141225000Y-104191000D02*
X139615000Y-102579000D01*
X179880000Y-92340000D02*
X180360000Y-92340000D01*
X180360000Y-92340000D02*
X180360000Y-102360000D01*
X180360000Y-102360000D02*
X179880000Y-102360000D01*
X177120000Y-92340000D02*
X176640000Y-92340000D01*
X176640000Y-92340000D02*
X176640000Y-102360000D01*
X176640000Y-102360000D02*
X177120000Y-102360000D01*
X178480000Y-80100000D02*
X178810000Y-80100000D01*
X178810000Y-80100000D02*
X178810000Y-86520000D01*
X178810000Y-86520000D02*
X178480000Y-86520000D01*
X176520000Y-80100000D02*
X176190000Y-80100000D01*
X176190000Y-80100000D02*
X176190000Y-86520000D01*
X176190000Y-86520000D02*
X176520000Y-86520000D01*
X88660000Y-86380000D02*
X88660000Y-86860000D01*
X88660000Y-86860000D02*
X78640000Y-86860000D01*
X78640000Y-86860000D02*
X78640000Y-86380000D01*
X88660000Y-83620000D02*
X88660000Y-83140000D01*
X88660000Y-83140000D02*
X78640000Y-83140000D01*
X78640000Y-83140000D02*
X78640000Y-83620000D01*
X80100000Y-96520000D02*
X80100000Y-96190000D01*
X80100000Y-96190000D02*
X86520000Y-96190000D01*
X86520000Y-96190000D02*
X86520000Y-96520000D01*
X80100000Y-98480000D02*
X80100000Y-98810000D01*
X80100000Y-98810000D02*
X86520000Y-98810000D01*
X86520000Y-98810000D02*
X86520000Y-98480000D01*
X69600000Y-93520000D02*
X69600000Y-93190000D01*
X69600000Y-93190000D02*
X76020000Y-93190000D01*
X76020000Y-93190000D02*
X76020000Y-93520000D01*
X69600000Y-95480000D02*
X69600000Y-95810000D01*
X69600000Y-95810000D02*
X76020000Y-95810000D01*
X76020000Y-95810000D02*
X76020000Y-95480000D01*
X188290000Y-85340000D02*
X188290000Y-88660000D01*
X188290000Y-88660000D02*
X197410000Y-88660000D01*
X197410000Y-88660000D02*
X197410000Y-85340000D01*
X197410000Y-85340000D02*
X188290000Y-85340000D01*
X187480000Y-87000000D02*
X188290000Y-87000000D01*
X198220000Y-87000000D02*
X197410000Y-87000000D01*
X108520000Y-82900000D02*
X108190000Y-82900000D01*
X108190000Y-82900000D02*
X108190000Y-76480000D01*
X108190000Y-76480000D02*
X108520000Y-76480000D01*
X110480000Y-82900000D02*
X110810000Y-82900000D01*
X110810000Y-82900000D02*
X110810000Y-76480000D01*
X110810000Y-76480000D02*
X110480000Y-76480000D01*
X122900000Y-74980000D02*
X122900000Y-75310000D01*
X122900000Y-75310000D02*
X116480000Y-75310000D01*
X116480000Y-75310000D02*
X116480000Y-74980000D01*
X122900000Y-73020000D02*
X122900000Y-72690000D01*
X122900000Y-72690000D02*
X116480000Y-72690000D01*
X116480000Y-72690000D02*
X116480000Y-73020000D01*
X111520000Y-80400000D02*
X111190000Y-80400000D01*
X111190000Y-80400000D02*
X111190000Y-73980000D01*
X111190000Y-73980000D02*
X111520000Y-73980000D01*
X113480000Y-80400000D02*
X113810000Y-80400000D01*
X113810000Y-80400000D02*
X113810000Y-73980000D01*
X113810000Y-73980000D02*
X113480000Y-73980000D01*
X119650000Y-85480000D02*
X119650000Y-85810000D01*
X119650000Y-85810000D02*
X113230000Y-85810000D01*
X113230000Y-85810000D02*
X113230000Y-85480000D01*
X119650000Y-83520000D02*
X119650000Y-83190000D01*
X119650000Y-83190000D02*
X113230000Y-83190000D01*
X113230000Y-83190000D02*
X113230000Y-83520000D01*
X141480000Y-75850000D02*
X141810000Y-75850000D01*
X141810000Y-75850000D02*
X141810000Y-82270000D01*
X141810000Y-82270000D02*
X141480000Y-82270000D01*
X139520000Y-75850000D02*
X139190000Y-75850000D01*
X139190000Y-75850000D02*
X139190000Y-82270000D01*
X139190000Y-82270000D02*
X139520000Y-82270000D01*
X136254296Y-85664691D02*
G75*
G02X133945000Y-85705000I-1154296J-40309D01*
G01*
X133945948Y-85725121D02*
G75*
G02X135340000Y-84576000I1154052J20121D01*
G01*
X138720000Y-77385000D02*
X138720000Y-87035000D01*
X133769000Y-77385000D02*
X133769000Y-87035000D01*
X138720000Y-77385000D02*
X133769000Y-77385000D01*
X138720000Y-87035000D02*
X133769000Y-87035000D01*
X135834000Y-86581000D02*
X134224000Y-84970000D01*
X135975000Y-86441000D02*
X134365000Y-84829000D01*
X151650000Y-89730000D02*
X151650000Y-90060000D01*
X151650000Y-90060000D02*
X145230000Y-90060000D01*
X145230000Y-90060000D02*
X145230000Y-89730000D01*
X151650000Y-87770000D02*
X151650000Y-87440000D01*
X151650000Y-87440000D02*
X145230000Y-87440000D01*
X145230000Y-87440000D02*
X145230000Y-87770000D01*
X174730000Y-69100000D02*
X175060000Y-69100000D01*
X175060000Y-69100000D02*
X175060000Y-75520000D01*
X175060000Y-75520000D02*
X174730000Y-75520000D01*
X172770000Y-69100000D02*
X172440000Y-69100000D01*
X172440000Y-69100000D02*
X172440000Y-75520000D01*
X172440000Y-75520000D02*
X172770000Y-75520000D01*
X133400000Y-74980000D02*
X133400000Y-75310000D01*
X133400000Y-75310000D02*
X126980000Y-75310000D01*
X126980000Y-75310000D02*
X126980000Y-74980000D01*
X133400000Y-73020000D02*
X133400000Y-72690000D01*
X133400000Y-72690000D02*
X126980000Y-72690000D01*
X126980000Y-72690000D02*
X126980000Y-73020000D01*
X190390000Y-74860000D02*
X190390000Y-71140000D01*
X190390000Y-71140000D02*
X180370000Y-71140000D01*
X180370000Y-71140000D02*
X180370000Y-74860000D01*
X180370000Y-74860000D02*
X190390000Y-74860000D01*
X191620000Y-73000000D02*
X190390000Y-73000000D01*
X179140000Y-73000000D02*
X180370000Y-73000000D01*
X132270000Y-68400000D02*
X131940000Y-68400000D01*
X131940000Y-68400000D02*
X131940000Y-61980000D01*
X131940000Y-61980000D02*
X132270000Y-61980000D01*
X134230000Y-68400000D02*
X134560000Y-68400000D01*
X134560000Y-68400000D02*
X134560000Y-61980000D01*
X134560000Y-61980000D02*
X134230000Y-61980000D01*
X185770000Y-68650000D02*
X185440000Y-68650000D01*
X185440000Y-68650000D02*
X185440000Y-62230000D01*
X185440000Y-62230000D02*
X185770000Y-62230000D01*
X187730000Y-68650000D02*
X188060000Y-68650000D01*
X188060000Y-68650000D02*
X188060000Y-62230000D01*
X188060000Y-62230000D02*
X187730000Y-62230000D01*
X29590000Y-64120000D02*
X29590000Y-63640000D01*
X29590000Y-63640000D02*
X39610000Y-63640000D01*
X39610000Y-63640000D02*
X39610000Y-64120000D01*
X29590000Y-66880000D02*
X29590000Y-67360000D01*
X29590000Y-67360000D02*
X39610000Y-67360000D01*
X39610000Y-67360000D02*
X39610000Y-66880000D01*
X259410000Y-66380000D02*
X259410000Y-66860000D01*
X259410000Y-66860000D02*
X249390000Y-66860000D01*
X249390000Y-66860000D02*
X249390000Y-66380000D01*
X259410000Y-63620000D02*
X259410000Y-63140000D01*
X259410000Y-63140000D02*
X249390000Y-63140000D01*
X249390000Y-63140000D02*
X249390000Y-63620000D01*
X58210000Y-79160000D02*
X58210000Y-75840000D01*
X58210000Y-75840000D02*
X49090000Y-75840000D01*
X49090000Y-75840000D02*
X49090000Y-79160000D01*
X49090000Y-79160000D02*
X58210000Y-79160000D01*
X59020000Y-77500000D02*
X58210000Y-77500000D01*
X48280000Y-77500000D02*
X49090000Y-77500000D01*
X35330000Y-47979000D02*
X38600000Y-47979000D01*
X41400000Y-47979000D02*
X44051000Y-47979000D01*
X46850000Y-47979000D02*
X49500000Y-47979000D01*
X52300000Y-47979000D02*
X55570000Y-47979000D01*
X35330000Y-53220000D02*
X55570000Y-53220000D01*
X35330000Y-47979000D02*
X35330000Y-53220000D01*
X55570000Y-47979000D02*
X55570000Y-53220000D01*
X35330000Y-50220000D02*
X38600000Y-50220000D01*
X41400000Y-50220000D02*
X44051000Y-50220000D01*
X46850000Y-50220000D02*
X49500000Y-50220000D01*
X52300000Y-50220000D02*
X55570000Y-50220000D01*
X43800000Y-47979000D02*
X43800000Y-50220000D01*
X47100000Y-47979000D02*
X47100000Y-50220000D01*
X237330000Y-47979000D02*
X240600000Y-47979000D01*
X243400000Y-47979000D02*
X246051000Y-47979000D01*
X248850000Y-47979000D02*
X251500000Y-47979000D01*
X254300000Y-47979000D02*
X257570000Y-47979000D01*
X237330000Y-53220000D02*
X257570000Y-53220000D01*
X237330000Y-47979000D02*
X237330000Y-53220000D01*
X257570000Y-47979000D02*
X257570000Y-53220000D01*
X237330000Y-50220000D02*
X240600000Y-50220000D01*
X243400000Y-50220000D02*
X246051000Y-50220000D01*
X248850000Y-50220000D02*
X251500000Y-50220000D01*
X254300000Y-50220000D02*
X257570000Y-50220000D01*
X245800000Y-47979000D02*
X245800000Y-50220000D01*
X249100000Y-47979000D02*
X249100000Y-50220000D01*
X60330000Y-47979000D02*
X63600000Y-47979000D01*
X66400000Y-47979000D02*
X69051000Y-47979000D01*
X71850000Y-47979000D02*
X74500000Y-47979000D01*
X77300000Y-47979000D02*
X80570000Y-47979000D01*
X60330000Y-53220000D02*
X80570000Y-53220000D01*
X60330000Y-47979000D02*
X60330000Y-53220000D01*
X80570000Y-47979000D02*
X80570000Y-53220000D01*
X60330000Y-50220000D02*
X63600000Y-50220000D01*
X66400000Y-50220000D02*
X69051000Y-50220000D01*
X71850000Y-50220000D02*
X74500000Y-50220000D01*
X77300000Y-50220000D02*
X80570000Y-50220000D01*
X68800000Y-47979000D02*
X68800000Y-50220000D01*
X72100000Y-47979000D02*
X72100000Y-50220000D01*
X212330000Y-47979000D02*
X215600000Y-47979000D01*
X218400000Y-47979000D02*
X221051000Y-47979000D01*
X223850000Y-47979000D02*
X226500000Y-47979000D01*
X229300000Y-47979000D02*
X232570000Y-47979000D01*
X212330000Y-53220000D02*
X232570000Y-53220000D01*
X212330000Y-47979000D02*
X212330000Y-53220000D01*
X232570000Y-47979000D02*
X232570000Y-53220000D01*
X212330000Y-50220000D02*
X215600000Y-50220000D01*
X218400000Y-50220000D02*
X221051000Y-50220000D01*
X223850000Y-50220000D02*
X226500000Y-50220000D01*
X229300000Y-50220000D02*
X232570000Y-50220000D01*
X220800000Y-47979000D02*
X220800000Y-50220000D01*
X224100000Y-47979000D02*
X224100000Y-50220000D01*
X85330000Y-47979000D02*
X88600000Y-47979000D01*
X91400000Y-47979000D02*
X94051000Y-47979000D01*
X96850000Y-47979000D02*
X99500000Y-47979000D01*
X102300000Y-47979000D02*
X105570000Y-47979000D01*
X85330000Y-53220000D02*
X105570000Y-53220000D01*
X85330000Y-47979000D02*
X85330000Y-53220000D01*
X105570000Y-47979000D02*
X105570000Y-53220000D01*
X85330000Y-50220000D02*
X88600000Y-50220000D01*
X91400000Y-50220000D02*
X94051000Y-50220000D01*
X96850000Y-50220000D02*
X99500000Y-50220000D01*
X102300000Y-50220000D02*
X105570000Y-50220000D01*
X93800000Y-47979000D02*
X93800000Y-50220000D01*
X97100000Y-47979000D02*
X97100000Y-50220000D01*
X187330000Y-47979000D02*
X190600000Y-47979000D01*
X193400000Y-47979000D02*
X196051000Y-47979000D01*
X198850000Y-47979000D02*
X201500000Y-47979000D01*
X204300000Y-47979000D02*
X207570000Y-47979000D01*
X187330000Y-53220000D02*
X207570000Y-53220000D01*
X187330000Y-47979000D02*
X187330000Y-53220000D01*
X207570000Y-47979000D02*
X207570000Y-53220000D01*
X187330000Y-50220000D02*
X190600000Y-50220000D01*
X193400000Y-50220000D02*
X196051000Y-50220000D01*
X198850000Y-50220000D02*
X201500000Y-50220000D01*
X204300000Y-50220000D02*
X207570000Y-50220000D01*
X195800000Y-47979000D02*
X195800000Y-50220000D01*
X199100000Y-47979000D02*
X199100000Y-50220000D01*
X110330000Y-47979000D02*
X113600000Y-47979000D01*
X116400000Y-47979000D02*
X119051000Y-47979000D01*
X121850000Y-47979000D02*
X124500000Y-47979000D01*
X127300000Y-47979000D02*
X130570000Y-47979000D01*
X110330000Y-53220000D02*
X130570000Y-53220000D01*
X110330000Y-47979000D02*
X110330000Y-53220000D01*
X130570000Y-47979000D02*
X130570000Y-53220000D01*
X110330000Y-50220000D02*
X113600000Y-50220000D01*
X116400000Y-50220000D02*
X119051000Y-50220000D01*
X121850000Y-50220000D02*
X124500000Y-50220000D01*
X127300000Y-50220000D02*
X130570000Y-50220000D01*
X118800000Y-47979000D02*
X118800000Y-50220000D01*
X122100000Y-47979000D02*
X122100000Y-50220000D01*
X162330000Y-47979000D02*
X165600000Y-47979000D01*
X168400000Y-47979000D02*
X171051000Y-47979000D01*
X173850000Y-47979000D02*
X176500000Y-47979000D01*
X179300000Y-47979000D02*
X182570000Y-47979000D01*
X162330000Y-53220000D02*
X182570000Y-53220000D01*
X162330000Y-47979000D02*
X162330000Y-53220000D01*
X182570000Y-47979000D02*
X182570000Y-53220000D01*
X162330000Y-50220000D02*
X165600000Y-50220000D01*
X168400000Y-50220000D02*
X171051000Y-50220000D01*
X173850000Y-50220000D02*
X176500000Y-50220000D01*
X179300000Y-50220000D02*
X182570000Y-50220000D01*
X170800000Y-47979000D02*
X170800000Y-50220000D01*
X174100000Y-47979000D02*
X174100000Y-50220000D01*
X31950000Y-56090000D02*
X31950000Y-61910000D01*
X31950000Y-61910000D02*
X46370000Y-61910000D01*
X46370000Y-61910000D02*
X46370000Y-56090000D01*
X46370000Y-56090000D02*
X31950000Y-56090000D01*
X30580000Y-59000000D02*
X31950000Y-59000000D01*
X47740000Y-59000000D02*
X46370000Y-59000000D01*
X261050000Y-61910000D02*
X261050000Y-56090000D01*
X261050000Y-56090000D02*
X246630000Y-56090000D01*
X246630000Y-56090000D02*
X246630000Y-61910000D01*
X246630000Y-61910000D02*
X261050000Y-61910000D01*
X262420000Y-59000000D02*
X261050000Y-59000000D01*
X245260000Y-59000000D02*
X246630000Y-59000000D01*
X57950000Y-56090000D02*
X57950000Y-61910000D01*
X57950000Y-61910000D02*
X72370000Y-61910000D01*
X72370000Y-61910000D02*
X72370000Y-56090000D01*
X72370000Y-56090000D02*
X57950000Y-56090000D01*
X56580000Y-59000000D02*
X57950000Y-59000000D01*
X73740000Y-59000000D02*
X72370000Y-59000000D01*
X233050000Y-61910000D02*
X233050000Y-56090000D01*
X233050000Y-56090000D02*
X218630000Y-56090000D01*
X218630000Y-56090000D02*
X218630000Y-61910000D01*
X218630000Y-61910000D02*
X233050000Y-61910000D01*
X234420000Y-59000000D02*
X233050000Y-59000000D01*
X217260000Y-59000000D02*
X218630000Y-59000000D01*
X84950000Y-56090000D02*
X84950000Y-61910000D01*
X84950000Y-61910000D02*
X99370000Y-61910000D01*
X99370000Y-61910000D02*
X99370000Y-56090000D01*
X99370000Y-56090000D02*
X84950000Y-56090000D01*
X83580000Y-59000000D02*
X84950000Y-59000000D01*
X100740000Y-59000000D02*
X99370000Y-59000000D01*
X207050000Y-61910000D02*
X207050000Y-56090000D01*
X207050000Y-56090000D02*
X192630000Y-56090000D01*
X192630000Y-56090000D02*
X192630000Y-61910000D01*
X192630000Y-61910000D02*
X207050000Y-61910000D01*
X208420000Y-59000000D02*
X207050000Y-59000000D01*
X191260000Y-59000000D02*
X192630000Y-59000000D01*
X111950000Y-56090000D02*
X111950000Y-61910000D01*
X111950000Y-61910000D02*
X126370000Y-61910000D01*
X126370000Y-61910000D02*
X126370000Y-56090000D01*
X126370000Y-56090000D02*
X111950000Y-56090000D01*
X110580000Y-59000000D02*
X111950000Y-59000000D01*
X127740000Y-59000000D02*
X126370000Y-59000000D01*
X181050000Y-61910000D02*
X181050000Y-56090000D01*
X181050000Y-56090000D02*
X166630000Y-56090000D01*
X166630000Y-56090000D02*
X166630000Y-61910000D01*
X166630000Y-61910000D02*
X181050000Y-61910000D01*
X182420000Y-59000000D02*
X181050000Y-59000000D01*
X165260000Y-59000000D02*
X166630000Y-59000000D01*
X250120000Y-74540000D02*
X239960000Y-74540000D01*
X250120000Y-75810000D02*
X250120000Y-68190000D01*
X250120000Y-68190000D02*
X239960000Y-68190000D01*
X239960000Y-68190000D02*
X239960000Y-75810000D01*
X239960000Y-75810000D02*
X250120000Y-75810000D01*
X233620000Y-74540000D02*
X223460000Y-74540000D01*
X233620000Y-75810000D02*
X233620000Y-68190000D01*
X233620000Y-68190000D02*
X223460000Y-68190000D01*
X223460000Y-68190000D02*
X223460000Y-75810000D01*
X223460000Y-75810000D02*
X233620000Y-75810000D01*
X71620000Y-73540000D02*
X61460000Y-73540000D01*
X71620000Y-74810000D02*
X71620000Y-67190000D01*
X71620000Y-67190000D02*
X61460000Y-67190000D01*
X61460000Y-67190000D02*
X61460000Y-74810000D01*
X61460000Y-74810000D02*
X71620000Y-74810000D01*
X265286000Y-103000000D02*
G75*
G03X265286000Y-103000000I-2286000J0D01*
G01*
X265286000Y-46000000D02*
G75*
G03X265286000Y-46000000I-2286000J0D01*
G01*
X31286000Y-103000000D02*
G75*
G03X31286000Y-103000000I-2286000J0D01*
G01*
X31286000Y-46000000D02*
G75*
G03X31286000Y-46000000I-2286000J0D01*
G01*
X171120000Y-104290000D02*
X160960000Y-104290000D01*
X171120000Y-105560000D02*
X171120000Y-97940000D01*
X171120000Y-97940000D02*
X160960000Y-97940000D01*
X160960000Y-97940000D02*
X160960000Y-105560000D01*
X160960000Y-105560000D02*
X171120000Y-105560000D01*
X165000000Y-87450000D02*
X167000000Y-87450000D01*
X165000000Y-94050000D02*
X167000000Y-94050000D01*
X169300000Y-89750000D02*
X169300000Y-91750000D01*
X162700000Y-89750000D02*
X162700000Y-91750000D01*
D12*
X152968572Y-44927619D02*
X152873334Y-44880000D01*
X152778096Y-44784762D01*
X152635239Y-44641905D01*
X152540000Y-44594286D01*
X152444762Y-44594286D01*
X152492381Y-44832381D02*
X152397143Y-44784762D01*
X152301905Y-44689524D01*
X152254286Y-44499048D01*
X152254286Y-44165714D01*
X152301905Y-43975238D01*
X152397143Y-43880000D01*
X152492381Y-43832381D01*
X152682858Y-43832381D01*
X152778096Y-43880000D01*
X152873334Y-43975238D01*
X152920953Y-44165714D01*
X152920953Y-44499048D01*
X152873334Y-44689524D01*
X152778096Y-44784762D01*
X152682858Y-44832381D01*
X152492381Y-44832381D01*
X153873334Y-44832381D02*
X153301905Y-44832381D01*
X153587619Y-44832381D02*
X153587619Y-43832381D01*
X153492381Y-43975238D01*
X153397143Y-44070476D01*
X153301905Y-44118095D01*
X154730477Y-43832381D02*
X154540000Y-43832381D01*
X154444762Y-43880000D01*
X154397143Y-43927619D01*
X154301905Y-44070476D01*
X154254286Y-44260952D01*
X154254286Y-44641905D01*
X154301905Y-44737143D01*
X154349524Y-44784762D01*
X154444762Y-44832381D01*
X154635239Y-44832381D01*
X154730477Y-44784762D01*
X154778096Y-44737143D01*
X154825715Y-44641905D01*
X154825715Y-44403810D01*
X154778096Y-44308571D01*
X154730477Y-44260952D01*
X154635239Y-44213333D01*
X154444762Y-44213333D01*
X154349524Y-44260952D01*
X154301905Y-44308571D01*
X154254286Y-44403810D01*
X179357143Y-69452381D02*
X179023809Y-68976190D01*
X178785714Y-69452381D02*
X178785714Y-68452381D01*
X179166667Y-68452381D01*
X179261905Y-68500000D01*
X179309524Y-68547619D01*
X179357143Y-68642857D01*
X179357143Y-68785714D01*
X179309524Y-68880952D01*
X179261905Y-68928571D01*
X179166667Y-68976190D01*
X178785714Y-68976190D01*
X179738095Y-68547619D02*
X179785714Y-68500000D01*
X179880952Y-68452381D01*
X180119048Y-68452381D01*
X180214286Y-68500000D01*
X180261905Y-68547619D01*
X180309524Y-68642857D01*
X180309524Y-68738095D01*
X180261905Y-68880952D01*
X179690476Y-69452381D01*
X180309524Y-69452381D01*
X180642857Y-68452381D02*
X181309524Y-68452381D01*
X180880952Y-69452381D01*
X120857143Y-70452381D02*
X120523809Y-69976190D01*
X120285714Y-70452381D02*
X120285714Y-69452381D01*
X120666667Y-69452381D01*
X120761905Y-69500000D01*
X120809524Y-69547619D01*
X120857143Y-69642857D01*
X120857143Y-69785714D01*
X120809524Y-69880952D01*
X120761905Y-69928571D01*
X120666667Y-69976190D01*
X120285714Y-69976190D01*
X121238095Y-69547619D02*
X121285714Y-69500000D01*
X121380952Y-69452381D01*
X121619048Y-69452381D01*
X121714286Y-69500000D01*
X121761905Y-69547619D01*
X121809524Y-69642857D01*
X121809524Y-69738095D01*
X121761905Y-69880952D01*
X121190476Y-70452381D01*
X121809524Y-70452381D01*
X122714286Y-69452381D02*
X122238095Y-69452381D01*
X122190476Y-69928571D01*
X122238095Y-69880952D01*
X122333333Y-69833333D01*
X122571429Y-69833333D01*
X122666667Y-69880952D01*
X122714286Y-69928571D01*
X122761905Y-70023810D01*
X122761905Y-70261905D01*
X122714286Y-70357143D01*
X122666667Y-70404762D01*
X122571429Y-70452381D01*
X122333333Y-70452381D01*
X122238095Y-70404762D01*
X122190476Y-70357143D01*
X149888572Y-79667619D02*
X149793334Y-79620000D01*
X149698096Y-79524762D01*
X149555239Y-79381905D01*
X149460000Y-79334286D01*
X149364762Y-79334286D01*
X149412381Y-79572381D02*
X149317143Y-79524762D01*
X149221905Y-79429524D01*
X149174286Y-79239048D01*
X149174286Y-78905714D01*
X149221905Y-78715238D01*
X149317143Y-78620000D01*
X149412381Y-78572381D01*
X149602858Y-78572381D01*
X149698096Y-78620000D01*
X149793334Y-78715238D01*
X149840953Y-78905714D01*
X149840953Y-79239048D01*
X149793334Y-79429524D01*
X149698096Y-79524762D01*
X149602858Y-79572381D01*
X149412381Y-79572381D01*
X150793334Y-79572381D02*
X150221905Y-79572381D01*
X150507619Y-79572381D02*
X150507619Y-78572381D01*
X150412381Y-78715238D01*
X150317143Y-78810476D01*
X150221905Y-78858095D01*
X151745715Y-79572381D02*
X151174286Y-79572381D01*
X151460000Y-79572381D02*
X151460000Y-78572381D01*
X151364762Y-78715238D01*
X151269524Y-78810476D01*
X151174286Y-78858095D01*
X150083334Y-93107143D02*
X150035715Y-93154762D01*
X149892858Y-93202381D01*
X149797620Y-93202381D01*
X149654762Y-93154762D01*
X149559524Y-93059524D01*
X149511905Y-92964286D01*
X149464286Y-92773810D01*
X149464286Y-92630952D01*
X149511905Y-92440476D01*
X149559524Y-92345238D01*
X149654762Y-92250000D01*
X149797620Y-92202381D01*
X149892858Y-92202381D01*
X150035715Y-92250000D01*
X150083334Y-92297619D01*
X151035715Y-93202381D02*
X150464286Y-93202381D01*
X150750000Y-93202381D02*
X150750000Y-92202381D01*
X150654762Y-92345238D01*
X150559524Y-92440476D01*
X150464286Y-92488095D01*
X126333334Y-92357143D02*
X126285715Y-92404762D01*
X126142858Y-92452381D01*
X126047620Y-92452381D01*
X125904762Y-92404762D01*
X125809524Y-92309524D01*
X125761905Y-92214286D01*
X125714286Y-92023810D01*
X125714286Y-91880952D01*
X125761905Y-91690476D01*
X125809524Y-91595238D01*
X125904762Y-91500000D01*
X126047620Y-91452381D01*
X126142858Y-91452381D01*
X126285715Y-91500000D01*
X126333334Y-91547619D01*
X126714286Y-91547619D02*
X126761905Y-91500000D01*
X126857143Y-91452381D01*
X127095239Y-91452381D01*
X127190477Y-91500000D01*
X127238096Y-91547619D01*
X127285715Y-91642857D01*
X127285715Y-91738095D01*
X127238096Y-91880952D01*
X126666667Y-92452381D01*
X127285715Y-92452381D01*
X99833334Y-86357143D02*
X99785715Y-86404762D01*
X99642858Y-86452381D01*
X99547620Y-86452381D01*
X99404762Y-86404762D01*
X99309524Y-86309524D01*
X99261905Y-86214286D01*
X99214286Y-86023810D01*
X99214286Y-85880952D01*
X99261905Y-85690476D01*
X99309524Y-85595238D01*
X99404762Y-85500000D01*
X99547620Y-85452381D01*
X99642858Y-85452381D01*
X99785715Y-85500000D01*
X99833334Y-85547619D01*
X100166667Y-85452381D02*
X100785715Y-85452381D01*
X100452381Y-85833333D01*
X100595239Y-85833333D01*
X100690477Y-85880952D01*
X100738096Y-85928571D01*
X100785715Y-86023810D01*
X100785715Y-86261905D01*
X100738096Y-86357143D01*
X100690477Y-86404762D01*
X100595239Y-86452381D01*
X100309524Y-86452381D01*
X100214286Y-86404762D01*
X100166667Y-86357143D01*
X84833334Y-89357143D02*
X84785715Y-89404762D01*
X84642858Y-89452381D01*
X84547620Y-89452381D01*
X84404762Y-89404762D01*
X84309524Y-89309524D01*
X84261905Y-89214286D01*
X84214286Y-89023810D01*
X84214286Y-88880952D01*
X84261905Y-88690476D01*
X84309524Y-88595238D01*
X84404762Y-88500000D01*
X84547620Y-88452381D01*
X84642858Y-88452381D01*
X84785715Y-88500000D01*
X84833334Y-88547619D01*
X85690477Y-88785714D02*
X85690477Y-89452381D01*
X85452381Y-88404762D02*
X85214286Y-89119048D01*
X85833334Y-89119048D01*
X182357143Y-82666666D02*
X182404762Y-82714285D01*
X182452381Y-82857142D01*
X182452381Y-82952380D01*
X182404762Y-83095238D01*
X182309524Y-83190476D01*
X182214286Y-83238095D01*
X182023810Y-83285714D01*
X181880952Y-83285714D01*
X181690476Y-83238095D01*
X181595238Y-83190476D01*
X181500000Y-83095238D01*
X181452381Y-82952380D01*
X181452381Y-82857142D01*
X181500000Y-82714285D01*
X181547619Y-82666666D01*
X181452381Y-81761904D02*
X181452381Y-82238095D01*
X181928571Y-82285714D01*
X181880952Y-82238095D01*
X181833333Y-82142857D01*
X181833333Y-81904761D01*
X181880952Y-81809523D01*
X181928571Y-81761904D01*
X182023810Y-81714285D01*
X182261905Y-81714285D01*
X182357143Y-81761904D01*
X182404762Y-81809523D01*
X182452381Y-81904761D01*
X182452381Y-82142857D01*
X182404762Y-82238095D01*
X182357143Y-82285714D01*
X82833334Y-101357143D02*
X82785715Y-101404762D01*
X82642858Y-101452381D01*
X82547620Y-101452381D01*
X82404762Y-101404762D01*
X82309524Y-101309524D01*
X82261905Y-101214286D01*
X82214286Y-101023810D01*
X82214286Y-100880952D01*
X82261905Y-100690476D01*
X82309524Y-100595238D01*
X82404762Y-100500000D01*
X82547620Y-100452381D01*
X82642858Y-100452381D01*
X82785715Y-100500000D01*
X82833334Y-100547619D01*
X83690477Y-100452381D02*
X83500000Y-100452381D01*
X83404762Y-100500000D01*
X83357143Y-100547619D01*
X83261905Y-100690476D01*
X83214286Y-100880952D01*
X83214286Y-101261905D01*
X83261905Y-101357143D01*
X83309524Y-101404762D01*
X83404762Y-101452381D01*
X83595239Y-101452381D01*
X83690477Y-101404762D01*
X83738096Y-101357143D01*
X83785715Y-101261905D01*
X83785715Y-101023810D01*
X83738096Y-100928571D01*
X83690477Y-100880952D01*
X83595239Y-100833333D01*
X83404762Y-100833333D01*
X83309524Y-100880952D01*
X83261905Y-100928571D01*
X83214286Y-101023810D01*
X62333334Y-90357143D02*
X62285715Y-90404762D01*
X62142858Y-90452381D01*
X62047620Y-90452381D01*
X61904762Y-90404762D01*
X61809524Y-90309524D01*
X61761905Y-90214286D01*
X61714286Y-90023810D01*
X61714286Y-89880952D01*
X61761905Y-89690476D01*
X61809524Y-89595238D01*
X61904762Y-89500000D01*
X62047620Y-89452381D01*
X62142858Y-89452381D01*
X62285715Y-89500000D01*
X62333334Y-89547619D01*
X62666667Y-89452381D02*
X63333334Y-89452381D01*
X62904762Y-90452381D01*
X43833334Y-84357143D02*
X43785715Y-84404762D01*
X43642858Y-84452381D01*
X43547620Y-84452381D01*
X43404762Y-84404762D01*
X43309524Y-84309524D01*
X43261905Y-84214286D01*
X43214286Y-84023810D01*
X43214286Y-83880952D01*
X43261905Y-83690476D01*
X43309524Y-83595238D01*
X43404762Y-83500000D01*
X43547620Y-83452381D01*
X43642858Y-83452381D01*
X43785715Y-83500000D01*
X43833334Y-83547619D01*
X44404762Y-83880952D02*
X44309524Y-83833333D01*
X44261905Y-83785714D01*
X44214286Y-83690476D01*
X44214286Y-83642857D01*
X44261905Y-83547619D01*
X44309524Y-83500000D01*
X44404762Y-83452381D01*
X44595239Y-83452381D01*
X44690477Y-83500000D01*
X44738096Y-83547619D01*
X44785715Y-83642857D01*
X44785715Y-83690476D01*
X44738096Y-83785714D01*
X44690477Y-83833333D01*
X44595239Y-83880952D01*
X44404762Y-83880952D01*
X44309524Y-83928571D01*
X44261905Y-83976190D01*
X44214286Y-84071429D01*
X44214286Y-84261905D01*
X44261905Y-84357143D01*
X44309524Y-84404762D01*
X44404762Y-84452381D01*
X44595239Y-84452381D01*
X44690477Y-84404762D01*
X44738096Y-84357143D01*
X44785715Y-84261905D01*
X44785715Y-84071429D01*
X44738096Y-83976190D01*
X44690477Y-83928571D01*
X44595239Y-83880952D01*
X118857143Y-90666666D02*
X118904762Y-90714285D01*
X118952381Y-90857142D01*
X118952381Y-90952380D01*
X118904762Y-91095238D01*
X118809524Y-91190476D01*
X118714286Y-91238095D01*
X118523810Y-91285714D01*
X118380952Y-91285714D01*
X118190476Y-91238095D01*
X118095238Y-91190476D01*
X118000000Y-91095238D01*
X117952381Y-90952380D01*
X117952381Y-90857142D01*
X118000000Y-90714285D01*
X118047619Y-90666666D01*
X118952381Y-90190476D02*
X118952381Y-90000000D01*
X118904762Y-89904761D01*
X118857143Y-89857142D01*
X118714286Y-89761904D01*
X118523810Y-89714285D01*
X118142857Y-89714285D01*
X118047619Y-89761904D01*
X118000000Y-89809523D01*
X117952381Y-89904761D01*
X117952381Y-90095238D01*
X118000000Y-90190476D01*
X118047619Y-90238095D01*
X118142857Y-90285714D01*
X118380952Y-90285714D01*
X118476190Y-90238095D01*
X118523810Y-90190476D01*
X118571429Y-90095238D01*
X118571429Y-89904761D01*
X118523810Y-89809523D01*
X118476190Y-89761904D01*
X118380952Y-89714285D01*
X150357143Y-85607143D02*
X150309524Y-85654762D01*
X150166667Y-85702381D01*
X150071429Y-85702381D01*
X149928571Y-85654762D01*
X149833333Y-85559524D01*
X149785714Y-85464286D01*
X149738095Y-85273810D01*
X149738095Y-85130952D01*
X149785714Y-84940476D01*
X149833333Y-84845238D01*
X149928571Y-84750000D01*
X150071429Y-84702381D01*
X150166667Y-84702381D01*
X150309524Y-84750000D01*
X150357143Y-84797619D01*
X151309524Y-85702381D02*
X150738095Y-85702381D01*
X151023809Y-85702381D02*
X151023809Y-84702381D01*
X150928571Y-84845238D01*
X150833333Y-84940476D01*
X150738095Y-84988095D01*
X151928571Y-84702381D02*
X152023810Y-84702381D01*
X152119048Y-84750000D01*
X152166667Y-84797619D01*
X152214286Y-84892857D01*
X152261905Y-85083333D01*
X152261905Y-85321429D01*
X152214286Y-85511905D01*
X152166667Y-85607143D01*
X152119048Y-85654762D01*
X152023810Y-85702381D01*
X151928571Y-85702381D01*
X151833333Y-85654762D01*
X151785714Y-85607143D01*
X151738095Y-85511905D01*
X151690476Y-85321429D01*
X151690476Y-85083333D01*
X151738095Y-84892857D01*
X151785714Y-84797619D01*
X151833333Y-84750000D01*
X151928571Y-84702381D01*
X52357143Y-73857143D02*
X52309524Y-73904762D01*
X52166667Y-73952381D01*
X52071429Y-73952381D01*
X51928571Y-73904762D01*
X51833333Y-73809524D01*
X51785714Y-73714286D01*
X51738095Y-73523810D01*
X51738095Y-73380952D01*
X51785714Y-73190476D01*
X51833333Y-73095238D01*
X51928571Y-73000000D01*
X52071429Y-72952381D01*
X52166667Y-72952381D01*
X52309524Y-73000000D01*
X52357143Y-73047619D01*
X53309524Y-73952381D02*
X52738095Y-73952381D01*
X53023809Y-73952381D02*
X53023809Y-72952381D01*
X52928571Y-73095238D01*
X52833333Y-73190476D01*
X52738095Y-73238095D01*
X54261905Y-73952381D02*
X53690476Y-73952381D01*
X53976190Y-73952381D02*
X53976190Y-72952381D01*
X53880952Y-73095238D01*
X53785714Y-73190476D01*
X53690476Y-73238095D01*
X85357143Y-72642857D02*
X85404762Y-72690476D01*
X85452381Y-72833333D01*
X85452381Y-72928571D01*
X85404762Y-73071429D01*
X85309524Y-73166667D01*
X85214286Y-73214286D01*
X85023810Y-73261905D01*
X84880952Y-73261905D01*
X84690476Y-73214286D01*
X84595238Y-73166667D01*
X84500000Y-73071429D01*
X84452381Y-72928571D01*
X84452381Y-72833333D01*
X84500000Y-72690476D01*
X84547619Y-72642857D01*
X85452381Y-71690476D02*
X85452381Y-72261905D01*
X85452381Y-71976191D02*
X84452381Y-71976191D01*
X84595238Y-72071429D01*
X84690476Y-72166667D01*
X84738095Y-72261905D01*
X84547619Y-71309524D02*
X84500000Y-71261905D01*
X84452381Y-71166667D01*
X84452381Y-70928571D01*
X84500000Y-70833333D01*
X84547619Y-70785714D01*
X84642857Y-70738095D01*
X84738095Y-70738095D01*
X84880952Y-70785714D01*
X85452381Y-71357143D01*
X85452381Y-70738095D01*
X92857143Y-74142857D02*
X92904762Y-74190476D01*
X92952381Y-74333333D01*
X92952381Y-74428571D01*
X92904762Y-74571429D01*
X92809524Y-74666667D01*
X92714286Y-74714286D01*
X92523810Y-74761905D01*
X92380952Y-74761905D01*
X92190476Y-74714286D01*
X92095238Y-74666667D01*
X92000000Y-74571429D01*
X91952381Y-74428571D01*
X91952381Y-74333333D01*
X92000000Y-74190476D01*
X92047619Y-74142857D01*
X92952381Y-73190476D02*
X92952381Y-73761905D01*
X92952381Y-73476191D02*
X91952381Y-73476191D01*
X92095238Y-73571429D01*
X92190476Y-73666667D01*
X92238095Y-73761905D01*
X91952381Y-72857143D02*
X91952381Y-72238095D01*
X92333333Y-72571429D01*
X92333333Y-72428571D01*
X92380952Y-72333333D01*
X92428571Y-72285714D01*
X92523810Y-72238095D01*
X92761905Y-72238095D01*
X92857143Y-72285714D01*
X92904762Y-72333333D01*
X92952381Y-72428571D01*
X92952381Y-72714286D01*
X92904762Y-72809524D01*
X92857143Y-72857143D01*
X205857143Y-77142857D02*
X205904762Y-77190476D01*
X205952381Y-77333333D01*
X205952381Y-77428571D01*
X205904762Y-77571429D01*
X205809524Y-77666667D01*
X205714286Y-77714286D01*
X205523810Y-77761905D01*
X205380952Y-77761905D01*
X205190476Y-77714286D01*
X205095238Y-77666667D01*
X205000000Y-77571429D01*
X204952381Y-77428571D01*
X204952381Y-77333333D01*
X205000000Y-77190476D01*
X205047619Y-77142857D01*
X205952381Y-76190476D02*
X205952381Y-76761905D01*
X205952381Y-76476191D02*
X204952381Y-76476191D01*
X205095238Y-76571429D01*
X205190476Y-76666667D01*
X205238095Y-76761905D01*
X205285714Y-75333333D02*
X205952381Y-75333333D01*
X204904762Y-75571429D02*
X205619048Y-75809524D01*
X205619048Y-75190476D01*
X221357143Y-74642857D02*
X221404762Y-74690476D01*
X221452381Y-74833333D01*
X221452381Y-74928571D01*
X221404762Y-75071429D01*
X221309524Y-75166667D01*
X221214286Y-75214286D01*
X221023810Y-75261905D01*
X220880952Y-75261905D01*
X220690476Y-75214286D01*
X220595238Y-75166667D01*
X220500000Y-75071429D01*
X220452381Y-74928571D01*
X220452381Y-74833333D01*
X220500000Y-74690476D01*
X220547619Y-74642857D01*
X221452381Y-73690476D02*
X221452381Y-74261905D01*
X221452381Y-73976191D02*
X220452381Y-73976191D01*
X220595238Y-74071429D01*
X220690476Y-74166667D01*
X220738095Y-74261905D01*
X220452381Y-72785714D02*
X220452381Y-73261905D01*
X220928571Y-73309524D01*
X220880952Y-73261905D01*
X220833333Y-73166667D01*
X220833333Y-72928571D01*
X220880952Y-72833333D01*
X220928571Y-72785714D01*
X221023810Y-72738095D01*
X221261905Y-72738095D01*
X221357143Y-72785714D01*
X221404762Y-72833333D01*
X221452381Y-72928571D01*
X221452381Y-73166667D01*
X221404762Y-73261905D01*
X221357143Y-73309524D01*
X82761905Y-93452381D02*
X82761905Y-92452381D01*
X83000000Y-92452381D01*
X83142858Y-92500000D01*
X83238096Y-92595238D01*
X83285715Y-92690476D01*
X83333334Y-92880952D01*
X83333334Y-93023810D01*
X83285715Y-93214286D01*
X83238096Y-93309524D01*
X83142858Y-93404762D01*
X83000000Y-93452381D01*
X82761905Y-93452381D01*
X84285715Y-93452381D02*
X83714286Y-93452381D01*
X84000000Y-93452381D02*
X84000000Y-92452381D01*
X83904762Y-92595238D01*
X83809524Y-92690476D01*
X83714286Y-92738095D01*
X189912381Y-83008095D02*
X188912381Y-83008095D01*
X188912381Y-82770000D01*
X188960000Y-82627142D01*
X189055238Y-82531904D01*
X189150476Y-82484285D01*
X189340952Y-82436666D01*
X189483810Y-82436666D01*
X189674286Y-82484285D01*
X189769524Y-82531904D01*
X189864762Y-82627142D01*
X189912381Y-82770000D01*
X189912381Y-83008095D01*
X189007619Y-82055714D02*
X188960000Y-82008095D01*
X188912381Y-81912857D01*
X188912381Y-81674761D01*
X188960000Y-81579523D01*
X189007619Y-81531904D01*
X189102857Y-81484285D01*
X189198095Y-81484285D01*
X189340952Y-81531904D01*
X189912381Y-82103333D01*
X189912381Y-81484285D01*
X142452381Y-65488095D02*
X141452381Y-65488095D01*
X141452381Y-65250000D01*
X141500000Y-65107142D01*
X141595238Y-65011904D01*
X141690476Y-64964285D01*
X141880952Y-64916666D01*
X142023810Y-64916666D01*
X142214286Y-64964285D01*
X142309524Y-65011904D01*
X142404762Y-65107142D01*
X142452381Y-65250000D01*
X142452381Y-65488095D01*
X141452381Y-64583333D02*
X141452381Y-63964285D01*
X141833333Y-64297619D01*
X141833333Y-64154761D01*
X141880952Y-64059523D01*
X141928571Y-64011904D01*
X142023810Y-63964285D01*
X142261905Y-63964285D01*
X142357143Y-64011904D01*
X142404762Y-64059523D01*
X142452381Y-64154761D01*
X142452381Y-64440476D01*
X142404762Y-64535714D01*
X142357143Y-64583333D01*
X155702381Y-65988095D02*
X154702381Y-65988095D01*
X154702381Y-65750000D01*
X154750000Y-65607142D01*
X154845238Y-65511904D01*
X154940476Y-65464285D01*
X155130952Y-65416666D01*
X155273810Y-65416666D01*
X155464286Y-65464285D01*
X155559524Y-65511904D01*
X155654762Y-65607142D01*
X155702381Y-65750000D01*
X155702381Y-65988095D01*
X155035714Y-64559523D02*
X155702381Y-64559523D01*
X154654762Y-64797619D02*
X155369048Y-65035714D01*
X155369048Y-64416666D01*
X50261905Y-70452381D02*
X50261905Y-69452381D01*
X50500000Y-69452381D01*
X50642858Y-69500000D01*
X50738096Y-69595238D01*
X50785715Y-69690476D01*
X50833334Y-69880952D01*
X50833334Y-70023810D01*
X50785715Y-70214286D01*
X50738096Y-70309524D01*
X50642858Y-70404762D01*
X50500000Y-70452381D01*
X50261905Y-70452381D01*
X51738096Y-69452381D02*
X51261905Y-69452381D01*
X51214286Y-69928571D01*
X51261905Y-69880952D01*
X51357143Y-69833333D01*
X51595239Y-69833333D01*
X51690477Y-69880952D01*
X51738096Y-69928571D01*
X51785715Y-70023810D01*
X51785715Y-70261905D01*
X51738096Y-70357143D01*
X51690477Y-70404762D01*
X51595239Y-70452381D01*
X51357143Y-70452381D01*
X51261905Y-70404762D01*
X51214286Y-70357143D01*
X198952381Y-73238095D02*
X197952381Y-73238095D01*
X197952381Y-73000000D01*
X198000000Y-72857142D01*
X198095238Y-72761904D01*
X198190476Y-72714285D01*
X198380952Y-72666666D01*
X198523810Y-72666666D01*
X198714286Y-72714285D01*
X198809524Y-72761904D01*
X198904762Y-72857142D01*
X198952381Y-73000000D01*
X198952381Y-73238095D01*
X197952381Y-71809523D02*
X197952381Y-72000000D01*
X198000000Y-72095238D01*
X198047619Y-72142857D01*
X198190476Y-72238095D01*
X198380952Y-72285714D01*
X198761905Y-72285714D01*
X198857143Y-72238095D01*
X198904762Y-72190476D01*
X198952381Y-72095238D01*
X198952381Y-71904761D01*
X198904762Y-71809523D01*
X198857143Y-71761904D01*
X198761905Y-71714285D01*
X198523810Y-71714285D01*
X198428571Y-71761904D01*
X198380952Y-71809523D01*
X198333333Y-71904761D01*
X198333333Y-72095238D01*
X198380952Y-72190476D01*
X198428571Y-72238095D01*
X198523810Y-72285714D01*
X115674762Y-95487619D02*
X115579524Y-95440000D01*
X115484286Y-95344762D01*
X115341429Y-95201905D01*
X115246190Y-95154286D01*
X115150952Y-95154286D01*
X115198571Y-95392381D02*
X115103333Y-95344762D01*
X115008095Y-95249524D01*
X114960476Y-95059048D01*
X114960476Y-94725714D01*
X115008095Y-94535238D01*
X115103333Y-94440000D01*
X115198571Y-94392381D01*
X115389048Y-94392381D01*
X115484286Y-94440000D01*
X115579524Y-94535238D01*
X115627143Y-94725714D01*
X115627143Y-95059048D01*
X115579524Y-95249524D01*
X115484286Y-95344762D01*
X115389048Y-95392381D01*
X115198571Y-95392381D01*
X116579524Y-95392381D02*
X116008095Y-95392381D01*
X116293809Y-95392381D02*
X116293809Y-94392381D01*
X116198571Y-94535238D01*
X116103333Y-94630476D01*
X116008095Y-94678095D01*
X106674762Y-98987619D02*
X106579524Y-98940000D01*
X106484286Y-98844762D01*
X106341429Y-98701905D01*
X106246190Y-98654286D01*
X106150952Y-98654286D01*
X106198571Y-98892381D02*
X106103333Y-98844762D01*
X106008095Y-98749524D01*
X105960476Y-98559048D01*
X105960476Y-98225714D01*
X106008095Y-98035238D01*
X106103333Y-97940000D01*
X106198571Y-97892381D01*
X106389048Y-97892381D01*
X106484286Y-97940000D01*
X106579524Y-98035238D01*
X106627143Y-98225714D01*
X106627143Y-98559048D01*
X106579524Y-98749524D01*
X106484286Y-98844762D01*
X106389048Y-98892381D01*
X106198571Y-98892381D01*
X107008095Y-97987619D02*
X107055714Y-97940000D01*
X107150952Y-97892381D01*
X107389048Y-97892381D01*
X107484286Y-97940000D01*
X107531905Y-97987619D01*
X107579524Y-98082857D01*
X107579524Y-98178095D01*
X107531905Y-98320952D01*
X106960476Y-98892381D01*
X107579524Y-98892381D01*
X101487619Y-81325238D02*
X101440000Y-81420476D01*
X101344762Y-81515714D01*
X101201905Y-81658571D01*
X101154286Y-81753810D01*
X101154286Y-81849048D01*
X101392381Y-81801429D02*
X101344762Y-81896667D01*
X101249524Y-81991905D01*
X101059048Y-82039524D01*
X100725714Y-82039524D01*
X100535238Y-81991905D01*
X100440000Y-81896667D01*
X100392381Y-81801429D01*
X100392381Y-81610952D01*
X100440000Y-81515714D01*
X100535238Y-81420476D01*
X100725714Y-81372857D01*
X101059048Y-81372857D01*
X101249524Y-81420476D01*
X101344762Y-81515714D01*
X101392381Y-81610952D01*
X101392381Y-81801429D01*
X100392381Y-81039524D02*
X100392381Y-80420476D01*
X100773333Y-80753810D01*
X100773333Y-80610952D01*
X100820952Y-80515714D01*
X100868571Y-80468095D01*
X100963810Y-80420476D01*
X101201905Y-80420476D01*
X101297143Y-80468095D01*
X101344762Y-80515714D01*
X101392381Y-80610952D01*
X101392381Y-80896667D01*
X101344762Y-80991905D01*
X101297143Y-81039524D01*
X94487619Y-81325238D02*
X94440000Y-81420476D01*
X94344762Y-81515714D01*
X94201905Y-81658571D01*
X94154286Y-81753810D01*
X94154286Y-81849048D01*
X94392381Y-81801429D02*
X94344762Y-81896667D01*
X94249524Y-81991905D01*
X94059048Y-82039524D01*
X93725714Y-82039524D01*
X93535238Y-81991905D01*
X93440000Y-81896667D01*
X93392381Y-81801429D01*
X93392381Y-81610952D01*
X93440000Y-81515714D01*
X93535238Y-81420476D01*
X93725714Y-81372857D01*
X94059048Y-81372857D01*
X94249524Y-81420476D01*
X94344762Y-81515714D01*
X94392381Y-81610952D01*
X94392381Y-81801429D01*
X93725714Y-80515714D02*
X94392381Y-80515714D01*
X93344762Y-80753810D02*
X94059048Y-80991905D01*
X94059048Y-80372857D01*
X108607619Y-94865238D02*
X108560000Y-94960476D01*
X108464762Y-95055714D01*
X108321905Y-95198571D01*
X108274286Y-95293810D01*
X108274286Y-95389048D01*
X108512381Y-95341429D02*
X108464762Y-95436667D01*
X108369524Y-95531905D01*
X108179048Y-95579524D01*
X107845714Y-95579524D01*
X107655238Y-95531905D01*
X107560000Y-95436667D01*
X107512381Y-95341429D01*
X107512381Y-95150952D01*
X107560000Y-95055714D01*
X107655238Y-94960476D01*
X107845714Y-94912857D01*
X108179048Y-94912857D01*
X108369524Y-94960476D01*
X108464762Y-95055714D01*
X108512381Y-95150952D01*
X108512381Y-95341429D01*
X107512381Y-94008095D02*
X107512381Y-94484286D01*
X107988571Y-94531905D01*
X107940952Y-94484286D01*
X107893333Y-94389048D01*
X107893333Y-94150952D01*
X107940952Y-94055714D01*
X107988571Y-94008095D01*
X108083810Y-93960476D01*
X108321905Y-93960476D01*
X108417143Y-94008095D01*
X108464762Y-94055714D01*
X108512381Y-94150952D01*
X108512381Y-94389048D01*
X108464762Y-94484286D01*
X108417143Y-94531905D01*
X99607619Y-94865238D02*
X99560000Y-94960476D01*
X99464762Y-95055714D01*
X99321905Y-95198571D01*
X99274286Y-95293810D01*
X99274286Y-95389048D01*
X99512381Y-95341429D02*
X99464762Y-95436667D01*
X99369524Y-95531905D01*
X99179048Y-95579524D01*
X98845714Y-95579524D01*
X98655238Y-95531905D01*
X98560000Y-95436667D01*
X98512381Y-95341429D01*
X98512381Y-95150952D01*
X98560000Y-95055714D01*
X98655238Y-94960476D01*
X98845714Y-94912857D01*
X99179048Y-94912857D01*
X99369524Y-94960476D01*
X99464762Y-95055714D01*
X99512381Y-95150952D01*
X99512381Y-95341429D01*
X98512381Y-94055714D02*
X98512381Y-94246191D01*
X98560000Y-94341429D01*
X98607619Y-94389048D01*
X98750476Y-94484286D01*
X98940952Y-94531905D01*
X99321905Y-94531905D01*
X99417143Y-94484286D01*
X99464762Y-94436667D01*
X99512381Y-94341429D01*
X99512381Y-94150952D01*
X99464762Y-94055714D01*
X99417143Y-94008095D01*
X99321905Y-93960476D01*
X99083810Y-93960476D01*
X98988571Y-94008095D01*
X98940952Y-94055714D01*
X98893333Y-94150952D01*
X98893333Y-94341429D01*
X98940952Y-94436667D01*
X98988571Y-94484286D01*
X99083810Y-94531905D01*
X188297619Y-92095238D02*
X188250000Y-92190476D01*
X188154762Y-92285714D01*
X188011905Y-92428571D01*
X187964286Y-92523810D01*
X187964286Y-92619048D01*
X188202381Y-92571429D02*
X188154762Y-92666667D01*
X188059524Y-92761905D01*
X187869048Y-92809524D01*
X187535714Y-92809524D01*
X187345238Y-92761905D01*
X187250000Y-92666667D01*
X187202381Y-92571429D01*
X187202381Y-92380952D01*
X187250000Y-92285714D01*
X187345238Y-92190476D01*
X187535714Y-92142857D01*
X187869048Y-92142857D01*
X188059524Y-92190476D01*
X188154762Y-92285714D01*
X188202381Y-92380952D01*
X188202381Y-92571429D01*
X187202381Y-91809524D02*
X187202381Y-91142857D01*
X188202381Y-91571429D01*
X111134762Y-93107619D02*
X111039524Y-93060000D01*
X110944286Y-92964762D01*
X110801429Y-92821905D01*
X110706190Y-92774286D01*
X110610952Y-92774286D01*
X110658571Y-93012381D02*
X110563333Y-92964762D01*
X110468095Y-92869524D01*
X110420476Y-92679048D01*
X110420476Y-92345714D01*
X110468095Y-92155238D01*
X110563333Y-92060000D01*
X110658571Y-92012381D01*
X110849048Y-92012381D01*
X110944286Y-92060000D01*
X111039524Y-92155238D01*
X111087143Y-92345714D01*
X111087143Y-92679048D01*
X111039524Y-92869524D01*
X110944286Y-92964762D01*
X110849048Y-93012381D01*
X110658571Y-93012381D01*
X111658571Y-92440952D02*
X111563333Y-92393333D01*
X111515714Y-92345714D01*
X111468095Y-92250476D01*
X111468095Y-92202857D01*
X111515714Y-92107619D01*
X111563333Y-92060000D01*
X111658571Y-92012381D01*
X111849048Y-92012381D01*
X111944286Y-92060000D01*
X111991905Y-92107619D01*
X112039524Y-92202857D01*
X112039524Y-92250476D01*
X111991905Y-92345714D01*
X111944286Y-92393333D01*
X111849048Y-92440952D01*
X111658571Y-92440952D01*
X111563333Y-92488571D01*
X111515714Y-92536190D01*
X111468095Y-92631429D01*
X111468095Y-92821905D01*
X111515714Y-92917143D01*
X111563333Y-92964762D01*
X111658571Y-93012381D01*
X111849048Y-93012381D01*
X111944286Y-92964762D01*
X111991905Y-92917143D01*
X112039524Y-92821905D01*
X112039524Y-92631429D01*
X111991905Y-92536190D01*
X111944286Y-92488571D01*
X111849048Y-92440952D01*
X121297619Y-79595238D02*
X121250000Y-79690476D01*
X121154762Y-79785714D01*
X121011905Y-79928571D01*
X120964286Y-80023810D01*
X120964286Y-80119048D01*
X121202381Y-80071429D02*
X121154762Y-80166667D01*
X121059524Y-80261905D01*
X120869048Y-80309524D01*
X120535714Y-80309524D01*
X120345238Y-80261905D01*
X120250000Y-80166667D01*
X120202381Y-80071429D01*
X120202381Y-79880952D01*
X120250000Y-79785714D01*
X120345238Y-79690476D01*
X120535714Y-79642857D01*
X120869048Y-79642857D01*
X121059524Y-79690476D01*
X121154762Y-79785714D01*
X121202381Y-79880952D01*
X121202381Y-80071429D01*
X121202381Y-79166667D02*
X121202381Y-78976191D01*
X121154762Y-78880952D01*
X121107143Y-78833333D01*
X120964286Y-78738095D01*
X120773810Y-78690476D01*
X120392857Y-78690476D01*
X120297619Y-78738095D01*
X120250000Y-78785714D01*
X120202381Y-78880952D01*
X120202381Y-79071429D01*
X120250000Y-79166667D01*
X120297619Y-79214286D01*
X120392857Y-79261905D01*
X120630952Y-79261905D01*
X120726190Y-79214286D01*
X120773810Y-79166667D01*
X120821429Y-79071429D01*
X120821429Y-78880952D01*
X120773810Y-78785714D01*
X120726190Y-78738095D01*
X120630952Y-78690476D01*
X124427619Y-83031428D02*
X124380000Y-83126666D01*
X124284762Y-83221904D01*
X124141905Y-83364761D01*
X124094286Y-83460000D01*
X124094286Y-83555238D01*
X124332381Y-83507619D02*
X124284762Y-83602857D01*
X124189524Y-83698095D01*
X123999048Y-83745714D01*
X123665714Y-83745714D01*
X123475238Y-83698095D01*
X123380000Y-83602857D01*
X123332381Y-83507619D01*
X123332381Y-83317142D01*
X123380000Y-83221904D01*
X123475238Y-83126666D01*
X123665714Y-83079047D01*
X123999048Y-83079047D01*
X124189524Y-83126666D01*
X124284762Y-83221904D01*
X124332381Y-83317142D01*
X124332381Y-83507619D01*
X124332381Y-82126666D02*
X124332381Y-82698095D01*
X124332381Y-82412381D02*
X123332381Y-82412381D01*
X123475238Y-82507619D01*
X123570476Y-82602857D01*
X123618095Y-82698095D01*
X123332381Y-81507619D02*
X123332381Y-81412380D01*
X123380000Y-81317142D01*
X123427619Y-81269523D01*
X123522857Y-81221904D01*
X123713333Y-81174285D01*
X123951429Y-81174285D01*
X124141905Y-81221904D01*
X124237143Y-81269523D01*
X124284762Y-81317142D01*
X124332381Y-81412380D01*
X124332381Y-81507619D01*
X124284762Y-81602857D01*
X124237143Y-81650476D01*
X124141905Y-81698095D01*
X123951429Y-81745714D01*
X123713333Y-81745714D01*
X123522857Y-81698095D01*
X123427619Y-81650476D01*
X123380000Y-81602857D01*
X123332381Y-81507619D01*
X164968572Y-77427619D02*
X164873334Y-77380000D01*
X164778096Y-77284762D01*
X164635239Y-77141905D01*
X164540000Y-77094286D01*
X164444762Y-77094286D01*
X164492381Y-77332381D02*
X164397143Y-77284762D01*
X164301905Y-77189524D01*
X164254286Y-76999048D01*
X164254286Y-76665714D01*
X164301905Y-76475238D01*
X164397143Y-76380000D01*
X164492381Y-76332381D01*
X164682858Y-76332381D01*
X164778096Y-76380000D01*
X164873334Y-76475238D01*
X164920953Y-76665714D01*
X164920953Y-76999048D01*
X164873334Y-77189524D01*
X164778096Y-77284762D01*
X164682858Y-77332381D01*
X164492381Y-77332381D01*
X165873334Y-77332381D02*
X165301905Y-77332381D01*
X165587619Y-77332381D02*
X165587619Y-76332381D01*
X165492381Y-76475238D01*
X165397143Y-76570476D01*
X165301905Y-76618095D01*
X166254286Y-76427619D02*
X166301905Y-76380000D01*
X166397143Y-76332381D01*
X166635239Y-76332381D01*
X166730477Y-76380000D01*
X166778096Y-76427619D01*
X166825715Y-76522857D01*
X166825715Y-76618095D01*
X166778096Y-76760952D01*
X166206667Y-77332381D01*
X166825715Y-77332381D01*
X137158572Y-75107619D02*
X137063334Y-75060000D01*
X136968096Y-74964762D01*
X136825239Y-74821905D01*
X136730000Y-74774286D01*
X136634762Y-74774286D01*
X136682381Y-75012381D02*
X136587143Y-74964762D01*
X136491905Y-74869524D01*
X136444286Y-74679048D01*
X136444286Y-74345714D01*
X136491905Y-74155238D01*
X136587143Y-74060000D01*
X136682381Y-74012381D01*
X136872858Y-74012381D01*
X136968096Y-74060000D01*
X137063334Y-74155238D01*
X137110953Y-74345714D01*
X137110953Y-74679048D01*
X137063334Y-74869524D01*
X136968096Y-74964762D01*
X136872858Y-75012381D01*
X136682381Y-75012381D01*
X138063334Y-75012381D02*
X137491905Y-75012381D01*
X137777619Y-75012381D02*
X137777619Y-74012381D01*
X137682381Y-74155238D01*
X137587143Y-74250476D01*
X137491905Y-74298095D01*
X138396667Y-74012381D02*
X139015715Y-74012381D01*
X138682381Y-74393333D01*
X138825239Y-74393333D01*
X138920477Y-74440952D01*
X138968096Y-74488571D01*
X139015715Y-74583810D01*
X139015715Y-74821905D01*
X138968096Y-74917143D01*
X138920477Y-74964762D01*
X138825239Y-75012381D01*
X138539524Y-75012381D01*
X138444286Y-74964762D01*
X138396667Y-74917143D01*
X161198572Y-66737619D02*
X161103334Y-66690000D01*
X161008096Y-66594762D01*
X160865239Y-66451905D01*
X160770000Y-66404286D01*
X160674762Y-66404286D01*
X160722381Y-66642381D02*
X160627143Y-66594762D01*
X160531905Y-66499524D01*
X160484286Y-66309048D01*
X160484286Y-65975714D01*
X160531905Y-65785238D01*
X160627143Y-65690000D01*
X160722381Y-65642381D01*
X160912858Y-65642381D01*
X161008096Y-65690000D01*
X161103334Y-65785238D01*
X161150953Y-65975714D01*
X161150953Y-66309048D01*
X161103334Y-66499524D01*
X161008096Y-66594762D01*
X160912858Y-66642381D01*
X160722381Y-66642381D01*
X162103334Y-66642381D02*
X161531905Y-66642381D01*
X161817619Y-66642381D02*
X161817619Y-65642381D01*
X161722381Y-65785238D01*
X161627143Y-65880476D01*
X161531905Y-65928095D01*
X162960477Y-65975714D02*
X162960477Y-66642381D01*
X162722381Y-65594762D02*
X162484286Y-66309048D01*
X163103334Y-66309048D01*
X138968572Y-44927619D02*
X138873334Y-44880000D01*
X138778096Y-44784762D01*
X138635239Y-44641905D01*
X138540000Y-44594286D01*
X138444762Y-44594286D01*
X138492381Y-44832381D02*
X138397143Y-44784762D01*
X138301905Y-44689524D01*
X138254286Y-44499048D01*
X138254286Y-44165714D01*
X138301905Y-43975238D01*
X138397143Y-43880000D01*
X138492381Y-43832381D01*
X138682858Y-43832381D01*
X138778096Y-43880000D01*
X138873334Y-43975238D01*
X138920953Y-44165714D01*
X138920953Y-44499048D01*
X138873334Y-44689524D01*
X138778096Y-44784762D01*
X138682858Y-44832381D01*
X138492381Y-44832381D01*
X139873334Y-44832381D02*
X139301905Y-44832381D01*
X139587619Y-44832381D02*
X139587619Y-43832381D01*
X139492381Y-43975238D01*
X139397143Y-44070476D01*
X139301905Y-44118095D01*
X140778096Y-43832381D02*
X140301905Y-43832381D01*
X140254286Y-44308571D01*
X140301905Y-44260952D01*
X140397143Y-44213333D01*
X140635239Y-44213333D01*
X140730477Y-44260952D01*
X140778096Y-44308571D01*
X140825715Y-44403810D01*
X140825715Y-44641905D01*
X140778096Y-44737143D01*
X140730477Y-44784762D01*
X140635239Y-44832381D01*
X140397143Y-44832381D01*
X140301905Y-44784762D01*
X140254286Y-44737143D01*
X127083334Y-95952381D02*
X126750000Y-95476190D01*
X126511905Y-95952381D02*
X126511905Y-94952381D01*
X126892858Y-94952381D01*
X126988096Y-95000000D01*
X127035715Y-95047619D01*
X127083334Y-95142857D01*
X127083334Y-95285714D01*
X127035715Y-95380952D01*
X126988096Y-95428571D01*
X126892858Y-95476190D01*
X126511905Y-95476190D01*
X128035715Y-95952381D02*
X127464286Y-95952381D01*
X127750000Y-95952381D02*
X127750000Y-94952381D01*
X127654762Y-95095238D01*
X127559524Y-95190476D01*
X127464286Y-95238095D01*
X137833334Y-93702381D02*
X137500000Y-93226190D01*
X137261905Y-93702381D02*
X137261905Y-92702381D01*
X137642858Y-92702381D01*
X137738096Y-92750000D01*
X137785715Y-92797619D01*
X137833334Y-92892857D01*
X137833334Y-93035714D01*
X137785715Y-93130952D01*
X137738096Y-93178571D01*
X137642858Y-93226190D01*
X137261905Y-93226190D01*
X138214286Y-92797619D02*
X138261905Y-92750000D01*
X138357143Y-92702381D01*
X138595239Y-92702381D01*
X138690477Y-92750000D01*
X138738096Y-92797619D01*
X138785715Y-92892857D01*
X138785715Y-92988095D01*
X138738096Y-93130952D01*
X138166667Y-93702381D01*
X138785715Y-93702381D01*
X104952381Y-72666666D02*
X104476190Y-73000000D01*
X104952381Y-73238095D02*
X103952381Y-73238095D01*
X103952381Y-72857142D01*
X104000000Y-72761904D01*
X104047619Y-72714285D01*
X104142857Y-72666666D01*
X104285714Y-72666666D01*
X104380952Y-72714285D01*
X104428571Y-72761904D01*
X104476190Y-72857142D01*
X104476190Y-73238095D01*
X103952381Y-72333333D02*
X103952381Y-71714285D01*
X104333333Y-72047619D01*
X104333333Y-71904761D01*
X104380952Y-71809523D01*
X104428571Y-71761904D01*
X104523810Y-71714285D01*
X104761905Y-71714285D01*
X104857143Y-71761904D01*
X104904762Y-71809523D01*
X104952381Y-71904761D01*
X104952381Y-72190476D01*
X104904762Y-72285714D01*
X104857143Y-72333333D01*
X99452381Y-72666666D02*
X98976190Y-73000000D01*
X99452381Y-73238095D02*
X98452381Y-73238095D01*
X98452381Y-72857142D01*
X98500000Y-72761904D01*
X98547619Y-72714285D01*
X98642857Y-72666666D01*
X98785714Y-72666666D01*
X98880952Y-72714285D01*
X98928571Y-72761904D01*
X98976190Y-72857142D01*
X98976190Y-73238095D01*
X98785714Y-71809523D02*
X99452381Y-71809523D01*
X98404762Y-72047619D02*
X99119048Y-72285714D01*
X99119048Y-71666666D01*
X99333334Y-89952381D02*
X99000000Y-89476190D01*
X98761905Y-89952381D02*
X98761905Y-88952381D01*
X99142858Y-88952381D01*
X99238096Y-89000000D01*
X99285715Y-89047619D01*
X99333334Y-89142857D01*
X99333334Y-89285714D01*
X99285715Y-89380952D01*
X99238096Y-89428571D01*
X99142858Y-89476190D01*
X98761905Y-89476190D01*
X100238096Y-88952381D02*
X99761905Y-88952381D01*
X99714286Y-89428571D01*
X99761905Y-89380952D01*
X99857143Y-89333333D01*
X100095239Y-89333333D01*
X100190477Y-89380952D01*
X100238096Y-89428571D01*
X100285715Y-89523810D01*
X100285715Y-89761905D01*
X100238096Y-89857143D01*
X100190477Y-89904762D01*
X100095239Y-89952381D01*
X99857143Y-89952381D01*
X99761905Y-89904762D01*
X99714286Y-89857143D01*
X130833334Y-99452381D02*
X130500000Y-98976190D01*
X130261905Y-99452381D02*
X130261905Y-98452381D01*
X130642858Y-98452381D01*
X130738096Y-98500000D01*
X130785715Y-98547619D01*
X130833334Y-98642857D01*
X130833334Y-98785714D01*
X130785715Y-98880952D01*
X130738096Y-98928571D01*
X130642858Y-98976190D01*
X130261905Y-98976190D01*
X131690477Y-98452381D02*
X131500000Y-98452381D01*
X131404762Y-98500000D01*
X131357143Y-98547619D01*
X131261905Y-98690476D01*
X131214286Y-98880952D01*
X131214286Y-99261905D01*
X131261905Y-99357143D01*
X131309524Y-99404762D01*
X131404762Y-99452381D01*
X131595239Y-99452381D01*
X131690477Y-99404762D01*
X131738096Y-99357143D01*
X131785715Y-99261905D01*
X131785715Y-99023810D01*
X131738096Y-98928571D01*
X131690477Y-98880952D01*
X131595239Y-98833333D01*
X131404762Y-98833333D01*
X131309524Y-98880952D01*
X131261905Y-98928571D01*
X131214286Y-99023810D01*
X130833334Y-102452381D02*
X130500000Y-101976190D01*
X130261905Y-102452381D02*
X130261905Y-101452381D01*
X130642858Y-101452381D01*
X130738096Y-101500000D01*
X130785715Y-101547619D01*
X130833334Y-101642857D01*
X130833334Y-101785714D01*
X130785715Y-101880952D01*
X130738096Y-101928571D01*
X130642858Y-101976190D01*
X130261905Y-101976190D01*
X131166667Y-101452381D02*
X131833334Y-101452381D01*
X131404762Y-102452381D01*
X150333334Y-97452381D02*
X150000000Y-96976190D01*
X149761905Y-97452381D02*
X149761905Y-96452381D01*
X150142858Y-96452381D01*
X150238096Y-96500000D01*
X150285715Y-96547619D01*
X150333334Y-96642857D01*
X150333334Y-96785714D01*
X150285715Y-96880952D01*
X150238096Y-96928571D01*
X150142858Y-96976190D01*
X149761905Y-96976190D01*
X150904762Y-96880952D02*
X150809524Y-96833333D01*
X150761905Y-96785714D01*
X150714286Y-96690476D01*
X150714286Y-96642857D01*
X150761905Y-96547619D01*
X150809524Y-96500000D01*
X150904762Y-96452381D01*
X151095239Y-96452381D01*
X151190477Y-96500000D01*
X151238096Y-96547619D01*
X151285715Y-96642857D01*
X151285715Y-96690476D01*
X151238096Y-96785714D01*
X151190477Y-96833333D01*
X151095239Y-96880952D01*
X150904762Y-96880952D01*
X150809524Y-96928571D01*
X150761905Y-96976190D01*
X150714286Y-97071429D01*
X150714286Y-97261905D01*
X150761905Y-97357143D01*
X150809524Y-97404762D01*
X150904762Y-97452381D01*
X151095239Y-97452381D01*
X151190477Y-97404762D01*
X151238096Y-97357143D01*
X151285715Y-97261905D01*
X151285715Y-97071429D01*
X151238096Y-96976190D01*
X151190477Y-96928571D01*
X151095239Y-96880952D01*
X150333334Y-103952381D02*
X150000000Y-103476190D01*
X149761905Y-103952381D02*
X149761905Y-102952381D01*
X150142858Y-102952381D01*
X150238096Y-103000000D01*
X150285715Y-103047619D01*
X150333334Y-103142857D01*
X150333334Y-103285714D01*
X150285715Y-103380952D01*
X150238096Y-103428571D01*
X150142858Y-103476190D01*
X149761905Y-103476190D01*
X150809524Y-103952381D02*
X151000000Y-103952381D01*
X151095239Y-103904762D01*
X151142858Y-103857143D01*
X151238096Y-103714286D01*
X151285715Y-103523810D01*
X151285715Y-103142857D01*
X151238096Y-103047619D01*
X151190477Y-103000000D01*
X151095239Y-102952381D01*
X150904762Y-102952381D01*
X150809524Y-103000000D01*
X150761905Y-103047619D01*
X150714286Y-103142857D01*
X150714286Y-103380952D01*
X150761905Y-103476190D01*
X150809524Y-103523810D01*
X150904762Y-103571429D01*
X151095239Y-103571429D01*
X151190477Y-103523810D01*
X151238096Y-103476190D01*
X151285715Y-103380952D01*
X145612381Y-100602857D02*
X145136190Y-100936191D01*
X145612381Y-101174286D02*
X144612381Y-101174286D01*
X144612381Y-100793333D01*
X144660000Y-100698095D01*
X144707619Y-100650476D01*
X144802857Y-100602857D01*
X144945714Y-100602857D01*
X145040952Y-100650476D01*
X145088571Y-100698095D01*
X145136190Y-100793333D01*
X145136190Y-101174286D01*
X145612381Y-99650476D02*
X145612381Y-100221905D01*
X145612381Y-99936191D02*
X144612381Y-99936191D01*
X144755238Y-100031429D01*
X144850476Y-100126667D01*
X144898095Y-100221905D01*
X144612381Y-99031429D02*
X144612381Y-98936190D01*
X144660000Y-98840952D01*
X144707619Y-98793333D01*
X144802857Y-98745714D01*
X144993333Y-98698095D01*
X145231429Y-98698095D01*
X145421905Y-98745714D01*
X145517143Y-98793333D01*
X145564762Y-98840952D01*
X145612381Y-98936190D01*
X145612381Y-99031429D01*
X145564762Y-99126667D01*
X145517143Y-99174286D01*
X145421905Y-99221905D01*
X145231429Y-99269524D01*
X144993333Y-99269524D01*
X144802857Y-99221905D01*
X144707619Y-99174286D01*
X144660000Y-99126667D01*
X144612381Y-99031429D01*
X178952381Y-97642857D02*
X178476190Y-97976191D01*
X178952381Y-98214286D02*
X177952381Y-98214286D01*
X177952381Y-97833333D01*
X178000000Y-97738095D01*
X178047619Y-97690476D01*
X178142857Y-97642857D01*
X178285714Y-97642857D01*
X178380952Y-97690476D01*
X178428571Y-97738095D01*
X178476190Y-97833333D01*
X178476190Y-98214286D01*
X178952381Y-96690476D02*
X178952381Y-97261905D01*
X178952381Y-96976191D02*
X177952381Y-96976191D01*
X178095238Y-97071429D01*
X178190476Y-97166667D01*
X178238095Y-97261905D01*
X178952381Y-95738095D02*
X178952381Y-96309524D01*
X178952381Y-96023810D02*
X177952381Y-96023810D01*
X178095238Y-96119048D01*
X178190476Y-96214286D01*
X178238095Y-96309524D01*
X177952381Y-84142857D02*
X177476190Y-84476191D01*
X177952381Y-84714286D02*
X176952381Y-84714286D01*
X176952381Y-84333333D01*
X177000000Y-84238095D01*
X177047619Y-84190476D01*
X177142857Y-84142857D01*
X177285714Y-84142857D01*
X177380952Y-84190476D01*
X177428571Y-84238095D01*
X177476190Y-84333333D01*
X177476190Y-84714286D01*
X177952381Y-83190476D02*
X177952381Y-83761905D01*
X177952381Y-83476191D02*
X176952381Y-83476191D01*
X177095238Y-83571429D01*
X177190476Y-83666667D01*
X177238095Y-83761905D01*
X177047619Y-82809524D02*
X177000000Y-82761905D01*
X176952381Y-82666667D01*
X176952381Y-82428571D01*
X177000000Y-82333333D01*
X177047619Y-82285714D01*
X177142857Y-82238095D01*
X177238095Y-82238095D01*
X177380952Y-82285714D01*
X177952381Y-82857143D01*
X177952381Y-82238095D01*
X83357143Y-85452381D02*
X83023809Y-84976190D01*
X82785714Y-85452381D02*
X82785714Y-84452381D01*
X83166667Y-84452381D01*
X83261905Y-84500000D01*
X83309524Y-84547619D01*
X83357143Y-84642857D01*
X83357143Y-84785714D01*
X83309524Y-84880952D01*
X83261905Y-84928571D01*
X83166667Y-84976190D01*
X82785714Y-84976190D01*
X84309524Y-85452381D02*
X83738095Y-85452381D01*
X84023809Y-85452381D02*
X84023809Y-84452381D01*
X83928571Y-84595238D01*
X83833333Y-84690476D01*
X83738095Y-84738095D01*
X84642857Y-84452381D02*
X85261905Y-84452381D01*
X84928571Y-84833333D01*
X85071429Y-84833333D01*
X85166667Y-84880952D01*
X85214286Y-84928571D01*
X85261905Y-85023810D01*
X85261905Y-85261905D01*
X85214286Y-85357143D01*
X85166667Y-85404762D01*
X85071429Y-85452381D01*
X84785714Y-85452381D01*
X84690476Y-85404762D01*
X84642857Y-85357143D01*
X82857143Y-97952381D02*
X82523809Y-97476190D01*
X82285714Y-97952381D02*
X82285714Y-96952381D01*
X82666667Y-96952381D01*
X82761905Y-97000000D01*
X82809524Y-97047619D01*
X82857143Y-97142857D01*
X82857143Y-97285714D01*
X82809524Y-97380952D01*
X82761905Y-97428571D01*
X82666667Y-97476190D01*
X82285714Y-97476190D01*
X83809524Y-97952381D02*
X83238095Y-97952381D01*
X83523809Y-97952381D02*
X83523809Y-96952381D01*
X83428571Y-97095238D01*
X83333333Y-97190476D01*
X83238095Y-97238095D01*
X84666667Y-97285714D02*
X84666667Y-97952381D01*
X84428571Y-96904762D02*
X84190476Y-97619048D01*
X84809524Y-97619048D01*
X72357143Y-94952381D02*
X72023809Y-94476190D01*
X71785714Y-94952381D02*
X71785714Y-93952381D01*
X72166667Y-93952381D01*
X72261905Y-94000000D01*
X72309524Y-94047619D01*
X72357143Y-94142857D01*
X72357143Y-94285714D01*
X72309524Y-94380952D01*
X72261905Y-94428571D01*
X72166667Y-94476190D01*
X71785714Y-94476190D01*
X73309524Y-94952381D02*
X72738095Y-94952381D01*
X73023809Y-94952381D02*
X73023809Y-93952381D01*
X72928571Y-94095238D01*
X72833333Y-94190476D01*
X72738095Y-94238095D01*
X74214286Y-93952381D02*
X73738095Y-93952381D01*
X73690476Y-94428571D01*
X73738095Y-94380952D01*
X73833333Y-94333333D01*
X74071429Y-94333333D01*
X74166667Y-94380952D01*
X74214286Y-94428571D01*
X74261905Y-94523810D01*
X74261905Y-94761905D01*
X74214286Y-94857143D01*
X74166667Y-94904762D01*
X74071429Y-94952381D01*
X73833333Y-94952381D01*
X73738095Y-94904762D01*
X73690476Y-94857143D01*
X191857143Y-87452381D02*
X191523809Y-86976190D01*
X191285714Y-87452381D02*
X191285714Y-86452381D01*
X191666667Y-86452381D01*
X191761905Y-86500000D01*
X191809524Y-86547619D01*
X191857143Y-86642857D01*
X191857143Y-86785714D01*
X191809524Y-86880952D01*
X191761905Y-86928571D01*
X191666667Y-86976190D01*
X191285714Y-86976190D01*
X192809524Y-87452381D02*
X192238095Y-87452381D01*
X192523809Y-87452381D02*
X192523809Y-86452381D01*
X192428571Y-86595238D01*
X192333333Y-86690476D01*
X192238095Y-86738095D01*
X193666667Y-86452381D02*
X193476190Y-86452381D01*
X193380952Y-86500000D01*
X193333333Y-86547619D01*
X193238095Y-86690476D01*
X193190476Y-86880952D01*
X193190476Y-87261905D01*
X193238095Y-87357143D01*
X193285714Y-87404762D01*
X193380952Y-87452381D01*
X193571429Y-87452381D01*
X193666667Y-87404762D01*
X193714286Y-87357143D01*
X193761905Y-87261905D01*
X193761905Y-87023810D01*
X193714286Y-86928571D01*
X193666667Y-86880952D01*
X193571429Y-86833333D01*
X193380952Y-86833333D01*
X193285714Y-86880952D01*
X193238095Y-86928571D01*
X193190476Y-87023810D01*
X109952381Y-80142857D02*
X109476190Y-80476191D01*
X109952381Y-80714286D02*
X108952381Y-80714286D01*
X108952381Y-80333333D01*
X109000000Y-80238095D01*
X109047619Y-80190476D01*
X109142857Y-80142857D01*
X109285714Y-80142857D01*
X109380952Y-80190476D01*
X109428571Y-80238095D01*
X109476190Y-80333333D01*
X109476190Y-80714286D01*
X109952381Y-79190476D02*
X109952381Y-79761905D01*
X109952381Y-79476191D02*
X108952381Y-79476191D01*
X109095238Y-79571429D01*
X109190476Y-79666667D01*
X109238095Y-79761905D01*
X108952381Y-78857143D02*
X108952381Y-78190476D01*
X109952381Y-78619048D01*
X118857143Y-74452381D02*
X118523809Y-73976190D01*
X118285714Y-74452381D02*
X118285714Y-73452381D01*
X118666667Y-73452381D01*
X118761905Y-73500000D01*
X118809524Y-73547619D01*
X118857143Y-73642857D01*
X118857143Y-73785714D01*
X118809524Y-73880952D01*
X118761905Y-73928571D01*
X118666667Y-73976190D01*
X118285714Y-73976190D01*
X119809524Y-74452381D02*
X119238095Y-74452381D01*
X119523809Y-74452381D02*
X119523809Y-73452381D01*
X119428571Y-73595238D01*
X119333333Y-73690476D01*
X119238095Y-73738095D01*
X120380952Y-73880952D02*
X120285714Y-73833333D01*
X120238095Y-73785714D01*
X120190476Y-73690476D01*
X120190476Y-73642857D01*
X120238095Y-73547619D01*
X120285714Y-73500000D01*
X120380952Y-73452381D01*
X120571429Y-73452381D01*
X120666667Y-73500000D01*
X120714286Y-73547619D01*
X120761905Y-73642857D01*
X120761905Y-73690476D01*
X120714286Y-73785714D01*
X120666667Y-73833333D01*
X120571429Y-73880952D01*
X120380952Y-73880952D01*
X120285714Y-73928571D01*
X120238095Y-73976190D01*
X120190476Y-74071429D01*
X120190476Y-74261905D01*
X120238095Y-74357143D01*
X120285714Y-74404762D01*
X120380952Y-74452381D01*
X120571429Y-74452381D01*
X120666667Y-74404762D01*
X120714286Y-74357143D01*
X120761905Y-74261905D01*
X120761905Y-74071429D01*
X120714286Y-73976190D01*
X120666667Y-73928571D01*
X120571429Y-73880952D01*
X112952381Y-77642857D02*
X112476190Y-77976191D01*
X112952381Y-78214286D02*
X111952381Y-78214286D01*
X111952381Y-77833333D01*
X112000000Y-77738095D01*
X112047619Y-77690476D01*
X112142857Y-77642857D01*
X112285714Y-77642857D01*
X112380952Y-77690476D01*
X112428571Y-77738095D01*
X112476190Y-77833333D01*
X112476190Y-78214286D01*
X112952381Y-76690476D02*
X112952381Y-77261905D01*
X112952381Y-76976191D02*
X111952381Y-76976191D01*
X112095238Y-77071429D01*
X112190476Y-77166667D01*
X112238095Y-77261905D01*
X112952381Y-76214286D02*
X112952381Y-76023810D01*
X112904762Y-75928571D01*
X112857143Y-75880952D01*
X112714286Y-75785714D01*
X112523810Y-75738095D01*
X112142857Y-75738095D01*
X112047619Y-75785714D01*
X112000000Y-75833333D01*
X111952381Y-75928571D01*
X111952381Y-76119048D01*
X112000000Y-76214286D01*
X112047619Y-76261905D01*
X112142857Y-76309524D01*
X112380952Y-76309524D01*
X112476190Y-76261905D01*
X112523810Y-76214286D01*
X112571429Y-76119048D01*
X112571429Y-75928571D01*
X112523810Y-75833333D01*
X112476190Y-75785714D01*
X112380952Y-75738095D01*
X115607143Y-84952381D02*
X115273809Y-84476190D01*
X115035714Y-84952381D02*
X115035714Y-83952381D01*
X115416667Y-83952381D01*
X115511905Y-84000000D01*
X115559524Y-84047619D01*
X115607143Y-84142857D01*
X115607143Y-84285714D01*
X115559524Y-84380952D01*
X115511905Y-84428571D01*
X115416667Y-84476190D01*
X115035714Y-84476190D01*
X115988095Y-84047619D02*
X116035714Y-84000000D01*
X116130952Y-83952381D01*
X116369048Y-83952381D01*
X116464286Y-84000000D01*
X116511905Y-84047619D01*
X116559524Y-84142857D01*
X116559524Y-84238095D01*
X116511905Y-84380952D01*
X115940476Y-84952381D01*
X116559524Y-84952381D01*
X117178571Y-83952381D02*
X117273810Y-83952381D01*
X117369048Y-84000000D01*
X117416667Y-84047619D01*
X117464286Y-84142857D01*
X117511905Y-84333333D01*
X117511905Y-84571429D01*
X117464286Y-84761905D01*
X117416667Y-84857143D01*
X117369048Y-84904762D01*
X117273810Y-84952381D01*
X117178571Y-84952381D01*
X117083333Y-84904762D01*
X117035714Y-84857143D01*
X116988095Y-84761905D01*
X116940476Y-84571429D01*
X116940476Y-84333333D01*
X116988095Y-84142857D01*
X117035714Y-84047619D01*
X117083333Y-84000000D01*
X117178571Y-83952381D01*
X140952381Y-79892857D02*
X140476190Y-80226191D01*
X140952381Y-80464286D02*
X139952381Y-80464286D01*
X139952381Y-80083333D01*
X140000000Y-79988095D01*
X140047619Y-79940476D01*
X140142857Y-79892857D01*
X140285714Y-79892857D01*
X140380952Y-79940476D01*
X140428571Y-79988095D01*
X140476190Y-80083333D01*
X140476190Y-80464286D01*
X140047619Y-79511905D02*
X140000000Y-79464286D01*
X139952381Y-79369048D01*
X139952381Y-79130952D01*
X140000000Y-79035714D01*
X140047619Y-78988095D01*
X140142857Y-78940476D01*
X140238095Y-78940476D01*
X140380952Y-78988095D01*
X140952381Y-79559524D01*
X140952381Y-78940476D01*
X140952381Y-77988095D02*
X140952381Y-78559524D01*
X140952381Y-78273810D02*
X139952381Y-78273810D01*
X140095238Y-78369048D01*
X140190476Y-78464286D01*
X140238095Y-78559524D01*
X133202381Y-82642857D02*
X132726190Y-82976191D01*
X133202381Y-83214286D02*
X132202381Y-83214286D01*
X132202381Y-82833333D01*
X132250000Y-82738095D01*
X132297619Y-82690476D01*
X132392857Y-82642857D01*
X132535714Y-82642857D01*
X132630952Y-82690476D01*
X132678571Y-82738095D01*
X132726190Y-82833333D01*
X132726190Y-83214286D01*
X132297619Y-82261905D02*
X132250000Y-82214286D01*
X132202381Y-82119048D01*
X132202381Y-81880952D01*
X132250000Y-81785714D01*
X132297619Y-81738095D01*
X132392857Y-81690476D01*
X132488095Y-81690476D01*
X132630952Y-81738095D01*
X133202381Y-82309524D01*
X133202381Y-81690476D01*
X132297619Y-81309524D02*
X132250000Y-81261905D01*
X132202381Y-81166667D01*
X132202381Y-80928571D01*
X132250000Y-80833333D01*
X132297619Y-80785714D01*
X132392857Y-80738095D01*
X132488095Y-80738095D01*
X132630952Y-80785714D01*
X133202381Y-81357143D01*
X133202381Y-80738095D01*
X147607143Y-89202381D02*
X147273809Y-88726190D01*
X147035714Y-89202381D02*
X147035714Y-88202381D01*
X147416667Y-88202381D01*
X147511905Y-88250000D01*
X147559524Y-88297619D01*
X147607143Y-88392857D01*
X147607143Y-88535714D01*
X147559524Y-88630952D01*
X147511905Y-88678571D01*
X147416667Y-88726190D01*
X147035714Y-88726190D01*
X147988095Y-88297619D02*
X148035714Y-88250000D01*
X148130952Y-88202381D01*
X148369048Y-88202381D01*
X148464286Y-88250000D01*
X148511905Y-88297619D01*
X148559524Y-88392857D01*
X148559524Y-88488095D01*
X148511905Y-88630952D01*
X147940476Y-89202381D01*
X148559524Y-89202381D01*
X148892857Y-88202381D02*
X149511905Y-88202381D01*
X149178571Y-88583333D01*
X149321429Y-88583333D01*
X149416667Y-88630952D01*
X149464286Y-88678571D01*
X149511905Y-88773810D01*
X149511905Y-89011905D01*
X149464286Y-89107143D01*
X149416667Y-89154762D01*
X149321429Y-89202381D01*
X149035714Y-89202381D01*
X148940476Y-89154762D01*
X148892857Y-89107143D01*
X174202381Y-73142857D02*
X173726190Y-73476191D01*
X174202381Y-73714286D02*
X173202381Y-73714286D01*
X173202381Y-73333333D01*
X173250000Y-73238095D01*
X173297619Y-73190476D01*
X173392857Y-73142857D01*
X173535714Y-73142857D01*
X173630952Y-73190476D01*
X173678571Y-73238095D01*
X173726190Y-73333333D01*
X173726190Y-73714286D01*
X173297619Y-72761905D02*
X173250000Y-72714286D01*
X173202381Y-72619048D01*
X173202381Y-72380952D01*
X173250000Y-72285714D01*
X173297619Y-72238095D01*
X173392857Y-72190476D01*
X173488095Y-72190476D01*
X173630952Y-72238095D01*
X174202381Y-72809524D01*
X174202381Y-72190476D01*
X173535714Y-71333333D02*
X174202381Y-71333333D01*
X173154762Y-71571429D02*
X173869048Y-71809524D01*
X173869048Y-71190476D01*
X129357143Y-74452381D02*
X129023809Y-73976190D01*
X128785714Y-74452381D02*
X128785714Y-73452381D01*
X129166667Y-73452381D01*
X129261905Y-73500000D01*
X129309524Y-73547619D01*
X129357143Y-73642857D01*
X129357143Y-73785714D01*
X129309524Y-73880952D01*
X129261905Y-73928571D01*
X129166667Y-73976190D01*
X128785714Y-73976190D01*
X129738095Y-73547619D02*
X129785714Y-73500000D01*
X129880952Y-73452381D01*
X130119048Y-73452381D01*
X130214286Y-73500000D01*
X130261905Y-73547619D01*
X130309524Y-73642857D01*
X130309524Y-73738095D01*
X130261905Y-73880952D01*
X129690476Y-74452381D01*
X130309524Y-74452381D01*
X131166667Y-73452381D02*
X130976190Y-73452381D01*
X130880952Y-73500000D01*
X130833333Y-73547619D01*
X130738095Y-73690476D01*
X130690476Y-73880952D01*
X130690476Y-74261905D01*
X130738095Y-74357143D01*
X130785714Y-74404762D01*
X130880952Y-74452381D01*
X131071429Y-74452381D01*
X131166667Y-74404762D01*
X131214286Y-74357143D01*
X131261905Y-74261905D01*
X131261905Y-74023810D01*
X131214286Y-73928571D01*
X131166667Y-73880952D01*
X131071429Y-73833333D01*
X130880952Y-73833333D01*
X130785714Y-73880952D01*
X130738095Y-73928571D01*
X130690476Y-74023810D01*
X185357143Y-73452381D02*
X185023809Y-72976190D01*
X184785714Y-73452381D02*
X184785714Y-72452381D01*
X185166667Y-72452381D01*
X185261905Y-72500000D01*
X185309524Y-72547619D01*
X185357143Y-72642857D01*
X185357143Y-72785714D01*
X185309524Y-72880952D01*
X185261905Y-72928571D01*
X185166667Y-72976190D01*
X184785714Y-72976190D01*
X185738095Y-72547619D02*
X185785714Y-72500000D01*
X185880952Y-72452381D01*
X186119048Y-72452381D01*
X186214286Y-72500000D01*
X186261905Y-72547619D01*
X186309524Y-72642857D01*
X186309524Y-72738095D01*
X186261905Y-72880952D01*
X185690476Y-73452381D01*
X186309524Y-73452381D01*
X186880952Y-72880952D02*
X186785714Y-72833333D01*
X186738095Y-72785714D01*
X186690476Y-72690476D01*
X186690476Y-72642857D01*
X186738095Y-72547619D01*
X186785714Y-72500000D01*
X186880952Y-72452381D01*
X187071429Y-72452381D01*
X187166667Y-72500000D01*
X187214286Y-72547619D01*
X187261905Y-72642857D01*
X187261905Y-72690476D01*
X187214286Y-72785714D01*
X187166667Y-72833333D01*
X187071429Y-72880952D01*
X186880952Y-72880952D01*
X186785714Y-72928571D01*
X186738095Y-72976190D01*
X186690476Y-73071429D01*
X186690476Y-73261905D01*
X186738095Y-73357143D01*
X186785714Y-73404762D01*
X186880952Y-73452381D01*
X187071429Y-73452381D01*
X187166667Y-73404762D01*
X187214286Y-73357143D01*
X187261905Y-73261905D01*
X187261905Y-73071429D01*
X187214286Y-72976190D01*
X187166667Y-72928571D01*
X187071429Y-72880952D01*
X133702381Y-65642857D02*
X133226190Y-65976191D01*
X133702381Y-66214286D02*
X132702381Y-66214286D01*
X132702381Y-65833333D01*
X132750000Y-65738095D01*
X132797619Y-65690476D01*
X132892857Y-65642857D01*
X133035714Y-65642857D01*
X133130952Y-65690476D01*
X133178571Y-65738095D01*
X133226190Y-65833333D01*
X133226190Y-66214286D01*
X132797619Y-65261905D02*
X132750000Y-65214286D01*
X132702381Y-65119048D01*
X132702381Y-64880952D01*
X132750000Y-64785714D01*
X132797619Y-64738095D01*
X132892857Y-64690476D01*
X132988095Y-64690476D01*
X133130952Y-64738095D01*
X133702381Y-65309524D01*
X133702381Y-64690476D01*
X133702381Y-64214286D02*
X133702381Y-64023810D01*
X133654762Y-63928571D01*
X133607143Y-63880952D01*
X133464286Y-63785714D01*
X133273810Y-63738095D01*
X132892857Y-63738095D01*
X132797619Y-63785714D01*
X132750000Y-63833333D01*
X132702381Y-63928571D01*
X132702381Y-64119048D01*
X132750000Y-64214286D01*
X132797619Y-64261905D01*
X132892857Y-64309524D01*
X133130952Y-64309524D01*
X133226190Y-64261905D01*
X133273810Y-64214286D01*
X133321429Y-64119048D01*
X133321429Y-63928571D01*
X133273810Y-63833333D01*
X133226190Y-63785714D01*
X133130952Y-63738095D01*
X187202381Y-65892857D02*
X186726190Y-66226191D01*
X187202381Y-66464286D02*
X186202381Y-66464286D01*
X186202381Y-66083333D01*
X186250000Y-65988095D01*
X186297619Y-65940476D01*
X186392857Y-65892857D01*
X186535714Y-65892857D01*
X186630952Y-65940476D01*
X186678571Y-65988095D01*
X186726190Y-66083333D01*
X186726190Y-66464286D01*
X186202381Y-65559524D02*
X186202381Y-64940476D01*
X186583333Y-65273810D01*
X186583333Y-65130952D01*
X186630952Y-65035714D01*
X186678571Y-64988095D01*
X186773810Y-64940476D01*
X187011905Y-64940476D01*
X187107143Y-64988095D01*
X187154762Y-65035714D01*
X187202381Y-65130952D01*
X187202381Y-65416667D01*
X187154762Y-65511905D01*
X187107143Y-65559524D01*
X186202381Y-64321429D02*
X186202381Y-64226190D01*
X186250000Y-64130952D01*
X186297619Y-64083333D01*
X186392857Y-64035714D01*
X186583333Y-63988095D01*
X186821429Y-63988095D01*
X187011905Y-64035714D01*
X187107143Y-64083333D01*
X187154762Y-64130952D01*
X187202381Y-64226190D01*
X187202381Y-64321429D01*
X187154762Y-64416667D01*
X187107143Y-64464286D01*
X187011905Y-64511905D01*
X186821429Y-64559524D01*
X186583333Y-64559524D01*
X186392857Y-64511905D01*
X186297619Y-64464286D01*
X186250000Y-64416667D01*
X186202381Y-64321429D01*
X33607143Y-65952381D02*
X33273809Y-65476190D01*
X33035714Y-65952381D02*
X33035714Y-64952381D01*
X33416667Y-64952381D01*
X33511905Y-65000000D01*
X33559524Y-65047619D01*
X33607143Y-65142857D01*
X33607143Y-65285714D01*
X33559524Y-65380952D01*
X33511905Y-65428571D01*
X33416667Y-65476190D01*
X33035714Y-65476190D01*
X33940476Y-64952381D02*
X34559524Y-64952381D01*
X34226190Y-65333333D01*
X34369048Y-65333333D01*
X34464286Y-65380952D01*
X34511905Y-65428571D01*
X34559524Y-65523810D01*
X34559524Y-65761905D01*
X34511905Y-65857143D01*
X34464286Y-65904762D01*
X34369048Y-65952381D01*
X34083333Y-65952381D01*
X33988095Y-65904762D01*
X33940476Y-65857143D01*
X35511905Y-65952381D02*
X34940476Y-65952381D01*
X35226190Y-65952381D02*
X35226190Y-64952381D01*
X35130952Y-65095238D01*
X35035714Y-65190476D01*
X34940476Y-65238095D01*
X254107143Y-65452381D02*
X253773809Y-64976190D01*
X253535714Y-65452381D02*
X253535714Y-64452381D01*
X253916667Y-64452381D01*
X254011905Y-64500000D01*
X254059524Y-64547619D01*
X254107143Y-64642857D01*
X254107143Y-64785714D01*
X254059524Y-64880952D01*
X254011905Y-64928571D01*
X253916667Y-64976190D01*
X253535714Y-64976190D01*
X254440476Y-64452381D02*
X255059524Y-64452381D01*
X254726190Y-64833333D01*
X254869048Y-64833333D01*
X254964286Y-64880952D01*
X255011905Y-64928571D01*
X255059524Y-65023810D01*
X255059524Y-65261905D01*
X255011905Y-65357143D01*
X254964286Y-65404762D01*
X254869048Y-65452381D01*
X254583333Y-65452381D01*
X254488095Y-65404762D01*
X254440476Y-65357143D01*
X255440476Y-64547619D02*
X255488095Y-64500000D01*
X255583333Y-64452381D01*
X255821429Y-64452381D01*
X255916667Y-64500000D01*
X255964286Y-64547619D01*
X256011905Y-64642857D01*
X256011905Y-64738095D01*
X255964286Y-64880952D01*
X255392857Y-65452381D01*
X256011905Y-65452381D01*
X53357143Y-77952381D02*
X53023809Y-77476190D01*
X52785714Y-77952381D02*
X52785714Y-76952381D01*
X53166667Y-76952381D01*
X53261905Y-77000000D01*
X53309524Y-77047619D01*
X53357143Y-77142857D01*
X53357143Y-77285714D01*
X53309524Y-77380952D01*
X53261905Y-77428571D01*
X53166667Y-77476190D01*
X52785714Y-77476190D01*
X54214286Y-77285714D02*
X54214286Y-77952381D01*
X53976190Y-76904762D02*
X53738095Y-77619048D01*
X54357143Y-77619048D01*
X55261905Y-77952381D02*
X54690476Y-77952381D01*
X54976190Y-77952381D02*
X54976190Y-76952381D01*
X54880952Y-77095238D01*
X54785714Y-77190476D01*
X54690476Y-77238095D01*
X45178572Y-55047619D02*
X45083334Y-55000000D01*
X44988096Y-54904762D01*
X44845239Y-54761905D01*
X44750000Y-54714286D01*
X44654762Y-54714286D01*
X44702381Y-54952381D02*
X44607143Y-54904762D01*
X44511905Y-54809524D01*
X44464286Y-54619048D01*
X44464286Y-54285714D01*
X44511905Y-54095238D01*
X44607143Y-54000000D01*
X44702381Y-53952381D01*
X44892858Y-53952381D01*
X44988096Y-54000000D01*
X45083334Y-54095238D01*
X45130953Y-54285714D01*
X45130953Y-54619048D01*
X45083334Y-54809524D01*
X44988096Y-54904762D01*
X44892858Y-54952381D01*
X44702381Y-54952381D01*
X46083334Y-54952381D02*
X45511905Y-54952381D01*
X45797619Y-54952381D02*
X45797619Y-53952381D01*
X45702381Y-54095238D01*
X45607143Y-54190476D01*
X45511905Y-54238095D01*
X46416667Y-53952381D02*
X47083334Y-53952381D01*
X46654762Y-54952381D01*
X246928572Y-55047619D02*
X246833334Y-55000000D01*
X246738096Y-54904762D01*
X246595239Y-54761905D01*
X246500000Y-54714286D01*
X246404762Y-54714286D01*
X246452381Y-54952381D02*
X246357143Y-54904762D01*
X246261905Y-54809524D01*
X246214286Y-54619048D01*
X246214286Y-54285714D01*
X246261905Y-54095238D01*
X246357143Y-54000000D01*
X246452381Y-53952381D01*
X246642858Y-53952381D01*
X246738096Y-54000000D01*
X246833334Y-54095238D01*
X246880953Y-54285714D01*
X246880953Y-54619048D01*
X246833334Y-54809524D01*
X246738096Y-54904762D01*
X246642858Y-54952381D01*
X246452381Y-54952381D01*
X247833334Y-54952381D02*
X247261905Y-54952381D01*
X247547619Y-54952381D02*
X247547619Y-53952381D01*
X247452381Y-54095238D01*
X247357143Y-54190476D01*
X247261905Y-54238095D01*
X248404762Y-54380952D02*
X248309524Y-54333333D01*
X248261905Y-54285714D01*
X248214286Y-54190476D01*
X248214286Y-54142857D01*
X248261905Y-54047619D01*
X248309524Y-54000000D01*
X248404762Y-53952381D01*
X248595239Y-53952381D01*
X248690477Y-54000000D01*
X248738096Y-54047619D01*
X248785715Y-54142857D01*
X248785715Y-54190476D01*
X248738096Y-54285714D01*
X248690477Y-54333333D01*
X248595239Y-54380952D01*
X248404762Y-54380952D01*
X248309524Y-54428571D01*
X248261905Y-54476190D01*
X248214286Y-54571429D01*
X248214286Y-54761905D01*
X248261905Y-54857143D01*
X248309524Y-54904762D01*
X248404762Y-54952381D01*
X248595239Y-54952381D01*
X248690477Y-54904762D01*
X248738096Y-54857143D01*
X248785715Y-54761905D01*
X248785715Y-54571429D01*
X248738096Y-54476190D01*
X248690477Y-54428571D01*
X248595239Y-54380952D01*
X69928572Y-55047619D02*
X69833334Y-55000000D01*
X69738096Y-54904762D01*
X69595239Y-54761905D01*
X69500000Y-54714286D01*
X69404762Y-54714286D01*
X69452381Y-54952381D02*
X69357143Y-54904762D01*
X69261905Y-54809524D01*
X69214286Y-54619048D01*
X69214286Y-54285714D01*
X69261905Y-54095238D01*
X69357143Y-54000000D01*
X69452381Y-53952381D01*
X69642858Y-53952381D01*
X69738096Y-54000000D01*
X69833334Y-54095238D01*
X69880953Y-54285714D01*
X69880953Y-54619048D01*
X69833334Y-54809524D01*
X69738096Y-54904762D01*
X69642858Y-54952381D01*
X69452381Y-54952381D01*
X70833334Y-54952381D02*
X70261905Y-54952381D01*
X70547619Y-54952381D02*
X70547619Y-53952381D01*
X70452381Y-54095238D01*
X70357143Y-54190476D01*
X70261905Y-54238095D01*
X71309524Y-54952381D02*
X71500000Y-54952381D01*
X71595239Y-54904762D01*
X71642858Y-54857143D01*
X71738096Y-54714286D01*
X71785715Y-54523810D01*
X71785715Y-54142857D01*
X71738096Y-54047619D01*
X71690477Y-54000000D01*
X71595239Y-53952381D01*
X71404762Y-53952381D01*
X71309524Y-54000000D01*
X71261905Y-54047619D01*
X71214286Y-54142857D01*
X71214286Y-54380952D01*
X71261905Y-54476190D01*
X71309524Y-54523810D01*
X71404762Y-54571429D01*
X71595239Y-54571429D01*
X71690477Y-54523810D01*
X71738096Y-54476190D01*
X71785715Y-54380952D01*
X221928572Y-55047619D02*
X221833334Y-55000000D01*
X221738096Y-54904762D01*
X221595239Y-54761905D01*
X221500000Y-54714286D01*
X221404762Y-54714286D01*
X221452381Y-54952381D02*
X221357143Y-54904762D01*
X221261905Y-54809524D01*
X221214286Y-54619048D01*
X221214286Y-54285714D01*
X221261905Y-54095238D01*
X221357143Y-54000000D01*
X221452381Y-53952381D01*
X221642858Y-53952381D01*
X221738096Y-54000000D01*
X221833334Y-54095238D01*
X221880953Y-54285714D01*
X221880953Y-54619048D01*
X221833334Y-54809524D01*
X221738096Y-54904762D01*
X221642858Y-54952381D01*
X221452381Y-54952381D01*
X222261905Y-54047619D02*
X222309524Y-54000000D01*
X222404762Y-53952381D01*
X222642858Y-53952381D01*
X222738096Y-54000000D01*
X222785715Y-54047619D01*
X222833334Y-54142857D01*
X222833334Y-54238095D01*
X222785715Y-54380952D01*
X222214286Y-54952381D01*
X222833334Y-54952381D01*
X223452381Y-53952381D02*
X223547620Y-53952381D01*
X223642858Y-54000000D01*
X223690477Y-54047619D01*
X223738096Y-54142857D01*
X223785715Y-54333333D01*
X223785715Y-54571429D01*
X223738096Y-54761905D01*
X223690477Y-54857143D01*
X223642858Y-54904762D01*
X223547620Y-54952381D01*
X223452381Y-54952381D01*
X223357143Y-54904762D01*
X223309524Y-54857143D01*
X223261905Y-54761905D01*
X223214286Y-54571429D01*
X223214286Y-54333333D01*
X223261905Y-54142857D01*
X223309524Y-54047619D01*
X223357143Y-54000000D01*
X223452381Y-53952381D01*
X95428572Y-55047619D02*
X95333334Y-55000000D01*
X95238096Y-54904762D01*
X95095239Y-54761905D01*
X95000000Y-54714286D01*
X94904762Y-54714286D01*
X94952381Y-54952381D02*
X94857143Y-54904762D01*
X94761905Y-54809524D01*
X94714286Y-54619048D01*
X94714286Y-54285714D01*
X94761905Y-54095238D01*
X94857143Y-54000000D01*
X94952381Y-53952381D01*
X95142858Y-53952381D01*
X95238096Y-54000000D01*
X95333334Y-54095238D01*
X95380953Y-54285714D01*
X95380953Y-54619048D01*
X95333334Y-54809524D01*
X95238096Y-54904762D01*
X95142858Y-54952381D01*
X94952381Y-54952381D01*
X95761905Y-54047619D02*
X95809524Y-54000000D01*
X95904762Y-53952381D01*
X96142858Y-53952381D01*
X96238096Y-54000000D01*
X96285715Y-54047619D01*
X96333334Y-54142857D01*
X96333334Y-54238095D01*
X96285715Y-54380952D01*
X95714286Y-54952381D01*
X96333334Y-54952381D01*
X97285715Y-54952381D02*
X96714286Y-54952381D01*
X97000000Y-54952381D02*
X97000000Y-53952381D01*
X96904762Y-54095238D01*
X96809524Y-54190476D01*
X96714286Y-54238095D01*
X196928572Y-55047619D02*
X196833334Y-55000000D01*
X196738096Y-54904762D01*
X196595239Y-54761905D01*
X196500000Y-54714286D01*
X196404762Y-54714286D01*
X196452381Y-54952381D02*
X196357143Y-54904762D01*
X196261905Y-54809524D01*
X196214286Y-54619048D01*
X196214286Y-54285714D01*
X196261905Y-54095238D01*
X196357143Y-54000000D01*
X196452381Y-53952381D01*
X196642858Y-53952381D01*
X196738096Y-54000000D01*
X196833334Y-54095238D01*
X196880953Y-54285714D01*
X196880953Y-54619048D01*
X196833334Y-54809524D01*
X196738096Y-54904762D01*
X196642858Y-54952381D01*
X196452381Y-54952381D01*
X197261905Y-54047619D02*
X197309524Y-54000000D01*
X197404762Y-53952381D01*
X197642858Y-53952381D01*
X197738096Y-54000000D01*
X197785715Y-54047619D01*
X197833334Y-54142857D01*
X197833334Y-54238095D01*
X197785715Y-54380952D01*
X197214286Y-54952381D01*
X197833334Y-54952381D01*
X198214286Y-54047619D02*
X198261905Y-54000000D01*
X198357143Y-53952381D01*
X198595239Y-53952381D01*
X198690477Y-54000000D01*
X198738096Y-54047619D01*
X198785715Y-54142857D01*
X198785715Y-54238095D01*
X198738096Y-54380952D01*
X198166667Y-54952381D01*
X198785715Y-54952381D01*
X120178572Y-55297619D02*
X120083334Y-55250000D01*
X119988096Y-55154762D01*
X119845239Y-55011905D01*
X119750000Y-54964286D01*
X119654762Y-54964286D01*
X119702381Y-55202381D02*
X119607143Y-55154762D01*
X119511905Y-55059524D01*
X119464286Y-54869048D01*
X119464286Y-54535714D01*
X119511905Y-54345238D01*
X119607143Y-54250000D01*
X119702381Y-54202381D01*
X119892858Y-54202381D01*
X119988096Y-54250000D01*
X120083334Y-54345238D01*
X120130953Y-54535714D01*
X120130953Y-54869048D01*
X120083334Y-55059524D01*
X119988096Y-55154762D01*
X119892858Y-55202381D01*
X119702381Y-55202381D01*
X120511905Y-54297619D02*
X120559524Y-54250000D01*
X120654762Y-54202381D01*
X120892858Y-54202381D01*
X120988096Y-54250000D01*
X121035715Y-54297619D01*
X121083334Y-54392857D01*
X121083334Y-54488095D01*
X121035715Y-54630952D01*
X120464286Y-55202381D01*
X121083334Y-55202381D01*
X121416667Y-54202381D02*
X122035715Y-54202381D01*
X121702381Y-54583333D01*
X121845239Y-54583333D01*
X121940477Y-54630952D01*
X121988096Y-54678571D01*
X122035715Y-54773810D01*
X122035715Y-55011905D01*
X121988096Y-55107143D01*
X121940477Y-55154762D01*
X121845239Y-55202381D01*
X121559524Y-55202381D01*
X121464286Y-55154762D01*
X121416667Y-55107143D01*
X172178572Y-55047619D02*
X172083334Y-55000000D01*
X171988096Y-54904762D01*
X171845239Y-54761905D01*
X171750000Y-54714286D01*
X171654762Y-54714286D01*
X171702381Y-54952381D02*
X171607143Y-54904762D01*
X171511905Y-54809524D01*
X171464286Y-54619048D01*
X171464286Y-54285714D01*
X171511905Y-54095238D01*
X171607143Y-54000000D01*
X171702381Y-53952381D01*
X171892858Y-53952381D01*
X171988096Y-54000000D01*
X172083334Y-54095238D01*
X172130953Y-54285714D01*
X172130953Y-54619048D01*
X172083334Y-54809524D01*
X171988096Y-54904762D01*
X171892858Y-54952381D01*
X171702381Y-54952381D01*
X172511905Y-54047619D02*
X172559524Y-54000000D01*
X172654762Y-53952381D01*
X172892858Y-53952381D01*
X172988096Y-54000000D01*
X173035715Y-54047619D01*
X173083334Y-54142857D01*
X173083334Y-54238095D01*
X173035715Y-54380952D01*
X172464286Y-54952381D01*
X173083334Y-54952381D01*
X173940477Y-54285714D02*
X173940477Y-54952381D01*
X173702381Y-53904762D02*
X173464286Y-54619048D01*
X174083334Y-54619048D01*
X38357143Y-59452381D02*
X38023809Y-58976190D01*
X37785714Y-59452381D02*
X37785714Y-58452381D01*
X38166667Y-58452381D01*
X38261905Y-58500000D01*
X38309524Y-58547619D01*
X38357143Y-58642857D01*
X38357143Y-58785714D01*
X38309524Y-58880952D01*
X38261905Y-58928571D01*
X38166667Y-58976190D01*
X37785714Y-58976190D01*
X38690476Y-58452381D02*
X39309524Y-58452381D01*
X38976190Y-58833333D01*
X39119048Y-58833333D01*
X39214286Y-58880952D01*
X39261905Y-58928571D01*
X39309524Y-59023810D01*
X39309524Y-59261905D01*
X39261905Y-59357143D01*
X39214286Y-59404762D01*
X39119048Y-59452381D01*
X38833333Y-59452381D01*
X38738095Y-59404762D01*
X38690476Y-59357143D01*
X39642857Y-58452381D02*
X40261905Y-58452381D01*
X39928571Y-58833333D01*
X40071429Y-58833333D01*
X40166667Y-58880952D01*
X40214286Y-58928571D01*
X40261905Y-59023810D01*
X40261905Y-59261905D01*
X40214286Y-59357143D01*
X40166667Y-59404762D01*
X40071429Y-59452381D01*
X39785714Y-59452381D01*
X39690476Y-59404762D01*
X39642857Y-59357143D01*
X253357143Y-59452381D02*
X253023809Y-58976190D01*
X252785714Y-59452381D02*
X252785714Y-58452381D01*
X253166667Y-58452381D01*
X253261905Y-58500000D01*
X253309524Y-58547619D01*
X253357143Y-58642857D01*
X253357143Y-58785714D01*
X253309524Y-58880952D01*
X253261905Y-58928571D01*
X253166667Y-58976190D01*
X252785714Y-58976190D01*
X253690476Y-58452381D02*
X254309524Y-58452381D01*
X253976190Y-58833333D01*
X254119048Y-58833333D01*
X254214286Y-58880952D01*
X254261905Y-58928571D01*
X254309524Y-59023810D01*
X254309524Y-59261905D01*
X254261905Y-59357143D01*
X254214286Y-59404762D01*
X254119048Y-59452381D01*
X253833333Y-59452381D01*
X253738095Y-59404762D01*
X253690476Y-59357143D01*
X255166667Y-58785714D02*
X255166667Y-59452381D01*
X254928571Y-58404762D02*
X254690476Y-59119048D01*
X255309524Y-59119048D01*
X64357143Y-59452381D02*
X64023809Y-58976190D01*
X63785714Y-59452381D02*
X63785714Y-58452381D01*
X64166667Y-58452381D01*
X64261905Y-58500000D01*
X64309524Y-58547619D01*
X64357143Y-58642857D01*
X64357143Y-58785714D01*
X64309524Y-58880952D01*
X64261905Y-58928571D01*
X64166667Y-58976190D01*
X63785714Y-58976190D01*
X64690476Y-58452381D02*
X65309524Y-58452381D01*
X64976190Y-58833333D01*
X65119048Y-58833333D01*
X65214286Y-58880952D01*
X65261905Y-58928571D01*
X65309524Y-59023810D01*
X65309524Y-59261905D01*
X65261905Y-59357143D01*
X65214286Y-59404762D01*
X65119048Y-59452381D01*
X64833333Y-59452381D01*
X64738095Y-59404762D01*
X64690476Y-59357143D01*
X66214286Y-58452381D02*
X65738095Y-58452381D01*
X65690476Y-58928571D01*
X65738095Y-58880952D01*
X65833333Y-58833333D01*
X66071429Y-58833333D01*
X66166667Y-58880952D01*
X66214286Y-58928571D01*
X66261905Y-59023810D01*
X66261905Y-59261905D01*
X66214286Y-59357143D01*
X66166667Y-59404762D01*
X66071429Y-59452381D01*
X65833333Y-59452381D01*
X65738095Y-59404762D01*
X65690476Y-59357143D01*
X225357143Y-59452381D02*
X225023809Y-58976190D01*
X224785714Y-59452381D02*
X224785714Y-58452381D01*
X225166667Y-58452381D01*
X225261905Y-58500000D01*
X225309524Y-58547619D01*
X225357143Y-58642857D01*
X225357143Y-58785714D01*
X225309524Y-58880952D01*
X225261905Y-58928571D01*
X225166667Y-58976190D01*
X224785714Y-58976190D01*
X225690476Y-58452381D02*
X226309524Y-58452381D01*
X225976190Y-58833333D01*
X226119048Y-58833333D01*
X226214286Y-58880952D01*
X226261905Y-58928571D01*
X226309524Y-59023810D01*
X226309524Y-59261905D01*
X226261905Y-59357143D01*
X226214286Y-59404762D01*
X226119048Y-59452381D01*
X225833333Y-59452381D01*
X225738095Y-59404762D01*
X225690476Y-59357143D01*
X227166667Y-58452381D02*
X226976190Y-58452381D01*
X226880952Y-58500000D01*
X226833333Y-58547619D01*
X226738095Y-58690476D01*
X226690476Y-58880952D01*
X226690476Y-59261905D01*
X226738095Y-59357143D01*
X226785714Y-59404762D01*
X226880952Y-59452381D01*
X227071429Y-59452381D01*
X227166667Y-59404762D01*
X227214286Y-59357143D01*
X227261905Y-59261905D01*
X227261905Y-59023810D01*
X227214286Y-58928571D01*
X227166667Y-58880952D01*
X227071429Y-58833333D01*
X226880952Y-58833333D01*
X226785714Y-58880952D01*
X226738095Y-58928571D01*
X226690476Y-59023810D01*
X91357143Y-59452381D02*
X91023809Y-58976190D01*
X90785714Y-59452381D02*
X90785714Y-58452381D01*
X91166667Y-58452381D01*
X91261905Y-58500000D01*
X91309524Y-58547619D01*
X91357143Y-58642857D01*
X91357143Y-58785714D01*
X91309524Y-58880952D01*
X91261905Y-58928571D01*
X91166667Y-58976190D01*
X90785714Y-58976190D01*
X91690476Y-58452381D02*
X92309524Y-58452381D01*
X91976190Y-58833333D01*
X92119048Y-58833333D01*
X92214286Y-58880952D01*
X92261905Y-58928571D01*
X92309524Y-59023810D01*
X92309524Y-59261905D01*
X92261905Y-59357143D01*
X92214286Y-59404762D01*
X92119048Y-59452381D01*
X91833333Y-59452381D01*
X91738095Y-59404762D01*
X91690476Y-59357143D01*
X92642857Y-58452381D02*
X93309524Y-58452381D01*
X92880952Y-59452381D01*
X199357143Y-59452381D02*
X199023809Y-58976190D01*
X198785714Y-59452381D02*
X198785714Y-58452381D01*
X199166667Y-58452381D01*
X199261905Y-58500000D01*
X199309524Y-58547619D01*
X199357143Y-58642857D01*
X199357143Y-58785714D01*
X199309524Y-58880952D01*
X199261905Y-58928571D01*
X199166667Y-58976190D01*
X198785714Y-58976190D01*
X199690476Y-58452381D02*
X200309524Y-58452381D01*
X199976190Y-58833333D01*
X200119048Y-58833333D01*
X200214286Y-58880952D01*
X200261905Y-58928571D01*
X200309524Y-59023810D01*
X200309524Y-59261905D01*
X200261905Y-59357143D01*
X200214286Y-59404762D01*
X200119048Y-59452381D01*
X199833333Y-59452381D01*
X199738095Y-59404762D01*
X199690476Y-59357143D01*
X200880952Y-58880952D02*
X200785714Y-58833333D01*
X200738095Y-58785714D01*
X200690476Y-58690476D01*
X200690476Y-58642857D01*
X200738095Y-58547619D01*
X200785714Y-58500000D01*
X200880952Y-58452381D01*
X201071429Y-58452381D01*
X201166667Y-58500000D01*
X201214286Y-58547619D01*
X201261905Y-58642857D01*
X201261905Y-58690476D01*
X201214286Y-58785714D01*
X201166667Y-58833333D01*
X201071429Y-58880952D01*
X200880952Y-58880952D01*
X200785714Y-58928571D01*
X200738095Y-58976190D01*
X200690476Y-59071429D01*
X200690476Y-59261905D01*
X200738095Y-59357143D01*
X200785714Y-59404762D01*
X200880952Y-59452381D01*
X201071429Y-59452381D01*
X201166667Y-59404762D01*
X201214286Y-59357143D01*
X201261905Y-59261905D01*
X201261905Y-59071429D01*
X201214286Y-58976190D01*
X201166667Y-58928571D01*
X201071429Y-58880952D01*
X118357143Y-59452381D02*
X118023809Y-58976190D01*
X117785714Y-59452381D02*
X117785714Y-58452381D01*
X118166667Y-58452381D01*
X118261905Y-58500000D01*
X118309524Y-58547619D01*
X118357143Y-58642857D01*
X118357143Y-58785714D01*
X118309524Y-58880952D01*
X118261905Y-58928571D01*
X118166667Y-58976190D01*
X117785714Y-58976190D01*
X118690476Y-58452381D02*
X119309524Y-58452381D01*
X118976190Y-58833333D01*
X119119048Y-58833333D01*
X119214286Y-58880952D01*
X119261905Y-58928571D01*
X119309524Y-59023810D01*
X119309524Y-59261905D01*
X119261905Y-59357143D01*
X119214286Y-59404762D01*
X119119048Y-59452381D01*
X118833333Y-59452381D01*
X118738095Y-59404762D01*
X118690476Y-59357143D01*
X119785714Y-59452381D02*
X119976190Y-59452381D01*
X120071429Y-59404762D01*
X120119048Y-59357143D01*
X120214286Y-59214286D01*
X120261905Y-59023810D01*
X120261905Y-58642857D01*
X120214286Y-58547619D01*
X120166667Y-58500000D01*
X120071429Y-58452381D01*
X119880952Y-58452381D01*
X119785714Y-58500000D01*
X119738095Y-58547619D01*
X119690476Y-58642857D01*
X119690476Y-58880952D01*
X119738095Y-58976190D01*
X119785714Y-59023810D01*
X119880952Y-59071429D01*
X120071429Y-59071429D01*
X120166667Y-59023810D01*
X120214286Y-58976190D01*
X120261905Y-58880952D01*
X173357143Y-59452381D02*
X173023809Y-58976190D01*
X172785714Y-59452381D02*
X172785714Y-58452381D01*
X173166667Y-58452381D01*
X173261905Y-58500000D01*
X173309524Y-58547619D01*
X173357143Y-58642857D01*
X173357143Y-58785714D01*
X173309524Y-58880952D01*
X173261905Y-58928571D01*
X173166667Y-58976190D01*
X172785714Y-58976190D01*
X174214286Y-58785714D02*
X174214286Y-59452381D01*
X173976190Y-58404762D02*
X173738095Y-59119048D01*
X174357143Y-59119048D01*
X174928571Y-58452381D02*
X175023810Y-58452381D01*
X175119048Y-58500000D01*
X175166667Y-58547619D01*
X175214286Y-58642857D01*
X175261905Y-58833333D01*
X175261905Y-59071429D01*
X175214286Y-59261905D01*
X175166667Y-59357143D01*
X175119048Y-59404762D01*
X175023810Y-59452381D01*
X174928571Y-59452381D01*
X174833333Y-59404762D01*
X174785714Y-59357143D01*
X174738095Y-59261905D01*
X174690476Y-59071429D01*
X174690476Y-58833333D01*
X174738095Y-58642857D01*
X174785714Y-58547619D01*
X174833333Y-58500000D01*
X174928571Y-58452381D01*
X244706667Y-66372381D02*
X244706667Y-67086667D01*
X244659047Y-67229524D01*
X244563809Y-67324762D01*
X244420952Y-67372381D01*
X244325714Y-67372381D01*
X245706667Y-67372381D02*
X245135238Y-67372381D01*
X245420952Y-67372381D02*
X245420952Y-66372381D01*
X245325714Y-66515238D01*
X245230476Y-66610476D01*
X245135238Y-66658095D01*
X228206667Y-66372381D02*
X228206667Y-67086667D01*
X228159047Y-67229524D01*
X228063809Y-67324762D01*
X227920952Y-67372381D01*
X227825714Y-67372381D01*
X228635238Y-66467619D02*
X228682857Y-66420000D01*
X228778095Y-66372381D01*
X229016191Y-66372381D01*
X229111429Y-66420000D01*
X229159048Y-66467619D01*
X229206667Y-66562857D01*
X229206667Y-66658095D01*
X229159048Y-66800952D01*
X228587619Y-67372381D01*
X229206667Y-67372381D01*
X72452381Y-71333333D02*
X73166667Y-71333333D01*
X73309524Y-71380953D01*
X73404762Y-71476191D01*
X73452381Y-71619048D01*
X73452381Y-71714286D01*
X72452381Y-70952381D02*
X72452381Y-70333333D01*
X72833333Y-70666667D01*
X72833333Y-70523809D01*
X72880952Y-70428571D01*
X72928571Y-70380952D01*
X73023810Y-70333333D01*
X73261905Y-70333333D01*
X73357143Y-70380952D01*
X73404762Y-70428571D01*
X73452381Y-70523809D01*
X73452381Y-70809524D01*
X73404762Y-70904762D01*
X73357143Y-70952381D01*
X262666667Y-99404381D02*
X262666667Y-100118667D01*
X262619047Y-100261524D01*
X262523809Y-100356762D01*
X262380952Y-100404381D01*
X262285714Y-100404381D01*
X263571429Y-99737714D02*
X263571429Y-100404381D01*
X263333333Y-99356762D02*
X263095238Y-100071048D01*
X263714286Y-100071048D01*
X262666667Y-48500381D02*
X262666667Y-49214667D01*
X262619047Y-49357524D01*
X262523809Y-49452762D01*
X262380952Y-49500381D01*
X262285714Y-49500381D01*
X263619048Y-48500381D02*
X263142857Y-48500381D01*
X263095238Y-48976571D01*
X263142857Y-48928952D01*
X263238095Y-48881333D01*
X263476191Y-48881333D01*
X263571429Y-48928952D01*
X263619048Y-48976571D01*
X263666667Y-49071810D01*
X263666667Y-49309905D01*
X263619048Y-49405143D01*
X263571429Y-49452762D01*
X263476191Y-49500381D01*
X263238095Y-49500381D01*
X263142857Y-49452762D01*
X263095238Y-49405143D01*
X28666667Y-99404381D02*
X28666667Y-100118667D01*
X28619047Y-100261524D01*
X28523809Y-100356762D01*
X28380952Y-100404381D01*
X28285714Y-100404381D01*
X29571429Y-99404381D02*
X29380952Y-99404381D01*
X29285714Y-99452000D01*
X29238095Y-99499619D01*
X29142857Y-99642476D01*
X29095238Y-99832952D01*
X29095238Y-100213905D01*
X29142857Y-100309143D01*
X29190476Y-100356762D01*
X29285714Y-100404381D01*
X29476191Y-100404381D01*
X29571429Y-100356762D01*
X29619048Y-100309143D01*
X29666667Y-100213905D01*
X29666667Y-99975810D01*
X29619048Y-99880571D01*
X29571429Y-99832952D01*
X29476191Y-99785333D01*
X29285714Y-99785333D01*
X29190476Y-99832952D01*
X29142857Y-99880571D01*
X29095238Y-99975810D01*
X28666667Y-48500381D02*
X28666667Y-49214667D01*
X28619047Y-49357524D01*
X28523809Y-49452762D01*
X28380952Y-49500381D01*
X28285714Y-49500381D01*
X29047619Y-48500381D02*
X29714286Y-48500381D01*
X29285714Y-49500381D01*
X165706667Y-96122381D02*
X165706667Y-96836667D01*
X165659047Y-96979524D01*
X165563809Y-97074762D01*
X165420952Y-97122381D01*
X165325714Y-97122381D01*
X166325714Y-96550952D02*
X166230476Y-96503333D01*
X166182857Y-96455714D01*
X166135238Y-96360476D01*
X166135238Y-96312857D01*
X166182857Y-96217619D01*
X166230476Y-96170000D01*
X166325714Y-96122381D01*
X166516191Y-96122381D01*
X166611429Y-96170000D01*
X166659048Y-96217619D01*
X166706667Y-96312857D01*
X166706667Y-96360476D01*
X166659048Y-96455714D01*
X166611429Y-96503333D01*
X166516191Y-96550952D01*
X166325714Y-96550952D01*
X166230476Y-96598571D01*
X166182857Y-96646190D01*
X166135238Y-96741429D01*
X166135238Y-96931905D01*
X166182857Y-97027143D01*
X166230476Y-97074762D01*
X166325714Y-97122381D01*
X166516191Y-97122381D01*
X166611429Y-97074762D01*
X166659048Y-97027143D01*
X166706667Y-96931905D01*
X166706667Y-96741429D01*
X166659048Y-96646190D01*
X166611429Y-96598571D01*
X166516191Y-96550952D01*
X165666667Y-85202381D02*
X165666667Y-85916667D01*
X165619047Y-86059524D01*
X165523809Y-86154762D01*
X165380952Y-86202381D01*
X165285714Y-86202381D01*
X166190476Y-86202381D02*
X166380952Y-86202381D01*
X166476191Y-86154762D01*
X166523810Y-86107143D01*
X166619048Y-85964286D01*
X166666667Y-85773810D01*
X166666667Y-85392857D01*
X166619048Y-85297619D01*
X166571429Y-85250000D01*
X166476191Y-85202381D01*
X166285714Y-85202381D01*
X166190476Y-85250000D01*
X166142857Y-85297619D01*
X166095238Y-85392857D01*
X166095238Y-85630952D01*
X166142857Y-85726190D01*
X166190476Y-85773810D01*
X166285714Y-85821429D01*
X166476191Y-85821429D01*
X166571429Y-85773810D01*
X166619048Y-85726190D01*
X166666667Y-85630952D01*
M02*
