G04 #@! TF.FileFunction,Soldermask,Bot*
%FSLAX46Y46*%
G04 Gerber Fmt 4.6, Leading zero omitted, Abs format (unit mm)*
G04 Created by KiCad (PCBNEW 4.0.7) date 10/16/20 21:05:33*
%MOMM*%
%LPD*%
G01*
G04 APERTURE LIST*
%ADD10C,0.100000*%
%ADD11C,1.920000*%
%ADD12R,1.920000X1.920000*%
%ADD13C,2.000000*%
%ADD14O,2.000000X2.000000*%
%ADD15R,2.600000X2.600000*%
%ADD16O,2.600000X2.600000*%
%ADD17R,2.800000X2.800000*%
%ADD18C,2.800000*%
%ADD19C,2.600000*%
%ADD20C,2.400000*%
%ADD21R,2.000000X2.000000*%
%ADD22R,2.400000X2.400000*%
%ADD23R,2.200000X2.200000*%
%ADD24C,2.200000*%
%ADD25C,1.840000*%
%ADD26O,2.800000X2.800000*%
%ADD27R,4.700000X4.900000*%
%ADD28O,2.900000X4.900000*%
%ADD29O,4.700000X4.900000*%
%ADD30C,3.200000*%
%ADD31O,3.200000X3.200000*%
%ADD32R,3.400000X3.400000*%
%ADD33C,3.400000*%
%ADD34C,5.900000*%
%ADD35C,4.464000*%
%ADD36O,2.200000X2.200000*%
%ADD37R,2.100000X2.100000*%
%ADD38O,2.100000X2.100000*%
G04 APERTURE END LIST*
D10*
D11*
X89390000Y-84800000D03*
X91930000Y-84800000D03*
D12*
X86850000Y-84800000D03*
D13*
X105800000Y-81200000D03*
D14*
X105800000Y-68500000D03*
D15*
X199200000Y-68600000D03*
D16*
X199200000Y-76220000D03*
D17*
X54625000Y-80250000D03*
D18*
X54625000Y-72750000D03*
D19*
X176860000Y-102740000D03*
X176860000Y-97660000D03*
X181940000Y-97660000D03*
X181940000Y-102740000D03*
D20*
X179400000Y-100200000D03*
D21*
X193400000Y-70400000D03*
D13*
X195900000Y-70400000D03*
D11*
X117340000Y-98800000D03*
X119880000Y-98800000D03*
D12*
X114800000Y-98800000D03*
D13*
X186200000Y-73000000D03*
D14*
X178580000Y-73000000D03*
D13*
X133800000Y-98000000D03*
D14*
X126300000Y-98000000D03*
D13*
X92730000Y-90190000D03*
D14*
X100230000Y-90190000D03*
D13*
X69200000Y-104200000D03*
X69200000Y-99200000D03*
X196400000Y-74800000D03*
X191400000Y-74800000D03*
X74000000Y-104200000D03*
X74000000Y-99200000D03*
D22*
X77000000Y-79125000D03*
D20*
X77000000Y-84125000D03*
D22*
X72800000Y-94400000D03*
D20*
X72800000Y-89400000D03*
D13*
X103000000Y-93600000D03*
X108000000Y-93600000D03*
X154600000Y-92800000D03*
D14*
X144600000Y-92800000D03*
D13*
X230300000Y-92400000D03*
D14*
X230300000Y-82400000D03*
D13*
X84800000Y-68600000D03*
D14*
X84800000Y-78600000D03*
D17*
X257400000Y-78800000D03*
D18*
X257400000Y-71300000D03*
D13*
X232200000Y-68600000D03*
D14*
X232200000Y-78600000D03*
D15*
X52800000Y-103000000D03*
D16*
X45180000Y-103000000D03*
D23*
X199000000Y-79000000D03*
D24*
X199000000Y-81540000D03*
D21*
X145400000Y-69000000D03*
D14*
X145400000Y-61380000D03*
D21*
X155400000Y-61400000D03*
D14*
X155400000Y-69020000D03*
D15*
X68975000Y-77200000D03*
D16*
X68975000Y-69580000D03*
D13*
X144600000Y-97800000D03*
D14*
X152220000Y-97800000D03*
D13*
X164200000Y-95400000D03*
D14*
X171820000Y-95400000D03*
D13*
X96600000Y-75800000D03*
D14*
X96600000Y-68180000D03*
D13*
X91800000Y-75800000D03*
D14*
X91800000Y-68180000D03*
D13*
X100360000Y-93520000D03*
D14*
X92740000Y-93520000D03*
D13*
X134000000Y-101200000D03*
D14*
X126380000Y-101200000D03*
D13*
X134000000Y-104400000D03*
D14*
X126380000Y-104400000D03*
D13*
X152200000Y-101200000D03*
D14*
X144580000Y-101200000D03*
D13*
X152200000Y-104400000D03*
D14*
X144580000Y-104400000D03*
D25*
X139000000Y-103600000D03*
X139000000Y-101060000D03*
X139000000Y-98520000D03*
D18*
X188500000Y-90200000D03*
D26*
X188500000Y-102900000D03*
D13*
X188850000Y-68750000D03*
D14*
X188850000Y-76370000D03*
D18*
X64925000Y-90700000D03*
D26*
X64925000Y-78000000D03*
D13*
X82800000Y-96600000D03*
D14*
X82800000Y-104220000D03*
D13*
X79000000Y-96800000D03*
D14*
X79000000Y-104420000D03*
D13*
X192750000Y-83750000D03*
D14*
X192750000Y-96450000D03*
D13*
X101600000Y-75800000D03*
D14*
X101600000Y-68180000D03*
D13*
X146100000Y-81600000D03*
D14*
X153720000Y-81600000D03*
D25*
X141150000Y-83850000D03*
X138610000Y-83850000D03*
X136070000Y-83850000D03*
D13*
X153750000Y-84750000D03*
D14*
X146130000Y-84750000D03*
D13*
X186200000Y-76200000D03*
D14*
X178580000Y-76200000D03*
D13*
X128250000Y-69000000D03*
D14*
X120630000Y-69000000D03*
D18*
X182600000Y-69200000D03*
D26*
X167360000Y-69200000D03*
D13*
X133250000Y-69000000D03*
D14*
X133250000Y-61380000D03*
D13*
X185600000Y-69400000D03*
D14*
X185600000Y-61780000D03*
D18*
X28250000Y-65500000D03*
D26*
X40950000Y-65500000D03*
D18*
X260750000Y-65000000D03*
D26*
X248050000Y-65000000D03*
D13*
X226800000Y-82400000D03*
D14*
X226800000Y-69700000D03*
D27*
X40000000Y-50000000D03*
D28*
X45450000Y-50000000D03*
D29*
X50900000Y-50000000D03*
D27*
X242000000Y-50000000D03*
D28*
X247450000Y-50000000D03*
D29*
X252900000Y-50000000D03*
D27*
X65000000Y-50000000D03*
D28*
X70450000Y-50000000D03*
D29*
X75900000Y-50000000D03*
D27*
X217000000Y-50000000D03*
D28*
X222450000Y-50000000D03*
D29*
X227900000Y-50000000D03*
D27*
X90000000Y-50000000D03*
D28*
X95450000Y-50000000D03*
D29*
X100900000Y-50000000D03*
D27*
X192000000Y-50000000D03*
D28*
X197450000Y-50000000D03*
D29*
X202900000Y-50000000D03*
D27*
X115000000Y-50000000D03*
D28*
X120450000Y-50000000D03*
D29*
X125900000Y-50000000D03*
D27*
X167000000Y-50000000D03*
D28*
X172450000Y-50000000D03*
D29*
X177900000Y-50000000D03*
D30*
X27800000Y-59000000D03*
D31*
X48120000Y-59000000D03*
D30*
X264000000Y-59000000D03*
D31*
X243680000Y-59000000D03*
D30*
X55000000Y-59000000D03*
D31*
X75320000Y-59000000D03*
D30*
X237200000Y-59400000D03*
D31*
X216880000Y-59400000D03*
D30*
X82000000Y-59000000D03*
D31*
X102320000Y-59000000D03*
D30*
X210400000Y-59600000D03*
D31*
X190080000Y-59600000D03*
D30*
X109000000Y-59000000D03*
D31*
X129320000Y-59000000D03*
D30*
X182200000Y-59200000D03*
D31*
X161880000Y-59200000D03*
D32*
X220900000Y-100900000D03*
D33*
X215820000Y-100900000D03*
D32*
X242000000Y-88000000D03*
D33*
X236920000Y-88000000D03*
D32*
X42000000Y-88000000D03*
D33*
X36920000Y-88000000D03*
D34*
X262000000Y-102000000D03*
D35*
X262000000Y-47000000D03*
D34*
X30000000Y-102000000D03*
D35*
X30000000Y-47000000D03*
D32*
X164125000Y-101850000D03*
D33*
X159045000Y-101850000D03*
D17*
X39850000Y-80250000D03*
D18*
X39850000Y-72750000D03*
D17*
X54825000Y-95000000D03*
D18*
X54825000Y-87500000D03*
D17*
X242000000Y-78800000D03*
D18*
X242000000Y-71300000D03*
D17*
X253000000Y-94200000D03*
D18*
X253000000Y-86700000D03*
X130700000Y-72900000D03*
D26*
X115460000Y-72900000D03*
D19*
X158600000Y-91200000D03*
X173600000Y-91200000D03*
D23*
X123450000Y-81750000D03*
D36*
X120910000Y-81750000D03*
X118370000Y-81750000D03*
D23*
X147000000Y-73500000D03*
D36*
X149540000Y-73500000D03*
X152080000Y-73500000D03*
D23*
X169000000Y-79000000D03*
D36*
X166460000Y-79000000D03*
X163920000Y-79000000D03*
D23*
X137000000Y-47500000D03*
D36*
X139540000Y-47500000D03*
X142080000Y-47500000D03*
D23*
X151000000Y-47500000D03*
D36*
X153540000Y-47500000D03*
X156080000Y-47500000D03*
D30*
X209600000Y-82000000D03*
X209600000Y-70570000D03*
D18*
X221000000Y-69400000D03*
D26*
X221000000Y-84640000D03*
D11*
X117460000Y-102800000D03*
X114920000Y-102800000D03*
D12*
X120000000Y-102800000D03*
D11*
X98710000Y-84600000D03*
X96170000Y-84600000D03*
D12*
X101250000Y-84600000D03*
D11*
X97000000Y-99060000D03*
X97000000Y-96520000D03*
D12*
X97000000Y-101600000D03*
D11*
X89400000Y-99060000D03*
X89400000Y-96520000D03*
D12*
X89400000Y-101600000D03*
D11*
X184260000Y-85600000D03*
X181720000Y-85600000D03*
D12*
X186800000Y-85600000D03*
D11*
X104660000Y-98800000D03*
X102120000Y-98800000D03*
D12*
X107200000Y-98800000D03*
D11*
X139740000Y-69100000D03*
X142280000Y-69100000D03*
D12*
X137200000Y-69100000D03*
D11*
X160660000Y-68800000D03*
X158120000Y-68800000D03*
D12*
X163200000Y-68800000D03*
D15*
X28600000Y-71200000D03*
D16*
X28600000Y-78820000D03*
D15*
X248000000Y-100000000D03*
D16*
X255620000Y-100000000D03*
D15*
X28600000Y-81600000D03*
D16*
X28600000Y-89220000D03*
D15*
X248000000Y-103000000D03*
D16*
X255620000Y-103000000D03*
D13*
X65000000Y-104200000D03*
D14*
X65000000Y-94200000D03*
D13*
X193850000Y-101530000D03*
D14*
X206550000Y-101530000D03*
D13*
X121575000Y-92825000D03*
D14*
X131575000Y-92825000D03*
D13*
X134910000Y-92960000D03*
X139910000Y-92960000D03*
X110800000Y-92800000D03*
D14*
X118420000Y-92800000D03*
D37*
X263460000Y-93540000D03*
D38*
X263460000Y-96080000D03*
D37*
X28770000Y-94110000D03*
D38*
X28770000Y-96650000D03*
M02*
