G04 #@! TF.FileFunction,Copper,L1,Top,Signal*
%FSLAX46Y46*%
G04 Gerber Fmt 4.6, Leading zero omitted, Abs format (unit mm)*
G04 Created by KiCad (PCBNEW 4.0.7) date 08/21/20 22:01:03*
%MOMM*%
%LPD*%
G01*
G04 APERTURE LIST*
%ADD10C,0.100000*%
%ADD11R,1.800000X1.800000*%
%ADD12O,1.800000X1.800000*%
%ADD13C,1.600000*%
%ADD14O,1.600000X1.600000*%
%ADD15R,2.000000X2.000000*%
%ADD16C,2.000000*%
%ADD17R,2.400000X2.400000*%
%ADD18C,2.400000*%
%ADD19R,2.200000X2.200000*%
%ADD20O,2.200000X2.200000*%
%ADD21C,1.800000*%
%ADD22R,1.600000X1.600000*%
%ADD23C,1.000000*%
%ADD24R,1.000000X1.000000*%
%ADD25C,1.440000*%
%ADD26O,2.400000X2.400000*%
%ADD27R,4.300000X5.000000*%
%ADD28R,3.000000X5.000000*%
%ADD29R,4.300000X4.500000*%
%ADD30O,2.500000X4.500000*%
%ADD31O,4.300000X4.500000*%
%ADD32C,2.800000*%
%ADD33O,2.800000X2.800000*%
%ADD34R,3.000000X3.000000*%
%ADD35C,3.000000*%
%ADD36C,5.500000*%
%ADD37C,4.064000*%
%ADD38C,2.200000*%
%ADD39C,2.000000*%
%ADD40C,0.500000*%
%ADD41C,4.000000*%
G04 APERTURE END LIST*
D10*
D11*
X151000000Y-47500000D03*
D12*
X153540000Y-47500000D03*
X156080000Y-47500000D03*
D13*
X184000000Y-69000000D03*
D14*
X176380000Y-69000000D03*
D11*
X153000000Y-73000000D03*
D12*
X150460000Y-73000000D03*
X147920000Y-73000000D03*
D13*
X145250000Y-92750000D03*
D14*
X155250000Y-92750000D03*
D13*
X130900000Y-95250000D03*
D14*
X123400000Y-95250000D03*
D13*
X96000000Y-86000000D03*
D14*
X103500000Y-86000000D03*
D13*
X90000000Y-102000000D03*
X90000000Y-97000000D03*
X182000000Y-80000000D03*
X182000000Y-85000000D03*
X85500000Y-101000000D03*
X80500000Y-101000000D03*
D15*
X54250000Y-98750000D03*
D16*
X54250000Y-93750000D03*
D15*
X54250000Y-82750000D03*
D16*
X54250000Y-87750000D03*
D13*
X116575000Y-93300000D03*
X116575000Y-88300000D03*
X152600000Y-85575000D03*
D14*
X142600000Y-85575000D03*
D13*
X48000000Y-73500000D03*
D14*
X58000000Y-73500000D03*
D17*
X81000000Y-71000000D03*
D18*
X81000000Y-78500000D03*
D13*
X92500000Y-68500000D03*
D14*
X92500000Y-78500000D03*
D17*
X209500000Y-78500000D03*
D18*
X209500000Y-71000000D03*
D13*
X221000000Y-69000000D03*
D14*
X221000000Y-79000000D03*
D19*
X87500000Y-93000000D03*
D20*
X79880000Y-93000000D03*
D11*
X186500000Y-81000000D03*
D21*
X186500000Y-83540000D03*
D22*
X142000000Y-68750000D03*
D14*
X142000000Y-61130000D03*
D22*
X155250000Y-61250000D03*
D14*
X155250000Y-68870000D03*
D19*
X47000000Y-70000000D03*
D20*
X54620000Y-70000000D03*
D19*
X198500000Y-68500000D03*
D20*
X198500000Y-76120000D03*
D23*
X115770000Y-97230000D03*
X117040000Y-98500000D03*
D24*
X114500000Y-98500000D03*
D23*
X106770000Y-100730000D03*
X108040000Y-102000000D03*
D24*
X105500000Y-102000000D03*
D23*
X103230000Y-81230000D03*
X104500000Y-79960000D03*
D24*
X104500000Y-82500000D03*
D23*
X96230000Y-81230000D03*
X97500000Y-79960000D03*
D24*
X97500000Y-82500000D03*
D23*
X105770000Y-94770000D03*
X104500000Y-96040000D03*
D24*
X104500000Y-93500000D03*
D23*
X96770000Y-94770000D03*
X95500000Y-96040000D03*
D24*
X95500000Y-93500000D03*
D23*
X182730000Y-92230000D03*
X184000000Y-90960000D03*
D24*
X184000000Y-93500000D03*
D23*
X111230000Y-90270000D03*
X109960000Y-89000000D03*
D24*
X112500000Y-89000000D03*
D23*
X113005000Y-80505000D03*
X114275000Y-79235000D03*
D24*
X114275000Y-81775000D03*
D11*
X126500000Y-86875000D03*
D12*
X126500000Y-84335000D03*
X126500000Y-81795000D03*
D11*
X161000000Y-80000000D03*
D12*
X163540000Y-80000000D03*
X166080000Y-80000000D03*
D23*
X137730000Y-72270000D03*
X136460000Y-71000000D03*
D24*
X139000000Y-71000000D03*
D23*
X161770000Y-68480000D03*
X163040000Y-69750000D03*
D24*
X160500000Y-69750000D03*
D11*
X137000000Y-47500000D03*
D12*
X139540000Y-47500000D03*
X142080000Y-47500000D03*
D13*
X123300000Y-98375000D03*
D14*
X130920000Y-98375000D03*
D13*
X134000000Y-93250000D03*
D14*
X141620000Y-93250000D03*
D13*
X101000000Y-76000000D03*
D14*
X101000000Y-68380000D03*
D13*
X96000000Y-76000000D03*
D14*
X96000000Y-68380000D03*
D13*
X103500000Y-89500000D03*
D14*
X95880000Y-89500000D03*
D13*
X134620000Y-101600000D03*
D14*
X127000000Y-101600000D03*
D13*
X134620000Y-104140000D03*
D14*
X127000000Y-104140000D03*
D13*
X154500000Y-97000000D03*
D14*
X146880000Y-97000000D03*
D13*
X154500000Y-103500000D03*
D14*
X146880000Y-103500000D03*
D25*
X141500000Y-102500000D03*
X141500000Y-99960000D03*
X141500000Y-97420000D03*
D18*
X178500000Y-91000000D03*
D26*
X178500000Y-103700000D03*
D13*
X177500000Y-79500000D03*
D14*
X177500000Y-87120000D03*
D18*
X90000000Y-87250000D03*
D26*
X77300000Y-87250000D03*
D13*
X79500000Y-97500000D03*
D14*
X87120000Y-97500000D03*
D13*
X66750000Y-93500000D03*
D14*
X74370000Y-93500000D03*
D13*
X190500000Y-91500000D03*
D14*
X190500000Y-104200000D03*
D13*
X105000000Y-76000000D03*
D14*
X105000000Y-68380000D03*
D13*
X112750000Y-76000000D03*
D14*
X112750000Y-68380000D03*
D13*
X109000000Y-76000000D03*
D14*
X109000000Y-68380000D03*
D13*
X116950000Y-85000000D03*
D14*
X109330000Y-85000000D03*
D13*
X140500000Y-75250000D03*
D14*
X140500000Y-82870000D03*
D25*
X136250000Y-84750000D03*
X136250000Y-82210000D03*
X136250000Y-79670000D03*
D13*
X152325000Y-89000000D03*
D14*
X144705000Y-89000000D03*
D13*
X173750000Y-68500000D03*
D14*
X173750000Y-76120000D03*
D13*
X128250000Y-69000000D03*
D14*
X120630000Y-69000000D03*
D18*
X193000000Y-73000000D03*
D26*
X177760000Y-73000000D03*
D13*
X133250000Y-69000000D03*
D14*
X133250000Y-61380000D03*
D13*
X186750000Y-69250000D03*
D14*
X186750000Y-61630000D03*
D18*
X28250000Y-65500000D03*
D26*
X40950000Y-65500000D03*
D18*
X260750000Y-65000000D03*
D26*
X248050000Y-65000000D03*
D13*
X58000000Y-77500000D03*
D14*
X45300000Y-77500000D03*
D27*
X50968000Y-45428000D03*
D28*
X45588000Y-45428000D03*
D29*
X40000000Y-50000000D03*
D30*
X45450000Y-50000000D03*
D31*
X50900000Y-50000000D03*
D27*
X40000000Y-45428000D03*
X252968000Y-45428000D03*
D28*
X247588000Y-45428000D03*
D29*
X242000000Y-50000000D03*
D30*
X247450000Y-50000000D03*
D31*
X252900000Y-50000000D03*
D27*
X242000000Y-45428000D03*
X75968000Y-45428000D03*
D28*
X70588000Y-45428000D03*
D29*
X65000000Y-50000000D03*
D30*
X70450000Y-50000000D03*
D31*
X75900000Y-50000000D03*
D27*
X65000000Y-45428000D03*
X227968000Y-45428000D03*
D28*
X222588000Y-45428000D03*
D29*
X217000000Y-50000000D03*
D30*
X222450000Y-50000000D03*
D31*
X227900000Y-50000000D03*
D27*
X217000000Y-45428000D03*
X100968000Y-45428000D03*
D28*
X95588000Y-45428000D03*
D29*
X90000000Y-50000000D03*
D30*
X95450000Y-50000000D03*
D31*
X100900000Y-50000000D03*
D27*
X90000000Y-45428000D03*
X202968000Y-45428000D03*
D28*
X197588000Y-45428000D03*
D29*
X192000000Y-50000000D03*
D30*
X197450000Y-50000000D03*
D31*
X202900000Y-50000000D03*
D27*
X192000000Y-45428000D03*
X125968000Y-45428000D03*
D28*
X120588000Y-45428000D03*
D29*
X115000000Y-50000000D03*
D30*
X120450000Y-50000000D03*
D31*
X125900000Y-50000000D03*
D27*
X115000000Y-45428000D03*
X177968000Y-45428000D03*
D28*
X172588000Y-45428000D03*
D29*
X167000000Y-50000000D03*
D30*
X172450000Y-50000000D03*
D31*
X177900000Y-50000000D03*
D27*
X167000000Y-45428000D03*
D32*
X29000000Y-59000000D03*
D33*
X49320000Y-59000000D03*
D32*
X264000000Y-59000000D03*
D33*
X243680000Y-59000000D03*
D32*
X55000000Y-59000000D03*
D33*
X75320000Y-59000000D03*
D32*
X236000000Y-59000000D03*
D33*
X215680000Y-59000000D03*
D32*
X82000000Y-59000000D03*
D33*
X102320000Y-59000000D03*
D32*
X210000000Y-59000000D03*
D33*
X189680000Y-59000000D03*
D32*
X109000000Y-59000000D03*
D33*
X129320000Y-59000000D03*
D32*
X184000000Y-59000000D03*
D33*
X163680000Y-59000000D03*
D34*
X247750000Y-74500000D03*
D35*
X252830000Y-74500000D03*
D34*
X231000000Y-74750000D03*
D35*
X236080000Y-74750000D03*
D34*
X64000000Y-71000000D03*
D35*
X69080000Y-71000000D03*
D36*
X263000000Y-103000000D03*
D37*
X263000000Y-46000000D03*
D36*
X29000000Y-103000000D03*
D37*
X29000000Y-46000000D03*
D34*
X163500000Y-101750000D03*
D35*
X168580000Y-101750000D03*
D38*
X163460000Y-93290000D03*
X163460000Y-88210000D03*
X168540000Y-88210000D03*
X168540000Y-93290000D03*
D16*
X166000000Y-90750000D03*
D17*
X35750000Y-75000000D03*
D18*
X35750000Y-82500000D03*
D17*
X39500000Y-90500000D03*
D18*
X39500000Y-98000000D03*
D17*
X220000000Y-89500000D03*
D18*
X212500000Y-89500000D03*
D17*
X197250000Y-89500000D03*
D18*
X204750000Y-89500000D03*
X132500000Y-73500000D03*
D26*
X117260000Y-73500000D03*
D13*
X263000000Y-92250000D03*
X263000000Y-97250000D03*
X29000000Y-92500000D03*
X29000000Y-97500000D03*
D39*
X247450000Y-50000000D02*
X247450000Y-45566000D01*
X247450000Y-45566000D02*
X247588000Y-45428000D01*
X222450000Y-50000000D02*
X222450000Y-45566000D01*
X222450000Y-45566000D02*
X222588000Y-45428000D01*
X197450000Y-50000000D02*
X197450000Y-45566000D01*
X197450000Y-45566000D02*
X197588000Y-45428000D01*
X172450000Y-50000000D02*
X172450000Y-45566000D01*
X172450000Y-45566000D02*
X172588000Y-45428000D01*
D40*
X120630000Y-69000000D02*
X120630000Y-65000000D01*
X119500000Y-66000000D02*
X119500000Y-65000000D01*
X119630000Y-66000000D02*
X119500000Y-66000000D01*
X120630000Y-65000000D02*
X119630000Y-66000000D01*
X184000000Y-69000000D02*
X184000000Y-65000000D01*
X184000000Y-65000000D02*
X184000000Y-65750000D01*
X184000000Y-65750000D02*
X184000000Y-65000000D01*
X163040000Y-69750000D02*
X163040000Y-68960000D01*
X163680000Y-68320000D02*
X163680000Y-65000000D01*
X163040000Y-68960000D02*
X163680000Y-68320000D01*
D41*
X190680000Y-58750000D02*
X190680000Y-59430000D01*
X190680000Y-59430000D02*
X195000000Y-65000000D01*
D39*
X198500000Y-68500000D02*
X201500000Y-65000000D01*
X201500000Y-65000000D02*
X201500000Y-63500000D01*
X201500000Y-63500000D02*
X201500000Y-65000000D01*
X54620000Y-70000000D02*
X55620000Y-65620000D01*
X55620000Y-65620000D02*
X55000000Y-65000000D01*
D41*
X247750000Y-74500000D02*
X242500000Y-68250000D01*
X242500000Y-68250000D02*
X239250000Y-65000000D01*
D39*
X58000000Y-73500000D02*
X58500000Y-65000000D01*
X58500000Y-65000000D02*
X58000000Y-64500000D01*
X58000000Y-64500000D02*
X58000000Y-65000000D01*
D40*
X136460000Y-71000000D02*
X136460000Y-65000000D01*
X136460000Y-65000000D02*
X136250000Y-65000000D01*
D39*
X29000000Y-59000000D02*
X29000000Y-64750000D01*
X29000000Y-64750000D02*
X28250000Y-65500000D01*
X29000000Y-59000000D02*
X39500000Y-59000000D01*
X39500000Y-59000000D02*
X45500000Y-65000000D01*
X243680000Y-59000000D02*
X242680000Y-61570000D01*
X242680000Y-61570000D02*
X239250000Y-65000000D01*
X248050000Y-65000000D02*
X241000000Y-65000000D01*
D41*
X55000000Y-59000000D02*
X55000000Y-65000000D01*
X55000000Y-65000000D02*
X53000000Y-65000000D01*
X82000000Y-59000000D02*
X76000000Y-65000000D01*
X80000000Y-64000000D02*
X80000000Y-65000000D01*
X79000000Y-65000000D02*
X80000000Y-64000000D01*
X76000000Y-65000000D02*
X79000000Y-65000000D01*
X109000000Y-59000000D02*
X109000000Y-61000000D01*
X109000000Y-61000000D02*
X105000000Y-65000000D01*
X163680000Y-59000000D02*
X163680000Y-65000000D01*
X163000000Y-64000000D02*
X163000000Y-65000000D01*
X163000000Y-64320000D02*
X163000000Y-64000000D01*
X163680000Y-65000000D02*
X163000000Y-64320000D01*
X215680000Y-59000000D02*
X215680000Y-65000000D01*
X216000000Y-64000000D02*
X216000000Y-65000000D01*
X216000000Y-64680000D02*
X216000000Y-64000000D01*
X215680000Y-65000000D02*
X216000000Y-64680000D01*
X45500000Y-65000000D02*
X53000000Y-65000000D01*
X53000000Y-65000000D02*
X58000000Y-65000000D01*
X58000000Y-65000000D02*
X80000000Y-65000000D01*
X80000000Y-65000000D02*
X100000000Y-65000000D01*
X100000000Y-65000000D02*
X105000000Y-65000000D01*
X105000000Y-65000000D02*
X119500000Y-65000000D01*
X119500000Y-65000000D02*
X122250000Y-65000000D01*
X122250000Y-65000000D02*
X125500000Y-65000000D01*
X125500000Y-65000000D02*
X136250000Y-65000000D01*
X136250000Y-65000000D02*
X159750000Y-65000000D01*
X159750000Y-65000000D02*
X163000000Y-65000000D01*
X163000000Y-65000000D02*
X177250000Y-65000000D01*
X177250000Y-65000000D02*
X184000000Y-65000000D01*
X184000000Y-65000000D02*
X190000000Y-65000000D01*
X190000000Y-65000000D02*
X195000000Y-65000000D01*
X195000000Y-65000000D02*
X201500000Y-65000000D01*
X201500000Y-65000000D02*
X216000000Y-65000000D01*
X216000000Y-65000000D02*
X239250000Y-65000000D01*
X239250000Y-65000000D02*
X241000000Y-65000000D01*
D40*
X156080000Y-47500000D02*
X156080000Y-60420000D01*
X156080000Y-60420000D02*
X155250000Y-61250000D01*
D39*
X48000000Y-73500000D02*
X48000000Y-73000000D01*
X48000000Y-73000000D02*
X45300000Y-77500000D01*
X120588000Y-45428000D02*
X120588000Y-49862000D01*
X120588000Y-49862000D02*
X120450000Y-50000000D01*
X95450000Y-50000000D02*
X95450000Y-45566000D01*
X95450000Y-45566000D02*
X95588000Y-45428000D01*
X70450000Y-50000000D02*
X70450000Y-45566000D01*
X70450000Y-45566000D02*
X70588000Y-45428000D01*
X45450000Y-50000000D02*
X45450000Y-45566000D01*
X45450000Y-45566000D02*
X45588000Y-45428000D01*
X115000000Y-50000000D02*
X115000000Y-45428000D01*
X90000000Y-50000000D02*
X90000000Y-45428000D01*
X65000000Y-50000000D02*
X65000000Y-45428000D01*
X40000000Y-50000000D02*
X40000000Y-45428000D01*
X242000000Y-50000000D02*
X242000000Y-45428000D01*
X217000000Y-50000000D02*
X217000000Y-45428000D01*
X242000000Y-50000000D02*
X242000000Y-51250000D01*
X242000000Y-51250000D02*
X247500000Y-55500000D01*
X252750000Y-58500000D02*
X260750000Y-65000000D01*
X247500000Y-55500000D02*
X252750000Y-58500000D01*
X192000000Y-50000000D02*
X192000000Y-45428000D01*
X167000000Y-50000000D02*
X167000000Y-45428000D01*
X50900000Y-50000000D02*
X50900000Y-57420000D01*
X50900000Y-57420000D02*
X49320000Y-59000000D01*
X50900000Y-50000000D02*
X50900000Y-45496000D01*
X50900000Y-45496000D02*
X50968000Y-45428000D01*
X252900000Y-50000000D02*
X254000000Y-50000000D01*
X254000000Y-50000000D02*
X264000000Y-59000000D01*
X252900000Y-50000000D02*
X252900000Y-45496000D01*
X252900000Y-45496000D02*
X252968000Y-45428000D01*
X75900000Y-50000000D02*
X75900000Y-58420000D01*
X75900000Y-58420000D02*
X75320000Y-59000000D01*
X75900000Y-50000000D02*
X75900000Y-45496000D01*
X75900000Y-45496000D02*
X75968000Y-45428000D01*
X227900000Y-50000000D02*
X227900000Y-45496000D01*
X227900000Y-45496000D02*
X227968000Y-45428000D01*
X227900000Y-50000000D02*
X227900000Y-50900000D01*
X227900000Y-50900000D02*
X236000000Y-59000000D01*
X100900000Y-50000000D02*
X100900000Y-57580000D01*
X100900000Y-57580000D02*
X102320000Y-59000000D01*
X100900000Y-50000000D02*
X100900000Y-45496000D01*
X100900000Y-45496000D02*
X100968000Y-45428000D01*
X202900000Y-50000000D02*
X202900000Y-51900000D01*
X202900000Y-51900000D02*
X210000000Y-59000000D01*
X202900000Y-50000000D02*
X202900000Y-45496000D01*
X202900000Y-45496000D02*
X202968000Y-45428000D01*
D40*
X129320000Y-59000000D02*
X130870000Y-59000000D01*
X130870000Y-59000000D02*
X133250000Y-61380000D01*
D39*
X125900000Y-50000000D02*
X125900000Y-55580000D01*
X125900000Y-55580000D02*
X129320000Y-59000000D01*
X125900000Y-50000000D02*
X125900000Y-45496000D01*
X125900000Y-45496000D02*
X125968000Y-45428000D01*
D40*
X184000000Y-59000000D02*
X184120000Y-59000000D01*
X184120000Y-59000000D02*
X186750000Y-61630000D01*
D39*
X177900000Y-50000000D02*
X177900000Y-52900000D01*
X177900000Y-52900000D02*
X184000000Y-59000000D01*
X177900000Y-50000000D02*
X177900000Y-45496000D01*
X177900000Y-45496000D02*
X177968000Y-45428000D01*
D40*
G36*
X163575512Y-52250000D02*
X163662673Y-52713222D01*
X163936437Y-53138663D01*
X164354153Y-53424076D01*
X164850000Y-53524488D01*
X169150000Y-53524488D01*
X169613222Y-53437327D01*
X170038663Y-53163563D01*
X170324076Y-52745847D01*
X170393314Y-52403939D01*
X170682233Y-52836336D01*
X171493291Y-53378268D01*
X172450000Y-53568569D01*
X173406709Y-53378268D01*
X174217767Y-52836336D01*
X174759699Y-52025278D01*
X174844656Y-51598170D01*
X175495837Y-52572732D01*
X175650000Y-52675740D01*
X175650000Y-52900000D01*
X175821271Y-53761038D01*
X176309010Y-54490990D01*
X181354270Y-59536250D01*
X181752129Y-60499144D01*
X182496935Y-61245251D01*
X183470570Y-61649539D01*
X184524805Y-61650459D01*
X184612786Y-61614106D01*
X184707737Y-61709057D01*
X184856047Y-62454663D01*
X185300431Y-63119731D01*
X185965499Y-63564115D01*
X186750000Y-63720162D01*
X187534501Y-63564115D01*
X188199569Y-63119731D01*
X188643953Y-62454663D01*
X188800000Y-61670162D01*
X188800000Y-61589838D01*
X188663120Y-60901696D01*
X188669280Y-60906716D01*
X188980000Y-60851853D01*
X188980000Y-59700000D01*
X190380000Y-59700000D01*
X190380000Y-60851853D01*
X190690720Y-60906716D01*
X191343452Y-60374790D01*
X191586678Y-60010714D01*
X191519835Y-59700000D01*
X190380000Y-59700000D01*
X188980000Y-59700000D01*
X187840165Y-59700000D01*
X187802524Y-59874972D01*
X187534501Y-59695885D01*
X186788895Y-59547575D01*
X186649645Y-59408325D01*
X186650459Y-58475195D01*
X186449686Y-57989286D01*
X187773322Y-57989286D01*
X187840165Y-58300000D01*
X188980000Y-58300000D01*
X188980000Y-57148147D01*
X190380000Y-57148147D01*
X190380000Y-58300000D01*
X191519835Y-58300000D01*
X191586678Y-57989286D01*
X191343452Y-57625210D01*
X190690720Y-57093284D01*
X190380000Y-57148147D01*
X188980000Y-57148147D01*
X188669280Y-57093284D01*
X188016548Y-57625210D01*
X187773322Y-57989286D01*
X186449686Y-57989286D01*
X186247871Y-57500856D01*
X185503065Y-56754749D01*
X184534579Y-56352599D01*
X180484628Y-52302648D01*
X181041190Y-51469693D01*
X181283802Y-50250000D01*
X188575512Y-50250000D01*
X188575512Y-52250000D01*
X188662673Y-52713222D01*
X188936437Y-53138663D01*
X189354153Y-53424076D01*
X189850000Y-53524488D01*
X194150000Y-53524488D01*
X194613222Y-53437327D01*
X195038663Y-53163563D01*
X195324076Y-52745847D01*
X195393314Y-52403939D01*
X195682233Y-52836336D01*
X196493291Y-53378268D01*
X197450000Y-53568569D01*
X198406709Y-53378268D01*
X199217767Y-52836336D01*
X199759699Y-52025278D01*
X199844656Y-51598170D01*
X200495837Y-52572732D01*
X200856449Y-52813685D01*
X201309010Y-53490990D01*
X207354270Y-59536250D01*
X207752129Y-60499144D01*
X208496935Y-61245251D01*
X209470570Y-61649539D01*
X210524805Y-61650459D01*
X211499144Y-61247871D01*
X212245251Y-60503065D01*
X212449692Y-60010714D01*
X213773322Y-60010714D01*
X214016548Y-60374790D01*
X214669280Y-60906716D01*
X214980000Y-60851853D01*
X214980000Y-59700000D01*
X216380000Y-59700000D01*
X216380000Y-60851853D01*
X216690720Y-60906716D01*
X217343452Y-60374790D01*
X217586678Y-60010714D01*
X217519835Y-59700000D01*
X216380000Y-59700000D01*
X214980000Y-59700000D01*
X213840165Y-59700000D01*
X213773322Y-60010714D01*
X212449692Y-60010714D01*
X212649539Y-59529430D01*
X212650459Y-58475195D01*
X212449686Y-57989286D01*
X213773322Y-57989286D01*
X213840165Y-58300000D01*
X214980000Y-58300000D01*
X214980000Y-57148147D01*
X216380000Y-57148147D01*
X216380000Y-58300000D01*
X217519835Y-58300000D01*
X217586678Y-57989286D01*
X217343452Y-57625210D01*
X216690720Y-57093284D01*
X216380000Y-57148147D01*
X214980000Y-57148147D01*
X214669280Y-57093284D01*
X214016548Y-57625210D01*
X213773322Y-57989286D01*
X212449686Y-57989286D01*
X212247871Y-57500856D01*
X211503065Y-56754749D01*
X210534579Y-56352599D01*
X205885171Y-51703191D01*
X206041190Y-51469693D01*
X206283802Y-50250000D01*
X213575512Y-50250000D01*
X213575512Y-52250000D01*
X213662673Y-52713222D01*
X213936437Y-53138663D01*
X214354153Y-53424076D01*
X214850000Y-53524488D01*
X219150000Y-53524488D01*
X219613222Y-53437327D01*
X220038663Y-53163563D01*
X220324076Y-52745847D01*
X220393314Y-52403939D01*
X220682233Y-52836336D01*
X221493291Y-53378268D01*
X222450000Y-53568569D01*
X223406709Y-53378268D01*
X224217767Y-52836336D01*
X224759699Y-52025278D01*
X224844656Y-51598170D01*
X225495837Y-52572732D01*
X226598876Y-53309759D01*
X227259107Y-53441087D01*
X233354270Y-59536250D01*
X233752129Y-60499144D01*
X234496935Y-61245251D01*
X235470570Y-61649539D01*
X236524805Y-61650459D01*
X237499144Y-61247871D01*
X238245251Y-60503065D01*
X238449692Y-60010714D01*
X241773322Y-60010714D01*
X242016548Y-60374790D01*
X242669280Y-60906716D01*
X242980000Y-60851853D01*
X242980000Y-59700000D01*
X244380000Y-59700000D01*
X244380000Y-60851853D01*
X244690720Y-60906716D01*
X245343452Y-60374790D01*
X245586678Y-60010714D01*
X245519835Y-59700000D01*
X244380000Y-59700000D01*
X242980000Y-59700000D01*
X241840165Y-59700000D01*
X241773322Y-60010714D01*
X238449692Y-60010714D01*
X238649539Y-59529430D01*
X238650459Y-58475195D01*
X238449686Y-57989286D01*
X241773322Y-57989286D01*
X241840165Y-58300000D01*
X242980000Y-58300000D01*
X242980000Y-57148147D01*
X244380000Y-57148147D01*
X244380000Y-58300000D01*
X245519835Y-58300000D01*
X245586678Y-57989286D01*
X245343452Y-57625210D01*
X244690720Y-57093284D01*
X244380000Y-57148147D01*
X242980000Y-57148147D01*
X242669280Y-57093284D01*
X242016548Y-57625210D01*
X241773322Y-57989286D01*
X238449686Y-57989286D01*
X238247871Y-57500856D01*
X237503065Y-56754749D01*
X236534579Y-56352599D01*
X231142476Y-50960496D01*
X231283802Y-50250000D01*
X238575512Y-50250000D01*
X238575512Y-52250000D01*
X238662673Y-52713222D01*
X238936437Y-53138663D01*
X239354153Y-53424076D01*
X239850000Y-53524488D01*
X241263663Y-53524488D01*
X246124243Y-57280391D01*
X246265017Y-57350407D01*
X246383687Y-57453547D01*
X249750000Y-59377154D01*
X249750000Y-63749998D01*
X249552596Y-63749998D01*
X249535438Y-63724315D01*
X248934182Y-63252968D01*
X248650000Y-63325660D01*
X248650000Y-64400000D01*
X249250000Y-64400000D01*
X249250000Y-65600000D01*
X248650000Y-65600000D01*
X248650000Y-65750000D01*
X247450000Y-65750000D01*
X247450000Y-65600000D01*
X246386392Y-65600000D01*
X246342376Y-65750000D01*
X160250000Y-65750000D01*
X160250000Y-64115824D01*
X246303003Y-64115824D01*
X246386392Y-64400000D01*
X247450000Y-64400000D01*
X247450000Y-63325660D01*
X247165818Y-63252968D01*
X246564562Y-63724315D01*
X246303003Y-64115824D01*
X160250000Y-64115824D01*
X160250000Y-60010714D01*
X161773322Y-60010714D01*
X162016548Y-60374790D01*
X162669280Y-60906716D01*
X162980000Y-60851853D01*
X162980000Y-59700000D01*
X164380000Y-59700000D01*
X164380000Y-60851853D01*
X164690720Y-60906716D01*
X165343452Y-60374790D01*
X165586678Y-60010714D01*
X165519835Y-59700000D01*
X164380000Y-59700000D01*
X162980000Y-59700000D01*
X161840165Y-59700000D01*
X161773322Y-60010714D01*
X160250000Y-60010714D01*
X160250000Y-57989286D01*
X161773322Y-57989286D01*
X161840165Y-58300000D01*
X162980000Y-58300000D01*
X162980000Y-57148147D01*
X164380000Y-57148147D01*
X164380000Y-58300000D01*
X165519835Y-58300000D01*
X165586678Y-57989286D01*
X165343452Y-57625210D01*
X164690720Y-57093284D01*
X164380000Y-57148147D01*
X162980000Y-57148147D01*
X162669280Y-57093284D01*
X162016548Y-57625210D01*
X161773322Y-57989286D01*
X160250000Y-57989286D01*
X160250000Y-50250000D01*
X163575512Y-50250000D01*
X163575512Y-52250000D01*
X163575512Y-52250000D01*
G37*
X163575512Y-52250000D02*
X163662673Y-52713222D01*
X163936437Y-53138663D01*
X164354153Y-53424076D01*
X164850000Y-53524488D01*
X169150000Y-53524488D01*
X169613222Y-53437327D01*
X170038663Y-53163563D01*
X170324076Y-52745847D01*
X170393314Y-52403939D01*
X170682233Y-52836336D01*
X171493291Y-53378268D01*
X172450000Y-53568569D01*
X173406709Y-53378268D01*
X174217767Y-52836336D01*
X174759699Y-52025278D01*
X174844656Y-51598170D01*
X175495837Y-52572732D01*
X175650000Y-52675740D01*
X175650000Y-52900000D01*
X175821271Y-53761038D01*
X176309010Y-54490990D01*
X181354270Y-59536250D01*
X181752129Y-60499144D01*
X182496935Y-61245251D01*
X183470570Y-61649539D01*
X184524805Y-61650459D01*
X184612786Y-61614106D01*
X184707737Y-61709057D01*
X184856047Y-62454663D01*
X185300431Y-63119731D01*
X185965499Y-63564115D01*
X186750000Y-63720162D01*
X187534501Y-63564115D01*
X188199569Y-63119731D01*
X188643953Y-62454663D01*
X188800000Y-61670162D01*
X188800000Y-61589838D01*
X188663120Y-60901696D01*
X188669280Y-60906716D01*
X188980000Y-60851853D01*
X188980000Y-59700000D01*
X190380000Y-59700000D01*
X190380000Y-60851853D01*
X190690720Y-60906716D01*
X191343452Y-60374790D01*
X191586678Y-60010714D01*
X191519835Y-59700000D01*
X190380000Y-59700000D01*
X188980000Y-59700000D01*
X187840165Y-59700000D01*
X187802524Y-59874972D01*
X187534501Y-59695885D01*
X186788895Y-59547575D01*
X186649645Y-59408325D01*
X186650459Y-58475195D01*
X186449686Y-57989286D01*
X187773322Y-57989286D01*
X187840165Y-58300000D01*
X188980000Y-58300000D01*
X188980000Y-57148147D01*
X190380000Y-57148147D01*
X190380000Y-58300000D01*
X191519835Y-58300000D01*
X191586678Y-57989286D01*
X191343452Y-57625210D01*
X190690720Y-57093284D01*
X190380000Y-57148147D01*
X188980000Y-57148147D01*
X188669280Y-57093284D01*
X188016548Y-57625210D01*
X187773322Y-57989286D01*
X186449686Y-57989286D01*
X186247871Y-57500856D01*
X185503065Y-56754749D01*
X184534579Y-56352599D01*
X180484628Y-52302648D01*
X181041190Y-51469693D01*
X181283802Y-50250000D01*
X188575512Y-50250000D01*
X188575512Y-52250000D01*
X188662673Y-52713222D01*
X188936437Y-53138663D01*
X189354153Y-53424076D01*
X189850000Y-53524488D01*
X194150000Y-53524488D01*
X194613222Y-53437327D01*
X195038663Y-53163563D01*
X195324076Y-52745847D01*
X195393314Y-52403939D01*
X195682233Y-52836336D01*
X196493291Y-53378268D01*
X197450000Y-53568569D01*
X198406709Y-53378268D01*
X199217767Y-52836336D01*
X199759699Y-52025278D01*
X199844656Y-51598170D01*
X200495837Y-52572732D01*
X200856449Y-52813685D01*
X201309010Y-53490990D01*
X207354270Y-59536250D01*
X207752129Y-60499144D01*
X208496935Y-61245251D01*
X209470570Y-61649539D01*
X210524805Y-61650459D01*
X211499144Y-61247871D01*
X212245251Y-60503065D01*
X212449692Y-60010714D01*
X213773322Y-60010714D01*
X214016548Y-60374790D01*
X214669280Y-60906716D01*
X214980000Y-60851853D01*
X214980000Y-59700000D01*
X216380000Y-59700000D01*
X216380000Y-60851853D01*
X216690720Y-60906716D01*
X217343452Y-60374790D01*
X217586678Y-60010714D01*
X217519835Y-59700000D01*
X216380000Y-59700000D01*
X214980000Y-59700000D01*
X213840165Y-59700000D01*
X213773322Y-60010714D01*
X212449692Y-60010714D01*
X212649539Y-59529430D01*
X212650459Y-58475195D01*
X212449686Y-57989286D01*
X213773322Y-57989286D01*
X213840165Y-58300000D01*
X214980000Y-58300000D01*
X214980000Y-57148147D01*
X216380000Y-57148147D01*
X216380000Y-58300000D01*
X217519835Y-58300000D01*
X217586678Y-57989286D01*
X217343452Y-57625210D01*
X216690720Y-57093284D01*
X216380000Y-57148147D01*
X214980000Y-57148147D01*
X214669280Y-57093284D01*
X214016548Y-57625210D01*
X213773322Y-57989286D01*
X212449686Y-57989286D01*
X212247871Y-57500856D01*
X211503065Y-56754749D01*
X210534579Y-56352599D01*
X205885171Y-51703191D01*
X206041190Y-51469693D01*
X206283802Y-50250000D01*
X213575512Y-50250000D01*
X213575512Y-52250000D01*
X213662673Y-52713222D01*
X213936437Y-53138663D01*
X214354153Y-53424076D01*
X214850000Y-53524488D01*
X219150000Y-53524488D01*
X219613222Y-53437327D01*
X220038663Y-53163563D01*
X220324076Y-52745847D01*
X220393314Y-52403939D01*
X220682233Y-52836336D01*
X221493291Y-53378268D01*
X222450000Y-53568569D01*
X223406709Y-53378268D01*
X224217767Y-52836336D01*
X224759699Y-52025278D01*
X224844656Y-51598170D01*
X225495837Y-52572732D01*
X226598876Y-53309759D01*
X227259107Y-53441087D01*
X233354270Y-59536250D01*
X233752129Y-60499144D01*
X234496935Y-61245251D01*
X235470570Y-61649539D01*
X236524805Y-61650459D01*
X237499144Y-61247871D01*
X238245251Y-60503065D01*
X238449692Y-60010714D01*
X241773322Y-60010714D01*
X242016548Y-60374790D01*
X242669280Y-60906716D01*
X242980000Y-60851853D01*
X242980000Y-59700000D01*
X244380000Y-59700000D01*
X244380000Y-60851853D01*
X244690720Y-60906716D01*
X245343452Y-60374790D01*
X245586678Y-60010714D01*
X245519835Y-59700000D01*
X244380000Y-59700000D01*
X242980000Y-59700000D01*
X241840165Y-59700000D01*
X241773322Y-60010714D01*
X238449692Y-60010714D01*
X238649539Y-59529430D01*
X238650459Y-58475195D01*
X238449686Y-57989286D01*
X241773322Y-57989286D01*
X241840165Y-58300000D01*
X242980000Y-58300000D01*
X242980000Y-57148147D01*
X244380000Y-57148147D01*
X244380000Y-58300000D01*
X245519835Y-58300000D01*
X245586678Y-57989286D01*
X245343452Y-57625210D01*
X244690720Y-57093284D01*
X244380000Y-57148147D01*
X242980000Y-57148147D01*
X242669280Y-57093284D01*
X242016548Y-57625210D01*
X241773322Y-57989286D01*
X238449686Y-57989286D01*
X238247871Y-57500856D01*
X237503065Y-56754749D01*
X236534579Y-56352599D01*
X231142476Y-50960496D01*
X231283802Y-50250000D01*
X238575512Y-50250000D01*
X238575512Y-52250000D01*
X238662673Y-52713222D01*
X238936437Y-53138663D01*
X239354153Y-53424076D01*
X239850000Y-53524488D01*
X241263663Y-53524488D01*
X246124243Y-57280391D01*
X246265017Y-57350407D01*
X246383687Y-57453547D01*
X249750000Y-59377154D01*
X249750000Y-63749998D01*
X249552596Y-63749998D01*
X249535438Y-63724315D01*
X248934182Y-63252968D01*
X248650000Y-63325660D01*
X248650000Y-64400000D01*
X249250000Y-64400000D01*
X249250000Y-65600000D01*
X248650000Y-65600000D01*
X248650000Y-65750000D01*
X247450000Y-65750000D01*
X247450000Y-65600000D01*
X246386392Y-65600000D01*
X246342376Y-65750000D01*
X160250000Y-65750000D01*
X160250000Y-64115824D01*
X246303003Y-64115824D01*
X246386392Y-64400000D01*
X247450000Y-64400000D01*
X247450000Y-63325660D01*
X247165818Y-63252968D01*
X246564562Y-63724315D01*
X246303003Y-64115824D01*
X160250000Y-64115824D01*
X160250000Y-60010714D01*
X161773322Y-60010714D01*
X162016548Y-60374790D01*
X162669280Y-60906716D01*
X162980000Y-60851853D01*
X162980000Y-59700000D01*
X164380000Y-59700000D01*
X164380000Y-60851853D01*
X164690720Y-60906716D01*
X165343452Y-60374790D01*
X165586678Y-60010714D01*
X165519835Y-59700000D01*
X164380000Y-59700000D01*
X162980000Y-59700000D01*
X161840165Y-59700000D01*
X161773322Y-60010714D01*
X160250000Y-60010714D01*
X160250000Y-57989286D01*
X161773322Y-57989286D01*
X161840165Y-58300000D01*
X162980000Y-58300000D01*
X162980000Y-57148147D01*
X164380000Y-57148147D01*
X164380000Y-58300000D01*
X165519835Y-58300000D01*
X165586678Y-57989286D01*
X165343452Y-57625210D01*
X164690720Y-57093284D01*
X164380000Y-57148147D01*
X162980000Y-57148147D01*
X162669280Y-57093284D01*
X162016548Y-57625210D01*
X161773322Y-57989286D01*
X160250000Y-57989286D01*
X160250000Y-50250000D01*
X163575512Y-50250000D01*
X163575512Y-52250000D01*
G36*
X61575512Y-52250000D02*
X61662673Y-52713222D01*
X61936437Y-53138663D01*
X62354153Y-53424076D01*
X62850000Y-53524488D01*
X67150000Y-53524488D01*
X67613222Y-53437327D01*
X68038663Y-53163563D01*
X68324076Y-52745847D01*
X68393314Y-52403939D01*
X68682233Y-52836336D01*
X69493291Y-53378268D01*
X70450000Y-53568569D01*
X71406709Y-53378268D01*
X72217767Y-52836336D01*
X72759699Y-52025278D01*
X72844656Y-51598170D01*
X73495837Y-52572732D01*
X73650000Y-52675740D01*
X73650000Y-56955280D01*
X73394250Y-57126167D01*
X72819802Y-57985889D01*
X72618083Y-59000000D01*
X72819802Y-60014111D01*
X73394250Y-60873833D01*
X74253972Y-61448281D01*
X75268083Y-61650000D01*
X75371917Y-61650000D01*
X76386028Y-61448281D01*
X77245750Y-60873833D01*
X77276460Y-60827872D01*
X81162078Y-60827872D01*
X81340216Y-61099026D01*
X82193702Y-61191735D01*
X82659784Y-61099026D01*
X82837922Y-60827872D01*
X82000000Y-59989949D01*
X81162078Y-60827872D01*
X77276460Y-60827872D01*
X77820198Y-60014111D01*
X77960626Y-59308131D01*
X77978729Y-59281038D01*
X77996101Y-59193702D01*
X79808265Y-59193702D01*
X79900974Y-59659784D01*
X80172128Y-59837922D01*
X81010051Y-59000000D01*
X82989949Y-59000000D01*
X83827872Y-59837922D01*
X84099026Y-59659784D01*
X84191735Y-58806298D01*
X84099026Y-58340216D01*
X83827872Y-58162078D01*
X82989949Y-59000000D01*
X81010051Y-59000000D01*
X80172128Y-58162078D01*
X79900974Y-58340216D01*
X79808265Y-59193702D01*
X77996101Y-59193702D01*
X78150000Y-58420000D01*
X78150000Y-57172128D01*
X81162078Y-57172128D01*
X82000000Y-58010051D01*
X82837922Y-57172128D01*
X82659784Y-56900974D01*
X81806298Y-56808265D01*
X81340216Y-56900974D01*
X81162078Y-57172128D01*
X78150000Y-57172128D01*
X78150000Y-52675740D01*
X78304163Y-52572732D01*
X79041190Y-51469693D01*
X79283802Y-50250000D01*
X86575512Y-50250000D01*
X86575512Y-52250000D01*
X86662673Y-52713222D01*
X86936437Y-53138663D01*
X87354153Y-53424076D01*
X87850000Y-53524488D01*
X92150000Y-53524488D01*
X92613222Y-53437327D01*
X93038663Y-53163563D01*
X93324076Y-52745847D01*
X93393314Y-52403939D01*
X93682233Y-52836336D01*
X94493291Y-53378268D01*
X95450000Y-53568569D01*
X96406709Y-53378268D01*
X97217767Y-52836336D01*
X97759699Y-52025278D01*
X97844656Y-51598170D01*
X98495837Y-52572732D01*
X98650000Y-52675740D01*
X98650000Y-57580000D01*
X98821271Y-58441038D01*
X99309010Y-59170990D01*
X99737284Y-59599264D01*
X99819802Y-60014111D01*
X100394250Y-60873833D01*
X101253972Y-61448281D01*
X102268083Y-61650000D01*
X102371917Y-61650000D01*
X103386028Y-61448281D01*
X104245750Y-60873833D01*
X104276460Y-60827872D01*
X108162078Y-60827872D01*
X108340216Y-61099026D01*
X109193702Y-61191735D01*
X109659784Y-61099026D01*
X109837922Y-60827872D01*
X109000000Y-59989949D01*
X108162078Y-60827872D01*
X104276460Y-60827872D01*
X104820198Y-60014111D01*
X104983387Y-59193702D01*
X106808265Y-59193702D01*
X106900974Y-59659784D01*
X107172128Y-59837922D01*
X108010051Y-59000000D01*
X109989949Y-59000000D01*
X110827872Y-59837922D01*
X111099026Y-59659784D01*
X111191735Y-58806298D01*
X111099026Y-58340216D01*
X110827872Y-58162078D01*
X109989949Y-59000000D01*
X108010051Y-59000000D01*
X107172128Y-58162078D01*
X106900974Y-58340216D01*
X106808265Y-59193702D01*
X104983387Y-59193702D01*
X105021917Y-59000000D01*
X104820198Y-57985889D01*
X104276461Y-57172128D01*
X108162078Y-57172128D01*
X109000000Y-58010051D01*
X109837922Y-57172128D01*
X109659784Y-56900974D01*
X108806298Y-56808265D01*
X108340216Y-56900974D01*
X108162078Y-57172128D01*
X104276461Y-57172128D01*
X104245750Y-57126167D01*
X103386028Y-56551719D01*
X103150000Y-56504770D01*
X103150000Y-52675740D01*
X103304163Y-52572732D01*
X104041190Y-51469693D01*
X104283802Y-50250000D01*
X111575512Y-50250000D01*
X111575512Y-52250000D01*
X111662673Y-52713222D01*
X111936437Y-53138663D01*
X112354153Y-53424076D01*
X112850000Y-53524488D01*
X117150000Y-53524488D01*
X117613222Y-53437327D01*
X118038663Y-53163563D01*
X118324076Y-52745847D01*
X118393314Y-52403939D01*
X118682233Y-52836336D01*
X119493291Y-53378268D01*
X120450000Y-53568569D01*
X121406709Y-53378268D01*
X122217767Y-52836336D01*
X122759699Y-52025278D01*
X122844656Y-51598170D01*
X123495837Y-52572732D01*
X123650000Y-52675740D01*
X123650000Y-55580000D01*
X123821271Y-56441038D01*
X124309010Y-57170990D01*
X126737284Y-59599265D01*
X126819802Y-60014111D01*
X127394250Y-60873833D01*
X128253972Y-61448281D01*
X129268083Y-61650000D01*
X129371917Y-61650000D01*
X130386028Y-61448281D01*
X130872147Y-61123467D01*
X131207737Y-61459057D01*
X131356047Y-62204663D01*
X131800431Y-62869731D01*
X132465499Y-63314115D01*
X132750000Y-63370706D01*
X132750000Y-65750000D01*
X44250000Y-65750000D01*
X44250000Y-53215706D01*
X44493291Y-53378268D01*
X45450000Y-53568569D01*
X46406709Y-53378268D01*
X47217767Y-52836336D01*
X47759699Y-52025278D01*
X47844656Y-51598170D01*
X48495837Y-52572732D01*
X48650000Y-52675740D01*
X48650000Y-56472944D01*
X48253972Y-56551719D01*
X47394250Y-57126167D01*
X46819802Y-57985889D01*
X46618083Y-59000000D01*
X46819802Y-60014111D01*
X47394250Y-60873833D01*
X48253972Y-61448281D01*
X49268083Y-61650000D01*
X49371917Y-61650000D01*
X50386028Y-61448281D01*
X51245750Y-60873833D01*
X51276460Y-60827872D01*
X54162078Y-60827872D01*
X54340216Y-61099026D01*
X55193702Y-61191735D01*
X55659784Y-61099026D01*
X55837922Y-60827872D01*
X55000000Y-59989949D01*
X54162078Y-60827872D01*
X51276460Y-60827872D01*
X51820198Y-60014111D01*
X51902716Y-59599265D01*
X52490990Y-59010991D01*
X52893556Y-58408509D01*
X52808265Y-59193702D01*
X52900974Y-59659784D01*
X53172128Y-59837922D01*
X54010051Y-59000000D01*
X55989949Y-59000000D01*
X56827872Y-59837922D01*
X57099026Y-59659784D01*
X57191735Y-58806298D01*
X57099026Y-58340216D01*
X56827872Y-58162078D01*
X55989949Y-59000000D01*
X54010051Y-59000000D01*
X53172128Y-58162078D01*
X52969087Y-58295468D01*
X52978729Y-58281038D01*
X53150000Y-57420000D01*
X53150000Y-57172128D01*
X54162078Y-57172128D01*
X55000000Y-58010051D01*
X55837922Y-57172128D01*
X55659784Y-56900974D01*
X54806298Y-56808265D01*
X54340216Y-56900974D01*
X54162078Y-57172128D01*
X53150000Y-57172128D01*
X53150000Y-52675740D01*
X53304163Y-52572732D01*
X54041190Y-51469693D01*
X54283802Y-50250000D01*
X61575512Y-50250000D01*
X61575512Y-52250000D01*
X61575512Y-52250000D01*
G37*
X61575512Y-52250000D02*
X61662673Y-52713222D01*
X61936437Y-53138663D01*
X62354153Y-53424076D01*
X62850000Y-53524488D01*
X67150000Y-53524488D01*
X67613222Y-53437327D01*
X68038663Y-53163563D01*
X68324076Y-52745847D01*
X68393314Y-52403939D01*
X68682233Y-52836336D01*
X69493291Y-53378268D01*
X70450000Y-53568569D01*
X71406709Y-53378268D01*
X72217767Y-52836336D01*
X72759699Y-52025278D01*
X72844656Y-51598170D01*
X73495837Y-52572732D01*
X73650000Y-52675740D01*
X73650000Y-56955280D01*
X73394250Y-57126167D01*
X72819802Y-57985889D01*
X72618083Y-59000000D01*
X72819802Y-60014111D01*
X73394250Y-60873833D01*
X74253972Y-61448281D01*
X75268083Y-61650000D01*
X75371917Y-61650000D01*
X76386028Y-61448281D01*
X77245750Y-60873833D01*
X77276460Y-60827872D01*
X81162078Y-60827872D01*
X81340216Y-61099026D01*
X82193702Y-61191735D01*
X82659784Y-61099026D01*
X82837922Y-60827872D01*
X82000000Y-59989949D01*
X81162078Y-60827872D01*
X77276460Y-60827872D01*
X77820198Y-60014111D01*
X77960626Y-59308131D01*
X77978729Y-59281038D01*
X77996101Y-59193702D01*
X79808265Y-59193702D01*
X79900974Y-59659784D01*
X80172128Y-59837922D01*
X81010051Y-59000000D01*
X82989949Y-59000000D01*
X83827872Y-59837922D01*
X84099026Y-59659784D01*
X84191735Y-58806298D01*
X84099026Y-58340216D01*
X83827872Y-58162078D01*
X82989949Y-59000000D01*
X81010051Y-59000000D01*
X80172128Y-58162078D01*
X79900974Y-58340216D01*
X79808265Y-59193702D01*
X77996101Y-59193702D01*
X78150000Y-58420000D01*
X78150000Y-57172128D01*
X81162078Y-57172128D01*
X82000000Y-58010051D01*
X82837922Y-57172128D01*
X82659784Y-56900974D01*
X81806298Y-56808265D01*
X81340216Y-56900974D01*
X81162078Y-57172128D01*
X78150000Y-57172128D01*
X78150000Y-52675740D01*
X78304163Y-52572732D01*
X79041190Y-51469693D01*
X79283802Y-50250000D01*
X86575512Y-50250000D01*
X86575512Y-52250000D01*
X86662673Y-52713222D01*
X86936437Y-53138663D01*
X87354153Y-53424076D01*
X87850000Y-53524488D01*
X92150000Y-53524488D01*
X92613222Y-53437327D01*
X93038663Y-53163563D01*
X93324076Y-52745847D01*
X93393314Y-52403939D01*
X93682233Y-52836336D01*
X94493291Y-53378268D01*
X95450000Y-53568569D01*
X96406709Y-53378268D01*
X97217767Y-52836336D01*
X97759699Y-52025278D01*
X97844656Y-51598170D01*
X98495837Y-52572732D01*
X98650000Y-52675740D01*
X98650000Y-57580000D01*
X98821271Y-58441038D01*
X99309010Y-59170990D01*
X99737284Y-59599264D01*
X99819802Y-60014111D01*
X100394250Y-60873833D01*
X101253972Y-61448281D01*
X102268083Y-61650000D01*
X102371917Y-61650000D01*
X103386028Y-61448281D01*
X104245750Y-60873833D01*
X104276460Y-60827872D01*
X108162078Y-60827872D01*
X108340216Y-61099026D01*
X109193702Y-61191735D01*
X109659784Y-61099026D01*
X109837922Y-60827872D01*
X109000000Y-59989949D01*
X108162078Y-60827872D01*
X104276460Y-60827872D01*
X104820198Y-60014111D01*
X104983387Y-59193702D01*
X106808265Y-59193702D01*
X106900974Y-59659784D01*
X107172128Y-59837922D01*
X108010051Y-59000000D01*
X109989949Y-59000000D01*
X110827872Y-59837922D01*
X111099026Y-59659784D01*
X111191735Y-58806298D01*
X111099026Y-58340216D01*
X110827872Y-58162078D01*
X109989949Y-59000000D01*
X108010051Y-59000000D01*
X107172128Y-58162078D01*
X106900974Y-58340216D01*
X106808265Y-59193702D01*
X104983387Y-59193702D01*
X105021917Y-59000000D01*
X104820198Y-57985889D01*
X104276461Y-57172128D01*
X108162078Y-57172128D01*
X109000000Y-58010051D01*
X109837922Y-57172128D01*
X109659784Y-56900974D01*
X108806298Y-56808265D01*
X108340216Y-56900974D01*
X108162078Y-57172128D01*
X104276461Y-57172128D01*
X104245750Y-57126167D01*
X103386028Y-56551719D01*
X103150000Y-56504770D01*
X103150000Y-52675740D01*
X103304163Y-52572732D01*
X104041190Y-51469693D01*
X104283802Y-50250000D01*
X111575512Y-50250000D01*
X111575512Y-52250000D01*
X111662673Y-52713222D01*
X111936437Y-53138663D01*
X112354153Y-53424076D01*
X112850000Y-53524488D01*
X117150000Y-53524488D01*
X117613222Y-53437327D01*
X118038663Y-53163563D01*
X118324076Y-52745847D01*
X118393314Y-52403939D01*
X118682233Y-52836336D01*
X119493291Y-53378268D01*
X120450000Y-53568569D01*
X121406709Y-53378268D01*
X122217767Y-52836336D01*
X122759699Y-52025278D01*
X122844656Y-51598170D01*
X123495837Y-52572732D01*
X123650000Y-52675740D01*
X123650000Y-55580000D01*
X123821271Y-56441038D01*
X124309010Y-57170990D01*
X126737284Y-59599265D01*
X126819802Y-60014111D01*
X127394250Y-60873833D01*
X128253972Y-61448281D01*
X129268083Y-61650000D01*
X129371917Y-61650000D01*
X130386028Y-61448281D01*
X130872147Y-61123467D01*
X131207737Y-61459057D01*
X131356047Y-62204663D01*
X131800431Y-62869731D01*
X132465499Y-63314115D01*
X132750000Y-63370706D01*
X132750000Y-65750000D01*
X44250000Y-65750000D01*
X44250000Y-53215706D01*
X44493291Y-53378268D01*
X45450000Y-53568569D01*
X46406709Y-53378268D01*
X47217767Y-52836336D01*
X47759699Y-52025278D01*
X47844656Y-51598170D01*
X48495837Y-52572732D01*
X48650000Y-52675740D01*
X48650000Y-56472944D01*
X48253972Y-56551719D01*
X47394250Y-57126167D01*
X46819802Y-57985889D01*
X46618083Y-59000000D01*
X46819802Y-60014111D01*
X47394250Y-60873833D01*
X48253972Y-61448281D01*
X49268083Y-61650000D01*
X49371917Y-61650000D01*
X50386028Y-61448281D01*
X51245750Y-60873833D01*
X51276460Y-60827872D01*
X54162078Y-60827872D01*
X54340216Y-61099026D01*
X55193702Y-61191735D01*
X55659784Y-61099026D01*
X55837922Y-60827872D01*
X55000000Y-59989949D01*
X54162078Y-60827872D01*
X51276460Y-60827872D01*
X51820198Y-60014111D01*
X51902716Y-59599265D01*
X52490990Y-59010991D01*
X52893556Y-58408509D01*
X52808265Y-59193702D01*
X52900974Y-59659784D01*
X53172128Y-59837922D01*
X54010051Y-59000000D01*
X55989949Y-59000000D01*
X56827872Y-59837922D01*
X57099026Y-59659784D01*
X57191735Y-58806298D01*
X57099026Y-58340216D01*
X56827872Y-58162078D01*
X55989949Y-59000000D01*
X54010051Y-59000000D01*
X53172128Y-58162078D01*
X52969087Y-58295468D01*
X52978729Y-58281038D01*
X53150000Y-57420000D01*
X53150000Y-57172128D01*
X54162078Y-57172128D01*
X55000000Y-58010051D01*
X55837922Y-57172128D01*
X55659784Y-56900974D01*
X54806298Y-56808265D01*
X54340216Y-56900974D01*
X54162078Y-57172128D01*
X53150000Y-57172128D01*
X53150000Y-52675740D01*
X53304163Y-52572732D01*
X54041190Y-51469693D01*
X54283802Y-50250000D01*
X61575512Y-50250000D01*
X61575512Y-52250000D01*
G36*
X44725924Y-68404153D02*
X44625512Y-68900000D01*
X44625512Y-71100000D01*
X44712673Y-71563222D01*
X44986437Y-71988663D01*
X45404153Y-72274076D01*
X45767480Y-72347652D01*
X43370641Y-76342385D01*
X43074504Y-77168837D01*
X43117180Y-78045705D01*
X43492169Y-78839495D01*
X44142385Y-79429359D01*
X44968837Y-79725496D01*
X45845705Y-79682820D01*
X46639495Y-79307831D01*
X47162962Y-78730805D01*
X57334881Y-78730805D01*
X57419983Y-78978846D01*
X58030064Y-79088239D01*
X58580017Y-78978846D01*
X58665119Y-78730805D01*
X58573243Y-78638928D01*
X79008482Y-78638928D01*
X79106911Y-79133768D01*
X79370593Y-79280879D01*
X80151472Y-78500000D01*
X81848528Y-78500000D01*
X82629407Y-79280879D01*
X82893089Y-79133768D01*
X82893488Y-79130635D01*
X91075306Y-79130635D01*
X91425088Y-79627838D01*
X91869369Y-79924665D01*
X92100000Y-79808737D01*
X92100000Y-78900000D01*
X92900000Y-78900000D01*
X92900000Y-79808737D01*
X93130631Y-79924665D01*
X93574912Y-79627838D01*
X93924694Y-79130635D01*
X93816307Y-78900000D01*
X92900000Y-78900000D01*
X92100000Y-78900000D01*
X91183693Y-78900000D01*
X91075306Y-79130635D01*
X82893488Y-79130635D01*
X82991518Y-78361072D01*
X82893713Y-77869365D01*
X91075306Y-77869365D01*
X91183693Y-78100000D01*
X92100000Y-78100000D01*
X92100000Y-77191263D01*
X92900000Y-77191263D01*
X92900000Y-78100000D01*
X93816307Y-78100000D01*
X93924694Y-77869365D01*
X93574912Y-77372162D01*
X93130631Y-77075335D01*
X92900000Y-77191263D01*
X92100000Y-77191263D01*
X91869369Y-77075335D01*
X91425088Y-77372162D01*
X91075306Y-77869365D01*
X82893713Y-77869365D01*
X82893089Y-77866232D01*
X82629407Y-77719121D01*
X81848528Y-78500000D01*
X80151472Y-78500000D01*
X79370593Y-77719121D01*
X79106911Y-77866232D01*
X79008482Y-78638928D01*
X58573243Y-78638928D01*
X58000000Y-78065685D01*
X57334881Y-78730805D01*
X47162962Y-78730805D01*
X47229359Y-78657615D01*
X47905889Y-77530064D01*
X56411761Y-77530064D01*
X56521154Y-78080017D01*
X56769195Y-78165119D01*
X57434315Y-77500000D01*
X58565685Y-77500000D01*
X59230805Y-78165119D01*
X59478846Y-78080017D01*
X59588239Y-77469936D01*
X59478846Y-76919983D01*
X59334893Y-76870593D01*
X80219121Y-76870593D01*
X81000000Y-77651472D01*
X81780879Y-76870593D01*
X81633768Y-76606911D01*
X80861072Y-76508482D01*
X80366232Y-76606911D01*
X80219121Y-76870593D01*
X59334893Y-76870593D01*
X59230805Y-76834881D01*
X58565685Y-77500000D01*
X57434315Y-77500000D01*
X56769195Y-76834881D01*
X56521154Y-76919983D01*
X56411761Y-77530064D01*
X47905889Y-77530064D01*
X48662410Y-76269195D01*
X57334881Y-76269195D01*
X58000000Y-76934315D01*
X58528333Y-76405981D01*
X93949645Y-76405981D01*
X94261081Y-77159715D01*
X94837252Y-77736892D01*
X95590441Y-78049643D01*
X96405981Y-78050355D01*
X97159715Y-77738919D01*
X97736892Y-77162748D01*
X98049643Y-76409559D01*
X98049646Y-76405981D01*
X98949645Y-76405981D01*
X99261081Y-77159715D01*
X99837252Y-77736892D01*
X100590441Y-78049643D01*
X101405981Y-78050355D01*
X102159715Y-77738919D01*
X102736892Y-77162748D01*
X103000262Y-76528483D01*
X103261081Y-77159715D01*
X103837252Y-77736892D01*
X104590441Y-78049643D01*
X105405981Y-78050355D01*
X106159715Y-77738919D01*
X106736892Y-77162748D01*
X107000262Y-76528483D01*
X107261081Y-77159715D01*
X107837252Y-77736892D01*
X108590441Y-78049643D01*
X109405981Y-78050355D01*
X110159715Y-77738919D01*
X110736892Y-77162748D01*
X110874953Y-76830260D01*
X111011081Y-77159715D01*
X111587252Y-77736892D01*
X112340441Y-78049643D01*
X112984827Y-78050206D01*
X112792287Y-78242410D01*
X112563234Y-78794031D01*
X112014999Y-79020557D01*
X111522287Y-79512410D01*
X111255304Y-80155376D01*
X111254696Y-80851569D01*
X111520557Y-81495001D01*
X112012410Y-81987713D01*
X112500512Y-82190391D01*
X112500512Y-82275000D01*
X112587673Y-82738222D01*
X112861437Y-83163663D01*
X113279153Y-83449076D01*
X113775000Y-83549488D01*
X114775000Y-83549488D01*
X115238222Y-83462327D01*
X115663663Y-83188563D01*
X115949076Y-82770847D01*
X116049488Y-82275000D01*
X116049488Y-81275000D01*
X115962327Y-80811778D01*
X115688563Y-80386337D01*
X115635208Y-80349881D01*
X115757713Y-80227590D01*
X116024696Y-79584624D01*
X116025304Y-78888431D01*
X115759443Y-78244999D01*
X115267590Y-77752287D01*
X114624624Y-77485304D01*
X114164176Y-77484902D01*
X114486892Y-77162748D01*
X114799643Y-76409559D01*
X114800355Y-75594019D01*
X114488919Y-74840285D01*
X113912748Y-74263108D01*
X113159559Y-73950357D01*
X112344019Y-73949645D01*
X111590285Y-74261081D01*
X111013108Y-74837252D01*
X110875047Y-75169740D01*
X110738919Y-74840285D01*
X110162748Y-74263108D01*
X109409559Y-73950357D01*
X108594019Y-73949645D01*
X107840285Y-74261081D01*
X107263108Y-74837252D01*
X106999738Y-75471517D01*
X106738919Y-74840285D01*
X106162748Y-74263108D01*
X105409559Y-73950357D01*
X104594019Y-73949645D01*
X103840285Y-74261081D01*
X103263108Y-74837252D01*
X102999738Y-75471517D01*
X102738919Y-74840285D01*
X102162748Y-74263108D01*
X101409559Y-73950357D01*
X100594019Y-73949645D01*
X99840285Y-74261081D01*
X99263108Y-74837252D01*
X98950357Y-75590441D01*
X98949645Y-76405981D01*
X98049646Y-76405981D01*
X98050355Y-75594019D01*
X97738919Y-74840285D01*
X97162748Y-74263108D01*
X96409559Y-73950357D01*
X95594019Y-73949645D01*
X94840285Y-74261081D01*
X94263108Y-74837252D01*
X93950357Y-75590441D01*
X93949645Y-76405981D01*
X58528333Y-76405981D01*
X58665119Y-76269195D01*
X58580017Y-76021154D01*
X57969936Y-75911761D01*
X57419983Y-76021154D01*
X57334881Y-76269195D01*
X48662410Y-76269195D01*
X49221004Y-75338207D01*
X49590990Y-75090990D01*
X50078729Y-74361038D01*
X50250000Y-73500000D01*
X50250000Y-73000000D01*
X50196220Y-72729631D01*
X50182820Y-72454295D01*
X50111366Y-72303038D01*
X50078729Y-72138962D01*
X49925577Y-71909755D01*
X49807831Y-71660505D01*
X49683930Y-71548104D01*
X49590990Y-71409010D01*
X49361786Y-71255861D01*
X49345852Y-71241406D01*
X49374488Y-71100000D01*
X49374488Y-68900000D01*
X49287327Y-68436778D01*
X49167139Y-68250000D01*
X52711647Y-68250000D01*
X52576897Y-68840206D01*
X52402844Y-69100694D01*
X52223961Y-70000000D01*
X52402844Y-70899306D01*
X52912260Y-71661701D01*
X53674655Y-72171117D01*
X54573961Y-72350000D01*
X54666039Y-72350000D01*
X55565345Y-72171117D01*
X55834874Y-71991023D01*
X55753883Y-73367875D01*
X55874296Y-74237485D01*
X56318329Y-74994818D01*
X57018381Y-75524580D01*
X57867875Y-75746117D01*
X58737485Y-75625704D01*
X59494818Y-75181671D01*
X60024580Y-74481619D01*
X60246117Y-73632125D01*
X60562713Y-68250000D01*
X62369857Y-68250000D01*
X62036778Y-68312673D01*
X61611337Y-68586437D01*
X61325924Y-69004153D01*
X61225512Y-69500000D01*
X61225512Y-72500000D01*
X61312673Y-72963222D01*
X61586437Y-73388663D01*
X62004153Y-73674076D01*
X62500000Y-73774488D01*
X65500000Y-73774488D01*
X65963222Y-73687327D01*
X66254336Y-73500000D01*
X114762002Y-73500000D01*
X114948497Y-74437574D01*
X115479590Y-75232412D01*
X116274428Y-75763505D01*
X117212002Y-75950000D01*
X117307998Y-75950000D01*
X118245572Y-75763505D01*
X119040410Y-75232412D01*
X119571503Y-74437574D01*
X119661486Y-73985197D01*
X130049576Y-73985197D01*
X130421780Y-74886000D01*
X131110375Y-75575798D01*
X132010527Y-75949573D01*
X132985197Y-75950424D01*
X133697803Y-75655981D01*
X138449645Y-75655981D01*
X138761081Y-76409715D01*
X139337252Y-76986892D01*
X140090441Y-77299643D01*
X140905981Y-77300355D01*
X141659715Y-76988919D01*
X142236892Y-76412748D01*
X142375128Y-76079838D01*
X171700000Y-76079838D01*
X171700000Y-76160162D01*
X171856047Y-76944663D01*
X172300431Y-77609731D01*
X172965499Y-78054115D01*
X173750000Y-78210162D01*
X174534501Y-78054115D01*
X175199569Y-77609731D01*
X175643953Y-76944663D01*
X175800000Y-76160162D01*
X175800000Y-76079838D01*
X175798831Y-76073961D01*
X196150000Y-76073961D01*
X196150000Y-76166039D01*
X196328883Y-77065345D01*
X196838299Y-77827740D01*
X197600694Y-78337156D01*
X198500000Y-78516039D01*
X199237380Y-78369365D01*
X219575306Y-78369365D01*
X219683693Y-78600000D01*
X220600000Y-78600000D01*
X220600000Y-77691263D01*
X221400000Y-77691263D01*
X221400000Y-78600000D01*
X222316307Y-78600000D01*
X222424694Y-78369365D01*
X222074912Y-77872162D01*
X221630631Y-77575335D01*
X221400000Y-77691263D01*
X220600000Y-77691263D01*
X220369369Y-77575335D01*
X219925088Y-77872162D01*
X219575306Y-78369365D01*
X199237380Y-78369365D01*
X199399306Y-78337156D01*
X200161701Y-77827740D01*
X200615070Y-77149224D01*
X207542000Y-77149224D01*
X207542000Y-77710500D01*
X207731500Y-77900000D01*
X208900000Y-77900000D01*
X208900000Y-76731500D01*
X210100000Y-76731500D01*
X210100000Y-77900000D01*
X211268500Y-77900000D01*
X211458000Y-77710500D01*
X211458000Y-77149224D01*
X211342601Y-76870627D01*
X211129372Y-76657398D01*
X210850775Y-76542000D01*
X210289500Y-76542000D01*
X210100000Y-76731500D01*
X208900000Y-76731500D01*
X208710500Y-76542000D01*
X208149225Y-76542000D01*
X207870628Y-76657398D01*
X207657399Y-76870627D01*
X207542000Y-77149224D01*
X200615070Y-77149224D01*
X200671117Y-77065345D01*
X200850000Y-76166039D01*
X200850000Y-76073961D01*
X200671117Y-75174655D01*
X200161701Y-74412260D01*
X199399306Y-73902844D01*
X198500000Y-73723961D01*
X197600694Y-73902844D01*
X196838299Y-74412260D01*
X196328883Y-75174655D01*
X196150000Y-76073961D01*
X175798831Y-76073961D01*
X175643953Y-75295337D01*
X175199569Y-74630269D01*
X174534501Y-74185885D01*
X173750000Y-74029838D01*
X172965499Y-74185885D01*
X172300431Y-74630269D01*
X171856047Y-75295337D01*
X171700000Y-76079838D01*
X142375128Y-76079838D01*
X142549643Y-75659559D01*
X142550355Y-74844019D01*
X142238919Y-74090285D01*
X141662748Y-73513108D01*
X140909559Y-73200357D01*
X140094019Y-73199645D01*
X139340285Y-73511081D01*
X138763108Y-74087252D01*
X138450357Y-74840441D01*
X138449645Y-75655981D01*
X133697803Y-75655981D01*
X133886000Y-75578220D01*
X134575798Y-74889625D01*
X134949573Y-73989473D01*
X134950424Y-73014803D01*
X134578220Y-72114000D01*
X133889625Y-71424202D01*
X132989473Y-71050427D01*
X132014803Y-71049576D01*
X131114000Y-71421780D01*
X130424202Y-72110375D01*
X130050427Y-73010527D01*
X130049576Y-73985197D01*
X119661486Y-73985197D01*
X119757998Y-73500000D01*
X119571503Y-72562426D01*
X119040410Y-71767588D01*
X118245572Y-71236495D01*
X117307998Y-71050000D01*
X117212002Y-71050000D01*
X116274428Y-71236495D01*
X115479590Y-71767588D01*
X114948497Y-72562426D01*
X114762002Y-73500000D01*
X66254336Y-73500000D01*
X66388663Y-73413563D01*
X66674076Y-72995847D01*
X66688025Y-72926961D01*
X68213699Y-72926961D01*
X68407361Y-73201784D01*
X69301149Y-73291592D01*
X69752639Y-73201784D01*
X69946301Y-72926961D01*
X69080000Y-72060660D01*
X68213699Y-72926961D01*
X66688025Y-72926961D01*
X66774488Y-72500000D01*
X66774488Y-71221149D01*
X66788408Y-71221149D01*
X66878216Y-71672639D01*
X67153039Y-71866301D01*
X68019340Y-71000000D01*
X70140660Y-71000000D01*
X71006961Y-71866301D01*
X71281784Y-71672639D01*
X71371592Y-70778851D01*
X71281784Y-70327361D01*
X71006961Y-70133699D01*
X70140660Y-71000000D01*
X68019340Y-71000000D01*
X67153039Y-70133699D01*
X66878216Y-70327361D01*
X66788408Y-71221149D01*
X66774488Y-71221149D01*
X66774488Y-69500000D01*
X66694150Y-69073039D01*
X68213699Y-69073039D01*
X69080000Y-69939340D01*
X69219340Y-69800000D01*
X78525512Y-69800000D01*
X78525512Y-72200000D01*
X78612673Y-72663222D01*
X78886437Y-73088663D01*
X79304153Y-73374076D01*
X79800000Y-73474488D01*
X82200000Y-73474488D01*
X82663222Y-73387327D01*
X83088663Y-73113563D01*
X83374076Y-72695847D01*
X83474488Y-72200000D01*
X83474488Y-69800000D01*
X83387327Y-69336778D01*
X83113563Y-68911337D01*
X82695847Y-68625924D01*
X82200000Y-68525512D01*
X79800000Y-68525512D01*
X79336778Y-68612673D01*
X78911337Y-68886437D01*
X78625924Y-69304153D01*
X78525512Y-69800000D01*
X69219340Y-69800000D01*
X69946301Y-69073039D01*
X69752639Y-68798216D01*
X68858851Y-68708408D01*
X68407361Y-68798216D01*
X68213699Y-69073039D01*
X66694150Y-69073039D01*
X66687327Y-69036778D01*
X66413563Y-68611337D01*
X65995847Y-68325924D01*
X65620925Y-68250000D01*
X90450218Y-68250000D01*
X90449645Y-68905981D01*
X90761081Y-69659715D01*
X91337252Y-70236892D01*
X92090441Y-70549643D01*
X92905981Y-70550355D01*
X93659715Y-70238919D01*
X94236892Y-69662748D01*
X94304055Y-69501002D01*
X94550431Y-69869731D01*
X95215499Y-70314115D01*
X96000000Y-70470162D01*
X96784501Y-70314115D01*
X97449569Y-69869731D01*
X97893953Y-69204663D01*
X98050000Y-68420162D01*
X98050000Y-68339838D01*
X98032130Y-68250000D01*
X98967870Y-68250000D01*
X98950000Y-68339838D01*
X98950000Y-68420162D01*
X99106047Y-69204663D01*
X99550431Y-69869731D01*
X100215499Y-70314115D01*
X101000000Y-70470162D01*
X101784501Y-70314115D01*
X102449569Y-69869731D01*
X102893953Y-69204663D01*
X103000000Y-68671529D01*
X103106047Y-69204663D01*
X103550431Y-69869731D01*
X104215499Y-70314115D01*
X105000000Y-70470162D01*
X105784501Y-70314115D01*
X106449569Y-69869731D01*
X106893953Y-69204663D01*
X107000000Y-68671529D01*
X107106047Y-69204663D01*
X107550431Y-69869731D01*
X108215499Y-70314115D01*
X109000000Y-70470162D01*
X109784501Y-70314115D01*
X110449569Y-69869731D01*
X110875000Y-69233028D01*
X111300431Y-69869731D01*
X111965499Y-70314115D01*
X112750000Y-70470162D01*
X113534501Y-70314115D01*
X114199569Y-69869731D01*
X114643953Y-69204663D01*
X114800000Y-68420162D01*
X114800000Y-68339838D01*
X114782130Y-68250000D01*
X118689022Y-68250000D01*
X118539838Y-69000000D01*
X118695885Y-69784501D01*
X119140269Y-70449569D01*
X119805337Y-70893953D01*
X120589838Y-71050000D01*
X120670162Y-71050000D01*
X121454663Y-70893953D01*
X122119731Y-70449569D01*
X122564115Y-69784501D01*
X122720162Y-69000000D01*
X122570978Y-68250000D01*
X126341720Y-68250000D01*
X126200357Y-68590441D01*
X126199645Y-69405981D01*
X126511081Y-70159715D01*
X127087252Y-70736892D01*
X127840441Y-71049643D01*
X128655981Y-71050355D01*
X129409715Y-70738919D01*
X129986892Y-70162748D01*
X130299643Y-69409559D01*
X130300355Y-68594019D01*
X130158209Y-68250000D01*
X131341720Y-68250000D01*
X131200357Y-68590441D01*
X131199645Y-69405981D01*
X131511081Y-70159715D01*
X132087252Y-70736892D01*
X132840441Y-71049643D01*
X133655981Y-71050355D01*
X134409715Y-70738919D01*
X134860319Y-70289101D01*
X134710304Y-70650376D01*
X134709696Y-71346569D01*
X134975557Y-71990001D01*
X135467410Y-72482713D01*
X136019031Y-72711766D01*
X136245557Y-73260001D01*
X136737410Y-73752713D01*
X137380376Y-74019696D01*
X138076569Y-74020304D01*
X138720001Y-73754443D01*
X139212713Y-73262590D01*
X139321750Y-73000000D01*
X145727879Y-73000000D01*
X145891538Y-73822769D01*
X146357599Y-74520280D01*
X147055110Y-74986341D01*
X147877879Y-75150000D01*
X147962121Y-75150000D01*
X148784890Y-74986341D01*
X149190000Y-74715656D01*
X149595110Y-74986341D01*
X150417879Y-75150000D01*
X150502121Y-75150000D01*
X151324890Y-74986341D01*
X151401162Y-74935378D01*
X151604153Y-75074076D01*
X152100000Y-75174488D01*
X153900000Y-75174488D01*
X154363222Y-75087327D01*
X154788663Y-74813563D01*
X155074076Y-74395847D01*
X155174488Y-73900000D01*
X155174488Y-72100000D01*
X155087327Y-71636778D01*
X154813563Y-71211337D01*
X154395847Y-70925924D01*
X153900000Y-70825512D01*
X152100000Y-70825512D01*
X151636778Y-70912673D01*
X151400907Y-71064452D01*
X151324890Y-71013659D01*
X150502121Y-70850000D01*
X150417879Y-70850000D01*
X149595110Y-71013659D01*
X149190000Y-71284344D01*
X148784890Y-71013659D01*
X147962121Y-70850000D01*
X147877879Y-70850000D01*
X147055110Y-71013659D01*
X146357599Y-71479720D01*
X145891538Y-72177231D01*
X145727879Y-73000000D01*
X139321750Y-73000000D01*
X139415391Y-72774488D01*
X139500000Y-72774488D01*
X139963222Y-72687327D01*
X140388663Y-72413563D01*
X140674076Y-71995847D01*
X140774488Y-71500000D01*
X140774488Y-70738319D01*
X141200000Y-70824488D01*
X142800000Y-70824488D01*
X143263222Y-70737327D01*
X143688663Y-70463563D01*
X143974076Y-70045847D01*
X144074488Y-69550000D01*
X144074488Y-68250000D01*
X153315337Y-68250000D01*
X153200000Y-68829838D01*
X153200000Y-68910162D01*
X153356047Y-69694663D01*
X153800431Y-70359731D01*
X154465499Y-70804115D01*
X155250000Y-70960162D01*
X156034501Y-70804115D01*
X156699569Y-70359731D01*
X157143953Y-69694663D01*
X157300000Y-68910162D01*
X157300000Y-68829838D01*
X157184663Y-68250000D01*
X159245664Y-68250000D01*
X159111337Y-68336437D01*
X158825924Y-68754153D01*
X158725512Y-69250000D01*
X158725512Y-70250000D01*
X158812673Y-70713222D01*
X159086437Y-71138663D01*
X159504153Y-71424076D01*
X160000000Y-71524488D01*
X161000000Y-71524488D01*
X161463222Y-71437327D01*
X161888663Y-71163563D01*
X161925119Y-71110208D01*
X162047410Y-71232713D01*
X162690376Y-71499696D01*
X163386569Y-71500304D01*
X164030001Y-71234443D01*
X164522713Y-70742590D01*
X164789696Y-70099624D01*
X164790304Y-69403431D01*
X164765521Y-69343452D01*
X165065819Y-68894025D01*
X165180000Y-68320000D01*
X165180000Y-68250000D01*
X171700218Y-68250000D01*
X171699645Y-68905981D01*
X172011081Y-69659715D01*
X172587252Y-70236892D01*
X173340441Y-70549643D01*
X174155981Y-70550355D01*
X174784177Y-70290790D01*
X174890269Y-70449569D01*
X175555337Y-70893953D01*
X176313172Y-71044696D01*
X175979590Y-71267588D01*
X175448497Y-72062426D01*
X175262002Y-73000000D01*
X175448497Y-73937574D01*
X175979590Y-74732412D01*
X176774428Y-75263505D01*
X177712002Y-75450000D01*
X177807998Y-75450000D01*
X178745572Y-75263505D01*
X179540410Y-74732412D01*
X180071503Y-73937574D01*
X180161486Y-73485197D01*
X190549576Y-73485197D01*
X190921780Y-74386000D01*
X191610375Y-75075798D01*
X192510527Y-75449573D01*
X193485197Y-75450424D01*
X194386000Y-75078220D01*
X195075798Y-74389625D01*
X195449573Y-73489473D01*
X195450424Y-72514803D01*
X195078220Y-71614000D01*
X194949642Y-71485197D01*
X207049576Y-71485197D01*
X207421780Y-72386000D01*
X208110375Y-73075798D01*
X209010527Y-73449573D01*
X209985197Y-73450424D01*
X210470260Y-73250000D01*
X228225512Y-73250000D01*
X228225512Y-76250000D01*
X228312673Y-76713222D01*
X228586437Y-77138663D01*
X229004153Y-77424076D01*
X229500000Y-77524488D01*
X232500000Y-77524488D01*
X232963222Y-77437327D01*
X233388663Y-77163563D01*
X233674076Y-76745847D01*
X233688025Y-76676961D01*
X235213699Y-76676961D01*
X235407361Y-76951784D01*
X236301149Y-77041592D01*
X236752639Y-76951784D01*
X236946301Y-76676961D01*
X236080000Y-75810660D01*
X235213699Y-76676961D01*
X233688025Y-76676961D01*
X233774488Y-76250000D01*
X233774488Y-74971149D01*
X233788408Y-74971149D01*
X233878216Y-75422639D01*
X234153039Y-75616301D01*
X235019340Y-74750000D01*
X237140660Y-74750000D01*
X238006961Y-75616301D01*
X238281784Y-75422639D01*
X238371592Y-74528851D01*
X238281784Y-74077361D01*
X238006961Y-73883699D01*
X237140660Y-74750000D01*
X235019340Y-74750000D01*
X234153039Y-73883699D01*
X233878216Y-74077361D01*
X233788408Y-74971149D01*
X233774488Y-74971149D01*
X233774488Y-73250000D01*
X233694150Y-72823039D01*
X235213699Y-72823039D01*
X236080000Y-73689340D01*
X236946301Y-72823039D01*
X236752639Y-72548216D01*
X235858851Y-72458408D01*
X235407361Y-72548216D01*
X235213699Y-72823039D01*
X233694150Y-72823039D01*
X233687327Y-72786778D01*
X233413563Y-72361337D01*
X232995847Y-72075924D01*
X232500000Y-71975512D01*
X229500000Y-71975512D01*
X229036778Y-72062673D01*
X228611337Y-72336437D01*
X228325924Y-72754153D01*
X228225512Y-73250000D01*
X210470260Y-73250000D01*
X210886000Y-73078220D01*
X211575798Y-72389625D01*
X211949573Y-71489473D01*
X211950424Y-70514803D01*
X211578220Y-69614000D01*
X210889625Y-68924202D01*
X209989473Y-68550427D01*
X209014803Y-68549576D01*
X208114000Y-68921780D01*
X207424202Y-69610375D01*
X207050427Y-70510527D01*
X207049576Y-71485197D01*
X194949642Y-71485197D01*
X194389625Y-70924202D01*
X193489473Y-70550427D01*
X192514803Y-70549576D01*
X191614000Y-70921780D01*
X190924202Y-71610375D01*
X190550427Y-72510527D01*
X190549576Y-73485197D01*
X180161486Y-73485197D01*
X180257998Y-73000000D01*
X180071503Y-72062426D01*
X179540410Y-71267588D01*
X178745572Y-70736495D01*
X177807998Y-70550000D01*
X177719425Y-70550000D01*
X177869731Y-70449569D01*
X178314115Y-69784501D01*
X178470162Y-69000000D01*
X178320978Y-68250000D01*
X182091720Y-68250000D01*
X181950357Y-68590441D01*
X181949645Y-69405981D01*
X182261081Y-70159715D01*
X182837252Y-70736892D01*
X183590441Y-71049643D01*
X184405981Y-71050355D01*
X185159715Y-70738919D01*
X185249870Y-70648921D01*
X185587252Y-70986892D01*
X186340441Y-71299643D01*
X187155981Y-71300355D01*
X187909715Y-70988919D01*
X188486892Y-70412748D01*
X188799643Y-69659559D01*
X188800355Y-68844019D01*
X188554912Y-68250000D01*
X196125512Y-68250000D01*
X196125512Y-69600000D01*
X196212673Y-70063222D01*
X196486437Y-70488663D01*
X196904153Y-70774076D01*
X197400000Y-70874488D01*
X199600000Y-70874488D01*
X200063222Y-70787327D01*
X200488663Y-70513563D01*
X200774076Y-70095847D01*
X200874488Y-69600000D01*
X200874488Y-69187093D01*
X201677711Y-68250000D01*
X219091720Y-68250000D01*
X218950357Y-68590441D01*
X218949645Y-69405981D01*
X219261081Y-70159715D01*
X219837252Y-70736892D01*
X220590441Y-71049643D01*
X221405981Y-71050355D01*
X222159715Y-70738919D01*
X222736892Y-70162748D01*
X223049643Y-69409559D01*
X223050355Y-68594019D01*
X222908209Y-68250000D01*
X237903806Y-68250000D01*
X240102174Y-70448368D01*
X245036122Y-76322116D01*
X245062673Y-76463222D01*
X245336437Y-76888663D01*
X245754153Y-77174076D01*
X246069069Y-77237848D01*
X246250840Y-77383577D01*
X247468454Y-77737782D01*
X248728931Y-77599063D01*
X249356187Y-77254508D01*
X249713222Y-77187327D01*
X250138663Y-76913563D01*
X250424076Y-76495847D01*
X250438025Y-76426961D01*
X251963699Y-76426961D01*
X252157361Y-76701784D01*
X253051149Y-76791592D01*
X253502639Y-76701784D01*
X253696301Y-76426961D01*
X252830000Y-75560660D01*
X251963699Y-76426961D01*
X250438025Y-76426961D01*
X250487848Y-76180931D01*
X250633577Y-75999160D01*
X250832198Y-75316381D01*
X250903039Y-75366301D01*
X251769340Y-74500000D01*
X253890660Y-74500000D01*
X254756961Y-75366301D01*
X255031784Y-75172639D01*
X255121592Y-74278851D01*
X255031784Y-73827361D01*
X254756961Y-73633699D01*
X253890660Y-74500000D01*
X251769340Y-74500000D01*
X250903039Y-73633699D01*
X250864451Y-73660891D01*
X250849063Y-73521070D01*
X250504508Y-72893813D01*
X250444151Y-72573039D01*
X251963699Y-72573039D01*
X252830000Y-73439340D01*
X253696301Y-72573039D01*
X253502639Y-72298216D01*
X252608851Y-72208408D01*
X252157361Y-72298216D01*
X251963699Y-72573039D01*
X250444151Y-72573039D01*
X250437327Y-72536778D01*
X250163563Y-72111337D01*
X249751443Y-71829748D01*
X246744455Y-68250000D01*
X264675000Y-68250000D01*
X264675000Y-96026254D01*
X264162748Y-95513108D01*
X263409559Y-95200357D01*
X262594019Y-95199645D01*
X261840285Y-95511081D01*
X261263108Y-96087252D01*
X260950357Y-96840441D01*
X260949645Y-97655981D01*
X261261081Y-98409715D01*
X261837252Y-98986892D01*
X262037075Y-99069866D01*
X260737142Y-99606987D01*
X259610942Y-100731223D01*
X259000695Y-102200860D01*
X258999307Y-103792159D01*
X259364089Y-104675000D01*
X191851553Y-104675000D01*
X191816307Y-104600000D01*
X190900000Y-104600000D01*
X190900000Y-104675000D01*
X190100000Y-104675000D01*
X190100000Y-104600000D01*
X189183693Y-104600000D01*
X189148447Y-104675000D01*
X180765608Y-104675000D01*
X180950000Y-103747998D01*
X180950000Y-103652002D01*
X180933563Y-103569365D01*
X189075306Y-103569365D01*
X189183693Y-103800000D01*
X190100000Y-103800000D01*
X190100000Y-102891263D01*
X190900000Y-102891263D01*
X190900000Y-103800000D01*
X191816307Y-103800000D01*
X191924694Y-103569365D01*
X191574912Y-103072162D01*
X191130631Y-102775335D01*
X190900000Y-102891263D01*
X190100000Y-102891263D01*
X189869369Y-102775335D01*
X189425088Y-103072162D01*
X189075306Y-103569365D01*
X180933563Y-103569365D01*
X180763505Y-102714428D01*
X180232412Y-101919590D01*
X179437574Y-101388497D01*
X178500000Y-101202002D01*
X177562426Y-101388497D01*
X176767588Y-101919590D01*
X176236495Y-102714428D01*
X176050000Y-103652002D01*
X176050000Y-103747998D01*
X176234392Y-104675000D01*
X156224619Y-104675000D01*
X156236892Y-104662748D01*
X156549643Y-103909559D01*
X156550355Y-103094019D01*
X156238919Y-102340285D01*
X155662748Y-101763108D01*
X154909559Y-101450357D01*
X154094019Y-101449645D01*
X153340285Y-101761081D01*
X152763108Y-102337252D01*
X152450357Y-103090441D01*
X152449645Y-103905981D01*
X152761081Y-104659715D01*
X152776339Y-104675000D01*
X148553192Y-104675000D01*
X148814115Y-104284501D01*
X148970162Y-103500000D01*
X148814115Y-102715499D01*
X148369731Y-102050431D01*
X147704663Y-101606047D01*
X146920162Y-101450000D01*
X146839838Y-101450000D01*
X146055337Y-101606047D01*
X145390269Y-102050431D01*
X144945885Y-102715499D01*
X144789838Y-103500000D01*
X144945885Y-104284501D01*
X145206808Y-104675000D01*
X136617555Y-104675000D01*
X136669643Y-104549559D01*
X136670355Y-103734019D01*
X136358919Y-102980285D01*
X136249139Y-102870313D01*
X136356892Y-102762748D01*
X136669643Y-102009559D01*
X136670355Y-101194019D01*
X136358919Y-100440285D01*
X135782748Y-99863108D01*
X135029559Y-99550357D01*
X134214019Y-99549645D01*
X133460285Y-99861081D01*
X132883108Y-100437252D01*
X132570357Y-101190441D01*
X132569645Y-102005981D01*
X132881081Y-102759715D01*
X132990861Y-102869687D01*
X132883108Y-102977252D01*
X132570357Y-103730441D01*
X132569645Y-104545981D01*
X132622954Y-104675000D01*
X128983744Y-104675000D01*
X129090162Y-104140000D01*
X128934115Y-103355499D01*
X128609715Y-102870000D01*
X128934115Y-102384501D01*
X129090162Y-101600000D01*
X128934115Y-100815499D01*
X128489731Y-100150431D01*
X127824663Y-99706047D01*
X127040162Y-99550000D01*
X126959838Y-99550000D01*
X126175337Y-99706047D01*
X125510269Y-100150431D01*
X125065885Y-100815499D01*
X124909838Y-101600000D01*
X125065885Y-102384501D01*
X125390285Y-102870000D01*
X125065885Y-103355499D01*
X124909838Y-104140000D01*
X125016256Y-104675000D01*
X32635616Y-104675000D01*
X32999305Y-103799140D01*
X32999800Y-103230805D01*
X89334881Y-103230805D01*
X89419983Y-103478846D01*
X90030064Y-103588239D01*
X90580017Y-103478846D01*
X90665119Y-103230805D01*
X90000000Y-102565685D01*
X89334881Y-103230805D01*
X32999800Y-103230805D01*
X33000693Y-102207841D01*
X32393013Y-100737142D01*
X31287210Y-99629407D01*
X38719121Y-99629407D01*
X38866232Y-99893089D01*
X39638928Y-99991518D01*
X40133768Y-99893089D01*
X40280879Y-99629407D01*
X39500000Y-98848528D01*
X38719121Y-99629407D01*
X31287210Y-99629407D01*
X31268777Y-99610942D01*
X30222326Y-99176417D01*
X30736892Y-98662748D01*
X30954400Y-98138928D01*
X37508482Y-98138928D01*
X37606911Y-98633768D01*
X37870593Y-98780879D01*
X38651472Y-98000000D01*
X40348528Y-98000000D01*
X41129407Y-98780879D01*
X41393089Y-98633768D01*
X41491518Y-97861072D01*
X41469425Y-97750000D01*
X51975512Y-97750000D01*
X51975512Y-99750000D01*
X52062673Y-100213222D01*
X52336437Y-100638663D01*
X52754153Y-100924076D01*
X53250000Y-101024488D01*
X55250000Y-101024488D01*
X55713222Y-100937327D01*
X56138663Y-100663563D01*
X56424076Y-100245847D01*
X56524488Y-99750000D01*
X56524488Y-97905981D01*
X77449645Y-97905981D01*
X77761081Y-98659715D01*
X78337252Y-99236892D01*
X79062741Y-99538141D01*
X78763108Y-99837252D01*
X78450357Y-100590441D01*
X78449645Y-101405981D01*
X78761081Y-102159715D01*
X79337252Y-102736892D01*
X80090441Y-103049643D01*
X80905981Y-103050355D01*
X81659715Y-102738919D01*
X82236892Y-102162748D01*
X82549643Y-101409559D01*
X82549646Y-101405981D01*
X83449645Y-101405981D01*
X83761081Y-102159715D01*
X84337252Y-102736892D01*
X85090441Y-103049643D01*
X85905981Y-103050355D01*
X86659715Y-102738919D01*
X87236892Y-102162748D01*
X87291987Y-102030064D01*
X88411761Y-102030064D01*
X88521154Y-102580017D01*
X88769195Y-102665119D01*
X89434315Y-102000000D01*
X90565685Y-102000000D01*
X91230805Y-102665119D01*
X91478846Y-102580017D01*
X91588239Y-101969936D01*
X91494763Y-101500000D01*
X103725512Y-101500000D01*
X103725512Y-102500000D01*
X103812673Y-102963222D01*
X104086437Y-103388663D01*
X104504153Y-103674076D01*
X105000000Y-103774488D01*
X106000000Y-103774488D01*
X106463222Y-103687327D01*
X106888663Y-103413563D01*
X106925119Y-103360208D01*
X107047410Y-103482713D01*
X107690376Y-103749696D01*
X108386569Y-103750304D01*
X109030001Y-103484443D01*
X109522713Y-102992590D01*
X109789696Y-102349624D01*
X109790304Y-101653431D01*
X109524443Y-101009999D01*
X109032590Y-100517287D01*
X108480969Y-100288234D01*
X108254443Y-99739999D01*
X107762590Y-99247287D01*
X107119624Y-98980304D01*
X106423431Y-98979696D01*
X105779999Y-99245557D01*
X105287287Y-99737410D01*
X105084609Y-100225512D01*
X105000000Y-100225512D01*
X104536778Y-100312673D01*
X104111337Y-100586437D01*
X103825924Y-101004153D01*
X103725512Y-101500000D01*
X91494763Y-101500000D01*
X91478846Y-101419983D01*
X91230805Y-101334881D01*
X90565685Y-102000000D01*
X89434315Y-102000000D01*
X88769195Y-101334881D01*
X88521154Y-101419983D01*
X88411761Y-102030064D01*
X87291987Y-102030064D01*
X87549643Y-101409559D01*
X87550202Y-100769195D01*
X89334881Y-100769195D01*
X90000000Y-101434315D01*
X90665119Y-100769195D01*
X90580017Y-100521154D01*
X89969936Y-100411761D01*
X89419983Y-100521154D01*
X89334881Y-100769195D01*
X87550202Y-100769195D01*
X87550355Y-100594019D01*
X87238919Y-99840285D01*
X86916758Y-99517561D01*
X87079838Y-99550000D01*
X87160162Y-99550000D01*
X87944663Y-99393953D01*
X88609731Y-98949569D01*
X88786085Y-98685636D01*
X88837252Y-98736892D01*
X89590441Y-99049643D01*
X90405981Y-99050355D01*
X91159715Y-98738919D01*
X91736892Y-98162748D01*
X91804470Y-98000000D01*
X112725512Y-98000000D01*
X112725512Y-99000000D01*
X112812673Y-99463222D01*
X113086437Y-99888663D01*
X113504153Y-100174076D01*
X114000000Y-100274488D01*
X115000000Y-100274488D01*
X115463222Y-100187327D01*
X115888663Y-99913563D01*
X115925119Y-99860208D01*
X116047410Y-99982713D01*
X116690376Y-100249696D01*
X117386569Y-100250304D01*
X118030001Y-99984443D01*
X118522713Y-99492590D01*
X118789696Y-98849624D01*
X118789755Y-98780981D01*
X121249645Y-98780981D01*
X121561081Y-99534715D01*
X122137252Y-100111892D01*
X122890441Y-100424643D01*
X123705981Y-100425355D01*
X124459715Y-100113919D01*
X125036892Y-99537748D01*
X125349643Y-98784559D01*
X125350000Y-98375000D01*
X128829838Y-98375000D01*
X128985885Y-99159501D01*
X129430269Y-99824569D01*
X130095337Y-100268953D01*
X130879838Y-100425000D01*
X130960162Y-100425000D01*
X131744663Y-100268953D01*
X132409731Y-99824569D01*
X132854115Y-99159501D01*
X133010162Y-98375000D01*
X132897804Y-97810138D01*
X139529658Y-97810138D01*
X139828941Y-98534458D01*
X139983998Y-98689785D01*
X139830889Y-98842627D01*
X139530342Y-99566424D01*
X139529658Y-100350138D01*
X139828941Y-101074458D01*
X139983998Y-101229785D01*
X139830889Y-101382627D01*
X139530342Y-102106424D01*
X139529658Y-102890138D01*
X139828941Y-103614458D01*
X140382627Y-104169111D01*
X141106424Y-104469658D01*
X141890138Y-104470342D01*
X142614458Y-104171059D01*
X143169111Y-103617373D01*
X143469658Y-102893576D01*
X143470342Y-102109862D01*
X143171059Y-101385542D01*
X143016002Y-101230215D01*
X143169111Y-101077373D01*
X143469658Y-100353576D01*
X143469748Y-100250000D01*
X160725512Y-100250000D01*
X160725512Y-103250000D01*
X160812673Y-103713222D01*
X161086437Y-104138663D01*
X161504153Y-104424076D01*
X162000000Y-104524488D01*
X165000000Y-104524488D01*
X165463222Y-104437327D01*
X165888663Y-104163563D01*
X166174076Y-103745847D01*
X166188025Y-103676961D01*
X167713699Y-103676961D01*
X167907361Y-103951784D01*
X168801149Y-104041592D01*
X169252639Y-103951784D01*
X169446301Y-103676961D01*
X168580000Y-102810660D01*
X167713699Y-103676961D01*
X166188025Y-103676961D01*
X166274488Y-103250000D01*
X166274488Y-101971149D01*
X166288408Y-101971149D01*
X166378216Y-102422639D01*
X166653039Y-102616301D01*
X167519340Y-101750000D01*
X169640660Y-101750000D01*
X170506961Y-102616301D01*
X170781784Y-102422639D01*
X170871592Y-101528851D01*
X170781784Y-101077361D01*
X170506961Y-100883699D01*
X169640660Y-101750000D01*
X167519340Y-101750000D01*
X166653039Y-100883699D01*
X166378216Y-101077361D01*
X166288408Y-101971149D01*
X166274488Y-101971149D01*
X166274488Y-100250000D01*
X166194150Y-99823039D01*
X167713699Y-99823039D01*
X168580000Y-100689340D01*
X169446301Y-99823039D01*
X169252639Y-99548216D01*
X168358851Y-99458408D01*
X167907361Y-99548216D01*
X167713699Y-99823039D01*
X166194150Y-99823039D01*
X166187327Y-99786778D01*
X165913563Y-99361337D01*
X165495847Y-99075924D01*
X165000000Y-98975512D01*
X162000000Y-98975512D01*
X161536778Y-99062673D01*
X161111337Y-99336437D01*
X160825924Y-99754153D01*
X160725512Y-100250000D01*
X143469748Y-100250000D01*
X143470342Y-99569862D01*
X143171059Y-98845542D01*
X143016002Y-98690215D01*
X143169111Y-98537373D01*
X143469658Y-97813576D01*
X143470342Y-97029862D01*
X143458004Y-97000000D01*
X144789838Y-97000000D01*
X144945885Y-97784501D01*
X145390269Y-98449569D01*
X146055337Y-98893953D01*
X146839838Y-99050000D01*
X146920162Y-99050000D01*
X147704663Y-98893953D01*
X148369731Y-98449569D01*
X148814115Y-97784501D01*
X148889407Y-97405981D01*
X152449645Y-97405981D01*
X152761081Y-98159715D01*
X153337252Y-98736892D01*
X154090441Y-99049643D01*
X154905981Y-99050355D01*
X155659715Y-98738919D01*
X156236892Y-98162748D01*
X156549643Y-97409559D01*
X156550355Y-96594019D01*
X156238919Y-95840285D01*
X155662748Y-95263108D01*
X154909559Y-94950357D01*
X154094019Y-94949645D01*
X153340285Y-95261081D01*
X152763108Y-95837252D01*
X152450357Y-96590441D01*
X152449645Y-97405981D01*
X148889407Y-97405981D01*
X148970162Y-97000000D01*
X148814115Y-96215499D01*
X148369731Y-95550431D01*
X147704663Y-95106047D01*
X146920162Y-94950000D01*
X146839838Y-94950000D01*
X146055337Y-95106047D01*
X145390269Y-95550431D01*
X144945885Y-96215499D01*
X144789838Y-97000000D01*
X143458004Y-97000000D01*
X143171059Y-96305542D01*
X142617373Y-95750889D01*
X141893576Y-95450342D01*
X141109862Y-95449658D01*
X140385542Y-95748941D01*
X139830889Y-96302627D01*
X139530342Y-97026424D01*
X139529658Y-97810138D01*
X132897804Y-97810138D01*
X132854115Y-97590499D01*
X132409731Y-96925431D01*
X131744663Y-96481047D01*
X131520840Y-96436526D01*
X130900000Y-95815685D01*
X130269228Y-96446458D01*
X130095337Y-96481047D01*
X129430269Y-96925431D01*
X128985885Y-97590499D01*
X128829838Y-98375000D01*
X125350000Y-98375000D01*
X125350355Y-97969019D01*
X125038919Y-97215285D01*
X124670399Y-96846122D01*
X124889731Y-96699569D01*
X125334115Y-96034501D01*
X125484181Y-95280064D01*
X129311761Y-95280064D01*
X129421154Y-95830017D01*
X129669195Y-95915119D01*
X130334315Y-95250000D01*
X131465685Y-95250000D01*
X132130805Y-95915119D01*
X132378846Y-95830017D01*
X132488239Y-95219936D01*
X132378846Y-94669983D01*
X132130805Y-94584881D01*
X131465685Y-95250000D01*
X130334315Y-95250000D01*
X129669195Y-94584881D01*
X129421154Y-94669983D01*
X129311761Y-95280064D01*
X125484181Y-95280064D01*
X125490162Y-95250000D01*
X125334115Y-94465499D01*
X125035905Y-94019195D01*
X130234881Y-94019195D01*
X130900000Y-94684315D01*
X131565119Y-94019195D01*
X131480017Y-93771154D01*
X130869936Y-93661761D01*
X130319983Y-93771154D01*
X130234881Y-94019195D01*
X125035905Y-94019195D01*
X124889731Y-93800431D01*
X124673547Y-93655981D01*
X131949645Y-93655981D01*
X132261081Y-94409715D01*
X132837252Y-94986892D01*
X133590441Y-95299643D01*
X134405981Y-95300355D01*
X135159715Y-94988919D01*
X135328927Y-94820001D01*
X162707817Y-94820001D01*
X162839421Y-95079869D01*
X163571613Y-95181108D01*
X164080579Y-95079869D01*
X164212183Y-94820001D01*
X167787817Y-94820001D01*
X167919421Y-95079869D01*
X168651613Y-95181108D01*
X169160579Y-95079869D01*
X169292183Y-94820001D01*
X168540000Y-94067817D01*
X167787817Y-94820001D01*
X164212183Y-94820001D01*
X163460000Y-94067817D01*
X162707817Y-94820001D01*
X135328927Y-94820001D01*
X135736892Y-94412748D01*
X135957846Y-93880631D01*
X140195335Y-93880631D01*
X140492162Y-94324912D01*
X140989365Y-94674694D01*
X141220000Y-94566307D01*
X141220000Y-93650000D01*
X142020000Y-93650000D01*
X142020000Y-94566307D01*
X142250635Y-94674694D01*
X142747838Y-94324912D01*
X143044665Y-93880631D01*
X142928737Y-93650000D01*
X142020000Y-93650000D01*
X141220000Y-93650000D01*
X140311263Y-93650000D01*
X140195335Y-93880631D01*
X135957846Y-93880631D01*
X136049643Y-93659559D01*
X136050355Y-92844019D01*
X135957532Y-92619369D01*
X140195335Y-92619369D01*
X140311263Y-92850000D01*
X141220000Y-92850000D01*
X141220000Y-91933693D01*
X142020000Y-91933693D01*
X142020000Y-92850000D01*
X142928737Y-92850000D01*
X143044665Y-92619369D01*
X142747838Y-92175088D01*
X142250635Y-91825306D01*
X142020000Y-91933693D01*
X141220000Y-91933693D01*
X140989365Y-91825306D01*
X140492162Y-92175088D01*
X140195335Y-92619369D01*
X135957532Y-92619369D01*
X135738919Y-92090285D01*
X135162748Y-91513108D01*
X134409559Y-91200357D01*
X133594019Y-91199645D01*
X132840285Y-91511081D01*
X132263108Y-92087252D01*
X131950357Y-92840441D01*
X131949645Y-93655981D01*
X124673547Y-93655981D01*
X124224663Y-93356047D01*
X123440162Y-93200000D01*
X123359838Y-93200000D01*
X122575337Y-93356047D01*
X121910269Y-93800431D01*
X121465885Y-94465499D01*
X121309838Y-95250000D01*
X121465885Y-96034501D01*
X121910269Y-96699569D01*
X122009959Y-96766180D01*
X121563108Y-97212252D01*
X121250357Y-97965441D01*
X121249645Y-98780981D01*
X118789755Y-98780981D01*
X118790304Y-98153431D01*
X118524443Y-97509999D01*
X118032590Y-97017287D01*
X117480969Y-96788234D01*
X117254443Y-96239999D01*
X116762590Y-95747287D01*
X116119624Y-95480304D01*
X115423431Y-95479696D01*
X114779999Y-95745557D01*
X114287287Y-96237410D01*
X114084609Y-96725512D01*
X114000000Y-96725512D01*
X113536778Y-96812673D01*
X113111337Y-97086437D01*
X112825924Y-97504153D01*
X112725512Y-98000000D01*
X91804470Y-98000000D01*
X92049643Y-97409559D01*
X92050355Y-96594019D01*
X91738919Y-95840285D01*
X91162748Y-95263108D01*
X90409559Y-94950357D01*
X89594019Y-94949645D01*
X89508071Y-94985158D01*
X89774076Y-94595847D01*
X89874488Y-94100000D01*
X89874488Y-93000000D01*
X93725512Y-93000000D01*
X93725512Y-94000000D01*
X93812673Y-94463222D01*
X94086437Y-94888663D01*
X94139792Y-94925119D01*
X94017287Y-95047410D01*
X93750304Y-95690376D01*
X93749696Y-96386569D01*
X94015557Y-97030001D01*
X94507410Y-97522713D01*
X95150376Y-97789696D01*
X95846569Y-97790304D01*
X96490001Y-97524443D01*
X96982713Y-97032590D01*
X97211766Y-96480969D01*
X97760001Y-96254443D01*
X98252713Y-95762590D01*
X98519696Y-95119624D01*
X98520304Y-94423431D01*
X98254443Y-93779999D01*
X97762590Y-93287287D01*
X97274488Y-93084609D01*
X97274488Y-93000000D01*
X102725512Y-93000000D01*
X102725512Y-94000000D01*
X102812673Y-94463222D01*
X103086437Y-94888663D01*
X103139792Y-94925119D01*
X103017287Y-95047410D01*
X102750304Y-95690376D01*
X102749696Y-96386569D01*
X103015557Y-97030001D01*
X103507410Y-97522713D01*
X104150376Y-97789696D01*
X104846569Y-97790304D01*
X105490001Y-97524443D01*
X105982713Y-97032590D01*
X106211766Y-96480969D01*
X106760001Y-96254443D01*
X107252713Y-95762590D01*
X107519696Y-95119624D01*
X107520304Y-94423431D01*
X107254443Y-93779999D01*
X107180555Y-93705981D01*
X114524645Y-93705981D01*
X114836081Y-94459715D01*
X115412252Y-95036892D01*
X116165441Y-95349643D01*
X116980981Y-95350355D01*
X117734715Y-95038919D01*
X118311892Y-94462748D01*
X118624643Y-93709559D01*
X118625355Y-92894019D01*
X118313919Y-92140285D01*
X117737748Y-91563108D01*
X116984559Y-91250357D01*
X116169019Y-91249645D01*
X115415285Y-91561081D01*
X114838108Y-92137252D01*
X114525357Y-92890441D01*
X114524645Y-93705981D01*
X107180555Y-93705981D01*
X106762590Y-93287287D01*
X106274488Y-93084609D01*
X106274488Y-93000000D01*
X106187327Y-92536778D01*
X105913563Y-92111337D01*
X105495847Y-91825924D01*
X105000000Y-91725512D01*
X104000000Y-91725512D01*
X103536778Y-91812673D01*
X103111337Y-92086437D01*
X102825924Y-92504153D01*
X102725512Y-93000000D01*
X97274488Y-93000000D01*
X97187327Y-92536778D01*
X96913563Y-92111337D01*
X96495847Y-91825924D01*
X96000000Y-91725512D01*
X95000000Y-91725512D01*
X94536778Y-91812673D01*
X94111337Y-92086437D01*
X93825924Y-92504153D01*
X93725512Y-93000000D01*
X89874488Y-93000000D01*
X89874488Y-91900000D01*
X89787327Y-91436778D01*
X89513563Y-91011337D01*
X89095847Y-90725924D01*
X88600000Y-90625512D01*
X86400000Y-90625512D01*
X85936778Y-90712673D01*
X85511337Y-90986437D01*
X85225924Y-91404153D01*
X85125512Y-91900000D01*
X85125512Y-94100000D01*
X85212673Y-94563222D01*
X85486437Y-94988663D01*
X85904153Y-95274076D01*
X86400000Y-95374488D01*
X88600000Y-95374488D01*
X88756104Y-95345115D01*
X88274166Y-95826214D01*
X87944663Y-95606047D01*
X87160162Y-95450000D01*
X87079838Y-95450000D01*
X86295337Y-95606047D01*
X85630269Y-96050431D01*
X85185885Y-96715499D01*
X85029838Y-97500000D01*
X85185885Y-98284501D01*
X85630269Y-98949569D01*
X85631084Y-98950114D01*
X85094019Y-98949645D01*
X84340285Y-99261081D01*
X83763108Y-99837252D01*
X83450357Y-100590441D01*
X83449645Y-101405981D01*
X82549646Y-101405981D01*
X82550355Y-100594019D01*
X82238919Y-99840285D01*
X81662748Y-99263108D01*
X80937259Y-98961859D01*
X81236892Y-98662748D01*
X81549643Y-97909559D01*
X81550355Y-97094019D01*
X81238919Y-96340285D01*
X80662748Y-95763108D01*
X79909559Y-95450357D01*
X79094019Y-95449645D01*
X78340285Y-95761081D01*
X77763108Y-96337252D01*
X77450357Y-97090441D01*
X77449645Y-97905981D01*
X56524488Y-97905981D01*
X56524488Y-97750000D01*
X56437327Y-97286778D01*
X56163563Y-96861337D01*
X55745847Y-96575924D01*
X55250000Y-96475512D01*
X53250000Y-96475512D01*
X52786778Y-96562673D01*
X52361337Y-96836437D01*
X52075924Y-97254153D01*
X51975512Y-97750000D01*
X41469425Y-97750000D01*
X41393089Y-97366232D01*
X41129407Y-97219121D01*
X40348528Y-98000000D01*
X38651472Y-98000000D01*
X37870593Y-97219121D01*
X37606911Y-97366232D01*
X37508482Y-98138928D01*
X30954400Y-98138928D01*
X31049643Y-97909559D01*
X31050355Y-97094019D01*
X30751442Y-96370593D01*
X38719121Y-96370593D01*
X39500000Y-97151472D01*
X40280879Y-96370593D01*
X40133768Y-96106911D01*
X39361072Y-96008482D01*
X38866232Y-96106911D01*
X38719121Y-96370593D01*
X30751442Y-96370593D01*
X30738919Y-96340285D01*
X30162748Y-95763108D01*
X29409559Y-95450357D01*
X28594019Y-95449645D01*
X27840285Y-95761081D01*
X27325000Y-96275468D01*
X27325000Y-94195589D01*
X51999610Y-94195589D01*
X52341431Y-95022858D01*
X52973813Y-95656345D01*
X53800484Y-95999608D01*
X54695589Y-96000390D01*
X55522858Y-95658569D01*
X56156345Y-95026187D01*
X56499608Y-94199516D01*
X56499864Y-93905981D01*
X64699645Y-93905981D01*
X65011081Y-94659715D01*
X65587252Y-95236892D01*
X66340441Y-95549643D01*
X67155981Y-95550355D01*
X67909715Y-95238919D01*
X68486892Y-94662748D01*
X68799643Y-93909559D01*
X68800000Y-93500000D01*
X72279838Y-93500000D01*
X72435885Y-94284501D01*
X72880269Y-94949569D01*
X73545337Y-95393953D01*
X74329838Y-95550000D01*
X74410162Y-95550000D01*
X75194663Y-95393953D01*
X75859731Y-94949569D01*
X76304115Y-94284501D01*
X76396339Y-93820857D01*
X78213160Y-93820857D01*
X78483736Y-94225861D01*
X79059137Y-94666875D01*
X79330000Y-94585264D01*
X79330000Y-93550000D01*
X80430000Y-93550000D01*
X80430000Y-94585264D01*
X80700863Y-94666875D01*
X81276264Y-94225861D01*
X81546840Y-93820857D01*
X81455244Y-93550000D01*
X80430000Y-93550000D01*
X79330000Y-93550000D01*
X78304756Y-93550000D01*
X78213160Y-93820857D01*
X76396339Y-93820857D01*
X76460162Y-93500000D01*
X76304115Y-92715499D01*
X75945734Y-92179143D01*
X78213160Y-92179143D01*
X78304756Y-92450000D01*
X79330000Y-92450000D01*
X79330000Y-91414736D01*
X80430000Y-91414736D01*
X80430000Y-92450000D01*
X81455244Y-92450000D01*
X81546840Y-92179143D01*
X81276264Y-91774139D01*
X80700863Y-91333125D01*
X80430000Y-91414736D01*
X79330000Y-91414736D01*
X79059137Y-91333125D01*
X78483736Y-91774139D01*
X78213160Y-92179143D01*
X75945734Y-92179143D01*
X75859731Y-92050431D01*
X75194663Y-91606047D01*
X74410162Y-91450000D01*
X74329838Y-91450000D01*
X73545337Y-91606047D01*
X72880269Y-92050431D01*
X72435885Y-92715499D01*
X72279838Y-93500000D01*
X68800000Y-93500000D01*
X68800355Y-93094019D01*
X68488919Y-92340285D01*
X67912748Y-91763108D01*
X67159559Y-91450357D01*
X66344019Y-91449645D01*
X65590285Y-91761081D01*
X65013108Y-92337252D01*
X64700357Y-93090441D01*
X64699645Y-93905981D01*
X56499864Y-93905981D01*
X56500390Y-93304411D01*
X56158569Y-92477142D01*
X55526187Y-91843655D01*
X54699516Y-91500392D01*
X53804411Y-91499610D01*
X52977142Y-91841431D01*
X52343655Y-92473813D01*
X52000392Y-93300484D01*
X51999610Y-94195589D01*
X27325000Y-94195589D01*
X27325000Y-93730805D01*
X28334881Y-93730805D01*
X28419983Y-93978846D01*
X29030064Y-94088239D01*
X29580017Y-93978846D01*
X29665119Y-93730805D01*
X29000000Y-93065685D01*
X28334881Y-93730805D01*
X27325000Y-93730805D01*
X27325000Y-92530064D01*
X27411761Y-92530064D01*
X27521154Y-93080017D01*
X27769195Y-93165119D01*
X28434315Y-92500000D01*
X29565685Y-92500000D01*
X30230805Y-93165119D01*
X30478846Y-93080017D01*
X30588239Y-92469936D01*
X30478846Y-91919983D01*
X30230805Y-91834881D01*
X29565685Y-92500000D01*
X28434315Y-92500000D01*
X27769195Y-91834881D01*
X27521154Y-91919983D01*
X27411761Y-92530064D01*
X27325000Y-92530064D01*
X27325000Y-91269195D01*
X28334881Y-91269195D01*
X29000000Y-91934315D01*
X29665119Y-91269195D01*
X29580017Y-91021154D01*
X28969936Y-90911761D01*
X28419983Y-91021154D01*
X28334881Y-91269195D01*
X27325000Y-91269195D01*
X27325000Y-89300000D01*
X37025512Y-89300000D01*
X37025512Y-91700000D01*
X37112673Y-92163222D01*
X37386437Y-92588663D01*
X37804153Y-92874076D01*
X38300000Y-92974488D01*
X40700000Y-92974488D01*
X41163222Y-92887327D01*
X41588663Y-92613563D01*
X41874076Y-92195847D01*
X41974488Y-91700000D01*
X41974488Y-89300000D01*
X41887327Y-88836778D01*
X41613563Y-88411337D01*
X41297806Y-88195589D01*
X51999610Y-88195589D01*
X52341431Y-89022858D01*
X52973813Y-89656345D01*
X53800484Y-89999608D01*
X54695589Y-90000390D01*
X55522858Y-89658569D01*
X56156345Y-89026187D01*
X56499608Y-88199516D01*
X56500390Y-87304411D01*
X56477908Y-87250000D01*
X74802002Y-87250000D01*
X74988497Y-88187574D01*
X75519590Y-88982412D01*
X76314428Y-89513505D01*
X77252002Y-89700000D01*
X77347998Y-89700000D01*
X78285572Y-89513505D01*
X79080410Y-88982412D01*
X79611503Y-88187574D01*
X79701486Y-87735197D01*
X87549576Y-87735197D01*
X87921780Y-88636000D01*
X88610375Y-89325798D01*
X89510527Y-89699573D01*
X90485197Y-89700424D01*
X90970260Y-89500000D01*
X93789838Y-89500000D01*
X93945885Y-90284501D01*
X94390269Y-90949569D01*
X95055337Y-91393953D01*
X95839838Y-91550000D01*
X95920162Y-91550000D01*
X96704663Y-91393953D01*
X97369731Y-90949569D01*
X97814115Y-90284501D01*
X97970162Y-89500000D01*
X97814115Y-88715499D01*
X97369731Y-88050431D01*
X97001412Y-87804328D01*
X97159715Y-87738919D01*
X97736892Y-87162748D01*
X98049643Y-86409559D01*
X98050000Y-86000000D01*
X101409838Y-86000000D01*
X101565885Y-86784501D01*
X102010269Y-87449569D01*
X102424440Y-87726309D01*
X102340285Y-87761081D01*
X101763108Y-88337252D01*
X101450357Y-89090441D01*
X101449645Y-89905981D01*
X101761081Y-90659715D01*
X102337252Y-91236892D01*
X103090441Y-91549643D01*
X103905981Y-91550355D01*
X104659715Y-91238919D01*
X105236892Y-90662748D01*
X105549643Y-89909559D01*
X105550134Y-89346569D01*
X108209696Y-89346569D01*
X108475557Y-89990001D01*
X108967410Y-90482713D01*
X109519031Y-90711766D01*
X109745557Y-91260001D01*
X110237410Y-91752713D01*
X110880376Y-92019696D01*
X111576569Y-92020304D01*
X112220001Y-91754443D01*
X112712713Y-91262590D01*
X112979696Y-90619624D01*
X112980012Y-90258000D01*
X113750002Y-90258000D01*
X113750002Y-89670085D01*
X113758000Y-89650776D01*
X113758000Y-89439500D01*
X113568500Y-89250000D01*
X112750000Y-89250000D01*
X112750000Y-89366053D01*
X112714443Y-89279999D01*
X112222590Y-88787287D01*
X112132793Y-88750000D01*
X112250000Y-88750000D01*
X112250000Y-87931500D01*
X112750000Y-87931500D01*
X112750000Y-88750000D01*
X113568500Y-88750000D01*
X113612519Y-88705981D01*
X114524645Y-88705981D01*
X114836081Y-89459715D01*
X115412252Y-90036892D01*
X116165441Y-90349643D01*
X116980981Y-90350355D01*
X117734715Y-90038919D01*
X118311892Y-89462748D01*
X118624643Y-88709559D01*
X118625355Y-87894019D01*
X118313919Y-87140285D01*
X117970624Y-86796390D01*
X118109715Y-86738919D01*
X118686892Y-86162748D01*
X118764851Y-85975000D01*
X124325512Y-85975000D01*
X124325512Y-87775000D01*
X124412673Y-88238222D01*
X124686437Y-88663663D01*
X125104153Y-88949076D01*
X125600000Y-89049488D01*
X127400000Y-89049488D01*
X127863222Y-88962327D01*
X128288663Y-88688563D01*
X128574076Y-88270847D01*
X128674488Y-87775000D01*
X128674488Y-85975000D01*
X128587327Y-85511778D01*
X128435548Y-85275907D01*
X128486341Y-85199890D01*
X128650000Y-84377121D01*
X128650000Y-84292879D01*
X128486341Y-83470110D01*
X128215656Y-83065000D01*
X128486341Y-82659890D01*
X128650000Y-81837121D01*
X128650000Y-81752879D01*
X128486341Y-80930110D01*
X128020280Y-80232599D01*
X127762174Y-80060138D01*
X134279658Y-80060138D01*
X134578941Y-80784458D01*
X134733998Y-80939785D01*
X134580889Y-81092627D01*
X134280342Y-81816424D01*
X134279658Y-82600138D01*
X134578941Y-83324458D01*
X134733998Y-83479785D01*
X134580889Y-83632627D01*
X134280342Y-84356424D01*
X134279658Y-85140138D01*
X134578941Y-85864458D01*
X135132627Y-86419111D01*
X135856424Y-86719658D01*
X136640138Y-86720342D01*
X137364458Y-86421059D01*
X137919111Y-85867373D01*
X138219658Y-85143576D01*
X138220342Y-84359862D01*
X137921059Y-83635542D01*
X137766002Y-83480215D01*
X137919111Y-83327373D01*
X138125705Y-82829838D01*
X138450000Y-82829838D01*
X138450000Y-82910162D01*
X138606047Y-83694663D01*
X139050431Y-84359731D01*
X139715499Y-84804115D01*
X140500000Y-84960162D01*
X140637580Y-84932796D01*
X140509838Y-85575000D01*
X140665885Y-86359501D01*
X141110269Y-87024569D01*
X141775337Y-87468953D01*
X142559838Y-87625000D01*
X142640162Y-87625000D01*
X143300140Y-87493722D01*
X143215269Y-87550431D01*
X142770885Y-88215499D01*
X142614838Y-89000000D01*
X142770885Y-89784501D01*
X143215269Y-90449569D01*
X143880337Y-90893953D01*
X144213412Y-90960206D01*
X144090285Y-91011081D01*
X143513108Y-91587252D01*
X143200357Y-92340441D01*
X143199645Y-93155981D01*
X143511081Y-93909715D01*
X144087252Y-94486892D01*
X144840441Y-94799643D01*
X145655981Y-94800355D01*
X146409715Y-94488919D01*
X146986892Y-93912748D01*
X147299643Y-93159559D01*
X147300000Y-92750000D01*
X153159838Y-92750000D01*
X153315885Y-93534501D01*
X153760269Y-94199569D01*
X154425337Y-94643953D01*
X155209838Y-94800000D01*
X155290162Y-94800000D01*
X156074663Y-94643953D01*
X156739731Y-94199569D01*
X157184115Y-93534501D01*
X157210548Y-93401613D01*
X161568892Y-93401613D01*
X161670131Y-93910579D01*
X161929999Y-94042183D01*
X162682183Y-93290000D01*
X161929999Y-92537817D01*
X161670131Y-92669421D01*
X161568892Y-93401613D01*
X157210548Y-93401613D01*
X157340162Y-92750000D01*
X157184115Y-91965499D01*
X156739731Y-91300431D01*
X156074663Y-90856047D01*
X155290162Y-90700000D01*
X155209838Y-90700000D01*
X154425337Y-90856047D01*
X153760269Y-91300431D01*
X153315885Y-91965499D01*
X153159838Y-92750000D01*
X147300000Y-92750000D01*
X147300355Y-92344019D01*
X146988919Y-91590285D01*
X146412748Y-91013108D01*
X145758138Y-90741291D01*
X146194731Y-90449569D01*
X146639115Y-89784501D01*
X146714407Y-89405981D01*
X150274645Y-89405981D01*
X150586081Y-90159715D01*
X151162252Y-90736892D01*
X151915441Y-91049643D01*
X152730981Y-91050355D01*
X153484715Y-90738919D01*
X154061892Y-90162748D01*
X154237431Y-89740001D01*
X162707817Y-89740001D01*
X162839421Y-89999869D01*
X163571613Y-90101108D01*
X163581393Y-90099163D01*
X163759875Y-90277645D01*
X163750392Y-90300484D01*
X163749610Y-91195589D01*
X163760437Y-91221793D01*
X163554798Y-91427432D01*
X163348387Y-91398892D01*
X162839421Y-91500131D01*
X162707817Y-91759999D01*
X163460000Y-92512183D01*
X163848909Y-92123274D01*
X164626726Y-92901091D01*
X164237817Y-93290000D01*
X164990001Y-94042183D01*
X165249869Y-93910579D01*
X165351108Y-93178387D01*
X165349163Y-93168607D01*
X165527645Y-92990125D01*
X165550484Y-92999608D01*
X166445589Y-93000390D01*
X166471793Y-92989563D01*
X166677432Y-93195202D01*
X166648892Y-93401613D01*
X166750131Y-93910579D01*
X167009999Y-94042183D01*
X167762183Y-93290000D01*
X169317817Y-93290000D01*
X170070001Y-94042183D01*
X170329869Y-93910579D01*
X170431108Y-93178387D01*
X170329869Y-92669421D01*
X170070001Y-92537817D01*
X169317817Y-93290000D01*
X167762183Y-93290000D01*
X167373274Y-92901091D01*
X168151091Y-92123274D01*
X168540000Y-92512183D01*
X169292183Y-91759999D01*
X169160579Y-91500131D01*
X168428387Y-91398892D01*
X168418607Y-91400837D01*
X168240125Y-91222355D01*
X168249608Y-91199516D01*
X168250390Y-90304411D01*
X168239563Y-90278207D01*
X168445202Y-90072568D01*
X168651613Y-90101108D01*
X169160579Y-89999869D01*
X169292183Y-89740001D01*
X168540000Y-88987817D01*
X168151091Y-89376726D01*
X167373274Y-88598909D01*
X167762183Y-88210000D01*
X169317817Y-88210000D01*
X170070001Y-88962183D01*
X170329869Y-88830579D01*
X170431108Y-88098387D01*
X170329869Y-87589421D01*
X170070001Y-87457817D01*
X169317817Y-88210000D01*
X167762183Y-88210000D01*
X167009999Y-87457817D01*
X166750131Y-87589421D01*
X166648892Y-88321613D01*
X166650837Y-88331393D01*
X166472355Y-88509875D01*
X166449516Y-88500392D01*
X165554411Y-88499610D01*
X165528207Y-88510437D01*
X165322568Y-88304798D01*
X165351108Y-88098387D01*
X165249869Y-87589421D01*
X164990001Y-87457817D01*
X164237817Y-88210000D01*
X164626726Y-88598909D01*
X163848909Y-89376726D01*
X163460000Y-88987817D01*
X162707817Y-89740001D01*
X154237431Y-89740001D01*
X154374643Y-89409559D01*
X154375355Y-88594019D01*
X154262800Y-88321613D01*
X161568892Y-88321613D01*
X161670131Y-88830579D01*
X161929999Y-88962183D01*
X162682183Y-88210000D01*
X161929999Y-87457817D01*
X161670131Y-87589421D01*
X161568892Y-88321613D01*
X154262800Y-88321613D01*
X154063919Y-87840285D01*
X153603078Y-87378640D01*
X153759715Y-87313919D01*
X154336892Y-86737748D01*
X154360871Y-86679999D01*
X162707817Y-86679999D01*
X163460000Y-87432183D01*
X164212183Y-86679999D01*
X167787817Y-86679999D01*
X168540000Y-87432183D01*
X168892344Y-87079838D01*
X175450000Y-87079838D01*
X175450000Y-87160162D01*
X175606047Y-87944663D01*
X176050431Y-88609731D01*
X176715499Y-89054115D01*
X176937248Y-89098224D01*
X176424202Y-89610375D01*
X176050427Y-90510527D01*
X176049576Y-91485197D01*
X176421780Y-92386000D01*
X177110375Y-93075798D01*
X178010527Y-93449573D01*
X178985197Y-93450424D01*
X179886000Y-93078220D01*
X180388527Y-92576569D01*
X180979696Y-92576569D01*
X181245557Y-93220001D01*
X181737410Y-93712713D01*
X182225512Y-93915391D01*
X182225512Y-94000000D01*
X182312673Y-94463222D01*
X182586437Y-94888663D01*
X183004153Y-95174076D01*
X183500000Y-95274488D01*
X184500000Y-95274488D01*
X184963222Y-95187327D01*
X185388663Y-94913563D01*
X185674076Y-94495847D01*
X185774488Y-94000000D01*
X185774488Y-93000000D01*
X185687327Y-92536778D01*
X185413563Y-92111337D01*
X185360208Y-92074881D01*
X185482713Y-91952590D01*
X185502066Y-91905981D01*
X188449645Y-91905981D01*
X188761081Y-92659715D01*
X189337252Y-93236892D01*
X190090441Y-93549643D01*
X190905981Y-93550355D01*
X191074305Y-93480805D01*
X262334881Y-93480805D01*
X262419983Y-93728846D01*
X263030064Y-93838239D01*
X263580017Y-93728846D01*
X263665119Y-93480805D01*
X263000000Y-92815685D01*
X262334881Y-93480805D01*
X191074305Y-93480805D01*
X191659715Y-93238919D01*
X192236892Y-92662748D01*
X192395796Y-92280064D01*
X261411761Y-92280064D01*
X261521154Y-92830017D01*
X261769195Y-92915119D01*
X262434315Y-92250000D01*
X263565685Y-92250000D01*
X264230805Y-92915119D01*
X264478846Y-92830017D01*
X264588239Y-92219936D01*
X264478846Y-91669983D01*
X264230805Y-91584881D01*
X263565685Y-92250000D01*
X262434315Y-92250000D01*
X261769195Y-91584881D01*
X261521154Y-91669983D01*
X261411761Y-92280064D01*
X192395796Y-92280064D01*
X192549643Y-91909559D01*
X192550355Y-91094019D01*
X192238919Y-90340285D01*
X192188223Y-90289500D01*
X195292000Y-90289500D01*
X195292000Y-90850775D01*
X195407398Y-91129372D01*
X195620627Y-91342601D01*
X195899224Y-91458000D01*
X196460500Y-91458000D01*
X196650000Y-91268500D01*
X196650000Y-90100000D01*
X197850000Y-90100000D01*
X197850000Y-91268500D01*
X198039500Y-91458000D01*
X198600776Y-91458000D01*
X198879373Y-91342601D01*
X199092602Y-91129372D01*
X199208000Y-90850775D01*
X199208000Y-90289500D01*
X199018500Y-90100000D01*
X197850000Y-90100000D01*
X196650000Y-90100000D01*
X195481500Y-90100000D01*
X195292000Y-90289500D01*
X192188223Y-90289500D01*
X191884451Y-89985197D01*
X202299576Y-89985197D01*
X202671780Y-90886000D01*
X203360375Y-91575798D01*
X204260527Y-91949573D01*
X205235197Y-91950424D01*
X206136000Y-91578220D01*
X206825798Y-90889625D01*
X207199573Y-89989473D01*
X207199576Y-89985197D01*
X210049576Y-89985197D01*
X210421780Y-90886000D01*
X211110375Y-91575798D01*
X212010527Y-91949573D01*
X212985197Y-91950424D01*
X213886000Y-91578220D01*
X214575798Y-90889625D01*
X214824991Y-90289500D01*
X218042000Y-90289500D01*
X218042000Y-90850775D01*
X218157398Y-91129372D01*
X218370627Y-91342601D01*
X218649224Y-91458000D01*
X219210500Y-91458000D01*
X219400000Y-91268500D01*
X219400000Y-90100000D01*
X220600000Y-90100000D01*
X220600000Y-91268500D01*
X220789500Y-91458000D01*
X221350776Y-91458000D01*
X221629373Y-91342601D01*
X221842602Y-91129372D01*
X221888238Y-91019195D01*
X262334881Y-91019195D01*
X263000000Y-91684315D01*
X263665119Y-91019195D01*
X263580017Y-90771154D01*
X262969936Y-90661761D01*
X262419983Y-90771154D01*
X262334881Y-91019195D01*
X221888238Y-91019195D01*
X221958000Y-90850775D01*
X221958000Y-90289500D01*
X221768500Y-90100000D01*
X220600000Y-90100000D01*
X219400000Y-90100000D01*
X218231500Y-90100000D01*
X218042000Y-90289500D01*
X214824991Y-90289500D01*
X214949573Y-89989473D01*
X214950424Y-89014803D01*
X214592775Y-88149225D01*
X218042000Y-88149225D01*
X218042000Y-88710500D01*
X218231500Y-88900000D01*
X219400000Y-88900000D01*
X219400000Y-87731500D01*
X220600000Y-87731500D01*
X220600000Y-88900000D01*
X221768500Y-88900000D01*
X221958000Y-88710500D01*
X221958000Y-88149225D01*
X221842602Y-87870628D01*
X221629373Y-87657399D01*
X221350776Y-87542000D01*
X220789500Y-87542000D01*
X220600000Y-87731500D01*
X219400000Y-87731500D01*
X219210500Y-87542000D01*
X218649224Y-87542000D01*
X218370627Y-87657399D01*
X218157398Y-87870628D01*
X218042000Y-88149225D01*
X214592775Y-88149225D01*
X214578220Y-88114000D01*
X213889625Y-87424202D01*
X212989473Y-87050427D01*
X212014803Y-87049576D01*
X211114000Y-87421780D01*
X210424202Y-88110375D01*
X210050427Y-89010527D01*
X210049576Y-89985197D01*
X207199576Y-89985197D01*
X207200424Y-89014803D01*
X206828220Y-88114000D01*
X206139625Y-87424202D01*
X205239473Y-87050427D01*
X204264803Y-87049576D01*
X203364000Y-87421780D01*
X202674202Y-88110375D01*
X202300427Y-89010527D01*
X202299576Y-89985197D01*
X191884451Y-89985197D01*
X191662748Y-89763108D01*
X190909559Y-89450357D01*
X190094019Y-89449645D01*
X189340285Y-89761081D01*
X188763108Y-90337252D01*
X188450357Y-91090441D01*
X188449645Y-91905981D01*
X185502066Y-91905981D01*
X185749696Y-91309624D01*
X185750304Y-90613431D01*
X185484443Y-89969999D01*
X184992590Y-89477287D01*
X184349624Y-89210304D01*
X183653431Y-89209696D01*
X183009999Y-89475557D01*
X182517287Y-89967410D01*
X182288234Y-90519031D01*
X181739999Y-90745557D01*
X181247287Y-91237410D01*
X180980304Y-91880376D01*
X180979696Y-92576569D01*
X180388527Y-92576569D01*
X180575798Y-92389625D01*
X180949573Y-91489473D01*
X180950424Y-90514803D01*
X180578220Y-89614000D01*
X179889625Y-88924202D01*
X178989473Y-88550427D01*
X178989195Y-88550427D01*
X179257269Y-88149225D01*
X195292000Y-88149225D01*
X195292000Y-88710500D01*
X195481500Y-88900000D01*
X196650000Y-88900000D01*
X196650000Y-87731500D01*
X197850000Y-87731500D01*
X197850000Y-88900000D01*
X199018500Y-88900000D01*
X199208000Y-88710500D01*
X199208000Y-88149225D01*
X199092602Y-87870628D01*
X198879373Y-87657399D01*
X198600776Y-87542000D01*
X198039500Y-87542000D01*
X197850000Y-87731500D01*
X196650000Y-87731500D01*
X196460500Y-87542000D01*
X195899224Y-87542000D01*
X195620627Y-87657399D01*
X195407398Y-87870628D01*
X195292000Y-88149225D01*
X179257269Y-88149225D01*
X179393953Y-87944663D01*
X179550000Y-87160162D01*
X179550000Y-87079838D01*
X179393953Y-86295337D01*
X178949569Y-85630269D01*
X178613899Y-85405981D01*
X179949645Y-85405981D01*
X180261081Y-86159715D01*
X180837252Y-86736892D01*
X181590441Y-87049643D01*
X182405981Y-87050355D01*
X183159715Y-86738919D01*
X183736892Y-86162748D01*
X184049643Y-85409559D01*
X184050355Y-84594019D01*
X183738919Y-83840285D01*
X183162748Y-83263108D01*
X182409559Y-82950357D01*
X181594019Y-82949645D01*
X180840285Y-83261081D01*
X180263108Y-83837252D01*
X179950357Y-84590441D01*
X179949645Y-85405981D01*
X178613899Y-85405981D01*
X178284501Y-85185885D01*
X177500000Y-85029838D01*
X176715499Y-85185885D01*
X176050431Y-85630269D01*
X175606047Y-86295337D01*
X175450000Y-87079838D01*
X168892344Y-87079838D01*
X169292183Y-86679999D01*
X169160579Y-86420131D01*
X168428387Y-86318892D01*
X167919421Y-86420131D01*
X167787817Y-86679999D01*
X164212183Y-86679999D01*
X164080579Y-86420131D01*
X163348387Y-86318892D01*
X162839421Y-86420131D01*
X162707817Y-86679999D01*
X154360871Y-86679999D01*
X154649643Y-85984559D01*
X154650355Y-85169019D01*
X154338919Y-84415285D01*
X153762748Y-83838108D01*
X153009559Y-83525357D01*
X152194019Y-83524645D01*
X151440285Y-83836081D01*
X150863108Y-84412252D01*
X150550357Y-85165441D01*
X150549645Y-85980981D01*
X150861081Y-86734715D01*
X151321922Y-87196360D01*
X151165285Y-87261081D01*
X150588108Y-87837252D01*
X150275357Y-88590441D01*
X150274645Y-89405981D01*
X146714407Y-89405981D01*
X146795162Y-89000000D01*
X146639115Y-88215499D01*
X146194731Y-87550431D01*
X145529663Y-87106047D01*
X144745162Y-86950000D01*
X144664838Y-86950000D01*
X144004860Y-87081278D01*
X144089731Y-87024569D01*
X144534115Y-86359501D01*
X144690162Y-85575000D01*
X144534115Y-84790499D01*
X144089731Y-84125431D01*
X143424663Y-83681047D01*
X142640162Y-83525000D01*
X142559838Y-83525000D01*
X142422258Y-83552366D01*
X142550000Y-82910162D01*
X142550000Y-82829838D01*
X142393953Y-82045337D01*
X141949569Y-81380269D01*
X141284501Y-80935885D01*
X140500000Y-80779838D01*
X139715499Y-80935885D01*
X139050431Y-81380269D01*
X138606047Y-82045337D01*
X138450000Y-82829838D01*
X138125705Y-82829838D01*
X138219658Y-82603576D01*
X138220342Y-81819862D01*
X137921059Y-81095542D01*
X137766002Y-80940215D01*
X137919111Y-80787373D01*
X138219658Y-80063576D01*
X138220342Y-79279862D01*
X138146025Y-79100000D01*
X158825512Y-79100000D01*
X158825512Y-80900000D01*
X158912673Y-81363222D01*
X159186437Y-81788663D01*
X159604153Y-82074076D01*
X160100000Y-82174488D01*
X161900000Y-82174488D01*
X162363222Y-82087327D01*
X162599093Y-81935548D01*
X162675110Y-81986341D01*
X163497879Y-82150000D01*
X163582121Y-82150000D01*
X164404890Y-81986341D01*
X164810000Y-81715656D01*
X165215110Y-81986341D01*
X166037879Y-82150000D01*
X166122121Y-82150000D01*
X166944890Y-81986341D01*
X167642401Y-81520280D01*
X168108462Y-80822769D01*
X168272121Y-80000000D01*
X168253420Y-79905981D01*
X175449645Y-79905981D01*
X175761081Y-80659715D01*
X176337252Y-81236892D01*
X177090441Y-81549643D01*
X177905981Y-81550355D01*
X178659715Y-81238919D01*
X179236892Y-80662748D01*
X179343510Y-80405981D01*
X179949645Y-80405981D01*
X180261081Y-81159715D01*
X180837252Y-81736892D01*
X181590441Y-82049643D01*
X182405981Y-82050355D01*
X183159715Y-81738919D01*
X183736892Y-81162748D01*
X184049643Y-80409559D01*
X184049913Y-80100000D01*
X184325512Y-80100000D01*
X184325512Y-81900000D01*
X184412673Y-82363222D01*
X184563395Y-82597450D01*
X184350374Y-83110462D01*
X184349628Y-83965785D01*
X184676256Y-84756286D01*
X185280533Y-85361619D01*
X186070462Y-85689626D01*
X186925785Y-85690372D01*
X187716286Y-85363744D01*
X188321619Y-84759467D01*
X188649626Y-83969538D01*
X188650372Y-83114215D01*
X188436652Y-82596973D01*
X188574076Y-82395847D01*
X188674488Y-81900000D01*
X188674488Y-80100000D01*
X188587327Y-79636778D01*
X188363860Y-79289500D01*
X207542000Y-79289500D01*
X207542000Y-79850776D01*
X207657399Y-80129373D01*
X207870628Y-80342602D01*
X208149225Y-80458000D01*
X208710500Y-80458000D01*
X208900000Y-80268500D01*
X208900000Y-79100000D01*
X210100000Y-79100000D01*
X210100000Y-80268500D01*
X210289500Y-80458000D01*
X210850775Y-80458000D01*
X211129372Y-80342602D01*
X211342601Y-80129373D01*
X211458000Y-79850776D01*
X211458000Y-79630635D01*
X219575306Y-79630635D01*
X219925088Y-80127838D01*
X220369369Y-80424665D01*
X220600000Y-80308737D01*
X220600000Y-79400000D01*
X221400000Y-79400000D01*
X221400000Y-80308737D01*
X221630631Y-80424665D01*
X222074912Y-80127838D01*
X222424694Y-79630635D01*
X222316307Y-79400000D01*
X221400000Y-79400000D01*
X220600000Y-79400000D01*
X219683693Y-79400000D01*
X219575306Y-79630635D01*
X211458000Y-79630635D01*
X211458000Y-79289500D01*
X211268500Y-79100000D01*
X210100000Y-79100000D01*
X208900000Y-79100000D01*
X207731500Y-79100000D01*
X207542000Y-79289500D01*
X188363860Y-79289500D01*
X188313563Y-79211337D01*
X187895847Y-78925924D01*
X187400000Y-78825512D01*
X185600000Y-78825512D01*
X185136778Y-78912673D01*
X184711337Y-79186437D01*
X184425924Y-79604153D01*
X184325512Y-80100000D01*
X184049913Y-80100000D01*
X184050355Y-79594019D01*
X183738919Y-78840285D01*
X183162748Y-78263108D01*
X182409559Y-77950357D01*
X181594019Y-77949645D01*
X180840285Y-78261081D01*
X180263108Y-78837252D01*
X179950357Y-79590441D01*
X179949645Y-80405981D01*
X179343510Y-80405981D01*
X179549643Y-79909559D01*
X179550355Y-79094019D01*
X179238919Y-78340285D01*
X178662748Y-77763108D01*
X177909559Y-77450357D01*
X177094019Y-77449645D01*
X176340285Y-77761081D01*
X175763108Y-78337252D01*
X175450357Y-79090441D01*
X175449645Y-79905981D01*
X168253420Y-79905981D01*
X168108462Y-79177231D01*
X167642401Y-78479720D01*
X166944890Y-78013659D01*
X166122121Y-77850000D01*
X166037879Y-77850000D01*
X165215110Y-78013659D01*
X164810000Y-78284344D01*
X164404890Y-78013659D01*
X163582121Y-77850000D01*
X163497879Y-77850000D01*
X162675110Y-78013659D01*
X162598838Y-78064622D01*
X162395847Y-77925924D01*
X161900000Y-77825512D01*
X160100000Y-77825512D01*
X159636778Y-77912673D01*
X159211337Y-78186437D01*
X158925924Y-78604153D01*
X158825512Y-79100000D01*
X138146025Y-79100000D01*
X137921059Y-78555542D01*
X137367373Y-78000889D01*
X136643576Y-77700342D01*
X135859862Y-77699658D01*
X135135542Y-77998941D01*
X134580889Y-78552627D01*
X134280342Y-79276424D01*
X134279658Y-80060138D01*
X127762174Y-80060138D01*
X127322769Y-79766538D01*
X126500000Y-79602879D01*
X125677231Y-79766538D01*
X124979720Y-80232599D01*
X124513659Y-80930110D01*
X124350000Y-81752879D01*
X124350000Y-81837121D01*
X124513659Y-82659890D01*
X124784344Y-83065000D01*
X124513659Y-83470110D01*
X124350000Y-84292879D01*
X124350000Y-84377121D01*
X124513659Y-85199890D01*
X124564622Y-85276162D01*
X124425924Y-85479153D01*
X124325512Y-85975000D01*
X118764851Y-85975000D01*
X118999643Y-85409559D01*
X119000355Y-84594019D01*
X118688919Y-83840285D01*
X118112748Y-83263108D01*
X117359559Y-82950357D01*
X116544019Y-82949645D01*
X115790285Y-83261081D01*
X115213108Y-83837252D01*
X114900357Y-84590441D01*
X114899645Y-85405981D01*
X115211081Y-86159715D01*
X115554376Y-86503610D01*
X115415285Y-86561081D01*
X114838108Y-87137252D01*
X114525357Y-87890441D01*
X114524645Y-88705981D01*
X113612519Y-88705981D01*
X113758000Y-88560500D01*
X113758000Y-88349224D01*
X113642601Y-88070627D01*
X113429372Y-87857398D01*
X113150775Y-87742000D01*
X112939500Y-87742000D01*
X112750000Y-87931500D01*
X112250000Y-87931500D01*
X112060500Y-87742000D01*
X111849225Y-87742000D01*
X111829916Y-87749998D01*
X111242000Y-87749998D01*
X111242000Y-87807202D01*
X110952590Y-87517287D01*
X110309624Y-87250304D01*
X109613431Y-87249696D01*
X108969999Y-87515557D01*
X108477287Y-88007410D01*
X108210304Y-88650376D01*
X108209696Y-89346569D01*
X105550134Y-89346569D01*
X105550355Y-89094019D01*
X105238919Y-88340285D01*
X104662748Y-87763108D01*
X104575010Y-87726676D01*
X104989731Y-87449569D01*
X105434115Y-86784501D01*
X105590162Y-86000000D01*
X105434115Y-85215499D01*
X105290124Y-85000000D01*
X107239838Y-85000000D01*
X107395885Y-85784501D01*
X107840269Y-86449569D01*
X108505337Y-86893953D01*
X109289838Y-87050000D01*
X109370162Y-87050000D01*
X110154663Y-86893953D01*
X110819731Y-86449569D01*
X111264115Y-85784501D01*
X111420162Y-85000000D01*
X111264115Y-84215499D01*
X110819731Y-83550431D01*
X110154663Y-83106047D01*
X109370162Y-82950000D01*
X109289838Y-82950000D01*
X108505337Y-83106047D01*
X107840269Y-83550431D01*
X107395885Y-84215499D01*
X107239838Y-85000000D01*
X105290124Y-85000000D01*
X104989731Y-84550431D01*
X104576753Y-84274488D01*
X105000000Y-84274488D01*
X105463222Y-84187327D01*
X105888663Y-83913563D01*
X106174076Y-83495847D01*
X106274488Y-83000000D01*
X106274488Y-82000000D01*
X106187327Y-81536778D01*
X105913563Y-81111337D01*
X105860208Y-81074881D01*
X105982713Y-80952590D01*
X106249696Y-80309624D01*
X106250304Y-79613431D01*
X105984443Y-78969999D01*
X105492590Y-78477287D01*
X104849624Y-78210304D01*
X104153431Y-78209696D01*
X103509999Y-78475557D01*
X103017287Y-78967410D01*
X102788234Y-79519031D01*
X102239999Y-79745557D01*
X101747287Y-80237410D01*
X101480304Y-80880376D01*
X101479696Y-81576569D01*
X101745557Y-82220001D01*
X102237410Y-82712713D01*
X102725512Y-82915391D01*
X102725512Y-83000000D01*
X102812673Y-83463222D01*
X103086437Y-83888663D01*
X103240159Y-83993697D01*
X102675337Y-84106047D01*
X102010269Y-84550431D01*
X101565885Y-85215499D01*
X101409838Y-86000000D01*
X98050000Y-86000000D01*
X98050355Y-85594019D01*
X97738919Y-84840285D01*
X97174108Y-84274488D01*
X98000000Y-84274488D01*
X98463222Y-84187327D01*
X98888663Y-83913563D01*
X99174076Y-83495847D01*
X99274488Y-83000000D01*
X99274488Y-82000000D01*
X99187327Y-81536778D01*
X98913563Y-81111337D01*
X98860208Y-81074881D01*
X98982713Y-80952590D01*
X99249696Y-80309624D01*
X99250304Y-79613431D01*
X98984443Y-78969999D01*
X98492590Y-78477287D01*
X97849624Y-78210304D01*
X97153431Y-78209696D01*
X96509999Y-78475557D01*
X96017287Y-78967410D01*
X95788234Y-79519031D01*
X95239999Y-79745557D01*
X94747287Y-80237410D01*
X94480304Y-80880376D01*
X94479696Y-81576569D01*
X94745557Y-82220001D01*
X95237410Y-82712713D01*
X95725512Y-82915391D01*
X95725512Y-83000000D01*
X95812673Y-83463222D01*
X96086437Y-83888663D01*
X96176431Y-83950153D01*
X95594019Y-83949645D01*
X94840285Y-84261081D01*
X94263108Y-84837252D01*
X93950357Y-85590441D01*
X93949645Y-86405981D01*
X94261081Y-87159715D01*
X94837252Y-87736892D01*
X94850981Y-87742593D01*
X94390269Y-88050431D01*
X93945885Y-88715499D01*
X93789838Y-89500000D01*
X90970260Y-89500000D01*
X91386000Y-89328220D01*
X92075798Y-88639625D01*
X92449573Y-87739473D01*
X92450424Y-86764803D01*
X92078220Y-85864000D01*
X91389625Y-85174202D01*
X90489473Y-84800427D01*
X89514803Y-84799576D01*
X88614000Y-85171780D01*
X87924202Y-85860375D01*
X87550427Y-86760527D01*
X87549576Y-87735197D01*
X79701486Y-87735197D01*
X79797998Y-87250000D01*
X79611503Y-86312426D01*
X79080410Y-85517588D01*
X78285572Y-84986495D01*
X77347998Y-84800000D01*
X77252002Y-84800000D01*
X76314428Y-84986495D01*
X75519590Y-85517588D01*
X74988497Y-86312426D01*
X74802002Y-87250000D01*
X56477908Y-87250000D01*
X56158569Y-86477142D01*
X55526187Y-85843655D01*
X54699516Y-85500392D01*
X53804411Y-85499610D01*
X52977142Y-85841431D01*
X52343655Y-86473813D01*
X52000392Y-87300484D01*
X51999610Y-88195589D01*
X41297806Y-88195589D01*
X41195847Y-88125924D01*
X40700000Y-88025512D01*
X38300000Y-88025512D01*
X37836778Y-88112673D01*
X37411337Y-88386437D01*
X37125924Y-88804153D01*
X37025512Y-89300000D01*
X27325000Y-89300000D01*
X27325000Y-84129407D01*
X34969121Y-84129407D01*
X35116232Y-84393089D01*
X35888928Y-84491518D01*
X36383768Y-84393089D01*
X36530879Y-84129407D01*
X35840972Y-83439500D01*
X52492000Y-83439500D01*
X52492000Y-83900776D01*
X52607399Y-84179373D01*
X52820628Y-84392602D01*
X53099225Y-84508000D01*
X53560500Y-84508000D01*
X53750000Y-84318500D01*
X53750000Y-83250000D01*
X54750000Y-83250000D01*
X54750000Y-84318500D01*
X54939500Y-84508000D01*
X55400775Y-84508000D01*
X55679372Y-84392602D01*
X55892601Y-84179373D01*
X56008000Y-83900776D01*
X56008000Y-83439500D01*
X55818500Y-83250000D01*
X54750000Y-83250000D01*
X53750000Y-83250000D01*
X52681500Y-83250000D01*
X52492000Y-83439500D01*
X35840972Y-83439500D01*
X35750000Y-83348528D01*
X34969121Y-84129407D01*
X27325000Y-84129407D01*
X27325000Y-82638928D01*
X33758482Y-82638928D01*
X33856911Y-83133768D01*
X34120593Y-83280879D01*
X34901472Y-82500000D01*
X36598528Y-82500000D01*
X37379407Y-83280879D01*
X37643089Y-83133768D01*
X37741518Y-82361072D01*
X37643089Y-81866232D01*
X37379407Y-81719121D01*
X36598528Y-82500000D01*
X34901472Y-82500000D01*
X34120593Y-81719121D01*
X33856911Y-81866232D01*
X33758482Y-82638928D01*
X27325000Y-82638928D01*
X27325000Y-80870593D01*
X34969121Y-80870593D01*
X35750000Y-81651472D01*
X35802248Y-81599224D01*
X52492000Y-81599224D01*
X52492000Y-82060500D01*
X52681500Y-82250000D01*
X53750000Y-82250000D01*
X53750000Y-81181500D01*
X54750000Y-81181500D01*
X54750000Y-82250000D01*
X55818500Y-82250000D01*
X56008000Y-82060500D01*
X56008000Y-81599224D01*
X55892601Y-81320627D01*
X55679372Y-81107398D01*
X55400775Y-80992000D01*
X54939500Y-80992000D01*
X54750000Y-81181500D01*
X53750000Y-81181500D01*
X53560500Y-80992000D01*
X53099225Y-80992000D01*
X52820628Y-81107398D01*
X52607399Y-81320627D01*
X52492000Y-81599224D01*
X35802248Y-81599224D01*
X36530879Y-80870593D01*
X36383768Y-80606911D01*
X35611072Y-80508482D01*
X35116232Y-80606911D01*
X34969121Y-80870593D01*
X27325000Y-80870593D01*
X27325000Y-80129407D01*
X80219121Y-80129407D01*
X80366232Y-80393089D01*
X81138928Y-80491518D01*
X81633768Y-80393089D01*
X81780879Y-80129407D01*
X81000000Y-79348528D01*
X80219121Y-80129407D01*
X27325000Y-80129407D01*
X27325000Y-73800000D01*
X33275512Y-73800000D01*
X33275512Y-76200000D01*
X33362673Y-76663222D01*
X33636437Y-77088663D01*
X34054153Y-77374076D01*
X34550000Y-77474488D01*
X36950000Y-77474488D01*
X37413222Y-77387327D01*
X37838663Y-77113563D01*
X38124076Y-76695847D01*
X38224488Y-76200000D01*
X38224488Y-73800000D01*
X38137327Y-73336778D01*
X37863563Y-72911337D01*
X37445847Y-72625924D01*
X36950000Y-72525512D01*
X34550000Y-72525512D01*
X34086778Y-72612673D01*
X33661337Y-72886437D01*
X33375924Y-73304153D01*
X33275512Y-73800000D01*
X27325000Y-73800000D01*
X27325000Y-68250000D01*
X44831253Y-68250000D01*
X44725924Y-68404153D01*
X44725924Y-68404153D01*
G37*
X44725924Y-68404153D02*
X44625512Y-68900000D01*
X44625512Y-71100000D01*
X44712673Y-71563222D01*
X44986437Y-71988663D01*
X45404153Y-72274076D01*
X45767480Y-72347652D01*
X43370641Y-76342385D01*
X43074504Y-77168837D01*
X43117180Y-78045705D01*
X43492169Y-78839495D01*
X44142385Y-79429359D01*
X44968837Y-79725496D01*
X45845705Y-79682820D01*
X46639495Y-79307831D01*
X47162962Y-78730805D01*
X57334881Y-78730805D01*
X57419983Y-78978846D01*
X58030064Y-79088239D01*
X58580017Y-78978846D01*
X58665119Y-78730805D01*
X58573243Y-78638928D01*
X79008482Y-78638928D01*
X79106911Y-79133768D01*
X79370593Y-79280879D01*
X80151472Y-78500000D01*
X81848528Y-78500000D01*
X82629407Y-79280879D01*
X82893089Y-79133768D01*
X82893488Y-79130635D01*
X91075306Y-79130635D01*
X91425088Y-79627838D01*
X91869369Y-79924665D01*
X92100000Y-79808737D01*
X92100000Y-78900000D01*
X92900000Y-78900000D01*
X92900000Y-79808737D01*
X93130631Y-79924665D01*
X93574912Y-79627838D01*
X93924694Y-79130635D01*
X93816307Y-78900000D01*
X92900000Y-78900000D01*
X92100000Y-78900000D01*
X91183693Y-78900000D01*
X91075306Y-79130635D01*
X82893488Y-79130635D01*
X82991518Y-78361072D01*
X82893713Y-77869365D01*
X91075306Y-77869365D01*
X91183693Y-78100000D01*
X92100000Y-78100000D01*
X92100000Y-77191263D01*
X92900000Y-77191263D01*
X92900000Y-78100000D01*
X93816307Y-78100000D01*
X93924694Y-77869365D01*
X93574912Y-77372162D01*
X93130631Y-77075335D01*
X92900000Y-77191263D01*
X92100000Y-77191263D01*
X91869369Y-77075335D01*
X91425088Y-77372162D01*
X91075306Y-77869365D01*
X82893713Y-77869365D01*
X82893089Y-77866232D01*
X82629407Y-77719121D01*
X81848528Y-78500000D01*
X80151472Y-78500000D01*
X79370593Y-77719121D01*
X79106911Y-77866232D01*
X79008482Y-78638928D01*
X58573243Y-78638928D01*
X58000000Y-78065685D01*
X57334881Y-78730805D01*
X47162962Y-78730805D01*
X47229359Y-78657615D01*
X47905889Y-77530064D01*
X56411761Y-77530064D01*
X56521154Y-78080017D01*
X56769195Y-78165119D01*
X57434315Y-77500000D01*
X58565685Y-77500000D01*
X59230805Y-78165119D01*
X59478846Y-78080017D01*
X59588239Y-77469936D01*
X59478846Y-76919983D01*
X59334893Y-76870593D01*
X80219121Y-76870593D01*
X81000000Y-77651472D01*
X81780879Y-76870593D01*
X81633768Y-76606911D01*
X80861072Y-76508482D01*
X80366232Y-76606911D01*
X80219121Y-76870593D01*
X59334893Y-76870593D01*
X59230805Y-76834881D01*
X58565685Y-77500000D01*
X57434315Y-77500000D01*
X56769195Y-76834881D01*
X56521154Y-76919983D01*
X56411761Y-77530064D01*
X47905889Y-77530064D01*
X48662410Y-76269195D01*
X57334881Y-76269195D01*
X58000000Y-76934315D01*
X58528333Y-76405981D01*
X93949645Y-76405981D01*
X94261081Y-77159715D01*
X94837252Y-77736892D01*
X95590441Y-78049643D01*
X96405981Y-78050355D01*
X97159715Y-77738919D01*
X97736892Y-77162748D01*
X98049643Y-76409559D01*
X98049646Y-76405981D01*
X98949645Y-76405981D01*
X99261081Y-77159715D01*
X99837252Y-77736892D01*
X100590441Y-78049643D01*
X101405981Y-78050355D01*
X102159715Y-77738919D01*
X102736892Y-77162748D01*
X103000262Y-76528483D01*
X103261081Y-77159715D01*
X103837252Y-77736892D01*
X104590441Y-78049643D01*
X105405981Y-78050355D01*
X106159715Y-77738919D01*
X106736892Y-77162748D01*
X107000262Y-76528483D01*
X107261081Y-77159715D01*
X107837252Y-77736892D01*
X108590441Y-78049643D01*
X109405981Y-78050355D01*
X110159715Y-77738919D01*
X110736892Y-77162748D01*
X110874953Y-76830260D01*
X111011081Y-77159715D01*
X111587252Y-77736892D01*
X112340441Y-78049643D01*
X112984827Y-78050206D01*
X112792287Y-78242410D01*
X112563234Y-78794031D01*
X112014999Y-79020557D01*
X111522287Y-79512410D01*
X111255304Y-80155376D01*
X111254696Y-80851569D01*
X111520557Y-81495001D01*
X112012410Y-81987713D01*
X112500512Y-82190391D01*
X112500512Y-82275000D01*
X112587673Y-82738222D01*
X112861437Y-83163663D01*
X113279153Y-83449076D01*
X113775000Y-83549488D01*
X114775000Y-83549488D01*
X115238222Y-83462327D01*
X115663663Y-83188563D01*
X115949076Y-82770847D01*
X116049488Y-82275000D01*
X116049488Y-81275000D01*
X115962327Y-80811778D01*
X115688563Y-80386337D01*
X115635208Y-80349881D01*
X115757713Y-80227590D01*
X116024696Y-79584624D01*
X116025304Y-78888431D01*
X115759443Y-78244999D01*
X115267590Y-77752287D01*
X114624624Y-77485304D01*
X114164176Y-77484902D01*
X114486892Y-77162748D01*
X114799643Y-76409559D01*
X114800355Y-75594019D01*
X114488919Y-74840285D01*
X113912748Y-74263108D01*
X113159559Y-73950357D01*
X112344019Y-73949645D01*
X111590285Y-74261081D01*
X111013108Y-74837252D01*
X110875047Y-75169740D01*
X110738919Y-74840285D01*
X110162748Y-74263108D01*
X109409559Y-73950357D01*
X108594019Y-73949645D01*
X107840285Y-74261081D01*
X107263108Y-74837252D01*
X106999738Y-75471517D01*
X106738919Y-74840285D01*
X106162748Y-74263108D01*
X105409559Y-73950357D01*
X104594019Y-73949645D01*
X103840285Y-74261081D01*
X103263108Y-74837252D01*
X102999738Y-75471517D01*
X102738919Y-74840285D01*
X102162748Y-74263108D01*
X101409559Y-73950357D01*
X100594019Y-73949645D01*
X99840285Y-74261081D01*
X99263108Y-74837252D01*
X98950357Y-75590441D01*
X98949645Y-76405981D01*
X98049646Y-76405981D01*
X98050355Y-75594019D01*
X97738919Y-74840285D01*
X97162748Y-74263108D01*
X96409559Y-73950357D01*
X95594019Y-73949645D01*
X94840285Y-74261081D01*
X94263108Y-74837252D01*
X93950357Y-75590441D01*
X93949645Y-76405981D01*
X58528333Y-76405981D01*
X58665119Y-76269195D01*
X58580017Y-76021154D01*
X57969936Y-75911761D01*
X57419983Y-76021154D01*
X57334881Y-76269195D01*
X48662410Y-76269195D01*
X49221004Y-75338207D01*
X49590990Y-75090990D01*
X50078729Y-74361038D01*
X50250000Y-73500000D01*
X50250000Y-73000000D01*
X50196220Y-72729631D01*
X50182820Y-72454295D01*
X50111366Y-72303038D01*
X50078729Y-72138962D01*
X49925577Y-71909755D01*
X49807831Y-71660505D01*
X49683930Y-71548104D01*
X49590990Y-71409010D01*
X49361786Y-71255861D01*
X49345852Y-71241406D01*
X49374488Y-71100000D01*
X49374488Y-68900000D01*
X49287327Y-68436778D01*
X49167139Y-68250000D01*
X52711647Y-68250000D01*
X52576897Y-68840206D01*
X52402844Y-69100694D01*
X52223961Y-70000000D01*
X52402844Y-70899306D01*
X52912260Y-71661701D01*
X53674655Y-72171117D01*
X54573961Y-72350000D01*
X54666039Y-72350000D01*
X55565345Y-72171117D01*
X55834874Y-71991023D01*
X55753883Y-73367875D01*
X55874296Y-74237485D01*
X56318329Y-74994818D01*
X57018381Y-75524580D01*
X57867875Y-75746117D01*
X58737485Y-75625704D01*
X59494818Y-75181671D01*
X60024580Y-74481619D01*
X60246117Y-73632125D01*
X60562713Y-68250000D01*
X62369857Y-68250000D01*
X62036778Y-68312673D01*
X61611337Y-68586437D01*
X61325924Y-69004153D01*
X61225512Y-69500000D01*
X61225512Y-72500000D01*
X61312673Y-72963222D01*
X61586437Y-73388663D01*
X62004153Y-73674076D01*
X62500000Y-73774488D01*
X65500000Y-73774488D01*
X65963222Y-73687327D01*
X66254336Y-73500000D01*
X114762002Y-73500000D01*
X114948497Y-74437574D01*
X115479590Y-75232412D01*
X116274428Y-75763505D01*
X117212002Y-75950000D01*
X117307998Y-75950000D01*
X118245572Y-75763505D01*
X119040410Y-75232412D01*
X119571503Y-74437574D01*
X119661486Y-73985197D01*
X130049576Y-73985197D01*
X130421780Y-74886000D01*
X131110375Y-75575798D01*
X132010527Y-75949573D01*
X132985197Y-75950424D01*
X133697803Y-75655981D01*
X138449645Y-75655981D01*
X138761081Y-76409715D01*
X139337252Y-76986892D01*
X140090441Y-77299643D01*
X140905981Y-77300355D01*
X141659715Y-76988919D01*
X142236892Y-76412748D01*
X142375128Y-76079838D01*
X171700000Y-76079838D01*
X171700000Y-76160162D01*
X171856047Y-76944663D01*
X172300431Y-77609731D01*
X172965499Y-78054115D01*
X173750000Y-78210162D01*
X174534501Y-78054115D01*
X175199569Y-77609731D01*
X175643953Y-76944663D01*
X175800000Y-76160162D01*
X175800000Y-76079838D01*
X175798831Y-76073961D01*
X196150000Y-76073961D01*
X196150000Y-76166039D01*
X196328883Y-77065345D01*
X196838299Y-77827740D01*
X197600694Y-78337156D01*
X198500000Y-78516039D01*
X199237380Y-78369365D01*
X219575306Y-78369365D01*
X219683693Y-78600000D01*
X220600000Y-78600000D01*
X220600000Y-77691263D01*
X221400000Y-77691263D01*
X221400000Y-78600000D01*
X222316307Y-78600000D01*
X222424694Y-78369365D01*
X222074912Y-77872162D01*
X221630631Y-77575335D01*
X221400000Y-77691263D01*
X220600000Y-77691263D01*
X220369369Y-77575335D01*
X219925088Y-77872162D01*
X219575306Y-78369365D01*
X199237380Y-78369365D01*
X199399306Y-78337156D01*
X200161701Y-77827740D01*
X200615070Y-77149224D01*
X207542000Y-77149224D01*
X207542000Y-77710500D01*
X207731500Y-77900000D01*
X208900000Y-77900000D01*
X208900000Y-76731500D01*
X210100000Y-76731500D01*
X210100000Y-77900000D01*
X211268500Y-77900000D01*
X211458000Y-77710500D01*
X211458000Y-77149224D01*
X211342601Y-76870627D01*
X211129372Y-76657398D01*
X210850775Y-76542000D01*
X210289500Y-76542000D01*
X210100000Y-76731500D01*
X208900000Y-76731500D01*
X208710500Y-76542000D01*
X208149225Y-76542000D01*
X207870628Y-76657398D01*
X207657399Y-76870627D01*
X207542000Y-77149224D01*
X200615070Y-77149224D01*
X200671117Y-77065345D01*
X200850000Y-76166039D01*
X200850000Y-76073961D01*
X200671117Y-75174655D01*
X200161701Y-74412260D01*
X199399306Y-73902844D01*
X198500000Y-73723961D01*
X197600694Y-73902844D01*
X196838299Y-74412260D01*
X196328883Y-75174655D01*
X196150000Y-76073961D01*
X175798831Y-76073961D01*
X175643953Y-75295337D01*
X175199569Y-74630269D01*
X174534501Y-74185885D01*
X173750000Y-74029838D01*
X172965499Y-74185885D01*
X172300431Y-74630269D01*
X171856047Y-75295337D01*
X171700000Y-76079838D01*
X142375128Y-76079838D01*
X142549643Y-75659559D01*
X142550355Y-74844019D01*
X142238919Y-74090285D01*
X141662748Y-73513108D01*
X140909559Y-73200357D01*
X140094019Y-73199645D01*
X139340285Y-73511081D01*
X138763108Y-74087252D01*
X138450357Y-74840441D01*
X138449645Y-75655981D01*
X133697803Y-75655981D01*
X133886000Y-75578220D01*
X134575798Y-74889625D01*
X134949573Y-73989473D01*
X134950424Y-73014803D01*
X134578220Y-72114000D01*
X133889625Y-71424202D01*
X132989473Y-71050427D01*
X132014803Y-71049576D01*
X131114000Y-71421780D01*
X130424202Y-72110375D01*
X130050427Y-73010527D01*
X130049576Y-73985197D01*
X119661486Y-73985197D01*
X119757998Y-73500000D01*
X119571503Y-72562426D01*
X119040410Y-71767588D01*
X118245572Y-71236495D01*
X117307998Y-71050000D01*
X117212002Y-71050000D01*
X116274428Y-71236495D01*
X115479590Y-71767588D01*
X114948497Y-72562426D01*
X114762002Y-73500000D01*
X66254336Y-73500000D01*
X66388663Y-73413563D01*
X66674076Y-72995847D01*
X66688025Y-72926961D01*
X68213699Y-72926961D01*
X68407361Y-73201784D01*
X69301149Y-73291592D01*
X69752639Y-73201784D01*
X69946301Y-72926961D01*
X69080000Y-72060660D01*
X68213699Y-72926961D01*
X66688025Y-72926961D01*
X66774488Y-72500000D01*
X66774488Y-71221149D01*
X66788408Y-71221149D01*
X66878216Y-71672639D01*
X67153039Y-71866301D01*
X68019340Y-71000000D01*
X70140660Y-71000000D01*
X71006961Y-71866301D01*
X71281784Y-71672639D01*
X71371592Y-70778851D01*
X71281784Y-70327361D01*
X71006961Y-70133699D01*
X70140660Y-71000000D01*
X68019340Y-71000000D01*
X67153039Y-70133699D01*
X66878216Y-70327361D01*
X66788408Y-71221149D01*
X66774488Y-71221149D01*
X66774488Y-69500000D01*
X66694150Y-69073039D01*
X68213699Y-69073039D01*
X69080000Y-69939340D01*
X69219340Y-69800000D01*
X78525512Y-69800000D01*
X78525512Y-72200000D01*
X78612673Y-72663222D01*
X78886437Y-73088663D01*
X79304153Y-73374076D01*
X79800000Y-73474488D01*
X82200000Y-73474488D01*
X82663222Y-73387327D01*
X83088663Y-73113563D01*
X83374076Y-72695847D01*
X83474488Y-72200000D01*
X83474488Y-69800000D01*
X83387327Y-69336778D01*
X83113563Y-68911337D01*
X82695847Y-68625924D01*
X82200000Y-68525512D01*
X79800000Y-68525512D01*
X79336778Y-68612673D01*
X78911337Y-68886437D01*
X78625924Y-69304153D01*
X78525512Y-69800000D01*
X69219340Y-69800000D01*
X69946301Y-69073039D01*
X69752639Y-68798216D01*
X68858851Y-68708408D01*
X68407361Y-68798216D01*
X68213699Y-69073039D01*
X66694150Y-69073039D01*
X66687327Y-69036778D01*
X66413563Y-68611337D01*
X65995847Y-68325924D01*
X65620925Y-68250000D01*
X90450218Y-68250000D01*
X90449645Y-68905981D01*
X90761081Y-69659715D01*
X91337252Y-70236892D01*
X92090441Y-70549643D01*
X92905981Y-70550355D01*
X93659715Y-70238919D01*
X94236892Y-69662748D01*
X94304055Y-69501002D01*
X94550431Y-69869731D01*
X95215499Y-70314115D01*
X96000000Y-70470162D01*
X96784501Y-70314115D01*
X97449569Y-69869731D01*
X97893953Y-69204663D01*
X98050000Y-68420162D01*
X98050000Y-68339838D01*
X98032130Y-68250000D01*
X98967870Y-68250000D01*
X98950000Y-68339838D01*
X98950000Y-68420162D01*
X99106047Y-69204663D01*
X99550431Y-69869731D01*
X100215499Y-70314115D01*
X101000000Y-70470162D01*
X101784501Y-70314115D01*
X102449569Y-69869731D01*
X102893953Y-69204663D01*
X103000000Y-68671529D01*
X103106047Y-69204663D01*
X103550431Y-69869731D01*
X104215499Y-70314115D01*
X105000000Y-70470162D01*
X105784501Y-70314115D01*
X106449569Y-69869731D01*
X106893953Y-69204663D01*
X107000000Y-68671529D01*
X107106047Y-69204663D01*
X107550431Y-69869731D01*
X108215499Y-70314115D01*
X109000000Y-70470162D01*
X109784501Y-70314115D01*
X110449569Y-69869731D01*
X110875000Y-69233028D01*
X111300431Y-69869731D01*
X111965499Y-70314115D01*
X112750000Y-70470162D01*
X113534501Y-70314115D01*
X114199569Y-69869731D01*
X114643953Y-69204663D01*
X114800000Y-68420162D01*
X114800000Y-68339838D01*
X114782130Y-68250000D01*
X118689022Y-68250000D01*
X118539838Y-69000000D01*
X118695885Y-69784501D01*
X119140269Y-70449569D01*
X119805337Y-70893953D01*
X120589838Y-71050000D01*
X120670162Y-71050000D01*
X121454663Y-70893953D01*
X122119731Y-70449569D01*
X122564115Y-69784501D01*
X122720162Y-69000000D01*
X122570978Y-68250000D01*
X126341720Y-68250000D01*
X126200357Y-68590441D01*
X126199645Y-69405981D01*
X126511081Y-70159715D01*
X127087252Y-70736892D01*
X127840441Y-71049643D01*
X128655981Y-71050355D01*
X129409715Y-70738919D01*
X129986892Y-70162748D01*
X130299643Y-69409559D01*
X130300355Y-68594019D01*
X130158209Y-68250000D01*
X131341720Y-68250000D01*
X131200357Y-68590441D01*
X131199645Y-69405981D01*
X131511081Y-70159715D01*
X132087252Y-70736892D01*
X132840441Y-71049643D01*
X133655981Y-71050355D01*
X134409715Y-70738919D01*
X134860319Y-70289101D01*
X134710304Y-70650376D01*
X134709696Y-71346569D01*
X134975557Y-71990001D01*
X135467410Y-72482713D01*
X136019031Y-72711766D01*
X136245557Y-73260001D01*
X136737410Y-73752713D01*
X137380376Y-74019696D01*
X138076569Y-74020304D01*
X138720001Y-73754443D01*
X139212713Y-73262590D01*
X139321750Y-73000000D01*
X145727879Y-73000000D01*
X145891538Y-73822769D01*
X146357599Y-74520280D01*
X147055110Y-74986341D01*
X147877879Y-75150000D01*
X147962121Y-75150000D01*
X148784890Y-74986341D01*
X149190000Y-74715656D01*
X149595110Y-74986341D01*
X150417879Y-75150000D01*
X150502121Y-75150000D01*
X151324890Y-74986341D01*
X151401162Y-74935378D01*
X151604153Y-75074076D01*
X152100000Y-75174488D01*
X153900000Y-75174488D01*
X154363222Y-75087327D01*
X154788663Y-74813563D01*
X155074076Y-74395847D01*
X155174488Y-73900000D01*
X155174488Y-72100000D01*
X155087327Y-71636778D01*
X154813563Y-71211337D01*
X154395847Y-70925924D01*
X153900000Y-70825512D01*
X152100000Y-70825512D01*
X151636778Y-70912673D01*
X151400907Y-71064452D01*
X151324890Y-71013659D01*
X150502121Y-70850000D01*
X150417879Y-70850000D01*
X149595110Y-71013659D01*
X149190000Y-71284344D01*
X148784890Y-71013659D01*
X147962121Y-70850000D01*
X147877879Y-70850000D01*
X147055110Y-71013659D01*
X146357599Y-71479720D01*
X145891538Y-72177231D01*
X145727879Y-73000000D01*
X139321750Y-73000000D01*
X139415391Y-72774488D01*
X139500000Y-72774488D01*
X139963222Y-72687327D01*
X140388663Y-72413563D01*
X140674076Y-71995847D01*
X140774488Y-71500000D01*
X140774488Y-70738319D01*
X141200000Y-70824488D01*
X142800000Y-70824488D01*
X143263222Y-70737327D01*
X143688663Y-70463563D01*
X143974076Y-70045847D01*
X144074488Y-69550000D01*
X144074488Y-68250000D01*
X153315337Y-68250000D01*
X153200000Y-68829838D01*
X153200000Y-68910162D01*
X153356047Y-69694663D01*
X153800431Y-70359731D01*
X154465499Y-70804115D01*
X155250000Y-70960162D01*
X156034501Y-70804115D01*
X156699569Y-70359731D01*
X157143953Y-69694663D01*
X157300000Y-68910162D01*
X157300000Y-68829838D01*
X157184663Y-68250000D01*
X159245664Y-68250000D01*
X159111337Y-68336437D01*
X158825924Y-68754153D01*
X158725512Y-69250000D01*
X158725512Y-70250000D01*
X158812673Y-70713222D01*
X159086437Y-71138663D01*
X159504153Y-71424076D01*
X160000000Y-71524488D01*
X161000000Y-71524488D01*
X161463222Y-71437327D01*
X161888663Y-71163563D01*
X161925119Y-71110208D01*
X162047410Y-71232713D01*
X162690376Y-71499696D01*
X163386569Y-71500304D01*
X164030001Y-71234443D01*
X164522713Y-70742590D01*
X164789696Y-70099624D01*
X164790304Y-69403431D01*
X164765521Y-69343452D01*
X165065819Y-68894025D01*
X165180000Y-68320000D01*
X165180000Y-68250000D01*
X171700218Y-68250000D01*
X171699645Y-68905981D01*
X172011081Y-69659715D01*
X172587252Y-70236892D01*
X173340441Y-70549643D01*
X174155981Y-70550355D01*
X174784177Y-70290790D01*
X174890269Y-70449569D01*
X175555337Y-70893953D01*
X176313172Y-71044696D01*
X175979590Y-71267588D01*
X175448497Y-72062426D01*
X175262002Y-73000000D01*
X175448497Y-73937574D01*
X175979590Y-74732412D01*
X176774428Y-75263505D01*
X177712002Y-75450000D01*
X177807998Y-75450000D01*
X178745572Y-75263505D01*
X179540410Y-74732412D01*
X180071503Y-73937574D01*
X180161486Y-73485197D01*
X190549576Y-73485197D01*
X190921780Y-74386000D01*
X191610375Y-75075798D01*
X192510527Y-75449573D01*
X193485197Y-75450424D01*
X194386000Y-75078220D01*
X195075798Y-74389625D01*
X195449573Y-73489473D01*
X195450424Y-72514803D01*
X195078220Y-71614000D01*
X194949642Y-71485197D01*
X207049576Y-71485197D01*
X207421780Y-72386000D01*
X208110375Y-73075798D01*
X209010527Y-73449573D01*
X209985197Y-73450424D01*
X210470260Y-73250000D01*
X228225512Y-73250000D01*
X228225512Y-76250000D01*
X228312673Y-76713222D01*
X228586437Y-77138663D01*
X229004153Y-77424076D01*
X229500000Y-77524488D01*
X232500000Y-77524488D01*
X232963222Y-77437327D01*
X233388663Y-77163563D01*
X233674076Y-76745847D01*
X233688025Y-76676961D01*
X235213699Y-76676961D01*
X235407361Y-76951784D01*
X236301149Y-77041592D01*
X236752639Y-76951784D01*
X236946301Y-76676961D01*
X236080000Y-75810660D01*
X235213699Y-76676961D01*
X233688025Y-76676961D01*
X233774488Y-76250000D01*
X233774488Y-74971149D01*
X233788408Y-74971149D01*
X233878216Y-75422639D01*
X234153039Y-75616301D01*
X235019340Y-74750000D01*
X237140660Y-74750000D01*
X238006961Y-75616301D01*
X238281784Y-75422639D01*
X238371592Y-74528851D01*
X238281784Y-74077361D01*
X238006961Y-73883699D01*
X237140660Y-74750000D01*
X235019340Y-74750000D01*
X234153039Y-73883699D01*
X233878216Y-74077361D01*
X233788408Y-74971149D01*
X233774488Y-74971149D01*
X233774488Y-73250000D01*
X233694150Y-72823039D01*
X235213699Y-72823039D01*
X236080000Y-73689340D01*
X236946301Y-72823039D01*
X236752639Y-72548216D01*
X235858851Y-72458408D01*
X235407361Y-72548216D01*
X235213699Y-72823039D01*
X233694150Y-72823039D01*
X233687327Y-72786778D01*
X233413563Y-72361337D01*
X232995847Y-72075924D01*
X232500000Y-71975512D01*
X229500000Y-71975512D01*
X229036778Y-72062673D01*
X228611337Y-72336437D01*
X228325924Y-72754153D01*
X228225512Y-73250000D01*
X210470260Y-73250000D01*
X210886000Y-73078220D01*
X211575798Y-72389625D01*
X211949573Y-71489473D01*
X211950424Y-70514803D01*
X211578220Y-69614000D01*
X210889625Y-68924202D01*
X209989473Y-68550427D01*
X209014803Y-68549576D01*
X208114000Y-68921780D01*
X207424202Y-69610375D01*
X207050427Y-70510527D01*
X207049576Y-71485197D01*
X194949642Y-71485197D01*
X194389625Y-70924202D01*
X193489473Y-70550427D01*
X192514803Y-70549576D01*
X191614000Y-70921780D01*
X190924202Y-71610375D01*
X190550427Y-72510527D01*
X190549576Y-73485197D01*
X180161486Y-73485197D01*
X180257998Y-73000000D01*
X180071503Y-72062426D01*
X179540410Y-71267588D01*
X178745572Y-70736495D01*
X177807998Y-70550000D01*
X177719425Y-70550000D01*
X177869731Y-70449569D01*
X178314115Y-69784501D01*
X178470162Y-69000000D01*
X178320978Y-68250000D01*
X182091720Y-68250000D01*
X181950357Y-68590441D01*
X181949645Y-69405981D01*
X182261081Y-70159715D01*
X182837252Y-70736892D01*
X183590441Y-71049643D01*
X184405981Y-71050355D01*
X185159715Y-70738919D01*
X185249870Y-70648921D01*
X185587252Y-70986892D01*
X186340441Y-71299643D01*
X187155981Y-71300355D01*
X187909715Y-70988919D01*
X188486892Y-70412748D01*
X188799643Y-69659559D01*
X188800355Y-68844019D01*
X188554912Y-68250000D01*
X196125512Y-68250000D01*
X196125512Y-69600000D01*
X196212673Y-70063222D01*
X196486437Y-70488663D01*
X196904153Y-70774076D01*
X197400000Y-70874488D01*
X199600000Y-70874488D01*
X200063222Y-70787327D01*
X200488663Y-70513563D01*
X200774076Y-70095847D01*
X200874488Y-69600000D01*
X200874488Y-69187093D01*
X201677711Y-68250000D01*
X219091720Y-68250000D01*
X218950357Y-68590441D01*
X218949645Y-69405981D01*
X219261081Y-70159715D01*
X219837252Y-70736892D01*
X220590441Y-71049643D01*
X221405981Y-71050355D01*
X222159715Y-70738919D01*
X222736892Y-70162748D01*
X223049643Y-69409559D01*
X223050355Y-68594019D01*
X222908209Y-68250000D01*
X237903806Y-68250000D01*
X240102174Y-70448368D01*
X245036122Y-76322116D01*
X245062673Y-76463222D01*
X245336437Y-76888663D01*
X245754153Y-77174076D01*
X246069069Y-77237848D01*
X246250840Y-77383577D01*
X247468454Y-77737782D01*
X248728931Y-77599063D01*
X249356187Y-77254508D01*
X249713222Y-77187327D01*
X250138663Y-76913563D01*
X250424076Y-76495847D01*
X250438025Y-76426961D01*
X251963699Y-76426961D01*
X252157361Y-76701784D01*
X253051149Y-76791592D01*
X253502639Y-76701784D01*
X253696301Y-76426961D01*
X252830000Y-75560660D01*
X251963699Y-76426961D01*
X250438025Y-76426961D01*
X250487848Y-76180931D01*
X250633577Y-75999160D01*
X250832198Y-75316381D01*
X250903039Y-75366301D01*
X251769340Y-74500000D01*
X253890660Y-74500000D01*
X254756961Y-75366301D01*
X255031784Y-75172639D01*
X255121592Y-74278851D01*
X255031784Y-73827361D01*
X254756961Y-73633699D01*
X253890660Y-74500000D01*
X251769340Y-74500000D01*
X250903039Y-73633699D01*
X250864451Y-73660891D01*
X250849063Y-73521070D01*
X250504508Y-72893813D01*
X250444151Y-72573039D01*
X251963699Y-72573039D01*
X252830000Y-73439340D01*
X253696301Y-72573039D01*
X253502639Y-72298216D01*
X252608851Y-72208408D01*
X252157361Y-72298216D01*
X251963699Y-72573039D01*
X250444151Y-72573039D01*
X250437327Y-72536778D01*
X250163563Y-72111337D01*
X249751443Y-71829748D01*
X246744455Y-68250000D01*
X264675000Y-68250000D01*
X264675000Y-96026254D01*
X264162748Y-95513108D01*
X263409559Y-95200357D01*
X262594019Y-95199645D01*
X261840285Y-95511081D01*
X261263108Y-96087252D01*
X260950357Y-96840441D01*
X260949645Y-97655981D01*
X261261081Y-98409715D01*
X261837252Y-98986892D01*
X262037075Y-99069866D01*
X260737142Y-99606987D01*
X259610942Y-100731223D01*
X259000695Y-102200860D01*
X258999307Y-103792159D01*
X259364089Y-104675000D01*
X191851553Y-104675000D01*
X191816307Y-104600000D01*
X190900000Y-104600000D01*
X190900000Y-104675000D01*
X190100000Y-104675000D01*
X190100000Y-104600000D01*
X189183693Y-104600000D01*
X189148447Y-104675000D01*
X180765608Y-104675000D01*
X180950000Y-103747998D01*
X180950000Y-103652002D01*
X180933563Y-103569365D01*
X189075306Y-103569365D01*
X189183693Y-103800000D01*
X190100000Y-103800000D01*
X190100000Y-102891263D01*
X190900000Y-102891263D01*
X190900000Y-103800000D01*
X191816307Y-103800000D01*
X191924694Y-103569365D01*
X191574912Y-103072162D01*
X191130631Y-102775335D01*
X190900000Y-102891263D01*
X190100000Y-102891263D01*
X189869369Y-102775335D01*
X189425088Y-103072162D01*
X189075306Y-103569365D01*
X180933563Y-103569365D01*
X180763505Y-102714428D01*
X180232412Y-101919590D01*
X179437574Y-101388497D01*
X178500000Y-101202002D01*
X177562426Y-101388497D01*
X176767588Y-101919590D01*
X176236495Y-102714428D01*
X176050000Y-103652002D01*
X176050000Y-103747998D01*
X176234392Y-104675000D01*
X156224619Y-104675000D01*
X156236892Y-104662748D01*
X156549643Y-103909559D01*
X156550355Y-103094019D01*
X156238919Y-102340285D01*
X155662748Y-101763108D01*
X154909559Y-101450357D01*
X154094019Y-101449645D01*
X153340285Y-101761081D01*
X152763108Y-102337252D01*
X152450357Y-103090441D01*
X152449645Y-103905981D01*
X152761081Y-104659715D01*
X152776339Y-104675000D01*
X148553192Y-104675000D01*
X148814115Y-104284501D01*
X148970162Y-103500000D01*
X148814115Y-102715499D01*
X148369731Y-102050431D01*
X147704663Y-101606047D01*
X146920162Y-101450000D01*
X146839838Y-101450000D01*
X146055337Y-101606047D01*
X145390269Y-102050431D01*
X144945885Y-102715499D01*
X144789838Y-103500000D01*
X144945885Y-104284501D01*
X145206808Y-104675000D01*
X136617555Y-104675000D01*
X136669643Y-104549559D01*
X136670355Y-103734019D01*
X136358919Y-102980285D01*
X136249139Y-102870313D01*
X136356892Y-102762748D01*
X136669643Y-102009559D01*
X136670355Y-101194019D01*
X136358919Y-100440285D01*
X135782748Y-99863108D01*
X135029559Y-99550357D01*
X134214019Y-99549645D01*
X133460285Y-99861081D01*
X132883108Y-100437252D01*
X132570357Y-101190441D01*
X132569645Y-102005981D01*
X132881081Y-102759715D01*
X132990861Y-102869687D01*
X132883108Y-102977252D01*
X132570357Y-103730441D01*
X132569645Y-104545981D01*
X132622954Y-104675000D01*
X128983744Y-104675000D01*
X129090162Y-104140000D01*
X128934115Y-103355499D01*
X128609715Y-102870000D01*
X128934115Y-102384501D01*
X129090162Y-101600000D01*
X128934115Y-100815499D01*
X128489731Y-100150431D01*
X127824663Y-99706047D01*
X127040162Y-99550000D01*
X126959838Y-99550000D01*
X126175337Y-99706047D01*
X125510269Y-100150431D01*
X125065885Y-100815499D01*
X124909838Y-101600000D01*
X125065885Y-102384501D01*
X125390285Y-102870000D01*
X125065885Y-103355499D01*
X124909838Y-104140000D01*
X125016256Y-104675000D01*
X32635616Y-104675000D01*
X32999305Y-103799140D01*
X32999800Y-103230805D01*
X89334881Y-103230805D01*
X89419983Y-103478846D01*
X90030064Y-103588239D01*
X90580017Y-103478846D01*
X90665119Y-103230805D01*
X90000000Y-102565685D01*
X89334881Y-103230805D01*
X32999800Y-103230805D01*
X33000693Y-102207841D01*
X32393013Y-100737142D01*
X31287210Y-99629407D01*
X38719121Y-99629407D01*
X38866232Y-99893089D01*
X39638928Y-99991518D01*
X40133768Y-99893089D01*
X40280879Y-99629407D01*
X39500000Y-98848528D01*
X38719121Y-99629407D01*
X31287210Y-99629407D01*
X31268777Y-99610942D01*
X30222326Y-99176417D01*
X30736892Y-98662748D01*
X30954400Y-98138928D01*
X37508482Y-98138928D01*
X37606911Y-98633768D01*
X37870593Y-98780879D01*
X38651472Y-98000000D01*
X40348528Y-98000000D01*
X41129407Y-98780879D01*
X41393089Y-98633768D01*
X41491518Y-97861072D01*
X41469425Y-97750000D01*
X51975512Y-97750000D01*
X51975512Y-99750000D01*
X52062673Y-100213222D01*
X52336437Y-100638663D01*
X52754153Y-100924076D01*
X53250000Y-101024488D01*
X55250000Y-101024488D01*
X55713222Y-100937327D01*
X56138663Y-100663563D01*
X56424076Y-100245847D01*
X56524488Y-99750000D01*
X56524488Y-97905981D01*
X77449645Y-97905981D01*
X77761081Y-98659715D01*
X78337252Y-99236892D01*
X79062741Y-99538141D01*
X78763108Y-99837252D01*
X78450357Y-100590441D01*
X78449645Y-101405981D01*
X78761081Y-102159715D01*
X79337252Y-102736892D01*
X80090441Y-103049643D01*
X80905981Y-103050355D01*
X81659715Y-102738919D01*
X82236892Y-102162748D01*
X82549643Y-101409559D01*
X82549646Y-101405981D01*
X83449645Y-101405981D01*
X83761081Y-102159715D01*
X84337252Y-102736892D01*
X85090441Y-103049643D01*
X85905981Y-103050355D01*
X86659715Y-102738919D01*
X87236892Y-102162748D01*
X87291987Y-102030064D01*
X88411761Y-102030064D01*
X88521154Y-102580017D01*
X88769195Y-102665119D01*
X89434315Y-102000000D01*
X90565685Y-102000000D01*
X91230805Y-102665119D01*
X91478846Y-102580017D01*
X91588239Y-101969936D01*
X91494763Y-101500000D01*
X103725512Y-101500000D01*
X103725512Y-102500000D01*
X103812673Y-102963222D01*
X104086437Y-103388663D01*
X104504153Y-103674076D01*
X105000000Y-103774488D01*
X106000000Y-103774488D01*
X106463222Y-103687327D01*
X106888663Y-103413563D01*
X106925119Y-103360208D01*
X107047410Y-103482713D01*
X107690376Y-103749696D01*
X108386569Y-103750304D01*
X109030001Y-103484443D01*
X109522713Y-102992590D01*
X109789696Y-102349624D01*
X109790304Y-101653431D01*
X109524443Y-101009999D01*
X109032590Y-100517287D01*
X108480969Y-100288234D01*
X108254443Y-99739999D01*
X107762590Y-99247287D01*
X107119624Y-98980304D01*
X106423431Y-98979696D01*
X105779999Y-99245557D01*
X105287287Y-99737410D01*
X105084609Y-100225512D01*
X105000000Y-100225512D01*
X104536778Y-100312673D01*
X104111337Y-100586437D01*
X103825924Y-101004153D01*
X103725512Y-101500000D01*
X91494763Y-101500000D01*
X91478846Y-101419983D01*
X91230805Y-101334881D01*
X90565685Y-102000000D01*
X89434315Y-102000000D01*
X88769195Y-101334881D01*
X88521154Y-101419983D01*
X88411761Y-102030064D01*
X87291987Y-102030064D01*
X87549643Y-101409559D01*
X87550202Y-100769195D01*
X89334881Y-100769195D01*
X90000000Y-101434315D01*
X90665119Y-100769195D01*
X90580017Y-100521154D01*
X89969936Y-100411761D01*
X89419983Y-100521154D01*
X89334881Y-100769195D01*
X87550202Y-100769195D01*
X87550355Y-100594019D01*
X87238919Y-99840285D01*
X86916758Y-99517561D01*
X87079838Y-99550000D01*
X87160162Y-99550000D01*
X87944663Y-99393953D01*
X88609731Y-98949569D01*
X88786085Y-98685636D01*
X88837252Y-98736892D01*
X89590441Y-99049643D01*
X90405981Y-99050355D01*
X91159715Y-98738919D01*
X91736892Y-98162748D01*
X91804470Y-98000000D01*
X112725512Y-98000000D01*
X112725512Y-99000000D01*
X112812673Y-99463222D01*
X113086437Y-99888663D01*
X113504153Y-100174076D01*
X114000000Y-100274488D01*
X115000000Y-100274488D01*
X115463222Y-100187327D01*
X115888663Y-99913563D01*
X115925119Y-99860208D01*
X116047410Y-99982713D01*
X116690376Y-100249696D01*
X117386569Y-100250304D01*
X118030001Y-99984443D01*
X118522713Y-99492590D01*
X118789696Y-98849624D01*
X118789755Y-98780981D01*
X121249645Y-98780981D01*
X121561081Y-99534715D01*
X122137252Y-100111892D01*
X122890441Y-100424643D01*
X123705981Y-100425355D01*
X124459715Y-100113919D01*
X125036892Y-99537748D01*
X125349643Y-98784559D01*
X125350000Y-98375000D01*
X128829838Y-98375000D01*
X128985885Y-99159501D01*
X129430269Y-99824569D01*
X130095337Y-100268953D01*
X130879838Y-100425000D01*
X130960162Y-100425000D01*
X131744663Y-100268953D01*
X132409731Y-99824569D01*
X132854115Y-99159501D01*
X133010162Y-98375000D01*
X132897804Y-97810138D01*
X139529658Y-97810138D01*
X139828941Y-98534458D01*
X139983998Y-98689785D01*
X139830889Y-98842627D01*
X139530342Y-99566424D01*
X139529658Y-100350138D01*
X139828941Y-101074458D01*
X139983998Y-101229785D01*
X139830889Y-101382627D01*
X139530342Y-102106424D01*
X139529658Y-102890138D01*
X139828941Y-103614458D01*
X140382627Y-104169111D01*
X141106424Y-104469658D01*
X141890138Y-104470342D01*
X142614458Y-104171059D01*
X143169111Y-103617373D01*
X143469658Y-102893576D01*
X143470342Y-102109862D01*
X143171059Y-101385542D01*
X143016002Y-101230215D01*
X143169111Y-101077373D01*
X143469658Y-100353576D01*
X143469748Y-100250000D01*
X160725512Y-100250000D01*
X160725512Y-103250000D01*
X160812673Y-103713222D01*
X161086437Y-104138663D01*
X161504153Y-104424076D01*
X162000000Y-104524488D01*
X165000000Y-104524488D01*
X165463222Y-104437327D01*
X165888663Y-104163563D01*
X166174076Y-103745847D01*
X166188025Y-103676961D01*
X167713699Y-103676961D01*
X167907361Y-103951784D01*
X168801149Y-104041592D01*
X169252639Y-103951784D01*
X169446301Y-103676961D01*
X168580000Y-102810660D01*
X167713699Y-103676961D01*
X166188025Y-103676961D01*
X166274488Y-103250000D01*
X166274488Y-101971149D01*
X166288408Y-101971149D01*
X166378216Y-102422639D01*
X166653039Y-102616301D01*
X167519340Y-101750000D01*
X169640660Y-101750000D01*
X170506961Y-102616301D01*
X170781784Y-102422639D01*
X170871592Y-101528851D01*
X170781784Y-101077361D01*
X170506961Y-100883699D01*
X169640660Y-101750000D01*
X167519340Y-101750000D01*
X166653039Y-100883699D01*
X166378216Y-101077361D01*
X166288408Y-101971149D01*
X166274488Y-101971149D01*
X166274488Y-100250000D01*
X166194150Y-99823039D01*
X167713699Y-99823039D01*
X168580000Y-100689340D01*
X169446301Y-99823039D01*
X169252639Y-99548216D01*
X168358851Y-99458408D01*
X167907361Y-99548216D01*
X167713699Y-99823039D01*
X166194150Y-99823039D01*
X166187327Y-99786778D01*
X165913563Y-99361337D01*
X165495847Y-99075924D01*
X165000000Y-98975512D01*
X162000000Y-98975512D01*
X161536778Y-99062673D01*
X161111337Y-99336437D01*
X160825924Y-99754153D01*
X160725512Y-100250000D01*
X143469748Y-100250000D01*
X143470342Y-99569862D01*
X143171059Y-98845542D01*
X143016002Y-98690215D01*
X143169111Y-98537373D01*
X143469658Y-97813576D01*
X143470342Y-97029862D01*
X143458004Y-97000000D01*
X144789838Y-97000000D01*
X144945885Y-97784501D01*
X145390269Y-98449569D01*
X146055337Y-98893953D01*
X146839838Y-99050000D01*
X146920162Y-99050000D01*
X147704663Y-98893953D01*
X148369731Y-98449569D01*
X148814115Y-97784501D01*
X148889407Y-97405981D01*
X152449645Y-97405981D01*
X152761081Y-98159715D01*
X153337252Y-98736892D01*
X154090441Y-99049643D01*
X154905981Y-99050355D01*
X155659715Y-98738919D01*
X156236892Y-98162748D01*
X156549643Y-97409559D01*
X156550355Y-96594019D01*
X156238919Y-95840285D01*
X155662748Y-95263108D01*
X154909559Y-94950357D01*
X154094019Y-94949645D01*
X153340285Y-95261081D01*
X152763108Y-95837252D01*
X152450357Y-96590441D01*
X152449645Y-97405981D01*
X148889407Y-97405981D01*
X148970162Y-97000000D01*
X148814115Y-96215499D01*
X148369731Y-95550431D01*
X147704663Y-95106047D01*
X146920162Y-94950000D01*
X146839838Y-94950000D01*
X146055337Y-95106047D01*
X145390269Y-95550431D01*
X144945885Y-96215499D01*
X144789838Y-97000000D01*
X143458004Y-97000000D01*
X143171059Y-96305542D01*
X142617373Y-95750889D01*
X141893576Y-95450342D01*
X141109862Y-95449658D01*
X140385542Y-95748941D01*
X139830889Y-96302627D01*
X139530342Y-97026424D01*
X139529658Y-97810138D01*
X132897804Y-97810138D01*
X132854115Y-97590499D01*
X132409731Y-96925431D01*
X131744663Y-96481047D01*
X131520840Y-96436526D01*
X130900000Y-95815685D01*
X130269228Y-96446458D01*
X130095337Y-96481047D01*
X129430269Y-96925431D01*
X128985885Y-97590499D01*
X128829838Y-98375000D01*
X125350000Y-98375000D01*
X125350355Y-97969019D01*
X125038919Y-97215285D01*
X124670399Y-96846122D01*
X124889731Y-96699569D01*
X125334115Y-96034501D01*
X125484181Y-95280064D01*
X129311761Y-95280064D01*
X129421154Y-95830017D01*
X129669195Y-95915119D01*
X130334315Y-95250000D01*
X131465685Y-95250000D01*
X132130805Y-95915119D01*
X132378846Y-95830017D01*
X132488239Y-95219936D01*
X132378846Y-94669983D01*
X132130805Y-94584881D01*
X131465685Y-95250000D01*
X130334315Y-95250000D01*
X129669195Y-94584881D01*
X129421154Y-94669983D01*
X129311761Y-95280064D01*
X125484181Y-95280064D01*
X125490162Y-95250000D01*
X125334115Y-94465499D01*
X125035905Y-94019195D01*
X130234881Y-94019195D01*
X130900000Y-94684315D01*
X131565119Y-94019195D01*
X131480017Y-93771154D01*
X130869936Y-93661761D01*
X130319983Y-93771154D01*
X130234881Y-94019195D01*
X125035905Y-94019195D01*
X124889731Y-93800431D01*
X124673547Y-93655981D01*
X131949645Y-93655981D01*
X132261081Y-94409715D01*
X132837252Y-94986892D01*
X133590441Y-95299643D01*
X134405981Y-95300355D01*
X135159715Y-94988919D01*
X135328927Y-94820001D01*
X162707817Y-94820001D01*
X162839421Y-95079869D01*
X163571613Y-95181108D01*
X164080579Y-95079869D01*
X164212183Y-94820001D01*
X167787817Y-94820001D01*
X167919421Y-95079869D01*
X168651613Y-95181108D01*
X169160579Y-95079869D01*
X169292183Y-94820001D01*
X168540000Y-94067817D01*
X167787817Y-94820001D01*
X164212183Y-94820001D01*
X163460000Y-94067817D01*
X162707817Y-94820001D01*
X135328927Y-94820001D01*
X135736892Y-94412748D01*
X135957846Y-93880631D01*
X140195335Y-93880631D01*
X140492162Y-94324912D01*
X140989365Y-94674694D01*
X141220000Y-94566307D01*
X141220000Y-93650000D01*
X142020000Y-93650000D01*
X142020000Y-94566307D01*
X142250635Y-94674694D01*
X142747838Y-94324912D01*
X143044665Y-93880631D01*
X142928737Y-93650000D01*
X142020000Y-93650000D01*
X141220000Y-93650000D01*
X140311263Y-93650000D01*
X140195335Y-93880631D01*
X135957846Y-93880631D01*
X136049643Y-93659559D01*
X136050355Y-92844019D01*
X135957532Y-92619369D01*
X140195335Y-92619369D01*
X140311263Y-92850000D01*
X141220000Y-92850000D01*
X141220000Y-91933693D01*
X142020000Y-91933693D01*
X142020000Y-92850000D01*
X142928737Y-92850000D01*
X143044665Y-92619369D01*
X142747838Y-92175088D01*
X142250635Y-91825306D01*
X142020000Y-91933693D01*
X141220000Y-91933693D01*
X140989365Y-91825306D01*
X140492162Y-92175088D01*
X140195335Y-92619369D01*
X135957532Y-92619369D01*
X135738919Y-92090285D01*
X135162748Y-91513108D01*
X134409559Y-91200357D01*
X133594019Y-91199645D01*
X132840285Y-91511081D01*
X132263108Y-92087252D01*
X131950357Y-92840441D01*
X131949645Y-93655981D01*
X124673547Y-93655981D01*
X124224663Y-93356047D01*
X123440162Y-93200000D01*
X123359838Y-93200000D01*
X122575337Y-93356047D01*
X121910269Y-93800431D01*
X121465885Y-94465499D01*
X121309838Y-95250000D01*
X121465885Y-96034501D01*
X121910269Y-96699569D01*
X122009959Y-96766180D01*
X121563108Y-97212252D01*
X121250357Y-97965441D01*
X121249645Y-98780981D01*
X118789755Y-98780981D01*
X118790304Y-98153431D01*
X118524443Y-97509999D01*
X118032590Y-97017287D01*
X117480969Y-96788234D01*
X117254443Y-96239999D01*
X116762590Y-95747287D01*
X116119624Y-95480304D01*
X115423431Y-95479696D01*
X114779999Y-95745557D01*
X114287287Y-96237410D01*
X114084609Y-96725512D01*
X114000000Y-96725512D01*
X113536778Y-96812673D01*
X113111337Y-97086437D01*
X112825924Y-97504153D01*
X112725512Y-98000000D01*
X91804470Y-98000000D01*
X92049643Y-97409559D01*
X92050355Y-96594019D01*
X91738919Y-95840285D01*
X91162748Y-95263108D01*
X90409559Y-94950357D01*
X89594019Y-94949645D01*
X89508071Y-94985158D01*
X89774076Y-94595847D01*
X89874488Y-94100000D01*
X89874488Y-93000000D01*
X93725512Y-93000000D01*
X93725512Y-94000000D01*
X93812673Y-94463222D01*
X94086437Y-94888663D01*
X94139792Y-94925119D01*
X94017287Y-95047410D01*
X93750304Y-95690376D01*
X93749696Y-96386569D01*
X94015557Y-97030001D01*
X94507410Y-97522713D01*
X95150376Y-97789696D01*
X95846569Y-97790304D01*
X96490001Y-97524443D01*
X96982713Y-97032590D01*
X97211766Y-96480969D01*
X97760001Y-96254443D01*
X98252713Y-95762590D01*
X98519696Y-95119624D01*
X98520304Y-94423431D01*
X98254443Y-93779999D01*
X97762590Y-93287287D01*
X97274488Y-93084609D01*
X97274488Y-93000000D01*
X102725512Y-93000000D01*
X102725512Y-94000000D01*
X102812673Y-94463222D01*
X103086437Y-94888663D01*
X103139792Y-94925119D01*
X103017287Y-95047410D01*
X102750304Y-95690376D01*
X102749696Y-96386569D01*
X103015557Y-97030001D01*
X103507410Y-97522713D01*
X104150376Y-97789696D01*
X104846569Y-97790304D01*
X105490001Y-97524443D01*
X105982713Y-97032590D01*
X106211766Y-96480969D01*
X106760001Y-96254443D01*
X107252713Y-95762590D01*
X107519696Y-95119624D01*
X107520304Y-94423431D01*
X107254443Y-93779999D01*
X107180555Y-93705981D01*
X114524645Y-93705981D01*
X114836081Y-94459715D01*
X115412252Y-95036892D01*
X116165441Y-95349643D01*
X116980981Y-95350355D01*
X117734715Y-95038919D01*
X118311892Y-94462748D01*
X118624643Y-93709559D01*
X118625355Y-92894019D01*
X118313919Y-92140285D01*
X117737748Y-91563108D01*
X116984559Y-91250357D01*
X116169019Y-91249645D01*
X115415285Y-91561081D01*
X114838108Y-92137252D01*
X114525357Y-92890441D01*
X114524645Y-93705981D01*
X107180555Y-93705981D01*
X106762590Y-93287287D01*
X106274488Y-93084609D01*
X106274488Y-93000000D01*
X106187327Y-92536778D01*
X105913563Y-92111337D01*
X105495847Y-91825924D01*
X105000000Y-91725512D01*
X104000000Y-91725512D01*
X103536778Y-91812673D01*
X103111337Y-92086437D01*
X102825924Y-92504153D01*
X102725512Y-93000000D01*
X97274488Y-93000000D01*
X97187327Y-92536778D01*
X96913563Y-92111337D01*
X96495847Y-91825924D01*
X96000000Y-91725512D01*
X95000000Y-91725512D01*
X94536778Y-91812673D01*
X94111337Y-92086437D01*
X93825924Y-92504153D01*
X93725512Y-93000000D01*
X89874488Y-93000000D01*
X89874488Y-91900000D01*
X89787327Y-91436778D01*
X89513563Y-91011337D01*
X89095847Y-90725924D01*
X88600000Y-90625512D01*
X86400000Y-90625512D01*
X85936778Y-90712673D01*
X85511337Y-90986437D01*
X85225924Y-91404153D01*
X85125512Y-91900000D01*
X85125512Y-94100000D01*
X85212673Y-94563222D01*
X85486437Y-94988663D01*
X85904153Y-95274076D01*
X86400000Y-95374488D01*
X88600000Y-95374488D01*
X88756104Y-95345115D01*
X88274166Y-95826214D01*
X87944663Y-95606047D01*
X87160162Y-95450000D01*
X87079838Y-95450000D01*
X86295337Y-95606047D01*
X85630269Y-96050431D01*
X85185885Y-96715499D01*
X85029838Y-97500000D01*
X85185885Y-98284501D01*
X85630269Y-98949569D01*
X85631084Y-98950114D01*
X85094019Y-98949645D01*
X84340285Y-99261081D01*
X83763108Y-99837252D01*
X83450357Y-100590441D01*
X83449645Y-101405981D01*
X82549646Y-101405981D01*
X82550355Y-100594019D01*
X82238919Y-99840285D01*
X81662748Y-99263108D01*
X80937259Y-98961859D01*
X81236892Y-98662748D01*
X81549643Y-97909559D01*
X81550355Y-97094019D01*
X81238919Y-96340285D01*
X80662748Y-95763108D01*
X79909559Y-95450357D01*
X79094019Y-95449645D01*
X78340285Y-95761081D01*
X77763108Y-96337252D01*
X77450357Y-97090441D01*
X77449645Y-97905981D01*
X56524488Y-97905981D01*
X56524488Y-97750000D01*
X56437327Y-97286778D01*
X56163563Y-96861337D01*
X55745847Y-96575924D01*
X55250000Y-96475512D01*
X53250000Y-96475512D01*
X52786778Y-96562673D01*
X52361337Y-96836437D01*
X52075924Y-97254153D01*
X51975512Y-97750000D01*
X41469425Y-97750000D01*
X41393089Y-97366232D01*
X41129407Y-97219121D01*
X40348528Y-98000000D01*
X38651472Y-98000000D01*
X37870593Y-97219121D01*
X37606911Y-97366232D01*
X37508482Y-98138928D01*
X30954400Y-98138928D01*
X31049643Y-97909559D01*
X31050355Y-97094019D01*
X30751442Y-96370593D01*
X38719121Y-96370593D01*
X39500000Y-97151472D01*
X40280879Y-96370593D01*
X40133768Y-96106911D01*
X39361072Y-96008482D01*
X38866232Y-96106911D01*
X38719121Y-96370593D01*
X30751442Y-96370593D01*
X30738919Y-96340285D01*
X30162748Y-95763108D01*
X29409559Y-95450357D01*
X28594019Y-95449645D01*
X27840285Y-95761081D01*
X27325000Y-96275468D01*
X27325000Y-94195589D01*
X51999610Y-94195589D01*
X52341431Y-95022858D01*
X52973813Y-95656345D01*
X53800484Y-95999608D01*
X54695589Y-96000390D01*
X55522858Y-95658569D01*
X56156345Y-95026187D01*
X56499608Y-94199516D01*
X56499864Y-93905981D01*
X64699645Y-93905981D01*
X65011081Y-94659715D01*
X65587252Y-95236892D01*
X66340441Y-95549643D01*
X67155981Y-95550355D01*
X67909715Y-95238919D01*
X68486892Y-94662748D01*
X68799643Y-93909559D01*
X68800000Y-93500000D01*
X72279838Y-93500000D01*
X72435885Y-94284501D01*
X72880269Y-94949569D01*
X73545337Y-95393953D01*
X74329838Y-95550000D01*
X74410162Y-95550000D01*
X75194663Y-95393953D01*
X75859731Y-94949569D01*
X76304115Y-94284501D01*
X76396339Y-93820857D01*
X78213160Y-93820857D01*
X78483736Y-94225861D01*
X79059137Y-94666875D01*
X79330000Y-94585264D01*
X79330000Y-93550000D01*
X80430000Y-93550000D01*
X80430000Y-94585264D01*
X80700863Y-94666875D01*
X81276264Y-94225861D01*
X81546840Y-93820857D01*
X81455244Y-93550000D01*
X80430000Y-93550000D01*
X79330000Y-93550000D01*
X78304756Y-93550000D01*
X78213160Y-93820857D01*
X76396339Y-93820857D01*
X76460162Y-93500000D01*
X76304115Y-92715499D01*
X75945734Y-92179143D01*
X78213160Y-92179143D01*
X78304756Y-92450000D01*
X79330000Y-92450000D01*
X79330000Y-91414736D01*
X80430000Y-91414736D01*
X80430000Y-92450000D01*
X81455244Y-92450000D01*
X81546840Y-92179143D01*
X81276264Y-91774139D01*
X80700863Y-91333125D01*
X80430000Y-91414736D01*
X79330000Y-91414736D01*
X79059137Y-91333125D01*
X78483736Y-91774139D01*
X78213160Y-92179143D01*
X75945734Y-92179143D01*
X75859731Y-92050431D01*
X75194663Y-91606047D01*
X74410162Y-91450000D01*
X74329838Y-91450000D01*
X73545337Y-91606047D01*
X72880269Y-92050431D01*
X72435885Y-92715499D01*
X72279838Y-93500000D01*
X68800000Y-93500000D01*
X68800355Y-93094019D01*
X68488919Y-92340285D01*
X67912748Y-91763108D01*
X67159559Y-91450357D01*
X66344019Y-91449645D01*
X65590285Y-91761081D01*
X65013108Y-92337252D01*
X64700357Y-93090441D01*
X64699645Y-93905981D01*
X56499864Y-93905981D01*
X56500390Y-93304411D01*
X56158569Y-92477142D01*
X55526187Y-91843655D01*
X54699516Y-91500392D01*
X53804411Y-91499610D01*
X52977142Y-91841431D01*
X52343655Y-92473813D01*
X52000392Y-93300484D01*
X51999610Y-94195589D01*
X27325000Y-94195589D01*
X27325000Y-93730805D01*
X28334881Y-93730805D01*
X28419983Y-93978846D01*
X29030064Y-94088239D01*
X29580017Y-93978846D01*
X29665119Y-93730805D01*
X29000000Y-93065685D01*
X28334881Y-93730805D01*
X27325000Y-93730805D01*
X27325000Y-92530064D01*
X27411761Y-92530064D01*
X27521154Y-93080017D01*
X27769195Y-93165119D01*
X28434315Y-92500000D01*
X29565685Y-92500000D01*
X30230805Y-93165119D01*
X30478846Y-93080017D01*
X30588239Y-92469936D01*
X30478846Y-91919983D01*
X30230805Y-91834881D01*
X29565685Y-92500000D01*
X28434315Y-92500000D01*
X27769195Y-91834881D01*
X27521154Y-91919983D01*
X27411761Y-92530064D01*
X27325000Y-92530064D01*
X27325000Y-91269195D01*
X28334881Y-91269195D01*
X29000000Y-91934315D01*
X29665119Y-91269195D01*
X29580017Y-91021154D01*
X28969936Y-90911761D01*
X28419983Y-91021154D01*
X28334881Y-91269195D01*
X27325000Y-91269195D01*
X27325000Y-89300000D01*
X37025512Y-89300000D01*
X37025512Y-91700000D01*
X37112673Y-92163222D01*
X37386437Y-92588663D01*
X37804153Y-92874076D01*
X38300000Y-92974488D01*
X40700000Y-92974488D01*
X41163222Y-92887327D01*
X41588663Y-92613563D01*
X41874076Y-92195847D01*
X41974488Y-91700000D01*
X41974488Y-89300000D01*
X41887327Y-88836778D01*
X41613563Y-88411337D01*
X41297806Y-88195589D01*
X51999610Y-88195589D01*
X52341431Y-89022858D01*
X52973813Y-89656345D01*
X53800484Y-89999608D01*
X54695589Y-90000390D01*
X55522858Y-89658569D01*
X56156345Y-89026187D01*
X56499608Y-88199516D01*
X56500390Y-87304411D01*
X56477908Y-87250000D01*
X74802002Y-87250000D01*
X74988497Y-88187574D01*
X75519590Y-88982412D01*
X76314428Y-89513505D01*
X77252002Y-89700000D01*
X77347998Y-89700000D01*
X78285572Y-89513505D01*
X79080410Y-88982412D01*
X79611503Y-88187574D01*
X79701486Y-87735197D01*
X87549576Y-87735197D01*
X87921780Y-88636000D01*
X88610375Y-89325798D01*
X89510527Y-89699573D01*
X90485197Y-89700424D01*
X90970260Y-89500000D01*
X93789838Y-89500000D01*
X93945885Y-90284501D01*
X94390269Y-90949569D01*
X95055337Y-91393953D01*
X95839838Y-91550000D01*
X95920162Y-91550000D01*
X96704663Y-91393953D01*
X97369731Y-90949569D01*
X97814115Y-90284501D01*
X97970162Y-89500000D01*
X97814115Y-88715499D01*
X97369731Y-88050431D01*
X97001412Y-87804328D01*
X97159715Y-87738919D01*
X97736892Y-87162748D01*
X98049643Y-86409559D01*
X98050000Y-86000000D01*
X101409838Y-86000000D01*
X101565885Y-86784501D01*
X102010269Y-87449569D01*
X102424440Y-87726309D01*
X102340285Y-87761081D01*
X101763108Y-88337252D01*
X101450357Y-89090441D01*
X101449645Y-89905981D01*
X101761081Y-90659715D01*
X102337252Y-91236892D01*
X103090441Y-91549643D01*
X103905981Y-91550355D01*
X104659715Y-91238919D01*
X105236892Y-90662748D01*
X105549643Y-89909559D01*
X105550134Y-89346569D01*
X108209696Y-89346569D01*
X108475557Y-89990001D01*
X108967410Y-90482713D01*
X109519031Y-90711766D01*
X109745557Y-91260001D01*
X110237410Y-91752713D01*
X110880376Y-92019696D01*
X111576569Y-92020304D01*
X112220001Y-91754443D01*
X112712713Y-91262590D01*
X112979696Y-90619624D01*
X112980012Y-90258000D01*
X113750002Y-90258000D01*
X113750002Y-89670085D01*
X113758000Y-89650776D01*
X113758000Y-89439500D01*
X113568500Y-89250000D01*
X112750000Y-89250000D01*
X112750000Y-89366053D01*
X112714443Y-89279999D01*
X112222590Y-88787287D01*
X112132793Y-88750000D01*
X112250000Y-88750000D01*
X112250000Y-87931500D01*
X112750000Y-87931500D01*
X112750000Y-88750000D01*
X113568500Y-88750000D01*
X113612519Y-88705981D01*
X114524645Y-88705981D01*
X114836081Y-89459715D01*
X115412252Y-90036892D01*
X116165441Y-90349643D01*
X116980981Y-90350355D01*
X117734715Y-90038919D01*
X118311892Y-89462748D01*
X118624643Y-88709559D01*
X118625355Y-87894019D01*
X118313919Y-87140285D01*
X117970624Y-86796390D01*
X118109715Y-86738919D01*
X118686892Y-86162748D01*
X118764851Y-85975000D01*
X124325512Y-85975000D01*
X124325512Y-87775000D01*
X124412673Y-88238222D01*
X124686437Y-88663663D01*
X125104153Y-88949076D01*
X125600000Y-89049488D01*
X127400000Y-89049488D01*
X127863222Y-88962327D01*
X128288663Y-88688563D01*
X128574076Y-88270847D01*
X128674488Y-87775000D01*
X128674488Y-85975000D01*
X128587327Y-85511778D01*
X128435548Y-85275907D01*
X128486341Y-85199890D01*
X128650000Y-84377121D01*
X128650000Y-84292879D01*
X128486341Y-83470110D01*
X128215656Y-83065000D01*
X128486341Y-82659890D01*
X128650000Y-81837121D01*
X128650000Y-81752879D01*
X128486341Y-80930110D01*
X128020280Y-80232599D01*
X127762174Y-80060138D01*
X134279658Y-80060138D01*
X134578941Y-80784458D01*
X134733998Y-80939785D01*
X134580889Y-81092627D01*
X134280342Y-81816424D01*
X134279658Y-82600138D01*
X134578941Y-83324458D01*
X134733998Y-83479785D01*
X134580889Y-83632627D01*
X134280342Y-84356424D01*
X134279658Y-85140138D01*
X134578941Y-85864458D01*
X135132627Y-86419111D01*
X135856424Y-86719658D01*
X136640138Y-86720342D01*
X137364458Y-86421059D01*
X137919111Y-85867373D01*
X138219658Y-85143576D01*
X138220342Y-84359862D01*
X137921059Y-83635542D01*
X137766002Y-83480215D01*
X137919111Y-83327373D01*
X138125705Y-82829838D01*
X138450000Y-82829838D01*
X138450000Y-82910162D01*
X138606047Y-83694663D01*
X139050431Y-84359731D01*
X139715499Y-84804115D01*
X140500000Y-84960162D01*
X140637580Y-84932796D01*
X140509838Y-85575000D01*
X140665885Y-86359501D01*
X141110269Y-87024569D01*
X141775337Y-87468953D01*
X142559838Y-87625000D01*
X142640162Y-87625000D01*
X143300140Y-87493722D01*
X143215269Y-87550431D01*
X142770885Y-88215499D01*
X142614838Y-89000000D01*
X142770885Y-89784501D01*
X143215269Y-90449569D01*
X143880337Y-90893953D01*
X144213412Y-90960206D01*
X144090285Y-91011081D01*
X143513108Y-91587252D01*
X143200357Y-92340441D01*
X143199645Y-93155981D01*
X143511081Y-93909715D01*
X144087252Y-94486892D01*
X144840441Y-94799643D01*
X145655981Y-94800355D01*
X146409715Y-94488919D01*
X146986892Y-93912748D01*
X147299643Y-93159559D01*
X147300000Y-92750000D01*
X153159838Y-92750000D01*
X153315885Y-93534501D01*
X153760269Y-94199569D01*
X154425337Y-94643953D01*
X155209838Y-94800000D01*
X155290162Y-94800000D01*
X156074663Y-94643953D01*
X156739731Y-94199569D01*
X157184115Y-93534501D01*
X157210548Y-93401613D01*
X161568892Y-93401613D01*
X161670131Y-93910579D01*
X161929999Y-94042183D01*
X162682183Y-93290000D01*
X161929999Y-92537817D01*
X161670131Y-92669421D01*
X161568892Y-93401613D01*
X157210548Y-93401613D01*
X157340162Y-92750000D01*
X157184115Y-91965499D01*
X156739731Y-91300431D01*
X156074663Y-90856047D01*
X155290162Y-90700000D01*
X155209838Y-90700000D01*
X154425337Y-90856047D01*
X153760269Y-91300431D01*
X153315885Y-91965499D01*
X153159838Y-92750000D01*
X147300000Y-92750000D01*
X147300355Y-92344019D01*
X146988919Y-91590285D01*
X146412748Y-91013108D01*
X145758138Y-90741291D01*
X146194731Y-90449569D01*
X146639115Y-89784501D01*
X146714407Y-89405981D01*
X150274645Y-89405981D01*
X150586081Y-90159715D01*
X151162252Y-90736892D01*
X151915441Y-91049643D01*
X152730981Y-91050355D01*
X153484715Y-90738919D01*
X154061892Y-90162748D01*
X154237431Y-89740001D01*
X162707817Y-89740001D01*
X162839421Y-89999869D01*
X163571613Y-90101108D01*
X163581393Y-90099163D01*
X163759875Y-90277645D01*
X163750392Y-90300484D01*
X163749610Y-91195589D01*
X163760437Y-91221793D01*
X163554798Y-91427432D01*
X163348387Y-91398892D01*
X162839421Y-91500131D01*
X162707817Y-91759999D01*
X163460000Y-92512183D01*
X163848909Y-92123274D01*
X164626726Y-92901091D01*
X164237817Y-93290000D01*
X164990001Y-94042183D01*
X165249869Y-93910579D01*
X165351108Y-93178387D01*
X165349163Y-93168607D01*
X165527645Y-92990125D01*
X165550484Y-92999608D01*
X166445589Y-93000390D01*
X166471793Y-92989563D01*
X166677432Y-93195202D01*
X166648892Y-93401613D01*
X166750131Y-93910579D01*
X167009999Y-94042183D01*
X167762183Y-93290000D01*
X169317817Y-93290000D01*
X170070001Y-94042183D01*
X170329869Y-93910579D01*
X170431108Y-93178387D01*
X170329869Y-92669421D01*
X170070001Y-92537817D01*
X169317817Y-93290000D01*
X167762183Y-93290000D01*
X167373274Y-92901091D01*
X168151091Y-92123274D01*
X168540000Y-92512183D01*
X169292183Y-91759999D01*
X169160579Y-91500131D01*
X168428387Y-91398892D01*
X168418607Y-91400837D01*
X168240125Y-91222355D01*
X168249608Y-91199516D01*
X168250390Y-90304411D01*
X168239563Y-90278207D01*
X168445202Y-90072568D01*
X168651613Y-90101108D01*
X169160579Y-89999869D01*
X169292183Y-89740001D01*
X168540000Y-88987817D01*
X168151091Y-89376726D01*
X167373274Y-88598909D01*
X167762183Y-88210000D01*
X169317817Y-88210000D01*
X170070001Y-88962183D01*
X170329869Y-88830579D01*
X170431108Y-88098387D01*
X170329869Y-87589421D01*
X170070001Y-87457817D01*
X169317817Y-88210000D01*
X167762183Y-88210000D01*
X167009999Y-87457817D01*
X166750131Y-87589421D01*
X166648892Y-88321613D01*
X166650837Y-88331393D01*
X166472355Y-88509875D01*
X166449516Y-88500392D01*
X165554411Y-88499610D01*
X165528207Y-88510437D01*
X165322568Y-88304798D01*
X165351108Y-88098387D01*
X165249869Y-87589421D01*
X164990001Y-87457817D01*
X164237817Y-88210000D01*
X164626726Y-88598909D01*
X163848909Y-89376726D01*
X163460000Y-88987817D01*
X162707817Y-89740001D01*
X154237431Y-89740001D01*
X154374643Y-89409559D01*
X154375355Y-88594019D01*
X154262800Y-88321613D01*
X161568892Y-88321613D01*
X161670131Y-88830579D01*
X161929999Y-88962183D01*
X162682183Y-88210000D01*
X161929999Y-87457817D01*
X161670131Y-87589421D01*
X161568892Y-88321613D01*
X154262800Y-88321613D01*
X154063919Y-87840285D01*
X153603078Y-87378640D01*
X153759715Y-87313919D01*
X154336892Y-86737748D01*
X154360871Y-86679999D01*
X162707817Y-86679999D01*
X163460000Y-87432183D01*
X164212183Y-86679999D01*
X167787817Y-86679999D01*
X168540000Y-87432183D01*
X168892344Y-87079838D01*
X175450000Y-87079838D01*
X175450000Y-87160162D01*
X175606047Y-87944663D01*
X176050431Y-88609731D01*
X176715499Y-89054115D01*
X176937248Y-89098224D01*
X176424202Y-89610375D01*
X176050427Y-90510527D01*
X176049576Y-91485197D01*
X176421780Y-92386000D01*
X177110375Y-93075798D01*
X178010527Y-93449573D01*
X178985197Y-93450424D01*
X179886000Y-93078220D01*
X180388527Y-92576569D01*
X180979696Y-92576569D01*
X181245557Y-93220001D01*
X181737410Y-93712713D01*
X182225512Y-93915391D01*
X182225512Y-94000000D01*
X182312673Y-94463222D01*
X182586437Y-94888663D01*
X183004153Y-95174076D01*
X183500000Y-95274488D01*
X184500000Y-95274488D01*
X184963222Y-95187327D01*
X185388663Y-94913563D01*
X185674076Y-94495847D01*
X185774488Y-94000000D01*
X185774488Y-93000000D01*
X185687327Y-92536778D01*
X185413563Y-92111337D01*
X185360208Y-92074881D01*
X185482713Y-91952590D01*
X185502066Y-91905981D01*
X188449645Y-91905981D01*
X188761081Y-92659715D01*
X189337252Y-93236892D01*
X190090441Y-93549643D01*
X190905981Y-93550355D01*
X191074305Y-93480805D01*
X262334881Y-93480805D01*
X262419983Y-93728846D01*
X263030064Y-93838239D01*
X263580017Y-93728846D01*
X263665119Y-93480805D01*
X263000000Y-92815685D01*
X262334881Y-93480805D01*
X191074305Y-93480805D01*
X191659715Y-93238919D01*
X192236892Y-92662748D01*
X192395796Y-92280064D01*
X261411761Y-92280064D01*
X261521154Y-92830017D01*
X261769195Y-92915119D01*
X262434315Y-92250000D01*
X263565685Y-92250000D01*
X264230805Y-92915119D01*
X264478846Y-92830017D01*
X264588239Y-92219936D01*
X264478846Y-91669983D01*
X264230805Y-91584881D01*
X263565685Y-92250000D01*
X262434315Y-92250000D01*
X261769195Y-91584881D01*
X261521154Y-91669983D01*
X261411761Y-92280064D01*
X192395796Y-92280064D01*
X192549643Y-91909559D01*
X192550355Y-91094019D01*
X192238919Y-90340285D01*
X192188223Y-90289500D01*
X195292000Y-90289500D01*
X195292000Y-90850775D01*
X195407398Y-91129372D01*
X195620627Y-91342601D01*
X195899224Y-91458000D01*
X196460500Y-91458000D01*
X196650000Y-91268500D01*
X196650000Y-90100000D01*
X197850000Y-90100000D01*
X197850000Y-91268500D01*
X198039500Y-91458000D01*
X198600776Y-91458000D01*
X198879373Y-91342601D01*
X199092602Y-91129372D01*
X199208000Y-90850775D01*
X199208000Y-90289500D01*
X199018500Y-90100000D01*
X197850000Y-90100000D01*
X196650000Y-90100000D01*
X195481500Y-90100000D01*
X195292000Y-90289500D01*
X192188223Y-90289500D01*
X191884451Y-89985197D01*
X202299576Y-89985197D01*
X202671780Y-90886000D01*
X203360375Y-91575798D01*
X204260527Y-91949573D01*
X205235197Y-91950424D01*
X206136000Y-91578220D01*
X206825798Y-90889625D01*
X207199573Y-89989473D01*
X207199576Y-89985197D01*
X210049576Y-89985197D01*
X210421780Y-90886000D01*
X211110375Y-91575798D01*
X212010527Y-91949573D01*
X212985197Y-91950424D01*
X213886000Y-91578220D01*
X214575798Y-90889625D01*
X214824991Y-90289500D01*
X218042000Y-90289500D01*
X218042000Y-90850775D01*
X218157398Y-91129372D01*
X218370627Y-91342601D01*
X218649224Y-91458000D01*
X219210500Y-91458000D01*
X219400000Y-91268500D01*
X219400000Y-90100000D01*
X220600000Y-90100000D01*
X220600000Y-91268500D01*
X220789500Y-91458000D01*
X221350776Y-91458000D01*
X221629373Y-91342601D01*
X221842602Y-91129372D01*
X221888238Y-91019195D01*
X262334881Y-91019195D01*
X263000000Y-91684315D01*
X263665119Y-91019195D01*
X263580017Y-90771154D01*
X262969936Y-90661761D01*
X262419983Y-90771154D01*
X262334881Y-91019195D01*
X221888238Y-91019195D01*
X221958000Y-90850775D01*
X221958000Y-90289500D01*
X221768500Y-90100000D01*
X220600000Y-90100000D01*
X219400000Y-90100000D01*
X218231500Y-90100000D01*
X218042000Y-90289500D01*
X214824991Y-90289500D01*
X214949573Y-89989473D01*
X214950424Y-89014803D01*
X214592775Y-88149225D01*
X218042000Y-88149225D01*
X218042000Y-88710500D01*
X218231500Y-88900000D01*
X219400000Y-88900000D01*
X219400000Y-87731500D01*
X220600000Y-87731500D01*
X220600000Y-88900000D01*
X221768500Y-88900000D01*
X221958000Y-88710500D01*
X221958000Y-88149225D01*
X221842602Y-87870628D01*
X221629373Y-87657399D01*
X221350776Y-87542000D01*
X220789500Y-87542000D01*
X220600000Y-87731500D01*
X219400000Y-87731500D01*
X219210500Y-87542000D01*
X218649224Y-87542000D01*
X218370627Y-87657399D01*
X218157398Y-87870628D01*
X218042000Y-88149225D01*
X214592775Y-88149225D01*
X214578220Y-88114000D01*
X213889625Y-87424202D01*
X212989473Y-87050427D01*
X212014803Y-87049576D01*
X211114000Y-87421780D01*
X210424202Y-88110375D01*
X210050427Y-89010527D01*
X210049576Y-89985197D01*
X207199576Y-89985197D01*
X207200424Y-89014803D01*
X206828220Y-88114000D01*
X206139625Y-87424202D01*
X205239473Y-87050427D01*
X204264803Y-87049576D01*
X203364000Y-87421780D01*
X202674202Y-88110375D01*
X202300427Y-89010527D01*
X202299576Y-89985197D01*
X191884451Y-89985197D01*
X191662748Y-89763108D01*
X190909559Y-89450357D01*
X190094019Y-89449645D01*
X189340285Y-89761081D01*
X188763108Y-90337252D01*
X188450357Y-91090441D01*
X188449645Y-91905981D01*
X185502066Y-91905981D01*
X185749696Y-91309624D01*
X185750304Y-90613431D01*
X185484443Y-89969999D01*
X184992590Y-89477287D01*
X184349624Y-89210304D01*
X183653431Y-89209696D01*
X183009999Y-89475557D01*
X182517287Y-89967410D01*
X182288234Y-90519031D01*
X181739999Y-90745557D01*
X181247287Y-91237410D01*
X180980304Y-91880376D01*
X180979696Y-92576569D01*
X180388527Y-92576569D01*
X180575798Y-92389625D01*
X180949573Y-91489473D01*
X180950424Y-90514803D01*
X180578220Y-89614000D01*
X179889625Y-88924202D01*
X178989473Y-88550427D01*
X178989195Y-88550427D01*
X179257269Y-88149225D01*
X195292000Y-88149225D01*
X195292000Y-88710500D01*
X195481500Y-88900000D01*
X196650000Y-88900000D01*
X196650000Y-87731500D01*
X197850000Y-87731500D01*
X197850000Y-88900000D01*
X199018500Y-88900000D01*
X199208000Y-88710500D01*
X199208000Y-88149225D01*
X199092602Y-87870628D01*
X198879373Y-87657399D01*
X198600776Y-87542000D01*
X198039500Y-87542000D01*
X197850000Y-87731500D01*
X196650000Y-87731500D01*
X196460500Y-87542000D01*
X195899224Y-87542000D01*
X195620627Y-87657399D01*
X195407398Y-87870628D01*
X195292000Y-88149225D01*
X179257269Y-88149225D01*
X179393953Y-87944663D01*
X179550000Y-87160162D01*
X179550000Y-87079838D01*
X179393953Y-86295337D01*
X178949569Y-85630269D01*
X178613899Y-85405981D01*
X179949645Y-85405981D01*
X180261081Y-86159715D01*
X180837252Y-86736892D01*
X181590441Y-87049643D01*
X182405981Y-87050355D01*
X183159715Y-86738919D01*
X183736892Y-86162748D01*
X184049643Y-85409559D01*
X184050355Y-84594019D01*
X183738919Y-83840285D01*
X183162748Y-83263108D01*
X182409559Y-82950357D01*
X181594019Y-82949645D01*
X180840285Y-83261081D01*
X180263108Y-83837252D01*
X179950357Y-84590441D01*
X179949645Y-85405981D01*
X178613899Y-85405981D01*
X178284501Y-85185885D01*
X177500000Y-85029838D01*
X176715499Y-85185885D01*
X176050431Y-85630269D01*
X175606047Y-86295337D01*
X175450000Y-87079838D01*
X168892344Y-87079838D01*
X169292183Y-86679999D01*
X169160579Y-86420131D01*
X168428387Y-86318892D01*
X167919421Y-86420131D01*
X167787817Y-86679999D01*
X164212183Y-86679999D01*
X164080579Y-86420131D01*
X163348387Y-86318892D01*
X162839421Y-86420131D01*
X162707817Y-86679999D01*
X154360871Y-86679999D01*
X154649643Y-85984559D01*
X154650355Y-85169019D01*
X154338919Y-84415285D01*
X153762748Y-83838108D01*
X153009559Y-83525357D01*
X152194019Y-83524645D01*
X151440285Y-83836081D01*
X150863108Y-84412252D01*
X150550357Y-85165441D01*
X150549645Y-85980981D01*
X150861081Y-86734715D01*
X151321922Y-87196360D01*
X151165285Y-87261081D01*
X150588108Y-87837252D01*
X150275357Y-88590441D01*
X150274645Y-89405981D01*
X146714407Y-89405981D01*
X146795162Y-89000000D01*
X146639115Y-88215499D01*
X146194731Y-87550431D01*
X145529663Y-87106047D01*
X144745162Y-86950000D01*
X144664838Y-86950000D01*
X144004860Y-87081278D01*
X144089731Y-87024569D01*
X144534115Y-86359501D01*
X144690162Y-85575000D01*
X144534115Y-84790499D01*
X144089731Y-84125431D01*
X143424663Y-83681047D01*
X142640162Y-83525000D01*
X142559838Y-83525000D01*
X142422258Y-83552366D01*
X142550000Y-82910162D01*
X142550000Y-82829838D01*
X142393953Y-82045337D01*
X141949569Y-81380269D01*
X141284501Y-80935885D01*
X140500000Y-80779838D01*
X139715499Y-80935885D01*
X139050431Y-81380269D01*
X138606047Y-82045337D01*
X138450000Y-82829838D01*
X138125705Y-82829838D01*
X138219658Y-82603576D01*
X138220342Y-81819862D01*
X137921059Y-81095542D01*
X137766002Y-80940215D01*
X137919111Y-80787373D01*
X138219658Y-80063576D01*
X138220342Y-79279862D01*
X138146025Y-79100000D01*
X158825512Y-79100000D01*
X158825512Y-80900000D01*
X158912673Y-81363222D01*
X159186437Y-81788663D01*
X159604153Y-82074076D01*
X160100000Y-82174488D01*
X161900000Y-82174488D01*
X162363222Y-82087327D01*
X162599093Y-81935548D01*
X162675110Y-81986341D01*
X163497879Y-82150000D01*
X163582121Y-82150000D01*
X164404890Y-81986341D01*
X164810000Y-81715656D01*
X165215110Y-81986341D01*
X166037879Y-82150000D01*
X166122121Y-82150000D01*
X166944890Y-81986341D01*
X167642401Y-81520280D01*
X168108462Y-80822769D01*
X168272121Y-80000000D01*
X168253420Y-79905981D01*
X175449645Y-79905981D01*
X175761081Y-80659715D01*
X176337252Y-81236892D01*
X177090441Y-81549643D01*
X177905981Y-81550355D01*
X178659715Y-81238919D01*
X179236892Y-80662748D01*
X179343510Y-80405981D01*
X179949645Y-80405981D01*
X180261081Y-81159715D01*
X180837252Y-81736892D01*
X181590441Y-82049643D01*
X182405981Y-82050355D01*
X183159715Y-81738919D01*
X183736892Y-81162748D01*
X184049643Y-80409559D01*
X184049913Y-80100000D01*
X184325512Y-80100000D01*
X184325512Y-81900000D01*
X184412673Y-82363222D01*
X184563395Y-82597450D01*
X184350374Y-83110462D01*
X184349628Y-83965785D01*
X184676256Y-84756286D01*
X185280533Y-85361619D01*
X186070462Y-85689626D01*
X186925785Y-85690372D01*
X187716286Y-85363744D01*
X188321619Y-84759467D01*
X188649626Y-83969538D01*
X188650372Y-83114215D01*
X188436652Y-82596973D01*
X188574076Y-82395847D01*
X188674488Y-81900000D01*
X188674488Y-80100000D01*
X188587327Y-79636778D01*
X188363860Y-79289500D01*
X207542000Y-79289500D01*
X207542000Y-79850776D01*
X207657399Y-80129373D01*
X207870628Y-80342602D01*
X208149225Y-80458000D01*
X208710500Y-80458000D01*
X208900000Y-80268500D01*
X208900000Y-79100000D01*
X210100000Y-79100000D01*
X210100000Y-80268500D01*
X210289500Y-80458000D01*
X210850775Y-80458000D01*
X211129372Y-80342602D01*
X211342601Y-80129373D01*
X211458000Y-79850776D01*
X211458000Y-79630635D01*
X219575306Y-79630635D01*
X219925088Y-80127838D01*
X220369369Y-80424665D01*
X220600000Y-80308737D01*
X220600000Y-79400000D01*
X221400000Y-79400000D01*
X221400000Y-80308737D01*
X221630631Y-80424665D01*
X222074912Y-80127838D01*
X222424694Y-79630635D01*
X222316307Y-79400000D01*
X221400000Y-79400000D01*
X220600000Y-79400000D01*
X219683693Y-79400000D01*
X219575306Y-79630635D01*
X211458000Y-79630635D01*
X211458000Y-79289500D01*
X211268500Y-79100000D01*
X210100000Y-79100000D01*
X208900000Y-79100000D01*
X207731500Y-79100000D01*
X207542000Y-79289500D01*
X188363860Y-79289500D01*
X188313563Y-79211337D01*
X187895847Y-78925924D01*
X187400000Y-78825512D01*
X185600000Y-78825512D01*
X185136778Y-78912673D01*
X184711337Y-79186437D01*
X184425924Y-79604153D01*
X184325512Y-80100000D01*
X184049913Y-80100000D01*
X184050355Y-79594019D01*
X183738919Y-78840285D01*
X183162748Y-78263108D01*
X182409559Y-77950357D01*
X181594019Y-77949645D01*
X180840285Y-78261081D01*
X180263108Y-78837252D01*
X179950357Y-79590441D01*
X179949645Y-80405981D01*
X179343510Y-80405981D01*
X179549643Y-79909559D01*
X179550355Y-79094019D01*
X179238919Y-78340285D01*
X178662748Y-77763108D01*
X177909559Y-77450357D01*
X177094019Y-77449645D01*
X176340285Y-77761081D01*
X175763108Y-78337252D01*
X175450357Y-79090441D01*
X175449645Y-79905981D01*
X168253420Y-79905981D01*
X168108462Y-79177231D01*
X167642401Y-78479720D01*
X166944890Y-78013659D01*
X166122121Y-77850000D01*
X166037879Y-77850000D01*
X165215110Y-78013659D01*
X164810000Y-78284344D01*
X164404890Y-78013659D01*
X163582121Y-77850000D01*
X163497879Y-77850000D01*
X162675110Y-78013659D01*
X162598838Y-78064622D01*
X162395847Y-77925924D01*
X161900000Y-77825512D01*
X160100000Y-77825512D01*
X159636778Y-77912673D01*
X159211337Y-78186437D01*
X158925924Y-78604153D01*
X158825512Y-79100000D01*
X138146025Y-79100000D01*
X137921059Y-78555542D01*
X137367373Y-78000889D01*
X136643576Y-77700342D01*
X135859862Y-77699658D01*
X135135542Y-77998941D01*
X134580889Y-78552627D01*
X134280342Y-79276424D01*
X134279658Y-80060138D01*
X127762174Y-80060138D01*
X127322769Y-79766538D01*
X126500000Y-79602879D01*
X125677231Y-79766538D01*
X124979720Y-80232599D01*
X124513659Y-80930110D01*
X124350000Y-81752879D01*
X124350000Y-81837121D01*
X124513659Y-82659890D01*
X124784344Y-83065000D01*
X124513659Y-83470110D01*
X124350000Y-84292879D01*
X124350000Y-84377121D01*
X124513659Y-85199890D01*
X124564622Y-85276162D01*
X124425924Y-85479153D01*
X124325512Y-85975000D01*
X118764851Y-85975000D01*
X118999643Y-85409559D01*
X119000355Y-84594019D01*
X118688919Y-83840285D01*
X118112748Y-83263108D01*
X117359559Y-82950357D01*
X116544019Y-82949645D01*
X115790285Y-83261081D01*
X115213108Y-83837252D01*
X114900357Y-84590441D01*
X114899645Y-85405981D01*
X115211081Y-86159715D01*
X115554376Y-86503610D01*
X115415285Y-86561081D01*
X114838108Y-87137252D01*
X114525357Y-87890441D01*
X114524645Y-88705981D01*
X113612519Y-88705981D01*
X113758000Y-88560500D01*
X113758000Y-88349224D01*
X113642601Y-88070627D01*
X113429372Y-87857398D01*
X113150775Y-87742000D01*
X112939500Y-87742000D01*
X112750000Y-87931500D01*
X112250000Y-87931500D01*
X112060500Y-87742000D01*
X111849225Y-87742000D01*
X111829916Y-87749998D01*
X111242000Y-87749998D01*
X111242000Y-87807202D01*
X110952590Y-87517287D01*
X110309624Y-87250304D01*
X109613431Y-87249696D01*
X108969999Y-87515557D01*
X108477287Y-88007410D01*
X108210304Y-88650376D01*
X108209696Y-89346569D01*
X105550134Y-89346569D01*
X105550355Y-89094019D01*
X105238919Y-88340285D01*
X104662748Y-87763108D01*
X104575010Y-87726676D01*
X104989731Y-87449569D01*
X105434115Y-86784501D01*
X105590162Y-86000000D01*
X105434115Y-85215499D01*
X105290124Y-85000000D01*
X107239838Y-85000000D01*
X107395885Y-85784501D01*
X107840269Y-86449569D01*
X108505337Y-86893953D01*
X109289838Y-87050000D01*
X109370162Y-87050000D01*
X110154663Y-86893953D01*
X110819731Y-86449569D01*
X111264115Y-85784501D01*
X111420162Y-85000000D01*
X111264115Y-84215499D01*
X110819731Y-83550431D01*
X110154663Y-83106047D01*
X109370162Y-82950000D01*
X109289838Y-82950000D01*
X108505337Y-83106047D01*
X107840269Y-83550431D01*
X107395885Y-84215499D01*
X107239838Y-85000000D01*
X105290124Y-85000000D01*
X104989731Y-84550431D01*
X104576753Y-84274488D01*
X105000000Y-84274488D01*
X105463222Y-84187327D01*
X105888663Y-83913563D01*
X106174076Y-83495847D01*
X106274488Y-83000000D01*
X106274488Y-82000000D01*
X106187327Y-81536778D01*
X105913563Y-81111337D01*
X105860208Y-81074881D01*
X105982713Y-80952590D01*
X106249696Y-80309624D01*
X106250304Y-79613431D01*
X105984443Y-78969999D01*
X105492590Y-78477287D01*
X104849624Y-78210304D01*
X104153431Y-78209696D01*
X103509999Y-78475557D01*
X103017287Y-78967410D01*
X102788234Y-79519031D01*
X102239999Y-79745557D01*
X101747287Y-80237410D01*
X101480304Y-80880376D01*
X101479696Y-81576569D01*
X101745557Y-82220001D01*
X102237410Y-82712713D01*
X102725512Y-82915391D01*
X102725512Y-83000000D01*
X102812673Y-83463222D01*
X103086437Y-83888663D01*
X103240159Y-83993697D01*
X102675337Y-84106047D01*
X102010269Y-84550431D01*
X101565885Y-85215499D01*
X101409838Y-86000000D01*
X98050000Y-86000000D01*
X98050355Y-85594019D01*
X97738919Y-84840285D01*
X97174108Y-84274488D01*
X98000000Y-84274488D01*
X98463222Y-84187327D01*
X98888663Y-83913563D01*
X99174076Y-83495847D01*
X99274488Y-83000000D01*
X99274488Y-82000000D01*
X99187327Y-81536778D01*
X98913563Y-81111337D01*
X98860208Y-81074881D01*
X98982713Y-80952590D01*
X99249696Y-80309624D01*
X99250304Y-79613431D01*
X98984443Y-78969999D01*
X98492590Y-78477287D01*
X97849624Y-78210304D01*
X97153431Y-78209696D01*
X96509999Y-78475557D01*
X96017287Y-78967410D01*
X95788234Y-79519031D01*
X95239999Y-79745557D01*
X94747287Y-80237410D01*
X94480304Y-80880376D01*
X94479696Y-81576569D01*
X94745557Y-82220001D01*
X95237410Y-82712713D01*
X95725512Y-82915391D01*
X95725512Y-83000000D01*
X95812673Y-83463222D01*
X96086437Y-83888663D01*
X96176431Y-83950153D01*
X95594019Y-83949645D01*
X94840285Y-84261081D01*
X94263108Y-84837252D01*
X93950357Y-85590441D01*
X93949645Y-86405981D01*
X94261081Y-87159715D01*
X94837252Y-87736892D01*
X94850981Y-87742593D01*
X94390269Y-88050431D01*
X93945885Y-88715499D01*
X93789838Y-89500000D01*
X90970260Y-89500000D01*
X91386000Y-89328220D01*
X92075798Y-88639625D01*
X92449573Y-87739473D01*
X92450424Y-86764803D01*
X92078220Y-85864000D01*
X91389625Y-85174202D01*
X90489473Y-84800427D01*
X89514803Y-84799576D01*
X88614000Y-85171780D01*
X87924202Y-85860375D01*
X87550427Y-86760527D01*
X87549576Y-87735197D01*
X79701486Y-87735197D01*
X79797998Y-87250000D01*
X79611503Y-86312426D01*
X79080410Y-85517588D01*
X78285572Y-84986495D01*
X77347998Y-84800000D01*
X77252002Y-84800000D01*
X76314428Y-84986495D01*
X75519590Y-85517588D01*
X74988497Y-86312426D01*
X74802002Y-87250000D01*
X56477908Y-87250000D01*
X56158569Y-86477142D01*
X55526187Y-85843655D01*
X54699516Y-85500392D01*
X53804411Y-85499610D01*
X52977142Y-85841431D01*
X52343655Y-86473813D01*
X52000392Y-87300484D01*
X51999610Y-88195589D01*
X41297806Y-88195589D01*
X41195847Y-88125924D01*
X40700000Y-88025512D01*
X38300000Y-88025512D01*
X37836778Y-88112673D01*
X37411337Y-88386437D01*
X37125924Y-88804153D01*
X37025512Y-89300000D01*
X27325000Y-89300000D01*
X27325000Y-84129407D01*
X34969121Y-84129407D01*
X35116232Y-84393089D01*
X35888928Y-84491518D01*
X36383768Y-84393089D01*
X36530879Y-84129407D01*
X35840972Y-83439500D01*
X52492000Y-83439500D01*
X52492000Y-83900776D01*
X52607399Y-84179373D01*
X52820628Y-84392602D01*
X53099225Y-84508000D01*
X53560500Y-84508000D01*
X53750000Y-84318500D01*
X53750000Y-83250000D01*
X54750000Y-83250000D01*
X54750000Y-84318500D01*
X54939500Y-84508000D01*
X55400775Y-84508000D01*
X55679372Y-84392602D01*
X55892601Y-84179373D01*
X56008000Y-83900776D01*
X56008000Y-83439500D01*
X55818500Y-83250000D01*
X54750000Y-83250000D01*
X53750000Y-83250000D01*
X52681500Y-83250000D01*
X52492000Y-83439500D01*
X35840972Y-83439500D01*
X35750000Y-83348528D01*
X34969121Y-84129407D01*
X27325000Y-84129407D01*
X27325000Y-82638928D01*
X33758482Y-82638928D01*
X33856911Y-83133768D01*
X34120593Y-83280879D01*
X34901472Y-82500000D01*
X36598528Y-82500000D01*
X37379407Y-83280879D01*
X37643089Y-83133768D01*
X37741518Y-82361072D01*
X37643089Y-81866232D01*
X37379407Y-81719121D01*
X36598528Y-82500000D01*
X34901472Y-82500000D01*
X34120593Y-81719121D01*
X33856911Y-81866232D01*
X33758482Y-82638928D01*
X27325000Y-82638928D01*
X27325000Y-80870593D01*
X34969121Y-80870593D01*
X35750000Y-81651472D01*
X35802248Y-81599224D01*
X52492000Y-81599224D01*
X52492000Y-82060500D01*
X52681500Y-82250000D01*
X53750000Y-82250000D01*
X53750000Y-81181500D01*
X54750000Y-81181500D01*
X54750000Y-82250000D01*
X55818500Y-82250000D01*
X56008000Y-82060500D01*
X56008000Y-81599224D01*
X55892601Y-81320627D01*
X55679372Y-81107398D01*
X55400775Y-80992000D01*
X54939500Y-80992000D01*
X54750000Y-81181500D01*
X53750000Y-81181500D01*
X53560500Y-80992000D01*
X53099225Y-80992000D01*
X52820628Y-81107398D01*
X52607399Y-81320627D01*
X52492000Y-81599224D01*
X35802248Y-81599224D01*
X36530879Y-80870593D01*
X36383768Y-80606911D01*
X35611072Y-80508482D01*
X35116232Y-80606911D01*
X34969121Y-80870593D01*
X27325000Y-80870593D01*
X27325000Y-80129407D01*
X80219121Y-80129407D01*
X80366232Y-80393089D01*
X81138928Y-80491518D01*
X81633768Y-80393089D01*
X81780879Y-80129407D01*
X81000000Y-79348528D01*
X80219121Y-80129407D01*
X27325000Y-80129407D01*
X27325000Y-73800000D01*
X33275512Y-73800000D01*
X33275512Y-76200000D01*
X33362673Y-76663222D01*
X33636437Y-77088663D01*
X34054153Y-77374076D01*
X34550000Y-77474488D01*
X36950000Y-77474488D01*
X37413222Y-77387327D01*
X37838663Y-77113563D01*
X38124076Y-76695847D01*
X38224488Y-76200000D01*
X38224488Y-73800000D01*
X38137327Y-73336778D01*
X37863563Y-72911337D01*
X37445847Y-72625924D01*
X36950000Y-72525512D01*
X34550000Y-72525512D01*
X34086778Y-72612673D01*
X33661337Y-72886437D01*
X33375924Y-73304153D01*
X33275512Y-73800000D01*
X27325000Y-73800000D01*
X27325000Y-68250000D01*
X44831253Y-68250000D01*
X44725924Y-68404153D01*
M02*
