G04 #@! TF.FileFunction,Copper,L2,Bot,Signal*
%FSLAX46Y46*%
G04 Gerber Fmt 4.6, Leading zero omitted, Abs format (unit mm)*
G04 Created by KiCad (PCBNEW 4.0.7) date 10/13/20 15:55:48*
%MOMM*%
%LPD*%
G01*
G04 APERTURE LIST*
%ADD10C,0.100000*%
%ADD11C,1.600000*%
%ADD12O,1.600000X1.600000*%
%ADD13R,2.200000X2.200000*%
%ADD14O,2.200000X2.200000*%
%ADD15R,2.400000X2.400000*%
%ADD16C,2.400000*%
%ADD17C,2.200000*%
%ADD18C,2.000000*%
%ADD19R,1.600000X1.600000*%
%ADD20C,1.520000*%
%ADD21R,1.520000X1.520000*%
%ADD22R,2.000000X2.000000*%
%ADD23R,1.800000X1.800000*%
%ADD24C,1.800000*%
%ADD25C,1.440000*%
%ADD26O,2.400000X2.400000*%
%ADD27R,4.300000X4.500000*%
%ADD28O,2.500000X4.500000*%
%ADD29O,4.300000X4.500000*%
%ADD30C,2.800000*%
%ADD31O,2.800000X2.800000*%
%ADD32R,3.000000X3.000000*%
%ADD33C,3.000000*%
%ADD34C,5.500000*%
%ADD35C,4.064000*%
%ADD36O,1.800000X1.800000*%
%ADD37R,1.700000X1.700000*%
%ADD38O,1.700000X1.700000*%
%ADD39C,1.500000*%
%ADD40C,1.000000*%
%ADD41C,0.500000*%
%ADD42C,2.000000*%
%ADD43C,4.000000*%
G04 APERTURE END LIST*
D10*
D11*
X106910000Y-81500000D03*
D12*
X106910000Y-68800000D03*
D13*
X198500000Y-68500000D03*
D14*
X198500000Y-76120000D03*
D15*
X54625000Y-80250000D03*
D16*
X54625000Y-72750000D03*
D17*
X178460000Y-102790000D03*
X178460000Y-97710000D03*
X183540000Y-97710000D03*
X183540000Y-102790000D03*
D18*
X181000000Y-100250000D03*
D19*
X188500000Y-80000000D03*
D11*
X188500000Y-77500000D03*
D20*
X120200000Y-100860000D03*
X120200000Y-98320000D03*
D21*
X120200000Y-103400000D03*
D20*
X89840000Y-83690000D03*
X89840000Y-86230000D03*
D21*
X89840000Y-81150000D03*
D11*
X184000000Y-69000000D03*
D12*
X176380000Y-69000000D03*
D11*
X133460000Y-97310000D03*
D12*
X125960000Y-97310000D03*
D11*
X92730000Y-90190000D03*
D12*
X100230000Y-90190000D03*
D11*
X76925000Y-104675000D03*
X76925000Y-99675000D03*
X183000000Y-76600000D03*
X183000000Y-81600000D03*
X80350000Y-104725000D03*
X80350000Y-99725000D03*
D22*
X77000000Y-79125000D03*
D18*
X77000000Y-84125000D03*
D22*
X77050000Y-95100000D03*
D18*
X77050000Y-90100000D03*
D11*
X112600000Y-93750000D03*
X117600000Y-93750000D03*
X152250000Y-90750000D03*
D12*
X142250000Y-90750000D03*
D11*
X230300000Y-92400000D03*
D12*
X230300000Y-82400000D03*
D11*
X90700000Y-68450000D03*
D12*
X90700000Y-78450000D03*
D15*
X257400000Y-78800000D03*
D16*
X257400000Y-71300000D03*
D11*
X232200000Y-68600000D03*
D12*
X232200000Y-78600000D03*
D13*
X69950000Y-96475000D03*
D14*
X69950000Y-104095000D03*
D23*
X199000000Y-79000000D03*
D24*
X199000000Y-81540000D03*
D19*
X142000000Y-68750000D03*
D12*
X142000000Y-61130000D03*
D19*
X155250000Y-61250000D03*
D12*
X155250000Y-68870000D03*
D13*
X68975000Y-77200000D03*
D14*
X68975000Y-69580000D03*
D11*
X144750000Y-96750000D03*
D12*
X152370000Y-96750000D03*
D11*
X161000000Y-94000000D03*
D12*
X168620000Y-94000000D03*
D11*
X99800000Y-75950000D03*
D12*
X99800000Y-68330000D03*
D11*
X96000000Y-76000000D03*
D12*
X96000000Y-68380000D03*
D11*
X100360000Y-93520000D03*
D12*
X92740000Y-93520000D03*
D11*
X133750000Y-100750000D03*
D12*
X126130000Y-100750000D03*
D11*
X133750000Y-104250000D03*
D12*
X126130000Y-104250000D03*
D11*
X152250000Y-100250000D03*
D12*
X144630000Y-100250000D03*
D11*
X152250000Y-103750000D03*
D12*
X144630000Y-103750000D03*
D25*
X139000000Y-103000000D03*
X139000000Y-100460000D03*
X139000000Y-97920000D03*
D16*
X188500000Y-90200000D03*
D26*
X188500000Y-102900000D03*
D11*
X177750000Y-76500000D03*
D12*
X177750000Y-84120000D03*
D16*
X64925000Y-90700000D03*
D26*
X64925000Y-78000000D03*
D11*
X87000000Y-97000000D03*
D12*
X87000000Y-104620000D03*
D11*
X83650000Y-96975000D03*
D12*
X83650000Y-104595000D03*
D11*
X192750000Y-83750000D03*
D12*
X192750000Y-96450000D03*
D11*
X103500000Y-75950000D03*
D12*
X103500000Y-68330000D03*
D11*
X146250000Y-81250000D03*
D12*
X153870000Y-81250000D03*
D25*
X141250000Y-85000000D03*
X141250000Y-82460000D03*
X141250000Y-79920000D03*
D11*
X153750000Y-84750000D03*
D12*
X146130000Y-84750000D03*
D11*
X166000000Y-69250000D03*
D12*
X158380000Y-69250000D03*
D11*
X128250000Y-69000000D03*
D12*
X120630000Y-69000000D03*
D16*
X193000000Y-73000000D03*
D26*
X177760000Y-73000000D03*
D11*
X133250000Y-69000000D03*
D12*
X133250000Y-61380000D03*
D11*
X186750000Y-69250000D03*
D12*
X186750000Y-61630000D03*
D16*
X28250000Y-65500000D03*
D26*
X40950000Y-65500000D03*
D16*
X260750000Y-65000000D03*
D26*
X248050000Y-65000000D03*
D11*
X226800000Y-82400000D03*
D12*
X226800000Y-69700000D03*
D27*
X40000000Y-50000000D03*
D28*
X45450000Y-50000000D03*
D29*
X50900000Y-50000000D03*
D27*
X242000000Y-50000000D03*
D28*
X247450000Y-50000000D03*
D29*
X252900000Y-50000000D03*
D27*
X65000000Y-50000000D03*
D28*
X70450000Y-50000000D03*
D29*
X75900000Y-50000000D03*
D27*
X217000000Y-50000000D03*
D28*
X222450000Y-50000000D03*
D29*
X227900000Y-50000000D03*
D27*
X90000000Y-50000000D03*
D28*
X95450000Y-50000000D03*
D29*
X100900000Y-50000000D03*
D27*
X192000000Y-50000000D03*
D28*
X197450000Y-50000000D03*
D29*
X202900000Y-50000000D03*
D27*
X115000000Y-50000000D03*
D28*
X120450000Y-50000000D03*
D29*
X125900000Y-50000000D03*
D27*
X167000000Y-50000000D03*
D28*
X172450000Y-50000000D03*
D29*
X177900000Y-50000000D03*
D30*
X29000000Y-59000000D03*
D31*
X49320000Y-59000000D03*
D30*
X264000000Y-59000000D03*
D31*
X243680000Y-59000000D03*
D30*
X55000000Y-59000000D03*
D31*
X75320000Y-59000000D03*
D30*
X236000000Y-59000000D03*
D31*
X215680000Y-59000000D03*
D30*
X82000000Y-59000000D03*
D31*
X102320000Y-59000000D03*
D30*
X210000000Y-59000000D03*
D31*
X189680000Y-59000000D03*
D30*
X109000000Y-59000000D03*
D31*
X129320000Y-59000000D03*
D30*
X184000000Y-59000000D03*
D31*
X163680000Y-59000000D03*
D32*
X220900000Y-100900000D03*
D33*
X215820000Y-100900000D03*
D32*
X242000000Y-88000000D03*
D33*
X236920000Y-88000000D03*
D32*
X42000000Y-88000000D03*
D33*
X36920000Y-88000000D03*
D34*
X262000000Y-102000000D03*
D35*
X262000000Y-47000000D03*
D34*
X30000000Y-102000000D03*
D35*
X30000000Y-47000000D03*
D32*
X164125000Y-101850000D03*
D33*
X159045000Y-101850000D03*
D15*
X39850000Y-80250000D03*
D16*
X39850000Y-72750000D03*
D15*
X54825000Y-95000000D03*
D16*
X54825000Y-87500000D03*
D15*
X242000000Y-78800000D03*
D16*
X242000000Y-71300000D03*
D15*
X253000000Y-94200000D03*
D16*
X253000000Y-86700000D03*
X130700000Y-72900000D03*
D26*
X115460000Y-72900000D03*
D17*
X158000000Y-90000000D03*
X173000000Y-90000000D03*
D23*
X127350000Y-81975000D03*
D36*
X124810000Y-81975000D03*
X122270000Y-81975000D03*
D23*
X147000000Y-73500000D03*
D36*
X149540000Y-73500000D03*
X152080000Y-73500000D03*
D23*
X168050000Y-78675000D03*
D36*
X165510000Y-78675000D03*
X162970000Y-78675000D03*
D23*
X137000000Y-47500000D03*
D36*
X139540000Y-47500000D03*
X142080000Y-47500000D03*
D23*
X151000000Y-47500000D03*
D36*
X153540000Y-47500000D03*
X156080000Y-47500000D03*
D30*
X209600000Y-82000000D03*
X209600000Y-70570000D03*
D16*
X221000000Y-69400000D03*
D26*
X221000000Y-84640000D03*
D20*
X109800000Y-102010000D03*
X109800000Y-99470000D03*
D21*
X109800000Y-104550000D03*
D20*
X99500000Y-82140000D03*
X99500000Y-84680000D03*
D21*
X99500000Y-79600000D03*
D20*
X100175000Y-99110000D03*
X100175000Y-96570000D03*
D21*
X100175000Y-101650000D03*
D20*
X93400000Y-99060000D03*
X93400000Y-96520000D03*
D21*
X93400000Y-101600000D03*
D20*
X183740000Y-87000000D03*
X186280000Y-87000000D03*
D21*
X181200000Y-87000000D03*
D20*
X106400000Y-92730000D03*
X106400000Y-95270000D03*
D21*
X106400000Y-90190000D03*
D20*
X137400000Y-71940000D03*
X137400000Y-74480000D03*
D21*
X137400000Y-69400000D03*
D20*
X171210000Y-69250000D03*
X168670000Y-69250000D03*
D21*
X173750000Y-69250000D03*
D13*
X28600000Y-71200000D03*
D14*
X28600000Y-78820000D03*
D13*
X248000000Y-100000000D03*
D14*
X255620000Y-100000000D03*
D13*
X28600000Y-81600000D03*
D14*
X28600000Y-89220000D03*
D13*
X248000000Y-103000000D03*
D14*
X255620000Y-103000000D03*
D11*
X66025000Y-104275000D03*
D12*
X66025000Y-94275000D03*
D11*
X193850000Y-101530000D03*
D12*
X206550000Y-101530000D03*
D11*
X121575000Y-92825000D03*
D12*
X131575000Y-92825000D03*
D11*
X134910000Y-92960000D03*
X139910000Y-92960000D03*
X111525000Y-90575000D03*
D12*
X119145000Y-90575000D03*
D37*
X263460000Y-93540000D03*
D38*
X263460000Y-96080000D03*
D37*
X28770000Y-94110000D03*
D38*
X28770000Y-96650000D03*
D39*
X155900000Y-87400000D03*
X87200000Y-89200000D03*
D40*
X157000000Y-95000000D02*
X160000000Y-95000000D01*
X160000000Y-95000000D02*
X161000000Y-94000000D01*
X152370000Y-96750000D02*
X155250000Y-96750000D01*
X158000000Y-94000000D02*
X158000000Y-90000000D01*
X155250000Y-96750000D02*
X157000000Y-95000000D01*
X157000000Y-95000000D02*
X158000000Y-94000000D01*
D41*
X158000000Y-90000000D02*
X157620000Y-90000000D01*
D40*
X164125000Y-101850000D02*
X164725000Y-101850000D01*
X164725000Y-101850000D02*
X171000000Y-98300000D01*
X171000000Y-98300000D02*
X171000000Y-94750000D01*
X171000000Y-94750000D02*
X173000000Y-90000000D01*
X181000000Y-100250000D02*
X174350000Y-100250000D01*
X172400000Y-98300000D02*
X171000000Y-98300000D01*
X174350000Y-100250000D02*
X172400000Y-98300000D01*
D41*
X159025000Y-102000000D02*
X159025000Y-101250000D01*
D40*
X120200000Y-100860000D02*
X121140000Y-100860000D01*
X124690000Y-97310000D02*
X125960000Y-97310000D01*
X121140000Y-100860000D02*
X124690000Y-97310000D01*
X125960000Y-97310000D02*
X125960000Y-96880000D01*
X125960000Y-96880000D02*
X127670000Y-95170000D01*
X143170000Y-95170000D02*
X144750000Y-96750000D01*
X127670000Y-95170000D02*
X143170000Y-95170000D01*
X125960000Y-97310000D02*
X125960000Y-97260000D01*
D41*
X125960000Y-97310000D02*
X125960000Y-96810000D01*
X125960000Y-97310000D02*
X126210000Y-97310000D01*
X144250000Y-96750000D02*
X144750000Y-96750000D01*
D40*
X92730000Y-90190000D02*
X92730000Y-93510000D01*
X92730000Y-93510000D02*
X92740000Y-93520000D01*
X92790000Y-93520000D02*
X92740000Y-93520000D01*
X92810000Y-90270000D02*
X92730000Y-90190000D01*
D41*
X92660000Y-93440000D02*
X92740000Y-93520000D01*
X92810000Y-90270000D02*
X92730000Y-90190000D01*
D40*
X100230000Y-90190000D02*
X99270000Y-90190000D01*
X96900000Y-87820000D02*
X96900000Y-82140000D01*
X99270000Y-90190000D02*
X96900000Y-87820000D01*
X89840000Y-86230000D02*
X89730000Y-86230000D01*
X89730000Y-86230000D02*
X88990000Y-87730000D01*
X91030000Y-96870000D02*
X93400000Y-96520000D01*
X88990000Y-94830000D02*
X91030000Y-96870000D01*
X88990000Y-87730000D02*
X88990000Y-94830000D01*
X89840000Y-83690000D02*
X89840000Y-86230000D01*
X99500000Y-82140000D02*
X96900000Y-82140000D01*
X96900000Y-82140000D02*
X96560000Y-82140000D01*
X94960000Y-83740000D02*
X89840000Y-83690000D01*
X96560000Y-82140000D02*
X94960000Y-83740000D01*
X93400000Y-99060000D02*
X89890000Y-99410000D01*
X78550000Y-102025000D02*
X76925000Y-100400000D01*
X87275000Y-102025000D02*
X78550000Y-102025000D01*
X89890000Y-99410000D02*
X87275000Y-102025000D01*
X76925000Y-100400000D02*
X76925000Y-99675000D01*
X76925000Y-99675000D02*
X73150000Y-99675000D01*
X73150000Y-99675000D02*
X69950000Y-96475000D01*
X69950000Y-96475000D02*
X69950000Y-97275000D01*
X69950000Y-97275000D02*
X68400000Y-98825000D01*
X63350000Y-92275000D02*
X64925000Y-90700000D01*
X63350000Y-97325000D02*
X63350000Y-92275000D01*
X64850000Y-98825000D02*
X63350000Y-97325000D01*
X68400000Y-98825000D02*
X64850000Y-98825000D01*
X64925000Y-90700000D02*
X64925000Y-90825000D01*
X69950000Y-96475000D02*
X70100000Y-96475000D01*
X93400000Y-99060000D02*
X98990000Y-99410000D01*
X99390000Y-99010000D02*
X100175000Y-99110000D01*
X98990000Y-99410000D02*
X99390000Y-99010000D01*
D41*
X76925000Y-99675000D02*
X76925000Y-99825000D01*
X77065000Y-99535000D02*
X76925000Y-99675000D01*
X93800000Y-98660000D02*
X93400000Y-99060000D01*
X77215000Y-99385000D02*
X76925000Y-99675000D01*
D40*
X198500000Y-76120000D02*
X198500000Y-78500000D01*
X198500000Y-78500000D02*
X199000000Y-79000000D01*
D42*
X255620000Y-100000000D02*
X255620000Y-97380000D01*
X257000000Y-90700000D02*
X253000000Y-86700000D01*
X257000000Y-96000000D02*
X257000000Y-90700000D01*
X255620000Y-97380000D02*
X257000000Y-96000000D01*
D43*
X242000000Y-88000000D02*
X251700000Y-88000000D01*
X251700000Y-88000000D02*
X253000000Y-86700000D01*
D42*
X247450000Y-50000000D02*
X247450000Y-54150000D01*
X247450000Y-54150000D02*
X247000000Y-54600000D01*
D40*
X193000000Y-73000000D02*
X193000000Y-67800000D01*
X193000000Y-67800000D02*
X195800000Y-65000000D01*
X193000000Y-73000000D02*
X195380000Y-73000000D01*
X195380000Y-73000000D02*
X198500000Y-76120000D01*
X198500000Y-76120000D02*
X198500000Y-75500000D01*
X198500000Y-75500000D02*
X198100000Y-75100000D01*
X198100000Y-75100000D02*
X198500000Y-76120000D01*
X183000000Y-76600000D02*
X187500000Y-76500000D01*
X187500000Y-76500000D02*
X188500000Y-77500000D01*
X188500000Y-77500000D02*
X188500000Y-77300000D01*
X188500000Y-77300000D02*
X189750000Y-76050000D01*
X189750000Y-76050000D02*
X189750000Y-65000000D01*
X189750000Y-65000000D02*
X189500000Y-65250000D01*
X189500000Y-65250000D02*
X189500000Y-66400000D01*
X189500000Y-66400000D02*
X189500000Y-65000000D01*
X183000000Y-76600000D02*
X177750000Y-76500000D01*
X166000000Y-69250000D02*
X166000000Y-65400000D01*
X166000000Y-65400000D02*
X166200000Y-65200000D01*
D42*
X232200000Y-68600000D02*
X232200000Y-68000000D01*
X232200000Y-68000000D02*
X235200000Y-65000000D01*
D43*
X242000000Y-71300000D02*
X246300000Y-71300000D01*
X250600000Y-84300000D02*
X253000000Y-86700000D01*
X250600000Y-75600000D02*
X250600000Y-84300000D01*
X246300000Y-71300000D02*
X250600000Y-75600000D01*
X242000000Y-71300000D02*
X257400000Y-71300000D01*
X224000000Y-65000000D02*
X235200000Y-65000000D01*
X235200000Y-65000000D02*
X235700000Y-65000000D01*
X235700000Y-65000000D02*
X242000000Y-71300000D01*
D41*
X188500000Y-77500000D02*
X188500000Y-77000000D01*
X166000000Y-69250000D02*
X166000000Y-68500000D01*
X188000000Y-77000000D02*
X188500000Y-77500000D01*
X183000000Y-76600000D02*
X183000000Y-76100000D01*
D42*
X172450000Y-50000000D02*
X172450000Y-63450000D01*
X172450000Y-63450000D02*
X173750000Y-64750000D01*
X173750000Y-64750000D02*
X174000000Y-65000000D01*
X153540000Y-47500000D02*
X153540000Y-52540000D01*
X156000000Y-55000000D02*
X172450000Y-55000000D01*
X153540000Y-52540000D02*
X156000000Y-55000000D01*
D41*
X174000000Y-65000000D02*
X173500000Y-65000000D01*
X173500000Y-65000000D02*
X173250000Y-65250000D01*
X173250000Y-65250000D02*
X173250000Y-64250000D01*
D42*
X173250000Y-64250000D02*
X174000000Y-65000000D01*
X222450000Y-50000000D02*
X222450000Y-63450000D01*
X222450000Y-63450000D02*
X224000000Y-65000000D01*
X197450000Y-50000000D02*
X197450000Y-58450000D01*
X197450000Y-58450000D02*
X204000000Y-65000000D01*
X172450000Y-50000000D02*
X172450000Y-55000000D01*
D43*
X174000000Y-65000000D02*
X176000000Y-65000000D01*
X184000000Y-65000000D02*
X189500000Y-65000000D01*
X189500000Y-65000000D02*
X189750000Y-65000000D01*
X176000000Y-65000000D02*
X184000000Y-65000000D01*
X189750000Y-65000000D02*
X195800000Y-65000000D01*
X195800000Y-65000000D02*
X196000000Y-65000000D01*
X200000000Y-65000000D02*
X204000000Y-65000000D01*
X196000000Y-65000000D02*
X200000000Y-65000000D01*
X204000000Y-65000000D02*
X207000000Y-65000000D01*
X224000000Y-65000000D02*
X222000000Y-65000000D01*
X222000000Y-65000000D02*
X207000000Y-65000000D01*
D40*
X109800000Y-102010000D02*
X107890000Y-102010000D01*
X106400000Y-105200000D02*
X87580000Y-105200000D01*
X107100000Y-104100000D02*
X106400000Y-105200000D01*
X107100000Y-102800000D02*
X107100000Y-104100000D01*
X107890000Y-102010000D02*
X107100000Y-102800000D01*
X87580000Y-105200000D02*
X87000000Y-104620000D01*
X87000000Y-104620000D02*
X83650000Y-104595000D01*
X83650000Y-104595000D02*
X80480000Y-104595000D01*
X80480000Y-104595000D02*
X80350000Y-104725000D01*
D41*
X83520000Y-104725000D02*
X83650000Y-104595000D01*
X80520000Y-104895000D02*
X80350000Y-104725000D01*
X80430000Y-104645000D02*
X80350000Y-104725000D01*
X83800000Y-104745000D02*
X83650000Y-104595000D01*
X109800000Y-102010000D02*
X109340000Y-102010000D01*
D43*
X209600000Y-82000000D02*
X211400000Y-82000000D01*
X218360000Y-82000000D02*
X221000000Y-84640000D01*
X211400000Y-82000000D02*
X218360000Y-82000000D01*
X221000000Y-84640000D02*
X221000000Y-100800000D01*
X221000000Y-100800000D02*
X220900000Y-100900000D01*
D40*
X77000000Y-84125000D02*
X76625000Y-84125000D01*
X76625000Y-84125000D02*
X77125000Y-83325000D01*
X77125000Y-83325000D02*
X77050000Y-90100000D01*
X106400000Y-92730000D02*
X108380000Y-92730000D01*
X110000000Y-93300000D02*
X112600000Y-93750000D01*
X108380000Y-92730000D02*
X110000000Y-93300000D01*
X99500000Y-84680000D02*
X100740000Y-84680000D01*
X102790000Y-86730000D02*
X102790000Y-93520000D01*
X100740000Y-84680000D02*
X102790000Y-86730000D01*
X106400000Y-92730000D02*
X104390000Y-92730000D01*
X103600000Y-93520000D02*
X102790000Y-93520000D01*
X102790000Y-93520000D02*
X100360000Y-93520000D01*
X104390000Y-92730000D02*
X103600000Y-93520000D01*
X100360000Y-93520000D02*
X100360000Y-95480000D01*
X100360000Y-95480000D02*
X100175000Y-96570000D01*
D41*
X106240000Y-92540000D02*
X106450000Y-92750000D01*
X106590000Y-92890000D02*
X106450000Y-92750000D01*
X100510000Y-93670000D02*
X100360000Y-93520000D01*
D40*
X124810000Y-81975000D02*
X125170000Y-85050000D01*
X138760000Y-87735000D02*
X142250000Y-90750000D01*
X127380000Y-87735000D02*
X138760000Y-87735000D01*
X125170000Y-85050000D02*
X127380000Y-87735000D01*
X139910000Y-92960000D02*
X140040000Y-92960000D01*
X140040000Y-92960000D02*
X142250000Y-90750000D01*
X142000000Y-61130000D02*
X144730000Y-61130000D01*
X149540000Y-65940000D02*
X149540000Y-73500000D01*
X144730000Y-61130000D02*
X149540000Y-65940000D01*
X153870000Y-81250000D02*
X150350000Y-81250000D01*
X150350000Y-81250000D02*
X149540000Y-82060000D01*
X149540000Y-73500000D02*
X149540000Y-82060000D01*
X149540000Y-82060000D02*
X149540000Y-87460000D01*
X149540000Y-87460000D02*
X146250000Y-90750000D01*
X146250000Y-90750000D02*
X142250000Y-90750000D01*
D41*
X142750000Y-90250000D02*
X142250000Y-90750000D01*
X124650000Y-82135000D02*
X124810000Y-81975000D01*
X142130000Y-90870000D02*
X142250000Y-90750000D01*
X142000000Y-61130000D02*
X142000000Y-61500000D01*
X142080000Y-61050000D02*
X142000000Y-61130000D01*
D40*
X152250000Y-90750000D02*
X152250000Y-86250000D01*
X152250000Y-86250000D02*
X153750000Y-84750000D01*
X165510000Y-78675000D02*
X165510000Y-79090000D01*
X165510000Y-79090000D02*
X163500000Y-81100000D01*
X163500000Y-81100000D02*
X156500000Y-81100000D01*
X153750000Y-84750000D02*
X154950000Y-84750000D01*
X156500000Y-77920000D02*
X152080000Y-73500000D01*
X156500000Y-83200000D02*
X156500000Y-81100000D01*
X156500000Y-81100000D02*
X156500000Y-77920000D01*
X154950000Y-84750000D02*
X156500000Y-83200000D01*
X152080000Y-73500000D02*
X152080000Y-73980000D01*
X152080000Y-73500000D02*
X152080000Y-64420000D01*
X152080000Y-64420000D02*
X155250000Y-61250000D01*
D41*
X153750000Y-84750000D02*
X153750000Y-85500000D01*
X165510000Y-79465000D02*
X165510000Y-78675000D01*
X152600000Y-74020000D02*
X152080000Y-73500000D01*
X155250000Y-62000000D02*
X155250000Y-61250000D01*
X155080000Y-61080000D02*
X155250000Y-61250000D01*
D40*
X39850000Y-80250000D02*
X38650000Y-80250000D01*
X38650000Y-80250000D02*
X29600000Y-71200000D01*
X29600000Y-71200000D02*
X28600000Y-71200000D01*
D42*
X64925000Y-78000000D02*
X56875000Y-78000000D01*
X56875000Y-78000000D02*
X54625000Y-80250000D01*
D43*
X42000000Y-88000000D02*
X43375000Y-88000000D01*
X43375000Y-88000000D02*
X47700000Y-85975000D01*
X47700000Y-85975000D02*
X47700000Y-76950000D01*
X54625000Y-80250000D02*
X51000000Y-80250000D01*
X51000000Y-80250000D02*
X47700000Y-76950000D01*
X47700000Y-76950000D02*
X47250000Y-76500000D01*
X39850000Y-80250000D02*
X43625000Y-80250000D01*
X47250000Y-70650000D02*
X52575676Y-65324324D01*
X47250000Y-76625000D02*
X47250000Y-76500000D01*
X47250000Y-76500000D02*
X47250000Y-70650000D01*
X43625000Y-80250000D02*
X47250000Y-76625000D01*
X42000000Y-88000000D02*
X45425000Y-90500000D01*
X49925000Y-95000000D02*
X54825000Y-95000000D01*
X45425000Y-90500000D02*
X49925000Y-95000000D01*
D42*
X68975000Y-77200000D02*
X65725000Y-77200000D01*
X65725000Y-77200000D02*
X64925000Y-78000000D01*
D40*
X106910000Y-68800000D02*
X111100000Y-65100000D01*
X111100000Y-65100000D02*
X111000000Y-65000000D01*
X96000000Y-68380000D02*
X96000000Y-65000000D01*
X96000000Y-65000000D02*
X95800000Y-65200000D01*
X95800000Y-65200000D02*
X95800000Y-65900000D01*
X95800000Y-65900000D02*
X95800000Y-65200000D01*
D43*
X97000000Y-64000000D02*
X95800000Y-65200000D01*
X95800000Y-65200000D02*
X96000000Y-65000000D01*
X97000000Y-65000000D02*
X99000000Y-65000000D01*
X97000000Y-64000000D02*
X97000000Y-65000000D01*
D40*
X99800000Y-68330000D02*
X99800000Y-65800000D01*
X99800000Y-65800000D02*
X99000000Y-65000000D01*
X103500000Y-68330000D02*
X103500000Y-67200000D01*
X103500000Y-67200000D02*
X101300000Y-65000000D01*
X115460000Y-72900000D02*
X115460000Y-66460000D01*
X115460000Y-66460000D02*
X114000000Y-65000000D01*
D43*
X42000000Y-88000000D02*
X42000000Y-87100000D01*
D42*
X90700000Y-68450000D02*
X91000000Y-65000000D01*
D41*
X96000000Y-65000000D02*
X96250000Y-65250000D01*
X96250000Y-65250000D02*
X96250000Y-65450000D01*
X96250000Y-65450000D02*
X96250000Y-65250000D01*
D43*
X64945946Y-65324324D02*
X59925676Y-65324324D01*
X59925676Y-65324324D02*
X57275676Y-65324324D01*
X57275676Y-65324324D02*
X52575676Y-65324324D01*
X52575676Y-65324324D02*
X49675676Y-65324324D01*
X49675676Y-65324324D02*
X50324324Y-65324324D01*
X50324324Y-65324324D02*
X50000000Y-65000000D01*
D42*
X139540000Y-47500000D02*
X139540000Y-51460000D01*
X136000000Y-55000000D02*
X120450000Y-55000000D01*
X139540000Y-51460000D02*
X136000000Y-55000000D01*
D41*
X104500000Y-65000000D02*
X104500000Y-65500000D01*
X104500000Y-65500000D02*
X104500000Y-65000000D01*
X99000000Y-65000000D02*
X99000000Y-65500000D01*
X99000000Y-65500000D02*
X99000000Y-65000000D01*
D42*
X45450000Y-50000000D02*
X45450000Y-63200000D01*
X45450000Y-63200000D02*
X47250000Y-65000000D01*
X47250000Y-65000000D02*
X50000000Y-65000000D01*
X91000000Y-65000000D02*
X91000000Y-66000000D01*
X91000000Y-66000000D02*
X91000000Y-65000000D01*
D43*
X64945946Y-65324324D02*
X65000000Y-65000000D01*
D42*
X95450000Y-64450000D02*
X96250000Y-65250000D01*
X96250000Y-65250000D02*
X96000000Y-65000000D01*
D43*
X96000000Y-65000000D02*
X91000000Y-65000000D01*
X91000000Y-65000000D02*
X85750000Y-65000000D01*
X85750000Y-65000000D02*
X81000000Y-65000000D01*
X81000000Y-65000000D02*
X75950000Y-65000000D01*
X75950000Y-65000000D02*
X70000000Y-65000000D01*
X70000000Y-65000000D02*
X65000000Y-65000000D01*
X99000000Y-65000000D02*
X101300000Y-65000000D01*
X101300000Y-65000000D02*
X104500000Y-65000000D01*
X104500000Y-65000000D02*
X106875000Y-65000000D01*
X106875000Y-65000000D02*
X109300000Y-65000000D01*
X109300000Y-65000000D02*
X111000000Y-65000000D01*
X111000000Y-65000000D02*
X114000000Y-65000000D01*
X114000000Y-65000000D02*
X116000000Y-65000000D01*
D42*
X120450000Y-60000000D02*
X120450000Y-60550000D01*
X120450000Y-60550000D02*
X118250000Y-62750000D01*
X118250000Y-62750000D02*
X116000000Y-65000000D01*
X70450000Y-65000000D02*
X70000000Y-65450000D01*
X120450000Y-50000000D02*
X120450000Y-55000000D01*
X120450000Y-55000000D02*
X120450000Y-55250000D01*
X120450000Y-55250000D02*
X120450000Y-60000000D01*
X95450000Y-50000000D02*
X95450000Y-64450000D01*
X70450000Y-50000000D02*
X70450000Y-65000000D01*
D40*
X142000000Y-68750000D02*
X142000000Y-72300000D01*
X139820000Y-74480000D02*
X137400000Y-74480000D01*
X142000000Y-72300000D02*
X139820000Y-74480000D01*
X155250000Y-68870000D02*
X155250000Y-68450000D01*
X155250000Y-68450000D02*
X156400000Y-67300000D01*
X168670000Y-71230000D02*
X168670000Y-69250000D01*
X168600000Y-71300000D02*
X168670000Y-71230000D01*
X163700000Y-71300000D02*
X168600000Y-71300000D01*
X159700000Y-67300000D02*
X163700000Y-71300000D01*
X156400000Y-67300000D02*
X159700000Y-67300000D01*
D41*
X168670000Y-69250000D02*
X168670000Y-69330000D01*
X155250000Y-68870000D02*
X155880000Y-68870000D01*
X155380000Y-69000000D02*
X155250000Y-68870000D01*
X155480000Y-69100000D02*
X155250000Y-68870000D01*
D40*
X114200000Y-97500000D02*
X119380000Y-97500000D01*
X119380000Y-97500000D02*
X120200000Y-98320000D01*
X100175000Y-101650000D02*
X100675000Y-101650000D01*
X100675000Y-101650000D02*
X103600000Y-99800000D01*
X105150000Y-97500000D02*
X114200000Y-97500000D01*
X114200000Y-97500000D02*
X114250000Y-97500000D01*
X103600000Y-98500000D02*
X105150000Y-97500000D01*
X103600000Y-99800000D02*
X103600000Y-98500000D01*
D41*
X100175000Y-101650000D02*
X100775000Y-101650000D01*
X100175000Y-101650000D02*
X100175000Y-101500000D01*
D40*
X120200000Y-103400000D02*
X121400000Y-103400000D01*
X124050000Y-100750000D02*
X126130000Y-100750000D01*
X121400000Y-103400000D02*
X124050000Y-100750000D01*
X109800000Y-99470000D02*
X106330000Y-99470000D01*
X93550000Y-103400000D02*
X93400000Y-101600000D01*
X103800000Y-103400000D02*
X93550000Y-103400000D01*
X105300000Y-101900000D02*
X103800000Y-103400000D01*
X105300000Y-100500000D02*
X105300000Y-101900000D01*
X106330000Y-99470000D02*
X105300000Y-100500000D01*
X109800000Y-104550000D02*
X110150000Y-104550000D01*
X110150000Y-104550000D02*
X110900000Y-105300000D01*
X110900000Y-105300000D02*
X125080000Y-105300000D01*
X125080000Y-105300000D02*
X126130000Y-104250000D01*
D41*
X109950000Y-105200000D02*
X109800000Y-105050000D01*
X110160000Y-104190000D02*
X109800000Y-105050000D01*
X125790000Y-104590000D02*
X126130000Y-104250000D01*
D40*
X186280000Y-87000000D02*
X186280000Y-87980000D01*
X186280000Y-87980000D02*
X188500000Y-90200000D01*
D41*
X187830000Y-89530000D02*
X188500000Y-90200000D01*
D40*
X177750000Y-84120000D02*
X177750000Y-84150000D01*
X177750000Y-84150000D02*
X180100000Y-86500000D01*
X180100000Y-86500000D02*
X181200000Y-87000000D01*
D41*
X177750000Y-84120000D02*
X177750000Y-84750000D01*
D40*
X106910000Y-81500000D02*
X120170000Y-81500000D01*
X120170000Y-81500000D02*
X122270000Y-81975000D01*
X106400000Y-90190000D02*
X106400000Y-86470000D01*
X103710000Y-83780000D02*
X103710000Y-76160000D01*
X106400000Y-86470000D02*
X103710000Y-83780000D01*
X103710000Y-76160000D02*
X103500000Y-75950000D01*
X103500000Y-75950000D02*
X103650000Y-75950000D01*
X103650000Y-75950000D02*
X106300000Y-78600000D01*
X127390000Y-81405000D02*
X127350000Y-81975000D01*
X123900000Y-78600000D02*
X127390000Y-81405000D01*
X106300000Y-78600000D02*
X107710000Y-78600000D01*
X107710000Y-78600000D02*
X123900000Y-78600000D01*
D41*
X103500000Y-75950000D02*
X103900000Y-75950000D01*
D40*
X133250000Y-69000000D02*
X133250000Y-70050000D01*
X133250000Y-70050000D02*
X135140000Y-71940000D01*
X135140000Y-71940000D02*
X137400000Y-71940000D01*
X130300000Y-69000000D02*
X130300000Y-72500000D01*
X130300000Y-72500000D02*
X130700000Y-72900000D01*
X133250000Y-69000000D02*
X130300000Y-69000000D01*
X130300000Y-69000000D02*
X128250000Y-69000000D01*
D41*
X130400000Y-72600000D02*
X130700000Y-72900000D01*
D40*
X186750000Y-69250000D02*
X186750000Y-70150000D01*
X183900000Y-73000000D02*
X177760000Y-73000000D01*
X186750000Y-70150000D02*
X183900000Y-73000000D01*
X177760000Y-73000000D02*
X177760000Y-70380000D01*
X177760000Y-70380000D02*
X176380000Y-69000000D01*
X171210000Y-69250000D02*
X171210000Y-70610000D01*
X173600000Y-73000000D02*
X177760000Y-73000000D01*
X171210000Y-70610000D02*
X173600000Y-73000000D01*
X139000000Y-97920000D02*
X141520000Y-97920000D01*
X141520000Y-97920000D02*
X143850000Y-100250000D01*
X143850000Y-100250000D02*
X144630000Y-100250000D01*
X133750000Y-100750000D02*
X134150000Y-100750000D01*
X134150000Y-100750000D02*
X136980000Y-97920000D01*
X136980000Y-97920000D02*
X139000000Y-97920000D01*
D41*
X133750000Y-100750000D02*
X134000000Y-100750000D01*
X138920000Y-98000000D02*
X139000000Y-97920000D01*
D40*
X139000000Y-103000000D02*
X139000000Y-103400000D01*
X139000000Y-103400000D02*
X140100000Y-104500000D01*
X143880000Y-104500000D02*
X144630000Y-103750000D01*
X140100000Y-104500000D02*
X143880000Y-104500000D01*
X139000000Y-103000000D02*
X139000000Y-103500000D01*
X139000000Y-103500000D02*
X138250000Y-104250000D01*
X138250000Y-104250000D02*
X133750000Y-104250000D01*
D41*
X139000000Y-103000000D02*
X139000000Y-103150000D01*
X139000000Y-103150000D02*
X139350000Y-103500000D01*
X139000000Y-103000000D02*
X138900000Y-103000000D01*
X144130000Y-103250000D02*
X144630000Y-103750000D01*
X139000000Y-103000000D02*
X138875000Y-103000000D01*
D40*
X152250000Y-103750000D02*
X153650000Y-103750000D01*
X187450000Y-105000000D02*
X188500000Y-102900000D01*
X154900000Y-105000000D02*
X187450000Y-105000000D01*
X153650000Y-103750000D02*
X154900000Y-105000000D01*
X152250000Y-102000000D02*
X142300000Y-102000000D01*
X140660000Y-100460000D02*
X139000000Y-100460000D01*
X142300000Y-102000000D02*
X140660000Y-100460000D01*
X152250000Y-100250000D02*
X152250000Y-102000000D01*
X152250000Y-102000000D02*
X152250000Y-103750000D01*
D41*
X188500000Y-102900000D02*
X187550000Y-102900000D01*
X152250000Y-103750000D02*
X152500000Y-103750000D01*
D40*
X141250000Y-82460000D02*
X141250000Y-85000000D01*
X146130000Y-84750000D02*
X141500000Y-84750000D01*
X141500000Y-84750000D02*
X141250000Y-85000000D01*
D41*
X141500000Y-84750000D02*
X141250000Y-85000000D01*
X141250000Y-85000000D02*
X141250000Y-85500000D01*
X141250000Y-85000000D02*
X141500000Y-85000000D01*
X145630000Y-85250000D02*
X146130000Y-84750000D01*
D40*
X141250000Y-79920000D02*
X144920000Y-79920000D01*
X144920000Y-79920000D02*
X146250000Y-81250000D01*
X147000000Y-73500000D02*
X147000000Y-80500000D01*
X147000000Y-80500000D02*
X146250000Y-81250000D01*
D41*
X146250000Y-81250000D02*
X146250000Y-80750000D01*
X146250000Y-74250000D02*
X147000000Y-73500000D01*
X141250000Y-79920000D02*
X141670000Y-79670000D01*
D40*
X158380000Y-69250000D02*
X158380000Y-73210000D01*
X158380000Y-73210000D02*
X162970000Y-78675000D01*
D41*
X162970000Y-78675000D02*
X162970000Y-78755000D01*
D42*
X65500000Y-44500000D02*
X65500000Y-49500000D01*
X65500000Y-49500000D02*
X65000000Y-50000000D01*
X90500000Y-44500000D02*
X90500000Y-49500000D01*
X90500000Y-49500000D02*
X90000000Y-50000000D01*
X115000000Y-50000000D02*
X115000000Y-45000000D01*
X115000000Y-45000000D02*
X115500000Y-44500000D01*
X40000000Y-50000000D02*
X40000000Y-47000000D01*
X40000000Y-47000000D02*
X42500000Y-44500000D01*
X42500000Y-44500000D02*
X65500000Y-44500000D01*
X65500000Y-44500000D02*
X90500000Y-44500000D01*
X90500000Y-44500000D02*
X115500000Y-44500000D01*
X142080000Y-46080000D02*
X142080000Y-47500000D01*
X115500000Y-44500000D02*
X140500000Y-44500000D01*
X140500000Y-44500000D02*
X142080000Y-46080000D01*
X40000000Y-50000000D02*
X40000000Y-64550000D01*
X40000000Y-64550000D02*
X40950000Y-65500000D01*
X40950000Y-65450000D02*
X40950000Y-65500000D01*
X167000000Y-50000000D02*
X167000000Y-44500000D01*
X166500000Y-45000000D02*
X166500000Y-44500000D01*
X167000000Y-44500000D02*
X166500000Y-45000000D01*
X168000000Y-49000000D02*
X167000000Y-50000000D01*
X192500000Y-44500000D02*
X192500000Y-49500000D01*
X192500000Y-49500000D02*
X192000000Y-50000000D01*
X217000000Y-50000000D02*
X217000000Y-44500000D01*
X217000000Y-44500000D02*
X217000000Y-45000000D01*
X217000000Y-45000000D02*
X217000000Y-44500000D01*
X156080000Y-47500000D02*
X156080000Y-47420000D01*
X156080000Y-47420000D02*
X159000000Y-44500000D01*
X159000000Y-44500000D02*
X166500000Y-44500000D01*
X166500000Y-44500000D02*
X168000000Y-44500000D01*
X168000000Y-44500000D02*
X192500000Y-44500000D01*
X192500000Y-44500000D02*
X217000000Y-44500000D01*
X217000000Y-44500000D02*
X238500000Y-44500000D01*
X238500000Y-44500000D02*
X242000000Y-48000000D01*
X242000000Y-48000000D02*
X242000000Y-50000000D01*
X230300000Y-82400000D02*
X226900000Y-82300000D01*
X226900000Y-82300000D02*
X226800000Y-82400000D01*
D40*
X99800000Y-75950000D02*
X99800000Y-79300000D01*
X99800000Y-79300000D02*
X99500000Y-79600000D01*
D41*
X99800000Y-79300000D02*
X99500000Y-79600000D01*
X99800000Y-75950000D02*
X100100000Y-75950000D01*
D40*
X96000000Y-76000000D02*
X96000000Y-77900000D01*
X92700000Y-81200000D02*
X89840000Y-81150000D01*
X96000000Y-77900000D02*
X92700000Y-81200000D01*
X28600000Y-78820000D02*
X28600000Y-81600000D01*
D42*
X255620000Y-103000000D02*
X251000000Y-103000000D01*
X251000000Y-100000000D02*
X248000000Y-100000000D01*
X251000000Y-103000000D02*
X251000000Y-100000000D01*
D40*
X192750000Y-83750000D02*
X196790000Y-83750000D01*
X196790000Y-83750000D02*
X199000000Y-81540000D01*
X192750000Y-83750000D02*
X192750000Y-82350000D01*
X192750000Y-82350000D02*
X191690000Y-81290000D01*
X188500000Y-80000000D02*
X188800000Y-80000000D01*
X188800000Y-80000000D02*
X190090000Y-81290000D01*
X190090000Y-81290000D02*
X191690000Y-81290000D01*
X183000000Y-81600000D02*
X183800000Y-81600000D01*
X183800000Y-81600000D02*
X183790000Y-82990000D01*
X183790000Y-82990000D02*
X183740000Y-87000000D01*
X188500000Y-80000000D02*
X183000000Y-80000000D01*
X183000000Y-80000000D02*
X183000000Y-81600000D01*
X168050000Y-78675000D02*
X168050000Y-79125000D01*
X168050000Y-79125000D02*
X171300000Y-81500000D01*
X171300000Y-81500000D02*
X183000000Y-81600000D01*
D41*
X188500000Y-80000000D02*
X188500000Y-80250000D01*
X183000000Y-81600000D02*
X183250000Y-81600000D01*
X168050000Y-78675000D02*
X168050000Y-79175000D01*
X188500000Y-80000000D02*
X188000000Y-80000000D01*
D40*
X83650000Y-92725000D02*
X68125000Y-92725000D01*
X68125000Y-92725000D02*
X66025000Y-94275000D01*
X83650000Y-96975000D02*
X83650000Y-92725000D01*
X83650000Y-92725000D02*
X83650000Y-83075000D01*
X79700000Y-79125000D02*
X77000000Y-79125000D01*
X83650000Y-83075000D02*
X79700000Y-79125000D01*
X83650000Y-96175000D02*
X83650000Y-96975000D01*
X87000000Y-97000000D02*
X87000000Y-89400000D01*
X196200000Y-89100000D02*
X202960000Y-89100000D01*
X191500000Y-93800000D02*
X196200000Y-89100000D01*
X182600000Y-93800000D02*
X191500000Y-93800000D01*
X173700000Y-84900000D02*
X182600000Y-93800000D01*
X158400000Y-84900000D02*
X173700000Y-84900000D01*
X155900000Y-87400000D02*
X158400000Y-84900000D01*
X87000000Y-89400000D02*
X87200000Y-89200000D01*
X87000000Y-97700000D02*
X84950000Y-99750000D01*
X84950000Y-99750000D02*
X80350000Y-99725000D01*
D42*
X209600000Y-70570000D02*
X209020000Y-70570000D01*
X209020000Y-70570000D02*
X202960000Y-76630000D01*
X206550000Y-97820000D02*
X206550000Y-101530000D01*
X202960000Y-94230000D02*
X206550000Y-97820000D01*
X202960000Y-76630000D02*
X202960000Y-89100000D01*
X202960000Y-89100000D02*
X202960000Y-89600000D01*
X202960000Y-89600000D02*
X202960000Y-94230000D01*
D41*
X163250000Y-59430000D02*
X163680000Y-59000000D01*
D40*
X134910000Y-92960000D02*
X134910000Y-92060000D01*
X116620000Y-88500000D02*
X114320000Y-91300000D01*
X121850000Y-88500000D02*
X116620000Y-88500000D01*
X123250000Y-90400000D02*
X121850000Y-88500000D01*
X133250000Y-90400000D02*
X123250000Y-90400000D01*
X134910000Y-92060000D02*
X133250000Y-90400000D01*
X111525000Y-90575000D02*
X114320000Y-91300000D01*
X114320000Y-91300000D02*
X117600000Y-93750000D01*
X119145000Y-90575000D02*
X120525000Y-91300000D01*
X120525000Y-91300000D02*
X121575000Y-92825000D01*
X263460000Y-96080000D02*
X263460000Y-100540000D01*
X263460000Y-100540000D02*
X262000000Y-102000000D01*
X263400000Y-100600000D02*
X262000000Y-102000000D01*
X28770000Y-96650000D02*
X28770000Y-100770000D01*
X28770000Y-100770000D02*
X30000000Y-102000000D01*
D41*
G36*
X163575512Y-52250000D02*
X163662673Y-52713222D01*
X163936437Y-53138663D01*
X164354153Y-53424076D01*
X164850000Y-53524488D01*
X169150000Y-53524488D01*
X169613222Y-53437327D01*
X170038663Y-53163563D01*
X170324076Y-52745847D01*
X170424488Y-52250000D01*
X170424488Y-50250000D01*
X170442000Y-50250000D01*
X170442000Y-51250002D01*
X170607522Y-51250002D01*
X170521161Y-51432056D01*
X170833326Y-52137302D01*
X171391615Y-52669404D01*
X171534178Y-52786990D01*
X171825000Y-52707723D01*
X171825000Y-51125000D01*
X171200000Y-51125000D01*
X171200000Y-50250000D01*
X173700000Y-50250000D01*
X173700000Y-51125000D01*
X173075000Y-51125000D01*
X173075000Y-52707723D01*
X173365822Y-52786990D01*
X173508385Y-52669404D01*
X174066674Y-52137302D01*
X174378839Y-51432056D01*
X174292478Y-51250002D01*
X174458000Y-51250002D01*
X174458000Y-50250000D01*
X174516198Y-50250000D01*
X174758810Y-51469693D01*
X175495837Y-52572732D01*
X176598876Y-53309759D01*
X177900000Y-53568569D01*
X179201124Y-53309759D01*
X180304163Y-52572732D01*
X181041190Y-51469693D01*
X181283802Y-50250000D01*
X188575512Y-50250000D01*
X188575512Y-52250000D01*
X188662673Y-52713222D01*
X188936437Y-53138663D01*
X189354153Y-53424076D01*
X189850000Y-53524488D01*
X194150000Y-53524488D01*
X194613222Y-53437327D01*
X195038663Y-53163563D01*
X195324076Y-52745847D01*
X195424488Y-52250000D01*
X195424488Y-50250000D01*
X195442000Y-50250000D01*
X195442000Y-51250002D01*
X195607522Y-51250002D01*
X195521161Y-51432056D01*
X195833326Y-52137302D01*
X196391615Y-52669404D01*
X196534178Y-52786990D01*
X196825000Y-52707723D01*
X196825000Y-51125000D01*
X196200000Y-51125000D01*
X196200000Y-50250000D01*
X198700000Y-50250000D01*
X198700000Y-51125000D01*
X198075000Y-51125000D01*
X198075000Y-52707723D01*
X198365822Y-52786990D01*
X198508385Y-52669404D01*
X199066674Y-52137302D01*
X199378839Y-51432056D01*
X199292478Y-51250002D01*
X199458000Y-51250002D01*
X199458000Y-50250000D01*
X199516198Y-50250000D01*
X199758810Y-51469693D01*
X200495837Y-52572732D01*
X201598876Y-53309759D01*
X202900000Y-53568569D01*
X204201124Y-53309759D01*
X205304163Y-52572732D01*
X206041190Y-51469693D01*
X206283802Y-50250000D01*
X213575512Y-50250000D01*
X213575512Y-52250000D01*
X213662673Y-52713222D01*
X213936437Y-53138663D01*
X214354153Y-53424076D01*
X214850000Y-53524488D01*
X219150000Y-53524488D01*
X219613222Y-53437327D01*
X220038663Y-53163563D01*
X220324076Y-52745847D01*
X220424488Y-52250000D01*
X220424488Y-50250000D01*
X220442000Y-50250000D01*
X220442000Y-51250002D01*
X220607522Y-51250002D01*
X220521161Y-51432056D01*
X220833326Y-52137302D01*
X221391615Y-52669404D01*
X221534178Y-52786990D01*
X221825000Y-52707723D01*
X221825000Y-51125000D01*
X221200000Y-51125000D01*
X221200000Y-50250000D01*
X223700000Y-50250000D01*
X223700000Y-51125000D01*
X223075000Y-51125000D01*
X223075000Y-52707723D01*
X223365822Y-52786990D01*
X223508385Y-52669404D01*
X224066674Y-52137302D01*
X224378839Y-51432056D01*
X224292478Y-51250002D01*
X224458000Y-51250002D01*
X224458000Y-50250000D01*
X224516198Y-50250000D01*
X224758810Y-51469693D01*
X225495837Y-52572732D01*
X226598876Y-53309759D01*
X227900000Y-53568569D01*
X229201124Y-53309759D01*
X230304163Y-52572732D01*
X231041190Y-51469693D01*
X231283802Y-50250000D01*
X238575512Y-50250000D01*
X238575512Y-52250000D01*
X238662673Y-52713222D01*
X238936437Y-53138663D01*
X239354153Y-53424076D01*
X239850000Y-53524488D01*
X244150000Y-53524488D01*
X244613222Y-53437327D01*
X245038663Y-53163563D01*
X245324076Y-52745847D01*
X245424488Y-52250000D01*
X245424488Y-50250000D01*
X245442000Y-50250000D01*
X245442000Y-51250002D01*
X245607522Y-51250002D01*
X245521161Y-51432056D01*
X245833326Y-52137302D01*
X246391615Y-52669404D01*
X246534178Y-52786990D01*
X246825000Y-52707723D01*
X246825000Y-51125000D01*
X246200000Y-51125000D01*
X246200000Y-50250000D01*
X248700000Y-50250000D01*
X248700000Y-51125000D01*
X248075000Y-51125000D01*
X248075000Y-52707723D01*
X248365822Y-52786990D01*
X248508385Y-52669404D01*
X249066674Y-52137302D01*
X249378839Y-51432056D01*
X249292478Y-51250002D01*
X249458000Y-51250002D01*
X249458000Y-50250000D01*
X249516198Y-50250000D01*
X249750000Y-51425402D01*
X249750000Y-63213860D01*
X249035572Y-62736495D01*
X248097998Y-62550000D01*
X248002002Y-62550000D01*
X247064428Y-62736495D01*
X246269590Y-63267588D01*
X245738497Y-64062426D01*
X245552002Y-65000000D01*
X245701186Y-65750000D01*
X160469653Y-65750000D01*
X160369696Y-65683211D01*
X160250000Y-65659402D01*
X160250000Y-59000000D01*
X160978083Y-59000000D01*
X161179802Y-60014111D01*
X161754250Y-60873833D01*
X162613972Y-61448281D01*
X163628083Y-61650000D01*
X163731917Y-61650000D01*
X164746028Y-61448281D01*
X165605750Y-60873833D01*
X166180198Y-60014111D01*
X166277526Y-59524805D01*
X181349541Y-59524805D01*
X181752129Y-60499144D01*
X182496935Y-61245251D01*
X183470570Y-61649539D01*
X184524805Y-61650459D01*
X184702550Y-61577016D01*
X184700000Y-61589838D01*
X184700000Y-61670162D01*
X184856047Y-62454663D01*
X185300431Y-63119731D01*
X185965499Y-63564115D01*
X186750000Y-63720162D01*
X187534501Y-63564115D01*
X188199569Y-63119731D01*
X188643953Y-62454663D01*
X188800000Y-61670162D01*
X188800000Y-61589838D01*
X188778346Y-61480977D01*
X189628083Y-61650000D01*
X189731917Y-61650000D01*
X190746028Y-61448281D01*
X191605750Y-60873833D01*
X192180198Y-60014111D01*
X192277526Y-59524805D01*
X207349541Y-59524805D01*
X207752129Y-60499144D01*
X208496935Y-61245251D01*
X209470570Y-61649539D01*
X210524805Y-61650459D01*
X211499144Y-61247871D01*
X212245251Y-60503065D01*
X212649539Y-59529430D01*
X212650001Y-59000000D01*
X212978083Y-59000000D01*
X213179802Y-60014111D01*
X213754250Y-60873833D01*
X214613972Y-61448281D01*
X215628083Y-61650000D01*
X215731917Y-61650000D01*
X216746028Y-61448281D01*
X217605750Y-60873833D01*
X218180198Y-60014111D01*
X218277526Y-59524805D01*
X233349541Y-59524805D01*
X233752129Y-60499144D01*
X234496935Y-61245251D01*
X235470570Y-61649539D01*
X236524805Y-61650459D01*
X237499144Y-61247871D01*
X238245251Y-60503065D01*
X238649539Y-59529430D01*
X238650001Y-59000000D01*
X240978083Y-59000000D01*
X241179802Y-60014111D01*
X241754250Y-60873833D01*
X242613972Y-61448281D01*
X243628083Y-61650000D01*
X243731917Y-61650000D01*
X244746028Y-61448281D01*
X245605750Y-60873833D01*
X246180198Y-60014111D01*
X246381917Y-59000000D01*
X246180198Y-57985889D01*
X245605750Y-57126167D01*
X244746028Y-56551719D01*
X243731917Y-56350000D01*
X243628083Y-56350000D01*
X242613972Y-56551719D01*
X241754250Y-57126167D01*
X241179802Y-57985889D01*
X240978083Y-59000000D01*
X238650001Y-59000000D01*
X238650459Y-58475195D01*
X238247871Y-57500856D01*
X237503065Y-56754749D01*
X236529430Y-56350461D01*
X235475195Y-56349541D01*
X234500856Y-56752129D01*
X233754749Y-57496935D01*
X233350461Y-58470570D01*
X233349541Y-59524805D01*
X218277526Y-59524805D01*
X218381917Y-59000000D01*
X218180198Y-57985889D01*
X217605750Y-57126167D01*
X216746028Y-56551719D01*
X215731917Y-56350000D01*
X215628083Y-56350000D01*
X214613972Y-56551719D01*
X213754250Y-57126167D01*
X213179802Y-57985889D01*
X212978083Y-59000000D01*
X212650001Y-59000000D01*
X212650459Y-58475195D01*
X212247871Y-57500856D01*
X211503065Y-56754749D01*
X210529430Y-56350461D01*
X209475195Y-56349541D01*
X208500856Y-56752129D01*
X207754749Y-57496935D01*
X207350461Y-58470570D01*
X207349541Y-59524805D01*
X192277526Y-59524805D01*
X192381917Y-59000000D01*
X192180198Y-57985889D01*
X191605750Y-57126167D01*
X190746028Y-56551719D01*
X189731917Y-56350000D01*
X189628083Y-56350000D01*
X188613972Y-56551719D01*
X187754250Y-57126167D01*
X187179802Y-57985889D01*
X186978083Y-59000000D01*
X187099283Y-59609315D01*
X186750000Y-59539838D01*
X186635783Y-59562557D01*
X186649539Y-59529430D01*
X186650459Y-58475195D01*
X186247871Y-57500856D01*
X185503065Y-56754749D01*
X184529430Y-56350461D01*
X183475195Y-56349541D01*
X182500856Y-56752129D01*
X181754749Y-57496935D01*
X181350461Y-58470570D01*
X181349541Y-59524805D01*
X166277526Y-59524805D01*
X166381917Y-59000000D01*
X166180198Y-57985889D01*
X165605750Y-57126167D01*
X164746028Y-56551719D01*
X163731917Y-56350000D01*
X163628083Y-56350000D01*
X162613972Y-56551719D01*
X161754250Y-57126167D01*
X161179802Y-57985889D01*
X160978083Y-59000000D01*
X160250000Y-59000000D01*
X160250000Y-50250000D01*
X163575512Y-50250000D01*
X163575512Y-52250000D01*
X163575512Y-52250000D01*
G37*
X163575512Y-52250000D02*
X163662673Y-52713222D01*
X163936437Y-53138663D01*
X164354153Y-53424076D01*
X164850000Y-53524488D01*
X169150000Y-53524488D01*
X169613222Y-53437327D01*
X170038663Y-53163563D01*
X170324076Y-52745847D01*
X170424488Y-52250000D01*
X170424488Y-50250000D01*
X170442000Y-50250000D01*
X170442000Y-51250002D01*
X170607522Y-51250002D01*
X170521161Y-51432056D01*
X170833326Y-52137302D01*
X171391615Y-52669404D01*
X171534178Y-52786990D01*
X171825000Y-52707723D01*
X171825000Y-51125000D01*
X171200000Y-51125000D01*
X171200000Y-50250000D01*
X173700000Y-50250000D01*
X173700000Y-51125000D01*
X173075000Y-51125000D01*
X173075000Y-52707723D01*
X173365822Y-52786990D01*
X173508385Y-52669404D01*
X174066674Y-52137302D01*
X174378839Y-51432056D01*
X174292478Y-51250002D01*
X174458000Y-51250002D01*
X174458000Y-50250000D01*
X174516198Y-50250000D01*
X174758810Y-51469693D01*
X175495837Y-52572732D01*
X176598876Y-53309759D01*
X177900000Y-53568569D01*
X179201124Y-53309759D01*
X180304163Y-52572732D01*
X181041190Y-51469693D01*
X181283802Y-50250000D01*
X188575512Y-50250000D01*
X188575512Y-52250000D01*
X188662673Y-52713222D01*
X188936437Y-53138663D01*
X189354153Y-53424076D01*
X189850000Y-53524488D01*
X194150000Y-53524488D01*
X194613222Y-53437327D01*
X195038663Y-53163563D01*
X195324076Y-52745847D01*
X195424488Y-52250000D01*
X195424488Y-50250000D01*
X195442000Y-50250000D01*
X195442000Y-51250002D01*
X195607522Y-51250002D01*
X195521161Y-51432056D01*
X195833326Y-52137302D01*
X196391615Y-52669404D01*
X196534178Y-52786990D01*
X196825000Y-52707723D01*
X196825000Y-51125000D01*
X196200000Y-51125000D01*
X196200000Y-50250000D01*
X198700000Y-50250000D01*
X198700000Y-51125000D01*
X198075000Y-51125000D01*
X198075000Y-52707723D01*
X198365822Y-52786990D01*
X198508385Y-52669404D01*
X199066674Y-52137302D01*
X199378839Y-51432056D01*
X199292478Y-51250002D01*
X199458000Y-51250002D01*
X199458000Y-50250000D01*
X199516198Y-50250000D01*
X199758810Y-51469693D01*
X200495837Y-52572732D01*
X201598876Y-53309759D01*
X202900000Y-53568569D01*
X204201124Y-53309759D01*
X205304163Y-52572732D01*
X206041190Y-51469693D01*
X206283802Y-50250000D01*
X213575512Y-50250000D01*
X213575512Y-52250000D01*
X213662673Y-52713222D01*
X213936437Y-53138663D01*
X214354153Y-53424076D01*
X214850000Y-53524488D01*
X219150000Y-53524488D01*
X219613222Y-53437327D01*
X220038663Y-53163563D01*
X220324076Y-52745847D01*
X220424488Y-52250000D01*
X220424488Y-50250000D01*
X220442000Y-50250000D01*
X220442000Y-51250002D01*
X220607522Y-51250002D01*
X220521161Y-51432056D01*
X220833326Y-52137302D01*
X221391615Y-52669404D01*
X221534178Y-52786990D01*
X221825000Y-52707723D01*
X221825000Y-51125000D01*
X221200000Y-51125000D01*
X221200000Y-50250000D01*
X223700000Y-50250000D01*
X223700000Y-51125000D01*
X223075000Y-51125000D01*
X223075000Y-52707723D01*
X223365822Y-52786990D01*
X223508385Y-52669404D01*
X224066674Y-52137302D01*
X224378839Y-51432056D01*
X224292478Y-51250002D01*
X224458000Y-51250002D01*
X224458000Y-50250000D01*
X224516198Y-50250000D01*
X224758810Y-51469693D01*
X225495837Y-52572732D01*
X226598876Y-53309759D01*
X227900000Y-53568569D01*
X229201124Y-53309759D01*
X230304163Y-52572732D01*
X231041190Y-51469693D01*
X231283802Y-50250000D01*
X238575512Y-50250000D01*
X238575512Y-52250000D01*
X238662673Y-52713222D01*
X238936437Y-53138663D01*
X239354153Y-53424076D01*
X239850000Y-53524488D01*
X244150000Y-53524488D01*
X244613222Y-53437327D01*
X245038663Y-53163563D01*
X245324076Y-52745847D01*
X245424488Y-52250000D01*
X245424488Y-50250000D01*
X245442000Y-50250000D01*
X245442000Y-51250002D01*
X245607522Y-51250002D01*
X245521161Y-51432056D01*
X245833326Y-52137302D01*
X246391615Y-52669404D01*
X246534178Y-52786990D01*
X246825000Y-52707723D01*
X246825000Y-51125000D01*
X246200000Y-51125000D01*
X246200000Y-50250000D01*
X248700000Y-50250000D01*
X248700000Y-51125000D01*
X248075000Y-51125000D01*
X248075000Y-52707723D01*
X248365822Y-52786990D01*
X248508385Y-52669404D01*
X249066674Y-52137302D01*
X249378839Y-51432056D01*
X249292478Y-51250002D01*
X249458000Y-51250002D01*
X249458000Y-50250000D01*
X249516198Y-50250000D01*
X249750000Y-51425402D01*
X249750000Y-63213860D01*
X249035572Y-62736495D01*
X248097998Y-62550000D01*
X248002002Y-62550000D01*
X247064428Y-62736495D01*
X246269590Y-63267588D01*
X245738497Y-64062426D01*
X245552002Y-65000000D01*
X245701186Y-65750000D01*
X160469653Y-65750000D01*
X160369696Y-65683211D01*
X160250000Y-65659402D01*
X160250000Y-59000000D01*
X160978083Y-59000000D01*
X161179802Y-60014111D01*
X161754250Y-60873833D01*
X162613972Y-61448281D01*
X163628083Y-61650000D01*
X163731917Y-61650000D01*
X164746028Y-61448281D01*
X165605750Y-60873833D01*
X166180198Y-60014111D01*
X166277526Y-59524805D01*
X181349541Y-59524805D01*
X181752129Y-60499144D01*
X182496935Y-61245251D01*
X183470570Y-61649539D01*
X184524805Y-61650459D01*
X184702550Y-61577016D01*
X184700000Y-61589838D01*
X184700000Y-61670162D01*
X184856047Y-62454663D01*
X185300431Y-63119731D01*
X185965499Y-63564115D01*
X186750000Y-63720162D01*
X187534501Y-63564115D01*
X188199569Y-63119731D01*
X188643953Y-62454663D01*
X188800000Y-61670162D01*
X188800000Y-61589838D01*
X188778346Y-61480977D01*
X189628083Y-61650000D01*
X189731917Y-61650000D01*
X190746028Y-61448281D01*
X191605750Y-60873833D01*
X192180198Y-60014111D01*
X192277526Y-59524805D01*
X207349541Y-59524805D01*
X207752129Y-60499144D01*
X208496935Y-61245251D01*
X209470570Y-61649539D01*
X210524805Y-61650459D01*
X211499144Y-61247871D01*
X212245251Y-60503065D01*
X212649539Y-59529430D01*
X212650001Y-59000000D01*
X212978083Y-59000000D01*
X213179802Y-60014111D01*
X213754250Y-60873833D01*
X214613972Y-61448281D01*
X215628083Y-61650000D01*
X215731917Y-61650000D01*
X216746028Y-61448281D01*
X217605750Y-60873833D01*
X218180198Y-60014111D01*
X218277526Y-59524805D01*
X233349541Y-59524805D01*
X233752129Y-60499144D01*
X234496935Y-61245251D01*
X235470570Y-61649539D01*
X236524805Y-61650459D01*
X237499144Y-61247871D01*
X238245251Y-60503065D01*
X238649539Y-59529430D01*
X238650001Y-59000000D01*
X240978083Y-59000000D01*
X241179802Y-60014111D01*
X241754250Y-60873833D01*
X242613972Y-61448281D01*
X243628083Y-61650000D01*
X243731917Y-61650000D01*
X244746028Y-61448281D01*
X245605750Y-60873833D01*
X246180198Y-60014111D01*
X246381917Y-59000000D01*
X246180198Y-57985889D01*
X245605750Y-57126167D01*
X244746028Y-56551719D01*
X243731917Y-56350000D01*
X243628083Y-56350000D01*
X242613972Y-56551719D01*
X241754250Y-57126167D01*
X241179802Y-57985889D01*
X240978083Y-59000000D01*
X238650001Y-59000000D01*
X238650459Y-58475195D01*
X238247871Y-57500856D01*
X237503065Y-56754749D01*
X236529430Y-56350461D01*
X235475195Y-56349541D01*
X234500856Y-56752129D01*
X233754749Y-57496935D01*
X233350461Y-58470570D01*
X233349541Y-59524805D01*
X218277526Y-59524805D01*
X218381917Y-59000000D01*
X218180198Y-57985889D01*
X217605750Y-57126167D01*
X216746028Y-56551719D01*
X215731917Y-56350000D01*
X215628083Y-56350000D01*
X214613972Y-56551719D01*
X213754250Y-57126167D01*
X213179802Y-57985889D01*
X212978083Y-59000000D01*
X212650001Y-59000000D01*
X212650459Y-58475195D01*
X212247871Y-57500856D01*
X211503065Y-56754749D01*
X210529430Y-56350461D01*
X209475195Y-56349541D01*
X208500856Y-56752129D01*
X207754749Y-57496935D01*
X207350461Y-58470570D01*
X207349541Y-59524805D01*
X192277526Y-59524805D01*
X192381917Y-59000000D01*
X192180198Y-57985889D01*
X191605750Y-57126167D01*
X190746028Y-56551719D01*
X189731917Y-56350000D01*
X189628083Y-56350000D01*
X188613972Y-56551719D01*
X187754250Y-57126167D01*
X187179802Y-57985889D01*
X186978083Y-59000000D01*
X187099283Y-59609315D01*
X186750000Y-59539838D01*
X186635783Y-59562557D01*
X186649539Y-59529430D01*
X186650459Y-58475195D01*
X186247871Y-57500856D01*
X185503065Y-56754749D01*
X184529430Y-56350461D01*
X183475195Y-56349541D01*
X182500856Y-56752129D01*
X181754749Y-57496935D01*
X181350461Y-58470570D01*
X181349541Y-59524805D01*
X166277526Y-59524805D01*
X166381917Y-59000000D01*
X166180198Y-57985889D01*
X165605750Y-57126167D01*
X164746028Y-56551719D01*
X163731917Y-56350000D01*
X163628083Y-56350000D01*
X162613972Y-56551719D01*
X161754250Y-57126167D01*
X161179802Y-57985889D01*
X160978083Y-59000000D01*
X160250000Y-59000000D01*
X160250000Y-50250000D01*
X163575512Y-50250000D01*
X163575512Y-52250000D01*
G36*
X46700000Y-51125000D02*
X46075000Y-51125000D01*
X46075000Y-52707723D01*
X46365822Y-52786990D01*
X46508385Y-52669404D01*
X47066674Y-52137302D01*
X47378839Y-51432056D01*
X47292478Y-51250002D01*
X47458000Y-51250002D01*
X47458000Y-50250000D01*
X47516198Y-50250000D01*
X47758810Y-51469693D01*
X48495837Y-52572732D01*
X49598876Y-53309759D01*
X50900000Y-53568569D01*
X52201124Y-53309759D01*
X53304163Y-52572732D01*
X54041190Y-51469693D01*
X54283802Y-50250000D01*
X61575512Y-50250000D01*
X61575512Y-52250000D01*
X61662673Y-52713222D01*
X61936437Y-53138663D01*
X62354153Y-53424076D01*
X62850000Y-53524488D01*
X67150000Y-53524488D01*
X67613222Y-53437327D01*
X68038663Y-53163563D01*
X68324076Y-52745847D01*
X68424488Y-52250000D01*
X68424488Y-50250000D01*
X68442000Y-50250000D01*
X68442000Y-51250002D01*
X68607522Y-51250002D01*
X68521161Y-51432056D01*
X68833326Y-52137302D01*
X69391615Y-52669404D01*
X69534178Y-52786990D01*
X69825000Y-52707723D01*
X69825000Y-51125000D01*
X69200000Y-51125000D01*
X69200000Y-50250000D01*
X71700000Y-50250000D01*
X71700000Y-51125000D01*
X71075000Y-51125000D01*
X71075000Y-52707723D01*
X71365822Y-52786990D01*
X71508385Y-52669404D01*
X72066674Y-52137302D01*
X72378839Y-51432056D01*
X72292478Y-51250002D01*
X72458000Y-51250002D01*
X72458000Y-50250000D01*
X72516198Y-50250000D01*
X72758810Y-51469693D01*
X73495837Y-52572732D01*
X74598876Y-53309759D01*
X75900000Y-53568569D01*
X77201124Y-53309759D01*
X78304163Y-52572732D01*
X79041190Y-51469693D01*
X79283802Y-50250000D01*
X86575512Y-50250000D01*
X86575512Y-52250000D01*
X86662673Y-52713222D01*
X86936437Y-53138663D01*
X87354153Y-53424076D01*
X87850000Y-53524488D01*
X92150000Y-53524488D01*
X92613222Y-53437327D01*
X93038663Y-53163563D01*
X93324076Y-52745847D01*
X93424488Y-52250000D01*
X93424488Y-50250000D01*
X93442000Y-50250000D01*
X93442000Y-51250002D01*
X93607522Y-51250002D01*
X93521161Y-51432056D01*
X93833326Y-52137302D01*
X94391615Y-52669404D01*
X94534178Y-52786990D01*
X94825000Y-52707723D01*
X94825000Y-51125000D01*
X94200000Y-51125000D01*
X94200000Y-50250000D01*
X96700000Y-50250000D01*
X96700000Y-51125000D01*
X96075000Y-51125000D01*
X96075000Y-52707723D01*
X96365822Y-52786990D01*
X96508385Y-52669404D01*
X97066674Y-52137302D01*
X97378839Y-51432056D01*
X97292478Y-51250002D01*
X97458000Y-51250002D01*
X97458000Y-50250000D01*
X97516198Y-50250000D01*
X97758810Y-51469693D01*
X98495837Y-52572732D01*
X99598876Y-53309759D01*
X100900000Y-53568569D01*
X102201124Y-53309759D01*
X103304163Y-52572732D01*
X104041190Y-51469693D01*
X104283802Y-50250000D01*
X111575512Y-50250000D01*
X111575512Y-52250000D01*
X111662673Y-52713222D01*
X111936437Y-53138663D01*
X112354153Y-53424076D01*
X112850000Y-53524488D01*
X117150000Y-53524488D01*
X117613222Y-53437327D01*
X118038663Y-53163563D01*
X118324076Y-52745847D01*
X118424488Y-52250000D01*
X118424488Y-50250000D01*
X118442000Y-50250000D01*
X118442000Y-51250002D01*
X118607522Y-51250002D01*
X118521161Y-51432056D01*
X118833326Y-52137302D01*
X119391615Y-52669404D01*
X119534178Y-52786990D01*
X119825000Y-52707723D01*
X119825000Y-51125000D01*
X119200000Y-51125000D01*
X119200000Y-50250000D01*
X121700000Y-50250000D01*
X121700000Y-51125000D01*
X121075000Y-51125000D01*
X121075000Y-52707723D01*
X121365822Y-52786990D01*
X121508385Y-52669404D01*
X122066674Y-52137302D01*
X122378839Y-51432056D01*
X122292478Y-51250002D01*
X122458000Y-51250002D01*
X122458000Y-50250000D01*
X122516198Y-50250000D01*
X122758810Y-51469693D01*
X123495837Y-52572732D01*
X124598876Y-53309759D01*
X125900000Y-53568569D01*
X127201124Y-53309759D01*
X128304163Y-52572732D01*
X129041190Y-51469693D01*
X129283802Y-50250000D01*
X132750000Y-50250000D01*
X132750000Y-59389294D01*
X132465499Y-59445885D01*
X131851637Y-59856054D01*
X132021917Y-59000000D01*
X131820198Y-57985889D01*
X131245750Y-57126167D01*
X130386028Y-56551719D01*
X129371917Y-56350000D01*
X129268083Y-56350000D01*
X128253972Y-56551719D01*
X127394250Y-57126167D01*
X126819802Y-57985889D01*
X126618083Y-59000000D01*
X126819802Y-60014111D01*
X127394250Y-60873833D01*
X128253972Y-61448281D01*
X129268083Y-61650000D01*
X129371917Y-61650000D01*
X130386028Y-61448281D01*
X131245750Y-60873833D01*
X131312593Y-60773796D01*
X131200000Y-61339838D01*
X131200000Y-61420162D01*
X131356047Y-62204663D01*
X131800431Y-62869731D01*
X132465499Y-63314115D01*
X132750000Y-63370706D01*
X132750000Y-65750000D01*
X44250000Y-65750000D01*
X44250000Y-59000000D01*
X46618083Y-59000000D01*
X46819802Y-60014111D01*
X47394250Y-60873833D01*
X48253972Y-61448281D01*
X49268083Y-61650000D01*
X49371917Y-61650000D01*
X50386028Y-61448281D01*
X51245750Y-60873833D01*
X51820198Y-60014111D01*
X51917526Y-59524805D01*
X52349541Y-59524805D01*
X52752129Y-60499144D01*
X53496935Y-61245251D01*
X54470570Y-61649539D01*
X55524805Y-61650459D01*
X56499144Y-61247871D01*
X57245251Y-60503065D01*
X57649539Y-59529430D01*
X57650001Y-59000000D01*
X72618083Y-59000000D01*
X72819802Y-60014111D01*
X73394250Y-60873833D01*
X74253972Y-61448281D01*
X75268083Y-61650000D01*
X75371917Y-61650000D01*
X76386028Y-61448281D01*
X77245750Y-60873833D01*
X77820198Y-60014111D01*
X77917526Y-59524805D01*
X79349541Y-59524805D01*
X79752129Y-60499144D01*
X80496935Y-61245251D01*
X81470570Y-61649539D01*
X82524805Y-61650459D01*
X83499144Y-61247871D01*
X84245251Y-60503065D01*
X84649539Y-59529430D01*
X84650001Y-59000000D01*
X99618083Y-59000000D01*
X99819802Y-60014111D01*
X100394250Y-60873833D01*
X101253972Y-61448281D01*
X102268083Y-61650000D01*
X102371917Y-61650000D01*
X103386028Y-61448281D01*
X104245750Y-60873833D01*
X104820198Y-60014111D01*
X104917526Y-59524805D01*
X106349541Y-59524805D01*
X106752129Y-60499144D01*
X107496935Y-61245251D01*
X108470570Y-61649539D01*
X109524805Y-61650459D01*
X110499144Y-61247871D01*
X111245251Y-60503065D01*
X111649539Y-59529430D01*
X111650459Y-58475195D01*
X111247871Y-57500856D01*
X110503065Y-56754749D01*
X109529430Y-56350461D01*
X108475195Y-56349541D01*
X107500856Y-56752129D01*
X106754749Y-57496935D01*
X106350461Y-58470570D01*
X106349541Y-59524805D01*
X104917526Y-59524805D01*
X105021917Y-59000000D01*
X104820198Y-57985889D01*
X104245750Y-57126167D01*
X103386028Y-56551719D01*
X102371917Y-56350000D01*
X102268083Y-56350000D01*
X101253972Y-56551719D01*
X100394250Y-57126167D01*
X99819802Y-57985889D01*
X99618083Y-59000000D01*
X84650001Y-59000000D01*
X84650459Y-58475195D01*
X84247871Y-57500856D01*
X83503065Y-56754749D01*
X82529430Y-56350461D01*
X81475195Y-56349541D01*
X80500856Y-56752129D01*
X79754749Y-57496935D01*
X79350461Y-58470570D01*
X79349541Y-59524805D01*
X77917526Y-59524805D01*
X78021917Y-59000000D01*
X77820198Y-57985889D01*
X77245750Y-57126167D01*
X76386028Y-56551719D01*
X75371917Y-56350000D01*
X75268083Y-56350000D01*
X74253972Y-56551719D01*
X73394250Y-57126167D01*
X72819802Y-57985889D01*
X72618083Y-59000000D01*
X57650001Y-59000000D01*
X57650459Y-58475195D01*
X57247871Y-57500856D01*
X56503065Y-56754749D01*
X55529430Y-56350461D01*
X54475195Y-56349541D01*
X53500856Y-56752129D01*
X52754749Y-57496935D01*
X52350461Y-58470570D01*
X52349541Y-59524805D01*
X51917526Y-59524805D01*
X52021917Y-59000000D01*
X51820198Y-57985889D01*
X51245750Y-57126167D01*
X50386028Y-56551719D01*
X49371917Y-56350000D01*
X49268083Y-56350000D01*
X48253972Y-56551719D01*
X47394250Y-57126167D01*
X46819802Y-57985889D01*
X46618083Y-59000000D01*
X44250000Y-59000000D01*
X44250000Y-52534432D01*
X44391615Y-52669404D01*
X44534178Y-52786990D01*
X44825000Y-52707723D01*
X44825000Y-51125000D01*
X44250000Y-51125000D01*
X44250000Y-50250000D01*
X46700000Y-50250000D01*
X46700000Y-51125000D01*
X46700000Y-51125000D01*
G37*
X46700000Y-51125000D02*
X46075000Y-51125000D01*
X46075000Y-52707723D01*
X46365822Y-52786990D01*
X46508385Y-52669404D01*
X47066674Y-52137302D01*
X47378839Y-51432056D01*
X47292478Y-51250002D01*
X47458000Y-51250002D01*
X47458000Y-50250000D01*
X47516198Y-50250000D01*
X47758810Y-51469693D01*
X48495837Y-52572732D01*
X49598876Y-53309759D01*
X50900000Y-53568569D01*
X52201124Y-53309759D01*
X53304163Y-52572732D01*
X54041190Y-51469693D01*
X54283802Y-50250000D01*
X61575512Y-50250000D01*
X61575512Y-52250000D01*
X61662673Y-52713222D01*
X61936437Y-53138663D01*
X62354153Y-53424076D01*
X62850000Y-53524488D01*
X67150000Y-53524488D01*
X67613222Y-53437327D01*
X68038663Y-53163563D01*
X68324076Y-52745847D01*
X68424488Y-52250000D01*
X68424488Y-50250000D01*
X68442000Y-50250000D01*
X68442000Y-51250002D01*
X68607522Y-51250002D01*
X68521161Y-51432056D01*
X68833326Y-52137302D01*
X69391615Y-52669404D01*
X69534178Y-52786990D01*
X69825000Y-52707723D01*
X69825000Y-51125000D01*
X69200000Y-51125000D01*
X69200000Y-50250000D01*
X71700000Y-50250000D01*
X71700000Y-51125000D01*
X71075000Y-51125000D01*
X71075000Y-52707723D01*
X71365822Y-52786990D01*
X71508385Y-52669404D01*
X72066674Y-52137302D01*
X72378839Y-51432056D01*
X72292478Y-51250002D01*
X72458000Y-51250002D01*
X72458000Y-50250000D01*
X72516198Y-50250000D01*
X72758810Y-51469693D01*
X73495837Y-52572732D01*
X74598876Y-53309759D01*
X75900000Y-53568569D01*
X77201124Y-53309759D01*
X78304163Y-52572732D01*
X79041190Y-51469693D01*
X79283802Y-50250000D01*
X86575512Y-50250000D01*
X86575512Y-52250000D01*
X86662673Y-52713222D01*
X86936437Y-53138663D01*
X87354153Y-53424076D01*
X87850000Y-53524488D01*
X92150000Y-53524488D01*
X92613222Y-53437327D01*
X93038663Y-53163563D01*
X93324076Y-52745847D01*
X93424488Y-52250000D01*
X93424488Y-50250000D01*
X93442000Y-50250000D01*
X93442000Y-51250002D01*
X93607522Y-51250002D01*
X93521161Y-51432056D01*
X93833326Y-52137302D01*
X94391615Y-52669404D01*
X94534178Y-52786990D01*
X94825000Y-52707723D01*
X94825000Y-51125000D01*
X94200000Y-51125000D01*
X94200000Y-50250000D01*
X96700000Y-50250000D01*
X96700000Y-51125000D01*
X96075000Y-51125000D01*
X96075000Y-52707723D01*
X96365822Y-52786990D01*
X96508385Y-52669404D01*
X97066674Y-52137302D01*
X97378839Y-51432056D01*
X97292478Y-51250002D01*
X97458000Y-51250002D01*
X97458000Y-50250000D01*
X97516198Y-50250000D01*
X97758810Y-51469693D01*
X98495837Y-52572732D01*
X99598876Y-53309759D01*
X100900000Y-53568569D01*
X102201124Y-53309759D01*
X103304163Y-52572732D01*
X104041190Y-51469693D01*
X104283802Y-50250000D01*
X111575512Y-50250000D01*
X111575512Y-52250000D01*
X111662673Y-52713222D01*
X111936437Y-53138663D01*
X112354153Y-53424076D01*
X112850000Y-53524488D01*
X117150000Y-53524488D01*
X117613222Y-53437327D01*
X118038663Y-53163563D01*
X118324076Y-52745847D01*
X118424488Y-52250000D01*
X118424488Y-50250000D01*
X118442000Y-50250000D01*
X118442000Y-51250002D01*
X118607522Y-51250002D01*
X118521161Y-51432056D01*
X118833326Y-52137302D01*
X119391615Y-52669404D01*
X119534178Y-52786990D01*
X119825000Y-52707723D01*
X119825000Y-51125000D01*
X119200000Y-51125000D01*
X119200000Y-50250000D01*
X121700000Y-50250000D01*
X121700000Y-51125000D01*
X121075000Y-51125000D01*
X121075000Y-52707723D01*
X121365822Y-52786990D01*
X121508385Y-52669404D01*
X122066674Y-52137302D01*
X122378839Y-51432056D01*
X122292478Y-51250002D01*
X122458000Y-51250002D01*
X122458000Y-50250000D01*
X122516198Y-50250000D01*
X122758810Y-51469693D01*
X123495837Y-52572732D01*
X124598876Y-53309759D01*
X125900000Y-53568569D01*
X127201124Y-53309759D01*
X128304163Y-52572732D01*
X129041190Y-51469693D01*
X129283802Y-50250000D01*
X132750000Y-50250000D01*
X132750000Y-59389294D01*
X132465499Y-59445885D01*
X131851637Y-59856054D01*
X132021917Y-59000000D01*
X131820198Y-57985889D01*
X131245750Y-57126167D01*
X130386028Y-56551719D01*
X129371917Y-56350000D01*
X129268083Y-56350000D01*
X128253972Y-56551719D01*
X127394250Y-57126167D01*
X126819802Y-57985889D01*
X126618083Y-59000000D01*
X126819802Y-60014111D01*
X127394250Y-60873833D01*
X128253972Y-61448281D01*
X129268083Y-61650000D01*
X129371917Y-61650000D01*
X130386028Y-61448281D01*
X131245750Y-60873833D01*
X131312593Y-60773796D01*
X131200000Y-61339838D01*
X131200000Y-61420162D01*
X131356047Y-62204663D01*
X131800431Y-62869731D01*
X132465499Y-63314115D01*
X132750000Y-63370706D01*
X132750000Y-65750000D01*
X44250000Y-65750000D01*
X44250000Y-59000000D01*
X46618083Y-59000000D01*
X46819802Y-60014111D01*
X47394250Y-60873833D01*
X48253972Y-61448281D01*
X49268083Y-61650000D01*
X49371917Y-61650000D01*
X50386028Y-61448281D01*
X51245750Y-60873833D01*
X51820198Y-60014111D01*
X51917526Y-59524805D01*
X52349541Y-59524805D01*
X52752129Y-60499144D01*
X53496935Y-61245251D01*
X54470570Y-61649539D01*
X55524805Y-61650459D01*
X56499144Y-61247871D01*
X57245251Y-60503065D01*
X57649539Y-59529430D01*
X57650001Y-59000000D01*
X72618083Y-59000000D01*
X72819802Y-60014111D01*
X73394250Y-60873833D01*
X74253972Y-61448281D01*
X75268083Y-61650000D01*
X75371917Y-61650000D01*
X76386028Y-61448281D01*
X77245750Y-60873833D01*
X77820198Y-60014111D01*
X77917526Y-59524805D01*
X79349541Y-59524805D01*
X79752129Y-60499144D01*
X80496935Y-61245251D01*
X81470570Y-61649539D01*
X82524805Y-61650459D01*
X83499144Y-61247871D01*
X84245251Y-60503065D01*
X84649539Y-59529430D01*
X84650001Y-59000000D01*
X99618083Y-59000000D01*
X99819802Y-60014111D01*
X100394250Y-60873833D01*
X101253972Y-61448281D01*
X102268083Y-61650000D01*
X102371917Y-61650000D01*
X103386028Y-61448281D01*
X104245750Y-60873833D01*
X104820198Y-60014111D01*
X104917526Y-59524805D01*
X106349541Y-59524805D01*
X106752129Y-60499144D01*
X107496935Y-61245251D01*
X108470570Y-61649539D01*
X109524805Y-61650459D01*
X110499144Y-61247871D01*
X111245251Y-60503065D01*
X111649539Y-59529430D01*
X111650459Y-58475195D01*
X111247871Y-57500856D01*
X110503065Y-56754749D01*
X109529430Y-56350461D01*
X108475195Y-56349541D01*
X107500856Y-56752129D01*
X106754749Y-57496935D01*
X106350461Y-58470570D01*
X106349541Y-59524805D01*
X104917526Y-59524805D01*
X105021917Y-59000000D01*
X104820198Y-57985889D01*
X104245750Y-57126167D01*
X103386028Y-56551719D01*
X102371917Y-56350000D01*
X102268083Y-56350000D01*
X101253972Y-56551719D01*
X100394250Y-57126167D01*
X99819802Y-57985889D01*
X99618083Y-59000000D01*
X84650001Y-59000000D01*
X84650459Y-58475195D01*
X84247871Y-57500856D01*
X83503065Y-56754749D01*
X82529430Y-56350461D01*
X81475195Y-56349541D01*
X80500856Y-56752129D01*
X79754749Y-57496935D01*
X79350461Y-58470570D01*
X79349541Y-59524805D01*
X77917526Y-59524805D01*
X78021917Y-59000000D01*
X77820198Y-57985889D01*
X77245750Y-57126167D01*
X76386028Y-56551719D01*
X75371917Y-56350000D01*
X75268083Y-56350000D01*
X74253972Y-56551719D01*
X73394250Y-57126167D01*
X72819802Y-57985889D01*
X72618083Y-59000000D01*
X57650001Y-59000000D01*
X57650459Y-58475195D01*
X57247871Y-57500856D01*
X56503065Y-56754749D01*
X55529430Y-56350461D01*
X54475195Y-56349541D01*
X53500856Y-56752129D01*
X52754749Y-57496935D01*
X52350461Y-58470570D01*
X52349541Y-59524805D01*
X51917526Y-59524805D01*
X52021917Y-59000000D01*
X51820198Y-57985889D01*
X51245750Y-57126167D01*
X50386028Y-56551719D01*
X49371917Y-56350000D01*
X49268083Y-56350000D01*
X48253972Y-56551719D01*
X47394250Y-57126167D01*
X46819802Y-57985889D01*
X46618083Y-59000000D01*
X44250000Y-59000000D01*
X44250000Y-52534432D01*
X44391615Y-52669404D01*
X44534178Y-52786990D01*
X44825000Y-52707723D01*
X44825000Y-51125000D01*
X44250000Y-51125000D01*
X44250000Y-50250000D01*
X46700000Y-50250000D01*
X46700000Y-51125000D01*
M02*
