G04 #@! TF.FileFunction,Copper,L2,Bot,Signal*
%FSLAX46Y46*%
G04 Gerber Fmt 4.6, Leading zero omitted, Abs format (unit mm)*
G04 Created by KiCad (PCBNEW 4.0.7) date 09/16/20 11:21:24*
%MOMM*%
%LPD*%
G01*
G04 APERTURE LIST*
%ADD10C,0.100000*%
%ADD11C,1.520000*%
%ADD12R,1.520000X1.520000*%
%ADD13C,1.600000*%
%ADD14O,1.600000X1.600000*%
%ADD15R,2.000000X2.000000*%
%ADD16C,2.000000*%
%ADD17R,2.400000X2.400000*%
%ADD18C,2.400000*%
%ADD19R,2.200000X2.200000*%
%ADD20O,2.200000X2.200000*%
%ADD21R,1.800000X1.800000*%
%ADD22C,1.800000*%
%ADD23R,1.600000X1.600000*%
%ADD24C,1.440000*%
%ADD25O,2.400000X2.400000*%
%ADD26R,4.300000X4.500000*%
%ADD27O,2.500000X4.500000*%
%ADD28O,4.300000X4.500000*%
%ADD29C,2.800000*%
%ADD30O,2.800000X2.800000*%
%ADD31R,3.000000X3.000000*%
%ADD32C,3.000000*%
%ADD33C,5.500000*%
%ADD34C,4.064000*%
%ADD35C,2.200000*%
%ADD36O,1.800000X1.800000*%
%ADD37C,0.500000*%
%ADD38C,1.000000*%
%ADD39C,4.000000*%
%ADD40C,2.000000*%
G04 APERTURE END LIST*
D10*
D11*
X118000000Y-100460000D03*
X118000000Y-97920000D03*
D12*
X118000000Y-103000000D03*
D11*
X90550000Y-83740000D03*
X90550000Y-86280000D03*
D12*
X90550000Y-81200000D03*
D13*
X184000000Y-69000000D03*
D14*
X176380000Y-69000000D03*
D13*
X130900000Y-95250000D03*
D14*
X123400000Y-95250000D03*
D13*
X94950000Y-87950000D03*
D14*
X102450000Y-87950000D03*
D13*
X73950000Y-104550000D03*
X73950000Y-99550000D03*
X182000000Y-80000000D03*
X182000000Y-85000000D03*
X78550000Y-101800000D03*
X78550000Y-96800000D03*
D15*
X66350000Y-100600000D03*
D16*
X66350000Y-95600000D03*
D15*
X66500000Y-84600000D03*
D16*
X66500000Y-89600000D03*
D13*
X115000000Y-93050000D03*
X120000000Y-93050000D03*
X155000000Y-86500000D03*
D14*
X145000000Y-86500000D03*
D13*
X64300000Y-69950000D03*
D14*
X74300000Y-69950000D03*
D17*
X50750000Y-76650000D03*
D18*
X50750000Y-84150000D03*
D13*
X90700000Y-68450000D03*
D14*
X90700000Y-78450000D03*
D17*
X209500000Y-78500000D03*
D18*
X209500000Y-71000000D03*
D13*
X221000000Y-69000000D03*
D14*
X221000000Y-79000000D03*
D19*
X57000000Y-102500000D03*
D20*
X57000000Y-94880000D03*
D21*
X190000000Y-83500000D03*
D22*
X190000000Y-86040000D03*
D23*
X142000000Y-68750000D03*
D14*
X142000000Y-61130000D03*
D23*
X155250000Y-61250000D03*
D14*
X155250000Y-68870000D03*
D19*
X53450000Y-70000000D03*
D20*
X61070000Y-70000000D03*
D19*
X198500000Y-68500000D03*
D20*
X198500000Y-76120000D03*
D13*
X123300000Y-98375000D03*
D14*
X130920000Y-98375000D03*
D13*
X136250000Y-98750000D03*
D14*
X136250000Y-91130000D03*
D13*
X99800000Y-75950000D03*
D14*
X99800000Y-68330000D03*
D13*
X96000000Y-76000000D03*
D14*
X96000000Y-68380000D03*
D13*
X102650000Y-92950000D03*
D14*
X95030000Y-92950000D03*
D13*
X134620000Y-101600000D03*
D14*
X127000000Y-101600000D03*
D13*
X134600000Y-104700000D03*
D14*
X126980000Y-104700000D03*
D13*
X154500000Y-99750000D03*
D14*
X146880000Y-99750000D03*
D13*
X154500000Y-103500000D03*
D14*
X146880000Y-103500000D03*
D24*
X142000000Y-103000000D03*
X142000000Y-100460000D03*
X142000000Y-97920000D03*
D18*
X178500000Y-91000000D03*
D25*
X178500000Y-103700000D03*
D13*
X177500000Y-79500000D03*
D14*
X177500000Y-87120000D03*
D18*
X52550000Y-102350000D03*
D25*
X52550000Y-89650000D03*
D13*
X86900000Y-94350000D03*
D14*
X86900000Y-101970000D03*
D13*
X82750000Y-94350000D03*
D14*
X82750000Y-101970000D03*
D13*
X190500000Y-91500000D03*
D14*
X190500000Y-104200000D03*
D13*
X103500000Y-75950000D03*
D14*
X103500000Y-68330000D03*
D13*
X110700000Y-76100000D03*
D14*
X110700000Y-68480000D03*
D13*
X107000000Y-76000000D03*
D14*
X107000000Y-68380000D03*
D13*
X113050000Y-86650000D03*
D14*
X113050000Y-79030000D03*
D13*
X142500000Y-77500000D03*
D14*
X142500000Y-85120000D03*
D24*
X138000000Y-84000000D03*
X138000000Y-81460000D03*
X138000000Y-78920000D03*
D13*
X153000000Y-83000000D03*
D14*
X145380000Y-83000000D03*
D13*
X173750000Y-68500000D03*
D14*
X173750000Y-76120000D03*
D13*
X128250000Y-69000000D03*
D14*
X120630000Y-69000000D03*
D18*
X193000000Y-73000000D03*
D25*
X177760000Y-73000000D03*
D13*
X133250000Y-69000000D03*
D14*
X133250000Y-61380000D03*
D13*
X186750000Y-69250000D03*
D14*
X186750000Y-61630000D03*
D18*
X28250000Y-65500000D03*
D25*
X40950000Y-65500000D03*
D18*
X260750000Y-65000000D03*
D25*
X248050000Y-65000000D03*
D13*
X73400000Y-75750000D03*
D14*
X60700000Y-75750000D03*
D26*
X40000000Y-50000000D03*
D27*
X45450000Y-50000000D03*
D28*
X50900000Y-50000000D03*
D26*
X242000000Y-50000000D03*
D27*
X247450000Y-50000000D03*
D28*
X252900000Y-50000000D03*
D26*
X65000000Y-50000000D03*
D27*
X70450000Y-50000000D03*
D28*
X75900000Y-50000000D03*
D26*
X217000000Y-50000000D03*
D27*
X222450000Y-50000000D03*
D28*
X227900000Y-50000000D03*
D26*
X90000000Y-50000000D03*
D27*
X95450000Y-50000000D03*
D28*
X100900000Y-50000000D03*
D26*
X192000000Y-50000000D03*
D27*
X197450000Y-50000000D03*
D28*
X202900000Y-50000000D03*
D26*
X115000000Y-50000000D03*
D27*
X120450000Y-50000000D03*
D28*
X125900000Y-50000000D03*
D26*
X167000000Y-50000000D03*
D27*
X172450000Y-50000000D03*
D28*
X177900000Y-50000000D03*
D29*
X29000000Y-59000000D03*
D30*
X49320000Y-59000000D03*
D29*
X264000000Y-59000000D03*
D30*
X243680000Y-59000000D03*
D29*
X55000000Y-59000000D03*
D30*
X75320000Y-59000000D03*
D29*
X236000000Y-59000000D03*
D30*
X215680000Y-59000000D03*
D29*
X82000000Y-59000000D03*
D30*
X102320000Y-59000000D03*
D29*
X210000000Y-59000000D03*
D30*
X189680000Y-59000000D03*
D29*
X109000000Y-59000000D03*
D30*
X129320000Y-59000000D03*
D29*
X184000000Y-59000000D03*
D30*
X163680000Y-59000000D03*
D31*
X245500000Y-101000000D03*
D32*
X250580000Y-101000000D03*
D31*
X229500000Y-71900000D03*
D32*
X234580000Y-71900000D03*
D31*
X79000000Y-72400000D03*
D32*
X84080000Y-72400000D03*
D33*
X262000000Y-102000000D03*
D34*
X262000000Y-47000000D03*
D33*
X30000000Y-102000000D03*
D34*
X30000000Y-47000000D03*
D31*
X163500000Y-101750000D03*
D32*
X168580000Y-101750000D03*
D35*
X163460000Y-93290000D03*
X163460000Y-88210000D03*
X168540000Y-88210000D03*
X168540000Y-93290000D03*
D16*
X166000000Y-90750000D03*
D17*
X35750000Y-76600000D03*
D18*
X35750000Y-84100000D03*
D17*
X42350000Y-92650000D03*
D18*
X42350000Y-100150000D03*
D17*
X220000000Y-89500000D03*
D18*
X212500000Y-89500000D03*
D17*
X197250000Y-89500000D03*
D18*
X204750000Y-89500000D03*
X130700000Y-72900000D03*
D25*
X115460000Y-72900000D03*
D13*
X262000000Y-92000000D03*
X262000000Y-97000000D03*
X30000000Y-92000000D03*
X30000000Y-97000000D03*
D35*
X140000000Y-91000000D03*
X155000000Y-91000000D03*
D21*
X127250000Y-83950000D03*
D36*
X124710000Y-83950000D03*
X122170000Y-83950000D03*
D21*
X147000000Y-73500000D03*
D36*
X149540000Y-73500000D03*
X152080000Y-73500000D03*
D21*
X166000000Y-77900000D03*
D36*
X163460000Y-77900000D03*
X160920000Y-77900000D03*
D21*
X137000000Y-47500000D03*
D36*
X139540000Y-47500000D03*
X142080000Y-47500000D03*
D21*
X151000000Y-47500000D03*
D36*
X153540000Y-47500000D03*
X156080000Y-47500000D03*
D29*
X261000000Y-78000000D03*
X249570000Y-78000000D03*
D18*
X241000000Y-71000000D03*
D25*
X241000000Y-86240000D03*
D11*
X109800000Y-102010000D03*
X109800000Y-99470000D03*
D12*
X109800000Y-104550000D03*
D11*
X99500000Y-82140000D03*
X99500000Y-84680000D03*
D12*
X99500000Y-79600000D03*
D11*
X101350000Y-99010000D03*
X101350000Y-96470000D03*
D12*
X101350000Y-101550000D03*
D11*
X92100000Y-99410000D03*
X92100000Y-96870000D03*
D12*
X92100000Y-101950000D03*
D11*
X184350000Y-91640000D03*
X184350000Y-94180000D03*
D12*
X184350000Y-89100000D03*
D11*
X108100000Y-91840000D03*
X108100000Y-94380000D03*
D12*
X108100000Y-89300000D03*
D11*
X108550000Y-82490000D03*
X108550000Y-85030000D03*
D12*
X108550000Y-79950000D03*
D11*
X137400000Y-71940000D03*
X137400000Y-74480000D03*
D12*
X137400000Y-69400000D03*
D11*
X163710000Y-69100000D03*
X161170000Y-69100000D03*
D12*
X166250000Y-69100000D03*
D19*
X47000000Y-70500000D03*
D20*
X39380000Y-70500000D03*
D19*
X233350000Y-95150000D03*
D20*
X225730000Y-95150000D03*
D19*
X36200000Y-70350000D03*
D20*
X28580000Y-70350000D03*
D19*
X225800000Y-91150000D03*
D20*
X233420000Y-91150000D03*
D23*
X186500000Y-79500000D03*
D13*
X186500000Y-77000000D03*
D37*
X130920000Y-98375000D02*
X135875000Y-98375000D01*
X135875000Y-98375000D02*
X136250000Y-98750000D01*
X140000000Y-91000000D02*
X140000000Y-91500000D01*
X140000000Y-91500000D02*
X136250000Y-98750000D01*
X140000000Y-91000000D02*
X139750000Y-91000000D01*
X130920000Y-98375000D02*
X130920000Y-97755000D01*
X155000000Y-91000000D02*
X155250000Y-91000000D01*
X155250000Y-91000000D02*
X163500000Y-101750000D01*
X155750000Y-90750000D02*
X155750000Y-91500000D01*
X166000000Y-90750000D02*
X166000000Y-96750000D01*
X166000000Y-96750000D02*
X166000000Y-99250000D01*
X166000000Y-99250000D02*
X163500000Y-101750000D01*
X123300000Y-98375000D02*
X123300000Y-99500000D01*
X122310000Y-100490000D02*
X117850000Y-100490000D01*
X123300000Y-99500000D02*
X122310000Y-100490000D01*
X122785000Y-98890000D02*
X123300000Y-98375000D01*
X123400000Y-95250000D02*
X123400000Y-98275000D01*
X123400000Y-98275000D02*
X123300000Y-98375000D01*
X123360000Y-98315000D02*
X123300000Y-98375000D01*
X123050000Y-98125000D02*
X123300000Y-98375000D01*
X94950000Y-87950000D02*
X94950000Y-92870000D01*
X94950000Y-92870000D02*
X95030000Y-92950000D01*
X95030000Y-88030000D02*
X94950000Y-87950000D01*
X99500000Y-82140000D02*
X100640000Y-82140000D01*
X102450000Y-83950000D02*
X102450000Y-87950000D01*
X100640000Y-82140000D02*
X102450000Y-83950000D01*
X90550000Y-83740000D02*
X90550000Y-86280000D01*
X90550000Y-83740000D02*
X93560000Y-83740000D01*
X95160000Y-82140000D02*
X99500000Y-82140000D01*
X93560000Y-83740000D02*
X95160000Y-82140000D01*
X90550000Y-86280000D02*
X90550000Y-95320000D01*
X90550000Y-95320000D02*
X92100000Y-96870000D01*
X73950000Y-99550000D02*
X73950000Y-100400000D01*
X54300000Y-104100000D02*
X52550000Y-102350000D01*
X70250000Y-104100000D02*
X54300000Y-104100000D01*
X73950000Y-100400000D02*
X70250000Y-104100000D01*
X57000000Y-102500000D02*
X56150000Y-102500000D01*
X56150000Y-102500000D02*
X52550000Y-102350000D01*
X92100000Y-99410000D02*
X74090000Y-99410000D01*
X74090000Y-99410000D02*
X73950000Y-99550000D01*
X101350000Y-99010000D02*
X92500000Y-99010000D01*
X92500000Y-99010000D02*
X92100000Y-99410000D01*
X74240000Y-99260000D02*
X73950000Y-99550000D01*
X193000000Y-73000000D02*
X193000000Y-80500000D01*
X193000000Y-80500000D02*
X190000000Y-83500000D01*
X186500000Y-77000000D02*
X189000000Y-77000000D01*
X189000000Y-77000000D02*
X193000000Y-73000000D01*
X190500000Y-83500000D02*
X190000000Y-83500000D01*
X182000000Y-80000000D02*
X182000000Y-79500000D01*
X182000000Y-79500000D02*
X184500000Y-77000000D01*
X184500000Y-77000000D02*
X186500000Y-77000000D01*
D38*
X225730000Y-95150000D02*
X215200000Y-95150000D01*
X212500000Y-92450000D02*
X212500000Y-89500000D01*
X215200000Y-95150000D02*
X212500000Y-92450000D01*
D39*
X212500000Y-89500000D02*
X204750000Y-89500000D01*
X209500000Y-71000000D02*
X211500000Y-71000000D01*
X214250000Y-87750000D02*
X212500000Y-89500000D01*
X214250000Y-73750000D02*
X214250000Y-87750000D01*
X211500000Y-71000000D02*
X214250000Y-73750000D01*
D37*
X193000000Y-73000000D02*
X195380000Y-73000000D01*
X195380000Y-73000000D02*
X198500000Y-76120000D01*
D40*
X172450000Y-50000000D02*
X172450000Y-63450000D01*
X172450000Y-63450000D02*
X174000000Y-65000000D01*
X153540000Y-47500000D02*
X153540000Y-52540000D01*
X156000000Y-55000000D02*
X172450000Y-55000000D01*
X153540000Y-52540000D02*
X156000000Y-55000000D01*
D37*
X173750000Y-68500000D02*
X173750000Y-67250000D01*
X173750000Y-67250000D02*
X176000000Y-65000000D01*
X193000000Y-73000000D02*
X193000000Y-68000000D01*
X193000000Y-68000000D02*
X196000000Y-65000000D01*
X177500000Y-79500000D02*
X181500000Y-79500000D01*
X181500000Y-79500000D02*
X182000000Y-80000000D01*
X174000000Y-65000000D02*
X173500000Y-65000000D01*
X173500000Y-65000000D02*
X173250000Y-65250000D01*
X173250000Y-65250000D02*
X173250000Y-64250000D01*
D40*
X173250000Y-64250000D02*
X174000000Y-65000000D01*
X247450000Y-50000000D02*
X247450000Y-60300000D01*
X228750000Y-64250000D02*
X226000000Y-67000000D01*
X243500000Y-64250000D02*
X228750000Y-64250000D01*
X247450000Y-60300000D02*
X243500000Y-64250000D01*
X221000000Y-69000000D02*
X221000000Y-65000000D01*
X221000000Y-65000000D02*
X222000000Y-65000000D01*
D39*
X228000000Y-65000000D02*
X226000000Y-67000000D01*
D40*
X222450000Y-50000000D02*
X222450000Y-63450000D01*
X222450000Y-63450000D02*
X224000000Y-65000000D01*
X197450000Y-50000000D02*
X197450000Y-58450000D01*
X197450000Y-58450000D02*
X204000000Y-65000000D01*
X172450000Y-50000000D02*
X172450000Y-55000000D01*
D39*
X174000000Y-65000000D02*
X176000000Y-65000000D01*
X176000000Y-65000000D02*
X184000000Y-65000000D01*
X184000000Y-65000000D02*
X196000000Y-65000000D01*
X196000000Y-65000000D02*
X200000000Y-65000000D01*
X200000000Y-65000000D02*
X204000000Y-65000000D01*
X204000000Y-65000000D02*
X207000000Y-65000000D01*
X209500000Y-71000000D02*
X211000000Y-69000000D01*
X211000000Y-69000000D02*
X207000000Y-65000000D01*
X229500000Y-71900000D02*
X226000000Y-67000000D01*
X224000000Y-65000000D02*
X222000000Y-65000000D01*
X222000000Y-65000000D02*
X207000000Y-65000000D01*
X226000000Y-67000000D02*
X224000000Y-65000000D01*
D37*
X82750000Y-101970000D02*
X78720000Y-101970000D01*
X78720000Y-101970000D02*
X78550000Y-101800000D01*
X86900000Y-101970000D02*
X82750000Y-101970000D01*
X109800000Y-102010000D02*
X108390000Y-102010000D01*
X90130000Y-105200000D02*
X86900000Y-101970000D01*
X105200000Y-105200000D02*
X90130000Y-105200000D01*
X108390000Y-102010000D02*
X105200000Y-105200000D01*
X78630000Y-101720000D02*
X78550000Y-101800000D01*
X82900000Y-102120000D02*
X82750000Y-101970000D01*
X109800000Y-102010000D02*
X109340000Y-102010000D01*
D39*
X261000000Y-78000000D02*
X261000000Y-81500000D01*
X256260000Y-86240000D02*
X244240000Y-86240000D01*
X261000000Y-81500000D02*
X256260000Y-86240000D01*
X245500000Y-101000000D02*
X245500000Y-87500000D01*
X244240000Y-86240000D02*
X241000000Y-86240000D01*
X245500000Y-87500000D02*
X244240000Y-86240000D01*
D37*
X66350000Y-100600000D02*
X66350000Y-100150000D01*
X66350000Y-100150000D02*
X72150000Y-94350000D01*
X72150000Y-94350000D02*
X82750000Y-94350000D01*
X66350000Y-95600000D02*
X66500000Y-89600000D01*
X108100000Y-91840000D02*
X113790000Y-91840000D01*
X113790000Y-91840000D02*
X115000000Y-93050000D01*
X108150000Y-91860000D02*
X103790000Y-91810000D01*
X103790000Y-91810000D02*
X102650000Y-92950000D01*
X99500000Y-84680000D02*
X99500000Y-89800000D01*
X99500000Y-89800000D02*
X102650000Y-92950000D01*
X102650000Y-92950000D02*
X102650000Y-95170000D01*
X102650000Y-95170000D02*
X101350000Y-96470000D01*
X107940000Y-91650000D02*
X108150000Y-91860000D01*
X108290000Y-92000000D02*
X108150000Y-91860000D01*
X102800000Y-93100000D02*
X102650000Y-92950000D01*
X149540000Y-73500000D02*
X149540000Y-81960000D01*
X149540000Y-81960000D02*
X145000000Y-86500000D01*
X142500000Y-85120000D02*
X143120000Y-85120000D01*
X143120000Y-85120000D02*
X145000000Y-86500000D01*
X124550000Y-88650000D02*
X124550000Y-84110000D01*
X124550000Y-84110000D02*
X124710000Y-83950000D01*
X125100000Y-88650000D02*
X124550000Y-88650000D01*
X124550000Y-88650000D02*
X124400000Y-88650000D01*
X124400000Y-88650000D02*
X120000000Y-93050000D01*
X125100000Y-88650000D02*
X124950000Y-88800000D01*
X142500000Y-85120000D02*
X140030000Y-87120000D01*
X138350000Y-88800000D02*
X125600000Y-88800000D01*
X125600000Y-88800000D02*
X124950000Y-88800000D01*
X140030000Y-87120000D02*
X138350000Y-88800000D01*
X144880000Y-86620000D02*
X145000000Y-86500000D01*
X142500000Y-85120000D02*
X142380000Y-85120000D01*
X149540000Y-73500000D02*
X149540000Y-68670000D01*
X149540000Y-68670000D02*
X142000000Y-61130000D01*
X142000000Y-61130000D02*
X142000000Y-61500000D01*
X142080000Y-61050000D02*
X142000000Y-61130000D01*
X163460000Y-77900000D02*
X163460000Y-82040000D01*
X160500000Y-85000000D02*
X153000000Y-85000000D01*
X163460000Y-82040000D02*
X160500000Y-85000000D01*
X152080000Y-73500000D02*
X152080000Y-82080000D01*
X152080000Y-82080000D02*
X153000000Y-83000000D01*
X153000000Y-83000000D02*
X153000000Y-85000000D01*
X153000000Y-85000000D02*
X155000000Y-86500000D01*
X152600000Y-74020000D02*
X152080000Y-73500000D01*
X152080000Y-73500000D02*
X152080000Y-64420000D01*
X152080000Y-64420000D02*
X155250000Y-61250000D01*
X155250000Y-62000000D02*
X155250000Y-61250000D01*
X155080000Y-61080000D02*
X155250000Y-61250000D01*
D38*
X64300000Y-69950000D02*
X64300000Y-71600000D01*
X64300000Y-71600000D02*
X61400000Y-75750000D01*
X61400000Y-75750000D02*
X60700000Y-75750000D01*
D37*
X60700000Y-75750000D02*
X60900000Y-75750000D01*
D38*
X51050000Y-70100000D02*
X47400000Y-70100000D01*
X47400000Y-70100000D02*
X47000000Y-70500000D01*
X53450000Y-70000000D02*
X52350000Y-70000000D01*
X52350000Y-70000000D02*
X52250000Y-70100000D01*
X50800000Y-70100000D02*
X51050000Y-70100000D01*
X51050000Y-70100000D02*
X52250000Y-70100000D01*
X52250000Y-70100000D02*
X53350000Y-70100000D01*
X53350000Y-70100000D02*
X53450000Y-70000000D01*
D39*
X42350000Y-92650000D02*
X42350000Y-79450000D01*
X42350000Y-79450000D02*
X45150000Y-76650000D01*
X50750000Y-76650000D02*
X45150000Y-76650000D01*
X45150000Y-76650000D02*
X36800000Y-76650000D01*
X36800000Y-76650000D02*
X36750000Y-76600000D01*
X36750000Y-76600000D02*
X35750000Y-76600000D01*
X50800000Y-65324324D02*
X50800000Y-70100000D01*
X50800000Y-70100000D02*
X50800000Y-76600000D01*
X50800000Y-76600000D02*
X50750000Y-76650000D01*
D37*
X52550000Y-89650000D02*
X52550000Y-89700000D01*
X52550000Y-89700000D02*
X49600000Y-92650000D01*
X49600000Y-92650000D02*
X42350000Y-92650000D01*
D40*
X46900000Y-70600000D02*
X47000000Y-70500000D01*
D37*
X115460000Y-72900000D02*
X115460000Y-66460000D01*
X115460000Y-66460000D02*
X114000000Y-65000000D01*
D39*
X79000000Y-72400000D02*
X79000000Y-68050000D01*
X79000000Y-68050000D02*
X75950000Y-65000000D01*
D37*
X110700000Y-68480000D02*
X110700000Y-66400000D01*
X110700000Y-66400000D02*
X109300000Y-65000000D01*
X107000000Y-68380000D02*
X107000000Y-65125000D01*
X107000000Y-65125000D02*
X106875000Y-65000000D01*
X103500000Y-68330000D02*
X103500000Y-66000000D01*
X103500000Y-66000000D02*
X104500000Y-65000000D01*
X99800000Y-68330000D02*
X99800000Y-65800000D01*
X99800000Y-65800000D02*
X99000000Y-65000000D01*
X96000000Y-68380000D02*
X96000000Y-65000000D01*
X96000000Y-65000000D02*
X96250000Y-65250000D01*
X96250000Y-65250000D02*
X96250000Y-65450000D01*
X96250000Y-65450000D02*
X96250000Y-65250000D01*
D39*
X35750000Y-76600000D02*
X36750000Y-76600000D01*
X50800000Y-65324324D02*
X49675676Y-65324324D01*
X64945946Y-65324324D02*
X59925676Y-65324324D01*
X59925676Y-65324324D02*
X49675676Y-65324324D01*
X49675676Y-65324324D02*
X50324324Y-65324324D01*
X50324324Y-65324324D02*
X50000000Y-65000000D01*
D40*
X139540000Y-47500000D02*
X139540000Y-51460000D01*
X136000000Y-55000000D02*
X120450000Y-55000000D01*
X139540000Y-51460000D02*
X136000000Y-55000000D01*
D37*
X104500000Y-65000000D02*
X104500000Y-65500000D01*
X104500000Y-65500000D02*
X104500000Y-65000000D01*
X99000000Y-65000000D02*
X99000000Y-65500000D01*
X99000000Y-65500000D02*
X99000000Y-65000000D01*
D40*
X45450000Y-50000000D02*
X45450000Y-63200000D01*
X45450000Y-63200000D02*
X47250000Y-65000000D01*
X47250000Y-65000000D02*
X50000000Y-65000000D01*
X90700000Y-68450000D02*
X91000000Y-65000000D01*
X91000000Y-65000000D02*
X91000000Y-66000000D01*
X91000000Y-66000000D02*
X91000000Y-65000000D01*
D39*
X64945946Y-65324324D02*
X65000000Y-65000000D01*
D40*
X95450000Y-64450000D02*
X96250000Y-65250000D01*
X96250000Y-65250000D02*
X96000000Y-65000000D01*
D39*
X97000000Y-64000000D02*
X96000000Y-65000000D01*
X97000000Y-64000000D02*
X97000000Y-65000000D01*
X96000000Y-65000000D02*
X91000000Y-65000000D01*
X91000000Y-65000000D02*
X85750000Y-65000000D01*
X85750000Y-65000000D02*
X81000000Y-65000000D01*
X81000000Y-65000000D02*
X75950000Y-65000000D01*
X75950000Y-65000000D02*
X70000000Y-65000000D01*
X70000000Y-65000000D02*
X65000000Y-65000000D01*
X97000000Y-65000000D02*
X99000000Y-65000000D01*
X99000000Y-65000000D02*
X104500000Y-65000000D01*
X104500000Y-65000000D02*
X106875000Y-65000000D01*
X106875000Y-65000000D02*
X109300000Y-65000000D01*
X109300000Y-65000000D02*
X111000000Y-65000000D01*
X111000000Y-65000000D02*
X114000000Y-65000000D01*
X114000000Y-65000000D02*
X116000000Y-65000000D01*
D40*
X120450000Y-60000000D02*
X120450000Y-60550000D01*
X120450000Y-60550000D02*
X118250000Y-62750000D01*
X118250000Y-62750000D02*
X116000000Y-65000000D01*
X70450000Y-65000000D02*
X70000000Y-65450000D01*
D39*
X116000000Y-65000000D02*
X119000000Y-65000000D01*
D40*
X120450000Y-50000000D02*
X120450000Y-55000000D01*
X120450000Y-55000000D02*
X120450000Y-55250000D01*
X120450000Y-55250000D02*
X120450000Y-60000000D01*
X95450000Y-50000000D02*
X95450000Y-64450000D01*
X70450000Y-50000000D02*
X70450000Y-65000000D01*
D37*
X142000000Y-68750000D02*
X142000000Y-71300000D01*
X138820000Y-74480000D02*
X137400000Y-74480000D01*
X142000000Y-71300000D02*
X138820000Y-74480000D01*
X161170000Y-69100000D02*
X155480000Y-69100000D01*
X155480000Y-69100000D02*
X155250000Y-68870000D01*
X101350000Y-101550000D02*
X101950000Y-101550000D01*
X101950000Y-101550000D02*
X107000000Y-96500000D01*
X116580000Y-96500000D02*
X118000000Y-97920000D01*
X107000000Y-96500000D02*
X116580000Y-96500000D01*
X101350000Y-101550000D02*
X101350000Y-101400000D01*
X118000000Y-103000000D02*
X122500000Y-103000000D01*
X123900000Y-101600000D02*
X127000000Y-101600000D01*
X122500000Y-103000000D02*
X123900000Y-101600000D01*
X109800000Y-99470000D02*
X107630000Y-99470000D01*
X93900000Y-103750000D02*
X92100000Y-101950000D01*
X103350000Y-103750000D02*
X93900000Y-103750000D01*
X107630000Y-99470000D02*
X103350000Y-103750000D01*
X126980000Y-104700000D02*
X109950000Y-104700000D01*
X109950000Y-104700000D02*
X109800000Y-104550000D01*
X110160000Y-104190000D02*
X109800000Y-104550000D01*
X126640000Y-105040000D02*
X126980000Y-104700000D01*
X178500000Y-91000000D02*
X178500000Y-92500000D01*
X180180000Y-94180000D02*
X184350000Y-94180000D01*
X178500000Y-92500000D02*
X180180000Y-94180000D01*
X178500000Y-91000000D02*
X178500000Y-92200000D01*
X177500000Y-87120000D02*
X182370000Y-87120000D01*
X182370000Y-87120000D02*
X184350000Y-89100000D01*
X122170000Y-83950000D02*
X116350000Y-83900000D01*
X116350000Y-83900000D02*
X113050000Y-86650000D01*
X107000000Y-76000000D02*
X107000000Y-76350000D01*
X107000000Y-76350000D02*
X106150000Y-77200000D01*
X106150000Y-77200000D02*
X106150000Y-81100000D01*
X106150000Y-81100000D02*
X107540000Y-82490000D01*
X107540000Y-82490000D02*
X108550000Y-82490000D01*
X108550000Y-82490000D02*
X111560000Y-82490000D01*
X113050000Y-81000000D02*
X113050000Y-79030000D01*
X111560000Y-82490000D02*
X113050000Y-81000000D01*
X108100000Y-89300000D02*
X108100000Y-85480000D01*
X108100000Y-85480000D02*
X108550000Y-85030000D01*
X108550000Y-85030000D02*
X110370000Y-85030000D01*
X127185305Y-82740092D02*
X127250000Y-83950000D01*
X126100000Y-81100000D02*
X127185305Y-82740092D01*
X115900000Y-81100000D02*
X126100000Y-81100000D01*
X113600000Y-83400000D02*
X115900000Y-81100000D01*
X112000000Y-83400000D02*
X113600000Y-83400000D01*
X110370000Y-85030000D02*
X112000000Y-83400000D01*
X103500000Y-75950000D02*
X103500000Y-80250000D01*
X103500000Y-80250000D02*
X108280000Y-85030000D01*
X108280000Y-85030000D02*
X108550000Y-85030000D01*
X103500000Y-75950000D02*
X103900000Y-75950000D01*
X130400000Y-69000000D02*
X130400000Y-72600000D01*
X130400000Y-72600000D02*
X130700000Y-72900000D01*
X133250000Y-69000000D02*
X133250000Y-70200000D01*
X134990000Y-71940000D02*
X137400000Y-71940000D01*
X133250000Y-70200000D02*
X134990000Y-71940000D01*
X128250000Y-69000000D02*
X130400000Y-69000000D01*
X130400000Y-69000000D02*
X133250000Y-69000000D01*
X163710000Y-69100000D02*
X163710000Y-70210000D01*
X165120000Y-71620000D02*
X176380000Y-71620000D01*
X163710000Y-70210000D02*
X165120000Y-71620000D01*
X186750000Y-69250000D02*
X186750000Y-71250000D01*
X185000000Y-73000000D02*
X177760000Y-73000000D01*
X186750000Y-71250000D02*
X185000000Y-73000000D01*
X176380000Y-69000000D02*
X176380000Y-71620000D01*
X176380000Y-71620000D02*
X177760000Y-73000000D01*
X142000000Y-97920000D02*
X145050000Y-97920000D01*
X145050000Y-97920000D02*
X146880000Y-99750000D01*
X142000000Y-97920000D02*
X141330000Y-97920000D01*
X141330000Y-97920000D02*
X137650000Y-101600000D01*
X137650000Y-101600000D02*
X134620000Y-101600000D01*
X141920000Y-98000000D02*
X142000000Y-97920000D01*
X142420000Y-97500000D02*
X142000000Y-97920000D01*
X142000000Y-103000000D02*
X142000000Y-103150000D01*
X142000000Y-103150000D02*
X142350000Y-103500000D01*
X142350000Y-103500000D02*
X146880000Y-103500000D01*
X142000000Y-103000000D02*
X141900000Y-103000000D01*
X141900000Y-103000000D02*
X140200000Y-104700000D01*
X140200000Y-104700000D02*
X134600000Y-104700000D01*
X146380000Y-103000000D02*
X146880000Y-103500000D01*
X142000000Y-103000000D02*
X141875000Y-103000000D01*
X154500000Y-101500000D02*
X142500000Y-101500000D01*
X142500000Y-101500000D02*
X142000000Y-101000000D01*
X142000000Y-101000000D02*
X142000000Y-100460000D01*
X154500000Y-99750000D02*
X154500000Y-101500000D01*
X154500000Y-101500000D02*
X154500000Y-103500000D01*
X154500000Y-103500000D02*
X154750000Y-103500000D01*
X154750000Y-103500000D02*
X156250000Y-105000000D01*
X177200000Y-105000000D02*
X178500000Y-103700000D01*
X156250000Y-105000000D02*
X177200000Y-105000000D01*
X145380000Y-83000000D02*
X138000000Y-83000000D01*
X138000000Y-83000000D02*
X138000000Y-82500000D01*
X138000000Y-81460000D02*
X138000000Y-82500000D01*
X138000000Y-82500000D02*
X138000000Y-84000000D01*
X144880000Y-82500000D02*
X145380000Y-83000000D01*
X138500000Y-84000000D02*
X138000000Y-84000000D01*
X262000000Y-97000000D02*
X262000000Y-102000000D01*
X30000000Y-97000000D02*
X30000000Y-102000000D01*
X138000000Y-78920000D02*
X141080000Y-78920000D01*
X141080000Y-78920000D02*
X142500000Y-77500000D01*
X147000000Y-73500000D02*
X145500000Y-73500000D01*
X145500000Y-73500000D02*
X142500000Y-77500000D01*
X160920000Y-77900000D02*
X160920000Y-77980000D01*
X172130000Y-74500000D02*
X173750000Y-76120000D01*
X163500000Y-74500000D02*
X172130000Y-74500000D01*
X160920000Y-77980000D02*
X163500000Y-74500000D01*
D40*
X65500000Y-44500000D02*
X65500000Y-49500000D01*
X65500000Y-49500000D02*
X65000000Y-50000000D01*
X90500000Y-44500000D02*
X90500000Y-49500000D01*
X90500000Y-49500000D02*
X90000000Y-50000000D01*
X115000000Y-50000000D02*
X115000000Y-45000000D01*
X115000000Y-45000000D02*
X115500000Y-44500000D01*
X40000000Y-50000000D02*
X40000000Y-47000000D01*
X40000000Y-47000000D02*
X42500000Y-44500000D01*
X42500000Y-44500000D02*
X65500000Y-44500000D01*
X65500000Y-44500000D02*
X90500000Y-44500000D01*
X90500000Y-44500000D02*
X115500000Y-44500000D01*
X142080000Y-46080000D02*
X142080000Y-47500000D01*
X115500000Y-44500000D02*
X140500000Y-44500000D01*
X140500000Y-44500000D02*
X142080000Y-46080000D01*
X40000000Y-50000000D02*
X40000000Y-64550000D01*
X40000000Y-64550000D02*
X40950000Y-65500000D01*
X40950000Y-65450000D02*
X40950000Y-65500000D01*
X167000000Y-50000000D02*
X167000000Y-44500000D01*
X166500000Y-45000000D02*
X166500000Y-44500000D01*
X167000000Y-44500000D02*
X166500000Y-45000000D01*
X168000000Y-49000000D02*
X167000000Y-50000000D01*
X192500000Y-44500000D02*
X192500000Y-49500000D01*
X192500000Y-49500000D02*
X192000000Y-50000000D01*
X217000000Y-50000000D02*
X217000000Y-44500000D01*
X217000000Y-44500000D02*
X217000000Y-45000000D01*
X217000000Y-45000000D02*
X217000000Y-44500000D01*
X156080000Y-47500000D02*
X156080000Y-47420000D01*
X156080000Y-47420000D02*
X159000000Y-44500000D01*
X159000000Y-44500000D02*
X166500000Y-44500000D01*
X166500000Y-44500000D02*
X168000000Y-44500000D01*
X168000000Y-44500000D02*
X192500000Y-44500000D01*
X192500000Y-44500000D02*
X217000000Y-44500000D01*
X217000000Y-44500000D02*
X238500000Y-44500000D01*
X238500000Y-44500000D02*
X242000000Y-48000000D01*
X242000000Y-48000000D02*
X242000000Y-50000000D01*
D37*
X86900000Y-94350000D02*
X86500000Y-94350000D01*
X86500000Y-94350000D02*
X75350000Y-83200000D01*
X75350000Y-71000000D02*
X74300000Y-69950000D01*
X75350000Y-83200000D02*
X75350000Y-71000000D01*
X86900000Y-94350000D02*
X86900000Y-95100000D01*
X86900000Y-95100000D02*
X85200000Y-96800000D01*
X85200000Y-96800000D02*
X78550000Y-96800000D01*
X86900000Y-94350000D02*
X86900000Y-94700000D01*
X166250000Y-69100000D02*
X166250000Y-61570000D01*
X166250000Y-61570000D02*
X163680000Y-59000000D01*
D39*
X241000000Y-71000000D02*
X244500000Y-71000000D01*
X249570000Y-76070000D02*
X249570000Y-78000000D01*
X244500000Y-71000000D02*
X249570000Y-76070000D01*
D37*
X99800000Y-75950000D02*
X99800000Y-79300000D01*
X99800000Y-79300000D02*
X99500000Y-79600000D01*
X99800000Y-75950000D02*
X100100000Y-75950000D01*
X96000000Y-76000000D02*
X96000000Y-77400000D01*
X92200000Y-81200000D02*
X90550000Y-81200000D01*
X96000000Y-77400000D02*
X92200000Y-81200000D01*
X108550000Y-79950000D02*
X108550000Y-78250000D01*
X108550000Y-78250000D02*
X110700000Y-76100000D01*
X109050000Y-79450000D02*
X108550000Y-79950000D01*
X110700000Y-76100000D02*
X111200000Y-76100000D01*
D38*
X39380000Y-70500000D02*
X36350000Y-70500000D01*
X36350000Y-70500000D02*
X36200000Y-70350000D01*
X233420000Y-91150000D02*
X233420000Y-95080000D01*
X233420000Y-95080000D02*
X233350000Y-95150000D01*
D37*
X190000000Y-86040000D02*
X190000000Y-91000000D01*
X190000000Y-91000000D02*
X190500000Y-91500000D01*
X186040000Y-86040000D02*
X190000000Y-86040000D01*
X185000000Y-85000000D02*
X186040000Y-86040000D01*
X182000000Y-85000000D02*
X185000000Y-85000000D01*
X186500000Y-79500000D02*
X186000000Y-79500000D01*
X186000000Y-79500000D02*
X182000000Y-83500000D01*
X182000000Y-83500000D02*
X182000000Y-85000000D01*
X189460000Y-85500000D02*
X190000000Y-86040000D01*
X190500000Y-91500000D02*
X187000000Y-91500000D01*
X187000000Y-91500000D02*
X184490000Y-91500000D01*
X184490000Y-91500000D02*
X184350000Y-91640000D01*
X166000000Y-77900000D02*
X170000000Y-80000000D01*
X180000000Y-83000000D02*
X182000000Y-85000000D01*
X173000000Y-83000000D02*
X180000000Y-83000000D01*
X170000000Y-80000000D02*
X173000000Y-83000000D01*
X181580000Y-84580000D02*
X182000000Y-85000000D01*
G36*
X163575512Y-52250000D02*
X163662673Y-52713222D01*
X163936437Y-53138663D01*
X164354153Y-53424076D01*
X164850000Y-53524488D01*
X169150000Y-53524488D01*
X169613222Y-53437327D01*
X170038663Y-53163563D01*
X170324076Y-52745847D01*
X170424488Y-52250000D01*
X170424488Y-50250000D01*
X170442000Y-50250000D01*
X170442000Y-51250002D01*
X170607522Y-51250002D01*
X170521161Y-51432056D01*
X170833326Y-52137302D01*
X171391615Y-52669404D01*
X171534178Y-52786990D01*
X171825000Y-52707723D01*
X171825000Y-51125000D01*
X171200000Y-51125000D01*
X171200000Y-50250000D01*
X173700000Y-50250000D01*
X173700000Y-51125000D01*
X173075000Y-51125000D01*
X173075000Y-52707723D01*
X173365822Y-52786990D01*
X173508385Y-52669404D01*
X174066674Y-52137302D01*
X174378839Y-51432056D01*
X174292478Y-51250002D01*
X174458000Y-51250002D01*
X174458000Y-50250000D01*
X174516198Y-50250000D01*
X174758810Y-51469693D01*
X175495837Y-52572732D01*
X176598876Y-53309759D01*
X177900000Y-53568569D01*
X179201124Y-53309759D01*
X180304163Y-52572732D01*
X181041190Y-51469693D01*
X181283802Y-50250000D01*
X188575512Y-50250000D01*
X188575512Y-52250000D01*
X188662673Y-52713222D01*
X188936437Y-53138663D01*
X189354153Y-53424076D01*
X189850000Y-53524488D01*
X194150000Y-53524488D01*
X194613222Y-53437327D01*
X195038663Y-53163563D01*
X195324076Y-52745847D01*
X195424488Y-52250000D01*
X195424488Y-50250000D01*
X195442000Y-50250000D01*
X195442000Y-51250002D01*
X195607522Y-51250002D01*
X195521161Y-51432056D01*
X195833326Y-52137302D01*
X196391615Y-52669404D01*
X196534178Y-52786990D01*
X196825000Y-52707723D01*
X196825000Y-51125000D01*
X196200000Y-51125000D01*
X196200000Y-50250000D01*
X198700000Y-50250000D01*
X198700000Y-51125000D01*
X198075000Y-51125000D01*
X198075000Y-52707723D01*
X198365822Y-52786990D01*
X198508385Y-52669404D01*
X199066674Y-52137302D01*
X199378839Y-51432056D01*
X199292478Y-51250002D01*
X199458000Y-51250002D01*
X199458000Y-50250000D01*
X199516198Y-50250000D01*
X199758810Y-51469693D01*
X200495837Y-52572732D01*
X201598876Y-53309759D01*
X202900000Y-53568569D01*
X204201124Y-53309759D01*
X205304163Y-52572732D01*
X206041190Y-51469693D01*
X206283802Y-50250000D01*
X213575512Y-50250000D01*
X213575512Y-52250000D01*
X213662673Y-52713222D01*
X213936437Y-53138663D01*
X214354153Y-53424076D01*
X214850000Y-53524488D01*
X219150000Y-53524488D01*
X219613222Y-53437327D01*
X220038663Y-53163563D01*
X220324076Y-52745847D01*
X220424488Y-52250000D01*
X220424488Y-50250000D01*
X220442000Y-50250000D01*
X220442000Y-51250002D01*
X220607522Y-51250002D01*
X220521161Y-51432056D01*
X220833326Y-52137302D01*
X221391615Y-52669404D01*
X221534178Y-52786990D01*
X221825000Y-52707723D01*
X221825000Y-51125000D01*
X221200000Y-51125000D01*
X221200000Y-50250000D01*
X223700000Y-50250000D01*
X223700000Y-51125000D01*
X223075000Y-51125000D01*
X223075000Y-52707723D01*
X223365822Y-52786990D01*
X223508385Y-52669404D01*
X224066674Y-52137302D01*
X224378839Y-51432056D01*
X224292478Y-51250002D01*
X224458000Y-51250002D01*
X224458000Y-50250000D01*
X224516198Y-50250000D01*
X224758810Y-51469693D01*
X225495837Y-52572732D01*
X226598876Y-53309759D01*
X227900000Y-53568569D01*
X229201124Y-53309759D01*
X230304163Y-52572732D01*
X231041190Y-51469693D01*
X231283802Y-50250000D01*
X238575512Y-50250000D01*
X238575512Y-52250000D01*
X238662673Y-52713222D01*
X238936437Y-53138663D01*
X239354153Y-53424076D01*
X239850000Y-53524488D01*
X244150000Y-53524488D01*
X244613222Y-53437327D01*
X245038663Y-53163563D01*
X245324076Y-52745847D01*
X245424488Y-52250000D01*
X245424488Y-50250000D01*
X245442000Y-50250000D01*
X245442000Y-51250002D01*
X245607522Y-51250002D01*
X245521161Y-51432056D01*
X245833326Y-52137302D01*
X246391615Y-52669404D01*
X246534178Y-52786990D01*
X246825000Y-52707723D01*
X246825000Y-51125000D01*
X246200000Y-51125000D01*
X246200000Y-50250000D01*
X248700000Y-50250000D01*
X248700000Y-51125000D01*
X248075000Y-51125000D01*
X248075000Y-52707723D01*
X248365822Y-52786990D01*
X248508385Y-52669404D01*
X249066674Y-52137302D01*
X249378839Y-51432056D01*
X249292478Y-51250002D01*
X249458000Y-51250002D01*
X249458000Y-50250000D01*
X249516198Y-50250000D01*
X249750000Y-51425402D01*
X249750000Y-63213860D01*
X249035572Y-62736495D01*
X248097998Y-62550000D01*
X248002002Y-62550000D01*
X247064428Y-62736495D01*
X246269590Y-63267588D01*
X245738497Y-64062426D01*
X245552002Y-65000000D01*
X245701186Y-65750000D01*
X167750000Y-65750000D01*
X167750000Y-61570000D01*
X167635819Y-60995975D01*
X167310660Y-60509340D01*
X166326125Y-59524805D01*
X181349541Y-59524805D01*
X181752129Y-60499144D01*
X182496935Y-61245251D01*
X183470570Y-61649539D01*
X184524805Y-61650459D01*
X184702550Y-61577016D01*
X184700000Y-61589838D01*
X184700000Y-61670162D01*
X184856047Y-62454663D01*
X185300431Y-63119731D01*
X185965499Y-63564115D01*
X186750000Y-63720162D01*
X187534501Y-63564115D01*
X188199569Y-63119731D01*
X188643953Y-62454663D01*
X188800000Y-61670162D01*
X188800000Y-61589838D01*
X188778346Y-61480977D01*
X189628083Y-61650000D01*
X189731917Y-61650000D01*
X190746028Y-61448281D01*
X191605750Y-60873833D01*
X192180198Y-60014111D01*
X192277526Y-59524805D01*
X207349541Y-59524805D01*
X207752129Y-60499144D01*
X208496935Y-61245251D01*
X209470570Y-61649539D01*
X210524805Y-61650459D01*
X211499144Y-61247871D01*
X212245251Y-60503065D01*
X212649539Y-59529430D01*
X212650001Y-59000000D01*
X212978083Y-59000000D01*
X213179802Y-60014111D01*
X213754250Y-60873833D01*
X214613972Y-61448281D01*
X215628083Y-61650000D01*
X215731917Y-61650000D01*
X216746028Y-61448281D01*
X217605750Y-60873833D01*
X218180198Y-60014111D01*
X218277526Y-59524805D01*
X233349541Y-59524805D01*
X233752129Y-60499144D01*
X234496935Y-61245251D01*
X235470570Y-61649539D01*
X236524805Y-61650459D01*
X237499144Y-61247871D01*
X238245251Y-60503065D01*
X238649539Y-59529430D01*
X238650001Y-59000000D01*
X240978083Y-59000000D01*
X241179802Y-60014111D01*
X241754250Y-60873833D01*
X242613972Y-61448281D01*
X243628083Y-61650000D01*
X243731917Y-61650000D01*
X244746028Y-61448281D01*
X245605750Y-60873833D01*
X246180198Y-60014111D01*
X246381917Y-59000000D01*
X246180198Y-57985889D01*
X245605750Y-57126167D01*
X244746028Y-56551719D01*
X243731917Y-56350000D01*
X243628083Y-56350000D01*
X242613972Y-56551719D01*
X241754250Y-57126167D01*
X241179802Y-57985889D01*
X240978083Y-59000000D01*
X238650001Y-59000000D01*
X238650459Y-58475195D01*
X238247871Y-57500856D01*
X237503065Y-56754749D01*
X236529430Y-56350461D01*
X235475195Y-56349541D01*
X234500856Y-56752129D01*
X233754749Y-57496935D01*
X233350461Y-58470570D01*
X233349541Y-59524805D01*
X218277526Y-59524805D01*
X218381917Y-59000000D01*
X218180198Y-57985889D01*
X217605750Y-57126167D01*
X216746028Y-56551719D01*
X215731917Y-56350000D01*
X215628083Y-56350000D01*
X214613972Y-56551719D01*
X213754250Y-57126167D01*
X213179802Y-57985889D01*
X212978083Y-59000000D01*
X212650001Y-59000000D01*
X212650459Y-58475195D01*
X212247871Y-57500856D01*
X211503065Y-56754749D01*
X210529430Y-56350461D01*
X209475195Y-56349541D01*
X208500856Y-56752129D01*
X207754749Y-57496935D01*
X207350461Y-58470570D01*
X207349541Y-59524805D01*
X192277526Y-59524805D01*
X192381917Y-59000000D01*
X192180198Y-57985889D01*
X191605750Y-57126167D01*
X190746028Y-56551719D01*
X189731917Y-56350000D01*
X189628083Y-56350000D01*
X188613972Y-56551719D01*
X187754250Y-57126167D01*
X187179802Y-57985889D01*
X186978083Y-59000000D01*
X187099283Y-59609315D01*
X186750000Y-59539838D01*
X186635783Y-59562557D01*
X186649539Y-59529430D01*
X186650459Y-58475195D01*
X186247871Y-57500856D01*
X185503065Y-56754749D01*
X184529430Y-56350461D01*
X183475195Y-56349541D01*
X182500856Y-56752129D01*
X181754749Y-57496935D01*
X181350461Y-58470570D01*
X181349541Y-59524805D01*
X166326125Y-59524805D01*
X166285590Y-59484270D01*
X166381917Y-59000000D01*
X166180198Y-57985889D01*
X165605750Y-57126167D01*
X164746028Y-56551719D01*
X163731917Y-56350000D01*
X163628083Y-56350000D01*
X162613972Y-56551719D01*
X161754250Y-57126167D01*
X161179802Y-57985889D01*
X160978083Y-59000000D01*
X161179802Y-60014111D01*
X161754250Y-60873833D01*
X162613972Y-61448281D01*
X163628083Y-61650000D01*
X163731917Y-61650000D01*
X164129580Y-61570900D01*
X164750000Y-62191320D01*
X164750000Y-65750000D01*
X160250000Y-65750000D01*
X160250000Y-50250000D01*
X163575512Y-50250000D01*
X163575512Y-52250000D01*
X163575512Y-52250000D01*
G37*
X163575512Y-52250000D02*
X163662673Y-52713222D01*
X163936437Y-53138663D01*
X164354153Y-53424076D01*
X164850000Y-53524488D01*
X169150000Y-53524488D01*
X169613222Y-53437327D01*
X170038663Y-53163563D01*
X170324076Y-52745847D01*
X170424488Y-52250000D01*
X170424488Y-50250000D01*
X170442000Y-50250000D01*
X170442000Y-51250002D01*
X170607522Y-51250002D01*
X170521161Y-51432056D01*
X170833326Y-52137302D01*
X171391615Y-52669404D01*
X171534178Y-52786990D01*
X171825000Y-52707723D01*
X171825000Y-51125000D01*
X171200000Y-51125000D01*
X171200000Y-50250000D01*
X173700000Y-50250000D01*
X173700000Y-51125000D01*
X173075000Y-51125000D01*
X173075000Y-52707723D01*
X173365822Y-52786990D01*
X173508385Y-52669404D01*
X174066674Y-52137302D01*
X174378839Y-51432056D01*
X174292478Y-51250002D01*
X174458000Y-51250002D01*
X174458000Y-50250000D01*
X174516198Y-50250000D01*
X174758810Y-51469693D01*
X175495837Y-52572732D01*
X176598876Y-53309759D01*
X177900000Y-53568569D01*
X179201124Y-53309759D01*
X180304163Y-52572732D01*
X181041190Y-51469693D01*
X181283802Y-50250000D01*
X188575512Y-50250000D01*
X188575512Y-52250000D01*
X188662673Y-52713222D01*
X188936437Y-53138663D01*
X189354153Y-53424076D01*
X189850000Y-53524488D01*
X194150000Y-53524488D01*
X194613222Y-53437327D01*
X195038663Y-53163563D01*
X195324076Y-52745847D01*
X195424488Y-52250000D01*
X195424488Y-50250000D01*
X195442000Y-50250000D01*
X195442000Y-51250002D01*
X195607522Y-51250002D01*
X195521161Y-51432056D01*
X195833326Y-52137302D01*
X196391615Y-52669404D01*
X196534178Y-52786990D01*
X196825000Y-52707723D01*
X196825000Y-51125000D01*
X196200000Y-51125000D01*
X196200000Y-50250000D01*
X198700000Y-50250000D01*
X198700000Y-51125000D01*
X198075000Y-51125000D01*
X198075000Y-52707723D01*
X198365822Y-52786990D01*
X198508385Y-52669404D01*
X199066674Y-52137302D01*
X199378839Y-51432056D01*
X199292478Y-51250002D01*
X199458000Y-51250002D01*
X199458000Y-50250000D01*
X199516198Y-50250000D01*
X199758810Y-51469693D01*
X200495837Y-52572732D01*
X201598876Y-53309759D01*
X202900000Y-53568569D01*
X204201124Y-53309759D01*
X205304163Y-52572732D01*
X206041190Y-51469693D01*
X206283802Y-50250000D01*
X213575512Y-50250000D01*
X213575512Y-52250000D01*
X213662673Y-52713222D01*
X213936437Y-53138663D01*
X214354153Y-53424076D01*
X214850000Y-53524488D01*
X219150000Y-53524488D01*
X219613222Y-53437327D01*
X220038663Y-53163563D01*
X220324076Y-52745847D01*
X220424488Y-52250000D01*
X220424488Y-50250000D01*
X220442000Y-50250000D01*
X220442000Y-51250002D01*
X220607522Y-51250002D01*
X220521161Y-51432056D01*
X220833326Y-52137302D01*
X221391615Y-52669404D01*
X221534178Y-52786990D01*
X221825000Y-52707723D01*
X221825000Y-51125000D01*
X221200000Y-51125000D01*
X221200000Y-50250000D01*
X223700000Y-50250000D01*
X223700000Y-51125000D01*
X223075000Y-51125000D01*
X223075000Y-52707723D01*
X223365822Y-52786990D01*
X223508385Y-52669404D01*
X224066674Y-52137302D01*
X224378839Y-51432056D01*
X224292478Y-51250002D01*
X224458000Y-51250002D01*
X224458000Y-50250000D01*
X224516198Y-50250000D01*
X224758810Y-51469693D01*
X225495837Y-52572732D01*
X226598876Y-53309759D01*
X227900000Y-53568569D01*
X229201124Y-53309759D01*
X230304163Y-52572732D01*
X231041190Y-51469693D01*
X231283802Y-50250000D01*
X238575512Y-50250000D01*
X238575512Y-52250000D01*
X238662673Y-52713222D01*
X238936437Y-53138663D01*
X239354153Y-53424076D01*
X239850000Y-53524488D01*
X244150000Y-53524488D01*
X244613222Y-53437327D01*
X245038663Y-53163563D01*
X245324076Y-52745847D01*
X245424488Y-52250000D01*
X245424488Y-50250000D01*
X245442000Y-50250000D01*
X245442000Y-51250002D01*
X245607522Y-51250002D01*
X245521161Y-51432056D01*
X245833326Y-52137302D01*
X246391615Y-52669404D01*
X246534178Y-52786990D01*
X246825000Y-52707723D01*
X246825000Y-51125000D01*
X246200000Y-51125000D01*
X246200000Y-50250000D01*
X248700000Y-50250000D01*
X248700000Y-51125000D01*
X248075000Y-51125000D01*
X248075000Y-52707723D01*
X248365822Y-52786990D01*
X248508385Y-52669404D01*
X249066674Y-52137302D01*
X249378839Y-51432056D01*
X249292478Y-51250002D01*
X249458000Y-51250002D01*
X249458000Y-50250000D01*
X249516198Y-50250000D01*
X249750000Y-51425402D01*
X249750000Y-63213860D01*
X249035572Y-62736495D01*
X248097998Y-62550000D01*
X248002002Y-62550000D01*
X247064428Y-62736495D01*
X246269590Y-63267588D01*
X245738497Y-64062426D01*
X245552002Y-65000000D01*
X245701186Y-65750000D01*
X167750000Y-65750000D01*
X167750000Y-61570000D01*
X167635819Y-60995975D01*
X167310660Y-60509340D01*
X166326125Y-59524805D01*
X181349541Y-59524805D01*
X181752129Y-60499144D01*
X182496935Y-61245251D01*
X183470570Y-61649539D01*
X184524805Y-61650459D01*
X184702550Y-61577016D01*
X184700000Y-61589838D01*
X184700000Y-61670162D01*
X184856047Y-62454663D01*
X185300431Y-63119731D01*
X185965499Y-63564115D01*
X186750000Y-63720162D01*
X187534501Y-63564115D01*
X188199569Y-63119731D01*
X188643953Y-62454663D01*
X188800000Y-61670162D01*
X188800000Y-61589838D01*
X188778346Y-61480977D01*
X189628083Y-61650000D01*
X189731917Y-61650000D01*
X190746028Y-61448281D01*
X191605750Y-60873833D01*
X192180198Y-60014111D01*
X192277526Y-59524805D01*
X207349541Y-59524805D01*
X207752129Y-60499144D01*
X208496935Y-61245251D01*
X209470570Y-61649539D01*
X210524805Y-61650459D01*
X211499144Y-61247871D01*
X212245251Y-60503065D01*
X212649539Y-59529430D01*
X212650001Y-59000000D01*
X212978083Y-59000000D01*
X213179802Y-60014111D01*
X213754250Y-60873833D01*
X214613972Y-61448281D01*
X215628083Y-61650000D01*
X215731917Y-61650000D01*
X216746028Y-61448281D01*
X217605750Y-60873833D01*
X218180198Y-60014111D01*
X218277526Y-59524805D01*
X233349541Y-59524805D01*
X233752129Y-60499144D01*
X234496935Y-61245251D01*
X235470570Y-61649539D01*
X236524805Y-61650459D01*
X237499144Y-61247871D01*
X238245251Y-60503065D01*
X238649539Y-59529430D01*
X238650001Y-59000000D01*
X240978083Y-59000000D01*
X241179802Y-60014111D01*
X241754250Y-60873833D01*
X242613972Y-61448281D01*
X243628083Y-61650000D01*
X243731917Y-61650000D01*
X244746028Y-61448281D01*
X245605750Y-60873833D01*
X246180198Y-60014111D01*
X246381917Y-59000000D01*
X246180198Y-57985889D01*
X245605750Y-57126167D01*
X244746028Y-56551719D01*
X243731917Y-56350000D01*
X243628083Y-56350000D01*
X242613972Y-56551719D01*
X241754250Y-57126167D01*
X241179802Y-57985889D01*
X240978083Y-59000000D01*
X238650001Y-59000000D01*
X238650459Y-58475195D01*
X238247871Y-57500856D01*
X237503065Y-56754749D01*
X236529430Y-56350461D01*
X235475195Y-56349541D01*
X234500856Y-56752129D01*
X233754749Y-57496935D01*
X233350461Y-58470570D01*
X233349541Y-59524805D01*
X218277526Y-59524805D01*
X218381917Y-59000000D01*
X218180198Y-57985889D01*
X217605750Y-57126167D01*
X216746028Y-56551719D01*
X215731917Y-56350000D01*
X215628083Y-56350000D01*
X214613972Y-56551719D01*
X213754250Y-57126167D01*
X213179802Y-57985889D01*
X212978083Y-59000000D01*
X212650001Y-59000000D01*
X212650459Y-58475195D01*
X212247871Y-57500856D01*
X211503065Y-56754749D01*
X210529430Y-56350461D01*
X209475195Y-56349541D01*
X208500856Y-56752129D01*
X207754749Y-57496935D01*
X207350461Y-58470570D01*
X207349541Y-59524805D01*
X192277526Y-59524805D01*
X192381917Y-59000000D01*
X192180198Y-57985889D01*
X191605750Y-57126167D01*
X190746028Y-56551719D01*
X189731917Y-56350000D01*
X189628083Y-56350000D01*
X188613972Y-56551719D01*
X187754250Y-57126167D01*
X187179802Y-57985889D01*
X186978083Y-59000000D01*
X187099283Y-59609315D01*
X186750000Y-59539838D01*
X186635783Y-59562557D01*
X186649539Y-59529430D01*
X186650459Y-58475195D01*
X186247871Y-57500856D01*
X185503065Y-56754749D01*
X184529430Y-56350461D01*
X183475195Y-56349541D01*
X182500856Y-56752129D01*
X181754749Y-57496935D01*
X181350461Y-58470570D01*
X181349541Y-59524805D01*
X166326125Y-59524805D01*
X166285590Y-59484270D01*
X166381917Y-59000000D01*
X166180198Y-57985889D01*
X165605750Y-57126167D01*
X164746028Y-56551719D01*
X163731917Y-56350000D01*
X163628083Y-56350000D01*
X162613972Y-56551719D01*
X161754250Y-57126167D01*
X161179802Y-57985889D01*
X160978083Y-59000000D01*
X161179802Y-60014111D01*
X161754250Y-60873833D01*
X162613972Y-61448281D01*
X163628083Y-61650000D01*
X163731917Y-61650000D01*
X164129580Y-61570900D01*
X164750000Y-62191320D01*
X164750000Y-65750000D01*
X160250000Y-65750000D01*
X160250000Y-50250000D01*
X163575512Y-50250000D01*
X163575512Y-52250000D01*
G36*
X46700000Y-51125000D02*
X46075000Y-51125000D01*
X46075000Y-52707723D01*
X46365822Y-52786990D01*
X46508385Y-52669404D01*
X47066674Y-52137302D01*
X47378839Y-51432056D01*
X47292478Y-51250002D01*
X47458000Y-51250002D01*
X47458000Y-50250000D01*
X47516198Y-50250000D01*
X47758810Y-51469693D01*
X48495837Y-52572732D01*
X49598876Y-53309759D01*
X50900000Y-53568569D01*
X52201124Y-53309759D01*
X53304163Y-52572732D01*
X54041190Y-51469693D01*
X54283802Y-50250000D01*
X61575512Y-50250000D01*
X61575512Y-52250000D01*
X61662673Y-52713222D01*
X61936437Y-53138663D01*
X62354153Y-53424076D01*
X62850000Y-53524488D01*
X67150000Y-53524488D01*
X67613222Y-53437327D01*
X68038663Y-53163563D01*
X68324076Y-52745847D01*
X68424488Y-52250000D01*
X68424488Y-50250000D01*
X68442000Y-50250000D01*
X68442000Y-51250002D01*
X68607522Y-51250002D01*
X68521161Y-51432056D01*
X68833326Y-52137302D01*
X69391615Y-52669404D01*
X69534178Y-52786990D01*
X69825000Y-52707723D01*
X69825000Y-51125000D01*
X69200000Y-51125000D01*
X69200000Y-50250000D01*
X71700000Y-50250000D01*
X71700000Y-51125000D01*
X71075000Y-51125000D01*
X71075000Y-52707723D01*
X71365822Y-52786990D01*
X71508385Y-52669404D01*
X72066674Y-52137302D01*
X72378839Y-51432056D01*
X72292478Y-51250002D01*
X72458000Y-51250002D01*
X72458000Y-50250000D01*
X72516198Y-50250000D01*
X72758810Y-51469693D01*
X73495837Y-52572732D01*
X74598876Y-53309759D01*
X75900000Y-53568569D01*
X77201124Y-53309759D01*
X78304163Y-52572732D01*
X79041190Y-51469693D01*
X79283802Y-50250000D01*
X86575512Y-50250000D01*
X86575512Y-52250000D01*
X86662673Y-52713222D01*
X86936437Y-53138663D01*
X87354153Y-53424076D01*
X87850000Y-53524488D01*
X92150000Y-53524488D01*
X92613222Y-53437327D01*
X93038663Y-53163563D01*
X93324076Y-52745847D01*
X93424488Y-52250000D01*
X93424488Y-50250000D01*
X93442000Y-50250000D01*
X93442000Y-51250002D01*
X93607522Y-51250002D01*
X93521161Y-51432056D01*
X93833326Y-52137302D01*
X94391615Y-52669404D01*
X94534178Y-52786990D01*
X94825000Y-52707723D01*
X94825000Y-51125000D01*
X94200000Y-51125000D01*
X94200000Y-50250000D01*
X96700000Y-50250000D01*
X96700000Y-51125000D01*
X96075000Y-51125000D01*
X96075000Y-52707723D01*
X96365822Y-52786990D01*
X96508385Y-52669404D01*
X97066674Y-52137302D01*
X97378839Y-51432056D01*
X97292478Y-51250002D01*
X97458000Y-51250002D01*
X97458000Y-50250000D01*
X97516198Y-50250000D01*
X97758810Y-51469693D01*
X98495837Y-52572732D01*
X99598876Y-53309759D01*
X100900000Y-53568569D01*
X102201124Y-53309759D01*
X103304163Y-52572732D01*
X104041190Y-51469693D01*
X104283802Y-50250000D01*
X111575512Y-50250000D01*
X111575512Y-52250000D01*
X111662673Y-52713222D01*
X111936437Y-53138663D01*
X112354153Y-53424076D01*
X112850000Y-53524488D01*
X117150000Y-53524488D01*
X117613222Y-53437327D01*
X118038663Y-53163563D01*
X118324076Y-52745847D01*
X118424488Y-52250000D01*
X118424488Y-50250000D01*
X118442000Y-50250000D01*
X118442000Y-51250002D01*
X118607522Y-51250002D01*
X118521161Y-51432056D01*
X118833326Y-52137302D01*
X119391615Y-52669404D01*
X119534178Y-52786990D01*
X119825000Y-52707723D01*
X119825000Y-51125000D01*
X119200000Y-51125000D01*
X119200000Y-50250000D01*
X121700000Y-50250000D01*
X121700000Y-51125000D01*
X121075000Y-51125000D01*
X121075000Y-52707723D01*
X121365822Y-52786990D01*
X121508385Y-52669404D01*
X122066674Y-52137302D01*
X122378839Y-51432056D01*
X122292478Y-51250002D01*
X122458000Y-51250002D01*
X122458000Y-50250000D01*
X122516198Y-50250000D01*
X122758810Y-51469693D01*
X123495837Y-52572732D01*
X124598876Y-53309759D01*
X125900000Y-53568569D01*
X127201124Y-53309759D01*
X128304163Y-52572732D01*
X129041190Y-51469693D01*
X129283802Y-50250000D01*
X132750000Y-50250000D01*
X132750000Y-59389294D01*
X132465499Y-59445885D01*
X131851637Y-59856054D01*
X132021917Y-59000000D01*
X131820198Y-57985889D01*
X131245750Y-57126167D01*
X130386028Y-56551719D01*
X129371917Y-56350000D01*
X129268083Y-56350000D01*
X128253972Y-56551719D01*
X127394250Y-57126167D01*
X126819802Y-57985889D01*
X126618083Y-59000000D01*
X126819802Y-60014111D01*
X127394250Y-60873833D01*
X128253972Y-61448281D01*
X129268083Y-61650000D01*
X129371917Y-61650000D01*
X130386028Y-61448281D01*
X131245750Y-60873833D01*
X131312593Y-60773796D01*
X131200000Y-61339838D01*
X131200000Y-61420162D01*
X131356047Y-62204663D01*
X131800431Y-62869731D01*
X132465499Y-63314115D01*
X132750000Y-63370706D01*
X132750000Y-65750000D01*
X44250000Y-65750000D01*
X44250000Y-59000000D01*
X46618083Y-59000000D01*
X46819802Y-60014111D01*
X47394250Y-60873833D01*
X48253972Y-61448281D01*
X49268083Y-61650000D01*
X49371917Y-61650000D01*
X50386028Y-61448281D01*
X51245750Y-60873833D01*
X51820198Y-60014111D01*
X51917526Y-59524805D01*
X52349541Y-59524805D01*
X52752129Y-60499144D01*
X53496935Y-61245251D01*
X54470570Y-61649539D01*
X55524805Y-61650459D01*
X56499144Y-61247871D01*
X57245251Y-60503065D01*
X57649539Y-59529430D01*
X57650001Y-59000000D01*
X72618083Y-59000000D01*
X72819802Y-60014111D01*
X73394250Y-60873833D01*
X74253972Y-61448281D01*
X75268083Y-61650000D01*
X75371917Y-61650000D01*
X76386028Y-61448281D01*
X77245750Y-60873833D01*
X77820198Y-60014111D01*
X77917526Y-59524805D01*
X79349541Y-59524805D01*
X79752129Y-60499144D01*
X80496935Y-61245251D01*
X81470570Y-61649539D01*
X82524805Y-61650459D01*
X83499144Y-61247871D01*
X84245251Y-60503065D01*
X84649539Y-59529430D01*
X84650001Y-59000000D01*
X99618083Y-59000000D01*
X99819802Y-60014111D01*
X100394250Y-60873833D01*
X101253972Y-61448281D01*
X102268083Y-61650000D01*
X102371917Y-61650000D01*
X103386028Y-61448281D01*
X104245750Y-60873833D01*
X104820198Y-60014111D01*
X104917526Y-59524805D01*
X106349541Y-59524805D01*
X106752129Y-60499144D01*
X107496935Y-61245251D01*
X108470570Y-61649539D01*
X109524805Y-61650459D01*
X110499144Y-61247871D01*
X111245251Y-60503065D01*
X111649539Y-59529430D01*
X111650459Y-58475195D01*
X111247871Y-57500856D01*
X110503065Y-56754749D01*
X109529430Y-56350461D01*
X108475195Y-56349541D01*
X107500856Y-56752129D01*
X106754749Y-57496935D01*
X106350461Y-58470570D01*
X106349541Y-59524805D01*
X104917526Y-59524805D01*
X105021917Y-59000000D01*
X104820198Y-57985889D01*
X104245750Y-57126167D01*
X103386028Y-56551719D01*
X102371917Y-56350000D01*
X102268083Y-56350000D01*
X101253972Y-56551719D01*
X100394250Y-57126167D01*
X99819802Y-57985889D01*
X99618083Y-59000000D01*
X84650001Y-59000000D01*
X84650459Y-58475195D01*
X84247871Y-57500856D01*
X83503065Y-56754749D01*
X82529430Y-56350461D01*
X81475195Y-56349541D01*
X80500856Y-56752129D01*
X79754749Y-57496935D01*
X79350461Y-58470570D01*
X79349541Y-59524805D01*
X77917526Y-59524805D01*
X78021917Y-59000000D01*
X77820198Y-57985889D01*
X77245750Y-57126167D01*
X76386028Y-56551719D01*
X75371917Y-56350000D01*
X75268083Y-56350000D01*
X74253972Y-56551719D01*
X73394250Y-57126167D01*
X72819802Y-57985889D01*
X72618083Y-59000000D01*
X57650001Y-59000000D01*
X57650459Y-58475195D01*
X57247871Y-57500856D01*
X56503065Y-56754749D01*
X55529430Y-56350461D01*
X54475195Y-56349541D01*
X53500856Y-56752129D01*
X52754749Y-57496935D01*
X52350461Y-58470570D01*
X52349541Y-59524805D01*
X51917526Y-59524805D01*
X52021917Y-59000000D01*
X51820198Y-57985889D01*
X51245750Y-57126167D01*
X50386028Y-56551719D01*
X49371917Y-56350000D01*
X49268083Y-56350000D01*
X48253972Y-56551719D01*
X47394250Y-57126167D01*
X46819802Y-57985889D01*
X46618083Y-59000000D01*
X44250000Y-59000000D01*
X44250000Y-52534432D01*
X44391615Y-52669404D01*
X44534178Y-52786990D01*
X44825000Y-52707723D01*
X44825000Y-51125000D01*
X44250000Y-51125000D01*
X44250000Y-50250000D01*
X46700000Y-50250000D01*
X46700000Y-51125000D01*
X46700000Y-51125000D01*
G37*
X46700000Y-51125000D02*
X46075000Y-51125000D01*
X46075000Y-52707723D01*
X46365822Y-52786990D01*
X46508385Y-52669404D01*
X47066674Y-52137302D01*
X47378839Y-51432056D01*
X47292478Y-51250002D01*
X47458000Y-51250002D01*
X47458000Y-50250000D01*
X47516198Y-50250000D01*
X47758810Y-51469693D01*
X48495837Y-52572732D01*
X49598876Y-53309759D01*
X50900000Y-53568569D01*
X52201124Y-53309759D01*
X53304163Y-52572732D01*
X54041190Y-51469693D01*
X54283802Y-50250000D01*
X61575512Y-50250000D01*
X61575512Y-52250000D01*
X61662673Y-52713222D01*
X61936437Y-53138663D01*
X62354153Y-53424076D01*
X62850000Y-53524488D01*
X67150000Y-53524488D01*
X67613222Y-53437327D01*
X68038663Y-53163563D01*
X68324076Y-52745847D01*
X68424488Y-52250000D01*
X68424488Y-50250000D01*
X68442000Y-50250000D01*
X68442000Y-51250002D01*
X68607522Y-51250002D01*
X68521161Y-51432056D01*
X68833326Y-52137302D01*
X69391615Y-52669404D01*
X69534178Y-52786990D01*
X69825000Y-52707723D01*
X69825000Y-51125000D01*
X69200000Y-51125000D01*
X69200000Y-50250000D01*
X71700000Y-50250000D01*
X71700000Y-51125000D01*
X71075000Y-51125000D01*
X71075000Y-52707723D01*
X71365822Y-52786990D01*
X71508385Y-52669404D01*
X72066674Y-52137302D01*
X72378839Y-51432056D01*
X72292478Y-51250002D01*
X72458000Y-51250002D01*
X72458000Y-50250000D01*
X72516198Y-50250000D01*
X72758810Y-51469693D01*
X73495837Y-52572732D01*
X74598876Y-53309759D01*
X75900000Y-53568569D01*
X77201124Y-53309759D01*
X78304163Y-52572732D01*
X79041190Y-51469693D01*
X79283802Y-50250000D01*
X86575512Y-50250000D01*
X86575512Y-52250000D01*
X86662673Y-52713222D01*
X86936437Y-53138663D01*
X87354153Y-53424076D01*
X87850000Y-53524488D01*
X92150000Y-53524488D01*
X92613222Y-53437327D01*
X93038663Y-53163563D01*
X93324076Y-52745847D01*
X93424488Y-52250000D01*
X93424488Y-50250000D01*
X93442000Y-50250000D01*
X93442000Y-51250002D01*
X93607522Y-51250002D01*
X93521161Y-51432056D01*
X93833326Y-52137302D01*
X94391615Y-52669404D01*
X94534178Y-52786990D01*
X94825000Y-52707723D01*
X94825000Y-51125000D01*
X94200000Y-51125000D01*
X94200000Y-50250000D01*
X96700000Y-50250000D01*
X96700000Y-51125000D01*
X96075000Y-51125000D01*
X96075000Y-52707723D01*
X96365822Y-52786990D01*
X96508385Y-52669404D01*
X97066674Y-52137302D01*
X97378839Y-51432056D01*
X97292478Y-51250002D01*
X97458000Y-51250002D01*
X97458000Y-50250000D01*
X97516198Y-50250000D01*
X97758810Y-51469693D01*
X98495837Y-52572732D01*
X99598876Y-53309759D01*
X100900000Y-53568569D01*
X102201124Y-53309759D01*
X103304163Y-52572732D01*
X104041190Y-51469693D01*
X104283802Y-50250000D01*
X111575512Y-50250000D01*
X111575512Y-52250000D01*
X111662673Y-52713222D01*
X111936437Y-53138663D01*
X112354153Y-53424076D01*
X112850000Y-53524488D01*
X117150000Y-53524488D01*
X117613222Y-53437327D01*
X118038663Y-53163563D01*
X118324076Y-52745847D01*
X118424488Y-52250000D01*
X118424488Y-50250000D01*
X118442000Y-50250000D01*
X118442000Y-51250002D01*
X118607522Y-51250002D01*
X118521161Y-51432056D01*
X118833326Y-52137302D01*
X119391615Y-52669404D01*
X119534178Y-52786990D01*
X119825000Y-52707723D01*
X119825000Y-51125000D01*
X119200000Y-51125000D01*
X119200000Y-50250000D01*
X121700000Y-50250000D01*
X121700000Y-51125000D01*
X121075000Y-51125000D01*
X121075000Y-52707723D01*
X121365822Y-52786990D01*
X121508385Y-52669404D01*
X122066674Y-52137302D01*
X122378839Y-51432056D01*
X122292478Y-51250002D01*
X122458000Y-51250002D01*
X122458000Y-50250000D01*
X122516198Y-50250000D01*
X122758810Y-51469693D01*
X123495837Y-52572732D01*
X124598876Y-53309759D01*
X125900000Y-53568569D01*
X127201124Y-53309759D01*
X128304163Y-52572732D01*
X129041190Y-51469693D01*
X129283802Y-50250000D01*
X132750000Y-50250000D01*
X132750000Y-59389294D01*
X132465499Y-59445885D01*
X131851637Y-59856054D01*
X132021917Y-59000000D01*
X131820198Y-57985889D01*
X131245750Y-57126167D01*
X130386028Y-56551719D01*
X129371917Y-56350000D01*
X129268083Y-56350000D01*
X128253972Y-56551719D01*
X127394250Y-57126167D01*
X126819802Y-57985889D01*
X126618083Y-59000000D01*
X126819802Y-60014111D01*
X127394250Y-60873833D01*
X128253972Y-61448281D01*
X129268083Y-61650000D01*
X129371917Y-61650000D01*
X130386028Y-61448281D01*
X131245750Y-60873833D01*
X131312593Y-60773796D01*
X131200000Y-61339838D01*
X131200000Y-61420162D01*
X131356047Y-62204663D01*
X131800431Y-62869731D01*
X132465499Y-63314115D01*
X132750000Y-63370706D01*
X132750000Y-65750000D01*
X44250000Y-65750000D01*
X44250000Y-59000000D01*
X46618083Y-59000000D01*
X46819802Y-60014111D01*
X47394250Y-60873833D01*
X48253972Y-61448281D01*
X49268083Y-61650000D01*
X49371917Y-61650000D01*
X50386028Y-61448281D01*
X51245750Y-60873833D01*
X51820198Y-60014111D01*
X51917526Y-59524805D01*
X52349541Y-59524805D01*
X52752129Y-60499144D01*
X53496935Y-61245251D01*
X54470570Y-61649539D01*
X55524805Y-61650459D01*
X56499144Y-61247871D01*
X57245251Y-60503065D01*
X57649539Y-59529430D01*
X57650001Y-59000000D01*
X72618083Y-59000000D01*
X72819802Y-60014111D01*
X73394250Y-60873833D01*
X74253972Y-61448281D01*
X75268083Y-61650000D01*
X75371917Y-61650000D01*
X76386028Y-61448281D01*
X77245750Y-60873833D01*
X77820198Y-60014111D01*
X77917526Y-59524805D01*
X79349541Y-59524805D01*
X79752129Y-60499144D01*
X80496935Y-61245251D01*
X81470570Y-61649539D01*
X82524805Y-61650459D01*
X83499144Y-61247871D01*
X84245251Y-60503065D01*
X84649539Y-59529430D01*
X84650001Y-59000000D01*
X99618083Y-59000000D01*
X99819802Y-60014111D01*
X100394250Y-60873833D01*
X101253972Y-61448281D01*
X102268083Y-61650000D01*
X102371917Y-61650000D01*
X103386028Y-61448281D01*
X104245750Y-60873833D01*
X104820198Y-60014111D01*
X104917526Y-59524805D01*
X106349541Y-59524805D01*
X106752129Y-60499144D01*
X107496935Y-61245251D01*
X108470570Y-61649539D01*
X109524805Y-61650459D01*
X110499144Y-61247871D01*
X111245251Y-60503065D01*
X111649539Y-59529430D01*
X111650459Y-58475195D01*
X111247871Y-57500856D01*
X110503065Y-56754749D01*
X109529430Y-56350461D01*
X108475195Y-56349541D01*
X107500856Y-56752129D01*
X106754749Y-57496935D01*
X106350461Y-58470570D01*
X106349541Y-59524805D01*
X104917526Y-59524805D01*
X105021917Y-59000000D01*
X104820198Y-57985889D01*
X104245750Y-57126167D01*
X103386028Y-56551719D01*
X102371917Y-56350000D01*
X102268083Y-56350000D01*
X101253972Y-56551719D01*
X100394250Y-57126167D01*
X99819802Y-57985889D01*
X99618083Y-59000000D01*
X84650001Y-59000000D01*
X84650459Y-58475195D01*
X84247871Y-57500856D01*
X83503065Y-56754749D01*
X82529430Y-56350461D01*
X81475195Y-56349541D01*
X80500856Y-56752129D01*
X79754749Y-57496935D01*
X79350461Y-58470570D01*
X79349541Y-59524805D01*
X77917526Y-59524805D01*
X78021917Y-59000000D01*
X77820198Y-57985889D01*
X77245750Y-57126167D01*
X76386028Y-56551719D01*
X75371917Y-56350000D01*
X75268083Y-56350000D01*
X74253972Y-56551719D01*
X73394250Y-57126167D01*
X72819802Y-57985889D01*
X72618083Y-59000000D01*
X57650001Y-59000000D01*
X57650459Y-58475195D01*
X57247871Y-57500856D01*
X56503065Y-56754749D01*
X55529430Y-56350461D01*
X54475195Y-56349541D01*
X53500856Y-56752129D01*
X52754749Y-57496935D01*
X52350461Y-58470570D01*
X52349541Y-59524805D01*
X51917526Y-59524805D01*
X52021917Y-59000000D01*
X51820198Y-57985889D01*
X51245750Y-57126167D01*
X50386028Y-56551719D01*
X49371917Y-56350000D01*
X49268083Y-56350000D01*
X48253972Y-56551719D01*
X47394250Y-57126167D01*
X46819802Y-57985889D01*
X46618083Y-59000000D01*
X44250000Y-59000000D01*
X44250000Y-52534432D01*
X44391615Y-52669404D01*
X44534178Y-52786990D01*
X44825000Y-52707723D01*
X44825000Y-51125000D01*
X44250000Y-51125000D01*
X44250000Y-50250000D01*
X46700000Y-50250000D01*
X46700000Y-51125000D01*
M02*
