G04 #@! TF.FileFunction,Soldermask,Top*
%FSLAX46Y46*%
G04 Gerber Fmt 4.6, Leading zero omitted, Abs format (unit mm)*
G04 Created by KiCad (PCBNEW 4.0.7) date 10/13/20 15:55:48*
%MOMM*%
%LPD*%
G01*
G04 APERTURE LIST*
%ADD10C,0.100000*%
%ADD11C,2.000000*%
%ADD12O,2.000000X2.000000*%
%ADD13R,2.600000X2.600000*%
%ADD14O,2.600000X2.600000*%
%ADD15R,2.800000X2.800000*%
%ADD16C,2.800000*%
%ADD17C,2.600000*%
%ADD18C,2.400000*%
%ADD19R,2.000000X2.000000*%
%ADD20C,1.920000*%
%ADD21R,1.920000X1.920000*%
%ADD22R,2.400000X2.400000*%
%ADD23R,2.200000X2.200000*%
%ADD24C,2.200000*%
%ADD25C,1.840000*%
%ADD26O,2.800000X2.800000*%
%ADD27R,4.700000X5.400000*%
%ADD28R,3.400000X5.400000*%
%ADD29R,4.700000X4.900000*%
%ADD30O,2.900000X4.900000*%
%ADD31O,4.700000X4.900000*%
%ADD32C,3.200000*%
%ADD33O,3.200000X3.200000*%
%ADD34R,3.400000X3.400000*%
%ADD35C,3.400000*%
%ADD36C,5.900000*%
%ADD37C,4.464000*%
%ADD38O,2.200000X2.200000*%
%ADD39R,2.100000X2.100000*%
%ADD40O,2.100000X2.100000*%
G04 APERTURE END LIST*
D10*
D11*
X106910000Y-81500000D03*
D12*
X106910000Y-68800000D03*
D13*
X198500000Y-68500000D03*
D14*
X198500000Y-76120000D03*
D15*
X54625000Y-80250000D03*
D16*
X54625000Y-72750000D03*
D17*
X178460000Y-102790000D03*
X178460000Y-97710000D03*
X183540000Y-97710000D03*
X183540000Y-102790000D03*
D18*
X181000000Y-100250000D03*
D19*
X188500000Y-80000000D03*
D11*
X188500000Y-77500000D03*
D20*
X120200000Y-100860000D03*
X120200000Y-98320000D03*
D21*
X120200000Y-103400000D03*
D20*
X89840000Y-83690000D03*
X89840000Y-86230000D03*
D21*
X89840000Y-81150000D03*
D11*
X184000000Y-69000000D03*
D12*
X176380000Y-69000000D03*
D11*
X133460000Y-97310000D03*
D12*
X125960000Y-97310000D03*
D11*
X92730000Y-90190000D03*
D12*
X100230000Y-90190000D03*
D11*
X76925000Y-104675000D03*
X76925000Y-99675000D03*
X183000000Y-76600000D03*
X183000000Y-81600000D03*
X80350000Y-104725000D03*
X80350000Y-99725000D03*
D22*
X77000000Y-79125000D03*
D18*
X77000000Y-84125000D03*
D22*
X77050000Y-95100000D03*
D18*
X77050000Y-90100000D03*
D11*
X112600000Y-93750000D03*
X117600000Y-93750000D03*
X152250000Y-90750000D03*
D12*
X142250000Y-90750000D03*
D11*
X230300000Y-92400000D03*
D12*
X230300000Y-82400000D03*
D11*
X90700000Y-68450000D03*
D12*
X90700000Y-78450000D03*
D15*
X257400000Y-78800000D03*
D16*
X257400000Y-71300000D03*
D11*
X232200000Y-68600000D03*
D12*
X232200000Y-78600000D03*
D13*
X69950000Y-96475000D03*
D14*
X69950000Y-104095000D03*
D23*
X199000000Y-79000000D03*
D24*
X199000000Y-81540000D03*
D19*
X142000000Y-68750000D03*
D12*
X142000000Y-61130000D03*
D19*
X155250000Y-61250000D03*
D12*
X155250000Y-68870000D03*
D13*
X68975000Y-77200000D03*
D14*
X68975000Y-69580000D03*
D11*
X144750000Y-96750000D03*
D12*
X152370000Y-96750000D03*
D11*
X161000000Y-94000000D03*
D12*
X168620000Y-94000000D03*
D11*
X99800000Y-75950000D03*
D12*
X99800000Y-68330000D03*
D11*
X96000000Y-76000000D03*
D12*
X96000000Y-68380000D03*
D11*
X100360000Y-93520000D03*
D12*
X92740000Y-93520000D03*
D11*
X133750000Y-100750000D03*
D12*
X126130000Y-100750000D03*
D11*
X133750000Y-104250000D03*
D12*
X126130000Y-104250000D03*
D11*
X152250000Y-100250000D03*
D12*
X144630000Y-100250000D03*
D11*
X152250000Y-103750000D03*
D12*
X144630000Y-103750000D03*
D25*
X139000000Y-103000000D03*
X139000000Y-100460000D03*
X139000000Y-97920000D03*
D16*
X188500000Y-90200000D03*
D26*
X188500000Y-102900000D03*
D11*
X177750000Y-76500000D03*
D12*
X177750000Y-84120000D03*
D16*
X64925000Y-90700000D03*
D26*
X64925000Y-78000000D03*
D11*
X87000000Y-97000000D03*
D12*
X87000000Y-104620000D03*
D11*
X83650000Y-96975000D03*
D12*
X83650000Y-104595000D03*
D11*
X192750000Y-83750000D03*
D12*
X192750000Y-96450000D03*
D11*
X103500000Y-75950000D03*
D12*
X103500000Y-68330000D03*
D11*
X146250000Y-81250000D03*
D12*
X153870000Y-81250000D03*
D25*
X141250000Y-85000000D03*
X141250000Y-82460000D03*
X141250000Y-79920000D03*
D11*
X153750000Y-84750000D03*
D12*
X146130000Y-84750000D03*
D11*
X166000000Y-69250000D03*
D12*
X158380000Y-69250000D03*
D11*
X128250000Y-69000000D03*
D12*
X120630000Y-69000000D03*
D16*
X193000000Y-73000000D03*
D26*
X177760000Y-73000000D03*
D11*
X133250000Y-69000000D03*
D12*
X133250000Y-61380000D03*
D11*
X186750000Y-69250000D03*
D12*
X186750000Y-61630000D03*
D16*
X28250000Y-65500000D03*
D26*
X40950000Y-65500000D03*
D16*
X260750000Y-65000000D03*
D26*
X248050000Y-65000000D03*
D11*
X226800000Y-82400000D03*
D12*
X226800000Y-69700000D03*
D27*
X50968000Y-45428000D03*
D28*
X45588000Y-45428000D03*
D29*
X40000000Y-50000000D03*
D30*
X45450000Y-50000000D03*
D31*
X50900000Y-50000000D03*
D27*
X40000000Y-45428000D03*
X252968000Y-45428000D03*
D28*
X247588000Y-45428000D03*
D29*
X242000000Y-50000000D03*
D30*
X247450000Y-50000000D03*
D31*
X252900000Y-50000000D03*
D27*
X242000000Y-45428000D03*
X75968000Y-45428000D03*
D28*
X70588000Y-45428000D03*
D29*
X65000000Y-50000000D03*
D30*
X70450000Y-50000000D03*
D31*
X75900000Y-50000000D03*
D27*
X65000000Y-45428000D03*
X227968000Y-45428000D03*
D28*
X222588000Y-45428000D03*
D29*
X217000000Y-50000000D03*
D30*
X222450000Y-50000000D03*
D31*
X227900000Y-50000000D03*
D27*
X217000000Y-45428000D03*
X100968000Y-45428000D03*
D28*
X95588000Y-45428000D03*
D29*
X90000000Y-50000000D03*
D30*
X95450000Y-50000000D03*
D31*
X100900000Y-50000000D03*
D27*
X90000000Y-45428000D03*
X202968000Y-45428000D03*
D28*
X197588000Y-45428000D03*
D29*
X192000000Y-50000000D03*
D30*
X197450000Y-50000000D03*
D31*
X202900000Y-50000000D03*
D27*
X192000000Y-45428000D03*
X125968000Y-45428000D03*
D28*
X120588000Y-45428000D03*
D29*
X115000000Y-50000000D03*
D30*
X120450000Y-50000000D03*
D31*
X125900000Y-50000000D03*
D27*
X115000000Y-45428000D03*
X177968000Y-45428000D03*
D28*
X172588000Y-45428000D03*
D29*
X167000000Y-50000000D03*
D30*
X172450000Y-50000000D03*
D31*
X177900000Y-50000000D03*
D27*
X167000000Y-45428000D03*
D32*
X29000000Y-59000000D03*
D33*
X49320000Y-59000000D03*
D32*
X264000000Y-59000000D03*
D33*
X243680000Y-59000000D03*
D32*
X55000000Y-59000000D03*
D33*
X75320000Y-59000000D03*
D32*
X236000000Y-59000000D03*
D33*
X215680000Y-59000000D03*
D32*
X82000000Y-59000000D03*
D33*
X102320000Y-59000000D03*
D32*
X210000000Y-59000000D03*
D33*
X189680000Y-59000000D03*
D32*
X109000000Y-59000000D03*
D33*
X129320000Y-59000000D03*
D32*
X184000000Y-59000000D03*
D33*
X163680000Y-59000000D03*
D34*
X220900000Y-100900000D03*
D35*
X215820000Y-100900000D03*
D34*
X242000000Y-88000000D03*
D35*
X236920000Y-88000000D03*
D34*
X42000000Y-88000000D03*
D35*
X36920000Y-88000000D03*
D36*
X262000000Y-102000000D03*
D37*
X262000000Y-47000000D03*
D36*
X30000000Y-102000000D03*
D37*
X30000000Y-47000000D03*
D34*
X164125000Y-101850000D03*
D35*
X159045000Y-101850000D03*
D15*
X39850000Y-80250000D03*
D16*
X39850000Y-72750000D03*
D15*
X54825000Y-95000000D03*
D16*
X54825000Y-87500000D03*
D15*
X242000000Y-78800000D03*
D16*
X242000000Y-71300000D03*
D15*
X253000000Y-94200000D03*
D16*
X253000000Y-86700000D03*
X130700000Y-72900000D03*
D26*
X115460000Y-72900000D03*
D17*
X158000000Y-90000000D03*
X173000000Y-90000000D03*
D23*
X127350000Y-81975000D03*
D38*
X124810000Y-81975000D03*
X122270000Y-81975000D03*
D23*
X147000000Y-73500000D03*
D38*
X149540000Y-73500000D03*
X152080000Y-73500000D03*
D23*
X168050000Y-78675000D03*
D38*
X165510000Y-78675000D03*
X162970000Y-78675000D03*
D23*
X137000000Y-47500000D03*
D38*
X139540000Y-47500000D03*
X142080000Y-47500000D03*
D23*
X151000000Y-47500000D03*
D38*
X153540000Y-47500000D03*
X156080000Y-47500000D03*
D32*
X209600000Y-82000000D03*
X209600000Y-70570000D03*
D16*
X221000000Y-69400000D03*
D26*
X221000000Y-84640000D03*
D20*
X109800000Y-102010000D03*
X109800000Y-99470000D03*
D21*
X109800000Y-104550000D03*
D20*
X99500000Y-82140000D03*
X99500000Y-84680000D03*
D21*
X99500000Y-79600000D03*
D20*
X100175000Y-99110000D03*
X100175000Y-96570000D03*
D21*
X100175000Y-101650000D03*
D20*
X93400000Y-99060000D03*
X93400000Y-96520000D03*
D21*
X93400000Y-101600000D03*
D20*
X183740000Y-87000000D03*
X186280000Y-87000000D03*
D21*
X181200000Y-87000000D03*
D20*
X106400000Y-92730000D03*
X106400000Y-95270000D03*
D21*
X106400000Y-90190000D03*
D20*
X137400000Y-71940000D03*
X137400000Y-74480000D03*
D21*
X137400000Y-69400000D03*
D20*
X171210000Y-69250000D03*
X168670000Y-69250000D03*
D21*
X173750000Y-69250000D03*
D13*
X28600000Y-71200000D03*
D14*
X28600000Y-78820000D03*
D13*
X248000000Y-100000000D03*
D14*
X255620000Y-100000000D03*
D13*
X28600000Y-81600000D03*
D14*
X28600000Y-89220000D03*
D13*
X248000000Y-103000000D03*
D14*
X255620000Y-103000000D03*
D11*
X66025000Y-104275000D03*
D12*
X66025000Y-94275000D03*
D11*
X193850000Y-101530000D03*
D12*
X206550000Y-101530000D03*
D11*
X121575000Y-92825000D03*
D12*
X131575000Y-92825000D03*
D11*
X134910000Y-92960000D03*
X139910000Y-92960000D03*
X111525000Y-90575000D03*
D12*
X119145000Y-90575000D03*
D39*
X263460000Y-93540000D03*
D40*
X263460000Y-96080000D03*
D39*
X28770000Y-94110000D03*
D40*
X28770000Y-96650000D03*
M02*
