M48
;DRILL file {KiCad 4.0.7} date 09/16/20 11:21:26
;FORMAT={-:-/ absolute / metric / decimal}
FMAT,2
METRIC,TZ
T1C0.800
T2C0.900
T3C1.000
T4C1.100
T5C1.200
T6C1.400
T7C1.500
T8C1.520
T9C1.700
T10C3.048
%
G90
G05
M71
T1
X30.Y-92.
X30.Y-97.
X60.7Y-75.75
X64.3Y-69.95
X73.4Y-75.75
X73.95Y-99.55
X73.95Y-104.55
X74.3Y-69.95
X78.55Y-96.8
X78.55Y-101.8
X82.75Y-94.35
X82.75Y-101.97
X86.9Y-94.35
X86.9Y-101.97
X90.55Y-81.2
X90.55Y-83.74
X90.55Y-86.28
X90.7Y-68.45
X90.7Y-78.45
X92.1Y-96.87
X92.1Y-99.41
X92.1Y-101.95
X94.95Y-87.95
X95.03Y-92.95
X96.Y-68.38
X96.Y-76.
X99.5Y-79.6
X99.5Y-82.14
X99.5Y-84.68
X99.8Y-68.33
X99.8Y-75.95
X101.35Y-96.47
X101.35Y-99.01
X101.35Y-101.55
X102.45Y-87.95
X102.65Y-92.95
X103.5Y-68.33
X103.5Y-75.95
X107.Y-68.38
X107.Y-76.
X108.1Y-89.3
X108.1Y-91.84
X108.1Y-94.38
X108.55Y-79.95
X108.55Y-82.49
X108.55Y-85.03
X109.8Y-99.47
X109.8Y-102.01
X109.8Y-104.55
X110.7Y-68.48
X110.7Y-76.1
X113.05Y-79.03
X113.05Y-86.65
X115.Y-93.05
X118.Y-97.92
X118.Y-100.46
X118.Y-103.
X120.Y-93.05
X120.63Y-69.
X123.3Y-98.375
X123.4Y-95.25
X126.98Y-104.7
X127.Y-101.6
X128.25Y-69.
X130.9Y-95.25
X130.92Y-98.375
X133.25Y-61.38
X133.25Y-69.
X134.6Y-104.7
X134.62Y-101.6
X136.25Y-91.13
X136.25Y-98.75
X137.4Y-69.4
X137.4Y-71.94
X137.4Y-74.48
X138.Y-78.92
X138.Y-81.46
X138.Y-84.
X142.Y-61.13
X142.Y-68.75
X142.Y-97.92
X142.Y-100.46
X142.Y-103.
X142.5Y-77.5
X142.5Y-85.12
X145.Y-86.5
X145.38Y-83.
X146.88Y-99.75
X146.88Y-103.5
X153.Y-83.
X154.5Y-99.75
X154.5Y-103.5
X155.Y-86.5
X155.25Y-61.25
X155.25Y-68.87
X161.17Y-69.1
X163.71Y-69.1
X166.25Y-69.1
X173.75Y-68.5
X173.75Y-76.12
X176.38Y-69.
X177.5Y-79.5
X177.5Y-87.12
X182.Y-80.
X182.Y-85.
X184.Y-69.
X184.35Y-89.1
X184.35Y-91.64
X184.35Y-94.18
X186.5Y-77.
X186.5Y-79.5
X186.75Y-61.63
X186.75Y-69.25
X190.5Y-91.5
X190.5Y-104.2
X221.Y-69.
X221.Y-79.
X262.Y-92.
X262.Y-97.
T2
X190.Y-83.5
X190.Y-86.04
T3
X66.35Y-95.6
X66.35Y-100.6
X66.5Y-84.6
X66.5Y-89.6
X122.17Y-83.95
X124.71Y-83.95
X127.25Y-83.95
X137.Y-47.5
X139.54Y-47.5
X142.08Y-47.5
X147.Y-73.5
X149.54Y-73.5
X151.Y-47.5
X152.08Y-73.5
X153.54Y-47.5
X156.08Y-47.5
X160.92Y-77.9
X163.46Y-77.9
X166.Y-77.9
T4
X28.58Y-70.35
X36.2Y-70.35
X39.38Y-70.5
X47.Y-70.5
X53.45Y-70.
X57.Y-94.88
X57.Y-102.5
X61.07Y-70.
X140.Y-91.
X155.Y-91.
X198.5Y-68.5
X198.5Y-76.12
X225.73Y-95.15
X225.8Y-91.15
X233.35Y-95.15
X233.42Y-91.15
T5
X28.25Y-65.5
X35.75Y-76.6
X35.75Y-84.1
X40.95Y-65.5
X42.35Y-92.65
X42.35Y-100.15
X50.75Y-76.65
X50.75Y-84.15
X52.55Y-89.65
X52.55Y-102.35
X115.46Y-72.9
X130.7Y-72.9
X177.76Y-73.
X178.5Y-91.
X178.5Y-103.7
X193.Y-73.
X197.25Y-89.5
X204.75Y-89.5
X209.5Y-71.
X209.5Y-78.5
X212.5Y-89.5
X220.Y-89.5
X241.Y-71.
X241.Y-86.24
X248.05Y-65.
X260.75Y-65.
T6
X29.Y-59.
X49.32Y-59.
X55.Y-59.
X75.32Y-59.
X82.Y-59.
X102.32Y-59.
X109.Y-59.
X129.32Y-59.
X163.68Y-59.
X184.Y-59.
X189.68Y-59.
X210.Y-59.
X215.68Y-59.
X236.Y-59.
X243.68Y-59.
X249.57Y-78.
X261.Y-78.
X264.Y-59.
T7
X40.Y-50.
X45.45Y-50.
X50.9Y-50.
X65.Y-50.
X70.45Y-50.
X75.9Y-50.
X90.Y-50.
X95.45Y-50.
X100.9Y-50.
X115.Y-50.
X120.45Y-50.
X125.9Y-50.
X166.Y-90.75
X167.Y-50.
X172.45Y-50.
X177.9Y-50.
X192.Y-50.
X197.45Y-50.
X202.9Y-50.
X217.Y-50.
X222.45Y-50.
X227.9Y-50.
X242.Y-50.
X247.45Y-50.
X252.9Y-50.
T8
X79.Y-72.4
X84.08Y-72.4
X163.5Y-101.75
X168.58Y-101.75
X229.5Y-71.9
X234.58Y-71.9
X245.5Y-101.
X250.58Y-101.
T9
X163.46Y-88.21
X163.46Y-93.29
X168.54Y-88.21
X168.54Y-93.29
T10
X30.Y-47.
X30.Y-102.
X262.Y-47.
X262.Y-102.
T0
M30
