G04 #@! TF.FileFunction,Copper,L2,Bot,Signal*
%FSLAX46Y46*%
G04 Gerber Fmt 4.6, Leading zero omitted, Abs format (unit mm)*
G04 Created by KiCad (PCBNEW 4.0.7) date 08/18/20 10:19:07*
%MOMM*%
%LPD*%
G01*
G04 APERTURE LIST*
%ADD10C,0.100000*%
%ADD11R,1.800000X1.800000*%
%ADD12O,1.800000X1.800000*%
%ADD13C,1.600000*%
%ADD14O,1.600000X1.600000*%
%ADD15C,2.400000*%
%ADD16O,2.400000X2.400000*%
%ADD17R,2.000000X2.000000*%
%ADD18C,2.000000*%
%ADD19R,2.400000X2.400000*%
%ADD20R,2.200000X2.200000*%
%ADD21O,2.200000X2.200000*%
%ADD22C,1.800000*%
%ADD23R,1.600000X1.600000*%
%ADD24C,1.000000*%
%ADD25R,1.000000X1.000000*%
%ADD26C,1.440000*%
%ADD27R,4.300000X4.500000*%
%ADD28O,2.500000X4.500000*%
%ADD29O,4.300000X4.500000*%
%ADD30C,2.800000*%
%ADD31O,2.800000X2.800000*%
%ADD32R,3.000000X3.000000*%
%ADD33C,3.000000*%
%ADD34C,4.064000*%
%ADD35C,2.200000*%
%ADD36C,0.500000*%
%ADD37C,2.000000*%
%ADD38C,4.000000*%
%ADD39C,1.000000*%
G04 APERTURE END LIST*
D10*
D11*
X151000000Y-47500000D03*
D12*
X153540000Y-47500000D03*
X156080000Y-47500000D03*
D13*
X184000000Y-69000000D03*
D14*
X176380000Y-69000000D03*
D15*
X129500000Y-70000000D03*
D16*
X114260000Y-70000000D03*
D11*
X153000000Y-76000000D03*
D12*
X150460000Y-76000000D03*
X147920000Y-76000000D03*
D13*
X145250000Y-92750000D03*
D14*
X155250000Y-92750000D03*
D13*
X130500000Y-92000000D03*
D14*
X123000000Y-92000000D03*
D13*
X96000000Y-86000000D03*
D14*
X103500000Y-86000000D03*
D13*
X82500000Y-89000000D03*
X87500000Y-89000000D03*
X182000000Y-80000000D03*
X182000000Y-85000000D03*
X85500000Y-101000000D03*
X80500000Y-101000000D03*
D17*
X63500000Y-87000000D03*
D18*
X58500000Y-87000000D03*
D17*
X43000000Y-87000000D03*
D18*
X48000000Y-87000000D03*
D13*
X118500000Y-93000000D03*
X118500000Y-88000000D03*
X156000000Y-85250000D03*
D14*
X146000000Y-85250000D03*
D13*
X48000000Y-73500000D03*
D14*
X58000000Y-73500000D03*
D19*
X81000000Y-71000000D03*
D15*
X81000000Y-78500000D03*
D13*
X92500000Y-68500000D03*
D14*
X92500000Y-78500000D03*
D19*
X209500000Y-78500000D03*
D15*
X209500000Y-71000000D03*
D13*
X221000000Y-69000000D03*
D14*
X221000000Y-79000000D03*
D20*
X87500000Y-93000000D03*
D21*
X79880000Y-93000000D03*
D11*
X186500000Y-81000000D03*
D22*
X186500000Y-83540000D03*
D23*
X142000000Y-68750000D03*
D14*
X142000000Y-61130000D03*
D23*
X155250000Y-61250000D03*
D14*
X155250000Y-68870000D03*
D20*
X47000000Y-70000000D03*
D21*
X54620000Y-70000000D03*
D20*
X198500000Y-68500000D03*
D21*
X198500000Y-76120000D03*
D24*
X115770000Y-97230000D03*
X117040000Y-98500000D03*
D25*
X114500000Y-98500000D03*
D24*
X106770000Y-100730000D03*
X108040000Y-102000000D03*
D25*
X105500000Y-102000000D03*
D24*
X103230000Y-81230000D03*
X104500000Y-79960000D03*
D25*
X104500000Y-82500000D03*
D24*
X96230000Y-81230000D03*
X97500000Y-79960000D03*
D25*
X97500000Y-82500000D03*
D24*
X105770000Y-94770000D03*
X104500000Y-96040000D03*
D25*
X104500000Y-93500000D03*
D24*
X96770000Y-94770000D03*
X95500000Y-96040000D03*
D25*
X95500000Y-93500000D03*
D24*
X182730000Y-92230000D03*
X184000000Y-90960000D03*
D25*
X184000000Y-93500000D03*
D24*
X111230000Y-90270000D03*
X109960000Y-89000000D03*
D25*
X112500000Y-89000000D03*
D24*
X116230000Y-79480000D03*
X117500000Y-78210000D03*
D25*
X117500000Y-80750000D03*
D11*
X127000000Y-85000000D03*
D12*
X127000000Y-82460000D03*
X127000000Y-79920000D03*
D11*
X163000000Y-80000000D03*
D12*
X165540000Y-80000000D03*
X168080000Y-80000000D03*
D24*
X137730000Y-72270000D03*
X136460000Y-71000000D03*
D25*
X139000000Y-71000000D03*
D24*
X161770000Y-68480000D03*
X163040000Y-69750000D03*
D25*
X160500000Y-69750000D03*
D11*
X137000000Y-47500000D03*
D12*
X139540000Y-47500000D03*
X142080000Y-47500000D03*
D13*
X123250000Y-95500000D03*
D14*
X130870000Y-95500000D03*
D13*
X134000000Y-93250000D03*
D14*
X141620000Y-93250000D03*
D13*
X104500000Y-76500000D03*
D14*
X104500000Y-68880000D03*
D13*
X99000000Y-76500000D03*
D14*
X99000000Y-68880000D03*
D13*
X103500000Y-89500000D03*
D14*
X95880000Y-89500000D03*
D13*
X135000000Y-99000000D03*
D14*
X127380000Y-99000000D03*
D13*
X135000000Y-102000000D03*
D14*
X127380000Y-102000000D03*
D13*
X154500000Y-97000000D03*
D14*
X146880000Y-97000000D03*
D13*
X154500000Y-103500000D03*
D14*
X146880000Y-103500000D03*
D26*
X141500000Y-102500000D03*
X141500000Y-99960000D03*
X141500000Y-97420000D03*
D15*
X178500000Y-91000000D03*
D16*
X178500000Y-103700000D03*
D13*
X177500000Y-79500000D03*
D14*
X177500000Y-87120000D03*
D15*
X90000000Y-85000000D03*
D16*
X77300000Y-85000000D03*
D13*
X79500000Y-97500000D03*
D14*
X87120000Y-97500000D03*
D13*
X69000000Y-94500000D03*
D14*
X76620000Y-94500000D03*
D13*
X186500000Y-87000000D03*
D14*
X199200000Y-87000000D03*
D13*
X109500000Y-83500000D03*
D14*
X109500000Y-75880000D03*
D13*
X123500000Y-74000000D03*
D14*
X115880000Y-74000000D03*
D13*
X112500000Y-81000000D03*
D14*
X112500000Y-73380000D03*
D13*
X120250000Y-84500000D03*
D14*
X112630000Y-84500000D03*
D13*
X140500000Y-75250000D03*
D14*
X140500000Y-82870000D03*
D26*
X136250000Y-84750000D03*
X136250000Y-82210000D03*
X136250000Y-79670000D03*
D13*
X152250000Y-88750000D03*
D14*
X144630000Y-88750000D03*
D13*
X173750000Y-68500000D03*
D14*
X173750000Y-76120000D03*
D13*
X134000000Y-74000000D03*
D14*
X126380000Y-74000000D03*
D15*
X193000000Y-73000000D03*
D16*
X177760000Y-73000000D03*
D13*
X133250000Y-69000000D03*
D14*
X133250000Y-61380000D03*
D13*
X186750000Y-69250000D03*
D14*
X186750000Y-61630000D03*
D15*
X28250000Y-65500000D03*
D16*
X40950000Y-65500000D03*
D15*
X260750000Y-65000000D03*
D16*
X248050000Y-65000000D03*
D13*
X60000000Y-77500000D03*
D14*
X47300000Y-77500000D03*
D27*
X40000000Y-50000000D03*
D28*
X45450000Y-50000000D03*
D29*
X50900000Y-50000000D03*
D27*
X242000000Y-50000000D03*
D28*
X247450000Y-50000000D03*
D29*
X252900000Y-50000000D03*
D27*
X65000000Y-50000000D03*
D28*
X70450000Y-50000000D03*
D29*
X75900000Y-50000000D03*
D27*
X217000000Y-50000000D03*
D28*
X222450000Y-50000000D03*
D29*
X227900000Y-50000000D03*
D27*
X90000000Y-50000000D03*
D28*
X95450000Y-50000000D03*
D29*
X100900000Y-50000000D03*
D27*
X192000000Y-50000000D03*
D28*
X197450000Y-50000000D03*
D29*
X202900000Y-50000000D03*
D27*
X115000000Y-50000000D03*
D28*
X120450000Y-50000000D03*
D29*
X125900000Y-50000000D03*
D27*
X167000000Y-50000000D03*
D28*
X172450000Y-50000000D03*
D29*
X177900000Y-50000000D03*
D30*
X29000000Y-59000000D03*
D31*
X49320000Y-59000000D03*
D30*
X264000000Y-59000000D03*
D31*
X243680000Y-59000000D03*
D30*
X55000000Y-59000000D03*
D31*
X75320000Y-59000000D03*
D30*
X236000000Y-59000000D03*
D31*
X215680000Y-59000000D03*
D30*
X82000000Y-59000000D03*
D31*
X102320000Y-59000000D03*
D30*
X210000000Y-59000000D03*
D31*
X189680000Y-59000000D03*
D30*
X109000000Y-59000000D03*
D31*
X129320000Y-59000000D03*
D30*
X184000000Y-59000000D03*
D31*
X163680000Y-59000000D03*
D32*
X242500000Y-72000000D03*
D33*
X247580000Y-72000000D03*
D32*
X226000000Y-72000000D03*
D33*
X231080000Y-72000000D03*
D32*
X64000000Y-71000000D03*
D33*
X69080000Y-71000000D03*
D34*
X263000000Y-103000000D03*
X263000000Y-46000000D03*
X29000000Y-103000000D03*
X29000000Y-46000000D03*
D32*
X163500000Y-101750000D03*
D33*
X168580000Y-101750000D03*
D35*
X163460000Y-93290000D03*
X163460000Y-88210000D03*
X168540000Y-88210000D03*
X168540000Y-93290000D03*
D18*
X166000000Y-90750000D03*
D36*
X134000000Y-93250000D02*
X134000000Y-93500000D01*
X134000000Y-93500000D02*
X136000000Y-95500000D01*
X145250000Y-94000000D02*
X145250000Y-92750000D01*
X143750000Y-95500000D02*
X145250000Y-94000000D01*
X136000000Y-95500000D02*
X143750000Y-95500000D01*
X134000000Y-93250000D02*
X133120000Y-93250000D01*
X133120000Y-93250000D02*
X130870000Y-95500000D01*
X145250000Y-92750000D02*
X145000000Y-92750000D01*
X130870000Y-95500000D02*
X130870000Y-94880000D01*
X155250000Y-92750000D02*
X155250000Y-93500000D01*
X155250000Y-93500000D02*
X158500000Y-96750000D01*
X158500000Y-96750000D02*
X166000000Y-96750000D01*
X166000000Y-90750000D02*
X166000000Y-96750000D01*
X166000000Y-96750000D02*
X166000000Y-99250000D01*
X166000000Y-99250000D02*
X163500000Y-101750000D01*
X123000000Y-92000000D02*
X123000000Y-95250000D01*
X123000000Y-95250000D02*
X123250000Y-95500000D01*
X115770000Y-97230000D02*
X116770000Y-97230000D01*
X122500000Y-95000000D02*
X123250000Y-95500000D01*
X119000000Y-95000000D02*
X122500000Y-95000000D01*
X116770000Y-97230000D02*
X119000000Y-95000000D01*
X96000000Y-86000000D02*
X96000000Y-89380000D01*
X96000000Y-89380000D02*
X95880000Y-89500000D01*
X96230000Y-81230000D02*
X94770000Y-81230000D01*
X93000000Y-91000000D02*
X95500000Y-93500000D01*
X93000000Y-83000000D02*
X93000000Y-91000000D01*
X94770000Y-81230000D02*
X93000000Y-83000000D01*
X102000000Y-81230000D02*
X102000000Y-84500000D01*
X102000000Y-84500000D02*
X103500000Y-86000000D01*
X97500000Y-82500000D02*
X98000000Y-82500000D01*
X98000000Y-82500000D02*
X99270000Y-81230000D01*
X99270000Y-81230000D02*
X102000000Y-81230000D01*
X102000000Y-81230000D02*
X103230000Y-81230000D01*
X96230000Y-81230000D02*
X97500000Y-82500000D01*
X87500000Y-93000000D02*
X89000000Y-93000000D01*
X89000000Y-93000000D02*
X90000000Y-92000000D01*
X90000000Y-89000000D02*
X87500000Y-89000000D01*
X96770000Y-94770000D02*
X92270000Y-94770000D01*
X90000000Y-92500000D02*
X90000000Y-92000000D01*
X90000000Y-92000000D02*
X90000000Y-89000000D01*
X90000000Y-89000000D02*
X90000000Y-85000000D01*
X92270000Y-94770000D02*
X90000000Y-92500000D01*
X96770000Y-94770000D02*
X105770000Y-94770000D01*
X193000000Y-73000000D02*
X195380000Y-73000000D01*
X195380000Y-73000000D02*
X198500000Y-76120000D01*
D37*
X172450000Y-50000000D02*
X172450000Y-63450000D01*
X172450000Y-63450000D02*
X174000000Y-65000000D01*
X153540000Y-47500000D02*
X153540000Y-52540000D01*
X156000000Y-55000000D02*
X172450000Y-55000000D01*
X153540000Y-52540000D02*
X156000000Y-55000000D01*
D36*
X173750000Y-68500000D02*
X173750000Y-67250000D01*
X173750000Y-67250000D02*
X176000000Y-65000000D01*
X193000000Y-73000000D02*
X193000000Y-68000000D01*
X193000000Y-68000000D02*
X196000000Y-65000000D01*
X186500000Y-81000000D02*
X186500000Y-79500000D01*
X186500000Y-79500000D02*
X193000000Y-73000000D01*
X186500000Y-81000000D02*
X187000000Y-81000000D01*
D37*
X198500000Y-76120000D02*
X203880000Y-76120000D01*
X203880000Y-76120000D02*
X211000000Y-69000000D01*
D36*
X182000000Y-80000000D02*
X185500000Y-80000000D01*
X185500000Y-80000000D02*
X186500000Y-81000000D01*
X177500000Y-79500000D02*
X181500000Y-79500000D01*
X181500000Y-79500000D02*
X182000000Y-80000000D01*
X174000000Y-65000000D02*
X173500000Y-65000000D01*
X173500000Y-65000000D02*
X173250000Y-65250000D01*
X173250000Y-65250000D02*
X173250000Y-64250000D01*
D37*
X173250000Y-64250000D02*
X174000000Y-65000000D01*
X247450000Y-50000000D02*
X247450000Y-60300000D01*
X228750000Y-64250000D02*
X226000000Y-67000000D01*
X243500000Y-64250000D02*
X228750000Y-64250000D01*
X247450000Y-60300000D02*
X243500000Y-64250000D01*
X221000000Y-69000000D02*
X221000000Y-65000000D01*
X221000000Y-65000000D02*
X222000000Y-65000000D01*
D38*
X228000000Y-65000000D02*
X226000000Y-67000000D01*
D37*
X222450000Y-50000000D02*
X222450000Y-63450000D01*
X222450000Y-63450000D02*
X224000000Y-65000000D01*
X197450000Y-50000000D02*
X197450000Y-58450000D01*
X197450000Y-58450000D02*
X204000000Y-65000000D01*
X172450000Y-50000000D02*
X172450000Y-55000000D01*
D38*
X174000000Y-65000000D02*
X176000000Y-65000000D01*
X176000000Y-65000000D02*
X184000000Y-65000000D01*
X184000000Y-65000000D02*
X196000000Y-65000000D01*
X196000000Y-65000000D02*
X200000000Y-65000000D01*
X200000000Y-65000000D02*
X204000000Y-65000000D01*
X204000000Y-65000000D02*
X207000000Y-65000000D01*
X209500000Y-71000000D02*
X211000000Y-69000000D01*
X211000000Y-69000000D02*
X207000000Y-65000000D01*
X226000000Y-72000000D02*
X226000000Y-67000000D01*
X224000000Y-65000000D02*
X222000000Y-65000000D01*
X222000000Y-65000000D02*
X207000000Y-65000000D01*
X226000000Y-67000000D02*
X224000000Y-65000000D01*
D36*
X168080000Y-80000000D02*
X168080000Y-80330000D01*
X168080000Y-80330000D02*
X172750000Y-85000000D01*
X172750000Y-85000000D02*
X182000000Y-85000000D01*
X182000000Y-85000000D02*
X184500000Y-85000000D01*
X184500000Y-85000000D02*
X186500000Y-87000000D01*
X182730000Y-92230000D02*
X186020000Y-92230000D01*
X186020000Y-92230000D02*
X188000000Y-90250000D01*
X188000000Y-90250000D02*
X188000000Y-88500000D01*
X188000000Y-88500000D02*
X186500000Y-87000000D01*
X186500000Y-83540000D02*
X186500000Y-87000000D01*
X181580000Y-84580000D02*
X182000000Y-85000000D01*
X76620000Y-94500000D02*
X76620000Y-94620000D01*
X76620000Y-94620000D02*
X77500000Y-95500000D01*
X77500000Y-95500000D02*
X85120000Y-95500000D01*
X85120000Y-95500000D02*
X87120000Y-97500000D01*
X106770000Y-100730000D02*
X106770000Y-103230000D01*
X95500000Y-97500000D02*
X92500000Y-97500000D01*
X101500000Y-103500000D02*
X95500000Y-97500000D01*
X106500000Y-103500000D02*
X101500000Y-103500000D01*
X106770000Y-103230000D02*
X106500000Y-103500000D01*
X87120000Y-97500000D02*
X87120000Y-99380000D01*
X87120000Y-99380000D02*
X85500000Y-101000000D01*
X92500000Y-97500000D02*
X87120000Y-97500000D01*
X79500000Y-97500000D02*
X74000000Y-97500000D01*
X61500000Y-73500000D02*
X58000000Y-73500000D01*
X71000000Y-83000000D02*
X61500000Y-73500000D01*
X71000000Y-94500000D02*
X71000000Y-83000000D01*
X74000000Y-97500000D02*
X71000000Y-94500000D01*
X80500000Y-101000000D02*
X80500000Y-98500000D01*
X80500000Y-98500000D02*
X79500000Y-97500000D01*
X63500000Y-87000000D02*
X66500000Y-92000000D01*
X66500000Y-92000000D02*
X69000000Y-94500000D01*
X58500000Y-87000000D02*
X48000000Y-87000000D01*
X111230000Y-90270000D02*
X111230000Y-92230000D01*
X112000000Y-93000000D02*
X118500000Y-93000000D01*
X111230000Y-92230000D02*
X112000000Y-93000000D01*
X104500000Y-93500000D02*
X104500000Y-89500000D01*
X103500000Y-89500000D02*
X104500000Y-89500000D01*
X104500000Y-89500000D02*
X107000000Y-89500000D01*
X104500000Y-82500000D02*
X104500000Y-83500000D01*
X108000000Y-90500000D02*
X111000000Y-90500000D01*
X107000000Y-89500000D02*
X108000000Y-90500000D01*
X107000000Y-86000000D02*
X107000000Y-89500000D01*
X104500000Y-83500000D02*
X107000000Y-86000000D01*
X111000000Y-90500000D02*
X111230000Y-90270000D01*
X142080000Y-47500000D02*
X142080000Y-61050000D01*
X131500000Y-81000000D02*
X131500000Y-86000000D01*
X129000000Y-88500000D02*
X119000000Y-88500000D01*
X131500000Y-86000000D02*
X129000000Y-88500000D01*
X119000000Y-88500000D02*
X118500000Y-88000000D01*
X140500000Y-82870000D02*
X140500000Y-83000000D01*
X140500000Y-83000000D02*
X142750000Y-85250000D01*
X142750000Y-85250000D02*
X146000000Y-85250000D01*
X127000000Y-82460000D02*
X127040000Y-82460000D01*
X127040000Y-82460000D02*
X129500000Y-81000000D01*
X138630000Y-81000000D02*
X140500000Y-82870000D01*
X129500000Y-81000000D02*
X131500000Y-81000000D01*
X131500000Y-81000000D02*
X138630000Y-81000000D01*
X140870000Y-82500000D02*
X140500000Y-82870000D01*
X127000000Y-82460000D02*
X127790000Y-82210000D01*
X150460000Y-76000000D02*
X150460000Y-81540000D01*
X149500000Y-82500000D02*
X146000000Y-85250000D01*
X150460000Y-81540000D02*
X149500000Y-82500000D01*
X150460000Y-76000000D02*
X150460000Y-67710000D01*
X143880000Y-61130000D02*
X142000000Y-61130000D01*
X150460000Y-67710000D02*
X143880000Y-61130000D01*
X142000000Y-61130000D02*
X142000000Y-61500000D01*
X142080000Y-61050000D02*
X142000000Y-61130000D01*
X165540000Y-80000000D02*
X165540000Y-81710000D01*
X162000000Y-85250000D02*
X156000000Y-85250000D01*
X165540000Y-81710000D02*
X162000000Y-85250000D01*
X156000000Y-85250000D02*
X156000000Y-85000000D01*
X153000000Y-82750000D02*
X155750000Y-85500000D01*
X155750000Y-85500000D02*
X156000000Y-85250000D01*
X153000000Y-76000000D02*
X153000000Y-82750000D01*
X153000000Y-82750000D02*
X153000000Y-84750000D01*
X153000000Y-84750000D02*
X152250000Y-88750000D01*
X153000000Y-76000000D02*
X153000000Y-71750000D01*
X155250000Y-62250000D02*
X155250000Y-61250000D01*
X152500000Y-65000000D02*
X155250000Y-62250000D01*
X152500000Y-71250000D02*
X152500000Y-65000000D01*
X153000000Y-71750000D02*
X152500000Y-71250000D01*
X155250000Y-62000000D02*
X155250000Y-61250000D01*
X155080000Y-61080000D02*
X155250000Y-61250000D01*
X112500000Y-73380000D02*
X112000000Y-73380000D01*
X112000000Y-73380000D02*
X109500000Y-75880000D01*
D37*
X47000000Y-70000000D02*
X48000000Y-67000000D01*
X48000000Y-67000000D02*
X50000000Y-65000000D01*
D36*
X81000000Y-71000000D02*
X77500000Y-74500000D01*
X77500000Y-74500000D02*
X77500000Y-84800000D01*
X77500000Y-84800000D02*
X77300000Y-85000000D01*
X104500000Y-68880000D02*
X104500000Y-65000000D01*
X104500000Y-65000000D02*
X104500000Y-65500000D01*
X104500000Y-65500000D02*
X104500000Y-65000000D01*
X99000000Y-68880000D02*
X99000000Y-65000000D01*
X99000000Y-65000000D02*
X99000000Y-65500000D01*
X99000000Y-65500000D02*
X99000000Y-65000000D01*
D37*
X115880000Y-74000000D02*
X113120000Y-74000000D01*
X113120000Y-74000000D02*
X111000000Y-71880000D01*
X115880000Y-74000000D02*
X115880000Y-71620000D01*
X115880000Y-71620000D02*
X114260000Y-70000000D01*
X114000000Y-65000000D02*
X114000000Y-69740000D01*
X114000000Y-69740000D02*
X114260000Y-70000000D01*
D38*
X111000000Y-65000000D02*
X111000000Y-71880000D01*
X111000000Y-71880000D02*
X111000000Y-74000000D01*
X111000000Y-74000000D02*
X110000000Y-75000000D01*
D36*
X109500000Y-75880000D02*
X110000000Y-75880000D01*
X114500000Y-70240000D02*
X114260000Y-70000000D01*
D37*
X45450000Y-50000000D02*
X45450000Y-63200000D01*
X47250000Y-65000000D02*
X50000000Y-65000000D01*
X50000000Y-65000000D02*
X65000000Y-65000000D01*
X45450000Y-63200000D02*
X47250000Y-65000000D01*
D39*
X139540000Y-47500000D02*
X139540000Y-51460000D01*
X135750000Y-55250000D02*
X120450000Y-55250000D01*
X139540000Y-51460000D02*
X135750000Y-55250000D01*
D37*
X92500000Y-68500000D02*
X91000000Y-65000000D01*
X91000000Y-65000000D02*
X91000000Y-66000000D01*
X91000000Y-66000000D02*
X91000000Y-65000000D01*
D38*
X64000000Y-71000000D02*
X65000000Y-65000000D01*
X65000000Y-65000000D02*
X65000000Y-66000000D01*
X65000000Y-66000000D02*
X65000000Y-65000000D01*
X81000000Y-71000000D02*
X81000000Y-65000000D01*
D37*
X95450000Y-64450000D02*
X96000000Y-65000000D01*
D38*
X97000000Y-64000000D02*
X96000000Y-65000000D01*
X97000000Y-64000000D02*
X97000000Y-65000000D01*
X96000000Y-65000000D02*
X91000000Y-65000000D01*
X91000000Y-65000000D02*
X81000000Y-65000000D01*
X81000000Y-65000000D02*
X70000000Y-65000000D01*
X70000000Y-65000000D02*
X65000000Y-65000000D01*
X97000000Y-65000000D02*
X99000000Y-65000000D01*
X99000000Y-65000000D02*
X104500000Y-65000000D01*
X104500000Y-65000000D02*
X111000000Y-65000000D01*
X111000000Y-65000000D02*
X114000000Y-65000000D01*
X114000000Y-65000000D02*
X116000000Y-65000000D01*
D37*
X120450000Y-60000000D02*
X120450000Y-60550000D01*
X120450000Y-60550000D02*
X118250000Y-62750000D01*
X118250000Y-62750000D02*
X116000000Y-65000000D01*
X70450000Y-65000000D02*
X70000000Y-65450000D01*
D38*
X116000000Y-65000000D02*
X119000000Y-65000000D01*
D37*
X120450000Y-50000000D02*
X120450000Y-55250000D01*
X120450000Y-55250000D02*
X120450000Y-60000000D01*
X95450000Y-50000000D02*
X95450000Y-64450000D01*
X70450000Y-50000000D02*
X70450000Y-65000000D01*
D36*
X139000000Y-71000000D02*
X139750000Y-71000000D01*
X139750000Y-71000000D02*
X142000000Y-68750000D01*
X160500000Y-69750000D02*
X156130000Y-69750000D01*
X156130000Y-69750000D02*
X155250000Y-68870000D01*
X117040000Y-98500000D02*
X117250000Y-98500000D01*
X117250000Y-98500000D02*
X117750000Y-99000000D01*
X117750000Y-99000000D02*
X127380000Y-99000000D01*
X126880000Y-99500000D02*
X127380000Y-99000000D01*
X104500000Y-96040000D02*
X112040000Y-96040000D01*
X112040000Y-96040000D02*
X114500000Y-98500000D01*
X127380000Y-102000000D02*
X108040000Y-102000000D01*
X108040000Y-102000000D02*
X108500000Y-102000000D01*
X95500000Y-96040000D02*
X99540000Y-96040000D01*
X99540000Y-96040000D02*
X105500000Y-102000000D01*
X104500000Y-76500000D02*
X104500000Y-79960000D01*
X99000000Y-76500000D02*
X99000000Y-78460000D01*
X99000000Y-78460000D02*
X97500000Y-79960000D01*
X177500000Y-87120000D02*
X180160000Y-87120000D01*
X180160000Y-87120000D02*
X184000000Y-90960000D01*
X178500000Y-91000000D02*
X178500000Y-93500000D01*
X183000000Y-94500000D02*
X184000000Y-93500000D01*
X179500000Y-94500000D02*
X183000000Y-94500000D01*
X178500000Y-93500000D02*
X179500000Y-94500000D01*
X117500000Y-80750000D02*
X118000000Y-80750000D01*
X118000000Y-80750000D02*
X119330000Y-79420000D01*
X119330000Y-79420000D02*
X127000000Y-79920000D01*
X112000000Y-86500000D02*
X113750000Y-86500000D01*
X116000000Y-82250000D02*
X117500000Y-80750000D01*
X116000000Y-84250000D02*
X116000000Y-82250000D01*
X113750000Y-86500000D02*
X116000000Y-84250000D01*
X109960000Y-89000000D02*
X109960000Y-88540000D01*
X109960000Y-88540000D02*
X112000000Y-86500000D01*
X109000000Y-84000000D02*
X109500000Y-83500000D01*
X109500000Y-83500000D02*
X109500000Y-84500000D01*
X111500000Y-86500000D02*
X112000000Y-86500000D01*
X109500000Y-84500000D02*
X111500000Y-86500000D01*
X112630000Y-84500000D02*
X112630000Y-81130000D01*
X112630000Y-81130000D02*
X112500000Y-81000000D01*
X116230000Y-79480000D02*
X116020000Y-79480000D01*
X116020000Y-79480000D02*
X112500000Y-81000000D01*
X113000000Y-84130000D02*
X112630000Y-84500000D01*
X117500000Y-78210000D02*
X117540000Y-78210000D01*
X117540000Y-78210000D02*
X123500000Y-74000000D01*
X127000000Y-85000000D02*
X120500000Y-84250000D01*
X120500000Y-84250000D02*
X120250000Y-84500000D01*
X140500000Y-75250000D02*
X140500000Y-75420000D01*
X140500000Y-75420000D02*
X136250000Y-79670000D01*
X147920000Y-76000000D02*
X144750000Y-75250000D01*
X144750000Y-75250000D02*
X140500000Y-75250000D01*
X163000000Y-80000000D02*
X163000000Y-76750000D01*
X163630000Y-76120000D02*
X173750000Y-76120000D01*
X163000000Y-76750000D02*
X163630000Y-76120000D01*
X134000000Y-74000000D02*
X134000000Y-73540000D01*
X134000000Y-73540000D02*
X134270000Y-72270000D01*
X133750000Y-73750000D02*
X134000000Y-74000000D01*
X133250000Y-69000000D02*
X130500000Y-69000000D01*
X130500000Y-69000000D02*
X129500000Y-70000000D01*
X137730000Y-72270000D02*
X134270000Y-72270000D01*
X133250000Y-71250000D02*
X133250000Y-69000000D01*
X134270000Y-72270000D02*
X133250000Y-71250000D01*
X186750000Y-69250000D02*
X186750000Y-71250000D01*
X185000000Y-73000000D02*
X177760000Y-73000000D01*
X186750000Y-71250000D02*
X185000000Y-73000000D01*
X176380000Y-69000000D02*
X176380000Y-71620000D01*
X176380000Y-71620000D02*
X177760000Y-73000000D01*
X161770000Y-68480000D02*
X161770000Y-71520000D01*
X173880000Y-71500000D02*
X176380000Y-69000000D01*
X161790000Y-71500000D02*
X173880000Y-71500000D01*
X161770000Y-71520000D02*
X161790000Y-71500000D01*
D37*
X113000000Y-44500000D02*
X134000000Y-44500000D01*
X134000000Y-44500000D02*
X137000000Y-47500000D01*
X40000000Y-50000000D02*
X40000000Y-64550000D01*
X40000000Y-64550000D02*
X40950000Y-65500000D01*
X40950000Y-65450000D02*
X40950000Y-65500000D01*
X115000000Y-50000000D02*
X115000000Y-45000000D01*
X115000000Y-45000000D02*
X115000000Y-46000000D01*
X115000000Y-46000000D02*
X115000000Y-45000000D01*
X90000000Y-50000000D02*
X90000000Y-47000000D01*
X90000000Y-47000000D02*
X92000000Y-45000000D01*
X92000000Y-45000000D02*
X92000000Y-46000000D01*
X92000000Y-46000000D02*
X92000000Y-45000000D01*
X65000000Y-50000000D02*
X65000000Y-48000000D01*
X65000000Y-48000000D02*
X68000000Y-45000000D01*
X115000000Y-45000000D02*
X113000000Y-44500000D01*
X113000000Y-44500000D02*
X92000000Y-45000000D01*
X92000000Y-45000000D02*
X68000000Y-45000000D01*
X40000000Y-45000000D02*
X40000000Y-50000000D01*
X68000000Y-45000000D02*
X40000000Y-45000000D01*
X151000000Y-47500000D02*
X151750000Y-44500000D01*
X151750000Y-44500000D02*
X164000000Y-44500000D01*
X217000000Y-45000000D02*
X240000000Y-45000000D01*
X242000000Y-47000000D02*
X242000000Y-50000000D01*
X240000000Y-45000000D02*
X242000000Y-47000000D01*
X189000000Y-45000000D02*
X215000000Y-45000000D01*
X215000000Y-45000000D02*
X217000000Y-45000000D01*
X217000000Y-50000000D02*
X217000000Y-45000000D01*
X217000000Y-45000000D02*
X217000000Y-45750000D01*
X217000000Y-45750000D02*
X217000000Y-45000000D01*
X167000000Y-50000000D02*
X167000000Y-48000000D01*
X167000000Y-48000000D02*
X164000000Y-44500000D01*
X192000000Y-50000000D02*
X192000000Y-48000000D01*
X192000000Y-48000000D02*
X189000000Y-45000000D01*
X164000000Y-44500000D02*
X189000000Y-45000000D01*
D36*
X135000000Y-99000000D02*
X136500000Y-97500000D01*
X136500000Y-97500000D02*
X141420000Y-97500000D01*
X141420000Y-97500000D02*
X141500000Y-97420000D01*
X146880000Y-97000000D02*
X141920000Y-97000000D01*
X141920000Y-97000000D02*
X141500000Y-97420000D01*
X141500000Y-102500000D02*
X145880000Y-102500000D01*
X145880000Y-102500000D02*
X146880000Y-103500000D01*
X135000000Y-102000000D02*
X141000000Y-102000000D01*
X141000000Y-102000000D02*
X141500000Y-102500000D01*
X154500000Y-103500000D02*
X154750000Y-103500000D01*
X154750000Y-103500000D02*
X156250000Y-105000000D01*
X177200000Y-105000000D02*
X178500000Y-103700000D01*
X156250000Y-105000000D02*
X177200000Y-105000000D01*
X141500000Y-99960000D02*
X154500000Y-99960000D01*
X154500000Y-99960000D02*
X154500000Y-100000000D01*
X154500000Y-97000000D02*
X154500000Y-100000000D01*
X154500000Y-100000000D02*
X154500000Y-103500000D01*
X136250000Y-84750000D02*
X136250000Y-86250000D01*
X138750000Y-88750000D02*
X144630000Y-88750000D01*
X136250000Y-86250000D02*
X138750000Y-88750000D01*
X136250000Y-82210000D02*
X136250000Y-84750000D01*
M02*
