G04 #@! TF.FileFunction,Copper,L2,Bot,Signal*
%FSLAX46Y46*%
G04 Gerber Fmt 4.6, Leading zero omitted, Abs format (unit mm)*
G04 Created by KiCad (PCBNEW 4.0.7) date 10/19/20 23:38:23*
%MOMM*%
%LPD*%
G01*
G04 APERTURE LIST*
%ADD10C,0.100000*%
%ADD11C,1.520000*%
%ADD12R,1.520000X1.520000*%
%ADD13C,1.600000*%
%ADD14O,1.600000X1.600000*%
%ADD15R,2.200000X2.200000*%
%ADD16O,2.200000X2.200000*%
%ADD17R,2.400000X2.400000*%
%ADD18C,2.400000*%
%ADD19C,2.200000*%
%ADD20C,2.000000*%
%ADD21R,1.600000X1.600000*%
%ADD22R,2.000000X2.000000*%
%ADD23R,1.800000X1.800000*%
%ADD24C,1.800000*%
%ADD25C,1.440000*%
%ADD26O,2.400000X2.400000*%
%ADD27R,4.300000X4.500000*%
%ADD28O,2.500000X4.500000*%
%ADD29O,4.300000X4.500000*%
%ADD30C,2.800000*%
%ADD31O,2.800000X2.800000*%
%ADD32C,5.500000*%
%ADD33C,4.064000*%
%ADD34O,1.800000X1.800000*%
%ADD35R,1.700000X1.700000*%
%ADD36O,1.700000X1.700000*%
%ADD37R,3.000000X3.000000*%
%ADD38C,3.000000*%
%ADD39C,1.500000*%
%ADD40C,1.000000*%
%ADD41C,0.500000*%
%ADD42C,4.000000*%
%ADD43C,2.000000*%
G04 APERTURE END LIST*
D10*
D11*
X89390000Y-84800000D03*
X91930000Y-84800000D03*
D12*
X86850000Y-84800000D03*
D13*
X105800000Y-81200000D03*
D14*
X105800000Y-68500000D03*
D15*
X199200000Y-68600000D03*
D16*
X199200000Y-76220000D03*
D17*
X54625000Y-80250000D03*
D18*
X54625000Y-72750000D03*
D19*
X176860000Y-102740000D03*
X176860000Y-97660000D03*
X181940000Y-97660000D03*
X181940000Y-102740000D03*
D20*
X179400000Y-100200000D03*
D21*
X193400000Y-70400000D03*
D13*
X195900000Y-70400000D03*
D11*
X117340000Y-98800000D03*
X119880000Y-98800000D03*
D12*
X114800000Y-98800000D03*
D13*
X186200000Y-73000000D03*
D14*
X178580000Y-73000000D03*
D13*
X133800000Y-98000000D03*
D14*
X126300000Y-98000000D03*
D13*
X92730000Y-90190000D03*
D14*
X100230000Y-90190000D03*
D13*
X69200000Y-104200000D03*
X69200000Y-99200000D03*
X196400000Y-74800000D03*
X191400000Y-74800000D03*
X74000000Y-104200000D03*
X74000000Y-99200000D03*
D22*
X77000000Y-79125000D03*
D20*
X77000000Y-84125000D03*
D22*
X72800000Y-94400000D03*
D20*
X72800000Y-89400000D03*
D13*
X103000000Y-93600000D03*
X108000000Y-93600000D03*
X154600000Y-92800000D03*
D14*
X144600000Y-92800000D03*
D13*
X232200000Y-91300000D03*
D14*
X232200000Y-81300000D03*
D13*
X84800000Y-68600000D03*
D14*
X84800000Y-78600000D03*
D17*
X257400000Y-78800000D03*
D18*
X257400000Y-71300000D03*
D13*
X232200000Y-68600000D03*
D14*
X232200000Y-78600000D03*
D15*
X52800000Y-103000000D03*
D16*
X45180000Y-103000000D03*
D23*
X199000000Y-79000000D03*
D24*
X199000000Y-81540000D03*
D21*
X145400000Y-69000000D03*
D14*
X145400000Y-61380000D03*
D21*
X155400000Y-61400000D03*
D14*
X155400000Y-69020000D03*
D15*
X68975000Y-77200000D03*
D16*
X68975000Y-69580000D03*
D13*
X144600000Y-97800000D03*
D14*
X152220000Y-97800000D03*
D13*
X164200000Y-95400000D03*
D14*
X171820000Y-95400000D03*
D13*
X96600000Y-75800000D03*
D14*
X96600000Y-68180000D03*
D13*
X91800000Y-75800000D03*
D14*
X91800000Y-68180000D03*
D13*
X100360000Y-93520000D03*
D14*
X92740000Y-93520000D03*
D13*
X134000000Y-101200000D03*
D14*
X126380000Y-101200000D03*
D13*
X134000000Y-104400000D03*
D14*
X126380000Y-104400000D03*
D13*
X152200000Y-101200000D03*
D14*
X144580000Y-101200000D03*
D13*
X152200000Y-104400000D03*
D14*
X144580000Y-104400000D03*
D25*
X139000000Y-103600000D03*
X139000000Y-101060000D03*
X139000000Y-98520000D03*
D18*
X188500000Y-90200000D03*
D26*
X188500000Y-102900000D03*
D13*
X188850000Y-68750000D03*
D14*
X188850000Y-76370000D03*
D18*
X64925000Y-90700000D03*
D26*
X64925000Y-78000000D03*
D13*
X82800000Y-96600000D03*
D14*
X82800000Y-104220000D03*
D13*
X79000000Y-96800000D03*
D14*
X79000000Y-104420000D03*
D13*
X192750000Y-83750000D03*
D14*
X192750000Y-96450000D03*
D13*
X101600000Y-75800000D03*
D14*
X101600000Y-68180000D03*
D13*
X146100000Y-81600000D03*
D14*
X153720000Y-81600000D03*
D25*
X141150000Y-83850000D03*
X138610000Y-83850000D03*
X136070000Y-83850000D03*
D13*
X153750000Y-84750000D03*
D14*
X146130000Y-84750000D03*
D13*
X186200000Y-76200000D03*
D14*
X178580000Y-76200000D03*
D13*
X128250000Y-69000000D03*
D14*
X120630000Y-69000000D03*
D18*
X182600000Y-69200000D03*
D26*
X167360000Y-69200000D03*
D13*
X133250000Y-69000000D03*
D14*
X133250000Y-61380000D03*
D13*
X185600000Y-69400000D03*
D14*
X185600000Y-61780000D03*
D18*
X28250000Y-65500000D03*
D26*
X40950000Y-65500000D03*
D18*
X260750000Y-65000000D03*
D26*
X248050000Y-65000000D03*
D13*
X226800000Y-82400000D03*
D14*
X226800000Y-69700000D03*
D27*
X40000000Y-50000000D03*
D28*
X45450000Y-50000000D03*
D29*
X50900000Y-50000000D03*
D27*
X242000000Y-50000000D03*
D28*
X247450000Y-50000000D03*
D29*
X252900000Y-50000000D03*
D27*
X65000000Y-50000000D03*
D28*
X70450000Y-50000000D03*
D29*
X75900000Y-50000000D03*
D27*
X217000000Y-50000000D03*
D28*
X222450000Y-50000000D03*
D29*
X227900000Y-50000000D03*
D27*
X90000000Y-50000000D03*
D28*
X95450000Y-50000000D03*
D29*
X100900000Y-50000000D03*
D27*
X192000000Y-50000000D03*
D28*
X197450000Y-50000000D03*
D29*
X202900000Y-50000000D03*
D27*
X115000000Y-50000000D03*
D28*
X120450000Y-50000000D03*
D29*
X125900000Y-50000000D03*
D27*
X167000000Y-50000000D03*
D28*
X172450000Y-50000000D03*
D29*
X177900000Y-50000000D03*
D30*
X27800000Y-59000000D03*
D31*
X48120000Y-59000000D03*
D30*
X264000000Y-59000000D03*
D31*
X243680000Y-59000000D03*
D30*
X55000000Y-59000000D03*
D31*
X75320000Y-59000000D03*
D30*
X237200000Y-59400000D03*
D31*
X216880000Y-59400000D03*
D30*
X82000000Y-59000000D03*
D31*
X102320000Y-59000000D03*
D30*
X210400000Y-59600000D03*
D31*
X190080000Y-59600000D03*
D30*
X109000000Y-59000000D03*
D31*
X129320000Y-59000000D03*
D30*
X182200000Y-59200000D03*
D31*
X161880000Y-59200000D03*
D32*
X262000000Y-102000000D03*
D33*
X262000000Y-47000000D03*
D32*
X30000000Y-102000000D03*
D33*
X30000000Y-47000000D03*
D17*
X39850000Y-80250000D03*
D18*
X39850000Y-72750000D03*
D17*
X54825000Y-95000000D03*
D18*
X54825000Y-87500000D03*
D17*
X242000000Y-78800000D03*
D18*
X242000000Y-71300000D03*
D17*
X253000000Y-94200000D03*
D18*
X253000000Y-86700000D03*
X130700000Y-72900000D03*
D26*
X115460000Y-72900000D03*
D19*
X158600000Y-91200000D03*
X173600000Y-91200000D03*
D23*
X123450000Y-81750000D03*
D34*
X120910000Y-81750000D03*
X118370000Y-81750000D03*
D23*
X147000000Y-73500000D03*
D34*
X149540000Y-73500000D03*
X152080000Y-73500000D03*
D23*
X169000000Y-79000000D03*
D34*
X166460000Y-79000000D03*
X163920000Y-79000000D03*
D23*
X137000000Y-47500000D03*
D34*
X139540000Y-47500000D03*
X142080000Y-47500000D03*
D23*
X151000000Y-47500000D03*
D34*
X153540000Y-47500000D03*
X156080000Y-47500000D03*
D30*
X209600000Y-82000000D03*
X209600000Y-70570000D03*
D18*
X221000000Y-69400000D03*
D26*
X221000000Y-84640000D03*
D11*
X117460000Y-102800000D03*
X114920000Y-102800000D03*
D12*
X120000000Y-102800000D03*
D11*
X98710000Y-84600000D03*
X96170000Y-84600000D03*
D12*
X101250000Y-84600000D03*
D11*
X97000000Y-99060000D03*
X97000000Y-96520000D03*
D12*
X97000000Y-101600000D03*
D11*
X89400000Y-99060000D03*
X89400000Y-96520000D03*
D12*
X89400000Y-101600000D03*
D11*
X184260000Y-85600000D03*
X181720000Y-85600000D03*
D12*
X186800000Y-85600000D03*
D11*
X104660000Y-98800000D03*
X102120000Y-98800000D03*
D12*
X107200000Y-98800000D03*
D11*
X139740000Y-69100000D03*
X142280000Y-69100000D03*
D12*
X137200000Y-69100000D03*
D11*
X160660000Y-68800000D03*
X158120000Y-68800000D03*
D12*
X163200000Y-68800000D03*
D15*
X28600000Y-71200000D03*
D16*
X28600000Y-78820000D03*
D15*
X248000000Y-100000000D03*
D16*
X255620000Y-100000000D03*
D15*
X28600000Y-81600000D03*
D16*
X28600000Y-89220000D03*
D15*
X248000000Y-103000000D03*
D16*
X255620000Y-103000000D03*
D13*
X65000000Y-104200000D03*
D14*
X65000000Y-94200000D03*
D13*
X193900000Y-102900000D03*
D14*
X206600000Y-102900000D03*
D13*
X121575000Y-92825000D03*
D14*
X131575000Y-92825000D03*
D13*
X134910000Y-92960000D03*
X139910000Y-92960000D03*
X110800000Y-92800000D03*
D14*
X118420000Y-92800000D03*
D35*
X263460000Y-93540000D03*
D36*
X263460000Y-96080000D03*
D35*
X28770000Y-94110000D03*
D36*
X28770000Y-96650000D03*
D37*
X227000000Y-97900000D03*
D38*
X221920000Y-97900000D03*
D37*
X227000000Y-102980000D03*
D38*
X221920000Y-102980000D03*
D37*
X242600000Y-88000000D03*
D38*
X237520000Y-88000000D03*
D37*
X242600000Y-93080000D03*
D38*
X237520000Y-93080000D03*
D37*
X42000000Y-88000000D03*
D38*
X36920000Y-88000000D03*
D37*
X42000000Y-93080000D03*
D38*
X36920000Y-93080000D03*
D37*
X164125000Y-101850000D03*
D38*
X159045000Y-101850000D03*
D13*
X103450000Y-90330000D03*
X108450000Y-90330000D03*
D39*
X155900000Y-87400000D03*
X82800000Y-89200000D03*
D40*
X158600000Y-91200000D02*
X158600000Y-97000000D01*
X158600000Y-97000000D02*
X159400000Y-97800000D01*
X152220000Y-97800000D02*
X159400000Y-97800000D01*
X159400000Y-97800000D02*
X161800000Y-97800000D01*
X161800000Y-97800000D02*
X164200000Y-95400000D01*
X179400000Y-100200000D02*
X171600000Y-100200000D01*
X172400000Y-100000000D02*
X172400000Y-99400000D01*
X171800000Y-100000000D02*
X172400000Y-100000000D01*
X171600000Y-100200000D02*
X171800000Y-100000000D01*
X164125000Y-101850000D02*
X169950000Y-101850000D01*
X173600000Y-98200000D02*
X173600000Y-91200000D01*
X169950000Y-101850000D02*
X172400000Y-99400000D01*
X172400000Y-99400000D02*
X173600000Y-98200000D01*
X164125000Y-101850000D02*
X164725000Y-101850000D01*
D41*
X159025000Y-102000000D02*
X159025000Y-101250000D01*
D40*
X126300000Y-97570000D02*
X127670000Y-95170000D01*
X127670000Y-95170000D02*
X143170000Y-95170000D01*
X143170000Y-95170000D02*
X144600000Y-97800000D01*
X126300000Y-98000000D02*
X126300000Y-97570000D01*
X126300000Y-98000000D02*
X126300000Y-97950000D01*
D41*
X126300000Y-98000000D02*
X126300000Y-97500000D01*
X126300000Y-98000000D02*
X126550000Y-98000000D01*
X144100000Y-97800000D02*
X144600000Y-97800000D01*
D40*
X92810000Y-90270000D02*
X92730000Y-90190000D01*
D41*
X92810000Y-90270000D02*
X92730000Y-90190000D01*
D40*
X92730000Y-90190000D02*
X92730000Y-93510000D01*
X92730000Y-93510000D02*
X92740000Y-93520000D01*
X92790000Y-93520000D02*
X92740000Y-93520000D01*
D41*
X92660000Y-93440000D02*
X92740000Y-93520000D01*
D40*
X98710000Y-84600000D02*
X98710000Y-88670000D01*
X98710000Y-88670000D02*
X100230000Y-90190000D01*
X91930000Y-84800000D02*
X91930000Y-83870000D01*
X96960000Y-82100000D02*
X98710000Y-84600000D01*
X93700000Y-82100000D02*
X96960000Y-82100000D01*
X91930000Y-83870000D02*
X93700000Y-82100000D01*
X89390000Y-84800000D02*
X89390000Y-96510000D01*
X89390000Y-96510000D02*
X89400000Y-96520000D01*
X91930000Y-84800000D02*
X89390000Y-84800000D01*
X89200000Y-96320000D02*
X89400000Y-96520000D01*
X97000000Y-99060000D02*
X89400000Y-99060000D01*
X89400000Y-99060000D02*
X89140000Y-99060000D01*
X71800000Y-101800000D02*
X69200000Y-99200000D01*
X84200000Y-101800000D02*
X71800000Y-101800000D01*
X89140000Y-99060000D02*
X84200000Y-101800000D01*
X69200000Y-99200000D02*
X59400000Y-99200000D01*
X59400000Y-99200000D02*
X59200000Y-99400000D01*
X64925000Y-90700000D02*
X62100000Y-90700000D01*
X55600000Y-103000000D02*
X52800000Y-103000000D01*
X59200000Y-99400000D02*
X55600000Y-103000000D01*
X59200000Y-93600000D02*
X59200000Y-99400000D01*
X62100000Y-90700000D02*
X59200000Y-93600000D01*
X89450000Y-99110000D02*
X89400000Y-99060000D01*
X64925000Y-90700000D02*
X64925000Y-90825000D01*
D41*
X89800000Y-98660000D02*
X89400000Y-99060000D01*
D42*
X237520000Y-93080000D02*
X237520000Y-88000000D01*
X237520000Y-88000000D02*
X237520000Y-84880000D01*
X249600000Y-83300000D02*
X250600000Y-84300000D01*
X239100000Y-83300000D02*
X249600000Y-83300000D01*
X237520000Y-84880000D02*
X239100000Y-83300000D01*
D40*
X199000000Y-76420000D02*
X199200000Y-76220000D01*
X199000000Y-79000000D02*
X199000000Y-76420000D01*
X195900000Y-70400000D02*
X195900000Y-74300000D01*
X195900000Y-74300000D02*
X196400000Y-74800000D01*
X196400000Y-74800000D02*
X197780000Y-74800000D01*
X197780000Y-74800000D02*
X199200000Y-76220000D01*
X182600000Y-69200000D02*
X182600000Y-66400000D01*
X182600000Y-66400000D02*
X184000000Y-65000000D01*
X186200000Y-76200000D02*
X186200000Y-75800000D01*
X186200000Y-75800000D02*
X189000000Y-73000000D01*
X189000000Y-73000000D02*
X188850000Y-68750000D01*
X188850000Y-68750000D02*
X189000000Y-65500000D01*
X189000000Y-65500000D02*
X189500000Y-65000000D01*
X198480000Y-75500000D02*
X199200000Y-76220000D01*
X195900000Y-70400000D02*
X195300000Y-65000000D01*
X195400000Y-66200000D02*
X195400000Y-65000000D01*
X195400000Y-65100000D02*
X195400000Y-66200000D01*
X195300000Y-65000000D02*
X195400000Y-65100000D01*
X198500000Y-78500000D02*
X199000000Y-79000000D01*
D43*
X255620000Y-100000000D02*
X255620000Y-97380000D01*
X257000000Y-90700000D02*
X253000000Y-86700000D01*
X257000000Y-96000000D02*
X257000000Y-90700000D01*
X255620000Y-97380000D02*
X257000000Y-96000000D01*
X247450000Y-50000000D02*
X247450000Y-54150000D01*
X247450000Y-54150000D02*
X247000000Y-54600000D01*
D40*
X199200000Y-76220000D02*
X199200000Y-75600000D01*
X189750000Y-65000000D02*
X189500000Y-65250000D01*
X189500000Y-65250000D02*
X189500000Y-66400000D01*
X189500000Y-66400000D02*
X189500000Y-65000000D01*
D43*
X232200000Y-68600000D02*
X232200000Y-68000000D01*
X232200000Y-68000000D02*
X235200000Y-65000000D01*
D42*
X242000000Y-71300000D02*
X246300000Y-71300000D01*
X250600000Y-84300000D02*
X253000000Y-86700000D01*
X250600000Y-75600000D02*
X250600000Y-84300000D01*
X246300000Y-71300000D02*
X250600000Y-75600000D01*
X242000000Y-71300000D02*
X257400000Y-71300000D01*
X224000000Y-65000000D02*
X235200000Y-65000000D01*
X235200000Y-65000000D02*
X235700000Y-65000000D01*
X235700000Y-65000000D02*
X242000000Y-71300000D01*
D43*
X172450000Y-50000000D02*
X172450000Y-63450000D01*
X172450000Y-63450000D02*
X173750000Y-64750000D01*
X173750000Y-64750000D02*
X174000000Y-65000000D01*
X153540000Y-47500000D02*
X153540000Y-52540000D01*
X156000000Y-55000000D02*
X172450000Y-55000000D01*
X153540000Y-52540000D02*
X156000000Y-55000000D01*
D41*
X174000000Y-65000000D02*
X173500000Y-65000000D01*
X173500000Y-65000000D02*
X173250000Y-65250000D01*
X173250000Y-65250000D02*
X173250000Y-64250000D01*
D43*
X173250000Y-64250000D02*
X174000000Y-65000000D01*
X222450000Y-50000000D02*
X222450000Y-63450000D01*
X222450000Y-63450000D02*
X224000000Y-65000000D01*
X197450000Y-50000000D02*
X197450000Y-58450000D01*
X197450000Y-58450000D02*
X204000000Y-65000000D01*
X172450000Y-50000000D02*
X172450000Y-55000000D01*
D42*
X174000000Y-65000000D02*
X176000000Y-65000000D01*
X184000000Y-65000000D02*
X189500000Y-65000000D01*
X189500000Y-65000000D02*
X189750000Y-65000000D01*
X176000000Y-65000000D02*
X184000000Y-65000000D01*
X189750000Y-65000000D02*
X195400000Y-65000000D01*
X195400000Y-65000000D02*
X195800000Y-65000000D01*
X195800000Y-65000000D02*
X196000000Y-65000000D01*
X200000000Y-65000000D02*
X204000000Y-65000000D01*
X196000000Y-65000000D02*
X200000000Y-65000000D01*
X204000000Y-65000000D02*
X207000000Y-65000000D01*
X224000000Y-65000000D02*
X222000000Y-65000000D01*
X222000000Y-65000000D02*
X207000000Y-65000000D01*
D40*
X195400000Y-70400000D02*
X195700000Y-70400000D01*
D41*
X195400000Y-70400000D02*
X195400000Y-70650000D01*
D40*
X79000000Y-104420000D02*
X74220000Y-104420000D01*
X74220000Y-104420000D02*
X74000000Y-104200000D01*
X82800000Y-104220000D02*
X79200000Y-104220000D01*
X79200000Y-104220000D02*
X79000000Y-104420000D01*
X89600000Y-105400000D02*
X85400000Y-105400000D01*
X85400000Y-105400000D02*
X82800000Y-104220000D01*
X116200000Y-105400000D02*
X89600000Y-105400000D01*
D41*
X79520000Y-104695000D02*
X79350000Y-104525000D01*
X79430000Y-104445000D02*
X79350000Y-104525000D01*
X78870000Y-104550000D02*
X79000000Y-104420000D01*
X79150000Y-104570000D02*
X79000000Y-104420000D01*
D40*
X117460000Y-102800000D02*
X116460000Y-105140000D01*
X116460000Y-105140000D02*
X116200000Y-105400000D01*
D42*
X227000000Y-97900000D02*
X227000000Y-102980000D01*
X221000000Y-84640000D02*
X221240000Y-84640000D01*
X221240000Y-84640000D02*
X227000000Y-90400000D01*
X227000000Y-90400000D02*
X227000000Y-97900000D01*
X209600000Y-82000000D02*
X211400000Y-82000000D01*
X218360000Y-82000000D02*
X221000000Y-84640000D01*
X211400000Y-82000000D02*
X218360000Y-82000000D01*
D40*
X72800000Y-89400000D02*
X72800000Y-88325000D01*
X72800000Y-88325000D02*
X77000000Y-84125000D01*
X77000000Y-84125000D02*
X76625000Y-84125000D01*
X76625000Y-84125000D02*
X77125000Y-83325000D01*
X139910000Y-92960000D02*
X139910000Y-92910000D01*
X139910000Y-92910000D02*
X132150000Y-85150000D01*
X120910000Y-84360000D02*
X120910000Y-81750000D01*
X121700000Y-85150000D02*
X120910000Y-84360000D01*
X132150000Y-85150000D02*
X121700000Y-85150000D01*
X149540000Y-73500000D02*
X149540000Y-65520000D01*
X149540000Y-65520000D02*
X145400000Y-61380000D01*
X121300000Y-82140000D02*
X120910000Y-81750000D01*
X149540000Y-81200000D02*
X149540000Y-89860000D01*
X146600000Y-92800000D02*
X144600000Y-92800000D01*
X149540000Y-89860000D02*
X146600000Y-92800000D01*
X144600000Y-92800000D02*
X140070000Y-92800000D01*
X140070000Y-92800000D02*
X139910000Y-92960000D01*
X139910000Y-92960000D02*
X140040000Y-92960000D01*
X153720000Y-81600000D02*
X150350000Y-81250000D01*
X150350000Y-81250000D02*
X149540000Y-82060000D01*
X149540000Y-73500000D02*
X149540000Y-81200000D01*
X149540000Y-81200000D02*
X149540000Y-82060000D01*
D41*
X145100000Y-92300000D02*
X144600000Y-92800000D01*
X120750000Y-81910000D02*
X120910000Y-81750000D01*
X144480000Y-92920000D02*
X144600000Y-92800000D01*
D40*
X153750000Y-84750000D02*
X151850000Y-84750000D01*
X153000000Y-92800000D02*
X154600000Y-92800000D01*
X151400000Y-91200000D02*
X153000000Y-92800000D01*
X151400000Y-85200000D02*
X151400000Y-91200000D01*
X151850000Y-84750000D02*
X151400000Y-85200000D01*
X166460000Y-79000000D02*
X166460000Y-79415000D01*
X166460000Y-79415000D02*
X166000000Y-81000000D01*
X166000000Y-81000000D02*
X156500000Y-81100000D01*
X153750000Y-84750000D02*
X154950000Y-84750000D01*
X156500000Y-77920000D02*
X152080000Y-73500000D01*
X156500000Y-83200000D02*
X156500000Y-81100000D01*
X156500000Y-81100000D02*
X156500000Y-77920000D01*
X154950000Y-84750000D02*
X156500000Y-83200000D01*
X152080000Y-73500000D02*
X152080000Y-73980000D01*
X152080000Y-73500000D02*
X152080000Y-64420000D01*
X152080000Y-64420000D02*
X155400000Y-61400000D01*
D41*
X153750000Y-84750000D02*
X153750000Y-85500000D01*
X166460000Y-79790000D02*
X166460000Y-79000000D01*
X152600000Y-74020000D02*
X152080000Y-73500000D01*
X155400000Y-62150000D02*
X155400000Y-61400000D01*
X155230000Y-61230000D02*
X155400000Y-61400000D01*
D42*
X54825000Y-95000000D02*
X43920000Y-95000000D01*
X43920000Y-95000000D02*
X42000000Y-93080000D01*
X42000000Y-93080000D02*
X42000000Y-88000000D01*
D40*
X105800000Y-68500000D02*
X105800000Y-66300000D01*
X105800000Y-66300000D02*
X104500000Y-65000000D01*
X101600000Y-68180000D02*
X101600000Y-65300000D01*
X101600000Y-65300000D02*
X101300000Y-65000000D01*
X91800000Y-68180000D02*
X91800000Y-65800000D01*
X91800000Y-65800000D02*
X91000000Y-65000000D01*
X96600000Y-68180000D02*
X96600000Y-64400000D01*
X97000000Y-64800000D02*
X97000000Y-65000000D01*
X96600000Y-64400000D02*
X97000000Y-64800000D01*
D43*
X84800000Y-68600000D02*
X84800000Y-65950000D01*
X84800000Y-65950000D02*
X85750000Y-65000000D01*
D40*
X39850000Y-80250000D02*
X38650000Y-80250000D01*
X38650000Y-80250000D02*
X29600000Y-71200000D01*
X29600000Y-71200000D02*
X28600000Y-71200000D01*
D43*
X64925000Y-78000000D02*
X56875000Y-78000000D01*
X56875000Y-78000000D02*
X54625000Y-80250000D01*
D42*
X42000000Y-88000000D02*
X43375000Y-88000000D01*
X43375000Y-88000000D02*
X47700000Y-85975000D01*
X47700000Y-85975000D02*
X47700000Y-76950000D01*
X54625000Y-80250000D02*
X51000000Y-80250000D01*
X51000000Y-80250000D02*
X47700000Y-76950000D01*
X47700000Y-76950000D02*
X47250000Y-76500000D01*
X39850000Y-80250000D02*
X43625000Y-80250000D01*
X47250000Y-70650000D02*
X52575676Y-65324324D01*
X47250000Y-76625000D02*
X47250000Y-76500000D01*
X47250000Y-76500000D02*
X47250000Y-70650000D01*
X43625000Y-80250000D02*
X47250000Y-76625000D01*
D43*
X68975000Y-77200000D02*
X65725000Y-77200000D01*
X65725000Y-77200000D02*
X64925000Y-78000000D01*
D40*
X96000000Y-65000000D02*
X95800000Y-65200000D01*
X95800000Y-65200000D02*
X95800000Y-65900000D01*
X95800000Y-65900000D02*
X95800000Y-65200000D01*
D42*
X97000000Y-64000000D02*
X95800000Y-65200000D01*
X95800000Y-65200000D02*
X96000000Y-65000000D01*
X97000000Y-65000000D02*
X99000000Y-65000000D01*
X97000000Y-64000000D02*
X97000000Y-65000000D01*
D40*
X115460000Y-72900000D02*
X115460000Y-66460000D01*
X115460000Y-66460000D02*
X114000000Y-65000000D01*
D42*
X42000000Y-88000000D02*
X42000000Y-87100000D01*
D41*
X96000000Y-65000000D02*
X96250000Y-65250000D01*
X96250000Y-65250000D02*
X96250000Y-65450000D01*
X96250000Y-65450000D02*
X96250000Y-65250000D01*
D42*
X64945946Y-65324324D02*
X59925676Y-65324324D01*
X59925676Y-65324324D02*
X57275676Y-65324324D01*
X57275676Y-65324324D02*
X52575676Y-65324324D01*
X52575676Y-65324324D02*
X49675676Y-65324324D01*
X49675676Y-65324324D02*
X50324324Y-65324324D01*
X50324324Y-65324324D02*
X50000000Y-65000000D01*
D43*
X139540000Y-47500000D02*
X139540000Y-51460000D01*
X136000000Y-55000000D02*
X120450000Y-55000000D01*
X139540000Y-51460000D02*
X136000000Y-55000000D01*
D41*
X104500000Y-65000000D02*
X104500000Y-65500000D01*
X104500000Y-65500000D02*
X104500000Y-65000000D01*
X99000000Y-65000000D02*
X99000000Y-65500000D01*
X99000000Y-65500000D02*
X99000000Y-65000000D01*
D43*
X45450000Y-50000000D02*
X45450000Y-63200000D01*
X45450000Y-63200000D02*
X47250000Y-65000000D01*
X47250000Y-65000000D02*
X50000000Y-65000000D01*
X91000000Y-65000000D02*
X91000000Y-66000000D01*
X91000000Y-66000000D02*
X91000000Y-65000000D01*
D42*
X64945946Y-65324324D02*
X65000000Y-65000000D01*
D43*
X95450000Y-64450000D02*
X96250000Y-65250000D01*
X96250000Y-65250000D02*
X96000000Y-65000000D01*
D42*
X96000000Y-65000000D02*
X91000000Y-65000000D01*
X91000000Y-65000000D02*
X85750000Y-65000000D01*
X85750000Y-65000000D02*
X81000000Y-65000000D01*
X81000000Y-65000000D02*
X75950000Y-65000000D01*
X75950000Y-65000000D02*
X70000000Y-65000000D01*
X70000000Y-65000000D02*
X65000000Y-65000000D01*
X99000000Y-65000000D02*
X101300000Y-65000000D01*
X101300000Y-65000000D02*
X104500000Y-65000000D01*
X104500000Y-65000000D02*
X106875000Y-65000000D01*
X106875000Y-65000000D02*
X109300000Y-65000000D01*
X109300000Y-65000000D02*
X111000000Y-65000000D01*
X111000000Y-65000000D02*
X114000000Y-65000000D01*
X114000000Y-65000000D02*
X116000000Y-65000000D01*
D43*
X120450000Y-60000000D02*
X120450000Y-60550000D01*
X120450000Y-60550000D02*
X118250000Y-62750000D01*
X118250000Y-62750000D02*
X116000000Y-65000000D01*
X70450000Y-65000000D02*
X70000000Y-65450000D01*
X120450000Y-50000000D02*
X120450000Y-55000000D01*
X120450000Y-55000000D02*
X120450000Y-55250000D01*
X120450000Y-55250000D02*
X120450000Y-60000000D01*
X95450000Y-50000000D02*
X95450000Y-64450000D01*
X70450000Y-50000000D02*
X70450000Y-65000000D01*
D40*
X145400000Y-69000000D02*
X142380000Y-69000000D01*
X142380000Y-69000000D02*
X142280000Y-69100000D01*
X158120000Y-68800000D02*
X155620000Y-68800000D01*
X155620000Y-68800000D02*
X155400000Y-69020000D01*
X155400000Y-69020000D02*
X155400000Y-68600000D01*
D41*
X158120000Y-68800000D02*
X158120000Y-68880000D01*
X155400000Y-69020000D02*
X156030000Y-69020000D01*
X155530000Y-69150000D02*
X155400000Y-69020000D01*
X155630000Y-69250000D02*
X155400000Y-69020000D01*
D40*
X97000000Y-101600000D02*
X110800000Y-101600000D01*
X117600000Y-96000000D02*
X119880000Y-98280000D01*
X113200000Y-96000000D02*
X117600000Y-96000000D01*
X112200000Y-97000000D02*
X113200000Y-96000000D01*
X112200000Y-100200000D02*
X112200000Y-97000000D01*
X110800000Y-101600000D02*
X112200000Y-100200000D01*
X119880000Y-98280000D02*
X119880000Y-98800000D01*
D41*
X97000000Y-101600000D02*
X97600000Y-101600000D01*
X97000000Y-101600000D02*
X97000000Y-101450000D01*
D40*
X114800000Y-98800000D02*
X114800000Y-99800000D01*
X116000000Y-101000000D02*
X126180000Y-101000000D01*
X114800000Y-99800000D02*
X116000000Y-101000000D01*
X126180000Y-101000000D02*
X126380000Y-101200000D01*
X126380000Y-101200000D02*
X125600000Y-101200000D01*
X114920000Y-102800000D02*
X114200000Y-102800000D01*
X114200000Y-102800000D02*
X110200000Y-103800000D01*
X110200000Y-103800000D02*
X91000000Y-103800000D01*
X91000000Y-103800000D02*
X89400000Y-101600000D01*
X120000000Y-102800000D02*
X120000000Y-103600000D01*
X120800000Y-104400000D02*
X126380000Y-104400000D01*
X120000000Y-103600000D02*
X120800000Y-104400000D01*
D41*
X126040000Y-104740000D02*
X126380000Y-104400000D01*
D40*
X181720000Y-85600000D02*
X181720000Y-87920000D01*
X184000000Y-90200000D02*
X188500000Y-90200000D01*
X181720000Y-87920000D02*
X184000000Y-90200000D01*
D41*
X187830000Y-89530000D02*
X188500000Y-90200000D01*
D40*
X188850000Y-76370000D02*
X189000000Y-83400000D01*
X189000000Y-83400000D02*
X186800000Y-85600000D01*
X105800000Y-81200000D02*
X117820000Y-81200000D01*
X117820000Y-81200000D02*
X118370000Y-81750000D01*
X107200000Y-98800000D02*
X107200000Y-96700000D01*
X103500000Y-77200000D02*
X103000000Y-76700000D01*
X103500000Y-84000000D02*
X103500000Y-77200000D01*
X105500000Y-86000000D02*
X103500000Y-84000000D01*
X105500000Y-95000000D02*
X105500000Y-86000000D01*
X107200000Y-96700000D02*
X105500000Y-95000000D01*
X123450000Y-81750000D02*
X123450000Y-78300000D01*
X121850000Y-76700000D02*
X103000000Y-76700000D01*
X123450000Y-78300000D02*
X121850000Y-76700000D01*
X103000000Y-76700000D02*
X103000000Y-75800000D01*
X101600000Y-75800000D02*
X103000000Y-75800000D01*
X139440000Y-71360000D02*
X139740000Y-69100000D01*
X137900000Y-72900000D02*
X139440000Y-71360000D01*
X130700000Y-72900000D02*
X137900000Y-72900000D01*
X130300000Y-69000000D02*
X130300000Y-72500000D01*
X130300000Y-72500000D02*
X130700000Y-72900000D01*
X133250000Y-69000000D02*
X130300000Y-69000000D01*
X130300000Y-69000000D02*
X128250000Y-69000000D01*
D41*
X130400000Y-72600000D02*
X130700000Y-72900000D01*
D40*
X167360000Y-69200000D02*
X176180000Y-69200000D01*
X176180000Y-69200000D02*
X178580000Y-73000000D01*
X178580000Y-73000000D02*
X183600000Y-73000000D01*
X183600000Y-73000000D02*
X185600000Y-70000000D01*
X185600000Y-70000000D02*
X185600000Y-69400000D01*
X160660000Y-68800000D02*
X160660000Y-69060000D01*
X160660000Y-69060000D02*
X162400000Y-70800000D01*
X162400000Y-70800000D02*
X165360000Y-70800000D01*
X165360000Y-70800000D02*
X167360000Y-69200000D01*
X139000000Y-98520000D02*
X135980000Y-98520000D01*
X135980000Y-98520000D02*
X134000000Y-101200000D01*
X139000000Y-98520000D02*
X141900000Y-98520000D01*
X141900000Y-98520000D02*
X144580000Y-101200000D01*
X143800000Y-101200000D02*
X144580000Y-101200000D01*
X134000000Y-101200000D02*
X134400000Y-101200000D01*
D41*
X134000000Y-101200000D02*
X134250000Y-101200000D01*
X138920000Y-98600000D02*
X139000000Y-98520000D01*
D40*
X139000000Y-103600000D02*
X139000000Y-104000000D01*
X139000000Y-104000000D02*
X140100000Y-104500000D01*
X143880000Y-104500000D02*
X144580000Y-104400000D01*
X140100000Y-104500000D02*
X143880000Y-104500000D01*
X139000000Y-103600000D02*
X139000000Y-104100000D01*
X139000000Y-104100000D02*
X138250000Y-104250000D01*
X138250000Y-104250000D02*
X134000000Y-104400000D01*
D41*
X139000000Y-103600000D02*
X139000000Y-103750000D01*
X139000000Y-103750000D02*
X139350000Y-104100000D01*
X139000000Y-103600000D02*
X138900000Y-103600000D01*
X144080000Y-103900000D02*
X144580000Y-104400000D01*
X139000000Y-103600000D02*
X138875000Y-103600000D01*
D40*
X152200000Y-102800000D02*
X141340000Y-102800000D01*
X141340000Y-102800000D02*
X139000000Y-101060000D01*
X152200000Y-101200000D02*
X152200000Y-102800000D01*
X152200000Y-102800000D02*
X152200000Y-104400000D01*
X152200000Y-104400000D02*
X153690411Y-104958904D01*
X187450000Y-105000000D02*
X188500000Y-102900000D01*
X154900000Y-105000000D02*
X187450000Y-105000000D01*
X153690411Y-104958904D02*
X154900000Y-105000000D01*
D41*
X188500000Y-102900000D02*
X187550000Y-102900000D01*
X152200000Y-104400000D02*
X152450000Y-104400000D01*
D40*
X141150000Y-83850000D02*
X141150000Y-84300000D01*
X141150000Y-84300000D02*
X141600000Y-84750000D01*
X141600000Y-84750000D02*
X146130000Y-84750000D01*
X141150000Y-83850000D02*
X138610000Y-83850000D01*
D41*
X145630000Y-85250000D02*
X146130000Y-84750000D01*
D40*
X136070000Y-83850000D02*
X136070000Y-82580000D01*
X137400000Y-81250000D02*
X145750000Y-81250000D01*
X136070000Y-82580000D02*
X137400000Y-81250000D01*
X145750000Y-81250000D02*
X146100000Y-81600000D01*
X147000000Y-73500000D02*
X147000000Y-80500000D01*
X147000000Y-80500000D02*
X146100000Y-81600000D01*
D41*
X146100000Y-81600000D02*
X146100000Y-81100000D01*
X146250000Y-74250000D02*
X147000000Y-73500000D01*
D40*
X178580000Y-76200000D02*
X175600000Y-76200000D01*
X165400000Y-75400000D02*
X164000000Y-76000000D01*
X174800000Y-75400000D02*
X165400000Y-75400000D01*
X175600000Y-76200000D02*
X174800000Y-75400000D01*
X164000000Y-76000000D02*
X163920000Y-79000000D01*
D41*
X163920000Y-79000000D02*
X163920000Y-79080000D01*
D43*
X65500000Y-44500000D02*
X65500000Y-49500000D01*
X65500000Y-49500000D02*
X65000000Y-50000000D01*
X90500000Y-44500000D02*
X90500000Y-49500000D01*
X90500000Y-49500000D02*
X90000000Y-50000000D01*
X115000000Y-50000000D02*
X115000000Y-45000000D01*
X115000000Y-45000000D02*
X115500000Y-44500000D01*
X40000000Y-50000000D02*
X40000000Y-47000000D01*
X40000000Y-47000000D02*
X42500000Y-44500000D01*
X42500000Y-44500000D02*
X65500000Y-44500000D01*
X65500000Y-44500000D02*
X90500000Y-44500000D01*
X90500000Y-44500000D02*
X115500000Y-44500000D01*
X142080000Y-46080000D02*
X142080000Y-47500000D01*
X115500000Y-44500000D02*
X140500000Y-44500000D01*
X140500000Y-44500000D02*
X142080000Y-46080000D01*
X40000000Y-50000000D02*
X40000000Y-64550000D01*
X40000000Y-64550000D02*
X40950000Y-65500000D01*
X40950000Y-65450000D02*
X40950000Y-65500000D01*
X167000000Y-50000000D02*
X167000000Y-44500000D01*
X166500000Y-45000000D02*
X166500000Y-44500000D01*
X167000000Y-44500000D02*
X166500000Y-45000000D01*
X168000000Y-49000000D02*
X167000000Y-50000000D01*
X192500000Y-44500000D02*
X192500000Y-49500000D01*
X192500000Y-49500000D02*
X192000000Y-50000000D01*
X217000000Y-50000000D02*
X217000000Y-44500000D01*
X217000000Y-44500000D02*
X217000000Y-45000000D01*
X217000000Y-45000000D02*
X217000000Y-44500000D01*
X156080000Y-47500000D02*
X156080000Y-47420000D01*
X156080000Y-47420000D02*
X159000000Y-44500000D01*
X159000000Y-44500000D02*
X166500000Y-44500000D01*
X166500000Y-44500000D02*
X168000000Y-44500000D01*
X168000000Y-44500000D02*
X192500000Y-44500000D01*
X192500000Y-44500000D02*
X217000000Y-44500000D01*
X217000000Y-44500000D02*
X238500000Y-44500000D01*
X238500000Y-44500000D02*
X242000000Y-48000000D01*
X242000000Y-48000000D02*
X242000000Y-50000000D01*
X232200000Y-81300000D02*
X231400000Y-81300000D01*
X231400000Y-81300000D02*
X230300000Y-82400000D01*
X230300000Y-82400000D02*
X226800000Y-82400000D01*
D40*
X96600000Y-75800000D02*
X96600000Y-76850000D01*
X101250000Y-81500000D02*
X101250000Y-84600000D01*
X96600000Y-76850000D02*
X101250000Y-81500000D01*
X86850000Y-84800000D02*
X86850000Y-80750000D01*
X86850000Y-80750000D02*
X91800000Y-75800000D01*
X28600000Y-78820000D02*
X28600000Y-81600000D01*
D43*
X255620000Y-103000000D02*
X251000000Y-103000000D01*
X251000000Y-100000000D02*
X248000000Y-100000000D01*
X251000000Y-103000000D02*
X251000000Y-100000000D01*
D40*
X191400000Y-72400000D02*
X193400000Y-70400000D01*
X191400000Y-74800000D02*
X191400000Y-72400000D01*
X184260000Y-85600000D02*
X184260000Y-86660000D01*
X184260000Y-86660000D02*
X185600000Y-88000000D01*
X185600000Y-88000000D02*
X188500000Y-88000000D01*
X188500000Y-88000000D02*
X192750000Y-83750000D01*
X191400000Y-74800000D02*
X191400000Y-75000000D01*
X191400000Y-75000000D02*
X192750000Y-76350000D01*
X192750000Y-76350000D02*
X192750000Y-83750000D01*
X184260000Y-85600000D02*
X184260000Y-83460000D01*
X179000000Y-79000000D02*
X169000000Y-79000000D01*
X184260000Y-83460000D02*
X179000000Y-79000000D01*
X192750000Y-83750000D02*
X196790000Y-83750000D01*
X196790000Y-83750000D02*
X199000000Y-81540000D01*
X169000000Y-79000000D02*
X169000000Y-79450000D01*
D41*
X169000000Y-79000000D02*
X169000000Y-79500000D01*
D40*
X79000000Y-96800000D02*
X79000000Y-96200000D01*
X79000000Y-96200000D02*
X80600000Y-94600000D01*
X80600000Y-83600000D02*
X77000000Y-80000000D01*
X80600000Y-94600000D02*
X80600000Y-83600000D01*
X77000000Y-80000000D02*
X77000000Y-79125000D01*
X65000000Y-94200000D02*
X67400000Y-94200000D01*
X79000000Y-94800000D02*
X79000000Y-96800000D01*
X76000000Y-91800000D02*
X79000000Y-94800000D01*
X69800000Y-91800000D02*
X76000000Y-91800000D01*
X67400000Y-94200000D02*
X69800000Y-91800000D01*
X123232406Y-90376122D02*
X112823878Y-90376122D01*
X111400000Y-91800000D02*
X110800000Y-92800000D01*
X112823878Y-90376122D02*
X111400000Y-91800000D01*
X134910000Y-92060000D02*
X133250000Y-90400000D01*
X134910000Y-92060000D02*
X134910000Y-92960000D01*
X123250000Y-90400000D02*
X123232406Y-90376122D01*
X133250000Y-90400000D02*
X123250000Y-90400000D01*
X110800000Y-92800000D02*
X108800000Y-92800000D01*
X108800000Y-92800000D02*
X108000000Y-93600000D01*
X118420000Y-92800000D02*
X121550000Y-92800000D01*
X121550000Y-92800000D02*
X121575000Y-92825000D01*
X263460000Y-96080000D02*
X263460000Y-100540000D01*
X263460000Y-100540000D02*
X262000000Y-102000000D01*
X263400000Y-100600000D02*
X262000000Y-102000000D01*
X28770000Y-96650000D02*
X28770000Y-100770000D01*
X28770000Y-100770000D02*
X30000000Y-102000000D01*
X196185000Y-89115000D02*
X202125000Y-89115000D01*
X202125000Y-89115000D02*
X203180000Y-88060000D01*
X182600000Y-93800000D02*
X191500000Y-93800000D01*
X191500000Y-93800000D02*
X196185000Y-89115000D01*
X196185000Y-89115000D02*
X196200000Y-89100000D01*
X158400000Y-84900000D02*
X173700000Y-84900000D01*
X173700000Y-84900000D02*
X182600000Y-93800000D01*
X155900000Y-87400000D02*
X158400000Y-84900000D01*
X74000000Y-99200000D02*
X81400000Y-99200000D01*
X81400000Y-99200000D02*
X82800000Y-96600000D01*
X82800000Y-96600000D02*
X82800000Y-89200000D01*
X82600000Y-89400000D02*
X82800000Y-89200000D01*
D43*
X209600000Y-70570000D02*
X209450000Y-70570000D01*
X209450000Y-70570000D02*
X203180000Y-76840000D01*
X203180000Y-76840000D02*
X203180000Y-88060000D01*
X203180000Y-99480000D02*
X206600000Y-102900000D01*
X203180000Y-88060000D02*
X203180000Y-99480000D01*
X209600000Y-70570000D02*
X209020000Y-70570000D01*
D41*
X161450000Y-59630000D02*
X161880000Y-59200000D01*
D40*
X103450000Y-90330000D02*
X103450000Y-90710000D01*
X103450000Y-90710000D02*
X100360000Y-93520000D01*
X96170000Y-84600000D02*
X96170000Y-91870000D01*
X97820000Y-93520000D02*
X100360000Y-93520000D01*
X96170000Y-91870000D02*
X97820000Y-93520000D01*
X103000000Y-93600000D02*
X100440000Y-93600000D01*
X100440000Y-93600000D02*
X100360000Y-93520000D01*
X100360000Y-93520000D02*
X101120000Y-93520000D01*
X101120000Y-93520000D02*
X104660000Y-97060000D01*
X104660000Y-97060000D02*
X104660000Y-98800000D01*
X100360000Y-93520000D02*
X100000000Y-93520000D01*
X100000000Y-93520000D02*
X97000000Y-96520000D01*
D41*
X100510000Y-93670000D02*
X100360000Y-93520000D01*
G36*
X163575512Y-52250000D02*
X163662673Y-52713222D01*
X163936437Y-53138663D01*
X164354153Y-53424076D01*
X164850000Y-53524488D01*
X169150000Y-53524488D01*
X169613222Y-53437327D01*
X170038663Y-53163563D01*
X170324076Y-52745847D01*
X170424488Y-52250000D01*
X170424488Y-50250000D01*
X170442000Y-50250000D01*
X170442000Y-51250002D01*
X170607522Y-51250002D01*
X170521161Y-51432056D01*
X170833326Y-52137302D01*
X171391615Y-52669404D01*
X171534178Y-52786990D01*
X171825000Y-52707723D01*
X171825000Y-51125000D01*
X171200000Y-51125000D01*
X171200000Y-50250000D01*
X173700000Y-50250000D01*
X173700000Y-51125000D01*
X173075000Y-51125000D01*
X173075000Y-52707723D01*
X173365822Y-52786990D01*
X173508385Y-52669404D01*
X174066674Y-52137302D01*
X174378839Y-51432056D01*
X174292478Y-51250002D01*
X174458000Y-51250002D01*
X174458000Y-50250000D01*
X174516198Y-50250000D01*
X174758810Y-51469693D01*
X175495837Y-52572732D01*
X176598876Y-53309759D01*
X177900000Y-53568569D01*
X179201124Y-53309759D01*
X180304163Y-52572732D01*
X181041190Y-51469693D01*
X181283802Y-50250000D01*
X188575512Y-50250000D01*
X188575512Y-52250000D01*
X188662673Y-52713222D01*
X188936437Y-53138663D01*
X189354153Y-53424076D01*
X189850000Y-53524488D01*
X194150000Y-53524488D01*
X194613222Y-53437327D01*
X195038663Y-53163563D01*
X195324076Y-52745847D01*
X195424488Y-52250000D01*
X195424488Y-50250000D01*
X195442000Y-50250000D01*
X195442000Y-51250002D01*
X195607522Y-51250002D01*
X195521161Y-51432056D01*
X195833326Y-52137302D01*
X196391615Y-52669404D01*
X196534178Y-52786990D01*
X196825000Y-52707723D01*
X196825000Y-51125000D01*
X196200000Y-51125000D01*
X196200000Y-50250000D01*
X198700000Y-50250000D01*
X198700000Y-51125000D01*
X198075000Y-51125000D01*
X198075000Y-52707723D01*
X198365822Y-52786990D01*
X198508385Y-52669404D01*
X199066674Y-52137302D01*
X199378839Y-51432056D01*
X199292478Y-51250002D01*
X199458000Y-51250002D01*
X199458000Y-50250000D01*
X199516198Y-50250000D01*
X199758810Y-51469693D01*
X200495837Y-52572732D01*
X201598876Y-53309759D01*
X202900000Y-53568569D01*
X204201124Y-53309759D01*
X205304163Y-52572732D01*
X206041190Y-51469693D01*
X206283802Y-50250000D01*
X213575512Y-50250000D01*
X213575512Y-52250000D01*
X213662673Y-52713222D01*
X213936437Y-53138663D01*
X214354153Y-53424076D01*
X214850000Y-53524488D01*
X219150000Y-53524488D01*
X219613222Y-53437327D01*
X220038663Y-53163563D01*
X220324076Y-52745847D01*
X220424488Y-52250000D01*
X220424488Y-50250000D01*
X220442000Y-50250000D01*
X220442000Y-51250002D01*
X220607522Y-51250002D01*
X220521161Y-51432056D01*
X220833326Y-52137302D01*
X221391615Y-52669404D01*
X221534178Y-52786990D01*
X221825000Y-52707723D01*
X221825000Y-51125000D01*
X221200000Y-51125000D01*
X221200000Y-50250000D01*
X223700000Y-50250000D01*
X223700000Y-51125000D01*
X223075000Y-51125000D01*
X223075000Y-52707723D01*
X223365822Y-52786990D01*
X223508385Y-52669404D01*
X224066674Y-52137302D01*
X224378839Y-51432056D01*
X224292478Y-51250002D01*
X224458000Y-51250002D01*
X224458000Y-50250000D01*
X224516198Y-50250000D01*
X224758810Y-51469693D01*
X225495837Y-52572732D01*
X226598876Y-53309759D01*
X227900000Y-53568569D01*
X229201124Y-53309759D01*
X230304163Y-52572732D01*
X231041190Y-51469693D01*
X231283802Y-50250000D01*
X238575512Y-50250000D01*
X238575512Y-52250000D01*
X238662673Y-52713222D01*
X238936437Y-53138663D01*
X239354153Y-53424076D01*
X239850000Y-53524488D01*
X244150000Y-53524488D01*
X244613222Y-53437327D01*
X245038663Y-53163563D01*
X245324076Y-52745847D01*
X245424488Y-52250000D01*
X245424488Y-50250000D01*
X245442000Y-50250000D01*
X245442000Y-51250002D01*
X245607522Y-51250002D01*
X245521161Y-51432056D01*
X245833326Y-52137302D01*
X246391615Y-52669404D01*
X246534178Y-52786990D01*
X246825000Y-52707723D01*
X246825000Y-51125000D01*
X246200000Y-51125000D01*
X246200000Y-50250000D01*
X248700000Y-50250000D01*
X248700000Y-51125000D01*
X248075000Y-51125000D01*
X248075000Y-52707723D01*
X248365822Y-52786990D01*
X248508385Y-52669404D01*
X249066674Y-52137302D01*
X249378839Y-51432056D01*
X249292478Y-51250002D01*
X249458000Y-51250002D01*
X249458000Y-50250000D01*
X249516198Y-50250000D01*
X249750000Y-51425402D01*
X249750000Y-63213860D01*
X249035572Y-62736495D01*
X248097998Y-62550000D01*
X248002002Y-62550000D01*
X247064428Y-62736495D01*
X246269590Y-63267588D01*
X245738497Y-64062426D01*
X245552002Y-65000000D01*
X245701186Y-65750000D01*
X160250000Y-65750000D01*
X160250000Y-61271447D01*
X160813972Y-61648281D01*
X161828083Y-61850000D01*
X161931917Y-61850000D01*
X162946028Y-61648281D01*
X163805750Y-61073833D01*
X164380198Y-60214111D01*
X164477526Y-59724805D01*
X179549541Y-59724805D01*
X179952129Y-60699144D01*
X180696935Y-61445251D01*
X181670570Y-61849539D01*
X182724805Y-61850459D01*
X183599921Y-61488869D01*
X183550000Y-61739838D01*
X183550000Y-61820162D01*
X183706047Y-62604663D01*
X184150431Y-63269731D01*
X184815499Y-63714115D01*
X185600000Y-63870162D01*
X186384501Y-63714115D01*
X187049569Y-63269731D01*
X187493953Y-62604663D01*
X187650000Y-61820162D01*
X187650000Y-61739838D01*
X187493953Y-60955337D01*
X187049569Y-60290269D01*
X186384501Y-59845885D01*
X185600000Y-59689838D01*
X184815499Y-59845885D01*
X184795685Y-59859124D01*
X184849539Y-59729430D01*
X184849651Y-59600000D01*
X187378083Y-59600000D01*
X187579802Y-60614111D01*
X188154250Y-61473833D01*
X189013972Y-62048281D01*
X190028083Y-62250000D01*
X190131917Y-62250000D01*
X191146028Y-62048281D01*
X192005750Y-61473833D01*
X192580198Y-60614111D01*
X192677526Y-60124805D01*
X207749541Y-60124805D01*
X208152129Y-61099144D01*
X208896935Y-61845251D01*
X209870570Y-62249539D01*
X210924805Y-62250459D01*
X211899144Y-61847871D01*
X212645251Y-61103065D01*
X213049539Y-60129430D01*
X213050175Y-59400000D01*
X214178083Y-59400000D01*
X214379802Y-60414111D01*
X214954250Y-61273833D01*
X215813972Y-61848281D01*
X216828083Y-62050000D01*
X216931917Y-62050000D01*
X217946028Y-61848281D01*
X218805750Y-61273833D01*
X219380198Y-60414111D01*
X219477526Y-59924805D01*
X234549541Y-59924805D01*
X234952129Y-60899144D01*
X235696935Y-61645251D01*
X236670570Y-62049539D01*
X237724805Y-62050459D01*
X238699144Y-61647871D01*
X239445251Y-60903065D01*
X239849539Y-59929430D01*
X239850350Y-59000000D01*
X240978083Y-59000000D01*
X241179802Y-60014111D01*
X241754250Y-60873833D01*
X242613972Y-61448281D01*
X243628083Y-61650000D01*
X243731917Y-61650000D01*
X244746028Y-61448281D01*
X245605750Y-60873833D01*
X246180198Y-60014111D01*
X246381917Y-59000000D01*
X246180198Y-57985889D01*
X245605750Y-57126167D01*
X244746028Y-56551719D01*
X243731917Y-56350000D01*
X243628083Y-56350000D01*
X242613972Y-56551719D01*
X241754250Y-57126167D01*
X241179802Y-57985889D01*
X240978083Y-59000000D01*
X239850350Y-59000000D01*
X239850459Y-58875195D01*
X239447871Y-57900856D01*
X238703065Y-57154749D01*
X237729430Y-56750461D01*
X236675195Y-56749541D01*
X235700856Y-57152129D01*
X234954749Y-57896935D01*
X234550461Y-58870570D01*
X234549541Y-59924805D01*
X219477526Y-59924805D01*
X219581917Y-59400000D01*
X219380198Y-58385889D01*
X218805750Y-57526167D01*
X217946028Y-56951719D01*
X216931917Y-56750000D01*
X216828083Y-56750000D01*
X215813972Y-56951719D01*
X214954250Y-57526167D01*
X214379802Y-58385889D01*
X214178083Y-59400000D01*
X213050175Y-59400000D01*
X213050459Y-59075195D01*
X212647871Y-58100856D01*
X211903065Y-57354749D01*
X210929430Y-56950461D01*
X209875195Y-56949541D01*
X208900856Y-57352129D01*
X208154749Y-58096935D01*
X207750461Y-59070570D01*
X207749541Y-60124805D01*
X192677526Y-60124805D01*
X192781917Y-59600000D01*
X192580198Y-58585889D01*
X192005750Y-57726167D01*
X191146028Y-57151719D01*
X190131917Y-56950000D01*
X190028083Y-56950000D01*
X189013972Y-57151719D01*
X188154250Y-57726167D01*
X187579802Y-58585889D01*
X187378083Y-59600000D01*
X184849651Y-59600000D01*
X184850459Y-58675195D01*
X184447871Y-57700856D01*
X183703065Y-56954749D01*
X182729430Y-56550461D01*
X181675195Y-56549541D01*
X180700856Y-56952129D01*
X179954749Y-57696935D01*
X179550461Y-58670570D01*
X179549541Y-59724805D01*
X164477526Y-59724805D01*
X164581917Y-59200000D01*
X164380198Y-58185889D01*
X163805750Y-57326167D01*
X162946028Y-56751719D01*
X161931917Y-56550000D01*
X161828083Y-56550000D01*
X160813972Y-56751719D01*
X160250000Y-57128553D01*
X160250000Y-50250000D01*
X163575512Y-50250000D01*
X163575512Y-52250000D01*
X163575512Y-52250000D01*
G37*
X163575512Y-52250000D02*
X163662673Y-52713222D01*
X163936437Y-53138663D01*
X164354153Y-53424076D01*
X164850000Y-53524488D01*
X169150000Y-53524488D01*
X169613222Y-53437327D01*
X170038663Y-53163563D01*
X170324076Y-52745847D01*
X170424488Y-52250000D01*
X170424488Y-50250000D01*
X170442000Y-50250000D01*
X170442000Y-51250002D01*
X170607522Y-51250002D01*
X170521161Y-51432056D01*
X170833326Y-52137302D01*
X171391615Y-52669404D01*
X171534178Y-52786990D01*
X171825000Y-52707723D01*
X171825000Y-51125000D01*
X171200000Y-51125000D01*
X171200000Y-50250000D01*
X173700000Y-50250000D01*
X173700000Y-51125000D01*
X173075000Y-51125000D01*
X173075000Y-52707723D01*
X173365822Y-52786990D01*
X173508385Y-52669404D01*
X174066674Y-52137302D01*
X174378839Y-51432056D01*
X174292478Y-51250002D01*
X174458000Y-51250002D01*
X174458000Y-50250000D01*
X174516198Y-50250000D01*
X174758810Y-51469693D01*
X175495837Y-52572732D01*
X176598876Y-53309759D01*
X177900000Y-53568569D01*
X179201124Y-53309759D01*
X180304163Y-52572732D01*
X181041190Y-51469693D01*
X181283802Y-50250000D01*
X188575512Y-50250000D01*
X188575512Y-52250000D01*
X188662673Y-52713222D01*
X188936437Y-53138663D01*
X189354153Y-53424076D01*
X189850000Y-53524488D01*
X194150000Y-53524488D01*
X194613222Y-53437327D01*
X195038663Y-53163563D01*
X195324076Y-52745847D01*
X195424488Y-52250000D01*
X195424488Y-50250000D01*
X195442000Y-50250000D01*
X195442000Y-51250002D01*
X195607522Y-51250002D01*
X195521161Y-51432056D01*
X195833326Y-52137302D01*
X196391615Y-52669404D01*
X196534178Y-52786990D01*
X196825000Y-52707723D01*
X196825000Y-51125000D01*
X196200000Y-51125000D01*
X196200000Y-50250000D01*
X198700000Y-50250000D01*
X198700000Y-51125000D01*
X198075000Y-51125000D01*
X198075000Y-52707723D01*
X198365822Y-52786990D01*
X198508385Y-52669404D01*
X199066674Y-52137302D01*
X199378839Y-51432056D01*
X199292478Y-51250002D01*
X199458000Y-51250002D01*
X199458000Y-50250000D01*
X199516198Y-50250000D01*
X199758810Y-51469693D01*
X200495837Y-52572732D01*
X201598876Y-53309759D01*
X202900000Y-53568569D01*
X204201124Y-53309759D01*
X205304163Y-52572732D01*
X206041190Y-51469693D01*
X206283802Y-50250000D01*
X213575512Y-50250000D01*
X213575512Y-52250000D01*
X213662673Y-52713222D01*
X213936437Y-53138663D01*
X214354153Y-53424076D01*
X214850000Y-53524488D01*
X219150000Y-53524488D01*
X219613222Y-53437327D01*
X220038663Y-53163563D01*
X220324076Y-52745847D01*
X220424488Y-52250000D01*
X220424488Y-50250000D01*
X220442000Y-50250000D01*
X220442000Y-51250002D01*
X220607522Y-51250002D01*
X220521161Y-51432056D01*
X220833326Y-52137302D01*
X221391615Y-52669404D01*
X221534178Y-52786990D01*
X221825000Y-52707723D01*
X221825000Y-51125000D01*
X221200000Y-51125000D01*
X221200000Y-50250000D01*
X223700000Y-50250000D01*
X223700000Y-51125000D01*
X223075000Y-51125000D01*
X223075000Y-52707723D01*
X223365822Y-52786990D01*
X223508385Y-52669404D01*
X224066674Y-52137302D01*
X224378839Y-51432056D01*
X224292478Y-51250002D01*
X224458000Y-51250002D01*
X224458000Y-50250000D01*
X224516198Y-50250000D01*
X224758810Y-51469693D01*
X225495837Y-52572732D01*
X226598876Y-53309759D01*
X227900000Y-53568569D01*
X229201124Y-53309759D01*
X230304163Y-52572732D01*
X231041190Y-51469693D01*
X231283802Y-50250000D01*
X238575512Y-50250000D01*
X238575512Y-52250000D01*
X238662673Y-52713222D01*
X238936437Y-53138663D01*
X239354153Y-53424076D01*
X239850000Y-53524488D01*
X244150000Y-53524488D01*
X244613222Y-53437327D01*
X245038663Y-53163563D01*
X245324076Y-52745847D01*
X245424488Y-52250000D01*
X245424488Y-50250000D01*
X245442000Y-50250000D01*
X245442000Y-51250002D01*
X245607522Y-51250002D01*
X245521161Y-51432056D01*
X245833326Y-52137302D01*
X246391615Y-52669404D01*
X246534178Y-52786990D01*
X246825000Y-52707723D01*
X246825000Y-51125000D01*
X246200000Y-51125000D01*
X246200000Y-50250000D01*
X248700000Y-50250000D01*
X248700000Y-51125000D01*
X248075000Y-51125000D01*
X248075000Y-52707723D01*
X248365822Y-52786990D01*
X248508385Y-52669404D01*
X249066674Y-52137302D01*
X249378839Y-51432056D01*
X249292478Y-51250002D01*
X249458000Y-51250002D01*
X249458000Y-50250000D01*
X249516198Y-50250000D01*
X249750000Y-51425402D01*
X249750000Y-63213860D01*
X249035572Y-62736495D01*
X248097998Y-62550000D01*
X248002002Y-62550000D01*
X247064428Y-62736495D01*
X246269590Y-63267588D01*
X245738497Y-64062426D01*
X245552002Y-65000000D01*
X245701186Y-65750000D01*
X160250000Y-65750000D01*
X160250000Y-61271447D01*
X160813972Y-61648281D01*
X161828083Y-61850000D01*
X161931917Y-61850000D01*
X162946028Y-61648281D01*
X163805750Y-61073833D01*
X164380198Y-60214111D01*
X164477526Y-59724805D01*
X179549541Y-59724805D01*
X179952129Y-60699144D01*
X180696935Y-61445251D01*
X181670570Y-61849539D01*
X182724805Y-61850459D01*
X183599921Y-61488869D01*
X183550000Y-61739838D01*
X183550000Y-61820162D01*
X183706047Y-62604663D01*
X184150431Y-63269731D01*
X184815499Y-63714115D01*
X185600000Y-63870162D01*
X186384501Y-63714115D01*
X187049569Y-63269731D01*
X187493953Y-62604663D01*
X187650000Y-61820162D01*
X187650000Y-61739838D01*
X187493953Y-60955337D01*
X187049569Y-60290269D01*
X186384501Y-59845885D01*
X185600000Y-59689838D01*
X184815499Y-59845885D01*
X184795685Y-59859124D01*
X184849539Y-59729430D01*
X184849651Y-59600000D01*
X187378083Y-59600000D01*
X187579802Y-60614111D01*
X188154250Y-61473833D01*
X189013972Y-62048281D01*
X190028083Y-62250000D01*
X190131917Y-62250000D01*
X191146028Y-62048281D01*
X192005750Y-61473833D01*
X192580198Y-60614111D01*
X192677526Y-60124805D01*
X207749541Y-60124805D01*
X208152129Y-61099144D01*
X208896935Y-61845251D01*
X209870570Y-62249539D01*
X210924805Y-62250459D01*
X211899144Y-61847871D01*
X212645251Y-61103065D01*
X213049539Y-60129430D01*
X213050175Y-59400000D01*
X214178083Y-59400000D01*
X214379802Y-60414111D01*
X214954250Y-61273833D01*
X215813972Y-61848281D01*
X216828083Y-62050000D01*
X216931917Y-62050000D01*
X217946028Y-61848281D01*
X218805750Y-61273833D01*
X219380198Y-60414111D01*
X219477526Y-59924805D01*
X234549541Y-59924805D01*
X234952129Y-60899144D01*
X235696935Y-61645251D01*
X236670570Y-62049539D01*
X237724805Y-62050459D01*
X238699144Y-61647871D01*
X239445251Y-60903065D01*
X239849539Y-59929430D01*
X239850350Y-59000000D01*
X240978083Y-59000000D01*
X241179802Y-60014111D01*
X241754250Y-60873833D01*
X242613972Y-61448281D01*
X243628083Y-61650000D01*
X243731917Y-61650000D01*
X244746028Y-61448281D01*
X245605750Y-60873833D01*
X246180198Y-60014111D01*
X246381917Y-59000000D01*
X246180198Y-57985889D01*
X245605750Y-57126167D01*
X244746028Y-56551719D01*
X243731917Y-56350000D01*
X243628083Y-56350000D01*
X242613972Y-56551719D01*
X241754250Y-57126167D01*
X241179802Y-57985889D01*
X240978083Y-59000000D01*
X239850350Y-59000000D01*
X239850459Y-58875195D01*
X239447871Y-57900856D01*
X238703065Y-57154749D01*
X237729430Y-56750461D01*
X236675195Y-56749541D01*
X235700856Y-57152129D01*
X234954749Y-57896935D01*
X234550461Y-58870570D01*
X234549541Y-59924805D01*
X219477526Y-59924805D01*
X219581917Y-59400000D01*
X219380198Y-58385889D01*
X218805750Y-57526167D01*
X217946028Y-56951719D01*
X216931917Y-56750000D01*
X216828083Y-56750000D01*
X215813972Y-56951719D01*
X214954250Y-57526167D01*
X214379802Y-58385889D01*
X214178083Y-59400000D01*
X213050175Y-59400000D01*
X213050459Y-59075195D01*
X212647871Y-58100856D01*
X211903065Y-57354749D01*
X210929430Y-56950461D01*
X209875195Y-56949541D01*
X208900856Y-57352129D01*
X208154749Y-58096935D01*
X207750461Y-59070570D01*
X207749541Y-60124805D01*
X192677526Y-60124805D01*
X192781917Y-59600000D01*
X192580198Y-58585889D01*
X192005750Y-57726167D01*
X191146028Y-57151719D01*
X190131917Y-56950000D01*
X190028083Y-56950000D01*
X189013972Y-57151719D01*
X188154250Y-57726167D01*
X187579802Y-58585889D01*
X187378083Y-59600000D01*
X184849651Y-59600000D01*
X184850459Y-58675195D01*
X184447871Y-57700856D01*
X183703065Y-56954749D01*
X182729430Y-56550461D01*
X181675195Y-56549541D01*
X180700856Y-56952129D01*
X179954749Y-57696935D01*
X179550461Y-58670570D01*
X179549541Y-59724805D01*
X164477526Y-59724805D01*
X164581917Y-59200000D01*
X164380198Y-58185889D01*
X163805750Y-57326167D01*
X162946028Y-56751719D01*
X161931917Y-56550000D01*
X161828083Y-56550000D01*
X160813972Y-56751719D01*
X160250000Y-57128553D01*
X160250000Y-50250000D01*
X163575512Y-50250000D01*
X163575512Y-52250000D01*
G36*
X46700000Y-51125000D02*
X46075000Y-51125000D01*
X46075000Y-52707723D01*
X46365822Y-52786990D01*
X46508385Y-52669404D01*
X47066674Y-52137302D01*
X47378839Y-51432056D01*
X47292478Y-51250002D01*
X47458000Y-51250002D01*
X47458000Y-50250000D01*
X47516198Y-50250000D01*
X47758810Y-51469693D01*
X48495837Y-52572732D01*
X49598876Y-53309759D01*
X50900000Y-53568569D01*
X52201124Y-53309759D01*
X53304163Y-52572732D01*
X54041190Y-51469693D01*
X54283802Y-50250000D01*
X61575512Y-50250000D01*
X61575512Y-52250000D01*
X61662673Y-52713222D01*
X61936437Y-53138663D01*
X62354153Y-53424076D01*
X62850000Y-53524488D01*
X67150000Y-53524488D01*
X67613222Y-53437327D01*
X68038663Y-53163563D01*
X68324076Y-52745847D01*
X68424488Y-52250000D01*
X68424488Y-50250000D01*
X68442000Y-50250000D01*
X68442000Y-51250002D01*
X68607522Y-51250002D01*
X68521161Y-51432056D01*
X68833326Y-52137302D01*
X69391615Y-52669404D01*
X69534178Y-52786990D01*
X69825000Y-52707723D01*
X69825000Y-51125000D01*
X69200000Y-51125000D01*
X69200000Y-50250000D01*
X71700000Y-50250000D01*
X71700000Y-51125000D01*
X71075000Y-51125000D01*
X71075000Y-52707723D01*
X71365822Y-52786990D01*
X71508385Y-52669404D01*
X72066674Y-52137302D01*
X72378839Y-51432056D01*
X72292478Y-51250002D01*
X72458000Y-51250002D01*
X72458000Y-50250000D01*
X72516198Y-50250000D01*
X72758810Y-51469693D01*
X73495837Y-52572732D01*
X74598876Y-53309759D01*
X75900000Y-53568569D01*
X77201124Y-53309759D01*
X78304163Y-52572732D01*
X79041190Y-51469693D01*
X79283802Y-50250000D01*
X86575512Y-50250000D01*
X86575512Y-52250000D01*
X86662673Y-52713222D01*
X86936437Y-53138663D01*
X87354153Y-53424076D01*
X87850000Y-53524488D01*
X92150000Y-53524488D01*
X92613222Y-53437327D01*
X93038663Y-53163563D01*
X93324076Y-52745847D01*
X93424488Y-52250000D01*
X93424488Y-50250000D01*
X93442000Y-50250000D01*
X93442000Y-51250002D01*
X93607522Y-51250002D01*
X93521161Y-51432056D01*
X93833326Y-52137302D01*
X94391615Y-52669404D01*
X94534178Y-52786990D01*
X94825000Y-52707723D01*
X94825000Y-51125000D01*
X94200000Y-51125000D01*
X94200000Y-50250000D01*
X96700000Y-50250000D01*
X96700000Y-51125000D01*
X96075000Y-51125000D01*
X96075000Y-52707723D01*
X96365822Y-52786990D01*
X96508385Y-52669404D01*
X97066674Y-52137302D01*
X97378839Y-51432056D01*
X97292478Y-51250002D01*
X97458000Y-51250002D01*
X97458000Y-50250000D01*
X97516198Y-50250000D01*
X97758810Y-51469693D01*
X98495837Y-52572732D01*
X99598876Y-53309759D01*
X100900000Y-53568569D01*
X102201124Y-53309759D01*
X103304163Y-52572732D01*
X104041190Y-51469693D01*
X104283802Y-50250000D01*
X111575512Y-50250000D01*
X111575512Y-52250000D01*
X111662673Y-52713222D01*
X111936437Y-53138663D01*
X112354153Y-53424076D01*
X112850000Y-53524488D01*
X117150000Y-53524488D01*
X117613222Y-53437327D01*
X118038663Y-53163563D01*
X118324076Y-52745847D01*
X118424488Y-52250000D01*
X118424488Y-50250000D01*
X118442000Y-50250000D01*
X118442000Y-51250002D01*
X118607522Y-51250002D01*
X118521161Y-51432056D01*
X118833326Y-52137302D01*
X119391615Y-52669404D01*
X119534178Y-52786990D01*
X119825000Y-52707723D01*
X119825000Y-51125000D01*
X119200000Y-51125000D01*
X119200000Y-50250000D01*
X121700000Y-50250000D01*
X121700000Y-51125000D01*
X121075000Y-51125000D01*
X121075000Y-52707723D01*
X121365822Y-52786990D01*
X121508385Y-52669404D01*
X122066674Y-52137302D01*
X122378839Y-51432056D01*
X122292478Y-51250002D01*
X122458000Y-51250002D01*
X122458000Y-50250000D01*
X122516198Y-50250000D01*
X122758810Y-51469693D01*
X123495837Y-52572732D01*
X124598876Y-53309759D01*
X125900000Y-53568569D01*
X127201124Y-53309759D01*
X128304163Y-52572732D01*
X129041190Y-51469693D01*
X129283802Y-50250000D01*
X132750000Y-50250000D01*
X132750000Y-59389294D01*
X132465499Y-59445885D01*
X131851637Y-59856054D01*
X132021917Y-59000000D01*
X131820198Y-57985889D01*
X131245750Y-57126167D01*
X130386028Y-56551719D01*
X129371917Y-56350000D01*
X129268083Y-56350000D01*
X128253972Y-56551719D01*
X127394250Y-57126167D01*
X126819802Y-57985889D01*
X126618083Y-59000000D01*
X126819802Y-60014111D01*
X127394250Y-60873833D01*
X128253972Y-61448281D01*
X129268083Y-61650000D01*
X129371917Y-61650000D01*
X130386028Y-61448281D01*
X131245750Y-60873833D01*
X131312593Y-60773796D01*
X131200000Y-61339838D01*
X131200000Y-61420162D01*
X131356047Y-62204663D01*
X131800431Y-62869731D01*
X132465499Y-63314115D01*
X132750000Y-63370706D01*
X132750000Y-65750000D01*
X44250000Y-65750000D01*
X44250000Y-59000000D01*
X45418083Y-59000000D01*
X45619802Y-60014111D01*
X46194250Y-60873833D01*
X47053972Y-61448281D01*
X48068083Y-61650000D01*
X48171917Y-61650000D01*
X49186028Y-61448281D01*
X50045750Y-60873833D01*
X50620198Y-60014111D01*
X50717526Y-59524805D01*
X52349541Y-59524805D01*
X52752129Y-60499144D01*
X53496935Y-61245251D01*
X54470570Y-61649539D01*
X55524805Y-61650459D01*
X56499144Y-61247871D01*
X57245251Y-60503065D01*
X57649539Y-59529430D01*
X57650001Y-59000000D01*
X72618083Y-59000000D01*
X72819802Y-60014111D01*
X73394250Y-60873833D01*
X74253972Y-61448281D01*
X75268083Y-61650000D01*
X75371917Y-61650000D01*
X76386028Y-61448281D01*
X77245750Y-60873833D01*
X77820198Y-60014111D01*
X77917526Y-59524805D01*
X79349541Y-59524805D01*
X79752129Y-60499144D01*
X80496935Y-61245251D01*
X81470570Y-61649539D01*
X82524805Y-61650459D01*
X83499144Y-61247871D01*
X84245251Y-60503065D01*
X84649539Y-59529430D01*
X84650001Y-59000000D01*
X99618083Y-59000000D01*
X99819802Y-60014111D01*
X100394250Y-60873833D01*
X101253972Y-61448281D01*
X102268083Y-61650000D01*
X102371917Y-61650000D01*
X103386028Y-61448281D01*
X104245750Y-60873833D01*
X104820198Y-60014111D01*
X104917526Y-59524805D01*
X106349541Y-59524805D01*
X106752129Y-60499144D01*
X107496935Y-61245251D01*
X108470570Y-61649539D01*
X109524805Y-61650459D01*
X110499144Y-61247871D01*
X111245251Y-60503065D01*
X111649539Y-59529430D01*
X111650459Y-58475195D01*
X111247871Y-57500856D01*
X110503065Y-56754749D01*
X109529430Y-56350461D01*
X108475195Y-56349541D01*
X107500856Y-56752129D01*
X106754749Y-57496935D01*
X106350461Y-58470570D01*
X106349541Y-59524805D01*
X104917526Y-59524805D01*
X105021917Y-59000000D01*
X104820198Y-57985889D01*
X104245750Y-57126167D01*
X103386028Y-56551719D01*
X102371917Y-56350000D01*
X102268083Y-56350000D01*
X101253972Y-56551719D01*
X100394250Y-57126167D01*
X99819802Y-57985889D01*
X99618083Y-59000000D01*
X84650001Y-59000000D01*
X84650459Y-58475195D01*
X84247871Y-57500856D01*
X83503065Y-56754749D01*
X82529430Y-56350461D01*
X81475195Y-56349541D01*
X80500856Y-56752129D01*
X79754749Y-57496935D01*
X79350461Y-58470570D01*
X79349541Y-59524805D01*
X77917526Y-59524805D01*
X78021917Y-59000000D01*
X77820198Y-57985889D01*
X77245750Y-57126167D01*
X76386028Y-56551719D01*
X75371917Y-56350000D01*
X75268083Y-56350000D01*
X74253972Y-56551719D01*
X73394250Y-57126167D01*
X72819802Y-57985889D01*
X72618083Y-59000000D01*
X57650001Y-59000000D01*
X57650459Y-58475195D01*
X57247871Y-57500856D01*
X56503065Y-56754749D01*
X55529430Y-56350461D01*
X54475195Y-56349541D01*
X53500856Y-56752129D01*
X52754749Y-57496935D01*
X52350461Y-58470570D01*
X52349541Y-59524805D01*
X50717526Y-59524805D01*
X50821917Y-59000000D01*
X50620198Y-57985889D01*
X50045750Y-57126167D01*
X49186028Y-56551719D01*
X48171917Y-56350000D01*
X48068083Y-56350000D01*
X47053972Y-56551719D01*
X46194250Y-57126167D01*
X45619802Y-57985889D01*
X45418083Y-59000000D01*
X44250000Y-59000000D01*
X44250000Y-52534432D01*
X44391615Y-52669404D01*
X44534178Y-52786990D01*
X44825000Y-52707723D01*
X44825000Y-51125000D01*
X44250000Y-51125000D01*
X44250000Y-50250000D01*
X46700000Y-50250000D01*
X46700000Y-51125000D01*
X46700000Y-51125000D01*
G37*
X46700000Y-51125000D02*
X46075000Y-51125000D01*
X46075000Y-52707723D01*
X46365822Y-52786990D01*
X46508385Y-52669404D01*
X47066674Y-52137302D01*
X47378839Y-51432056D01*
X47292478Y-51250002D01*
X47458000Y-51250002D01*
X47458000Y-50250000D01*
X47516198Y-50250000D01*
X47758810Y-51469693D01*
X48495837Y-52572732D01*
X49598876Y-53309759D01*
X50900000Y-53568569D01*
X52201124Y-53309759D01*
X53304163Y-52572732D01*
X54041190Y-51469693D01*
X54283802Y-50250000D01*
X61575512Y-50250000D01*
X61575512Y-52250000D01*
X61662673Y-52713222D01*
X61936437Y-53138663D01*
X62354153Y-53424076D01*
X62850000Y-53524488D01*
X67150000Y-53524488D01*
X67613222Y-53437327D01*
X68038663Y-53163563D01*
X68324076Y-52745847D01*
X68424488Y-52250000D01*
X68424488Y-50250000D01*
X68442000Y-50250000D01*
X68442000Y-51250002D01*
X68607522Y-51250002D01*
X68521161Y-51432056D01*
X68833326Y-52137302D01*
X69391615Y-52669404D01*
X69534178Y-52786990D01*
X69825000Y-52707723D01*
X69825000Y-51125000D01*
X69200000Y-51125000D01*
X69200000Y-50250000D01*
X71700000Y-50250000D01*
X71700000Y-51125000D01*
X71075000Y-51125000D01*
X71075000Y-52707723D01*
X71365822Y-52786990D01*
X71508385Y-52669404D01*
X72066674Y-52137302D01*
X72378839Y-51432056D01*
X72292478Y-51250002D01*
X72458000Y-51250002D01*
X72458000Y-50250000D01*
X72516198Y-50250000D01*
X72758810Y-51469693D01*
X73495837Y-52572732D01*
X74598876Y-53309759D01*
X75900000Y-53568569D01*
X77201124Y-53309759D01*
X78304163Y-52572732D01*
X79041190Y-51469693D01*
X79283802Y-50250000D01*
X86575512Y-50250000D01*
X86575512Y-52250000D01*
X86662673Y-52713222D01*
X86936437Y-53138663D01*
X87354153Y-53424076D01*
X87850000Y-53524488D01*
X92150000Y-53524488D01*
X92613222Y-53437327D01*
X93038663Y-53163563D01*
X93324076Y-52745847D01*
X93424488Y-52250000D01*
X93424488Y-50250000D01*
X93442000Y-50250000D01*
X93442000Y-51250002D01*
X93607522Y-51250002D01*
X93521161Y-51432056D01*
X93833326Y-52137302D01*
X94391615Y-52669404D01*
X94534178Y-52786990D01*
X94825000Y-52707723D01*
X94825000Y-51125000D01*
X94200000Y-51125000D01*
X94200000Y-50250000D01*
X96700000Y-50250000D01*
X96700000Y-51125000D01*
X96075000Y-51125000D01*
X96075000Y-52707723D01*
X96365822Y-52786990D01*
X96508385Y-52669404D01*
X97066674Y-52137302D01*
X97378839Y-51432056D01*
X97292478Y-51250002D01*
X97458000Y-51250002D01*
X97458000Y-50250000D01*
X97516198Y-50250000D01*
X97758810Y-51469693D01*
X98495837Y-52572732D01*
X99598876Y-53309759D01*
X100900000Y-53568569D01*
X102201124Y-53309759D01*
X103304163Y-52572732D01*
X104041190Y-51469693D01*
X104283802Y-50250000D01*
X111575512Y-50250000D01*
X111575512Y-52250000D01*
X111662673Y-52713222D01*
X111936437Y-53138663D01*
X112354153Y-53424076D01*
X112850000Y-53524488D01*
X117150000Y-53524488D01*
X117613222Y-53437327D01*
X118038663Y-53163563D01*
X118324076Y-52745847D01*
X118424488Y-52250000D01*
X118424488Y-50250000D01*
X118442000Y-50250000D01*
X118442000Y-51250002D01*
X118607522Y-51250002D01*
X118521161Y-51432056D01*
X118833326Y-52137302D01*
X119391615Y-52669404D01*
X119534178Y-52786990D01*
X119825000Y-52707723D01*
X119825000Y-51125000D01*
X119200000Y-51125000D01*
X119200000Y-50250000D01*
X121700000Y-50250000D01*
X121700000Y-51125000D01*
X121075000Y-51125000D01*
X121075000Y-52707723D01*
X121365822Y-52786990D01*
X121508385Y-52669404D01*
X122066674Y-52137302D01*
X122378839Y-51432056D01*
X122292478Y-51250002D01*
X122458000Y-51250002D01*
X122458000Y-50250000D01*
X122516198Y-50250000D01*
X122758810Y-51469693D01*
X123495837Y-52572732D01*
X124598876Y-53309759D01*
X125900000Y-53568569D01*
X127201124Y-53309759D01*
X128304163Y-52572732D01*
X129041190Y-51469693D01*
X129283802Y-50250000D01*
X132750000Y-50250000D01*
X132750000Y-59389294D01*
X132465499Y-59445885D01*
X131851637Y-59856054D01*
X132021917Y-59000000D01*
X131820198Y-57985889D01*
X131245750Y-57126167D01*
X130386028Y-56551719D01*
X129371917Y-56350000D01*
X129268083Y-56350000D01*
X128253972Y-56551719D01*
X127394250Y-57126167D01*
X126819802Y-57985889D01*
X126618083Y-59000000D01*
X126819802Y-60014111D01*
X127394250Y-60873833D01*
X128253972Y-61448281D01*
X129268083Y-61650000D01*
X129371917Y-61650000D01*
X130386028Y-61448281D01*
X131245750Y-60873833D01*
X131312593Y-60773796D01*
X131200000Y-61339838D01*
X131200000Y-61420162D01*
X131356047Y-62204663D01*
X131800431Y-62869731D01*
X132465499Y-63314115D01*
X132750000Y-63370706D01*
X132750000Y-65750000D01*
X44250000Y-65750000D01*
X44250000Y-59000000D01*
X45418083Y-59000000D01*
X45619802Y-60014111D01*
X46194250Y-60873833D01*
X47053972Y-61448281D01*
X48068083Y-61650000D01*
X48171917Y-61650000D01*
X49186028Y-61448281D01*
X50045750Y-60873833D01*
X50620198Y-60014111D01*
X50717526Y-59524805D01*
X52349541Y-59524805D01*
X52752129Y-60499144D01*
X53496935Y-61245251D01*
X54470570Y-61649539D01*
X55524805Y-61650459D01*
X56499144Y-61247871D01*
X57245251Y-60503065D01*
X57649539Y-59529430D01*
X57650001Y-59000000D01*
X72618083Y-59000000D01*
X72819802Y-60014111D01*
X73394250Y-60873833D01*
X74253972Y-61448281D01*
X75268083Y-61650000D01*
X75371917Y-61650000D01*
X76386028Y-61448281D01*
X77245750Y-60873833D01*
X77820198Y-60014111D01*
X77917526Y-59524805D01*
X79349541Y-59524805D01*
X79752129Y-60499144D01*
X80496935Y-61245251D01*
X81470570Y-61649539D01*
X82524805Y-61650459D01*
X83499144Y-61247871D01*
X84245251Y-60503065D01*
X84649539Y-59529430D01*
X84650001Y-59000000D01*
X99618083Y-59000000D01*
X99819802Y-60014111D01*
X100394250Y-60873833D01*
X101253972Y-61448281D01*
X102268083Y-61650000D01*
X102371917Y-61650000D01*
X103386028Y-61448281D01*
X104245750Y-60873833D01*
X104820198Y-60014111D01*
X104917526Y-59524805D01*
X106349541Y-59524805D01*
X106752129Y-60499144D01*
X107496935Y-61245251D01*
X108470570Y-61649539D01*
X109524805Y-61650459D01*
X110499144Y-61247871D01*
X111245251Y-60503065D01*
X111649539Y-59529430D01*
X111650459Y-58475195D01*
X111247871Y-57500856D01*
X110503065Y-56754749D01*
X109529430Y-56350461D01*
X108475195Y-56349541D01*
X107500856Y-56752129D01*
X106754749Y-57496935D01*
X106350461Y-58470570D01*
X106349541Y-59524805D01*
X104917526Y-59524805D01*
X105021917Y-59000000D01*
X104820198Y-57985889D01*
X104245750Y-57126167D01*
X103386028Y-56551719D01*
X102371917Y-56350000D01*
X102268083Y-56350000D01*
X101253972Y-56551719D01*
X100394250Y-57126167D01*
X99819802Y-57985889D01*
X99618083Y-59000000D01*
X84650001Y-59000000D01*
X84650459Y-58475195D01*
X84247871Y-57500856D01*
X83503065Y-56754749D01*
X82529430Y-56350461D01*
X81475195Y-56349541D01*
X80500856Y-56752129D01*
X79754749Y-57496935D01*
X79350461Y-58470570D01*
X79349541Y-59524805D01*
X77917526Y-59524805D01*
X78021917Y-59000000D01*
X77820198Y-57985889D01*
X77245750Y-57126167D01*
X76386028Y-56551719D01*
X75371917Y-56350000D01*
X75268083Y-56350000D01*
X74253972Y-56551719D01*
X73394250Y-57126167D01*
X72819802Y-57985889D01*
X72618083Y-59000000D01*
X57650001Y-59000000D01*
X57650459Y-58475195D01*
X57247871Y-57500856D01*
X56503065Y-56754749D01*
X55529430Y-56350461D01*
X54475195Y-56349541D01*
X53500856Y-56752129D01*
X52754749Y-57496935D01*
X52350461Y-58470570D01*
X52349541Y-59524805D01*
X50717526Y-59524805D01*
X50821917Y-59000000D01*
X50620198Y-57985889D01*
X50045750Y-57126167D01*
X49186028Y-56551719D01*
X48171917Y-56350000D01*
X48068083Y-56350000D01*
X47053972Y-56551719D01*
X46194250Y-57126167D01*
X45619802Y-57985889D01*
X45418083Y-59000000D01*
X44250000Y-59000000D01*
X44250000Y-52534432D01*
X44391615Y-52669404D01*
X44534178Y-52786990D01*
X44825000Y-52707723D01*
X44825000Y-51125000D01*
X44250000Y-51125000D01*
X44250000Y-50250000D01*
X46700000Y-50250000D01*
X46700000Y-51125000D01*
M02*
