G04 #@! TF.FileFunction,Copper,L2,Bot,Signal*
%FSLAX46Y46*%
G04 Gerber Fmt 4.6, Leading zero omitted, Abs format (unit mm)*
G04 Created by KiCad (PCBNEW 4.0.7) date 01/17/21 18:13:38*
%MOMM*%
%LPD*%
G01*
G04 APERTURE LIST*
%ADD10C,0.100000*%
%ADD11C,1.600000*%
%ADD12C,2.400000*%
%ADD13R,2.000000X2.000000*%
%ADD14C,2.000000*%
%ADD15R,2.200000X2.200000*%
%ADD16O,2.200000X2.200000*%
%ADD17R,1.800000X1.800000*%
%ADD18C,1.800000*%
%ADD19O,2.400000X2.400000*%
%ADD20O,1.600000X1.600000*%
%ADD21R,3.000000X3.000000*%
%ADD22C,3.000000*%
%ADD23O,1.500000X2.500000*%
%ADD24C,4.000000*%
%ADD25C,2.000000*%
%ADD26C,1.000000*%
G04 APERTURE END LIST*
D10*
D11*
X188500000Y-73000000D03*
X178500000Y-73000000D03*
D12*
X163000000Y-104000000D03*
X140500000Y-104000000D03*
D13*
X141000000Y-120000000D03*
D14*
X146000000Y-120000000D03*
D15*
X132000000Y-110000000D03*
D16*
X132000000Y-102380000D03*
D15*
X155000000Y-112000000D03*
D16*
X155000000Y-119620000D03*
D15*
X136000000Y-110000000D03*
D16*
X136000000Y-102380000D03*
D15*
X151300000Y-112000000D03*
D16*
X151300000Y-119620000D03*
D15*
X128000000Y-102000000D03*
D16*
X128000000Y-109620000D03*
D17*
X132000000Y-119000000D03*
D18*
X132000000Y-121540000D03*
D12*
X142000000Y-89000000D03*
D19*
X164400000Y-89000000D03*
D11*
X124000000Y-109000000D03*
D20*
X124000000Y-101380000D03*
D12*
X183500000Y-85200000D03*
D19*
X205900000Y-85200000D03*
D12*
X183700000Y-108700000D03*
D19*
X206100000Y-108700000D03*
D12*
X183700000Y-100800000D03*
D19*
X206100000Y-100800000D03*
D12*
X183600000Y-93000000D03*
D19*
X206000000Y-93000000D03*
D14*
X169200000Y-111000000D03*
X169200000Y-95760000D03*
X169200000Y-85600000D03*
X169200000Y-90680000D03*
X176800000Y-111000000D03*
X176800000Y-90680000D03*
X176800000Y-95760000D03*
X176800000Y-85600000D03*
D11*
X156720000Y-97040000D03*
D20*
X149100000Y-97040000D03*
D15*
X130000000Y-92000000D03*
D16*
X122380000Y-92000000D03*
D15*
X130000000Y-96000000D03*
D16*
X122380000Y-96000000D03*
D21*
X125000000Y-87000000D03*
D22*
X125000000Y-81920000D03*
D14*
X133000000Y-74200000D03*
X148240000Y-74200000D03*
X158400000Y-74200000D03*
X153320000Y-74200000D03*
X133000000Y-81800000D03*
X153320000Y-81800000D03*
X148240000Y-81800000D03*
X158400000Y-81800000D03*
D23*
X166200000Y-77940000D03*
X166200000Y-72860000D03*
X163300000Y-122640000D03*
X163300000Y-117560000D03*
X174000000Y-77940000D03*
X174000000Y-72860000D03*
X193600000Y-76140000D03*
X193600000Y-71060000D03*
X171300000Y-122540000D03*
X171300000Y-117460000D03*
X180300000Y-122840000D03*
X180300000Y-117760000D03*
X196600000Y-122840000D03*
X196600000Y-117760000D03*
X188300000Y-122840000D03*
X188300000Y-117760000D03*
D24*
X193600000Y-76140000D02*
X193600000Y-76200000D01*
X193600000Y-76200000D02*
X202600000Y-85200000D01*
X202600000Y-85200000D02*
X205900000Y-85200000D01*
X196600000Y-117760000D02*
X197040000Y-117760000D01*
X197040000Y-117760000D02*
X206100000Y-108700000D01*
X196600000Y-117760000D02*
X196600000Y-122840000D01*
D25*
X164400000Y-89000000D02*
X164400000Y-84800000D01*
X164400000Y-84800000D02*
X165200000Y-84000000D01*
X165200000Y-84000000D02*
X168000000Y-84000000D01*
X164400000Y-89000000D02*
X164400000Y-87600000D01*
X164400000Y-87600000D02*
X168000000Y-84000000D01*
D24*
X188500000Y-73000000D02*
X186000000Y-73000000D01*
D25*
X172700000Y-86300000D02*
X168300000Y-86300000D01*
X172700000Y-86300000D02*
X186000000Y-73000000D01*
D24*
X193700000Y-73300000D02*
X188800000Y-73300000D01*
X188800000Y-73300000D02*
X188500000Y-73000000D01*
X193600000Y-71060000D02*
X193700000Y-73300000D01*
X193700000Y-73300000D02*
X193600000Y-76140000D01*
D25*
X164400000Y-89000000D02*
X164400000Y-88400000D01*
X164400000Y-88400000D02*
X165000000Y-87000000D01*
X148000000Y-87000000D02*
X148000000Y-88000000D01*
X147000000Y-87000000D02*
X148000000Y-87000000D01*
X165000000Y-87000000D02*
X147000000Y-87000000D01*
X175200000Y-84000000D02*
X176800000Y-85600000D01*
X168000000Y-84000000D02*
X175200000Y-84000000D01*
X153320000Y-89000000D02*
X164400000Y-89000000D01*
X176800000Y-85600000D02*
X176800000Y-84700000D01*
X176800000Y-84700000D02*
X188500000Y-73000000D01*
X164400000Y-89000000D02*
X164793103Y-87482759D01*
X164793103Y-87482759D02*
X168300000Y-86300000D01*
X168300000Y-86300000D02*
X168650000Y-85950000D01*
X168650000Y-85950000D02*
X169200000Y-85600000D01*
X168650000Y-85950000D02*
X176250000Y-85950000D01*
X153320000Y-81800000D02*
X153320000Y-89000000D01*
X153320000Y-89000000D02*
X154000000Y-89000000D01*
X153320000Y-74200000D02*
X153320000Y-72320000D01*
X144000000Y-84000000D02*
X148000000Y-88000000D01*
X148000000Y-88000000D02*
X149000000Y-89000000D01*
X144000000Y-72000000D02*
X144000000Y-84000000D01*
X145000000Y-71000000D02*
X144000000Y-72000000D01*
X152000000Y-71000000D02*
X145000000Y-71000000D01*
X153320000Y-72320000D02*
X152000000Y-71000000D01*
X149000000Y-89000000D02*
X154000000Y-89000000D01*
X153320000Y-74200000D02*
X153320000Y-81800000D01*
D24*
X206100000Y-100800000D02*
X206100000Y-108700000D01*
X206000000Y-93000000D02*
X206100000Y-100800000D01*
X205900000Y-85200000D02*
X206000000Y-93000000D01*
X174000000Y-77940000D02*
X174000000Y-72860000D01*
X166200000Y-77940000D02*
X174000000Y-77940000D01*
X166200000Y-72860000D02*
X166200000Y-77940000D01*
X166200000Y-72860000D02*
X159740000Y-72860000D01*
X159740000Y-72860000D02*
X158400000Y-74200000D01*
X174000000Y-72860000D02*
X166200000Y-72860000D01*
X178500000Y-73000000D02*
X173300000Y-73000000D01*
X173300000Y-73000000D02*
X173000000Y-73300000D01*
X158400000Y-74200000D02*
X158400000Y-81800000D01*
D26*
X156720000Y-97040000D02*
X156720000Y-97720000D01*
X156720000Y-97720000D02*
X163000000Y-104000000D01*
X156720000Y-97040000D02*
X156720000Y-99455000D01*
X135630000Y-98750000D02*
X132000000Y-102380000D01*
X140425000Y-98750000D02*
X135630000Y-98750000D01*
X142500000Y-100825000D02*
X140425000Y-98750000D01*
X155350000Y-100825000D02*
X142500000Y-100825000D01*
X156720000Y-99455000D02*
X155350000Y-100825000D01*
X163000000Y-104000000D02*
X159270000Y-104000000D01*
X158000000Y-105270000D02*
X155000000Y-112000000D01*
X159270000Y-104000000D02*
X158000000Y-105270000D01*
X140000000Y-103500000D02*
X140500000Y-104000000D01*
X155500000Y-115700000D02*
X155500000Y-115400000D01*
X159900000Y-111000000D02*
X169200000Y-111000000D01*
X155500000Y-115400000D02*
X159900000Y-111000000D01*
X141000000Y-120000000D02*
X141000000Y-117100000D01*
X141000000Y-117100000D02*
X142400000Y-115700000D01*
X148000000Y-115700000D02*
X142400000Y-115700000D01*
X142400000Y-115700000D02*
X141700000Y-115700000D01*
X141700000Y-115700000D02*
X136000000Y-110000000D01*
X155500000Y-115700000D02*
X148000000Y-115700000D01*
X148000000Y-115700000D02*
X147725000Y-115700000D01*
X136000000Y-110000000D02*
X136000000Y-110075000D01*
X128000000Y-102000000D02*
X128000000Y-104000000D01*
X130000000Y-108000000D02*
X132000000Y-110000000D01*
X130000000Y-106000000D02*
X130000000Y-108000000D01*
X128000000Y-104000000D02*
X130000000Y-106000000D01*
X124000000Y-101380000D02*
X127380000Y-101380000D01*
X127380000Y-101380000D02*
X128000000Y-102000000D01*
X132000000Y-110000000D02*
X136000000Y-110000000D01*
X167100000Y-113000000D02*
X161620000Y-113000000D01*
X161620000Y-113000000D02*
X155000000Y-119620000D01*
X167100000Y-113000000D02*
X174800000Y-113000000D01*
X146000000Y-120000000D02*
X146000000Y-121000000D01*
X146000000Y-121000000D02*
X144250000Y-122750000D01*
X134250000Y-119000000D02*
X132000000Y-119000000D01*
X138000000Y-122750000D02*
X134250000Y-119000000D01*
X144250000Y-122750000D02*
X138000000Y-122750000D01*
X151300000Y-119620000D02*
X146380000Y-119620000D01*
X146380000Y-119620000D02*
X146000000Y-120000000D01*
X155000000Y-119620000D02*
X155000000Y-119000000D01*
X174800000Y-113000000D02*
X176800000Y-111000000D01*
X155000000Y-119620000D02*
X151300000Y-119620000D01*
X128000000Y-109620000D02*
X128000000Y-114000000D01*
X131000000Y-118000000D02*
X132000000Y-119000000D01*
X131000000Y-117000000D02*
X131000000Y-118000000D01*
X128000000Y-114000000D02*
X131000000Y-117000000D01*
X128000000Y-109620000D02*
X128000000Y-110000000D01*
D24*
X171300000Y-117460000D02*
X163400000Y-117460000D01*
X163400000Y-117460000D02*
X163300000Y-117560000D01*
X163300000Y-122640000D02*
X171200000Y-122640000D01*
X171200000Y-122640000D02*
X171300000Y-122540000D01*
X171300000Y-117460000D02*
X171300000Y-122540000D01*
X163300000Y-117560000D02*
X163300000Y-122500000D01*
X163300000Y-122500000D02*
X163300000Y-122640000D01*
D26*
X136000000Y-102380000D02*
X136000000Y-104800000D01*
X149800000Y-107425000D02*
X151300000Y-111625000D01*
X138625000Y-107425000D02*
X149800000Y-107425000D01*
X136000000Y-104800000D02*
X138625000Y-107425000D01*
X151300000Y-111625000D02*
X151300000Y-112000000D01*
X124000000Y-109000000D02*
X124000000Y-113000000D01*
X129540000Y-121540000D02*
X132000000Y-121540000D01*
X129000000Y-121000000D02*
X129540000Y-121540000D01*
X129000000Y-118000000D02*
X129000000Y-121000000D01*
X124000000Y-113000000D02*
X129000000Y-118000000D01*
X176800000Y-95760000D02*
X169200000Y-95760000D01*
X133000000Y-74200000D02*
X132720000Y-74200000D01*
X132720000Y-74200000D02*
X125000000Y-81920000D01*
X130000000Y-92000000D02*
X131000000Y-92000000D01*
X131000000Y-92000000D02*
X136500000Y-86500000D01*
X136500000Y-86500000D02*
X136500000Y-77700000D01*
X136500000Y-77700000D02*
X133000000Y-74200000D01*
X122380000Y-92000000D02*
X122380000Y-96000000D01*
X125000000Y-87000000D02*
X127800000Y-87000000D01*
X127800000Y-87000000D02*
X133000000Y-81800000D01*
X130000000Y-96000000D02*
X126000000Y-96000000D01*
X125000000Y-95000000D02*
X125000000Y-87000000D01*
X126000000Y-96000000D02*
X125000000Y-95000000D01*
X148240000Y-74200000D02*
X148240000Y-81800000D01*
D24*
X188300000Y-117760000D02*
X180300000Y-117760000D01*
X188300000Y-122840000D02*
X180300000Y-122840000D01*
X188300000Y-117760000D02*
X188300000Y-122840000D01*
X180300000Y-117760000D02*
X180300000Y-122840000D01*
X183700000Y-108700000D02*
X183700000Y-114560000D01*
X183700000Y-114560000D02*
X180300000Y-117760000D01*
X183500000Y-85200000D02*
X183500000Y-92900000D01*
X183500000Y-92900000D02*
X183600000Y-93000000D01*
D25*
X169200000Y-90680000D02*
X169200000Y-90800000D01*
X169200000Y-90800000D02*
X166000000Y-94000000D01*
X180000000Y-100000000D02*
X183700000Y-100800000D01*
X167000000Y-100000000D02*
X180000000Y-100000000D01*
X166000000Y-99000000D02*
X167000000Y-100000000D01*
X166000000Y-94000000D02*
X166000000Y-99000000D01*
X176800000Y-90680000D02*
X178680000Y-90680000D01*
X178680000Y-90680000D02*
X183600000Y-93000000D01*
X169200000Y-90680000D02*
X176800000Y-90680000D01*
D24*
X183600000Y-93000000D02*
X183700000Y-100800000D01*
X183700000Y-100800000D02*
X183700000Y-108700000D01*
M02*
