G04 #@! TF.FileFunction,Legend,Top*
%FSLAX46Y46*%
G04 Gerber Fmt 4.6, Leading zero omitted, Abs format (unit mm)*
G04 Created by KiCad (PCBNEW 4.0.7) date 01/17/21 18:13:38*
%MOMM*%
%LPD*%
G01*
G04 APERTURE LIST*
%ADD10C,0.100000*%
%ADD11C,0.300000*%
%ADD12C,0.200000*%
%ADD13C,0.120000*%
%ADD14C,0.150000*%
G04 APERTURE END LIST*
D10*
D11*
X200178571Y-122264286D02*
X198678571Y-122264286D01*
X198678571Y-121692858D01*
X198750000Y-121550000D01*
X198821429Y-121478572D01*
X198964286Y-121407143D01*
X199178571Y-121407143D01*
X199321429Y-121478572D01*
X199392857Y-121550000D01*
X199464286Y-121692858D01*
X199464286Y-122264286D01*
X198678571Y-120478572D02*
X198678571Y-120192858D01*
X198750000Y-120050000D01*
X198892857Y-119907143D01*
X199178571Y-119835715D01*
X199678571Y-119835715D01*
X199964286Y-119907143D01*
X200107143Y-120050000D01*
X200178571Y-120192858D01*
X200178571Y-120478572D01*
X200107143Y-120621429D01*
X199964286Y-120764286D01*
X199678571Y-120835715D01*
X199178571Y-120835715D01*
X198892857Y-120764286D01*
X198750000Y-120621429D01*
X198678571Y-120478572D01*
X200178571Y-118478571D02*
X200178571Y-119192857D01*
X198678571Y-119192857D01*
X199392857Y-117978571D02*
X199392857Y-117478571D01*
X200178571Y-117264285D02*
X200178571Y-117978571D01*
X198678571Y-117978571D01*
X198678571Y-117264285D01*
X132821429Y-86892857D02*
X133535714Y-86392857D01*
X132821429Y-86035714D02*
X134321429Y-86035714D01*
X134321429Y-86607142D01*
X134250000Y-86750000D01*
X134178571Y-86821428D01*
X134035714Y-86892857D01*
X133821429Y-86892857D01*
X133678571Y-86821428D01*
X133607143Y-86750000D01*
X133535714Y-86607142D01*
X133535714Y-86035714D01*
X133607143Y-87535714D02*
X133607143Y-88035714D01*
X132821429Y-88250000D02*
X132821429Y-87535714D01*
X134321429Y-87535714D01*
X134321429Y-88250000D01*
X132821429Y-88892857D02*
X134321429Y-88892857D01*
X133250000Y-89392857D01*
X134321429Y-89892857D01*
X132821429Y-89892857D01*
X134321429Y-90892857D02*
X134321429Y-91178571D01*
X134250000Y-91321429D01*
X134107143Y-91464286D01*
X133821429Y-91535714D01*
X133321429Y-91535714D01*
X133035714Y-91464286D01*
X132892857Y-91321429D01*
X132821429Y-91178571D01*
X132821429Y-90892857D01*
X132892857Y-90750000D01*
X133035714Y-90607143D01*
X133321429Y-90535714D01*
X133821429Y-90535714D01*
X134107143Y-90607143D01*
X134250000Y-90750000D01*
X134321429Y-90892857D01*
X134321429Y-91964286D02*
X134321429Y-92821429D01*
X132821429Y-92392858D02*
X134321429Y-92392858D01*
X133607143Y-93321429D02*
X133607143Y-93821429D01*
X132821429Y-94035715D02*
X132821429Y-93321429D01*
X134321429Y-93321429D01*
X134321429Y-94035715D01*
D12*
X120742857Y-113485714D02*
X120914286Y-113542857D01*
X121200000Y-113542857D01*
X121314286Y-113485714D01*
X121371429Y-113428571D01*
X121428572Y-113314286D01*
X121428572Y-113200000D01*
X121371429Y-113085714D01*
X121314286Y-113028571D01*
X121200000Y-112971429D01*
X120971429Y-112914286D01*
X120857143Y-112857143D01*
X120800000Y-112800000D01*
X120742857Y-112685714D01*
X120742857Y-112571429D01*
X120800000Y-112457143D01*
X120857143Y-112400000D01*
X120971429Y-112342857D01*
X121257143Y-112342857D01*
X121428572Y-112400000D01*
X122171429Y-112342857D02*
X122400000Y-112342857D01*
X122514286Y-112400000D01*
X122628572Y-112514286D01*
X122685714Y-112742857D01*
X122685714Y-113142857D01*
X122628572Y-113371429D01*
X122514286Y-113485714D01*
X122400000Y-113542857D01*
X122171429Y-113542857D01*
X122057143Y-113485714D01*
X121942857Y-113371429D01*
X121885714Y-113142857D01*
X121885714Y-112742857D01*
X121942857Y-112514286D01*
X122057143Y-112400000D01*
X122171429Y-112342857D01*
X123600000Y-112914286D02*
X123200000Y-112914286D01*
X123200000Y-113542857D02*
X123200000Y-112342857D01*
X123771429Y-112342857D01*
X124057143Y-112342857D02*
X124742857Y-112342857D01*
X124400000Y-113542857D02*
X124400000Y-112342857D01*
X126000000Y-113485714D02*
X126171429Y-113542857D01*
X126457143Y-113542857D01*
X126571429Y-113485714D01*
X126628572Y-113428571D01*
X126685715Y-113314286D01*
X126685715Y-113200000D01*
X126628572Y-113085714D01*
X126571429Y-113028571D01*
X126457143Y-112971429D01*
X126228572Y-112914286D01*
X126114286Y-112857143D01*
X126057143Y-112800000D01*
X126000000Y-112685714D01*
X126000000Y-112571429D01*
X126057143Y-112457143D01*
X126114286Y-112400000D01*
X126228572Y-112342857D01*
X126514286Y-112342857D01*
X126685715Y-112400000D01*
X127028572Y-112342857D02*
X127714286Y-112342857D01*
X127371429Y-113542857D02*
X127371429Y-112342857D01*
X128057143Y-113200000D02*
X128628572Y-113200000D01*
X127942858Y-113542857D02*
X128342858Y-112342857D01*
X128742858Y-113542857D01*
X129828572Y-113542857D02*
X129428572Y-112971429D01*
X129142857Y-113542857D02*
X129142857Y-112342857D01*
X129600000Y-112342857D01*
X129714286Y-112400000D01*
X129771429Y-112457143D01*
X129828572Y-112571429D01*
X129828572Y-112742857D01*
X129771429Y-112857143D01*
X129714286Y-112914286D01*
X129600000Y-112971429D01*
X129142857Y-112971429D01*
X130171429Y-112342857D02*
X130857143Y-112342857D01*
X130514286Y-113542857D02*
X130514286Y-112342857D01*
X132171429Y-113542857D02*
X132171429Y-112342857D01*
X132628572Y-112342857D01*
X132742858Y-112400000D01*
X132800001Y-112457143D01*
X132857144Y-112571429D01*
X132857144Y-112742857D01*
X132800001Y-112857143D01*
X132742858Y-112914286D01*
X132628572Y-112971429D01*
X132171429Y-112971429D01*
X134057144Y-113428571D02*
X134000001Y-113485714D01*
X133828572Y-113542857D01*
X133714286Y-113542857D01*
X133542858Y-113485714D01*
X133428572Y-113371429D01*
X133371429Y-113257143D01*
X133314286Y-113028571D01*
X133314286Y-112857143D01*
X133371429Y-112628571D01*
X133428572Y-112514286D01*
X133542858Y-112400000D01*
X133714286Y-112342857D01*
X133828572Y-112342857D01*
X134000001Y-112400000D01*
X134057144Y-112457143D01*
X134971429Y-112914286D02*
X135142858Y-112971429D01*
X135200001Y-113028571D01*
X135257144Y-113142857D01*
X135257144Y-113314286D01*
X135200001Y-113428571D01*
X135142858Y-113485714D01*
X135028572Y-113542857D01*
X134571429Y-113542857D01*
X134571429Y-112342857D01*
X134971429Y-112342857D01*
X135085715Y-112400000D01*
X135142858Y-112457143D01*
X135200001Y-112571429D01*
X135200001Y-112685714D01*
X135142858Y-112800000D01*
X135085715Y-112857143D01*
X134971429Y-112914286D01*
X134571429Y-112914286D01*
X122800000Y-114914286D02*
X122971429Y-114971429D01*
X123028572Y-115028571D01*
X123085715Y-115142857D01*
X123085715Y-115314286D01*
X123028572Y-115428571D01*
X122971429Y-115485714D01*
X122857143Y-115542857D01*
X122400000Y-115542857D01*
X122400000Y-114342857D01*
X122800000Y-114342857D01*
X122914286Y-114400000D01*
X122971429Y-114457143D01*
X123028572Y-114571429D01*
X123028572Y-114685714D01*
X122971429Y-114800000D01*
X122914286Y-114857143D01*
X122800000Y-114914286D01*
X122400000Y-114914286D01*
X123828572Y-114971429D02*
X123828572Y-115542857D01*
X123428572Y-114342857D02*
X123828572Y-114971429D01*
X124228572Y-114342857D01*
X125542857Y-115542857D02*
X125542857Y-114342857D01*
X125828572Y-114342857D01*
X126000000Y-114400000D01*
X126114286Y-114514286D01*
X126171429Y-114628571D01*
X126228572Y-114857143D01*
X126228572Y-115028571D01*
X126171429Y-115257143D01*
X126114286Y-115371429D01*
X126000000Y-115485714D01*
X125828572Y-115542857D01*
X125542857Y-115542857D01*
X126742857Y-115428571D02*
X126800000Y-115485714D01*
X126742857Y-115542857D01*
X126685714Y-115485714D01*
X126742857Y-115428571D01*
X126742857Y-115542857D01*
X128228572Y-115542857D02*
X128228572Y-114342857D01*
X128628572Y-115200000D01*
X129028572Y-114342857D01*
X129028572Y-115542857D01*
X129542858Y-115200000D02*
X130114287Y-115200000D01*
X129428573Y-115542857D02*
X129828573Y-114342857D01*
X130228573Y-115542857D01*
X131314287Y-115542857D02*
X130914287Y-114971429D01*
X130628572Y-115542857D02*
X130628572Y-114342857D01*
X131085715Y-114342857D01*
X131200001Y-114400000D01*
X131257144Y-114457143D01*
X131314287Y-114571429D01*
X131314287Y-114742857D01*
X131257144Y-114857143D01*
X131200001Y-114914286D01*
X131085715Y-114971429D01*
X130628572Y-114971429D01*
X131828572Y-115542857D02*
X131828572Y-114342857D01*
X132514287Y-115542857D02*
X132000001Y-114857143D01*
X132514287Y-114342857D02*
X131828572Y-115028571D01*
X132971429Y-115485714D02*
X133142858Y-115542857D01*
X133428572Y-115542857D01*
X133542858Y-115485714D01*
X133600001Y-115428571D01*
X133657144Y-115314286D01*
X133657144Y-115200000D01*
X133600001Y-115085714D01*
X133542858Y-115028571D01*
X133428572Y-114971429D01*
X133200001Y-114914286D01*
X133085715Y-114857143D01*
X133028572Y-114800000D01*
X132971429Y-114685714D01*
X132971429Y-114571429D01*
X133028572Y-114457143D01*
X133085715Y-114400000D01*
X133200001Y-114342857D01*
X133485715Y-114342857D01*
X133657144Y-114400000D01*
X122200001Y-117428571D02*
X122142858Y-117485714D01*
X121971429Y-117542857D01*
X121857143Y-117542857D01*
X121685715Y-117485714D01*
X121571429Y-117371429D01*
X121514286Y-117257143D01*
X121457143Y-117028571D01*
X121457143Y-116857143D01*
X121514286Y-116628571D01*
X121571429Y-116514286D01*
X121685715Y-116400000D01*
X121857143Y-116342857D01*
X121971429Y-116342857D01*
X122142858Y-116400000D01*
X122200001Y-116457143D01*
X123400001Y-117428571D02*
X123342858Y-117485714D01*
X123171429Y-117542857D01*
X123057143Y-117542857D01*
X122885715Y-117485714D01*
X122771429Y-117371429D01*
X122714286Y-117257143D01*
X122657143Y-117028571D01*
X122657143Y-116857143D01*
X122714286Y-116628571D01*
X122771429Y-116514286D01*
X122885715Y-116400000D01*
X123057143Y-116342857D01*
X123171429Y-116342857D01*
X123342858Y-116400000D01*
X123400001Y-116457143D01*
X123914286Y-117085714D02*
X124828572Y-117085714D01*
X125800000Y-116914286D02*
X125971429Y-116971429D01*
X126028572Y-117028571D01*
X126085715Y-117142857D01*
X126085715Y-117314286D01*
X126028572Y-117428571D01*
X125971429Y-117485714D01*
X125857143Y-117542857D01*
X125400000Y-117542857D01*
X125400000Y-116342857D01*
X125800000Y-116342857D01*
X125914286Y-116400000D01*
X125971429Y-116457143D01*
X126028572Y-116571429D01*
X126028572Y-116685714D01*
X125971429Y-116800000D01*
X125914286Y-116857143D01*
X125800000Y-116914286D01*
X125400000Y-116914286D01*
X126828572Y-116971429D02*
X126828572Y-117542857D01*
X126428572Y-116342857D02*
X126828572Y-116971429D01*
X127228572Y-116342857D01*
X127628571Y-117085714D02*
X128542857Y-117085714D01*
X129057142Y-117485714D02*
X129228571Y-117542857D01*
X129514285Y-117542857D01*
X129628571Y-117485714D01*
X129685714Y-117428571D01*
X129742857Y-117314286D01*
X129742857Y-117200000D01*
X129685714Y-117085714D01*
X129628571Y-117028571D01*
X129514285Y-116971429D01*
X129285714Y-116914286D01*
X129171428Y-116857143D01*
X129114285Y-116800000D01*
X129057142Y-116685714D01*
X129057142Y-116571429D01*
X129114285Y-116457143D01*
X129171428Y-116400000D01*
X129285714Y-116342857D01*
X129571428Y-116342857D01*
X129742857Y-116400000D01*
X130199999Y-117200000D02*
X130771428Y-117200000D01*
X130085714Y-117542857D02*
X130485714Y-116342857D01*
X130885714Y-117542857D01*
X132714285Y-116742857D02*
X132714285Y-117542857D01*
X132428571Y-116285714D02*
X132142856Y-117142857D01*
X132885714Y-117142857D01*
X133342856Y-117428571D02*
X133399999Y-117485714D01*
X133342856Y-117542857D01*
X133285713Y-117485714D01*
X133342856Y-117428571D01*
X133342856Y-117542857D01*
X134142857Y-116342857D02*
X134257142Y-116342857D01*
X134371428Y-116400000D01*
X134428571Y-116457143D01*
X134485714Y-116571429D01*
X134542857Y-116800000D01*
X134542857Y-117085714D01*
X134485714Y-117314286D01*
X134428571Y-117428571D01*
X134371428Y-117485714D01*
X134257142Y-117542857D01*
X134142857Y-117542857D01*
X134028571Y-117485714D01*
X133971428Y-117428571D01*
X133914285Y-117314286D01*
X133857142Y-117085714D01*
X133857142Y-116800000D01*
X133914285Y-116571429D01*
X133971428Y-116457143D01*
X134028571Y-116400000D01*
X134142857Y-116342857D01*
D11*
X197678571Y-75864286D02*
X196178571Y-75864286D01*
X196178571Y-75292858D01*
X196250000Y-75150000D01*
X196321429Y-75078572D01*
X196464286Y-75007143D01*
X196678571Y-75007143D01*
X196821429Y-75078572D01*
X196892857Y-75150000D01*
X196964286Y-75292858D01*
X196964286Y-75864286D01*
X196178571Y-74078572D02*
X196178571Y-73792858D01*
X196250000Y-73650000D01*
X196392857Y-73507143D01*
X196678571Y-73435715D01*
X197178571Y-73435715D01*
X197464286Y-73507143D01*
X197607143Y-73650000D01*
X197678571Y-73792858D01*
X197678571Y-74078572D01*
X197607143Y-74221429D01*
X197464286Y-74364286D01*
X197178571Y-74435715D01*
X196678571Y-74435715D01*
X196392857Y-74364286D01*
X196250000Y-74221429D01*
X196178571Y-74078572D01*
X197678571Y-72078571D02*
X197678571Y-72792857D01*
X196178571Y-72792857D01*
X196892857Y-71578571D02*
X196892857Y-71078571D01*
X197678571Y-70864285D02*
X197678571Y-71578571D01*
X196178571Y-71578571D01*
X196178571Y-70864285D01*
X170192857Y-69278571D02*
X171050000Y-69278571D01*
X170621429Y-70778571D02*
X170621429Y-69278571D01*
X171550000Y-70778571D02*
X171550000Y-69278571D01*
X171550000Y-69992857D02*
X172407143Y-69992857D01*
X172407143Y-70778571D02*
X172407143Y-69278571D01*
X173978572Y-70778571D02*
X173478572Y-70064286D01*
X173121429Y-70778571D02*
X173121429Y-69278571D01*
X173692857Y-69278571D01*
X173835715Y-69350000D01*
X173907143Y-69421429D01*
X173978572Y-69564286D01*
X173978572Y-69778571D01*
X173907143Y-69921429D01*
X173835715Y-69992857D01*
X173692857Y-70064286D01*
X173121429Y-70064286D01*
X174907143Y-69278571D02*
X175192857Y-69278571D01*
X175335715Y-69350000D01*
X175478572Y-69492857D01*
X175550000Y-69778571D01*
X175550000Y-70278571D01*
X175478572Y-70564286D01*
X175335715Y-70707143D01*
X175192857Y-70778571D01*
X174907143Y-70778571D01*
X174764286Y-70707143D01*
X174621429Y-70564286D01*
X174550000Y-70278571D01*
X174550000Y-69778571D01*
X174621429Y-69492857D01*
X174764286Y-69350000D01*
X174907143Y-69278571D01*
X176050001Y-69278571D02*
X176407144Y-70778571D01*
X176692858Y-69707143D01*
X176978572Y-70778571D01*
X177335715Y-69278571D01*
X168078571Y-124164286D02*
X166578571Y-124164286D01*
X168078571Y-123307143D01*
X166578571Y-123307143D01*
X167292857Y-122592857D02*
X167292857Y-122092857D01*
X168078571Y-121878571D02*
X168078571Y-122592857D01*
X166578571Y-122592857D01*
X166578571Y-121878571D01*
X166578571Y-121235714D02*
X167792857Y-121235714D01*
X167935714Y-121164286D01*
X168007143Y-121092857D01*
X168078571Y-120950000D01*
X168078571Y-120664286D01*
X168007143Y-120521428D01*
X167935714Y-120450000D01*
X167792857Y-120378571D01*
X166578571Y-120378571D01*
X166578571Y-119878571D02*
X166578571Y-119021428D01*
X168078571Y-119449999D02*
X166578571Y-119449999D01*
X168078571Y-117664285D02*
X167364286Y-118164285D01*
X168078571Y-118521428D02*
X166578571Y-118521428D01*
X166578571Y-117950000D01*
X166650000Y-117807142D01*
X166721429Y-117735714D01*
X166864286Y-117664285D01*
X167078571Y-117664285D01*
X167221429Y-117735714D01*
X167292857Y-117807142D01*
X167364286Y-117950000D01*
X167364286Y-118521428D01*
X167650000Y-117092857D02*
X167650000Y-116378571D01*
X168078571Y-117235714D02*
X166578571Y-116735714D01*
X168078571Y-116235714D01*
X168078571Y-115021428D02*
X168078571Y-115735714D01*
X166578571Y-115735714D01*
X164685715Y-70778571D02*
X163971429Y-70778571D01*
X163971429Y-69278571D01*
X165185715Y-70778571D02*
X165185715Y-69278571D01*
X165685715Y-69278571D02*
X166185715Y-70778571D01*
X166685715Y-69278571D01*
X167185715Y-69992857D02*
X167685715Y-69992857D01*
X167900001Y-70778571D02*
X167185715Y-70778571D01*
X167185715Y-69278571D01*
X167900001Y-69278571D01*
X183678571Y-124007143D02*
X183678571Y-123721429D01*
X183750000Y-123578571D01*
X183892857Y-123435714D01*
X184178571Y-123364286D01*
X184678571Y-123364286D01*
X184964286Y-123435714D01*
X185107143Y-123578571D01*
X185178571Y-123721429D01*
X185178571Y-124007143D01*
X185107143Y-124150000D01*
X184964286Y-124292857D01*
X184678571Y-124364286D01*
X184178571Y-124364286D01*
X183892857Y-124292857D01*
X183750000Y-124150000D01*
X183678571Y-124007143D01*
X183678571Y-122721428D02*
X184892857Y-122721428D01*
X185035714Y-122650000D01*
X185107143Y-122578571D01*
X185178571Y-122435714D01*
X185178571Y-122150000D01*
X185107143Y-122007142D01*
X185035714Y-121935714D01*
X184892857Y-121864285D01*
X183678571Y-121864285D01*
X183678571Y-121364285D02*
X183678571Y-120507142D01*
X185178571Y-120935713D02*
X183678571Y-120935713D01*
X185178571Y-120007142D02*
X183678571Y-120007142D01*
X183678571Y-119435714D01*
X183750000Y-119292856D01*
X183821429Y-119221428D01*
X183964286Y-119149999D01*
X184178571Y-119149999D01*
X184321429Y-119221428D01*
X184392857Y-119292856D01*
X184464286Y-119435714D01*
X184464286Y-120007142D01*
X183678571Y-118507142D02*
X184892857Y-118507142D01*
X185035714Y-118435714D01*
X185107143Y-118364285D01*
X185178571Y-118221428D01*
X185178571Y-117935714D01*
X185107143Y-117792856D01*
X185035714Y-117721428D01*
X184892857Y-117649999D01*
X183678571Y-117649999D01*
X183678571Y-117149999D02*
X183678571Y-116292856D01*
X185178571Y-116721427D02*
X183678571Y-116721427D01*
D13*
X189310000Y-75310000D02*
X177690000Y-75310000D01*
X189310000Y-70690000D02*
X177690000Y-70690000D01*
X189310000Y-75310000D02*
X189310000Y-73750000D01*
X189310000Y-72250000D02*
X189310000Y-70690000D01*
X177690000Y-75310000D02*
X177690000Y-73750000D01*
X177690000Y-72250000D02*
X177690000Y-70690000D01*
X163810000Y-109110000D02*
X139690000Y-109110000D01*
X163810000Y-98890000D02*
X139690000Y-98890000D01*
X163810000Y-109110000D02*
X163810000Y-105395000D01*
X163810000Y-102605000D02*
X163810000Y-98890000D01*
X139690000Y-109110000D02*
X139690000Y-105395000D01*
X139690000Y-102605000D02*
X139690000Y-98890000D01*
X148398437Y-118616736D02*
G75*
G03X138600643Y-118620000I-4898437J-1383264D01*
G01*
X148398437Y-121383264D02*
G75*
G02X138600643Y-121380000I-4898437J1383264D01*
G01*
X148398437Y-121383264D02*
G75*
G03X148399357Y-118620000I-4898437J1383264D01*
G01*
X143500000Y-114950000D02*
X143500000Y-125050000D01*
X143540000Y-114950000D02*
X143540000Y-125050000D01*
X143580000Y-114950000D02*
X143580000Y-125050000D01*
X143620000Y-114951000D02*
X143620000Y-125049000D01*
X143660000Y-114952000D02*
X143660000Y-125048000D01*
X143700000Y-114953000D02*
X143700000Y-125047000D01*
X143740000Y-114955000D02*
X143740000Y-125045000D01*
X143780000Y-114957000D02*
X143780000Y-125043000D01*
X143820000Y-114960000D02*
X143820000Y-125040000D01*
X143860000Y-114962000D02*
X143860000Y-125038000D01*
X143900000Y-114965000D02*
X143900000Y-125035000D01*
X143940000Y-114969000D02*
X143940000Y-125031000D01*
X143980000Y-114972000D02*
X143980000Y-125028000D01*
X144020000Y-114976000D02*
X144020000Y-125024000D01*
X144060000Y-114980000D02*
X144060000Y-125020000D01*
X144100000Y-114985000D02*
X144100000Y-125015000D01*
X144140000Y-114990000D02*
X144140000Y-125010000D01*
X144180000Y-114995000D02*
X144180000Y-125005000D01*
X144221000Y-115001000D02*
X144221000Y-124999000D01*
X144261000Y-115007000D02*
X144261000Y-124993000D01*
X144301000Y-115013000D02*
X144301000Y-124987000D01*
X144341000Y-115019000D02*
X144341000Y-124981000D01*
X144381000Y-115026000D02*
X144381000Y-124974000D01*
X144421000Y-115033000D02*
X144421000Y-124967000D01*
X144461000Y-115041000D02*
X144461000Y-124959000D01*
X144501000Y-115049000D02*
X144501000Y-124951000D01*
X144541000Y-115057000D02*
X144541000Y-124943000D01*
X144581000Y-115065000D02*
X144581000Y-124935000D01*
X144621000Y-115074000D02*
X144621000Y-124926000D01*
X144661000Y-115083000D02*
X144661000Y-124917000D01*
X144701000Y-115093000D02*
X144701000Y-124907000D01*
X144741000Y-115103000D02*
X144741000Y-124897000D01*
X144781000Y-115113000D02*
X144781000Y-124887000D01*
X144821000Y-115124000D02*
X144821000Y-118819000D01*
X144821000Y-121181000D02*
X144821000Y-124876000D01*
X144861000Y-115135000D02*
X144861000Y-118819000D01*
X144861000Y-121181000D02*
X144861000Y-124865000D01*
X144901000Y-115146000D02*
X144901000Y-118819000D01*
X144901000Y-121181000D02*
X144901000Y-124854000D01*
X144941000Y-115157000D02*
X144941000Y-118819000D01*
X144941000Y-121181000D02*
X144941000Y-124843000D01*
X144981000Y-115169000D02*
X144981000Y-118819000D01*
X144981000Y-121181000D02*
X144981000Y-124831000D01*
X145021000Y-115182000D02*
X145021000Y-118819000D01*
X145021000Y-121181000D02*
X145021000Y-124818000D01*
X145061000Y-115194000D02*
X145061000Y-118819000D01*
X145061000Y-121181000D02*
X145061000Y-124806000D01*
X145101000Y-115208000D02*
X145101000Y-118819000D01*
X145101000Y-121181000D02*
X145101000Y-124792000D01*
X145141000Y-115221000D02*
X145141000Y-118819000D01*
X145141000Y-121181000D02*
X145141000Y-124779000D01*
X145181000Y-115235000D02*
X145181000Y-118819000D01*
X145181000Y-121181000D02*
X145181000Y-124765000D01*
X145221000Y-115249000D02*
X145221000Y-118819000D01*
X145221000Y-121181000D02*
X145221000Y-124751000D01*
X145261000Y-115263000D02*
X145261000Y-118819000D01*
X145261000Y-121181000D02*
X145261000Y-124737000D01*
X145301000Y-115278000D02*
X145301000Y-118819000D01*
X145301000Y-121181000D02*
X145301000Y-124722000D01*
X145341000Y-115294000D02*
X145341000Y-118819000D01*
X145341000Y-121181000D02*
X145341000Y-124706000D01*
X145381000Y-115309000D02*
X145381000Y-118819000D01*
X145381000Y-121181000D02*
X145381000Y-124691000D01*
X145421000Y-115326000D02*
X145421000Y-118819000D01*
X145421000Y-121181000D02*
X145421000Y-124674000D01*
X145461000Y-115342000D02*
X145461000Y-118819000D01*
X145461000Y-121181000D02*
X145461000Y-124658000D01*
X145501000Y-115359000D02*
X145501000Y-118819000D01*
X145501000Y-121181000D02*
X145501000Y-124641000D01*
X145541000Y-115376000D02*
X145541000Y-118819000D01*
X145541000Y-121181000D02*
X145541000Y-124624000D01*
X145581000Y-115394000D02*
X145581000Y-118819000D01*
X145581000Y-121181000D02*
X145581000Y-124606000D01*
X145621000Y-115412000D02*
X145621000Y-118819000D01*
X145621000Y-121181000D02*
X145621000Y-124588000D01*
X145661000Y-115431000D02*
X145661000Y-118819000D01*
X145661000Y-121181000D02*
X145661000Y-124569000D01*
X145701000Y-115450000D02*
X145701000Y-118819000D01*
X145701000Y-121181000D02*
X145701000Y-124550000D01*
X145741000Y-115469000D02*
X145741000Y-118819000D01*
X145741000Y-121181000D02*
X145741000Y-124531000D01*
X145781000Y-115489000D02*
X145781000Y-118819000D01*
X145781000Y-121181000D02*
X145781000Y-124511000D01*
X145821000Y-115509000D02*
X145821000Y-118819000D01*
X145821000Y-121181000D02*
X145821000Y-124491000D01*
X145861000Y-115530000D02*
X145861000Y-118819000D01*
X145861000Y-121181000D02*
X145861000Y-124470000D01*
X145901000Y-115551000D02*
X145901000Y-118819000D01*
X145901000Y-121181000D02*
X145901000Y-124449000D01*
X145941000Y-115572000D02*
X145941000Y-118819000D01*
X145941000Y-121181000D02*
X145941000Y-124428000D01*
X145981000Y-115595000D02*
X145981000Y-118819000D01*
X145981000Y-121181000D02*
X145981000Y-124405000D01*
X146021000Y-115617000D02*
X146021000Y-118819000D01*
X146021000Y-121181000D02*
X146021000Y-124383000D01*
X146061000Y-115640000D02*
X146061000Y-118819000D01*
X146061000Y-121181000D02*
X146061000Y-124360000D01*
X146101000Y-115664000D02*
X146101000Y-118819000D01*
X146101000Y-121181000D02*
X146101000Y-124336000D01*
X146141000Y-115688000D02*
X146141000Y-118819000D01*
X146141000Y-121181000D02*
X146141000Y-124312000D01*
X146181000Y-115712000D02*
X146181000Y-118819000D01*
X146181000Y-121181000D02*
X146181000Y-124288000D01*
X146221000Y-115737000D02*
X146221000Y-118819000D01*
X146221000Y-121181000D02*
X146221000Y-124263000D01*
X146261000Y-115763000D02*
X146261000Y-118819000D01*
X146261000Y-121181000D02*
X146261000Y-124237000D01*
X146301000Y-115789000D02*
X146301000Y-118819000D01*
X146301000Y-121181000D02*
X146301000Y-124211000D01*
X146341000Y-115815000D02*
X146341000Y-118819000D01*
X146341000Y-121181000D02*
X146341000Y-124185000D01*
X146381000Y-115843000D02*
X146381000Y-118819000D01*
X146381000Y-121181000D02*
X146381000Y-124157000D01*
X146421000Y-115870000D02*
X146421000Y-118819000D01*
X146421000Y-121181000D02*
X146421000Y-124130000D01*
X146461000Y-115899000D02*
X146461000Y-118819000D01*
X146461000Y-121181000D02*
X146461000Y-124101000D01*
X146501000Y-115928000D02*
X146501000Y-118819000D01*
X146501000Y-121181000D02*
X146501000Y-124072000D01*
X146541000Y-115957000D02*
X146541000Y-118819000D01*
X146541000Y-121181000D02*
X146541000Y-124043000D01*
X146581000Y-115987000D02*
X146581000Y-118819000D01*
X146581000Y-121181000D02*
X146581000Y-124013000D01*
X146621000Y-116018000D02*
X146621000Y-118819000D01*
X146621000Y-121181000D02*
X146621000Y-123982000D01*
X146661000Y-116049000D02*
X146661000Y-118819000D01*
X146661000Y-121181000D02*
X146661000Y-123951000D01*
X146701000Y-116081000D02*
X146701000Y-118819000D01*
X146701000Y-121181000D02*
X146701000Y-123919000D01*
X146741000Y-116114000D02*
X146741000Y-118819000D01*
X146741000Y-121181000D02*
X146741000Y-123886000D01*
X146781000Y-116147000D02*
X146781000Y-118819000D01*
X146781000Y-121181000D02*
X146781000Y-123853000D01*
X146821000Y-116181000D02*
X146821000Y-118819000D01*
X146821000Y-121181000D02*
X146821000Y-123819000D01*
X146861000Y-116216000D02*
X146861000Y-118819000D01*
X146861000Y-121181000D02*
X146861000Y-123784000D01*
X146901000Y-116252000D02*
X146901000Y-118819000D01*
X146901000Y-121181000D02*
X146901000Y-123748000D01*
X146941000Y-116288000D02*
X146941000Y-118819000D01*
X146941000Y-121181000D02*
X146941000Y-123712000D01*
X146981000Y-116325000D02*
X146981000Y-118819000D01*
X146981000Y-121181000D02*
X146981000Y-123675000D01*
X147021000Y-116363000D02*
X147021000Y-118819000D01*
X147021000Y-121181000D02*
X147021000Y-123637000D01*
X147061000Y-116402000D02*
X147061000Y-118819000D01*
X147061000Y-121181000D02*
X147061000Y-123598000D01*
X147101000Y-116441000D02*
X147101000Y-118819000D01*
X147101000Y-121181000D02*
X147101000Y-123559000D01*
X147141000Y-116482000D02*
X147141000Y-118819000D01*
X147141000Y-121181000D02*
X147141000Y-123518000D01*
X147181000Y-116523000D02*
X147181000Y-123477000D01*
X147221000Y-116565000D02*
X147221000Y-123435000D01*
X147261000Y-116609000D02*
X147261000Y-123391000D01*
X147301000Y-116653000D02*
X147301000Y-123347000D01*
X147341000Y-116698000D02*
X147341000Y-123302000D01*
X147381000Y-116745000D02*
X147381000Y-123255000D01*
X147421000Y-116793000D02*
X147421000Y-123207000D01*
X147461000Y-116842000D02*
X147461000Y-123158000D01*
X147501000Y-116892000D02*
X147501000Y-123108000D01*
X147541000Y-116943000D02*
X147541000Y-123057000D01*
X147581000Y-116996000D02*
X147581000Y-123004000D01*
X147621000Y-117051000D02*
X147621000Y-122949000D01*
X147661000Y-117106000D02*
X147661000Y-122894000D01*
X147701000Y-117164000D02*
X147701000Y-122836000D01*
X147741000Y-117223000D02*
X147741000Y-122777000D01*
X147781000Y-117285000D02*
X147781000Y-122715000D01*
X147821000Y-117348000D02*
X147821000Y-122652000D01*
X147861000Y-117413000D02*
X147861000Y-122587000D01*
X147901000Y-117481000D02*
X147901000Y-122519000D01*
X147941000Y-117551000D02*
X147941000Y-122449000D01*
X147981000Y-117623000D02*
X147981000Y-122377000D01*
X148021000Y-117699000D02*
X148021000Y-122301000D01*
X148061000Y-117778000D02*
X148061000Y-122222000D01*
X148101000Y-117860000D02*
X148101000Y-122140000D01*
X148141000Y-117947000D02*
X148141000Y-122053000D01*
X148181000Y-118038000D02*
X148181000Y-121962000D01*
X148221000Y-118134000D02*
X148221000Y-121866000D01*
X148261000Y-118237000D02*
X148261000Y-121763000D01*
X148301000Y-118346000D02*
X148301000Y-121654000D01*
X148341000Y-118464000D02*
X148341000Y-121536000D01*
X148381000Y-118593000D02*
X148381000Y-121407000D01*
X148421000Y-118735000D02*
X148421000Y-121265000D01*
X148461000Y-118896000D02*
X148461000Y-121104000D01*
X148501000Y-119087000D02*
X148501000Y-120913000D01*
X148541000Y-119328000D02*
X148541000Y-120672000D01*
X148581000Y-119721000D02*
X148581000Y-120279000D01*
X138300000Y-120000000D02*
X139800000Y-120000000D01*
X139050000Y-119250000D02*
X139050000Y-120750000D01*
X130720000Y-108850000D02*
X130590000Y-108850000D01*
X130590000Y-108850000D02*
X130590000Y-103530000D01*
X130590000Y-103530000D02*
X130720000Y-103530000D01*
X133280000Y-108850000D02*
X133410000Y-108850000D01*
X133410000Y-108850000D02*
X133410000Y-103530000D01*
X133410000Y-103530000D02*
X133280000Y-103530000D01*
X130590000Y-108010000D02*
X133410000Y-108010000D01*
X156280000Y-113150000D02*
X156410000Y-113150000D01*
X156410000Y-113150000D02*
X156410000Y-118470000D01*
X156410000Y-118470000D02*
X156280000Y-118470000D01*
X153720000Y-113150000D02*
X153590000Y-113150000D01*
X153590000Y-113150000D02*
X153590000Y-118470000D01*
X153590000Y-118470000D02*
X153720000Y-118470000D01*
X156410000Y-113990000D02*
X153590000Y-113990000D01*
X134720000Y-108850000D02*
X134590000Y-108850000D01*
X134590000Y-108850000D02*
X134590000Y-103530000D01*
X134590000Y-103530000D02*
X134720000Y-103530000D01*
X137280000Y-108850000D02*
X137410000Y-108850000D01*
X137410000Y-108850000D02*
X137410000Y-103530000D01*
X137410000Y-103530000D02*
X137280000Y-103530000D01*
X134590000Y-108010000D02*
X137410000Y-108010000D01*
X152580000Y-113150000D02*
X152710000Y-113150000D01*
X152710000Y-113150000D02*
X152710000Y-118470000D01*
X152710000Y-118470000D02*
X152580000Y-118470000D01*
X150020000Y-113150000D02*
X149890000Y-113150000D01*
X149890000Y-113150000D02*
X149890000Y-118470000D01*
X149890000Y-118470000D02*
X150020000Y-118470000D01*
X152710000Y-113990000D02*
X149890000Y-113990000D01*
X129280000Y-103150000D02*
X129410000Y-103150000D01*
X129410000Y-103150000D02*
X129410000Y-108470000D01*
X129410000Y-108470000D02*
X129280000Y-108470000D01*
X126720000Y-103150000D02*
X126590000Y-103150000D01*
X126590000Y-103150000D02*
X126590000Y-108470000D01*
X126590000Y-108470000D02*
X126720000Y-108470000D01*
X129410000Y-103990000D02*
X126590000Y-103990000D01*
X133078608Y-121942335D02*
G75*
G03X133235516Y-118710000I-1078608J1672335D01*
G01*
X130921392Y-121942335D02*
G75*
G02X130764484Y-118710000I1078608J1672335D01*
G01*
X133079837Y-121311130D02*
G75*
G03X133080000Y-119229039I-1079837J1041130D01*
G01*
X130920163Y-121311130D02*
G75*
G02X130920000Y-119229039I1079837J1041130D01*
G01*
X133236000Y-118710000D02*
X133080000Y-118710000D01*
X130920000Y-118710000D02*
X130764000Y-118710000D01*
X143140000Y-87620000D02*
X143140000Y-85740000D01*
X143140000Y-85740000D02*
X163260000Y-85740000D01*
X163260000Y-85740000D02*
X163260000Y-87620000D01*
X143140000Y-90380000D02*
X143140000Y-92260000D01*
X143140000Y-92260000D02*
X163260000Y-92260000D01*
X163260000Y-92260000D02*
X163260000Y-90380000D01*
X123020000Y-108400000D02*
X122690000Y-108400000D01*
X122690000Y-108400000D02*
X122690000Y-101980000D01*
X122690000Y-101980000D02*
X123020000Y-101980000D01*
X124980000Y-108400000D02*
X125310000Y-108400000D01*
X125310000Y-108400000D02*
X125310000Y-101980000D01*
X125310000Y-101980000D02*
X124980000Y-101980000D01*
X184640000Y-83820000D02*
X184640000Y-81940000D01*
X184640000Y-81940000D02*
X204760000Y-81940000D01*
X204760000Y-81940000D02*
X204760000Y-83820000D01*
X184640000Y-86580000D02*
X184640000Y-88460000D01*
X184640000Y-88460000D02*
X204760000Y-88460000D01*
X204760000Y-88460000D02*
X204760000Y-86580000D01*
X184840000Y-107320000D02*
X184840000Y-105440000D01*
X184840000Y-105440000D02*
X204960000Y-105440000D01*
X204960000Y-105440000D02*
X204960000Y-107320000D01*
X184840000Y-110080000D02*
X184840000Y-111960000D01*
X184840000Y-111960000D02*
X204960000Y-111960000D01*
X204960000Y-111960000D02*
X204960000Y-110080000D01*
X184840000Y-99420000D02*
X184840000Y-97540000D01*
X184840000Y-97540000D02*
X204960000Y-97540000D01*
X204960000Y-97540000D02*
X204960000Y-99420000D01*
X184840000Y-102180000D02*
X184840000Y-104060000D01*
X184840000Y-104060000D02*
X204960000Y-104060000D01*
X204960000Y-104060000D02*
X204960000Y-102180000D01*
X184740000Y-91620000D02*
X184740000Y-89740000D01*
X184740000Y-89740000D02*
X204860000Y-89740000D01*
X204860000Y-89740000D02*
X204860000Y-91620000D01*
X184740000Y-94380000D02*
X184740000Y-96260000D01*
X184740000Y-96260000D02*
X204860000Y-96260000D01*
X204860000Y-96260000D02*
X204860000Y-94380000D01*
D12*
X167000000Y-113000000D02*
X167000000Y-84000000D01*
X167000000Y-84000000D02*
X179000000Y-84000000D01*
X179000000Y-84000000D02*
X179000000Y-113000000D01*
X179000000Y-113000000D02*
X167000000Y-113000000D01*
X173000000Y-91094000D02*
X173000000Y-90205000D01*
X173000000Y-90205000D02*
X174905000Y-86903000D01*
X177699000Y-95920000D02*
X178207000Y-95920000D01*
X178207000Y-95920000D02*
X178207000Y-88554000D01*
X178207000Y-88554000D02*
X178207000Y-88300000D01*
X178207000Y-88300000D02*
X174524000Y-88300000D01*
X169190000Y-86903000D02*
X169190000Y-88427000D01*
X169190000Y-88427000D02*
X171222000Y-88427000D01*
X175921000Y-86014000D02*
X170079000Y-86014000D01*
X170079000Y-90967000D02*
X176048000Y-90967000D01*
X170079000Y-95920000D02*
X175921000Y-95920000D01*
X173889000Y-108239000D02*
X176810000Y-108239000D01*
X176810000Y-108239000D02*
X176810000Y-110271000D01*
X168936000Y-110017000D02*
X168936000Y-108239000D01*
X168936000Y-108239000D02*
X171603000Y-108239000D01*
X171603000Y-108239000D02*
X171603000Y-109382000D01*
X171603000Y-109382000D02*
X173762000Y-109382000D01*
X173762000Y-109382000D02*
X173762000Y-107096000D01*
X173762000Y-107096000D02*
X171603000Y-107096000D01*
X171603000Y-107096000D02*
X171603000Y-108112000D01*
D13*
X206286000Y-121000000D02*
G75*
G03X206286000Y-121000000I-2286000J0D01*
G01*
X206286000Y-73000000D02*
G75*
G03X206286000Y-73000000I-2286000J0D01*
G01*
X126286000Y-73000000D02*
G75*
G03X126286000Y-73000000I-2286000J0D01*
G01*
X126286000Y-121000000D02*
G75*
G03X126286000Y-121000000I-2286000J0D01*
G01*
X156120000Y-98020000D02*
X156120000Y-98350000D01*
X156120000Y-98350000D02*
X149700000Y-98350000D01*
X149700000Y-98350000D02*
X149700000Y-98020000D01*
X156120000Y-96060000D02*
X156120000Y-95730000D01*
X156120000Y-95730000D02*
X149700000Y-95730000D01*
X149700000Y-95730000D02*
X149700000Y-96060000D01*
X128850000Y-93280000D02*
X128850000Y-93410000D01*
X128850000Y-93410000D02*
X123530000Y-93410000D01*
X123530000Y-93410000D02*
X123530000Y-93280000D01*
X128850000Y-90720000D02*
X128850000Y-90590000D01*
X128850000Y-90590000D02*
X123530000Y-90590000D01*
X123530000Y-90590000D02*
X123530000Y-90720000D01*
X128010000Y-93410000D02*
X128010000Y-90590000D01*
X128850000Y-97280000D02*
X128850000Y-97410000D01*
X128850000Y-97410000D02*
X123530000Y-97410000D01*
X123530000Y-97410000D02*
X123530000Y-97280000D01*
X128850000Y-94720000D02*
X128850000Y-94590000D01*
X128850000Y-94590000D02*
X123530000Y-94590000D01*
X123530000Y-94590000D02*
X123530000Y-94720000D01*
X128010000Y-97410000D02*
X128010000Y-94590000D01*
X127540000Y-79380000D02*
X127540000Y-89540000D01*
X128810000Y-79380000D02*
X121190000Y-79380000D01*
X121190000Y-79380000D02*
X121190000Y-89540000D01*
X121190000Y-89540000D02*
X128810000Y-89540000D01*
X128810000Y-89540000D02*
X128810000Y-79380000D01*
D12*
X131000000Y-72000000D02*
X160000000Y-72000000D01*
X160000000Y-72000000D02*
X160000000Y-84000000D01*
X160000000Y-84000000D02*
X131000000Y-84000000D01*
X131000000Y-84000000D02*
X131000000Y-72000000D01*
X152906000Y-78000000D02*
X153795000Y-78000000D01*
X153795000Y-78000000D02*
X157097000Y-79905000D01*
X148080000Y-82699000D02*
X148080000Y-83207000D01*
X148080000Y-83207000D02*
X155446000Y-83207000D01*
X155446000Y-83207000D02*
X155700000Y-83207000D01*
X155700000Y-83207000D02*
X155700000Y-79524000D01*
X157097000Y-74190000D02*
X155573000Y-74190000D01*
X155573000Y-74190000D02*
X155573000Y-76222000D01*
X157986000Y-80921000D02*
X157986000Y-75079000D01*
X153033000Y-75079000D02*
X153033000Y-81048000D01*
X148080000Y-75079000D02*
X148080000Y-80921000D01*
X135761000Y-78889000D02*
X135761000Y-81810000D01*
X135761000Y-81810000D02*
X133729000Y-81810000D01*
X133983000Y-73936000D02*
X135761000Y-73936000D01*
X135761000Y-73936000D02*
X135761000Y-76603000D01*
X135761000Y-76603000D02*
X134618000Y-76603000D01*
X134618000Y-76603000D02*
X134618000Y-78762000D01*
X134618000Y-78762000D02*
X136904000Y-78762000D01*
X136904000Y-78762000D02*
X136904000Y-76603000D01*
X136904000Y-76603000D02*
X135888000Y-76603000D01*
D14*
X183333334Y-73357143D02*
X183285715Y-73404762D01*
X183142858Y-73452381D01*
X183047620Y-73452381D01*
X182904762Y-73404762D01*
X182809524Y-73309524D01*
X182761905Y-73214286D01*
X182714286Y-73023810D01*
X182714286Y-72880952D01*
X182761905Y-72690476D01*
X182809524Y-72595238D01*
X182904762Y-72500000D01*
X183047620Y-72452381D01*
X183142858Y-72452381D01*
X183285715Y-72500000D01*
X183333334Y-72547619D01*
X184285715Y-73452381D02*
X183714286Y-73452381D01*
X184000000Y-73452381D02*
X184000000Y-72452381D01*
X183904762Y-72595238D01*
X183809524Y-72690476D01*
X183714286Y-72738095D01*
X151833334Y-104357143D02*
X151785715Y-104404762D01*
X151642858Y-104452381D01*
X151547620Y-104452381D01*
X151404762Y-104404762D01*
X151309524Y-104309524D01*
X151261905Y-104214286D01*
X151214286Y-104023810D01*
X151214286Y-103880952D01*
X151261905Y-103690476D01*
X151309524Y-103595238D01*
X151404762Y-103500000D01*
X151547620Y-103452381D01*
X151642858Y-103452381D01*
X151785715Y-103500000D01*
X151833334Y-103547619D01*
X152214286Y-103547619D02*
X152261905Y-103500000D01*
X152357143Y-103452381D01*
X152595239Y-103452381D01*
X152690477Y-103500000D01*
X152738096Y-103547619D01*
X152785715Y-103642857D01*
X152785715Y-103738095D01*
X152738096Y-103880952D01*
X152166667Y-104452381D01*
X152785715Y-104452381D01*
X141583334Y-117357143D02*
X141535715Y-117404762D01*
X141392858Y-117452381D01*
X141297620Y-117452381D01*
X141154762Y-117404762D01*
X141059524Y-117309524D01*
X141011905Y-117214286D01*
X140964286Y-117023810D01*
X140964286Y-116880952D01*
X141011905Y-116690476D01*
X141059524Y-116595238D01*
X141154762Y-116500000D01*
X141297620Y-116452381D01*
X141392858Y-116452381D01*
X141535715Y-116500000D01*
X141583334Y-116547619D01*
X141916667Y-116452381D02*
X142535715Y-116452381D01*
X142202381Y-116833333D01*
X142345239Y-116833333D01*
X142440477Y-116880952D01*
X142488096Y-116928571D01*
X142535715Y-117023810D01*
X142535715Y-117261905D01*
X142488096Y-117357143D01*
X142440477Y-117404762D01*
X142345239Y-117452381D01*
X142059524Y-117452381D01*
X141964286Y-117404762D01*
X141916667Y-117357143D01*
X132452381Y-106988095D02*
X131452381Y-106988095D01*
X131452381Y-106750000D01*
X131500000Y-106607142D01*
X131595238Y-106511904D01*
X131690476Y-106464285D01*
X131880952Y-106416666D01*
X132023810Y-106416666D01*
X132214286Y-106464285D01*
X132309524Y-106511904D01*
X132404762Y-106607142D01*
X132452381Y-106750000D01*
X132452381Y-106988095D01*
X132452381Y-105464285D02*
X132452381Y-106035714D01*
X132452381Y-105750000D02*
X131452381Y-105750000D01*
X131595238Y-105845238D01*
X131690476Y-105940476D01*
X131738095Y-106035714D01*
X155452381Y-116488095D02*
X154452381Y-116488095D01*
X154452381Y-116250000D01*
X154500000Y-116107142D01*
X154595238Y-116011904D01*
X154690476Y-115964285D01*
X154880952Y-115916666D01*
X155023810Y-115916666D01*
X155214286Y-115964285D01*
X155309524Y-116011904D01*
X155404762Y-116107142D01*
X155452381Y-116250000D01*
X155452381Y-116488095D01*
X154547619Y-115535714D02*
X154500000Y-115488095D01*
X154452381Y-115392857D01*
X154452381Y-115154761D01*
X154500000Y-115059523D01*
X154547619Y-115011904D01*
X154642857Y-114964285D01*
X154738095Y-114964285D01*
X154880952Y-115011904D01*
X155452381Y-115583333D01*
X155452381Y-114964285D01*
X136452381Y-106988095D02*
X135452381Y-106988095D01*
X135452381Y-106750000D01*
X135500000Y-106607142D01*
X135595238Y-106511904D01*
X135690476Y-106464285D01*
X135880952Y-106416666D01*
X136023810Y-106416666D01*
X136214286Y-106464285D01*
X136309524Y-106511904D01*
X136404762Y-106607142D01*
X136452381Y-106750000D01*
X136452381Y-106988095D01*
X135452381Y-106083333D02*
X135452381Y-105464285D01*
X135833333Y-105797619D01*
X135833333Y-105654761D01*
X135880952Y-105559523D01*
X135928571Y-105511904D01*
X136023810Y-105464285D01*
X136261905Y-105464285D01*
X136357143Y-105511904D01*
X136404762Y-105559523D01*
X136452381Y-105654761D01*
X136452381Y-105940476D01*
X136404762Y-106035714D01*
X136357143Y-106083333D01*
X151752381Y-116488095D02*
X150752381Y-116488095D01*
X150752381Y-116250000D01*
X150800000Y-116107142D01*
X150895238Y-116011904D01*
X150990476Y-115964285D01*
X151180952Y-115916666D01*
X151323810Y-115916666D01*
X151514286Y-115964285D01*
X151609524Y-116011904D01*
X151704762Y-116107142D01*
X151752381Y-116250000D01*
X151752381Y-116488095D01*
X151085714Y-115059523D02*
X151752381Y-115059523D01*
X150704762Y-115297619D02*
X151419048Y-115535714D01*
X151419048Y-114916666D01*
X128452381Y-106488095D02*
X127452381Y-106488095D01*
X127452381Y-106250000D01*
X127500000Y-106107142D01*
X127595238Y-106011904D01*
X127690476Y-105964285D01*
X127880952Y-105916666D01*
X128023810Y-105916666D01*
X128214286Y-105964285D01*
X128309524Y-106011904D01*
X128404762Y-106107142D01*
X128452381Y-106250000D01*
X128452381Y-106488095D01*
X127452381Y-105011904D02*
X127452381Y-105488095D01*
X127928571Y-105535714D01*
X127880952Y-105488095D01*
X127833333Y-105392857D01*
X127833333Y-105154761D01*
X127880952Y-105059523D01*
X127928571Y-105011904D01*
X128023810Y-104964285D01*
X128261905Y-104964285D01*
X128357143Y-105011904D01*
X128404762Y-105059523D01*
X128452381Y-105154761D01*
X128452381Y-105392857D01*
X128404762Y-105488095D01*
X128357143Y-105535714D01*
X131261905Y-124452381D02*
X131261905Y-123452381D01*
X131500000Y-123452381D01*
X131642858Y-123500000D01*
X131738096Y-123595238D01*
X131785715Y-123690476D01*
X131833334Y-123880952D01*
X131833334Y-124023810D01*
X131785715Y-124214286D01*
X131738096Y-124309524D01*
X131642858Y-124404762D01*
X131500000Y-124452381D01*
X131261905Y-124452381D01*
X132690477Y-123452381D02*
X132500000Y-123452381D01*
X132404762Y-123500000D01*
X132357143Y-123547619D01*
X132261905Y-123690476D01*
X132214286Y-123880952D01*
X132214286Y-124261905D01*
X132261905Y-124357143D01*
X132309524Y-124404762D01*
X132404762Y-124452381D01*
X132595239Y-124452381D01*
X132690477Y-124404762D01*
X132738096Y-124357143D01*
X132785715Y-124261905D01*
X132785715Y-124023810D01*
X132738096Y-123928571D01*
X132690477Y-123880952D01*
X132595239Y-123833333D01*
X132404762Y-123833333D01*
X132309524Y-123880952D01*
X132261905Y-123928571D01*
X132214286Y-124023810D01*
X153083334Y-89452381D02*
X152750000Y-88976190D01*
X152511905Y-89452381D02*
X152511905Y-88452381D01*
X152892858Y-88452381D01*
X152988096Y-88500000D01*
X153035715Y-88547619D01*
X153083334Y-88642857D01*
X153083334Y-88785714D01*
X153035715Y-88880952D01*
X152988096Y-88928571D01*
X152892858Y-88976190D01*
X152511905Y-88976190D01*
X154035715Y-89452381D02*
X153464286Y-89452381D01*
X153750000Y-89452381D02*
X153750000Y-88452381D01*
X153654762Y-88595238D01*
X153559524Y-88690476D01*
X153464286Y-88738095D01*
X124452381Y-105416666D02*
X123976190Y-105750000D01*
X124452381Y-105988095D02*
X123452381Y-105988095D01*
X123452381Y-105607142D01*
X123500000Y-105511904D01*
X123547619Y-105464285D01*
X123642857Y-105416666D01*
X123785714Y-105416666D01*
X123880952Y-105464285D01*
X123928571Y-105511904D01*
X123976190Y-105607142D01*
X123976190Y-105988095D01*
X123547619Y-105035714D02*
X123500000Y-104988095D01*
X123452381Y-104892857D01*
X123452381Y-104654761D01*
X123500000Y-104559523D01*
X123547619Y-104511904D01*
X123642857Y-104464285D01*
X123738095Y-104464285D01*
X123880952Y-104511904D01*
X124452381Y-105083333D01*
X124452381Y-104464285D01*
X194333334Y-85402381D02*
X194000000Y-84926190D01*
X193761905Y-85402381D02*
X193761905Y-84402381D01*
X194142858Y-84402381D01*
X194238096Y-84450000D01*
X194285715Y-84497619D01*
X194333334Y-84592857D01*
X194333334Y-84735714D01*
X194285715Y-84830952D01*
X194238096Y-84878571D01*
X194142858Y-84926190D01*
X193761905Y-84926190D01*
X194666667Y-84402381D02*
X195285715Y-84402381D01*
X194952381Y-84783333D01*
X195095239Y-84783333D01*
X195190477Y-84830952D01*
X195238096Y-84878571D01*
X195285715Y-84973810D01*
X195285715Y-85211905D01*
X195238096Y-85307143D01*
X195190477Y-85354762D01*
X195095239Y-85402381D01*
X194809524Y-85402381D01*
X194714286Y-85354762D01*
X194666667Y-85307143D01*
X194783334Y-108902381D02*
X194450000Y-108426190D01*
X194211905Y-108902381D02*
X194211905Y-107902381D01*
X194592858Y-107902381D01*
X194688096Y-107950000D01*
X194735715Y-107997619D01*
X194783334Y-108092857D01*
X194783334Y-108235714D01*
X194735715Y-108330952D01*
X194688096Y-108378571D01*
X194592858Y-108426190D01*
X194211905Y-108426190D01*
X195640477Y-108235714D02*
X195640477Y-108902381D01*
X195402381Y-107854762D02*
X195164286Y-108569048D01*
X195783334Y-108569048D01*
X194783334Y-101252381D02*
X194450000Y-100776190D01*
X194211905Y-101252381D02*
X194211905Y-100252381D01*
X194592858Y-100252381D01*
X194688096Y-100300000D01*
X194735715Y-100347619D01*
X194783334Y-100442857D01*
X194783334Y-100585714D01*
X194735715Y-100680952D01*
X194688096Y-100728571D01*
X194592858Y-100776190D01*
X194211905Y-100776190D01*
X195688096Y-100252381D02*
X195211905Y-100252381D01*
X195164286Y-100728571D01*
X195211905Y-100680952D01*
X195307143Y-100633333D01*
X195545239Y-100633333D01*
X195640477Y-100680952D01*
X195688096Y-100728571D01*
X195735715Y-100823810D01*
X195735715Y-101061905D01*
X195688096Y-101157143D01*
X195640477Y-101204762D01*
X195545239Y-101252381D01*
X195307143Y-101252381D01*
X195211905Y-101204762D01*
X195164286Y-101157143D01*
X194683334Y-93452381D02*
X194350000Y-92976190D01*
X194111905Y-93452381D02*
X194111905Y-92452381D01*
X194492858Y-92452381D01*
X194588096Y-92500000D01*
X194635715Y-92547619D01*
X194683334Y-92642857D01*
X194683334Y-92785714D01*
X194635715Y-92880952D01*
X194588096Y-92928571D01*
X194492858Y-92976190D01*
X194111905Y-92976190D01*
X195540477Y-92452381D02*
X195350000Y-92452381D01*
X195254762Y-92500000D01*
X195207143Y-92547619D01*
X195111905Y-92690476D01*
X195064286Y-92880952D01*
X195064286Y-93261905D01*
X195111905Y-93357143D01*
X195159524Y-93404762D01*
X195254762Y-93452381D01*
X195445239Y-93452381D01*
X195540477Y-93404762D01*
X195588096Y-93357143D01*
X195635715Y-93261905D01*
X195635715Y-93023810D01*
X195588096Y-92928571D01*
X195540477Y-92880952D01*
X195445239Y-92833333D01*
X195254762Y-92833333D01*
X195159524Y-92880952D01*
X195111905Y-92928571D01*
X195064286Y-93023810D01*
X174849381Y-102381000D02*
X174373190Y-102714334D01*
X174849381Y-102952429D02*
X173849381Y-102952429D01*
X173849381Y-102571476D01*
X173897000Y-102476238D01*
X173944619Y-102428619D01*
X174039857Y-102381000D01*
X174182714Y-102381000D01*
X174277952Y-102428619D01*
X174325571Y-102476238D01*
X174373190Y-102571476D01*
X174373190Y-102952429D01*
X174849381Y-101476238D02*
X174849381Y-101952429D01*
X173849381Y-101952429D01*
X174373190Y-100952429D02*
X174849381Y-100952429D01*
X173849381Y-101285762D02*
X174373190Y-100952429D01*
X173849381Y-100619095D01*
X174849381Y-99761952D02*
X174849381Y-100333381D01*
X174849381Y-100047667D02*
X173849381Y-100047667D01*
X173992238Y-100142905D01*
X174087476Y-100238143D01*
X174135095Y-100333381D01*
X172134762Y-105150857D02*
X172182381Y-105008000D01*
X172182381Y-104769904D01*
X172134762Y-104674666D01*
X172087143Y-104627047D01*
X171991905Y-104579428D01*
X171896667Y-104579428D01*
X171801429Y-104627047D01*
X171753810Y-104674666D01*
X171706190Y-104769904D01*
X171658571Y-104960381D01*
X171610952Y-105055619D01*
X171563333Y-105103238D01*
X171468095Y-105150857D01*
X171372857Y-105150857D01*
X171277619Y-105103238D01*
X171230000Y-105055619D01*
X171182381Y-104960381D01*
X171182381Y-104722285D01*
X171230000Y-104579428D01*
X172182381Y-104150857D02*
X171182381Y-104150857D01*
X171896667Y-103817523D01*
X171182381Y-103484190D01*
X172182381Y-103484190D01*
X172182381Y-103008000D02*
X171182381Y-103008000D01*
X172182381Y-102531810D02*
X171182381Y-102531810D01*
X171658571Y-102531810D02*
X171658571Y-101960381D01*
X172182381Y-101960381D02*
X171182381Y-101960381D01*
X172182381Y-100912762D02*
X171706190Y-101246096D01*
X172182381Y-101484191D02*
X171182381Y-101484191D01*
X171182381Y-101103238D01*
X171230000Y-101008000D01*
X171277619Y-100960381D01*
X171372857Y-100912762D01*
X171515714Y-100912762D01*
X171610952Y-100960381D01*
X171658571Y-101008000D01*
X171706190Y-101103238D01*
X171706190Y-101484191D01*
X172134762Y-100103238D02*
X172182381Y-100198476D01*
X172182381Y-100388953D01*
X172134762Y-100484191D01*
X172039524Y-100531810D01*
X171658571Y-100531810D01*
X171563333Y-100484191D01*
X171515714Y-100388953D01*
X171515714Y-100198476D01*
X171563333Y-100103238D01*
X171658571Y-100055619D01*
X171753810Y-100055619D01*
X171849048Y-100531810D01*
X172182381Y-99484191D02*
X172134762Y-99579429D01*
X172039524Y-99627048D01*
X171182381Y-99627048D01*
X172182381Y-98674666D02*
X171658571Y-98674666D01*
X171563333Y-98722285D01*
X171515714Y-98817523D01*
X171515714Y-99008000D01*
X171563333Y-99103238D01*
X172134762Y-98674666D02*
X172182381Y-98769904D01*
X172182381Y-99008000D01*
X172134762Y-99103238D01*
X172039524Y-99150857D01*
X171944286Y-99150857D01*
X171849048Y-99103238D01*
X171801429Y-99008000D01*
X171801429Y-98769904D01*
X171753810Y-98674666D01*
X171515714Y-98293714D02*
X172182381Y-98055619D01*
X171515714Y-97817523D02*
X172182381Y-98055619D01*
X172420476Y-98150857D01*
X172468095Y-98198476D01*
X172515714Y-98293714D01*
X152553334Y-97567382D02*
X152220000Y-97091191D01*
X151981905Y-97567382D02*
X151981905Y-96567382D01*
X152362858Y-96567382D01*
X152458096Y-96615001D01*
X152505715Y-96662620D01*
X152553334Y-96757858D01*
X152553334Y-96900715D01*
X152505715Y-96995953D01*
X152458096Y-97043572D01*
X152362858Y-97091191D01*
X151981905Y-97091191D01*
X152886667Y-96567382D02*
X153553334Y-96567382D01*
X153124762Y-97567382D01*
X125261905Y-92452381D02*
X125261905Y-91452381D01*
X125500000Y-91452381D01*
X125642858Y-91500000D01*
X125738096Y-91595238D01*
X125785715Y-91690476D01*
X125833334Y-91880952D01*
X125833334Y-92023810D01*
X125785715Y-92214286D01*
X125738096Y-92309524D01*
X125642858Y-92404762D01*
X125500000Y-92452381D01*
X125261905Y-92452381D01*
X126166667Y-91452381D02*
X126833334Y-91452381D01*
X126404762Y-92452381D01*
X125261905Y-96452381D02*
X125261905Y-95452381D01*
X125500000Y-95452381D01*
X125642858Y-95500000D01*
X125738096Y-95595238D01*
X125785715Y-95690476D01*
X125833334Y-95880952D01*
X125833334Y-96023810D01*
X125785715Y-96214286D01*
X125738096Y-96309524D01*
X125642858Y-96404762D01*
X125500000Y-96452381D01*
X125261905Y-96452381D01*
X126404762Y-95880952D02*
X126309524Y-95833333D01*
X126261905Y-95785714D01*
X126214286Y-95690476D01*
X126214286Y-95642857D01*
X126261905Y-95547619D01*
X126309524Y-95500000D01*
X126404762Y-95452381D01*
X126595239Y-95452381D01*
X126690477Y-95500000D01*
X126738096Y-95547619D01*
X126785715Y-95642857D01*
X126785715Y-95690476D01*
X126738096Y-95785714D01*
X126690477Y-95833333D01*
X126595239Y-95880952D01*
X126404762Y-95880952D01*
X126309524Y-95928571D01*
X126261905Y-95976190D01*
X126214286Y-96071429D01*
X126214286Y-96261905D01*
X126261905Y-96357143D01*
X126309524Y-96404762D01*
X126404762Y-96452381D01*
X126595239Y-96452381D01*
X126690477Y-96404762D01*
X126738096Y-96357143D01*
X126785715Y-96261905D01*
X126785715Y-96071429D01*
X126738096Y-95976190D01*
X126690477Y-95928571D01*
X126595239Y-95880952D01*
X123690477Y-77452381D02*
X123690477Y-78166667D01*
X123642857Y-78309524D01*
X123547619Y-78404762D01*
X123404762Y-78452381D01*
X123309524Y-78452381D01*
X124690477Y-78452381D02*
X124119048Y-78452381D01*
X124404762Y-78452381D02*
X124404762Y-77452381D01*
X124309524Y-77595238D01*
X124214286Y-77690476D01*
X124119048Y-77738095D01*
X125642858Y-78452381D02*
X125071429Y-78452381D01*
X125357143Y-78452381D02*
X125357143Y-77452381D01*
X125261905Y-77595238D01*
X125166667Y-77690476D01*
X125071429Y-77738095D01*
X141619000Y-79849381D02*
X141285666Y-79373190D01*
X141047571Y-79849381D02*
X141047571Y-78849381D01*
X141428524Y-78849381D01*
X141523762Y-78897000D01*
X141571381Y-78944619D01*
X141619000Y-79039857D01*
X141619000Y-79182714D01*
X141571381Y-79277952D01*
X141523762Y-79325571D01*
X141428524Y-79373190D01*
X141047571Y-79373190D01*
X142523762Y-79849381D02*
X142047571Y-79849381D01*
X142047571Y-78849381D01*
X143047571Y-79373190D02*
X143047571Y-79849381D01*
X142714238Y-78849381D02*
X143047571Y-79373190D01*
X143380905Y-78849381D01*
X143666619Y-78944619D02*
X143714238Y-78897000D01*
X143809476Y-78849381D01*
X144047572Y-78849381D01*
X144142810Y-78897000D01*
X144190429Y-78944619D01*
X144238048Y-79039857D01*
X144238048Y-79135095D01*
X144190429Y-79277952D01*
X143619000Y-79849381D01*
X144238048Y-79849381D01*
X138849143Y-77134762D02*
X138992000Y-77182381D01*
X139230096Y-77182381D01*
X139325334Y-77134762D01*
X139372953Y-77087143D01*
X139420572Y-76991905D01*
X139420572Y-76896667D01*
X139372953Y-76801429D01*
X139325334Y-76753810D01*
X139230096Y-76706190D01*
X139039619Y-76658571D01*
X138944381Y-76610952D01*
X138896762Y-76563333D01*
X138849143Y-76468095D01*
X138849143Y-76372857D01*
X138896762Y-76277619D01*
X138944381Y-76230000D01*
X139039619Y-76182381D01*
X139277715Y-76182381D01*
X139420572Y-76230000D01*
X139849143Y-77182381D02*
X139849143Y-76182381D01*
X140182477Y-76896667D01*
X140515810Y-76182381D01*
X140515810Y-77182381D01*
X140992000Y-77182381D02*
X140992000Y-76182381D01*
X141468190Y-77182381D02*
X141468190Y-76182381D01*
X141468190Y-76658571D02*
X142039619Y-76658571D01*
X142039619Y-77182381D02*
X142039619Y-76182381D01*
X143087238Y-77182381D02*
X142753904Y-76706190D01*
X142515809Y-77182381D02*
X142515809Y-76182381D01*
X142896762Y-76182381D01*
X142992000Y-76230000D01*
X143039619Y-76277619D01*
X143087238Y-76372857D01*
X143087238Y-76515714D01*
X143039619Y-76610952D01*
X142992000Y-76658571D01*
X142896762Y-76706190D01*
X142515809Y-76706190D01*
X143896762Y-77134762D02*
X143801524Y-77182381D01*
X143611047Y-77182381D01*
X143515809Y-77134762D01*
X143468190Y-77039524D01*
X143468190Y-76658571D01*
X143515809Y-76563333D01*
X143611047Y-76515714D01*
X143801524Y-76515714D01*
X143896762Y-76563333D01*
X143944381Y-76658571D01*
X143944381Y-76753810D01*
X143468190Y-76849048D01*
X144515809Y-77182381D02*
X144420571Y-77134762D01*
X144372952Y-77039524D01*
X144372952Y-76182381D01*
X145325334Y-77182381D02*
X145325334Y-76658571D01*
X145277715Y-76563333D01*
X145182477Y-76515714D01*
X144992000Y-76515714D01*
X144896762Y-76563333D01*
X145325334Y-77134762D02*
X145230096Y-77182381D01*
X144992000Y-77182381D01*
X144896762Y-77134762D01*
X144849143Y-77039524D01*
X144849143Y-76944286D01*
X144896762Y-76849048D01*
X144992000Y-76801429D01*
X145230096Y-76801429D01*
X145325334Y-76753810D01*
X145706286Y-76515714D02*
X145944381Y-77182381D01*
X146182477Y-76515714D02*
X145944381Y-77182381D01*
X145849143Y-77420476D01*
X145801524Y-77468095D01*
X145706286Y-77515714D01*
X163852381Y-75333333D02*
X164566667Y-75333333D01*
X164709524Y-75380953D01*
X164804762Y-75476191D01*
X164852381Y-75619048D01*
X164852381Y-75714286D01*
X164852381Y-74333333D02*
X164852381Y-74904762D01*
X164852381Y-74619048D02*
X163852381Y-74619048D01*
X163995238Y-74714286D01*
X164090476Y-74809524D01*
X164138095Y-74904762D01*
X160952381Y-120033333D02*
X161666667Y-120033333D01*
X161809524Y-120080953D01*
X161904762Y-120176191D01*
X161952381Y-120319048D01*
X161952381Y-120414286D01*
X161047619Y-119604762D02*
X161000000Y-119557143D01*
X160952381Y-119461905D01*
X160952381Y-119223809D01*
X161000000Y-119128571D01*
X161047619Y-119080952D01*
X161142857Y-119033333D01*
X161238095Y-119033333D01*
X161380952Y-119080952D01*
X161952381Y-119652381D01*
X161952381Y-119033333D01*
X171652381Y-75333333D02*
X172366667Y-75333333D01*
X172509524Y-75380953D01*
X172604762Y-75476191D01*
X172652381Y-75619048D01*
X172652381Y-75714286D01*
X171652381Y-74952381D02*
X171652381Y-74333333D01*
X172033333Y-74666667D01*
X172033333Y-74523809D01*
X172080952Y-74428571D01*
X172128571Y-74380952D01*
X172223810Y-74333333D01*
X172461905Y-74333333D01*
X172557143Y-74380952D01*
X172604762Y-74428571D01*
X172652381Y-74523809D01*
X172652381Y-74809524D01*
X172604762Y-74904762D01*
X172557143Y-74952381D01*
X191252381Y-73533333D02*
X191966667Y-73533333D01*
X192109524Y-73580953D01*
X192204762Y-73676191D01*
X192252381Y-73819048D01*
X192252381Y-73914286D01*
X191585714Y-72628571D02*
X192252381Y-72628571D01*
X191204762Y-72866667D02*
X191919048Y-73104762D01*
X191919048Y-72485714D01*
X168952381Y-119933333D02*
X169666667Y-119933333D01*
X169809524Y-119980953D01*
X169904762Y-120076191D01*
X169952381Y-120219048D01*
X169952381Y-120314286D01*
X168952381Y-118980952D02*
X168952381Y-119457143D01*
X169428571Y-119504762D01*
X169380952Y-119457143D01*
X169333333Y-119361905D01*
X169333333Y-119123809D01*
X169380952Y-119028571D01*
X169428571Y-118980952D01*
X169523810Y-118933333D01*
X169761905Y-118933333D01*
X169857143Y-118980952D01*
X169904762Y-119028571D01*
X169952381Y-119123809D01*
X169952381Y-119361905D01*
X169904762Y-119457143D01*
X169857143Y-119504762D01*
X177952381Y-120233333D02*
X178666667Y-120233333D01*
X178809524Y-120280953D01*
X178904762Y-120376191D01*
X178952381Y-120519048D01*
X178952381Y-120614286D01*
X177952381Y-119328571D02*
X177952381Y-119519048D01*
X178000000Y-119614286D01*
X178047619Y-119661905D01*
X178190476Y-119757143D01*
X178380952Y-119804762D01*
X178761905Y-119804762D01*
X178857143Y-119757143D01*
X178904762Y-119709524D01*
X178952381Y-119614286D01*
X178952381Y-119423809D01*
X178904762Y-119328571D01*
X178857143Y-119280952D01*
X178761905Y-119233333D01*
X178523810Y-119233333D01*
X178428571Y-119280952D01*
X178380952Y-119328571D01*
X178333333Y-119423809D01*
X178333333Y-119614286D01*
X178380952Y-119709524D01*
X178428571Y-119757143D01*
X178523810Y-119804762D01*
X194252381Y-120709523D02*
X194966667Y-120709523D01*
X195109524Y-120757143D01*
X195204762Y-120852381D01*
X195252381Y-120995238D01*
X195252381Y-121090476D01*
X195252381Y-119709523D02*
X195252381Y-120280952D01*
X195252381Y-119995238D02*
X194252381Y-119995238D01*
X194395238Y-120090476D01*
X194490476Y-120185714D01*
X194538095Y-120280952D01*
X194680952Y-119138095D02*
X194633333Y-119233333D01*
X194585714Y-119280952D01*
X194490476Y-119328571D01*
X194442857Y-119328571D01*
X194347619Y-119280952D01*
X194300000Y-119233333D01*
X194252381Y-119138095D01*
X194252381Y-118947618D01*
X194300000Y-118852380D01*
X194347619Y-118804761D01*
X194442857Y-118757142D01*
X194490476Y-118757142D01*
X194585714Y-118804761D01*
X194633333Y-118852380D01*
X194680952Y-118947618D01*
X194680952Y-119138095D01*
X194728571Y-119233333D01*
X194776190Y-119280952D01*
X194871429Y-119328571D01*
X195061905Y-119328571D01*
X195157143Y-119280952D01*
X195204762Y-119233333D01*
X195252381Y-119138095D01*
X195252381Y-118947618D01*
X195204762Y-118852380D01*
X195157143Y-118804761D01*
X195061905Y-118757142D01*
X194871429Y-118757142D01*
X194776190Y-118804761D01*
X194728571Y-118852380D01*
X194680952Y-118947618D01*
X185952381Y-120709523D02*
X186666667Y-120709523D01*
X186809524Y-120757143D01*
X186904762Y-120852381D01*
X186952381Y-120995238D01*
X186952381Y-121090476D01*
X186952381Y-119709523D02*
X186952381Y-120280952D01*
X186952381Y-119995238D02*
X185952381Y-119995238D01*
X186095238Y-120090476D01*
X186190476Y-120185714D01*
X186238095Y-120280952D01*
X186952381Y-119233333D02*
X186952381Y-119042857D01*
X186904762Y-118947618D01*
X186857143Y-118899999D01*
X186714286Y-118804761D01*
X186523810Y-118757142D01*
X186142857Y-118757142D01*
X186047619Y-118804761D01*
X186000000Y-118852380D01*
X185952381Y-118947618D01*
X185952381Y-119138095D01*
X186000000Y-119233333D01*
X186047619Y-119280952D01*
X186142857Y-119328571D01*
X186380952Y-119328571D01*
X186476190Y-119280952D01*
X186523810Y-119233333D01*
X186571429Y-119138095D01*
X186571429Y-118947618D01*
X186523810Y-118852380D01*
X186476190Y-118804761D01*
X186380952Y-118757142D01*
M02*
