G04 #@! TF.FileFunction,Copper,L2,Bot,Signal*
%FSLAX46Y46*%
G04 Gerber Fmt 4.6, Leading zero omitted, Abs format (unit mm)*
G04 Created by KiCad (PCBNEW 4.0.7) date 09/21/20 19:04:58*
%MOMM*%
%LPD*%
G01*
G04 APERTURE LIST*
%ADD10C,0.100000*%
%ADD11C,1.600000*%
%ADD12C,2.400000*%
%ADD13R,2.000000X2.000000*%
%ADD14C,2.000000*%
%ADD15R,2.200000X2.200000*%
%ADD16O,2.200000X2.200000*%
%ADD17R,1.800000X1.800000*%
%ADD18C,1.800000*%
%ADD19C,5.000000*%
%ADD20O,2.400000X2.400000*%
%ADD21O,1.600000X1.600000*%
%ADD22C,4.064000*%
%ADD23R,3.000000X3.000000*%
%ADD24C,3.000000*%
%ADD25C,4.000000*%
%ADD26C,2.000000*%
%ADD27C,1.000000*%
G04 APERTURE END LIST*
D10*
D11*
X188500000Y-73000000D03*
X178500000Y-73000000D03*
D12*
X163000000Y-104000000D03*
X140500000Y-104000000D03*
D13*
X149000000Y-117000000D03*
D14*
X149000000Y-122000000D03*
D15*
X132000000Y-110000000D03*
D16*
X132000000Y-102380000D03*
D15*
X162000000Y-114000000D03*
D16*
X162000000Y-121620000D03*
D15*
X136000000Y-110000000D03*
D16*
X136000000Y-102380000D03*
D15*
X158000000Y-114000000D03*
D16*
X158000000Y-121620000D03*
D15*
X128000000Y-102000000D03*
D16*
X128000000Y-109620000D03*
D17*
X140000000Y-119000000D03*
D18*
X140000000Y-121540000D03*
D19*
X166000000Y-74500000D03*
X172000000Y-119000000D03*
X173500000Y-74500000D03*
X193000000Y-73000000D03*
X183000000Y-119000000D03*
X194500000Y-119000000D03*
D12*
X142000000Y-89000000D03*
D20*
X164400000Y-89000000D03*
D11*
X124000000Y-109000000D03*
D21*
X124000000Y-101380000D03*
D12*
X183000000Y-87000000D03*
D20*
X205400000Y-87000000D03*
D12*
X183000000Y-111000000D03*
D20*
X205400000Y-111000000D03*
D12*
X183000000Y-103000000D03*
D20*
X205400000Y-103000000D03*
D12*
X183000000Y-95000000D03*
D20*
X205400000Y-95000000D03*
D14*
X169200000Y-113000000D03*
X169200000Y-97760000D03*
X169200000Y-87600000D03*
X169200000Y-92680000D03*
X176800000Y-113000000D03*
X176800000Y-92680000D03*
X176800000Y-97760000D03*
X176800000Y-87600000D03*
D22*
X204000000Y-121000000D03*
X204000000Y-73000000D03*
X124000000Y-73000000D03*
X124000000Y-121000000D03*
D11*
X150000000Y-112000000D03*
D21*
X142380000Y-112000000D03*
D15*
X130000000Y-92000000D03*
D16*
X122380000Y-92000000D03*
D15*
X130000000Y-96000000D03*
D16*
X122380000Y-96000000D03*
D23*
X125000000Y-87000000D03*
D24*
X125000000Y-81920000D03*
D14*
X133000000Y-74200000D03*
X148240000Y-74200000D03*
X158400000Y-74200000D03*
X153320000Y-74200000D03*
X133000000Y-81800000D03*
X153320000Y-81800000D03*
X148240000Y-81800000D03*
X158400000Y-81800000D03*
D25*
X205400000Y-87000000D02*
X198000000Y-87000000D01*
X196000000Y-85000000D02*
X193000000Y-73000000D01*
X198000000Y-87000000D02*
X196000000Y-85000000D01*
D26*
X164400000Y-89000000D02*
X160850000Y-88200000D01*
X153000000Y-91000000D02*
X149000000Y-89000000D01*
X164500000Y-89450000D02*
X153000000Y-91000000D01*
X160850000Y-88200000D02*
X164500000Y-89450000D01*
X168650000Y-87950000D02*
X176250000Y-87950000D01*
X153320000Y-81800000D02*
X153320000Y-89000000D01*
X153320000Y-89000000D02*
X154000000Y-89000000D01*
X159350000Y-88700000D02*
X159850000Y-88200000D01*
X167500000Y-86000000D02*
X177300000Y-86000000D01*
X159850000Y-88200000D02*
X167500000Y-86000000D01*
X168650000Y-87950000D02*
X165800000Y-87600000D01*
X165800000Y-87600000D02*
X164400000Y-89000000D01*
X153320000Y-74200000D02*
X153320000Y-72320000D01*
X144000000Y-84000000D02*
X149000000Y-89000000D01*
X144000000Y-72000000D02*
X144000000Y-84000000D01*
X145000000Y-71000000D02*
X144000000Y-72000000D01*
X152000000Y-71000000D02*
X145000000Y-71000000D01*
X153320000Y-72320000D02*
X152000000Y-71000000D01*
X149000000Y-89000000D02*
X154000000Y-89000000D01*
X154000000Y-89000000D02*
X159350000Y-88700000D01*
X159350000Y-88700000D02*
X164400000Y-89000000D01*
X153320000Y-74200000D02*
X153320000Y-81800000D01*
D25*
X176250000Y-87950000D02*
X176750000Y-86350000D01*
X176750000Y-86350000D02*
X177300000Y-85200000D01*
X177300000Y-85200000D02*
X177500000Y-81500000D01*
X177500000Y-81500000D02*
X188000000Y-77000000D01*
X188000000Y-77000000D02*
X191000000Y-75000000D01*
X191000000Y-75000000D02*
X188500000Y-73000000D01*
X192000000Y-73000000D02*
X188500000Y-73000000D01*
X192000000Y-73000000D02*
X192400000Y-73000000D01*
X205400000Y-103000000D02*
X205400000Y-111000000D01*
X205400000Y-95000000D02*
X205400000Y-103000000D01*
X205400000Y-87000000D02*
X205400000Y-95000000D01*
X173500000Y-74500000D02*
X166000000Y-74500000D01*
D26*
X178500000Y-73000000D02*
X174000000Y-74000000D01*
X174000000Y-74000000D02*
X173500000Y-74500000D01*
D25*
X158400000Y-81800000D02*
X163000000Y-78000000D01*
X163000000Y-78000000D02*
X166000000Y-74500000D01*
X158400000Y-74200000D02*
X162000000Y-75000000D01*
X162000000Y-75000000D02*
X166000000Y-74500000D01*
D27*
X162000000Y-110000000D02*
X162000000Y-105000000D01*
X162000000Y-105000000D02*
X163000000Y-104000000D01*
X150000000Y-112000000D02*
X152000000Y-110000000D01*
X152000000Y-110000000D02*
X162000000Y-110000000D01*
X162000000Y-114000000D02*
X162000000Y-110000000D01*
X140500000Y-104000000D02*
X140500000Y-90500000D01*
X140500000Y-90500000D02*
X142000000Y-89000000D01*
X142380000Y-112000000D02*
X142380000Y-105880000D01*
X142380000Y-105880000D02*
X140500000Y-104000000D01*
X142500000Y-111880000D02*
X142380000Y-112000000D01*
X140000000Y-103500000D02*
X140500000Y-104000000D01*
X149000000Y-117000000D02*
X148000000Y-116000000D01*
X148000000Y-116000000D02*
X138000000Y-116000000D01*
X138000000Y-116000000D02*
X136000000Y-114000000D01*
X136000000Y-114000000D02*
X136000000Y-110000000D01*
X128000000Y-102000000D02*
X128000000Y-104000000D01*
X130000000Y-108000000D02*
X132000000Y-110000000D01*
X130000000Y-106000000D02*
X130000000Y-108000000D01*
X128000000Y-104000000D02*
X130000000Y-106000000D01*
X124000000Y-101380000D02*
X127380000Y-101380000D01*
X127380000Y-101380000D02*
X128000000Y-102000000D01*
X132000000Y-110000000D02*
X136000000Y-110000000D01*
X128000000Y-109620000D02*
X128000000Y-110000000D01*
X128000000Y-110000000D02*
X137000000Y-119000000D01*
X137000000Y-119000000D02*
X140000000Y-119000000D01*
X140000000Y-119000000D02*
X146000000Y-119000000D01*
X146000000Y-119000000D02*
X149000000Y-122000000D01*
X158000000Y-121620000D02*
X149620000Y-121620000D01*
X149620000Y-121620000D02*
X149000000Y-122000000D01*
X162000000Y-121620000D02*
X158000000Y-121620000D01*
X158000000Y-114000000D02*
X158000000Y-117000000D01*
X160000000Y-119000000D02*
X172000000Y-119000000D01*
X158000000Y-117000000D02*
X160000000Y-119000000D01*
D25*
X183000000Y-119000000D02*
X172000000Y-119000000D01*
D27*
X158130000Y-113870000D02*
X158000000Y-114000000D01*
X124000000Y-109000000D02*
X124000000Y-110000000D01*
X136540000Y-121540000D02*
X140000000Y-121540000D01*
X130000000Y-115000000D02*
X136540000Y-121540000D01*
X129000000Y-115000000D02*
X130000000Y-115000000D01*
X124000000Y-110000000D02*
X129000000Y-115000000D01*
D25*
X183000000Y-111000000D02*
X192000000Y-111000000D01*
X194500000Y-113500000D02*
X194500000Y-119000000D01*
X192000000Y-111000000D02*
X194500000Y-113500000D01*
D26*
X169200000Y-92680000D02*
X168320000Y-92680000D01*
X168320000Y-92680000D02*
X165000000Y-96000000D01*
X169000000Y-103000000D02*
X183000000Y-103000000D01*
X165000000Y-99000000D02*
X169000000Y-103000000D01*
X165000000Y-96000000D02*
X165000000Y-99000000D01*
X183000000Y-95000000D02*
X179120000Y-95000000D01*
X179120000Y-95000000D02*
X176800000Y-92680000D01*
X169200000Y-92680000D02*
X176800000Y-92680000D01*
D25*
X183000000Y-95000000D02*
X183000000Y-103000000D01*
X183000000Y-87000000D02*
X183000000Y-90000000D01*
X183000000Y-90000000D02*
X183000000Y-95000000D01*
X183000000Y-103000000D02*
X183000000Y-111000000D01*
D27*
X176800000Y-97760000D02*
X169200000Y-97760000D01*
X133000000Y-74200000D02*
X132720000Y-74200000D01*
X132720000Y-74200000D02*
X125000000Y-81920000D01*
X130000000Y-92000000D02*
X131000000Y-92000000D01*
X131000000Y-92000000D02*
X136500000Y-86500000D01*
X136500000Y-86500000D02*
X136500000Y-77700000D01*
X136500000Y-77700000D02*
X133000000Y-74200000D01*
X122380000Y-92000000D02*
X122380000Y-96000000D01*
X125000000Y-87000000D02*
X127800000Y-87000000D01*
X127800000Y-87000000D02*
X133000000Y-81800000D01*
X130000000Y-96000000D02*
X126000000Y-96000000D01*
X125000000Y-95000000D02*
X125000000Y-87000000D01*
X126000000Y-96000000D02*
X125000000Y-95000000D01*
X148240000Y-74200000D02*
X148240000Y-81800000D01*
M02*
