M48
;DRILL file {KiCad 4.0.7} date 01/03/21 00:26:25
;FORMAT={-:-/ absolute / metric / decimal}
FMAT,2
METRIC,TZ
T1C0.800
T2C0.900
T3C1.000
T4C1.100
T5C1.200
T6C1.300
T7C1.520
T8C2.500
%
G90
G05
M71
T1
X124.Y-101.38
X124.Y-109.
X149.1Y-97.04
X156.72Y-97.04
X178.5Y-73.
X188.5Y-73.
T2
X132.Y-119.
X132.Y-121.54
T3
X141.Y-120.
X146.Y-120.
T4
X122.38Y-92.
X122.38Y-96.
X128.Y-102.
X128.Y-109.62
X130.Y-92.
X130.Y-96.
X132.Y-102.38
X132.Y-110.
X136.Y-102.38
X136.Y-110.
X154.Y-112.
X154.Y-119.62
X158.Y-112.
X158.Y-119.62
T5
X140.5Y-104.
X142.Y-89.
X163.Y-104.
X164.4Y-89.
X183.Y-87.
X183.Y-95.
X183.Y-103.
X183.Y-111.
X205.4Y-87.
X205.4Y-95.
X205.4Y-103.
X205.4Y-111.
T6
X133.Y-74.2
X133.Y-81.8
X148.24Y-74.2
X148.24Y-81.8
X153.32Y-74.2
X153.32Y-81.8
X158.4Y-74.2
X158.4Y-81.8
X169.2Y-85.6
X169.2Y-90.68
X169.2Y-95.76
X169.2Y-111.
X176.8Y-85.6
X176.8Y-90.68
X176.8Y-95.76
X176.8Y-111.
T7
X125.Y-81.92
X125.Y-87.
T8
X166.Y-74.5
X168.7Y-119.1
X173.5Y-74.5
X179.3Y-119.
X188.5Y-120.
X193.Y-73.
X197.4Y-120.1
X199.7Y-79.7
T0
M30
