G04 #@! TF.FileFunction,Soldermask,Top*
%FSLAX46Y46*%
G04 Gerber Fmt 4.6, Leading zero omitted, Abs format (unit mm)*
G04 Created by KiCad (PCBNEW 4.0.7) date 08/26/20 10:20:58*
%MOMM*%
%LPD*%
G01*
G04 APERTURE LIST*
%ADD10C,0.100000*%
%ADD11C,2.000000*%
%ADD12C,2.800000*%
%ADD13R,2.400000X2.400000*%
%ADD14C,2.400000*%
%ADD15R,2.600000X2.600000*%
%ADD16O,2.600000X2.600000*%
%ADD17R,2.200000X2.200000*%
%ADD18C,2.200000*%
%ADD19C,4.464000*%
%ADD20O,2.800000X2.800000*%
%ADD21O,2.000000X2.000000*%
G04 APERTURE END LIST*
D10*
D11*
X118000000Y-42000000D03*
X108000000Y-42000000D03*
D12*
X136000000Y-58000000D03*
X136000000Y-35500000D03*
D13*
X120250000Y-64250000D03*
D14*
X120250000Y-69250000D03*
D15*
X148000000Y-69750000D03*
D16*
X148000000Y-62130000D03*
D15*
X144500000Y-62000000D03*
D16*
X144500000Y-69620000D03*
D15*
X135500000Y-68250000D03*
D16*
X127880000Y-68250000D03*
D15*
X127750000Y-72000000D03*
D16*
X135370000Y-72000000D03*
D15*
X116500000Y-49750000D03*
D16*
X116500000Y-57370000D03*
D17*
X109750000Y-53250000D03*
D18*
X107210000Y-53250000D03*
D19*
X100000000Y-44000000D03*
X100000000Y-55000000D03*
X108000000Y-35000000D03*
X117000000Y-35000000D03*
X159000000Y-74000000D03*
X170000000Y-74000000D03*
D12*
X125000000Y-58000000D03*
D20*
X125000000Y-35600000D03*
D11*
X113000000Y-57250000D03*
D21*
X113000000Y-49630000D03*
D12*
X159000000Y-41000000D03*
D20*
X181400000Y-41000000D03*
D12*
X159000000Y-65000000D03*
D20*
X181400000Y-65000000D03*
D12*
X159000000Y-57000000D03*
D20*
X181400000Y-57000000D03*
D12*
X159000000Y-49000000D03*
D20*
X181400000Y-49000000D03*
D14*
X145200000Y-54000000D03*
X145200000Y-38760000D03*
X145200000Y-28600000D03*
X145200000Y-33680000D03*
X152800000Y-54000000D03*
X152800000Y-33680000D03*
X152800000Y-38760000D03*
X152800000Y-28600000D03*
D19*
X180000000Y-77000000D03*
X180000000Y-29000000D03*
X100000000Y-29000000D03*
X100000000Y-77000000D03*
D11*
X142000000Y-61500000D03*
D21*
X134380000Y-61500000D03*
M02*
