M48
;DRILL file {KiCad 4.0.7} date 08/26/20 10:21:00
;FORMAT={-:-/ absolute / metric / decimal}
FMAT,2
METRIC,TZ
T1C0.800
T2C0.900
T3C1.000
T4C1.100
T5C1.200
T6C1.300
T7C2.000
T8C3.048
%
G90
G05
M71
T1
X108.Y-42.
X113.Y-49.63
X113.Y-57.25
X118.Y-42.
X134.38Y-61.5
X142.Y-61.5
T2
X107.21Y-53.25
X109.75Y-53.25
T3
X120.25Y-64.25
X120.25Y-69.25
T4
X116.5Y-49.75
X116.5Y-57.37
X127.75Y-72.
X127.88Y-68.25
X135.37Y-72.
X135.5Y-68.25
X144.5Y-62.
X144.5Y-69.62
X148.Y-62.13
X148.Y-69.75
T5
X125.Y-35.6
X125.Y-58.
X136.Y-35.5
X136.Y-58.
X159.Y-41.
X159.Y-49.
X159.Y-57.
X159.Y-65.
X181.4Y-41.
X181.4Y-49.
X181.4Y-57.
X181.4Y-65.
T6
X145.2Y-28.6
X145.2Y-33.68
X145.2Y-38.76
X145.2Y-54.
X152.8Y-28.6
X152.8Y-33.68
X152.8Y-38.76
X152.8Y-54.
T7
X100.Y-44.
X100.Y-55.
X108.Y-35.
X117.Y-35.
X159.Y-74.
X170.Y-74.
T8
X100.Y-29.
X100.Y-77.
X180.Y-29.
X180.Y-77.
T0
M30
