M48
;DRILL file {KiCad 4.0.7} date 01/17/21 18:13:39
;FORMAT={-:-/ absolute / metric / decimal}
FMAT,2
METRIC,TZ
T1C0.800
T2C0.900
T3C1.000
T4C1.100
T5C1.200
T6C1.300
T7C1.520
%
G90
G05
M71
T1
X124.Y-101.38
X124.Y-109.
X149.1Y-97.04
X156.72Y-97.04
X178.5Y-73.
X188.5Y-73.
T2
X132.Y-119.
X132.Y-121.54
T3
X141.Y-120.
X146.Y-120.
T4
X122.38Y-92.
X122.38Y-96.
X128.Y-102.
X128.Y-109.62
X130.Y-92.
X130.Y-96.
X132.Y-102.38
X132.Y-110.
X136.Y-102.38
X136.Y-110.
X151.3Y-112.
X151.3Y-119.62
X155.Y-112.
X155.Y-119.62
T5
X140.5Y-104.
X142.Y-89.
X163.Y-104.
X164.4Y-89.
X183.5Y-85.2
X183.6Y-93.
X183.7Y-100.8
X183.7Y-108.7
X205.9Y-85.2
X206.Y-93.
X206.1Y-100.8
X206.1Y-108.7
T6
X133.Y-74.2
X133.Y-81.8
X148.24Y-74.2
X148.24Y-81.8
X153.32Y-74.2
X153.32Y-81.8
X158.4Y-74.2
X158.4Y-81.8
X169.2Y-85.6
X169.2Y-90.68
X169.2Y-95.76
X169.2Y-111.
X176.8Y-85.6
X176.8Y-90.68
X176.8Y-95.76
X176.8Y-111.
T7
X125.Y-81.92
X125.Y-87.
T4
X163.3Y-118.01G85X163.3Y-117.11
G05
X163.3Y-123.09G85X163.3Y-122.19
G05
X166.2Y-73.31G85X166.2Y-72.41
G05
X166.2Y-78.39G85X166.2Y-77.49
G05
X171.3Y-117.91G85X171.3Y-117.01
G05
X171.3Y-122.99G85X171.3Y-122.09
G05
X174.Y-73.31G85X174.Y-72.41
G05
X174.Y-78.39G85X174.Y-77.49
G05
X180.3Y-118.21G85X180.3Y-117.31
G05
X180.3Y-123.29G85X180.3Y-122.39
G05
X188.3Y-118.21G85X188.3Y-117.31
G05
X188.3Y-123.29G85X188.3Y-122.39
G05
X193.6Y-71.51G85X193.6Y-70.61
G05
X193.6Y-76.59G85X193.6Y-75.69
G05
X196.6Y-118.21G85X196.6Y-117.31
G05
X196.6Y-123.29G85X196.6Y-122.39
G05
T0
M30
