G04 #@! TF.FileFunction,Copper,L1,Top,Signal*
%FSLAX46Y46*%
G04 Gerber Fmt 4.6, Leading zero omitted, Abs format (unit mm)*
G04 Created by KiCad (PCBNEW 4.0.7) date 10/26/20 23:17:11*
%MOMM*%
%LPD*%
G01*
G04 APERTURE LIST*
%ADD10C,0.100000*%
%ADD11C,1.600000*%
%ADD12C,2.400000*%
%ADD13R,2.000000X2.000000*%
%ADD14C,2.000000*%
%ADD15R,2.200000X2.200000*%
%ADD16O,2.200000X2.200000*%
%ADD17R,1.800000X1.800000*%
%ADD18C,1.800000*%
%ADD19C,5.000000*%
%ADD20O,2.400000X2.400000*%
%ADD21O,1.600000X1.600000*%
%ADD22R,3.000000X3.000000*%
%ADD23C,3.000000*%
%ADD24R,1.700000X1.700000*%
%ADD25O,1.700000X1.700000*%
%ADD26C,1.000000*%
G04 APERTURE END LIST*
D10*
D11*
X188500000Y-73000000D03*
X178500000Y-73000000D03*
D12*
X163000000Y-104000000D03*
X140500000Y-104000000D03*
D13*
X141000000Y-120000000D03*
D14*
X146000000Y-120000000D03*
D15*
X132000000Y-110000000D03*
D16*
X132000000Y-102380000D03*
D15*
X158000000Y-112000000D03*
D16*
X158000000Y-119620000D03*
D15*
X136000000Y-110000000D03*
D16*
X136000000Y-102380000D03*
D15*
X154000000Y-112000000D03*
D16*
X154000000Y-119620000D03*
D15*
X128000000Y-102000000D03*
D16*
X128000000Y-109620000D03*
D17*
X132000000Y-119000000D03*
D18*
X132000000Y-121540000D03*
D19*
X166000000Y-74500000D03*
X172000000Y-120000000D03*
X173500000Y-74500000D03*
X193000000Y-73000000D03*
X180000000Y-120000000D03*
X192000000Y-120000000D03*
D12*
X142000000Y-89000000D03*
D20*
X164400000Y-89000000D03*
D11*
X124000000Y-109000000D03*
D21*
X124000000Y-101380000D03*
D12*
X183000000Y-87000000D03*
D20*
X205400000Y-87000000D03*
D12*
X183000000Y-111000000D03*
D20*
X205400000Y-111000000D03*
D12*
X183000000Y-103000000D03*
D20*
X205400000Y-103000000D03*
D12*
X183000000Y-95000000D03*
D20*
X205400000Y-95000000D03*
D14*
X169200000Y-111000000D03*
X169200000Y-95760000D03*
X169200000Y-85600000D03*
X169200000Y-90680000D03*
X176800000Y-111000000D03*
X176800000Y-90680000D03*
X176800000Y-95760000D03*
X176800000Y-85600000D03*
D11*
X156720000Y-97040000D03*
D21*
X149100000Y-97040000D03*
D15*
X130000000Y-92000000D03*
D16*
X122380000Y-92000000D03*
D15*
X130000000Y-96000000D03*
D16*
X122380000Y-96000000D03*
D22*
X125000000Y-87000000D03*
D23*
X125000000Y-81920000D03*
D14*
X133000000Y-74200000D03*
X148240000Y-74200000D03*
X158400000Y-74200000D03*
X153320000Y-74200000D03*
X133000000Y-81800000D03*
X153320000Y-81800000D03*
X148240000Y-81800000D03*
X158400000Y-81800000D03*
D24*
X144975000Y-111675000D03*
D25*
X142435000Y-111675000D03*
D26*
X132000000Y-102380000D02*
X132000000Y-102000000D01*
X149100000Y-97040000D02*
X141390000Y-97040000D01*
X141390000Y-97040000D02*
X140500000Y-96150000D01*
X140500000Y-104000000D02*
X140500000Y-96150000D01*
X140500000Y-90500000D02*
X142000000Y-89000000D01*
X140500000Y-96150000D02*
X140500000Y-90500000D01*
X158000000Y-119620000D02*
X158000000Y-120000000D01*
X154000000Y-112000000D02*
X154000000Y-111000000D01*
X154000000Y-111000000D02*
X156000000Y-109000000D01*
X156000000Y-109000000D02*
X161000000Y-109000000D01*
X161000000Y-109000000D02*
X172000000Y-120000000D01*
X136000000Y-103000000D02*
X136000000Y-102380000D01*
X136000000Y-110000000D02*
X136000000Y-113250000D01*
X144975000Y-114275000D02*
X144975000Y-111675000D01*
X143750000Y-115250000D02*
X144975000Y-114275000D01*
X138250000Y-115250000D02*
X143750000Y-115250000D01*
X136000000Y-113250000D02*
X138250000Y-115250000D01*
X169000000Y-111000000D02*
X169200000Y-111000000D01*
M02*
