G04 #@! TF.FileFunction,Soldermask,Bot*
%FSLAX46Y46*%
G04 Gerber Fmt 4.6, Leading zero omitted, Abs format (unit mm)*
G04 Created by KiCad (PCBNEW 4.0.7) date 01/17/21 18:13:38*
%MOMM*%
%LPD*%
G01*
G04 APERTURE LIST*
%ADD10C,0.100000*%
%ADD11C,2.000000*%
%ADD12C,2.800000*%
%ADD13R,2.400000X2.400000*%
%ADD14C,2.400000*%
%ADD15R,2.600000X2.600000*%
%ADD16O,2.600000X2.600000*%
%ADD17R,2.200000X2.200000*%
%ADD18C,2.200000*%
%ADD19O,2.800000X2.800000*%
%ADD20O,2.000000X2.000000*%
%ADD21C,3.448000*%
%ADD22R,3.400000X3.400000*%
%ADD23C,3.400000*%
%ADD24O,1.900000X2.900000*%
G04 APERTURE END LIST*
D10*
D11*
X188500000Y-73000000D03*
X178500000Y-73000000D03*
D12*
X163000000Y-104000000D03*
X140500000Y-104000000D03*
D13*
X141000000Y-120000000D03*
D14*
X146000000Y-120000000D03*
D15*
X132000000Y-110000000D03*
D16*
X132000000Y-102380000D03*
D15*
X155000000Y-112000000D03*
D16*
X155000000Y-119620000D03*
D15*
X136000000Y-110000000D03*
D16*
X136000000Y-102380000D03*
D15*
X151300000Y-112000000D03*
D16*
X151300000Y-119620000D03*
D15*
X128000000Y-102000000D03*
D16*
X128000000Y-109620000D03*
D17*
X132000000Y-119000000D03*
D18*
X132000000Y-121540000D03*
D12*
X142000000Y-89000000D03*
D19*
X164400000Y-89000000D03*
D11*
X124000000Y-109000000D03*
D20*
X124000000Y-101380000D03*
D12*
X183500000Y-85200000D03*
D19*
X205900000Y-85200000D03*
D12*
X183700000Y-108700000D03*
D19*
X206100000Y-108700000D03*
D12*
X183700000Y-100800000D03*
D19*
X206100000Y-100800000D03*
D12*
X183600000Y-93000000D03*
D19*
X206000000Y-93000000D03*
D14*
X169200000Y-111000000D03*
X169200000Y-95760000D03*
X169200000Y-85600000D03*
X169200000Y-90680000D03*
X176800000Y-111000000D03*
X176800000Y-90680000D03*
X176800000Y-95760000D03*
X176800000Y-85600000D03*
D21*
X204000000Y-121000000D03*
X204000000Y-73000000D03*
X124000000Y-73000000D03*
X124000000Y-121000000D03*
D11*
X156720000Y-97040000D03*
D20*
X149100000Y-97040000D03*
D15*
X130000000Y-92000000D03*
D16*
X122380000Y-92000000D03*
D15*
X130000000Y-96000000D03*
D16*
X122380000Y-96000000D03*
D22*
X125000000Y-87000000D03*
D23*
X125000000Y-81920000D03*
D14*
X133000000Y-74200000D03*
X148240000Y-74200000D03*
X158400000Y-74200000D03*
X153320000Y-74200000D03*
X133000000Y-81800000D03*
X153320000Y-81800000D03*
X148240000Y-81800000D03*
X158400000Y-81800000D03*
D24*
X166200000Y-77940000D03*
X166200000Y-72860000D03*
X163300000Y-122640000D03*
X163300000Y-117560000D03*
X174000000Y-77940000D03*
X174000000Y-72860000D03*
X193600000Y-76140000D03*
X193600000Y-71060000D03*
X171300000Y-122540000D03*
X171300000Y-117460000D03*
X180300000Y-122840000D03*
X180300000Y-117760000D03*
X196600000Y-122840000D03*
X196600000Y-117760000D03*
X188300000Y-122840000D03*
X188300000Y-117760000D03*
M02*
