G04 #@! TF.FileFunction,Legend,Top*
%FSLAX46Y46*%
G04 Gerber Fmt 4.6, Leading zero omitted, Abs format (unit mm)*
G04 Created by KiCad (PCBNEW 4.0.7) date 08/26/20 10:20:58*
%MOMM*%
%LPD*%
G01*
G04 APERTURE LIST*
%ADD10C,0.100000*%
%ADD11C,0.300000*%
%ADD12C,0.120000*%
%ADD13C,0.200000*%
%ADD14C,0.150000*%
G04 APERTURE END LIST*
D10*
D11*
X122678572Y-77582143D02*
X122892858Y-77653571D01*
X123250001Y-77653571D01*
X123392858Y-77582143D01*
X123464287Y-77510714D01*
X123535715Y-77367857D01*
X123535715Y-77225000D01*
X123464287Y-77082143D01*
X123392858Y-77010714D01*
X123250001Y-76939286D01*
X122964287Y-76867857D01*
X122821429Y-76796429D01*
X122750001Y-76725000D01*
X122678572Y-76582143D01*
X122678572Y-76439286D01*
X122750001Y-76296429D01*
X122821429Y-76225000D01*
X122964287Y-76153571D01*
X123321429Y-76153571D01*
X123535715Y-76225000D01*
X124464286Y-76153571D02*
X124750000Y-76153571D01*
X124892858Y-76225000D01*
X125035715Y-76367857D01*
X125107143Y-76653571D01*
X125107143Y-77153571D01*
X125035715Y-77439286D01*
X124892858Y-77582143D01*
X124750000Y-77653571D01*
X124464286Y-77653571D01*
X124321429Y-77582143D01*
X124178572Y-77439286D01*
X124107143Y-77153571D01*
X124107143Y-76653571D01*
X124178572Y-76367857D01*
X124321429Y-76225000D01*
X124464286Y-76153571D01*
X126250001Y-76867857D02*
X125750001Y-76867857D01*
X125750001Y-77653571D02*
X125750001Y-76153571D01*
X126464287Y-76153571D01*
X126821429Y-76153571D02*
X127678572Y-76153571D01*
X127250001Y-77653571D02*
X127250001Y-76153571D01*
X129250000Y-77582143D02*
X129464286Y-77653571D01*
X129821429Y-77653571D01*
X129964286Y-77582143D01*
X130035715Y-77510714D01*
X130107143Y-77367857D01*
X130107143Y-77225000D01*
X130035715Y-77082143D01*
X129964286Y-77010714D01*
X129821429Y-76939286D01*
X129535715Y-76867857D01*
X129392857Y-76796429D01*
X129321429Y-76725000D01*
X129250000Y-76582143D01*
X129250000Y-76439286D01*
X129321429Y-76296429D01*
X129392857Y-76225000D01*
X129535715Y-76153571D01*
X129892857Y-76153571D01*
X130107143Y-76225000D01*
X130535714Y-76153571D02*
X131392857Y-76153571D01*
X130964286Y-77653571D02*
X130964286Y-76153571D01*
X131821428Y-77225000D02*
X132535714Y-77225000D01*
X131678571Y-77653571D02*
X132178571Y-76153571D01*
X132678571Y-77653571D01*
X134035714Y-77653571D02*
X133535714Y-76939286D01*
X133178571Y-77653571D02*
X133178571Y-76153571D01*
X133749999Y-76153571D01*
X133892857Y-76225000D01*
X133964285Y-76296429D01*
X134035714Y-76439286D01*
X134035714Y-76653571D01*
X133964285Y-76796429D01*
X133892857Y-76867857D01*
X133749999Y-76939286D01*
X133178571Y-76939286D01*
X134464285Y-76153571D02*
X135321428Y-76153571D01*
X134892857Y-77653571D02*
X134892857Y-76153571D01*
X136964285Y-77653571D02*
X136964285Y-76153571D01*
X137535713Y-76153571D01*
X137678571Y-76225000D01*
X137749999Y-76296429D01*
X137821428Y-76439286D01*
X137821428Y-76653571D01*
X137749999Y-76796429D01*
X137678571Y-76867857D01*
X137535713Y-76939286D01*
X136964285Y-76939286D01*
X139321428Y-77510714D02*
X139249999Y-77582143D01*
X139035713Y-77653571D01*
X138892856Y-77653571D01*
X138678571Y-77582143D01*
X138535713Y-77439286D01*
X138464285Y-77296429D01*
X138392856Y-77010714D01*
X138392856Y-76796429D01*
X138464285Y-76510714D01*
X138535713Y-76367857D01*
X138678571Y-76225000D01*
X138892856Y-76153571D01*
X139035713Y-76153571D01*
X139249999Y-76225000D01*
X139321428Y-76296429D01*
X140464285Y-76867857D02*
X140678571Y-76939286D01*
X140749999Y-77010714D01*
X140821428Y-77153571D01*
X140821428Y-77367857D01*
X140749999Y-77510714D01*
X140678571Y-77582143D01*
X140535713Y-77653571D01*
X139964285Y-77653571D01*
X139964285Y-76153571D01*
X140464285Y-76153571D01*
X140607142Y-76225000D01*
X140678571Y-76296429D01*
X140749999Y-76439286D01*
X140749999Y-76582143D01*
X140678571Y-76725000D01*
X140607142Y-76796429D01*
X140464285Y-76867857D01*
X139964285Y-76867857D01*
X116214287Y-79417857D02*
X116428573Y-79489286D01*
X116500001Y-79560714D01*
X116571430Y-79703571D01*
X116571430Y-79917857D01*
X116500001Y-80060714D01*
X116428573Y-80132143D01*
X116285715Y-80203571D01*
X115714287Y-80203571D01*
X115714287Y-78703571D01*
X116214287Y-78703571D01*
X116357144Y-78775000D01*
X116428573Y-78846429D01*
X116500001Y-78989286D01*
X116500001Y-79132143D01*
X116428573Y-79275000D01*
X116357144Y-79346429D01*
X116214287Y-79417857D01*
X115714287Y-79417857D01*
X117500001Y-79489286D02*
X117500001Y-80203571D01*
X117000001Y-78703571D02*
X117500001Y-79489286D01*
X118000001Y-78703571D01*
X119642858Y-80203571D02*
X119642858Y-78703571D01*
X120000001Y-78703571D01*
X120214286Y-78775000D01*
X120357144Y-78917857D01*
X120428572Y-79060714D01*
X120500001Y-79346429D01*
X120500001Y-79560714D01*
X120428572Y-79846429D01*
X120357144Y-79989286D01*
X120214286Y-80132143D01*
X120000001Y-80203571D01*
X119642858Y-80203571D01*
X121142858Y-80060714D02*
X121214286Y-80132143D01*
X121142858Y-80203571D01*
X121071429Y-80132143D01*
X121142858Y-80060714D01*
X121142858Y-80203571D01*
X123000001Y-80203571D02*
X123000001Y-78703571D01*
X123500001Y-79775000D01*
X124000001Y-78703571D01*
X124000001Y-80203571D01*
X124642858Y-79775000D02*
X125357144Y-79775000D01*
X124500001Y-80203571D02*
X125000001Y-78703571D01*
X125500001Y-80203571D01*
X126857144Y-80203571D02*
X126357144Y-79489286D01*
X126000001Y-80203571D02*
X126000001Y-78703571D01*
X126571429Y-78703571D01*
X126714287Y-78775000D01*
X126785715Y-78846429D01*
X126857144Y-78989286D01*
X126857144Y-79203571D01*
X126785715Y-79346429D01*
X126714287Y-79417857D01*
X126571429Y-79489286D01*
X126000001Y-79489286D01*
X127500001Y-80203571D02*
X127500001Y-78703571D01*
X128357144Y-80203571D02*
X127714287Y-79346429D01*
X128357144Y-78703571D02*
X127500001Y-79560714D01*
X128928572Y-80132143D02*
X129142858Y-80203571D01*
X129500001Y-80203571D01*
X129642858Y-80132143D01*
X129714287Y-80060714D01*
X129785715Y-79917857D01*
X129785715Y-79775000D01*
X129714287Y-79632143D01*
X129642858Y-79560714D01*
X129500001Y-79489286D01*
X129214287Y-79417857D01*
X129071429Y-79346429D01*
X129000001Y-79275000D01*
X128928572Y-79132143D01*
X128928572Y-78989286D01*
X129000001Y-78846429D01*
X129071429Y-78775000D01*
X129214287Y-78703571D01*
X129571429Y-78703571D01*
X129785715Y-78775000D01*
X132428572Y-80060714D02*
X132357143Y-80132143D01*
X132142857Y-80203571D01*
X132000000Y-80203571D01*
X131785715Y-80132143D01*
X131642857Y-79989286D01*
X131571429Y-79846429D01*
X131500000Y-79560714D01*
X131500000Y-79346429D01*
X131571429Y-79060714D01*
X131642857Y-78917857D01*
X131785715Y-78775000D01*
X132000000Y-78703571D01*
X132142857Y-78703571D01*
X132357143Y-78775000D01*
X132428572Y-78846429D01*
X133928572Y-80060714D02*
X133857143Y-80132143D01*
X133642857Y-80203571D01*
X133500000Y-80203571D01*
X133285715Y-80132143D01*
X133142857Y-79989286D01*
X133071429Y-79846429D01*
X133000000Y-79560714D01*
X133000000Y-79346429D01*
X133071429Y-79060714D01*
X133142857Y-78917857D01*
X133285715Y-78775000D01*
X133500000Y-78703571D01*
X133642857Y-78703571D01*
X133857143Y-78775000D01*
X133928572Y-78846429D01*
X134571429Y-79632143D02*
X135714286Y-79632143D01*
X136928572Y-79417857D02*
X137142858Y-79489286D01*
X137214286Y-79560714D01*
X137285715Y-79703571D01*
X137285715Y-79917857D01*
X137214286Y-80060714D01*
X137142858Y-80132143D01*
X137000000Y-80203571D01*
X136428572Y-80203571D01*
X136428572Y-78703571D01*
X136928572Y-78703571D01*
X137071429Y-78775000D01*
X137142858Y-78846429D01*
X137214286Y-78989286D01*
X137214286Y-79132143D01*
X137142858Y-79275000D01*
X137071429Y-79346429D01*
X136928572Y-79417857D01*
X136428572Y-79417857D01*
X138214286Y-79489286D02*
X138214286Y-80203571D01*
X137714286Y-78703571D02*
X138214286Y-79489286D01*
X138714286Y-78703571D01*
X139214286Y-79632143D02*
X140357143Y-79632143D01*
X141000000Y-80132143D02*
X141214286Y-80203571D01*
X141571429Y-80203571D01*
X141714286Y-80132143D01*
X141785715Y-80060714D01*
X141857143Y-79917857D01*
X141857143Y-79775000D01*
X141785715Y-79632143D01*
X141714286Y-79560714D01*
X141571429Y-79489286D01*
X141285715Y-79417857D01*
X141142857Y-79346429D01*
X141071429Y-79275000D01*
X141000000Y-79132143D01*
X141000000Y-78989286D01*
X141071429Y-78846429D01*
X141142857Y-78775000D01*
X141285715Y-78703571D01*
X141642857Y-78703571D01*
X141857143Y-78775000D01*
X142428571Y-79775000D02*
X143142857Y-79775000D01*
X142285714Y-80203571D02*
X142785714Y-78703571D01*
X143285714Y-80203571D01*
X145571428Y-79203571D02*
X145571428Y-80203571D01*
X145214285Y-78632143D02*
X144857142Y-79703571D01*
X145785714Y-79703571D01*
X146357142Y-80060714D02*
X146428570Y-80132143D01*
X146357142Y-80203571D01*
X146285713Y-80132143D01*
X146357142Y-80060714D01*
X146357142Y-80203571D01*
X147357142Y-78703571D02*
X147499999Y-78703571D01*
X147642856Y-78775000D01*
X147714285Y-78846429D01*
X147785714Y-78989286D01*
X147857142Y-79275000D01*
X147857142Y-79632143D01*
X147785714Y-79917857D01*
X147714285Y-80060714D01*
X147642856Y-80132143D01*
X147499999Y-80203571D01*
X147357142Y-80203571D01*
X147214285Y-80132143D01*
X147142856Y-80060714D01*
X147071428Y-79917857D01*
X146999999Y-79632143D01*
X146999999Y-79275000D01*
X147071428Y-78989286D01*
X147142856Y-78846429D01*
X147214285Y-78775000D01*
X147357142Y-78703571D01*
X114535714Y-30678571D02*
X114535714Y-29178571D01*
X115107142Y-29178571D01*
X115250000Y-29250000D01*
X115321428Y-29321429D01*
X115392857Y-29464286D01*
X115392857Y-29678571D01*
X115321428Y-29821429D01*
X115250000Y-29892857D01*
X115107142Y-29964286D01*
X114535714Y-29964286D01*
X116321428Y-29178571D02*
X116607142Y-29178571D01*
X116750000Y-29250000D01*
X116892857Y-29392857D01*
X116964285Y-29678571D01*
X116964285Y-30178571D01*
X116892857Y-30464286D01*
X116750000Y-30607143D01*
X116607142Y-30678571D01*
X116321428Y-30678571D01*
X116178571Y-30607143D01*
X116035714Y-30464286D01*
X115964285Y-30178571D01*
X115964285Y-29678571D01*
X116035714Y-29392857D01*
X116178571Y-29250000D01*
X116321428Y-29178571D01*
X118321429Y-30678571D02*
X117607143Y-30678571D01*
X117607143Y-29178571D01*
X118821429Y-29892857D02*
X119321429Y-29892857D01*
X119535715Y-30678571D02*
X118821429Y-30678571D01*
X118821429Y-29178571D01*
X119535715Y-29178571D01*
X104392857Y-29178571D02*
X105250000Y-29178571D01*
X104821429Y-30678571D02*
X104821429Y-29178571D01*
X105750000Y-30678571D02*
X105750000Y-29178571D01*
X105750000Y-29892857D02*
X106607143Y-29892857D01*
X106607143Y-30678571D02*
X106607143Y-29178571D01*
X108178572Y-30678571D02*
X107678572Y-29964286D01*
X107321429Y-30678571D02*
X107321429Y-29178571D01*
X107892857Y-29178571D01*
X108035715Y-29250000D01*
X108107143Y-29321429D01*
X108178572Y-29464286D01*
X108178572Y-29678571D01*
X108107143Y-29821429D01*
X108035715Y-29892857D01*
X107892857Y-29964286D01*
X107321429Y-29964286D01*
X109107143Y-29178571D02*
X109392857Y-29178571D01*
X109535715Y-29250000D01*
X109678572Y-29392857D01*
X109750000Y-29678571D01*
X109750000Y-30178571D01*
X109678572Y-30464286D01*
X109535715Y-30607143D01*
X109392857Y-30678571D01*
X109107143Y-30678571D01*
X108964286Y-30607143D01*
X108821429Y-30464286D01*
X108750000Y-30178571D01*
X108750000Y-29678571D01*
X108821429Y-29392857D01*
X108964286Y-29250000D01*
X109107143Y-29178571D01*
X110250001Y-29178571D02*
X110607144Y-30678571D01*
X110892858Y-29607143D01*
X111178572Y-30678571D01*
X111535715Y-29178571D01*
X96535714Y-60678571D02*
X96535714Y-59178571D01*
X97392857Y-60678571D01*
X97392857Y-59178571D01*
X98107143Y-59892857D02*
X98607143Y-59892857D01*
X98821429Y-60678571D02*
X98107143Y-60678571D01*
X98107143Y-59178571D01*
X98821429Y-59178571D01*
X99464286Y-59178571D02*
X99464286Y-60392857D01*
X99535714Y-60535714D01*
X99607143Y-60607143D01*
X99750000Y-60678571D01*
X100035714Y-60678571D01*
X100178572Y-60607143D01*
X100250000Y-60535714D01*
X100321429Y-60392857D01*
X100321429Y-59178571D01*
X100821429Y-59178571D02*
X101678572Y-59178571D01*
X101250001Y-60678571D02*
X101250001Y-59178571D01*
X103035715Y-60678571D02*
X102535715Y-59964286D01*
X102178572Y-60678571D02*
X102178572Y-59178571D01*
X102750000Y-59178571D01*
X102892858Y-59250000D01*
X102964286Y-59321429D01*
X103035715Y-59464286D01*
X103035715Y-59678571D01*
X102964286Y-59821429D01*
X102892858Y-59892857D01*
X102750000Y-59964286D01*
X102178572Y-59964286D01*
X103607143Y-60250000D02*
X104321429Y-60250000D01*
X103464286Y-60678571D02*
X103964286Y-59178571D01*
X104464286Y-60678571D01*
X105678572Y-60678571D02*
X104964286Y-60678571D01*
X104964286Y-59178571D01*
X99785715Y-39678571D02*
X99071429Y-39678571D01*
X99071429Y-38178571D01*
X100285715Y-39678571D02*
X100285715Y-38178571D01*
X100785715Y-38178571D02*
X101285715Y-39678571D01*
X101785715Y-38178571D01*
X102285715Y-38892857D02*
X102785715Y-38892857D01*
X103000001Y-39678571D02*
X102285715Y-39678571D01*
X102285715Y-38178571D01*
X103000001Y-38178571D01*
X166392857Y-78178571D02*
X166678571Y-78178571D01*
X166821429Y-78250000D01*
X166964286Y-78392857D01*
X167035714Y-78678571D01*
X167035714Y-79178571D01*
X166964286Y-79464286D01*
X166821429Y-79607143D01*
X166678571Y-79678571D01*
X166392857Y-79678571D01*
X166250000Y-79607143D01*
X166107143Y-79464286D01*
X166035714Y-79178571D01*
X166035714Y-78678571D01*
X166107143Y-78392857D01*
X166250000Y-78250000D01*
X166392857Y-78178571D01*
X167678572Y-78178571D02*
X167678572Y-79392857D01*
X167750000Y-79535714D01*
X167821429Y-79607143D01*
X167964286Y-79678571D01*
X168250000Y-79678571D01*
X168392858Y-79607143D01*
X168464286Y-79535714D01*
X168535715Y-79392857D01*
X168535715Y-78178571D01*
X169035715Y-78178571D02*
X169892858Y-78178571D01*
X169464287Y-79678571D02*
X169464287Y-78178571D01*
X170392858Y-79678571D02*
X170392858Y-78178571D01*
X170964286Y-78178571D01*
X171107144Y-78250000D01*
X171178572Y-78321429D01*
X171250001Y-78464286D01*
X171250001Y-78678571D01*
X171178572Y-78821429D01*
X171107144Y-78892857D01*
X170964286Y-78964286D01*
X170392858Y-78964286D01*
X171892858Y-78178571D02*
X171892858Y-79392857D01*
X171964286Y-79535714D01*
X172035715Y-79607143D01*
X172178572Y-79678571D01*
X172464286Y-79678571D01*
X172607144Y-79607143D01*
X172678572Y-79535714D01*
X172750001Y-79392857D01*
X172750001Y-78178571D01*
X173250001Y-78178571D02*
X174107144Y-78178571D01*
X173678573Y-79678571D02*
X173678573Y-78178571D01*
X154535714Y-79678571D02*
X154535714Y-78178571D01*
X155392857Y-79678571D01*
X155392857Y-78178571D01*
X156107143Y-78892857D02*
X156607143Y-78892857D01*
X156821429Y-79678571D02*
X156107143Y-79678571D01*
X156107143Y-78178571D01*
X156821429Y-78178571D01*
X157464286Y-78178571D02*
X157464286Y-79392857D01*
X157535714Y-79535714D01*
X157607143Y-79607143D01*
X157750000Y-79678571D01*
X158035714Y-79678571D01*
X158178572Y-79607143D01*
X158250000Y-79535714D01*
X158321429Y-79392857D01*
X158321429Y-78178571D01*
X158821429Y-78178571D02*
X159678572Y-78178571D01*
X159250001Y-79678571D02*
X159250001Y-78178571D01*
X161035715Y-79678571D02*
X160535715Y-78964286D01*
X160178572Y-79678571D02*
X160178572Y-78178571D01*
X160750000Y-78178571D01*
X160892858Y-78250000D01*
X160964286Y-78321429D01*
X161035715Y-78464286D01*
X161035715Y-78678571D01*
X160964286Y-78821429D01*
X160892858Y-78892857D01*
X160750000Y-78964286D01*
X160178572Y-78964286D01*
X161607143Y-79250000D02*
X162321429Y-79250000D01*
X161464286Y-79678571D02*
X161964286Y-78178571D01*
X162464286Y-79678571D01*
X163678572Y-79678571D02*
X162964286Y-79678571D01*
X162964286Y-78178571D01*
D12*
X118810000Y-44310000D02*
X107190000Y-44310000D01*
X118810000Y-39690000D02*
X107190000Y-39690000D01*
X118810000Y-44310000D02*
X118810000Y-42750000D01*
X118810000Y-41250000D02*
X118810000Y-39690000D01*
X107190000Y-44310000D02*
X107190000Y-42750000D01*
X107190000Y-41250000D02*
X107190000Y-39690000D01*
X130890000Y-58810000D02*
X130890000Y-34690000D01*
X141110000Y-58810000D02*
X141110000Y-34690000D01*
X130890000Y-58810000D02*
X134605000Y-58810000D01*
X137395000Y-58810000D02*
X141110000Y-58810000D01*
X130890000Y-34690000D02*
X134605000Y-34690000D01*
X137395000Y-34690000D02*
X141110000Y-34690000D01*
X121633264Y-71648437D02*
G75*
G03X121630000Y-61850643I-1383264J4898437D01*
G01*
X118866736Y-71648437D02*
G75*
G02X118870000Y-61850643I1383264J4898437D01*
G01*
X118866736Y-71648437D02*
G75*
G03X121630000Y-71649357I1383264J4898437D01*
G01*
X125300000Y-66750000D02*
X115200000Y-66750000D01*
X125300000Y-66790000D02*
X115200000Y-66790000D01*
X125300000Y-66830000D02*
X115200000Y-66830000D01*
X125299000Y-66870000D02*
X115201000Y-66870000D01*
X125298000Y-66910000D02*
X115202000Y-66910000D01*
X125297000Y-66950000D02*
X115203000Y-66950000D01*
X125295000Y-66990000D02*
X115205000Y-66990000D01*
X125293000Y-67030000D02*
X115207000Y-67030000D01*
X125290000Y-67070000D02*
X115210000Y-67070000D01*
X125288000Y-67110000D02*
X115212000Y-67110000D01*
X125285000Y-67150000D02*
X115215000Y-67150000D01*
X125281000Y-67190000D02*
X115219000Y-67190000D01*
X125278000Y-67230000D02*
X115222000Y-67230000D01*
X125274000Y-67270000D02*
X115226000Y-67270000D01*
X125270000Y-67310000D02*
X115230000Y-67310000D01*
X125265000Y-67350000D02*
X115235000Y-67350000D01*
X125260000Y-67390000D02*
X115240000Y-67390000D01*
X125255000Y-67430000D02*
X115245000Y-67430000D01*
X125249000Y-67471000D02*
X115251000Y-67471000D01*
X125243000Y-67511000D02*
X115257000Y-67511000D01*
X125237000Y-67551000D02*
X115263000Y-67551000D01*
X125231000Y-67591000D02*
X115269000Y-67591000D01*
X125224000Y-67631000D02*
X115276000Y-67631000D01*
X125217000Y-67671000D02*
X115283000Y-67671000D01*
X125209000Y-67711000D02*
X115291000Y-67711000D01*
X125201000Y-67751000D02*
X115299000Y-67751000D01*
X125193000Y-67791000D02*
X115307000Y-67791000D01*
X125185000Y-67831000D02*
X115315000Y-67831000D01*
X125176000Y-67871000D02*
X115324000Y-67871000D01*
X125167000Y-67911000D02*
X115333000Y-67911000D01*
X125157000Y-67951000D02*
X115343000Y-67951000D01*
X125147000Y-67991000D02*
X115353000Y-67991000D01*
X125137000Y-68031000D02*
X115363000Y-68031000D01*
X125126000Y-68071000D02*
X121431000Y-68071000D01*
X119069000Y-68071000D02*
X115374000Y-68071000D01*
X125115000Y-68111000D02*
X121431000Y-68111000D01*
X119069000Y-68111000D02*
X115385000Y-68111000D01*
X125104000Y-68151000D02*
X121431000Y-68151000D01*
X119069000Y-68151000D02*
X115396000Y-68151000D01*
X125093000Y-68191000D02*
X121431000Y-68191000D01*
X119069000Y-68191000D02*
X115407000Y-68191000D01*
X125081000Y-68231000D02*
X121431000Y-68231000D01*
X119069000Y-68231000D02*
X115419000Y-68231000D01*
X125068000Y-68271000D02*
X121431000Y-68271000D01*
X119069000Y-68271000D02*
X115432000Y-68271000D01*
X125056000Y-68311000D02*
X121431000Y-68311000D01*
X119069000Y-68311000D02*
X115444000Y-68311000D01*
X125042000Y-68351000D02*
X121431000Y-68351000D01*
X119069000Y-68351000D02*
X115458000Y-68351000D01*
X125029000Y-68391000D02*
X121431000Y-68391000D01*
X119069000Y-68391000D02*
X115471000Y-68391000D01*
X125015000Y-68431000D02*
X121431000Y-68431000D01*
X119069000Y-68431000D02*
X115485000Y-68431000D01*
X125001000Y-68471000D02*
X121431000Y-68471000D01*
X119069000Y-68471000D02*
X115499000Y-68471000D01*
X124987000Y-68511000D02*
X121431000Y-68511000D01*
X119069000Y-68511000D02*
X115513000Y-68511000D01*
X124972000Y-68551000D02*
X121431000Y-68551000D01*
X119069000Y-68551000D02*
X115528000Y-68551000D01*
X124956000Y-68591000D02*
X121431000Y-68591000D01*
X119069000Y-68591000D02*
X115544000Y-68591000D01*
X124941000Y-68631000D02*
X121431000Y-68631000D01*
X119069000Y-68631000D02*
X115559000Y-68631000D01*
X124924000Y-68671000D02*
X121431000Y-68671000D01*
X119069000Y-68671000D02*
X115576000Y-68671000D01*
X124908000Y-68711000D02*
X121431000Y-68711000D01*
X119069000Y-68711000D02*
X115592000Y-68711000D01*
X124891000Y-68751000D02*
X121431000Y-68751000D01*
X119069000Y-68751000D02*
X115609000Y-68751000D01*
X124874000Y-68791000D02*
X121431000Y-68791000D01*
X119069000Y-68791000D02*
X115626000Y-68791000D01*
X124856000Y-68831000D02*
X121431000Y-68831000D01*
X119069000Y-68831000D02*
X115644000Y-68831000D01*
X124838000Y-68871000D02*
X121431000Y-68871000D01*
X119069000Y-68871000D02*
X115662000Y-68871000D01*
X124819000Y-68911000D02*
X121431000Y-68911000D01*
X119069000Y-68911000D02*
X115681000Y-68911000D01*
X124800000Y-68951000D02*
X121431000Y-68951000D01*
X119069000Y-68951000D02*
X115700000Y-68951000D01*
X124781000Y-68991000D02*
X121431000Y-68991000D01*
X119069000Y-68991000D02*
X115719000Y-68991000D01*
X124761000Y-69031000D02*
X121431000Y-69031000D01*
X119069000Y-69031000D02*
X115739000Y-69031000D01*
X124741000Y-69071000D02*
X121431000Y-69071000D01*
X119069000Y-69071000D02*
X115759000Y-69071000D01*
X124720000Y-69111000D02*
X121431000Y-69111000D01*
X119069000Y-69111000D02*
X115780000Y-69111000D01*
X124699000Y-69151000D02*
X121431000Y-69151000D01*
X119069000Y-69151000D02*
X115801000Y-69151000D01*
X124678000Y-69191000D02*
X121431000Y-69191000D01*
X119069000Y-69191000D02*
X115822000Y-69191000D01*
X124655000Y-69231000D02*
X121431000Y-69231000D01*
X119069000Y-69231000D02*
X115845000Y-69231000D01*
X124633000Y-69271000D02*
X121431000Y-69271000D01*
X119069000Y-69271000D02*
X115867000Y-69271000D01*
X124610000Y-69311000D02*
X121431000Y-69311000D01*
X119069000Y-69311000D02*
X115890000Y-69311000D01*
X124586000Y-69351000D02*
X121431000Y-69351000D01*
X119069000Y-69351000D02*
X115914000Y-69351000D01*
X124562000Y-69391000D02*
X121431000Y-69391000D01*
X119069000Y-69391000D02*
X115938000Y-69391000D01*
X124538000Y-69431000D02*
X121431000Y-69431000D01*
X119069000Y-69431000D02*
X115962000Y-69431000D01*
X124513000Y-69471000D02*
X121431000Y-69471000D01*
X119069000Y-69471000D02*
X115987000Y-69471000D01*
X124487000Y-69511000D02*
X121431000Y-69511000D01*
X119069000Y-69511000D02*
X116013000Y-69511000D01*
X124461000Y-69551000D02*
X121431000Y-69551000D01*
X119069000Y-69551000D02*
X116039000Y-69551000D01*
X124435000Y-69591000D02*
X121431000Y-69591000D01*
X119069000Y-69591000D02*
X116065000Y-69591000D01*
X124407000Y-69631000D02*
X121431000Y-69631000D01*
X119069000Y-69631000D02*
X116093000Y-69631000D01*
X124380000Y-69671000D02*
X121431000Y-69671000D01*
X119069000Y-69671000D02*
X116120000Y-69671000D01*
X124351000Y-69711000D02*
X121431000Y-69711000D01*
X119069000Y-69711000D02*
X116149000Y-69711000D01*
X124322000Y-69751000D02*
X121431000Y-69751000D01*
X119069000Y-69751000D02*
X116178000Y-69751000D01*
X124293000Y-69791000D02*
X121431000Y-69791000D01*
X119069000Y-69791000D02*
X116207000Y-69791000D01*
X124263000Y-69831000D02*
X121431000Y-69831000D01*
X119069000Y-69831000D02*
X116237000Y-69831000D01*
X124232000Y-69871000D02*
X121431000Y-69871000D01*
X119069000Y-69871000D02*
X116268000Y-69871000D01*
X124201000Y-69911000D02*
X121431000Y-69911000D01*
X119069000Y-69911000D02*
X116299000Y-69911000D01*
X124169000Y-69951000D02*
X121431000Y-69951000D01*
X119069000Y-69951000D02*
X116331000Y-69951000D01*
X124136000Y-69991000D02*
X121431000Y-69991000D01*
X119069000Y-69991000D02*
X116364000Y-69991000D01*
X124103000Y-70031000D02*
X121431000Y-70031000D01*
X119069000Y-70031000D02*
X116397000Y-70031000D01*
X124069000Y-70071000D02*
X121431000Y-70071000D01*
X119069000Y-70071000D02*
X116431000Y-70071000D01*
X124034000Y-70111000D02*
X121431000Y-70111000D01*
X119069000Y-70111000D02*
X116466000Y-70111000D01*
X123998000Y-70151000D02*
X121431000Y-70151000D01*
X119069000Y-70151000D02*
X116502000Y-70151000D01*
X123962000Y-70191000D02*
X121431000Y-70191000D01*
X119069000Y-70191000D02*
X116538000Y-70191000D01*
X123925000Y-70231000D02*
X121431000Y-70231000D01*
X119069000Y-70231000D02*
X116575000Y-70231000D01*
X123887000Y-70271000D02*
X121431000Y-70271000D01*
X119069000Y-70271000D02*
X116613000Y-70271000D01*
X123848000Y-70311000D02*
X121431000Y-70311000D01*
X119069000Y-70311000D02*
X116652000Y-70311000D01*
X123809000Y-70351000D02*
X121431000Y-70351000D01*
X119069000Y-70351000D02*
X116691000Y-70351000D01*
X123768000Y-70391000D02*
X121431000Y-70391000D01*
X119069000Y-70391000D02*
X116732000Y-70391000D01*
X123727000Y-70431000D02*
X116773000Y-70431000D01*
X123685000Y-70471000D02*
X116815000Y-70471000D01*
X123641000Y-70511000D02*
X116859000Y-70511000D01*
X123597000Y-70551000D02*
X116903000Y-70551000D01*
X123552000Y-70591000D02*
X116948000Y-70591000D01*
X123505000Y-70631000D02*
X116995000Y-70631000D01*
X123457000Y-70671000D02*
X117043000Y-70671000D01*
X123408000Y-70711000D02*
X117092000Y-70711000D01*
X123358000Y-70751000D02*
X117142000Y-70751000D01*
X123307000Y-70791000D02*
X117193000Y-70791000D01*
X123254000Y-70831000D02*
X117246000Y-70831000D01*
X123199000Y-70871000D02*
X117301000Y-70871000D01*
X123144000Y-70911000D02*
X117356000Y-70911000D01*
X123086000Y-70951000D02*
X117414000Y-70951000D01*
X123027000Y-70991000D02*
X117473000Y-70991000D01*
X122965000Y-71031000D02*
X117535000Y-71031000D01*
X122902000Y-71071000D02*
X117598000Y-71071000D01*
X122837000Y-71111000D02*
X117663000Y-71111000D01*
X122769000Y-71151000D02*
X117731000Y-71151000D01*
X122699000Y-71191000D02*
X117801000Y-71191000D01*
X122627000Y-71231000D02*
X117873000Y-71231000D01*
X122551000Y-71271000D02*
X117949000Y-71271000D01*
X122472000Y-71311000D02*
X118028000Y-71311000D01*
X122390000Y-71351000D02*
X118110000Y-71351000D01*
X122303000Y-71391000D02*
X118197000Y-71391000D01*
X122212000Y-71431000D02*
X118288000Y-71431000D01*
X122116000Y-71471000D02*
X118384000Y-71471000D01*
X122013000Y-71511000D02*
X118487000Y-71511000D01*
X121904000Y-71551000D02*
X118596000Y-71551000D01*
X121786000Y-71591000D02*
X118714000Y-71591000D01*
X121657000Y-71631000D02*
X118843000Y-71631000D01*
X121515000Y-71671000D02*
X118985000Y-71671000D01*
X121354000Y-71711000D02*
X119146000Y-71711000D01*
X121163000Y-71751000D02*
X119337000Y-71751000D01*
X120922000Y-71791000D02*
X119578000Y-71791000D01*
X120529000Y-71831000D02*
X119971000Y-71831000D01*
X120250000Y-61550000D02*
X120250000Y-63050000D01*
X121000000Y-62300000D02*
X119500000Y-62300000D01*
X146720000Y-68600000D02*
X146590000Y-68600000D01*
X146590000Y-68600000D02*
X146590000Y-63280000D01*
X146590000Y-63280000D02*
X146720000Y-63280000D01*
X149280000Y-68600000D02*
X149410000Y-68600000D01*
X149410000Y-68600000D02*
X149410000Y-63280000D01*
X149410000Y-63280000D02*
X149280000Y-63280000D01*
X146590000Y-67760000D02*
X149410000Y-67760000D01*
X145780000Y-63150000D02*
X145910000Y-63150000D01*
X145910000Y-63150000D02*
X145910000Y-68470000D01*
X145910000Y-68470000D02*
X145780000Y-68470000D01*
X143220000Y-63150000D02*
X143090000Y-63150000D01*
X143090000Y-63150000D02*
X143090000Y-68470000D01*
X143090000Y-68470000D02*
X143220000Y-68470000D01*
X145910000Y-63990000D02*
X143090000Y-63990000D01*
X134350000Y-69530000D02*
X134350000Y-69660000D01*
X134350000Y-69660000D02*
X129030000Y-69660000D01*
X129030000Y-69660000D02*
X129030000Y-69530000D01*
X134350000Y-66970000D02*
X134350000Y-66840000D01*
X134350000Y-66840000D02*
X129030000Y-66840000D01*
X129030000Y-66840000D02*
X129030000Y-66970000D01*
X133510000Y-69660000D02*
X133510000Y-66840000D01*
X128900000Y-70720000D02*
X128900000Y-70590000D01*
X128900000Y-70590000D02*
X134220000Y-70590000D01*
X134220000Y-70590000D02*
X134220000Y-70720000D01*
X128900000Y-73280000D02*
X128900000Y-73410000D01*
X128900000Y-73410000D02*
X134220000Y-73410000D01*
X134220000Y-73410000D02*
X134220000Y-73280000D01*
X129740000Y-70590000D02*
X129740000Y-73410000D01*
X117780000Y-50900000D02*
X117910000Y-50900000D01*
X117910000Y-50900000D02*
X117910000Y-56220000D01*
X117910000Y-56220000D02*
X117780000Y-56220000D01*
X115220000Y-50900000D02*
X115090000Y-50900000D01*
X115090000Y-50900000D02*
X115090000Y-56220000D01*
X115090000Y-56220000D02*
X115220000Y-56220000D01*
X117910000Y-51740000D02*
X115090000Y-51740000D01*
X106807665Y-54328608D02*
G75*
G03X110040000Y-54485516I1672335J1078608D01*
G01*
X106807665Y-52171392D02*
G75*
G02X110040000Y-52014484I1672335J-1078608D01*
G01*
X107438870Y-54329837D02*
G75*
G03X109520961Y-54330000I1041130J1079837D01*
G01*
X107438870Y-52170163D02*
G75*
G02X109520961Y-52170000I1041130J-1079837D01*
G01*
X110040000Y-54486000D02*
X110040000Y-54330000D01*
X110040000Y-52170000D02*
X110040000Y-52014000D01*
X102286000Y-44000000D02*
G75*
G03X102286000Y-44000000I-2286000J0D01*
G01*
X102286000Y-55000000D02*
G75*
G03X102286000Y-55000000I-2286000J0D01*
G01*
X110286000Y-35000000D02*
G75*
G03X110286000Y-35000000I-2286000J0D01*
G01*
X119286000Y-35000000D02*
G75*
G03X119286000Y-35000000I-2286000J0D01*
G01*
X161286000Y-74000000D02*
G75*
G03X161286000Y-74000000I-2286000J0D01*
G01*
X172286000Y-74000000D02*
G75*
G03X172286000Y-74000000I-2286000J0D01*
G01*
X123620000Y-56860000D02*
X121740000Y-56860000D01*
X121740000Y-56860000D02*
X121740000Y-36740000D01*
X121740000Y-36740000D02*
X123620000Y-36740000D01*
X126380000Y-56860000D02*
X128260000Y-56860000D01*
X128260000Y-56860000D02*
X128260000Y-36740000D01*
X128260000Y-36740000D02*
X126380000Y-36740000D01*
X112020000Y-56650000D02*
X111690000Y-56650000D01*
X111690000Y-56650000D02*
X111690000Y-50230000D01*
X111690000Y-50230000D02*
X112020000Y-50230000D01*
X113980000Y-56650000D02*
X114310000Y-56650000D01*
X114310000Y-56650000D02*
X114310000Y-50230000D01*
X114310000Y-50230000D02*
X113980000Y-50230000D01*
X160140000Y-39620000D02*
X160140000Y-37740000D01*
X160140000Y-37740000D02*
X180260000Y-37740000D01*
X180260000Y-37740000D02*
X180260000Y-39620000D01*
X160140000Y-42380000D02*
X160140000Y-44260000D01*
X160140000Y-44260000D02*
X180260000Y-44260000D01*
X180260000Y-44260000D02*
X180260000Y-42380000D01*
X160140000Y-63620000D02*
X160140000Y-61740000D01*
X160140000Y-61740000D02*
X180260000Y-61740000D01*
X180260000Y-61740000D02*
X180260000Y-63620000D01*
X160140000Y-66380000D02*
X160140000Y-68260000D01*
X160140000Y-68260000D02*
X180260000Y-68260000D01*
X180260000Y-68260000D02*
X180260000Y-66380000D01*
X160140000Y-55620000D02*
X160140000Y-53740000D01*
X160140000Y-53740000D02*
X180260000Y-53740000D01*
X180260000Y-53740000D02*
X180260000Y-55620000D01*
X160140000Y-58380000D02*
X160140000Y-60260000D01*
X160140000Y-60260000D02*
X180260000Y-60260000D01*
X180260000Y-60260000D02*
X180260000Y-58380000D01*
X160140000Y-47620000D02*
X160140000Y-45740000D01*
X160140000Y-45740000D02*
X180260000Y-45740000D01*
X180260000Y-45740000D02*
X180260000Y-47620000D01*
X160140000Y-50380000D02*
X160140000Y-52260000D01*
X160140000Y-52260000D02*
X180260000Y-52260000D01*
X180260000Y-52260000D02*
X180260000Y-50380000D01*
D13*
X143000000Y-56000000D02*
X143000000Y-27000000D01*
X143000000Y-27000000D02*
X155000000Y-27000000D01*
X155000000Y-27000000D02*
X155000000Y-56000000D01*
X155000000Y-56000000D02*
X143000000Y-56000000D01*
X149000000Y-34094000D02*
X149000000Y-33205000D01*
X149000000Y-33205000D02*
X150905000Y-29903000D01*
X153699000Y-38920000D02*
X154207000Y-38920000D01*
X154207000Y-38920000D02*
X154207000Y-31554000D01*
X154207000Y-31554000D02*
X154207000Y-31300000D01*
X154207000Y-31300000D02*
X150524000Y-31300000D01*
X145190000Y-29903000D02*
X145190000Y-31427000D01*
X145190000Y-31427000D02*
X147222000Y-31427000D01*
X151921000Y-29014000D02*
X146079000Y-29014000D01*
X146079000Y-33967000D02*
X152048000Y-33967000D01*
X146079000Y-38920000D02*
X151921000Y-38920000D01*
X149889000Y-51239000D02*
X152810000Y-51239000D01*
X152810000Y-51239000D02*
X152810000Y-53271000D01*
X144936000Y-53017000D02*
X144936000Y-51239000D01*
X144936000Y-51239000D02*
X147603000Y-51239000D01*
X147603000Y-51239000D02*
X147603000Y-52382000D01*
X147603000Y-52382000D02*
X149762000Y-52382000D01*
X149762000Y-52382000D02*
X149762000Y-50096000D01*
X149762000Y-50096000D02*
X147603000Y-50096000D01*
X147603000Y-50096000D02*
X147603000Y-51112000D01*
D12*
X182286000Y-77000000D02*
G75*
G03X182286000Y-77000000I-2286000J0D01*
G01*
X182286000Y-29000000D02*
G75*
G03X182286000Y-29000000I-2286000J0D01*
G01*
X102286000Y-29000000D02*
G75*
G03X102286000Y-29000000I-2286000J0D01*
G01*
X102286000Y-77000000D02*
G75*
G03X102286000Y-77000000I-2286000J0D01*
G01*
X141400000Y-62480000D02*
X141400000Y-62810000D01*
X141400000Y-62810000D02*
X134980000Y-62810000D01*
X134980000Y-62810000D02*
X134980000Y-62480000D01*
X141400000Y-60520000D02*
X141400000Y-60190000D01*
X141400000Y-60190000D02*
X134980000Y-60190000D01*
X134980000Y-60190000D02*
X134980000Y-60520000D01*
D14*
X112833334Y-42357143D02*
X112785715Y-42404762D01*
X112642858Y-42452381D01*
X112547620Y-42452381D01*
X112404762Y-42404762D01*
X112309524Y-42309524D01*
X112261905Y-42214286D01*
X112214286Y-42023810D01*
X112214286Y-41880952D01*
X112261905Y-41690476D01*
X112309524Y-41595238D01*
X112404762Y-41500000D01*
X112547620Y-41452381D01*
X112642858Y-41452381D01*
X112785715Y-41500000D01*
X112833334Y-41547619D01*
X113785715Y-42452381D02*
X113214286Y-42452381D01*
X113500000Y-42452381D02*
X113500000Y-41452381D01*
X113404762Y-41595238D01*
X113309524Y-41690476D01*
X113214286Y-41738095D01*
X136357143Y-47166666D02*
X136404762Y-47214285D01*
X136452381Y-47357142D01*
X136452381Y-47452380D01*
X136404762Y-47595238D01*
X136309524Y-47690476D01*
X136214286Y-47738095D01*
X136023810Y-47785714D01*
X135880952Y-47785714D01*
X135690476Y-47738095D01*
X135595238Y-47690476D01*
X135500000Y-47595238D01*
X135452381Y-47452380D01*
X135452381Y-47357142D01*
X135500000Y-47214285D01*
X135547619Y-47166666D01*
X135547619Y-46785714D02*
X135500000Y-46738095D01*
X135452381Y-46642857D01*
X135452381Y-46404761D01*
X135500000Y-46309523D01*
X135547619Y-46261904D01*
X135642857Y-46214285D01*
X135738095Y-46214285D01*
X135880952Y-46261904D01*
X136452381Y-46833333D01*
X136452381Y-46214285D01*
X123607143Y-65166666D02*
X123654762Y-65214285D01*
X123702381Y-65357142D01*
X123702381Y-65452380D01*
X123654762Y-65595238D01*
X123559524Y-65690476D01*
X123464286Y-65738095D01*
X123273810Y-65785714D01*
X123130952Y-65785714D01*
X122940476Y-65738095D01*
X122845238Y-65690476D01*
X122750000Y-65595238D01*
X122702381Y-65452380D01*
X122702381Y-65357142D01*
X122750000Y-65214285D01*
X122797619Y-65166666D01*
X122702381Y-64833333D02*
X122702381Y-64214285D01*
X123083333Y-64547619D01*
X123083333Y-64404761D01*
X123130952Y-64309523D01*
X123178571Y-64261904D01*
X123273810Y-64214285D01*
X123511905Y-64214285D01*
X123607143Y-64261904D01*
X123654762Y-64309523D01*
X123702381Y-64404761D01*
X123702381Y-64690476D01*
X123654762Y-64785714D01*
X123607143Y-64833333D01*
X148452381Y-66738095D02*
X147452381Y-66738095D01*
X147452381Y-66500000D01*
X147500000Y-66357142D01*
X147595238Y-66261904D01*
X147690476Y-66214285D01*
X147880952Y-66166666D01*
X148023810Y-66166666D01*
X148214286Y-66214285D01*
X148309524Y-66261904D01*
X148404762Y-66357142D01*
X148452381Y-66500000D01*
X148452381Y-66738095D01*
X148452381Y-65214285D02*
X148452381Y-65785714D01*
X148452381Y-65500000D02*
X147452381Y-65500000D01*
X147595238Y-65595238D01*
X147690476Y-65690476D01*
X147738095Y-65785714D01*
X144952381Y-66488095D02*
X143952381Y-66488095D01*
X143952381Y-66250000D01*
X144000000Y-66107142D01*
X144095238Y-66011904D01*
X144190476Y-65964285D01*
X144380952Y-65916666D01*
X144523810Y-65916666D01*
X144714286Y-65964285D01*
X144809524Y-66011904D01*
X144904762Y-66107142D01*
X144952381Y-66250000D01*
X144952381Y-66488095D01*
X144047619Y-65535714D02*
X144000000Y-65488095D01*
X143952381Y-65392857D01*
X143952381Y-65154761D01*
X144000000Y-65059523D01*
X144047619Y-65011904D01*
X144142857Y-64964285D01*
X144238095Y-64964285D01*
X144380952Y-65011904D01*
X144952381Y-65583333D01*
X144952381Y-64964285D01*
X131011905Y-68702381D02*
X131011905Y-67702381D01*
X131250000Y-67702381D01*
X131392858Y-67750000D01*
X131488096Y-67845238D01*
X131535715Y-67940476D01*
X131583334Y-68130952D01*
X131583334Y-68273810D01*
X131535715Y-68464286D01*
X131488096Y-68559524D01*
X131392858Y-68654762D01*
X131250000Y-68702381D01*
X131011905Y-68702381D01*
X131916667Y-67702381D02*
X132535715Y-67702381D01*
X132202381Y-68083333D01*
X132345239Y-68083333D01*
X132440477Y-68130952D01*
X132488096Y-68178571D01*
X132535715Y-68273810D01*
X132535715Y-68511905D01*
X132488096Y-68607143D01*
X132440477Y-68654762D01*
X132345239Y-68702381D01*
X132059524Y-68702381D01*
X131964286Y-68654762D01*
X131916667Y-68607143D01*
X130761905Y-72452381D02*
X130761905Y-71452381D01*
X131000000Y-71452381D01*
X131142858Y-71500000D01*
X131238096Y-71595238D01*
X131285715Y-71690476D01*
X131333334Y-71880952D01*
X131333334Y-72023810D01*
X131285715Y-72214286D01*
X131238096Y-72309524D01*
X131142858Y-72404762D01*
X131000000Y-72452381D01*
X130761905Y-72452381D01*
X132190477Y-71785714D02*
X132190477Y-72452381D01*
X131952381Y-71404762D02*
X131714286Y-72119048D01*
X132333334Y-72119048D01*
X116952381Y-54238095D02*
X115952381Y-54238095D01*
X115952381Y-54000000D01*
X116000000Y-53857142D01*
X116095238Y-53761904D01*
X116190476Y-53714285D01*
X116380952Y-53666666D01*
X116523810Y-53666666D01*
X116714286Y-53714285D01*
X116809524Y-53761904D01*
X116904762Y-53857142D01*
X116952381Y-54000000D01*
X116952381Y-54238095D01*
X115952381Y-52761904D02*
X115952381Y-53238095D01*
X116428571Y-53285714D01*
X116380952Y-53238095D01*
X116333333Y-53142857D01*
X116333333Y-52904761D01*
X116380952Y-52809523D01*
X116428571Y-52761904D01*
X116523810Y-52714285D01*
X116761905Y-52714285D01*
X116857143Y-52761904D01*
X116904762Y-52809523D01*
X116952381Y-52904761D01*
X116952381Y-53142857D01*
X116904762Y-53238095D01*
X116857143Y-53285714D01*
X112202381Y-53988095D02*
X111202381Y-53988095D01*
X111202381Y-53750000D01*
X111250000Y-53607142D01*
X111345238Y-53511904D01*
X111440476Y-53464285D01*
X111630952Y-53416666D01*
X111773810Y-53416666D01*
X111964286Y-53464285D01*
X112059524Y-53511904D01*
X112154762Y-53607142D01*
X112202381Y-53750000D01*
X112202381Y-53988095D01*
X111202381Y-52559523D02*
X111202381Y-52750000D01*
X111250000Y-52845238D01*
X111297619Y-52892857D01*
X111440476Y-52988095D01*
X111630952Y-53035714D01*
X112011905Y-53035714D01*
X112107143Y-52988095D01*
X112154762Y-52940476D01*
X112202381Y-52845238D01*
X112202381Y-52654761D01*
X112154762Y-52559523D01*
X112107143Y-52511904D01*
X112011905Y-52464285D01*
X111773810Y-52464285D01*
X111678571Y-52511904D01*
X111630952Y-52559523D01*
X111583333Y-52654761D01*
X111583333Y-52845238D01*
X111630952Y-52940476D01*
X111678571Y-52988095D01*
X111773810Y-53035714D01*
X99666667Y-40404381D02*
X99666667Y-41118667D01*
X99619047Y-41261524D01*
X99523809Y-41356762D01*
X99380952Y-41404381D01*
X99285714Y-41404381D01*
X100666667Y-41404381D02*
X100095238Y-41404381D01*
X100380952Y-41404381D02*
X100380952Y-40404381D01*
X100285714Y-40547238D01*
X100190476Y-40642476D01*
X100095238Y-40690095D01*
X99666667Y-51404381D02*
X99666667Y-52118667D01*
X99619047Y-52261524D01*
X99523809Y-52356762D01*
X99380952Y-52404381D01*
X99285714Y-52404381D01*
X100095238Y-51499619D02*
X100142857Y-51452000D01*
X100238095Y-51404381D01*
X100476191Y-51404381D01*
X100571429Y-51452000D01*
X100619048Y-51499619D01*
X100666667Y-51594857D01*
X100666667Y-51690095D01*
X100619048Y-51832952D01*
X100047619Y-52404381D01*
X100666667Y-52404381D01*
X107666667Y-31404381D02*
X107666667Y-32118667D01*
X107619047Y-32261524D01*
X107523809Y-32356762D01*
X107380952Y-32404381D01*
X107285714Y-32404381D01*
X108047619Y-31404381D02*
X108666667Y-31404381D01*
X108333333Y-31785333D01*
X108476191Y-31785333D01*
X108571429Y-31832952D01*
X108619048Y-31880571D01*
X108666667Y-31975810D01*
X108666667Y-32213905D01*
X108619048Y-32309143D01*
X108571429Y-32356762D01*
X108476191Y-32404381D01*
X108190476Y-32404381D01*
X108095238Y-32356762D01*
X108047619Y-32309143D01*
X116666667Y-31404381D02*
X116666667Y-32118667D01*
X116619047Y-32261524D01*
X116523809Y-32356762D01*
X116380952Y-32404381D01*
X116285714Y-32404381D01*
X117571429Y-31737714D02*
X117571429Y-32404381D01*
X117333333Y-31356762D02*
X117095238Y-32071048D01*
X117714286Y-32071048D01*
X158666667Y-70404381D02*
X158666667Y-71118667D01*
X158619047Y-71261524D01*
X158523809Y-71356762D01*
X158380952Y-71404381D01*
X158285714Y-71404381D01*
X159619048Y-70404381D02*
X159142857Y-70404381D01*
X159095238Y-70880571D01*
X159142857Y-70832952D01*
X159238095Y-70785333D01*
X159476191Y-70785333D01*
X159571429Y-70832952D01*
X159619048Y-70880571D01*
X159666667Y-70975810D01*
X159666667Y-71213905D01*
X159619048Y-71309143D01*
X159571429Y-71356762D01*
X159476191Y-71404381D01*
X159238095Y-71404381D01*
X159142857Y-71356762D01*
X159095238Y-71309143D01*
X169666667Y-70404381D02*
X169666667Y-71118667D01*
X169619047Y-71261524D01*
X169523809Y-71356762D01*
X169380952Y-71404381D01*
X169285714Y-71404381D01*
X170571429Y-70404381D02*
X170380952Y-70404381D01*
X170285714Y-70452000D01*
X170238095Y-70499619D01*
X170142857Y-70642476D01*
X170095238Y-70832952D01*
X170095238Y-71213905D01*
X170142857Y-71309143D01*
X170190476Y-71356762D01*
X170285714Y-71404381D01*
X170476191Y-71404381D01*
X170571429Y-71356762D01*
X170619048Y-71309143D01*
X170666667Y-71213905D01*
X170666667Y-70975810D01*
X170619048Y-70880571D01*
X170571429Y-70832952D01*
X170476191Y-70785333D01*
X170285714Y-70785333D01*
X170190476Y-70832952D01*
X170142857Y-70880571D01*
X170095238Y-70975810D01*
X125452381Y-46916666D02*
X124976190Y-47250000D01*
X125452381Y-47488095D02*
X124452381Y-47488095D01*
X124452381Y-47107142D01*
X124500000Y-47011904D01*
X124547619Y-46964285D01*
X124642857Y-46916666D01*
X124785714Y-46916666D01*
X124880952Y-46964285D01*
X124928571Y-47011904D01*
X124976190Y-47107142D01*
X124976190Y-47488095D01*
X125452381Y-45964285D02*
X125452381Y-46535714D01*
X125452381Y-46250000D02*
X124452381Y-46250000D01*
X124595238Y-46345238D01*
X124690476Y-46440476D01*
X124738095Y-46535714D01*
X113452381Y-53666666D02*
X112976190Y-54000000D01*
X113452381Y-54238095D02*
X112452381Y-54238095D01*
X112452381Y-53857142D01*
X112500000Y-53761904D01*
X112547619Y-53714285D01*
X112642857Y-53666666D01*
X112785714Y-53666666D01*
X112880952Y-53714285D01*
X112928571Y-53761904D01*
X112976190Y-53857142D01*
X112976190Y-54238095D01*
X112547619Y-53285714D02*
X112500000Y-53238095D01*
X112452381Y-53142857D01*
X112452381Y-52904761D01*
X112500000Y-52809523D01*
X112547619Y-52761904D01*
X112642857Y-52714285D01*
X112738095Y-52714285D01*
X112880952Y-52761904D01*
X113452381Y-53333333D01*
X113452381Y-52714285D01*
X169833334Y-41202381D02*
X169500000Y-40726190D01*
X169261905Y-41202381D02*
X169261905Y-40202381D01*
X169642858Y-40202381D01*
X169738096Y-40250000D01*
X169785715Y-40297619D01*
X169833334Y-40392857D01*
X169833334Y-40535714D01*
X169785715Y-40630952D01*
X169738096Y-40678571D01*
X169642858Y-40726190D01*
X169261905Y-40726190D01*
X170166667Y-40202381D02*
X170785715Y-40202381D01*
X170452381Y-40583333D01*
X170595239Y-40583333D01*
X170690477Y-40630952D01*
X170738096Y-40678571D01*
X170785715Y-40773810D01*
X170785715Y-41011905D01*
X170738096Y-41107143D01*
X170690477Y-41154762D01*
X170595239Y-41202381D01*
X170309524Y-41202381D01*
X170214286Y-41154762D01*
X170166667Y-41107143D01*
X170083334Y-65202381D02*
X169750000Y-64726190D01*
X169511905Y-65202381D02*
X169511905Y-64202381D01*
X169892858Y-64202381D01*
X169988096Y-64250000D01*
X170035715Y-64297619D01*
X170083334Y-64392857D01*
X170083334Y-64535714D01*
X170035715Y-64630952D01*
X169988096Y-64678571D01*
X169892858Y-64726190D01*
X169511905Y-64726190D01*
X170940477Y-64535714D02*
X170940477Y-65202381D01*
X170702381Y-64154762D02*
X170464286Y-64869048D01*
X171083334Y-64869048D01*
X170083334Y-57452381D02*
X169750000Y-56976190D01*
X169511905Y-57452381D02*
X169511905Y-56452381D01*
X169892858Y-56452381D01*
X169988096Y-56500000D01*
X170035715Y-56547619D01*
X170083334Y-56642857D01*
X170083334Y-56785714D01*
X170035715Y-56880952D01*
X169988096Y-56928571D01*
X169892858Y-56976190D01*
X169511905Y-56976190D01*
X170988096Y-56452381D02*
X170511905Y-56452381D01*
X170464286Y-56928571D01*
X170511905Y-56880952D01*
X170607143Y-56833333D01*
X170845239Y-56833333D01*
X170940477Y-56880952D01*
X170988096Y-56928571D01*
X171035715Y-57023810D01*
X171035715Y-57261905D01*
X170988096Y-57357143D01*
X170940477Y-57404762D01*
X170845239Y-57452381D01*
X170607143Y-57452381D01*
X170511905Y-57404762D01*
X170464286Y-57357143D01*
X170083334Y-49452381D02*
X169750000Y-48976190D01*
X169511905Y-49452381D02*
X169511905Y-48452381D01*
X169892858Y-48452381D01*
X169988096Y-48500000D01*
X170035715Y-48547619D01*
X170083334Y-48642857D01*
X170083334Y-48785714D01*
X170035715Y-48880952D01*
X169988096Y-48928571D01*
X169892858Y-48976190D01*
X169511905Y-48976190D01*
X170940477Y-48452381D02*
X170750000Y-48452381D01*
X170654762Y-48500000D01*
X170607143Y-48547619D01*
X170511905Y-48690476D01*
X170464286Y-48880952D01*
X170464286Y-49261905D01*
X170511905Y-49357143D01*
X170559524Y-49404762D01*
X170654762Y-49452381D01*
X170845239Y-49452381D01*
X170940477Y-49404762D01*
X170988096Y-49357143D01*
X171035715Y-49261905D01*
X171035715Y-49023810D01*
X170988096Y-48928571D01*
X170940477Y-48880952D01*
X170845239Y-48833333D01*
X170654762Y-48833333D01*
X170559524Y-48880952D01*
X170511905Y-48928571D01*
X170464286Y-49023810D01*
X150849381Y-45381000D02*
X150373190Y-45714334D01*
X150849381Y-45952429D02*
X149849381Y-45952429D01*
X149849381Y-45571476D01*
X149897000Y-45476238D01*
X149944619Y-45428619D01*
X150039857Y-45381000D01*
X150182714Y-45381000D01*
X150277952Y-45428619D01*
X150325571Y-45476238D01*
X150373190Y-45571476D01*
X150373190Y-45952429D01*
X150849381Y-44476238D02*
X150849381Y-44952429D01*
X149849381Y-44952429D01*
X150373190Y-43952429D02*
X150849381Y-43952429D01*
X149849381Y-44285762D02*
X150373190Y-43952429D01*
X149849381Y-43619095D01*
X150849381Y-42761952D02*
X150849381Y-43333381D01*
X150849381Y-43047667D02*
X149849381Y-43047667D01*
X149992238Y-43142905D01*
X150087476Y-43238143D01*
X150135095Y-43333381D01*
X148134762Y-48150857D02*
X148182381Y-48008000D01*
X148182381Y-47769904D01*
X148134762Y-47674666D01*
X148087143Y-47627047D01*
X147991905Y-47579428D01*
X147896667Y-47579428D01*
X147801429Y-47627047D01*
X147753810Y-47674666D01*
X147706190Y-47769904D01*
X147658571Y-47960381D01*
X147610952Y-48055619D01*
X147563333Y-48103238D01*
X147468095Y-48150857D01*
X147372857Y-48150857D01*
X147277619Y-48103238D01*
X147230000Y-48055619D01*
X147182381Y-47960381D01*
X147182381Y-47722285D01*
X147230000Y-47579428D01*
X148182381Y-47150857D02*
X147182381Y-47150857D01*
X147896667Y-46817523D01*
X147182381Y-46484190D01*
X148182381Y-46484190D01*
X148182381Y-46008000D02*
X147182381Y-46008000D01*
X148182381Y-45531810D02*
X147182381Y-45531810D01*
X147658571Y-45531810D02*
X147658571Y-44960381D01*
X148182381Y-44960381D02*
X147182381Y-44960381D01*
X148182381Y-43912762D02*
X147706190Y-44246096D01*
X148182381Y-44484191D02*
X147182381Y-44484191D01*
X147182381Y-44103238D01*
X147230000Y-44008000D01*
X147277619Y-43960381D01*
X147372857Y-43912762D01*
X147515714Y-43912762D01*
X147610952Y-43960381D01*
X147658571Y-44008000D01*
X147706190Y-44103238D01*
X147706190Y-44484191D01*
X148134762Y-43103238D02*
X148182381Y-43198476D01*
X148182381Y-43388953D01*
X148134762Y-43484191D01*
X148039524Y-43531810D01*
X147658571Y-43531810D01*
X147563333Y-43484191D01*
X147515714Y-43388953D01*
X147515714Y-43198476D01*
X147563333Y-43103238D01*
X147658571Y-43055619D01*
X147753810Y-43055619D01*
X147849048Y-43531810D01*
X148182381Y-42484191D02*
X148134762Y-42579429D01*
X148039524Y-42627048D01*
X147182381Y-42627048D01*
X148182381Y-41674666D02*
X147658571Y-41674666D01*
X147563333Y-41722285D01*
X147515714Y-41817523D01*
X147515714Y-42008000D01*
X147563333Y-42103238D01*
X148134762Y-41674666D02*
X148182381Y-41769904D01*
X148182381Y-42008000D01*
X148134762Y-42103238D01*
X148039524Y-42150857D01*
X147944286Y-42150857D01*
X147849048Y-42103238D01*
X147801429Y-42008000D01*
X147801429Y-41769904D01*
X147753810Y-41674666D01*
X147515714Y-41293714D02*
X148182381Y-41055619D01*
X147515714Y-40817523D02*
X148182381Y-41055619D01*
X148420476Y-41150857D01*
X148468095Y-41198476D01*
X148515714Y-41293714D01*
X179666667Y-73404381D02*
X179666667Y-74118667D01*
X179619047Y-74261524D01*
X179523809Y-74356762D01*
X179380952Y-74404381D01*
X179285714Y-74404381D01*
X180047619Y-73404381D02*
X180714286Y-73404381D01*
X180285714Y-74404381D01*
X179666667Y-25404381D02*
X179666667Y-26118667D01*
X179619047Y-26261524D01*
X179523809Y-26356762D01*
X179380952Y-26404381D01*
X179285714Y-26404381D01*
X180285714Y-25832952D02*
X180190476Y-25785333D01*
X180142857Y-25737714D01*
X180095238Y-25642476D01*
X180095238Y-25594857D01*
X180142857Y-25499619D01*
X180190476Y-25452000D01*
X180285714Y-25404381D01*
X180476191Y-25404381D01*
X180571429Y-25452000D01*
X180619048Y-25499619D01*
X180666667Y-25594857D01*
X180666667Y-25642476D01*
X180619048Y-25737714D01*
X180571429Y-25785333D01*
X180476191Y-25832952D01*
X180285714Y-25832952D01*
X180190476Y-25880571D01*
X180142857Y-25928190D01*
X180095238Y-26023429D01*
X180095238Y-26213905D01*
X180142857Y-26309143D01*
X180190476Y-26356762D01*
X180285714Y-26404381D01*
X180476191Y-26404381D01*
X180571429Y-26356762D01*
X180619048Y-26309143D01*
X180666667Y-26213905D01*
X180666667Y-26023429D01*
X180619048Y-25928190D01*
X180571429Y-25880571D01*
X180476191Y-25832952D01*
X99666667Y-25404381D02*
X99666667Y-26118667D01*
X99619047Y-26261524D01*
X99523809Y-26356762D01*
X99380952Y-26404381D01*
X99285714Y-26404381D01*
X100190476Y-26404381D02*
X100380952Y-26404381D01*
X100476191Y-26356762D01*
X100523810Y-26309143D01*
X100619048Y-26166286D01*
X100666667Y-25975810D01*
X100666667Y-25594857D01*
X100619048Y-25499619D01*
X100571429Y-25452000D01*
X100476191Y-25404381D01*
X100285714Y-25404381D01*
X100190476Y-25452000D01*
X100142857Y-25499619D01*
X100095238Y-25594857D01*
X100095238Y-25832952D01*
X100142857Y-25928190D01*
X100190476Y-25975810D01*
X100285714Y-26023429D01*
X100476191Y-26023429D01*
X100571429Y-25975810D01*
X100619048Y-25928190D01*
X100666667Y-25832952D01*
X99190477Y-73404381D02*
X99190477Y-74118667D01*
X99142857Y-74261524D01*
X99047619Y-74356762D01*
X98904762Y-74404381D01*
X98809524Y-74404381D01*
X100190477Y-74404381D02*
X99619048Y-74404381D01*
X99904762Y-74404381D02*
X99904762Y-73404381D01*
X99809524Y-73547238D01*
X99714286Y-73642476D01*
X99619048Y-73690095D01*
X100809524Y-73404381D02*
X100904763Y-73404381D01*
X101000001Y-73452000D01*
X101047620Y-73499619D01*
X101095239Y-73594857D01*
X101142858Y-73785333D01*
X101142858Y-74023429D01*
X101095239Y-74213905D01*
X101047620Y-74309143D01*
X101000001Y-74356762D01*
X100904763Y-74404381D01*
X100809524Y-74404381D01*
X100714286Y-74356762D01*
X100666667Y-74309143D01*
X100619048Y-74213905D01*
X100571429Y-74023429D01*
X100571429Y-73785333D01*
X100619048Y-73594857D01*
X100666667Y-73499619D01*
X100714286Y-73452000D01*
X100809524Y-73404381D01*
X137833334Y-62027382D02*
X137500000Y-61551191D01*
X137261905Y-62027382D02*
X137261905Y-61027382D01*
X137642858Y-61027382D01*
X137738096Y-61075001D01*
X137785715Y-61122620D01*
X137833334Y-61217858D01*
X137833334Y-61360715D01*
X137785715Y-61455953D01*
X137738096Y-61503572D01*
X137642858Y-61551191D01*
X137261905Y-61551191D01*
X138166667Y-61027382D02*
X138833334Y-61027382D01*
X138404762Y-62027382D01*
M02*
