M48
;DRILL file {KiCad 4.0.7} date 09/09/20 10:44:58
;FORMAT={-:-/ absolute / metric / decimal}
FMAT,2
METRIC,TZ
T1C0.800
T2C0.900
T3C1.000
T4C1.100
T5C1.200
T6C1.300
T7C1.520
T8C2.500
T9C3.048
%
G90
G05
M71
T1
X124.Y-101.38
X124.Y-109.
X142.38Y-112.
X150.Y-112.
X178.5Y-73.
X188.5Y-73.
T2
X140.Y-119.
X140.Y-121.54
T3
X149.Y-117.
X149.Y-122.
T4
X122.38Y-92.
X122.38Y-96.
X128.Y-102.
X128.Y-109.62
X130.Y-92.
X130.Y-96.
X132.Y-102.38
X132.Y-110.
X136.Y-102.38
X136.Y-110.
X158.Y-114.
X158.Y-121.62
X162.Y-114.
X162.Y-121.62
T5
X140.5Y-104.
X142.Y-89.
X163.Y-104.
X164.4Y-89.
X183.Y-87.
X183.Y-95.
X183.Y-103.
X183.Y-111.
X205.4Y-87.
X205.4Y-95.
X205.4Y-103.
X205.4Y-111.
T6
X133.Y-74.2
X133.Y-81.8
X148.24Y-74.2
X148.24Y-81.8
X153.32Y-74.2
X153.32Y-81.8
X158.4Y-74.2
X158.4Y-81.8
X169.2Y-87.6
X169.2Y-92.68
X169.2Y-97.76
X169.2Y-113.
X176.8Y-87.6
X176.8Y-92.68
X176.8Y-97.76
X176.8Y-113.
T7
X125.Y-81.92
X125.Y-87.
T8
X166.Y-74.5
X172.Y-119.
X173.5Y-74.5
X183.Y-119.
X193.Y-73.
X194.5Y-119.
T9
X124.Y-73.
X124.Y-121.
X204.Y-73.
X204.Y-121.
T0
M30
