G04 #@! TF.FileFunction,Legend,Top*
%FSLAX46Y46*%
G04 Gerber Fmt 4.6, Leading zero omitted, Abs format (unit mm)*
G04 Created by KiCad (PCBNEW 4.0.7) date 09/21/20 19:04:58*
%MOMM*%
%LPD*%
G01*
G04 APERTURE LIST*
%ADD10C,0.100000*%
%ADD11C,0.300000*%
%ADD12C,0.200000*%
%ADD13C,0.120000*%
%ADD14C,0.150000*%
G04 APERTURE END LIST*
D10*
D11*
X132821429Y-86892857D02*
X133535714Y-86392857D01*
X132821429Y-86035714D02*
X134321429Y-86035714D01*
X134321429Y-86607142D01*
X134250000Y-86750000D01*
X134178571Y-86821428D01*
X134035714Y-86892857D01*
X133821429Y-86892857D01*
X133678571Y-86821428D01*
X133607143Y-86750000D01*
X133535714Y-86607142D01*
X133535714Y-86035714D01*
X133607143Y-87535714D02*
X133607143Y-88035714D01*
X132821429Y-88250000D02*
X132821429Y-87535714D01*
X134321429Y-87535714D01*
X134321429Y-88250000D01*
X132821429Y-88892857D02*
X134321429Y-88892857D01*
X133250000Y-89392857D01*
X134321429Y-89892857D01*
X132821429Y-89892857D01*
X134321429Y-90892857D02*
X134321429Y-91178571D01*
X134250000Y-91321429D01*
X134107143Y-91464286D01*
X133821429Y-91535714D01*
X133321429Y-91535714D01*
X133035714Y-91464286D01*
X132892857Y-91321429D01*
X132821429Y-91178571D01*
X132821429Y-90892857D01*
X132892857Y-90750000D01*
X133035714Y-90607143D01*
X133321429Y-90535714D01*
X133821429Y-90535714D01*
X134107143Y-90607143D01*
X134250000Y-90750000D01*
X134321429Y-90892857D01*
X134321429Y-91964286D02*
X134321429Y-92821429D01*
X132821429Y-92392858D02*
X134321429Y-92392858D01*
X133607143Y-93321429D02*
X133607143Y-93821429D01*
X132821429Y-94035715D02*
X132821429Y-93321429D01*
X134321429Y-93321429D01*
X134321429Y-94035715D01*
D12*
X122742857Y-112985714D02*
X122914286Y-113042857D01*
X123200000Y-113042857D01*
X123314286Y-112985714D01*
X123371429Y-112928571D01*
X123428572Y-112814286D01*
X123428572Y-112700000D01*
X123371429Y-112585714D01*
X123314286Y-112528571D01*
X123200000Y-112471429D01*
X122971429Y-112414286D01*
X122857143Y-112357143D01*
X122800000Y-112300000D01*
X122742857Y-112185714D01*
X122742857Y-112071429D01*
X122800000Y-111957143D01*
X122857143Y-111900000D01*
X122971429Y-111842857D01*
X123257143Y-111842857D01*
X123428572Y-111900000D01*
X124171429Y-111842857D02*
X124400000Y-111842857D01*
X124514286Y-111900000D01*
X124628572Y-112014286D01*
X124685714Y-112242857D01*
X124685714Y-112642857D01*
X124628572Y-112871429D01*
X124514286Y-112985714D01*
X124400000Y-113042857D01*
X124171429Y-113042857D01*
X124057143Y-112985714D01*
X123942857Y-112871429D01*
X123885714Y-112642857D01*
X123885714Y-112242857D01*
X123942857Y-112014286D01*
X124057143Y-111900000D01*
X124171429Y-111842857D01*
X125600000Y-112414286D02*
X125200000Y-112414286D01*
X125200000Y-113042857D02*
X125200000Y-111842857D01*
X125771429Y-111842857D01*
X126057143Y-111842857D02*
X126742857Y-111842857D01*
X126400000Y-113042857D02*
X126400000Y-111842857D01*
X128000000Y-112985714D02*
X128171429Y-113042857D01*
X128457143Y-113042857D01*
X128571429Y-112985714D01*
X128628572Y-112928571D01*
X128685715Y-112814286D01*
X128685715Y-112700000D01*
X128628572Y-112585714D01*
X128571429Y-112528571D01*
X128457143Y-112471429D01*
X128228572Y-112414286D01*
X128114286Y-112357143D01*
X128057143Y-112300000D01*
X128000000Y-112185714D01*
X128000000Y-112071429D01*
X128057143Y-111957143D01*
X128114286Y-111900000D01*
X128228572Y-111842857D01*
X128514286Y-111842857D01*
X128685715Y-111900000D01*
X129028572Y-111842857D02*
X129714286Y-111842857D01*
X129371429Y-113042857D02*
X129371429Y-111842857D01*
X130057143Y-112700000D02*
X130628572Y-112700000D01*
X129942858Y-113042857D02*
X130342858Y-111842857D01*
X130742858Y-113042857D01*
X131828572Y-113042857D02*
X131428572Y-112471429D01*
X131142857Y-113042857D02*
X131142857Y-111842857D01*
X131600000Y-111842857D01*
X131714286Y-111900000D01*
X131771429Y-111957143D01*
X131828572Y-112071429D01*
X131828572Y-112242857D01*
X131771429Y-112357143D01*
X131714286Y-112414286D01*
X131600000Y-112471429D01*
X131142857Y-112471429D01*
X132171429Y-111842857D02*
X132857143Y-111842857D01*
X132514286Y-113042857D02*
X132514286Y-111842857D01*
X134171429Y-113042857D02*
X134171429Y-111842857D01*
X134628572Y-111842857D01*
X134742858Y-111900000D01*
X134800001Y-111957143D01*
X134857144Y-112071429D01*
X134857144Y-112242857D01*
X134800001Y-112357143D01*
X134742858Y-112414286D01*
X134628572Y-112471429D01*
X134171429Y-112471429D01*
X136057144Y-112928571D02*
X136000001Y-112985714D01*
X135828572Y-113042857D01*
X135714286Y-113042857D01*
X135542858Y-112985714D01*
X135428572Y-112871429D01*
X135371429Y-112757143D01*
X135314286Y-112528571D01*
X135314286Y-112357143D01*
X135371429Y-112128571D01*
X135428572Y-112014286D01*
X135542858Y-111900000D01*
X135714286Y-111842857D01*
X135828572Y-111842857D01*
X136000001Y-111900000D01*
X136057144Y-111957143D01*
X136971429Y-112414286D02*
X137142858Y-112471429D01*
X137200001Y-112528571D01*
X137257144Y-112642857D01*
X137257144Y-112814286D01*
X137200001Y-112928571D01*
X137142858Y-112985714D01*
X137028572Y-113042857D01*
X136571429Y-113042857D01*
X136571429Y-111842857D01*
X136971429Y-111842857D01*
X137085715Y-111900000D01*
X137142858Y-111957143D01*
X137200001Y-112071429D01*
X137200001Y-112185714D01*
X137142858Y-112300000D01*
X137085715Y-112357143D01*
X136971429Y-112414286D01*
X136571429Y-112414286D01*
X124800000Y-114414286D02*
X124971429Y-114471429D01*
X125028572Y-114528571D01*
X125085715Y-114642857D01*
X125085715Y-114814286D01*
X125028572Y-114928571D01*
X124971429Y-114985714D01*
X124857143Y-115042857D01*
X124400000Y-115042857D01*
X124400000Y-113842857D01*
X124800000Y-113842857D01*
X124914286Y-113900000D01*
X124971429Y-113957143D01*
X125028572Y-114071429D01*
X125028572Y-114185714D01*
X124971429Y-114300000D01*
X124914286Y-114357143D01*
X124800000Y-114414286D01*
X124400000Y-114414286D01*
X125828572Y-114471429D02*
X125828572Y-115042857D01*
X125428572Y-113842857D02*
X125828572Y-114471429D01*
X126228572Y-113842857D01*
X127542857Y-115042857D02*
X127542857Y-113842857D01*
X127828572Y-113842857D01*
X128000000Y-113900000D01*
X128114286Y-114014286D01*
X128171429Y-114128571D01*
X128228572Y-114357143D01*
X128228572Y-114528571D01*
X128171429Y-114757143D01*
X128114286Y-114871429D01*
X128000000Y-114985714D01*
X127828572Y-115042857D01*
X127542857Y-115042857D01*
X128742857Y-114928571D02*
X128800000Y-114985714D01*
X128742857Y-115042857D01*
X128685714Y-114985714D01*
X128742857Y-114928571D01*
X128742857Y-115042857D01*
X130228572Y-115042857D02*
X130228572Y-113842857D01*
X130628572Y-114700000D01*
X131028572Y-113842857D01*
X131028572Y-115042857D01*
X131542858Y-114700000D02*
X132114287Y-114700000D01*
X131428573Y-115042857D02*
X131828573Y-113842857D01*
X132228573Y-115042857D01*
X133314287Y-115042857D02*
X132914287Y-114471429D01*
X132628572Y-115042857D02*
X132628572Y-113842857D01*
X133085715Y-113842857D01*
X133200001Y-113900000D01*
X133257144Y-113957143D01*
X133314287Y-114071429D01*
X133314287Y-114242857D01*
X133257144Y-114357143D01*
X133200001Y-114414286D01*
X133085715Y-114471429D01*
X132628572Y-114471429D01*
X133828572Y-115042857D02*
X133828572Y-113842857D01*
X134514287Y-115042857D02*
X134000001Y-114357143D01*
X134514287Y-113842857D02*
X133828572Y-114528571D01*
X134971429Y-114985714D02*
X135142858Y-115042857D01*
X135428572Y-115042857D01*
X135542858Y-114985714D01*
X135600001Y-114928571D01*
X135657144Y-114814286D01*
X135657144Y-114700000D01*
X135600001Y-114585714D01*
X135542858Y-114528571D01*
X135428572Y-114471429D01*
X135200001Y-114414286D01*
X135085715Y-114357143D01*
X135028572Y-114300000D01*
X134971429Y-114185714D01*
X134971429Y-114071429D01*
X135028572Y-113957143D01*
X135085715Y-113900000D01*
X135200001Y-113842857D01*
X135485715Y-113842857D01*
X135657144Y-113900000D01*
X124200001Y-116928571D02*
X124142858Y-116985714D01*
X123971429Y-117042857D01*
X123857143Y-117042857D01*
X123685715Y-116985714D01*
X123571429Y-116871429D01*
X123514286Y-116757143D01*
X123457143Y-116528571D01*
X123457143Y-116357143D01*
X123514286Y-116128571D01*
X123571429Y-116014286D01*
X123685715Y-115900000D01*
X123857143Y-115842857D01*
X123971429Y-115842857D01*
X124142858Y-115900000D01*
X124200001Y-115957143D01*
X125400001Y-116928571D02*
X125342858Y-116985714D01*
X125171429Y-117042857D01*
X125057143Y-117042857D01*
X124885715Y-116985714D01*
X124771429Y-116871429D01*
X124714286Y-116757143D01*
X124657143Y-116528571D01*
X124657143Y-116357143D01*
X124714286Y-116128571D01*
X124771429Y-116014286D01*
X124885715Y-115900000D01*
X125057143Y-115842857D01*
X125171429Y-115842857D01*
X125342858Y-115900000D01*
X125400001Y-115957143D01*
X125914286Y-116585714D02*
X126828572Y-116585714D01*
X127800000Y-116414286D02*
X127971429Y-116471429D01*
X128028572Y-116528571D01*
X128085715Y-116642857D01*
X128085715Y-116814286D01*
X128028572Y-116928571D01*
X127971429Y-116985714D01*
X127857143Y-117042857D01*
X127400000Y-117042857D01*
X127400000Y-115842857D01*
X127800000Y-115842857D01*
X127914286Y-115900000D01*
X127971429Y-115957143D01*
X128028572Y-116071429D01*
X128028572Y-116185714D01*
X127971429Y-116300000D01*
X127914286Y-116357143D01*
X127800000Y-116414286D01*
X127400000Y-116414286D01*
X128828572Y-116471429D02*
X128828572Y-117042857D01*
X128428572Y-115842857D02*
X128828572Y-116471429D01*
X129228572Y-115842857D01*
X129628571Y-116585714D02*
X130542857Y-116585714D01*
X131057142Y-116985714D02*
X131228571Y-117042857D01*
X131514285Y-117042857D01*
X131628571Y-116985714D01*
X131685714Y-116928571D01*
X131742857Y-116814286D01*
X131742857Y-116700000D01*
X131685714Y-116585714D01*
X131628571Y-116528571D01*
X131514285Y-116471429D01*
X131285714Y-116414286D01*
X131171428Y-116357143D01*
X131114285Y-116300000D01*
X131057142Y-116185714D01*
X131057142Y-116071429D01*
X131114285Y-115957143D01*
X131171428Y-115900000D01*
X131285714Y-115842857D01*
X131571428Y-115842857D01*
X131742857Y-115900000D01*
X132199999Y-116700000D02*
X132771428Y-116700000D01*
X132085714Y-117042857D02*
X132485714Y-115842857D01*
X132885714Y-117042857D01*
X134714285Y-116242857D02*
X134714285Y-117042857D01*
X134428571Y-115785714D02*
X134142856Y-116642857D01*
X134885714Y-116642857D01*
X135342856Y-116928571D02*
X135399999Y-116985714D01*
X135342856Y-117042857D01*
X135285713Y-116985714D01*
X135342856Y-116928571D01*
X135342856Y-117042857D01*
X136142857Y-115842857D02*
X136257142Y-115842857D01*
X136371428Y-115900000D01*
X136428571Y-115957143D01*
X136485714Y-116071429D01*
X136542857Y-116300000D01*
X136542857Y-116585714D01*
X136485714Y-116814286D01*
X136428571Y-116928571D01*
X136371428Y-116985714D01*
X136257142Y-117042857D01*
X136142857Y-117042857D01*
X136028571Y-116985714D01*
X135971428Y-116928571D01*
X135914285Y-116814286D01*
X135857142Y-116585714D01*
X135857142Y-116300000D01*
X135914285Y-116071429D01*
X135971428Y-115957143D01*
X136028571Y-115900000D01*
X136142857Y-115842857D01*
D11*
X197678571Y-75464286D02*
X196178571Y-75464286D01*
X196178571Y-74892858D01*
X196250000Y-74750000D01*
X196321429Y-74678572D01*
X196464286Y-74607143D01*
X196678571Y-74607143D01*
X196821429Y-74678572D01*
X196892857Y-74750000D01*
X196964286Y-74892858D01*
X196964286Y-75464286D01*
X196178571Y-73678572D02*
X196178571Y-73392858D01*
X196250000Y-73250000D01*
X196392857Y-73107143D01*
X196678571Y-73035715D01*
X197178571Y-73035715D01*
X197464286Y-73107143D01*
X197607143Y-73250000D01*
X197678571Y-73392858D01*
X197678571Y-73678572D01*
X197607143Y-73821429D01*
X197464286Y-73964286D01*
X197178571Y-74035715D01*
X196678571Y-74035715D01*
X196392857Y-73964286D01*
X196250000Y-73821429D01*
X196178571Y-73678572D01*
X197678571Y-71678571D02*
X197678571Y-72392857D01*
X196178571Y-72392857D01*
X196892857Y-71178571D02*
X196892857Y-70678571D01*
X197678571Y-70464285D02*
X197678571Y-71178571D01*
X196178571Y-71178571D01*
X196178571Y-70464285D01*
X169892857Y-69678571D02*
X170750000Y-69678571D01*
X170321429Y-71178571D02*
X170321429Y-69678571D01*
X171250000Y-71178571D02*
X171250000Y-69678571D01*
X171250000Y-70392857D02*
X172107143Y-70392857D01*
X172107143Y-71178571D02*
X172107143Y-69678571D01*
X173678572Y-71178571D02*
X173178572Y-70464286D01*
X172821429Y-71178571D02*
X172821429Y-69678571D01*
X173392857Y-69678571D01*
X173535715Y-69750000D01*
X173607143Y-69821429D01*
X173678572Y-69964286D01*
X173678572Y-70178571D01*
X173607143Y-70321429D01*
X173535715Y-70392857D01*
X173392857Y-70464286D01*
X172821429Y-70464286D01*
X174607143Y-69678571D02*
X174892857Y-69678571D01*
X175035715Y-69750000D01*
X175178572Y-69892857D01*
X175250000Y-70178571D01*
X175250000Y-70678571D01*
X175178572Y-70964286D01*
X175035715Y-71107143D01*
X174892857Y-71178571D01*
X174607143Y-71178571D01*
X174464286Y-71107143D01*
X174321429Y-70964286D01*
X174250000Y-70678571D01*
X174250000Y-70178571D01*
X174321429Y-69892857D01*
X174464286Y-69750000D01*
X174607143Y-69678571D01*
X175750001Y-69678571D02*
X176107144Y-71178571D01*
X176392858Y-70107143D01*
X176678572Y-71178571D01*
X177035715Y-69678571D01*
X167535714Y-123678571D02*
X167535714Y-122178571D01*
X168392857Y-123678571D01*
X168392857Y-122178571D01*
X169107143Y-122892857D02*
X169607143Y-122892857D01*
X169821429Y-123678571D02*
X169107143Y-123678571D01*
X169107143Y-122178571D01*
X169821429Y-122178571D01*
X170464286Y-122178571D02*
X170464286Y-123392857D01*
X170535714Y-123535714D01*
X170607143Y-123607143D01*
X170750000Y-123678571D01*
X171035714Y-123678571D01*
X171178572Y-123607143D01*
X171250000Y-123535714D01*
X171321429Y-123392857D01*
X171321429Y-122178571D01*
X171821429Y-122178571D02*
X172678572Y-122178571D01*
X172250001Y-123678571D02*
X172250001Y-122178571D01*
X174035715Y-123678571D02*
X173535715Y-122964286D01*
X173178572Y-123678571D02*
X173178572Y-122178571D01*
X173750000Y-122178571D01*
X173892858Y-122250000D01*
X173964286Y-122321429D01*
X174035715Y-122464286D01*
X174035715Y-122678571D01*
X173964286Y-122821429D01*
X173892858Y-122892857D01*
X173750000Y-122964286D01*
X173178572Y-122964286D01*
X174607143Y-123250000D02*
X175321429Y-123250000D01*
X174464286Y-123678571D02*
X174964286Y-122178571D01*
X175464286Y-123678571D01*
X176678572Y-123678571D02*
X175964286Y-123678571D01*
X175964286Y-122178571D01*
X164785715Y-71178571D02*
X164071429Y-71178571D01*
X164071429Y-69678571D01*
X165285715Y-71178571D02*
X165285715Y-69678571D01*
X165785715Y-69678571D02*
X166285715Y-71178571D01*
X166785715Y-69678571D01*
X167285715Y-70392857D02*
X167785715Y-70392857D01*
X168000001Y-71178571D02*
X167285715Y-71178571D01*
X167285715Y-69678571D01*
X168000001Y-69678571D01*
X190392857Y-122178571D02*
X190678571Y-122178571D01*
X190821429Y-122250000D01*
X190964286Y-122392857D01*
X191035714Y-122678571D01*
X191035714Y-123178571D01*
X190964286Y-123464286D01*
X190821429Y-123607143D01*
X190678571Y-123678571D01*
X190392857Y-123678571D01*
X190250000Y-123607143D01*
X190107143Y-123464286D01*
X190035714Y-123178571D01*
X190035714Y-122678571D01*
X190107143Y-122392857D01*
X190250000Y-122250000D01*
X190392857Y-122178571D01*
X191678572Y-122178571D02*
X191678572Y-123392857D01*
X191750000Y-123535714D01*
X191821429Y-123607143D01*
X191964286Y-123678571D01*
X192250000Y-123678571D01*
X192392858Y-123607143D01*
X192464286Y-123535714D01*
X192535715Y-123392857D01*
X192535715Y-122178571D01*
X193035715Y-122178571D02*
X193892858Y-122178571D01*
X193464287Y-123678571D02*
X193464287Y-122178571D01*
X194392858Y-123678571D02*
X194392858Y-122178571D01*
X194964286Y-122178571D01*
X195107144Y-122250000D01*
X195178572Y-122321429D01*
X195250001Y-122464286D01*
X195250001Y-122678571D01*
X195178572Y-122821429D01*
X195107144Y-122892857D01*
X194964286Y-122964286D01*
X194392858Y-122964286D01*
X195892858Y-122178571D02*
X195892858Y-123392857D01*
X195964286Y-123535714D01*
X196035715Y-123607143D01*
X196178572Y-123678571D01*
X196464286Y-123678571D01*
X196607144Y-123607143D01*
X196678572Y-123535714D01*
X196750001Y-123392857D01*
X196750001Y-122178571D01*
X197250001Y-122178571D02*
X198107144Y-122178571D01*
X197678573Y-123678571D02*
X197678573Y-122178571D01*
X178535714Y-123678571D02*
X178535714Y-122178571D01*
X179392857Y-123678571D01*
X179392857Y-122178571D01*
X180107143Y-122892857D02*
X180607143Y-122892857D01*
X180821429Y-123678571D02*
X180107143Y-123678571D01*
X180107143Y-122178571D01*
X180821429Y-122178571D01*
X181464286Y-122178571D02*
X181464286Y-123392857D01*
X181535714Y-123535714D01*
X181607143Y-123607143D01*
X181750000Y-123678571D01*
X182035714Y-123678571D01*
X182178572Y-123607143D01*
X182250000Y-123535714D01*
X182321429Y-123392857D01*
X182321429Y-122178571D01*
X182821429Y-122178571D02*
X183678572Y-122178571D01*
X183250001Y-123678571D02*
X183250001Y-122178571D01*
X185035715Y-123678571D02*
X184535715Y-122964286D01*
X184178572Y-123678571D02*
X184178572Y-122178571D01*
X184750000Y-122178571D01*
X184892858Y-122250000D01*
X184964286Y-122321429D01*
X185035715Y-122464286D01*
X185035715Y-122678571D01*
X184964286Y-122821429D01*
X184892858Y-122892857D01*
X184750000Y-122964286D01*
X184178572Y-122964286D01*
X185607143Y-123250000D02*
X186321429Y-123250000D01*
X185464286Y-123678571D02*
X185964286Y-122178571D01*
X186464286Y-123678571D01*
X187678572Y-123678571D02*
X186964286Y-123678571D01*
X186964286Y-122178571D01*
D13*
X189310000Y-75310000D02*
X177690000Y-75310000D01*
X189310000Y-70690000D02*
X177690000Y-70690000D01*
X189310000Y-75310000D02*
X189310000Y-73750000D01*
X189310000Y-72250000D02*
X189310000Y-70690000D01*
X177690000Y-75310000D02*
X177690000Y-73750000D01*
X177690000Y-72250000D02*
X177690000Y-70690000D01*
X163810000Y-109110000D02*
X139690000Y-109110000D01*
X163810000Y-98890000D02*
X139690000Y-98890000D01*
X163810000Y-109110000D02*
X163810000Y-105395000D01*
X163810000Y-102605000D02*
X163810000Y-98890000D01*
X139690000Y-109110000D02*
X139690000Y-105395000D01*
X139690000Y-102605000D02*
X139690000Y-98890000D01*
X150383264Y-124398437D02*
G75*
G03X150380000Y-114600643I-1383264J4898437D01*
G01*
X147616736Y-124398437D02*
G75*
G02X147620000Y-114600643I1383264J4898437D01*
G01*
X147616736Y-124398437D02*
G75*
G03X150380000Y-124399357I1383264J4898437D01*
G01*
X154050000Y-119500000D02*
X143950000Y-119500000D01*
X154050000Y-119540000D02*
X143950000Y-119540000D01*
X154050000Y-119580000D02*
X143950000Y-119580000D01*
X154049000Y-119620000D02*
X143951000Y-119620000D01*
X154048000Y-119660000D02*
X143952000Y-119660000D01*
X154047000Y-119700000D02*
X143953000Y-119700000D01*
X154045000Y-119740000D02*
X143955000Y-119740000D01*
X154043000Y-119780000D02*
X143957000Y-119780000D01*
X154040000Y-119820000D02*
X143960000Y-119820000D01*
X154038000Y-119860000D02*
X143962000Y-119860000D01*
X154035000Y-119900000D02*
X143965000Y-119900000D01*
X154031000Y-119940000D02*
X143969000Y-119940000D01*
X154028000Y-119980000D02*
X143972000Y-119980000D01*
X154024000Y-120020000D02*
X143976000Y-120020000D01*
X154020000Y-120060000D02*
X143980000Y-120060000D01*
X154015000Y-120100000D02*
X143985000Y-120100000D01*
X154010000Y-120140000D02*
X143990000Y-120140000D01*
X154005000Y-120180000D02*
X143995000Y-120180000D01*
X153999000Y-120221000D02*
X144001000Y-120221000D01*
X153993000Y-120261000D02*
X144007000Y-120261000D01*
X153987000Y-120301000D02*
X144013000Y-120301000D01*
X153981000Y-120341000D02*
X144019000Y-120341000D01*
X153974000Y-120381000D02*
X144026000Y-120381000D01*
X153967000Y-120421000D02*
X144033000Y-120421000D01*
X153959000Y-120461000D02*
X144041000Y-120461000D01*
X153951000Y-120501000D02*
X144049000Y-120501000D01*
X153943000Y-120541000D02*
X144057000Y-120541000D01*
X153935000Y-120581000D02*
X144065000Y-120581000D01*
X153926000Y-120621000D02*
X144074000Y-120621000D01*
X153917000Y-120661000D02*
X144083000Y-120661000D01*
X153907000Y-120701000D02*
X144093000Y-120701000D01*
X153897000Y-120741000D02*
X144103000Y-120741000D01*
X153887000Y-120781000D02*
X144113000Y-120781000D01*
X153876000Y-120821000D02*
X150181000Y-120821000D01*
X147819000Y-120821000D02*
X144124000Y-120821000D01*
X153865000Y-120861000D02*
X150181000Y-120861000D01*
X147819000Y-120861000D02*
X144135000Y-120861000D01*
X153854000Y-120901000D02*
X150181000Y-120901000D01*
X147819000Y-120901000D02*
X144146000Y-120901000D01*
X153843000Y-120941000D02*
X150181000Y-120941000D01*
X147819000Y-120941000D02*
X144157000Y-120941000D01*
X153831000Y-120981000D02*
X150181000Y-120981000D01*
X147819000Y-120981000D02*
X144169000Y-120981000D01*
X153818000Y-121021000D02*
X150181000Y-121021000D01*
X147819000Y-121021000D02*
X144182000Y-121021000D01*
X153806000Y-121061000D02*
X150181000Y-121061000D01*
X147819000Y-121061000D02*
X144194000Y-121061000D01*
X153792000Y-121101000D02*
X150181000Y-121101000D01*
X147819000Y-121101000D02*
X144208000Y-121101000D01*
X153779000Y-121141000D02*
X150181000Y-121141000D01*
X147819000Y-121141000D02*
X144221000Y-121141000D01*
X153765000Y-121181000D02*
X150181000Y-121181000D01*
X147819000Y-121181000D02*
X144235000Y-121181000D01*
X153751000Y-121221000D02*
X150181000Y-121221000D01*
X147819000Y-121221000D02*
X144249000Y-121221000D01*
X153737000Y-121261000D02*
X150181000Y-121261000D01*
X147819000Y-121261000D02*
X144263000Y-121261000D01*
X153722000Y-121301000D02*
X150181000Y-121301000D01*
X147819000Y-121301000D02*
X144278000Y-121301000D01*
X153706000Y-121341000D02*
X150181000Y-121341000D01*
X147819000Y-121341000D02*
X144294000Y-121341000D01*
X153691000Y-121381000D02*
X150181000Y-121381000D01*
X147819000Y-121381000D02*
X144309000Y-121381000D01*
X153674000Y-121421000D02*
X150181000Y-121421000D01*
X147819000Y-121421000D02*
X144326000Y-121421000D01*
X153658000Y-121461000D02*
X150181000Y-121461000D01*
X147819000Y-121461000D02*
X144342000Y-121461000D01*
X153641000Y-121501000D02*
X150181000Y-121501000D01*
X147819000Y-121501000D02*
X144359000Y-121501000D01*
X153624000Y-121541000D02*
X150181000Y-121541000D01*
X147819000Y-121541000D02*
X144376000Y-121541000D01*
X153606000Y-121581000D02*
X150181000Y-121581000D01*
X147819000Y-121581000D02*
X144394000Y-121581000D01*
X153588000Y-121621000D02*
X150181000Y-121621000D01*
X147819000Y-121621000D02*
X144412000Y-121621000D01*
X153569000Y-121661000D02*
X150181000Y-121661000D01*
X147819000Y-121661000D02*
X144431000Y-121661000D01*
X153550000Y-121701000D02*
X150181000Y-121701000D01*
X147819000Y-121701000D02*
X144450000Y-121701000D01*
X153531000Y-121741000D02*
X150181000Y-121741000D01*
X147819000Y-121741000D02*
X144469000Y-121741000D01*
X153511000Y-121781000D02*
X150181000Y-121781000D01*
X147819000Y-121781000D02*
X144489000Y-121781000D01*
X153491000Y-121821000D02*
X150181000Y-121821000D01*
X147819000Y-121821000D02*
X144509000Y-121821000D01*
X153470000Y-121861000D02*
X150181000Y-121861000D01*
X147819000Y-121861000D02*
X144530000Y-121861000D01*
X153449000Y-121901000D02*
X150181000Y-121901000D01*
X147819000Y-121901000D02*
X144551000Y-121901000D01*
X153428000Y-121941000D02*
X150181000Y-121941000D01*
X147819000Y-121941000D02*
X144572000Y-121941000D01*
X153405000Y-121981000D02*
X150181000Y-121981000D01*
X147819000Y-121981000D02*
X144595000Y-121981000D01*
X153383000Y-122021000D02*
X150181000Y-122021000D01*
X147819000Y-122021000D02*
X144617000Y-122021000D01*
X153360000Y-122061000D02*
X150181000Y-122061000D01*
X147819000Y-122061000D02*
X144640000Y-122061000D01*
X153336000Y-122101000D02*
X150181000Y-122101000D01*
X147819000Y-122101000D02*
X144664000Y-122101000D01*
X153312000Y-122141000D02*
X150181000Y-122141000D01*
X147819000Y-122141000D02*
X144688000Y-122141000D01*
X153288000Y-122181000D02*
X150181000Y-122181000D01*
X147819000Y-122181000D02*
X144712000Y-122181000D01*
X153263000Y-122221000D02*
X150181000Y-122221000D01*
X147819000Y-122221000D02*
X144737000Y-122221000D01*
X153237000Y-122261000D02*
X150181000Y-122261000D01*
X147819000Y-122261000D02*
X144763000Y-122261000D01*
X153211000Y-122301000D02*
X150181000Y-122301000D01*
X147819000Y-122301000D02*
X144789000Y-122301000D01*
X153185000Y-122341000D02*
X150181000Y-122341000D01*
X147819000Y-122341000D02*
X144815000Y-122341000D01*
X153157000Y-122381000D02*
X150181000Y-122381000D01*
X147819000Y-122381000D02*
X144843000Y-122381000D01*
X153130000Y-122421000D02*
X150181000Y-122421000D01*
X147819000Y-122421000D02*
X144870000Y-122421000D01*
X153101000Y-122461000D02*
X150181000Y-122461000D01*
X147819000Y-122461000D02*
X144899000Y-122461000D01*
X153072000Y-122501000D02*
X150181000Y-122501000D01*
X147819000Y-122501000D02*
X144928000Y-122501000D01*
X153043000Y-122541000D02*
X150181000Y-122541000D01*
X147819000Y-122541000D02*
X144957000Y-122541000D01*
X153013000Y-122581000D02*
X150181000Y-122581000D01*
X147819000Y-122581000D02*
X144987000Y-122581000D01*
X152982000Y-122621000D02*
X150181000Y-122621000D01*
X147819000Y-122621000D02*
X145018000Y-122621000D01*
X152951000Y-122661000D02*
X150181000Y-122661000D01*
X147819000Y-122661000D02*
X145049000Y-122661000D01*
X152919000Y-122701000D02*
X150181000Y-122701000D01*
X147819000Y-122701000D02*
X145081000Y-122701000D01*
X152886000Y-122741000D02*
X150181000Y-122741000D01*
X147819000Y-122741000D02*
X145114000Y-122741000D01*
X152853000Y-122781000D02*
X150181000Y-122781000D01*
X147819000Y-122781000D02*
X145147000Y-122781000D01*
X152819000Y-122821000D02*
X150181000Y-122821000D01*
X147819000Y-122821000D02*
X145181000Y-122821000D01*
X152784000Y-122861000D02*
X150181000Y-122861000D01*
X147819000Y-122861000D02*
X145216000Y-122861000D01*
X152748000Y-122901000D02*
X150181000Y-122901000D01*
X147819000Y-122901000D02*
X145252000Y-122901000D01*
X152712000Y-122941000D02*
X150181000Y-122941000D01*
X147819000Y-122941000D02*
X145288000Y-122941000D01*
X152675000Y-122981000D02*
X150181000Y-122981000D01*
X147819000Y-122981000D02*
X145325000Y-122981000D01*
X152637000Y-123021000D02*
X150181000Y-123021000D01*
X147819000Y-123021000D02*
X145363000Y-123021000D01*
X152598000Y-123061000D02*
X150181000Y-123061000D01*
X147819000Y-123061000D02*
X145402000Y-123061000D01*
X152559000Y-123101000D02*
X150181000Y-123101000D01*
X147819000Y-123101000D02*
X145441000Y-123101000D01*
X152518000Y-123141000D02*
X150181000Y-123141000D01*
X147819000Y-123141000D02*
X145482000Y-123141000D01*
X152477000Y-123181000D02*
X145523000Y-123181000D01*
X152435000Y-123221000D02*
X145565000Y-123221000D01*
X152391000Y-123261000D02*
X145609000Y-123261000D01*
X152347000Y-123301000D02*
X145653000Y-123301000D01*
X152302000Y-123341000D02*
X145698000Y-123341000D01*
X152255000Y-123381000D02*
X145745000Y-123381000D01*
X152207000Y-123421000D02*
X145793000Y-123421000D01*
X152158000Y-123461000D02*
X145842000Y-123461000D01*
X152108000Y-123501000D02*
X145892000Y-123501000D01*
X152057000Y-123541000D02*
X145943000Y-123541000D01*
X152004000Y-123581000D02*
X145996000Y-123581000D01*
X151949000Y-123621000D02*
X146051000Y-123621000D01*
X151894000Y-123661000D02*
X146106000Y-123661000D01*
X151836000Y-123701000D02*
X146164000Y-123701000D01*
X151777000Y-123741000D02*
X146223000Y-123741000D01*
X151715000Y-123781000D02*
X146285000Y-123781000D01*
X151652000Y-123821000D02*
X146348000Y-123821000D01*
X151587000Y-123861000D02*
X146413000Y-123861000D01*
X151519000Y-123901000D02*
X146481000Y-123901000D01*
X151449000Y-123941000D02*
X146551000Y-123941000D01*
X151377000Y-123981000D02*
X146623000Y-123981000D01*
X151301000Y-124021000D02*
X146699000Y-124021000D01*
X151222000Y-124061000D02*
X146778000Y-124061000D01*
X151140000Y-124101000D02*
X146860000Y-124101000D01*
X151053000Y-124141000D02*
X146947000Y-124141000D01*
X150962000Y-124181000D02*
X147038000Y-124181000D01*
X150866000Y-124221000D02*
X147134000Y-124221000D01*
X150763000Y-124261000D02*
X147237000Y-124261000D01*
X150654000Y-124301000D02*
X147346000Y-124301000D01*
X150536000Y-124341000D02*
X147464000Y-124341000D01*
X150407000Y-124381000D02*
X147593000Y-124381000D01*
X150265000Y-124421000D02*
X147735000Y-124421000D01*
X150104000Y-124461000D02*
X147896000Y-124461000D01*
X149913000Y-124501000D02*
X148087000Y-124501000D01*
X149672000Y-124541000D02*
X148328000Y-124541000D01*
X149279000Y-124581000D02*
X148721000Y-124581000D01*
X149000000Y-114300000D02*
X149000000Y-115800000D01*
X149750000Y-115050000D02*
X148250000Y-115050000D01*
X130720000Y-108850000D02*
X130590000Y-108850000D01*
X130590000Y-108850000D02*
X130590000Y-103530000D01*
X130590000Y-103530000D02*
X130720000Y-103530000D01*
X133280000Y-108850000D02*
X133410000Y-108850000D01*
X133410000Y-108850000D02*
X133410000Y-103530000D01*
X133410000Y-103530000D02*
X133280000Y-103530000D01*
X130590000Y-108010000D02*
X133410000Y-108010000D01*
X163280000Y-115150000D02*
X163410000Y-115150000D01*
X163410000Y-115150000D02*
X163410000Y-120470000D01*
X163410000Y-120470000D02*
X163280000Y-120470000D01*
X160720000Y-115150000D02*
X160590000Y-115150000D01*
X160590000Y-115150000D02*
X160590000Y-120470000D01*
X160590000Y-120470000D02*
X160720000Y-120470000D01*
X163410000Y-115990000D02*
X160590000Y-115990000D01*
X134720000Y-108850000D02*
X134590000Y-108850000D01*
X134590000Y-108850000D02*
X134590000Y-103530000D01*
X134590000Y-103530000D02*
X134720000Y-103530000D01*
X137280000Y-108850000D02*
X137410000Y-108850000D01*
X137410000Y-108850000D02*
X137410000Y-103530000D01*
X137410000Y-103530000D02*
X137280000Y-103530000D01*
X134590000Y-108010000D02*
X137410000Y-108010000D01*
X159280000Y-115150000D02*
X159410000Y-115150000D01*
X159410000Y-115150000D02*
X159410000Y-120470000D01*
X159410000Y-120470000D02*
X159280000Y-120470000D01*
X156720000Y-115150000D02*
X156590000Y-115150000D01*
X156590000Y-115150000D02*
X156590000Y-120470000D01*
X156590000Y-120470000D02*
X156720000Y-120470000D01*
X159410000Y-115990000D02*
X156590000Y-115990000D01*
X129280000Y-103150000D02*
X129410000Y-103150000D01*
X129410000Y-103150000D02*
X129410000Y-108470000D01*
X129410000Y-108470000D02*
X129280000Y-108470000D01*
X126720000Y-103150000D02*
X126590000Y-103150000D01*
X126590000Y-103150000D02*
X126590000Y-108470000D01*
X126590000Y-108470000D02*
X126720000Y-108470000D01*
X129410000Y-103990000D02*
X126590000Y-103990000D01*
X141078608Y-121942335D02*
G75*
G03X141235516Y-118710000I-1078608J1672335D01*
G01*
X138921392Y-121942335D02*
G75*
G02X138764484Y-118710000I1078608J1672335D01*
G01*
X141079837Y-121311130D02*
G75*
G03X141080000Y-119229039I-1079837J1041130D01*
G01*
X138920163Y-121311130D02*
G75*
G02X138920000Y-119229039I1079837J1041130D01*
G01*
X141236000Y-118710000D02*
X141080000Y-118710000D01*
X138920000Y-118710000D02*
X138764000Y-118710000D01*
X168286000Y-74500000D02*
G75*
G03X168286000Y-74500000I-2286000J0D01*
G01*
X174286000Y-119000000D02*
G75*
G03X174286000Y-119000000I-2286000J0D01*
G01*
X175786000Y-74500000D02*
G75*
G03X175786000Y-74500000I-2286000J0D01*
G01*
X195286000Y-73000000D02*
G75*
G03X195286000Y-73000000I-2286000J0D01*
G01*
X185286000Y-119000000D02*
G75*
G03X185286000Y-119000000I-2286000J0D01*
G01*
X196786000Y-119000000D02*
G75*
G03X196786000Y-119000000I-2286000J0D01*
G01*
X143140000Y-87620000D02*
X143140000Y-85740000D01*
X143140000Y-85740000D02*
X163260000Y-85740000D01*
X163260000Y-85740000D02*
X163260000Y-87620000D01*
X143140000Y-90380000D02*
X143140000Y-92260000D01*
X143140000Y-92260000D02*
X163260000Y-92260000D01*
X163260000Y-92260000D02*
X163260000Y-90380000D01*
X123020000Y-108400000D02*
X122690000Y-108400000D01*
X122690000Y-108400000D02*
X122690000Y-101980000D01*
X122690000Y-101980000D02*
X123020000Y-101980000D01*
X124980000Y-108400000D02*
X125310000Y-108400000D01*
X125310000Y-108400000D02*
X125310000Y-101980000D01*
X125310000Y-101980000D02*
X124980000Y-101980000D01*
X184140000Y-85620000D02*
X184140000Y-83740000D01*
X184140000Y-83740000D02*
X204260000Y-83740000D01*
X204260000Y-83740000D02*
X204260000Y-85620000D01*
X184140000Y-88380000D02*
X184140000Y-90260000D01*
X184140000Y-90260000D02*
X204260000Y-90260000D01*
X204260000Y-90260000D02*
X204260000Y-88380000D01*
X184140000Y-109620000D02*
X184140000Y-107740000D01*
X184140000Y-107740000D02*
X204260000Y-107740000D01*
X204260000Y-107740000D02*
X204260000Y-109620000D01*
X184140000Y-112380000D02*
X184140000Y-114260000D01*
X184140000Y-114260000D02*
X204260000Y-114260000D01*
X204260000Y-114260000D02*
X204260000Y-112380000D01*
X184140000Y-101620000D02*
X184140000Y-99740000D01*
X184140000Y-99740000D02*
X204260000Y-99740000D01*
X204260000Y-99740000D02*
X204260000Y-101620000D01*
X184140000Y-104380000D02*
X184140000Y-106260000D01*
X184140000Y-106260000D02*
X204260000Y-106260000D01*
X204260000Y-106260000D02*
X204260000Y-104380000D01*
X184140000Y-93620000D02*
X184140000Y-91740000D01*
X184140000Y-91740000D02*
X204260000Y-91740000D01*
X204260000Y-91740000D02*
X204260000Y-93620000D01*
X184140000Y-96380000D02*
X184140000Y-98260000D01*
X184140000Y-98260000D02*
X204260000Y-98260000D01*
X204260000Y-98260000D02*
X204260000Y-96380000D01*
D12*
X167000000Y-115000000D02*
X167000000Y-86000000D01*
X167000000Y-86000000D02*
X179000000Y-86000000D01*
X179000000Y-86000000D02*
X179000000Y-115000000D01*
X179000000Y-115000000D02*
X167000000Y-115000000D01*
X173000000Y-93094000D02*
X173000000Y-92205000D01*
X173000000Y-92205000D02*
X174905000Y-88903000D01*
X177699000Y-97920000D02*
X178207000Y-97920000D01*
X178207000Y-97920000D02*
X178207000Y-90554000D01*
X178207000Y-90554000D02*
X178207000Y-90300000D01*
X178207000Y-90300000D02*
X174524000Y-90300000D01*
X169190000Y-88903000D02*
X169190000Y-90427000D01*
X169190000Y-90427000D02*
X171222000Y-90427000D01*
X175921000Y-88014000D02*
X170079000Y-88014000D01*
X170079000Y-92967000D02*
X176048000Y-92967000D01*
X170079000Y-97920000D02*
X175921000Y-97920000D01*
X173889000Y-110239000D02*
X176810000Y-110239000D01*
X176810000Y-110239000D02*
X176810000Y-112271000D01*
X168936000Y-112017000D02*
X168936000Y-110239000D01*
X168936000Y-110239000D02*
X171603000Y-110239000D01*
X171603000Y-110239000D02*
X171603000Y-111382000D01*
X171603000Y-111382000D02*
X173762000Y-111382000D01*
X173762000Y-111382000D02*
X173762000Y-109096000D01*
X173762000Y-109096000D02*
X171603000Y-109096000D01*
X171603000Y-109096000D02*
X171603000Y-110112000D01*
D13*
X206286000Y-121000000D02*
G75*
G03X206286000Y-121000000I-2286000J0D01*
G01*
X206286000Y-73000000D02*
G75*
G03X206286000Y-73000000I-2286000J0D01*
G01*
X126286000Y-73000000D02*
G75*
G03X126286000Y-73000000I-2286000J0D01*
G01*
X126286000Y-121000000D02*
G75*
G03X126286000Y-121000000I-2286000J0D01*
G01*
X149400000Y-112980000D02*
X149400000Y-113310000D01*
X149400000Y-113310000D02*
X142980000Y-113310000D01*
X142980000Y-113310000D02*
X142980000Y-112980000D01*
X149400000Y-111020000D02*
X149400000Y-110690000D01*
X149400000Y-110690000D02*
X142980000Y-110690000D01*
X142980000Y-110690000D02*
X142980000Y-111020000D01*
X128850000Y-93280000D02*
X128850000Y-93410000D01*
X128850000Y-93410000D02*
X123530000Y-93410000D01*
X123530000Y-93410000D02*
X123530000Y-93280000D01*
X128850000Y-90720000D02*
X128850000Y-90590000D01*
X128850000Y-90590000D02*
X123530000Y-90590000D01*
X123530000Y-90590000D02*
X123530000Y-90720000D01*
X128010000Y-93410000D02*
X128010000Y-90590000D01*
X128850000Y-97280000D02*
X128850000Y-97410000D01*
X128850000Y-97410000D02*
X123530000Y-97410000D01*
X123530000Y-97410000D02*
X123530000Y-97280000D01*
X128850000Y-94720000D02*
X128850000Y-94590000D01*
X128850000Y-94590000D02*
X123530000Y-94590000D01*
X123530000Y-94590000D02*
X123530000Y-94720000D01*
X128010000Y-97410000D02*
X128010000Y-94590000D01*
X127540000Y-79380000D02*
X127540000Y-89540000D01*
X128810000Y-79380000D02*
X121190000Y-79380000D01*
X121190000Y-79380000D02*
X121190000Y-89540000D01*
X121190000Y-89540000D02*
X128810000Y-89540000D01*
X128810000Y-89540000D02*
X128810000Y-79380000D01*
D12*
X131000000Y-72000000D02*
X160000000Y-72000000D01*
X160000000Y-72000000D02*
X160000000Y-84000000D01*
X160000000Y-84000000D02*
X131000000Y-84000000D01*
X131000000Y-84000000D02*
X131000000Y-72000000D01*
X152906000Y-78000000D02*
X153795000Y-78000000D01*
X153795000Y-78000000D02*
X157097000Y-79905000D01*
X148080000Y-82699000D02*
X148080000Y-83207000D01*
X148080000Y-83207000D02*
X155446000Y-83207000D01*
X155446000Y-83207000D02*
X155700000Y-83207000D01*
X155700000Y-83207000D02*
X155700000Y-79524000D01*
X157097000Y-74190000D02*
X155573000Y-74190000D01*
X155573000Y-74190000D02*
X155573000Y-76222000D01*
X157986000Y-80921000D02*
X157986000Y-75079000D01*
X153033000Y-75079000D02*
X153033000Y-81048000D01*
X148080000Y-75079000D02*
X148080000Y-80921000D01*
X135761000Y-78889000D02*
X135761000Y-81810000D01*
X135761000Y-81810000D02*
X133729000Y-81810000D01*
X133983000Y-73936000D02*
X135761000Y-73936000D01*
X135761000Y-73936000D02*
X135761000Y-76603000D01*
X135761000Y-76603000D02*
X134618000Y-76603000D01*
X134618000Y-76603000D02*
X134618000Y-78762000D01*
X134618000Y-78762000D02*
X136904000Y-78762000D01*
X136904000Y-78762000D02*
X136904000Y-76603000D01*
X136904000Y-76603000D02*
X135888000Y-76603000D01*
D14*
X183333334Y-73357143D02*
X183285715Y-73404762D01*
X183142858Y-73452381D01*
X183047620Y-73452381D01*
X182904762Y-73404762D01*
X182809524Y-73309524D01*
X182761905Y-73214286D01*
X182714286Y-73023810D01*
X182714286Y-72880952D01*
X182761905Y-72690476D01*
X182809524Y-72595238D01*
X182904762Y-72500000D01*
X183047620Y-72452381D01*
X183142858Y-72452381D01*
X183285715Y-72500000D01*
X183333334Y-72547619D01*
X184285715Y-73452381D02*
X183714286Y-73452381D01*
X184000000Y-73452381D02*
X184000000Y-72452381D01*
X183904762Y-72595238D01*
X183809524Y-72690476D01*
X183714286Y-72738095D01*
X151833334Y-104357143D02*
X151785715Y-104404762D01*
X151642858Y-104452381D01*
X151547620Y-104452381D01*
X151404762Y-104404762D01*
X151309524Y-104309524D01*
X151261905Y-104214286D01*
X151214286Y-104023810D01*
X151214286Y-103880952D01*
X151261905Y-103690476D01*
X151309524Y-103595238D01*
X151404762Y-103500000D01*
X151547620Y-103452381D01*
X151642858Y-103452381D01*
X151785715Y-103500000D01*
X151833334Y-103547619D01*
X152214286Y-103547619D02*
X152261905Y-103500000D01*
X152357143Y-103452381D01*
X152595239Y-103452381D01*
X152690477Y-103500000D01*
X152738096Y-103547619D01*
X152785715Y-103642857D01*
X152785715Y-103738095D01*
X152738096Y-103880952D01*
X152166667Y-104452381D01*
X152785715Y-104452381D01*
X152357143Y-117916666D02*
X152404762Y-117964285D01*
X152452381Y-118107142D01*
X152452381Y-118202380D01*
X152404762Y-118345238D01*
X152309524Y-118440476D01*
X152214286Y-118488095D01*
X152023810Y-118535714D01*
X151880952Y-118535714D01*
X151690476Y-118488095D01*
X151595238Y-118440476D01*
X151500000Y-118345238D01*
X151452381Y-118202380D01*
X151452381Y-118107142D01*
X151500000Y-117964285D01*
X151547619Y-117916666D01*
X151452381Y-117583333D02*
X151452381Y-116964285D01*
X151833333Y-117297619D01*
X151833333Y-117154761D01*
X151880952Y-117059523D01*
X151928571Y-117011904D01*
X152023810Y-116964285D01*
X152261905Y-116964285D01*
X152357143Y-117011904D01*
X152404762Y-117059523D01*
X152452381Y-117154761D01*
X152452381Y-117440476D01*
X152404762Y-117535714D01*
X152357143Y-117583333D01*
X132452381Y-106988095D02*
X131452381Y-106988095D01*
X131452381Y-106750000D01*
X131500000Y-106607142D01*
X131595238Y-106511904D01*
X131690476Y-106464285D01*
X131880952Y-106416666D01*
X132023810Y-106416666D01*
X132214286Y-106464285D01*
X132309524Y-106511904D01*
X132404762Y-106607142D01*
X132452381Y-106750000D01*
X132452381Y-106988095D01*
X132452381Y-105464285D02*
X132452381Y-106035714D01*
X132452381Y-105750000D02*
X131452381Y-105750000D01*
X131595238Y-105845238D01*
X131690476Y-105940476D01*
X131738095Y-106035714D01*
X162452381Y-118488095D02*
X161452381Y-118488095D01*
X161452381Y-118250000D01*
X161500000Y-118107142D01*
X161595238Y-118011904D01*
X161690476Y-117964285D01*
X161880952Y-117916666D01*
X162023810Y-117916666D01*
X162214286Y-117964285D01*
X162309524Y-118011904D01*
X162404762Y-118107142D01*
X162452381Y-118250000D01*
X162452381Y-118488095D01*
X161547619Y-117535714D02*
X161500000Y-117488095D01*
X161452381Y-117392857D01*
X161452381Y-117154761D01*
X161500000Y-117059523D01*
X161547619Y-117011904D01*
X161642857Y-116964285D01*
X161738095Y-116964285D01*
X161880952Y-117011904D01*
X162452381Y-117583333D01*
X162452381Y-116964285D01*
X136452381Y-106988095D02*
X135452381Y-106988095D01*
X135452381Y-106750000D01*
X135500000Y-106607142D01*
X135595238Y-106511904D01*
X135690476Y-106464285D01*
X135880952Y-106416666D01*
X136023810Y-106416666D01*
X136214286Y-106464285D01*
X136309524Y-106511904D01*
X136404762Y-106607142D01*
X136452381Y-106750000D01*
X136452381Y-106988095D01*
X135452381Y-106083333D02*
X135452381Y-105464285D01*
X135833333Y-105797619D01*
X135833333Y-105654761D01*
X135880952Y-105559523D01*
X135928571Y-105511904D01*
X136023810Y-105464285D01*
X136261905Y-105464285D01*
X136357143Y-105511904D01*
X136404762Y-105559523D01*
X136452381Y-105654761D01*
X136452381Y-105940476D01*
X136404762Y-106035714D01*
X136357143Y-106083333D01*
X158452381Y-118488095D02*
X157452381Y-118488095D01*
X157452381Y-118250000D01*
X157500000Y-118107142D01*
X157595238Y-118011904D01*
X157690476Y-117964285D01*
X157880952Y-117916666D01*
X158023810Y-117916666D01*
X158214286Y-117964285D01*
X158309524Y-118011904D01*
X158404762Y-118107142D01*
X158452381Y-118250000D01*
X158452381Y-118488095D01*
X157785714Y-117059523D02*
X158452381Y-117059523D01*
X157404762Y-117297619D02*
X158119048Y-117535714D01*
X158119048Y-116916666D01*
X128452381Y-106488095D02*
X127452381Y-106488095D01*
X127452381Y-106250000D01*
X127500000Y-106107142D01*
X127595238Y-106011904D01*
X127690476Y-105964285D01*
X127880952Y-105916666D01*
X128023810Y-105916666D01*
X128214286Y-105964285D01*
X128309524Y-106011904D01*
X128404762Y-106107142D01*
X128452381Y-106250000D01*
X128452381Y-106488095D01*
X127452381Y-105011904D02*
X127452381Y-105488095D01*
X127928571Y-105535714D01*
X127880952Y-105488095D01*
X127833333Y-105392857D01*
X127833333Y-105154761D01*
X127880952Y-105059523D01*
X127928571Y-105011904D01*
X128023810Y-104964285D01*
X128261905Y-104964285D01*
X128357143Y-105011904D01*
X128404762Y-105059523D01*
X128452381Y-105154761D01*
X128452381Y-105392857D01*
X128404762Y-105488095D01*
X128357143Y-105535714D01*
X139261905Y-117452381D02*
X139261905Y-116452381D01*
X139500000Y-116452381D01*
X139642858Y-116500000D01*
X139738096Y-116595238D01*
X139785715Y-116690476D01*
X139833334Y-116880952D01*
X139833334Y-117023810D01*
X139785715Y-117214286D01*
X139738096Y-117309524D01*
X139642858Y-117404762D01*
X139500000Y-117452381D01*
X139261905Y-117452381D01*
X140690477Y-116452381D02*
X140500000Y-116452381D01*
X140404762Y-116500000D01*
X140357143Y-116547619D01*
X140261905Y-116690476D01*
X140214286Y-116880952D01*
X140214286Y-117261905D01*
X140261905Y-117357143D01*
X140309524Y-117404762D01*
X140404762Y-117452381D01*
X140595239Y-117452381D01*
X140690477Y-117404762D01*
X140738096Y-117357143D01*
X140785715Y-117261905D01*
X140785715Y-117023810D01*
X140738096Y-116928571D01*
X140690477Y-116880952D01*
X140595239Y-116833333D01*
X140404762Y-116833333D01*
X140309524Y-116880952D01*
X140261905Y-116928571D01*
X140214286Y-117023810D01*
X165666667Y-78452381D02*
X165666667Y-79166667D01*
X165619047Y-79309524D01*
X165523809Y-79404762D01*
X165380952Y-79452381D01*
X165285714Y-79452381D01*
X166666667Y-79452381D02*
X166095238Y-79452381D01*
X166380952Y-79452381D02*
X166380952Y-78452381D01*
X166285714Y-78595238D01*
X166190476Y-78690476D01*
X166095238Y-78738095D01*
X171666667Y-115404381D02*
X171666667Y-116118667D01*
X171619047Y-116261524D01*
X171523809Y-116356762D01*
X171380952Y-116404381D01*
X171285714Y-116404381D01*
X172095238Y-115499619D02*
X172142857Y-115452000D01*
X172238095Y-115404381D01*
X172476191Y-115404381D01*
X172571429Y-115452000D01*
X172619048Y-115499619D01*
X172666667Y-115594857D01*
X172666667Y-115690095D01*
X172619048Y-115832952D01*
X172047619Y-116404381D01*
X172666667Y-116404381D01*
X173166667Y-78452381D02*
X173166667Y-79166667D01*
X173119047Y-79309524D01*
X173023809Y-79404762D01*
X172880952Y-79452381D01*
X172785714Y-79452381D01*
X173547619Y-78452381D02*
X174166667Y-78452381D01*
X173833333Y-78833333D01*
X173976191Y-78833333D01*
X174071429Y-78880952D01*
X174119048Y-78928571D01*
X174166667Y-79023810D01*
X174166667Y-79261905D01*
X174119048Y-79357143D01*
X174071429Y-79404762D01*
X173976191Y-79452381D01*
X173690476Y-79452381D01*
X173595238Y-79404762D01*
X173547619Y-79357143D01*
X192666667Y-75952381D02*
X192666667Y-76666667D01*
X192619047Y-76809524D01*
X192523809Y-76904762D01*
X192380952Y-76952381D01*
X192285714Y-76952381D01*
X193571429Y-76285714D02*
X193571429Y-76952381D01*
X193333333Y-75904762D02*
X193095238Y-76619048D01*
X193714286Y-76619048D01*
X182666667Y-115404381D02*
X182666667Y-116118667D01*
X182619047Y-116261524D01*
X182523809Y-116356762D01*
X182380952Y-116404381D01*
X182285714Y-116404381D01*
X183619048Y-115404381D02*
X183142857Y-115404381D01*
X183095238Y-115880571D01*
X183142857Y-115832952D01*
X183238095Y-115785333D01*
X183476191Y-115785333D01*
X183571429Y-115832952D01*
X183619048Y-115880571D01*
X183666667Y-115975810D01*
X183666667Y-116213905D01*
X183619048Y-116309143D01*
X183571429Y-116356762D01*
X183476191Y-116404381D01*
X183238095Y-116404381D01*
X183142857Y-116356762D01*
X183095238Y-116309143D01*
X194166667Y-115404381D02*
X194166667Y-116118667D01*
X194119047Y-116261524D01*
X194023809Y-116356762D01*
X193880952Y-116404381D01*
X193785714Y-116404381D01*
X195071429Y-115404381D02*
X194880952Y-115404381D01*
X194785714Y-115452000D01*
X194738095Y-115499619D01*
X194642857Y-115642476D01*
X194595238Y-115832952D01*
X194595238Y-116213905D01*
X194642857Y-116309143D01*
X194690476Y-116356762D01*
X194785714Y-116404381D01*
X194976191Y-116404381D01*
X195071429Y-116356762D01*
X195119048Y-116309143D01*
X195166667Y-116213905D01*
X195166667Y-115975810D01*
X195119048Y-115880571D01*
X195071429Y-115832952D01*
X194976191Y-115785333D01*
X194785714Y-115785333D01*
X194690476Y-115832952D01*
X194642857Y-115880571D01*
X194595238Y-115975810D01*
X153083334Y-89452381D02*
X152750000Y-88976190D01*
X152511905Y-89452381D02*
X152511905Y-88452381D01*
X152892858Y-88452381D01*
X152988096Y-88500000D01*
X153035715Y-88547619D01*
X153083334Y-88642857D01*
X153083334Y-88785714D01*
X153035715Y-88880952D01*
X152988096Y-88928571D01*
X152892858Y-88976190D01*
X152511905Y-88976190D01*
X154035715Y-89452381D02*
X153464286Y-89452381D01*
X153750000Y-89452381D02*
X153750000Y-88452381D01*
X153654762Y-88595238D01*
X153559524Y-88690476D01*
X153464286Y-88738095D01*
X124452381Y-105416666D02*
X123976190Y-105750000D01*
X124452381Y-105988095D02*
X123452381Y-105988095D01*
X123452381Y-105607142D01*
X123500000Y-105511904D01*
X123547619Y-105464285D01*
X123642857Y-105416666D01*
X123785714Y-105416666D01*
X123880952Y-105464285D01*
X123928571Y-105511904D01*
X123976190Y-105607142D01*
X123976190Y-105988095D01*
X123547619Y-105035714D02*
X123500000Y-104988095D01*
X123452381Y-104892857D01*
X123452381Y-104654761D01*
X123500000Y-104559523D01*
X123547619Y-104511904D01*
X123642857Y-104464285D01*
X123738095Y-104464285D01*
X123880952Y-104511904D01*
X124452381Y-105083333D01*
X124452381Y-104464285D01*
X193833334Y-87202381D02*
X193500000Y-86726190D01*
X193261905Y-87202381D02*
X193261905Y-86202381D01*
X193642858Y-86202381D01*
X193738096Y-86250000D01*
X193785715Y-86297619D01*
X193833334Y-86392857D01*
X193833334Y-86535714D01*
X193785715Y-86630952D01*
X193738096Y-86678571D01*
X193642858Y-86726190D01*
X193261905Y-86726190D01*
X194166667Y-86202381D02*
X194785715Y-86202381D01*
X194452381Y-86583333D01*
X194595239Y-86583333D01*
X194690477Y-86630952D01*
X194738096Y-86678571D01*
X194785715Y-86773810D01*
X194785715Y-87011905D01*
X194738096Y-87107143D01*
X194690477Y-87154762D01*
X194595239Y-87202381D01*
X194309524Y-87202381D01*
X194214286Y-87154762D01*
X194166667Y-87107143D01*
X194083334Y-111202381D02*
X193750000Y-110726190D01*
X193511905Y-111202381D02*
X193511905Y-110202381D01*
X193892858Y-110202381D01*
X193988096Y-110250000D01*
X194035715Y-110297619D01*
X194083334Y-110392857D01*
X194083334Y-110535714D01*
X194035715Y-110630952D01*
X193988096Y-110678571D01*
X193892858Y-110726190D01*
X193511905Y-110726190D01*
X194940477Y-110535714D02*
X194940477Y-111202381D01*
X194702381Y-110154762D02*
X194464286Y-110869048D01*
X195083334Y-110869048D01*
X194083334Y-103452381D02*
X193750000Y-102976190D01*
X193511905Y-103452381D02*
X193511905Y-102452381D01*
X193892858Y-102452381D01*
X193988096Y-102500000D01*
X194035715Y-102547619D01*
X194083334Y-102642857D01*
X194083334Y-102785714D01*
X194035715Y-102880952D01*
X193988096Y-102928571D01*
X193892858Y-102976190D01*
X193511905Y-102976190D01*
X194988096Y-102452381D02*
X194511905Y-102452381D01*
X194464286Y-102928571D01*
X194511905Y-102880952D01*
X194607143Y-102833333D01*
X194845239Y-102833333D01*
X194940477Y-102880952D01*
X194988096Y-102928571D01*
X195035715Y-103023810D01*
X195035715Y-103261905D01*
X194988096Y-103357143D01*
X194940477Y-103404762D01*
X194845239Y-103452381D01*
X194607143Y-103452381D01*
X194511905Y-103404762D01*
X194464286Y-103357143D01*
X194083334Y-95452381D02*
X193750000Y-94976190D01*
X193511905Y-95452381D02*
X193511905Y-94452381D01*
X193892858Y-94452381D01*
X193988096Y-94500000D01*
X194035715Y-94547619D01*
X194083334Y-94642857D01*
X194083334Y-94785714D01*
X194035715Y-94880952D01*
X193988096Y-94928571D01*
X193892858Y-94976190D01*
X193511905Y-94976190D01*
X194940477Y-94452381D02*
X194750000Y-94452381D01*
X194654762Y-94500000D01*
X194607143Y-94547619D01*
X194511905Y-94690476D01*
X194464286Y-94880952D01*
X194464286Y-95261905D01*
X194511905Y-95357143D01*
X194559524Y-95404762D01*
X194654762Y-95452381D01*
X194845239Y-95452381D01*
X194940477Y-95404762D01*
X194988096Y-95357143D01*
X195035715Y-95261905D01*
X195035715Y-95023810D01*
X194988096Y-94928571D01*
X194940477Y-94880952D01*
X194845239Y-94833333D01*
X194654762Y-94833333D01*
X194559524Y-94880952D01*
X194511905Y-94928571D01*
X194464286Y-95023810D01*
X174849381Y-104381000D02*
X174373190Y-104714334D01*
X174849381Y-104952429D02*
X173849381Y-104952429D01*
X173849381Y-104571476D01*
X173897000Y-104476238D01*
X173944619Y-104428619D01*
X174039857Y-104381000D01*
X174182714Y-104381000D01*
X174277952Y-104428619D01*
X174325571Y-104476238D01*
X174373190Y-104571476D01*
X174373190Y-104952429D01*
X174849381Y-103476238D02*
X174849381Y-103952429D01*
X173849381Y-103952429D01*
X174373190Y-102952429D02*
X174849381Y-102952429D01*
X173849381Y-103285762D02*
X174373190Y-102952429D01*
X173849381Y-102619095D01*
X174849381Y-101761952D02*
X174849381Y-102333381D01*
X174849381Y-102047667D02*
X173849381Y-102047667D01*
X173992238Y-102142905D01*
X174087476Y-102238143D01*
X174135095Y-102333381D01*
X172134762Y-107150857D02*
X172182381Y-107008000D01*
X172182381Y-106769904D01*
X172134762Y-106674666D01*
X172087143Y-106627047D01*
X171991905Y-106579428D01*
X171896667Y-106579428D01*
X171801429Y-106627047D01*
X171753810Y-106674666D01*
X171706190Y-106769904D01*
X171658571Y-106960381D01*
X171610952Y-107055619D01*
X171563333Y-107103238D01*
X171468095Y-107150857D01*
X171372857Y-107150857D01*
X171277619Y-107103238D01*
X171230000Y-107055619D01*
X171182381Y-106960381D01*
X171182381Y-106722285D01*
X171230000Y-106579428D01*
X172182381Y-106150857D02*
X171182381Y-106150857D01*
X171896667Y-105817523D01*
X171182381Y-105484190D01*
X172182381Y-105484190D01*
X172182381Y-105008000D02*
X171182381Y-105008000D01*
X172182381Y-104531810D02*
X171182381Y-104531810D01*
X171658571Y-104531810D02*
X171658571Y-103960381D01*
X172182381Y-103960381D02*
X171182381Y-103960381D01*
X172182381Y-102912762D02*
X171706190Y-103246096D01*
X172182381Y-103484191D02*
X171182381Y-103484191D01*
X171182381Y-103103238D01*
X171230000Y-103008000D01*
X171277619Y-102960381D01*
X171372857Y-102912762D01*
X171515714Y-102912762D01*
X171610952Y-102960381D01*
X171658571Y-103008000D01*
X171706190Y-103103238D01*
X171706190Y-103484191D01*
X172134762Y-102103238D02*
X172182381Y-102198476D01*
X172182381Y-102388953D01*
X172134762Y-102484191D01*
X172039524Y-102531810D01*
X171658571Y-102531810D01*
X171563333Y-102484191D01*
X171515714Y-102388953D01*
X171515714Y-102198476D01*
X171563333Y-102103238D01*
X171658571Y-102055619D01*
X171753810Y-102055619D01*
X171849048Y-102531810D01*
X172182381Y-101484191D02*
X172134762Y-101579429D01*
X172039524Y-101627048D01*
X171182381Y-101627048D01*
X172182381Y-100674666D02*
X171658571Y-100674666D01*
X171563333Y-100722285D01*
X171515714Y-100817523D01*
X171515714Y-101008000D01*
X171563333Y-101103238D01*
X172134762Y-100674666D02*
X172182381Y-100769904D01*
X172182381Y-101008000D01*
X172134762Y-101103238D01*
X172039524Y-101150857D01*
X171944286Y-101150857D01*
X171849048Y-101103238D01*
X171801429Y-101008000D01*
X171801429Y-100769904D01*
X171753810Y-100674666D01*
X171515714Y-100293714D02*
X172182381Y-100055619D01*
X171515714Y-99817523D02*
X172182381Y-100055619D01*
X172420476Y-100150857D01*
X172468095Y-100198476D01*
X172515714Y-100293714D01*
X203666667Y-117404381D02*
X203666667Y-118118667D01*
X203619047Y-118261524D01*
X203523809Y-118356762D01*
X203380952Y-118404381D01*
X203285714Y-118404381D01*
X204047619Y-117404381D02*
X204714286Y-117404381D01*
X204285714Y-118404381D01*
X203666667Y-69404381D02*
X203666667Y-70118667D01*
X203619047Y-70261524D01*
X203523809Y-70356762D01*
X203380952Y-70404381D01*
X203285714Y-70404381D01*
X204285714Y-69832952D02*
X204190476Y-69785333D01*
X204142857Y-69737714D01*
X204095238Y-69642476D01*
X204095238Y-69594857D01*
X204142857Y-69499619D01*
X204190476Y-69452000D01*
X204285714Y-69404381D01*
X204476191Y-69404381D01*
X204571429Y-69452000D01*
X204619048Y-69499619D01*
X204666667Y-69594857D01*
X204666667Y-69642476D01*
X204619048Y-69737714D01*
X204571429Y-69785333D01*
X204476191Y-69832952D01*
X204285714Y-69832952D01*
X204190476Y-69880571D01*
X204142857Y-69928190D01*
X204095238Y-70023429D01*
X204095238Y-70213905D01*
X204142857Y-70309143D01*
X204190476Y-70356762D01*
X204285714Y-70404381D01*
X204476191Y-70404381D01*
X204571429Y-70356762D01*
X204619048Y-70309143D01*
X204666667Y-70213905D01*
X204666667Y-70023429D01*
X204619048Y-69928190D01*
X204571429Y-69880571D01*
X204476191Y-69832952D01*
X123666667Y-69404381D02*
X123666667Y-70118667D01*
X123619047Y-70261524D01*
X123523809Y-70356762D01*
X123380952Y-70404381D01*
X123285714Y-70404381D01*
X124190476Y-70404381D02*
X124380952Y-70404381D01*
X124476191Y-70356762D01*
X124523810Y-70309143D01*
X124619048Y-70166286D01*
X124666667Y-69975810D01*
X124666667Y-69594857D01*
X124619048Y-69499619D01*
X124571429Y-69452000D01*
X124476191Y-69404381D01*
X124285714Y-69404381D01*
X124190476Y-69452000D01*
X124142857Y-69499619D01*
X124095238Y-69594857D01*
X124095238Y-69832952D01*
X124142857Y-69928190D01*
X124190476Y-69975810D01*
X124285714Y-70023429D01*
X124476191Y-70023429D01*
X124571429Y-69975810D01*
X124619048Y-69928190D01*
X124666667Y-69832952D01*
X127452381Y-121809523D02*
X128166667Y-121809523D01*
X128309524Y-121857143D01*
X128404762Y-121952381D01*
X128452381Y-122095238D01*
X128452381Y-122190476D01*
X128452381Y-120809523D02*
X128452381Y-121380952D01*
X128452381Y-121095238D02*
X127452381Y-121095238D01*
X127595238Y-121190476D01*
X127690476Y-121285714D01*
X127738095Y-121380952D01*
X127452381Y-120190476D02*
X127452381Y-120095237D01*
X127500000Y-119999999D01*
X127547619Y-119952380D01*
X127642857Y-119904761D01*
X127833333Y-119857142D01*
X128071429Y-119857142D01*
X128261905Y-119904761D01*
X128357143Y-119952380D01*
X128404762Y-119999999D01*
X128452381Y-120095237D01*
X128452381Y-120190476D01*
X128404762Y-120285714D01*
X128357143Y-120333333D01*
X128261905Y-120380952D01*
X128071429Y-120428571D01*
X127833333Y-120428571D01*
X127642857Y-120380952D01*
X127547619Y-120333333D01*
X127500000Y-120285714D01*
X127452381Y-120190476D01*
X145833334Y-112527382D02*
X145500000Y-112051191D01*
X145261905Y-112527382D02*
X145261905Y-111527382D01*
X145642858Y-111527382D01*
X145738096Y-111575001D01*
X145785715Y-111622620D01*
X145833334Y-111717858D01*
X145833334Y-111860715D01*
X145785715Y-111955953D01*
X145738096Y-112003572D01*
X145642858Y-112051191D01*
X145261905Y-112051191D01*
X146166667Y-111527382D02*
X146833334Y-111527382D01*
X146404762Y-112527382D01*
X125261905Y-92452381D02*
X125261905Y-91452381D01*
X125500000Y-91452381D01*
X125642858Y-91500000D01*
X125738096Y-91595238D01*
X125785715Y-91690476D01*
X125833334Y-91880952D01*
X125833334Y-92023810D01*
X125785715Y-92214286D01*
X125738096Y-92309524D01*
X125642858Y-92404762D01*
X125500000Y-92452381D01*
X125261905Y-92452381D01*
X126166667Y-91452381D02*
X126833334Y-91452381D01*
X126404762Y-92452381D01*
X125261905Y-96452381D02*
X125261905Y-95452381D01*
X125500000Y-95452381D01*
X125642858Y-95500000D01*
X125738096Y-95595238D01*
X125785715Y-95690476D01*
X125833334Y-95880952D01*
X125833334Y-96023810D01*
X125785715Y-96214286D01*
X125738096Y-96309524D01*
X125642858Y-96404762D01*
X125500000Y-96452381D01*
X125261905Y-96452381D01*
X126404762Y-95880952D02*
X126309524Y-95833333D01*
X126261905Y-95785714D01*
X126214286Y-95690476D01*
X126214286Y-95642857D01*
X126261905Y-95547619D01*
X126309524Y-95500000D01*
X126404762Y-95452381D01*
X126595239Y-95452381D01*
X126690477Y-95500000D01*
X126738096Y-95547619D01*
X126785715Y-95642857D01*
X126785715Y-95690476D01*
X126738096Y-95785714D01*
X126690477Y-95833333D01*
X126595239Y-95880952D01*
X126404762Y-95880952D01*
X126309524Y-95928571D01*
X126261905Y-95976190D01*
X126214286Y-96071429D01*
X126214286Y-96261905D01*
X126261905Y-96357143D01*
X126309524Y-96404762D01*
X126404762Y-96452381D01*
X126595239Y-96452381D01*
X126690477Y-96404762D01*
X126738096Y-96357143D01*
X126785715Y-96261905D01*
X126785715Y-96071429D01*
X126738096Y-95976190D01*
X126690477Y-95928571D01*
X126595239Y-95880952D01*
X123690477Y-77452381D02*
X123690477Y-78166667D01*
X123642857Y-78309524D01*
X123547619Y-78404762D01*
X123404762Y-78452381D01*
X123309524Y-78452381D01*
X124690477Y-78452381D02*
X124119048Y-78452381D01*
X124404762Y-78452381D02*
X124404762Y-77452381D01*
X124309524Y-77595238D01*
X124214286Y-77690476D01*
X124119048Y-77738095D01*
X125642858Y-78452381D02*
X125071429Y-78452381D01*
X125357143Y-78452381D02*
X125357143Y-77452381D01*
X125261905Y-77595238D01*
X125166667Y-77690476D01*
X125071429Y-77738095D01*
X141619000Y-79849381D02*
X141285666Y-79373190D01*
X141047571Y-79849381D02*
X141047571Y-78849381D01*
X141428524Y-78849381D01*
X141523762Y-78897000D01*
X141571381Y-78944619D01*
X141619000Y-79039857D01*
X141619000Y-79182714D01*
X141571381Y-79277952D01*
X141523762Y-79325571D01*
X141428524Y-79373190D01*
X141047571Y-79373190D01*
X142523762Y-79849381D02*
X142047571Y-79849381D01*
X142047571Y-78849381D01*
X143047571Y-79373190D02*
X143047571Y-79849381D01*
X142714238Y-78849381D02*
X143047571Y-79373190D01*
X143380905Y-78849381D01*
X143666619Y-78944619D02*
X143714238Y-78897000D01*
X143809476Y-78849381D01*
X144047572Y-78849381D01*
X144142810Y-78897000D01*
X144190429Y-78944619D01*
X144238048Y-79039857D01*
X144238048Y-79135095D01*
X144190429Y-79277952D01*
X143619000Y-79849381D01*
X144238048Y-79849381D01*
X138849143Y-77134762D02*
X138992000Y-77182381D01*
X139230096Y-77182381D01*
X139325334Y-77134762D01*
X139372953Y-77087143D01*
X139420572Y-76991905D01*
X139420572Y-76896667D01*
X139372953Y-76801429D01*
X139325334Y-76753810D01*
X139230096Y-76706190D01*
X139039619Y-76658571D01*
X138944381Y-76610952D01*
X138896762Y-76563333D01*
X138849143Y-76468095D01*
X138849143Y-76372857D01*
X138896762Y-76277619D01*
X138944381Y-76230000D01*
X139039619Y-76182381D01*
X139277715Y-76182381D01*
X139420572Y-76230000D01*
X139849143Y-77182381D02*
X139849143Y-76182381D01*
X140182477Y-76896667D01*
X140515810Y-76182381D01*
X140515810Y-77182381D01*
X140992000Y-77182381D02*
X140992000Y-76182381D01*
X141468190Y-77182381D02*
X141468190Y-76182381D01*
X141468190Y-76658571D02*
X142039619Y-76658571D01*
X142039619Y-77182381D02*
X142039619Y-76182381D01*
X143087238Y-77182381D02*
X142753904Y-76706190D01*
X142515809Y-77182381D02*
X142515809Y-76182381D01*
X142896762Y-76182381D01*
X142992000Y-76230000D01*
X143039619Y-76277619D01*
X143087238Y-76372857D01*
X143087238Y-76515714D01*
X143039619Y-76610952D01*
X142992000Y-76658571D01*
X142896762Y-76706190D01*
X142515809Y-76706190D01*
X143896762Y-77134762D02*
X143801524Y-77182381D01*
X143611047Y-77182381D01*
X143515809Y-77134762D01*
X143468190Y-77039524D01*
X143468190Y-76658571D01*
X143515809Y-76563333D01*
X143611047Y-76515714D01*
X143801524Y-76515714D01*
X143896762Y-76563333D01*
X143944381Y-76658571D01*
X143944381Y-76753810D01*
X143468190Y-76849048D01*
X144515809Y-77182381D02*
X144420571Y-77134762D01*
X144372952Y-77039524D01*
X144372952Y-76182381D01*
X145325334Y-77182381D02*
X145325334Y-76658571D01*
X145277715Y-76563333D01*
X145182477Y-76515714D01*
X144992000Y-76515714D01*
X144896762Y-76563333D01*
X145325334Y-77134762D02*
X145230096Y-77182381D01*
X144992000Y-77182381D01*
X144896762Y-77134762D01*
X144849143Y-77039524D01*
X144849143Y-76944286D01*
X144896762Y-76849048D01*
X144992000Y-76801429D01*
X145230096Y-76801429D01*
X145325334Y-76753810D01*
X145706286Y-76515714D02*
X145944381Y-77182381D01*
X146182477Y-76515714D02*
X145944381Y-77182381D01*
X145849143Y-77420476D01*
X145801524Y-77468095D01*
X145706286Y-77515714D01*
M02*
