M48
;DRILL file {KiCad 4.0.7} date 09/18/21 11:09:56
;FORMAT={-:-/ absolute / inch / decimal}
FMAT,2
INCH,TZ
T1C0.031
T2C0.035
T3C0.039
T4C0.043
T5C0.059
T6C0.060
T7C0.067
T8C0.079
T9C0.120
%
G90
G05
M72
T1
X4.9803Y-2.7362
X4.9803Y-3.0362
X4.9803Y-3.1299
X4.9803Y-3.4299
X4.9803Y-4.9016
X4.9803Y-5.2016
X4.9803Y-5.2953
X4.9803Y-5.5953
X5.1181Y-2.7362
X5.1181Y-3.0362
X5.1181Y-3.1299
X5.1181Y-3.4299
X5.1181Y-4.9016
X5.1181Y-5.2016
X5.1181Y-5.2953
X5.1181Y-5.5953
X5.2315Y-2.9134
X5.2315Y-3.2677
X5.2315Y-5.0787
X5.2315Y-5.4331
X5.261Y-4.0748
X5.2657Y-4.252
X5.2657Y-4.5276
X5.2677Y-3.878
X5.3346Y-3.6024
X5.3346Y-5.2559
X5.3543Y-3.0906
X5.3839Y-2.7559
X5.4626Y-4.252
X5.4626Y-4.6654
X5.5315Y-2.9134
X5.5315Y-3.2677
X5.5315Y-3.6024
X5.5315Y-5.0787
X5.5315Y-5.2559
X5.5315Y-5.4331
X5.5512Y-3.0906
X5.561Y-4.0748
X5.6496Y-5.
X5.6496Y-5.1969
X5.6496Y-5.2953
X5.6496Y-5.4921
X5.6693Y-2.874
X5.6693Y-3.0709
X5.6693Y-3.1496
X5.6693Y-3.3465
X5.6839Y-2.7559
X5.7283Y-5.5906
X5.7382Y-4.2126
X5.7382Y-4.4094
X5.748Y-3.5236
X5.748Y-3.7205
X5.7626Y-4.6654
X5.7657Y-4.5276
X5.7677Y-3.878
X5.7972Y-5.1134
X5.7972Y-5.4134
X5.8661Y-3.2087
X5.8661Y-3.4055
X5.9252Y-5.5906
X6.0039Y-2.9724
X6.0039Y-3.0724
X6.0039Y-3.1724
X6.0039Y-3.2724
X6.0236Y-5.2362
X6.0236Y-5.3362
X6.0236Y-5.4362
X6.0236Y-5.5362
X6.0827Y-2.7165
X6.0925Y-5.7776
X6.2795Y-2.7165
X6.2894Y-5.7776
X6.3039Y-2.9724
X6.3039Y-3.0724
X6.3039Y-3.1724
X6.3039Y-3.2724
X6.3236Y-5.2362
X6.3236Y-5.3362
X6.3236Y-5.4362
X6.3236Y-5.5362
X6.4173Y-3.0709
X6.4567Y-5.2756
X6.6142Y-3.0709
X6.6535Y-5.2756
T2
X5.3248Y-4.6638
X5.3248Y-4.7638
X5.7185Y-3.9961
X5.7185Y-4.0961
T3
X4.2055Y-3.698
X4.3055Y-3.698
X4.3803Y-2.439
X4.3803Y-5.8484
X4.4803Y-2.439
X4.4803Y-5.8484
X4.7933Y-5.8486
X4.8933Y-5.8486
X4.9213Y-4.3898
X4.9213Y-4.5866
X4.9409Y-3.7795
X4.9409Y-3.9764
X6.1614Y-4.5669
X6.1614Y-4.6669
X6.1614Y-4.7669
X6.1713Y-3.8091
X6.1713Y-3.9091
X6.1713Y-4.0091
X6.5157Y-5.4331
X6.5157Y-5.5331
X6.5354Y-3.2283
X6.5354Y-3.3283
T4
X5.261Y-4.3898
X5.2854Y-3.7303
X5.561Y-4.3898
X5.5854Y-3.7303
T5
X6.8996Y-5.8071
X6.9291Y-3.5039
T6
X4.2106Y-4.0913
X4.2106Y-4.2913
X4.4106Y-4.0913
X4.4106Y-4.2913
X6.7815Y-3.937
X6.7815Y-4.137
X6.7815Y-4.337
X6.7815Y-4.537
X6.9291Y-2.4409
X6.9291Y-2.6409
X6.9291Y-2.8409
X6.9291Y-3.0409
X6.9291Y-4.813
X6.9291Y-5.013
X6.9291Y-5.213
X6.9291Y-5.413
X6.9815Y-3.937
X6.9815Y-4.137
X6.9815Y-4.337
X6.9815Y-4.537
T7
X6.7996Y-5.7071
X6.7996Y-5.9071
X6.8291Y-3.4039
X6.8291Y-3.6039
X6.9996Y-5.7071
X6.9996Y-5.9071
X7.0291Y-3.4039
X7.0291Y-3.6039
T8
X4.2752Y-3.3957
X4.2752Y-5.561
X4.5004Y-3.2303
X4.5004Y-5.3957
X4.5256Y-2.9114
X4.5256Y-5.0768
X4.6756Y-3.0709
X4.6756Y-5.2362
T9
X4.1339Y-2.4409
X4.1339Y-5.8661
X7.2441Y-2.4409
X7.2441Y-5.8661
T0
M30
