G04 #@! TF.FileFunction,Copper,L2,Bot,Signal*
%FSLAX46Y46*%
G04 Gerber Fmt 4.6, Leading zero omitted, Abs format (unit mm)*
G04 Created by KiCad (PCBNEW 4.0.7) date 10/19/20 22:11:13*
%MOMM*%
%LPD*%
G01*
G04 APERTURE LIST*
%ADD10C,0.100000*%
%ADD11C,1.600000*%
%ADD12R,2.000000X2.000000*%
%ADD13C,2.000000*%
%ADD14R,1.600000X1.600000*%
%ADD15O,1.600000X1.600000*%
%ADD16R,2.200000X2.200000*%
%ADD17O,2.200000X2.200000*%
%ADD18R,1.700000X1.700000*%
%ADD19O,1.700000X1.700000*%
%ADD20R,1.800000X1.800000*%
%ADD21O,1.800000X1.800000*%
%ADD22C,5.500000*%
%ADD23C,5.000000*%
%ADD24C,2.200000*%
%ADD25C,3.000000*%
%ADD26C,1.800000*%
%ADD27R,3.000000X3.000000*%
%ADD28C,0.500000*%
%ADD29C,1.000000*%
G04 APERTURE END LIST*
D10*
D11*
X144000000Y-78000000D03*
X144000000Y-73000000D03*
X144000000Y-85000000D03*
X144000000Y-80000000D03*
X136000000Y-78500000D03*
X141000000Y-78500000D03*
X149000000Y-86500000D03*
X149000000Y-81500000D03*
X163000000Y-78000000D03*
X168000000Y-78000000D03*
X133750000Y-108000000D03*
X138750000Y-108000000D03*
D12*
X125500000Y-96000000D03*
D13*
X125500000Y-101000000D03*
D12*
X125000000Y-116500000D03*
D13*
X125000000Y-111500000D03*
D14*
X130000000Y-69500000D03*
D15*
X130000000Y-77120000D03*
D14*
X130000000Y-79500000D03*
D15*
X130000000Y-87120000D03*
D14*
X126500000Y-69500000D03*
D15*
X126500000Y-77120000D03*
D14*
X126500000Y-79500000D03*
D15*
X126500000Y-87120000D03*
D16*
X134250000Y-94750000D03*
D17*
X141870000Y-94750000D03*
D16*
X141250000Y-111500000D03*
D17*
X133630000Y-111500000D03*
D18*
X166000000Y-82000000D03*
D19*
X166000000Y-84540000D03*
D20*
X156500000Y-116000000D03*
D21*
X156500000Y-118540000D03*
X156500000Y-121080000D03*
D11*
X140500000Y-74000000D03*
D15*
X132880000Y-74000000D03*
D11*
X140500000Y-83000000D03*
D15*
X132880000Y-83000000D03*
D11*
X146500000Y-98500000D03*
D15*
X133800000Y-98500000D03*
D11*
X133750000Y-115000000D03*
D15*
X146450000Y-115000000D03*
D14*
X152500000Y-75500000D03*
D15*
X160120000Y-83120000D03*
X152500000Y-78040000D03*
X160120000Y-80580000D03*
X152500000Y-80580000D03*
X160120000Y-78040000D03*
X152500000Y-83120000D03*
X160120000Y-75500000D03*
D11*
X140500000Y-91500000D03*
X135500000Y-91500000D03*
X141250000Y-103500000D03*
D15*
X133630000Y-103500000D03*
D11*
X138750000Y-118500000D03*
D15*
X146370000Y-118500000D03*
D11*
X145750000Y-107000000D03*
X145750000Y-112000000D03*
X146000000Y-94500000D03*
X146000000Y-89500000D03*
D20*
X156750000Y-96750000D03*
D21*
X156750000Y-99290000D03*
X156750000Y-101830000D03*
D11*
X143500000Y-132000000D03*
X143500000Y-127000000D03*
X143500000Y-139500000D03*
X143500000Y-134500000D03*
X135500000Y-133500000D03*
X140500000Y-133500000D03*
X145500000Y-142000000D03*
X150500000Y-142000000D03*
X164000000Y-134000000D03*
X169000000Y-134000000D03*
D14*
X126500000Y-124500000D03*
D15*
X126500000Y-132120000D03*
D14*
X126500000Y-134500000D03*
D15*
X126500000Y-142120000D03*
D14*
X130000000Y-124500000D03*
D15*
X130000000Y-132120000D03*
D14*
X130000000Y-134500000D03*
D15*
X130000000Y-142120000D03*
D18*
X165500000Y-138000000D03*
D19*
X165500000Y-140540000D03*
D11*
X140500000Y-129000000D03*
D15*
X132880000Y-129000000D03*
D11*
X140500000Y-138000000D03*
D15*
X132880000Y-138000000D03*
D14*
X153000000Y-133000000D03*
D15*
X160620000Y-140620000D03*
X153000000Y-135540000D03*
X160620000Y-138080000D03*
X153000000Y-138080000D03*
X160620000Y-135540000D03*
X153000000Y-140620000D03*
X160620000Y-133000000D03*
D22*
X105000000Y-62000000D03*
D23*
X184000000Y-62000000D03*
D22*
X105000000Y-149000000D03*
D23*
X184000000Y-149000000D03*
D24*
X173460000Y-91540000D03*
X173460000Y-86460000D03*
X178540000Y-86460000D03*
X178540000Y-91540000D03*
D13*
X176000000Y-89000000D03*
D24*
X172710000Y-150040000D03*
X172710000Y-144960000D03*
X177790000Y-144960000D03*
X177790000Y-150040000D03*
D13*
X175250000Y-147500000D03*
D25*
X118760000Y-78000000D03*
X114310000Y-82050000D03*
X114950000Y-73950000D03*
X108590000Y-86250000D03*
X118760000Y-133000000D03*
X114310000Y-137050000D03*
X114950000Y-128950000D03*
X108590000Y-141250000D03*
D14*
X159500000Y-69000000D03*
D11*
X154500000Y-69000000D03*
D14*
X154750000Y-146750000D03*
D11*
X159750000Y-146750000D03*
D20*
X145250000Y-101500000D03*
D26*
X145250000Y-104040000D03*
D20*
X135250000Y-121000000D03*
D26*
X135250000Y-118460000D03*
D11*
X136750000Y-70000000D03*
D15*
X144370000Y-70000000D03*
D11*
X147250000Y-137500000D03*
D15*
X147250000Y-129880000D03*
D18*
X113800000Y-61950000D03*
D19*
X111260000Y-61950000D03*
D18*
X113800000Y-148550000D03*
D19*
X111260000Y-148550000D03*
D25*
X172250000Y-105080000D03*
X172250000Y-110160000D03*
D27*
X172250000Y-100000000D03*
D25*
X172250000Y-115240000D03*
D27*
X177330000Y-100000000D03*
D25*
X177330000Y-105080000D03*
X177330000Y-110160000D03*
X177330000Y-115240000D03*
D27*
X106950000Y-103920000D03*
D25*
X106950000Y-109000000D03*
D27*
X112030000Y-103920000D03*
D25*
X112030000Y-109000000D03*
X176000000Y-67080000D03*
X176000000Y-72160000D03*
D27*
X176000000Y-62000000D03*
D25*
X176000000Y-77240000D03*
X176000000Y-127330000D03*
X176000000Y-132410000D03*
D27*
X176000000Y-122250000D03*
D25*
X176000000Y-137490000D03*
D28*
X136750000Y-70000000D02*
X136750000Y-70500000D01*
X136750000Y-70500000D02*
X137750000Y-71500000D01*
X137750000Y-71500000D02*
X137750000Y-76000000D01*
X137750000Y-76000000D02*
X140250000Y-78500000D01*
X140250000Y-78500000D02*
X141000000Y-78500000D01*
X141000000Y-78500000D02*
X143500000Y-78500000D01*
X143500000Y-78500000D02*
X144000000Y-78000000D01*
X144000000Y-78000000D02*
X144000000Y-80000000D01*
X144000000Y-73000000D02*
X144000000Y-75000000D01*
X147040000Y-78040000D02*
X152500000Y-78040000D01*
X144000000Y-75000000D02*
X147040000Y-78040000D01*
X140500000Y-74000000D02*
X143000000Y-74000000D01*
X143000000Y-74000000D02*
X144000000Y-73000000D01*
X144000000Y-85000000D02*
X145000000Y-85000000D01*
X151420000Y-79500000D02*
X152500000Y-80580000D01*
X147500000Y-79500000D02*
X151420000Y-79500000D01*
X146500000Y-80500000D02*
X147500000Y-79500000D01*
X146500000Y-83500000D02*
X146500000Y-80500000D01*
X145000000Y-85000000D02*
X146500000Y-83500000D01*
X144000000Y-85000000D02*
X144000000Y-84500000D01*
X140500000Y-83000000D02*
X142000000Y-83000000D01*
X142000000Y-83000000D02*
X144000000Y-85000000D01*
X171550000Y-114540000D02*
X172250000Y-115240000D01*
X171540000Y-99290000D02*
X172250000Y-100000000D01*
X171460000Y-100790000D02*
X172250000Y-100000000D01*
X150500000Y-142000000D02*
X149750000Y-142000000D01*
X149750000Y-142000000D02*
X147250000Y-144500000D01*
X132380000Y-144500000D02*
X130000000Y-142120000D01*
X147250000Y-144500000D02*
X132380000Y-144500000D01*
X145250000Y-101500000D02*
X151750000Y-101500000D01*
X152080000Y-101830000D02*
X156750000Y-101830000D01*
X151750000Y-101500000D02*
X152080000Y-101830000D01*
X145250000Y-101500000D02*
X143750000Y-101500000D01*
X143250000Y-101000000D02*
X125500000Y-101000000D01*
X143750000Y-101500000D02*
X143250000Y-101000000D01*
X108000000Y-131750000D02*
X108000000Y-134500000D01*
X108000000Y-134500000D02*
X113500000Y-140000000D01*
X126500000Y-142120000D02*
X121120000Y-142120000D01*
X121120000Y-142120000D02*
X119000000Y-140000000D01*
X119000000Y-140000000D02*
X113500000Y-140000000D01*
X108000000Y-118500000D02*
X125500000Y-101000000D01*
X108000000Y-131750000D02*
X108000000Y-118500000D01*
X153000000Y-140620000D02*
X151880000Y-140620000D01*
X151880000Y-140620000D02*
X150500000Y-142000000D01*
X130000000Y-142120000D02*
X126500000Y-142120000D01*
X130000000Y-87120000D02*
X134120000Y-87120000D01*
X134120000Y-87120000D02*
X135000000Y-88000000D01*
X125500000Y-101000000D02*
X131500000Y-95000000D01*
X131500000Y-95000000D02*
X131500000Y-92000000D01*
X131500000Y-92000000D02*
X135000000Y-88000000D01*
X151000000Y-88000000D02*
X152500000Y-87000000D01*
X152500000Y-87000000D02*
X152500000Y-83120000D01*
X135000000Y-88000000D02*
X151000000Y-88000000D01*
X152500000Y-83120000D02*
X150620000Y-83120000D01*
X150620000Y-83120000D02*
X149000000Y-81500000D01*
X130000000Y-87120000D02*
X126500000Y-87120000D01*
X144370000Y-70000000D02*
X144370000Y-69880000D01*
X144370000Y-69880000D02*
X147750000Y-66500000D01*
X147750000Y-66500000D02*
X157000000Y-66500000D01*
X157000000Y-66500000D02*
X159500000Y-69000000D01*
X159500000Y-69000000D02*
X160250000Y-69000000D01*
X160250000Y-69000000D02*
X162170000Y-67080000D01*
X162170000Y-67080000D02*
X176000000Y-67080000D01*
X160120000Y-75500000D02*
X160120000Y-69620000D01*
X160120000Y-69620000D02*
X159500000Y-69000000D01*
X154500000Y-69000000D02*
X154500000Y-79500000D01*
X158120000Y-83120000D02*
X160120000Y-83120000D01*
X154500000Y-79500000D02*
X158120000Y-83120000D01*
X160120000Y-83120000D02*
X160120000Y-83620000D01*
X160120000Y-83620000D02*
X161040000Y-84540000D01*
X161040000Y-84540000D02*
X166000000Y-84540000D01*
X141250000Y-111500000D02*
X141250000Y-113000000D01*
X139250000Y-115000000D02*
X133750000Y-115000000D01*
X141250000Y-113000000D02*
X139250000Y-115000000D01*
X138750000Y-108000000D02*
X138750000Y-109000000D01*
X138750000Y-109000000D02*
X141250000Y-111500000D01*
X141250000Y-111500000D02*
X142750000Y-109250000D01*
X148250000Y-109250000D02*
X156000000Y-116000000D01*
X142750000Y-109250000D02*
X148250000Y-109250000D01*
X156000000Y-116000000D02*
X156500000Y-116000000D01*
X141250000Y-111500000D02*
X141250000Y-111250000D01*
X130000000Y-79500000D02*
X130000000Y-83000000D01*
X130000000Y-79500000D02*
X130000000Y-77120000D01*
X118760000Y-78000000D02*
X118760000Y-78260000D01*
X118760000Y-78260000D02*
X123500000Y-83000000D01*
X123500000Y-83000000D02*
X130000000Y-83000000D01*
X130000000Y-83000000D02*
X132880000Y-83000000D01*
X182250000Y-76250000D02*
X182250000Y-76750000D01*
X182250000Y-76750000D02*
X182250000Y-111750000D01*
X182250000Y-111750000D02*
X182250000Y-115750000D01*
X182250000Y-117000000D02*
X182250000Y-115750000D01*
X182250000Y-117250000D02*
X182250000Y-119750000D01*
X182250000Y-117000000D02*
X182250000Y-117250000D01*
X182250000Y-119750000D02*
X172500000Y-119750000D01*
X167750000Y-124500000D02*
X172500000Y-119750000D01*
X156750000Y-124500000D02*
X167750000Y-124500000D01*
X156500000Y-124500000D02*
X156750000Y-124500000D01*
X146250000Y-124500000D02*
X156750000Y-124500000D01*
X146370000Y-124500000D02*
X146250000Y-124500000D01*
X180500000Y-66250000D02*
X180500000Y-69750000D01*
X178750000Y-64500000D02*
X180500000Y-66250000D01*
X180750000Y-69750000D02*
X180500000Y-69750000D01*
X180500000Y-69750000D02*
X168000000Y-69750000D01*
X135750000Y-64500000D02*
X178750000Y-64500000D01*
X168000000Y-69750000D02*
X163000000Y-74750000D01*
X130000000Y-69500000D02*
X130750000Y-69500000D01*
X130750000Y-69500000D02*
X135750000Y-64500000D01*
X156500000Y-121080000D02*
X156500000Y-124500000D01*
X146370000Y-118500000D02*
X146370000Y-124500000D01*
X130000000Y-124500000D02*
X146250000Y-124500000D01*
X125000000Y-116500000D02*
X125000000Y-123000000D01*
X125000000Y-123000000D02*
X126500000Y-124500000D01*
X168000000Y-130000000D02*
X164000000Y-134000000D01*
X179500000Y-130000000D02*
X168000000Y-130000000D01*
X163000000Y-74750000D02*
X163000000Y-78000000D01*
X164000000Y-134000000D02*
X163500000Y-134000000D01*
X163500000Y-134000000D02*
X161960000Y-135540000D01*
X161960000Y-135540000D02*
X160620000Y-135540000D01*
X130000000Y-124500000D02*
X126500000Y-124500000D01*
X160660000Y-135500000D02*
X160620000Y-135540000D01*
X163000000Y-78000000D02*
X160160000Y-78000000D01*
X160160000Y-78000000D02*
X160120000Y-78040000D01*
X130000000Y-69500000D02*
X126500000Y-69500000D01*
X182250000Y-119750000D02*
X182250000Y-127250000D01*
X182250000Y-127250000D02*
X179500000Y-130000000D01*
X182250000Y-76750000D02*
X182250000Y-71250000D01*
X182250000Y-71250000D02*
X180750000Y-69750000D01*
X140500000Y-91500000D02*
X150000000Y-91500000D01*
X150000000Y-91500000D02*
X156750000Y-96750000D01*
X141870000Y-94750000D02*
X141870000Y-92870000D01*
X141870000Y-92870000D02*
X140500000Y-91500000D01*
X141870000Y-94750000D02*
X141870000Y-95880000D01*
X139250000Y-98500000D02*
X133800000Y-98500000D01*
X141870000Y-95880000D02*
X139250000Y-98500000D01*
X140500000Y-91500000D02*
X140500000Y-92000000D01*
X141750000Y-94630000D02*
X141870000Y-94750000D01*
X156750000Y-96750000D02*
X156750000Y-96250000D01*
X142250000Y-94370000D02*
X141870000Y-94750000D01*
X126500000Y-77120000D02*
X126500000Y-79500000D01*
X126500000Y-77120000D02*
X126500000Y-73950000D01*
X126500000Y-73950000D02*
X126500000Y-74000000D01*
X126500000Y-74000000D02*
X126500000Y-73950000D01*
X123500000Y-73950000D02*
X126500000Y-73950000D01*
X126500000Y-73950000D02*
X132830000Y-73950000D01*
X132830000Y-73950000D02*
X132880000Y-74000000D01*
X114310000Y-73950000D02*
X123500000Y-73950000D01*
D29*
X177330000Y-110160000D02*
X172250000Y-110160000D01*
D28*
X156500000Y-118540000D02*
X157710000Y-118540000D01*
X166090000Y-110160000D02*
X172250000Y-110160000D01*
X157710000Y-118540000D02*
X166090000Y-110160000D01*
X156500000Y-118540000D02*
X152790000Y-118540000D01*
X149250000Y-115000000D02*
X146450000Y-115000000D01*
X152790000Y-118540000D02*
X149250000Y-115000000D01*
X145750000Y-112000000D02*
X145750000Y-114300000D01*
X145750000Y-114300000D02*
X146450000Y-115000000D01*
X146450000Y-115000000D02*
X146500000Y-115000000D01*
X146450000Y-115000000D02*
X146750000Y-115000000D01*
D29*
X177330000Y-105080000D02*
X172250000Y-105080000D01*
D28*
X172250000Y-105080000D02*
X165830000Y-105080000D01*
X160040000Y-99290000D02*
X156750000Y-99290000D01*
X165830000Y-105080000D02*
X160040000Y-99290000D01*
X146500000Y-98500000D02*
X153500000Y-98500000D01*
X154290000Y-99290000D02*
X156750000Y-99290000D01*
X153500000Y-98500000D02*
X154290000Y-99290000D01*
X146000000Y-94500000D02*
X146000000Y-98000000D01*
X146000000Y-98000000D02*
X146500000Y-98500000D01*
X146000000Y-98000000D02*
X146500000Y-98500000D01*
X143500000Y-134500000D02*
X144250000Y-134500000D01*
X144250000Y-134500000D02*
X147250000Y-137500000D01*
X143500000Y-132000000D02*
X143750000Y-132000000D01*
X143500000Y-133000000D02*
X141000000Y-133000000D01*
X141000000Y-133000000D02*
X140500000Y-133500000D01*
X143500000Y-132000000D02*
X143500000Y-133000000D01*
X143500000Y-133000000D02*
X143500000Y-134500000D01*
X143500000Y-127000000D02*
X143750000Y-127000000D01*
X143750000Y-127000000D02*
X144250000Y-127500000D01*
X148290000Y-135540000D02*
X153000000Y-135540000D01*
X146750000Y-134000000D02*
X148290000Y-135540000D01*
X146750000Y-132500000D02*
X146750000Y-134000000D01*
X144250000Y-130000000D02*
X146750000Y-132500000D01*
X144250000Y-127500000D02*
X144250000Y-130000000D01*
X140500000Y-129000000D02*
X141500000Y-129000000D01*
X141500000Y-129000000D02*
X143500000Y-127000000D01*
X143500000Y-139500000D02*
X151580000Y-139500000D01*
X151580000Y-139500000D02*
X153000000Y-138080000D01*
X143500000Y-139500000D02*
X144000000Y-139500000D01*
X140500000Y-138000000D02*
X142000000Y-138000000D01*
X142000000Y-138000000D02*
X143500000Y-139500000D01*
X147250000Y-129880000D02*
X157500000Y-129880000D01*
X157500000Y-129880000D02*
X160620000Y-133000000D01*
X160620000Y-133000000D02*
X158000000Y-133000000D01*
X155250000Y-135750000D02*
X155250000Y-146250000D01*
X158000000Y-133000000D02*
X155250000Y-135750000D01*
X155250000Y-146250000D02*
X154750000Y-146750000D01*
X160620000Y-133000000D02*
X160620000Y-131630000D01*
X164920000Y-127330000D02*
X176000000Y-127330000D01*
X160620000Y-131630000D02*
X164920000Y-127330000D01*
X175580000Y-127750000D02*
X176000000Y-127330000D01*
X160500000Y-132880000D02*
X160620000Y-133000000D01*
X160620000Y-140620000D02*
X160620000Y-145880000D01*
X160620000Y-145880000D02*
X159750000Y-146750000D01*
X165500000Y-140540000D02*
X160700000Y-140540000D01*
X160700000Y-140540000D02*
X160620000Y-140620000D01*
X126500000Y-132120000D02*
X126500000Y-134500000D01*
X126500000Y-132120000D02*
X126500000Y-129000000D01*
X132880000Y-129000000D02*
X126500000Y-129000000D01*
X126500000Y-129000000D02*
X114360000Y-129000000D01*
X114360000Y-129000000D02*
X114310000Y-128950000D01*
X130000000Y-134500000D02*
X130000000Y-132120000D01*
X130000000Y-134500000D02*
X130000000Y-138000000D01*
X118760000Y-133000000D02*
X118760000Y-136260000D01*
X120500000Y-138000000D02*
X130000000Y-138000000D01*
X130000000Y-138000000D02*
X132880000Y-138000000D01*
X118760000Y-136260000D02*
X120500000Y-138000000D01*
X166000000Y-82000000D02*
X168500000Y-82000000D01*
X170250000Y-89000000D02*
X176000000Y-89000000D01*
X169750000Y-88500000D02*
X170250000Y-89000000D01*
X169750000Y-83250000D02*
X169750000Y-88500000D01*
X168500000Y-82000000D02*
X169750000Y-83250000D01*
X166000000Y-82000000D02*
X169500000Y-82000000D01*
X172840000Y-72160000D02*
X176000000Y-72160000D01*
X171000000Y-74000000D02*
X172840000Y-72160000D01*
X171000000Y-80500000D02*
X171000000Y-74000000D01*
X169500000Y-82000000D02*
X171000000Y-80500000D01*
X160120000Y-80580000D02*
X160580000Y-80580000D01*
X160580000Y-80580000D02*
X162000000Y-82000000D01*
X162000000Y-82000000D02*
X166000000Y-82000000D01*
X165500000Y-138000000D02*
X171000000Y-138000000D01*
X172750000Y-134910000D02*
X176000000Y-132410000D01*
X172750000Y-136250000D02*
X172750000Y-134910000D01*
X171000000Y-138000000D02*
X172750000Y-136250000D01*
X165500000Y-138000000D02*
X166500000Y-138000000D01*
X169500000Y-147500000D02*
X175250000Y-147500000D01*
X169000000Y-147000000D02*
X169500000Y-147500000D01*
X169000000Y-140500000D02*
X169000000Y-147000000D01*
X166500000Y-138000000D02*
X169000000Y-140500000D01*
X160620000Y-138080000D02*
X165420000Y-138080000D01*
X165420000Y-138080000D02*
X165500000Y-138000000D01*
X141250000Y-103500000D02*
X144710000Y-103500000D01*
X144710000Y-103500000D02*
X145250000Y-104040000D01*
X138750000Y-118500000D02*
X135290000Y-118500000D01*
X135290000Y-118500000D02*
X135250000Y-118460000D01*
D29*
X111260000Y-61950000D02*
X105050000Y-61950000D01*
X105050000Y-61950000D02*
X105000000Y-62000000D01*
D28*
X106000000Y-61000000D02*
X105000000Y-62000000D01*
D29*
X111260000Y-148550000D02*
X105450000Y-148550000D01*
X105450000Y-148550000D02*
X105000000Y-149000000D01*
M02*
