G04 #@! TF.FileFunction,Copper,L1,Top,Signal*
%FSLAX46Y46*%
G04 Gerber Fmt 4.6, Leading zero omitted, Abs format (unit mm)*
G04 Created by KiCad (PCBNEW 4.0.7) date 10/13/20 11:53:09*
%MOMM*%
%LPD*%
G01*
G04 APERTURE LIST*
%ADD10C,0.100000*%
%ADD11C,1.600000*%
%ADD12R,2.000000X2.000000*%
%ADD13C,2.000000*%
%ADD14R,1.600000X1.600000*%
%ADD15O,1.600000X1.600000*%
%ADD16R,2.200000X2.200000*%
%ADD17O,2.200000X2.200000*%
%ADD18C,3.000000*%
%ADD19R,3.000000X3.000000*%
%ADD20R,1.700000X1.700000*%
%ADD21O,1.700000X1.700000*%
%ADD22R,1.800000X1.800000*%
%ADD23O,1.800000X1.800000*%
%ADD24C,5.500000*%
%ADD25C,4.064000*%
%ADD26C,2.200000*%
%ADD27C,1.800000*%
%ADD28C,0.500000*%
G04 APERTURE END LIST*
D10*
D11*
X144000000Y-78000000D03*
X144000000Y-73000000D03*
X144000000Y-85000000D03*
X144000000Y-80000000D03*
X136000000Y-78500000D03*
X141000000Y-78500000D03*
X149000000Y-86500000D03*
X149000000Y-81500000D03*
X163000000Y-78000000D03*
X168000000Y-78000000D03*
X133750000Y-108000000D03*
X138750000Y-108000000D03*
D12*
X125500000Y-96000000D03*
D13*
X125500000Y-101000000D03*
D12*
X125000000Y-116500000D03*
D13*
X125000000Y-111500000D03*
D14*
X130000000Y-69500000D03*
D15*
X130000000Y-77120000D03*
D14*
X130000000Y-79500000D03*
D15*
X130000000Y-87120000D03*
D14*
X126500000Y-69500000D03*
D15*
X126500000Y-77120000D03*
D14*
X126500000Y-79500000D03*
D15*
X126500000Y-87120000D03*
D16*
X134250000Y-94750000D03*
D17*
X141870000Y-94750000D03*
D16*
X141250000Y-111500000D03*
D17*
X133630000Y-111500000D03*
D18*
X176000000Y-67080000D03*
X176000000Y-72160000D03*
D19*
X176000000Y-62000000D03*
D18*
X176000000Y-77240000D03*
X175750000Y-105080000D03*
X175750000Y-110160000D03*
D19*
X175750000Y-100000000D03*
D18*
X175750000Y-115240000D03*
D20*
X166000000Y-82000000D03*
D21*
X166000000Y-84540000D03*
D22*
X156500000Y-116000000D03*
D23*
X156500000Y-118540000D03*
X156500000Y-121080000D03*
D11*
X140500000Y-74000000D03*
D15*
X132880000Y-74000000D03*
D11*
X140500000Y-83000000D03*
D15*
X132880000Y-83000000D03*
D11*
X146500000Y-98500000D03*
D15*
X133800000Y-98500000D03*
D11*
X133750000Y-115000000D03*
D15*
X146450000Y-115000000D03*
D14*
X152500000Y-75500000D03*
D15*
X160120000Y-83120000D03*
X152500000Y-78040000D03*
X160120000Y-80580000D03*
X152500000Y-80580000D03*
X160120000Y-78040000D03*
X152500000Y-83120000D03*
X160120000Y-75500000D03*
D11*
X140500000Y-91500000D03*
X135500000Y-91500000D03*
X141250000Y-103500000D03*
D15*
X133630000Y-103500000D03*
D11*
X138750000Y-118500000D03*
D15*
X146370000Y-118500000D03*
D11*
X145750000Y-107000000D03*
X145750000Y-112000000D03*
X146000000Y-94500000D03*
X146000000Y-89500000D03*
D22*
X156750000Y-96750000D03*
D23*
X156750000Y-99290000D03*
X156750000Y-101830000D03*
D11*
X143500000Y-132000000D03*
X143500000Y-127000000D03*
X143500000Y-139500000D03*
X143500000Y-134500000D03*
X135500000Y-133500000D03*
X140500000Y-133500000D03*
X145500000Y-142000000D03*
X150500000Y-142000000D03*
X164000000Y-134000000D03*
X169000000Y-134000000D03*
D14*
X126500000Y-124500000D03*
D15*
X126500000Y-132120000D03*
D14*
X126500000Y-134500000D03*
D15*
X126500000Y-142120000D03*
D14*
X130000000Y-124500000D03*
D15*
X130000000Y-132120000D03*
D14*
X130000000Y-134500000D03*
D15*
X130000000Y-142120000D03*
D18*
X176000000Y-127330000D03*
X176000000Y-132410000D03*
D19*
X176000000Y-122250000D03*
D18*
X176000000Y-137490000D03*
D20*
X165500000Y-138000000D03*
D21*
X165500000Y-140540000D03*
D11*
X140500000Y-129000000D03*
D15*
X132880000Y-129000000D03*
D11*
X140500000Y-138000000D03*
D15*
X132880000Y-138000000D03*
D14*
X153000000Y-133000000D03*
D15*
X160620000Y-140620000D03*
X153000000Y-135540000D03*
X160620000Y-138080000D03*
X153000000Y-138080000D03*
X160620000Y-135540000D03*
X153000000Y-140620000D03*
X160620000Y-133000000D03*
D24*
X105000000Y-62000000D03*
D25*
X184000000Y-62000000D03*
D24*
X105000000Y-149000000D03*
D25*
X184000000Y-149000000D03*
D26*
X173460000Y-91540000D03*
X173460000Y-86460000D03*
X178540000Y-86460000D03*
X178540000Y-91540000D03*
D13*
X176000000Y-89000000D03*
D26*
X172710000Y-150040000D03*
X172710000Y-144960000D03*
X177790000Y-144960000D03*
X177790000Y-150040000D03*
D13*
X175250000Y-147500000D03*
D18*
X118760000Y-78000000D03*
X114310000Y-82050000D03*
X114950000Y-73950000D03*
X108590000Y-86250000D03*
X118760000Y-133000000D03*
X114310000Y-137050000D03*
X114950000Y-128950000D03*
X108590000Y-141250000D03*
D14*
X159500000Y-69000000D03*
D11*
X154500000Y-69000000D03*
D14*
X154750000Y-146750000D03*
D11*
X159750000Y-146750000D03*
D22*
X145250000Y-101500000D03*
D27*
X145250000Y-104040000D03*
D22*
X135250000Y-121000000D03*
D27*
X135250000Y-118460000D03*
D11*
X136750000Y-70000000D03*
D15*
X144370000Y-70000000D03*
D11*
X147250000Y-137500000D03*
D15*
X147250000Y-129880000D03*
D20*
X113800000Y-61950000D03*
D21*
X111260000Y-61950000D03*
D20*
X113800000Y-148550000D03*
D21*
X111260000Y-148550000D03*
D19*
X106950000Y-103920000D03*
D18*
X106950000Y-109000000D03*
D28*
G36*
X109775076Y-60423935D02*
X109319853Y-61105224D01*
X109160000Y-61908859D01*
X109160000Y-61991141D01*
X109319853Y-62794776D01*
X109775076Y-63476065D01*
X110456365Y-63931288D01*
X111260000Y-64091141D01*
X112063635Y-63931288D01*
X112690006Y-63512760D01*
X112799225Y-63558000D01*
X113185500Y-63558000D01*
X113375000Y-63368500D01*
X113375000Y-62375000D01*
X114225000Y-62375000D01*
X114225000Y-63368500D01*
X114414500Y-63558000D01*
X114800775Y-63558000D01*
X115079372Y-63442602D01*
X115292601Y-63229373D01*
X115408000Y-62950776D01*
X115408000Y-62939500D01*
X173742000Y-62939500D01*
X173742000Y-63650776D01*
X173857399Y-63929373D01*
X174070628Y-64142602D01*
X174349225Y-64258000D01*
X175060500Y-64258000D01*
X175250000Y-64068500D01*
X175250000Y-62750000D01*
X176750000Y-62750000D01*
X176750000Y-64068500D01*
X176939500Y-64258000D01*
X177650775Y-64258000D01*
X177929372Y-64142602D01*
X178142601Y-63929373D01*
X178258000Y-63650776D01*
X178258000Y-62939500D01*
X178068500Y-62750000D01*
X176750000Y-62750000D01*
X175250000Y-62750000D01*
X173931500Y-62750000D01*
X173742000Y-62939500D01*
X115408000Y-62939500D01*
X115408000Y-62564500D01*
X115218500Y-62375000D01*
X114225000Y-62375000D01*
X113375000Y-62375000D01*
X113283646Y-62375000D01*
X113360000Y-61991141D01*
X113360000Y-61908859D01*
X113283646Y-61525000D01*
X113375000Y-61525000D01*
X113375000Y-60531500D01*
X114225000Y-60531500D01*
X114225000Y-61525000D01*
X115218500Y-61525000D01*
X115408000Y-61335500D01*
X115408000Y-60949224D01*
X115292601Y-60670627D01*
X115079372Y-60457398D01*
X114800775Y-60342000D01*
X114414500Y-60342000D01*
X114225000Y-60531500D01*
X113375000Y-60531500D01*
X113185500Y-60342000D01*
X112799225Y-60342000D01*
X112690006Y-60387240D01*
X112596857Y-60325000D01*
X173752034Y-60325000D01*
X173742000Y-60349224D01*
X173742000Y-61060500D01*
X173931500Y-61250000D01*
X175250000Y-61250000D01*
X175250000Y-60730000D01*
X176750000Y-60730000D01*
X176750000Y-61250000D01*
X178068500Y-61250000D01*
X178258000Y-61060500D01*
X178258000Y-60349224D01*
X178247966Y-60325000D01*
X181141824Y-60325000D01*
X180718571Y-61344306D01*
X180717432Y-62649966D01*
X181216034Y-63856675D01*
X182138469Y-64780722D01*
X183344306Y-65281429D01*
X184649966Y-65282568D01*
X185675000Y-64859033D01*
X185675000Y-146141824D01*
X184655694Y-145718571D01*
X183350034Y-145717432D01*
X182143325Y-146216034D01*
X181219278Y-147138469D01*
X180718571Y-148344306D01*
X180717432Y-149649966D01*
X181140967Y-150675000D01*
X179827160Y-150675000D01*
X180009965Y-150492195D01*
X179652568Y-150134798D01*
X179681108Y-149928387D01*
X179579869Y-149419421D01*
X179320001Y-149287817D01*
X178567817Y-150040000D01*
X178956726Y-150428909D01*
X178710635Y-150675000D01*
X176869365Y-150675000D01*
X176623274Y-150428909D01*
X177012183Y-150040000D01*
X176623274Y-149651091D01*
X177401091Y-148873274D01*
X177790000Y-149262183D01*
X178542183Y-148509999D01*
X178410579Y-148250131D01*
X177678387Y-148148892D01*
X177668607Y-148150837D01*
X177490125Y-147972355D01*
X177499608Y-147949516D01*
X177500390Y-147054411D01*
X177489563Y-147028207D01*
X177695202Y-146822568D01*
X177901613Y-146851108D01*
X178410579Y-146749869D01*
X178542183Y-146490001D01*
X177790000Y-145737817D01*
X177401091Y-146126726D01*
X176623274Y-145348909D01*
X177012183Y-144960000D01*
X178567817Y-144960000D01*
X179320001Y-145712183D01*
X179579869Y-145580579D01*
X179681108Y-144848387D01*
X179579869Y-144339421D01*
X179320001Y-144207817D01*
X178567817Y-144960000D01*
X177012183Y-144960000D01*
X176259999Y-144207817D01*
X176000131Y-144339421D01*
X175898892Y-145071613D01*
X175900837Y-145081393D01*
X175722355Y-145259875D01*
X175699516Y-145250392D01*
X174804411Y-145249610D01*
X174778207Y-145260437D01*
X174572568Y-145054798D01*
X174601108Y-144848387D01*
X174499869Y-144339421D01*
X174240001Y-144207817D01*
X173487817Y-144960000D01*
X173876726Y-145348909D01*
X173098909Y-146126726D01*
X172710000Y-145737817D01*
X171957817Y-146490001D01*
X172089421Y-146749869D01*
X172821613Y-146851108D01*
X172831393Y-146849163D01*
X173009875Y-147027645D01*
X173000392Y-147050484D01*
X172999610Y-147945589D01*
X173010437Y-147971793D01*
X172804798Y-148177432D01*
X172598387Y-148148892D01*
X172089421Y-148250131D01*
X171957817Y-148509999D01*
X172710000Y-149262183D01*
X173098909Y-148873274D01*
X173876726Y-149651091D01*
X173487817Y-150040000D01*
X173876726Y-150428909D01*
X173630635Y-150675000D01*
X171789365Y-150675000D01*
X171543274Y-150428909D01*
X171932183Y-150040000D01*
X171179999Y-149287817D01*
X170920131Y-149419421D01*
X170818892Y-150151613D01*
X170820837Y-150161393D01*
X170490035Y-150492195D01*
X170672840Y-150675000D01*
X111341146Y-150675000D01*
X112063635Y-150531288D01*
X112690006Y-150112760D01*
X112799225Y-150158000D01*
X113185500Y-150158000D01*
X113375000Y-149968500D01*
X113375000Y-148975000D01*
X114225000Y-148975000D01*
X114225000Y-149968500D01*
X114414500Y-150158000D01*
X114800775Y-150158000D01*
X115079372Y-150042602D01*
X115292601Y-149829373D01*
X115408000Y-149550776D01*
X115408000Y-149164500D01*
X115218500Y-148975000D01*
X114225000Y-148975000D01*
X113375000Y-148975000D01*
X113283646Y-148975000D01*
X113360000Y-148591141D01*
X113360000Y-148508859D01*
X113283646Y-148125000D01*
X113375000Y-148125000D01*
X113375000Y-147131500D01*
X114225000Y-147131500D01*
X114225000Y-148125000D01*
X115218500Y-148125000D01*
X115408000Y-147935500D01*
X115408000Y-147549224D01*
X115292601Y-147270627D01*
X115079372Y-147057398D01*
X114800775Y-146942000D01*
X114414500Y-146942000D01*
X114225000Y-147131500D01*
X113375000Y-147131500D01*
X113185500Y-146942000D01*
X112799225Y-146942000D01*
X112690006Y-146987240D01*
X112063635Y-146568712D01*
X111260000Y-146408859D01*
X110456365Y-146568712D01*
X109775076Y-147023935D01*
X109319853Y-147705224D01*
X109160000Y-148508859D01*
X109160000Y-148591141D01*
X109319853Y-149394776D01*
X109775076Y-150076065D01*
X110456365Y-150531288D01*
X111178854Y-150675000D01*
X108635616Y-150675000D01*
X108999305Y-149799140D01*
X109000693Y-148207841D01*
X108393013Y-146737142D01*
X107607244Y-145950000D01*
X152675512Y-145950000D01*
X152675512Y-147550000D01*
X152762673Y-148013222D01*
X153036437Y-148438663D01*
X153454153Y-148724076D01*
X153950000Y-148824488D01*
X155550000Y-148824488D01*
X156013222Y-148737327D01*
X156438663Y-148463563D01*
X156724076Y-148045847D01*
X156824488Y-147550000D01*
X156824488Y-147155981D01*
X157699645Y-147155981D01*
X158011081Y-147909715D01*
X158587252Y-148486892D01*
X159340441Y-148799643D01*
X160155981Y-148800355D01*
X160909715Y-148488919D01*
X161486892Y-147912748D01*
X161799643Y-147159559D01*
X161800355Y-146344019D01*
X161488919Y-145590285D01*
X160971152Y-145071613D01*
X170818892Y-145071613D01*
X170920131Y-145580579D01*
X171179999Y-145712183D01*
X171932183Y-144960000D01*
X171179999Y-144207817D01*
X170920131Y-144339421D01*
X170818892Y-145071613D01*
X160971152Y-145071613D01*
X160912748Y-145013108D01*
X160159559Y-144700357D01*
X159344019Y-144699645D01*
X158590285Y-145011081D01*
X158013108Y-145587252D01*
X157700357Y-146340441D01*
X157699645Y-147155981D01*
X156824488Y-147155981D01*
X156824488Y-145950000D01*
X156737327Y-145486778D01*
X156463563Y-145061337D01*
X156045847Y-144775924D01*
X155550000Y-144675512D01*
X153950000Y-144675512D01*
X153486778Y-144762673D01*
X153061337Y-145036437D01*
X152775924Y-145454153D01*
X152675512Y-145950000D01*
X107607244Y-145950000D01*
X107268777Y-145610942D01*
X105799140Y-145000695D01*
X104207841Y-144999307D01*
X103325000Y-145364089D01*
X103325000Y-143176961D01*
X107723699Y-143176961D01*
X107917361Y-143451784D01*
X108811149Y-143541592D01*
X109262639Y-143451784D01*
X109456301Y-143176961D01*
X108590000Y-142310660D01*
X107723699Y-143176961D01*
X103325000Y-143176961D01*
X103325000Y-141471149D01*
X106298408Y-141471149D01*
X106388216Y-141922639D01*
X106663039Y-142116301D01*
X107529340Y-141250000D01*
X109650660Y-141250000D01*
X110516961Y-142116301D01*
X110568705Y-142079838D01*
X124450000Y-142079838D01*
X124450000Y-142160162D01*
X124606047Y-142944663D01*
X125050431Y-143609731D01*
X125715499Y-144054115D01*
X126500000Y-144210162D01*
X127284501Y-144054115D01*
X127949569Y-143609731D01*
X128250000Y-143160104D01*
X128550431Y-143609731D01*
X129215499Y-144054115D01*
X130000000Y-144210162D01*
X130784501Y-144054115D01*
X131449569Y-143609731D01*
X131702759Y-143230805D01*
X144834881Y-143230805D01*
X144919983Y-143478846D01*
X145530064Y-143588239D01*
X146080017Y-143478846D01*
X146165119Y-143230805D01*
X145500000Y-142565685D01*
X144834881Y-143230805D01*
X131702759Y-143230805D01*
X131893953Y-142944663D01*
X132050000Y-142160162D01*
X132050000Y-142079838D01*
X131893953Y-141295337D01*
X131449569Y-140630269D01*
X130784501Y-140185885D01*
X130000000Y-140029838D01*
X129215499Y-140185885D01*
X128550431Y-140630269D01*
X128250000Y-141079896D01*
X127949569Y-140630269D01*
X127284501Y-140185885D01*
X126500000Y-140029838D01*
X125715499Y-140185885D01*
X125050431Y-140630269D01*
X124606047Y-141295337D01*
X124450000Y-142079838D01*
X110568705Y-142079838D01*
X110791784Y-141922639D01*
X110881592Y-141028851D01*
X110791784Y-140577361D01*
X110516961Y-140383699D01*
X109650660Y-141250000D01*
X107529340Y-141250000D01*
X106663039Y-140383699D01*
X106388216Y-140577361D01*
X106298408Y-141471149D01*
X103325000Y-141471149D01*
X103325000Y-139323039D01*
X107723699Y-139323039D01*
X108590000Y-140189340D01*
X109456301Y-139323039D01*
X109262639Y-139048216D01*
X108553495Y-138976961D01*
X113443699Y-138976961D01*
X113637361Y-139251784D01*
X114531149Y-139341592D01*
X114982639Y-139251784D01*
X115176301Y-138976961D01*
X114310000Y-138110660D01*
X113443699Y-138976961D01*
X108553495Y-138976961D01*
X108368851Y-138958408D01*
X107917361Y-139048216D01*
X107723699Y-139323039D01*
X103325000Y-139323039D01*
X103325000Y-137631661D01*
X103511431Y-138082858D01*
X104143813Y-138716345D01*
X104970484Y-139059608D01*
X105865589Y-139060390D01*
X106692858Y-138718569D01*
X107326345Y-138086187D01*
X107362132Y-138000000D01*
X130789838Y-138000000D01*
X130945885Y-138784501D01*
X131390269Y-139449569D01*
X132055337Y-139893953D01*
X132839838Y-140050000D01*
X132920162Y-140050000D01*
X133704663Y-139893953D01*
X134369731Y-139449569D01*
X134814115Y-138784501D01*
X134889407Y-138405981D01*
X138449645Y-138405981D01*
X138761081Y-139159715D01*
X139337252Y-139736892D01*
X140090441Y-140049643D01*
X140905981Y-140050355D01*
X141449715Y-139825689D01*
X141449645Y-139905981D01*
X141761081Y-140659715D01*
X142337252Y-141236892D01*
X143090441Y-141549643D01*
X143710232Y-141550184D01*
X143496323Y-141764093D01*
X143948874Y-142216643D01*
X144021154Y-142580017D01*
X144269195Y-142665119D01*
X144934315Y-142000000D01*
X146065685Y-142000000D01*
X146730805Y-142665119D01*
X146978846Y-142580017D01*
X147010052Y-142405981D01*
X148449645Y-142405981D01*
X148761081Y-143159715D01*
X149337252Y-143736892D01*
X150090441Y-144049643D01*
X150905981Y-144050355D01*
X151659715Y-143738919D01*
X151969174Y-143429999D01*
X171957817Y-143429999D01*
X172710000Y-144182183D01*
X173462183Y-143429999D01*
X177037817Y-143429999D01*
X177790000Y-144182183D01*
X178542183Y-143429999D01*
X178410579Y-143170131D01*
X177678387Y-143068892D01*
X177169421Y-143170131D01*
X177037817Y-143429999D01*
X173462183Y-143429999D01*
X173330579Y-143170131D01*
X172598387Y-143068892D01*
X172089421Y-143170131D01*
X171957817Y-143429999D01*
X151969174Y-143429999D01*
X152236892Y-143162748D01*
X152481045Y-142574762D01*
X152959838Y-142670000D01*
X153040162Y-142670000D01*
X153824663Y-142513953D01*
X154489731Y-142069569D01*
X154934115Y-141404501D01*
X155090162Y-140620000D01*
X154934115Y-139835499D01*
X154609715Y-139350000D01*
X154934115Y-138864501D01*
X155090162Y-138080000D01*
X154934115Y-137295499D01*
X154609715Y-136810000D01*
X154934115Y-136324501D01*
X155090162Y-135540000D01*
X154934115Y-134755499D01*
X154496165Y-134100060D01*
X154558000Y-133950775D01*
X154558000Y-133589500D01*
X154368500Y-133400000D01*
X153400000Y-133400000D01*
X153400000Y-133561576D01*
X153040162Y-133490000D01*
X152959838Y-133490000D01*
X152600000Y-133561576D01*
X152600000Y-133400000D01*
X151631500Y-133400000D01*
X151442000Y-133589500D01*
X151442000Y-133950775D01*
X151503835Y-134100060D01*
X151065885Y-134755499D01*
X150909838Y-135540000D01*
X151065885Y-136324501D01*
X151390285Y-136810000D01*
X151065885Y-137295499D01*
X150909838Y-138080000D01*
X151065885Y-138864501D01*
X151390285Y-139350000D01*
X151065885Y-139835499D01*
X151032855Y-140001554D01*
X150909559Y-139950357D01*
X150094019Y-139949645D01*
X149340285Y-140261081D01*
X148763108Y-140837252D01*
X148450357Y-141590441D01*
X148449645Y-142405981D01*
X147010052Y-142405981D01*
X147088239Y-141969936D01*
X146978846Y-141419983D01*
X146730805Y-141334881D01*
X146065685Y-142000000D01*
X144934315Y-142000000D01*
X144651472Y-141717157D01*
X145217157Y-141151472D01*
X145500000Y-141434315D01*
X146165119Y-140769195D01*
X146080017Y-140521154D01*
X145725323Y-140457554D01*
X145440404Y-140172635D01*
X145549643Y-139909559D01*
X145550355Y-139094019D01*
X145238919Y-138340285D01*
X144805372Y-137905981D01*
X145199645Y-137905981D01*
X145511081Y-138659715D01*
X146087252Y-139236892D01*
X146840441Y-139549643D01*
X147655981Y-139550355D01*
X148409715Y-139238919D01*
X148986892Y-138662748D01*
X149299643Y-137909559D01*
X149300355Y-137094019D01*
X148988919Y-136340285D01*
X148412748Y-135763108D01*
X147659559Y-135450357D01*
X146844019Y-135449645D01*
X146090285Y-135761081D01*
X145513108Y-136337252D01*
X145200357Y-137090441D01*
X145199645Y-137905981D01*
X144805372Y-137905981D01*
X144662748Y-137763108D01*
X143909559Y-137450357D01*
X143094019Y-137449645D01*
X142550285Y-137674311D01*
X142550355Y-137594019D01*
X142238919Y-136840285D01*
X141662748Y-136263108D01*
X140909559Y-135950357D01*
X140094019Y-135949645D01*
X139340285Y-136261081D01*
X138763108Y-136837252D01*
X138450357Y-137590441D01*
X138449645Y-138405981D01*
X134889407Y-138405981D01*
X134970162Y-138000000D01*
X134814115Y-137215499D01*
X134369731Y-136550431D01*
X133704663Y-136106047D01*
X132920162Y-135950000D01*
X132839838Y-135950000D01*
X132055337Y-136106047D01*
X131390269Y-136550431D01*
X130945885Y-137215499D01*
X130789838Y-138000000D01*
X107362132Y-138000000D01*
X107664777Y-137271149D01*
X112018408Y-137271149D01*
X112108216Y-137722639D01*
X112383039Y-137916301D01*
X113249340Y-137050000D01*
X115370660Y-137050000D01*
X116236961Y-137916301D01*
X116511784Y-137722639D01*
X116601592Y-136828851D01*
X116511784Y-136377361D01*
X116236961Y-136183699D01*
X115370660Y-137050000D01*
X113249340Y-137050000D01*
X112383039Y-136183699D01*
X112108216Y-136377361D01*
X112018408Y-137271149D01*
X107664777Y-137271149D01*
X107669608Y-137259516D01*
X107670390Y-136364411D01*
X107328569Y-135537142D01*
X106915189Y-135123039D01*
X113443699Y-135123039D01*
X114310000Y-135989340D01*
X115176301Y-135123039D01*
X114982639Y-134848216D01*
X114088851Y-134758408D01*
X113637361Y-134848216D01*
X113443699Y-135123039D01*
X106915189Y-135123039D01*
X106696187Y-134903655D01*
X105869516Y-134560392D01*
X104974411Y-134559610D01*
X104147142Y-134901431D01*
X103513655Y-135533813D01*
X103325000Y-135988146D01*
X103325000Y-133544609D01*
X116009523Y-133544609D01*
X116427304Y-134555715D01*
X117200216Y-135329977D01*
X118210591Y-135749522D01*
X119304609Y-135750477D01*
X120315715Y-135332696D01*
X121089977Y-134559784D01*
X121446991Y-133700000D01*
X124425512Y-133700000D01*
X124425512Y-135300000D01*
X124512673Y-135763222D01*
X124786437Y-136188663D01*
X125204153Y-136474076D01*
X125700000Y-136574488D01*
X127300000Y-136574488D01*
X127763222Y-136487327D01*
X128188663Y-136213563D01*
X128247268Y-136127792D01*
X128286437Y-136188663D01*
X128704153Y-136474076D01*
X129200000Y-136574488D01*
X130800000Y-136574488D01*
X131263222Y-136487327D01*
X131688663Y-136213563D01*
X131974076Y-135795847D01*
X132074488Y-135300000D01*
X132074488Y-134730805D01*
X134834881Y-134730805D01*
X134919983Y-134978846D01*
X135530064Y-135088239D01*
X136080017Y-134978846D01*
X136165119Y-134730805D01*
X135500000Y-134065685D01*
X134834881Y-134730805D01*
X132074488Y-134730805D01*
X132074488Y-133700000D01*
X132042513Y-133530064D01*
X133911761Y-133530064D01*
X134021154Y-134080017D01*
X134269195Y-134165119D01*
X134934315Y-133500000D01*
X136065685Y-133500000D01*
X136730805Y-134165119D01*
X136978846Y-134080017D01*
X137010052Y-133905981D01*
X138449645Y-133905981D01*
X138761081Y-134659715D01*
X139337252Y-135236892D01*
X140090441Y-135549643D01*
X140905981Y-135550355D01*
X141597785Y-135264508D01*
X141761081Y-135659715D01*
X142337252Y-136236892D01*
X143090441Y-136549643D01*
X143905981Y-136550355D01*
X144659715Y-136238919D01*
X145236892Y-135662748D01*
X145549643Y-134909559D01*
X145550355Y-134094019D01*
X145238919Y-133340285D01*
X145149139Y-133250348D01*
X145236892Y-133162748D01*
X145304470Y-133000000D01*
X158529838Y-133000000D01*
X158685885Y-133784501D01*
X159010285Y-134270000D01*
X158685885Y-134755499D01*
X158529838Y-135540000D01*
X158685885Y-136324501D01*
X159010285Y-136810000D01*
X158685885Y-137295499D01*
X158529838Y-138080000D01*
X158685885Y-138864501D01*
X159010285Y-139350000D01*
X158685885Y-139835499D01*
X158529838Y-140620000D01*
X158685885Y-141404501D01*
X159130269Y-142069569D01*
X159795337Y-142513953D01*
X160579838Y-142670000D01*
X160660162Y-142670000D01*
X161444663Y-142513953D01*
X162109731Y-142069569D01*
X162554115Y-141404501D01*
X162710162Y-140620000D01*
X162554115Y-139835499D01*
X162229715Y-139350000D01*
X162554115Y-138864501D01*
X162710162Y-138080000D01*
X162554115Y-137295499D01*
X162229715Y-136810000D01*
X162554115Y-136324501D01*
X162698621Y-135598019D01*
X162837252Y-135736892D01*
X163590441Y-136049643D01*
X164050998Y-136050045D01*
X163761337Y-136236437D01*
X163475924Y-136654153D01*
X163375512Y-137150000D01*
X163375512Y-138850000D01*
X163462673Y-139313222D01*
X163628871Y-139571501D01*
X163518712Y-139736365D01*
X163358859Y-140540000D01*
X163518712Y-141343635D01*
X163973935Y-142024924D01*
X164655224Y-142480147D01*
X165458859Y-142640000D01*
X165541141Y-142640000D01*
X166344776Y-142480147D01*
X167026065Y-142024924D01*
X167481288Y-141343635D01*
X167641141Y-140540000D01*
X167481288Y-139736365D01*
X167370518Y-139570586D01*
X167475485Y-139416961D01*
X175133699Y-139416961D01*
X175327361Y-139691784D01*
X176221149Y-139781592D01*
X176672639Y-139691784D01*
X176866301Y-139416961D01*
X176000000Y-138550660D01*
X175133699Y-139416961D01*
X167475485Y-139416961D01*
X167524076Y-139345847D01*
X167624488Y-138850000D01*
X167624488Y-137711149D01*
X173708408Y-137711149D01*
X173798216Y-138162639D01*
X174073039Y-138356301D01*
X174939340Y-137490000D01*
X177060660Y-137490000D01*
X177926961Y-138356301D01*
X178201784Y-138162639D01*
X178291592Y-137268851D01*
X178201784Y-136817361D01*
X177926961Y-136623699D01*
X177060660Y-137490000D01*
X174939340Y-137490000D01*
X174073039Y-136623699D01*
X173798216Y-136817361D01*
X173708408Y-137711149D01*
X167624488Y-137711149D01*
X167624488Y-137150000D01*
X167537327Y-136686778D01*
X167263563Y-136261337D01*
X166845847Y-135975924D01*
X166350000Y-135875512D01*
X164829134Y-135875512D01*
X165159715Y-135738919D01*
X165668716Y-135230805D01*
X168334881Y-135230805D01*
X168419983Y-135478846D01*
X169030064Y-135588239D01*
X169156752Y-135563039D01*
X175133699Y-135563039D01*
X176000000Y-136429340D01*
X176866301Y-135563039D01*
X176672639Y-135288216D01*
X175778851Y-135198408D01*
X175327361Y-135288216D01*
X175133699Y-135563039D01*
X169156752Y-135563039D01*
X169580017Y-135478846D01*
X169665119Y-135230805D01*
X169000000Y-134565685D01*
X168334881Y-135230805D01*
X165668716Y-135230805D01*
X165736892Y-135162748D01*
X166049643Y-134409559D01*
X166049974Y-134030064D01*
X167411761Y-134030064D01*
X167521154Y-134580017D01*
X167769195Y-134665119D01*
X168434315Y-134000000D01*
X169565685Y-134000000D01*
X170230805Y-134665119D01*
X170478846Y-134580017D01*
X170588239Y-133969936D01*
X170478846Y-133419983D01*
X170230805Y-133334881D01*
X169565685Y-134000000D01*
X168434315Y-134000000D01*
X167769195Y-133334881D01*
X167521154Y-133419983D01*
X167411761Y-134030064D01*
X166049974Y-134030064D01*
X166050355Y-133594019D01*
X165738919Y-132840285D01*
X165667953Y-132769195D01*
X168334881Y-132769195D01*
X169000000Y-133434315D01*
X169665119Y-132769195D01*
X169580017Y-132521154D01*
X168969936Y-132411761D01*
X168419983Y-132521154D01*
X168334881Y-132769195D01*
X165667953Y-132769195D01*
X165162748Y-132263108D01*
X164409559Y-131950357D01*
X163594019Y-131949645D01*
X162840285Y-132261081D01*
X162609089Y-132491874D01*
X162554115Y-132215499D01*
X162109731Y-131550431D01*
X161444663Y-131106047D01*
X160660162Y-130950000D01*
X160579838Y-130950000D01*
X159795337Y-131106047D01*
X159130269Y-131550431D01*
X158685885Y-132215499D01*
X158529838Y-133000000D01*
X145304470Y-133000000D01*
X145549643Y-132409559D01*
X145549957Y-132049225D01*
X151442000Y-132049225D01*
X151442000Y-132410500D01*
X151631500Y-132600000D01*
X152600000Y-132600000D01*
X152600000Y-131631500D01*
X153400000Y-131631500D01*
X153400000Y-132600000D01*
X154368500Y-132600000D01*
X154558000Y-132410500D01*
X154558000Y-132049225D01*
X154442602Y-131770628D01*
X154229373Y-131557399D01*
X153950776Y-131442000D01*
X153589500Y-131442000D01*
X153400000Y-131631500D01*
X152600000Y-131631500D01*
X152410500Y-131442000D01*
X152049224Y-131442000D01*
X151770627Y-131557399D01*
X151557398Y-131770628D01*
X151442000Y-132049225D01*
X145549957Y-132049225D01*
X145550355Y-131594019D01*
X145238919Y-130840285D01*
X144662748Y-130263108D01*
X143909559Y-129950357D01*
X143094019Y-129949645D01*
X142340285Y-130261081D01*
X141763108Y-130837252D01*
X141450357Y-131590441D01*
X141450283Y-131674885D01*
X140909559Y-131450357D01*
X140094019Y-131449645D01*
X139340285Y-131761081D01*
X138763108Y-132337252D01*
X138450357Y-133090441D01*
X138449645Y-133905981D01*
X137010052Y-133905981D01*
X137088239Y-133469936D01*
X136978846Y-132919983D01*
X136730805Y-132834881D01*
X136065685Y-133500000D01*
X134934315Y-133500000D01*
X134269195Y-132834881D01*
X134021154Y-132919983D01*
X133911761Y-133530064D01*
X132042513Y-133530064D01*
X131987327Y-133236778D01*
X131845764Y-133016783D01*
X131893953Y-132944663D01*
X132028311Y-132269195D01*
X134834881Y-132269195D01*
X135500000Y-132934315D01*
X136165119Y-132269195D01*
X136080017Y-132021154D01*
X135469936Y-131911761D01*
X134919983Y-132021154D01*
X134834881Y-132269195D01*
X132028311Y-132269195D01*
X132050000Y-132160162D01*
X132050000Y-132079838D01*
X131893953Y-131295337D01*
X131449569Y-130630269D01*
X130784501Y-130185885D01*
X130000000Y-130029838D01*
X129215499Y-130185885D01*
X128550431Y-130630269D01*
X128250000Y-131079896D01*
X127949569Y-130630269D01*
X127284501Y-130185885D01*
X126500000Y-130029838D01*
X125715499Y-130185885D01*
X125050431Y-130630269D01*
X124606047Y-131295337D01*
X124450000Y-132079838D01*
X124450000Y-132160162D01*
X124606047Y-132944663D01*
X124654094Y-133016570D01*
X124525924Y-133204153D01*
X124425512Y-133700000D01*
X121446991Y-133700000D01*
X121509522Y-133549409D01*
X121510477Y-132455391D01*
X121092696Y-131444285D01*
X120319784Y-130670023D01*
X119309409Y-130250478D01*
X118215391Y-130249523D01*
X117204285Y-130667304D01*
X116430023Y-131440216D01*
X116010478Y-132450591D01*
X116009523Y-133544609D01*
X103325000Y-133544609D01*
X103325000Y-129635589D01*
X108249610Y-129635589D01*
X108591431Y-130462858D01*
X109223813Y-131096345D01*
X110050484Y-131439608D01*
X110945589Y-131440390D01*
X111772858Y-131098569D01*
X112406345Y-130466187D01*
X112503898Y-130231252D01*
X112617304Y-130505715D01*
X113390216Y-131279977D01*
X114400591Y-131699522D01*
X115494609Y-131700477D01*
X116505715Y-131282696D01*
X117279977Y-130509784D01*
X117699522Y-129499409D01*
X117699957Y-129000000D01*
X130789838Y-129000000D01*
X130945885Y-129784501D01*
X131390269Y-130449569D01*
X132055337Y-130893953D01*
X132839838Y-131050000D01*
X132920162Y-131050000D01*
X133704663Y-130893953D01*
X134369731Y-130449569D01*
X134814115Y-129784501D01*
X134889407Y-129405981D01*
X138449645Y-129405981D01*
X138761081Y-130159715D01*
X139337252Y-130736892D01*
X140090441Y-131049643D01*
X140905981Y-131050355D01*
X141659715Y-130738919D01*
X142236892Y-130162748D01*
X142549643Y-129409559D01*
X142550153Y-128825296D01*
X143090441Y-129049643D01*
X143905981Y-129050355D01*
X144659715Y-128738919D01*
X145236892Y-128162748D01*
X145549643Y-127409559D01*
X145550355Y-126594019D01*
X145238919Y-125840285D01*
X144662748Y-125263108D01*
X143909559Y-124950357D01*
X143094019Y-124949645D01*
X142340285Y-125261081D01*
X141763108Y-125837252D01*
X141450357Y-126590441D01*
X141449847Y-127174704D01*
X140909559Y-126950357D01*
X140094019Y-126949645D01*
X139340285Y-127261081D01*
X138763108Y-127837252D01*
X138450357Y-128590441D01*
X138449645Y-129405981D01*
X134889407Y-129405981D01*
X134970162Y-129000000D01*
X134814115Y-128215499D01*
X134369731Y-127550431D01*
X133704663Y-127106047D01*
X132920162Y-126950000D01*
X132839838Y-126950000D01*
X132055337Y-127106047D01*
X131390269Y-127550431D01*
X130945885Y-128215499D01*
X130789838Y-129000000D01*
X117699957Y-129000000D01*
X117700477Y-128405391D01*
X117282696Y-127394285D01*
X116509784Y-126620023D01*
X115499409Y-126200478D01*
X114405391Y-126199523D01*
X113394285Y-126617304D01*
X112620023Y-127390216D01*
X112403382Y-127911946D01*
X111776187Y-127283655D01*
X110949516Y-126940392D01*
X110054411Y-126939610D01*
X109227142Y-127281431D01*
X108593655Y-127913813D01*
X108250392Y-128740484D01*
X108249610Y-129635589D01*
X103325000Y-129635589D01*
X103325000Y-123700000D01*
X124425512Y-123700000D01*
X124425512Y-125300000D01*
X124512673Y-125763222D01*
X124786437Y-126188663D01*
X125204153Y-126474076D01*
X125700000Y-126574488D01*
X127300000Y-126574488D01*
X127763222Y-126487327D01*
X128188663Y-126213563D01*
X128247268Y-126127792D01*
X128286437Y-126188663D01*
X128704153Y-126474076D01*
X129200000Y-126574488D01*
X130800000Y-126574488D01*
X131263222Y-126487327D01*
X131688663Y-126213563D01*
X131974076Y-125795847D01*
X132074488Y-125300000D01*
X132074488Y-123700000D01*
X131987327Y-123236778D01*
X131713563Y-122811337D01*
X131295847Y-122525924D01*
X130800000Y-122425512D01*
X129200000Y-122425512D01*
X128736778Y-122512673D01*
X128311337Y-122786437D01*
X128252732Y-122872208D01*
X128213563Y-122811337D01*
X127795847Y-122525924D01*
X127300000Y-122425512D01*
X125700000Y-122425512D01*
X125236778Y-122512673D01*
X124811337Y-122786437D01*
X124525924Y-123204153D01*
X124425512Y-123700000D01*
X103325000Y-123700000D01*
X103325000Y-121639500D01*
X133592000Y-121639500D01*
X133592000Y-122050776D01*
X133707399Y-122329373D01*
X133920628Y-122542602D01*
X134199225Y-122658000D01*
X134610500Y-122658000D01*
X134800000Y-122468500D01*
X134800000Y-121450000D01*
X135700000Y-121450000D01*
X135700000Y-122468500D01*
X135889500Y-122658000D01*
X136300775Y-122658000D01*
X136579372Y-122542602D01*
X136792601Y-122329373D01*
X136908000Y-122050776D01*
X136908000Y-121639500D01*
X136718500Y-121450000D01*
X135700000Y-121450000D01*
X134800000Y-121450000D01*
X133781500Y-121450000D01*
X133592000Y-121639500D01*
X103325000Y-121639500D01*
X103325000Y-115500000D01*
X122725512Y-115500000D01*
X122725512Y-117500000D01*
X122812673Y-117963222D01*
X123086437Y-118388663D01*
X123504153Y-118674076D01*
X124000000Y-118774488D01*
X126000000Y-118774488D01*
X126463222Y-118687327D01*
X126888663Y-118413563D01*
X127174076Y-117995847D01*
X127274488Y-117500000D01*
X127274488Y-115500000D01*
X127256798Y-115405981D01*
X131699645Y-115405981D01*
X132011081Y-116159715D01*
X132587252Y-116736892D01*
X133340441Y-117049643D01*
X133619361Y-117049887D01*
X133428381Y-117240533D01*
X133100374Y-118030462D01*
X133099628Y-118885785D01*
X133426256Y-119676286D01*
X133623296Y-119873670D01*
X133592000Y-119949224D01*
X133592000Y-120360500D01*
X133781500Y-120550000D01*
X134676867Y-120550000D01*
X134820462Y-120609626D01*
X135675785Y-120610372D01*
X135821897Y-120550000D01*
X136718500Y-120550000D01*
X136908000Y-120360500D01*
X136908000Y-119949224D01*
X136876813Y-119873933D01*
X137051173Y-119699877D01*
X137587252Y-120236892D01*
X138340441Y-120549643D01*
X139155981Y-120550355D01*
X139909715Y-120238919D01*
X140486892Y-119662748D01*
X140799643Y-118909559D01*
X140800355Y-118094019D01*
X140488919Y-117340285D01*
X139912748Y-116763108D01*
X139159559Y-116450357D01*
X138344019Y-116449645D01*
X137590285Y-116761081D01*
X137083400Y-117267083D01*
X137073744Y-117243714D01*
X136469467Y-116638381D01*
X135679538Y-116310374D01*
X135339306Y-116310077D01*
X135486892Y-116162748D01*
X135799643Y-115409559D01*
X135800355Y-114594019D01*
X135488919Y-113840285D01*
X134912748Y-113263108D01*
X134880002Y-113249511D01*
X134880002Y-112837963D01*
X135026264Y-112725861D01*
X135296840Y-112320857D01*
X135205244Y-112050000D01*
X134180000Y-112050000D01*
X134180000Y-112600000D01*
X133080000Y-112600000D01*
X133080000Y-112050000D01*
X132054756Y-112050000D01*
X131963160Y-112320857D01*
X132233736Y-112725861D01*
X132379998Y-112837963D01*
X132379998Y-113358000D01*
X132493197Y-113358000D01*
X132013108Y-113837252D01*
X131700357Y-114590441D01*
X131699645Y-115405981D01*
X127256798Y-115405981D01*
X127187327Y-115036778D01*
X126913563Y-114611337D01*
X126495847Y-114325924D01*
X126000000Y-114225512D01*
X124000000Y-114225512D01*
X123536778Y-114312673D01*
X123111337Y-114586437D01*
X122825924Y-115004153D01*
X122725512Y-115500000D01*
X103325000Y-115500000D01*
X103325000Y-112930452D01*
X124276655Y-112930452D01*
X124392759Y-113186448D01*
X125084358Y-113290455D01*
X125607241Y-113186448D01*
X125723345Y-112930452D01*
X125000000Y-112207107D01*
X124276655Y-112930452D01*
X103325000Y-112930452D01*
X103325000Y-111584358D01*
X123209545Y-111584358D01*
X123313552Y-112107241D01*
X123569548Y-112223345D01*
X124292893Y-111500000D01*
X125707107Y-111500000D01*
X126430452Y-112223345D01*
X126686448Y-112107241D01*
X126790455Y-111415642D01*
X126686448Y-110892759D01*
X126430452Y-110776655D01*
X125707107Y-111500000D01*
X124292893Y-111500000D01*
X123569548Y-110776655D01*
X123313552Y-110892759D01*
X123209545Y-111584358D01*
X103325000Y-111584358D01*
X103325000Y-110926961D01*
X106083699Y-110926961D01*
X106277361Y-111201784D01*
X107171149Y-111291592D01*
X107622639Y-111201784D01*
X107816301Y-110926961D01*
X106958888Y-110069548D01*
X124276655Y-110069548D01*
X125000000Y-110792893D01*
X125113750Y-110679143D01*
X131963160Y-110679143D01*
X132054756Y-110950000D01*
X133080000Y-110950000D01*
X133080000Y-109914736D01*
X134180000Y-109914736D01*
X134180000Y-110950000D01*
X135205244Y-110950000D01*
X135296840Y-110679143D01*
X135026264Y-110274139D01*
X134450863Y-109833125D01*
X134180000Y-109914736D01*
X133080000Y-109914736D01*
X132809137Y-109833125D01*
X132233736Y-110274139D01*
X131963160Y-110679143D01*
X125113750Y-110679143D01*
X125723345Y-110069548D01*
X125607241Y-109813552D01*
X124915642Y-109709545D01*
X124392759Y-109813552D01*
X124276655Y-110069548D01*
X106958888Y-110069548D01*
X106950000Y-110060660D01*
X106083699Y-110926961D01*
X103325000Y-110926961D01*
X103325000Y-109221149D01*
X104658408Y-109221149D01*
X104748216Y-109672639D01*
X105023039Y-109866301D01*
X105889340Y-109000000D01*
X108010660Y-109000000D01*
X108876961Y-109866301D01*
X109151784Y-109672639D01*
X109196179Y-109230805D01*
X133084881Y-109230805D01*
X133169983Y-109478846D01*
X133780064Y-109588239D01*
X134330017Y-109478846D01*
X134415119Y-109230805D01*
X133750000Y-108565685D01*
X133084881Y-109230805D01*
X109196179Y-109230805D01*
X109241592Y-108778851D01*
X109151784Y-108327361D01*
X108876961Y-108133699D01*
X108010660Y-109000000D01*
X105889340Y-109000000D01*
X105023039Y-108133699D01*
X104748216Y-108327361D01*
X104658408Y-109221149D01*
X103325000Y-109221149D01*
X103325000Y-108030064D01*
X132161761Y-108030064D01*
X132271154Y-108580017D01*
X132519195Y-108665119D01*
X133184315Y-108000000D01*
X134315685Y-108000000D01*
X134980805Y-108665119D01*
X135228846Y-108580017D01*
X135260052Y-108405981D01*
X136699645Y-108405981D01*
X137011081Y-109159715D01*
X137587252Y-109736892D01*
X138340441Y-110049643D01*
X138946354Y-110050172D01*
X138875512Y-110400000D01*
X138875512Y-112600000D01*
X138962673Y-113063222D01*
X139236437Y-113488663D01*
X139654153Y-113774076D01*
X140150000Y-113874488D01*
X142350000Y-113874488D01*
X142813222Y-113787327D01*
X143238663Y-113513563D01*
X143524076Y-113095847D01*
X143624488Y-112600000D01*
X143624488Y-110400000D01*
X143537327Y-109936778D01*
X143263563Y-109511337D01*
X142845847Y-109225924D01*
X142350000Y-109125512D01*
X140502354Y-109125512D01*
X140799643Y-108409559D01*
X140799799Y-108230805D01*
X145084881Y-108230805D01*
X145169983Y-108478846D01*
X145780064Y-108588239D01*
X146330017Y-108478846D01*
X146415119Y-108230805D01*
X145750000Y-107565685D01*
X145084881Y-108230805D01*
X140799799Y-108230805D01*
X140800355Y-107594019D01*
X140488919Y-106840285D01*
X139912748Y-106263108D01*
X139159559Y-105950357D01*
X138344019Y-105949645D01*
X137590285Y-106261081D01*
X137013108Y-106837252D01*
X136700357Y-107590441D01*
X136699645Y-108405981D01*
X135260052Y-108405981D01*
X135338239Y-107969936D01*
X135228846Y-107419983D01*
X134980805Y-107334881D01*
X134315685Y-108000000D01*
X133184315Y-108000000D01*
X132519195Y-107334881D01*
X132271154Y-107419983D01*
X132161761Y-108030064D01*
X103325000Y-108030064D01*
X103325000Y-107073039D01*
X106083699Y-107073039D01*
X106950000Y-107939340D01*
X107816301Y-107073039D01*
X107622639Y-106798216D01*
X107333816Y-106769195D01*
X133084881Y-106769195D01*
X133750000Y-107434315D01*
X134415119Y-106769195D01*
X134330017Y-106521154D01*
X133719936Y-106411761D01*
X133169983Y-106521154D01*
X133084881Y-106769195D01*
X107333816Y-106769195D01*
X106728851Y-106708408D01*
X106277361Y-106798216D01*
X106083699Y-107073039D01*
X103325000Y-107073039D01*
X103325000Y-104859500D01*
X104692000Y-104859500D01*
X104692000Y-105570776D01*
X104807399Y-105849373D01*
X105020628Y-106062602D01*
X105299225Y-106178000D01*
X106010500Y-106178000D01*
X106200000Y-105988500D01*
X106200000Y-104670000D01*
X107700000Y-104670000D01*
X107700000Y-105988500D01*
X107889500Y-106178000D01*
X108600775Y-106178000D01*
X108879372Y-106062602D01*
X109092601Y-105849373D01*
X109208000Y-105570776D01*
X109208000Y-104859500D01*
X109018500Y-104670000D01*
X107700000Y-104670000D01*
X106200000Y-104670000D01*
X104881500Y-104670000D01*
X104692000Y-104859500D01*
X103325000Y-104859500D01*
X103325000Y-104130631D01*
X132205335Y-104130631D01*
X132502162Y-104574912D01*
X132999365Y-104924694D01*
X133230000Y-104816307D01*
X133230000Y-103900000D01*
X134030000Y-103900000D01*
X134030000Y-104816307D01*
X134260635Y-104924694D01*
X134757838Y-104574912D01*
X135054665Y-104130631D01*
X134938737Y-103900000D01*
X134030000Y-103900000D01*
X133230000Y-103900000D01*
X132321263Y-103900000D01*
X132205335Y-104130631D01*
X103325000Y-104130631D01*
X103325000Y-102269224D01*
X104692000Y-102269224D01*
X104692000Y-102980500D01*
X104881500Y-103170000D01*
X106200000Y-103170000D01*
X106200000Y-101851500D01*
X107700000Y-101851500D01*
X107700000Y-103170000D01*
X109018500Y-103170000D01*
X109208000Y-102980500D01*
X109208000Y-102269224D01*
X109092601Y-101990627D01*
X108879372Y-101777398D01*
X108600775Y-101662000D01*
X107889500Y-101662000D01*
X107700000Y-101851500D01*
X106200000Y-101851500D01*
X106010500Y-101662000D01*
X105299225Y-101662000D01*
X105020628Y-101777398D01*
X104807399Y-101990627D01*
X104692000Y-102269224D01*
X103325000Y-102269224D01*
X103325000Y-101445589D01*
X123249610Y-101445589D01*
X123591431Y-102272858D01*
X124223813Y-102906345D01*
X125050484Y-103249608D01*
X125945589Y-103250390D01*
X126772858Y-102908569D01*
X126812126Y-102869369D01*
X132205335Y-102869369D01*
X132321263Y-103100000D01*
X133230000Y-103100000D01*
X133230000Y-102183693D01*
X134030000Y-102183693D01*
X134030000Y-103100000D01*
X134938737Y-103100000D01*
X135054665Y-102869369D01*
X134757838Y-102425088D01*
X134260635Y-102075306D01*
X134030000Y-102183693D01*
X133230000Y-102183693D01*
X132999365Y-102075306D01*
X132502162Y-102425088D01*
X132205335Y-102869369D01*
X126812126Y-102869369D01*
X127406345Y-102276187D01*
X127749608Y-101449516D01*
X127750390Y-100554411D01*
X127408569Y-99727142D01*
X126776187Y-99093655D01*
X125949516Y-98750392D01*
X125054411Y-98749610D01*
X124227142Y-99091431D01*
X123593655Y-99723813D01*
X123250392Y-100550484D01*
X123249610Y-101445589D01*
X103325000Y-101445589D01*
X103325000Y-98500000D01*
X131709838Y-98500000D01*
X131865885Y-99284501D01*
X132310269Y-99949569D01*
X132975337Y-100393953D01*
X133759838Y-100550000D01*
X133840162Y-100550000D01*
X134624663Y-100393953D01*
X135289731Y-99949569D01*
X135734115Y-99284501D01*
X135890162Y-98500000D01*
X135734115Y-97715499D01*
X135289731Y-97050431D01*
X134627586Y-96608000D01*
X135500776Y-96608000D01*
X135779373Y-96492601D01*
X135992602Y-96279372D01*
X136108000Y-96000775D01*
X136108000Y-95489500D01*
X135918500Y-95300000D01*
X134800000Y-95300000D01*
X134800000Y-95850000D01*
X133700000Y-95850000D01*
X133700000Y-95300000D01*
X132581500Y-95300000D01*
X132392000Y-95489500D01*
X132392000Y-96000775D01*
X132507398Y-96279372D01*
X132720627Y-96492601D01*
X132988289Y-96603471D01*
X132975337Y-96606047D01*
X132310269Y-97050431D01*
X131865885Y-97715499D01*
X131709838Y-98500000D01*
X103325000Y-98500000D01*
X103325000Y-96689500D01*
X123742000Y-96689500D01*
X123742000Y-97150776D01*
X123857399Y-97429373D01*
X124070628Y-97642602D01*
X124349225Y-97758000D01*
X124810500Y-97758000D01*
X125000000Y-97568500D01*
X125000000Y-96500000D01*
X126000000Y-96500000D01*
X126000000Y-97568500D01*
X126189500Y-97758000D01*
X126650775Y-97758000D01*
X126929372Y-97642602D01*
X127142601Y-97429373D01*
X127258000Y-97150776D01*
X127258000Y-96689500D01*
X127068500Y-96500000D01*
X126000000Y-96500000D01*
X125000000Y-96500000D01*
X123931500Y-96500000D01*
X123742000Y-96689500D01*
X103325000Y-96689500D01*
X103325000Y-94849224D01*
X123742000Y-94849224D01*
X123742000Y-95310500D01*
X123931500Y-95500000D01*
X125000000Y-95500000D01*
X125000000Y-94431500D01*
X126000000Y-94431500D01*
X126000000Y-95500000D01*
X127068500Y-95500000D01*
X127258000Y-95310500D01*
X127258000Y-94849224D01*
X127142601Y-94570627D01*
X126929372Y-94357398D01*
X126650775Y-94242000D01*
X126189500Y-94242000D01*
X126000000Y-94431500D01*
X125000000Y-94431500D01*
X124810500Y-94242000D01*
X124349225Y-94242000D01*
X124070628Y-94357398D01*
X123857399Y-94570627D01*
X123742000Y-94849224D01*
X103325000Y-94849224D01*
X103325000Y-93499225D01*
X132392000Y-93499225D01*
X132392000Y-94010500D01*
X132581500Y-94200000D01*
X133700000Y-94200000D01*
X133700000Y-93081500D01*
X134800000Y-93081500D01*
X134800000Y-94200000D01*
X135918500Y-94200000D01*
X136108000Y-94010500D01*
X136108000Y-93499225D01*
X135992602Y-93220628D01*
X135805438Y-93033464D01*
X136080017Y-92978846D01*
X136165119Y-92730805D01*
X135500000Y-92065685D01*
X134834881Y-92730805D01*
X134915556Y-92965944D01*
X134800000Y-93081500D01*
X133700000Y-93081500D01*
X133510500Y-92892000D01*
X132999224Y-92892000D01*
X132720627Y-93007399D01*
X132507398Y-93220628D01*
X132392000Y-93499225D01*
X103325000Y-93499225D01*
X103325000Y-91530064D01*
X133911761Y-91530064D01*
X134021154Y-92080017D01*
X134269195Y-92165119D01*
X134934315Y-91500000D01*
X136065685Y-91500000D01*
X136730805Y-92165119D01*
X136978846Y-92080017D01*
X137010052Y-91905981D01*
X138449645Y-91905981D01*
X138761081Y-92659715D01*
X139337252Y-93236892D01*
X139905353Y-93472788D01*
X139652844Y-93850694D01*
X139473961Y-94750000D01*
X139652844Y-95649306D01*
X140162260Y-96411701D01*
X140924655Y-96921117D01*
X141823961Y-97100000D01*
X141916039Y-97100000D01*
X142815345Y-96921117D01*
X143577740Y-96411701D01*
X144087156Y-95649306D01*
X144142278Y-95372189D01*
X144261081Y-95659715D01*
X144837252Y-96236892D01*
X145590441Y-96549643D01*
X145851453Y-96549871D01*
X145340285Y-96761081D01*
X144763108Y-97337252D01*
X144450357Y-98090441D01*
X144449645Y-98905981D01*
X144622991Y-99325512D01*
X144350000Y-99325512D01*
X143886778Y-99412673D01*
X143461337Y-99686437D01*
X143175924Y-100104153D01*
X143075512Y-100600000D01*
X143075512Y-102400000D01*
X143127287Y-102675162D01*
X142988919Y-102340285D01*
X142412748Y-101763108D01*
X141659559Y-101450357D01*
X140844019Y-101449645D01*
X140090285Y-101761081D01*
X139513108Y-102337252D01*
X139200357Y-103090441D01*
X139199645Y-103905981D01*
X139511081Y-104659715D01*
X140087252Y-105236892D01*
X140840441Y-105549643D01*
X141655981Y-105550355D01*
X142409715Y-105238919D01*
X142986892Y-104662748D01*
X143099693Y-104391092D01*
X143099628Y-104465785D01*
X143426256Y-105256286D01*
X144030533Y-105861619D01*
X144467396Y-106043020D01*
X143746323Y-106764093D01*
X144198874Y-107216643D01*
X144271154Y-107580017D01*
X144519195Y-107665119D01*
X145184315Y-107000000D01*
X146315685Y-107000000D01*
X146980805Y-107665119D01*
X147228846Y-107580017D01*
X147338239Y-106969936D01*
X147228846Y-106419983D01*
X146980805Y-106334881D01*
X146315685Y-107000000D01*
X145184315Y-107000000D01*
X144901472Y-106717157D01*
X145428473Y-106190156D01*
X145505909Y-106190224D01*
X145750000Y-106434315D01*
X146217967Y-105966347D01*
X146466286Y-105863744D01*
X147071619Y-105259467D01*
X147399626Y-104469538D01*
X147400372Y-103614215D01*
X147186652Y-103096973D01*
X147324076Y-102895847D01*
X147424488Y-102400000D01*
X147424488Y-100600000D01*
X147378416Y-100355149D01*
X147659715Y-100238919D01*
X148236892Y-99662748D01*
X148500000Y-99029113D01*
X148500000Y-114798092D01*
X148384115Y-114215499D01*
X147939731Y-113550431D01*
X147435821Y-113213730D01*
X147486892Y-113162748D01*
X147799643Y-112409559D01*
X147800355Y-111594019D01*
X147488919Y-110840285D01*
X146912748Y-110263108D01*
X146159559Y-109950357D01*
X145344019Y-109949645D01*
X144590285Y-110261081D01*
X144013108Y-110837252D01*
X143700357Y-111590441D01*
X143699645Y-112405981D01*
X144011081Y-113159715D01*
X144587252Y-113736892D01*
X144781723Y-113817643D01*
X144515885Y-114215499D01*
X144359838Y-115000000D01*
X144515885Y-115784501D01*
X144960269Y-116449569D01*
X145369896Y-116723273D01*
X144880269Y-117050431D01*
X144435885Y-117715499D01*
X144279838Y-118500000D01*
X144435885Y-119284501D01*
X144880269Y-119949569D01*
X145545337Y-120393953D01*
X146329838Y-120550000D01*
X146410162Y-120550000D01*
X147194663Y-120393953D01*
X147859731Y-119949569D01*
X148304115Y-119284501D01*
X148460162Y-118500000D01*
X148304115Y-117715499D01*
X147859731Y-117050431D01*
X147450104Y-116776727D01*
X147939731Y-116449569D01*
X148384115Y-115784501D01*
X148500000Y-115201908D01*
X148500000Y-128256921D01*
X148034501Y-127945885D01*
X147250000Y-127789838D01*
X146465499Y-127945885D01*
X145800431Y-128390269D01*
X145356047Y-129055337D01*
X145200000Y-129839838D01*
X145200000Y-129920162D01*
X145356047Y-130704663D01*
X145800431Y-131369731D01*
X146465499Y-131814115D01*
X147250000Y-131970162D01*
X148034501Y-131814115D01*
X148699569Y-131369731D01*
X149113660Y-130750000D01*
X168750000Y-130750000D01*
X168847264Y-130730304D01*
X168929202Y-130674318D01*
X168982903Y-130590864D01*
X169000000Y-130500000D01*
X169000000Y-127874609D01*
X173249523Y-127874609D01*
X173667304Y-128885715D01*
X174440216Y-129659977D01*
X174946003Y-129869998D01*
X174444285Y-130077304D01*
X173670023Y-130850216D01*
X173250478Y-131860591D01*
X173249523Y-132954609D01*
X173667304Y-133965715D01*
X174440216Y-134739977D01*
X175450591Y-135159522D01*
X176544609Y-135160477D01*
X177555715Y-134742696D01*
X178329977Y-133969784D01*
X178749522Y-132959409D01*
X178750477Y-131865391D01*
X178332696Y-130854285D01*
X177559784Y-130080023D01*
X177053997Y-129870002D01*
X177555715Y-129662696D01*
X178329977Y-128889784D01*
X178749522Y-127879409D01*
X178750477Y-126785391D01*
X178332696Y-125774285D01*
X177559784Y-125000023D01*
X176549409Y-124580478D01*
X175455391Y-124579523D01*
X174444285Y-124997304D01*
X173670023Y-125770216D01*
X173250478Y-126780591D01*
X173249523Y-127874609D01*
X169000000Y-127874609D01*
X169000000Y-123189500D01*
X173742000Y-123189500D01*
X173742000Y-123900776D01*
X173857399Y-124179373D01*
X174070628Y-124392602D01*
X174349225Y-124508000D01*
X175060500Y-124508000D01*
X175250000Y-124318500D01*
X175250000Y-123000000D01*
X176750000Y-123000000D01*
X176750000Y-124318500D01*
X176939500Y-124508000D01*
X177650775Y-124508000D01*
X177929372Y-124392602D01*
X178142601Y-124179373D01*
X178258000Y-123900776D01*
X178258000Y-123189500D01*
X178068500Y-123000000D01*
X176750000Y-123000000D01*
X175250000Y-123000000D01*
X173931500Y-123000000D01*
X173742000Y-123189500D01*
X169000000Y-123189500D01*
X169000000Y-120599224D01*
X173742000Y-120599224D01*
X173742000Y-121310500D01*
X173931500Y-121500000D01*
X175250000Y-121500000D01*
X175250000Y-120181500D01*
X176750000Y-120181500D01*
X176750000Y-121500000D01*
X178068500Y-121500000D01*
X178258000Y-121310500D01*
X178258000Y-120599224D01*
X178142601Y-120320627D01*
X177929372Y-120107398D01*
X177650775Y-119992000D01*
X176939500Y-119992000D01*
X176750000Y-120181500D01*
X175250000Y-120181500D01*
X175060500Y-119992000D01*
X174349225Y-119992000D01*
X174070628Y-120107398D01*
X173857399Y-120320627D01*
X173742000Y-120599224D01*
X169000000Y-120599224D01*
X169000000Y-115784609D01*
X172999523Y-115784609D01*
X173417304Y-116795715D01*
X174190216Y-117569977D01*
X175200591Y-117989522D01*
X176294609Y-117990477D01*
X177305715Y-117572696D01*
X178079977Y-116799784D01*
X178499522Y-115789409D01*
X178500477Y-114695391D01*
X178082696Y-113684285D01*
X177309784Y-112910023D01*
X176299409Y-112490478D01*
X175205391Y-112489523D01*
X174194285Y-112907304D01*
X173420023Y-113680216D01*
X173000478Y-114690591D01*
X172999523Y-115784609D01*
X169000000Y-115784609D01*
X169000000Y-112086961D01*
X174883699Y-112086961D01*
X175077361Y-112361784D01*
X175971149Y-112451592D01*
X176422639Y-112361784D01*
X176616301Y-112086961D01*
X175750000Y-111220660D01*
X174883699Y-112086961D01*
X169000000Y-112086961D01*
X169000000Y-110381149D01*
X173458408Y-110381149D01*
X173548216Y-110832639D01*
X173823039Y-111026301D01*
X174689340Y-110160000D01*
X176810660Y-110160000D01*
X177676961Y-111026301D01*
X177951784Y-110832639D01*
X178041592Y-109938851D01*
X177951784Y-109487361D01*
X177676961Y-109293699D01*
X176810660Y-110160000D01*
X174689340Y-110160000D01*
X173823039Y-109293699D01*
X173548216Y-109487361D01*
X173458408Y-110381149D01*
X169000000Y-110381149D01*
X169000000Y-108233039D01*
X174883699Y-108233039D01*
X175750000Y-109099340D01*
X176616301Y-108233039D01*
X176422639Y-107958216D01*
X175528851Y-107868408D01*
X175077361Y-107958216D01*
X174883699Y-108233039D01*
X169000000Y-108233039D01*
X169000000Y-107006961D01*
X174883699Y-107006961D01*
X175077361Y-107281784D01*
X175971149Y-107371592D01*
X176422639Y-107281784D01*
X176616301Y-107006961D01*
X175750000Y-106140660D01*
X174883699Y-107006961D01*
X169000000Y-107006961D01*
X169000000Y-105301149D01*
X173458408Y-105301149D01*
X173548216Y-105752639D01*
X173823039Y-105946301D01*
X174689340Y-105080000D01*
X176810660Y-105080000D01*
X177676961Y-105946301D01*
X177951784Y-105752639D01*
X178041592Y-104858851D01*
X177951784Y-104407361D01*
X177676961Y-104213699D01*
X176810660Y-105080000D01*
X174689340Y-105080000D01*
X173823039Y-104213699D01*
X173548216Y-104407361D01*
X173458408Y-105301149D01*
X169000000Y-105301149D01*
X169000000Y-103153039D01*
X174883699Y-103153039D01*
X175750000Y-104019340D01*
X176616301Y-103153039D01*
X176422639Y-102878216D01*
X175528851Y-102788408D01*
X175077361Y-102878216D01*
X174883699Y-103153039D01*
X169000000Y-103153039D01*
X169000000Y-98500000D01*
X172975512Y-98500000D01*
X172975512Y-101500000D01*
X173062673Y-101963222D01*
X173336437Y-102388663D01*
X173754153Y-102674076D01*
X174250000Y-102774488D01*
X177250000Y-102774488D01*
X177713222Y-102687327D01*
X178138663Y-102413563D01*
X178424076Y-101995847D01*
X178524488Y-101500000D01*
X178524488Y-98500000D01*
X178437327Y-98036778D01*
X178163563Y-97611337D01*
X177745847Y-97325924D01*
X177250000Y-97225512D01*
X174250000Y-97225512D01*
X173786778Y-97312673D01*
X173361337Y-97586437D01*
X173075924Y-98004153D01*
X172975512Y-98500000D01*
X169000000Y-98500000D01*
X169000000Y-93070001D01*
X172707817Y-93070001D01*
X172839421Y-93329869D01*
X173571613Y-93431108D01*
X174080579Y-93329869D01*
X174212183Y-93070001D01*
X177787817Y-93070001D01*
X177919421Y-93329869D01*
X178651613Y-93431108D01*
X179160579Y-93329869D01*
X179292183Y-93070001D01*
X178540000Y-92317817D01*
X177787817Y-93070001D01*
X174212183Y-93070001D01*
X173460000Y-92317817D01*
X172707817Y-93070001D01*
X169000000Y-93070001D01*
X169000000Y-91651613D01*
X171568892Y-91651613D01*
X171670131Y-92160579D01*
X171929999Y-92292183D01*
X172682183Y-91540000D01*
X171929999Y-90787817D01*
X171670131Y-90919421D01*
X171568892Y-91651613D01*
X169000000Y-91651613D01*
X169000000Y-88500000D01*
X168980304Y-88402736D01*
X168924318Y-88320798D01*
X168840864Y-88267097D01*
X168750000Y-88250000D01*
X148750000Y-88250000D01*
X148652736Y-88269696D01*
X148570798Y-88325682D01*
X148517097Y-88409136D01*
X148500000Y-88500000D01*
X148500000Y-97972150D01*
X148238919Y-97340285D01*
X147662748Y-96763108D01*
X146909559Y-96450357D01*
X146648547Y-96450129D01*
X147159715Y-96238919D01*
X147736892Y-95662748D01*
X148049643Y-94909559D01*
X148050355Y-94094019D01*
X147738919Y-93340285D01*
X147162748Y-92763108D01*
X146409559Y-92450357D01*
X145594019Y-92449645D01*
X144840285Y-92761081D01*
X144263108Y-93337252D01*
X144064184Y-93816314D01*
X143577740Y-93088299D01*
X142815345Y-92578883D01*
X142313191Y-92478998D01*
X142549643Y-91909559D01*
X142550355Y-91094019D01*
X142400279Y-90730805D01*
X145334881Y-90730805D01*
X145419983Y-90978846D01*
X146030064Y-91088239D01*
X146580017Y-90978846D01*
X146665119Y-90730805D01*
X146000000Y-90065685D01*
X145334881Y-90730805D01*
X142400279Y-90730805D01*
X142238919Y-90340285D01*
X141662748Y-89763108D01*
X141101516Y-89530064D01*
X144411761Y-89530064D01*
X144521154Y-90080017D01*
X144769195Y-90165119D01*
X145434315Y-89500000D01*
X146565685Y-89500000D01*
X147230805Y-90165119D01*
X147478846Y-90080017D01*
X147588239Y-89469936D01*
X147478846Y-88919983D01*
X147230805Y-88834881D01*
X146565685Y-89500000D01*
X145434315Y-89500000D01*
X144769195Y-88834881D01*
X144521154Y-88919983D01*
X144411761Y-89530064D01*
X141101516Y-89530064D01*
X140909559Y-89450357D01*
X140094019Y-89449645D01*
X139340285Y-89761081D01*
X138763108Y-90337252D01*
X138450357Y-91090441D01*
X138449645Y-91905981D01*
X137010052Y-91905981D01*
X137088239Y-91469936D01*
X136978846Y-90919983D01*
X136730805Y-90834881D01*
X136065685Y-91500000D01*
X134934315Y-91500000D01*
X134269195Y-90834881D01*
X134021154Y-90919983D01*
X133911761Y-91530064D01*
X103325000Y-91530064D01*
X103325000Y-90269195D01*
X134834881Y-90269195D01*
X135500000Y-90934315D01*
X136165119Y-90269195D01*
X136080017Y-90021154D01*
X135469936Y-89911761D01*
X134919983Y-90021154D01*
X134834881Y-90269195D01*
X103325000Y-90269195D01*
X103325000Y-88176961D01*
X107723699Y-88176961D01*
X107917361Y-88451784D01*
X108811149Y-88541592D01*
X109262639Y-88451784D01*
X109456301Y-88176961D01*
X108590000Y-87310660D01*
X107723699Y-88176961D01*
X103325000Y-88176961D01*
X103325000Y-86471149D01*
X106298408Y-86471149D01*
X106388216Y-86922639D01*
X106663039Y-87116301D01*
X107529340Y-86250000D01*
X109650660Y-86250000D01*
X110516961Y-87116301D01*
X110568705Y-87079838D01*
X124450000Y-87079838D01*
X124450000Y-87160162D01*
X124606047Y-87944663D01*
X125050431Y-88609731D01*
X125715499Y-89054115D01*
X126500000Y-89210162D01*
X127284501Y-89054115D01*
X127949569Y-88609731D01*
X128250000Y-88160104D01*
X128550431Y-88609731D01*
X129215499Y-89054115D01*
X130000000Y-89210162D01*
X130784501Y-89054115D01*
X131449569Y-88609731D01*
X131677107Y-88269195D01*
X145334881Y-88269195D01*
X146000000Y-88934315D01*
X146665119Y-88269195D01*
X146580017Y-88021154D01*
X145969936Y-87911761D01*
X145419983Y-88021154D01*
X145334881Y-88269195D01*
X131677107Y-88269195D01*
X131893953Y-87944663D01*
X131936492Y-87730805D01*
X148334881Y-87730805D01*
X148419983Y-87978846D01*
X149030064Y-88088239D01*
X149523937Y-87990001D01*
X172707817Y-87990001D01*
X172839421Y-88249869D01*
X173571613Y-88351108D01*
X173581393Y-88349163D01*
X173759875Y-88527645D01*
X173750392Y-88550484D01*
X173749610Y-89445589D01*
X173760437Y-89471793D01*
X173554798Y-89677432D01*
X173348387Y-89648892D01*
X172839421Y-89750131D01*
X172707817Y-90009999D01*
X173460000Y-90762183D01*
X173848909Y-90373274D01*
X174626726Y-91151091D01*
X174237817Y-91540000D01*
X174990001Y-92292183D01*
X175249869Y-92160579D01*
X175351108Y-91428387D01*
X175349163Y-91418607D01*
X175527645Y-91240125D01*
X175550484Y-91249608D01*
X176445589Y-91250390D01*
X176471793Y-91239563D01*
X176677432Y-91445202D01*
X176648892Y-91651613D01*
X176750131Y-92160579D01*
X177009999Y-92292183D01*
X177762183Y-91540000D01*
X179317817Y-91540000D01*
X180070001Y-92292183D01*
X180329869Y-92160579D01*
X180431108Y-91428387D01*
X180329869Y-90919421D01*
X180070001Y-90787817D01*
X179317817Y-91540000D01*
X177762183Y-91540000D01*
X177373274Y-91151091D01*
X178151091Y-90373274D01*
X178540000Y-90762183D01*
X179292183Y-90009999D01*
X179160579Y-89750131D01*
X178428387Y-89648892D01*
X178418607Y-89650837D01*
X178240125Y-89472355D01*
X178249608Y-89449516D01*
X178250390Y-88554411D01*
X178239563Y-88528207D01*
X178445202Y-88322568D01*
X178651613Y-88351108D01*
X179160579Y-88249869D01*
X179292183Y-87990001D01*
X178540000Y-87237817D01*
X178151091Y-87626726D01*
X177373274Y-86848909D01*
X177762183Y-86460000D01*
X179317817Y-86460000D01*
X180070001Y-87212183D01*
X180329869Y-87080579D01*
X180431108Y-86348387D01*
X180329869Y-85839421D01*
X180070001Y-85707817D01*
X179317817Y-86460000D01*
X177762183Y-86460000D01*
X177009999Y-85707817D01*
X176750131Y-85839421D01*
X176648892Y-86571613D01*
X176650837Y-86581393D01*
X176472355Y-86759875D01*
X176449516Y-86750392D01*
X175554411Y-86749610D01*
X175528207Y-86760437D01*
X175322568Y-86554798D01*
X175351108Y-86348387D01*
X175249869Y-85839421D01*
X174990001Y-85707817D01*
X174237817Y-86460000D01*
X174626726Y-86848909D01*
X173848909Y-87626726D01*
X173460000Y-87237817D01*
X172707817Y-87990001D01*
X149523937Y-87990001D01*
X149580017Y-87978846D01*
X149665119Y-87730805D01*
X149000000Y-87065685D01*
X148334881Y-87730805D01*
X131936492Y-87730805D01*
X132050000Y-87160162D01*
X132050000Y-87079838D01*
X131893953Y-86295337D01*
X131449569Y-85630269D01*
X130784501Y-85185885D01*
X130000000Y-85029838D01*
X129215499Y-85185885D01*
X128550431Y-85630269D01*
X128250000Y-86079896D01*
X127949569Y-85630269D01*
X127284501Y-85185885D01*
X126500000Y-85029838D01*
X125715499Y-85185885D01*
X125050431Y-85630269D01*
X124606047Y-86295337D01*
X124450000Y-87079838D01*
X110568705Y-87079838D01*
X110791784Y-86922639D01*
X110881592Y-86028851D01*
X110791784Y-85577361D01*
X110516961Y-85383699D01*
X109650660Y-86250000D01*
X107529340Y-86250000D01*
X106663039Y-85383699D01*
X106388216Y-85577361D01*
X106298408Y-86471149D01*
X103325000Y-86471149D01*
X103325000Y-84323039D01*
X107723699Y-84323039D01*
X108590000Y-85189340D01*
X109456301Y-84323039D01*
X109262639Y-84048216D01*
X108553495Y-83976961D01*
X113443699Y-83976961D01*
X113637361Y-84251784D01*
X114531149Y-84341592D01*
X114982639Y-84251784D01*
X115176301Y-83976961D01*
X114310000Y-83110660D01*
X113443699Y-83976961D01*
X108553495Y-83976961D01*
X108368851Y-83958408D01*
X107917361Y-84048216D01*
X107723699Y-84323039D01*
X103325000Y-84323039D01*
X103325000Y-82631661D01*
X103511431Y-83082858D01*
X104143813Y-83716345D01*
X104970484Y-84059608D01*
X105865589Y-84060390D01*
X106692858Y-83718569D01*
X107326345Y-83086187D01*
X107362132Y-83000000D01*
X130789838Y-83000000D01*
X130945885Y-83784501D01*
X131390269Y-84449569D01*
X132055337Y-84893953D01*
X132839838Y-85050000D01*
X132920162Y-85050000D01*
X133704663Y-84893953D01*
X134369731Y-84449569D01*
X134814115Y-83784501D01*
X134889407Y-83405981D01*
X138449645Y-83405981D01*
X138761081Y-84159715D01*
X139337252Y-84736892D01*
X140090441Y-85049643D01*
X140905981Y-85050355D01*
X141659715Y-84738919D01*
X142050822Y-84348493D01*
X141950357Y-84590441D01*
X141949645Y-85405981D01*
X142261081Y-86159715D01*
X142837252Y-86736892D01*
X143590441Y-87049643D01*
X144405981Y-87050355D01*
X145159715Y-86738919D01*
X145368934Y-86530064D01*
X147411761Y-86530064D01*
X147521154Y-87080017D01*
X147769195Y-87165119D01*
X148434315Y-86500000D01*
X149565685Y-86500000D01*
X150230805Y-87165119D01*
X150478846Y-87080017D01*
X150588239Y-86469936D01*
X150478846Y-85919983D01*
X150230805Y-85834881D01*
X149565685Y-86500000D01*
X148434315Y-86500000D01*
X147769195Y-85834881D01*
X147521154Y-85919983D01*
X147411761Y-86530064D01*
X145368934Y-86530064D01*
X145736892Y-86162748D01*
X146049643Y-85409559D01*
X146049765Y-85269195D01*
X148334881Y-85269195D01*
X149000000Y-85934315D01*
X149665119Y-85269195D01*
X149580017Y-85021154D01*
X148969936Y-84911761D01*
X148419983Y-85021154D01*
X148334881Y-85269195D01*
X146049765Y-85269195D01*
X146050355Y-84594019D01*
X145738919Y-83840285D01*
X145162748Y-83263108D01*
X144409559Y-82950357D01*
X143594019Y-82949645D01*
X142840285Y-83261081D01*
X142449178Y-83651507D01*
X142549643Y-83409559D01*
X142550355Y-82594019D01*
X142238919Y-81840285D01*
X141662748Y-81263108D01*
X140909559Y-80950357D01*
X140094019Y-80949645D01*
X139340285Y-81261081D01*
X138763108Y-81837252D01*
X138450357Y-82590441D01*
X138449645Y-83405981D01*
X134889407Y-83405981D01*
X134970162Y-83000000D01*
X134814115Y-82215499D01*
X134369731Y-81550431D01*
X133704663Y-81106047D01*
X132920162Y-80950000D01*
X132839838Y-80950000D01*
X132055337Y-81106047D01*
X131390269Y-81550431D01*
X130945885Y-82215499D01*
X130789838Y-83000000D01*
X107362132Y-83000000D01*
X107664777Y-82271149D01*
X112018408Y-82271149D01*
X112108216Y-82722639D01*
X112383039Y-82916301D01*
X113249340Y-82050000D01*
X115370660Y-82050000D01*
X116236961Y-82916301D01*
X116511784Y-82722639D01*
X116601592Y-81828851D01*
X116511784Y-81377361D01*
X116236961Y-81183699D01*
X115370660Y-82050000D01*
X113249340Y-82050000D01*
X112383039Y-81183699D01*
X112108216Y-81377361D01*
X112018408Y-82271149D01*
X107664777Y-82271149D01*
X107669608Y-82259516D01*
X107670390Y-81364411D01*
X107328569Y-80537142D01*
X106915189Y-80123039D01*
X113443699Y-80123039D01*
X114310000Y-80989340D01*
X115176301Y-80123039D01*
X114982639Y-79848216D01*
X114088851Y-79758408D01*
X113637361Y-79848216D01*
X113443699Y-80123039D01*
X106915189Y-80123039D01*
X106696187Y-79903655D01*
X105869516Y-79560392D01*
X104974411Y-79559610D01*
X104147142Y-79901431D01*
X103513655Y-80533813D01*
X103325000Y-80988146D01*
X103325000Y-78544609D01*
X116009523Y-78544609D01*
X116427304Y-79555715D01*
X117200216Y-80329977D01*
X118210591Y-80749522D01*
X119304609Y-80750477D01*
X120315715Y-80332696D01*
X121089977Y-79559784D01*
X121446991Y-78700000D01*
X124425512Y-78700000D01*
X124425512Y-80300000D01*
X124512673Y-80763222D01*
X124786437Y-81188663D01*
X125204153Y-81474076D01*
X125700000Y-81574488D01*
X127300000Y-81574488D01*
X127763222Y-81487327D01*
X128188663Y-81213563D01*
X128247268Y-81127792D01*
X128286437Y-81188663D01*
X128704153Y-81474076D01*
X129200000Y-81574488D01*
X130800000Y-81574488D01*
X131263222Y-81487327D01*
X131688663Y-81213563D01*
X131974076Y-80795847D01*
X132074488Y-80300000D01*
X132074488Y-79730805D01*
X135334881Y-79730805D01*
X135419983Y-79978846D01*
X136030064Y-80088239D01*
X136580017Y-79978846D01*
X136665119Y-79730805D01*
X136000000Y-79065685D01*
X135334881Y-79730805D01*
X132074488Y-79730805D01*
X132074488Y-78700000D01*
X132042513Y-78530064D01*
X134411761Y-78530064D01*
X134521154Y-79080017D01*
X134769195Y-79165119D01*
X135434315Y-78500000D01*
X136565685Y-78500000D01*
X137230805Y-79165119D01*
X137478846Y-79080017D01*
X137510052Y-78905981D01*
X138949645Y-78905981D01*
X139261081Y-79659715D01*
X139837252Y-80236892D01*
X140590441Y-80549643D01*
X141405981Y-80550355D01*
X141949715Y-80325689D01*
X141949645Y-80405981D01*
X142261081Y-81159715D01*
X142837252Y-81736892D01*
X143590441Y-82049643D01*
X144405981Y-82050355D01*
X144755393Y-81905981D01*
X146949645Y-81905981D01*
X147261081Y-82659715D01*
X147837252Y-83236892D01*
X148590441Y-83549643D01*
X149405981Y-83550355D01*
X150159715Y-83238919D01*
X150442294Y-82956832D01*
X150409838Y-83120000D01*
X150565885Y-83904501D01*
X151010269Y-84569569D01*
X151675337Y-85013953D01*
X152459838Y-85170000D01*
X152540162Y-85170000D01*
X153324663Y-85013953D01*
X153989731Y-84569569D01*
X154434115Y-83904501D01*
X154590162Y-83120000D01*
X154434115Y-82335499D01*
X154109715Y-81850000D01*
X154434115Y-81364501D01*
X154590162Y-80580000D01*
X154434115Y-79795499D01*
X154109715Y-79310000D01*
X154434115Y-78824501D01*
X154590162Y-78040000D01*
X154434115Y-77255499D01*
X153996165Y-76600060D01*
X154058000Y-76450775D01*
X154058000Y-76089500D01*
X153868500Y-75900000D01*
X152900000Y-75900000D01*
X152900000Y-76061576D01*
X152540162Y-75990000D01*
X152459838Y-75990000D01*
X152100000Y-76061576D01*
X152100000Y-75900000D01*
X151131500Y-75900000D01*
X150942000Y-76089500D01*
X150942000Y-76450775D01*
X151003835Y-76600060D01*
X150565885Y-77255499D01*
X150409838Y-78040000D01*
X150565885Y-78824501D01*
X150890285Y-79310000D01*
X150565885Y-79795499D01*
X150504275Y-80105232D01*
X150162748Y-79763108D01*
X149409559Y-79450357D01*
X148594019Y-79449645D01*
X147840285Y-79761081D01*
X147263108Y-80337252D01*
X146950357Y-81090441D01*
X146949645Y-81905981D01*
X144755393Y-81905981D01*
X145159715Y-81738919D01*
X145736892Y-81162748D01*
X146049643Y-80409559D01*
X146050355Y-79594019D01*
X145804692Y-78999468D01*
X146049643Y-78409559D01*
X146050355Y-77594019D01*
X145738919Y-76840285D01*
X145162748Y-76263108D01*
X144409559Y-75950357D01*
X143594019Y-75949645D01*
X142840285Y-76261081D01*
X142263108Y-76837252D01*
X142255369Y-76855890D01*
X142162748Y-76763108D01*
X141409559Y-76450357D01*
X140594019Y-76449645D01*
X139840285Y-76761081D01*
X139263108Y-77337252D01*
X138950357Y-78090441D01*
X138949645Y-78905981D01*
X137510052Y-78905981D01*
X137588239Y-78469936D01*
X137478846Y-77919983D01*
X137230805Y-77834881D01*
X136565685Y-78500000D01*
X135434315Y-78500000D01*
X134769195Y-77834881D01*
X134521154Y-77919983D01*
X134411761Y-78530064D01*
X132042513Y-78530064D01*
X131987327Y-78236778D01*
X131845764Y-78016783D01*
X131893953Y-77944663D01*
X132028311Y-77269195D01*
X135334881Y-77269195D01*
X136000000Y-77934315D01*
X136665119Y-77269195D01*
X136580017Y-77021154D01*
X135969936Y-76911761D01*
X135419983Y-77021154D01*
X135334881Y-77269195D01*
X132028311Y-77269195D01*
X132050000Y-77160162D01*
X132050000Y-77079838D01*
X131893953Y-76295337D01*
X131449569Y-75630269D01*
X130784501Y-75185885D01*
X130000000Y-75029838D01*
X129215499Y-75185885D01*
X128550431Y-75630269D01*
X128250000Y-76079896D01*
X127949569Y-75630269D01*
X127284501Y-75185885D01*
X126500000Y-75029838D01*
X125715499Y-75185885D01*
X125050431Y-75630269D01*
X124606047Y-76295337D01*
X124450000Y-77079838D01*
X124450000Y-77160162D01*
X124606047Y-77944663D01*
X124654094Y-78016570D01*
X124525924Y-78204153D01*
X124425512Y-78700000D01*
X121446991Y-78700000D01*
X121509522Y-78549409D01*
X121510477Y-77455391D01*
X121092696Y-76444285D01*
X120319784Y-75670023D01*
X119309409Y-75250478D01*
X118215391Y-75249523D01*
X117204285Y-75667304D01*
X116430023Y-76440216D01*
X116010478Y-77450591D01*
X116009523Y-78544609D01*
X103325000Y-78544609D01*
X103325000Y-74635589D01*
X108249610Y-74635589D01*
X108591431Y-75462858D01*
X109223813Y-76096345D01*
X110050484Y-76439608D01*
X110945589Y-76440390D01*
X111772858Y-76098569D01*
X112406345Y-75466187D01*
X112503898Y-75231252D01*
X112617304Y-75505715D01*
X113390216Y-76279977D01*
X114400591Y-76699522D01*
X115494609Y-76700477D01*
X116505715Y-76282696D01*
X117279977Y-75509784D01*
X117699522Y-74499409D01*
X117699957Y-74000000D01*
X130789838Y-74000000D01*
X130945885Y-74784501D01*
X131390269Y-75449569D01*
X132055337Y-75893953D01*
X132839838Y-76050000D01*
X132920162Y-76050000D01*
X133704663Y-75893953D01*
X134369731Y-75449569D01*
X134814115Y-74784501D01*
X134889407Y-74405981D01*
X138449645Y-74405981D01*
X138761081Y-75159715D01*
X139337252Y-75736892D01*
X140090441Y-76049643D01*
X140905981Y-76050355D01*
X141659715Y-75738919D01*
X141899051Y-75500000D01*
X158029838Y-75500000D01*
X158185885Y-76284501D01*
X158510285Y-76770000D01*
X158185885Y-77255499D01*
X158029838Y-78040000D01*
X158185885Y-78824501D01*
X158510285Y-79310000D01*
X158185885Y-79795499D01*
X158029838Y-80580000D01*
X158185885Y-81364501D01*
X158510285Y-81850000D01*
X158185885Y-82335499D01*
X158029838Y-83120000D01*
X158185885Y-83904501D01*
X158630269Y-84569569D01*
X159295337Y-85013953D01*
X160079838Y-85170000D01*
X160160162Y-85170000D01*
X160944663Y-85013953D01*
X161609731Y-84569569D01*
X161629488Y-84540000D01*
X163858859Y-84540000D01*
X164018712Y-85343635D01*
X164473935Y-86024924D01*
X165155224Y-86480147D01*
X165958859Y-86640000D01*
X166041141Y-86640000D01*
X166384945Y-86571613D01*
X171568892Y-86571613D01*
X171670131Y-87080579D01*
X171929999Y-87212183D01*
X172682183Y-86460000D01*
X171929999Y-85707817D01*
X171670131Y-85839421D01*
X171568892Y-86571613D01*
X166384945Y-86571613D01*
X166844776Y-86480147D01*
X167526065Y-86024924D01*
X167981288Y-85343635D01*
X168063565Y-84929999D01*
X172707817Y-84929999D01*
X173460000Y-85682183D01*
X174212183Y-84929999D01*
X177787817Y-84929999D01*
X178540000Y-85682183D01*
X179292183Y-84929999D01*
X179160579Y-84670131D01*
X178428387Y-84568892D01*
X177919421Y-84670131D01*
X177787817Y-84929999D01*
X174212183Y-84929999D01*
X174080579Y-84670131D01*
X173348387Y-84568892D01*
X172839421Y-84670131D01*
X172707817Y-84929999D01*
X168063565Y-84929999D01*
X168141141Y-84540000D01*
X167981288Y-83736365D01*
X167870518Y-83570586D01*
X168024076Y-83345847D01*
X168124488Y-82850000D01*
X168124488Y-81150000D01*
X168037327Y-80686778D01*
X167763563Y-80261337D01*
X167345847Y-79975924D01*
X166850000Y-79875512D01*
X165150000Y-79875512D01*
X164686778Y-79962673D01*
X164261337Y-80236437D01*
X163975924Y-80654153D01*
X163875512Y-81150000D01*
X163875512Y-82850000D01*
X163962673Y-83313222D01*
X164128871Y-83571501D01*
X164018712Y-83736365D01*
X163858859Y-84540000D01*
X161629488Y-84540000D01*
X162054115Y-83904501D01*
X162210162Y-83120000D01*
X162054115Y-82335499D01*
X161729715Y-81850000D01*
X162054115Y-81364501D01*
X162210162Y-80580000D01*
X162060932Y-79829772D01*
X162590441Y-80049643D01*
X163405981Y-80050355D01*
X164159715Y-79738919D01*
X164668716Y-79230805D01*
X167334881Y-79230805D01*
X167419983Y-79478846D01*
X168030064Y-79588239D01*
X168580017Y-79478846D01*
X168665119Y-79230805D01*
X168601276Y-79166961D01*
X175133699Y-79166961D01*
X175327361Y-79441784D01*
X176221149Y-79531592D01*
X176672639Y-79441784D01*
X176866301Y-79166961D01*
X176000000Y-78300660D01*
X175133699Y-79166961D01*
X168601276Y-79166961D01*
X168000000Y-78565685D01*
X167334881Y-79230805D01*
X164668716Y-79230805D01*
X164736892Y-79162748D01*
X165049643Y-78409559D01*
X165049974Y-78030064D01*
X166411761Y-78030064D01*
X166521154Y-78580017D01*
X166769195Y-78665119D01*
X167434315Y-78000000D01*
X168565685Y-78000000D01*
X169230805Y-78665119D01*
X169478846Y-78580017D01*
X169588239Y-77969936D01*
X169487035Y-77461149D01*
X173708408Y-77461149D01*
X173798216Y-77912639D01*
X174073039Y-78106301D01*
X174939340Y-77240000D01*
X177060660Y-77240000D01*
X177926961Y-78106301D01*
X178201784Y-77912639D01*
X178291592Y-77018851D01*
X178201784Y-76567361D01*
X177926961Y-76373699D01*
X177060660Y-77240000D01*
X174939340Y-77240000D01*
X174073039Y-76373699D01*
X173798216Y-76567361D01*
X173708408Y-77461149D01*
X169487035Y-77461149D01*
X169478846Y-77419983D01*
X169230805Y-77334881D01*
X168565685Y-78000000D01*
X167434315Y-78000000D01*
X166769195Y-77334881D01*
X166521154Y-77419983D01*
X166411761Y-78030064D01*
X165049974Y-78030064D01*
X165050355Y-77594019D01*
X164738919Y-76840285D01*
X164667953Y-76769195D01*
X167334881Y-76769195D01*
X168000000Y-77434315D01*
X168665119Y-76769195D01*
X168580017Y-76521154D01*
X167969936Y-76411761D01*
X167419983Y-76521154D01*
X167334881Y-76769195D01*
X164667953Y-76769195D01*
X164162748Y-76263108D01*
X163409559Y-75950357D01*
X162594019Y-75949645D01*
X162078339Y-76162719D01*
X162210162Y-75500000D01*
X162172974Y-75313039D01*
X175133699Y-75313039D01*
X176000000Y-76179340D01*
X176866301Y-75313039D01*
X176672639Y-75038216D01*
X175778851Y-74948408D01*
X175327361Y-75038216D01*
X175133699Y-75313039D01*
X162172974Y-75313039D01*
X162054115Y-74715499D01*
X161609731Y-74050431D01*
X160944663Y-73606047D01*
X160160162Y-73450000D01*
X160079838Y-73450000D01*
X159295337Y-73606047D01*
X158630269Y-74050431D01*
X158185885Y-74715499D01*
X158029838Y-75500000D01*
X141899051Y-75500000D01*
X142236892Y-75162748D01*
X142538141Y-74437259D01*
X142837252Y-74736892D01*
X143590441Y-75049643D01*
X144405981Y-75050355D01*
X145159715Y-74738919D01*
X145349740Y-74549225D01*
X150942000Y-74549225D01*
X150942000Y-74910500D01*
X151131500Y-75100000D01*
X152100000Y-75100000D01*
X152100000Y-74131500D01*
X152900000Y-74131500D01*
X152900000Y-75100000D01*
X153868500Y-75100000D01*
X154058000Y-74910500D01*
X154058000Y-74549225D01*
X153942602Y-74270628D01*
X153729373Y-74057399D01*
X153450776Y-73942000D01*
X153089500Y-73942000D01*
X152900000Y-74131500D01*
X152100000Y-74131500D01*
X151910500Y-73942000D01*
X151549224Y-73942000D01*
X151270627Y-74057399D01*
X151057398Y-74270628D01*
X150942000Y-74549225D01*
X145349740Y-74549225D01*
X145736892Y-74162748D01*
X146049643Y-73409559D01*
X146050355Y-72594019D01*
X145738919Y-71840285D01*
X145553287Y-71654328D01*
X145859731Y-71449569D01*
X146304115Y-70784501D01*
X146460162Y-70000000D01*
X146342005Y-69405981D01*
X152449645Y-69405981D01*
X152761081Y-70159715D01*
X153337252Y-70736892D01*
X154090441Y-71049643D01*
X154905981Y-71050355D01*
X155659715Y-70738919D01*
X156236892Y-70162748D01*
X156549643Y-69409559D01*
X156550355Y-68594019D01*
X156387550Y-68200000D01*
X157425512Y-68200000D01*
X157425512Y-69800000D01*
X157512673Y-70263222D01*
X157786437Y-70688663D01*
X158204153Y-70974076D01*
X158700000Y-71074488D01*
X160300000Y-71074488D01*
X160763222Y-70987327D01*
X161188663Y-70713563D01*
X161474076Y-70295847D01*
X161574488Y-69800000D01*
X161574488Y-68200000D01*
X161487327Y-67736778D01*
X161415149Y-67624609D01*
X173249523Y-67624609D01*
X173667304Y-68635715D01*
X174440216Y-69409977D01*
X174946003Y-69619998D01*
X174444285Y-69827304D01*
X173670023Y-70600216D01*
X173250478Y-71610591D01*
X173249523Y-72704609D01*
X173667304Y-73715715D01*
X174440216Y-74489977D01*
X175450591Y-74909522D01*
X176544609Y-74910477D01*
X177555715Y-74492696D01*
X178329977Y-73719784D01*
X178749522Y-72709409D01*
X178750477Y-71615391D01*
X178332696Y-70604285D01*
X177559784Y-69830023D01*
X177053997Y-69620002D01*
X177555715Y-69412696D01*
X178329977Y-68639784D01*
X178749522Y-67629409D01*
X178750477Y-66535391D01*
X178332696Y-65524285D01*
X177559784Y-64750023D01*
X176549409Y-64330478D01*
X175455391Y-64329523D01*
X174444285Y-64747304D01*
X173670023Y-65520216D01*
X173250478Y-66530591D01*
X173249523Y-67624609D01*
X161415149Y-67624609D01*
X161213563Y-67311337D01*
X160795847Y-67025924D01*
X160300000Y-66925512D01*
X158700000Y-66925512D01*
X158236778Y-67012673D01*
X157811337Y-67286437D01*
X157525924Y-67704153D01*
X157425512Y-68200000D01*
X156387550Y-68200000D01*
X156238919Y-67840285D01*
X155662748Y-67263108D01*
X154909559Y-66950357D01*
X154094019Y-66949645D01*
X153340285Y-67261081D01*
X152763108Y-67837252D01*
X152450357Y-68590441D01*
X152449645Y-69405981D01*
X146342005Y-69405981D01*
X146304115Y-69215499D01*
X145859731Y-68550431D01*
X145194663Y-68106047D01*
X144410162Y-67950000D01*
X144329838Y-67950000D01*
X143545337Y-68106047D01*
X142880269Y-68550431D01*
X142435885Y-69215499D01*
X142279838Y-70000000D01*
X142435885Y-70784501D01*
X142788720Y-71312556D01*
X142263108Y-71837252D01*
X141961859Y-72562741D01*
X141662748Y-72263108D01*
X140909559Y-71950357D01*
X140094019Y-71949645D01*
X139340285Y-72261081D01*
X138763108Y-72837252D01*
X138450357Y-73590441D01*
X138449645Y-74405981D01*
X134889407Y-74405981D01*
X134970162Y-74000000D01*
X134814115Y-73215499D01*
X134369731Y-72550431D01*
X133704663Y-72106047D01*
X132920162Y-71950000D01*
X132839838Y-71950000D01*
X132055337Y-72106047D01*
X131390269Y-72550431D01*
X130945885Y-73215499D01*
X130789838Y-74000000D01*
X117699957Y-74000000D01*
X117700477Y-73405391D01*
X117282696Y-72394285D01*
X116509784Y-71620023D01*
X115499409Y-71200478D01*
X114405391Y-71199523D01*
X113394285Y-71617304D01*
X112620023Y-72390216D01*
X112403382Y-72911946D01*
X111776187Y-72283655D01*
X110949516Y-71940392D01*
X110054411Y-71939610D01*
X109227142Y-72281431D01*
X108593655Y-72913813D01*
X108250392Y-73740484D01*
X108249610Y-74635589D01*
X103325000Y-74635589D01*
X103325000Y-68700000D01*
X124425512Y-68700000D01*
X124425512Y-70300000D01*
X124512673Y-70763222D01*
X124786437Y-71188663D01*
X125204153Y-71474076D01*
X125700000Y-71574488D01*
X127300000Y-71574488D01*
X127763222Y-71487327D01*
X128188663Y-71213563D01*
X128247268Y-71127792D01*
X128286437Y-71188663D01*
X128704153Y-71474076D01*
X129200000Y-71574488D01*
X130800000Y-71574488D01*
X131263222Y-71487327D01*
X131688663Y-71213563D01*
X131974076Y-70795847D01*
X132053026Y-70405981D01*
X134699645Y-70405981D01*
X135011081Y-71159715D01*
X135587252Y-71736892D01*
X136340441Y-72049643D01*
X137155981Y-72050355D01*
X137909715Y-71738919D01*
X138486892Y-71162748D01*
X138799643Y-70409559D01*
X138800355Y-69594019D01*
X138488919Y-68840285D01*
X137912748Y-68263108D01*
X137159559Y-67950357D01*
X136344019Y-67949645D01*
X135590285Y-68261081D01*
X135013108Y-68837252D01*
X134700357Y-69590441D01*
X134699645Y-70405981D01*
X132053026Y-70405981D01*
X132074488Y-70300000D01*
X132074488Y-68700000D01*
X131987327Y-68236778D01*
X131713563Y-67811337D01*
X131295847Y-67525924D01*
X130800000Y-67425512D01*
X129200000Y-67425512D01*
X128736778Y-67512673D01*
X128311337Y-67786437D01*
X128252732Y-67872208D01*
X128213563Y-67811337D01*
X127795847Y-67525924D01*
X127300000Y-67425512D01*
X125700000Y-67425512D01*
X125236778Y-67512673D01*
X124811337Y-67786437D01*
X124525924Y-68204153D01*
X124425512Y-68700000D01*
X103325000Y-68700000D01*
X103325000Y-65635616D01*
X104200860Y-65999305D01*
X105792159Y-66000693D01*
X107262858Y-65393013D01*
X108389058Y-64268777D01*
X108999305Y-62799140D01*
X109000693Y-61207841D01*
X108635911Y-60325000D01*
X109923143Y-60325000D01*
X109775076Y-60423935D01*
X109775076Y-60423935D01*
G37*
X109775076Y-60423935D02*
X109319853Y-61105224D01*
X109160000Y-61908859D01*
X109160000Y-61991141D01*
X109319853Y-62794776D01*
X109775076Y-63476065D01*
X110456365Y-63931288D01*
X111260000Y-64091141D01*
X112063635Y-63931288D01*
X112690006Y-63512760D01*
X112799225Y-63558000D01*
X113185500Y-63558000D01*
X113375000Y-63368500D01*
X113375000Y-62375000D01*
X114225000Y-62375000D01*
X114225000Y-63368500D01*
X114414500Y-63558000D01*
X114800775Y-63558000D01*
X115079372Y-63442602D01*
X115292601Y-63229373D01*
X115408000Y-62950776D01*
X115408000Y-62939500D01*
X173742000Y-62939500D01*
X173742000Y-63650776D01*
X173857399Y-63929373D01*
X174070628Y-64142602D01*
X174349225Y-64258000D01*
X175060500Y-64258000D01*
X175250000Y-64068500D01*
X175250000Y-62750000D01*
X176750000Y-62750000D01*
X176750000Y-64068500D01*
X176939500Y-64258000D01*
X177650775Y-64258000D01*
X177929372Y-64142602D01*
X178142601Y-63929373D01*
X178258000Y-63650776D01*
X178258000Y-62939500D01*
X178068500Y-62750000D01*
X176750000Y-62750000D01*
X175250000Y-62750000D01*
X173931500Y-62750000D01*
X173742000Y-62939500D01*
X115408000Y-62939500D01*
X115408000Y-62564500D01*
X115218500Y-62375000D01*
X114225000Y-62375000D01*
X113375000Y-62375000D01*
X113283646Y-62375000D01*
X113360000Y-61991141D01*
X113360000Y-61908859D01*
X113283646Y-61525000D01*
X113375000Y-61525000D01*
X113375000Y-60531500D01*
X114225000Y-60531500D01*
X114225000Y-61525000D01*
X115218500Y-61525000D01*
X115408000Y-61335500D01*
X115408000Y-60949224D01*
X115292601Y-60670627D01*
X115079372Y-60457398D01*
X114800775Y-60342000D01*
X114414500Y-60342000D01*
X114225000Y-60531500D01*
X113375000Y-60531500D01*
X113185500Y-60342000D01*
X112799225Y-60342000D01*
X112690006Y-60387240D01*
X112596857Y-60325000D01*
X173752034Y-60325000D01*
X173742000Y-60349224D01*
X173742000Y-61060500D01*
X173931500Y-61250000D01*
X175250000Y-61250000D01*
X175250000Y-60730000D01*
X176750000Y-60730000D01*
X176750000Y-61250000D01*
X178068500Y-61250000D01*
X178258000Y-61060500D01*
X178258000Y-60349224D01*
X178247966Y-60325000D01*
X181141824Y-60325000D01*
X180718571Y-61344306D01*
X180717432Y-62649966D01*
X181216034Y-63856675D01*
X182138469Y-64780722D01*
X183344306Y-65281429D01*
X184649966Y-65282568D01*
X185675000Y-64859033D01*
X185675000Y-146141824D01*
X184655694Y-145718571D01*
X183350034Y-145717432D01*
X182143325Y-146216034D01*
X181219278Y-147138469D01*
X180718571Y-148344306D01*
X180717432Y-149649966D01*
X181140967Y-150675000D01*
X179827160Y-150675000D01*
X180009965Y-150492195D01*
X179652568Y-150134798D01*
X179681108Y-149928387D01*
X179579869Y-149419421D01*
X179320001Y-149287817D01*
X178567817Y-150040000D01*
X178956726Y-150428909D01*
X178710635Y-150675000D01*
X176869365Y-150675000D01*
X176623274Y-150428909D01*
X177012183Y-150040000D01*
X176623274Y-149651091D01*
X177401091Y-148873274D01*
X177790000Y-149262183D01*
X178542183Y-148509999D01*
X178410579Y-148250131D01*
X177678387Y-148148892D01*
X177668607Y-148150837D01*
X177490125Y-147972355D01*
X177499608Y-147949516D01*
X177500390Y-147054411D01*
X177489563Y-147028207D01*
X177695202Y-146822568D01*
X177901613Y-146851108D01*
X178410579Y-146749869D01*
X178542183Y-146490001D01*
X177790000Y-145737817D01*
X177401091Y-146126726D01*
X176623274Y-145348909D01*
X177012183Y-144960000D01*
X178567817Y-144960000D01*
X179320001Y-145712183D01*
X179579869Y-145580579D01*
X179681108Y-144848387D01*
X179579869Y-144339421D01*
X179320001Y-144207817D01*
X178567817Y-144960000D01*
X177012183Y-144960000D01*
X176259999Y-144207817D01*
X176000131Y-144339421D01*
X175898892Y-145071613D01*
X175900837Y-145081393D01*
X175722355Y-145259875D01*
X175699516Y-145250392D01*
X174804411Y-145249610D01*
X174778207Y-145260437D01*
X174572568Y-145054798D01*
X174601108Y-144848387D01*
X174499869Y-144339421D01*
X174240001Y-144207817D01*
X173487817Y-144960000D01*
X173876726Y-145348909D01*
X173098909Y-146126726D01*
X172710000Y-145737817D01*
X171957817Y-146490001D01*
X172089421Y-146749869D01*
X172821613Y-146851108D01*
X172831393Y-146849163D01*
X173009875Y-147027645D01*
X173000392Y-147050484D01*
X172999610Y-147945589D01*
X173010437Y-147971793D01*
X172804798Y-148177432D01*
X172598387Y-148148892D01*
X172089421Y-148250131D01*
X171957817Y-148509999D01*
X172710000Y-149262183D01*
X173098909Y-148873274D01*
X173876726Y-149651091D01*
X173487817Y-150040000D01*
X173876726Y-150428909D01*
X173630635Y-150675000D01*
X171789365Y-150675000D01*
X171543274Y-150428909D01*
X171932183Y-150040000D01*
X171179999Y-149287817D01*
X170920131Y-149419421D01*
X170818892Y-150151613D01*
X170820837Y-150161393D01*
X170490035Y-150492195D01*
X170672840Y-150675000D01*
X111341146Y-150675000D01*
X112063635Y-150531288D01*
X112690006Y-150112760D01*
X112799225Y-150158000D01*
X113185500Y-150158000D01*
X113375000Y-149968500D01*
X113375000Y-148975000D01*
X114225000Y-148975000D01*
X114225000Y-149968500D01*
X114414500Y-150158000D01*
X114800775Y-150158000D01*
X115079372Y-150042602D01*
X115292601Y-149829373D01*
X115408000Y-149550776D01*
X115408000Y-149164500D01*
X115218500Y-148975000D01*
X114225000Y-148975000D01*
X113375000Y-148975000D01*
X113283646Y-148975000D01*
X113360000Y-148591141D01*
X113360000Y-148508859D01*
X113283646Y-148125000D01*
X113375000Y-148125000D01*
X113375000Y-147131500D01*
X114225000Y-147131500D01*
X114225000Y-148125000D01*
X115218500Y-148125000D01*
X115408000Y-147935500D01*
X115408000Y-147549224D01*
X115292601Y-147270627D01*
X115079372Y-147057398D01*
X114800775Y-146942000D01*
X114414500Y-146942000D01*
X114225000Y-147131500D01*
X113375000Y-147131500D01*
X113185500Y-146942000D01*
X112799225Y-146942000D01*
X112690006Y-146987240D01*
X112063635Y-146568712D01*
X111260000Y-146408859D01*
X110456365Y-146568712D01*
X109775076Y-147023935D01*
X109319853Y-147705224D01*
X109160000Y-148508859D01*
X109160000Y-148591141D01*
X109319853Y-149394776D01*
X109775076Y-150076065D01*
X110456365Y-150531288D01*
X111178854Y-150675000D01*
X108635616Y-150675000D01*
X108999305Y-149799140D01*
X109000693Y-148207841D01*
X108393013Y-146737142D01*
X107607244Y-145950000D01*
X152675512Y-145950000D01*
X152675512Y-147550000D01*
X152762673Y-148013222D01*
X153036437Y-148438663D01*
X153454153Y-148724076D01*
X153950000Y-148824488D01*
X155550000Y-148824488D01*
X156013222Y-148737327D01*
X156438663Y-148463563D01*
X156724076Y-148045847D01*
X156824488Y-147550000D01*
X156824488Y-147155981D01*
X157699645Y-147155981D01*
X158011081Y-147909715D01*
X158587252Y-148486892D01*
X159340441Y-148799643D01*
X160155981Y-148800355D01*
X160909715Y-148488919D01*
X161486892Y-147912748D01*
X161799643Y-147159559D01*
X161800355Y-146344019D01*
X161488919Y-145590285D01*
X160971152Y-145071613D01*
X170818892Y-145071613D01*
X170920131Y-145580579D01*
X171179999Y-145712183D01*
X171932183Y-144960000D01*
X171179999Y-144207817D01*
X170920131Y-144339421D01*
X170818892Y-145071613D01*
X160971152Y-145071613D01*
X160912748Y-145013108D01*
X160159559Y-144700357D01*
X159344019Y-144699645D01*
X158590285Y-145011081D01*
X158013108Y-145587252D01*
X157700357Y-146340441D01*
X157699645Y-147155981D01*
X156824488Y-147155981D01*
X156824488Y-145950000D01*
X156737327Y-145486778D01*
X156463563Y-145061337D01*
X156045847Y-144775924D01*
X155550000Y-144675512D01*
X153950000Y-144675512D01*
X153486778Y-144762673D01*
X153061337Y-145036437D01*
X152775924Y-145454153D01*
X152675512Y-145950000D01*
X107607244Y-145950000D01*
X107268777Y-145610942D01*
X105799140Y-145000695D01*
X104207841Y-144999307D01*
X103325000Y-145364089D01*
X103325000Y-143176961D01*
X107723699Y-143176961D01*
X107917361Y-143451784D01*
X108811149Y-143541592D01*
X109262639Y-143451784D01*
X109456301Y-143176961D01*
X108590000Y-142310660D01*
X107723699Y-143176961D01*
X103325000Y-143176961D01*
X103325000Y-141471149D01*
X106298408Y-141471149D01*
X106388216Y-141922639D01*
X106663039Y-142116301D01*
X107529340Y-141250000D01*
X109650660Y-141250000D01*
X110516961Y-142116301D01*
X110568705Y-142079838D01*
X124450000Y-142079838D01*
X124450000Y-142160162D01*
X124606047Y-142944663D01*
X125050431Y-143609731D01*
X125715499Y-144054115D01*
X126500000Y-144210162D01*
X127284501Y-144054115D01*
X127949569Y-143609731D01*
X128250000Y-143160104D01*
X128550431Y-143609731D01*
X129215499Y-144054115D01*
X130000000Y-144210162D01*
X130784501Y-144054115D01*
X131449569Y-143609731D01*
X131702759Y-143230805D01*
X144834881Y-143230805D01*
X144919983Y-143478846D01*
X145530064Y-143588239D01*
X146080017Y-143478846D01*
X146165119Y-143230805D01*
X145500000Y-142565685D01*
X144834881Y-143230805D01*
X131702759Y-143230805D01*
X131893953Y-142944663D01*
X132050000Y-142160162D01*
X132050000Y-142079838D01*
X131893953Y-141295337D01*
X131449569Y-140630269D01*
X130784501Y-140185885D01*
X130000000Y-140029838D01*
X129215499Y-140185885D01*
X128550431Y-140630269D01*
X128250000Y-141079896D01*
X127949569Y-140630269D01*
X127284501Y-140185885D01*
X126500000Y-140029838D01*
X125715499Y-140185885D01*
X125050431Y-140630269D01*
X124606047Y-141295337D01*
X124450000Y-142079838D01*
X110568705Y-142079838D01*
X110791784Y-141922639D01*
X110881592Y-141028851D01*
X110791784Y-140577361D01*
X110516961Y-140383699D01*
X109650660Y-141250000D01*
X107529340Y-141250000D01*
X106663039Y-140383699D01*
X106388216Y-140577361D01*
X106298408Y-141471149D01*
X103325000Y-141471149D01*
X103325000Y-139323039D01*
X107723699Y-139323039D01*
X108590000Y-140189340D01*
X109456301Y-139323039D01*
X109262639Y-139048216D01*
X108553495Y-138976961D01*
X113443699Y-138976961D01*
X113637361Y-139251784D01*
X114531149Y-139341592D01*
X114982639Y-139251784D01*
X115176301Y-138976961D01*
X114310000Y-138110660D01*
X113443699Y-138976961D01*
X108553495Y-138976961D01*
X108368851Y-138958408D01*
X107917361Y-139048216D01*
X107723699Y-139323039D01*
X103325000Y-139323039D01*
X103325000Y-137631661D01*
X103511431Y-138082858D01*
X104143813Y-138716345D01*
X104970484Y-139059608D01*
X105865589Y-139060390D01*
X106692858Y-138718569D01*
X107326345Y-138086187D01*
X107362132Y-138000000D01*
X130789838Y-138000000D01*
X130945885Y-138784501D01*
X131390269Y-139449569D01*
X132055337Y-139893953D01*
X132839838Y-140050000D01*
X132920162Y-140050000D01*
X133704663Y-139893953D01*
X134369731Y-139449569D01*
X134814115Y-138784501D01*
X134889407Y-138405981D01*
X138449645Y-138405981D01*
X138761081Y-139159715D01*
X139337252Y-139736892D01*
X140090441Y-140049643D01*
X140905981Y-140050355D01*
X141449715Y-139825689D01*
X141449645Y-139905981D01*
X141761081Y-140659715D01*
X142337252Y-141236892D01*
X143090441Y-141549643D01*
X143710232Y-141550184D01*
X143496323Y-141764093D01*
X143948874Y-142216643D01*
X144021154Y-142580017D01*
X144269195Y-142665119D01*
X144934315Y-142000000D01*
X146065685Y-142000000D01*
X146730805Y-142665119D01*
X146978846Y-142580017D01*
X147010052Y-142405981D01*
X148449645Y-142405981D01*
X148761081Y-143159715D01*
X149337252Y-143736892D01*
X150090441Y-144049643D01*
X150905981Y-144050355D01*
X151659715Y-143738919D01*
X151969174Y-143429999D01*
X171957817Y-143429999D01*
X172710000Y-144182183D01*
X173462183Y-143429999D01*
X177037817Y-143429999D01*
X177790000Y-144182183D01*
X178542183Y-143429999D01*
X178410579Y-143170131D01*
X177678387Y-143068892D01*
X177169421Y-143170131D01*
X177037817Y-143429999D01*
X173462183Y-143429999D01*
X173330579Y-143170131D01*
X172598387Y-143068892D01*
X172089421Y-143170131D01*
X171957817Y-143429999D01*
X151969174Y-143429999D01*
X152236892Y-143162748D01*
X152481045Y-142574762D01*
X152959838Y-142670000D01*
X153040162Y-142670000D01*
X153824663Y-142513953D01*
X154489731Y-142069569D01*
X154934115Y-141404501D01*
X155090162Y-140620000D01*
X154934115Y-139835499D01*
X154609715Y-139350000D01*
X154934115Y-138864501D01*
X155090162Y-138080000D01*
X154934115Y-137295499D01*
X154609715Y-136810000D01*
X154934115Y-136324501D01*
X155090162Y-135540000D01*
X154934115Y-134755499D01*
X154496165Y-134100060D01*
X154558000Y-133950775D01*
X154558000Y-133589500D01*
X154368500Y-133400000D01*
X153400000Y-133400000D01*
X153400000Y-133561576D01*
X153040162Y-133490000D01*
X152959838Y-133490000D01*
X152600000Y-133561576D01*
X152600000Y-133400000D01*
X151631500Y-133400000D01*
X151442000Y-133589500D01*
X151442000Y-133950775D01*
X151503835Y-134100060D01*
X151065885Y-134755499D01*
X150909838Y-135540000D01*
X151065885Y-136324501D01*
X151390285Y-136810000D01*
X151065885Y-137295499D01*
X150909838Y-138080000D01*
X151065885Y-138864501D01*
X151390285Y-139350000D01*
X151065885Y-139835499D01*
X151032855Y-140001554D01*
X150909559Y-139950357D01*
X150094019Y-139949645D01*
X149340285Y-140261081D01*
X148763108Y-140837252D01*
X148450357Y-141590441D01*
X148449645Y-142405981D01*
X147010052Y-142405981D01*
X147088239Y-141969936D01*
X146978846Y-141419983D01*
X146730805Y-141334881D01*
X146065685Y-142000000D01*
X144934315Y-142000000D01*
X144651472Y-141717157D01*
X145217157Y-141151472D01*
X145500000Y-141434315D01*
X146165119Y-140769195D01*
X146080017Y-140521154D01*
X145725323Y-140457554D01*
X145440404Y-140172635D01*
X145549643Y-139909559D01*
X145550355Y-139094019D01*
X145238919Y-138340285D01*
X144805372Y-137905981D01*
X145199645Y-137905981D01*
X145511081Y-138659715D01*
X146087252Y-139236892D01*
X146840441Y-139549643D01*
X147655981Y-139550355D01*
X148409715Y-139238919D01*
X148986892Y-138662748D01*
X149299643Y-137909559D01*
X149300355Y-137094019D01*
X148988919Y-136340285D01*
X148412748Y-135763108D01*
X147659559Y-135450357D01*
X146844019Y-135449645D01*
X146090285Y-135761081D01*
X145513108Y-136337252D01*
X145200357Y-137090441D01*
X145199645Y-137905981D01*
X144805372Y-137905981D01*
X144662748Y-137763108D01*
X143909559Y-137450357D01*
X143094019Y-137449645D01*
X142550285Y-137674311D01*
X142550355Y-137594019D01*
X142238919Y-136840285D01*
X141662748Y-136263108D01*
X140909559Y-135950357D01*
X140094019Y-135949645D01*
X139340285Y-136261081D01*
X138763108Y-136837252D01*
X138450357Y-137590441D01*
X138449645Y-138405981D01*
X134889407Y-138405981D01*
X134970162Y-138000000D01*
X134814115Y-137215499D01*
X134369731Y-136550431D01*
X133704663Y-136106047D01*
X132920162Y-135950000D01*
X132839838Y-135950000D01*
X132055337Y-136106047D01*
X131390269Y-136550431D01*
X130945885Y-137215499D01*
X130789838Y-138000000D01*
X107362132Y-138000000D01*
X107664777Y-137271149D01*
X112018408Y-137271149D01*
X112108216Y-137722639D01*
X112383039Y-137916301D01*
X113249340Y-137050000D01*
X115370660Y-137050000D01*
X116236961Y-137916301D01*
X116511784Y-137722639D01*
X116601592Y-136828851D01*
X116511784Y-136377361D01*
X116236961Y-136183699D01*
X115370660Y-137050000D01*
X113249340Y-137050000D01*
X112383039Y-136183699D01*
X112108216Y-136377361D01*
X112018408Y-137271149D01*
X107664777Y-137271149D01*
X107669608Y-137259516D01*
X107670390Y-136364411D01*
X107328569Y-135537142D01*
X106915189Y-135123039D01*
X113443699Y-135123039D01*
X114310000Y-135989340D01*
X115176301Y-135123039D01*
X114982639Y-134848216D01*
X114088851Y-134758408D01*
X113637361Y-134848216D01*
X113443699Y-135123039D01*
X106915189Y-135123039D01*
X106696187Y-134903655D01*
X105869516Y-134560392D01*
X104974411Y-134559610D01*
X104147142Y-134901431D01*
X103513655Y-135533813D01*
X103325000Y-135988146D01*
X103325000Y-133544609D01*
X116009523Y-133544609D01*
X116427304Y-134555715D01*
X117200216Y-135329977D01*
X118210591Y-135749522D01*
X119304609Y-135750477D01*
X120315715Y-135332696D01*
X121089977Y-134559784D01*
X121446991Y-133700000D01*
X124425512Y-133700000D01*
X124425512Y-135300000D01*
X124512673Y-135763222D01*
X124786437Y-136188663D01*
X125204153Y-136474076D01*
X125700000Y-136574488D01*
X127300000Y-136574488D01*
X127763222Y-136487327D01*
X128188663Y-136213563D01*
X128247268Y-136127792D01*
X128286437Y-136188663D01*
X128704153Y-136474076D01*
X129200000Y-136574488D01*
X130800000Y-136574488D01*
X131263222Y-136487327D01*
X131688663Y-136213563D01*
X131974076Y-135795847D01*
X132074488Y-135300000D01*
X132074488Y-134730805D01*
X134834881Y-134730805D01*
X134919983Y-134978846D01*
X135530064Y-135088239D01*
X136080017Y-134978846D01*
X136165119Y-134730805D01*
X135500000Y-134065685D01*
X134834881Y-134730805D01*
X132074488Y-134730805D01*
X132074488Y-133700000D01*
X132042513Y-133530064D01*
X133911761Y-133530064D01*
X134021154Y-134080017D01*
X134269195Y-134165119D01*
X134934315Y-133500000D01*
X136065685Y-133500000D01*
X136730805Y-134165119D01*
X136978846Y-134080017D01*
X137010052Y-133905981D01*
X138449645Y-133905981D01*
X138761081Y-134659715D01*
X139337252Y-135236892D01*
X140090441Y-135549643D01*
X140905981Y-135550355D01*
X141597785Y-135264508D01*
X141761081Y-135659715D01*
X142337252Y-136236892D01*
X143090441Y-136549643D01*
X143905981Y-136550355D01*
X144659715Y-136238919D01*
X145236892Y-135662748D01*
X145549643Y-134909559D01*
X145550355Y-134094019D01*
X145238919Y-133340285D01*
X145149139Y-133250348D01*
X145236892Y-133162748D01*
X145304470Y-133000000D01*
X158529838Y-133000000D01*
X158685885Y-133784501D01*
X159010285Y-134270000D01*
X158685885Y-134755499D01*
X158529838Y-135540000D01*
X158685885Y-136324501D01*
X159010285Y-136810000D01*
X158685885Y-137295499D01*
X158529838Y-138080000D01*
X158685885Y-138864501D01*
X159010285Y-139350000D01*
X158685885Y-139835499D01*
X158529838Y-140620000D01*
X158685885Y-141404501D01*
X159130269Y-142069569D01*
X159795337Y-142513953D01*
X160579838Y-142670000D01*
X160660162Y-142670000D01*
X161444663Y-142513953D01*
X162109731Y-142069569D01*
X162554115Y-141404501D01*
X162710162Y-140620000D01*
X162554115Y-139835499D01*
X162229715Y-139350000D01*
X162554115Y-138864501D01*
X162710162Y-138080000D01*
X162554115Y-137295499D01*
X162229715Y-136810000D01*
X162554115Y-136324501D01*
X162698621Y-135598019D01*
X162837252Y-135736892D01*
X163590441Y-136049643D01*
X164050998Y-136050045D01*
X163761337Y-136236437D01*
X163475924Y-136654153D01*
X163375512Y-137150000D01*
X163375512Y-138850000D01*
X163462673Y-139313222D01*
X163628871Y-139571501D01*
X163518712Y-139736365D01*
X163358859Y-140540000D01*
X163518712Y-141343635D01*
X163973935Y-142024924D01*
X164655224Y-142480147D01*
X165458859Y-142640000D01*
X165541141Y-142640000D01*
X166344776Y-142480147D01*
X167026065Y-142024924D01*
X167481288Y-141343635D01*
X167641141Y-140540000D01*
X167481288Y-139736365D01*
X167370518Y-139570586D01*
X167475485Y-139416961D01*
X175133699Y-139416961D01*
X175327361Y-139691784D01*
X176221149Y-139781592D01*
X176672639Y-139691784D01*
X176866301Y-139416961D01*
X176000000Y-138550660D01*
X175133699Y-139416961D01*
X167475485Y-139416961D01*
X167524076Y-139345847D01*
X167624488Y-138850000D01*
X167624488Y-137711149D01*
X173708408Y-137711149D01*
X173798216Y-138162639D01*
X174073039Y-138356301D01*
X174939340Y-137490000D01*
X177060660Y-137490000D01*
X177926961Y-138356301D01*
X178201784Y-138162639D01*
X178291592Y-137268851D01*
X178201784Y-136817361D01*
X177926961Y-136623699D01*
X177060660Y-137490000D01*
X174939340Y-137490000D01*
X174073039Y-136623699D01*
X173798216Y-136817361D01*
X173708408Y-137711149D01*
X167624488Y-137711149D01*
X167624488Y-137150000D01*
X167537327Y-136686778D01*
X167263563Y-136261337D01*
X166845847Y-135975924D01*
X166350000Y-135875512D01*
X164829134Y-135875512D01*
X165159715Y-135738919D01*
X165668716Y-135230805D01*
X168334881Y-135230805D01*
X168419983Y-135478846D01*
X169030064Y-135588239D01*
X169156752Y-135563039D01*
X175133699Y-135563039D01*
X176000000Y-136429340D01*
X176866301Y-135563039D01*
X176672639Y-135288216D01*
X175778851Y-135198408D01*
X175327361Y-135288216D01*
X175133699Y-135563039D01*
X169156752Y-135563039D01*
X169580017Y-135478846D01*
X169665119Y-135230805D01*
X169000000Y-134565685D01*
X168334881Y-135230805D01*
X165668716Y-135230805D01*
X165736892Y-135162748D01*
X166049643Y-134409559D01*
X166049974Y-134030064D01*
X167411761Y-134030064D01*
X167521154Y-134580017D01*
X167769195Y-134665119D01*
X168434315Y-134000000D01*
X169565685Y-134000000D01*
X170230805Y-134665119D01*
X170478846Y-134580017D01*
X170588239Y-133969936D01*
X170478846Y-133419983D01*
X170230805Y-133334881D01*
X169565685Y-134000000D01*
X168434315Y-134000000D01*
X167769195Y-133334881D01*
X167521154Y-133419983D01*
X167411761Y-134030064D01*
X166049974Y-134030064D01*
X166050355Y-133594019D01*
X165738919Y-132840285D01*
X165667953Y-132769195D01*
X168334881Y-132769195D01*
X169000000Y-133434315D01*
X169665119Y-132769195D01*
X169580017Y-132521154D01*
X168969936Y-132411761D01*
X168419983Y-132521154D01*
X168334881Y-132769195D01*
X165667953Y-132769195D01*
X165162748Y-132263108D01*
X164409559Y-131950357D01*
X163594019Y-131949645D01*
X162840285Y-132261081D01*
X162609089Y-132491874D01*
X162554115Y-132215499D01*
X162109731Y-131550431D01*
X161444663Y-131106047D01*
X160660162Y-130950000D01*
X160579838Y-130950000D01*
X159795337Y-131106047D01*
X159130269Y-131550431D01*
X158685885Y-132215499D01*
X158529838Y-133000000D01*
X145304470Y-133000000D01*
X145549643Y-132409559D01*
X145549957Y-132049225D01*
X151442000Y-132049225D01*
X151442000Y-132410500D01*
X151631500Y-132600000D01*
X152600000Y-132600000D01*
X152600000Y-131631500D01*
X153400000Y-131631500D01*
X153400000Y-132600000D01*
X154368500Y-132600000D01*
X154558000Y-132410500D01*
X154558000Y-132049225D01*
X154442602Y-131770628D01*
X154229373Y-131557399D01*
X153950776Y-131442000D01*
X153589500Y-131442000D01*
X153400000Y-131631500D01*
X152600000Y-131631500D01*
X152410500Y-131442000D01*
X152049224Y-131442000D01*
X151770627Y-131557399D01*
X151557398Y-131770628D01*
X151442000Y-132049225D01*
X145549957Y-132049225D01*
X145550355Y-131594019D01*
X145238919Y-130840285D01*
X144662748Y-130263108D01*
X143909559Y-129950357D01*
X143094019Y-129949645D01*
X142340285Y-130261081D01*
X141763108Y-130837252D01*
X141450357Y-131590441D01*
X141450283Y-131674885D01*
X140909559Y-131450357D01*
X140094019Y-131449645D01*
X139340285Y-131761081D01*
X138763108Y-132337252D01*
X138450357Y-133090441D01*
X138449645Y-133905981D01*
X137010052Y-133905981D01*
X137088239Y-133469936D01*
X136978846Y-132919983D01*
X136730805Y-132834881D01*
X136065685Y-133500000D01*
X134934315Y-133500000D01*
X134269195Y-132834881D01*
X134021154Y-132919983D01*
X133911761Y-133530064D01*
X132042513Y-133530064D01*
X131987327Y-133236778D01*
X131845764Y-133016783D01*
X131893953Y-132944663D01*
X132028311Y-132269195D01*
X134834881Y-132269195D01*
X135500000Y-132934315D01*
X136165119Y-132269195D01*
X136080017Y-132021154D01*
X135469936Y-131911761D01*
X134919983Y-132021154D01*
X134834881Y-132269195D01*
X132028311Y-132269195D01*
X132050000Y-132160162D01*
X132050000Y-132079838D01*
X131893953Y-131295337D01*
X131449569Y-130630269D01*
X130784501Y-130185885D01*
X130000000Y-130029838D01*
X129215499Y-130185885D01*
X128550431Y-130630269D01*
X128250000Y-131079896D01*
X127949569Y-130630269D01*
X127284501Y-130185885D01*
X126500000Y-130029838D01*
X125715499Y-130185885D01*
X125050431Y-130630269D01*
X124606047Y-131295337D01*
X124450000Y-132079838D01*
X124450000Y-132160162D01*
X124606047Y-132944663D01*
X124654094Y-133016570D01*
X124525924Y-133204153D01*
X124425512Y-133700000D01*
X121446991Y-133700000D01*
X121509522Y-133549409D01*
X121510477Y-132455391D01*
X121092696Y-131444285D01*
X120319784Y-130670023D01*
X119309409Y-130250478D01*
X118215391Y-130249523D01*
X117204285Y-130667304D01*
X116430023Y-131440216D01*
X116010478Y-132450591D01*
X116009523Y-133544609D01*
X103325000Y-133544609D01*
X103325000Y-129635589D01*
X108249610Y-129635589D01*
X108591431Y-130462858D01*
X109223813Y-131096345D01*
X110050484Y-131439608D01*
X110945589Y-131440390D01*
X111772858Y-131098569D01*
X112406345Y-130466187D01*
X112503898Y-130231252D01*
X112617304Y-130505715D01*
X113390216Y-131279977D01*
X114400591Y-131699522D01*
X115494609Y-131700477D01*
X116505715Y-131282696D01*
X117279977Y-130509784D01*
X117699522Y-129499409D01*
X117699957Y-129000000D01*
X130789838Y-129000000D01*
X130945885Y-129784501D01*
X131390269Y-130449569D01*
X132055337Y-130893953D01*
X132839838Y-131050000D01*
X132920162Y-131050000D01*
X133704663Y-130893953D01*
X134369731Y-130449569D01*
X134814115Y-129784501D01*
X134889407Y-129405981D01*
X138449645Y-129405981D01*
X138761081Y-130159715D01*
X139337252Y-130736892D01*
X140090441Y-131049643D01*
X140905981Y-131050355D01*
X141659715Y-130738919D01*
X142236892Y-130162748D01*
X142549643Y-129409559D01*
X142550153Y-128825296D01*
X143090441Y-129049643D01*
X143905981Y-129050355D01*
X144659715Y-128738919D01*
X145236892Y-128162748D01*
X145549643Y-127409559D01*
X145550355Y-126594019D01*
X145238919Y-125840285D01*
X144662748Y-125263108D01*
X143909559Y-124950357D01*
X143094019Y-124949645D01*
X142340285Y-125261081D01*
X141763108Y-125837252D01*
X141450357Y-126590441D01*
X141449847Y-127174704D01*
X140909559Y-126950357D01*
X140094019Y-126949645D01*
X139340285Y-127261081D01*
X138763108Y-127837252D01*
X138450357Y-128590441D01*
X138449645Y-129405981D01*
X134889407Y-129405981D01*
X134970162Y-129000000D01*
X134814115Y-128215499D01*
X134369731Y-127550431D01*
X133704663Y-127106047D01*
X132920162Y-126950000D01*
X132839838Y-126950000D01*
X132055337Y-127106047D01*
X131390269Y-127550431D01*
X130945885Y-128215499D01*
X130789838Y-129000000D01*
X117699957Y-129000000D01*
X117700477Y-128405391D01*
X117282696Y-127394285D01*
X116509784Y-126620023D01*
X115499409Y-126200478D01*
X114405391Y-126199523D01*
X113394285Y-126617304D01*
X112620023Y-127390216D01*
X112403382Y-127911946D01*
X111776187Y-127283655D01*
X110949516Y-126940392D01*
X110054411Y-126939610D01*
X109227142Y-127281431D01*
X108593655Y-127913813D01*
X108250392Y-128740484D01*
X108249610Y-129635589D01*
X103325000Y-129635589D01*
X103325000Y-123700000D01*
X124425512Y-123700000D01*
X124425512Y-125300000D01*
X124512673Y-125763222D01*
X124786437Y-126188663D01*
X125204153Y-126474076D01*
X125700000Y-126574488D01*
X127300000Y-126574488D01*
X127763222Y-126487327D01*
X128188663Y-126213563D01*
X128247268Y-126127792D01*
X128286437Y-126188663D01*
X128704153Y-126474076D01*
X129200000Y-126574488D01*
X130800000Y-126574488D01*
X131263222Y-126487327D01*
X131688663Y-126213563D01*
X131974076Y-125795847D01*
X132074488Y-125300000D01*
X132074488Y-123700000D01*
X131987327Y-123236778D01*
X131713563Y-122811337D01*
X131295847Y-122525924D01*
X130800000Y-122425512D01*
X129200000Y-122425512D01*
X128736778Y-122512673D01*
X128311337Y-122786437D01*
X128252732Y-122872208D01*
X128213563Y-122811337D01*
X127795847Y-122525924D01*
X127300000Y-122425512D01*
X125700000Y-122425512D01*
X125236778Y-122512673D01*
X124811337Y-122786437D01*
X124525924Y-123204153D01*
X124425512Y-123700000D01*
X103325000Y-123700000D01*
X103325000Y-121639500D01*
X133592000Y-121639500D01*
X133592000Y-122050776D01*
X133707399Y-122329373D01*
X133920628Y-122542602D01*
X134199225Y-122658000D01*
X134610500Y-122658000D01*
X134800000Y-122468500D01*
X134800000Y-121450000D01*
X135700000Y-121450000D01*
X135700000Y-122468500D01*
X135889500Y-122658000D01*
X136300775Y-122658000D01*
X136579372Y-122542602D01*
X136792601Y-122329373D01*
X136908000Y-122050776D01*
X136908000Y-121639500D01*
X136718500Y-121450000D01*
X135700000Y-121450000D01*
X134800000Y-121450000D01*
X133781500Y-121450000D01*
X133592000Y-121639500D01*
X103325000Y-121639500D01*
X103325000Y-115500000D01*
X122725512Y-115500000D01*
X122725512Y-117500000D01*
X122812673Y-117963222D01*
X123086437Y-118388663D01*
X123504153Y-118674076D01*
X124000000Y-118774488D01*
X126000000Y-118774488D01*
X126463222Y-118687327D01*
X126888663Y-118413563D01*
X127174076Y-117995847D01*
X127274488Y-117500000D01*
X127274488Y-115500000D01*
X127256798Y-115405981D01*
X131699645Y-115405981D01*
X132011081Y-116159715D01*
X132587252Y-116736892D01*
X133340441Y-117049643D01*
X133619361Y-117049887D01*
X133428381Y-117240533D01*
X133100374Y-118030462D01*
X133099628Y-118885785D01*
X133426256Y-119676286D01*
X133623296Y-119873670D01*
X133592000Y-119949224D01*
X133592000Y-120360500D01*
X133781500Y-120550000D01*
X134676867Y-120550000D01*
X134820462Y-120609626D01*
X135675785Y-120610372D01*
X135821897Y-120550000D01*
X136718500Y-120550000D01*
X136908000Y-120360500D01*
X136908000Y-119949224D01*
X136876813Y-119873933D01*
X137051173Y-119699877D01*
X137587252Y-120236892D01*
X138340441Y-120549643D01*
X139155981Y-120550355D01*
X139909715Y-120238919D01*
X140486892Y-119662748D01*
X140799643Y-118909559D01*
X140800355Y-118094019D01*
X140488919Y-117340285D01*
X139912748Y-116763108D01*
X139159559Y-116450357D01*
X138344019Y-116449645D01*
X137590285Y-116761081D01*
X137083400Y-117267083D01*
X137073744Y-117243714D01*
X136469467Y-116638381D01*
X135679538Y-116310374D01*
X135339306Y-116310077D01*
X135486892Y-116162748D01*
X135799643Y-115409559D01*
X135800355Y-114594019D01*
X135488919Y-113840285D01*
X134912748Y-113263108D01*
X134880002Y-113249511D01*
X134880002Y-112837963D01*
X135026264Y-112725861D01*
X135296840Y-112320857D01*
X135205244Y-112050000D01*
X134180000Y-112050000D01*
X134180000Y-112600000D01*
X133080000Y-112600000D01*
X133080000Y-112050000D01*
X132054756Y-112050000D01*
X131963160Y-112320857D01*
X132233736Y-112725861D01*
X132379998Y-112837963D01*
X132379998Y-113358000D01*
X132493197Y-113358000D01*
X132013108Y-113837252D01*
X131700357Y-114590441D01*
X131699645Y-115405981D01*
X127256798Y-115405981D01*
X127187327Y-115036778D01*
X126913563Y-114611337D01*
X126495847Y-114325924D01*
X126000000Y-114225512D01*
X124000000Y-114225512D01*
X123536778Y-114312673D01*
X123111337Y-114586437D01*
X122825924Y-115004153D01*
X122725512Y-115500000D01*
X103325000Y-115500000D01*
X103325000Y-112930452D01*
X124276655Y-112930452D01*
X124392759Y-113186448D01*
X125084358Y-113290455D01*
X125607241Y-113186448D01*
X125723345Y-112930452D01*
X125000000Y-112207107D01*
X124276655Y-112930452D01*
X103325000Y-112930452D01*
X103325000Y-111584358D01*
X123209545Y-111584358D01*
X123313552Y-112107241D01*
X123569548Y-112223345D01*
X124292893Y-111500000D01*
X125707107Y-111500000D01*
X126430452Y-112223345D01*
X126686448Y-112107241D01*
X126790455Y-111415642D01*
X126686448Y-110892759D01*
X126430452Y-110776655D01*
X125707107Y-111500000D01*
X124292893Y-111500000D01*
X123569548Y-110776655D01*
X123313552Y-110892759D01*
X123209545Y-111584358D01*
X103325000Y-111584358D01*
X103325000Y-110926961D01*
X106083699Y-110926961D01*
X106277361Y-111201784D01*
X107171149Y-111291592D01*
X107622639Y-111201784D01*
X107816301Y-110926961D01*
X106958888Y-110069548D01*
X124276655Y-110069548D01*
X125000000Y-110792893D01*
X125113750Y-110679143D01*
X131963160Y-110679143D01*
X132054756Y-110950000D01*
X133080000Y-110950000D01*
X133080000Y-109914736D01*
X134180000Y-109914736D01*
X134180000Y-110950000D01*
X135205244Y-110950000D01*
X135296840Y-110679143D01*
X135026264Y-110274139D01*
X134450863Y-109833125D01*
X134180000Y-109914736D01*
X133080000Y-109914736D01*
X132809137Y-109833125D01*
X132233736Y-110274139D01*
X131963160Y-110679143D01*
X125113750Y-110679143D01*
X125723345Y-110069548D01*
X125607241Y-109813552D01*
X124915642Y-109709545D01*
X124392759Y-109813552D01*
X124276655Y-110069548D01*
X106958888Y-110069548D01*
X106950000Y-110060660D01*
X106083699Y-110926961D01*
X103325000Y-110926961D01*
X103325000Y-109221149D01*
X104658408Y-109221149D01*
X104748216Y-109672639D01*
X105023039Y-109866301D01*
X105889340Y-109000000D01*
X108010660Y-109000000D01*
X108876961Y-109866301D01*
X109151784Y-109672639D01*
X109196179Y-109230805D01*
X133084881Y-109230805D01*
X133169983Y-109478846D01*
X133780064Y-109588239D01*
X134330017Y-109478846D01*
X134415119Y-109230805D01*
X133750000Y-108565685D01*
X133084881Y-109230805D01*
X109196179Y-109230805D01*
X109241592Y-108778851D01*
X109151784Y-108327361D01*
X108876961Y-108133699D01*
X108010660Y-109000000D01*
X105889340Y-109000000D01*
X105023039Y-108133699D01*
X104748216Y-108327361D01*
X104658408Y-109221149D01*
X103325000Y-109221149D01*
X103325000Y-108030064D01*
X132161761Y-108030064D01*
X132271154Y-108580017D01*
X132519195Y-108665119D01*
X133184315Y-108000000D01*
X134315685Y-108000000D01*
X134980805Y-108665119D01*
X135228846Y-108580017D01*
X135260052Y-108405981D01*
X136699645Y-108405981D01*
X137011081Y-109159715D01*
X137587252Y-109736892D01*
X138340441Y-110049643D01*
X138946354Y-110050172D01*
X138875512Y-110400000D01*
X138875512Y-112600000D01*
X138962673Y-113063222D01*
X139236437Y-113488663D01*
X139654153Y-113774076D01*
X140150000Y-113874488D01*
X142350000Y-113874488D01*
X142813222Y-113787327D01*
X143238663Y-113513563D01*
X143524076Y-113095847D01*
X143624488Y-112600000D01*
X143624488Y-110400000D01*
X143537327Y-109936778D01*
X143263563Y-109511337D01*
X142845847Y-109225924D01*
X142350000Y-109125512D01*
X140502354Y-109125512D01*
X140799643Y-108409559D01*
X140799799Y-108230805D01*
X145084881Y-108230805D01*
X145169983Y-108478846D01*
X145780064Y-108588239D01*
X146330017Y-108478846D01*
X146415119Y-108230805D01*
X145750000Y-107565685D01*
X145084881Y-108230805D01*
X140799799Y-108230805D01*
X140800355Y-107594019D01*
X140488919Y-106840285D01*
X139912748Y-106263108D01*
X139159559Y-105950357D01*
X138344019Y-105949645D01*
X137590285Y-106261081D01*
X137013108Y-106837252D01*
X136700357Y-107590441D01*
X136699645Y-108405981D01*
X135260052Y-108405981D01*
X135338239Y-107969936D01*
X135228846Y-107419983D01*
X134980805Y-107334881D01*
X134315685Y-108000000D01*
X133184315Y-108000000D01*
X132519195Y-107334881D01*
X132271154Y-107419983D01*
X132161761Y-108030064D01*
X103325000Y-108030064D01*
X103325000Y-107073039D01*
X106083699Y-107073039D01*
X106950000Y-107939340D01*
X107816301Y-107073039D01*
X107622639Y-106798216D01*
X107333816Y-106769195D01*
X133084881Y-106769195D01*
X133750000Y-107434315D01*
X134415119Y-106769195D01*
X134330017Y-106521154D01*
X133719936Y-106411761D01*
X133169983Y-106521154D01*
X133084881Y-106769195D01*
X107333816Y-106769195D01*
X106728851Y-106708408D01*
X106277361Y-106798216D01*
X106083699Y-107073039D01*
X103325000Y-107073039D01*
X103325000Y-104859500D01*
X104692000Y-104859500D01*
X104692000Y-105570776D01*
X104807399Y-105849373D01*
X105020628Y-106062602D01*
X105299225Y-106178000D01*
X106010500Y-106178000D01*
X106200000Y-105988500D01*
X106200000Y-104670000D01*
X107700000Y-104670000D01*
X107700000Y-105988500D01*
X107889500Y-106178000D01*
X108600775Y-106178000D01*
X108879372Y-106062602D01*
X109092601Y-105849373D01*
X109208000Y-105570776D01*
X109208000Y-104859500D01*
X109018500Y-104670000D01*
X107700000Y-104670000D01*
X106200000Y-104670000D01*
X104881500Y-104670000D01*
X104692000Y-104859500D01*
X103325000Y-104859500D01*
X103325000Y-104130631D01*
X132205335Y-104130631D01*
X132502162Y-104574912D01*
X132999365Y-104924694D01*
X133230000Y-104816307D01*
X133230000Y-103900000D01*
X134030000Y-103900000D01*
X134030000Y-104816307D01*
X134260635Y-104924694D01*
X134757838Y-104574912D01*
X135054665Y-104130631D01*
X134938737Y-103900000D01*
X134030000Y-103900000D01*
X133230000Y-103900000D01*
X132321263Y-103900000D01*
X132205335Y-104130631D01*
X103325000Y-104130631D01*
X103325000Y-102269224D01*
X104692000Y-102269224D01*
X104692000Y-102980500D01*
X104881500Y-103170000D01*
X106200000Y-103170000D01*
X106200000Y-101851500D01*
X107700000Y-101851500D01*
X107700000Y-103170000D01*
X109018500Y-103170000D01*
X109208000Y-102980500D01*
X109208000Y-102269224D01*
X109092601Y-101990627D01*
X108879372Y-101777398D01*
X108600775Y-101662000D01*
X107889500Y-101662000D01*
X107700000Y-101851500D01*
X106200000Y-101851500D01*
X106010500Y-101662000D01*
X105299225Y-101662000D01*
X105020628Y-101777398D01*
X104807399Y-101990627D01*
X104692000Y-102269224D01*
X103325000Y-102269224D01*
X103325000Y-101445589D01*
X123249610Y-101445589D01*
X123591431Y-102272858D01*
X124223813Y-102906345D01*
X125050484Y-103249608D01*
X125945589Y-103250390D01*
X126772858Y-102908569D01*
X126812126Y-102869369D01*
X132205335Y-102869369D01*
X132321263Y-103100000D01*
X133230000Y-103100000D01*
X133230000Y-102183693D01*
X134030000Y-102183693D01*
X134030000Y-103100000D01*
X134938737Y-103100000D01*
X135054665Y-102869369D01*
X134757838Y-102425088D01*
X134260635Y-102075306D01*
X134030000Y-102183693D01*
X133230000Y-102183693D01*
X132999365Y-102075306D01*
X132502162Y-102425088D01*
X132205335Y-102869369D01*
X126812126Y-102869369D01*
X127406345Y-102276187D01*
X127749608Y-101449516D01*
X127750390Y-100554411D01*
X127408569Y-99727142D01*
X126776187Y-99093655D01*
X125949516Y-98750392D01*
X125054411Y-98749610D01*
X124227142Y-99091431D01*
X123593655Y-99723813D01*
X123250392Y-100550484D01*
X123249610Y-101445589D01*
X103325000Y-101445589D01*
X103325000Y-98500000D01*
X131709838Y-98500000D01*
X131865885Y-99284501D01*
X132310269Y-99949569D01*
X132975337Y-100393953D01*
X133759838Y-100550000D01*
X133840162Y-100550000D01*
X134624663Y-100393953D01*
X135289731Y-99949569D01*
X135734115Y-99284501D01*
X135890162Y-98500000D01*
X135734115Y-97715499D01*
X135289731Y-97050431D01*
X134627586Y-96608000D01*
X135500776Y-96608000D01*
X135779373Y-96492601D01*
X135992602Y-96279372D01*
X136108000Y-96000775D01*
X136108000Y-95489500D01*
X135918500Y-95300000D01*
X134800000Y-95300000D01*
X134800000Y-95850000D01*
X133700000Y-95850000D01*
X133700000Y-95300000D01*
X132581500Y-95300000D01*
X132392000Y-95489500D01*
X132392000Y-96000775D01*
X132507398Y-96279372D01*
X132720627Y-96492601D01*
X132988289Y-96603471D01*
X132975337Y-96606047D01*
X132310269Y-97050431D01*
X131865885Y-97715499D01*
X131709838Y-98500000D01*
X103325000Y-98500000D01*
X103325000Y-96689500D01*
X123742000Y-96689500D01*
X123742000Y-97150776D01*
X123857399Y-97429373D01*
X124070628Y-97642602D01*
X124349225Y-97758000D01*
X124810500Y-97758000D01*
X125000000Y-97568500D01*
X125000000Y-96500000D01*
X126000000Y-96500000D01*
X126000000Y-97568500D01*
X126189500Y-97758000D01*
X126650775Y-97758000D01*
X126929372Y-97642602D01*
X127142601Y-97429373D01*
X127258000Y-97150776D01*
X127258000Y-96689500D01*
X127068500Y-96500000D01*
X126000000Y-96500000D01*
X125000000Y-96500000D01*
X123931500Y-96500000D01*
X123742000Y-96689500D01*
X103325000Y-96689500D01*
X103325000Y-94849224D01*
X123742000Y-94849224D01*
X123742000Y-95310500D01*
X123931500Y-95500000D01*
X125000000Y-95500000D01*
X125000000Y-94431500D01*
X126000000Y-94431500D01*
X126000000Y-95500000D01*
X127068500Y-95500000D01*
X127258000Y-95310500D01*
X127258000Y-94849224D01*
X127142601Y-94570627D01*
X126929372Y-94357398D01*
X126650775Y-94242000D01*
X126189500Y-94242000D01*
X126000000Y-94431500D01*
X125000000Y-94431500D01*
X124810500Y-94242000D01*
X124349225Y-94242000D01*
X124070628Y-94357398D01*
X123857399Y-94570627D01*
X123742000Y-94849224D01*
X103325000Y-94849224D01*
X103325000Y-93499225D01*
X132392000Y-93499225D01*
X132392000Y-94010500D01*
X132581500Y-94200000D01*
X133700000Y-94200000D01*
X133700000Y-93081500D01*
X134800000Y-93081500D01*
X134800000Y-94200000D01*
X135918500Y-94200000D01*
X136108000Y-94010500D01*
X136108000Y-93499225D01*
X135992602Y-93220628D01*
X135805438Y-93033464D01*
X136080017Y-92978846D01*
X136165119Y-92730805D01*
X135500000Y-92065685D01*
X134834881Y-92730805D01*
X134915556Y-92965944D01*
X134800000Y-93081500D01*
X133700000Y-93081500D01*
X133510500Y-92892000D01*
X132999224Y-92892000D01*
X132720627Y-93007399D01*
X132507398Y-93220628D01*
X132392000Y-93499225D01*
X103325000Y-93499225D01*
X103325000Y-91530064D01*
X133911761Y-91530064D01*
X134021154Y-92080017D01*
X134269195Y-92165119D01*
X134934315Y-91500000D01*
X136065685Y-91500000D01*
X136730805Y-92165119D01*
X136978846Y-92080017D01*
X137010052Y-91905981D01*
X138449645Y-91905981D01*
X138761081Y-92659715D01*
X139337252Y-93236892D01*
X139905353Y-93472788D01*
X139652844Y-93850694D01*
X139473961Y-94750000D01*
X139652844Y-95649306D01*
X140162260Y-96411701D01*
X140924655Y-96921117D01*
X141823961Y-97100000D01*
X141916039Y-97100000D01*
X142815345Y-96921117D01*
X143577740Y-96411701D01*
X144087156Y-95649306D01*
X144142278Y-95372189D01*
X144261081Y-95659715D01*
X144837252Y-96236892D01*
X145590441Y-96549643D01*
X145851453Y-96549871D01*
X145340285Y-96761081D01*
X144763108Y-97337252D01*
X144450357Y-98090441D01*
X144449645Y-98905981D01*
X144622991Y-99325512D01*
X144350000Y-99325512D01*
X143886778Y-99412673D01*
X143461337Y-99686437D01*
X143175924Y-100104153D01*
X143075512Y-100600000D01*
X143075512Y-102400000D01*
X143127287Y-102675162D01*
X142988919Y-102340285D01*
X142412748Y-101763108D01*
X141659559Y-101450357D01*
X140844019Y-101449645D01*
X140090285Y-101761081D01*
X139513108Y-102337252D01*
X139200357Y-103090441D01*
X139199645Y-103905981D01*
X139511081Y-104659715D01*
X140087252Y-105236892D01*
X140840441Y-105549643D01*
X141655981Y-105550355D01*
X142409715Y-105238919D01*
X142986892Y-104662748D01*
X143099693Y-104391092D01*
X143099628Y-104465785D01*
X143426256Y-105256286D01*
X144030533Y-105861619D01*
X144467396Y-106043020D01*
X143746323Y-106764093D01*
X144198874Y-107216643D01*
X144271154Y-107580017D01*
X144519195Y-107665119D01*
X145184315Y-107000000D01*
X146315685Y-107000000D01*
X146980805Y-107665119D01*
X147228846Y-107580017D01*
X147338239Y-106969936D01*
X147228846Y-106419983D01*
X146980805Y-106334881D01*
X146315685Y-107000000D01*
X145184315Y-107000000D01*
X144901472Y-106717157D01*
X145428473Y-106190156D01*
X145505909Y-106190224D01*
X145750000Y-106434315D01*
X146217967Y-105966347D01*
X146466286Y-105863744D01*
X147071619Y-105259467D01*
X147399626Y-104469538D01*
X147400372Y-103614215D01*
X147186652Y-103096973D01*
X147324076Y-102895847D01*
X147424488Y-102400000D01*
X147424488Y-100600000D01*
X147378416Y-100355149D01*
X147659715Y-100238919D01*
X148236892Y-99662748D01*
X148500000Y-99029113D01*
X148500000Y-114798092D01*
X148384115Y-114215499D01*
X147939731Y-113550431D01*
X147435821Y-113213730D01*
X147486892Y-113162748D01*
X147799643Y-112409559D01*
X147800355Y-111594019D01*
X147488919Y-110840285D01*
X146912748Y-110263108D01*
X146159559Y-109950357D01*
X145344019Y-109949645D01*
X144590285Y-110261081D01*
X144013108Y-110837252D01*
X143700357Y-111590441D01*
X143699645Y-112405981D01*
X144011081Y-113159715D01*
X144587252Y-113736892D01*
X144781723Y-113817643D01*
X144515885Y-114215499D01*
X144359838Y-115000000D01*
X144515885Y-115784501D01*
X144960269Y-116449569D01*
X145369896Y-116723273D01*
X144880269Y-117050431D01*
X144435885Y-117715499D01*
X144279838Y-118500000D01*
X144435885Y-119284501D01*
X144880269Y-119949569D01*
X145545337Y-120393953D01*
X146329838Y-120550000D01*
X146410162Y-120550000D01*
X147194663Y-120393953D01*
X147859731Y-119949569D01*
X148304115Y-119284501D01*
X148460162Y-118500000D01*
X148304115Y-117715499D01*
X147859731Y-117050431D01*
X147450104Y-116776727D01*
X147939731Y-116449569D01*
X148384115Y-115784501D01*
X148500000Y-115201908D01*
X148500000Y-128256921D01*
X148034501Y-127945885D01*
X147250000Y-127789838D01*
X146465499Y-127945885D01*
X145800431Y-128390269D01*
X145356047Y-129055337D01*
X145200000Y-129839838D01*
X145200000Y-129920162D01*
X145356047Y-130704663D01*
X145800431Y-131369731D01*
X146465499Y-131814115D01*
X147250000Y-131970162D01*
X148034501Y-131814115D01*
X148699569Y-131369731D01*
X149113660Y-130750000D01*
X168750000Y-130750000D01*
X168847264Y-130730304D01*
X168929202Y-130674318D01*
X168982903Y-130590864D01*
X169000000Y-130500000D01*
X169000000Y-127874609D01*
X173249523Y-127874609D01*
X173667304Y-128885715D01*
X174440216Y-129659977D01*
X174946003Y-129869998D01*
X174444285Y-130077304D01*
X173670023Y-130850216D01*
X173250478Y-131860591D01*
X173249523Y-132954609D01*
X173667304Y-133965715D01*
X174440216Y-134739977D01*
X175450591Y-135159522D01*
X176544609Y-135160477D01*
X177555715Y-134742696D01*
X178329977Y-133969784D01*
X178749522Y-132959409D01*
X178750477Y-131865391D01*
X178332696Y-130854285D01*
X177559784Y-130080023D01*
X177053997Y-129870002D01*
X177555715Y-129662696D01*
X178329977Y-128889784D01*
X178749522Y-127879409D01*
X178750477Y-126785391D01*
X178332696Y-125774285D01*
X177559784Y-125000023D01*
X176549409Y-124580478D01*
X175455391Y-124579523D01*
X174444285Y-124997304D01*
X173670023Y-125770216D01*
X173250478Y-126780591D01*
X173249523Y-127874609D01*
X169000000Y-127874609D01*
X169000000Y-123189500D01*
X173742000Y-123189500D01*
X173742000Y-123900776D01*
X173857399Y-124179373D01*
X174070628Y-124392602D01*
X174349225Y-124508000D01*
X175060500Y-124508000D01*
X175250000Y-124318500D01*
X175250000Y-123000000D01*
X176750000Y-123000000D01*
X176750000Y-124318500D01*
X176939500Y-124508000D01*
X177650775Y-124508000D01*
X177929372Y-124392602D01*
X178142601Y-124179373D01*
X178258000Y-123900776D01*
X178258000Y-123189500D01*
X178068500Y-123000000D01*
X176750000Y-123000000D01*
X175250000Y-123000000D01*
X173931500Y-123000000D01*
X173742000Y-123189500D01*
X169000000Y-123189500D01*
X169000000Y-120599224D01*
X173742000Y-120599224D01*
X173742000Y-121310500D01*
X173931500Y-121500000D01*
X175250000Y-121500000D01*
X175250000Y-120181500D01*
X176750000Y-120181500D01*
X176750000Y-121500000D01*
X178068500Y-121500000D01*
X178258000Y-121310500D01*
X178258000Y-120599224D01*
X178142601Y-120320627D01*
X177929372Y-120107398D01*
X177650775Y-119992000D01*
X176939500Y-119992000D01*
X176750000Y-120181500D01*
X175250000Y-120181500D01*
X175060500Y-119992000D01*
X174349225Y-119992000D01*
X174070628Y-120107398D01*
X173857399Y-120320627D01*
X173742000Y-120599224D01*
X169000000Y-120599224D01*
X169000000Y-115784609D01*
X172999523Y-115784609D01*
X173417304Y-116795715D01*
X174190216Y-117569977D01*
X175200591Y-117989522D01*
X176294609Y-117990477D01*
X177305715Y-117572696D01*
X178079977Y-116799784D01*
X178499522Y-115789409D01*
X178500477Y-114695391D01*
X178082696Y-113684285D01*
X177309784Y-112910023D01*
X176299409Y-112490478D01*
X175205391Y-112489523D01*
X174194285Y-112907304D01*
X173420023Y-113680216D01*
X173000478Y-114690591D01*
X172999523Y-115784609D01*
X169000000Y-115784609D01*
X169000000Y-112086961D01*
X174883699Y-112086961D01*
X175077361Y-112361784D01*
X175971149Y-112451592D01*
X176422639Y-112361784D01*
X176616301Y-112086961D01*
X175750000Y-111220660D01*
X174883699Y-112086961D01*
X169000000Y-112086961D01*
X169000000Y-110381149D01*
X173458408Y-110381149D01*
X173548216Y-110832639D01*
X173823039Y-111026301D01*
X174689340Y-110160000D01*
X176810660Y-110160000D01*
X177676961Y-111026301D01*
X177951784Y-110832639D01*
X178041592Y-109938851D01*
X177951784Y-109487361D01*
X177676961Y-109293699D01*
X176810660Y-110160000D01*
X174689340Y-110160000D01*
X173823039Y-109293699D01*
X173548216Y-109487361D01*
X173458408Y-110381149D01*
X169000000Y-110381149D01*
X169000000Y-108233039D01*
X174883699Y-108233039D01*
X175750000Y-109099340D01*
X176616301Y-108233039D01*
X176422639Y-107958216D01*
X175528851Y-107868408D01*
X175077361Y-107958216D01*
X174883699Y-108233039D01*
X169000000Y-108233039D01*
X169000000Y-107006961D01*
X174883699Y-107006961D01*
X175077361Y-107281784D01*
X175971149Y-107371592D01*
X176422639Y-107281784D01*
X176616301Y-107006961D01*
X175750000Y-106140660D01*
X174883699Y-107006961D01*
X169000000Y-107006961D01*
X169000000Y-105301149D01*
X173458408Y-105301149D01*
X173548216Y-105752639D01*
X173823039Y-105946301D01*
X174689340Y-105080000D01*
X176810660Y-105080000D01*
X177676961Y-105946301D01*
X177951784Y-105752639D01*
X178041592Y-104858851D01*
X177951784Y-104407361D01*
X177676961Y-104213699D01*
X176810660Y-105080000D01*
X174689340Y-105080000D01*
X173823039Y-104213699D01*
X173548216Y-104407361D01*
X173458408Y-105301149D01*
X169000000Y-105301149D01*
X169000000Y-103153039D01*
X174883699Y-103153039D01*
X175750000Y-104019340D01*
X176616301Y-103153039D01*
X176422639Y-102878216D01*
X175528851Y-102788408D01*
X175077361Y-102878216D01*
X174883699Y-103153039D01*
X169000000Y-103153039D01*
X169000000Y-98500000D01*
X172975512Y-98500000D01*
X172975512Y-101500000D01*
X173062673Y-101963222D01*
X173336437Y-102388663D01*
X173754153Y-102674076D01*
X174250000Y-102774488D01*
X177250000Y-102774488D01*
X177713222Y-102687327D01*
X178138663Y-102413563D01*
X178424076Y-101995847D01*
X178524488Y-101500000D01*
X178524488Y-98500000D01*
X178437327Y-98036778D01*
X178163563Y-97611337D01*
X177745847Y-97325924D01*
X177250000Y-97225512D01*
X174250000Y-97225512D01*
X173786778Y-97312673D01*
X173361337Y-97586437D01*
X173075924Y-98004153D01*
X172975512Y-98500000D01*
X169000000Y-98500000D01*
X169000000Y-93070001D01*
X172707817Y-93070001D01*
X172839421Y-93329869D01*
X173571613Y-93431108D01*
X174080579Y-93329869D01*
X174212183Y-93070001D01*
X177787817Y-93070001D01*
X177919421Y-93329869D01*
X178651613Y-93431108D01*
X179160579Y-93329869D01*
X179292183Y-93070001D01*
X178540000Y-92317817D01*
X177787817Y-93070001D01*
X174212183Y-93070001D01*
X173460000Y-92317817D01*
X172707817Y-93070001D01*
X169000000Y-93070001D01*
X169000000Y-91651613D01*
X171568892Y-91651613D01*
X171670131Y-92160579D01*
X171929999Y-92292183D01*
X172682183Y-91540000D01*
X171929999Y-90787817D01*
X171670131Y-90919421D01*
X171568892Y-91651613D01*
X169000000Y-91651613D01*
X169000000Y-88500000D01*
X168980304Y-88402736D01*
X168924318Y-88320798D01*
X168840864Y-88267097D01*
X168750000Y-88250000D01*
X148750000Y-88250000D01*
X148652736Y-88269696D01*
X148570798Y-88325682D01*
X148517097Y-88409136D01*
X148500000Y-88500000D01*
X148500000Y-97972150D01*
X148238919Y-97340285D01*
X147662748Y-96763108D01*
X146909559Y-96450357D01*
X146648547Y-96450129D01*
X147159715Y-96238919D01*
X147736892Y-95662748D01*
X148049643Y-94909559D01*
X148050355Y-94094019D01*
X147738919Y-93340285D01*
X147162748Y-92763108D01*
X146409559Y-92450357D01*
X145594019Y-92449645D01*
X144840285Y-92761081D01*
X144263108Y-93337252D01*
X144064184Y-93816314D01*
X143577740Y-93088299D01*
X142815345Y-92578883D01*
X142313191Y-92478998D01*
X142549643Y-91909559D01*
X142550355Y-91094019D01*
X142400279Y-90730805D01*
X145334881Y-90730805D01*
X145419983Y-90978846D01*
X146030064Y-91088239D01*
X146580017Y-90978846D01*
X146665119Y-90730805D01*
X146000000Y-90065685D01*
X145334881Y-90730805D01*
X142400279Y-90730805D01*
X142238919Y-90340285D01*
X141662748Y-89763108D01*
X141101516Y-89530064D01*
X144411761Y-89530064D01*
X144521154Y-90080017D01*
X144769195Y-90165119D01*
X145434315Y-89500000D01*
X146565685Y-89500000D01*
X147230805Y-90165119D01*
X147478846Y-90080017D01*
X147588239Y-89469936D01*
X147478846Y-88919983D01*
X147230805Y-88834881D01*
X146565685Y-89500000D01*
X145434315Y-89500000D01*
X144769195Y-88834881D01*
X144521154Y-88919983D01*
X144411761Y-89530064D01*
X141101516Y-89530064D01*
X140909559Y-89450357D01*
X140094019Y-89449645D01*
X139340285Y-89761081D01*
X138763108Y-90337252D01*
X138450357Y-91090441D01*
X138449645Y-91905981D01*
X137010052Y-91905981D01*
X137088239Y-91469936D01*
X136978846Y-90919983D01*
X136730805Y-90834881D01*
X136065685Y-91500000D01*
X134934315Y-91500000D01*
X134269195Y-90834881D01*
X134021154Y-90919983D01*
X133911761Y-91530064D01*
X103325000Y-91530064D01*
X103325000Y-90269195D01*
X134834881Y-90269195D01*
X135500000Y-90934315D01*
X136165119Y-90269195D01*
X136080017Y-90021154D01*
X135469936Y-89911761D01*
X134919983Y-90021154D01*
X134834881Y-90269195D01*
X103325000Y-90269195D01*
X103325000Y-88176961D01*
X107723699Y-88176961D01*
X107917361Y-88451784D01*
X108811149Y-88541592D01*
X109262639Y-88451784D01*
X109456301Y-88176961D01*
X108590000Y-87310660D01*
X107723699Y-88176961D01*
X103325000Y-88176961D01*
X103325000Y-86471149D01*
X106298408Y-86471149D01*
X106388216Y-86922639D01*
X106663039Y-87116301D01*
X107529340Y-86250000D01*
X109650660Y-86250000D01*
X110516961Y-87116301D01*
X110568705Y-87079838D01*
X124450000Y-87079838D01*
X124450000Y-87160162D01*
X124606047Y-87944663D01*
X125050431Y-88609731D01*
X125715499Y-89054115D01*
X126500000Y-89210162D01*
X127284501Y-89054115D01*
X127949569Y-88609731D01*
X128250000Y-88160104D01*
X128550431Y-88609731D01*
X129215499Y-89054115D01*
X130000000Y-89210162D01*
X130784501Y-89054115D01*
X131449569Y-88609731D01*
X131677107Y-88269195D01*
X145334881Y-88269195D01*
X146000000Y-88934315D01*
X146665119Y-88269195D01*
X146580017Y-88021154D01*
X145969936Y-87911761D01*
X145419983Y-88021154D01*
X145334881Y-88269195D01*
X131677107Y-88269195D01*
X131893953Y-87944663D01*
X131936492Y-87730805D01*
X148334881Y-87730805D01*
X148419983Y-87978846D01*
X149030064Y-88088239D01*
X149523937Y-87990001D01*
X172707817Y-87990001D01*
X172839421Y-88249869D01*
X173571613Y-88351108D01*
X173581393Y-88349163D01*
X173759875Y-88527645D01*
X173750392Y-88550484D01*
X173749610Y-89445589D01*
X173760437Y-89471793D01*
X173554798Y-89677432D01*
X173348387Y-89648892D01*
X172839421Y-89750131D01*
X172707817Y-90009999D01*
X173460000Y-90762183D01*
X173848909Y-90373274D01*
X174626726Y-91151091D01*
X174237817Y-91540000D01*
X174990001Y-92292183D01*
X175249869Y-92160579D01*
X175351108Y-91428387D01*
X175349163Y-91418607D01*
X175527645Y-91240125D01*
X175550484Y-91249608D01*
X176445589Y-91250390D01*
X176471793Y-91239563D01*
X176677432Y-91445202D01*
X176648892Y-91651613D01*
X176750131Y-92160579D01*
X177009999Y-92292183D01*
X177762183Y-91540000D01*
X179317817Y-91540000D01*
X180070001Y-92292183D01*
X180329869Y-92160579D01*
X180431108Y-91428387D01*
X180329869Y-90919421D01*
X180070001Y-90787817D01*
X179317817Y-91540000D01*
X177762183Y-91540000D01*
X177373274Y-91151091D01*
X178151091Y-90373274D01*
X178540000Y-90762183D01*
X179292183Y-90009999D01*
X179160579Y-89750131D01*
X178428387Y-89648892D01*
X178418607Y-89650837D01*
X178240125Y-89472355D01*
X178249608Y-89449516D01*
X178250390Y-88554411D01*
X178239563Y-88528207D01*
X178445202Y-88322568D01*
X178651613Y-88351108D01*
X179160579Y-88249869D01*
X179292183Y-87990001D01*
X178540000Y-87237817D01*
X178151091Y-87626726D01*
X177373274Y-86848909D01*
X177762183Y-86460000D01*
X179317817Y-86460000D01*
X180070001Y-87212183D01*
X180329869Y-87080579D01*
X180431108Y-86348387D01*
X180329869Y-85839421D01*
X180070001Y-85707817D01*
X179317817Y-86460000D01*
X177762183Y-86460000D01*
X177009999Y-85707817D01*
X176750131Y-85839421D01*
X176648892Y-86571613D01*
X176650837Y-86581393D01*
X176472355Y-86759875D01*
X176449516Y-86750392D01*
X175554411Y-86749610D01*
X175528207Y-86760437D01*
X175322568Y-86554798D01*
X175351108Y-86348387D01*
X175249869Y-85839421D01*
X174990001Y-85707817D01*
X174237817Y-86460000D01*
X174626726Y-86848909D01*
X173848909Y-87626726D01*
X173460000Y-87237817D01*
X172707817Y-87990001D01*
X149523937Y-87990001D01*
X149580017Y-87978846D01*
X149665119Y-87730805D01*
X149000000Y-87065685D01*
X148334881Y-87730805D01*
X131936492Y-87730805D01*
X132050000Y-87160162D01*
X132050000Y-87079838D01*
X131893953Y-86295337D01*
X131449569Y-85630269D01*
X130784501Y-85185885D01*
X130000000Y-85029838D01*
X129215499Y-85185885D01*
X128550431Y-85630269D01*
X128250000Y-86079896D01*
X127949569Y-85630269D01*
X127284501Y-85185885D01*
X126500000Y-85029838D01*
X125715499Y-85185885D01*
X125050431Y-85630269D01*
X124606047Y-86295337D01*
X124450000Y-87079838D01*
X110568705Y-87079838D01*
X110791784Y-86922639D01*
X110881592Y-86028851D01*
X110791784Y-85577361D01*
X110516961Y-85383699D01*
X109650660Y-86250000D01*
X107529340Y-86250000D01*
X106663039Y-85383699D01*
X106388216Y-85577361D01*
X106298408Y-86471149D01*
X103325000Y-86471149D01*
X103325000Y-84323039D01*
X107723699Y-84323039D01*
X108590000Y-85189340D01*
X109456301Y-84323039D01*
X109262639Y-84048216D01*
X108553495Y-83976961D01*
X113443699Y-83976961D01*
X113637361Y-84251784D01*
X114531149Y-84341592D01*
X114982639Y-84251784D01*
X115176301Y-83976961D01*
X114310000Y-83110660D01*
X113443699Y-83976961D01*
X108553495Y-83976961D01*
X108368851Y-83958408D01*
X107917361Y-84048216D01*
X107723699Y-84323039D01*
X103325000Y-84323039D01*
X103325000Y-82631661D01*
X103511431Y-83082858D01*
X104143813Y-83716345D01*
X104970484Y-84059608D01*
X105865589Y-84060390D01*
X106692858Y-83718569D01*
X107326345Y-83086187D01*
X107362132Y-83000000D01*
X130789838Y-83000000D01*
X130945885Y-83784501D01*
X131390269Y-84449569D01*
X132055337Y-84893953D01*
X132839838Y-85050000D01*
X132920162Y-85050000D01*
X133704663Y-84893953D01*
X134369731Y-84449569D01*
X134814115Y-83784501D01*
X134889407Y-83405981D01*
X138449645Y-83405981D01*
X138761081Y-84159715D01*
X139337252Y-84736892D01*
X140090441Y-85049643D01*
X140905981Y-85050355D01*
X141659715Y-84738919D01*
X142050822Y-84348493D01*
X141950357Y-84590441D01*
X141949645Y-85405981D01*
X142261081Y-86159715D01*
X142837252Y-86736892D01*
X143590441Y-87049643D01*
X144405981Y-87050355D01*
X145159715Y-86738919D01*
X145368934Y-86530064D01*
X147411761Y-86530064D01*
X147521154Y-87080017D01*
X147769195Y-87165119D01*
X148434315Y-86500000D01*
X149565685Y-86500000D01*
X150230805Y-87165119D01*
X150478846Y-87080017D01*
X150588239Y-86469936D01*
X150478846Y-85919983D01*
X150230805Y-85834881D01*
X149565685Y-86500000D01*
X148434315Y-86500000D01*
X147769195Y-85834881D01*
X147521154Y-85919983D01*
X147411761Y-86530064D01*
X145368934Y-86530064D01*
X145736892Y-86162748D01*
X146049643Y-85409559D01*
X146049765Y-85269195D01*
X148334881Y-85269195D01*
X149000000Y-85934315D01*
X149665119Y-85269195D01*
X149580017Y-85021154D01*
X148969936Y-84911761D01*
X148419983Y-85021154D01*
X148334881Y-85269195D01*
X146049765Y-85269195D01*
X146050355Y-84594019D01*
X145738919Y-83840285D01*
X145162748Y-83263108D01*
X144409559Y-82950357D01*
X143594019Y-82949645D01*
X142840285Y-83261081D01*
X142449178Y-83651507D01*
X142549643Y-83409559D01*
X142550355Y-82594019D01*
X142238919Y-81840285D01*
X141662748Y-81263108D01*
X140909559Y-80950357D01*
X140094019Y-80949645D01*
X139340285Y-81261081D01*
X138763108Y-81837252D01*
X138450357Y-82590441D01*
X138449645Y-83405981D01*
X134889407Y-83405981D01*
X134970162Y-83000000D01*
X134814115Y-82215499D01*
X134369731Y-81550431D01*
X133704663Y-81106047D01*
X132920162Y-80950000D01*
X132839838Y-80950000D01*
X132055337Y-81106047D01*
X131390269Y-81550431D01*
X130945885Y-82215499D01*
X130789838Y-83000000D01*
X107362132Y-83000000D01*
X107664777Y-82271149D01*
X112018408Y-82271149D01*
X112108216Y-82722639D01*
X112383039Y-82916301D01*
X113249340Y-82050000D01*
X115370660Y-82050000D01*
X116236961Y-82916301D01*
X116511784Y-82722639D01*
X116601592Y-81828851D01*
X116511784Y-81377361D01*
X116236961Y-81183699D01*
X115370660Y-82050000D01*
X113249340Y-82050000D01*
X112383039Y-81183699D01*
X112108216Y-81377361D01*
X112018408Y-82271149D01*
X107664777Y-82271149D01*
X107669608Y-82259516D01*
X107670390Y-81364411D01*
X107328569Y-80537142D01*
X106915189Y-80123039D01*
X113443699Y-80123039D01*
X114310000Y-80989340D01*
X115176301Y-80123039D01*
X114982639Y-79848216D01*
X114088851Y-79758408D01*
X113637361Y-79848216D01*
X113443699Y-80123039D01*
X106915189Y-80123039D01*
X106696187Y-79903655D01*
X105869516Y-79560392D01*
X104974411Y-79559610D01*
X104147142Y-79901431D01*
X103513655Y-80533813D01*
X103325000Y-80988146D01*
X103325000Y-78544609D01*
X116009523Y-78544609D01*
X116427304Y-79555715D01*
X117200216Y-80329977D01*
X118210591Y-80749522D01*
X119304609Y-80750477D01*
X120315715Y-80332696D01*
X121089977Y-79559784D01*
X121446991Y-78700000D01*
X124425512Y-78700000D01*
X124425512Y-80300000D01*
X124512673Y-80763222D01*
X124786437Y-81188663D01*
X125204153Y-81474076D01*
X125700000Y-81574488D01*
X127300000Y-81574488D01*
X127763222Y-81487327D01*
X128188663Y-81213563D01*
X128247268Y-81127792D01*
X128286437Y-81188663D01*
X128704153Y-81474076D01*
X129200000Y-81574488D01*
X130800000Y-81574488D01*
X131263222Y-81487327D01*
X131688663Y-81213563D01*
X131974076Y-80795847D01*
X132074488Y-80300000D01*
X132074488Y-79730805D01*
X135334881Y-79730805D01*
X135419983Y-79978846D01*
X136030064Y-80088239D01*
X136580017Y-79978846D01*
X136665119Y-79730805D01*
X136000000Y-79065685D01*
X135334881Y-79730805D01*
X132074488Y-79730805D01*
X132074488Y-78700000D01*
X132042513Y-78530064D01*
X134411761Y-78530064D01*
X134521154Y-79080017D01*
X134769195Y-79165119D01*
X135434315Y-78500000D01*
X136565685Y-78500000D01*
X137230805Y-79165119D01*
X137478846Y-79080017D01*
X137510052Y-78905981D01*
X138949645Y-78905981D01*
X139261081Y-79659715D01*
X139837252Y-80236892D01*
X140590441Y-80549643D01*
X141405981Y-80550355D01*
X141949715Y-80325689D01*
X141949645Y-80405981D01*
X142261081Y-81159715D01*
X142837252Y-81736892D01*
X143590441Y-82049643D01*
X144405981Y-82050355D01*
X144755393Y-81905981D01*
X146949645Y-81905981D01*
X147261081Y-82659715D01*
X147837252Y-83236892D01*
X148590441Y-83549643D01*
X149405981Y-83550355D01*
X150159715Y-83238919D01*
X150442294Y-82956832D01*
X150409838Y-83120000D01*
X150565885Y-83904501D01*
X151010269Y-84569569D01*
X151675337Y-85013953D01*
X152459838Y-85170000D01*
X152540162Y-85170000D01*
X153324663Y-85013953D01*
X153989731Y-84569569D01*
X154434115Y-83904501D01*
X154590162Y-83120000D01*
X154434115Y-82335499D01*
X154109715Y-81850000D01*
X154434115Y-81364501D01*
X154590162Y-80580000D01*
X154434115Y-79795499D01*
X154109715Y-79310000D01*
X154434115Y-78824501D01*
X154590162Y-78040000D01*
X154434115Y-77255499D01*
X153996165Y-76600060D01*
X154058000Y-76450775D01*
X154058000Y-76089500D01*
X153868500Y-75900000D01*
X152900000Y-75900000D01*
X152900000Y-76061576D01*
X152540162Y-75990000D01*
X152459838Y-75990000D01*
X152100000Y-76061576D01*
X152100000Y-75900000D01*
X151131500Y-75900000D01*
X150942000Y-76089500D01*
X150942000Y-76450775D01*
X151003835Y-76600060D01*
X150565885Y-77255499D01*
X150409838Y-78040000D01*
X150565885Y-78824501D01*
X150890285Y-79310000D01*
X150565885Y-79795499D01*
X150504275Y-80105232D01*
X150162748Y-79763108D01*
X149409559Y-79450357D01*
X148594019Y-79449645D01*
X147840285Y-79761081D01*
X147263108Y-80337252D01*
X146950357Y-81090441D01*
X146949645Y-81905981D01*
X144755393Y-81905981D01*
X145159715Y-81738919D01*
X145736892Y-81162748D01*
X146049643Y-80409559D01*
X146050355Y-79594019D01*
X145804692Y-78999468D01*
X146049643Y-78409559D01*
X146050355Y-77594019D01*
X145738919Y-76840285D01*
X145162748Y-76263108D01*
X144409559Y-75950357D01*
X143594019Y-75949645D01*
X142840285Y-76261081D01*
X142263108Y-76837252D01*
X142255369Y-76855890D01*
X142162748Y-76763108D01*
X141409559Y-76450357D01*
X140594019Y-76449645D01*
X139840285Y-76761081D01*
X139263108Y-77337252D01*
X138950357Y-78090441D01*
X138949645Y-78905981D01*
X137510052Y-78905981D01*
X137588239Y-78469936D01*
X137478846Y-77919983D01*
X137230805Y-77834881D01*
X136565685Y-78500000D01*
X135434315Y-78500000D01*
X134769195Y-77834881D01*
X134521154Y-77919983D01*
X134411761Y-78530064D01*
X132042513Y-78530064D01*
X131987327Y-78236778D01*
X131845764Y-78016783D01*
X131893953Y-77944663D01*
X132028311Y-77269195D01*
X135334881Y-77269195D01*
X136000000Y-77934315D01*
X136665119Y-77269195D01*
X136580017Y-77021154D01*
X135969936Y-76911761D01*
X135419983Y-77021154D01*
X135334881Y-77269195D01*
X132028311Y-77269195D01*
X132050000Y-77160162D01*
X132050000Y-77079838D01*
X131893953Y-76295337D01*
X131449569Y-75630269D01*
X130784501Y-75185885D01*
X130000000Y-75029838D01*
X129215499Y-75185885D01*
X128550431Y-75630269D01*
X128250000Y-76079896D01*
X127949569Y-75630269D01*
X127284501Y-75185885D01*
X126500000Y-75029838D01*
X125715499Y-75185885D01*
X125050431Y-75630269D01*
X124606047Y-76295337D01*
X124450000Y-77079838D01*
X124450000Y-77160162D01*
X124606047Y-77944663D01*
X124654094Y-78016570D01*
X124525924Y-78204153D01*
X124425512Y-78700000D01*
X121446991Y-78700000D01*
X121509522Y-78549409D01*
X121510477Y-77455391D01*
X121092696Y-76444285D01*
X120319784Y-75670023D01*
X119309409Y-75250478D01*
X118215391Y-75249523D01*
X117204285Y-75667304D01*
X116430023Y-76440216D01*
X116010478Y-77450591D01*
X116009523Y-78544609D01*
X103325000Y-78544609D01*
X103325000Y-74635589D01*
X108249610Y-74635589D01*
X108591431Y-75462858D01*
X109223813Y-76096345D01*
X110050484Y-76439608D01*
X110945589Y-76440390D01*
X111772858Y-76098569D01*
X112406345Y-75466187D01*
X112503898Y-75231252D01*
X112617304Y-75505715D01*
X113390216Y-76279977D01*
X114400591Y-76699522D01*
X115494609Y-76700477D01*
X116505715Y-76282696D01*
X117279977Y-75509784D01*
X117699522Y-74499409D01*
X117699957Y-74000000D01*
X130789838Y-74000000D01*
X130945885Y-74784501D01*
X131390269Y-75449569D01*
X132055337Y-75893953D01*
X132839838Y-76050000D01*
X132920162Y-76050000D01*
X133704663Y-75893953D01*
X134369731Y-75449569D01*
X134814115Y-74784501D01*
X134889407Y-74405981D01*
X138449645Y-74405981D01*
X138761081Y-75159715D01*
X139337252Y-75736892D01*
X140090441Y-76049643D01*
X140905981Y-76050355D01*
X141659715Y-75738919D01*
X141899051Y-75500000D01*
X158029838Y-75500000D01*
X158185885Y-76284501D01*
X158510285Y-76770000D01*
X158185885Y-77255499D01*
X158029838Y-78040000D01*
X158185885Y-78824501D01*
X158510285Y-79310000D01*
X158185885Y-79795499D01*
X158029838Y-80580000D01*
X158185885Y-81364501D01*
X158510285Y-81850000D01*
X158185885Y-82335499D01*
X158029838Y-83120000D01*
X158185885Y-83904501D01*
X158630269Y-84569569D01*
X159295337Y-85013953D01*
X160079838Y-85170000D01*
X160160162Y-85170000D01*
X160944663Y-85013953D01*
X161609731Y-84569569D01*
X161629488Y-84540000D01*
X163858859Y-84540000D01*
X164018712Y-85343635D01*
X164473935Y-86024924D01*
X165155224Y-86480147D01*
X165958859Y-86640000D01*
X166041141Y-86640000D01*
X166384945Y-86571613D01*
X171568892Y-86571613D01*
X171670131Y-87080579D01*
X171929999Y-87212183D01*
X172682183Y-86460000D01*
X171929999Y-85707817D01*
X171670131Y-85839421D01*
X171568892Y-86571613D01*
X166384945Y-86571613D01*
X166844776Y-86480147D01*
X167526065Y-86024924D01*
X167981288Y-85343635D01*
X168063565Y-84929999D01*
X172707817Y-84929999D01*
X173460000Y-85682183D01*
X174212183Y-84929999D01*
X177787817Y-84929999D01*
X178540000Y-85682183D01*
X179292183Y-84929999D01*
X179160579Y-84670131D01*
X178428387Y-84568892D01*
X177919421Y-84670131D01*
X177787817Y-84929999D01*
X174212183Y-84929999D01*
X174080579Y-84670131D01*
X173348387Y-84568892D01*
X172839421Y-84670131D01*
X172707817Y-84929999D01*
X168063565Y-84929999D01*
X168141141Y-84540000D01*
X167981288Y-83736365D01*
X167870518Y-83570586D01*
X168024076Y-83345847D01*
X168124488Y-82850000D01*
X168124488Y-81150000D01*
X168037327Y-80686778D01*
X167763563Y-80261337D01*
X167345847Y-79975924D01*
X166850000Y-79875512D01*
X165150000Y-79875512D01*
X164686778Y-79962673D01*
X164261337Y-80236437D01*
X163975924Y-80654153D01*
X163875512Y-81150000D01*
X163875512Y-82850000D01*
X163962673Y-83313222D01*
X164128871Y-83571501D01*
X164018712Y-83736365D01*
X163858859Y-84540000D01*
X161629488Y-84540000D01*
X162054115Y-83904501D01*
X162210162Y-83120000D01*
X162054115Y-82335499D01*
X161729715Y-81850000D01*
X162054115Y-81364501D01*
X162210162Y-80580000D01*
X162060932Y-79829772D01*
X162590441Y-80049643D01*
X163405981Y-80050355D01*
X164159715Y-79738919D01*
X164668716Y-79230805D01*
X167334881Y-79230805D01*
X167419983Y-79478846D01*
X168030064Y-79588239D01*
X168580017Y-79478846D01*
X168665119Y-79230805D01*
X168601276Y-79166961D01*
X175133699Y-79166961D01*
X175327361Y-79441784D01*
X176221149Y-79531592D01*
X176672639Y-79441784D01*
X176866301Y-79166961D01*
X176000000Y-78300660D01*
X175133699Y-79166961D01*
X168601276Y-79166961D01*
X168000000Y-78565685D01*
X167334881Y-79230805D01*
X164668716Y-79230805D01*
X164736892Y-79162748D01*
X165049643Y-78409559D01*
X165049974Y-78030064D01*
X166411761Y-78030064D01*
X166521154Y-78580017D01*
X166769195Y-78665119D01*
X167434315Y-78000000D01*
X168565685Y-78000000D01*
X169230805Y-78665119D01*
X169478846Y-78580017D01*
X169588239Y-77969936D01*
X169487035Y-77461149D01*
X173708408Y-77461149D01*
X173798216Y-77912639D01*
X174073039Y-78106301D01*
X174939340Y-77240000D01*
X177060660Y-77240000D01*
X177926961Y-78106301D01*
X178201784Y-77912639D01*
X178291592Y-77018851D01*
X178201784Y-76567361D01*
X177926961Y-76373699D01*
X177060660Y-77240000D01*
X174939340Y-77240000D01*
X174073039Y-76373699D01*
X173798216Y-76567361D01*
X173708408Y-77461149D01*
X169487035Y-77461149D01*
X169478846Y-77419983D01*
X169230805Y-77334881D01*
X168565685Y-78000000D01*
X167434315Y-78000000D01*
X166769195Y-77334881D01*
X166521154Y-77419983D01*
X166411761Y-78030064D01*
X165049974Y-78030064D01*
X165050355Y-77594019D01*
X164738919Y-76840285D01*
X164667953Y-76769195D01*
X167334881Y-76769195D01*
X168000000Y-77434315D01*
X168665119Y-76769195D01*
X168580017Y-76521154D01*
X167969936Y-76411761D01*
X167419983Y-76521154D01*
X167334881Y-76769195D01*
X164667953Y-76769195D01*
X164162748Y-76263108D01*
X163409559Y-75950357D01*
X162594019Y-75949645D01*
X162078339Y-76162719D01*
X162210162Y-75500000D01*
X162172974Y-75313039D01*
X175133699Y-75313039D01*
X176000000Y-76179340D01*
X176866301Y-75313039D01*
X176672639Y-75038216D01*
X175778851Y-74948408D01*
X175327361Y-75038216D01*
X175133699Y-75313039D01*
X162172974Y-75313039D01*
X162054115Y-74715499D01*
X161609731Y-74050431D01*
X160944663Y-73606047D01*
X160160162Y-73450000D01*
X160079838Y-73450000D01*
X159295337Y-73606047D01*
X158630269Y-74050431D01*
X158185885Y-74715499D01*
X158029838Y-75500000D01*
X141899051Y-75500000D01*
X142236892Y-75162748D01*
X142538141Y-74437259D01*
X142837252Y-74736892D01*
X143590441Y-75049643D01*
X144405981Y-75050355D01*
X145159715Y-74738919D01*
X145349740Y-74549225D01*
X150942000Y-74549225D01*
X150942000Y-74910500D01*
X151131500Y-75100000D01*
X152100000Y-75100000D01*
X152100000Y-74131500D01*
X152900000Y-74131500D01*
X152900000Y-75100000D01*
X153868500Y-75100000D01*
X154058000Y-74910500D01*
X154058000Y-74549225D01*
X153942602Y-74270628D01*
X153729373Y-74057399D01*
X153450776Y-73942000D01*
X153089500Y-73942000D01*
X152900000Y-74131500D01*
X152100000Y-74131500D01*
X151910500Y-73942000D01*
X151549224Y-73942000D01*
X151270627Y-74057399D01*
X151057398Y-74270628D01*
X150942000Y-74549225D01*
X145349740Y-74549225D01*
X145736892Y-74162748D01*
X146049643Y-73409559D01*
X146050355Y-72594019D01*
X145738919Y-71840285D01*
X145553287Y-71654328D01*
X145859731Y-71449569D01*
X146304115Y-70784501D01*
X146460162Y-70000000D01*
X146342005Y-69405981D01*
X152449645Y-69405981D01*
X152761081Y-70159715D01*
X153337252Y-70736892D01*
X154090441Y-71049643D01*
X154905981Y-71050355D01*
X155659715Y-70738919D01*
X156236892Y-70162748D01*
X156549643Y-69409559D01*
X156550355Y-68594019D01*
X156387550Y-68200000D01*
X157425512Y-68200000D01*
X157425512Y-69800000D01*
X157512673Y-70263222D01*
X157786437Y-70688663D01*
X158204153Y-70974076D01*
X158700000Y-71074488D01*
X160300000Y-71074488D01*
X160763222Y-70987327D01*
X161188663Y-70713563D01*
X161474076Y-70295847D01*
X161574488Y-69800000D01*
X161574488Y-68200000D01*
X161487327Y-67736778D01*
X161415149Y-67624609D01*
X173249523Y-67624609D01*
X173667304Y-68635715D01*
X174440216Y-69409977D01*
X174946003Y-69619998D01*
X174444285Y-69827304D01*
X173670023Y-70600216D01*
X173250478Y-71610591D01*
X173249523Y-72704609D01*
X173667304Y-73715715D01*
X174440216Y-74489977D01*
X175450591Y-74909522D01*
X176544609Y-74910477D01*
X177555715Y-74492696D01*
X178329977Y-73719784D01*
X178749522Y-72709409D01*
X178750477Y-71615391D01*
X178332696Y-70604285D01*
X177559784Y-69830023D01*
X177053997Y-69620002D01*
X177555715Y-69412696D01*
X178329977Y-68639784D01*
X178749522Y-67629409D01*
X178750477Y-66535391D01*
X178332696Y-65524285D01*
X177559784Y-64750023D01*
X176549409Y-64330478D01*
X175455391Y-64329523D01*
X174444285Y-64747304D01*
X173670023Y-65520216D01*
X173250478Y-66530591D01*
X173249523Y-67624609D01*
X161415149Y-67624609D01*
X161213563Y-67311337D01*
X160795847Y-67025924D01*
X160300000Y-66925512D01*
X158700000Y-66925512D01*
X158236778Y-67012673D01*
X157811337Y-67286437D01*
X157525924Y-67704153D01*
X157425512Y-68200000D01*
X156387550Y-68200000D01*
X156238919Y-67840285D01*
X155662748Y-67263108D01*
X154909559Y-66950357D01*
X154094019Y-66949645D01*
X153340285Y-67261081D01*
X152763108Y-67837252D01*
X152450357Y-68590441D01*
X152449645Y-69405981D01*
X146342005Y-69405981D01*
X146304115Y-69215499D01*
X145859731Y-68550431D01*
X145194663Y-68106047D01*
X144410162Y-67950000D01*
X144329838Y-67950000D01*
X143545337Y-68106047D01*
X142880269Y-68550431D01*
X142435885Y-69215499D01*
X142279838Y-70000000D01*
X142435885Y-70784501D01*
X142788720Y-71312556D01*
X142263108Y-71837252D01*
X141961859Y-72562741D01*
X141662748Y-72263108D01*
X140909559Y-71950357D01*
X140094019Y-71949645D01*
X139340285Y-72261081D01*
X138763108Y-72837252D01*
X138450357Y-73590441D01*
X138449645Y-74405981D01*
X134889407Y-74405981D01*
X134970162Y-74000000D01*
X134814115Y-73215499D01*
X134369731Y-72550431D01*
X133704663Y-72106047D01*
X132920162Y-71950000D01*
X132839838Y-71950000D01*
X132055337Y-72106047D01*
X131390269Y-72550431D01*
X130945885Y-73215499D01*
X130789838Y-74000000D01*
X117699957Y-74000000D01*
X117700477Y-73405391D01*
X117282696Y-72394285D01*
X116509784Y-71620023D01*
X115499409Y-71200478D01*
X114405391Y-71199523D01*
X113394285Y-71617304D01*
X112620023Y-72390216D01*
X112403382Y-72911946D01*
X111776187Y-72283655D01*
X110949516Y-71940392D01*
X110054411Y-71939610D01*
X109227142Y-72281431D01*
X108593655Y-72913813D01*
X108250392Y-73740484D01*
X108249610Y-74635589D01*
X103325000Y-74635589D01*
X103325000Y-68700000D01*
X124425512Y-68700000D01*
X124425512Y-70300000D01*
X124512673Y-70763222D01*
X124786437Y-71188663D01*
X125204153Y-71474076D01*
X125700000Y-71574488D01*
X127300000Y-71574488D01*
X127763222Y-71487327D01*
X128188663Y-71213563D01*
X128247268Y-71127792D01*
X128286437Y-71188663D01*
X128704153Y-71474076D01*
X129200000Y-71574488D01*
X130800000Y-71574488D01*
X131263222Y-71487327D01*
X131688663Y-71213563D01*
X131974076Y-70795847D01*
X132053026Y-70405981D01*
X134699645Y-70405981D01*
X135011081Y-71159715D01*
X135587252Y-71736892D01*
X136340441Y-72049643D01*
X137155981Y-72050355D01*
X137909715Y-71738919D01*
X138486892Y-71162748D01*
X138799643Y-70409559D01*
X138800355Y-69594019D01*
X138488919Y-68840285D01*
X137912748Y-68263108D01*
X137159559Y-67950357D01*
X136344019Y-67949645D01*
X135590285Y-68261081D01*
X135013108Y-68837252D01*
X134700357Y-69590441D01*
X134699645Y-70405981D01*
X132053026Y-70405981D01*
X132074488Y-70300000D01*
X132074488Y-68700000D01*
X131987327Y-68236778D01*
X131713563Y-67811337D01*
X131295847Y-67525924D01*
X130800000Y-67425512D01*
X129200000Y-67425512D01*
X128736778Y-67512673D01*
X128311337Y-67786437D01*
X128252732Y-67872208D01*
X128213563Y-67811337D01*
X127795847Y-67525924D01*
X127300000Y-67425512D01*
X125700000Y-67425512D01*
X125236778Y-67512673D01*
X124811337Y-67786437D01*
X124525924Y-68204153D01*
X124425512Y-68700000D01*
X103325000Y-68700000D01*
X103325000Y-65635616D01*
X104200860Y-65999305D01*
X105792159Y-66000693D01*
X107262858Y-65393013D01*
X108389058Y-64268777D01*
X108999305Y-62799140D01*
X109000693Y-61207841D01*
X108635911Y-60325000D01*
X109923143Y-60325000D01*
X109775076Y-60423935D01*
M02*
