G04 #@! TF.FileFunction,Legend,Top*
%FSLAX46Y46*%
G04 Gerber Fmt 4.6, Leading zero omitted, Abs format (unit mm)*
G04 Created by KiCad (PCBNEW 4.0.7) date 08/19/20 23:21:54*
%MOMM*%
%LPD*%
G01*
G04 APERTURE LIST*
%ADD10C,0.100000*%
%ADD11C,0.300000*%
%ADD12C,0.150000*%
%ADD13C,0.120000*%
%ADD14C,0.200000*%
G04 APERTURE END LIST*
D10*
D11*
X113871429Y-87250000D02*
X112371429Y-88250000D01*
X113871429Y-88250000D02*
X112371429Y-87250000D01*
X112371429Y-89535714D02*
X112371429Y-88821428D01*
X113871429Y-88821428D01*
X112371429Y-90892857D02*
X113085714Y-90392857D01*
X112371429Y-90035714D02*
X113871429Y-90035714D01*
X113871429Y-90607142D01*
X113800000Y-90750000D01*
X113728571Y-90821428D01*
X113585714Y-90892857D01*
X113371429Y-90892857D01*
X113228571Y-90821428D01*
X113157143Y-90750000D01*
X113085714Y-90607142D01*
X113085714Y-90035714D01*
X113871429Y-92464285D02*
X113871429Y-93321428D01*
X112371429Y-92892857D02*
X113871429Y-92892857D01*
X113871429Y-94107142D02*
X113871429Y-94392856D01*
X113800000Y-94535714D01*
X113657143Y-94678571D01*
X113371429Y-94749999D01*
X112871429Y-94749999D01*
X112585714Y-94678571D01*
X112442857Y-94535714D01*
X112371429Y-94392856D01*
X112371429Y-94107142D01*
X112442857Y-93964285D01*
X112585714Y-93821428D01*
X112871429Y-93749999D01*
X113371429Y-93749999D01*
X113657143Y-93821428D01*
X113800000Y-93964285D01*
X113871429Y-94107142D01*
X113871429Y-96535714D02*
X112657143Y-96535714D01*
X112514286Y-96607142D01*
X112442857Y-96678571D01*
X112371429Y-96821428D01*
X112371429Y-97107142D01*
X112442857Y-97250000D01*
X112514286Y-97321428D01*
X112657143Y-97392857D01*
X113871429Y-97392857D01*
X112371429Y-98107143D02*
X113871429Y-98107143D01*
X112371429Y-98964286D01*
X113871429Y-98964286D01*
X113157143Y-100178572D02*
X113085714Y-100392858D01*
X113014286Y-100464286D01*
X112871429Y-100535715D01*
X112657143Y-100535715D01*
X112514286Y-100464286D01*
X112442857Y-100392858D01*
X112371429Y-100250000D01*
X112371429Y-99678572D01*
X113871429Y-99678572D01*
X113871429Y-100178572D01*
X113800000Y-100321429D01*
X113728571Y-100392858D01*
X113585714Y-100464286D01*
X113442857Y-100464286D01*
X113300000Y-100392858D01*
X113228571Y-100321429D01*
X113157143Y-100178572D01*
X113157143Y-99678572D01*
X112800000Y-101107143D02*
X112800000Y-101821429D01*
X112371429Y-100964286D02*
X113871429Y-101464286D01*
X112371429Y-101964286D01*
X112371429Y-103178572D02*
X112371429Y-102464286D01*
X113871429Y-102464286D01*
X112800000Y-103607143D02*
X112800000Y-104321429D01*
X112371429Y-103464286D02*
X113871429Y-103964286D01*
X112371429Y-104464286D01*
X112371429Y-104964286D02*
X113871429Y-104964286D01*
X112371429Y-105821429D01*
X113871429Y-105821429D01*
X112514286Y-107392858D02*
X112442857Y-107321429D01*
X112371429Y-107107143D01*
X112371429Y-106964286D01*
X112442857Y-106750001D01*
X112585714Y-106607143D01*
X112728571Y-106535715D01*
X113014286Y-106464286D01*
X113228571Y-106464286D01*
X113514286Y-106535715D01*
X113657143Y-106607143D01*
X113800000Y-106750001D01*
X113871429Y-106964286D01*
X113871429Y-107107143D01*
X113800000Y-107321429D01*
X113728571Y-107392858D01*
X113157143Y-108035715D02*
X113157143Y-108535715D01*
X112371429Y-108750001D02*
X112371429Y-108035715D01*
X113871429Y-108035715D01*
X113871429Y-108750001D01*
X112371429Y-109392858D02*
X113871429Y-109392858D01*
X113871429Y-109750001D01*
X113800000Y-109964286D01*
X113657143Y-110107144D01*
X113514286Y-110178572D01*
X113228571Y-110250001D01*
X113014286Y-110250001D01*
X112728571Y-110178572D01*
X112585714Y-110107144D01*
X112442857Y-109964286D01*
X112371429Y-109750001D01*
X112371429Y-109392858D01*
X112514286Y-112892858D02*
X112442857Y-112821429D01*
X112371429Y-112607143D01*
X112371429Y-112464286D01*
X112442857Y-112250001D01*
X112585714Y-112107143D01*
X112728571Y-112035715D01*
X113014286Y-111964286D01*
X113228571Y-111964286D01*
X113514286Y-112035715D01*
X113657143Y-112107143D01*
X113800000Y-112250001D01*
X113871429Y-112464286D01*
X113871429Y-112607143D01*
X113800000Y-112821429D01*
X113728571Y-112892858D01*
X113871429Y-113821429D02*
X113871429Y-114107143D01*
X113800000Y-114250001D01*
X113657143Y-114392858D01*
X113371429Y-114464286D01*
X112871429Y-114464286D01*
X112585714Y-114392858D01*
X112442857Y-114250001D01*
X112371429Y-114107143D01*
X112371429Y-113821429D01*
X112442857Y-113678572D01*
X112585714Y-113535715D01*
X112871429Y-113464286D01*
X113371429Y-113464286D01*
X113657143Y-113535715D01*
X113800000Y-113678572D01*
X113871429Y-113821429D01*
X112371429Y-115107144D02*
X113871429Y-115107144D01*
X112371429Y-115964287D01*
X113871429Y-115964287D01*
X113871429Y-116464287D02*
X112371429Y-116964287D01*
X113871429Y-117464287D01*
X113157143Y-117964287D02*
X113157143Y-118464287D01*
X112371429Y-118678573D02*
X112371429Y-117964287D01*
X113871429Y-117964287D01*
X113871429Y-118678573D01*
X112371429Y-120178573D02*
X113085714Y-119678573D01*
X112371429Y-119321430D02*
X113871429Y-119321430D01*
X113871429Y-119892858D01*
X113800000Y-120035716D01*
X113728571Y-120107144D01*
X113585714Y-120178573D01*
X113371429Y-120178573D01*
X113228571Y-120107144D01*
X113157143Y-120035716D01*
X113085714Y-119892858D01*
X113085714Y-119321430D01*
X113871429Y-120607144D02*
X113871429Y-121464287D01*
X112371429Y-121035716D02*
X113871429Y-121035716D01*
X113157143Y-121964287D02*
X113157143Y-122464287D01*
X112371429Y-122678573D02*
X112371429Y-121964287D01*
X113871429Y-121964287D01*
X113871429Y-122678573D01*
X112371429Y-124178573D02*
X113085714Y-123678573D01*
X112371429Y-123321430D02*
X113871429Y-123321430D01*
X113871429Y-123892858D01*
X113800000Y-124035716D01*
X113728571Y-124107144D01*
X113585714Y-124178573D01*
X113371429Y-124178573D01*
X113228571Y-124107144D01*
X113157143Y-124035716D01*
X113085714Y-123892858D01*
X113085714Y-123321430D01*
X109821429Y-93214286D02*
X111321429Y-93214286D01*
X111321429Y-93785714D01*
X111250000Y-93928572D01*
X111178571Y-94000000D01*
X111035714Y-94071429D01*
X110821429Y-94071429D01*
X110678571Y-94000000D01*
X110607143Y-93928572D01*
X110535714Y-93785714D01*
X110535714Y-93214286D01*
X109964286Y-95571429D02*
X109892857Y-95500000D01*
X109821429Y-95285714D01*
X109821429Y-95142857D01*
X109892857Y-94928572D01*
X110035714Y-94785714D01*
X110178571Y-94714286D01*
X110464286Y-94642857D01*
X110678571Y-94642857D01*
X110964286Y-94714286D01*
X111107143Y-94785714D01*
X111250000Y-94928572D01*
X111321429Y-95142857D01*
X111321429Y-95285714D01*
X111250000Y-95500000D01*
X111178571Y-95571429D01*
X110607143Y-96714286D02*
X110535714Y-96928572D01*
X110464286Y-97000000D01*
X110321429Y-97071429D01*
X110107143Y-97071429D01*
X109964286Y-97000000D01*
X109892857Y-96928572D01*
X109821429Y-96785714D01*
X109821429Y-96214286D01*
X111321429Y-96214286D01*
X111321429Y-96714286D01*
X111250000Y-96857143D01*
X111178571Y-96928572D01*
X111035714Y-97000000D01*
X110892857Y-97000000D01*
X110750000Y-96928572D01*
X110678571Y-96857143D01*
X110607143Y-96714286D01*
X110607143Y-96214286D01*
X110607143Y-99357143D02*
X110535714Y-99571429D01*
X110464286Y-99642857D01*
X110321429Y-99714286D01*
X110107143Y-99714286D01*
X109964286Y-99642857D01*
X109892857Y-99571429D01*
X109821429Y-99428571D01*
X109821429Y-98857143D01*
X111321429Y-98857143D01*
X111321429Y-99357143D01*
X111250000Y-99500000D01*
X111178571Y-99571429D01*
X111035714Y-99642857D01*
X110892857Y-99642857D01*
X110750000Y-99571429D01*
X110678571Y-99500000D01*
X110607143Y-99357143D01*
X110607143Y-98857143D01*
X110535714Y-100642857D02*
X109821429Y-100642857D01*
X111321429Y-100142857D02*
X110535714Y-100642857D01*
X111321429Y-101142857D01*
X109821429Y-102785714D02*
X111321429Y-102785714D01*
X111321429Y-103142857D01*
X111250000Y-103357142D01*
X111107143Y-103500000D01*
X110964286Y-103571428D01*
X110678571Y-103642857D01*
X110464286Y-103642857D01*
X110178571Y-103571428D01*
X110035714Y-103500000D01*
X109892857Y-103357142D01*
X109821429Y-103142857D01*
X109821429Y-102785714D01*
X110250000Y-104214285D02*
X110250000Y-104928571D01*
X109821429Y-104071428D02*
X111321429Y-104571428D01*
X109821429Y-105071428D01*
X109821429Y-105571428D02*
X111321429Y-105571428D01*
X109821429Y-106428571D01*
X111321429Y-106428571D01*
X109821429Y-107142857D02*
X111321429Y-107142857D01*
X110607143Y-107857143D02*
X110607143Y-108357143D01*
X109821429Y-108571429D02*
X109821429Y-107857143D01*
X111321429Y-107857143D01*
X111321429Y-108571429D01*
X109821429Y-109928572D02*
X109821429Y-109214286D01*
X111321429Y-109214286D01*
X109821429Y-111571429D02*
X111321429Y-111571429D01*
X110250000Y-112071429D01*
X111321429Y-112571429D01*
X109821429Y-112571429D01*
X110250000Y-113214286D02*
X110250000Y-113928572D01*
X109821429Y-113071429D02*
X111321429Y-113571429D01*
X109821429Y-114071429D01*
X109821429Y-115428572D02*
X110535714Y-114928572D01*
X109821429Y-114571429D02*
X111321429Y-114571429D01*
X111321429Y-115142857D01*
X111250000Y-115285715D01*
X111178571Y-115357143D01*
X111035714Y-115428572D01*
X110821429Y-115428572D01*
X110678571Y-115357143D01*
X110607143Y-115285715D01*
X110535714Y-115142857D01*
X110535714Y-114571429D01*
X109821429Y-116071429D02*
X111321429Y-116071429D01*
X109821429Y-116928572D02*
X110678571Y-116285715D01*
X111321429Y-116928572D02*
X110464286Y-116071429D01*
X109892857Y-117500000D02*
X109821429Y-117714286D01*
X109821429Y-118071429D01*
X109892857Y-118214286D01*
X109964286Y-118285715D01*
X110107143Y-118357143D01*
X110250000Y-118357143D01*
X110392857Y-118285715D01*
X110464286Y-118214286D01*
X110535714Y-118071429D01*
X110607143Y-117785715D01*
X110678571Y-117642857D01*
X110750000Y-117571429D01*
X110892857Y-117500000D01*
X111035714Y-117500000D01*
X111178571Y-117571429D01*
X111250000Y-117642857D01*
X111321429Y-117785715D01*
X111321429Y-118142857D01*
X111250000Y-118357143D01*
X107414286Y-98500001D02*
X107342857Y-98428572D01*
X107271429Y-98214286D01*
X107271429Y-98071429D01*
X107342857Y-97857144D01*
X107485714Y-97714286D01*
X107628571Y-97642858D01*
X107914286Y-97571429D01*
X108128571Y-97571429D01*
X108414286Y-97642858D01*
X108557143Y-97714286D01*
X108700000Y-97857144D01*
X108771429Y-98071429D01*
X108771429Y-98214286D01*
X108700000Y-98428572D01*
X108628571Y-98500001D01*
X107414286Y-100000001D02*
X107342857Y-99928572D01*
X107271429Y-99714286D01*
X107271429Y-99571429D01*
X107342857Y-99357144D01*
X107485714Y-99214286D01*
X107628571Y-99142858D01*
X107914286Y-99071429D01*
X108128571Y-99071429D01*
X108414286Y-99142858D01*
X108557143Y-99214286D01*
X108700000Y-99357144D01*
X108771429Y-99571429D01*
X108771429Y-99714286D01*
X108700000Y-99928572D01*
X108628571Y-100000001D01*
X107842857Y-100642858D02*
X107842857Y-101785715D01*
X108057143Y-103000001D02*
X107985714Y-103214287D01*
X107914286Y-103285715D01*
X107771429Y-103357144D01*
X107557143Y-103357144D01*
X107414286Y-103285715D01*
X107342857Y-103214287D01*
X107271429Y-103071429D01*
X107271429Y-102500001D01*
X108771429Y-102500001D01*
X108771429Y-103000001D01*
X108700000Y-103142858D01*
X108628571Y-103214287D01*
X108485714Y-103285715D01*
X108342857Y-103285715D01*
X108200000Y-103214287D01*
X108128571Y-103142858D01*
X108057143Y-103000001D01*
X108057143Y-102500001D01*
X107985714Y-104285715D02*
X107271429Y-104285715D01*
X108771429Y-103785715D02*
X107985714Y-104285715D01*
X108771429Y-104785715D01*
X107842857Y-105285715D02*
X107842857Y-106428572D01*
X107342857Y-107071429D02*
X107271429Y-107285715D01*
X107271429Y-107642858D01*
X107342857Y-107785715D01*
X107414286Y-107857144D01*
X107557143Y-107928572D01*
X107700000Y-107928572D01*
X107842857Y-107857144D01*
X107914286Y-107785715D01*
X107985714Y-107642858D01*
X108057143Y-107357144D01*
X108128571Y-107214286D01*
X108200000Y-107142858D01*
X108342857Y-107071429D01*
X108485714Y-107071429D01*
X108628571Y-107142858D01*
X108700000Y-107214286D01*
X108771429Y-107357144D01*
X108771429Y-107714286D01*
X108700000Y-107928572D01*
X107700000Y-108500000D02*
X107700000Y-109214286D01*
X107271429Y-108357143D02*
X108771429Y-108857143D01*
X107271429Y-109357143D01*
X108271429Y-111642857D02*
X107271429Y-111642857D01*
X108842857Y-111285714D02*
X107771429Y-110928571D01*
X107771429Y-111857143D01*
X107414286Y-112428571D02*
X107342857Y-112499999D01*
X107271429Y-112428571D01*
X107342857Y-112357142D01*
X107414286Y-112428571D01*
X107271429Y-112428571D01*
X108771429Y-113428571D02*
X108771429Y-113571428D01*
X108700000Y-113714285D01*
X108628571Y-113785714D01*
X108485714Y-113857143D01*
X108200000Y-113928571D01*
X107842857Y-113928571D01*
X107557143Y-113857143D01*
X107414286Y-113785714D01*
X107342857Y-113714285D01*
X107271429Y-113571428D01*
X107271429Y-113428571D01*
X107342857Y-113285714D01*
X107414286Y-113214285D01*
X107557143Y-113142857D01*
X107842857Y-113071428D01*
X108200000Y-113071428D01*
X108485714Y-113142857D01*
X108628571Y-113214285D01*
X108700000Y-113285714D01*
X108771429Y-113428571D01*
D12*
X155380952Y-135127381D02*
X155952381Y-135127381D01*
X155666666Y-136127381D02*
X155666666Y-135127381D01*
X156285714Y-136127381D02*
X156285714Y-135127381D01*
X156285714Y-135603571D02*
X156857143Y-135603571D01*
X156857143Y-136127381D02*
X156857143Y-135127381D01*
X157285714Y-135841667D02*
X157761905Y-135841667D01*
X157190476Y-136127381D02*
X157523809Y-135127381D01*
X157857143Y-136127381D01*
X158047619Y-135127381D02*
X158619048Y-135127381D01*
X158333333Y-136127381D02*
X158333333Y-135127381D01*
X155857143Y-137777381D02*
X155285714Y-137777381D01*
X155571428Y-137777381D02*
X155571428Y-136777381D01*
X155476190Y-136920238D01*
X155380952Y-137015476D01*
X155285714Y-137063095D01*
X156238095Y-136872619D02*
X156285714Y-136825000D01*
X156380952Y-136777381D01*
X156619048Y-136777381D01*
X156714286Y-136825000D01*
X156761905Y-136872619D01*
X156809524Y-136967857D01*
X156809524Y-137063095D01*
X156761905Y-137205952D01*
X156190476Y-137777381D01*
X156809524Y-137777381D01*
X157428571Y-136777381D02*
X157523810Y-136777381D01*
X157619048Y-136825000D01*
X157666667Y-136872619D01*
X157714286Y-136967857D01*
X157761905Y-137158333D01*
X157761905Y-137396429D01*
X157714286Y-137586905D01*
X157666667Y-137682143D01*
X157619048Y-137729762D01*
X157523810Y-137777381D01*
X157428571Y-137777381D01*
X157333333Y-137729762D01*
X157285714Y-137682143D01*
X157238095Y-137586905D01*
X157190476Y-137396429D01*
X157190476Y-137158333D01*
X157238095Y-136967857D01*
X157285714Y-136872619D01*
X157333333Y-136825000D01*
X157428571Y-136777381D01*
X158380952Y-136777381D02*
X158476191Y-136777381D01*
X158571429Y-136825000D01*
X158619048Y-136872619D01*
X158666667Y-136967857D01*
X158714286Y-137158333D01*
X158714286Y-137396429D01*
X158666667Y-137586905D01*
X158619048Y-137682143D01*
X158571429Y-137729762D01*
X158476191Y-137777381D01*
X158380952Y-137777381D01*
X158285714Y-137729762D01*
X158238095Y-137682143D01*
X158190476Y-137586905D01*
X158142857Y-137396429D01*
X158142857Y-137158333D01*
X158190476Y-136967857D01*
X158238095Y-136872619D01*
X158285714Y-136825000D01*
X158380952Y-136777381D01*
X154880952Y-77627381D02*
X155452381Y-77627381D01*
X155166666Y-78627381D02*
X155166666Y-77627381D01*
X155785714Y-78627381D02*
X155785714Y-77627381D01*
X155785714Y-78103571D02*
X156357143Y-78103571D01*
X156357143Y-78627381D02*
X156357143Y-77627381D01*
X156785714Y-78341667D02*
X157261905Y-78341667D01*
X156690476Y-78627381D02*
X157023809Y-77627381D01*
X157357143Y-78627381D01*
X157547619Y-77627381D02*
X158119048Y-77627381D01*
X157833333Y-78627381D02*
X157833333Y-77627381D01*
X155357143Y-80277381D02*
X154785714Y-80277381D01*
X155071428Y-80277381D02*
X155071428Y-79277381D01*
X154976190Y-79420238D01*
X154880952Y-79515476D01*
X154785714Y-79563095D01*
X155738095Y-79372619D02*
X155785714Y-79325000D01*
X155880952Y-79277381D01*
X156119048Y-79277381D01*
X156214286Y-79325000D01*
X156261905Y-79372619D01*
X156309524Y-79467857D01*
X156309524Y-79563095D01*
X156261905Y-79705952D01*
X155690476Y-80277381D01*
X156309524Y-80277381D01*
X156928571Y-79277381D02*
X157023810Y-79277381D01*
X157119048Y-79325000D01*
X157166667Y-79372619D01*
X157214286Y-79467857D01*
X157261905Y-79658333D01*
X157261905Y-79896429D01*
X157214286Y-80086905D01*
X157166667Y-80182143D01*
X157119048Y-80229762D01*
X157023810Y-80277381D01*
X156928571Y-80277381D01*
X156833333Y-80229762D01*
X156785714Y-80182143D01*
X156738095Y-80086905D01*
X156690476Y-79896429D01*
X156690476Y-79658333D01*
X156738095Y-79467857D01*
X156785714Y-79372619D01*
X156833333Y-79325000D01*
X156928571Y-79277381D01*
X157880952Y-79277381D02*
X157976191Y-79277381D01*
X158071429Y-79325000D01*
X158119048Y-79372619D01*
X158166667Y-79467857D01*
X158214286Y-79658333D01*
X158214286Y-79896429D01*
X158166667Y-80086905D01*
X158119048Y-80182143D01*
X158071429Y-80229762D01*
X157976191Y-80277381D01*
X157880952Y-80277381D01*
X157785714Y-80229762D01*
X157738095Y-80182143D01*
X157690476Y-80086905D01*
X157642857Y-79896429D01*
X157642857Y-79658333D01*
X157690476Y-79467857D01*
X157738095Y-79372619D01*
X157785714Y-79325000D01*
X157880952Y-79277381D01*
D11*
X153428572Y-130678571D02*
X152571429Y-130678571D01*
X153000001Y-130678571D02*
X153000001Y-129178571D01*
X152857144Y-129392857D01*
X152714286Y-129535714D01*
X152571429Y-129607143D01*
X181607143Y-121000000D02*
X181464286Y-120928571D01*
X181250000Y-120928571D01*
X181035715Y-121000000D01*
X180892857Y-121142857D01*
X180821429Y-121285714D01*
X180750000Y-121571429D01*
X180750000Y-121785714D01*
X180821429Y-122071429D01*
X180892857Y-122214286D01*
X181035715Y-122357143D01*
X181250000Y-122428571D01*
X181392857Y-122428571D01*
X181607143Y-122357143D01*
X181678572Y-122285714D01*
X181678572Y-121785714D01*
X181392857Y-121785714D01*
X182321429Y-122428571D02*
X182321429Y-120928571D01*
X183178572Y-122428571D01*
X183178572Y-120928571D01*
X183892858Y-122428571D02*
X183892858Y-120928571D01*
X184250001Y-120928571D01*
X184464286Y-121000000D01*
X184607144Y-121142857D01*
X184678572Y-121285714D01*
X184750001Y-121571429D01*
X184750001Y-121785714D01*
X184678572Y-122071429D01*
X184607144Y-122214286D01*
X184464286Y-122357143D01*
X184250001Y-122428571D01*
X183892858Y-122428571D01*
X181571429Y-127035714D02*
X181500000Y-127107143D01*
X181285714Y-127178571D01*
X181142857Y-127178571D01*
X180928572Y-127107143D01*
X180785714Y-126964286D01*
X180714286Y-126821429D01*
X180642857Y-126535714D01*
X180642857Y-126321429D01*
X180714286Y-126035714D01*
X180785714Y-125892857D01*
X180928572Y-125750000D01*
X181142857Y-125678571D01*
X181285714Y-125678571D01*
X181500000Y-125750000D01*
X181571429Y-125821429D01*
X182500000Y-125678571D02*
X182785714Y-125678571D01*
X182928572Y-125750000D01*
X183071429Y-125892857D01*
X183142857Y-126178571D01*
X183142857Y-126678571D01*
X183071429Y-126964286D01*
X182928572Y-127107143D01*
X182785714Y-127178571D01*
X182500000Y-127178571D01*
X182357143Y-127107143D01*
X182214286Y-126964286D01*
X182142857Y-126678571D01*
X182142857Y-126178571D01*
X182214286Y-125892857D01*
X182357143Y-125750000D01*
X182500000Y-125678571D01*
X183785715Y-127178571D02*
X183785715Y-125678571D01*
X184285715Y-126750000D01*
X184785715Y-125678571D01*
X184785715Y-127178571D01*
X186000001Y-126392857D02*
X186214287Y-126464286D01*
X186285715Y-126535714D01*
X186357144Y-126678571D01*
X186357144Y-126892857D01*
X186285715Y-127035714D01*
X186214287Y-127107143D01*
X186071429Y-127178571D01*
X185500001Y-127178571D01*
X185500001Y-125678571D01*
X186000001Y-125678571D01*
X186142858Y-125750000D01*
X186214287Y-125821429D01*
X186285715Y-125964286D01*
X186285715Y-126107143D01*
X186214287Y-126250000D01*
X186142858Y-126321429D01*
X186000001Y-126392857D01*
X185500001Y-126392857D01*
X180750000Y-131178571D02*
X181035714Y-131178571D01*
X181178572Y-131250000D01*
X181321429Y-131392857D01*
X181392857Y-131678571D01*
X181392857Y-132178571D01*
X181321429Y-132464286D01*
X181178572Y-132607143D01*
X181035714Y-132678571D01*
X180750000Y-132678571D01*
X180607143Y-132607143D01*
X180464286Y-132464286D01*
X180392857Y-132178571D01*
X180392857Y-131678571D01*
X180464286Y-131392857D01*
X180607143Y-131250000D01*
X180750000Y-131178571D01*
X182035715Y-131178571D02*
X182035715Y-132392857D01*
X182107143Y-132535714D01*
X182178572Y-132607143D01*
X182321429Y-132678571D01*
X182607143Y-132678571D01*
X182750001Y-132607143D01*
X182821429Y-132535714D01*
X182892858Y-132392857D01*
X182892858Y-131178571D01*
X183392858Y-131178571D02*
X184250001Y-131178571D01*
X183821430Y-132678571D02*
X183821430Y-131178571D01*
X185250001Y-131892857D02*
X185464287Y-131964286D01*
X185535715Y-132035714D01*
X185607144Y-132178571D01*
X185607144Y-132392857D01*
X185535715Y-132535714D01*
X185464287Y-132607143D01*
X185321429Y-132678571D01*
X184750001Y-132678571D01*
X184750001Y-131178571D01*
X185250001Y-131178571D01*
X185392858Y-131250000D01*
X185464287Y-131321429D01*
X185535715Y-131464286D01*
X185535715Y-131607143D01*
X185464287Y-131750000D01*
X185392858Y-131821429D01*
X185250001Y-131892857D01*
X184750001Y-131892857D01*
X181357143Y-136250000D02*
X181214286Y-136178571D01*
X181000000Y-136178571D01*
X180785715Y-136250000D01*
X180642857Y-136392857D01*
X180571429Y-136535714D01*
X180500000Y-136821429D01*
X180500000Y-137035714D01*
X180571429Y-137321429D01*
X180642857Y-137464286D01*
X180785715Y-137607143D01*
X181000000Y-137678571D01*
X181142857Y-137678571D01*
X181357143Y-137607143D01*
X181428572Y-137535714D01*
X181428572Y-137035714D01*
X181142857Y-137035714D01*
X182071429Y-137678571D02*
X182071429Y-136178571D01*
X182928572Y-137678571D01*
X182928572Y-136178571D01*
X183642858Y-137678571D02*
X183642858Y-136178571D01*
X184000001Y-136178571D01*
X184214286Y-136250000D01*
X184357144Y-136392857D01*
X184428572Y-136535714D01*
X184500001Y-136821429D01*
X184500001Y-137035714D01*
X184428572Y-137321429D01*
X184357144Y-137464286D01*
X184214286Y-137607143D01*
X184000001Y-137678571D01*
X183642858Y-137678571D01*
X152428572Y-73178571D02*
X151571429Y-73178571D01*
X152000001Y-73178571D02*
X152000001Y-71678571D01*
X151857144Y-71892857D01*
X151714286Y-72035714D01*
X151571429Y-72107143D01*
X180571429Y-113678571D02*
X181071429Y-115178571D01*
X181571429Y-113678571D01*
X182071429Y-114607143D02*
X183214286Y-114607143D01*
X182642857Y-115178571D02*
X182642857Y-114035714D01*
X180821429Y-98428571D02*
X181321429Y-99928571D01*
X181821429Y-98428571D01*
X182321429Y-99357143D02*
X183464286Y-99357143D01*
X181357143Y-109250000D02*
X181214286Y-109178571D01*
X181000000Y-109178571D01*
X180785715Y-109250000D01*
X180642857Y-109392857D01*
X180571429Y-109535714D01*
X180500000Y-109821429D01*
X180500000Y-110035714D01*
X180571429Y-110321429D01*
X180642857Y-110464286D01*
X180785715Y-110607143D01*
X181000000Y-110678571D01*
X181142857Y-110678571D01*
X181357143Y-110607143D01*
X181428572Y-110535714D01*
X181428572Y-110035714D01*
X181142857Y-110035714D01*
X182071429Y-110678571D02*
X182071429Y-109178571D01*
X182928572Y-110678571D01*
X182928572Y-109178571D01*
X183642858Y-110678571D02*
X183642858Y-109178571D01*
X184000001Y-109178571D01*
X184214286Y-109250000D01*
X184357144Y-109392857D01*
X184428572Y-109535714D01*
X184500001Y-109821429D01*
X184500001Y-110035714D01*
X184428572Y-110321429D01*
X184357144Y-110464286D01*
X184214286Y-110607143D01*
X184000001Y-110678571D01*
X183642858Y-110678571D01*
X181357143Y-103750000D02*
X181214286Y-103678571D01*
X181000000Y-103678571D01*
X180785715Y-103750000D01*
X180642857Y-103892857D01*
X180571429Y-104035714D01*
X180500000Y-104321429D01*
X180500000Y-104535714D01*
X180571429Y-104821429D01*
X180642857Y-104964286D01*
X180785715Y-105107143D01*
X181000000Y-105178571D01*
X181142857Y-105178571D01*
X181357143Y-105107143D01*
X181428572Y-105035714D01*
X181428572Y-104535714D01*
X181142857Y-104535714D01*
X182071429Y-105178571D02*
X182071429Y-103678571D01*
X182928572Y-105178571D01*
X182928572Y-103678571D01*
X183642858Y-105178571D02*
X183642858Y-103678571D01*
X184000001Y-103678571D01*
X184214286Y-103750000D01*
X184357144Y-103892857D01*
X184428572Y-104035714D01*
X184500001Y-104321429D01*
X184500001Y-104535714D01*
X184428572Y-104821429D01*
X184357144Y-104964286D01*
X184214286Y-105107143D01*
X184000001Y-105178571D01*
X183642858Y-105178571D01*
X168107143Y-61500000D02*
X167964286Y-61428571D01*
X167750000Y-61428571D01*
X167535715Y-61500000D01*
X167392857Y-61642857D01*
X167321429Y-61785714D01*
X167250000Y-62071429D01*
X167250000Y-62285714D01*
X167321429Y-62571429D01*
X167392857Y-62714286D01*
X167535715Y-62857143D01*
X167750000Y-62928571D01*
X167892857Y-62928571D01*
X168107143Y-62857143D01*
X168178572Y-62785714D01*
X168178572Y-62285714D01*
X167892857Y-62285714D01*
X168821429Y-62928571D02*
X168821429Y-61428571D01*
X169678572Y-62928571D01*
X169678572Y-61428571D01*
X170392858Y-62928571D02*
X170392858Y-61428571D01*
X170750001Y-61428571D01*
X170964286Y-61500000D01*
X171107144Y-61642857D01*
X171178572Y-61785714D01*
X171250001Y-62071429D01*
X171250001Y-62285714D01*
X171178572Y-62571429D01*
X171107144Y-62714286D01*
X170964286Y-62857143D01*
X170750001Y-62928571D01*
X170392858Y-62928571D01*
X181607143Y-76500000D02*
X181464286Y-76428571D01*
X181250000Y-76428571D01*
X181035715Y-76500000D01*
X180892857Y-76642857D01*
X180821429Y-76785714D01*
X180750000Y-77071429D01*
X180750000Y-77285714D01*
X180821429Y-77571429D01*
X180892857Y-77714286D01*
X181035715Y-77857143D01*
X181250000Y-77928571D01*
X181392857Y-77928571D01*
X181607143Y-77857143D01*
X181678572Y-77785714D01*
X181678572Y-77285714D01*
X181392857Y-77285714D01*
X182321429Y-77928571D02*
X182321429Y-76428571D01*
X183178572Y-77928571D01*
X183178572Y-76428571D01*
X183892858Y-77928571D02*
X183892858Y-76428571D01*
X184250001Y-76428571D01*
X184464286Y-76500000D01*
X184607144Y-76642857D01*
X184678572Y-76785714D01*
X184750001Y-77071429D01*
X184750001Y-77285714D01*
X184678572Y-77571429D01*
X184607144Y-77714286D01*
X184464286Y-77857143D01*
X184250001Y-77928571D01*
X183892858Y-77928571D01*
X181178572Y-67785714D02*
X181107143Y-67857143D01*
X180892857Y-67928571D01*
X180750000Y-67928571D01*
X180535715Y-67857143D01*
X180392857Y-67714286D01*
X180321429Y-67571429D01*
X180250000Y-67285714D01*
X180250000Y-67071429D01*
X180321429Y-66785714D01*
X180392857Y-66642857D01*
X180535715Y-66500000D01*
X180750000Y-66428571D01*
X180892857Y-66428571D01*
X181107143Y-66500000D01*
X181178572Y-66571429D01*
X182107143Y-66428571D02*
X182392857Y-66428571D01*
X182535715Y-66500000D01*
X182678572Y-66642857D01*
X182750000Y-66928571D01*
X182750000Y-67428571D01*
X182678572Y-67714286D01*
X182535715Y-67857143D01*
X182392857Y-67928571D01*
X182107143Y-67928571D01*
X181964286Y-67857143D01*
X181821429Y-67714286D01*
X181750000Y-67428571D01*
X181750000Y-66928571D01*
X181821429Y-66642857D01*
X181964286Y-66500000D01*
X182107143Y-66428571D01*
X183392858Y-67928571D02*
X183392858Y-66428571D01*
X183892858Y-67500000D01*
X184392858Y-66428571D01*
X184392858Y-67928571D01*
X185035715Y-67500000D02*
X185750001Y-67500000D01*
X184892858Y-67928571D02*
X185392858Y-66428571D01*
X185892858Y-67928571D01*
X180857143Y-71678571D02*
X181142857Y-71678571D01*
X181285715Y-71750000D01*
X181428572Y-71892857D01*
X181500000Y-72178571D01*
X181500000Y-72678571D01*
X181428572Y-72964286D01*
X181285715Y-73107143D01*
X181142857Y-73178571D01*
X180857143Y-73178571D01*
X180714286Y-73107143D01*
X180571429Y-72964286D01*
X180500000Y-72678571D01*
X180500000Y-72178571D01*
X180571429Y-71892857D01*
X180714286Y-71750000D01*
X180857143Y-71678571D01*
X182142858Y-71678571D02*
X182142858Y-72892857D01*
X182214286Y-73035714D01*
X182285715Y-73107143D01*
X182428572Y-73178571D01*
X182714286Y-73178571D01*
X182857144Y-73107143D01*
X182928572Y-73035714D01*
X183000001Y-72892857D01*
X183000001Y-71678571D01*
X183500001Y-71678571D02*
X184357144Y-71678571D01*
X183928573Y-73178571D02*
X183928573Y-71678571D01*
X184785715Y-72750000D02*
X185500001Y-72750000D01*
X184642858Y-73178571D02*
X185142858Y-71678571D01*
X185642858Y-73178571D01*
D13*
X142690000Y-78060000D02*
X142690000Y-72940000D01*
X145310000Y-78060000D02*
X145310000Y-72940000D01*
X142690000Y-78060000D02*
X143004000Y-78060000D01*
X144996000Y-78060000D02*
X145310000Y-78060000D01*
X142690000Y-72940000D02*
X143004000Y-72940000D01*
X144996000Y-72940000D02*
X145310000Y-72940000D01*
X142690000Y-85060000D02*
X142690000Y-79940000D01*
X145310000Y-85060000D02*
X145310000Y-79940000D01*
X142690000Y-85060000D02*
X143004000Y-85060000D01*
X144996000Y-85060000D02*
X145310000Y-85060000D01*
X142690000Y-79940000D02*
X143004000Y-79940000D01*
X144996000Y-79940000D02*
X145310000Y-79940000D01*
X135940000Y-77190000D02*
X141060000Y-77190000D01*
X135940000Y-79810000D02*
X141060000Y-79810000D01*
X135940000Y-77190000D02*
X135940000Y-77504000D01*
X135940000Y-79496000D02*
X135940000Y-79810000D01*
X141060000Y-77190000D02*
X141060000Y-77504000D01*
X141060000Y-79496000D02*
X141060000Y-79810000D01*
X147690000Y-86560000D02*
X147690000Y-81440000D01*
X150310000Y-86560000D02*
X150310000Y-81440000D01*
X147690000Y-86560000D02*
X148004000Y-86560000D01*
X149996000Y-86560000D02*
X150310000Y-86560000D01*
X147690000Y-81440000D02*
X148004000Y-81440000D01*
X149996000Y-81440000D02*
X150310000Y-81440000D01*
X153940000Y-69690000D02*
X159060000Y-69690000D01*
X153940000Y-72310000D02*
X159060000Y-72310000D01*
X153940000Y-69690000D02*
X153940000Y-70004000D01*
X153940000Y-71996000D02*
X153940000Y-72310000D01*
X159060000Y-69690000D02*
X159060000Y-70004000D01*
X159060000Y-71996000D02*
X159060000Y-72310000D01*
X162940000Y-76690000D02*
X168060000Y-76690000D01*
X162940000Y-79310000D02*
X168060000Y-79310000D01*
X162940000Y-76690000D02*
X162940000Y-77004000D01*
X162940000Y-78996000D02*
X162940000Y-79310000D01*
X168060000Y-76690000D02*
X168060000Y-77004000D01*
X168060000Y-78996000D02*
X168060000Y-79310000D01*
X133440000Y-104690000D02*
X138560000Y-104690000D01*
X133440000Y-107310000D02*
X138560000Y-107310000D01*
X133440000Y-104690000D02*
X133440000Y-105004000D01*
X133440000Y-106996000D02*
X133440000Y-107310000D01*
X138560000Y-104690000D02*
X138560000Y-105004000D01*
X138560000Y-106996000D02*
X138560000Y-107310000D01*
X126883264Y-103398437D02*
G75*
G03X126880000Y-93600643I-1383264J4898437D01*
G01*
X124116736Y-103398437D02*
G75*
G02X124120000Y-93600643I1383264J4898437D01*
G01*
X124116736Y-103398437D02*
G75*
G03X126880000Y-103399357I1383264J4898437D01*
G01*
X130550000Y-98500000D02*
X120450000Y-98500000D01*
X130550000Y-98540000D02*
X120450000Y-98540000D01*
X130550000Y-98580000D02*
X120450000Y-98580000D01*
X130549000Y-98620000D02*
X120451000Y-98620000D01*
X130548000Y-98660000D02*
X120452000Y-98660000D01*
X130547000Y-98700000D02*
X120453000Y-98700000D01*
X130545000Y-98740000D02*
X120455000Y-98740000D01*
X130543000Y-98780000D02*
X120457000Y-98780000D01*
X130540000Y-98820000D02*
X120460000Y-98820000D01*
X130538000Y-98860000D02*
X120462000Y-98860000D01*
X130535000Y-98900000D02*
X120465000Y-98900000D01*
X130531000Y-98940000D02*
X120469000Y-98940000D01*
X130528000Y-98980000D02*
X120472000Y-98980000D01*
X130524000Y-99020000D02*
X120476000Y-99020000D01*
X130520000Y-99060000D02*
X120480000Y-99060000D01*
X130515000Y-99100000D02*
X120485000Y-99100000D01*
X130510000Y-99140000D02*
X120490000Y-99140000D01*
X130505000Y-99180000D02*
X120495000Y-99180000D01*
X130499000Y-99221000D02*
X120501000Y-99221000D01*
X130493000Y-99261000D02*
X120507000Y-99261000D01*
X130487000Y-99301000D02*
X120513000Y-99301000D01*
X130481000Y-99341000D02*
X120519000Y-99341000D01*
X130474000Y-99381000D02*
X120526000Y-99381000D01*
X130467000Y-99421000D02*
X120533000Y-99421000D01*
X130459000Y-99461000D02*
X120541000Y-99461000D01*
X130451000Y-99501000D02*
X120549000Y-99501000D01*
X130443000Y-99541000D02*
X120557000Y-99541000D01*
X130435000Y-99581000D02*
X120565000Y-99581000D01*
X130426000Y-99621000D02*
X120574000Y-99621000D01*
X130417000Y-99661000D02*
X120583000Y-99661000D01*
X130407000Y-99701000D02*
X120593000Y-99701000D01*
X130397000Y-99741000D02*
X120603000Y-99741000D01*
X130387000Y-99781000D02*
X120613000Y-99781000D01*
X130376000Y-99821000D02*
X126681000Y-99821000D01*
X124319000Y-99821000D02*
X120624000Y-99821000D01*
X130365000Y-99861000D02*
X126681000Y-99861000D01*
X124319000Y-99861000D02*
X120635000Y-99861000D01*
X130354000Y-99901000D02*
X126681000Y-99901000D01*
X124319000Y-99901000D02*
X120646000Y-99901000D01*
X130343000Y-99941000D02*
X126681000Y-99941000D01*
X124319000Y-99941000D02*
X120657000Y-99941000D01*
X130331000Y-99981000D02*
X126681000Y-99981000D01*
X124319000Y-99981000D02*
X120669000Y-99981000D01*
X130318000Y-100021000D02*
X126681000Y-100021000D01*
X124319000Y-100021000D02*
X120682000Y-100021000D01*
X130306000Y-100061000D02*
X126681000Y-100061000D01*
X124319000Y-100061000D02*
X120694000Y-100061000D01*
X130292000Y-100101000D02*
X126681000Y-100101000D01*
X124319000Y-100101000D02*
X120708000Y-100101000D01*
X130279000Y-100141000D02*
X126681000Y-100141000D01*
X124319000Y-100141000D02*
X120721000Y-100141000D01*
X130265000Y-100181000D02*
X126681000Y-100181000D01*
X124319000Y-100181000D02*
X120735000Y-100181000D01*
X130251000Y-100221000D02*
X126681000Y-100221000D01*
X124319000Y-100221000D02*
X120749000Y-100221000D01*
X130237000Y-100261000D02*
X126681000Y-100261000D01*
X124319000Y-100261000D02*
X120763000Y-100261000D01*
X130222000Y-100301000D02*
X126681000Y-100301000D01*
X124319000Y-100301000D02*
X120778000Y-100301000D01*
X130206000Y-100341000D02*
X126681000Y-100341000D01*
X124319000Y-100341000D02*
X120794000Y-100341000D01*
X130191000Y-100381000D02*
X126681000Y-100381000D01*
X124319000Y-100381000D02*
X120809000Y-100381000D01*
X130174000Y-100421000D02*
X126681000Y-100421000D01*
X124319000Y-100421000D02*
X120826000Y-100421000D01*
X130158000Y-100461000D02*
X126681000Y-100461000D01*
X124319000Y-100461000D02*
X120842000Y-100461000D01*
X130141000Y-100501000D02*
X126681000Y-100501000D01*
X124319000Y-100501000D02*
X120859000Y-100501000D01*
X130124000Y-100541000D02*
X126681000Y-100541000D01*
X124319000Y-100541000D02*
X120876000Y-100541000D01*
X130106000Y-100581000D02*
X126681000Y-100581000D01*
X124319000Y-100581000D02*
X120894000Y-100581000D01*
X130088000Y-100621000D02*
X126681000Y-100621000D01*
X124319000Y-100621000D02*
X120912000Y-100621000D01*
X130069000Y-100661000D02*
X126681000Y-100661000D01*
X124319000Y-100661000D02*
X120931000Y-100661000D01*
X130050000Y-100701000D02*
X126681000Y-100701000D01*
X124319000Y-100701000D02*
X120950000Y-100701000D01*
X130031000Y-100741000D02*
X126681000Y-100741000D01*
X124319000Y-100741000D02*
X120969000Y-100741000D01*
X130011000Y-100781000D02*
X126681000Y-100781000D01*
X124319000Y-100781000D02*
X120989000Y-100781000D01*
X129991000Y-100821000D02*
X126681000Y-100821000D01*
X124319000Y-100821000D02*
X121009000Y-100821000D01*
X129970000Y-100861000D02*
X126681000Y-100861000D01*
X124319000Y-100861000D02*
X121030000Y-100861000D01*
X129949000Y-100901000D02*
X126681000Y-100901000D01*
X124319000Y-100901000D02*
X121051000Y-100901000D01*
X129928000Y-100941000D02*
X126681000Y-100941000D01*
X124319000Y-100941000D02*
X121072000Y-100941000D01*
X129905000Y-100981000D02*
X126681000Y-100981000D01*
X124319000Y-100981000D02*
X121095000Y-100981000D01*
X129883000Y-101021000D02*
X126681000Y-101021000D01*
X124319000Y-101021000D02*
X121117000Y-101021000D01*
X129860000Y-101061000D02*
X126681000Y-101061000D01*
X124319000Y-101061000D02*
X121140000Y-101061000D01*
X129836000Y-101101000D02*
X126681000Y-101101000D01*
X124319000Y-101101000D02*
X121164000Y-101101000D01*
X129812000Y-101141000D02*
X126681000Y-101141000D01*
X124319000Y-101141000D02*
X121188000Y-101141000D01*
X129788000Y-101181000D02*
X126681000Y-101181000D01*
X124319000Y-101181000D02*
X121212000Y-101181000D01*
X129763000Y-101221000D02*
X126681000Y-101221000D01*
X124319000Y-101221000D02*
X121237000Y-101221000D01*
X129737000Y-101261000D02*
X126681000Y-101261000D01*
X124319000Y-101261000D02*
X121263000Y-101261000D01*
X129711000Y-101301000D02*
X126681000Y-101301000D01*
X124319000Y-101301000D02*
X121289000Y-101301000D01*
X129685000Y-101341000D02*
X126681000Y-101341000D01*
X124319000Y-101341000D02*
X121315000Y-101341000D01*
X129657000Y-101381000D02*
X126681000Y-101381000D01*
X124319000Y-101381000D02*
X121343000Y-101381000D01*
X129630000Y-101421000D02*
X126681000Y-101421000D01*
X124319000Y-101421000D02*
X121370000Y-101421000D01*
X129601000Y-101461000D02*
X126681000Y-101461000D01*
X124319000Y-101461000D02*
X121399000Y-101461000D01*
X129572000Y-101501000D02*
X126681000Y-101501000D01*
X124319000Y-101501000D02*
X121428000Y-101501000D01*
X129543000Y-101541000D02*
X126681000Y-101541000D01*
X124319000Y-101541000D02*
X121457000Y-101541000D01*
X129513000Y-101581000D02*
X126681000Y-101581000D01*
X124319000Y-101581000D02*
X121487000Y-101581000D01*
X129482000Y-101621000D02*
X126681000Y-101621000D01*
X124319000Y-101621000D02*
X121518000Y-101621000D01*
X129451000Y-101661000D02*
X126681000Y-101661000D01*
X124319000Y-101661000D02*
X121549000Y-101661000D01*
X129419000Y-101701000D02*
X126681000Y-101701000D01*
X124319000Y-101701000D02*
X121581000Y-101701000D01*
X129386000Y-101741000D02*
X126681000Y-101741000D01*
X124319000Y-101741000D02*
X121614000Y-101741000D01*
X129353000Y-101781000D02*
X126681000Y-101781000D01*
X124319000Y-101781000D02*
X121647000Y-101781000D01*
X129319000Y-101821000D02*
X126681000Y-101821000D01*
X124319000Y-101821000D02*
X121681000Y-101821000D01*
X129284000Y-101861000D02*
X126681000Y-101861000D01*
X124319000Y-101861000D02*
X121716000Y-101861000D01*
X129248000Y-101901000D02*
X126681000Y-101901000D01*
X124319000Y-101901000D02*
X121752000Y-101901000D01*
X129212000Y-101941000D02*
X126681000Y-101941000D01*
X124319000Y-101941000D02*
X121788000Y-101941000D01*
X129175000Y-101981000D02*
X126681000Y-101981000D01*
X124319000Y-101981000D02*
X121825000Y-101981000D01*
X129137000Y-102021000D02*
X126681000Y-102021000D01*
X124319000Y-102021000D02*
X121863000Y-102021000D01*
X129098000Y-102061000D02*
X126681000Y-102061000D01*
X124319000Y-102061000D02*
X121902000Y-102061000D01*
X129059000Y-102101000D02*
X126681000Y-102101000D01*
X124319000Y-102101000D02*
X121941000Y-102101000D01*
X129018000Y-102141000D02*
X126681000Y-102141000D01*
X124319000Y-102141000D02*
X121982000Y-102141000D01*
X128977000Y-102181000D02*
X122023000Y-102181000D01*
X128935000Y-102221000D02*
X122065000Y-102221000D01*
X128891000Y-102261000D02*
X122109000Y-102261000D01*
X128847000Y-102301000D02*
X122153000Y-102301000D01*
X128802000Y-102341000D02*
X122198000Y-102341000D01*
X128755000Y-102381000D02*
X122245000Y-102381000D01*
X128707000Y-102421000D02*
X122293000Y-102421000D01*
X128658000Y-102461000D02*
X122342000Y-102461000D01*
X128608000Y-102501000D02*
X122392000Y-102501000D01*
X128557000Y-102541000D02*
X122443000Y-102541000D01*
X128504000Y-102581000D02*
X122496000Y-102581000D01*
X128449000Y-102621000D02*
X122551000Y-102621000D01*
X128394000Y-102661000D02*
X122606000Y-102661000D01*
X128336000Y-102701000D02*
X122664000Y-102701000D01*
X128277000Y-102741000D02*
X122723000Y-102741000D01*
X128215000Y-102781000D02*
X122785000Y-102781000D01*
X128152000Y-102821000D02*
X122848000Y-102821000D01*
X128087000Y-102861000D02*
X122913000Y-102861000D01*
X128019000Y-102901000D02*
X122981000Y-102901000D01*
X127949000Y-102941000D02*
X123051000Y-102941000D01*
X127877000Y-102981000D02*
X123123000Y-102981000D01*
X127801000Y-103021000D02*
X123199000Y-103021000D01*
X127722000Y-103061000D02*
X123278000Y-103061000D01*
X127640000Y-103101000D02*
X123360000Y-103101000D01*
X127553000Y-103141000D02*
X123447000Y-103141000D01*
X127462000Y-103181000D02*
X123538000Y-103181000D01*
X127366000Y-103221000D02*
X123634000Y-103221000D01*
X127263000Y-103261000D02*
X123737000Y-103261000D01*
X127154000Y-103301000D02*
X123846000Y-103301000D01*
X127036000Y-103341000D02*
X123964000Y-103341000D01*
X126907000Y-103381000D02*
X124093000Y-103381000D01*
X126765000Y-103421000D02*
X124235000Y-103421000D01*
X126604000Y-103461000D02*
X124396000Y-103461000D01*
X126413000Y-103501000D02*
X124587000Y-103501000D01*
X126172000Y-103541000D02*
X124828000Y-103541000D01*
X125779000Y-103581000D02*
X125221000Y-103581000D01*
X125500000Y-93300000D02*
X125500000Y-94800000D01*
X126250000Y-94050000D02*
X124750000Y-94050000D01*
X123616736Y-109101563D02*
G75*
G03X123620000Y-118899357I1383264J-4898437D01*
G01*
X126383264Y-109101563D02*
G75*
G02X126380000Y-118899357I-1383264J-4898437D01*
G01*
X126383264Y-109101563D02*
G75*
G03X123620000Y-109100643I-1383264J-4898437D01*
G01*
X119950000Y-114000000D02*
X130050000Y-114000000D01*
X119950000Y-113960000D02*
X130050000Y-113960000D01*
X119950000Y-113920000D02*
X130050000Y-113920000D01*
X119951000Y-113880000D02*
X130049000Y-113880000D01*
X119952000Y-113840000D02*
X130048000Y-113840000D01*
X119953000Y-113800000D02*
X130047000Y-113800000D01*
X119955000Y-113760000D02*
X130045000Y-113760000D01*
X119957000Y-113720000D02*
X130043000Y-113720000D01*
X119960000Y-113680000D02*
X130040000Y-113680000D01*
X119962000Y-113640000D02*
X130038000Y-113640000D01*
X119965000Y-113600000D02*
X130035000Y-113600000D01*
X119969000Y-113560000D02*
X130031000Y-113560000D01*
X119972000Y-113520000D02*
X130028000Y-113520000D01*
X119976000Y-113480000D02*
X130024000Y-113480000D01*
X119980000Y-113440000D02*
X130020000Y-113440000D01*
X119985000Y-113400000D02*
X130015000Y-113400000D01*
X119990000Y-113360000D02*
X130010000Y-113360000D01*
X119995000Y-113320000D02*
X130005000Y-113320000D01*
X120001000Y-113279000D02*
X129999000Y-113279000D01*
X120007000Y-113239000D02*
X129993000Y-113239000D01*
X120013000Y-113199000D02*
X129987000Y-113199000D01*
X120019000Y-113159000D02*
X129981000Y-113159000D01*
X120026000Y-113119000D02*
X129974000Y-113119000D01*
X120033000Y-113079000D02*
X129967000Y-113079000D01*
X120041000Y-113039000D02*
X129959000Y-113039000D01*
X120049000Y-112999000D02*
X129951000Y-112999000D01*
X120057000Y-112959000D02*
X129943000Y-112959000D01*
X120065000Y-112919000D02*
X129935000Y-112919000D01*
X120074000Y-112879000D02*
X129926000Y-112879000D01*
X120083000Y-112839000D02*
X129917000Y-112839000D01*
X120093000Y-112799000D02*
X129907000Y-112799000D01*
X120103000Y-112759000D02*
X129897000Y-112759000D01*
X120113000Y-112719000D02*
X129887000Y-112719000D01*
X120124000Y-112679000D02*
X123819000Y-112679000D01*
X126181000Y-112679000D02*
X129876000Y-112679000D01*
X120135000Y-112639000D02*
X123819000Y-112639000D01*
X126181000Y-112639000D02*
X129865000Y-112639000D01*
X120146000Y-112599000D02*
X123819000Y-112599000D01*
X126181000Y-112599000D02*
X129854000Y-112599000D01*
X120157000Y-112559000D02*
X123819000Y-112559000D01*
X126181000Y-112559000D02*
X129843000Y-112559000D01*
X120169000Y-112519000D02*
X123819000Y-112519000D01*
X126181000Y-112519000D02*
X129831000Y-112519000D01*
X120182000Y-112479000D02*
X123819000Y-112479000D01*
X126181000Y-112479000D02*
X129818000Y-112479000D01*
X120194000Y-112439000D02*
X123819000Y-112439000D01*
X126181000Y-112439000D02*
X129806000Y-112439000D01*
X120208000Y-112399000D02*
X123819000Y-112399000D01*
X126181000Y-112399000D02*
X129792000Y-112399000D01*
X120221000Y-112359000D02*
X123819000Y-112359000D01*
X126181000Y-112359000D02*
X129779000Y-112359000D01*
X120235000Y-112319000D02*
X123819000Y-112319000D01*
X126181000Y-112319000D02*
X129765000Y-112319000D01*
X120249000Y-112279000D02*
X123819000Y-112279000D01*
X126181000Y-112279000D02*
X129751000Y-112279000D01*
X120263000Y-112239000D02*
X123819000Y-112239000D01*
X126181000Y-112239000D02*
X129737000Y-112239000D01*
X120278000Y-112199000D02*
X123819000Y-112199000D01*
X126181000Y-112199000D02*
X129722000Y-112199000D01*
X120294000Y-112159000D02*
X123819000Y-112159000D01*
X126181000Y-112159000D02*
X129706000Y-112159000D01*
X120309000Y-112119000D02*
X123819000Y-112119000D01*
X126181000Y-112119000D02*
X129691000Y-112119000D01*
X120326000Y-112079000D02*
X123819000Y-112079000D01*
X126181000Y-112079000D02*
X129674000Y-112079000D01*
X120342000Y-112039000D02*
X123819000Y-112039000D01*
X126181000Y-112039000D02*
X129658000Y-112039000D01*
X120359000Y-111999000D02*
X123819000Y-111999000D01*
X126181000Y-111999000D02*
X129641000Y-111999000D01*
X120376000Y-111959000D02*
X123819000Y-111959000D01*
X126181000Y-111959000D02*
X129624000Y-111959000D01*
X120394000Y-111919000D02*
X123819000Y-111919000D01*
X126181000Y-111919000D02*
X129606000Y-111919000D01*
X120412000Y-111879000D02*
X123819000Y-111879000D01*
X126181000Y-111879000D02*
X129588000Y-111879000D01*
X120431000Y-111839000D02*
X123819000Y-111839000D01*
X126181000Y-111839000D02*
X129569000Y-111839000D01*
X120450000Y-111799000D02*
X123819000Y-111799000D01*
X126181000Y-111799000D02*
X129550000Y-111799000D01*
X120469000Y-111759000D02*
X123819000Y-111759000D01*
X126181000Y-111759000D02*
X129531000Y-111759000D01*
X120489000Y-111719000D02*
X123819000Y-111719000D01*
X126181000Y-111719000D02*
X129511000Y-111719000D01*
X120509000Y-111679000D02*
X123819000Y-111679000D01*
X126181000Y-111679000D02*
X129491000Y-111679000D01*
X120530000Y-111639000D02*
X123819000Y-111639000D01*
X126181000Y-111639000D02*
X129470000Y-111639000D01*
X120551000Y-111599000D02*
X123819000Y-111599000D01*
X126181000Y-111599000D02*
X129449000Y-111599000D01*
X120572000Y-111559000D02*
X123819000Y-111559000D01*
X126181000Y-111559000D02*
X129428000Y-111559000D01*
X120595000Y-111519000D02*
X123819000Y-111519000D01*
X126181000Y-111519000D02*
X129405000Y-111519000D01*
X120617000Y-111479000D02*
X123819000Y-111479000D01*
X126181000Y-111479000D02*
X129383000Y-111479000D01*
X120640000Y-111439000D02*
X123819000Y-111439000D01*
X126181000Y-111439000D02*
X129360000Y-111439000D01*
X120664000Y-111399000D02*
X123819000Y-111399000D01*
X126181000Y-111399000D02*
X129336000Y-111399000D01*
X120688000Y-111359000D02*
X123819000Y-111359000D01*
X126181000Y-111359000D02*
X129312000Y-111359000D01*
X120712000Y-111319000D02*
X123819000Y-111319000D01*
X126181000Y-111319000D02*
X129288000Y-111319000D01*
X120737000Y-111279000D02*
X123819000Y-111279000D01*
X126181000Y-111279000D02*
X129263000Y-111279000D01*
X120763000Y-111239000D02*
X123819000Y-111239000D01*
X126181000Y-111239000D02*
X129237000Y-111239000D01*
X120789000Y-111199000D02*
X123819000Y-111199000D01*
X126181000Y-111199000D02*
X129211000Y-111199000D01*
X120815000Y-111159000D02*
X123819000Y-111159000D01*
X126181000Y-111159000D02*
X129185000Y-111159000D01*
X120843000Y-111119000D02*
X123819000Y-111119000D01*
X126181000Y-111119000D02*
X129157000Y-111119000D01*
X120870000Y-111079000D02*
X123819000Y-111079000D01*
X126181000Y-111079000D02*
X129130000Y-111079000D01*
X120899000Y-111039000D02*
X123819000Y-111039000D01*
X126181000Y-111039000D02*
X129101000Y-111039000D01*
X120928000Y-110999000D02*
X123819000Y-110999000D01*
X126181000Y-110999000D02*
X129072000Y-110999000D01*
X120957000Y-110959000D02*
X123819000Y-110959000D01*
X126181000Y-110959000D02*
X129043000Y-110959000D01*
X120987000Y-110919000D02*
X123819000Y-110919000D01*
X126181000Y-110919000D02*
X129013000Y-110919000D01*
X121018000Y-110879000D02*
X123819000Y-110879000D01*
X126181000Y-110879000D02*
X128982000Y-110879000D01*
X121049000Y-110839000D02*
X123819000Y-110839000D01*
X126181000Y-110839000D02*
X128951000Y-110839000D01*
X121081000Y-110799000D02*
X123819000Y-110799000D01*
X126181000Y-110799000D02*
X128919000Y-110799000D01*
X121114000Y-110759000D02*
X123819000Y-110759000D01*
X126181000Y-110759000D02*
X128886000Y-110759000D01*
X121147000Y-110719000D02*
X123819000Y-110719000D01*
X126181000Y-110719000D02*
X128853000Y-110719000D01*
X121181000Y-110679000D02*
X123819000Y-110679000D01*
X126181000Y-110679000D02*
X128819000Y-110679000D01*
X121216000Y-110639000D02*
X123819000Y-110639000D01*
X126181000Y-110639000D02*
X128784000Y-110639000D01*
X121252000Y-110599000D02*
X123819000Y-110599000D01*
X126181000Y-110599000D02*
X128748000Y-110599000D01*
X121288000Y-110559000D02*
X123819000Y-110559000D01*
X126181000Y-110559000D02*
X128712000Y-110559000D01*
X121325000Y-110519000D02*
X123819000Y-110519000D01*
X126181000Y-110519000D02*
X128675000Y-110519000D01*
X121363000Y-110479000D02*
X123819000Y-110479000D01*
X126181000Y-110479000D02*
X128637000Y-110479000D01*
X121402000Y-110439000D02*
X123819000Y-110439000D01*
X126181000Y-110439000D02*
X128598000Y-110439000D01*
X121441000Y-110399000D02*
X123819000Y-110399000D01*
X126181000Y-110399000D02*
X128559000Y-110399000D01*
X121482000Y-110359000D02*
X123819000Y-110359000D01*
X126181000Y-110359000D02*
X128518000Y-110359000D01*
X121523000Y-110319000D02*
X128477000Y-110319000D01*
X121565000Y-110279000D02*
X128435000Y-110279000D01*
X121609000Y-110239000D02*
X128391000Y-110239000D01*
X121653000Y-110199000D02*
X128347000Y-110199000D01*
X121698000Y-110159000D02*
X128302000Y-110159000D01*
X121745000Y-110119000D02*
X128255000Y-110119000D01*
X121793000Y-110079000D02*
X128207000Y-110079000D01*
X121842000Y-110039000D02*
X128158000Y-110039000D01*
X121892000Y-109999000D02*
X128108000Y-109999000D01*
X121943000Y-109959000D02*
X128057000Y-109959000D01*
X121996000Y-109919000D02*
X128004000Y-109919000D01*
X122051000Y-109879000D02*
X127949000Y-109879000D01*
X122106000Y-109839000D02*
X127894000Y-109839000D01*
X122164000Y-109799000D02*
X127836000Y-109799000D01*
X122223000Y-109759000D02*
X127777000Y-109759000D01*
X122285000Y-109719000D02*
X127715000Y-109719000D01*
X122348000Y-109679000D02*
X127652000Y-109679000D01*
X122413000Y-109639000D02*
X127587000Y-109639000D01*
X122481000Y-109599000D02*
X127519000Y-109599000D01*
X122551000Y-109559000D02*
X127449000Y-109559000D01*
X122623000Y-109519000D02*
X127377000Y-109519000D01*
X122699000Y-109479000D02*
X127301000Y-109479000D01*
X122778000Y-109439000D02*
X127222000Y-109439000D01*
X122860000Y-109399000D02*
X127140000Y-109399000D01*
X122947000Y-109359000D02*
X127053000Y-109359000D01*
X123038000Y-109319000D02*
X126962000Y-109319000D01*
X123134000Y-109279000D02*
X126866000Y-109279000D01*
X123237000Y-109239000D02*
X126763000Y-109239000D01*
X123346000Y-109199000D02*
X126654000Y-109199000D01*
X123464000Y-109159000D02*
X126536000Y-109159000D01*
X123593000Y-109119000D02*
X126407000Y-109119000D01*
X123735000Y-109079000D02*
X126265000Y-109079000D01*
X123896000Y-109039000D02*
X126104000Y-109039000D01*
X124087000Y-108999000D02*
X125913000Y-108999000D01*
X124328000Y-108959000D02*
X125672000Y-108959000D01*
X124721000Y-108919000D02*
X125279000Y-108919000D01*
X125000000Y-119200000D02*
X125000000Y-117700000D01*
X124250000Y-118450000D02*
X125750000Y-118450000D01*
X131060000Y-71250000D02*
X128940000Y-71250000D01*
X128940000Y-71250000D02*
X128940000Y-75370000D01*
X128940000Y-75370000D02*
X131060000Y-75370000D01*
X131060000Y-75370000D02*
X131060000Y-71250000D01*
X130000000Y-70480000D02*
X130000000Y-71250000D01*
X130000000Y-76140000D02*
X130000000Y-75370000D01*
X131060000Y-71910000D02*
X128940000Y-71910000D01*
X131060000Y-81250000D02*
X128940000Y-81250000D01*
X128940000Y-81250000D02*
X128940000Y-85370000D01*
X128940000Y-85370000D02*
X131060000Y-85370000D01*
X131060000Y-85370000D02*
X131060000Y-81250000D01*
X130000000Y-80480000D02*
X130000000Y-81250000D01*
X130000000Y-86140000D02*
X130000000Y-85370000D01*
X131060000Y-81910000D02*
X128940000Y-81910000D01*
X127560000Y-71250000D02*
X125440000Y-71250000D01*
X125440000Y-71250000D02*
X125440000Y-75370000D01*
X125440000Y-75370000D02*
X127560000Y-75370000D01*
X127560000Y-75370000D02*
X127560000Y-71250000D01*
X126500000Y-70480000D02*
X126500000Y-71250000D01*
X126500000Y-76140000D02*
X126500000Y-75370000D01*
X127560000Y-71910000D02*
X125440000Y-71910000D01*
X127560000Y-81250000D02*
X125440000Y-81250000D01*
X125440000Y-81250000D02*
X125440000Y-85370000D01*
X125440000Y-85370000D02*
X127560000Y-85370000D01*
X127560000Y-85370000D02*
X127560000Y-81250000D01*
X126500000Y-80480000D02*
X126500000Y-81250000D01*
X126500000Y-86140000D02*
X126500000Y-85370000D01*
X127560000Y-81910000D02*
X125440000Y-81910000D01*
X135400000Y-93470000D02*
X135400000Y-93340000D01*
X135400000Y-93340000D02*
X140720000Y-93340000D01*
X140720000Y-93340000D02*
X140720000Y-93470000D01*
X135400000Y-96030000D02*
X135400000Y-96160000D01*
X135400000Y-96160000D02*
X140720000Y-96160000D01*
X140720000Y-96160000D02*
X140720000Y-96030000D01*
X136240000Y-93340000D02*
X136240000Y-96160000D01*
X140100000Y-111030000D02*
X140100000Y-111160000D01*
X140100000Y-111160000D02*
X134780000Y-111160000D01*
X134780000Y-111160000D02*
X134780000Y-111030000D01*
X140100000Y-108470000D02*
X140100000Y-108340000D01*
X140100000Y-108340000D02*
X134780000Y-108340000D01*
X134780000Y-108340000D02*
X134780000Y-108470000D01*
X139260000Y-111160000D02*
X139260000Y-108340000D01*
X179810000Y-59460000D02*
X172190000Y-59460000D01*
X172190000Y-79780000D02*
X179810000Y-79780000D01*
X173460000Y-79780000D02*
X173460000Y-59460000D01*
X179810000Y-59460000D02*
X179810000Y-79780000D01*
X172190000Y-59460000D02*
X172190000Y-79780000D01*
X179560000Y-97460000D02*
X171940000Y-97460000D01*
X171940000Y-117780000D02*
X179560000Y-117780000D01*
X173210000Y-117780000D02*
X173210000Y-97460000D01*
X179560000Y-97460000D02*
X179560000Y-117780000D01*
X171940000Y-97460000D02*
X171940000Y-117780000D01*
X164670000Y-85870000D02*
X167330000Y-85870000D01*
X164670000Y-83270000D02*
X164670000Y-85870000D01*
X167330000Y-83270000D02*
X167330000Y-85870000D01*
X164670000Y-83270000D02*
X167330000Y-83270000D01*
X164670000Y-82000000D02*
X164670000Y-80670000D01*
X164670000Y-80670000D02*
X166000000Y-80670000D01*
X159120000Y-109670000D02*
X159120000Y-119910000D01*
X154479000Y-109670000D02*
X154479000Y-119910000D01*
X159120000Y-109670000D02*
X154479000Y-109670000D01*
X159120000Y-119910000D02*
X154479000Y-119910000D01*
X157610000Y-109670000D02*
X157610000Y-119910000D01*
X159120000Y-112940000D02*
X157610000Y-112940000D01*
X159120000Y-116641000D02*
X157610000Y-116641000D01*
X139900000Y-74980000D02*
X139900000Y-75310000D01*
X139900000Y-75310000D02*
X133480000Y-75310000D01*
X133480000Y-75310000D02*
X133480000Y-74980000D01*
X139900000Y-73020000D02*
X139900000Y-72690000D01*
X139900000Y-72690000D02*
X133480000Y-72690000D01*
X133480000Y-72690000D02*
X133480000Y-73020000D01*
X139900000Y-83980000D02*
X139900000Y-84310000D01*
X139900000Y-84310000D02*
X133480000Y-84310000D01*
X133480000Y-84310000D02*
X133480000Y-83980000D01*
X139900000Y-82020000D02*
X139900000Y-81690000D01*
X139900000Y-81690000D02*
X133480000Y-81690000D01*
X133480000Y-81690000D02*
X133480000Y-82020000D01*
X144710000Y-100160000D02*
X144710000Y-96840000D01*
X144710000Y-96840000D02*
X135590000Y-96840000D01*
X135590000Y-96840000D02*
X135590000Y-100160000D01*
X135590000Y-100160000D02*
X144710000Y-100160000D01*
X145520000Y-98500000D02*
X144710000Y-98500000D01*
X134780000Y-98500000D02*
X135590000Y-98500000D01*
X135790000Y-112340000D02*
X135790000Y-115660000D01*
X135790000Y-115660000D02*
X144910000Y-115660000D01*
X144910000Y-115660000D02*
X144910000Y-112340000D01*
X144910000Y-112340000D02*
X135790000Y-112340000D01*
X134980000Y-114000000D02*
X135790000Y-114000000D01*
X145720000Y-114000000D02*
X144910000Y-114000000D01*
X157310000Y-74170000D02*
G75*
G02X155310000Y-74170000I-1000000J0D01*
G01*
X155310000Y-74170000D02*
X153660000Y-74170000D01*
X153660000Y-74170000D02*
X153660000Y-84450000D01*
X153660000Y-84450000D02*
X158960000Y-84450000D01*
X158960000Y-84450000D02*
X158960000Y-74170000D01*
X158960000Y-74170000D02*
X157310000Y-74170000D01*
X151170000Y-74110000D02*
X151170000Y-84510000D01*
X151170000Y-84510000D02*
X161450000Y-84510000D01*
X161450000Y-84510000D02*
X161450000Y-74110000D01*
X161450000Y-74110000D02*
X151170000Y-74110000D01*
X140560000Y-92810000D02*
X135440000Y-92810000D01*
X140560000Y-90190000D02*
X135440000Y-90190000D01*
X140560000Y-92810000D02*
X140560000Y-92496000D01*
X140560000Y-90504000D02*
X140560000Y-90190000D01*
X135440000Y-92810000D02*
X135440000Y-92496000D01*
X135440000Y-90504000D02*
X135440000Y-90190000D01*
X146400000Y-103480000D02*
X146400000Y-103810000D01*
X146400000Y-103810000D02*
X139980000Y-103810000D01*
X139980000Y-103810000D02*
X139980000Y-103480000D01*
X146400000Y-101520000D02*
X146400000Y-101190000D01*
X146400000Y-101190000D02*
X139980000Y-101190000D01*
X139980000Y-101190000D02*
X139980000Y-101520000D01*
X139600000Y-117520000D02*
X139600000Y-117190000D01*
X139600000Y-117190000D02*
X146020000Y-117190000D01*
X146020000Y-117190000D02*
X146020000Y-117520000D01*
X139600000Y-119480000D02*
X139600000Y-119810000D01*
X139600000Y-119810000D02*
X146020000Y-119810000D01*
X146020000Y-119810000D02*
X146020000Y-119480000D01*
X146810000Y-105440000D02*
X146810000Y-110560000D01*
X144190000Y-105440000D02*
X144190000Y-110560000D01*
X146810000Y-105440000D02*
X146496000Y-105440000D01*
X144504000Y-105440000D02*
X144190000Y-105440000D01*
X146810000Y-110560000D02*
X146496000Y-110560000D01*
X144504000Y-110560000D02*
X144190000Y-110560000D01*
X144690000Y-94560000D02*
X144690000Y-89440000D01*
X147310000Y-94560000D02*
X147310000Y-89440000D01*
X144690000Y-94560000D02*
X145004000Y-94560000D01*
X146996000Y-94560000D02*
X147310000Y-94560000D01*
X144690000Y-89440000D02*
X145004000Y-89440000D01*
X146996000Y-89440000D02*
X147310000Y-89440000D01*
X158870000Y-92920000D02*
X158870000Y-103160000D01*
X154229000Y-92920000D02*
X154229000Y-103160000D01*
X158870000Y-92920000D02*
X154229000Y-92920000D01*
X158870000Y-103160000D02*
X154229000Y-103160000D01*
X157360000Y-92920000D02*
X157360000Y-103160000D01*
X158870000Y-96190000D02*
X157360000Y-96190000D01*
X158870000Y-99891000D02*
X157360000Y-99891000D01*
X142190000Y-132060000D02*
X142190000Y-126940000D01*
X144810000Y-132060000D02*
X144810000Y-126940000D01*
X142190000Y-132060000D02*
X142504000Y-132060000D01*
X144496000Y-132060000D02*
X144810000Y-132060000D01*
X142190000Y-126940000D02*
X142504000Y-126940000D01*
X144496000Y-126940000D02*
X144810000Y-126940000D01*
X142190000Y-139560000D02*
X142190000Y-134440000D01*
X144810000Y-139560000D02*
X144810000Y-134440000D01*
X142190000Y-139560000D02*
X142504000Y-139560000D01*
X144496000Y-139560000D02*
X144810000Y-139560000D01*
X142190000Y-134440000D02*
X142504000Y-134440000D01*
X144496000Y-134440000D02*
X144810000Y-134440000D01*
X135440000Y-132190000D02*
X140560000Y-132190000D01*
X135440000Y-134810000D02*
X140560000Y-134810000D01*
X135440000Y-132190000D02*
X135440000Y-132504000D01*
X135440000Y-134496000D02*
X135440000Y-134810000D01*
X140560000Y-132190000D02*
X140560000Y-132504000D01*
X140560000Y-134496000D02*
X140560000Y-134810000D01*
X145440000Y-140690000D02*
X150560000Y-140690000D01*
X145440000Y-143310000D02*
X150560000Y-143310000D01*
X145440000Y-140690000D02*
X145440000Y-141004000D01*
X145440000Y-142996000D02*
X145440000Y-143310000D01*
X150560000Y-140690000D02*
X150560000Y-141004000D01*
X150560000Y-142996000D02*
X150560000Y-143310000D01*
X154940000Y-127690000D02*
X160060000Y-127690000D01*
X154940000Y-130310000D02*
X160060000Y-130310000D01*
X154940000Y-127690000D02*
X154940000Y-128004000D01*
X154940000Y-129996000D02*
X154940000Y-130310000D01*
X160060000Y-127690000D02*
X160060000Y-128004000D01*
X160060000Y-129996000D02*
X160060000Y-130310000D01*
X163940000Y-132690000D02*
X169060000Y-132690000D01*
X163940000Y-135310000D02*
X169060000Y-135310000D01*
X163940000Y-132690000D02*
X163940000Y-133004000D01*
X163940000Y-134996000D02*
X163940000Y-135310000D01*
X169060000Y-132690000D02*
X169060000Y-133004000D01*
X169060000Y-134996000D02*
X169060000Y-135310000D01*
X127560000Y-126250000D02*
X125440000Y-126250000D01*
X125440000Y-126250000D02*
X125440000Y-130370000D01*
X125440000Y-130370000D02*
X127560000Y-130370000D01*
X127560000Y-130370000D02*
X127560000Y-126250000D01*
X126500000Y-125480000D02*
X126500000Y-126250000D01*
X126500000Y-131140000D02*
X126500000Y-130370000D01*
X127560000Y-126910000D02*
X125440000Y-126910000D01*
X127560000Y-136250000D02*
X125440000Y-136250000D01*
X125440000Y-136250000D02*
X125440000Y-140370000D01*
X125440000Y-140370000D02*
X127560000Y-140370000D01*
X127560000Y-140370000D02*
X127560000Y-136250000D01*
X126500000Y-135480000D02*
X126500000Y-136250000D01*
X126500000Y-141140000D02*
X126500000Y-140370000D01*
X127560000Y-136910000D02*
X125440000Y-136910000D01*
X131060000Y-126250000D02*
X128940000Y-126250000D01*
X128940000Y-126250000D02*
X128940000Y-130370000D01*
X128940000Y-130370000D02*
X131060000Y-130370000D01*
X131060000Y-130370000D02*
X131060000Y-126250000D01*
X130000000Y-125480000D02*
X130000000Y-126250000D01*
X130000000Y-131140000D02*
X130000000Y-130370000D01*
X131060000Y-126910000D02*
X128940000Y-126910000D01*
X131060000Y-136250000D02*
X128940000Y-136250000D01*
X128940000Y-136250000D02*
X128940000Y-140370000D01*
X128940000Y-140370000D02*
X131060000Y-140370000D01*
X131060000Y-140370000D02*
X131060000Y-136250000D01*
X130000000Y-135480000D02*
X130000000Y-136250000D01*
X130000000Y-141140000D02*
X130000000Y-140370000D01*
X131060000Y-136910000D02*
X128940000Y-136910000D01*
X179810000Y-119710000D02*
X172190000Y-119710000D01*
X172190000Y-140030000D02*
X179810000Y-140030000D01*
X173460000Y-140030000D02*
X173460000Y-119710000D01*
X179810000Y-119710000D02*
X179810000Y-140030000D01*
X172190000Y-119710000D02*
X172190000Y-140030000D01*
X164170000Y-141870000D02*
X166830000Y-141870000D01*
X164170000Y-139270000D02*
X164170000Y-141870000D01*
X166830000Y-139270000D02*
X166830000Y-141870000D01*
X164170000Y-139270000D02*
X166830000Y-139270000D01*
X164170000Y-138000000D02*
X164170000Y-136670000D01*
X164170000Y-136670000D02*
X165500000Y-136670000D01*
X139900000Y-129980000D02*
X139900000Y-130310000D01*
X139900000Y-130310000D02*
X133480000Y-130310000D01*
X133480000Y-130310000D02*
X133480000Y-129980000D01*
X139900000Y-128020000D02*
X139900000Y-127690000D01*
X139900000Y-127690000D02*
X133480000Y-127690000D01*
X133480000Y-127690000D02*
X133480000Y-128020000D01*
X139900000Y-138980000D02*
X139900000Y-139310000D01*
X139900000Y-139310000D02*
X133480000Y-139310000D01*
X133480000Y-139310000D02*
X133480000Y-138980000D01*
X139900000Y-137020000D02*
X139900000Y-136690000D01*
X139900000Y-136690000D02*
X133480000Y-136690000D01*
X133480000Y-136690000D02*
X133480000Y-137020000D01*
X157810000Y-131670000D02*
G75*
G02X155810000Y-131670000I-1000000J0D01*
G01*
X155810000Y-131670000D02*
X154160000Y-131670000D01*
X154160000Y-131670000D02*
X154160000Y-141950000D01*
X154160000Y-141950000D02*
X159460000Y-141950000D01*
X159460000Y-141950000D02*
X159460000Y-131670000D01*
X159460000Y-131670000D02*
X157810000Y-131670000D01*
X151670000Y-131610000D02*
X151670000Y-142010000D01*
X151670000Y-142010000D02*
X161950000Y-142010000D01*
X161950000Y-142010000D02*
X161950000Y-131610000D01*
X161950000Y-131610000D02*
X151670000Y-131610000D01*
X107286000Y-62000000D02*
G75*
G03X107286000Y-62000000I-2286000J0D01*
G01*
X186286000Y-62000000D02*
G75*
G03X186286000Y-62000000I-2286000J0D01*
G01*
X107286000Y-149000000D02*
G75*
G03X107286000Y-149000000I-2286000J0D01*
G01*
X186286000Y-149000000D02*
G75*
G03X186286000Y-149000000I-2286000J0D01*
G01*
X175000000Y-85700000D02*
X177000000Y-85700000D01*
X175000000Y-92300000D02*
X177000000Y-92300000D01*
X179300000Y-88000000D02*
X179300000Y-90000000D01*
X172700000Y-88000000D02*
X172700000Y-90000000D01*
X174250000Y-144200000D02*
X176250000Y-144200000D01*
X174250000Y-150800000D02*
X176250000Y-150800000D01*
X178550000Y-146500000D02*
X178550000Y-148500000D01*
X171950000Y-146500000D02*
X171950000Y-148500000D01*
D14*
X102880000Y-84350000D02*
X121930000Y-84350000D01*
X121930000Y-84350000D02*
X121930000Y-71650000D01*
X121930000Y-71650000D02*
X102880000Y-71650000D01*
X102880000Y-71650000D02*
X102880000Y-84350000D01*
X102880000Y-139350000D02*
X121930000Y-139350000D01*
X121930000Y-139350000D02*
X121930000Y-126650000D01*
X121930000Y-126650000D02*
X102880000Y-126650000D01*
X102880000Y-126650000D02*
X102880000Y-139350000D01*
D12*
X144357143Y-75666666D02*
X144404762Y-75714285D01*
X144452381Y-75857142D01*
X144452381Y-75952380D01*
X144404762Y-76095238D01*
X144309524Y-76190476D01*
X144214286Y-76238095D01*
X144023810Y-76285714D01*
X143880952Y-76285714D01*
X143690476Y-76238095D01*
X143595238Y-76190476D01*
X143500000Y-76095238D01*
X143452381Y-75952380D01*
X143452381Y-75857142D01*
X143500000Y-75714285D01*
X143547619Y-75666666D01*
X144452381Y-74714285D02*
X144452381Y-75285714D01*
X144452381Y-75000000D02*
X143452381Y-75000000D01*
X143595238Y-75095238D01*
X143690476Y-75190476D01*
X143738095Y-75285714D01*
X144357143Y-82666666D02*
X144404762Y-82714285D01*
X144452381Y-82857142D01*
X144452381Y-82952380D01*
X144404762Y-83095238D01*
X144309524Y-83190476D01*
X144214286Y-83238095D01*
X144023810Y-83285714D01*
X143880952Y-83285714D01*
X143690476Y-83238095D01*
X143595238Y-83190476D01*
X143500000Y-83095238D01*
X143452381Y-82952380D01*
X143452381Y-82857142D01*
X143500000Y-82714285D01*
X143547619Y-82666666D01*
X143547619Y-82285714D02*
X143500000Y-82238095D01*
X143452381Y-82142857D01*
X143452381Y-81904761D01*
X143500000Y-81809523D01*
X143547619Y-81761904D01*
X143642857Y-81714285D01*
X143738095Y-81714285D01*
X143880952Y-81761904D01*
X144452381Y-82333333D01*
X144452381Y-81714285D01*
X138333334Y-78857143D02*
X138285715Y-78904762D01*
X138142858Y-78952381D01*
X138047620Y-78952381D01*
X137904762Y-78904762D01*
X137809524Y-78809524D01*
X137761905Y-78714286D01*
X137714286Y-78523810D01*
X137714286Y-78380952D01*
X137761905Y-78190476D01*
X137809524Y-78095238D01*
X137904762Y-78000000D01*
X138047620Y-77952381D01*
X138142858Y-77952381D01*
X138285715Y-78000000D01*
X138333334Y-78047619D01*
X138666667Y-77952381D02*
X139285715Y-77952381D01*
X138952381Y-78333333D01*
X139095239Y-78333333D01*
X139190477Y-78380952D01*
X139238096Y-78428571D01*
X139285715Y-78523810D01*
X139285715Y-78761905D01*
X139238096Y-78857143D01*
X139190477Y-78904762D01*
X139095239Y-78952381D01*
X138809524Y-78952381D01*
X138714286Y-78904762D01*
X138666667Y-78857143D01*
X149357143Y-84166666D02*
X149404762Y-84214285D01*
X149452381Y-84357142D01*
X149452381Y-84452380D01*
X149404762Y-84595238D01*
X149309524Y-84690476D01*
X149214286Y-84738095D01*
X149023810Y-84785714D01*
X148880952Y-84785714D01*
X148690476Y-84738095D01*
X148595238Y-84690476D01*
X148500000Y-84595238D01*
X148452381Y-84452380D01*
X148452381Y-84357142D01*
X148500000Y-84214285D01*
X148547619Y-84166666D01*
X148785714Y-83309523D02*
X149452381Y-83309523D01*
X148404762Y-83547619D02*
X149119048Y-83785714D01*
X149119048Y-83166666D01*
X156333334Y-71357143D02*
X156285715Y-71404762D01*
X156142858Y-71452381D01*
X156047620Y-71452381D01*
X155904762Y-71404762D01*
X155809524Y-71309524D01*
X155761905Y-71214286D01*
X155714286Y-71023810D01*
X155714286Y-70880952D01*
X155761905Y-70690476D01*
X155809524Y-70595238D01*
X155904762Y-70500000D01*
X156047620Y-70452381D01*
X156142858Y-70452381D01*
X156285715Y-70500000D01*
X156333334Y-70547619D01*
X157238096Y-70452381D02*
X156761905Y-70452381D01*
X156714286Y-70928571D01*
X156761905Y-70880952D01*
X156857143Y-70833333D01*
X157095239Y-70833333D01*
X157190477Y-70880952D01*
X157238096Y-70928571D01*
X157285715Y-71023810D01*
X157285715Y-71261905D01*
X157238096Y-71357143D01*
X157190477Y-71404762D01*
X157095239Y-71452381D01*
X156857143Y-71452381D01*
X156761905Y-71404762D01*
X156714286Y-71357143D01*
X165333334Y-78357143D02*
X165285715Y-78404762D01*
X165142858Y-78452381D01*
X165047620Y-78452381D01*
X164904762Y-78404762D01*
X164809524Y-78309524D01*
X164761905Y-78214286D01*
X164714286Y-78023810D01*
X164714286Y-77880952D01*
X164761905Y-77690476D01*
X164809524Y-77595238D01*
X164904762Y-77500000D01*
X165047620Y-77452381D01*
X165142858Y-77452381D01*
X165285715Y-77500000D01*
X165333334Y-77547619D01*
X166190477Y-77452381D02*
X166000000Y-77452381D01*
X165904762Y-77500000D01*
X165857143Y-77547619D01*
X165761905Y-77690476D01*
X165714286Y-77880952D01*
X165714286Y-78261905D01*
X165761905Y-78357143D01*
X165809524Y-78404762D01*
X165904762Y-78452381D01*
X166095239Y-78452381D01*
X166190477Y-78404762D01*
X166238096Y-78357143D01*
X166285715Y-78261905D01*
X166285715Y-78023810D01*
X166238096Y-77928571D01*
X166190477Y-77880952D01*
X166095239Y-77833333D01*
X165904762Y-77833333D01*
X165809524Y-77880952D01*
X165761905Y-77928571D01*
X165714286Y-78023810D01*
X135833334Y-106357143D02*
X135785715Y-106404762D01*
X135642858Y-106452381D01*
X135547620Y-106452381D01*
X135404762Y-106404762D01*
X135309524Y-106309524D01*
X135261905Y-106214286D01*
X135214286Y-106023810D01*
X135214286Y-105880952D01*
X135261905Y-105690476D01*
X135309524Y-105595238D01*
X135404762Y-105500000D01*
X135547620Y-105452381D01*
X135642858Y-105452381D01*
X135785715Y-105500000D01*
X135833334Y-105547619D01*
X136166667Y-105452381D02*
X136833334Y-105452381D01*
X136404762Y-106452381D01*
X118857143Y-98916666D02*
X118904762Y-98964285D01*
X118952381Y-99107142D01*
X118952381Y-99202380D01*
X118904762Y-99345238D01*
X118809524Y-99440476D01*
X118714286Y-99488095D01*
X118523810Y-99535714D01*
X118380952Y-99535714D01*
X118190476Y-99488095D01*
X118095238Y-99440476D01*
X118000000Y-99345238D01*
X117952381Y-99202380D01*
X117952381Y-99107142D01*
X118000000Y-98964285D01*
X118047619Y-98916666D01*
X118380952Y-98345238D02*
X118333333Y-98440476D01*
X118285714Y-98488095D01*
X118190476Y-98535714D01*
X118142857Y-98535714D01*
X118047619Y-98488095D01*
X118000000Y-98440476D01*
X117952381Y-98345238D01*
X117952381Y-98154761D01*
X118000000Y-98059523D01*
X118047619Y-98011904D01*
X118142857Y-97964285D01*
X118190476Y-97964285D01*
X118285714Y-98011904D01*
X118333333Y-98059523D01*
X118380952Y-98154761D01*
X118380952Y-98345238D01*
X118428571Y-98440476D01*
X118476190Y-98488095D01*
X118571429Y-98535714D01*
X118761905Y-98535714D01*
X118857143Y-98488095D01*
X118904762Y-98440476D01*
X118952381Y-98345238D01*
X118952381Y-98154761D01*
X118904762Y-98059523D01*
X118857143Y-98011904D01*
X118761905Y-97964285D01*
X118571429Y-97964285D01*
X118476190Y-98011904D01*
X118428571Y-98059523D01*
X118380952Y-98154761D01*
X119047143Y-114166666D02*
X119094762Y-114214285D01*
X119142381Y-114357142D01*
X119142381Y-114452380D01*
X119094762Y-114595238D01*
X118999524Y-114690476D01*
X118904286Y-114738095D01*
X118713810Y-114785714D01*
X118570952Y-114785714D01*
X118380476Y-114738095D01*
X118285238Y-114690476D01*
X118190000Y-114595238D01*
X118142381Y-114452380D01*
X118142381Y-114357142D01*
X118190000Y-114214285D01*
X118237619Y-114166666D01*
X119142381Y-113690476D02*
X119142381Y-113500000D01*
X119094762Y-113404761D01*
X119047143Y-113357142D01*
X118904286Y-113261904D01*
X118713810Y-113214285D01*
X118332857Y-113214285D01*
X118237619Y-113261904D01*
X118190000Y-113309523D01*
X118142381Y-113404761D01*
X118142381Y-113595238D01*
X118190000Y-113690476D01*
X118237619Y-113738095D01*
X118332857Y-113785714D01*
X118570952Y-113785714D01*
X118666190Y-113738095D01*
X118713810Y-113690476D01*
X118761429Y-113595238D01*
X118761429Y-113404761D01*
X118713810Y-113309523D01*
X118666190Y-113261904D01*
X118570952Y-113214285D01*
X130452381Y-74238095D02*
X129452381Y-74238095D01*
X129452381Y-74000000D01*
X129500000Y-73857142D01*
X129595238Y-73761904D01*
X129690476Y-73714285D01*
X129880952Y-73666666D01*
X130023810Y-73666666D01*
X130214286Y-73714285D01*
X130309524Y-73761904D01*
X130404762Y-73857142D01*
X130452381Y-74000000D01*
X130452381Y-74238095D01*
X130452381Y-72714285D02*
X130452381Y-73285714D01*
X130452381Y-73000000D02*
X129452381Y-73000000D01*
X129595238Y-73095238D01*
X129690476Y-73190476D01*
X129738095Y-73285714D01*
X130452381Y-84238095D02*
X129452381Y-84238095D01*
X129452381Y-84000000D01*
X129500000Y-83857142D01*
X129595238Y-83761904D01*
X129690476Y-83714285D01*
X129880952Y-83666666D01*
X130023810Y-83666666D01*
X130214286Y-83714285D01*
X130309524Y-83761904D01*
X130404762Y-83857142D01*
X130452381Y-84000000D01*
X130452381Y-84238095D01*
X129547619Y-83285714D02*
X129500000Y-83238095D01*
X129452381Y-83142857D01*
X129452381Y-82904761D01*
X129500000Y-82809523D01*
X129547619Y-82761904D01*
X129642857Y-82714285D01*
X129738095Y-82714285D01*
X129880952Y-82761904D01*
X130452381Y-83333333D01*
X130452381Y-82714285D01*
X126952381Y-74238095D02*
X125952381Y-74238095D01*
X125952381Y-74000000D01*
X126000000Y-73857142D01*
X126095238Y-73761904D01*
X126190476Y-73714285D01*
X126380952Y-73666666D01*
X126523810Y-73666666D01*
X126714286Y-73714285D01*
X126809524Y-73761904D01*
X126904762Y-73857142D01*
X126952381Y-74000000D01*
X126952381Y-74238095D01*
X125952381Y-73333333D02*
X125952381Y-72714285D01*
X126333333Y-73047619D01*
X126333333Y-72904761D01*
X126380952Y-72809523D01*
X126428571Y-72761904D01*
X126523810Y-72714285D01*
X126761905Y-72714285D01*
X126857143Y-72761904D01*
X126904762Y-72809523D01*
X126952381Y-72904761D01*
X126952381Y-73190476D01*
X126904762Y-73285714D01*
X126857143Y-73333333D01*
X126952381Y-84238095D02*
X125952381Y-84238095D01*
X125952381Y-84000000D01*
X126000000Y-83857142D01*
X126095238Y-83761904D01*
X126190476Y-83714285D01*
X126380952Y-83666666D01*
X126523810Y-83666666D01*
X126714286Y-83714285D01*
X126809524Y-83761904D01*
X126904762Y-83857142D01*
X126952381Y-84000000D01*
X126952381Y-84238095D01*
X126285714Y-82809523D02*
X126952381Y-82809523D01*
X125904762Y-83047619D02*
X126619048Y-83285714D01*
X126619048Y-82666666D01*
X137511905Y-95202381D02*
X137511905Y-94202381D01*
X137750000Y-94202381D01*
X137892858Y-94250000D01*
X137988096Y-94345238D01*
X138035715Y-94440476D01*
X138083334Y-94630952D01*
X138083334Y-94773810D01*
X138035715Y-94964286D01*
X137988096Y-95059524D01*
X137892858Y-95154762D01*
X137750000Y-95202381D01*
X137511905Y-95202381D01*
X138988096Y-94202381D02*
X138511905Y-94202381D01*
X138464286Y-94678571D01*
X138511905Y-94630952D01*
X138607143Y-94583333D01*
X138845239Y-94583333D01*
X138940477Y-94630952D01*
X138988096Y-94678571D01*
X139035715Y-94773810D01*
X139035715Y-95011905D01*
X138988096Y-95107143D01*
X138940477Y-95154762D01*
X138845239Y-95202381D01*
X138607143Y-95202381D01*
X138511905Y-95154762D01*
X138464286Y-95107143D01*
X136511905Y-110202381D02*
X136511905Y-109202381D01*
X136750000Y-109202381D01*
X136892858Y-109250000D01*
X136988096Y-109345238D01*
X137035715Y-109440476D01*
X137083334Y-109630952D01*
X137083334Y-109773810D01*
X137035715Y-109964286D01*
X136988096Y-110059524D01*
X136892858Y-110154762D01*
X136750000Y-110202381D01*
X136511905Y-110202381D01*
X137940477Y-109202381D02*
X137750000Y-109202381D01*
X137654762Y-109250000D01*
X137607143Y-109297619D01*
X137511905Y-109440476D01*
X137464286Y-109630952D01*
X137464286Y-110011905D01*
X137511905Y-110107143D01*
X137559524Y-110154762D01*
X137654762Y-110202381D01*
X137845239Y-110202381D01*
X137940477Y-110154762D01*
X137988096Y-110107143D01*
X138035715Y-110011905D01*
X138035715Y-109773810D01*
X137988096Y-109678571D01*
X137940477Y-109630952D01*
X137845239Y-109583333D01*
X137654762Y-109583333D01*
X137559524Y-109630952D01*
X137511905Y-109678571D01*
X137464286Y-109773810D01*
X180252381Y-69933333D02*
X180966667Y-69933333D01*
X181109524Y-69980953D01*
X181204762Y-70076191D01*
X181252381Y-70219048D01*
X181252381Y-70314286D01*
X180347619Y-69504762D02*
X180300000Y-69457143D01*
X180252381Y-69361905D01*
X180252381Y-69123809D01*
X180300000Y-69028571D01*
X180347619Y-68980952D01*
X180442857Y-68933333D01*
X180538095Y-68933333D01*
X180680952Y-68980952D01*
X181252381Y-69552381D01*
X181252381Y-68933333D01*
X180002381Y-107933333D02*
X180716667Y-107933333D01*
X180859524Y-107980953D01*
X180954762Y-108076191D01*
X181002381Y-108219048D01*
X181002381Y-108314286D01*
X180002381Y-107552381D02*
X180002381Y-106933333D01*
X180383333Y-107266667D01*
X180383333Y-107123809D01*
X180430952Y-107028571D01*
X180478571Y-106980952D01*
X180573810Y-106933333D01*
X180811905Y-106933333D01*
X180907143Y-106980952D01*
X180954762Y-107028571D01*
X181002381Y-107123809D01*
X181002381Y-107409524D01*
X180954762Y-107504762D01*
X180907143Y-107552381D01*
X167952381Y-83833333D02*
X168666667Y-83833333D01*
X168809524Y-83880953D01*
X168904762Y-83976191D01*
X168952381Y-84119048D01*
X168952381Y-84214286D01*
X168952381Y-83357143D02*
X167952381Y-83357143D01*
X167952381Y-82976190D01*
X168000000Y-82880952D01*
X168047619Y-82833333D01*
X168142857Y-82785714D01*
X168285714Y-82785714D01*
X168380952Y-82833333D01*
X168428571Y-82880952D01*
X168476190Y-82976190D01*
X168476190Y-83357143D01*
X168952381Y-81833333D02*
X168952381Y-82404762D01*
X168952381Y-82119048D02*
X167952381Y-82119048D01*
X168095238Y-82214286D01*
X168190476Y-82309524D01*
X168238095Y-82404762D01*
X160667619Y-114885238D02*
X160620000Y-114980476D01*
X160524762Y-115075714D01*
X160381905Y-115218571D01*
X160334286Y-115313810D01*
X160334286Y-115409048D01*
X160572381Y-115361429D02*
X160524762Y-115456667D01*
X160429524Y-115551905D01*
X160239048Y-115599524D01*
X159905714Y-115599524D01*
X159715238Y-115551905D01*
X159620000Y-115456667D01*
X159572381Y-115361429D01*
X159572381Y-115170952D01*
X159620000Y-115075714D01*
X159715238Y-114980476D01*
X159905714Y-114932857D01*
X160239048Y-114932857D01*
X160429524Y-114980476D01*
X160524762Y-115075714D01*
X160572381Y-115170952D01*
X160572381Y-115361429D01*
X160572381Y-113980476D02*
X160572381Y-114551905D01*
X160572381Y-114266191D02*
X159572381Y-114266191D01*
X159715238Y-114361429D01*
X159810476Y-114456667D01*
X159858095Y-114551905D01*
X136333334Y-74452381D02*
X136000000Y-73976190D01*
X135761905Y-74452381D02*
X135761905Y-73452381D01*
X136142858Y-73452381D01*
X136238096Y-73500000D01*
X136285715Y-73547619D01*
X136333334Y-73642857D01*
X136333334Y-73785714D01*
X136285715Y-73880952D01*
X136238096Y-73928571D01*
X136142858Y-73976190D01*
X135761905Y-73976190D01*
X137285715Y-74452381D02*
X136714286Y-74452381D01*
X137000000Y-74452381D02*
X137000000Y-73452381D01*
X136904762Y-73595238D01*
X136809524Y-73690476D01*
X136714286Y-73738095D01*
X136333334Y-83452381D02*
X136000000Y-82976190D01*
X135761905Y-83452381D02*
X135761905Y-82452381D01*
X136142858Y-82452381D01*
X136238096Y-82500000D01*
X136285715Y-82547619D01*
X136333334Y-82642857D01*
X136333334Y-82785714D01*
X136285715Y-82880952D01*
X136238096Y-82928571D01*
X136142858Y-82976190D01*
X135761905Y-82976190D01*
X136714286Y-82547619D02*
X136761905Y-82500000D01*
X136857143Y-82452381D01*
X137095239Y-82452381D01*
X137190477Y-82500000D01*
X137238096Y-82547619D01*
X137285715Y-82642857D01*
X137285715Y-82738095D01*
X137238096Y-82880952D01*
X136666667Y-83452381D01*
X137285715Y-83452381D01*
X139833334Y-98952381D02*
X139500000Y-98476190D01*
X139261905Y-98952381D02*
X139261905Y-97952381D01*
X139642858Y-97952381D01*
X139738096Y-98000000D01*
X139785715Y-98047619D01*
X139833334Y-98142857D01*
X139833334Y-98285714D01*
X139785715Y-98380952D01*
X139738096Y-98428571D01*
X139642858Y-98476190D01*
X139261905Y-98476190D01*
X140166667Y-97952381D02*
X140785715Y-97952381D01*
X140452381Y-98333333D01*
X140595239Y-98333333D01*
X140690477Y-98380952D01*
X140738096Y-98428571D01*
X140785715Y-98523810D01*
X140785715Y-98761905D01*
X140738096Y-98857143D01*
X140690477Y-98904762D01*
X140595239Y-98952381D01*
X140309524Y-98952381D01*
X140214286Y-98904762D01*
X140166667Y-98857143D01*
X140333334Y-114452381D02*
X140000000Y-113976190D01*
X139761905Y-114452381D02*
X139761905Y-113452381D01*
X140142858Y-113452381D01*
X140238096Y-113500000D01*
X140285715Y-113547619D01*
X140333334Y-113642857D01*
X140333334Y-113785714D01*
X140285715Y-113880952D01*
X140238096Y-113928571D01*
X140142858Y-113976190D01*
X139761905Y-113976190D01*
X141190477Y-113785714D02*
X141190477Y-114452381D01*
X140952381Y-113404762D02*
X140714286Y-114119048D01*
X141333334Y-114119048D01*
X155738095Y-82952381D02*
X155738095Y-83761905D01*
X155785714Y-83857143D01*
X155833333Y-83904762D01*
X155928571Y-83952381D01*
X156119048Y-83952381D01*
X156214286Y-83904762D01*
X156261905Y-83857143D01*
X156309524Y-83761905D01*
X156309524Y-82952381D01*
X157309524Y-83952381D02*
X156738095Y-83952381D01*
X157023809Y-83952381D02*
X157023809Y-82952381D01*
X156928571Y-83095238D01*
X156833333Y-83190476D01*
X156738095Y-83238095D01*
X137357143Y-91857143D02*
X137309524Y-91904762D01*
X137166667Y-91952381D01*
X137071429Y-91952381D01*
X136928571Y-91904762D01*
X136833333Y-91809524D01*
X136785714Y-91714286D01*
X136738095Y-91523810D01*
X136738095Y-91380952D01*
X136785714Y-91190476D01*
X136833333Y-91095238D01*
X136928571Y-91000000D01*
X137071429Y-90952381D01*
X137166667Y-90952381D01*
X137309524Y-91000000D01*
X137357143Y-91047619D01*
X138309524Y-91952381D02*
X137738095Y-91952381D01*
X138023809Y-91952381D02*
X138023809Y-90952381D01*
X137928571Y-91095238D01*
X137833333Y-91190476D01*
X137738095Y-91238095D01*
X138928571Y-90952381D02*
X139023810Y-90952381D01*
X139119048Y-91000000D01*
X139166667Y-91047619D01*
X139214286Y-91142857D01*
X139261905Y-91333333D01*
X139261905Y-91571429D01*
X139214286Y-91761905D01*
X139166667Y-91857143D01*
X139119048Y-91904762D01*
X139023810Y-91952381D01*
X138928571Y-91952381D01*
X138833333Y-91904762D01*
X138785714Y-91857143D01*
X138738095Y-91761905D01*
X138690476Y-91571429D01*
X138690476Y-91333333D01*
X138738095Y-91142857D01*
X138785714Y-91047619D01*
X138833333Y-91000000D01*
X138928571Y-90952381D01*
X142833334Y-102952381D02*
X142500000Y-102476190D01*
X142261905Y-102952381D02*
X142261905Y-101952381D01*
X142642858Y-101952381D01*
X142738096Y-102000000D01*
X142785715Y-102047619D01*
X142833334Y-102142857D01*
X142833334Y-102285714D01*
X142785715Y-102380952D01*
X142738096Y-102428571D01*
X142642858Y-102476190D01*
X142261905Y-102476190D01*
X143738096Y-101952381D02*
X143261905Y-101952381D01*
X143214286Y-102428571D01*
X143261905Y-102380952D01*
X143357143Y-102333333D01*
X143595239Y-102333333D01*
X143690477Y-102380952D01*
X143738096Y-102428571D01*
X143785715Y-102523810D01*
X143785715Y-102761905D01*
X143738096Y-102857143D01*
X143690477Y-102904762D01*
X143595239Y-102952381D01*
X143357143Y-102952381D01*
X143261905Y-102904762D01*
X143214286Y-102857143D01*
X142833334Y-118952381D02*
X142500000Y-118476190D01*
X142261905Y-118952381D02*
X142261905Y-117952381D01*
X142642858Y-117952381D01*
X142738096Y-118000000D01*
X142785715Y-118047619D01*
X142833334Y-118142857D01*
X142833334Y-118285714D01*
X142785715Y-118380952D01*
X142738096Y-118428571D01*
X142642858Y-118476190D01*
X142261905Y-118476190D01*
X143690477Y-117952381D02*
X143500000Y-117952381D01*
X143404762Y-118000000D01*
X143357143Y-118047619D01*
X143261905Y-118190476D01*
X143214286Y-118380952D01*
X143214286Y-118761905D01*
X143261905Y-118857143D01*
X143309524Y-118904762D01*
X143404762Y-118952381D01*
X143595239Y-118952381D01*
X143690477Y-118904762D01*
X143738096Y-118857143D01*
X143785715Y-118761905D01*
X143785715Y-118523810D01*
X143738096Y-118428571D01*
X143690477Y-118380952D01*
X143595239Y-118333333D01*
X143404762Y-118333333D01*
X143309524Y-118380952D01*
X143261905Y-118428571D01*
X143214286Y-118523810D01*
X145857143Y-108642857D02*
X145904762Y-108690476D01*
X145952381Y-108833333D01*
X145952381Y-108928571D01*
X145904762Y-109071429D01*
X145809524Y-109166667D01*
X145714286Y-109214286D01*
X145523810Y-109261905D01*
X145380952Y-109261905D01*
X145190476Y-109214286D01*
X145095238Y-109166667D01*
X145000000Y-109071429D01*
X144952381Y-108928571D01*
X144952381Y-108833333D01*
X145000000Y-108690476D01*
X145047619Y-108642857D01*
X145952381Y-107690476D02*
X145952381Y-108261905D01*
X145952381Y-107976191D02*
X144952381Y-107976191D01*
X145095238Y-108071429D01*
X145190476Y-108166667D01*
X145238095Y-108261905D01*
X145952381Y-106738095D02*
X145952381Y-107309524D01*
X145952381Y-107023810D02*
X144952381Y-107023810D01*
X145095238Y-107119048D01*
X145190476Y-107214286D01*
X145238095Y-107309524D01*
X146357143Y-92642857D02*
X146404762Y-92690476D01*
X146452381Y-92833333D01*
X146452381Y-92928571D01*
X146404762Y-93071429D01*
X146309524Y-93166667D01*
X146214286Y-93214286D01*
X146023810Y-93261905D01*
X145880952Y-93261905D01*
X145690476Y-93214286D01*
X145595238Y-93166667D01*
X145500000Y-93071429D01*
X145452381Y-92928571D01*
X145452381Y-92833333D01*
X145500000Y-92690476D01*
X145547619Y-92642857D01*
X146452381Y-91690476D02*
X146452381Y-92261905D01*
X146452381Y-91976191D02*
X145452381Y-91976191D01*
X145595238Y-92071429D01*
X145690476Y-92166667D01*
X145738095Y-92261905D01*
X145547619Y-91309524D02*
X145500000Y-91261905D01*
X145452381Y-91166667D01*
X145452381Y-90928571D01*
X145500000Y-90833333D01*
X145547619Y-90785714D01*
X145642857Y-90738095D01*
X145738095Y-90738095D01*
X145880952Y-90785714D01*
X146452381Y-91357143D01*
X146452381Y-90738095D01*
X160417619Y-98135238D02*
X160370000Y-98230476D01*
X160274762Y-98325714D01*
X160131905Y-98468571D01*
X160084286Y-98563810D01*
X160084286Y-98659048D01*
X160322381Y-98611429D02*
X160274762Y-98706667D01*
X160179524Y-98801905D01*
X159989048Y-98849524D01*
X159655714Y-98849524D01*
X159465238Y-98801905D01*
X159370000Y-98706667D01*
X159322381Y-98611429D01*
X159322381Y-98420952D01*
X159370000Y-98325714D01*
X159465238Y-98230476D01*
X159655714Y-98182857D01*
X159989048Y-98182857D01*
X160179524Y-98230476D01*
X160274762Y-98325714D01*
X160322381Y-98420952D01*
X160322381Y-98611429D01*
X159417619Y-97801905D02*
X159370000Y-97754286D01*
X159322381Y-97659048D01*
X159322381Y-97420952D01*
X159370000Y-97325714D01*
X159417619Y-97278095D01*
X159512857Y-97230476D01*
X159608095Y-97230476D01*
X159750952Y-97278095D01*
X160322381Y-97849524D01*
X160322381Y-97230476D01*
X143857143Y-130142857D02*
X143904762Y-130190476D01*
X143952381Y-130333333D01*
X143952381Y-130428571D01*
X143904762Y-130571429D01*
X143809524Y-130666667D01*
X143714286Y-130714286D01*
X143523810Y-130761905D01*
X143380952Y-130761905D01*
X143190476Y-130714286D01*
X143095238Y-130666667D01*
X143000000Y-130571429D01*
X142952381Y-130428571D01*
X142952381Y-130333333D01*
X143000000Y-130190476D01*
X143047619Y-130142857D01*
X143952381Y-129190476D02*
X143952381Y-129761905D01*
X143952381Y-129476191D02*
X142952381Y-129476191D01*
X143095238Y-129571429D01*
X143190476Y-129666667D01*
X143238095Y-129761905D01*
X142952381Y-128857143D02*
X142952381Y-128238095D01*
X143333333Y-128571429D01*
X143333333Y-128428571D01*
X143380952Y-128333333D01*
X143428571Y-128285714D01*
X143523810Y-128238095D01*
X143761905Y-128238095D01*
X143857143Y-128285714D01*
X143904762Y-128333333D01*
X143952381Y-128428571D01*
X143952381Y-128714286D01*
X143904762Y-128809524D01*
X143857143Y-128857143D01*
X143857143Y-137642857D02*
X143904762Y-137690476D01*
X143952381Y-137833333D01*
X143952381Y-137928571D01*
X143904762Y-138071429D01*
X143809524Y-138166667D01*
X143714286Y-138214286D01*
X143523810Y-138261905D01*
X143380952Y-138261905D01*
X143190476Y-138214286D01*
X143095238Y-138166667D01*
X143000000Y-138071429D01*
X142952381Y-137928571D01*
X142952381Y-137833333D01*
X143000000Y-137690476D01*
X143047619Y-137642857D01*
X143952381Y-136690476D02*
X143952381Y-137261905D01*
X143952381Y-136976191D02*
X142952381Y-136976191D01*
X143095238Y-137071429D01*
X143190476Y-137166667D01*
X143238095Y-137261905D01*
X143285714Y-135833333D02*
X143952381Y-135833333D01*
X142904762Y-136071429D02*
X143619048Y-136309524D01*
X143619048Y-135690476D01*
X137357143Y-133857143D02*
X137309524Y-133904762D01*
X137166667Y-133952381D01*
X137071429Y-133952381D01*
X136928571Y-133904762D01*
X136833333Y-133809524D01*
X136785714Y-133714286D01*
X136738095Y-133523810D01*
X136738095Y-133380952D01*
X136785714Y-133190476D01*
X136833333Y-133095238D01*
X136928571Y-133000000D01*
X137071429Y-132952381D01*
X137166667Y-132952381D01*
X137309524Y-133000000D01*
X137357143Y-133047619D01*
X138309524Y-133952381D02*
X137738095Y-133952381D01*
X138023809Y-133952381D02*
X138023809Y-132952381D01*
X137928571Y-133095238D01*
X137833333Y-133190476D01*
X137738095Y-133238095D01*
X139214286Y-132952381D02*
X138738095Y-132952381D01*
X138690476Y-133428571D01*
X138738095Y-133380952D01*
X138833333Y-133333333D01*
X139071429Y-133333333D01*
X139166667Y-133380952D01*
X139214286Y-133428571D01*
X139261905Y-133523810D01*
X139261905Y-133761905D01*
X139214286Y-133857143D01*
X139166667Y-133904762D01*
X139071429Y-133952381D01*
X138833333Y-133952381D01*
X138738095Y-133904762D01*
X138690476Y-133857143D01*
X147357143Y-142357143D02*
X147309524Y-142404762D01*
X147166667Y-142452381D01*
X147071429Y-142452381D01*
X146928571Y-142404762D01*
X146833333Y-142309524D01*
X146785714Y-142214286D01*
X146738095Y-142023810D01*
X146738095Y-141880952D01*
X146785714Y-141690476D01*
X146833333Y-141595238D01*
X146928571Y-141500000D01*
X147071429Y-141452381D01*
X147166667Y-141452381D01*
X147309524Y-141500000D01*
X147357143Y-141547619D01*
X148309524Y-142452381D02*
X147738095Y-142452381D01*
X148023809Y-142452381D02*
X148023809Y-141452381D01*
X147928571Y-141595238D01*
X147833333Y-141690476D01*
X147738095Y-141738095D01*
X149166667Y-141452381D02*
X148976190Y-141452381D01*
X148880952Y-141500000D01*
X148833333Y-141547619D01*
X148738095Y-141690476D01*
X148690476Y-141880952D01*
X148690476Y-142261905D01*
X148738095Y-142357143D01*
X148785714Y-142404762D01*
X148880952Y-142452381D01*
X149071429Y-142452381D01*
X149166667Y-142404762D01*
X149214286Y-142357143D01*
X149261905Y-142261905D01*
X149261905Y-142023810D01*
X149214286Y-141928571D01*
X149166667Y-141880952D01*
X149071429Y-141833333D01*
X148880952Y-141833333D01*
X148785714Y-141880952D01*
X148738095Y-141928571D01*
X148690476Y-142023810D01*
X156857143Y-129357143D02*
X156809524Y-129404762D01*
X156666667Y-129452381D01*
X156571429Y-129452381D01*
X156428571Y-129404762D01*
X156333333Y-129309524D01*
X156285714Y-129214286D01*
X156238095Y-129023810D01*
X156238095Y-128880952D01*
X156285714Y-128690476D01*
X156333333Y-128595238D01*
X156428571Y-128500000D01*
X156571429Y-128452381D01*
X156666667Y-128452381D01*
X156809524Y-128500000D01*
X156857143Y-128547619D01*
X157809524Y-129452381D02*
X157238095Y-129452381D01*
X157523809Y-129452381D02*
X157523809Y-128452381D01*
X157428571Y-128595238D01*
X157333333Y-128690476D01*
X157238095Y-128738095D01*
X158142857Y-128452381D02*
X158809524Y-128452381D01*
X158380952Y-129452381D01*
X165857143Y-134357143D02*
X165809524Y-134404762D01*
X165666667Y-134452381D01*
X165571429Y-134452381D01*
X165428571Y-134404762D01*
X165333333Y-134309524D01*
X165285714Y-134214286D01*
X165238095Y-134023810D01*
X165238095Y-133880952D01*
X165285714Y-133690476D01*
X165333333Y-133595238D01*
X165428571Y-133500000D01*
X165571429Y-133452381D01*
X165666667Y-133452381D01*
X165809524Y-133500000D01*
X165857143Y-133547619D01*
X166809524Y-134452381D02*
X166238095Y-134452381D01*
X166523809Y-134452381D02*
X166523809Y-133452381D01*
X166428571Y-133595238D01*
X166333333Y-133690476D01*
X166238095Y-133738095D01*
X167380952Y-133880952D02*
X167285714Y-133833333D01*
X167238095Y-133785714D01*
X167190476Y-133690476D01*
X167190476Y-133642857D01*
X167238095Y-133547619D01*
X167285714Y-133500000D01*
X167380952Y-133452381D01*
X167571429Y-133452381D01*
X167666667Y-133500000D01*
X167714286Y-133547619D01*
X167761905Y-133642857D01*
X167761905Y-133690476D01*
X167714286Y-133785714D01*
X167666667Y-133833333D01*
X167571429Y-133880952D01*
X167380952Y-133880952D01*
X167285714Y-133928571D01*
X167238095Y-133976190D01*
X167190476Y-134071429D01*
X167190476Y-134261905D01*
X167238095Y-134357143D01*
X167285714Y-134404762D01*
X167380952Y-134452381D01*
X167571429Y-134452381D01*
X167666667Y-134404762D01*
X167714286Y-134357143D01*
X167761905Y-134261905D01*
X167761905Y-134071429D01*
X167714286Y-133976190D01*
X167666667Y-133928571D01*
X167571429Y-133880952D01*
X126952381Y-129238095D02*
X125952381Y-129238095D01*
X125952381Y-129000000D01*
X126000000Y-128857142D01*
X126095238Y-128761904D01*
X126190476Y-128714285D01*
X126380952Y-128666666D01*
X126523810Y-128666666D01*
X126714286Y-128714285D01*
X126809524Y-128761904D01*
X126904762Y-128857142D01*
X126952381Y-129000000D01*
X126952381Y-129238095D01*
X125952381Y-128333333D02*
X125952381Y-127666666D01*
X126952381Y-128095238D01*
X126952381Y-139238095D02*
X125952381Y-139238095D01*
X125952381Y-139000000D01*
X126000000Y-138857142D01*
X126095238Y-138761904D01*
X126190476Y-138714285D01*
X126380952Y-138666666D01*
X126523810Y-138666666D01*
X126714286Y-138714285D01*
X126809524Y-138761904D01*
X126904762Y-138857142D01*
X126952381Y-139000000D01*
X126952381Y-139238095D01*
X126380952Y-138095238D02*
X126333333Y-138190476D01*
X126285714Y-138238095D01*
X126190476Y-138285714D01*
X126142857Y-138285714D01*
X126047619Y-138238095D01*
X126000000Y-138190476D01*
X125952381Y-138095238D01*
X125952381Y-137904761D01*
X126000000Y-137809523D01*
X126047619Y-137761904D01*
X126142857Y-137714285D01*
X126190476Y-137714285D01*
X126285714Y-137761904D01*
X126333333Y-137809523D01*
X126380952Y-137904761D01*
X126380952Y-138095238D01*
X126428571Y-138190476D01*
X126476190Y-138238095D01*
X126571429Y-138285714D01*
X126761905Y-138285714D01*
X126857143Y-138238095D01*
X126904762Y-138190476D01*
X126952381Y-138095238D01*
X126952381Y-137904761D01*
X126904762Y-137809523D01*
X126857143Y-137761904D01*
X126761905Y-137714285D01*
X126571429Y-137714285D01*
X126476190Y-137761904D01*
X126428571Y-137809523D01*
X126380952Y-137904761D01*
X130452381Y-129238095D02*
X129452381Y-129238095D01*
X129452381Y-129000000D01*
X129500000Y-128857142D01*
X129595238Y-128761904D01*
X129690476Y-128714285D01*
X129880952Y-128666666D01*
X130023810Y-128666666D01*
X130214286Y-128714285D01*
X130309524Y-128761904D01*
X130404762Y-128857142D01*
X130452381Y-129000000D01*
X130452381Y-129238095D01*
X130452381Y-128190476D02*
X130452381Y-128000000D01*
X130404762Y-127904761D01*
X130357143Y-127857142D01*
X130214286Y-127761904D01*
X130023810Y-127714285D01*
X129642857Y-127714285D01*
X129547619Y-127761904D01*
X129500000Y-127809523D01*
X129452381Y-127904761D01*
X129452381Y-128095238D01*
X129500000Y-128190476D01*
X129547619Y-128238095D01*
X129642857Y-128285714D01*
X129880952Y-128285714D01*
X129976190Y-128238095D01*
X130023810Y-128190476D01*
X130071429Y-128095238D01*
X130071429Y-127904761D01*
X130023810Y-127809523D01*
X129976190Y-127761904D01*
X129880952Y-127714285D01*
X130452381Y-139714286D02*
X129452381Y-139714286D01*
X129452381Y-139476191D01*
X129500000Y-139333333D01*
X129595238Y-139238095D01*
X129690476Y-139190476D01*
X129880952Y-139142857D01*
X130023810Y-139142857D01*
X130214286Y-139190476D01*
X130309524Y-139238095D01*
X130404762Y-139333333D01*
X130452381Y-139476191D01*
X130452381Y-139714286D01*
X130452381Y-138190476D02*
X130452381Y-138761905D01*
X130452381Y-138476191D02*
X129452381Y-138476191D01*
X129595238Y-138571429D01*
X129690476Y-138666667D01*
X129738095Y-138761905D01*
X129452381Y-137571429D02*
X129452381Y-137476190D01*
X129500000Y-137380952D01*
X129547619Y-137333333D01*
X129642857Y-137285714D01*
X129833333Y-137238095D01*
X130071429Y-137238095D01*
X130261905Y-137285714D01*
X130357143Y-137333333D01*
X130404762Y-137380952D01*
X130452381Y-137476190D01*
X130452381Y-137571429D01*
X130404762Y-137666667D01*
X130357143Y-137714286D01*
X130261905Y-137761905D01*
X130071429Y-137809524D01*
X129833333Y-137809524D01*
X129642857Y-137761905D01*
X129547619Y-137714286D01*
X129500000Y-137666667D01*
X129452381Y-137571429D01*
X180252381Y-130183333D02*
X180966667Y-130183333D01*
X181109524Y-130230953D01*
X181204762Y-130326191D01*
X181252381Y-130469048D01*
X181252381Y-130564286D01*
X180252381Y-129230952D02*
X180252381Y-129707143D01*
X180728571Y-129754762D01*
X180680952Y-129707143D01*
X180633333Y-129611905D01*
X180633333Y-129373809D01*
X180680952Y-129278571D01*
X180728571Y-129230952D01*
X180823810Y-129183333D01*
X181061905Y-129183333D01*
X181157143Y-129230952D01*
X181204762Y-129278571D01*
X181252381Y-129373809D01*
X181252381Y-129611905D01*
X181204762Y-129707143D01*
X181157143Y-129754762D01*
X167452381Y-140333333D02*
X168166667Y-140333333D01*
X168309524Y-140380953D01*
X168404762Y-140476191D01*
X168452381Y-140619048D01*
X168452381Y-140714286D01*
X168452381Y-139857143D02*
X167452381Y-139857143D01*
X167452381Y-139476190D01*
X167500000Y-139380952D01*
X167547619Y-139333333D01*
X167642857Y-139285714D01*
X167785714Y-139285714D01*
X167880952Y-139333333D01*
X167928571Y-139380952D01*
X167976190Y-139476190D01*
X167976190Y-139857143D01*
X167547619Y-138904762D02*
X167500000Y-138857143D01*
X167452381Y-138761905D01*
X167452381Y-138523809D01*
X167500000Y-138428571D01*
X167547619Y-138380952D01*
X167642857Y-138333333D01*
X167738095Y-138333333D01*
X167880952Y-138380952D01*
X168452381Y-138952381D01*
X168452381Y-138333333D01*
X136333334Y-129452381D02*
X136000000Y-128976190D01*
X135761905Y-129452381D02*
X135761905Y-128452381D01*
X136142858Y-128452381D01*
X136238096Y-128500000D01*
X136285715Y-128547619D01*
X136333334Y-128642857D01*
X136333334Y-128785714D01*
X136285715Y-128880952D01*
X136238096Y-128928571D01*
X136142858Y-128976190D01*
X135761905Y-128976190D01*
X136666667Y-128452381D02*
X137333334Y-128452381D01*
X136904762Y-129452381D01*
X136333334Y-138452381D02*
X136000000Y-137976190D01*
X135761905Y-138452381D02*
X135761905Y-137452381D01*
X136142858Y-137452381D01*
X136238096Y-137500000D01*
X136285715Y-137547619D01*
X136333334Y-137642857D01*
X136333334Y-137785714D01*
X136285715Y-137880952D01*
X136238096Y-137928571D01*
X136142858Y-137976190D01*
X135761905Y-137976190D01*
X136904762Y-137880952D02*
X136809524Y-137833333D01*
X136761905Y-137785714D01*
X136714286Y-137690476D01*
X136714286Y-137642857D01*
X136761905Y-137547619D01*
X136809524Y-137500000D01*
X136904762Y-137452381D01*
X137095239Y-137452381D01*
X137190477Y-137500000D01*
X137238096Y-137547619D01*
X137285715Y-137642857D01*
X137285715Y-137690476D01*
X137238096Y-137785714D01*
X137190477Y-137833333D01*
X137095239Y-137880952D01*
X136904762Y-137880952D01*
X136809524Y-137928571D01*
X136761905Y-137976190D01*
X136714286Y-138071429D01*
X136714286Y-138261905D01*
X136761905Y-138357143D01*
X136809524Y-138404762D01*
X136904762Y-138452381D01*
X137095239Y-138452381D01*
X137190477Y-138404762D01*
X137238096Y-138357143D01*
X137285715Y-138261905D01*
X137285715Y-138071429D01*
X137238096Y-137976190D01*
X137190477Y-137928571D01*
X137095239Y-137880952D01*
X156238095Y-139952381D02*
X156238095Y-140761905D01*
X156285714Y-140857143D01*
X156333333Y-140904762D01*
X156428571Y-140952381D01*
X156619048Y-140952381D01*
X156714286Y-140904762D01*
X156761905Y-140857143D01*
X156809524Y-140761905D01*
X156809524Y-139952381D01*
X157238095Y-140047619D02*
X157285714Y-140000000D01*
X157380952Y-139952381D01*
X157619048Y-139952381D01*
X157714286Y-140000000D01*
X157761905Y-140047619D01*
X157809524Y-140142857D01*
X157809524Y-140238095D01*
X157761905Y-140380952D01*
X157190476Y-140952381D01*
X157809524Y-140952381D01*
X104666667Y-58404381D02*
X104666667Y-59118667D01*
X104619047Y-59261524D01*
X104523809Y-59356762D01*
X104380952Y-59404381D01*
X104285714Y-59404381D01*
X105571429Y-58404381D02*
X105380952Y-58404381D01*
X105285714Y-58452000D01*
X105238095Y-58499619D01*
X105142857Y-58642476D01*
X105095238Y-58832952D01*
X105095238Y-59213905D01*
X105142857Y-59309143D01*
X105190476Y-59356762D01*
X105285714Y-59404381D01*
X105476191Y-59404381D01*
X105571429Y-59356762D01*
X105619048Y-59309143D01*
X105666667Y-59213905D01*
X105666667Y-58975810D01*
X105619048Y-58880571D01*
X105571429Y-58832952D01*
X105476191Y-58785333D01*
X105285714Y-58785333D01*
X105190476Y-58832952D01*
X105142857Y-58880571D01*
X105095238Y-58975810D01*
X183666667Y-58404381D02*
X183666667Y-59118667D01*
X183619047Y-59261524D01*
X183523809Y-59356762D01*
X183380952Y-59404381D01*
X183285714Y-59404381D01*
X184047619Y-58404381D02*
X184714286Y-58404381D01*
X184285714Y-59404381D01*
X104666667Y-145404381D02*
X104666667Y-146118667D01*
X104619047Y-146261524D01*
X104523809Y-146356762D01*
X104380952Y-146404381D01*
X104285714Y-146404381D01*
X105285714Y-145832952D02*
X105190476Y-145785333D01*
X105142857Y-145737714D01*
X105095238Y-145642476D01*
X105095238Y-145594857D01*
X105142857Y-145499619D01*
X105190476Y-145452000D01*
X105285714Y-145404381D01*
X105476191Y-145404381D01*
X105571429Y-145452000D01*
X105619048Y-145499619D01*
X105666667Y-145594857D01*
X105666667Y-145642476D01*
X105619048Y-145737714D01*
X105571429Y-145785333D01*
X105476191Y-145832952D01*
X105285714Y-145832952D01*
X105190476Y-145880571D01*
X105142857Y-145928190D01*
X105095238Y-146023429D01*
X105095238Y-146213905D01*
X105142857Y-146309143D01*
X105190476Y-146356762D01*
X105285714Y-146404381D01*
X105476191Y-146404381D01*
X105571429Y-146356762D01*
X105619048Y-146309143D01*
X105666667Y-146213905D01*
X105666667Y-146023429D01*
X105619048Y-145928190D01*
X105571429Y-145880571D01*
X105476191Y-145832952D01*
X183666667Y-145404381D02*
X183666667Y-146118667D01*
X183619047Y-146261524D01*
X183523809Y-146356762D01*
X183380952Y-146404381D01*
X183285714Y-146404381D01*
X184190476Y-146404381D02*
X184380952Y-146404381D01*
X184476191Y-146356762D01*
X184523810Y-146309143D01*
X184619048Y-146166286D01*
X184666667Y-145975810D01*
X184666667Y-145594857D01*
X184619048Y-145499619D01*
X184571429Y-145452000D01*
X184476191Y-145404381D01*
X184285714Y-145404381D01*
X184190476Y-145452000D01*
X184142857Y-145499619D01*
X184095238Y-145594857D01*
X184095238Y-145832952D01*
X184142857Y-145928190D01*
X184190476Y-145975810D01*
X184285714Y-146023429D01*
X184476191Y-146023429D01*
X184571429Y-145975810D01*
X184619048Y-145928190D01*
X184666667Y-145832952D01*
X175190477Y-83452381D02*
X175190477Y-84166667D01*
X175142857Y-84309524D01*
X175047619Y-84404762D01*
X174904762Y-84452381D01*
X174809524Y-84452381D01*
X176190477Y-84452381D02*
X175619048Y-84452381D01*
X175904762Y-84452381D02*
X175904762Y-83452381D01*
X175809524Y-83595238D01*
X175714286Y-83690476D01*
X175619048Y-83738095D01*
X176809524Y-83452381D02*
X176904763Y-83452381D01*
X177000001Y-83500000D01*
X177047620Y-83547619D01*
X177095239Y-83642857D01*
X177142858Y-83833333D01*
X177142858Y-84071429D01*
X177095239Y-84261905D01*
X177047620Y-84357143D01*
X177000001Y-84404762D01*
X176904763Y-84452381D01*
X176809524Y-84452381D01*
X176714286Y-84404762D01*
X176666667Y-84357143D01*
X176619048Y-84261905D01*
X176571429Y-84071429D01*
X176571429Y-83833333D01*
X176619048Y-83642857D01*
X176666667Y-83547619D01*
X176714286Y-83500000D01*
X176809524Y-83452381D01*
X174440477Y-141952381D02*
X174440477Y-142666667D01*
X174392857Y-142809524D01*
X174297619Y-142904762D01*
X174154762Y-142952381D01*
X174059524Y-142952381D01*
X175440477Y-142952381D02*
X174869048Y-142952381D01*
X175154762Y-142952381D02*
X175154762Y-141952381D01*
X175059524Y-142095238D01*
X174964286Y-142190476D01*
X174869048Y-142238095D01*
X176392858Y-142952381D02*
X175821429Y-142952381D01*
X176107143Y-142952381D02*
X176107143Y-141952381D01*
X176011905Y-142095238D01*
X175916667Y-142190476D01*
X175821429Y-142238095D01*
X110166667Y-76952381D02*
X110166667Y-77666667D01*
X110119047Y-77809524D01*
X110023809Y-77904762D01*
X109880952Y-77952381D01*
X109785714Y-77952381D01*
X111166667Y-77952381D02*
X110595238Y-77952381D01*
X110880952Y-77952381D02*
X110880952Y-76952381D01*
X110785714Y-77095238D01*
X110690476Y-77190476D01*
X110595238Y-77238095D01*
X110166667Y-131952381D02*
X110166667Y-132666667D01*
X110119047Y-132809524D01*
X110023809Y-132904762D01*
X109880952Y-132952381D01*
X109785714Y-132952381D01*
X111071429Y-132285714D02*
X111071429Y-132952381D01*
X110833333Y-131904762D02*
X110595238Y-132619048D01*
X111214286Y-132619048D01*
M02*
