G04 #@! TF.FileFunction,Legend,Top*
%FSLAX46Y46*%
G04 Gerber Fmt 4.6, Leading zero omitted, Abs format (unit mm)*
G04 Created by KiCad (PCBNEW 4.0.7) date 10/19/20 22:11:13*
%MOMM*%
%LPD*%
G01*
G04 APERTURE LIST*
%ADD10C,0.100000*%
%ADD11C,0.300000*%
%ADD12C,0.250000*%
%ADD13C,0.150000*%
%ADD14C,0.120000*%
%ADD15C,0.200000*%
G04 APERTURE END LIST*
D10*
D11*
X107607143Y-112750000D02*
X107464286Y-112678571D01*
X107250000Y-112678571D01*
X107035715Y-112750000D01*
X106892857Y-112892857D01*
X106821429Y-113035714D01*
X106750000Y-113321429D01*
X106750000Y-113535714D01*
X106821429Y-113821429D01*
X106892857Y-113964286D01*
X107035715Y-114107143D01*
X107250000Y-114178571D01*
X107392857Y-114178571D01*
X107607143Y-114107143D01*
X107678572Y-114035714D01*
X107678572Y-113535714D01*
X107392857Y-113535714D01*
X108321429Y-114178571D02*
X108321429Y-112678571D01*
X109178572Y-114178571D01*
X109178572Y-112678571D01*
X109892858Y-114178571D02*
X109892858Y-112678571D01*
X110250001Y-112678571D01*
X110464286Y-112750000D01*
X110607144Y-112892857D01*
X110678572Y-113035714D01*
X110750001Y-113321429D01*
X110750001Y-113535714D01*
X110678572Y-113821429D01*
X110607144Y-113964286D01*
X110464286Y-114107143D01*
X110250001Y-114178571D01*
X109892858Y-114178571D01*
X107107143Y-98750000D02*
X106964286Y-98678571D01*
X106750000Y-98678571D01*
X106535715Y-98750000D01*
X106392857Y-98892857D01*
X106321429Y-99035714D01*
X106250000Y-99321429D01*
X106250000Y-99535714D01*
X106321429Y-99821429D01*
X106392857Y-99964286D01*
X106535715Y-100107143D01*
X106750000Y-100178571D01*
X106892857Y-100178571D01*
X107107143Y-100107143D01*
X107178572Y-100035714D01*
X107178572Y-99535714D01*
X106892857Y-99535714D01*
X107821429Y-100178571D02*
X107821429Y-98678571D01*
X108678572Y-100178571D01*
X108678572Y-98678571D01*
X109392858Y-100178571D02*
X109392858Y-98678571D01*
X109750001Y-98678571D01*
X109964286Y-98750000D01*
X110107144Y-98892857D01*
X110178572Y-99035714D01*
X110250001Y-99321429D01*
X110250001Y-99535714D01*
X110178572Y-99821429D01*
X110107144Y-99964286D01*
X109964286Y-100107143D01*
X109750001Y-100178571D01*
X109392858Y-100178571D01*
X157178571Y-111071428D02*
X157178571Y-111928571D01*
X157178571Y-111499999D02*
X155678571Y-111499999D01*
X155892857Y-111642856D01*
X156035714Y-111785714D01*
X156107143Y-111928571D01*
X157678571Y-92071428D02*
X157678571Y-92928571D01*
X157678571Y-92499999D02*
X156178571Y-92499999D01*
X156392857Y-92642856D01*
X156535714Y-92785714D01*
X156607143Y-92928571D01*
D12*
X118561905Y-89466667D02*
X117261905Y-90333334D01*
X118561905Y-90333334D02*
X117261905Y-89466667D01*
X117261905Y-91447619D02*
X117261905Y-90828572D01*
X118561905Y-90828572D01*
X117261905Y-92623810D02*
X117880952Y-92190477D01*
X117261905Y-91880953D02*
X118561905Y-91880953D01*
X118561905Y-92376191D01*
X118500000Y-92500000D01*
X118438095Y-92561905D01*
X118314286Y-92623810D01*
X118128571Y-92623810D01*
X118004762Y-92561905D01*
X117942857Y-92500000D01*
X117880952Y-92376191D01*
X117880952Y-91880953D01*
X118561905Y-93985715D02*
X118561905Y-94728572D01*
X117261905Y-94357143D02*
X118561905Y-94357143D01*
X118561905Y-95409524D02*
X118561905Y-95657143D01*
X118500000Y-95780952D01*
X118376190Y-95904762D01*
X118128571Y-95966667D01*
X117695238Y-95966667D01*
X117447619Y-95904762D01*
X117323810Y-95780952D01*
X117261905Y-95657143D01*
X117261905Y-95409524D01*
X117323810Y-95285714D01*
X117447619Y-95161905D01*
X117695238Y-95100000D01*
X118128571Y-95100000D01*
X118376190Y-95161905D01*
X118500000Y-95285714D01*
X118561905Y-95409524D01*
X118561905Y-97514286D02*
X117509524Y-97514286D01*
X117385714Y-97576191D01*
X117323810Y-97638095D01*
X117261905Y-97761905D01*
X117261905Y-98009524D01*
X117323810Y-98133333D01*
X117385714Y-98195238D01*
X117509524Y-98257143D01*
X118561905Y-98257143D01*
X117261905Y-98876191D02*
X118561905Y-98876191D01*
X117261905Y-99619048D01*
X118561905Y-99619048D01*
X117942857Y-100671429D02*
X117880952Y-100857143D01*
X117819048Y-100919048D01*
X117695238Y-100980953D01*
X117509524Y-100980953D01*
X117385714Y-100919048D01*
X117323810Y-100857143D01*
X117261905Y-100733334D01*
X117261905Y-100238096D01*
X118561905Y-100238096D01*
X118561905Y-100671429D01*
X118500000Y-100795239D01*
X118438095Y-100857143D01*
X118314286Y-100919048D01*
X118190476Y-100919048D01*
X118066667Y-100857143D01*
X118004762Y-100795239D01*
X117942857Y-100671429D01*
X117942857Y-100238096D01*
X117633333Y-101476191D02*
X117633333Y-102095239D01*
X117261905Y-101352382D02*
X118561905Y-101785715D01*
X117261905Y-102219048D01*
X117261905Y-103271429D02*
X117261905Y-102652382D01*
X118561905Y-102652382D01*
X117633333Y-103642858D02*
X117633333Y-104261906D01*
X117261905Y-103519049D02*
X118561905Y-103952382D01*
X117261905Y-104385715D01*
X117261905Y-104819049D02*
X118561905Y-104819049D01*
X117261905Y-105561906D01*
X118561905Y-105561906D01*
X117385714Y-106923811D02*
X117323810Y-106861906D01*
X117261905Y-106676192D01*
X117261905Y-106552382D01*
X117323810Y-106366668D01*
X117447619Y-106242859D01*
X117571429Y-106180954D01*
X117819048Y-106119049D01*
X118004762Y-106119049D01*
X118252381Y-106180954D01*
X118376190Y-106242859D01*
X118500000Y-106366668D01*
X118561905Y-106552382D01*
X118561905Y-106676192D01*
X118500000Y-106861906D01*
X118438095Y-106923811D01*
X117942857Y-107480954D02*
X117942857Y-107914287D01*
X117261905Y-108100001D02*
X117261905Y-107480954D01*
X118561905Y-107480954D01*
X118561905Y-108100001D01*
X117261905Y-108657144D02*
X118561905Y-108657144D01*
X118561905Y-108966668D01*
X118500000Y-109152382D01*
X118376190Y-109276191D01*
X118252381Y-109338096D01*
X118004762Y-109400001D01*
X117819048Y-109400001D01*
X117571429Y-109338096D01*
X117447619Y-109276191D01*
X117323810Y-109152382D01*
X117261905Y-108966668D01*
X117261905Y-108657144D01*
X117385714Y-111690477D02*
X117323810Y-111628572D01*
X117261905Y-111442858D01*
X117261905Y-111319048D01*
X117323810Y-111133334D01*
X117447619Y-111009525D01*
X117571429Y-110947620D01*
X117819048Y-110885715D01*
X118004762Y-110885715D01*
X118252381Y-110947620D01*
X118376190Y-111009525D01*
X118500000Y-111133334D01*
X118561905Y-111319048D01*
X118561905Y-111442858D01*
X118500000Y-111628572D01*
X118438095Y-111690477D01*
X118561905Y-112495239D02*
X118561905Y-112742858D01*
X118500000Y-112866667D01*
X118376190Y-112990477D01*
X118128571Y-113052382D01*
X117695238Y-113052382D01*
X117447619Y-112990477D01*
X117323810Y-112866667D01*
X117261905Y-112742858D01*
X117261905Y-112495239D01*
X117323810Y-112371429D01*
X117447619Y-112247620D01*
X117695238Y-112185715D01*
X118128571Y-112185715D01*
X118376190Y-112247620D01*
X118500000Y-112371429D01*
X118561905Y-112495239D01*
X117261905Y-113609525D02*
X118561905Y-113609525D01*
X117261905Y-114352382D01*
X118561905Y-114352382D01*
X118561905Y-114785716D02*
X117261905Y-115219049D01*
X118561905Y-115652382D01*
X117942857Y-116085716D02*
X117942857Y-116519049D01*
X117261905Y-116704763D02*
X117261905Y-116085716D01*
X118561905Y-116085716D01*
X118561905Y-116704763D01*
X117261905Y-118004763D02*
X117880952Y-117571430D01*
X117261905Y-117261906D02*
X118561905Y-117261906D01*
X118561905Y-117757144D01*
X118500000Y-117880953D01*
X118438095Y-117942858D01*
X118314286Y-118004763D01*
X118128571Y-118004763D01*
X118004762Y-117942858D01*
X117942857Y-117880953D01*
X117880952Y-117757144D01*
X117880952Y-117261906D01*
X118561905Y-118376192D02*
X118561905Y-119119049D01*
X117261905Y-118747620D02*
X118561905Y-118747620D01*
X117942857Y-119552382D02*
X117942857Y-119985715D01*
X117261905Y-120171429D02*
X117261905Y-119552382D01*
X118561905Y-119552382D01*
X118561905Y-120171429D01*
X117261905Y-121471429D02*
X117880952Y-121038096D01*
X117261905Y-120728572D02*
X118561905Y-120728572D01*
X118561905Y-121223810D01*
X118500000Y-121347619D01*
X118438095Y-121409524D01*
X118314286Y-121471429D01*
X118128571Y-121471429D01*
X118004762Y-121409524D01*
X117942857Y-121347619D01*
X117880952Y-121223810D01*
X117880952Y-120728572D01*
X115061905Y-86804762D02*
X116361905Y-86804762D01*
X116361905Y-87300000D01*
X116300000Y-87423809D01*
X116238095Y-87485714D01*
X116114286Y-87547619D01*
X115928571Y-87547619D01*
X115804762Y-87485714D01*
X115742857Y-87423809D01*
X115680952Y-87300000D01*
X115680952Y-86804762D01*
X115185714Y-88847619D02*
X115123810Y-88785714D01*
X115061905Y-88600000D01*
X115061905Y-88476190D01*
X115123810Y-88290476D01*
X115247619Y-88166667D01*
X115371429Y-88104762D01*
X115619048Y-88042857D01*
X115804762Y-88042857D01*
X116052381Y-88104762D01*
X116176190Y-88166667D01*
X116300000Y-88290476D01*
X116361905Y-88476190D01*
X116361905Y-88600000D01*
X116300000Y-88785714D01*
X116238095Y-88847619D01*
X115742857Y-89838095D02*
X115680952Y-90023809D01*
X115619048Y-90085714D01*
X115495238Y-90147619D01*
X115309524Y-90147619D01*
X115185714Y-90085714D01*
X115123810Y-90023809D01*
X115061905Y-89900000D01*
X115061905Y-89404762D01*
X116361905Y-89404762D01*
X116361905Y-89838095D01*
X116300000Y-89961905D01*
X116238095Y-90023809D01*
X116114286Y-90085714D01*
X115990476Y-90085714D01*
X115866667Y-90023809D01*
X115804762Y-89961905D01*
X115742857Y-89838095D01*
X115742857Y-89404762D01*
X115742857Y-92128571D02*
X115680952Y-92314285D01*
X115619048Y-92376190D01*
X115495238Y-92438095D01*
X115309524Y-92438095D01*
X115185714Y-92376190D01*
X115123810Y-92314285D01*
X115061905Y-92190476D01*
X115061905Y-91695238D01*
X116361905Y-91695238D01*
X116361905Y-92128571D01*
X116300000Y-92252381D01*
X116238095Y-92314285D01*
X116114286Y-92376190D01*
X115990476Y-92376190D01*
X115866667Y-92314285D01*
X115804762Y-92252381D01*
X115742857Y-92128571D01*
X115742857Y-91695238D01*
X115680952Y-93242857D02*
X115061905Y-93242857D01*
X116361905Y-92809524D02*
X115680952Y-93242857D01*
X116361905Y-93676190D01*
X115061905Y-95100000D02*
X116361905Y-95100000D01*
X116361905Y-95409524D01*
X116300000Y-95595238D01*
X116176190Y-95719047D01*
X116052381Y-95780952D01*
X115804762Y-95842857D01*
X115619048Y-95842857D01*
X115371429Y-95780952D01*
X115247619Y-95719047D01*
X115123810Y-95595238D01*
X115061905Y-95409524D01*
X115061905Y-95100000D01*
X115433333Y-96338095D02*
X115433333Y-96957143D01*
X115061905Y-96214286D02*
X116361905Y-96647619D01*
X115061905Y-97080952D01*
X115061905Y-97514286D02*
X116361905Y-97514286D01*
X115061905Y-98257143D01*
X116361905Y-98257143D01*
X115061905Y-98876191D02*
X116361905Y-98876191D01*
X115742857Y-99495239D02*
X115742857Y-99928572D01*
X115061905Y-100114286D02*
X115061905Y-99495239D01*
X116361905Y-99495239D01*
X116361905Y-100114286D01*
X115061905Y-101290476D02*
X115061905Y-100671429D01*
X116361905Y-100671429D01*
X115061905Y-102714286D02*
X116361905Y-102714286D01*
X115433333Y-103147619D01*
X116361905Y-103580952D01*
X115061905Y-103580952D01*
X115433333Y-104138095D02*
X115433333Y-104757143D01*
X115061905Y-104014286D02*
X116361905Y-104447619D01*
X115061905Y-104880952D01*
X115061905Y-106057143D02*
X115680952Y-105623810D01*
X115061905Y-105314286D02*
X116361905Y-105314286D01*
X116361905Y-105809524D01*
X116300000Y-105933333D01*
X116238095Y-105995238D01*
X116114286Y-106057143D01*
X115928571Y-106057143D01*
X115804762Y-105995238D01*
X115742857Y-105933333D01*
X115680952Y-105809524D01*
X115680952Y-105314286D01*
X115061905Y-106614286D02*
X116361905Y-106614286D01*
X115061905Y-107357143D02*
X115804762Y-106800000D01*
X116361905Y-107357143D02*
X115619048Y-106614286D01*
X115123810Y-107852381D02*
X115061905Y-108038095D01*
X115061905Y-108347619D01*
X115123810Y-108471429D01*
X115185714Y-108533333D01*
X115309524Y-108595238D01*
X115433333Y-108595238D01*
X115557143Y-108533333D01*
X115619048Y-108471429D01*
X115680952Y-108347619D01*
X115742857Y-108100000D01*
X115804762Y-107976191D01*
X115866667Y-107914286D01*
X115990476Y-107852381D01*
X116114286Y-107852381D01*
X116238095Y-107914286D01*
X116300000Y-107976191D01*
X116361905Y-108100000D01*
X116361905Y-108409524D01*
X116300000Y-108595238D01*
X115185714Y-110885714D02*
X115123810Y-110823809D01*
X115061905Y-110638095D01*
X115061905Y-110514285D01*
X115123810Y-110328571D01*
X115247619Y-110204762D01*
X115371429Y-110142857D01*
X115619048Y-110080952D01*
X115804762Y-110080952D01*
X116052381Y-110142857D01*
X116176190Y-110204762D01*
X116300000Y-110328571D01*
X116361905Y-110514285D01*
X116361905Y-110638095D01*
X116300000Y-110823809D01*
X116238095Y-110885714D01*
X115185714Y-112185714D02*
X115123810Y-112123809D01*
X115061905Y-111938095D01*
X115061905Y-111814285D01*
X115123810Y-111628571D01*
X115247619Y-111504762D01*
X115371429Y-111442857D01*
X115619048Y-111380952D01*
X115804762Y-111380952D01*
X116052381Y-111442857D01*
X116176190Y-111504762D01*
X116300000Y-111628571D01*
X116361905Y-111814285D01*
X116361905Y-111938095D01*
X116300000Y-112123809D01*
X116238095Y-112185714D01*
X115557143Y-112742857D02*
X115557143Y-113733333D01*
X115742857Y-114785714D02*
X115680952Y-114971428D01*
X115619048Y-115033333D01*
X115495238Y-115095238D01*
X115309524Y-115095238D01*
X115185714Y-115033333D01*
X115123810Y-114971428D01*
X115061905Y-114847619D01*
X115061905Y-114352381D01*
X116361905Y-114352381D01*
X116361905Y-114785714D01*
X116300000Y-114909524D01*
X116238095Y-114971428D01*
X116114286Y-115033333D01*
X115990476Y-115033333D01*
X115866667Y-114971428D01*
X115804762Y-114909524D01*
X115742857Y-114785714D01*
X115742857Y-114352381D01*
X115680952Y-115900000D02*
X115061905Y-115900000D01*
X116361905Y-115466667D02*
X115680952Y-115900000D01*
X116361905Y-116333333D01*
X115557143Y-116766667D02*
X115557143Y-117757143D01*
X115123810Y-118314286D02*
X115061905Y-118500000D01*
X115061905Y-118809524D01*
X115123810Y-118933334D01*
X115185714Y-118995238D01*
X115309524Y-119057143D01*
X115433333Y-119057143D01*
X115557143Y-118995238D01*
X115619048Y-118933334D01*
X115680952Y-118809524D01*
X115742857Y-118561905D01*
X115804762Y-118438096D01*
X115866667Y-118376191D01*
X115990476Y-118314286D01*
X116114286Y-118314286D01*
X116238095Y-118376191D01*
X116300000Y-118438096D01*
X116361905Y-118561905D01*
X116361905Y-118871429D01*
X116300000Y-119057143D01*
X115433333Y-119552381D02*
X115433333Y-120171429D01*
X115061905Y-119428572D02*
X116361905Y-119861905D01*
X115061905Y-120295238D01*
X115928571Y-122276191D02*
X115061905Y-122276191D01*
X116423810Y-121966667D02*
X115495238Y-121657143D01*
X115495238Y-122461905D01*
X115185714Y-122957143D02*
X115123810Y-123019048D01*
X115061905Y-122957143D01*
X115123810Y-122895238D01*
X115185714Y-122957143D01*
X115061905Y-122957143D01*
X116361905Y-123823810D02*
X116361905Y-123947619D01*
X116300000Y-124071429D01*
X116238095Y-124133334D01*
X116114286Y-124195238D01*
X115866667Y-124257143D01*
X115557143Y-124257143D01*
X115309524Y-124195238D01*
X115185714Y-124133334D01*
X115123810Y-124071429D01*
X115061905Y-123947619D01*
X115061905Y-123823810D01*
X115123810Y-123700000D01*
X115185714Y-123638096D01*
X115309524Y-123576191D01*
X115557143Y-123514286D01*
X115866667Y-123514286D01*
X116114286Y-123576191D01*
X116238095Y-123638096D01*
X116300000Y-123700000D01*
X116361905Y-123823810D01*
D13*
X155380952Y-135127381D02*
X155952381Y-135127381D01*
X155666666Y-136127381D02*
X155666666Y-135127381D01*
X156285714Y-136127381D02*
X156285714Y-135127381D01*
X156285714Y-135603571D02*
X156857143Y-135603571D01*
X156857143Y-136127381D02*
X156857143Y-135127381D01*
X157285714Y-135841667D02*
X157761905Y-135841667D01*
X157190476Y-136127381D02*
X157523809Y-135127381D01*
X157857143Y-136127381D01*
X158047619Y-135127381D02*
X158619048Y-135127381D01*
X158333333Y-136127381D02*
X158333333Y-135127381D01*
X155857143Y-137777381D02*
X155285714Y-137777381D01*
X155571428Y-137777381D02*
X155571428Y-136777381D01*
X155476190Y-136920238D01*
X155380952Y-137015476D01*
X155285714Y-137063095D01*
X156238095Y-136872619D02*
X156285714Y-136825000D01*
X156380952Y-136777381D01*
X156619048Y-136777381D01*
X156714286Y-136825000D01*
X156761905Y-136872619D01*
X156809524Y-136967857D01*
X156809524Y-137063095D01*
X156761905Y-137205952D01*
X156190476Y-137777381D01*
X156809524Y-137777381D01*
X157428571Y-136777381D02*
X157523810Y-136777381D01*
X157619048Y-136825000D01*
X157666667Y-136872619D01*
X157714286Y-136967857D01*
X157761905Y-137158333D01*
X157761905Y-137396429D01*
X157714286Y-137586905D01*
X157666667Y-137682143D01*
X157619048Y-137729762D01*
X157523810Y-137777381D01*
X157428571Y-137777381D01*
X157333333Y-137729762D01*
X157285714Y-137682143D01*
X157238095Y-137586905D01*
X157190476Y-137396429D01*
X157190476Y-137158333D01*
X157238095Y-136967857D01*
X157285714Y-136872619D01*
X157333333Y-136825000D01*
X157428571Y-136777381D01*
X158380952Y-136777381D02*
X158476191Y-136777381D01*
X158571429Y-136825000D01*
X158619048Y-136872619D01*
X158666667Y-136967857D01*
X158714286Y-137158333D01*
X158714286Y-137396429D01*
X158666667Y-137586905D01*
X158619048Y-137682143D01*
X158571429Y-137729762D01*
X158476191Y-137777381D01*
X158380952Y-137777381D01*
X158285714Y-137729762D01*
X158238095Y-137682143D01*
X158190476Y-137586905D01*
X158142857Y-137396429D01*
X158142857Y-137158333D01*
X158190476Y-136967857D01*
X158238095Y-136872619D01*
X158285714Y-136825000D01*
X158380952Y-136777381D01*
X154880952Y-77627381D02*
X155452381Y-77627381D01*
X155166666Y-78627381D02*
X155166666Y-77627381D01*
X155785714Y-78627381D02*
X155785714Y-77627381D01*
X155785714Y-78103571D02*
X156357143Y-78103571D01*
X156357143Y-78627381D02*
X156357143Y-77627381D01*
X156785714Y-78341667D02*
X157261905Y-78341667D01*
X156690476Y-78627381D02*
X157023809Y-77627381D01*
X157357143Y-78627381D01*
X157547619Y-77627381D02*
X158119048Y-77627381D01*
X157833333Y-78627381D02*
X157833333Y-77627381D01*
X155357143Y-80277381D02*
X154785714Y-80277381D01*
X155071428Y-80277381D02*
X155071428Y-79277381D01*
X154976190Y-79420238D01*
X154880952Y-79515476D01*
X154785714Y-79563095D01*
X155738095Y-79372619D02*
X155785714Y-79325000D01*
X155880952Y-79277381D01*
X156119048Y-79277381D01*
X156214286Y-79325000D01*
X156261905Y-79372619D01*
X156309524Y-79467857D01*
X156309524Y-79563095D01*
X156261905Y-79705952D01*
X155690476Y-80277381D01*
X156309524Y-80277381D01*
X156928571Y-79277381D02*
X157023810Y-79277381D01*
X157119048Y-79325000D01*
X157166667Y-79372619D01*
X157214286Y-79467857D01*
X157261905Y-79658333D01*
X157261905Y-79896429D01*
X157214286Y-80086905D01*
X157166667Y-80182143D01*
X157119048Y-80229762D01*
X157023810Y-80277381D01*
X156928571Y-80277381D01*
X156833333Y-80229762D01*
X156785714Y-80182143D01*
X156738095Y-80086905D01*
X156690476Y-79896429D01*
X156690476Y-79658333D01*
X156738095Y-79467857D01*
X156785714Y-79372619D01*
X156833333Y-79325000D01*
X156928571Y-79277381D01*
X157880952Y-79277381D02*
X157976191Y-79277381D01*
X158071429Y-79325000D01*
X158119048Y-79372619D01*
X158166667Y-79467857D01*
X158214286Y-79658333D01*
X158214286Y-79896429D01*
X158166667Y-80086905D01*
X158119048Y-80182143D01*
X158071429Y-80229762D01*
X157976191Y-80277381D01*
X157880952Y-80277381D01*
X157785714Y-80229762D01*
X157738095Y-80182143D01*
X157690476Y-80086905D01*
X157642857Y-79896429D01*
X157642857Y-79658333D01*
X157690476Y-79467857D01*
X157738095Y-79372619D01*
X157785714Y-79325000D01*
X157880952Y-79277381D01*
D11*
X150678572Y-133428571D02*
X149821429Y-133428571D01*
X150250001Y-133428571D02*
X150250001Y-131928571D01*
X150107144Y-132142857D01*
X149964286Y-132285714D01*
X149821429Y-132357143D01*
X181607143Y-121000000D02*
X181464286Y-120928571D01*
X181250000Y-120928571D01*
X181035715Y-121000000D01*
X180892857Y-121142857D01*
X180821429Y-121285714D01*
X180750000Y-121571429D01*
X180750000Y-121785714D01*
X180821429Y-122071429D01*
X180892857Y-122214286D01*
X181035715Y-122357143D01*
X181250000Y-122428571D01*
X181392857Y-122428571D01*
X181607143Y-122357143D01*
X181678572Y-122285714D01*
X181678572Y-121785714D01*
X181392857Y-121785714D01*
X182321429Y-122428571D02*
X182321429Y-120928571D01*
X183178572Y-122428571D01*
X183178572Y-120928571D01*
X183892858Y-122428571D02*
X183892858Y-120928571D01*
X184250001Y-120928571D01*
X184464286Y-121000000D01*
X184607144Y-121142857D01*
X184678572Y-121285714D01*
X184750001Y-121571429D01*
X184750001Y-121785714D01*
X184678572Y-122071429D01*
X184607144Y-122214286D01*
X184464286Y-122357143D01*
X184250001Y-122428571D01*
X183892858Y-122428571D01*
X181571429Y-127035714D02*
X181500000Y-127107143D01*
X181285714Y-127178571D01*
X181142857Y-127178571D01*
X180928572Y-127107143D01*
X180785714Y-126964286D01*
X180714286Y-126821429D01*
X180642857Y-126535714D01*
X180642857Y-126321429D01*
X180714286Y-126035714D01*
X180785714Y-125892857D01*
X180928572Y-125750000D01*
X181142857Y-125678571D01*
X181285714Y-125678571D01*
X181500000Y-125750000D01*
X181571429Y-125821429D01*
X182500000Y-125678571D02*
X182785714Y-125678571D01*
X182928572Y-125750000D01*
X183071429Y-125892857D01*
X183142857Y-126178571D01*
X183142857Y-126678571D01*
X183071429Y-126964286D01*
X182928572Y-127107143D01*
X182785714Y-127178571D01*
X182500000Y-127178571D01*
X182357143Y-127107143D01*
X182214286Y-126964286D01*
X182142857Y-126678571D01*
X182142857Y-126178571D01*
X182214286Y-125892857D01*
X182357143Y-125750000D01*
X182500000Y-125678571D01*
X183785715Y-127178571D02*
X183785715Y-125678571D01*
X184285715Y-126750000D01*
X184785715Y-125678571D01*
X184785715Y-127178571D01*
X186000001Y-126392857D02*
X186214287Y-126464286D01*
X186285715Y-126535714D01*
X186357144Y-126678571D01*
X186357144Y-126892857D01*
X186285715Y-127035714D01*
X186214287Y-127107143D01*
X186071429Y-127178571D01*
X185500001Y-127178571D01*
X185500001Y-125678571D01*
X186000001Y-125678571D01*
X186142858Y-125750000D01*
X186214287Y-125821429D01*
X186285715Y-125964286D01*
X186285715Y-126107143D01*
X186214287Y-126250000D01*
X186142858Y-126321429D01*
X186000001Y-126392857D01*
X185500001Y-126392857D01*
X180750000Y-131178571D02*
X181035714Y-131178571D01*
X181178572Y-131250000D01*
X181321429Y-131392857D01*
X181392857Y-131678571D01*
X181392857Y-132178571D01*
X181321429Y-132464286D01*
X181178572Y-132607143D01*
X181035714Y-132678571D01*
X180750000Y-132678571D01*
X180607143Y-132607143D01*
X180464286Y-132464286D01*
X180392857Y-132178571D01*
X180392857Y-131678571D01*
X180464286Y-131392857D01*
X180607143Y-131250000D01*
X180750000Y-131178571D01*
X182035715Y-131178571D02*
X182035715Y-132392857D01*
X182107143Y-132535714D01*
X182178572Y-132607143D01*
X182321429Y-132678571D01*
X182607143Y-132678571D01*
X182750001Y-132607143D01*
X182821429Y-132535714D01*
X182892858Y-132392857D01*
X182892858Y-131178571D01*
X183392858Y-131178571D02*
X184250001Y-131178571D01*
X183821430Y-132678571D02*
X183821430Y-131178571D01*
X185250001Y-131892857D02*
X185464287Y-131964286D01*
X185535715Y-132035714D01*
X185607144Y-132178571D01*
X185607144Y-132392857D01*
X185535715Y-132535714D01*
X185464287Y-132607143D01*
X185321429Y-132678571D01*
X184750001Y-132678571D01*
X184750001Y-131178571D01*
X185250001Y-131178571D01*
X185392858Y-131250000D01*
X185464287Y-131321429D01*
X185535715Y-131464286D01*
X185535715Y-131607143D01*
X185464287Y-131750000D01*
X185392858Y-131821429D01*
X185250001Y-131892857D01*
X184750001Y-131892857D01*
X181357143Y-136250000D02*
X181214286Y-136178571D01*
X181000000Y-136178571D01*
X180785715Y-136250000D01*
X180642857Y-136392857D01*
X180571429Y-136535714D01*
X180500000Y-136821429D01*
X180500000Y-137035714D01*
X180571429Y-137321429D01*
X180642857Y-137464286D01*
X180785715Y-137607143D01*
X181000000Y-137678571D01*
X181142857Y-137678571D01*
X181357143Y-137607143D01*
X181428572Y-137535714D01*
X181428572Y-137035714D01*
X181142857Y-137035714D01*
X182071429Y-137678571D02*
X182071429Y-136178571D01*
X182928572Y-137678571D01*
X182928572Y-136178571D01*
X183642858Y-137678571D02*
X183642858Y-136178571D01*
X184000001Y-136178571D01*
X184214286Y-136250000D01*
X184357144Y-136392857D01*
X184428572Y-136535714D01*
X184500001Y-136821429D01*
X184500001Y-137035714D01*
X184428572Y-137321429D01*
X184357144Y-137464286D01*
X184214286Y-137607143D01*
X184000001Y-137678571D01*
X183642858Y-137678571D01*
X150178572Y-75928571D02*
X149321429Y-75928571D01*
X149750001Y-75928571D02*
X149750001Y-74428571D01*
X149607144Y-74642857D01*
X149464286Y-74785714D01*
X149321429Y-74857143D01*
X180821429Y-109178571D02*
X181321429Y-110678571D01*
X181821429Y-109178571D01*
X182321429Y-110107143D02*
X183464286Y-110107143D01*
X182892857Y-110678571D02*
X182892857Y-109535714D01*
X180821429Y-104678571D02*
X181321429Y-106178571D01*
X181821429Y-104678571D01*
X182321429Y-105607143D02*
X183464286Y-105607143D01*
X181607143Y-114750000D02*
X181464286Y-114678571D01*
X181250000Y-114678571D01*
X181035715Y-114750000D01*
X180892857Y-114892857D01*
X180821429Y-115035714D01*
X180750000Y-115321429D01*
X180750000Y-115535714D01*
X180821429Y-115821429D01*
X180892857Y-115964286D01*
X181035715Y-116107143D01*
X181250000Y-116178571D01*
X181392857Y-116178571D01*
X181607143Y-116107143D01*
X181678572Y-116035714D01*
X181678572Y-115535714D01*
X181392857Y-115535714D01*
X182321429Y-116178571D02*
X182321429Y-114678571D01*
X183178572Y-116178571D01*
X183178572Y-114678571D01*
X183892858Y-116178571D02*
X183892858Y-114678571D01*
X184250001Y-114678571D01*
X184464286Y-114750000D01*
X184607144Y-114892857D01*
X184678572Y-115035714D01*
X184750001Y-115321429D01*
X184750001Y-115535714D01*
X184678572Y-115821429D01*
X184607144Y-115964286D01*
X184464286Y-116107143D01*
X184250001Y-116178571D01*
X183892858Y-116178571D01*
X181607143Y-99250000D02*
X181464286Y-99178571D01*
X181250000Y-99178571D01*
X181035715Y-99250000D01*
X180892857Y-99392857D01*
X180821429Y-99535714D01*
X180750000Y-99821429D01*
X180750000Y-100035714D01*
X180821429Y-100321429D01*
X180892857Y-100464286D01*
X181035715Y-100607143D01*
X181250000Y-100678571D01*
X181392857Y-100678571D01*
X181607143Y-100607143D01*
X181678572Y-100535714D01*
X181678572Y-100035714D01*
X181392857Y-100035714D01*
X182321429Y-100678571D02*
X182321429Y-99178571D01*
X183178572Y-100678571D01*
X183178572Y-99178571D01*
X183892858Y-100678571D02*
X183892858Y-99178571D01*
X184250001Y-99178571D01*
X184464286Y-99250000D01*
X184607144Y-99392857D01*
X184678572Y-99535714D01*
X184750001Y-99821429D01*
X184750001Y-100035714D01*
X184678572Y-100321429D01*
X184607144Y-100464286D01*
X184464286Y-100607143D01*
X184250001Y-100678571D01*
X183892858Y-100678571D01*
X168107143Y-61500000D02*
X167964286Y-61428571D01*
X167750000Y-61428571D01*
X167535715Y-61500000D01*
X167392857Y-61642857D01*
X167321429Y-61785714D01*
X167250000Y-62071429D01*
X167250000Y-62285714D01*
X167321429Y-62571429D01*
X167392857Y-62714286D01*
X167535715Y-62857143D01*
X167750000Y-62928571D01*
X167892857Y-62928571D01*
X168107143Y-62857143D01*
X168178572Y-62785714D01*
X168178572Y-62285714D01*
X167892857Y-62285714D01*
X168821429Y-62928571D02*
X168821429Y-61428571D01*
X169678572Y-62928571D01*
X169678572Y-61428571D01*
X170392858Y-62928571D02*
X170392858Y-61428571D01*
X170750001Y-61428571D01*
X170964286Y-61500000D01*
X171107144Y-61642857D01*
X171178572Y-61785714D01*
X171250001Y-62071429D01*
X171250001Y-62285714D01*
X171178572Y-62571429D01*
X171107144Y-62714286D01*
X170964286Y-62857143D01*
X170750001Y-62928571D01*
X170392858Y-62928571D01*
X181607143Y-76500000D02*
X181464286Y-76428571D01*
X181250000Y-76428571D01*
X181035715Y-76500000D01*
X180892857Y-76642857D01*
X180821429Y-76785714D01*
X180750000Y-77071429D01*
X180750000Y-77285714D01*
X180821429Y-77571429D01*
X180892857Y-77714286D01*
X181035715Y-77857143D01*
X181250000Y-77928571D01*
X181392857Y-77928571D01*
X181607143Y-77857143D01*
X181678572Y-77785714D01*
X181678572Y-77285714D01*
X181392857Y-77285714D01*
X182321429Y-77928571D02*
X182321429Y-76428571D01*
X183178572Y-77928571D01*
X183178572Y-76428571D01*
X183892858Y-77928571D02*
X183892858Y-76428571D01*
X184250001Y-76428571D01*
X184464286Y-76500000D01*
X184607144Y-76642857D01*
X184678572Y-76785714D01*
X184750001Y-77071429D01*
X184750001Y-77285714D01*
X184678572Y-77571429D01*
X184607144Y-77714286D01*
X184464286Y-77857143D01*
X184250001Y-77928571D01*
X183892858Y-77928571D01*
X181178572Y-67785714D02*
X181107143Y-67857143D01*
X180892857Y-67928571D01*
X180750000Y-67928571D01*
X180535715Y-67857143D01*
X180392857Y-67714286D01*
X180321429Y-67571429D01*
X180250000Y-67285714D01*
X180250000Y-67071429D01*
X180321429Y-66785714D01*
X180392857Y-66642857D01*
X180535715Y-66500000D01*
X180750000Y-66428571D01*
X180892857Y-66428571D01*
X181107143Y-66500000D01*
X181178572Y-66571429D01*
X182107143Y-66428571D02*
X182392857Y-66428571D01*
X182535715Y-66500000D01*
X182678572Y-66642857D01*
X182750000Y-66928571D01*
X182750000Y-67428571D01*
X182678572Y-67714286D01*
X182535715Y-67857143D01*
X182392857Y-67928571D01*
X182107143Y-67928571D01*
X181964286Y-67857143D01*
X181821429Y-67714286D01*
X181750000Y-67428571D01*
X181750000Y-66928571D01*
X181821429Y-66642857D01*
X181964286Y-66500000D01*
X182107143Y-66428571D01*
X183392858Y-67928571D02*
X183392858Y-66428571D01*
X183892858Y-67500000D01*
X184392858Y-66428571D01*
X184392858Y-67928571D01*
X185035715Y-67500000D02*
X185750001Y-67500000D01*
X184892858Y-67928571D02*
X185392858Y-66428571D01*
X185892858Y-67928571D01*
X180857143Y-71678571D02*
X181142857Y-71678571D01*
X181285715Y-71750000D01*
X181428572Y-71892857D01*
X181500000Y-72178571D01*
X181500000Y-72678571D01*
X181428572Y-72964286D01*
X181285715Y-73107143D01*
X181142857Y-73178571D01*
X180857143Y-73178571D01*
X180714286Y-73107143D01*
X180571429Y-72964286D01*
X180500000Y-72678571D01*
X180500000Y-72178571D01*
X180571429Y-71892857D01*
X180714286Y-71750000D01*
X180857143Y-71678571D01*
X182142858Y-71678571D02*
X182142858Y-72892857D01*
X182214286Y-73035714D01*
X182285715Y-73107143D01*
X182428572Y-73178571D01*
X182714286Y-73178571D01*
X182857144Y-73107143D01*
X182928572Y-73035714D01*
X183000001Y-72892857D01*
X183000001Y-71678571D01*
X183500001Y-71678571D02*
X184357144Y-71678571D01*
X183928573Y-73178571D02*
X183928573Y-71678571D01*
X184785715Y-72750000D02*
X185500001Y-72750000D01*
X184642858Y-73178571D02*
X185142858Y-71678571D01*
X185642858Y-73178571D01*
D14*
X142690000Y-78060000D02*
X142690000Y-72940000D01*
X145310000Y-78060000D02*
X145310000Y-72940000D01*
X142690000Y-78060000D02*
X143004000Y-78060000D01*
X144996000Y-78060000D02*
X145310000Y-78060000D01*
X142690000Y-72940000D02*
X143004000Y-72940000D01*
X144996000Y-72940000D02*
X145310000Y-72940000D01*
X142690000Y-85060000D02*
X142690000Y-79940000D01*
X145310000Y-85060000D02*
X145310000Y-79940000D01*
X142690000Y-85060000D02*
X143004000Y-85060000D01*
X144996000Y-85060000D02*
X145310000Y-85060000D01*
X142690000Y-79940000D02*
X143004000Y-79940000D01*
X144996000Y-79940000D02*
X145310000Y-79940000D01*
X135940000Y-77190000D02*
X141060000Y-77190000D01*
X135940000Y-79810000D02*
X141060000Y-79810000D01*
X135940000Y-77190000D02*
X135940000Y-77504000D01*
X135940000Y-79496000D02*
X135940000Y-79810000D01*
X141060000Y-77190000D02*
X141060000Y-77504000D01*
X141060000Y-79496000D02*
X141060000Y-79810000D01*
X147690000Y-86560000D02*
X147690000Y-81440000D01*
X150310000Y-86560000D02*
X150310000Y-81440000D01*
X147690000Y-86560000D02*
X148004000Y-86560000D01*
X149996000Y-86560000D02*
X150310000Y-86560000D01*
X147690000Y-81440000D02*
X148004000Y-81440000D01*
X149996000Y-81440000D02*
X150310000Y-81440000D01*
X162940000Y-76690000D02*
X168060000Y-76690000D01*
X162940000Y-79310000D02*
X168060000Y-79310000D01*
X162940000Y-76690000D02*
X162940000Y-77004000D01*
X162940000Y-78996000D02*
X162940000Y-79310000D01*
X168060000Y-76690000D02*
X168060000Y-77004000D01*
X168060000Y-78996000D02*
X168060000Y-79310000D01*
X133690000Y-106690000D02*
X138810000Y-106690000D01*
X133690000Y-109310000D02*
X138810000Y-109310000D01*
X133690000Y-106690000D02*
X133690000Y-107004000D01*
X133690000Y-108996000D02*
X133690000Y-109310000D01*
X138810000Y-106690000D02*
X138810000Y-107004000D01*
X138810000Y-108996000D02*
X138810000Y-109310000D01*
X126883264Y-103398437D02*
G75*
G03X126880000Y-93600643I-1383264J4898437D01*
G01*
X124116736Y-103398437D02*
G75*
G02X124120000Y-93600643I1383264J4898437D01*
G01*
X124116736Y-103398437D02*
G75*
G03X126880000Y-103399357I1383264J4898437D01*
G01*
X130550000Y-98500000D02*
X120450000Y-98500000D01*
X130550000Y-98540000D02*
X120450000Y-98540000D01*
X130550000Y-98580000D02*
X120450000Y-98580000D01*
X130549000Y-98620000D02*
X120451000Y-98620000D01*
X130548000Y-98660000D02*
X120452000Y-98660000D01*
X130547000Y-98700000D02*
X120453000Y-98700000D01*
X130545000Y-98740000D02*
X120455000Y-98740000D01*
X130543000Y-98780000D02*
X120457000Y-98780000D01*
X130540000Y-98820000D02*
X120460000Y-98820000D01*
X130538000Y-98860000D02*
X120462000Y-98860000D01*
X130535000Y-98900000D02*
X120465000Y-98900000D01*
X130531000Y-98940000D02*
X120469000Y-98940000D01*
X130528000Y-98980000D02*
X120472000Y-98980000D01*
X130524000Y-99020000D02*
X120476000Y-99020000D01*
X130520000Y-99060000D02*
X120480000Y-99060000D01*
X130515000Y-99100000D02*
X120485000Y-99100000D01*
X130510000Y-99140000D02*
X120490000Y-99140000D01*
X130505000Y-99180000D02*
X120495000Y-99180000D01*
X130499000Y-99221000D02*
X120501000Y-99221000D01*
X130493000Y-99261000D02*
X120507000Y-99261000D01*
X130487000Y-99301000D02*
X120513000Y-99301000D01*
X130481000Y-99341000D02*
X120519000Y-99341000D01*
X130474000Y-99381000D02*
X120526000Y-99381000D01*
X130467000Y-99421000D02*
X120533000Y-99421000D01*
X130459000Y-99461000D02*
X120541000Y-99461000D01*
X130451000Y-99501000D02*
X120549000Y-99501000D01*
X130443000Y-99541000D02*
X120557000Y-99541000D01*
X130435000Y-99581000D02*
X120565000Y-99581000D01*
X130426000Y-99621000D02*
X120574000Y-99621000D01*
X130417000Y-99661000D02*
X120583000Y-99661000D01*
X130407000Y-99701000D02*
X120593000Y-99701000D01*
X130397000Y-99741000D02*
X120603000Y-99741000D01*
X130387000Y-99781000D02*
X120613000Y-99781000D01*
X130376000Y-99821000D02*
X126681000Y-99821000D01*
X124319000Y-99821000D02*
X120624000Y-99821000D01*
X130365000Y-99861000D02*
X126681000Y-99861000D01*
X124319000Y-99861000D02*
X120635000Y-99861000D01*
X130354000Y-99901000D02*
X126681000Y-99901000D01*
X124319000Y-99901000D02*
X120646000Y-99901000D01*
X130343000Y-99941000D02*
X126681000Y-99941000D01*
X124319000Y-99941000D02*
X120657000Y-99941000D01*
X130331000Y-99981000D02*
X126681000Y-99981000D01*
X124319000Y-99981000D02*
X120669000Y-99981000D01*
X130318000Y-100021000D02*
X126681000Y-100021000D01*
X124319000Y-100021000D02*
X120682000Y-100021000D01*
X130306000Y-100061000D02*
X126681000Y-100061000D01*
X124319000Y-100061000D02*
X120694000Y-100061000D01*
X130292000Y-100101000D02*
X126681000Y-100101000D01*
X124319000Y-100101000D02*
X120708000Y-100101000D01*
X130279000Y-100141000D02*
X126681000Y-100141000D01*
X124319000Y-100141000D02*
X120721000Y-100141000D01*
X130265000Y-100181000D02*
X126681000Y-100181000D01*
X124319000Y-100181000D02*
X120735000Y-100181000D01*
X130251000Y-100221000D02*
X126681000Y-100221000D01*
X124319000Y-100221000D02*
X120749000Y-100221000D01*
X130237000Y-100261000D02*
X126681000Y-100261000D01*
X124319000Y-100261000D02*
X120763000Y-100261000D01*
X130222000Y-100301000D02*
X126681000Y-100301000D01*
X124319000Y-100301000D02*
X120778000Y-100301000D01*
X130206000Y-100341000D02*
X126681000Y-100341000D01*
X124319000Y-100341000D02*
X120794000Y-100341000D01*
X130191000Y-100381000D02*
X126681000Y-100381000D01*
X124319000Y-100381000D02*
X120809000Y-100381000D01*
X130174000Y-100421000D02*
X126681000Y-100421000D01*
X124319000Y-100421000D02*
X120826000Y-100421000D01*
X130158000Y-100461000D02*
X126681000Y-100461000D01*
X124319000Y-100461000D02*
X120842000Y-100461000D01*
X130141000Y-100501000D02*
X126681000Y-100501000D01*
X124319000Y-100501000D02*
X120859000Y-100501000D01*
X130124000Y-100541000D02*
X126681000Y-100541000D01*
X124319000Y-100541000D02*
X120876000Y-100541000D01*
X130106000Y-100581000D02*
X126681000Y-100581000D01*
X124319000Y-100581000D02*
X120894000Y-100581000D01*
X130088000Y-100621000D02*
X126681000Y-100621000D01*
X124319000Y-100621000D02*
X120912000Y-100621000D01*
X130069000Y-100661000D02*
X126681000Y-100661000D01*
X124319000Y-100661000D02*
X120931000Y-100661000D01*
X130050000Y-100701000D02*
X126681000Y-100701000D01*
X124319000Y-100701000D02*
X120950000Y-100701000D01*
X130031000Y-100741000D02*
X126681000Y-100741000D01*
X124319000Y-100741000D02*
X120969000Y-100741000D01*
X130011000Y-100781000D02*
X126681000Y-100781000D01*
X124319000Y-100781000D02*
X120989000Y-100781000D01*
X129991000Y-100821000D02*
X126681000Y-100821000D01*
X124319000Y-100821000D02*
X121009000Y-100821000D01*
X129970000Y-100861000D02*
X126681000Y-100861000D01*
X124319000Y-100861000D02*
X121030000Y-100861000D01*
X129949000Y-100901000D02*
X126681000Y-100901000D01*
X124319000Y-100901000D02*
X121051000Y-100901000D01*
X129928000Y-100941000D02*
X126681000Y-100941000D01*
X124319000Y-100941000D02*
X121072000Y-100941000D01*
X129905000Y-100981000D02*
X126681000Y-100981000D01*
X124319000Y-100981000D02*
X121095000Y-100981000D01*
X129883000Y-101021000D02*
X126681000Y-101021000D01*
X124319000Y-101021000D02*
X121117000Y-101021000D01*
X129860000Y-101061000D02*
X126681000Y-101061000D01*
X124319000Y-101061000D02*
X121140000Y-101061000D01*
X129836000Y-101101000D02*
X126681000Y-101101000D01*
X124319000Y-101101000D02*
X121164000Y-101101000D01*
X129812000Y-101141000D02*
X126681000Y-101141000D01*
X124319000Y-101141000D02*
X121188000Y-101141000D01*
X129788000Y-101181000D02*
X126681000Y-101181000D01*
X124319000Y-101181000D02*
X121212000Y-101181000D01*
X129763000Y-101221000D02*
X126681000Y-101221000D01*
X124319000Y-101221000D02*
X121237000Y-101221000D01*
X129737000Y-101261000D02*
X126681000Y-101261000D01*
X124319000Y-101261000D02*
X121263000Y-101261000D01*
X129711000Y-101301000D02*
X126681000Y-101301000D01*
X124319000Y-101301000D02*
X121289000Y-101301000D01*
X129685000Y-101341000D02*
X126681000Y-101341000D01*
X124319000Y-101341000D02*
X121315000Y-101341000D01*
X129657000Y-101381000D02*
X126681000Y-101381000D01*
X124319000Y-101381000D02*
X121343000Y-101381000D01*
X129630000Y-101421000D02*
X126681000Y-101421000D01*
X124319000Y-101421000D02*
X121370000Y-101421000D01*
X129601000Y-101461000D02*
X126681000Y-101461000D01*
X124319000Y-101461000D02*
X121399000Y-101461000D01*
X129572000Y-101501000D02*
X126681000Y-101501000D01*
X124319000Y-101501000D02*
X121428000Y-101501000D01*
X129543000Y-101541000D02*
X126681000Y-101541000D01*
X124319000Y-101541000D02*
X121457000Y-101541000D01*
X129513000Y-101581000D02*
X126681000Y-101581000D01*
X124319000Y-101581000D02*
X121487000Y-101581000D01*
X129482000Y-101621000D02*
X126681000Y-101621000D01*
X124319000Y-101621000D02*
X121518000Y-101621000D01*
X129451000Y-101661000D02*
X126681000Y-101661000D01*
X124319000Y-101661000D02*
X121549000Y-101661000D01*
X129419000Y-101701000D02*
X126681000Y-101701000D01*
X124319000Y-101701000D02*
X121581000Y-101701000D01*
X129386000Y-101741000D02*
X126681000Y-101741000D01*
X124319000Y-101741000D02*
X121614000Y-101741000D01*
X129353000Y-101781000D02*
X126681000Y-101781000D01*
X124319000Y-101781000D02*
X121647000Y-101781000D01*
X129319000Y-101821000D02*
X126681000Y-101821000D01*
X124319000Y-101821000D02*
X121681000Y-101821000D01*
X129284000Y-101861000D02*
X126681000Y-101861000D01*
X124319000Y-101861000D02*
X121716000Y-101861000D01*
X129248000Y-101901000D02*
X126681000Y-101901000D01*
X124319000Y-101901000D02*
X121752000Y-101901000D01*
X129212000Y-101941000D02*
X126681000Y-101941000D01*
X124319000Y-101941000D02*
X121788000Y-101941000D01*
X129175000Y-101981000D02*
X126681000Y-101981000D01*
X124319000Y-101981000D02*
X121825000Y-101981000D01*
X129137000Y-102021000D02*
X126681000Y-102021000D01*
X124319000Y-102021000D02*
X121863000Y-102021000D01*
X129098000Y-102061000D02*
X126681000Y-102061000D01*
X124319000Y-102061000D02*
X121902000Y-102061000D01*
X129059000Y-102101000D02*
X126681000Y-102101000D01*
X124319000Y-102101000D02*
X121941000Y-102101000D01*
X129018000Y-102141000D02*
X126681000Y-102141000D01*
X124319000Y-102141000D02*
X121982000Y-102141000D01*
X128977000Y-102181000D02*
X122023000Y-102181000D01*
X128935000Y-102221000D02*
X122065000Y-102221000D01*
X128891000Y-102261000D02*
X122109000Y-102261000D01*
X128847000Y-102301000D02*
X122153000Y-102301000D01*
X128802000Y-102341000D02*
X122198000Y-102341000D01*
X128755000Y-102381000D02*
X122245000Y-102381000D01*
X128707000Y-102421000D02*
X122293000Y-102421000D01*
X128658000Y-102461000D02*
X122342000Y-102461000D01*
X128608000Y-102501000D02*
X122392000Y-102501000D01*
X128557000Y-102541000D02*
X122443000Y-102541000D01*
X128504000Y-102581000D02*
X122496000Y-102581000D01*
X128449000Y-102621000D02*
X122551000Y-102621000D01*
X128394000Y-102661000D02*
X122606000Y-102661000D01*
X128336000Y-102701000D02*
X122664000Y-102701000D01*
X128277000Y-102741000D02*
X122723000Y-102741000D01*
X128215000Y-102781000D02*
X122785000Y-102781000D01*
X128152000Y-102821000D02*
X122848000Y-102821000D01*
X128087000Y-102861000D02*
X122913000Y-102861000D01*
X128019000Y-102901000D02*
X122981000Y-102901000D01*
X127949000Y-102941000D02*
X123051000Y-102941000D01*
X127877000Y-102981000D02*
X123123000Y-102981000D01*
X127801000Y-103021000D02*
X123199000Y-103021000D01*
X127722000Y-103061000D02*
X123278000Y-103061000D01*
X127640000Y-103101000D02*
X123360000Y-103101000D01*
X127553000Y-103141000D02*
X123447000Y-103141000D01*
X127462000Y-103181000D02*
X123538000Y-103181000D01*
X127366000Y-103221000D02*
X123634000Y-103221000D01*
X127263000Y-103261000D02*
X123737000Y-103261000D01*
X127154000Y-103301000D02*
X123846000Y-103301000D01*
X127036000Y-103341000D02*
X123964000Y-103341000D01*
X126907000Y-103381000D02*
X124093000Y-103381000D01*
X126765000Y-103421000D02*
X124235000Y-103421000D01*
X126604000Y-103461000D02*
X124396000Y-103461000D01*
X126413000Y-103501000D02*
X124587000Y-103501000D01*
X126172000Y-103541000D02*
X124828000Y-103541000D01*
X125779000Y-103581000D02*
X125221000Y-103581000D01*
X125500000Y-93300000D02*
X125500000Y-94800000D01*
X126250000Y-94050000D02*
X124750000Y-94050000D01*
X123616736Y-109101563D02*
G75*
G03X123620000Y-118899357I1383264J-4898437D01*
G01*
X126383264Y-109101563D02*
G75*
G02X126380000Y-118899357I-1383264J-4898437D01*
G01*
X126383264Y-109101563D02*
G75*
G03X123620000Y-109100643I-1383264J-4898437D01*
G01*
X119950000Y-114000000D02*
X130050000Y-114000000D01*
X119950000Y-113960000D02*
X130050000Y-113960000D01*
X119950000Y-113920000D02*
X130050000Y-113920000D01*
X119951000Y-113880000D02*
X130049000Y-113880000D01*
X119952000Y-113840000D02*
X130048000Y-113840000D01*
X119953000Y-113800000D02*
X130047000Y-113800000D01*
X119955000Y-113760000D02*
X130045000Y-113760000D01*
X119957000Y-113720000D02*
X130043000Y-113720000D01*
X119960000Y-113680000D02*
X130040000Y-113680000D01*
X119962000Y-113640000D02*
X130038000Y-113640000D01*
X119965000Y-113600000D02*
X130035000Y-113600000D01*
X119969000Y-113560000D02*
X130031000Y-113560000D01*
X119972000Y-113520000D02*
X130028000Y-113520000D01*
X119976000Y-113480000D02*
X130024000Y-113480000D01*
X119980000Y-113440000D02*
X130020000Y-113440000D01*
X119985000Y-113400000D02*
X130015000Y-113400000D01*
X119990000Y-113360000D02*
X130010000Y-113360000D01*
X119995000Y-113320000D02*
X130005000Y-113320000D01*
X120001000Y-113279000D02*
X129999000Y-113279000D01*
X120007000Y-113239000D02*
X129993000Y-113239000D01*
X120013000Y-113199000D02*
X129987000Y-113199000D01*
X120019000Y-113159000D02*
X129981000Y-113159000D01*
X120026000Y-113119000D02*
X129974000Y-113119000D01*
X120033000Y-113079000D02*
X129967000Y-113079000D01*
X120041000Y-113039000D02*
X129959000Y-113039000D01*
X120049000Y-112999000D02*
X129951000Y-112999000D01*
X120057000Y-112959000D02*
X129943000Y-112959000D01*
X120065000Y-112919000D02*
X129935000Y-112919000D01*
X120074000Y-112879000D02*
X129926000Y-112879000D01*
X120083000Y-112839000D02*
X129917000Y-112839000D01*
X120093000Y-112799000D02*
X129907000Y-112799000D01*
X120103000Y-112759000D02*
X129897000Y-112759000D01*
X120113000Y-112719000D02*
X129887000Y-112719000D01*
X120124000Y-112679000D02*
X123819000Y-112679000D01*
X126181000Y-112679000D02*
X129876000Y-112679000D01*
X120135000Y-112639000D02*
X123819000Y-112639000D01*
X126181000Y-112639000D02*
X129865000Y-112639000D01*
X120146000Y-112599000D02*
X123819000Y-112599000D01*
X126181000Y-112599000D02*
X129854000Y-112599000D01*
X120157000Y-112559000D02*
X123819000Y-112559000D01*
X126181000Y-112559000D02*
X129843000Y-112559000D01*
X120169000Y-112519000D02*
X123819000Y-112519000D01*
X126181000Y-112519000D02*
X129831000Y-112519000D01*
X120182000Y-112479000D02*
X123819000Y-112479000D01*
X126181000Y-112479000D02*
X129818000Y-112479000D01*
X120194000Y-112439000D02*
X123819000Y-112439000D01*
X126181000Y-112439000D02*
X129806000Y-112439000D01*
X120208000Y-112399000D02*
X123819000Y-112399000D01*
X126181000Y-112399000D02*
X129792000Y-112399000D01*
X120221000Y-112359000D02*
X123819000Y-112359000D01*
X126181000Y-112359000D02*
X129779000Y-112359000D01*
X120235000Y-112319000D02*
X123819000Y-112319000D01*
X126181000Y-112319000D02*
X129765000Y-112319000D01*
X120249000Y-112279000D02*
X123819000Y-112279000D01*
X126181000Y-112279000D02*
X129751000Y-112279000D01*
X120263000Y-112239000D02*
X123819000Y-112239000D01*
X126181000Y-112239000D02*
X129737000Y-112239000D01*
X120278000Y-112199000D02*
X123819000Y-112199000D01*
X126181000Y-112199000D02*
X129722000Y-112199000D01*
X120294000Y-112159000D02*
X123819000Y-112159000D01*
X126181000Y-112159000D02*
X129706000Y-112159000D01*
X120309000Y-112119000D02*
X123819000Y-112119000D01*
X126181000Y-112119000D02*
X129691000Y-112119000D01*
X120326000Y-112079000D02*
X123819000Y-112079000D01*
X126181000Y-112079000D02*
X129674000Y-112079000D01*
X120342000Y-112039000D02*
X123819000Y-112039000D01*
X126181000Y-112039000D02*
X129658000Y-112039000D01*
X120359000Y-111999000D02*
X123819000Y-111999000D01*
X126181000Y-111999000D02*
X129641000Y-111999000D01*
X120376000Y-111959000D02*
X123819000Y-111959000D01*
X126181000Y-111959000D02*
X129624000Y-111959000D01*
X120394000Y-111919000D02*
X123819000Y-111919000D01*
X126181000Y-111919000D02*
X129606000Y-111919000D01*
X120412000Y-111879000D02*
X123819000Y-111879000D01*
X126181000Y-111879000D02*
X129588000Y-111879000D01*
X120431000Y-111839000D02*
X123819000Y-111839000D01*
X126181000Y-111839000D02*
X129569000Y-111839000D01*
X120450000Y-111799000D02*
X123819000Y-111799000D01*
X126181000Y-111799000D02*
X129550000Y-111799000D01*
X120469000Y-111759000D02*
X123819000Y-111759000D01*
X126181000Y-111759000D02*
X129531000Y-111759000D01*
X120489000Y-111719000D02*
X123819000Y-111719000D01*
X126181000Y-111719000D02*
X129511000Y-111719000D01*
X120509000Y-111679000D02*
X123819000Y-111679000D01*
X126181000Y-111679000D02*
X129491000Y-111679000D01*
X120530000Y-111639000D02*
X123819000Y-111639000D01*
X126181000Y-111639000D02*
X129470000Y-111639000D01*
X120551000Y-111599000D02*
X123819000Y-111599000D01*
X126181000Y-111599000D02*
X129449000Y-111599000D01*
X120572000Y-111559000D02*
X123819000Y-111559000D01*
X126181000Y-111559000D02*
X129428000Y-111559000D01*
X120595000Y-111519000D02*
X123819000Y-111519000D01*
X126181000Y-111519000D02*
X129405000Y-111519000D01*
X120617000Y-111479000D02*
X123819000Y-111479000D01*
X126181000Y-111479000D02*
X129383000Y-111479000D01*
X120640000Y-111439000D02*
X123819000Y-111439000D01*
X126181000Y-111439000D02*
X129360000Y-111439000D01*
X120664000Y-111399000D02*
X123819000Y-111399000D01*
X126181000Y-111399000D02*
X129336000Y-111399000D01*
X120688000Y-111359000D02*
X123819000Y-111359000D01*
X126181000Y-111359000D02*
X129312000Y-111359000D01*
X120712000Y-111319000D02*
X123819000Y-111319000D01*
X126181000Y-111319000D02*
X129288000Y-111319000D01*
X120737000Y-111279000D02*
X123819000Y-111279000D01*
X126181000Y-111279000D02*
X129263000Y-111279000D01*
X120763000Y-111239000D02*
X123819000Y-111239000D01*
X126181000Y-111239000D02*
X129237000Y-111239000D01*
X120789000Y-111199000D02*
X123819000Y-111199000D01*
X126181000Y-111199000D02*
X129211000Y-111199000D01*
X120815000Y-111159000D02*
X123819000Y-111159000D01*
X126181000Y-111159000D02*
X129185000Y-111159000D01*
X120843000Y-111119000D02*
X123819000Y-111119000D01*
X126181000Y-111119000D02*
X129157000Y-111119000D01*
X120870000Y-111079000D02*
X123819000Y-111079000D01*
X126181000Y-111079000D02*
X129130000Y-111079000D01*
X120899000Y-111039000D02*
X123819000Y-111039000D01*
X126181000Y-111039000D02*
X129101000Y-111039000D01*
X120928000Y-110999000D02*
X123819000Y-110999000D01*
X126181000Y-110999000D02*
X129072000Y-110999000D01*
X120957000Y-110959000D02*
X123819000Y-110959000D01*
X126181000Y-110959000D02*
X129043000Y-110959000D01*
X120987000Y-110919000D02*
X123819000Y-110919000D01*
X126181000Y-110919000D02*
X129013000Y-110919000D01*
X121018000Y-110879000D02*
X123819000Y-110879000D01*
X126181000Y-110879000D02*
X128982000Y-110879000D01*
X121049000Y-110839000D02*
X123819000Y-110839000D01*
X126181000Y-110839000D02*
X128951000Y-110839000D01*
X121081000Y-110799000D02*
X123819000Y-110799000D01*
X126181000Y-110799000D02*
X128919000Y-110799000D01*
X121114000Y-110759000D02*
X123819000Y-110759000D01*
X126181000Y-110759000D02*
X128886000Y-110759000D01*
X121147000Y-110719000D02*
X123819000Y-110719000D01*
X126181000Y-110719000D02*
X128853000Y-110719000D01*
X121181000Y-110679000D02*
X123819000Y-110679000D01*
X126181000Y-110679000D02*
X128819000Y-110679000D01*
X121216000Y-110639000D02*
X123819000Y-110639000D01*
X126181000Y-110639000D02*
X128784000Y-110639000D01*
X121252000Y-110599000D02*
X123819000Y-110599000D01*
X126181000Y-110599000D02*
X128748000Y-110599000D01*
X121288000Y-110559000D02*
X123819000Y-110559000D01*
X126181000Y-110559000D02*
X128712000Y-110559000D01*
X121325000Y-110519000D02*
X123819000Y-110519000D01*
X126181000Y-110519000D02*
X128675000Y-110519000D01*
X121363000Y-110479000D02*
X123819000Y-110479000D01*
X126181000Y-110479000D02*
X128637000Y-110479000D01*
X121402000Y-110439000D02*
X123819000Y-110439000D01*
X126181000Y-110439000D02*
X128598000Y-110439000D01*
X121441000Y-110399000D02*
X123819000Y-110399000D01*
X126181000Y-110399000D02*
X128559000Y-110399000D01*
X121482000Y-110359000D02*
X123819000Y-110359000D01*
X126181000Y-110359000D02*
X128518000Y-110359000D01*
X121523000Y-110319000D02*
X128477000Y-110319000D01*
X121565000Y-110279000D02*
X128435000Y-110279000D01*
X121609000Y-110239000D02*
X128391000Y-110239000D01*
X121653000Y-110199000D02*
X128347000Y-110199000D01*
X121698000Y-110159000D02*
X128302000Y-110159000D01*
X121745000Y-110119000D02*
X128255000Y-110119000D01*
X121793000Y-110079000D02*
X128207000Y-110079000D01*
X121842000Y-110039000D02*
X128158000Y-110039000D01*
X121892000Y-109999000D02*
X128108000Y-109999000D01*
X121943000Y-109959000D02*
X128057000Y-109959000D01*
X121996000Y-109919000D02*
X128004000Y-109919000D01*
X122051000Y-109879000D02*
X127949000Y-109879000D01*
X122106000Y-109839000D02*
X127894000Y-109839000D01*
X122164000Y-109799000D02*
X127836000Y-109799000D01*
X122223000Y-109759000D02*
X127777000Y-109759000D01*
X122285000Y-109719000D02*
X127715000Y-109719000D01*
X122348000Y-109679000D02*
X127652000Y-109679000D01*
X122413000Y-109639000D02*
X127587000Y-109639000D01*
X122481000Y-109599000D02*
X127519000Y-109599000D01*
X122551000Y-109559000D02*
X127449000Y-109559000D01*
X122623000Y-109519000D02*
X127377000Y-109519000D01*
X122699000Y-109479000D02*
X127301000Y-109479000D01*
X122778000Y-109439000D02*
X127222000Y-109439000D01*
X122860000Y-109399000D02*
X127140000Y-109399000D01*
X122947000Y-109359000D02*
X127053000Y-109359000D01*
X123038000Y-109319000D02*
X126962000Y-109319000D01*
X123134000Y-109279000D02*
X126866000Y-109279000D01*
X123237000Y-109239000D02*
X126763000Y-109239000D01*
X123346000Y-109199000D02*
X126654000Y-109199000D01*
X123464000Y-109159000D02*
X126536000Y-109159000D01*
X123593000Y-109119000D02*
X126407000Y-109119000D01*
X123735000Y-109079000D02*
X126265000Y-109079000D01*
X123896000Y-109039000D02*
X126104000Y-109039000D01*
X124087000Y-108999000D02*
X125913000Y-108999000D01*
X124328000Y-108959000D02*
X125672000Y-108959000D01*
X124721000Y-108919000D02*
X125279000Y-108919000D01*
X125000000Y-119200000D02*
X125000000Y-117700000D01*
X124250000Y-118450000D02*
X125750000Y-118450000D01*
X131060000Y-71250000D02*
X128940000Y-71250000D01*
X128940000Y-71250000D02*
X128940000Y-75370000D01*
X128940000Y-75370000D02*
X131060000Y-75370000D01*
X131060000Y-75370000D02*
X131060000Y-71250000D01*
X130000000Y-70480000D02*
X130000000Y-71250000D01*
X130000000Y-76140000D02*
X130000000Y-75370000D01*
X131060000Y-71910000D02*
X128940000Y-71910000D01*
X131060000Y-81250000D02*
X128940000Y-81250000D01*
X128940000Y-81250000D02*
X128940000Y-85370000D01*
X128940000Y-85370000D02*
X131060000Y-85370000D01*
X131060000Y-85370000D02*
X131060000Y-81250000D01*
X130000000Y-80480000D02*
X130000000Y-81250000D01*
X130000000Y-86140000D02*
X130000000Y-85370000D01*
X131060000Y-81910000D02*
X128940000Y-81910000D01*
X127560000Y-71250000D02*
X125440000Y-71250000D01*
X125440000Y-71250000D02*
X125440000Y-75370000D01*
X125440000Y-75370000D02*
X127560000Y-75370000D01*
X127560000Y-75370000D02*
X127560000Y-71250000D01*
X126500000Y-70480000D02*
X126500000Y-71250000D01*
X126500000Y-76140000D02*
X126500000Y-75370000D01*
X127560000Y-71910000D02*
X125440000Y-71910000D01*
X127560000Y-81250000D02*
X125440000Y-81250000D01*
X125440000Y-81250000D02*
X125440000Y-85370000D01*
X125440000Y-85370000D02*
X127560000Y-85370000D01*
X127560000Y-85370000D02*
X127560000Y-81250000D01*
X126500000Y-80480000D02*
X126500000Y-81250000D01*
X126500000Y-86140000D02*
X126500000Y-85370000D01*
X127560000Y-81910000D02*
X125440000Y-81910000D01*
X135400000Y-93470000D02*
X135400000Y-93340000D01*
X135400000Y-93340000D02*
X140720000Y-93340000D01*
X140720000Y-93340000D02*
X140720000Y-93470000D01*
X135400000Y-96030000D02*
X135400000Y-96160000D01*
X135400000Y-96160000D02*
X140720000Y-96160000D01*
X140720000Y-96160000D02*
X140720000Y-96030000D01*
X136240000Y-93340000D02*
X136240000Y-96160000D01*
X140100000Y-112780000D02*
X140100000Y-112910000D01*
X140100000Y-112910000D02*
X134780000Y-112910000D01*
X134780000Y-112910000D02*
X134780000Y-112780000D01*
X140100000Y-110220000D02*
X140100000Y-110090000D01*
X140100000Y-110090000D02*
X134780000Y-110090000D01*
X134780000Y-110090000D02*
X134780000Y-110220000D01*
X139260000Y-112910000D02*
X139260000Y-110090000D01*
X164670000Y-85870000D02*
X167330000Y-85870000D01*
X164670000Y-83270000D02*
X164670000Y-85870000D01*
X167330000Y-83270000D02*
X167330000Y-85870000D01*
X164670000Y-83270000D02*
X167330000Y-83270000D01*
X164670000Y-82000000D02*
X164670000Y-80670000D01*
X164670000Y-80670000D02*
X166000000Y-80670000D01*
X159120000Y-113420000D02*
X159120000Y-123660000D01*
X154479000Y-113420000D02*
X154479000Y-123660000D01*
X159120000Y-113420000D02*
X154479000Y-113420000D01*
X159120000Y-123660000D02*
X154479000Y-123660000D01*
X157610000Y-113420000D02*
X157610000Y-123660000D01*
X159120000Y-116690000D02*
X157610000Y-116690000D01*
X159120000Y-120391000D02*
X157610000Y-120391000D01*
X139900000Y-74980000D02*
X139900000Y-75310000D01*
X139900000Y-75310000D02*
X133480000Y-75310000D01*
X133480000Y-75310000D02*
X133480000Y-74980000D01*
X139900000Y-73020000D02*
X139900000Y-72690000D01*
X139900000Y-72690000D02*
X133480000Y-72690000D01*
X133480000Y-72690000D02*
X133480000Y-73020000D01*
X139900000Y-83980000D02*
X139900000Y-84310000D01*
X139900000Y-84310000D02*
X133480000Y-84310000D01*
X133480000Y-84310000D02*
X133480000Y-83980000D01*
X139900000Y-82020000D02*
X139900000Y-81690000D01*
X139900000Y-81690000D02*
X133480000Y-81690000D01*
X133480000Y-81690000D02*
X133480000Y-82020000D01*
X144710000Y-100160000D02*
X144710000Y-96840000D01*
X144710000Y-96840000D02*
X135590000Y-96840000D01*
X135590000Y-96840000D02*
X135590000Y-100160000D01*
X135590000Y-100160000D02*
X144710000Y-100160000D01*
X145520000Y-98500000D02*
X144710000Y-98500000D01*
X134780000Y-98500000D02*
X135590000Y-98500000D01*
X135540000Y-113340000D02*
X135540000Y-116660000D01*
X135540000Y-116660000D02*
X144660000Y-116660000D01*
X144660000Y-116660000D02*
X144660000Y-113340000D01*
X144660000Y-113340000D02*
X135540000Y-113340000D01*
X134730000Y-115000000D02*
X135540000Y-115000000D01*
X145470000Y-115000000D02*
X144660000Y-115000000D01*
X157310000Y-74170000D02*
G75*
G02X155310000Y-74170000I-1000000J0D01*
G01*
X155310000Y-74170000D02*
X153660000Y-74170000D01*
X153660000Y-74170000D02*
X153660000Y-84450000D01*
X153660000Y-84450000D02*
X158960000Y-84450000D01*
X158960000Y-84450000D02*
X158960000Y-74170000D01*
X158960000Y-74170000D02*
X157310000Y-74170000D01*
X151170000Y-74110000D02*
X151170000Y-84510000D01*
X151170000Y-84510000D02*
X161450000Y-84510000D01*
X161450000Y-84510000D02*
X161450000Y-74110000D01*
X161450000Y-74110000D02*
X151170000Y-74110000D01*
X140560000Y-92810000D02*
X135440000Y-92810000D01*
X140560000Y-90190000D02*
X135440000Y-90190000D01*
X140560000Y-92810000D02*
X140560000Y-92496000D01*
X140560000Y-90504000D02*
X140560000Y-90190000D01*
X135440000Y-92810000D02*
X135440000Y-92496000D01*
X135440000Y-90504000D02*
X135440000Y-90190000D01*
X140650000Y-104480000D02*
X140650000Y-104810000D01*
X140650000Y-104810000D02*
X134230000Y-104810000D01*
X134230000Y-104810000D02*
X134230000Y-104480000D01*
X140650000Y-102520000D02*
X140650000Y-102190000D01*
X140650000Y-102190000D02*
X134230000Y-102190000D01*
X134230000Y-102190000D02*
X134230000Y-102520000D01*
X139350000Y-117520000D02*
X139350000Y-117190000D01*
X139350000Y-117190000D02*
X145770000Y-117190000D01*
X145770000Y-117190000D02*
X145770000Y-117520000D01*
X139350000Y-119480000D02*
X139350000Y-119810000D01*
X139350000Y-119810000D02*
X145770000Y-119810000D01*
X145770000Y-119810000D02*
X145770000Y-119480000D01*
X147060000Y-106940000D02*
X147060000Y-112060000D01*
X144440000Y-106940000D02*
X144440000Y-112060000D01*
X147060000Y-106940000D02*
X146746000Y-106940000D01*
X144754000Y-106940000D02*
X144440000Y-106940000D01*
X147060000Y-112060000D02*
X146746000Y-112060000D01*
X144754000Y-112060000D02*
X144440000Y-112060000D01*
X144690000Y-94560000D02*
X144690000Y-89440000D01*
X147310000Y-94560000D02*
X147310000Y-89440000D01*
X144690000Y-94560000D02*
X145004000Y-94560000D01*
X146996000Y-94560000D02*
X147310000Y-94560000D01*
X144690000Y-89440000D02*
X145004000Y-89440000D01*
X146996000Y-89440000D02*
X147310000Y-89440000D01*
X159370000Y-94170000D02*
X159370000Y-104410000D01*
X154729000Y-94170000D02*
X154729000Y-104410000D01*
X159370000Y-94170000D02*
X154729000Y-94170000D01*
X159370000Y-104410000D02*
X154729000Y-104410000D01*
X157860000Y-94170000D02*
X157860000Y-104410000D01*
X159370000Y-97440000D02*
X157860000Y-97440000D01*
X159370000Y-101141000D02*
X157860000Y-101141000D01*
X142190000Y-132060000D02*
X142190000Y-126940000D01*
X144810000Y-132060000D02*
X144810000Y-126940000D01*
X142190000Y-132060000D02*
X142504000Y-132060000D01*
X144496000Y-132060000D02*
X144810000Y-132060000D01*
X142190000Y-126940000D02*
X142504000Y-126940000D01*
X144496000Y-126940000D02*
X144810000Y-126940000D01*
X142190000Y-139560000D02*
X142190000Y-134440000D01*
X144810000Y-139560000D02*
X144810000Y-134440000D01*
X142190000Y-139560000D02*
X142504000Y-139560000D01*
X144496000Y-139560000D02*
X144810000Y-139560000D01*
X142190000Y-134440000D02*
X142504000Y-134440000D01*
X144496000Y-134440000D02*
X144810000Y-134440000D01*
X135440000Y-132190000D02*
X140560000Y-132190000D01*
X135440000Y-134810000D02*
X140560000Y-134810000D01*
X135440000Y-132190000D02*
X135440000Y-132504000D01*
X135440000Y-134496000D02*
X135440000Y-134810000D01*
X140560000Y-132190000D02*
X140560000Y-132504000D01*
X140560000Y-134496000D02*
X140560000Y-134810000D01*
X145440000Y-140690000D02*
X150560000Y-140690000D01*
X145440000Y-143310000D02*
X150560000Y-143310000D01*
X145440000Y-140690000D02*
X145440000Y-141004000D01*
X145440000Y-142996000D02*
X145440000Y-143310000D01*
X150560000Y-140690000D02*
X150560000Y-141004000D01*
X150560000Y-142996000D02*
X150560000Y-143310000D01*
X163940000Y-132690000D02*
X169060000Y-132690000D01*
X163940000Y-135310000D02*
X169060000Y-135310000D01*
X163940000Y-132690000D02*
X163940000Y-133004000D01*
X163940000Y-134996000D02*
X163940000Y-135310000D01*
X169060000Y-132690000D02*
X169060000Y-133004000D01*
X169060000Y-134996000D02*
X169060000Y-135310000D01*
X127560000Y-126250000D02*
X125440000Y-126250000D01*
X125440000Y-126250000D02*
X125440000Y-130370000D01*
X125440000Y-130370000D02*
X127560000Y-130370000D01*
X127560000Y-130370000D02*
X127560000Y-126250000D01*
X126500000Y-125480000D02*
X126500000Y-126250000D01*
X126500000Y-131140000D02*
X126500000Y-130370000D01*
X127560000Y-126910000D02*
X125440000Y-126910000D01*
X127560000Y-136250000D02*
X125440000Y-136250000D01*
X125440000Y-136250000D02*
X125440000Y-140370000D01*
X125440000Y-140370000D02*
X127560000Y-140370000D01*
X127560000Y-140370000D02*
X127560000Y-136250000D01*
X126500000Y-135480000D02*
X126500000Y-136250000D01*
X126500000Y-141140000D02*
X126500000Y-140370000D01*
X127560000Y-136910000D02*
X125440000Y-136910000D01*
X131060000Y-126250000D02*
X128940000Y-126250000D01*
X128940000Y-126250000D02*
X128940000Y-130370000D01*
X128940000Y-130370000D02*
X131060000Y-130370000D01*
X131060000Y-130370000D02*
X131060000Y-126250000D01*
X130000000Y-125480000D02*
X130000000Y-126250000D01*
X130000000Y-131140000D02*
X130000000Y-130370000D01*
X131060000Y-126910000D02*
X128940000Y-126910000D01*
X131060000Y-136250000D02*
X128940000Y-136250000D01*
X128940000Y-136250000D02*
X128940000Y-140370000D01*
X128940000Y-140370000D02*
X131060000Y-140370000D01*
X131060000Y-140370000D02*
X131060000Y-136250000D01*
X130000000Y-135480000D02*
X130000000Y-136250000D01*
X130000000Y-141140000D02*
X130000000Y-140370000D01*
X131060000Y-136910000D02*
X128940000Y-136910000D01*
X164170000Y-141870000D02*
X166830000Y-141870000D01*
X164170000Y-139270000D02*
X164170000Y-141870000D01*
X166830000Y-139270000D02*
X166830000Y-141870000D01*
X164170000Y-139270000D02*
X166830000Y-139270000D01*
X164170000Y-138000000D02*
X164170000Y-136670000D01*
X164170000Y-136670000D02*
X165500000Y-136670000D01*
X139900000Y-129980000D02*
X139900000Y-130310000D01*
X139900000Y-130310000D02*
X133480000Y-130310000D01*
X133480000Y-130310000D02*
X133480000Y-129980000D01*
X139900000Y-128020000D02*
X139900000Y-127690000D01*
X139900000Y-127690000D02*
X133480000Y-127690000D01*
X133480000Y-127690000D02*
X133480000Y-128020000D01*
X139900000Y-138980000D02*
X139900000Y-139310000D01*
X139900000Y-139310000D02*
X133480000Y-139310000D01*
X133480000Y-139310000D02*
X133480000Y-138980000D01*
X139900000Y-137020000D02*
X139900000Y-136690000D01*
X139900000Y-136690000D02*
X133480000Y-136690000D01*
X133480000Y-136690000D02*
X133480000Y-137020000D01*
X157810000Y-131670000D02*
G75*
G02X155810000Y-131670000I-1000000J0D01*
G01*
X155810000Y-131670000D02*
X154160000Y-131670000D01*
X154160000Y-131670000D02*
X154160000Y-141950000D01*
X154160000Y-141950000D02*
X159460000Y-141950000D01*
X159460000Y-141950000D02*
X159460000Y-131670000D01*
X159460000Y-131670000D02*
X157810000Y-131670000D01*
X151670000Y-131610000D02*
X151670000Y-142010000D01*
X151670000Y-142010000D02*
X161950000Y-142010000D01*
X161950000Y-142010000D02*
X161950000Y-131610000D01*
X161950000Y-131610000D02*
X151670000Y-131610000D01*
X107286000Y-62000000D02*
G75*
G03X107286000Y-62000000I-2286000J0D01*
G01*
X186286000Y-62000000D02*
G75*
G03X186286000Y-62000000I-2286000J0D01*
G01*
X107286000Y-149000000D02*
G75*
G03X107286000Y-149000000I-2286000J0D01*
G01*
X186286000Y-149000000D02*
G75*
G03X186286000Y-149000000I-2286000J0D01*
G01*
X175000000Y-85700000D02*
X177000000Y-85700000D01*
X175000000Y-92300000D02*
X177000000Y-92300000D01*
X179300000Y-88000000D02*
X179300000Y-90000000D01*
X172700000Y-88000000D02*
X172700000Y-90000000D01*
X174250000Y-144200000D02*
X176250000Y-144200000D01*
X174250000Y-150800000D02*
X176250000Y-150800000D01*
X178550000Y-146500000D02*
X178550000Y-148500000D01*
X171950000Y-146500000D02*
X171950000Y-148500000D01*
D15*
X102880000Y-84350000D02*
X121930000Y-84350000D01*
X121930000Y-84350000D02*
X121930000Y-71650000D01*
X121930000Y-71650000D02*
X102880000Y-71650000D01*
X102880000Y-71650000D02*
X102880000Y-84350000D01*
X102880000Y-139350000D02*
X121930000Y-139350000D01*
X121930000Y-139350000D02*
X121930000Y-126650000D01*
X121930000Y-126650000D02*
X102880000Y-126650000D01*
X102880000Y-126650000D02*
X102880000Y-139350000D01*
D14*
X153083149Y-70177445D02*
G75*
G03X160916082Y-70180000I3916851J1177445D01*
G01*
X153083149Y-67822555D02*
G75*
G02X160916082Y-67820000I3916851J-1177445D01*
G01*
X153083149Y-67822555D02*
G75*
G03X153083918Y-70180000I3916851J-1177445D01*
G01*
X157000000Y-73050000D02*
X157000000Y-64950000D01*
X156960000Y-73050000D02*
X156960000Y-64950000D01*
X156920000Y-73050000D02*
X156920000Y-64950000D01*
X156880000Y-73049000D02*
X156880000Y-64951000D01*
X156840000Y-73047000D02*
X156840000Y-64953000D01*
X156800000Y-73046000D02*
X156800000Y-64954000D01*
X156760000Y-73043000D02*
X156760000Y-64957000D01*
X156720000Y-73041000D02*
X156720000Y-64959000D01*
X156680000Y-73038000D02*
X156680000Y-64962000D01*
X156640000Y-73035000D02*
X156640000Y-64965000D01*
X156600000Y-73031000D02*
X156600000Y-64969000D01*
X156560000Y-73027000D02*
X156560000Y-64973000D01*
X156520000Y-73022000D02*
X156520000Y-64978000D01*
X156480000Y-73017000D02*
X156480000Y-64983000D01*
X156440000Y-73012000D02*
X156440000Y-64988000D01*
X156400000Y-73006000D02*
X156400000Y-64994000D01*
X156360000Y-73000000D02*
X156360000Y-65000000D01*
X156320000Y-72994000D02*
X156320000Y-65006000D01*
X156279000Y-72987000D02*
X156279000Y-65013000D01*
X156239000Y-72979000D02*
X156239000Y-65021000D01*
X156199000Y-72971000D02*
X156199000Y-65029000D01*
X156159000Y-72963000D02*
X156159000Y-65037000D01*
X156119000Y-72955000D02*
X156119000Y-65045000D01*
X156079000Y-72946000D02*
X156079000Y-65054000D01*
X156039000Y-72936000D02*
X156039000Y-65064000D01*
X155999000Y-72926000D02*
X155999000Y-65074000D01*
X155959000Y-72916000D02*
X155959000Y-65084000D01*
X155919000Y-72905000D02*
X155919000Y-65095000D01*
X155879000Y-72894000D02*
X155879000Y-65106000D01*
X155839000Y-72883000D02*
X155839000Y-65117000D01*
X155799000Y-72870000D02*
X155799000Y-65130000D01*
X155759000Y-72858000D02*
X155759000Y-65142000D01*
X155719000Y-72845000D02*
X155719000Y-65155000D01*
X155679000Y-72832000D02*
X155679000Y-65168000D01*
X155639000Y-72818000D02*
X155639000Y-65182000D01*
X155599000Y-72803000D02*
X155599000Y-65197000D01*
X155559000Y-72789000D02*
X155559000Y-65211000D01*
X155519000Y-72773000D02*
X155519000Y-65227000D01*
X155479000Y-72758000D02*
X155479000Y-69980000D01*
X155479000Y-68020000D02*
X155479000Y-65242000D01*
X155439000Y-72741000D02*
X155439000Y-69980000D01*
X155439000Y-68020000D02*
X155439000Y-65259000D01*
X155399000Y-72725000D02*
X155399000Y-69980000D01*
X155399000Y-68020000D02*
X155399000Y-65275000D01*
X155359000Y-72707000D02*
X155359000Y-69980000D01*
X155359000Y-68020000D02*
X155359000Y-65293000D01*
X155319000Y-72690000D02*
X155319000Y-69980000D01*
X155319000Y-68020000D02*
X155319000Y-65310000D01*
X155279000Y-72671000D02*
X155279000Y-69980000D01*
X155279000Y-68020000D02*
X155279000Y-65329000D01*
X155239000Y-72652000D02*
X155239000Y-69980000D01*
X155239000Y-68020000D02*
X155239000Y-65348000D01*
X155199000Y-72633000D02*
X155199000Y-69980000D01*
X155199000Y-68020000D02*
X155199000Y-65367000D01*
X155159000Y-72613000D02*
X155159000Y-69980000D01*
X155159000Y-68020000D02*
X155159000Y-65387000D01*
X155119000Y-72593000D02*
X155119000Y-69980000D01*
X155119000Y-68020000D02*
X155119000Y-65407000D01*
X155079000Y-72572000D02*
X155079000Y-69980000D01*
X155079000Y-68020000D02*
X155079000Y-65428000D01*
X155039000Y-72550000D02*
X155039000Y-69980000D01*
X155039000Y-68020000D02*
X155039000Y-65450000D01*
X154999000Y-72528000D02*
X154999000Y-69980000D01*
X154999000Y-68020000D02*
X154999000Y-65472000D01*
X154959000Y-72505000D02*
X154959000Y-69980000D01*
X154959000Y-68020000D02*
X154959000Y-65495000D01*
X154919000Y-72482000D02*
X154919000Y-69980000D01*
X154919000Y-68020000D02*
X154919000Y-65518000D01*
X154879000Y-72458000D02*
X154879000Y-69980000D01*
X154879000Y-68020000D02*
X154879000Y-65542000D01*
X154839000Y-72434000D02*
X154839000Y-69980000D01*
X154839000Y-68020000D02*
X154839000Y-65566000D01*
X154799000Y-72408000D02*
X154799000Y-69980000D01*
X154799000Y-68020000D02*
X154799000Y-65592000D01*
X154759000Y-72383000D02*
X154759000Y-69980000D01*
X154759000Y-68020000D02*
X154759000Y-65617000D01*
X154719000Y-72356000D02*
X154719000Y-69980000D01*
X154719000Y-68020000D02*
X154719000Y-65644000D01*
X154679000Y-72329000D02*
X154679000Y-69980000D01*
X154679000Y-68020000D02*
X154679000Y-65671000D01*
X154639000Y-72301000D02*
X154639000Y-69980000D01*
X154639000Y-68020000D02*
X154639000Y-65699000D01*
X154599000Y-72272000D02*
X154599000Y-69980000D01*
X154599000Y-68020000D02*
X154599000Y-65728000D01*
X154559000Y-72243000D02*
X154559000Y-69980000D01*
X154559000Y-68020000D02*
X154559000Y-65757000D01*
X154519000Y-72213000D02*
X154519000Y-69980000D01*
X154519000Y-68020000D02*
X154519000Y-65787000D01*
X154479000Y-72182000D02*
X154479000Y-69980000D01*
X154479000Y-68020000D02*
X154479000Y-65818000D01*
X154439000Y-72150000D02*
X154439000Y-69980000D01*
X154439000Y-68020000D02*
X154439000Y-65850000D01*
X154399000Y-72118000D02*
X154399000Y-69980000D01*
X154399000Y-68020000D02*
X154399000Y-65882000D01*
X154359000Y-72084000D02*
X154359000Y-69980000D01*
X154359000Y-68020000D02*
X154359000Y-65916000D01*
X154319000Y-72050000D02*
X154319000Y-69980000D01*
X154319000Y-68020000D02*
X154319000Y-65950000D01*
X154279000Y-72015000D02*
X154279000Y-69980000D01*
X154279000Y-68020000D02*
X154279000Y-65985000D01*
X154239000Y-71979000D02*
X154239000Y-69980000D01*
X154239000Y-68020000D02*
X154239000Y-66021000D01*
X154199000Y-71942000D02*
X154199000Y-69980000D01*
X154199000Y-68020000D02*
X154199000Y-66058000D01*
X154159000Y-71904000D02*
X154159000Y-69980000D01*
X154159000Y-68020000D02*
X154159000Y-66096000D01*
X154119000Y-71865000D02*
X154119000Y-69980000D01*
X154119000Y-68020000D02*
X154119000Y-66135000D01*
X154079000Y-71824000D02*
X154079000Y-69980000D01*
X154079000Y-68020000D02*
X154079000Y-66176000D01*
X154039000Y-71783000D02*
X154039000Y-69980000D01*
X154039000Y-68020000D02*
X154039000Y-66217000D01*
X153999000Y-71740000D02*
X153999000Y-69980000D01*
X153999000Y-68020000D02*
X153999000Y-66260000D01*
X153959000Y-71697000D02*
X153959000Y-69980000D01*
X153959000Y-68020000D02*
X153959000Y-66303000D01*
X153919000Y-71652000D02*
X153919000Y-69980000D01*
X153919000Y-68020000D02*
X153919000Y-66348000D01*
X153879000Y-71605000D02*
X153879000Y-69980000D01*
X153879000Y-68020000D02*
X153879000Y-66395000D01*
X153839000Y-71557000D02*
X153839000Y-69980000D01*
X153839000Y-68020000D02*
X153839000Y-66443000D01*
X153799000Y-71508000D02*
X153799000Y-69980000D01*
X153799000Y-68020000D02*
X153799000Y-66492000D01*
X153759000Y-71457000D02*
X153759000Y-69980000D01*
X153759000Y-68020000D02*
X153759000Y-66543000D01*
X153719000Y-71404000D02*
X153719000Y-69980000D01*
X153719000Y-68020000D02*
X153719000Y-66596000D01*
X153679000Y-71349000D02*
X153679000Y-69980000D01*
X153679000Y-68020000D02*
X153679000Y-66651000D01*
X153639000Y-71293000D02*
X153639000Y-69980000D01*
X153639000Y-68020000D02*
X153639000Y-66707000D01*
X153599000Y-71234000D02*
X153599000Y-69980000D01*
X153599000Y-68020000D02*
X153599000Y-66766000D01*
X153559000Y-71173000D02*
X153559000Y-69980000D01*
X153559000Y-68020000D02*
X153559000Y-66827000D01*
X153519000Y-71109000D02*
X153519000Y-66891000D01*
X153479000Y-71043000D02*
X153479000Y-66957000D01*
X153439000Y-70974000D02*
X153439000Y-67026000D01*
X153399000Y-70902000D02*
X153399000Y-67098000D01*
X153359000Y-70826000D02*
X153359000Y-67174000D01*
X153319000Y-70745000D02*
X153319000Y-67255000D01*
X153279000Y-70660000D02*
X153279000Y-67340000D01*
X153239000Y-70570000D02*
X153239000Y-67430000D01*
X153199000Y-70473000D02*
X153199000Y-67527000D01*
X153159000Y-70369000D02*
X153159000Y-67631000D01*
X153119000Y-70254000D02*
X153119000Y-67746000D01*
X153079000Y-70127000D02*
X153079000Y-67873000D01*
X153039000Y-69983000D02*
X153039000Y-68017000D01*
X152999000Y-69814000D02*
X152999000Y-68186000D01*
X152959000Y-69598000D02*
X152959000Y-68402000D01*
X152919000Y-69246000D02*
X152919000Y-68754000D01*
X161700000Y-69000000D02*
X160500000Y-69000000D01*
X161100000Y-69650000D02*
X161100000Y-68350000D01*
X161166851Y-145572555D02*
G75*
G03X153333918Y-145570000I-3916851J-1177445D01*
G01*
X161166851Y-147927445D02*
G75*
G02X153333918Y-147930000I-3916851J1177445D01*
G01*
X161166851Y-147927445D02*
G75*
G03X161166082Y-145570000I-3916851J1177445D01*
G01*
X157250000Y-142700000D02*
X157250000Y-150800000D01*
X157290000Y-142700000D02*
X157290000Y-150800000D01*
X157330000Y-142700000D02*
X157330000Y-150800000D01*
X157370000Y-142701000D02*
X157370000Y-150799000D01*
X157410000Y-142703000D02*
X157410000Y-150797000D01*
X157450000Y-142704000D02*
X157450000Y-150796000D01*
X157490000Y-142707000D02*
X157490000Y-150793000D01*
X157530000Y-142709000D02*
X157530000Y-150791000D01*
X157570000Y-142712000D02*
X157570000Y-150788000D01*
X157610000Y-142715000D02*
X157610000Y-150785000D01*
X157650000Y-142719000D02*
X157650000Y-150781000D01*
X157690000Y-142723000D02*
X157690000Y-150777000D01*
X157730000Y-142728000D02*
X157730000Y-150772000D01*
X157770000Y-142733000D02*
X157770000Y-150767000D01*
X157810000Y-142738000D02*
X157810000Y-150762000D01*
X157850000Y-142744000D02*
X157850000Y-150756000D01*
X157890000Y-142750000D02*
X157890000Y-150750000D01*
X157930000Y-142756000D02*
X157930000Y-150744000D01*
X157971000Y-142763000D02*
X157971000Y-150737000D01*
X158011000Y-142771000D02*
X158011000Y-150729000D01*
X158051000Y-142779000D02*
X158051000Y-150721000D01*
X158091000Y-142787000D02*
X158091000Y-150713000D01*
X158131000Y-142795000D02*
X158131000Y-150705000D01*
X158171000Y-142804000D02*
X158171000Y-150696000D01*
X158211000Y-142814000D02*
X158211000Y-150686000D01*
X158251000Y-142824000D02*
X158251000Y-150676000D01*
X158291000Y-142834000D02*
X158291000Y-150666000D01*
X158331000Y-142845000D02*
X158331000Y-150655000D01*
X158371000Y-142856000D02*
X158371000Y-150644000D01*
X158411000Y-142867000D02*
X158411000Y-150633000D01*
X158451000Y-142880000D02*
X158451000Y-150620000D01*
X158491000Y-142892000D02*
X158491000Y-150608000D01*
X158531000Y-142905000D02*
X158531000Y-150595000D01*
X158571000Y-142918000D02*
X158571000Y-150582000D01*
X158611000Y-142932000D02*
X158611000Y-150568000D01*
X158651000Y-142947000D02*
X158651000Y-150553000D01*
X158691000Y-142961000D02*
X158691000Y-150539000D01*
X158731000Y-142977000D02*
X158731000Y-150523000D01*
X158771000Y-142992000D02*
X158771000Y-145770000D01*
X158771000Y-147730000D02*
X158771000Y-150508000D01*
X158811000Y-143009000D02*
X158811000Y-145770000D01*
X158811000Y-147730000D02*
X158811000Y-150491000D01*
X158851000Y-143025000D02*
X158851000Y-145770000D01*
X158851000Y-147730000D02*
X158851000Y-150475000D01*
X158891000Y-143043000D02*
X158891000Y-145770000D01*
X158891000Y-147730000D02*
X158891000Y-150457000D01*
X158931000Y-143060000D02*
X158931000Y-145770000D01*
X158931000Y-147730000D02*
X158931000Y-150440000D01*
X158971000Y-143079000D02*
X158971000Y-145770000D01*
X158971000Y-147730000D02*
X158971000Y-150421000D01*
X159011000Y-143098000D02*
X159011000Y-145770000D01*
X159011000Y-147730000D02*
X159011000Y-150402000D01*
X159051000Y-143117000D02*
X159051000Y-145770000D01*
X159051000Y-147730000D02*
X159051000Y-150383000D01*
X159091000Y-143137000D02*
X159091000Y-145770000D01*
X159091000Y-147730000D02*
X159091000Y-150363000D01*
X159131000Y-143157000D02*
X159131000Y-145770000D01*
X159131000Y-147730000D02*
X159131000Y-150343000D01*
X159171000Y-143178000D02*
X159171000Y-145770000D01*
X159171000Y-147730000D02*
X159171000Y-150322000D01*
X159211000Y-143200000D02*
X159211000Y-145770000D01*
X159211000Y-147730000D02*
X159211000Y-150300000D01*
X159251000Y-143222000D02*
X159251000Y-145770000D01*
X159251000Y-147730000D02*
X159251000Y-150278000D01*
X159291000Y-143245000D02*
X159291000Y-145770000D01*
X159291000Y-147730000D02*
X159291000Y-150255000D01*
X159331000Y-143268000D02*
X159331000Y-145770000D01*
X159331000Y-147730000D02*
X159331000Y-150232000D01*
X159371000Y-143292000D02*
X159371000Y-145770000D01*
X159371000Y-147730000D02*
X159371000Y-150208000D01*
X159411000Y-143316000D02*
X159411000Y-145770000D01*
X159411000Y-147730000D02*
X159411000Y-150184000D01*
X159451000Y-143342000D02*
X159451000Y-145770000D01*
X159451000Y-147730000D02*
X159451000Y-150158000D01*
X159491000Y-143367000D02*
X159491000Y-145770000D01*
X159491000Y-147730000D02*
X159491000Y-150133000D01*
X159531000Y-143394000D02*
X159531000Y-145770000D01*
X159531000Y-147730000D02*
X159531000Y-150106000D01*
X159571000Y-143421000D02*
X159571000Y-145770000D01*
X159571000Y-147730000D02*
X159571000Y-150079000D01*
X159611000Y-143449000D02*
X159611000Y-145770000D01*
X159611000Y-147730000D02*
X159611000Y-150051000D01*
X159651000Y-143478000D02*
X159651000Y-145770000D01*
X159651000Y-147730000D02*
X159651000Y-150022000D01*
X159691000Y-143507000D02*
X159691000Y-145770000D01*
X159691000Y-147730000D02*
X159691000Y-149993000D01*
X159731000Y-143537000D02*
X159731000Y-145770000D01*
X159731000Y-147730000D02*
X159731000Y-149963000D01*
X159771000Y-143568000D02*
X159771000Y-145770000D01*
X159771000Y-147730000D02*
X159771000Y-149932000D01*
X159811000Y-143600000D02*
X159811000Y-145770000D01*
X159811000Y-147730000D02*
X159811000Y-149900000D01*
X159851000Y-143632000D02*
X159851000Y-145770000D01*
X159851000Y-147730000D02*
X159851000Y-149868000D01*
X159891000Y-143666000D02*
X159891000Y-145770000D01*
X159891000Y-147730000D02*
X159891000Y-149834000D01*
X159931000Y-143700000D02*
X159931000Y-145770000D01*
X159931000Y-147730000D02*
X159931000Y-149800000D01*
X159971000Y-143735000D02*
X159971000Y-145770000D01*
X159971000Y-147730000D02*
X159971000Y-149765000D01*
X160011000Y-143771000D02*
X160011000Y-145770000D01*
X160011000Y-147730000D02*
X160011000Y-149729000D01*
X160051000Y-143808000D02*
X160051000Y-145770000D01*
X160051000Y-147730000D02*
X160051000Y-149692000D01*
X160091000Y-143846000D02*
X160091000Y-145770000D01*
X160091000Y-147730000D02*
X160091000Y-149654000D01*
X160131000Y-143885000D02*
X160131000Y-145770000D01*
X160131000Y-147730000D02*
X160131000Y-149615000D01*
X160171000Y-143926000D02*
X160171000Y-145770000D01*
X160171000Y-147730000D02*
X160171000Y-149574000D01*
X160211000Y-143967000D02*
X160211000Y-145770000D01*
X160211000Y-147730000D02*
X160211000Y-149533000D01*
X160251000Y-144010000D02*
X160251000Y-145770000D01*
X160251000Y-147730000D02*
X160251000Y-149490000D01*
X160291000Y-144053000D02*
X160291000Y-145770000D01*
X160291000Y-147730000D02*
X160291000Y-149447000D01*
X160331000Y-144098000D02*
X160331000Y-145770000D01*
X160331000Y-147730000D02*
X160331000Y-149402000D01*
X160371000Y-144145000D02*
X160371000Y-145770000D01*
X160371000Y-147730000D02*
X160371000Y-149355000D01*
X160411000Y-144193000D02*
X160411000Y-145770000D01*
X160411000Y-147730000D02*
X160411000Y-149307000D01*
X160451000Y-144242000D02*
X160451000Y-145770000D01*
X160451000Y-147730000D02*
X160451000Y-149258000D01*
X160491000Y-144293000D02*
X160491000Y-145770000D01*
X160491000Y-147730000D02*
X160491000Y-149207000D01*
X160531000Y-144346000D02*
X160531000Y-145770000D01*
X160531000Y-147730000D02*
X160531000Y-149154000D01*
X160571000Y-144401000D02*
X160571000Y-145770000D01*
X160571000Y-147730000D02*
X160571000Y-149099000D01*
X160611000Y-144457000D02*
X160611000Y-145770000D01*
X160611000Y-147730000D02*
X160611000Y-149043000D01*
X160651000Y-144516000D02*
X160651000Y-145770000D01*
X160651000Y-147730000D02*
X160651000Y-148984000D01*
X160691000Y-144577000D02*
X160691000Y-145770000D01*
X160691000Y-147730000D02*
X160691000Y-148923000D01*
X160731000Y-144641000D02*
X160731000Y-148859000D01*
X160771000Y-144707000D02*
X160771000Y-148793000D01*
X160811000Y-144776000D02*
X160811000Y-148724000D01*
X160851000Y-144848000D02*
X160851000Y-148652000D01*
X160891000Y-144924000D02*
X160891000Y-148576000D01*
X160931000Y-145005000D02*
X160931000Y-148495000D01*
X160971000Y-145090000D02*
X160971000Y-148410000D01*
X161011000Y-145180000D02*
X161011000Y-148320000D01*
X161051000Y-145277000D02*
X161051000Y-148223000D01*
X161091000Y-145381000D02*
X161091000Y-148119000D01*
X161131000Y-145496000D02*
X161131000Y-148004000D01*
X161171000Y-145623000D02*
X161171000Y-147877000D01*
X161211000Y-145767000D02*
X161211000Y-147733000D01*
X161251000Y-145936000D02*
X161251000Y-147564000D01*
X161291000Y-146152000D02*
X161291000Y-147348000D01*
X161331000Y-146504000D02*
X161331000Y-146996000D01*
X152550000Y-146750000D02*
X153750000Y-146750000D01*
X153150000Y-146100000D02*
X153150000Y-147400000D01*
X146328608Y-104442335D02*
G75*
G03X146485516Y-101210000I-1078608J1672335D01*
G01*
X144171392Y-104442335D02*
G75*
G02X144014484Y-101210000I1078608J1672335D01*
G01*
X146329837Y-103811130D02*
G75*
G03X146330000Y-101729039I-1079837J1041130D01*
G01*
X144170163Y-103811130D02*
G75*
G02X144170000Y-101729039I1079837J1041130D01*
G01*
X146486000Y-101210000D02*
X146330000Y-101210000D01*
X144170000Y-101210000D02*
X144014000Y-101210000D01*
X134171392Y-118057665D02*
G75*
G03X134014484Y-121290000I1078608J-1672335D01*
G01*
X136328608Y-118057665D02*
G75*
G02X136485516Y-121290000I-1078608J-1672335D01*
G01*
X134170163Y-118688870D02*
G75*
G03X134170000Y-120770961I1079837J-1041130D01*
G01*
X136329837Y-118688870D02*
G75*
G02X136330000Y-120770961I-1079837J-1041130D01*
G01*
X134014000Y-121290000D02*
X134170000Y-121290000D01*
X136330000Y-121290000D02*
X136486000Y-121290000D01*
X137350000Y-69020000D02*
X137350000Y-68690000D01*
X137350000Y-68690000D02*
X143770000Y-68690000D01*
X143770000Y-68690000D02*
X143770000Y-69020000D01*
X137350000Y-70980000D02*
X137350000Y-71310000D01*
X137350000Y-71310000D02*
X143770000Y-71310000D01*
X143770000Y-71310000D02*
X143770000Y-70980000D01*
X146270000Y-136900000D02*
X145940000Y-136900000D01*
X145940000Y-136900000D02*
X145940000Y-130480000D01*
X145940000Y-130480000D02*
X146270000Y-130480000D01*
X148230000Y-136900000D02*
X148560000Y-136900000D01*
X148560000Y-136900000D02*
X148560000Y-130480000D01*
X148560000Y-130480000D02*
X148230000Y-130480000D01*
X109930000Y-60620000D02*
X109930000Y-63280000D01*
X112530000Y-60620000D02*
X109930000Y-60620000D01*
X112530000Y-63280000D02*
X109930000Y-63280000D01*
X112530000Y-60620000D02*
X112530000Y-63280000D01*
X113800000Y-60620000D02*
X115130000Y-60620000D01*
X115130000Y-60620000D02*
X115130000Y-61950000D01*
X109930000Y-147220000D02*
X109930000Y-149880000D01*
X112530000Y-147220000D02*
X109930000Y-147220000D01*
X112530000Y-149880000D02*
X109930000Y-149880000D01*
X112530000Y-147220000D02*
X112530000Y-149880000D01*
X113800000Y-147220000D02*
X115130000Y-147220000D01*
X115130000Y-147220000D02*
X115130000Y-148550000D01*
D10*
X176050000Y-97400000D02*
X179650000Y-97400000D01*
X179650000Y-97400000D02*
X179650000Y-117800000D01*
X179650000Y-117800000D02*
X175850000Y-117800000D01*
D14*
X176060000Y-97460000D02*
X168440000Y-97460000D01*
X168440000Y-117780000D02*
X176060000Y-117780000D01*
X169710000Y-117780000D02*
X169710000Y-97460000D01*
X168440000Y-97460000D02*
X168440000Y-117780000D01*
D10*
X110506000Y-101380000D02*
X114062000Y-101380000D01*
X114062000Y-101380000D02*
X114062000Y-111540000D01*
X114062000Y-111540000D02*
X110506000Y-111540000D01*
D14*
X104410000Y-111540000D02*
X104410000Y-101380000D01*
X103140000Y-111540000D02*
X110760000Y-111540000D01*
X110760000Y-101380000D02*
X103140000Y-101380000D01*
X103140000Y-101380000D02*
X103140000Y-111540000D01*
X179810000Y-59460000D02*
X172190000Y-59460000D01*
X172190000Y-79780000D02*
X179810000Y-79780000D01*
X173460000Y-79780000D02*
X173460000Y-59460000D01*
X179810000Y-59460000D02*
X179810000Y-79780000D01*
X172190000Y-59460000D02*
X172190000Y-79780000D01*
X179810000Y-119710000D02*
X172190000Y-119710000D01*
X172190000Y-140030000D02*
X179810000Y-140030000D01*
X173460000Y-140030000D02*
X173460000Y-119710000D01*
X179810000Y-119710000D02*
X179810000Y-140030000D01*
X172190000Y-119710000D02*
X172190000Y-140030000D01*
D13*
X144357143Y-75666666D02*
X144404762Y-75714285D01*
X144452381Y-75857142D01*
X144452381Y-75952380D01*
X144404762Y-76095238D01*
X144309524Y-76190476D01*
X144214286Y-76238095D01*
X144023810Y-76285714D01*
X143880952Y-76285714D01*
X143690476Y-76238095D01*
X143595238Y-76190476D01*
X143500000Y-76095238D01*
X143452381Y-75952380D01*
X143452381Y-75857142D01*
X143500000Y-75714285D01*
X143547619Y-75666666D01*
X144452381Y-74714285D02*
X144452381Y-75285714D01*
X144452381Y-75000000D02*
X143452381Y-75000000D01*
X143595238Y-75095238D01*
X143690476Y-75190476D01*
X143738095Y-75285714D01*
X144357143Y-82666666D02*
X144404762Y-82714285D01*
X144452381Y-82857142D01*
X144452381Y-82952380D01*
X144404762Y-83095238D01*
X144309524Y-83190476D01*
X144214286Y-83238095D01*
X144023810Y-83285714D01*
X143880952Y-83285714D01*
X143690476Y-83238095D01*
X143595238Y-83190476D01*
X143500000Y-83095238D01*
X143452381Y-82952380D01*
X143452381Y-82857142D01*
X143500000Y-82714285D01*
X143547619Y-82666666D01*
X143547619Y-82285714D02*
X143500000Y-82238095D01*
X143452381Y-82142857D01*
X143452381Y-81904761D01*
X143500000Y-81809523D01*
X143547619Y-81761904D01*
X143642857Y-81714285D01*
X143738095Y-81714285D01*
X143880952Y-81761904D01*
X144452381Y-82333333D01*
X144452381Y-81714285D01*
X138333334Y-78857143D02*
X138285715Y-78904762D01*
X138142858Y-78952381D01*
X138047620Y-78952381D01*
X137904762Y-78904762D01*
X137809524Y-78809524D01*
X137761905Y-78714286D01*
X137714286Y-78523810D01*
X137714286Y-78380952D01*
X137761905Y-78190476D01*
X137809524Y-78095238D01*
X137904762Y-78000000D01*
X138047620Y-77952381D01*
X138142858Y-77952381D01*
X138285715Y-78000000D01*
X138333334Y-78047619D01*
X138666667Y-77952381D02*
X139285715Y-77952381D01*
X138952381Y-78333333D01*
X139095239Y-78333333D01*
X139190477Y-78380952D01*
X139238096Y-78428571D01*
X139285715Y-78523810D01*
X139285715Y-78761905D01*
X139238096Y-78857143D01*
X139190477Y-78904762D01*
X139095239Y-78952381D01*
X138809524Y-78952381D01*
X138714286Y-78904762D01*
X138666667Y-78857143D01*
X149357143Y-84166666D02*
X149404762Y-84214285D01*
X149452381Y-84357142D01*
X149452381Y-84452380D01*
X149404762Y-84595238D01*
X149309524Y-84690476D01*
X149214286Y-84738095D01*
X149023810Y-84785714D01*
X148880952Y-84785714D01*
X148690476Y-84738095D01*
X148595238Y-84690476D01*
X148500000Y-84595238D01*
X148452381Y-84452380D01*
X148452381Y-84357142D01*
X148500000Y-84214285D01*
X148547619Y-84166666D01*
X148785714Y-83309523D02*
X149452381Y-83309523D01*
X148404762Y-83547619D02*
X149119048Y-83785714D01*
X149119048Y-83166666D01*
X165333334Y-78357143D02*
X165285715Y-78404762D01*
X165142858Y-78452381D01*
X165047620Y-78452381D01*
X164904762Y-78404762D01*
X164809524Y-78309524D01*
X164761905Y-78214286D01*
X164714286Y-78023810D01*
X164714286Y-77880952D01*
X164761905Y-77690476D01*
X164809524Y-77595238D01*
X164904762Y-77500000D01*
X165047620Y-77452381D01*
X165142858Y-77452381D01*
X165285715Y-77500000D01*
X165333334Y-77547619D01*
X166190477Y-77452381D02*
X166000000Y-77452381D01*
X165904762Y-77500000D01*
X165857143Y-77547619D01*
X165761905Y-77690476D01*
X165714286Y-77880952D01*
X165714286Y-78261905D01*
X165761905Y-78357143D01*
X165809524Y-78404762D01*
X165904762Y-78452381D01*
X166095239Y-78452381D01*
X166190477Y-78404762D01*
X166238096Y-78357143D01*
X166285715Y-78261905D01*
X166285715Y-78023810D01*
X166238096Y-77928571D01*
X166190477Y-77880952D01*
X166095239Y-77833333D01*
X165904762Y-77833333D01*
X165809524Y-77880952D01*
X165761905Y-77928571D01*
X165714286Y-78023810D01*
X136083334Y-108357143D02*
X136035715Y-108404762D01*
X135892858Y-108452381D01*
X135797620Y-108452381D01*
X135654762Y-108404762D01*
X135559524Y-108309524D01*
X135511905Y-108214286D01*
X135464286Y-108023810D01*
X135464286Y-107880952D01*
X135511905Y-107690476D01*
X135559524Y-107595238D01*
X135654762Y-107500000D01*
X135797620Y-107452381D01*
X135892858Y-107452381D01*
X136035715Y-107500000D01*
X136083334Y-107547619D01*
X136416667Y-107452381D02*
X137083334Y-107452381D01*
X136654762Y-108452381D01*
X121607143Y-94666666D02*
X121654762Y-94714285D01*
X121702381Y-94857142D01*
X121702381Y-94952380D01*
X121654762Y-95095238D01*
X121559524Y-95190476D01*
X121464286Y-95238095D01*
X121273810Y-95285714D01*
X121130952Y-95285714D01*
X120940476Y-95238095D01*
X120845238Y-95190476D01*
X120750000Y-95095238D01*
X120702381Y-94952380D01*
X120702381Y-94857142D01*
X120750000Y-94714285D01*
X120797619Y-94666666D01*
X121130952Y-94095238D02*
X121083333Y-94190476D01*
X121035714Y-94238095D01*
X120940476Y-94285714D01*
X120892857Y-94285714D01*
X120797619Y-94238095D01*
X120750000Y-94190476D01*
X120702381Y-94095238D01*
X120702381Y-93904761D01*
X120750000Y-93809523D01*
X120797619Y-93761904D01*
X120892857Y-93714285D01*
X120940476Y-93714285D01*
X121035714Y-93761904D01*
X121083333Y-93809523D01*
X121130952Y-93904761D01*
X121130952Y-94095238D01*
X121178571Y-94190476D01*
X121226190Y-94238095D01*
X121321429Y-94285714D01*
X121511905Y-94285714D01*
X121607143Y-94238095D01*
X121654762Y-94190476D01*
X121702381Y-94095238D01*
X121702381Y-93904761D01*
X121654762Y-93809523D01*
X121607143Y-93761904D01*
X121511905Y-93714285D01*
X121321429Y-93714285D01*
X121226190Y-93761904D01*
X121178571Y-93809523D01*
X121130952Y-93904761D01*
X121107143Y-118166666D02*
X121154762Y-118214285D01*
X121202381Y-118357142D01*
X121202381Y-118452380D01*
X121154762Y-118595238D01*
X121059524Y-118690476D01*
X120964286Y-118738095D01*
X120773810Y-118785714D01*
X120630952Y-118785714D01*
X120440476Y-118738095D01*
X120345238Y-118690476D01*
X120250000Y-118595238D01*
X120202381Y-118452380D01*
X120202381Y-118357142D01*
X120250000Y-118214285D01*
X120297619Y-118166666D01*
X121202381Y-117690476D02*
X121202381Y-117500000D01*
X121154762Y-117404761D01*
X121107143Y-117357142D01*
X120964286Y-117261904D01*
X120773810Y-117214285D01*
X120392857Y-117214285D01*
X120297619Y-117261904D01*
X120250000Y-117309523D01*
X120202381Y-117404761D01*
X120202381Y-117595238D01*
X120250000Y-117690476D01*
X120297619Y-117738095D01*
X120392857Y-117785714D01*
X120630952Y-117785714D01*
X120726190Y-117738095D01*
X120773810Y-117690476D01*
X120821429Y-117595238D01*
X120821429Y-117404761D01*
X120773810Y-117309523D01*
X120726190Y-117261904D01*
X120630952Y-117214285D01*
X130452381Y-74238095D02*
X129452381Y-74238095D01*
X129452381Y-74000000D01*
X129500000Y-73857142D01*
X129595238Y-73761904D01*
X129690476Y-73714285D01*
X129880952Y-73666666D01*
X130023810Y-73666666D01*
X130214286Y-73714285D01*
X130309524Y-73761904D01*
X130404762Y-73857142D01*
X130452381Y-74000000D01*
X130452381Y-74238095D01*
X130452381Y-72714285D02*
X130452381Y-73285714D01*
X130452381Y-73000000D02*
X129452381Y-73000000D01*
X129595238Y-73095238D01*
X129690476Y-73190476D01*
X129738095Y-73285714D01*
X130452381Y-84238095D02*
X129452381Y-84238095D01*
X129452381Y-84000000D01*
X129500000Y-83857142D01*
X129595238Y-83761904D01*
X129690476Y-83714285D01*
X129880952Y-83666666D01*
X130023810Y-83666666D01*
X130214286Y-83714285D01*
X130309524Y-83761904D01*
X130404762Y-83857142D01*
X130452381Y-84000000D01*
X130452381Y-84238095D01*
X129547619Y-83285714D02*
X129500000Y-83238095D01*
X129452381Y-83142857D01*
X129452381Y-82904761D01*
X129500000Y-82809523D01*
X129547619Y-82761904D01*
X129642857Y-82714285D01*
X129738095Y-82714285D01*
X129880952Y-82761904D01*
X130452381Y-83333333D01*
X130452381Y-82714285D01*
X126952381Y-74238095D02*
X125952381Y-74238095D01*
X125952381Y-74000000D01*
X126000000Y-73857142D01*
X126095238Y-73761904D01*
X126190476Y-73714285D01*
X126380952Y-73666666D01*
X126523810Y-73666666D01*
X126714286Y-73714285D01*
X126809524Y-73761904D01*
X126904762Y-73857142D01*
X126952381Y-74000000D01*
X126952381Y-74238095D01*
X125952381Y-73333333D02*
X125952381Y-72714285D01*
X126333333Y-73047619D01*
X126333333Y-72904761D01*
X126380952Y-72809523D01*
X126428571Y-72761904D01*
X126523810Y-72714285D01*
X126761905Y-72714285D01*
X126857143Y-72761904D01*
X126904762Y-72809523D01*
X126952381Y-72904761D01*
X126952381Y-73190476D01*
X126904762Y-73285714D01*
X126857143Y-73333333D01*
X126952381Y-84238095D02*
X125952381Y-84238095D01*
X125952381Y-84000000D01*
X126000000Y-83857142D01*
X126095238Y-83761904D01*
X126190476Y-83714285D01*
X126380952Y-83666666D01*
X126523810Y-83666666D01*
X126714286Y-83714285D01*
X126809524Y-83761904D01*
X126904762Y-83857142D01*
X126952381Y-84000000D01*
X126952381Y-84238095D01*
X126285714Y-82809523D02*
X126952381Y-82809523D01*
X125904762Y-83047619D02*
X126619048Y-83285714D01*
X126619048Y-82666666D01*
X137511905Y-95202381D02*
X137511905Y-94202381D01*
X137750000Y-94202381D01*
X137892858Y-94250000D01*
X137988096Y-94345238D01*
X138035715Y-94440476D01*
X138083334Y-94630952D01*
X138083334Y-94773810D01*
X138035715Y-94964286D01*
X137988096Y-95059524D01*
X137892858Y-95154762D01*
X137750000Y-95202381D01*
X137511905Y-95202381D01*
X138988096Y-94202381D02*
X138511905Y-94202381D01*
X138464286Y-94678571D01*
X138511905Y-94630952D01*
X138607143Y-94583333D01*
X138845239Y-94583333D01*
X138940477Y-94630952D01*
X138988096Y-94678571D01*
X139035715Y-94773810D01*
X139035715Y-95011905D01*
X138988096Y-95107143D01*
X138940477Y-95154762D01*
X138845239Y-95202381D01*
X138607143Y-95202381D01*
X138511905Y-95154762D01*
X138464286Y-95107143D01*
X136511905Y-111952381D02*
X136511905Y-110952381D01*
X136750000Y-110952381D01*
X136892858Y-111000000D01*
X136988096Y-111095238D01*
X137035715Y-111190476D01*
X137083334Y-111380952D01*
X137083334Y-111523810D01*
X137035715Y-111714286D01*
X136988096Y-111809524D01*
X136892858Y-111904762D01*
X136750000Y-111952381D01*
X136511905Y-111952381D01*
X137940477Y-110952381D02*
X137750000Y-110952381D01*
X137654762Y-111000000D01*
X137607143Y-111047619D01*
X137511905Y-111190476D01*
X137464286Y-111380952D01*
X137464286Y-111761905D01*
X137511905Y-111857143D01*
X137559524Y-111904762D01*
X137654762Y-111952381D01*
X137845239Y-111952381D01*
X137940477Y-111904762D01*
X137988096Y-111857143D01*
X138035715Y-111761905D01*
X138035715Y-111523810D01*
X137988096Y-111428571D01*
X137940477Y-111380952D01*
X137845239Y-111333333D01*
X137654762Y-111333333D01*
X137559524Y-111380952D01*
X137511905Y-111428571D01*
X137464286Y-111523810D01*
X167952381Y-83833333D02*
X168666667Y-83833333D01*
X168809524Y-83880953D01*
X168904762Y-83976191D01*
X168952381Y-84119048D01*
X168952381Y-84214286D01*
X168952381Y-83357143D02*
X167952381Y-83357143D01*
X167952381Y-82976190D01*
X168000000Y-82880952D01*
X168047619Y-82833333D01*
X168142857Y-82785714D01*
X168285714Y-82785714D01*
X168380952Y-82833333D01*
X168428571Y-82880952D01*
X168476190Y-82976190D01*
X168476190Y-83357143D01*
X168952381Y-81833333D02*
X168952381Y-82404762D01*
X168952381Y-82119048D02*
X167952381Y-82119048D01*
X168095238Y-82214286D01*
X168190476Y-82309524D01*
X168238095Y-82404762D01*
X160667619Y-118635238D02*
X160620000Y-118730476D01*
X160524762Y-118825714D01*
X160381905Y-118968571D01*
X160334286Y-119063810D01*
X160334286Y-119159048D01*
X160572381Y-119111429D02*
X160524762Y-119206667D01*
X160429524Y-119301905D01*
X160239048Y-119349524D01*
X159905714Y-119349524D01*
X159715238Y-119301905D01*
X159620000Y-119206667D01*
X159572381Y-119111429D01*
X159572381Y-118920952D01*
X159620000Y-118825714D01*
X159715238Y-118730476D01*
X159905714Y-118682857D01*
X160239048Y-118682857D01*
X160429524Y-118730476D01*
X160524762Y-118825714D01*
X160572381Y-118920952D01*
X160572381Y-119111429D01*
X160572381Y-117730476D02*
X160572381Y-118301905D01*
X160572381Y-118016191D02*
X159572381Y-118016191D01*
X159715238Y-118111429D01*
X159810476Y-118206667D01*
X159858095Y-118301905D01*
X136333334Y-74452381D02*
X136000000Y-73976190D01*
X135761905Y-74452381D02*
X135761905Y-73452381D01*
X136142858Y-73452381D01*
X136238096Y-73500000D01*
X136285715Y-73547619D01*
X136333334Y-73642857D01*
X136333334Y-73785714D01*
X136285715Y-73880952D01*
X136238096Y-73928571D01*
X136142858Y-73976190D01*
X135761905Y-73976190D01*
X137285715Y-74452381D02*
X136714286Y-74452381D01*
X137000000Y-74452381D02*
X137000000Y-73452381D01*
X136904762Y-73595238D01*
X136809524Y-73690476D01*
X136714286Y-73738095D01*
X136333334Y-83452381D02*
X136000000Y-82976190D01*
X135761905Y-83452381D02*
X135761905Y-82452381D01*
X136142858Y-82452381D01*
X136238096Y-82500000D01*
X136285715Y-82547619D01*
X136333334Y-82642857D01*
X136333334Y-82785714D01*
X136285715Y-82880952D01*
X136238096Y-82928571D01*
X136142858Y-82976190D01*
X135761905Y-82976190D01*
X136714286Y-82547619D02*
X136761905Y-82500000D01*
X136857143Y-82452381D01*
X137095239Y-82452381D01*
X137190477Y-82500000D01*
X137238096Y-82547619D01*
X137285715Y-82642857D01*
X137285715Y-82738095D01*
X137238096Y-82880952D01*
X136666667Y-83452381D01*
X137285715Y-83452381D01*
X139833334Y-98952381D02*
X139500000Y-98476190D01*
X139261905Y-98952381D02*
X139261905Y-97952381D01*
X139642858Y-97952381D01*
X139738096Y-98000000D01*
X139785715Y-98047619D01*
X139833334Y-98142857D01*
X139833334Y-98285714D01*
X139785715Y-98380952D01*
X139738096Y-98428571D01*
X139642858Y-98476190D01*
X139261905Y-98476190D01*
X140166667Y-97952381D02*
X140785715Y-97952381D01*
X140452381Y-98333333D01*
X140595239Y-98333333D01*
X140690477Y-98380952D01*
X140738096Y-98428571D01*
X140785715Y-98523810D01*
X140785715Y-98761905D01*
X140738096Y-98857143D01*
X140690477Y-98904762D01*
X140595239Y-98952381D01*
X140309524Y-98952381D01*
X140214286Y-98904762D01*
X140166667Y-98857143D01*
X140083334Y-115452381D02*
X139750000Y-114976190D01*
X139511905Y-115452381D02*
X139511905Y-114452381D01*
X139892858Y-114452381D01*
X139988096Y-114500000D01*
X140035715Y-114547619D01*
X140083334Y-114642857D01*
X140083334Y-114785714D01*
X140035715Y-114880952D01*
X139988096Y-114928571D01*
X139892858Y-114976190D01*
X139511905Y-114976190D01*
X140940477Y-114785714D02*
X140940477Y-115452381D01*
X140702381Y-114404762D02*
X140464286Y-115119048D01*
X141083334Y-115119048D01*
X155738095Y-82952381D02*
X155738095Y-83761905D01*
X155785714Y-83857143D01*
X155833333Y-83904762D01*
X155928571Y-83952381D01*
X156119048Y-83952381D01*
X156214286Y-83904762D01*
X156261905Y-83857143D01*
X156309524Y-83761905D01*
X156309524Y-82952381D01*
X157309524Y-83952381D02*
X156738095Y-83952381D01*
X157023809Y-83952381D02*
X157023809Y-82952381D01*
X156928571Y-83095238D01*
X156833333Y-83190476D01*
X156738095Y-83238095D01*
X137357143Y-91857143D02*
X137309524Y-91904762D01*
X137166667Y-91952381D01*
X137071429Y-91952381D01*
X136928571Y-91904762D01*
X136833333Y-91809524D01*
X136785714Y-91714286D01*
X136738095Y-91523810D01*
X136738095Y-91380952D01*
X136785714Y-91190476D01*
X136833333Y-91095238D01*
X136928571Y-91000000D01*
X137071429Y-90952381D01*
X137166667Y-90952381D01*
X137309524Y-91000000D01*
X137357143Y-91047619D01*
X138309524Y-91952381D02*
X137738095Y-91952381D01*
X138023809Y-91952381D02*
X138023809Y-90952381D01*
X137928571Y-91095238D01*
X137833333Y-91190476D01*
X137738095Y-91238095D01*
X138928571Y-90952381D02*
X139023810Y-90952381D01*
X139119048Y-91000000D01*
X139166667Y-91047619D01*
X139214286Y-91142857D01*
X139261905Y-91333333D01*
X139261905Y-91571429D01*
X139214286Y-91761905D01*
X139166667Y-91857143D01*
X139119048Y-91904762D01*
X139023810Y-91952381D01*
X138928571Y-91952381D01*
X138833333Y-91904762D01*
X138785714Y-91857143D01*
X138738095Y-91761905D01*
X138690476Y-91571429D01*
X138690476Y-91333333D01*
X138738095Y-91142857D01*
X138785714Y-91047619D01*
X138833333Y-91000000D01*
X138928571Y-90952381D01*
X137083334Y-103952381D02*
X136750000Y-103476190D01*
X136511905Y-103952381D02*
X136511905Y-102952381D01*
X136892858Y-102952381D01*
X136988096Y-103000000D01*
X137035715Y-103047619D01*
X137083334Y-103142857D01*
X137083334Y-103285714D01*
X137035715Y-103380952D01*
X136988096Y-103428571D01*
X136892858Y-103476190D01*
X136511905Y-103476190D01*
X137988096Y-102952381D02*
X137511905Y-102952381D01*
X137464286Y-103428571D01*
X137511905Y-103380952D01*
X137607143Y-103333333D01*
X137845239Y-103333333D01*
X137940477Y-103380952D01*
X137988096Y-103428571D01*
X138035715Y-103523810D01*
X138035715Y-103761905D01*
X137988096Y-103857143D01*
X137940477Y-103904762D01*
X137845239Y-103952381D01*
X137607143Y-103952381D01*
X137511905Y-103904762D01*
X137464286Y-103857143D01*
X142583334Y-118952381D02*
X142250000Y-118476190D01*
X142011905Y-118952381D02*
X142011905Y-117952381D01*
X142392858Y-117952381D01*
X142488096Y-118000000D01*
X142535715Y-118047619D01*
X142583334Y-118142857D01*
X142583334Y-118285714D01*
X142535715Y-118380952D01*
X142488096Y-118428571D01*
X142392858Y-118476190D01*
X142011905Y-118476190D01*
X143440477Y-117952381D02*
X143250000Y-117952381D01*
X143154762Y-118000000D01*
X143107143Y-118047619D01*
X143011905Y-118190476D01*
X142964286Y-118380952D01*
X142964286Y-118761905D01*
X143011905Y-118857143D01*
X143059524Y-118904762D01*
X143154762Y-118952381D01*
X143345239Y-118952381D01*
X143440477Y-118904762D01*
X143488096Y-118857143D01*
X143535715Y-118761905D01*
X143535715Y-118523810D01*
X143488096Y-118428571D01*
X143440477Y-118380952D01*
X143345239Y-118333333D01*
X143154762Y-118333333D01*
X143059524Y-118380952D01*
X143011905Y-118428571D01*
X142964286Y-118523810D01*
X146107143Y-110142857D02*
X146154762Y-110190476D01*
X146202381Y-110333333D01*
X146202381Y-110428571D01*
X146154762Y-110571429D01*
X146059524Y-110666667D01*
X145964286Y-110714286D01*
X145773810Y-110761905D01*
X145630952Y-110761905D01*
X145440476Y-110714286D01*
X145345238Y-110666667D01*
X145250000Y-110571429D01*
X145202381Y-110428571D01*
X145202381Y-110333333D01*
X145250000Y-110190476D01*
X145297619Y-110142857D01*
X146202381Y-109190476D02*
X146202381Y-109761905D01*
X146202381Y-109476191D02*
X145202381Y-109476191D01*
X145345238Y-109571429D01*
X145440476Y-109666667D01*
X145488095Y-109761905D01*
X146202381Y-108238095D02*
X146202381Y-108809524D01*
X146202381Y-108523810D02*
X145202381Y-108523810D01*
X145345238Y-108619048D01*
X145440476Y-108714286D01*
X145488095Y-108809524D01*
X146357143Y-92642857D02*
X146404762Y-92690476D01*
X146452381Y-92833333D01*
X146452381Y-92928571D01*
X146404762Y-93071429D01*
X146309524Y-93166667D01*
X146214286Y-93214286D01*
X146023810Y-93261905D01*
X145880952Y-93261905D01*
X145690476Y-93214286D01*
X145595238Y-93166667D01*
X145500000Y-93071429D01*
X145452381Y-92928571D01*
X145452381Y-92833333D01*
X145500000Y-92690476D01*
X145547619Y-92642857D01*
X146452381Y-91690476D02*
X146452381Y-92261905D01*
X146452381Y-91976191D02*
X145452381Y-91976191D01*
X145595238Y-92071429D01*
X145690476Y-92166667D01*
X145738095Y-92261905D01*
X145547619Y-91309524D02*
X145500000Y-91261905D01*
X145452381Y-91166667D01*
X145452381Y-90928571D01*
X145500000Y-90833333D01*
X145547619Y-90785714D01*
X145642857Y-90738095D01*
X145738095Y-90738095D01*
X145880952Y-90785714D01*
X146452381Y-91357143D01*
X146452381Y-90738095D01*
X160917619Y-99385238D02*
X160870000Y-99480476D01*
X160774762Y-99575714D01*
X160631905Y-99718571D01*
X160584286Y-99813810D01*
X160584286Y-99909048D01*
X160822381Y-99861429D02*
X160774762Y-99956667D01*
X160679524Y-100051905D01*
X160489048Y-100099524D01*
X160155714Y-100099524D01*
X159965238Y-100051905D01*
X159870000Y-99956667D01*
X159822381Y-99861429D01*
X159822381Y-99670952D01*
X159870000Y-99575714D01*
X159965238Y-99480476D01*
X160155714Y-99432857D01*
X160489048Y-99432857D01*
X160679524Y-99480476D01*
X160774762Y-99575714D01*
X160822381Y-99670952D01*
X160822381Y-99861429D01*
X159917619Y-99051905D02*
X159870000Y-99004286D01*
X159822381Y-98909048D01*
X159822381Y-98670952D01*
X159870000Y-98575714D01*
X159917619Y-98528095D01*
X160012857Y-98480476D01*
X160108095Y-98480476D01*
X160250952Y-98528095D01*
X160822381Y-99099524D01*
X160822381Y-98480476D01*
X143857143Y-130142857D02*
X143904762Y-130190476D01*
X143952381Y-130333333D01*
X143952381Y-130428571D01*
X143904762Y-130571429D01*
X143809524Y-130666667D01*
X143714286Y-130714286D01*
X143523810Y-130761905D01*
X143380952Y-130761905D01*
X143190476Y-130714286D01*
X143095238Y-130666667D01*
X143000000Y-130571429D01*
X142952381Y-130428571D01*
X142952381Y-130333333D01*
X143000000Y-130190476D01*
X143047619Y-130142857D01*
X143952381Y-129190476D02*
X143952381Y-129761905D01*
X143952381Y-129476191D02*
X142952381Y-129476191D01*
X143095238Y-129571429D01*
X143190476Y-129666667D01*
X143238095Y-129761905D01*
X142952381Y-128857143D02*
X142952381Y-128238095D01*
X143333333Y-128571429D01*
X143333333Y-128428571D01*
X143380952Y-128333333D01*
X143428571Y-128285714D01*
X143523810Y-128238095D01*
X143761905Y-128238095D01*
X143857143Y-128285714D01*
X143904762Y-128333333D01*
X143952381Y-128428571D01*
X143952381Y-128714286D01*
X143904762Y-128809524D01*
X143857143Y-128857143D01*
X143857143Y-137642857D02*
X143904762Y-137690476D01*
X143952381Y-137833333D01*
X143952381Y-137928571D01*
X143904762Y-138071429D01*
X143809524Y-138166667D01*
X143714286Y-138214286D01*
X143523810Y-138261905D01*
X143380952Y-138261905D01*
X143190476Y-138214286D01*
X143095238Y-138166667D01*
X143000000Y-138071429D01*
X142952381Y-137928571D01*
X142952381Y-137833333D01*
X143000000Y-137690476D01*
X143047619Y-137642857D01*
X143952381Y-136690476D02*
X143952381Y-137261905D01*
X143952381Y-136976191D02*
X142952381Y-136976191D01*
X143095238Y-137071429D01*
X143190476Y-137166667D01*
X143238095Y-137261905D01*
X143285714Y-135833333D02*
X143952381Y-135833333D01*
X142904762Y-136071429D02*
X143619048Y-136309524D01*
X143619048Y-135690476D01*
X137357143Y-133857143D02*
X137309524Y-133904762D01*
X137166667Y-133952381D01*
X137071429Y-133952381D01*
X136928571Y-133904762D01*
X136833333Y-133809524D01*
X136785714Y-133714286D01*
X136738095Y-133523810D01*
X136738095Y-133380952D01*
X136785714Y-133190476D01*
X136833333Y-133095238D01*
X136928571Y-133000000D01*
X137071429Y-132952381D01*
X137166667Y-132952381D01*
X137309524Y-133000000D01*
X137357143Y-133047619D01*
X138309524Y-133952381D02*
X137738095Y-133952381D01*
X138023809Y-133952381D02*
X138023809Y-132952381D01*
X137928571Y-133095238D01*
X137833333Y-133190476D01*
X137738095Y-133238095D01*
X139214286Y-132952381D02*
X138738095Y-132952381D01*
X138690476Y-133428571D01*
X138738095Y-133380952D01*
X138833333Y-133333333D01*
X139071429Y-133333333D01*
X139166667Y-133380952D01*
X139214286Y-133428571D01*
X139261905Y-133523810D01*
X139261905Y-133761905D01*
X139214286Y-133857143D01*
X139166667Y-133904762D01*
X139071429Y-133952381D01*
X138833333Y-133952381D01*
X138738095Y-133904762D01*
X138690476Y-133857143D01*
X147357143Y-142357143D02*
X147309524Y-142404762D01*
X147166667Y-142452381D01*
X147071429Y-142452381D01*
X146928571Y-142404762D01*
X146833333Y-142309524D01*
X146785714Y-142214286D01*
X146738095Y-142023810D01*
X146738095Y-141880952D01*
X146785714Y-141690476D01*
X146833333Y-141595238D01*
X146928571Y-141500000D01*
X147071429Y-141452381D01*
X147166667Y-141452381D01*
X147309524Y-141500000D01*
X147357143Y-141547619D01*
X148309524Y-142452381D02*
X147738095Y-142452381D01*
X148023809Y-142452381D02*
X148023809Y-141452381D01*
X147928571Y-141595238D01*
X147833333Y-141690476D01*
X147738095Y-141738095D01*
X149166667Y-141452381D02*
X148976190Y-141452381D01*
X148880952Y-141500000D01*
X148833333Y-141547619D01*
X148738095Y-141690476D01*
X148690476Y-141880952D01*
X148690476Y-142261905D01*
X148738095Y-142357143D01*
X148785714Y-142404762D01*
X148880952Y-142452381D01*
X149071429Y-142452381D01*
X149166667Y-142404762D01*
X149214286Y-142357143D01*
X149261905Y-142261905D01*
X149261905Y-142023810D01*
X149214286Y-141928571D01*
X149166667Y-141880952D01*
X149071429Y-141833333D01*
X148880952Y-141833333D01*
X148785714Y-141880952D01*
X148738095Y-141928571D01*
X148690476Y-142023810D01*
X165857143Y-134357143D02*
X165809524Y-134404762D01*
X165666667Y-134452381D01*
X165571429Y-134452381D01*
X165428571Y-134404762D01*
X165333333Y-134309524D01*
X165285714Y-134214286D01*
X165238095Y-134023810D01*
X165238095Y-133880952D01*
X165285714Y-133690476D01*
X165333333Y-133595238D01*
X165428571Y-133500000D01*
X165571429Y-133452381D01*
X165666667Y-133452381D01*
X165809524Y-133500000D01*
X165857143Y-133547619D01*
X166809524Y-134452381D02*
X166238095Y-134452381D01*
X166523809Y-134452381D02*
X166523809Y-133452381D01*
X166428571Y-133595238D01*
X166333333Y-133690476D01*
X166238095Y-133738095D01*
X167380952Y-133880952D02*
X167285714Y-133833333D01*
X167238095Y-133785714D01*
X167190476Y-133690476D01*
X167190476Y-133642857D01*
X167238095Y-133547619D01*
X167285714Y-133500000D01*
X167380952Y-133452381D01*
X167571429Y-133452381D01*
X167666667Y-133500000D01*
X167714286Y-133547619D01*
X167761905Y-133642857D01*
X167761905Y-133690476D01*
X167714286Y-133785714D01*
X167666667Y-133833333D01*
X167571429Y-133880952D01*
X167380952Y-133880952D01*
X167285714Y-133928571D01*
X167238095Y-133976190D01*
X167190476Y-134071429D01*
X167190476Y-134261905D01*
X167238095Y-134357143D01*
X167285714Y-134404762D01*
X167380952Y-134452381D01*
X167571429Y-134452381D01*
X167666667Y-134404762D01*
X167714286Y-134357143D01*
X167761905Y-134261905D01*
X167761905Y-134071429D01*
X167714286Y-133976190D01*
X167666667Y-133928571D01*
X167571429Y-133880952D01*
X126952381Y-129238095D02*
X125952381Y-129238095D01*
X125952381Y-129000000D01*
X126000000Y-128857142D01*
X126095238Y-128761904D01*
X126190476Y-128714285D01*
X126380952Y-128666666D01*
X126523810Y-128666666D01*
X126714286Y-128714285D01*
X126809524Y-128761904D01*
X126904762Y-128857142D01*
X126952381Y-129000000D01*
X126952381Y-129238095D01*
X125952381Y-128333333D02*
X125952381Y-127666666D01*
X126952381Y-128095238D01*
X126952381Y-139238095D02*
X125952381Y-139238095D01*
X125952381Y-139000000D01*
X126000000Y-138857142D01*
X126095238Y-138761904D01*
X126190476Y-138714285D01*
X126380952Y-138666666D01*
X126523810Y-138666666D01*
X126714286Y-138714285D01*
X126809524Y-138761904D01*
X126904762Y-138857142D01*
X126952381Y-139000000D01*
X126952381Y-139238095D01*
X126380952Y-138095238D02*
X126333333Y-138190476D01*
X126285714Y-138238095D01*
X126190476Y-138285714D01*
X126142857Y-138285714D01*
X126047619Y-138238095D01*
X126000000Y-138190476D01*
X125952381Y-138095238D01*
X125952381Y-137904761D01*
X126000000Y-137809523D01*
X126047619Y-137761904D01*
X126142857Y-137714285D01*
X126190476Y-137714285D01*
X126285714Y-137761904D01*
X126333333Y-137809523D01*
X126380952Y-137904761D01*
X126380952Y-138095238D01*
X126428571Y-138190476D01*
X126476190Y-138238095D01*
X126571429Y-138285714D01*
X126761905Y-138285714D01*
X126857143Y-138238095D01*
X126904762Y-138190476D01*
X126952381Y-138095238D01*
X126952381Y-137904761D01*
X126904762Y-137809523D01*
X126857143Y-137761904D01*
X126761905Y-137714285D01*
X126571429Y-137714285D01*
X126476190Y-137761904D01*
X126428571Y-137809523D01*
X126380952Y-137904761D01*
X130452381Y-129238095D02*
X129452381Y-129238095D01*
X129452381Y-129000000D01*
X129500000Y-128857142D01*
X129595238Y-128761904D01*
X129690476Y-128714285D01*
X129880952Y-128666666D01*
X130023810Y-128666666D01*
X130214286Y-128714285D01*
X130309524Y-128761904D01*
X130404762Y-128857142D01*
X130452381Y-129000000D01*
X130452381Y-129238095D01*
X130452381Y-128190476D02*
X130452381Y-128000000D01*
X130404762Y-127904761D01*
X130357143Y-127857142D01*
X130214286Y-127761904D01*
X130023810Y-127714285D01*
X129642857Y-127714285D01*
X129547619Y-127761904D01*
X129500000Y-127809523D01*
X129452381Y-127904761D01*
X129452381Y-128095238D01*
X129500000Y-128190476D01*
X129547619Y-128238095D01*
X129642857Y-128285714D01*
X129880952Y-128285714D01*
X129976190Y-128238095D01*
X130023810Y-128190476D01*
X130071429Y-128095238D01*
X130071429Y-127904761D01*
X130023810Y-127809523D01*
X129976190Y-127761904D01*
X129880952Y-127714285D01*
X130452381Y-139714286D02*
X129452381Y-139714286D01*
X129452381Y-139476191D01*
X129500000Y-139333333D01*
X129595238Y-139238095D01*
X129690476Y-139190476D01*
X129880952Y-139142857D01*
X130023810Y-139142857D01*
X130214286Y-139190476D01*
X130309524Y-139238095D01*
X130404762Y-139333333D01*
X130452381Y-139476191D01*
X130452381Y-139714286D01*
X130452381Y-138190476D02*
X130452381Y-138761905D01*
X130452381Y-138476191D02*
X129452381Y-138476191D01*
X129595238Y-138571429D01*
X129690476Y-138666667D01*
X129738095Y-138761905D01*
X129452381Y-137571429D02*
X129452381Y-137476190D01*
X129500000Y-137380952D01*
X129547619Y-137333333D01*
X129642857Y-137285714D01*
X129833333Y-137238095D01*
X130071429Y-137238095D01*
X130261905Y-137285714D01*
X130357143Y-137333333D01*
X130404762Y-137380952D01*
X130452381Y-137476190D01*
X130452381Y-137571429D01*
X130404762Y-137666667D01*
X130357143Y-137714286D01*
X130261905Y-137761905D01*
X130071429Y-137809524D01*
X129833333Y-137809524D01*
X129642857Y-137761905D01*
X129547619Y-137714286D01*
X129500000Y-137666667D01*
X129452381Y-137571429D01*
X167452381Y-140333333D02*
X168166667Y-140333333D01*
X168309524Y-140380953D01*
X168404762Y-140476191D01*
X168452381Y-140619048D01*
X168452381Y-140714286D01*
X168452381Y-139857143D02*
X167452381Y-139857143D01*
X167452381Y-139476190D01*
X167500000Y-139380952D01*
X167547619Y-139333333D01*
X167642857Y-139285714D01*
X167785714Y-139285714D01*
X167880952Y-139333333D01*
X167928571Y-139380952D01*
X167976190Y-139476190D01*
X167976190Y-139857143D01*
X167547619Y-138904762D02*
X167500000Y-138857143D01*
X167452381Y-138761905D01*
X167452381Y-138523809D01*
X167500000Y-138428571D01*
X167547619Y-138380952D01*
X167642857Y-138333333D01*
X167738095Y-138333333D01*
X167880952Y-138380952D01*
X168452381Y-138952381D01*
X168452381Y-138333333D01*
X136333334Y-129452381D02*
X136000000Y-128976190D01*
X135761905Y-129452381D02*
X135761905Y-128452381D01*
X136142858Y-128452381D01*
X136238096Y-128500000D01*
X136285715Y-128547619D01*
X136333334Y-128642857D01*
X136333334Y-128785714D01*
X136285715Y-128880952D01*
X136238096Y-128928571D01*
X136142858Y-128976190D01*
X135761905Y-128976190D01*
X136666667Y-128452381D02*
X137333334Y-128452381D01*
X136904762Y-129452381D01*
X136333334Y-138452381D02*
X136000000Y-137976190D01*
X135761905Y-138452381D02*
X135761905Y-137452381D01*
X136142858Y-137452381D01*
X136238096Y-137500000D01*
X136285715Y-137547619D01*
X136333334Y-137642857D01*
X136333334Y-137785714D01*
X136285715Y-137880952D01*
X136238096Y-137928571D01*
X136142858Y-137976190D01*
X135761905Y-137976190D01*
X136904762Y-137880952D02*
X136809524Y-137833333D01*
X136761905Y-137785714D01*
X136714286Y-137690476D01*
X136714286Y-137642857D01*
X136761905Y-137547619D01*
X136809524Y-137500000D01*
X136904762Y-137452381D01*
X137095239Y-137452381D01*
X137190477Y-137500000D01*
X137238096Y-137547619D01*
X137285715Y-137642857D01*
X137285715Y-137690476D01*
X137238096Y-137785714D01*
X137190477Y-137833333D01*
X137095239Y-137880952D01*
X136904762Y-137880952D01*
X136809524Y-137928571D01*
X136761905Y-137976190D01*
X136714286Y-138071429D01*
X136714286Y-138261905D01*
X136761905Y-138357143D01*
X136809524Y-138404762D01*
X136904762Y-138452381D01*
X137095239Y-138452381D01*
X137190477Y-138404762D01*
X137238096Y-138357143D01*
X137285715Y-138261905D01*
X137285715Y-138071429D01*
X137238096Y-137976190D01*
X137190477Y-137928571D01*
X137095239Y-137880952D01*
X156238095Y-139952381D02*
X156238095Y-140761905D01*
X156285714Y-140857143D01*
X156333333Y-140904762D01*
X156428571Y-140952381D01*
X156619048Y-140952381D01*
X156714286Y-140904762D01*
X156761905Y-140857143D01*
X156809524Y-140761905D01*
X156809524Y-139952381D01*
X157238095Y-140047619D02*
X157285714Y-140000000D01*
X157380952Y-139952381D01*
X157619048Y-139952381D01*
X157714286Y-140000000D01*
X157761905Y-140047619D01*
X157809524Y-140142857D01*
X157809524Y-140238095D01*
X157761905Y-140380952D01*
X157190476Y-140952381D01*
X157809524Y-140952381D01*
X104666667Y-64952381D02*
X104666667Y-65666667D01*
X104619047Y-65809524D01*
X104523809Y-65904762D01*
X104380952Y-65952381D01*
X104285714Y-65952381D01*
X105571429Y-64952381D02*
X105380952Y-64952381D01*
X105285714Y-65000000D01*
X105238095Y-65047619D01*
X105142857Y-65190476D01*
X105095238Y-65380952D01*
X105095238Y-65761905D01*
X105142857Y-65857143D01*
X105190476Y-65904762D01*
X105285714Y-65952381D01*
X105476191Y-65952381D01*
X105571429Y-65904762D01*
X105619048Y-65857143D01*
X105666667Y-65761905D01*
X105666667Y-65523810D01*
X105619048Y-65428571D01*
X105571429Y-65380952D01*
X105476191Y-65333333D01*
X105285714Y-65333333D01*
X105190476Y-65380952D01*
X105142857Y-65428571D01*
X105095238Y-65523810D01*
X180666667Y-59452381D02*
X180666667Y-60166667D01*
X180619047Y-60309524D01*
X180523809Y-60404762D01*
X180380952Y-60452381D01*
X180285714Y-60452381D01*
X181047619Y-59452381D02*
X181714286Y-59452381D01*
X181285714Y-60452381D01*
X104666667Y-145404381D02*
X104666667Y-146118667D01*
X104619047Y-146261524D01*
X104523809Y-146356762D01*
X104380952Y-146404381D01*
X104285714Y-146404381D01*
X105285714Y-145832952D02*
X105190476Y-145785333D01*
X105142857Y-145737714D01*
X105095238Y-145642476D01*
X105095238Y-145594857D01*
X105142857Y-145499619D01*
X105190476Y-145452000D01*
X105285714Y-145404381D01*
X105476191Y-145404381D01*
X105571429Y-145452000D01*
X105619048Y-145499619D01*
X105666667Y-145594857D01*
X105666667Y-145642476D01*
X105619048Y-145737714D01*
X105571429Y-145785333D01*
X105476191Y-145832952D01*
X105285714Y-145832952D01*
X105190476Y-145880571D01*
X105142857Y-145928190D01*
X105095238Y-146023429D01*
X105095238Y-146213905D01*
X105142857Y-146309143D01*
X105190476Y-146356762D01*
X105285714Y-146404381D01*
X105476191Y-146404381D01*
X105571429Y-146356762D01*
X105619048Y-146309143D01*
X105666667Y-146213905D01*
X105666667Y-146023429D01*
X105619048Y-145928190D01*
X105571429Y-145880571D01*
X105476191Y-145832952D01*
X183666667Y-145404381D02*
X183666667Y-146118667D01*
X183619047Y-146261524D01*
X183523809Y-146356762D01*
X183380952Y-146404381D01*
X183285714Y-146404381D01*
X184190476Y-146404381D02*
X184380952Y-146404381D01*
X184476191Y-146356762D01*
X184523810Y-146309143D01*
X184619048Y-146166286D01*
X184666667Y-145975810D01*
X184666667Y-145594857D01*
X184619048Y-145499619D01*
X184571429Y-145452000D01*
X184476191Y-145404381D01*
X184285714Y-145404381D01*
X184190476Y-145452000D01*
X184142857Y-145499619D01*
X184095238Y-145594857D01*
X184095238Y-145832952D01*
X184142857Y-145928190D01*
X184190476Y-145975810D01*
X184285714Y-146023429D01*
X184476191Y-146023429D01*
X184571429Y-145975810D01*
X184619048Y-145928190D01*
X184666667Y-145832952D01*
X175190477Y-83452381D02*
X175190477Y-84166667D01*
X175142857Y-84309524D01*
X175047619Y-84404762D01*
X174904762Y-84452381D01*
X174809524Y-84452381D01*
X176190477Y-84452381D02*
X175619048Y-84452381D01*
X175904762Y-84452381D02*
X175904762Y-83452381D01*
X175809524Y-83595238D01*
X175714286Y-83690476D01*
X175619048Y-83738095D01*
X176809524Y-83452381D02*
X176904763Y-83452381D01*
X177000001Y-83500000D01*
X177047620Y-83547619D01*
X177095239Y-83642857D01*
X177142858Y-83833333D01*
X177142858Y-84071429D01*
X177095239Y-84261905D01*
X177047620Y-84357143D01*
X177000001Y-84404762D01*
X176904763Y-84452381D01*
X176809524Y-84452381D01*
X176714286Y-84404762D01*
X176666667Y-84357143D01*
X176619048Y-84261905D01*
X176571429Y-84071429D01*
X176571429Y-83833333D01*
X176619048Y-83642857D01*
X176666667Y-83547619D01*
X176714286Y-83500000D01*
X176809524Y-83452381D01*
X174440477Y-141952381D02*
X174440477Y-142666667D01*
X174392857Y-142809524D01*
X174297619Y-142904762D01*
X174154762Y-142952381D01*
X174059524Y-142952381D01*
X175440477Y-142952381D02*
X174869048Y-142952381D01*
X175154762Y-142952381D02*
X175154762Y-141952381D01*
X175059524Y-142095238D01*
X174964286Y-142190476D01*
X174869048Y-142238095D01*
X176392858Y-142952381D02*
X175821429Y-142952381D01*
X176107143Y-142952381D02*
X176107143Y-141952381D01*
X176011905Y-142095238D01*
X175916667Y-142190476D01*
X175821429Y-142238095D01*
X110166667Y-76952381D02*
X110166667Y-77666667D01*
X110119047Y-77809524D01*
X110023809Y-77904762D01*
X109880952Y-77952381D01*
X109785714Y-77952381D01*
X111166667Y-77952381D02*
X110595238Y-77952381D01*
X110880952Y-77952381D02*
X110880952Y-76952381D01*
X110785714Y-77095238D01*
X110690476Y-77190476D01*
X110595238Y-77238095D01*
X110166667Y-131952381D02*
X110166667Y-132666667D01*
X110119047Y-132809524D01*
X110023809Y-132904762D01*
X109880952Y-132952381D01*
X109785714Y-132952381D01*
X111071429Y-132285714D02*
X111071429Y-132952381D01*
X110833333Y-131904762D02*
X110595238Y-132619048D01*
X111214286Y-132619048D01*
X158083334Y-66857143D02*
X158035715Y-66904762D01*
X157892858Y-66952381D01*
X157797620Y-66952381D01*
X157654762Y-66904762D01*
X157559524Y-66809524D01*
X157511905Y-66714286D01*
X157464286Y-66523810D01*
X157464286Y-66380952D01*
X157511905Y-66190476D01*
X157559524Y-66095238D01*
X157654762Y-66000000D01*
X157797620Y-65952381D01*
X157892858Y-65952381D01*
X158035715Y-66000000D01*
X158083334Y-66047619D01*
X158988096Y-65952381D02*
X158511905Y-65952381D01*
X158464286Y-66428571D01*
X158511905Y-66380952D01*
X158607143Y-66333333D01*
X158845239Y-66333333D01*
X158940477Y-66380952D01*
X158988096Y-66428571D01*
X159035715Y-66523810D01*
X159035715Y-66761905D01*
X158988096Y-66857143D01*
X158940477Y-66904762D01*
X158845239Y-66952381D01*
X158607143Y-66952381D01*
X158511905Y-66904762D01*
X158464286Y-66857143D01*
X155107143Y-149107143D02*
X155059524Y-149154762D01*
X154916667Y-149202381D01*
X154821429Y-149202381D01*
X154678571Y-149154762D01*
X154583333Y-149059524D01*
X154535714Y-148964286D01*
X154488095Y-148773810D01*
X154488095Y-148630952D01*
X154535714Y-148440476D01*
X154583333Y-148345238D01*
X154678571Y-148250000D01*
X154821429Y-148202381D01*
X154916667Y-148202381D01*
X155059524Y-148250000D01*
X155107143Y-148297619D01*
X156059524Y-149202381D02*
X155488095Y-149202381D01*
X155773809Y-149202381D02*
X155773809Y-148202381D01*
X155678571Y-148345238D01*
X155583333Y-148440476D01*
X155488095Y-148488095D01*
X156392857Y-148202381D02*
X157059524Y-148202381D01*
X156630952Y-149202381D01*
X148662381Y-103984286D02*
X147662381Y-103984286D01*
X147662381Y-103746191D01*
X147710000Y-103603333D01*
X147805238Y-103508095D01*
X147900476Y-103460476D01*
X148090952Y-103412857D01*
X148233810Y-103412857D01*
X148424286Y-103460476D01*
X148519524Y-103508095D01*
X148614762Y-103603333D01*
X148662381Y-103746191D01*
X148662381Y-103984286D01*
X148662381Y-102460476D02*
X148662381Y-103031905D01*
X148662381Y-102746191D02*
X147662381Y-102746191D01*
X147805238Y-102841429D01*
X147900476Y-102936667D01*
X147948095Y-103031905D01*
X148662381Y-101508095D02*
X148662381Y-102079524D01*
X148662381Y-101793810D02*
X147662381Y-101793810D01*
X147805238Y-101889048D01*
X147900476Y-101984286D01*
X147948095Y-102079524D01*
X132702381Y-120714286D02*
X131702381Y-120714286D01*
X131702381Y-120476191D01*
X131750000Y-120333333D01*
X131845238Y-120238095D01*
X131940476Y-120190476D01*
X132130952Y-120142857D01*
X132273810Y-120142857D01*
X132464286Y-120190476D01*
X132559524Y-120238095D01*
X132654762Y-120333333D01*
X132702381Y-120476191D01*
X132702381Y-120714286D01*
X132702381Y-119190476D02*
X132702381Y-119761905D01*
X132702381Y-119476191D02*
X131702381Y-119476191D01*
X131845238Y-119571429D01*
X131940476Y-119666667D01*
X131988095Y-119761905D01*
X131797619Y-118809524D02*
X131750000Y-118761905D01*
X131702381Y-118666667D01*
X131702381Y-118428571D01*
X131750000Y-118333333D01*
X131797619Y-118285714D01*
X131892857Y-118238095D01*
X131988095Y-118238095D01*
X132130952Y-118285714D01*
X132702381Y-118857143D01*
X132702381Y-118238095D01*
X140083334Y-70452381D02*
X139750000Y-69976190D01*
X139511905Y-70452381D02*
X139511905Y-69452381D01*
X139892858Y-69452381D01*
X139988096Y-69500000D01*
X140035715Y-69547619D01*
X140083334Y-69642857D01*
X140083334Y-69785714D01*
X140035715Y-69880952D01*
X139988096Y-69928571D01*
X139892858Y-69976190D01*
X139511905Y-69976190D01*
X140559524Y-70452381D02*
X140750000Y-70452381D01*
X140845239Y-70404762D01*
X140892858Y-70357143D01*
X140988096Y-70214286D01*
X141035715Y-70023810D01*
X141035715Y-69642857D01*
X140988096Y-69547619D01*
X140940477Y-69500000D01*
X140845239Y-69452381D01*
X140654762Y-69452381D01*
X140559524Y-69500000D01*
X140511905Y-69547619D01*
X140464286Y-69642857D01*
X140464286Y-69880952D01*
X140511905Y-69976190D01*
X140559524Y-70023810D01*
X140654762Y-70071429D01*
X140845239Y-70071429D01*
X140940477Y-70023810D01*
X140988096Y-69976190D01*
X141035715Y-69880952D01*
X147627380Y-134392857D02*
X147151189Y-134726191D01*
X147627380Y-134964286D02*
X146627380Y-134964286D01*
X146627380Y-134583333D01*
X146674999Y-134488095D01*
X146722618Y-134440476D01*
X146817856Y-134392857D01*
X146960713Y-134392857D01*
X147055951Y-134440476D01*
X147103570Y-134488095D01*
X147151189Y-134583333D01*
X147151189Y-134964286D01*
X147627380Y-133440476D02*
X147627380Y-134011905D01*
X147627380Y-133726191D02*
X146627380Y-133726191D01*
X146770237Y-133821429D01*
X146865475Y-133916667D01*
X146913094Y-134011905D01*
X146627380Y-132821429D02*
X146627380Y-132726190D01*
X146674999Y-132630952D01*
X146722618Y-132583333D01*
X146817856Y-132535714D01*
X147008332Y-132488095D01*
X147246428Y-132488095D01*
X147436904Y-132535714D01*
X147532142Y-132583333D01*
X147579761Y-132630952D01*
X147627380Y-132726190D01*
X147627380Y-132821429D01*
X147579761Y-132916667D01*
X147532142Y-132964286D01*
X147436904Y-133011905D01*
X147246428Y-133059524D01*
X147008332Y-133059524D01*
X146817856Y-133011905D01*
X146722618Y-132964286D01*
X146674999Y-132916667D01*
X146627380Y-132821429D01*
X115582381Y-62783333D02*
X116296667Y-62783333D01*
X116439524Y-62830953D01*
X116534762Y-62926191D01*
X116582381Y-63069048D01*
X116582381Y-63164286D01*
X116582381Y-62307143D02*
X115582381Y-62307143D01*
X115582381Y-61926190D01*
X115630000Y-61830952D01*
X115677619Y-61783333D01*
X115772857Y-61735714D01*
X115915714Y-61735714D01*
X116010952Y-61783333D01*
X116058571Y-61830952D01*
X116106190Y-61926190D01*
X116106190Y-62307143D01*
X115582381Y-61402381D02*
X115582381Y-60783333D01*
X115963333Y-61116667D01*
X115963333Y-60973809D01*
X116010952Y-60878571D01*
X116058571Y-60830952D01*
X116153810Y-60783333D01*
X116391905Y-60783333D01*
X116487143Y-60830952D01*
X116534762Y-60878571D01*
X116582381Y-60973809D01*
X116582381Y-61259524D01*
X116534762Y-61354762D01*
X116487143Y-61402381D01*
X115582381Y-149383333D02*
X116296667Y-149383333D01*
X116439524Y-149430953D01*
X116534762Y-149526191D01*
X116582381Y-149669048D01*
X116582381Y-149764286D01*
X116582381Y-148907143D02*
X115582381Y-148907143D01*
X115582381Y-148526190D01*
X115630000Y-148430952D01*
X115677619Y-148383333D01*
X115772857Y-148335714D01*
X115915714Y-148335714D01*
X116010952Y-148383333D01*
X116058571Y-148430952D01*
X116106190Y-148526190D01*
X116106190Y-148907143D01*
X115915714Y-147478571D02*
X116582381Y-147478571D01*
X115534762Y-147716667D02*
X116249048Y-147954762D01*
X116249048Y-147335714D01*
X176502381Y-107933333D02*
X177216667Y-107933333D01*
X177359524Y-107980953D01*
X177454762Y-108076191D01*
X177502381Y-108219048D01*
X177502381Y-108314286D01*
X176502381Y-107552381D02*
X176502381Y-106933333D01*
X176883333Y-107266667D01*
X176883333Y-107123809D01*
X176930952Y-107028571D01*
X176978571Y-106980952D01*
X177073810Y-106933333D01*
X177311905Y-106933333D01*
X177407143Y-106980952D01*
X177454762Y-107028571D01*
X177502381Y-107123809D01*
X177502381Y-107409524D01*
X177454762Y-107504762D01*
X177407143Y-107552381D01*
X111482381Y-107269523D02*
X112196667Y-107269523D01*
X112339524Y-107317143D01*
X112434762Y-107412381D01*
X112482381Y-107555238D01*
X112482381Y-107650476D01*
X112482381Y-106269523D02*
X112482381Y-106840952D01*
X112482381Y-106555238D02*
X111482381Y-106555238D01*
X111625238Y-106650476D01*
X111720476Y-106745714D01*
X111768095Y-106840952D01*
X111577619Y-105888571D02*
X111530000Y-105840952D01*
X111482381Y-105745714D01*
X111482381Y-105507618D01*
X111530000Y-105412380D01*
X111577619Y-105364761D01*
X111672857Y-105317142D01*
X111768095Y-105317142D01*
X111910952Y-105364761D01*
X112482381Y-105936190D01*
X112482381Y-105317142D01*
X180252381Y-69933333D02*
X180966667Y-69933333D01*
X181109524Y-69980953D01*
X181204762Y-70076191D01*
X181252381Y-70219048D01*
X181252381Y-70314286D01*
X180347619Y-69504762D02*
X180300000Y-69457143D01*
X180252381Y-69361905D01*
X180252381Y-69123809D01*
X180300000Y-69028571D01*
X180347619Y-68980952D01*
X180442857Y-68933333D01*
X180538095Y-68933333D01*
X180680952Y-68980952D01*
X181252381Y-69552381D01*
X181252381Y-68933333D01*
X180252381Y-130183333D02*
X180966667Y-130183333D01*
X181109524Y-130230953D01*
X181204762Y-130326191D01*
X181252381Y-130469048D01*
X181252381Y-130564286D01*
X180252381Y-129230952D02*
X180252381Y-129707143D01*
X180728571Y-129754762D01*
X180680952Y-129707143D01*
X180633333Y-129611905D01*
X180633333Y-129373809D01*
X180680952Y-129278571D01*
X180728571Y-129230952D01*
X180823810Y-129183333D01*
X181061905Y-129183333D01*
X181157143Y-129230952D01*
X181204762Y-129278571D01*
X181252381Y-129373809D01*
X181252381Y-129611905D01*
X181204762Y-129707143D01*
X181157143Y-129754762D01*
M02*
