G04 #@! TF.FileFunction,Soldermask,Top*
%FSLAX46Y46*%
G04 Gerber Fmt 4.6, Leading zero omitted, Abs format (unit mm)*
G04 Created by KiCad (PCBNEW 4.0.7) date 09/21/20 19:08:14*
%MOMM*%
%LPD*%
G01*
G04 APERTURE LIST*
%ADD10C,0.100000*%
%ADD11C,2.000000*%
%ADD12R,2.400000X2.400000*%
%ADD13C,2.400000*%
%ADD14R,2.000000X2.000000*%
%ADD15O,2.000000X2.000000*%
%ADD16R,2.600000X2.600000*%
%ADD17O,2.600000X2.600000*%
%ADD18C,3.400000*%
%ADD19R,3.400000X3.400000*%
%ADD20R,2.100000X2.100000*%
%ADD21O,2.100000X2.100000*%
%ADD22R,2.200000X2.200000*%
%ADD23O,2.200000X2.200000*%
%ADD24C,5.900000*%
%ADD25C,4.464000*%
%ADD26C,2.600000*%
%ADD27C,2.200000*%
G04 APERTURE END LIST*
D10*
D11*
X144000000Y-78000000D03*
X144000000Y-73000000D03*
X144000000Y-85000000D03*
X144000000Y-80000000D03*
X136000000Y-78500000D03*
X141000000Y-78500000D03*
X149000000Y-86500000D03*
X149000000Y-81500000D03*
X163000000Y-78000000D03*
X168000000Y-78000000D03*
X133750000Y-108000000D03*
X138750000Y-108000000D03*
D12*
X125500000Y-96000000D03*
D13*
X125500000Y-101000000D03*
D12*
X125000000Y-116500000D03*
D13*
X125000000Y-111500000D03*
D14*
X130000000Y-69500000D03*
D15*
X130000000Y-77120000D03*
D14*
X130000000Y-79500000D03*
D15*
X130000000Y-87120000D03*
D14*
X126500000Y-69500000D03*
D15*
X126500000Y-77120000D03*
D14*
X126500000Y-79500000D03*
D15*
X126500000Y-87120000D03*
D16*
X134250000Y-94750000D03*
D17*
X141870000Y-94750000D03*
D16*
X141250000Y-111500000D03*
D17*
X133630000Y-111500000D03*
D18*
X176000000Y-67080000D03*
X176000000Y-72160000D03*
D19*
X176000000Y-62000000D03*
D18*
X176000000Y-77240000D03*
X175750000Y-105080000D03*
X175750000Y-110160000D03*
D19*
X175750000Y-100000000D03*
D18*
X175750000Y-115240000D03*
D20*
X166000000Y-82000000D03*
D21*
X166000000Y-84540000D03*
D22*
X156500000Y-116000000D03*
D23*
X156500000Y-118540000D03*
X156500000Y-121080000D03*
D11*
X140500000Y-74000000D03*
D15*
X132880000Y-74000000D03*
D11*
X140500000Y-83000000D03*
D15*
X132880000Y-83000000D03*
D11*
X146500000Y-98500000D03*
D15*
X133800000Y-98500000D03*
D11*
X133750000Y-115000000D03*
D15*
X146450000Y-115000000D03*
D14*
X152500000Y-75500000D03*
D15*
X160120000Y-83120000D03*
X152500000Y-78040000D03*
X160120000Y-80580000D03*
X152500000Y-80580000D03*
X160120000Y-78040000D03*
X152500000Y-83120000D03*
X160120000Y-75500000D03*
D11*
X140500000Y-91500000D03*
X135500000Y-91500000D03*
X141250000Y-103500000D03*
D15*
X133630000Y-103500000D03*
D11*
X138750000Y-118500000D03*
D15*
X146370000Y-118500000D03*
D11*
X145750000Y-107000000D03*
X145750000Y-112000000D03*
X146000000Y-94500000D03*
X146000000Y-89500000D03*
D22*
X156750000Y-96750000D03*
D23*
X156750000Y-99290000D03*
X156750000Y-101830000D03*
D11*
X143500000Y-132000000D03*
X143500000Y-127000000D03*
X143500000Y-139500000D03*
X143500000Y-134500000D03*
X135500000Y-133500000D03*
X140500000Y-133500000D03*
X145500000Y-142000000D03*
X150500000Y-142000000D03*
X164000000Y-134000000D03*
X169000000Y-134000000D03*
D14*
X126500000Y-124500000D03*
D15*
X126500000Y-132120000D03*
D14*
X126500000Y-134500000D03*
D15*
X126500000Y-142120000D03*
D14*
X130000000Y-124500000D03*
D15*
X130000000Y-132120000D03*
D14*
X130000000Y-134500000D03*
D15*
X130000000Y-142120000D03*
D18*
X176000000Y-127330000D03*
X176000000Y-132410000D03*
D19*
X176000000Y-122250000D03*
D18*
X176000000Y-137490000D03*
D20*
X165500000Y-138000000D03*
D21*
X165500000Y-140540000D03*
D11*
X140500000Y-129000000D03*
D15*
X132880000Y-129000000D03*
D11*
X140500000Y-138000000D03*
D15*
X132880000Y-138000000D03*
D14*
X153000000Y-133000000D03*
D15*
X160620000Y-140620000D03*
X153000000Y-135540000D03*
X160620000Y-138080000D03*
X153000000Y-138080000D03*
X160620000Y-135540000D03*
X153000000Y-140620000D03*
X160620000Y-133000000D03*
D24*
X105000000Y-62000000D03*
D25*
X184000000Y-62000000D03*
D24*
X105000000Y-149000000D03*
D25*
X184000000Y-149000000D03*
D26*
X173460000Y-91540000D03*
X173460000Y-86460000D03*
X178540000Y-86460000D03*
X178540000Y-91540000D03*
D13*
X176000000Y-89000000D03*
D26*
X172710000Y-150040000D03*
X172710000Y-144960000D03*
X177790000Y-144960000D03*
X177790000Y-150040000D03*
D13*
X175250000Y-147500000D03*
D18*
X118760000Y-78000000D03*
X114310000Y-82050000D03*
D13*
X105420000Y-81810000D03*
X110500000Y-74190000D03*
D18*
X114950000Y-73950000D03*
X108590000Y-86250000D03*
X118760000Y-133000000D03*
X114310000Y-137050000D03*
D13*
X105420000Y-136810000D03*
X110500000Y-129190000D03*
D18*
X114950000Y-128950000D03*
X108590000Y-141250000D03*
D14*
X159500000Y-69000000D03*
D11*
X154500000Y-69000000D03*
D14*
X154750000Y-146750000D03*
D11*
X159750000Y-146750000D03*
X110750000Y-61000000D03*
X115750000Y-61000000D03*
X110000000Y-150000000D03*
X115000000Y-150000000D03*
D22*
X145250000Y-101500000D03*
D27*
X145250000Y-104040000D03*
D22*
X135250000Y-121000000D03*
D27*
X135250000Y-118460000D03*
D11*
X136750000Y-70000000D03*
D15*
X144370000Y-70000000D03*
D11*
X147250000Y-137500000D03*
D15*
X147250000Y-129880000D03*
M02*
