M48
;DRILL file {KiCad 4.0.7} date 08/19/20 12:27:45
;FORMAT={-:-/ absolute / metric / decimal}
FMAT,2
METRIC,TZ
T1C0.800
T2C1.000
T3C1.100
T4C1.500
T5C1.520
T6C1.700
T7C2.000
T8C3.048
%
G90
G05
M71
T1
X126.5Y-69.5
X126.5Y-77.12
X126.5Y-79.5
X126.5Y-87.12
X126.5Y-124.5
X126.5Y-132.12
X126.5Y-134.5
X126.5Y-142.12
X130.Y-69.5
X130.Y-77.12
X130.Y-79.5
X130.Y-87.12
X130.Y-124.5
X130.Y-132.12
X130.Y-134.5
X130.Y-142.12
X132.88Y-74.
X132.88Y-83.
X132.88Y-129.
X132.88Y-138.
X133.5Y-106.
X133.8Y-98.5
X134.Y-114.
X135.5Y-91.5
X135.5Y-133.5
X136.Y-78.5
X138.5Y-106.
X139.Y-118.5
X139.38Y-102.5
X140.5Y-74.
X140.5Y-83.
X140.5Y-91.5
X140.5Y-129.
X140.5Y-133.5
X140.5Y-138.
X141.Y-78.5
X143.5Y-127.
X143.5Y-132.
X143.5Y-134.5
X143.5Y-139.5
X144.Y-73.
X144.Y-78.
X144.Y-80.
X144.Y-85.
X145.5Y-105.5
X145.5Y-110.5
X145.5Y-142.
X146.Y-89.5
X146.Y-94.5
X146.5Y-98.5
X146.62Y-118.5
X146.7Y-114.
X147.Y-102.5
X149.Y-81.5
X149.Y-86.5
X150.5Y-142.
X152.5Y-75.5
X152.5Y-78.04
X152.5Y-80.58
X152.5Y-83.12
X153.Y-133.
X153.Y-135.54
X153.Y-138.08
X153.Y-140.62
X154.Y-71.
X155.Y-129.
X159.Y-71.
X160.Y-129.
X160.12Y-75.5
X160.12Y-78.04
X160.12Y-80.58
X160.12Y-83.12
X160.62Y-133.
X160.62Y-135.54
X160.62Y-138.08
X160.62Y-140.62
X163.Y-78.
X164.Y-134.
X168.Y-78.
X169.Y-134.
T2
X125.Y-111.5
X125.Y-116.5
X125.5Y-96.
X125.5Y-101.
X156.25Y-95.5
X156.25Y-98.04
X156.25Y-100.58
X156.5Y-112.25
X156.5Y-114.79
X156.5Y-117.33
X165.5Y-138.
X165.5Y-140.54
X166.Y-82.
X166.Y-84.54
T3
X133.63Y-109.75
X134.25Y-94.75
X141.25Y-109.75
X141.87Y-94.75
T4
X175.25Y-147.5
X176.Y-89.
T5
X175.75Y-100.
X175.75Y-105.08
X175.75Y-110.16
X175.75Y-115.24
X176.Y-62.
X176.Y-67.08
X176.Y-72.16
X176.Y-77.24
X176.Y-122.25
X176.Y-127.33
X176.Y-132.41
X176.Y-137.49
T6
X172.71Y-144.96
X172.71Y-150.04
X173.46Y-86.46
X173.46Y-91.54
X177.79Y-144.96
X177.79Y-150.04
X178.54Y-86.46
X178.54Y-91.54
T7
X114.31Y-73.95
X114.31Y-82.05
X114.31Y-128.95
X114.31Y-137.05
X118.76Y-78.
X118.76Y-133.
T8
X105.Y-62.
X105.Y-149.
X184.Y-62.
X184.Y-149.
T0
M30
